<svg xmlns="http://www.w3.org/2000/svg" xmlns:xlink="http://www.w3.org/1999/xlink" viewBox="0 0 29.46 17.19"><defs><style>.cls-1{fill:none;}.cls-2{clip-path:url(#clip-path);}.cls-3{fill:#d90037;}.cls-4{fill:#eee528;}.cls-5{fill:#221e88;}.cls-6{fill:#272425;}.cls-7{fill:#dbc190;}.cls-8{fill:#4b2508;}.cls-9{fill:#fff;}.cls-10{fill:#f9eb2e;}.cls-11{fill:#3227fc;}</style><clipPath id="clip-path"><rect class="cls-1" width="29.46" height="17.19"/></clipPath></defs><g id="Layer_2" data-name="Layer 2"><g id="Layer_1-2" data-name="Layer 1"><g id="EUROPE"><g id="ANDORRA"><g class="cls-2"><rect class="cls-3" x="20.25" width="9.21" height="17.19"/><rect class="cls-4" x="9.21" width="11.03" height="17.19"/><rect class="cls-5" width="9.21" height="17.19"/><g class="cls-2"><path class="cls-6" d="M15.09,5.08a.09.09,0,0,1,0-.13.12.12,0,0,1,.14,0l0,0h0l-.06,0a.1.1,0,0,0-.12,0,.08.08,0,0,0,0,.12Z"/><path class="cls-7" d="M11.55,9.75l0-.08,0-.06,0-.08,0,0h0l0,0,0,0h0l0,0,0,.05-.06.08Z"/><path class="cls-7" d="M13.82,3.73c.36,0,.51.32.87.32a1,1,0,0,0,.55-.19.74.74,0,0,1,.38-.12.34.34,0,0,1,.34.19.59.59,0,0,1,.06.32,2.91,2.91,0,0,1-.12.39.34.34,0,0,0-.07.19c0,.19.27.26.44.26a.83.83,0,0,0,.57-.19c-.11,0-.23-.09-.23-.2a.26.26,0,0,1,.2-.24h.08s0,0,0-.07a.28.28,0,0,1,.17-.07.17.17,0,0,1,.12,0,.07.07,0,0,0,.06,0s.08,0,.13,0a.23.23,0,0,1,.11,0s0,.07.07.07a.91.91,0,0,1,.16,0,.3.3,0,0,1,.23.11s0,.07,0,.07a.29.29,0,0,1,.18.07l.05.07a.18.18,0,0,0,.05.07l.08,0a.26.26,0,0,1,.13.23.36.36,0,0,1,0,.1c-.09.31-.3.41-.51.67a.56.56,0,0,0-.16.35.31.31,0,0,0,.06.13c0-.07,0-.15.09-.16a.19.19,0,0,1,.19.17s0,.06,0,.09a.4.4,0,0,1,.18-.07h.09a.76.76,0,0,1,.44.18,1,1,0,0,1,.34.79c0,.25,0,.7-.65.87a.28.28,0,0,1,.2.25.21.21,0,0,1-.37.15.59.59,0,0,0-.16.46.68.68,0,0,0,.07.28.61.61,0,0,0,.18.24.2.2,0,0,1,.18-.12.21.21,0,0,1,.19.1s0,0,0,.07,0,0,.06.06,0,.08,0,.13,0,0,.05.06A.31.31,0,0,1,19,10a.26.26,0,0,1-.27.24s-.07,0-.11,0a1,1,0,0,1,.2.21.82.82,0,0,1,.13.4.28.28,0,0,1,0,.09,1,1,0,0,1-.13.52,1,1,0,0,1-.33.4,1.59,1.59,0,0,1-.75.3,3,3,0,0,1-.52.07l-.66,0a1.08,1.08,0,0,0-.81.31.38.38,0,0,1,.19.31.31.31,0,0,1-.23.29h-.08s0,.06-.07.09a.37.37,0,0,1-.18,0,.37.37,0,0,1-.3-.12c-.1.09-.14.17-.26.23s-.05,0-.1,0-.1,0-.16-.08a1.8,1.8,0,0,1-.2-.19.55.55,0,0,1-.3.11.29.29,0,0,1-.18,0s0-.05-.08-.07a.29.29,0,0,0-.1,0,.34.34,0,0,1-.23-.32.3.3,0,0,1,.21-.28,1.07,1.07,0,0,0-.8-.3l-.66,0-.52-.07a1,1,0,0,1-.38-.1A1.26,1.26,0,0,1,10.49,11a.41.41,0,0,1,0-.11.83.83,0,0,1,.3-.64s-.08,0-.13,0a.29.29,0,0,1-.21-.26.24.24,0,0,1,0-.12s0,0,0-.07,0-.07,0-.11,0,0,.05-.06.1-.16.19-.16a.18.18,0,0,1,.18.12c.08,0,.1-.1.15-.18A.61.61,0,0,0,11.22,9a.71.71,0,0,0,0-.26.34.34,0,0,0-.09-.18.19.19,0,0,1-.16.07.25.25,0,0,1-.24-.25.23.23,0,0,1,.14-.22,1.43,1.43,0,0,0-.21-.12.84.84,0,0,1-.25-.28.6.6,0,0,1-.09-.22,1,1,0,0,1,0-.29V7.19a1,1,0,0,1,.22-.56.68.68,0,0,1,.27-.23A.74.74,0,0,1,11,6.32h.09a.23.23,0,0,1,.14,0s0,0,0,0,0,0,0-.06a.18.18,0,0,1,.16-.18c.08,0,.1.06.14.12a.2.2,0,0,0,0-.11.57.57,0,0,0-.18-.37c-.22-.27-.5-.4-.5-.75a.25.25,0,0,1,.14-.23s.06,0,.09,0,0,0,0-.06l.07-.08c.05,0,.1,0,.15-.06s0,0,.06-.07a.23.23,0,0,1,.21-.11h.12l0,0,.07-.06a.18.18,0,0,1,.1,0c.05,0,.09,0,.14,0s0,0,0,0a.21.21,0,0,1,.13-.05.33.33,0,0,1,.13,0s0,.07.09.09,0,0,.07,0a.26.26,0,0,1,.22.25.19.19,0,0,1-.07.16s-.08,0-.13,0a.77.77,0,0,0,.53.17c.2,0,.44-.08.44-.28s0-.14-.09-.23a.91.91,0,0,1-.1-.4.47.47,0,0,1,.09-.31.33.33,0,0,1,.31-.14Z"/><path class="cls-6" d="M11.2,6.84h.05a.11.11,0,0,0,0-.11.12.12,0,0,0-.11-.09.1.1,0,0,1,.12.09.12.12,0,0,1,0,.12Z"/><path class="cls-7" d="M15,13c-.18,0-.26-.14-.26-.23v-.08a.75.75,0,0,1,.21-.32l0,0a.41.41,0,0,1,.12-.09,1.65,1.65,0,0,1,.48-.21l.12,0,.21,0H16l.26,0h1.2a1.59,1.59,0,0,0,.67-.19.73.73,0,0,0,.3-.82.28.28,0,0,0-.05-.12.18.18,0,0,0-.05-.07.33.33,0,0,0-.11-.1.25.25,0,0,0-.28,0,.16.16,0,0,0,0,.15.16.16,0,0,0,0,.06h0l0-.07a.17.17,0,0,1,.05-.16.25.25,0,0,1,.29,0,.28.28,0,0,1,.12.1l.05.07a.33.33,0,0,1,0,.12.73.73,0,0,1-.31.84,1.42,1.42,0,0,1-.67.19l-.27,0h-.49c-.11,0-.21,0-.34,0h-.1l-.26,0h-.07l-.18,0-.14,0a1.88,1.88,0,0,0-.46.19l-.12.08-.06.06a.62.62,0,0,0-.2.31.22.22,0,0,0,0,.08c0,.09.08.19.25.23Z"/><path class="cls-8" d="M15.63,13a.18.18,0,0,1-.16-.11.25.25,0,0,0,.18.08.1.1,0,0,0,.07,0,.08.08,0,0,0,0-.07v0h0l0,0v0a.09.09,0,0,1,0,.06l0,0a.1.1,0,0,1,0,.09.13.13,0,0,1-.09,0Z"/><path class="cls-8" d="M11.27,11.59a.67.67,0,0,1-.22-.74.8.8,0,0,1,0-.11l.05-.07a.3.3,0,0,1,.13-.11.25.25,0,0,1,.29,0,.17.17,0,0,1,0,.21s-.06,0-.09,0,0,0,0,0v0l0,0c.06,0,.07,0,.09,0a.14.14,0,0,0,0-.17.23.23,0,0,0-.26,0,.47.47,0,0,0-.11.1l0,.07a.31.31,0,0,0-.05.11.71.71,0,0,0,.19.73Z"/><path class="cls-8" d="M15.62,12.94a.16.16,0,0,1-.15-.11s.08.09.17.08a.09.09,0,0,0,.06,0,.08.08,0,0,0,0-.07s0,0,0,0h0l0,0s0,0,0,0,0,0,0,0l0,0,0,.05a.15.15,0,0,1,0,.09.13.13,0,0,1-.09,0Z"/><path class="cls-8" d="M14.36,5.1a.16.16,0,0,0,0-.14s-.07,0-.11,0L14.12,5h0V5l.11-.06a.13.13,0,0,1,.16,0,.11.11,0,0,1,0,.15Z"/><path class="cls-6" d="M12.5,4.79a.17.17,0,0,0,.11.11.17.17,0,0,0,.18-.07.17.17,0,0,0,0-.18.21.21,0,0,0-.08-.11l-.24.24Z"/><path class="cls-8" d="M12.65,4.92h0a.19.19,0,0,1-.12-.13l.24-.26a.17.17,0,0,1,.1.11.21.21,0,0,1,0,.2.21.21,0,0,1-.16.08Zm.08-.37-.22.24a.22.22,0,0,0,.11.1h0a.14.14,0,0,0,.13-.06.21.21,0,0,0,0-.18.24.24,0,0,0-.08-.1Z"/><polygon class="cls-7" points="12.71 4.52 12.74 4.54 12.77 4.58 12.8 4.63 12.81 4.67 12.81 4.71 12.81 4.75 12.8 4.79 12.77 4.82 12.74 4.85 12.71 4.87 12.65 4.88 12.61 4.89 12.56 4.87 12.52 4.84 12.49 4.8 12.48 4.75 12.48 4.73 12.71 4.52"/><path class="cls-8" d="M13.55,5.28v0A2.28,2.28,0,0,0,14.17,5a1.49,1.49,0,0,1-.62.28Z"/><path class="cls-8" d="M13.54,5.27v0A2.06,2.06,0,0,0,14.16,5a1.49,1.49,0,0,1-.62.29Z"/><path class="cls-8" d="M14.72,13.43a.74.74,0,0,1-.37-.29,1.16,1.16,0,0,0,.37.26.79.79,0,0,0,.34-.28l0,0a.85.85,0,0,1-.37.29Z"/><path class="cls-8" d="M17.49,5.07a.56.56,0,0,0,.14-.29.43.43,0,0,0-.07-.33c-.06-.09-.15-.1-.28,0h0s0,0,0,0a.22.22,0,0,1,.32.05.52.52,0,0,1,.07.35.49.49,0,0,1-.17.28Z"/><path class="cls-8" d="M17.78,5.26A.63.63,0,0,0,18,4.82.38.38,0,0,0,18,4.54a.25.25,0,0,0-.37-.07h0s0,0,0,0a.27.27,0,0,1,.4.07.43.43,0,0,1,.08.3.53.53,0,0,1-.28.44Z"/><path class="cls-8" d="M17.9,6.56a.15.15,0,0,1-.09,0c-.14-.06-.21-.19-.21-.41A1.09,1.09,0,0,1,18,5.48a.69.69,0,0,0,.12-.14l0,0a.59.59,0,0,0,.15-.39A.33.33,0,0,0,18,4.6v0a.36.36,0,0,1,.31.35.58.58,0,0,1-.16.41l0,0L18,5.5a1.06,1.06,0,0,0-.37.63c0,.21.06.33.19.39a.25.25,0,0,0,.24,0,.19.19,0,0,0,.06-.19A.15.15,0,0,0,18,6.17a.08.08,0,0,0-.09,0,.09.09,0,0,0,0,.1.08.08,0,0,0,.07,0s-.08,0-.09,0a.14.14,0,0,1,0-.14A.13.13,0,0,1,18,6.14a.17.17,0,0,1,.13.13.23.23,0,0,1-.07.22.33.33,0,0,1-.18.07Z"/><path class="cls-8" d="M17.94,6.34a.18.18,0,0,1-.15-.18c0-.2.19-.4.35-.56l.14-.14A.57.57,0,0,0,18.47,5a.23.23,0,0,0-.2-.23v0A.26.26,0,0,1,18.5,5a.63.63,0,0,1-.2.44l-.14.15c-.16.15-.35.34-.34.53a.2.2,0,0,0,.14.18Z"/><path class="cls-8" d="M18.42,8.19h0a.36.36,0,0,1-.27-.12A.29.29,0,0,1,18,7.83a.26.26,0,0,1,.13-.2.22.22,0,0,1,.21,0,.17.17,0,0,1,.09.18.13.13,0,0,1-.13.11.11.11,0,0,1-.12-.06.1.1,0,0,1,0-.1.12.12,0,0,0,0,.09.11.11,0,0,0,.09,0,.13.13,0,0,0,.1-.1.14.14,0,0,0-.07-.15.19.19,0,0,0-.18,0,.2.2,0,0,0-.12.17.28.28,0,0,0,.06.22.31.31,0,0,0,.25.11A.8.8,0,0,0,18.87,8a1,1,0,0,0,.29-1,1,1,0,0,0-.32-.55.58.58,0,0,0-.76,0,.34.34,0,0,0-.07.37.22.22,0,0,0,.22.15.19.19,0,0,0,.2-.14.17.17,0,0,0-.06-.2.13.13,0,0,0-.11,0,.11.11,0,0,0-.08.07.08.08,0,0,0,0,.1.06.06,0,0,0,.07,0h0s0,0,0,0a.08.08,0,0,1-.11,0,.12.12,0,0,1,0-.13.22.22,0,0,1,.1-.09.19.19,0,0,1,.14,0,.21.21,0,0,1,.07.24.23.23,0,0,1-.23.16A.27.27,0,0,1,18,6.87a.37.37,0,0,1,.08-.4.6.6,0,0,1,.79,0,1,1,0,0,1,.34.56,1,1,0,0,1-.31,1,.78.78,0,0,1-.46.14Z"/><path class="cls-8" d="M18.45,8a.28.28,0,0,1-.19-.07.13.13,0,0,1-.05-.09.46.46,0,0,0,.07.07.28.28,0,0,0,.18.06c.33,0,.51-.27.51-.71s-.21-.71-.52-.72c-.12,0-.24,0-.27.17h0a.25.25,0,0,1,.3-.19c.33,0,.54.38.55.74s-.2.72-.54.74Z"/><path class="cls-8" d="M18.33,8a.59.59,0,0,0,.45-.67.59.59,0,0,0-.43-.63h0v0h0a.61.61,0,0,1,.45.66.59.59,0,0,1-.48.67Z"/><path class="cls-8" d="M18.71,10.21l-.1,0-.2-.08a1,1,0,0,1-.27-.2,1.09,1.09,0,0,1-.28-.53,1.38,1.38,0,0,1,0-.57c.08-.32.31-.65.58-.65a.31.31,0,0,1,.17,0l.06.06a.18.18,0,0,1,0,.09.19.19,0,0,1,0,.18.17.17,0,0,1-.12.1.23.23,0,0,1-.2,0,.19.19,0,0,1-.06-.17.11.11,0,0,1,.11-.09.12.12,0,0,1,.13.08s0,0,0,0h0c0-.05-.05-.08-.1-.07s-.08,0-.08.06a.15.15,0,0,0,0,.15.17.17,0,0,0,.17,0,.18.18,0,0,0,.11-.08.25.25,0,0,0,0-.17l0-.07-.06,0a.26.26,0,0,0-.15,0c-.26,0-.48.32-.55.62a1.34,1.34,0,0,0,0,.56,1,1,0,0,0,.27.52.89.89,0,0,0,.27.19.68.68,0,0,0,.19.08.36.36,0,0,0,.18,0,.23.23,0,0,0,.15-.12.21.21,0,0,0,0-.19.23.23,0,0,0-.18-.11.13.13,0,0,0-.14.08.14.14,0,0,0,0,.07.11.11,0,0,0,0,.09.11.11,0,0,0,.12,0s0,0,0-.08a.08.08,0,0,1,0,.11.14.14,0,0,1-.14,0,.16.16,0,0,1-.06-.12s0-.08,0-.08a.16.16,0,0,1,.16-.1.23.23,0,0,1,.2.13.25.25,0,0,1,0,.22.3.3,0,0,1-.18.13Z"/><path class="cls-8" d="M18.7,10.05l-.09,0-.07,0a1.09,1.09,0,0,1-.42-.45A.49.49,0,0,1,18,9.33a.41.41,0,0,1,0-.16,1.69,1.69,0,0,1,0-.3,1,1,0,0,1,.2-.43.21.21,0,0,1,.21-.12.34.34,0,0,0-.19.14,1,1,0,0,0-.19.42,1.59,1.59,0,0,0,0,.29.77.77,0,0,0,0,.15,1.31,1.31,0,0,0,.08.21,1,1,0,0,0,.39.42l.09.05a.17.17,0,0,0,.12,0v0Z"/><path class="cls-8" d="M18.61,9.88a.12.12,0,0,1-.1-.13.2.2,0,0,1,.4,0l0,0v0a.17.17,0,0,0-.17-.17.18.18,0,0,0-.17.17.17.17,0,0,0,.07.13Z"/><path class="cls-8" d="M18.54,9.74a.1.1,0,0,1-.08-.11.19.19,0,0,1,.19-.19.18.18,0,0,1,.18.16h0a.17.17,0,0,0-.16-.13.16.16,0,0,0-.16.16.16.16,0,0,0,.05.11Z"/><path class="cls-8" d="M18.48,9.6a.71.71,0,0,1-.3-.59.7.7,0,0,1,.17-.48.94.94,0,0,0-.14.48.73.73,0,0,0,.28.57v0Z"/><path class="cls-8" d="M18.54,9.77a.55.55,0,0,1-.31-.26s0,0,0,0h0a.77.77,0,0,0,.29.27Z"/><path class="cls-8" d="M15.73,12.56c.24-.34.7-.36,1.19-.38a4.14,4.14,0,0,0,1.2-.18,1.15,1.15,0,0,0,.7-.63,1.3,1.3,0,0,0,.11-.46,1.17,1.17,0,0,0,0-.27.9.9,0,0,0-.46-.52.62.62,0,0,0-.38-.09.53.53,0,0,0-.3.17l0,0a.59.59,0,0,1,.32-.18.69.69,0,0,1,.39.1.86.86,0,0,1,.48.53,1.18,1.18,0,0,1,0,.28,1.36,1.36,0,0,1-.1.45,1.17,1.17,0,0,1-.73.66,3.88,3.88,0,0,1-1.21.19,1.56,1.56,0,0,0-1.19.35Z"/><path class="cls-8" d="M17.88,11h0a.34.34,0,0,1-.25-.13.49.49,0,0,1-.08-.46.39.39,0,0,1,.2-.22.77.77,0,0,1,.73.11s0,0,0,0h0a.7.7,0,0,0-.69-.1.39.39,0,0,0-.2.2.46.46,0,0,0,.08.43.33.33,0,0,0,.23.12h0c.19,0,.21-.14.21-.14a.15.15,0,0,0-.09-.18h-.09a.1.1,0,0,0,0,0,.12.12,0,0,0,0,.08.09.09,0,0,1,0-.09.09.09,0,0,1,.06-.06.15.15,0,0,1,.11,0s.13.05.11.21a.22.22,0,0,1-.24.16Z"/><path class="cls-8" d="M15,12.94a.26.26,0,0,1-.27-.22.19.19,0,0,1,0-.08.57.57,0,0,1,.21-.32l0,0,.12-.09a1.85,1.85,0,0,1,.49-.21l.12,0,.21,0H16a1.15,1.15,0,0,1,.26,0h1.19a1.63,1.63,0,0,0,.67-.19.71.71,0,0,0,.31-.81l-.05-.12-.06-.07a.29.29,0,0,0-.11-.09.2.2,0,0,0-.26,0,.18.18,0,0,0,0,.15h0a.16.16,0,0,1,0-.17.22.22,0,0,1,.29-.05.38.38,0,0,1,.13.1l.05.08a.31.31,0,0,1,.05.11.75.75,0,0,1-.31.85,1.72,1.72,0,0,1-.68.2h-1.2l-.26,0-.07,0a.62.62,0,0,0-.18,0l-.14,0a1.88,1.88,0,0,0-.46.19l-.11.08-.06.06a.54.54,0,0,0-.2.3.22.22,0,0,0,0,.08c0,.08.08.18.24.22Z"/><path class="cls-8" d="M15.59,13.15a.37.37,0,0,1-.23-.1.42.42,0,0,1-.12-.28c0-.44.73-.62.76-.63a3.91,3.91,0,0,1,.85-.11h.47a2.83,2.83,0,0,0,.42-.07,1.26,1.26,0,0,0,.59-.29,1,1,0,0,0,.27-.38.78.78,0,0,0-.06-.64.65.65,0,0,0-.47-.32.4.4,0,0,0-.41.22.34.34,0,0,0,0,.28.25.25,0,0,0,.21.13h0c.19,0,.21-.14.21-.14a.15.15,0,0,0-.09-.18h-.09a.1.1,0,0,0,0,0,.12.12,0,0,0,0,.08.09.09,0,0,1,0-.09.09.09,0,0,1,.06-.06.15.15,0,0,1,.11,0s.13.05.11.21a.22.22,0,0,1-.24.16h0a.29.29,0,0,1-.24-.15.35.35,0,0,1,0-.3.39.39,0,0,1,.43-.23.7.7,0,0,1,.5.32.85.85,0,0,1,.06.67.89.89,0,0,1-.28.39,1.26,1.26,0,0,1-.6.3,2,2,0,0,1-.41.06,1.89,1.89,0,0,1-.32,0h-.17a3.72,3.72,0,0,0-.84.11c-.26.06-.74.26-.74.6a.38.38,0,0,0,.11.26.33.33,0,0,0,.23.09.41.41,0,0,0,.24-.11.26.26,0,0,0,.06-.19.3.3,0,0,0,0-.1.24.24,0,0,0-.22-.16.18.18,0,0,0-.14.06.17.17,0,0,0,0,.15.12.12,0,0,0,0,.1.1.1,0,0,0,.09,0,.1.1,0,0,0,.08,0,.12.12,0,0,0,0-.1s0,0,0,0h0a.15.15,0,0,1,0,.13.09.09,0,0,1-.09.05.12.12,0,0,1-.12,0,.23.23,0,0,1-.06-.12.22.22,0,0,1,.06-.17.21.21,0,0,1,.16-.07.28.28,0,0,1,.25.17.5.5,0,0,1,0,.12.27.27,0,0,1-.07.21.4.4,0,0,1-.26.12Z"/><path class="cls-8" d="M15.37,13.27a.41.41,0,0,1-.27-.1.47.47,0,0,1-.16-.37.46.46,0,0,1,.06-.23,1,1,0,0,1,.54-.41h0v0a1,1,0,0,0-.53.39.44.44,0,0,0,0,.22.47.47,0,0,0,.15.35.36.36,0,0,0,.3.09.23.23,0,0,0,.18-.11c0,.06-.08.13-.17.14Z"/><path class="cls-8" d="M18.17,7.25a.34.34,0,0,1-.14,0,.55.55,0,0,1-.43-.48.35.35,0,0,1,.13-.28l0,0a.34.34,0,0,0-.12.26.53.53,0,0,0,.41.46.43.43,0,0,0,.28,0,.18.18,0,0,1-.15,0Z"/><path class="cls-8" d="M17.81,8.54a.33.33,0,0,1-.21-.34.41.41,0,0,1,.19-.37v0a.37.37,0,0,0-.17.34.38.38,0,0,0,.18.34Z"/><path class="cls-8" d="M17.87,9.72a.81.81,0,0,1-.27-.63,1,1,0,0,1,.3-.67h0v0a1,1,0,0,0-.3.66.88.88,0,0,0,.24.63Z"/><path class="cls-8" d="M17.17,5.05a.5.5,0,0,0,.17-.27.37.37,0,0,0-.12-.4.15.15,0,0,0-.14,0,.25.25,0,0,0-.16.1h0a.25.25,0,0,1,.18-.13.25.25,0,0,1,.17,0,.43.43,0,0,1-.07.7Z"/><path class="cls-8" d="M13.24,5.29a1.12,1.12,0,0,1-.66-.18c-.19-.13-.37-.29-.28-.51a.25.25,0,0,1,.16-.14.27.27,0,0,1,.26,0,.19.19,0,0,1,.09.11.23.23,0,0,1,0,.2.22.22,0,0,1-.2.07.18.18,0,0,1-.12-.12.15.15,0,0,1,0-.13.14.14,0,0,1,.09,0,.12.12,0,0,1,.08.09h0s0,0,0,0a.09.09,0,0,0-.06-.06.07.07,0,0,0-.06,0,.11.11,0,0,0,0,.1.14.14,0,0,0,.1.1.17.17,0,0,0,.17-.06.23.23,0,0,0,0-.18.16.16,0,0,0-.08-.09.27.27,0,0,0-.23,0,.24.24,0,0,0-.15.13c-.08.2.1.35.28.47a1.11,1.11,0,0,0,.65.18,1.91,1.91,0,0,0,.91-.3l.05,0a.13.13,0,0,1,.15,0,.12.12,0,0,1,0,.15.18.18,0,0,0,0-.13.09.09,0,0,0-.11,0l-.06,0a1.92,1.92,0,0,1-.92.3Z"/><path class="cls-8" d="M12,5a.31.31,0,0,1-.19-.25.42.42,0,0,1,.08-.35.23.23,0,0,1,.31-.05s0,0,0,0h0a.2.2,0,0,0-.28,0,.38.38,0,0,0-.07.32A.38.38,0,0,0,12,5Z"/><path class="cls-8" d="M11.67,5.24a.45.45,0,0,1-.3-.42.48.48,0,0,1,.08-.3.28.28,0,0,1,.41-.07l0,0a.24.24,0,0,0-.36.07.42.42,0,0,0-.08.28.52.52,0,0,0,.27.42Z"/><path class="cls-8" d="M11.54,6.56a.27.27,0,0,1-.18-.07.21.21,0,0,1-.07-.22.17.17,0,0,1,.13-.13.11.11,0,0,1,.12.05.14.14,0,0,1,0,.14.11.11,0,0,1-.1,0l.08-.06a.12.12,0,0,0,0-.1.09.09,0,0,0-.1,0,.13.13,0,0,0-.1.1.2.2,0,0,0,0,.2.25.25,0,0,0,.24,0c.14-.06.19-.18.19-.39a1.06,1.06,0,0,0-.37-.63l-.12-.14a.63.63,0,0,1-.17-.46.33.33,0,0,1,.29-.33v0a.31.31,0,0,0-.27.3.62.62,0,0,0,.17.44.79.79,0,0,0,.13.14,1.08,1.08,0,0,1,.37.65c0,.22-.06.35-.21.41a.11.11,0,0,1-.08,0Z"/><path class="cls-8" d="M11.49,6.37h0s0,0,0,0a.25.25,0,0,0,.08-.18c0-.19-.19-.39-.34-.53l-.12-.14c-.15-.19-.22-.27-.22-.45a.27.27,0,0,1,.25-.25v0A.24.24,0,0,0,11,5a.62.62,0,0,0,.19.42l.14.15c.15.15.35.35.35.55a.29.29,0,0,1-.09.2.06.06,0,0,1,0,0Z"/><path class="cls-8" d="M11,8.19A.71.71,0,0,1,10.56,8L10.5,8l0,0-.07-.08a1.18,1.18,0,0,1-.14-.36,1,1,0,0,1,0-.2,1.05,1.05,0,0,1,0-.24,1,1,0,0,1,.34-.56.58.58,0,0,1,.78,0,.39.39,0,0,1,.06.41.24.24,0,0,1-.23.16A.23.23,0,0,1,11,6.88.25.25,0,0,1,11,6.64a.21.21,0,0,1,.16,0,.15.15,0,0,1,.09.08.11.11,0,0,1,0,.14.07.07,0,0,1-.1,0s0,0,0,0h0a.06.06,0,0,0,.08,0,.09.09,0,0,0,0-.1.1.1,0,0,0-.07-.07.17.17,0,0,0-.13,0,.18.18,0,0,0-.06.2.2.2,0,0,0,.21.14.25.25,0,0,0,.21-.14.36.36,0,0,0-.07-.38.54.54,0,0,0-.73,0,1,1,0,0,0-.33.54,1.05,1.05,0,0,0,0,.24.81.81,0,0,0,0,.19.74.74,0,0,0,.14.35l.06.08,0,0,.05,0a.72.72,0,0,0,.49.17.29.29,0,0,0,.24-.11.28.28,0,0,0,.07-.22.24.24,0,0,0-.14-.18.15.15,0,0,0-.16,0,.17.17,0,0,0-.06.15.14.14,0,0,0,.09.1.06.06,0,0,0,.08,0,.06.06,0,0,0,0-.08.05.05,0,0,1,0,.09.1.1,0,0,1-.12,0A.14.14,0,0,1,11,7.82a.19.19,0,0,1,.07-.18.2.2,0,0,1,.2,0,.25.25,0,0,1,.14.21.29.29,0,0,1-.06.24.38.38,0,0,1-.27.12Z"/><path class="cls-8" d="M10.71,10.21h-.08a.28.28,0,0,1-.16-.14.26.26,0,0,1,0-.21.22.22,0,0,1,.2-.13.17.17,0,0,1,.17.1.13.13,0,0,1,0,.08.18.18,0,0,1,0,.12.14.14,0,0,1-.14,0,.11.11,0,0,1-.06-.11s0,.07.07.08a.09.09,0,0,0,.11,0s0-.06,0-.09a.56.56,0,0,0,0-.07.15.15,0,0,0-.15-.08.2.2,0,0,0-.17.11.25.25,0,0,0,0,.19.26.26,0,0,0,.15.12.38.38,0,0,0,.18,0,.84.84,0,0,0,.19-.08,1.11,1.11,0,0,0,.27-.19,1.13,1.13,0,0,0,.27-.52,1.54,1.54,0,0,0,0-.56c-.08-.3-.29-.62-.56-.62a.31.31,0,0,0-.15,0l-.05,0,0,.07a.2.2,0,0,0,0,.17.16.16,0,0,0,.1.08.19.19,0,0,0,.18,0,.15.15,0,0,0,0-.15s0-.06-.07-.06a.09.09,0,0,0-.11.07h0v0A.13.13,0,0,1,11,8.32a.1.1,0,0,1,.1.09.19.19,0,0,1,0,.17.23.23,0,0,1-.2,0,.19.19,0,0,1-.13-.1.22.22,0,0,1,0-.18.36.36,0,0,1,0-.09l.07-.06a.26.26,0,0,1,.16,0c.28,0,.51.33.58.65a1.3,1.3,0,0,1,0,.57,1.09,1.09,0,0,1-.28.53,1,1,0,0,1-.28.2l-.2.08-.11,0Z"/><path class="cls-8" d="M10.74,10.05h-.06v0a.2.2,0,0,0,.13,0l0,0,0,0a.94.94,0,0,0,.39-.42.76.76,0,0,0,.08-.21.41.41,0,0,0,0-.15,1.06,1.06,0,0,0-.21-.71A.21.21,0,0,0,11,8.35c.11,0,.16,0,.21.09a1,1,0,0,1,.19.43.82.82,0,0,1,0,.3,1,1,0,0,1,0,.16,1,1,0,0,1-.08.21,1.09,1.09,0,0,1-.4.44l-.09,0-.09,0Z"/><path class="cls-8" d="M10.85,9.9a.42.42,0,0,0,0-.15.17.17,0,0,0-.17-.17.18.18,0,0,0-.17.17l0,0v0a.2.2,0,0,1,.4,0,.2.2,0,0,1-.07.15Z"/><path class="cls-8" d="M10.92,9.76a.69.69,0,0,0,0-.13.16.16,0,0,0-.16-.16.16.16,0,0,0-.15.13h0a.19.19,0,0,1,.18-.16.18.18,0,0,1,.19.19.19.19,0,0,1-.05.13Z"/><path class="cls-8" d="M11,9.6l0,0A.71.71,0,0,0,11.23,9a.68.68,0,0,0-.17-.46.56.56,0,0,1,.2.46.77.77,0,0,1-.3.59Z"/><path class="cls-8" d="M10.91,9.8a1.48,1.48,0,0,0,.28-.3h0v0a.84.84,0,0,1-.3.29Z"/><path class="cls-8" d="M13.73,12.54a1.68,1.68,0,0,0-1.21-.34A4.05,4.05,0,0,1,11.31,12a1.16,1.16,0,0,1-.82-1.12.61.61,0,0,1,0-.27.84.84,0,0,1,.47-.54.62.62,0,0,1,.4-.09.3.3,0,0,1,.28.17h0a.27.27,0,0,0-.26-.15.61.61,0,0,0-.38.08.89.89,0,0,0-.46.53.72.72,0,0,0,0,.26,1,1,0,0,0,.09.44,1.17,1.17,0,0,0,.71.65,3.69,3.69,0,0,0,1.2.18c.49,0,1,0,1.21.37Z"/><path class="cls-8" d="M11.55,11a.22.22,0,0,1-.23-.16.17.17,0,0,1,.1-.21.17.17,0,0,1,.12,0s0,0,.05.06a.12.12,0,0,1,0,.1s0-.07,0-.09,0,0,0,0a.22.22,0,0,0-.1,0,.15.15,0,0,0-.08.18s0,.14.21.14a.3.3,0,0,0,.22-.12.44.44,0,0,0,.08-.43.34.34,0,0,0-.19-.2.73.73,0,0,0-.7.1h0s0,0,0,0a.76.76,0,0,1,.72-.11.41.41,0,0,1,.21.22.47.47,0,0,1-.09.46.34.34,0,0,1-.24.13Z"/><path class="cls-8" d="M14.47,13c.16-.07.23-.17.23-.25v-.08a.59.59,0,0,0-.2-.3l0,0,0,0-.09-.06,0,0a1.78,1.78,0,0,0-.45-.19l-.06,0v0l-.06,0-.21,0h-.07l-.26,0H12a1.47,1.47,0,0,1-.68-.2.75.75,0,0,1-.32-.84.43.43,0,0,1,.06-.12.4.4,0,0,1,.17-.18.27.27,0,0,1,.3.05.17.17,0,0,1,0,.17h0a.14.14,0,0,0,0-.14.22.22,0,0,0-.26,0,.29.29,0,0,0-.12.09l-.05.07a.78.78,0,0,0,0,.12.73.73,0,0,0,.3.81,1.59,1.59,0,0,0,.67.19l.26,0h.93a1,1,0,0,1,.26,0h.07l.19,0,.09,0,0,0a1.61,1.61,0,0,1,.47.2l0,0,.09.06,0,0,0,0a.57.57,0,0,1,.21.32v.08c0,.09-.08.21-.26.25Z"/><path class="cls-8" d="M13.84,13.15h0a.39.39,0,0,1-.27-.13.27.27,0,0,1-.07-.2.42.42,0,0,1,0-.12.27.27,0,0,1,.24-.17.24.24,0,0,1,.17.07.22.22,0,0,1,.05.17.14.14,0,0,1-.06.12.11.11,0,0,1-.11,0,.11.11,0,0,1-.1-.05.15.15,0,0,1,0-.13h0a.12.12,0,0,0,0,.1.07.07,0,0,0,.07,0,.09.09,0,0,0,.09,0,.17.17,0,0,0,.06-.1.25.25,0,0,0-.05-.15.25.25,0,0,0-.15-.06.24.24,0,0,0-.22.16.25.25,0,0,0,0,.1.33.33,0,0,0,.06.19.41.41,0,0,0,.25.11.29.29,0,0,0,.22-.09.39.39,0,0,0,.12-.26c0-.34-.49-.54-.74-.6a3.81,3.81,0,0,0-.84-.11h-.48a3.21,3.21,0,0,1-.43-.07,1.23,1.23,0,0,1-.59-.3.89.89,0,0,1-.28-.39.77.77,0,0,1,.06-.67.67.67,0,0,1,.49-.32.4.4,0,0,1,.44.23.35.35,0,0,1,0,.3.28.28,0,0,1-.23.15.22.22,0,0,1-.24-.16.17.17,0,0,1,.1-.21.17.17,0,0,1,.12,0s0,0,.05.06a.12.12,0,0,1,0,.1s0-.07,0-.09,0,0,0,0a.22.22,0,0,0-.1,0,.15.15,0,0,0-.08.18s0,.14.21.14a.27.27,0,0,0,.21-.13.34.34,0,0,0,0-.28.38.38,0,0,0-.4-.22.65.65,0,0,0-.48.32.78.78,0,0,0-.06.64,1,1,0,0,0,.28.38,1.27,1.27,0,0,0,.58.29,2,2,0,0,0,.41.06,1.84,1.84,0,0,0,.31,0h.18a3.72,3.72,0,0,1,.84.11s.77.19.77.63a.39.39,0,0,1-.13.28.34.34,0,0,1-.23.1Z"/><path class="cls-8" d="M14.06,13.27H14a.24.24,0,0,1-.2-.13.42.42,0,0,0,.2.1.36.36,0,0,0,.3-.09.45.45,0,0,0,.16-.35.46.46,0,0,0-.06-.22,1,1,0,0,0-.53-.39v0a1.1,1.1,0,0,1,.55.4.53.53,0,0,1,.06.24.48.48,0,0,1-.17.37.38.38,0,0,1-.27.1Z"/><path class="cls-8" d="M11.29,7.25a.39.39,0,0,1-.2,0,.74.74,0,0,0,.3,0,.53.53,0,0,0,.41-.46.33.33,0,0,0-.11-.26v0a.35.35,0,0,1,.13.28.53.53,0,0,1-.43.48l-.11,0Z"/><path class="cls-8" d="M11.31,7.51A.47.47,0,0,1,11,7.42a.44.44,0,0,1-.19-.26.71.71,0,0,0,.2.24.5.5,0,0,0,.28.08.58.58,0,0,0,.4-.18.29.29,0,0,0,.08-.17c0-.07,0-.11-.06-.14V7a.16.16,0,0,1,.08.16.32.32,0,0,1-.09.19.57.57,0,0,1-.42.19Z"/><path class="cls-8" d="M11.56,7.92a.18.18,0,0,1,.08-.09.42.42,0,0,0,.16-.33.26.26,0,0,0-.07-.2l0,0a.26.26,0,0,1,.08.22.44.44,0,0,1-.17.35l-.1.07Z"/><path class="cls-8" d="M11.64,8.56a.47.47,0,0,0,.16-.36.4.4,0,0,0-.17-.34l0,0a.43.43,0,0,1,.18.37.39.39,0,0,1-.19.36Z"/><path class="cls-8" d="M11.59,9.74a1,1,0,0,0,.21-.65,1,1,0,0,0-.29-.66s0,0,0,0h0a.94.94,0,0,1,.3.67.88.88,0,0,1-.24.65Z"/><path class="cls-8" d="M12.28,5a.32.32,0,0,1-.21-.24.42.42,0,0,1,.12-.44.25.25,0,0,1,.17,0,.27.27,0,0,1,.18.12v0h0a.3.3,0,0,0-.17-.12.17.17,0,0,0-.15,0,.38.38,0,0,0-.12.4.42.42,0,0,0,.19.25Z"/><path class="cls-8" d="M13.17,5.11h0a.83.83,0,0,1-.67-.29.92.92,0,0,0,.67.26.72.72,0,0,0,.35-.1.18.18,0,0,0,.08-.23.76.76,0,0,0,0-.11,1.25,1.25,0,0,1-.14-.41c0-.32.14-.44.26-.48a.77.77,0,0,1,.62.15l.19.1A.74.74,0,0,0,15,4l.19-.1a.76.76,0,0,1,.61-.15c.13,0,.28.16.26.48a1.23,1.23,0,0,1-.13.41l-.05.11a.19.19,0,0,0,.09.23.69.69,0,0,0,.34.1.78.78,0,0,0,.65-.28l0,0a.86.86,0,0,1-.68.29.76.76,0,0,1-.36-.1.21.21,0,0,1-.09-.27.41.41,0,0,1,0-.12A1.14,1.14,0,0,0,16,4.23c0-.24-.08-.39-.25-.45a.75.75,0,0,0-.59.15L15,4a1.09,1.09,0,0,1-.24,0,1.18,1.18,0,0,1-.25,0l-.19-.1a.78.78,0,0,0-.6-.15q-.25.09-.24.45a1.56,1.56,0,0,0,.13.4l0,.11a.22.22,0,0,1-.09.27.73.73,0,0,1-.36.1Z"/><path class="cls-8" d="M15.1,5.29a.27.27,0,0,1-.22-.39c.15-.25.44-.12.7,0l0,0a.19.19,0,0,1,0-.11.49.49,0,0,1,.11-.29,1.45,1.45,0,0,0,.1-.18c0-.12,0-.2,0-.27a.19.19,0,0,0-.23,0l-.16.08a1.14,1.14,0,0,1-.62.2,1.2,1.2,0,0,1-.63-.2L13.93,4c-.1,0-.17,0-.22,0s-.07.15,0,.27a.52.52,0,0,0,.1.18.57.57,0,0,1,.11.29.31.31,0,0,1,0,.11s0,0,0,.06c.27-.16.56-.29.7,0a.27.27,0,0,1,0,.26.21.21,0,0,1-.39,0,.25.25,0,0,1,0-.2.31.31,0,0,0,0,.19.19.19,0,0,0,.34,0,.24.24,0,0,0,0-.23c-.12-.24-.39-.12-.65,0h-.05s0,0,0-.06a.25.25,0,0,0,0-.1.44.44,0,0,0-.11-.27.93.93,0,0,1-.1-.2c0-.1-.06-.2,0-.29a.22.22,0,0,1,.26,0l.16.09a1.42,1.42,0,0,0,.62.2,1.33,1.33,0,0,0,.61-.2L15.49,4a.22.22,0,0,1,.26,0,.25.25,0,0,1,0,.29.63.63,0,0,1-.1.2.59.59,0,0,0-.11.27.25.25,0,0,0,0,.1s0,0,0,.06V5l0,0c-.26-.12-.53-.25-.67,0a.22.22,0,0,0,0,.22c.08.14.29.16.34,0s0-.11,0-.18h0a.21.21,0,0,1,0,.2.19.19,0,0,1-.18.14Z"/><path class="cls-7" d="M14.72,4.59a.59.59,0,0,1-.37-.11.52.52,0,0,1-.11-.07.25.25,0,0,0-.14-.06l-.07,0a.2.2,0,0,0,0,.1.11.11,0,0,1,0-.11.09.09,0,0,1,.07,0,.28.28,0,0,1,.15.06l.1.07a.82.82,0,0,0,.37.11.75.75,0,0,0,.36-.11.52.52,0,0,0,.11-.07.25.25,0,0,1,.15-.06.11.11,0,0,1,.07,0,.13.13,0,0,1,0,.1h0a.13.13,0,0,0,0-.09l-.06,0a.25.25,0,0,0-.14.06.52.52,0,0,1-.11.07.63.63,0,0,1-.37.11Z"/><path class="cls-8" d="M13.87,4.9h0a.23.23,0,0,0,0-.11.46.46,0,0,0-.1-.27.63.63,0,0,1-.1-.2.27.27,0,0,1,0-.3A.23.23,0,0,1,14,4l.16.09a1.23,1.23,0,0,0,.62.19,1,1,0,0,1-.63-.17L14,4a.19.19,0,0,0-.23,0c-.07.07-.06.15,0,.26a.84.84,0,0,0,.09.19.58.58,0,0,1,.12.29.31.31,0,0,1,0,.11Z"/><path class="cls-8" d="M14.75,4.3a1.53,1.53,0,0,0,.34-.09,1.28,1.28,0,0,1-.35.08v0A1.77,1.77,0,0,0,15.39,4L15.54,4a.23.23,0,0,1,.23.06.29.29,0,0,0-.24,0l-.16.08a1.14,1.14,0,0,1-.62.2Z"/><path class="cls-8" d="M15.2,5.28v0A.22.22,0,0,0,15.25,5a.16.16,0,0,1,.06.18.18.18,0,0,1-.08.11l0,0-.05,0Z"/><path class="cls-7" d="M14.19,5a.09.09,0,0,1,.1-.09.09.09,0,0,1,0,.18.09.09,0,0,1-.1-.09Z"/><path class="cls-8" d="M17.64,10.28s0,0,0-.08a.75.75,0,0,0,0-.12V9.32h0v.88a.25.25,0,0,0,0,.08Z"/><path class="cls-8" d="M17.61,10.31a.19.19,0,0,1,0-.13V9.25h0v.82a.75.75,0,0,1,0,.12.5.5,0,0,1,0,.12Z"/><polygon class="cls-8" points="17.64 8.97 17.61 8.29 17.64 8.29 17.64 8.97 17.64 8.97"/><polygon class="cls-8" points="17.65 8.9 17.62 8.34 17.65 8.34 17.65 8.9 17.65 8.9"/><polygon class="cls-8" points="17.65 8.05 17.62 7.64 17.65 7.64 17.65 8.05 17.65 8.05"/><polygon class="cls-8" points="17.64 8.1 17.61 7.59 17.64 7.59 17.64 8.1 17.64 8.1"/><path class="cls-1" d="M17.64,7.21v0Z"/><path class="cls-1" d="M17.62,7.18v0Z"/><path class="cls-1" d="M17.64,6.87v0Z"/><path class="cls-1" d="M17.62,6.83v0Z"/><path class="cls-1" d="M17.64,6.32v0Z"/><polygon class="cls-8" points="17.64 6.67 17.61 6.25 17.64 6.25 17.64 6.67 17.64 6.67"/><path class="cls-8" d="M14.75,11.34a1.59,1.59,0,0,0-.31-.18,1.05,1.05,0,0,0-.24-.06,1.32,1.32,0,0,0-.28,0h-.25l-.15,0-.17,0h-.3a1.65,1.65,0,0,1-.32,0,1.7,1.7,0,0,1-.32-.1,1,1,0,0,1-.27-.2l0,0h.05a1,1,0,0,0,.27.19,1.06,1.06,0,0,0,.3.1,1.87,1.87,0,0,0,.32,0h.26l.2,0h.42a1.18,1.18,0,0,1,.27,0,.72.72,0,0,1,.25.07,1.06,1.06,0,0,1,.3.18.85.85,0,0,1,.29-.18.73.73,0,0,1,.24-.07,1.46,1.46,0,0,1,.29,0H16l.17,0h.29a1.65,1.65,0,0,0,.32,0,1.41,1.41,0,0,0,.31-.1,1.2,1.2,0,0,0,.27-.19.79.79,0,0,0,.19-.26h0a1.05,1.05,0,0,1-.2.27.82.82,0,0,1-.28.19,1,1,0,0,1-.31.11,1.86,1.86,0,0,1-.33,0h-.26a.88.88,0,0,1-.2,0l-.15,0h-.26a1.18,1.18,0,0,0-.27,0,.94.94,0,0,0-.24.06.92.92,0,0,0-.3.18Z"/><path class="cls-8" d="M14.74,11.33a1.44,1.44,0,0,0-.32-.18,1,1,0,0,0-.24-.07,1.14,1.14,0,0,0-.26,0l-.21,0h-.05l-.15,0-.17,0a1.5,1.5,0,0,1-.3,0,1.24,1.24,0,0,1-.33,0,.87.87,0,0,1-.31-.1,1.26,1.26,0,0,1-.28-.19.67.67,0,0,1-.11-.14.49.49,0,0,1,.13.12,1.2,1.2,0,0,0,.27.19,1.6,1.6,0,0,0,.31.1l.32,0h.29l.18,0,.14,0h.06l.21,0,.27,0a1.17,1.17,0,0,1,.25.07.86.86,0,0,1,.3.19.72.72,0,0,1,.28-.19,1.17,1.17,0,0,1,.25-.07l.27,0,.21,0h.06l.14,0,.17,0h.3l.32,0a1.41,1.41,0,0,0,.31-.1,1.43,1.43,0,0,0,.27-.19,1.2,1.2,0,0,0,.19-.27l0,0v0a1.1,1.1,0,0,1-.2.28.92.92,0,0,1-.28.19.87.87,0,0,1-.31.1,1.24,1.24,0,0,1-.33,0,1.41,1.41,0,0,1-.29,0l-.18,0-.15,0h-.05l-.21,0a1.27,1.27,0,0,0-.27,0,1,1,0,0,0-.23.07.92.92,0,0,0-.3.18Z"/><path class="cls-7" d="M11.35,10.74a.12.12,0,0,1,.12-.12.12.12,0,0,1,.12.12.13.13,0,0,1-.12.12.12.12,0,0,1-.12-.12Z"/><path class="cls-7" d="M11.47,10.86a.12.12,0,1,1,.12-.12.12.12,0,0,1-.12.12Zm0-.24a.13.13,0,0,0-.12.12.12.12,0,0,0,.12.11.11.11,0,0,0,.11-.11.12.12,0,0,0-.11-.12Z"/><polygon class="cls-8" points="11.03 11.02 11.01 10.94 11.05 10.79 11.15 10.63 11.25 10.55 11.35 10.52 11.36 10.54 11.27 10.58 11.17 10.65 11.08 10.8 11.03 11.02 11.03 11.02"/><path class="cls-8" d="M11.58,11a.25.25,0,0,1-.25-.16s.09.13.25.13h0a.37.37,0,0,0,.23-.12.47.47,0,0,0,.1-.35h0a.51.51,0,0,1-.11.38.41.41,0,0,1-.25.13Z"/><polygon class="cls-8" points="11.59 10.98 11.77 10.86 11.84 10.77 11.89 10.62 11.89 10.54 11.92 10.54 11.9 10.68 11.86 10.79 11.79 10.88 11.67 10.96 11.59 10.98 11.59 10.98"/><path class="cls-8" d="M11.78,10.85h0a.35.35,0,0,0,0-.3.48.48,0,0,0-.09-.11l0,0a.27.27,0,0,1,.09.12.35.35,0,0,1,0,.3l0,0Z"/><path class="cls-8" d="M13.73,12.53a1.77,1.77,0,0,0-1.18-.3A4,4,0,0,1,11.33,12a1.61,1.61,0,0,1-.51-.33l0,0a1.5,1.5,0,0,0,.51.33,4.14,4.14,0,0,0,1.2.18,1.65,1.65,0,0,1,1.18.33Z"/><path class="cls-8" d="M14.74,12.61a1.64,1.64,0,0,0-.21-.25l0,0a.7.7,0,0,1,.19.27Z"/><path class="cls-8" d="M14.48,13l0,0c.22,0,.26-.16.27-.19h0a.29.29,0,0,1-.26.21Z"/><path class="cls-8" d="M14.38,13.15a1.31,1.31,0,0,0,.08-.21h0s0,0,0,0a.43.43,0,0,1-.11.2Z"/><path class="cls-8" d="M14.51,13a.27.27,0,0,1,0-.12.42.42,0,0,0-.05-.22,1,1,0,0,0-.53-.41,1.72,1.72,0,0,0-.22-.09l0,0s0,0,0,0h0l.23.09a1,1,0,0,1,.53.42.45.45,0,0,1,.06.24.49.49,0,0,1,0,.12Z"/><path class="cls-8" d="M14.09,13.3H14a.36.36,0,0,1-.22-.13.56.56,0,0,0,.22.1.4.4,0,0,0,.3-.09l0,0,0,0,0,0a.39.39,0,0,1-.27.1Z"/><path class="cls-1" d="M14.49,12.85l0,.1Z"/><polygon class="cls-8" points="14.15 13.28 14.35 13.14 14.37 13.16 14.33 13.2 14.24 13.25 14.15 13.28 14.15 13.28"/><path class="cls-8" d="M14.73,13.44a.85.85,0,0,1-.37-.29,1.54,1.54,0,0,0,.37.27.92.92,0,0,0,.35-.29l0,0a.85.85,0,0,1-.37.29Z"/><path class="cls-6" d="M14.75,13.45a.85.85,0,0,1-.37-.29,1.09,1.09,0,0,0,.37.28,1,1,0,0,0,.35-.29h0a.91.91,0,0,1-.36.29Z"/><path class="cls-1" d="M14.1,13.27h0Z"/><path class="cls-8" d="M13.79,13.15a.25.25,0,0,1-.2-.1v0h0a.32.32,0,0,0,.23.11Z"/><path class="cls-8" d="M13.85,13.16h0a.47.47,0,0,1-.16,0l0,0a.23.23,0,0,0,.14,0,.35.35,0,0,0,.23-.09.36.36,0,0,0,.11-.26.43.43,0,0,0-.17-.32.36.36,0,0,1,.2.32.42.42,0,0,1-.12.28.33.33,0,0,1-.24.1Z"/><path class="cls-8" d="M13.84,12.94h0a.14.14,0,0,1-.11-.07.15.15,0,0,1,0-.13h0s0,0,0,0a.14.14,0,0,0,0,.11.16.16,0,0,0,.08.05.17.17,0,0,0,.1,0,.12.12,0,0,0,.05-.1.19.19,0,0,0-.09-.18.17.17,0,0,1,0,.3.11.11,0,0,1-.09,0Z"/><path class="cls-7" d="M13.72,12.79a.11.11,0,1,1,.11.11.11.11,0,0,1-.11-.11Z"/><path class="cls-8" d="M14.75,13.46a.81.81,0,0,1-.38-.3v0h0a.86.86,0,0,0,.37.31.86.86,0,0,0,.34-.28h0a.79.79,0,0,1-.36.3Z"/><path class="cls-7" d="M15.38,12.22l0,0,.1,0,.1,0h0l-.11,0-.09,0-.06,0Z"/><path class="cls-7" d="M15.17,12.46v0l0,0,.08-.07.12-.06.1,0,.09,0,.08,0-.07,0-.1,0-.09,0-.12.06-.08.07,0,0,0,0Z"/><path class="cls-7" d="M14.16,12.4h0v0l0,0,0,0L14,12.24l0,0-.1,0-.19-.08.11,0,.09,0,.1.05,0,0,.07,0,.09.06,0,0v0Z"/><path class="cls-8" d="M15.4,13.3a.38.38,0,0,1-.27-.1l0,0v0h0l0,0a.37.37,0,0,0,.3.1.24.24,0,0,0,.18-.12l0,0s0,0,0,0a.27.27,0,0,1-.2.13Z"/><polygon class="cls-8" points="15.39 13.29 15.54 13.22 15.59 13.18 15.62 13.13 15.65 13.14 15.61 13.2 15.55 13.25 15.47 13.28 15.39 13.29 15.39 13.29"/><path class="cls-8" d="M15.63,13.17l0,0a.34.34,0,0,0,.27-.11.28.28,0,0,0,.06-.18.31.31,0,0,0,0-.11.28.28,0,0,0-.11-.13l0,0a.3.3,0,0,1,.11.14.21.21,0,0,1,0,.12.31.31,0,0,1-.07.2.36.36,0,0,1-.27.12Z"/><path class="cls-8" d="M15.61,13.16a.32.32,0,0,1-.24-.11.46.46,0,0,0,.25.08v0Z"/><polygon class="cls-8" points="15.61 13.16 15.61 13.13 15.69 13.13 15.82 13.06 15.91 12.94 15.93 12.83 15.95 12.87 15.92 12.99 15.84 13.08 15.7 13.15 15.61 13.16 15.61 13.16"/><path class="cls-7" d="M15.5,12.8a.11.11,0,0,1,.22,0,.11.11,0,0,1-.22,0Z"/><path class="cls-8" d="M15.76,12.57c.25-.33.7-.35,1.18-.37a4.14,4.14,0,0,0,1.2-.18,1.15,1.15,0,0,0,.7-.63,1.11,1.11,0,0,0,.11-.46.8.8,0,0,0,0-.27.88.88,0,0,0-.22-.36l0,0a1.06,1.06,0,0,1,.23.37,1.26,1.26,0,0,1,0,.28,1.36,1.36,0,0,1-.1.45,1.17,1.17,0,0,1-.73.66,3.84,3.84,0,0,1-1.21.19c-.47,0-.92,0-1.18.34Z"/><polygon class="cls-8" points="15.74 12.56 15.72 12.54 15.87 12.41 16.08 12.29 16.47 12.22 15.99 12.37 15.83 12.48 15.74 12.56 15.74 12.56"/><path class="cls-8" d="M18.3,10.64l-.13-.07a.21.21,0,0,0-.25,0h0a.24.24,0,0,1,.29-.06.26.26,0,0,1,.11.1Z"/><path class="cls-8" d="M12.12,11.13s.05,0,.05,0h-.05l0,0h0s0,0,0,.07l0,0-.13.14h0v-.21s0-.06,0-.08,0,0,0,0v0l-.06,0,0,0h0s0,0,0,0v.35s0,0,0,0h0Z"/><path class="cls-8" d="M12.27,11.19s.05,0,.05,0v0h-.06l-.06,0h0s.06,0,0,.07l-.08.26c0,.05-.05,0-.05,0h0l.06,0,.07,0h0s-.06,0,0-.08Z"/><path class="cls-8" d="M12.44,11.24s0,0,.05,0a.1.1,0,0,1,0,.12s0,.06-.1,0l0,0Zm-.13.23c0,.07-.05,0-.06,0s0,0,0,0l.08,0h.06s-.05,0,0-.07l0-.09s0,0,0,0,0,0,0,0l0,.1s0,.07,0,.08.06,0,.06,0h0l0-.17,0,0a.08.08,0,0,0,0-.06s0-.1-.09-.13l-.1,0-.05,0h0s.05,0,0,.07Z"/><path class="cls-8" d="M12.71,11.58c0,.07-.07,0-.07.05s0,0,0,0h.07l.07,0s0,0,0,0-.07,0-.05-.08l.06-.24s0,0,0,0h0c.06,0,0,.07,0,.08s0,0,0,0v-.07l-.15,0-.15,0h0l0,.07s0,0,0,0,0-.07.08-.05h0s0,0,0,0Z"/><path class="cls-8" d="M13.3,11.43s0,0,0,0h-.1s0,0,0,0,0,0,0,.06a.15.15,0,0,1,0,.06l-.1.15h0l0-.19a.11.11,0,0,1,0-.08s0,0,0,0l0,0h0l-.05,0h0s0,0,0,0l.07.34s0,0,0,0,0,0,0,0Z"/><path class="cls-8" d="M13.33,11.75s0,0,0,0l.08,0a.11.11,0,0,0,.13-.11c0-.07,0-.1-.06-.13s-.09-.06-.08-.09a0,0,0,0,1,.06-.05c.09,0,.08.12.09.12s0,0,0,0v-.07s0,0,0,0h0s0,0-.07,0a.11.11,0,0,0-.12.1c0,.06,0,.08.06.11s.1.07.09.11a.06.06,0,0,1-.08.06.11.11,0,0,1-.08-.12h0s0,0,0,0Z"/><path class="cls-8" d="M14.08,11.54s0,0,0,0H14s0,0,0,.06l0,.06-.08.16v0l-.05-.18a.45.45,0,0,1,0-.08s0,0,0,0h-.14s0,0,0,0l.1.33s0,0,0,0,0,0,0,0Z"/><path class="cls-8" d="M14.16,11.81c0,.06-.05,0-.05.07h.13s-.06,0-.06-.1v-.19h0l.24.3h0v-.32c0-.06,0,0,0-.06h-.13s.06,0,.06.06v.21l0,0-.2-.24s0,0,0,0H14.1s.06,0,.06.1Z"/><path class="cls-8" d="M14.64,11.56c0-.05,0,0,0-.05h-.16s.06,0,.06.05v.27c0,.05,0,0,0,.06h.16s-.06,0-.06-.06Z"/><path class="cls-8" d="M14.86,11.82c0,.07-.06,0-.06.06H15s-.06,0-.06-.07v-.25s0,0,0,0h0c.06,0,0,.06.07.06s0,0,0,0v-.05s0,0,0,0h-.32v.07s0,0,0,0,0-.07.07-.07h0s0,0,0,0Z"/><path class="cls-8" d="M15.15,11.71h0a0,0,0,0,1,0,0l0-.1h0l.05.1v0s0,0,0,0Zm.09,0s0,0,0,0l0,0s0,0,0,0,0,0,0,0h.14s0,0-.05,0l-.16-.33,0,0v0l-.11.35s0,0,0,.05h.1s0,0,0,0-.05,0-.06,0,0,0,0,0,0,0,0,0Z"/><path class="cls-8" d="M15.63,11.5s0,0,0,0,.07,0,.09,0,0,0,0,0v-.05h0l-.11,0h-.14a0,0,0,0,0,0,0s.06,0,.06,0l0,.26c0,.07,0,0,0,.07h0l.06,0h.09s-.06,0-.07-.06v-.08s0,0,0,0h0c.06,0,.05.06.06,0s0,0,0,0l0-.1s0,0,0,0,0,.06-.05.06h0s0,0,0,0Z"/><path class="cls-8" d="M15.81,11.63a.17.17,0,0,0,.2.16.19.19,0,0,0,.15-.25.18.18,0,0,0-.2-.16.2.2,0,0,0-.15.25Zm.06,0c0-.08,0-.16.08-.18s.13,0,.15.16,0,.17-.08.19-.14-.09-.15-.17Z"/><path class="cls-8" d="M16.26,11.39s0,0,0,0,.09,0,.1.08,0,.06-.06.08,0,0,0,0Zm0,.27c0,.07,0,.06,0,.08h0l.08,0h0s0,0,0,0,0,0-.06,0l0-.09s0,0,0,0,0,0,.05,0l.06.07a.09.09,0,0,0,.09,0s.05,0,0,0h0l-.11-.14s0,0,0,0a.08.08,0,0,0,0-.07s0-.1-.14-.08l-.1,0h-.07s.06,0,.07.05Z"/><path class="cls-8" d="M16.66,11.57c0,.06,0,0,0,.07s0,0,0,0l.07,0h.07s0,0,0,0-.06,0-.08,0l-.06-.25s0,0,0,0h0c.05,0,.05,0,.07,0s0,0,0,0l0,0h0l-.15,0-.15,0h0v.08s0,0,0,0,0-.07,0-.08h.05s0,0,0,0Z"/><path class="cls-8" d="M16.92,11.23c0-.06,0-.05,0-.07h0l-.07,0h-.05s0,0,0,0,.06,0,.07,0l.08.26c0,.06,0,.05,0,.07h0l.06,0,.07,0s0,0,0,0,0,0-.07,0Z"/><path class="cls-8" d="M17,11.35a.17.17,0,0,0,.22.13.19.19,0,0,0,.11-.27.16.16,0,0,0-.22-.12.19.19,0,0,0-.11.26Zm0,0c0-.08,0-.16.05-.19s.14,0,.18.14,0,.17,0,.2-.16-.07-.18-.15Z"/><path class="cls-8" d="M17.44,11.05s0,0,0-.05a.09.09,0,0,1,.11.06s0,.06-.06.09h0Zm0,.26c0,.07,0,.06,0,.08h0l.07,0h.05s0,0-.06,0l0-.09s0,0,0,0,0,0,.06,0l.07.07s.06.05.09,0,.05,0,0,0h0l-.13-.12,0,0a.16.16,0,0,0,0-.07.1.1,0,0,0-.15-.06l-.1,0-.05,0h0s.05,0,.07,0Z"/><path class="cls-8" d="M18.36,9.86a.91.91,0,0,1-.23-.3.83.83,0,0,1-.08-.22.7.7,0,0,1,0-.16,1,1,0,0,1,0-.29,1.07,1.07,0,0,1,.2-.43.36.36,0,0,1,.1-.11.47.47,0,0,1-.07.12,1,1,0,0,0-.2.42,1.59,1.59,0,0,0,0,.29l0,.16a.5.5,0,0,0,.08.2.9.9,0,0,0,.22.3l0,0Z"/><path class="cls-8" d="M18.48,9.59h0l-.05,0a.74.74,0,0,1-.2-.51.68.68,0,0,1,.17-.48.78.78,0,0,0-.14.48.73.73,0,0,0,.19.49l0,0v0Z"/><polygon class="cls-8" points="18.22 8.99 18.19 8.99 18.23 8.79 18.3 8.62 18.35 8.55 18.23 8.92 18.22 8.99 18.22 8.99"/><path class="cls-8" d="M18.75,10.23h-.11l-.07,0v0l.06,0a.28.28,0,0,0,.18,0,.25.25,0,0,0,.15-.11.25.25,0,0,0,0-.19.23.23,0,0,0-.07-.1.15.15,0,0,1,.1.09.26.26,0,0,1,0,.21.24.24,0,0,1-.16.13Z"/><path class="cls-8" d="M18.93,9.81h0v0a.16.16,0,0,0-.06-.13l0-.06s0,0,0,0a.23.23,0,0,1,.08.16v0Z"/><path class="cls-8" d="M18.83,9.62a.17.17,0,0,0-.15-.15.15.15,0,0,1,.18.15Z"/><path class="cls-8" d="M18.54,8.66a.23.23,0,0,1-.16-.08h0a.19.19,0,0,0,.19,0,.21.21,0,0,0,.11-.08.25.25,0,0,0,0-.17.21.21,0,0,0,0-.07s-.05-.06-.07-.06v0a.38.38,0,0,1,.09.08l0,.08a.25.25,0,0,1,0,.19.23.23,0,0,1-.12.1Z"/><polygon class="cls-8" points="18.53 8.64 18.49 8.63 18.66 8.56 18.71 8.47 18.72 8.4 18.75 8.4 18.72 8.53 18.64 8.61 18.53 8.64 18.53 8.64"/><path class="cls-1" d="M18.53,8.33l0,0a0,0,0,0,1,0,0v0s0,0,0,0Z"/><path class="cls-8" d="M18.7,10.05l-.06,0v0h0a.14.14,0,0,0,.14,0,.09.09,0,0,0,0-.09c.05,0,0,.08,0,.11a.12.12,0,0,1-.09,0Z"/><path class="cls-7" d="M18.62,9.93a.1.1,0,0,1,.09-.1.1.1,0,0,1,.1.1.09.09,0,0,1-.1.09.09.09,0,0,1-.09-.09Z"/><path class="cls-7" d="M18.24,7.83a.07.07,0,0,1,.14,0,.07.07,0,1,1-.14,0Z"/><path class="cls-7" d="M18.19,6.79a0,0,0,0,1,0,0,.06.06,0,0,1,.06,0s0,0-.06,0a0,0,0,0,1,0,0Z"/><path class="cls-8" d="M17.89,6.31a.17.17,0,0,1-.08-.13c0-.19.2-.39.36-.55l.13-.14c.15-.18.21-.25.21-.43a.27.27,0,0,0-.22-.25v0a.3.3,0,0,1,.25.28.65.65,0,0,1-.21.44,1,1,0,0,1-.14.15c-.15.15-.35.35-.35.53a.27.27,0,0,0,.05.13Z"/><path class="cls-7" d="M17.9,6.27A.09.09,0,0,1,18,6.18a.09.09,0,0,1,0,.18.09.09,0,0,1-.08-.09Z"/><path class="cls-7" d="M18,6.36a.08.08,0,0,1-.08-.09.08.08,0,0,1,.16,0,.09.09,0,0,1-.08.09Zm0-.18a.08.08,0,0,0-.07.09.07.07,0,0,0,.14,0A.08.08,0,0,0,18,6.18Z"/><polygon class="cls-8" points="17.83 6.14 17.8 6.13 17.82 6.06 17.9 5.9 18.46 5.22 18.48 5.12 18.48 4.99 18.47 4.96 18.51 4.99 18.49 5.23 18.38 5.41 17.88 5.99 17.85 6.07 17.83 6.14 17.83 6.14"/><path class="cls-8" d="M18.16,6.41h0a.24.24,0,0,0,0-.19.1.1,0,0,0-.09,0s.08,0,.11,0a.25.25,0,0,1,0,.21Z"/><path class="cls-8" d="M17.9,6.57h-.07a.3.3,0,0,1-.11-.07l0,0,.1.06a.23.23,0,0,0,.18,0,.15.15,0,0,1-.12.05Z"/><path class="cls-8" d="M17.93,5.57V5.52a1.07,1.07,0,0,0,.18-.19.6.6,0,0,0,.18-.4A.32.32,0,0,0,18,4.6v0a.34.34,0,0,1,.3.36.58.58,0,0,1-.18.41,1.21,1.21,0,0,1-.19.2l0,0Z"/><path class="cls-8" d="M17.79,5.26A.63.63,0,0,0,18,4.83.38.38,0,0,0,18,4.55a.25.25,0,0,0-.12-.11s0,0,0,0h0a.31.31,0,0,1,.14.12.41.41,0,0,1,.07.29.52.52,0,0,1-.28.43Z"/><path class="cls-7" d="M17.73,5.25h0l0,0,.06,0h0l.05,0,0,0s0,0,0,0l-.05,0,0,0-.07,0Z"/><path class="cls-8" d="M17.49,5.07a.57.57,0,0,0,.16-.28.45.45,0,0,0-.07-.32l0,0s0,0,0,0h0l0,0a.43.43,0,0,1,.07.35.39.39,0,0,1-.18.27Z"/><path class="cls-7" d="M17.42,5.07h0l0,0,0,0,.05-.07,0,0a.09.09,0,0,1,0,0L17.49,5l0,0h0Z"/><path class="cls-8" d="M17.18,5.06a.5.5,0,0,0,.17-.27.38.38,0,0,0-.11-.4v0h0a.39.39,0,0,1,.13.43.42.42,0,0,1-.2.26Z"/><path class="cls-7" d="M17.14,5.05h0l0,0,0,0,0,0,0,0h0l0,0h0s0,0,0,0h0l0,0a.42.42,0,0,1,0,.06l0,0,0,0,0,0-.05,0Z"/><path class="cls-8" d="M16.47,5.28a2.69,2.69,0,0,0,.38-.18c.19-.13.36-.28.27-.47A.22.22,0,0,0,17,4.51v0a.28.28,0,0,1,.11.13c.09.21-.09.37-.28.5a1,1,0,0,1-.4.16Z"/><path class="cls-8" d="M16.83,4.92a.17.17,0,0,1-.15-.08s0,0,0,0a.07.07,0,0,1,.06,0,.17.17,0,0,0,.13.07v0Z"/><path class="cls-8" d="M16,5a.18.18,0,0,1-.07,0,.21.21,0,0,1,0-.22l.05-.11a1.17,1.17,0,0,0,.13-.4.42.42,0,0,0-.24-.46c.19,0,.28.21.27.47a1.56,1.56,0,0,1-.13.4l-.05.11a.18.18,0,0,0,0,.19L16,5V5Z"/><path class="cls-8" d="M15.85,4.86l0,0,0-.11L16,4.39l0-.19v0a0,0,0,0,1,0,0v.1l-.12.33-.07.19v0Z"/><path class="cls-8" d="M18.15,7.26h-.1a.79.79,0,0,1-.3-.17.2.2,0,0,1-.07-.1s0,0,0,0h0a.1.1,0,0,0,0,.07.67.67,0,0,0,.3.18.37.37,0,0,0,.29,0,.24.24,0,0,1-.19.08Z"/><path class="cls-7" d="M18.18,7.13h-.1a.05.05,0,0,1,0,0l0,0h0l0,0h.24l.05,0h0l.05,0h0l-.09.05h-.15Z"/><path class="cls-7" d="M18.37,7.41h0l0,0,.05,0,0,0,0,0a.25.25,0,0,0,0-.07s0,0,0,0v0s0,0,0,.05,0,0,0,.06,0,0,0,0a.08.08,0,0,1,0,0l-.05,0,0,0Z"/><path class="cls-1" d="M17.79,7.89h0l0,0,.06,0Z"/><polygon class="cls-7" points="17.8 8.52 17.8 8.52 17.8 8.51 17.93 8.37 17.91 8.41 17.81 8.52 17.8 8.52 17.8 8.52"/><polygon class="cls-7" points="17.83 8.59 17.83 8.59 17.83 8.58 17.98 8.37 17.84 8.59 17.83 8.59 17.83 8.59"/><path class="cls-7" d="M17.91,9.78l0,0-.06,0,0-.05s0,0,0-.05h0l0,.06,0,0,.06,0,0,0Z"/><path class="cls-7" d="M17.85,10.79c0-.06,0-.13.07-.14a.12.12,0,0,1,.13.09.11.11,0,0,1-.07.14.13.13,0,0,1-.13-.09Z"/><path class="cls-7" d="M18,10.89a.12.12,0,0,1-.11-.1.11.11,0,0,1,.07-.14c.07,0,.12,0,.13.09a.11.11,0,0,1-.07.15Zm0-.24a.12.12,0,0,0,0,.23h0a.12.12,0,0,0,0-.23Z"/><path class="cls-7" d="M18.35,9.69a.08.08,0,0,1-.05,0s0,0,0,0l0,0h0l0-.07h0l.06.11,0,0,.05.06Z"/><path class="cls-7" d="M18.48,10.26l-.05,0-.05,0,0,0-.05,0,0,0h0l.05,0,0,0,0,0,.06,0,0,0Z"/><path class="cls-8" d="M17.91,11h0a.37.37,0,0,1-.26-.15h0l0,0a0,0,0,0,1,0,0s0,0,0,0l0,0a.34.34,0,0,0,.24.14c.2,0,.22-.14.22-.14s0-.16-.09-.2H18a.07.07,0,0,1,.09,0,.17.17,0,0,1,.1.22.21.21,0,0,1-.23.17Z"/><polygon class="cls-8" points="17.91 11 17.91 10.97 18.04 10.92 18.09 10.86 18.1 10.77 18.13 10.81 18.09 10.91 18.05 10.95 17.99 10.98 17.91 11 17.91 11"/><path class="cls-8" d="M10.74,10.23h-.08a.32.32,0,0,1-.19-.15.25.25,0,0,1,0-.19.48.48,0,0,0,0,.18.26.26,0,0,0,.17.13.22.22,0,0,0,.16,0v0Z"/><polygon class="cls-8" points="10.73 10.22 10.68 10.21 10.68 10.18 10.73 10.19 10.8 10.18 10.87 10.16 10.81 10.21 10.73 10.22 10.73 10.22"/><path class="cls-8" d="M10.74,10.05l-.07,0a.11.11,0,0,1-.06-.11l.07.09a.13.13,0,0,0,.12,0s0-.05,0-.09a.31.31,0,0,0,0-.07.16.16,0,0,0-.14-.09h0l0,0h0a.19.19,0,0,1,.16.11.19.19,0,0,1,0,.08.12.12,0,0,1,0,.11.13.13,0,0,1-.08,0Z"/><path class="cls-7" d="M10.63,9.91c0-.06,0-.11.08-.11a.1.1,0,0,1,.09.11.09.09,0,1,1-.17,0Z"/><path class="cls-7" d="M10.71,10c-.05,0-.08,0-.08-.11s0-.11.08-.11a.11.11,0,0,1,0,.22Zm0-.21a.09.09,0,0,0-.08.1.1.1,0,0,0,.08.1.09.09,0,0,0,.08-.1c0-.06,0-.1-.08-.1Z"/><path class="cls-8" d="M11.17,10l0-.06.09-.08a1,1,0,0,0,.27-.53,1.3,1.3,0,0,0,0-.56.78.78,0,0,0-.51-.61v0a.84.84,0,0,1,.54.64,1.33,1.33,0,0,1,0,.57,1.08,1.08,0,0,1-.28.54.39.39,0,0,1-.1.08l-.05,0Z"/><path class="cls-8" d="M10.94,8.65h-.06a.35.35,0,0,1-.15-.12.2.2,0,0,1,0-.11.53.53,0,0,1,.06.1.27.27,0,0,0,.13.1.2.2,0,0,0,.17,0,.14.14,0,0,0,0-.14,0,0,0,0,0,0,0l0,0a.11.11,0,0,1,0,.06.19.19,0,0,1-.06.17.2.2,0,0,1-.14,0Z"/><polygon class="cls-8" points="10.96 8.64 10.93 8.61 11.06 8.57 11.08 8.54 11.1 8.45 11.13 8.46 11.1 8.55 11.04 8.61 10.96 8.64 10.96 8.64"/><path class="cls-1" d="M11,8.31s0,0,0,0,0,0,0,0a.07.07,0,0,0,0,0Z"/><path class="cls-8" d="M10.93,9.78a.68.68,0,0,0,0-.14.17.17,0,0,0-.16-.17v0a.21.21,0,0,1,.19.2.24.24,0,0,1-.05.14Z"/><path class="cls-8" d="M10.86,9.92a.58.58,0,0,0,.05-.16.19.19,0,0,0-.18-.18v0a.22.22,0,0,1,.2.21.2.2,0,0,1-.07.16Z"/><path class="cls-7" d="M11.09,9.68h0l0,0,0,0,0,0h0l0,0h0l0,0h0l0,.06h0l0,0h0s0,0,0,0l0,0h0Z"/><path class="cls-7" d="M11,10.28l0,0,.06,0,.05,0,0,0h0l-.05,0-.05,0-.06,0,0,0Z"/><path class="cls-7" d="M11.63,8.52h0l-.08-.07,0,0v0h0l0,0,0,0,0,0h0Z"/><path class="cls-8" d="M11.83,8.93a1.55,1.55,0,0,0-.21-.35s0,0,0,0h0a1,1,0,0,1,.18.37Z"/><path class="cls-8" d="M11.59,9.75c0-.08.11-.17.14-.24a1.34,1.34,0,0,0,.07-.18h0a1.59,1.59,0,0,1-.07.2.87.87,0,0,1-.17.22Z"/><path class="cls-8" d="M11.65,8.58a.69.69,0,0,0,.15-.24h0a.44.44,0,0,1-.18.23Z"/><path class="cls-8" d="M11.83,8.08a.74.74,0,0,0-.19-.21l0,0a.46.46,0,0,1,.17.23Z"/><path class="cls-1" d="M11.75,7.3a.24.24,0,0,1,.06.09Z"/><path class="cls-1" d="M11.65,7.84a.27.27,0,0,1-.1.06Z"/><path class="cls-1" d="M11.64,7.88l-.05,0h-.07Z"/><path class="cls-8" d="M11.67,7.85a.78.78,0,0,0,.13-.23h0v0a.42.42,0,0,1-.16.22Z"/><path class="cls-1" d="M11.76,7a.15.15,0,0,1,.05.06Z"/><path class="cls-8" d="M11.33,7.52A.49.49,0,0,1,11,7.44a.52.52,0,0,1-.2-.27.63.63,0,0,0,.22.24.38.38,0,0,0,.27.08.52.52,0,0,0,.4-.18.23.23,0,0,0,.07-.11h0v0a.28.28,0,0,1-.08.12.57.57,0,0,1-.42.19Z"/><path class="cls-7" d="M11.08,7.41l0,0-.06,0a.42.42,0,0,1-.06-.08l-.05-.08s0,0,0,0v0h0v0s0,0,0,0l0,.08.06.07.06,0,0,0Z"/><path class="cls-8" d="M11.83,6.65a1,1,0,0,0-.14-.15l0,0a.33.33,0,0,1,.12.17Z"/><path class="cls-8" d="M11.32,7.26a.37.37,0,0,1-.23-.07.62.62,0,0,0,.32,0,.51.51,0,0,0,.39-.36s0,0,0,0,0,0,0,0a.56.56,0,0,1-.42.38Z"/><path class="cls-7" d="M11.28,7.21h-.1l0,0,0,0h0l0,0,.06,0h.16a.11.11,0,0,1-.07,0Z"/><path class="cls-8" d="M11.24,7.07h0A.25.25,0,0,1,11,6.83h0a.21.21,0,0,0,.23.21.21.21,0,0,0,.21-.15.34.34,0,0,0-.06-.37.33.33,0,0,1,.09.39.27.27,0,0,1-.23.16Z"/><path class="cls-8" d="M11.23,7.05h0s0,0,0,0l.1,0,.05,0,0,0,0-.15,0,.08L11.4,7l-.06,0-.11,0Z"/><path class="cls-7" d="M11.1,6.72a.07.07,0,0,1,.1,0,.08.08,0,0,1,.06.1.09.09,0,0,1-.1.06.09.09,0,0,1-.06-.11Z"/><path class="cls-7" d="M11.18,6.83h0a.09.09,0,0,1,0-.17c.05,0,.07,0,.08,0a.09.09,0,0,1,0,.07.08.08,0,0,1-.08.06Zm0-.16s-.08,0-.09,0a.08.08,0,0,0,.06.1h0a.09.09,0,0,0,.08-.06.13.13,0,0,0,0-.06.1.1,0,0,0-.05,0Z"/><polygon class="cls-7" points="10.64 7.25 10.64 7.2 10.71 6.94 10.79 6.82 10.91 6.73 11 6.7 11 6.71 10.92 6.74 10.8 6.83 10.72 6.94 10.64 7.25 10.64 7.25"/><path class="cls-7" d="M10.71,7.85a.2.2,0,0,1-.09-.1.83.83,0,0,1-.11-.29s0-.06,0-.1a.84.84,0,0,1,0-.33.56.56,0,0,1,0-.12.47.47,0,0,1,.07-.12.23.23,0,0,1,.07-.07l.07-.06a.4.4,0,0,1,.41,0h0a.38.38,0,0,0-.4,0l-.08.06-.06.07-.07.11a.65.65,0,0,0,0,.13.67.67,0,0,0,0,.29.55.55,0,0,0,0,.12.7.7,0,0,0,.1.29.33.33,0,0,0,.08.11Z"/><path class="cls-7" d="M11,7.82a.08.08,0,0,1,.16,0,.08.08,0,1,1-.16,0Z"/><path class="cls-8" d="M10.87,8.16A.45.45,0,0,1,10.58,8a.57.57,0,0,1-.11-.11v0h0A.57.57,0,0,0,10.6,8a.91.91,0,0,0,.27.15Z"/><path class="cls-8" d="M11.12,8.21h0a.4.4,0,0,0,.22-.12.3.3,0,0,0,.05-.21.27.27,0,0,0-.2-.23c.09,0,.21.09.23.23a.32.32,0,0,1-.06.23.33.33,0,0,1-.24.12Z"/><polygon class="cls-8" points="11.1 8.2 11.31 8.08 11.36 7.99 11.38 7.89 11.41 7.89 11.37 8.04 11.33 8.1 11.21 8.18 11.1 8.2 11.1 8.2"/><path class="cls-8" d="M11.56,6.59a.35.35,0,0,1-.17-.06.36.36,0,0,0,.25,0,.26.26,0,0,0,.16-.18h0a.32.32,0,0,1-.18.2l-.09,0Z"/><polygon class="cls-8" points="11.58 6.57 11.54 6.57 11.58 6.54 11.68 6.51 11.78 6.37 11.8 6.32 11.83 6.33 11.78 6.43 11.69 6.53 11.58 6.57 11.58 6.57"/><path class="cls-8" d="M11.59,6.29s0-.07-.07-.09a.11.11,0,0,0-.08,0v0a.1.1,0,0,1,.1,0,.16.16,0,0,1,.05.11Z"/><path class="cls-8" d="M11.46,6.38h0a.22.22,0,0,0,.13-.15s0,0,0,0v0s0,.14-.15.14Z"/><path class="cls-7" d="M11.36,6.27a.09.09,0,1,1,.18,0,.09.09,0,1,1-.18,0Z"/><path class="cls-7" d="M11.45,6.37a.1.1,0,0,1-.09-.1.09.09,0,0,1,.18,0,.1.1,0,0,1-.09.1Zm0-.2a.1.1,0,0,0-.09.1c0,.1.17.1.17,0s0-.1-.08-.1Z"/><path class="cls-1" d="M11.56,6.27v0Z"/><path class="cls-8" d="M11.67,5.24A.4.4,0,0,1,11.41,5a0,0,0,0,1,0,0h0a.57.57,0,0,0,.24.27Z"/><path class="cls-7" d="M11.69,5.29h0l-.07,0-.09-.07-.05-.07,0,0s0,0,0,0l0,.06.09.07.06,0,0,0h0Z"/><path class="cls-7" d="M12,5.09l-.06,0A.25.25,0,0,1,11.86,5a.31.31,0,0,1-.07-.09s0,0,0,0v0h0v0l0,.05a.61.61,0,0,0,.07.1l.08.06.05,0Z"/><path class="cls-7" d="M12.25,5l-.06,0L12.12,5l0,0s0,0,0-.05v0h0v0s0,0,0,0l0,.06L12.2,5l.06,0Z"/><path class="cls-7" d="M12.48,4.74a.09.09,0,0,1,.06-.1.09.09,0,0,1,.09.08.1.1,0,0,1-.07.1.09.09,0,0,1-.08-.08Z"/><path class="cls-8" d="M18.24,7.05A.25.25,0,0,1,18,6.93a.35.35,0,0,0,.22.09.19.19,0,0,0,.19-.11.18.18,0,0,0,0-.2v0h0a.23.23,0,0,1,0,.23.25.25,0,0,1-.22.12Z"/><path class="cls-8" d="M11,8h0a.48.48,0,0,1-.37-.26.82.82,0,0,1-.11-.3s0-.05,0-.08v0a1.43,1.43,0,0,1,0-.3l.05-.13a.75.75,0,0,1,.07-.12l.07-.07.07-.06a.42.42,0,0,1,.5,0l0,0a.4.4,0,0,0-.46,0l-.07.06a.23.23,0,0,0-.07.07.6.6,0,0,0-.06.11.35.35,0,0,0-.05.13,1.28,1.28,0,0,0,0,.28v0a.28.28,0,0,0,0,.09.91.91,0,0,0,.1.28A.46.46,0,0,0,11,8a.23.23,0,0,0,.18,0,.09.09,0,0,0,0-.08.07.07,0,0,1,0,.1A.29.29,0,0,1,11,8Z"/><path class="cls-8" d="M16.2,5.29h0a1.92,1.92,0,0,1-.92-.3l-.06,0a.09.09,0,0,0-.11,0,.08.08,0,0,0,0,.11.08.08,0,0,1,0-.13.12.12,0,0,1,.14,0l.06,0a2,2,0,0,0,.91.29,1.21,1.21,0,0,0,.65-.18c.18-.12.35-.27.27-.47A.24.24,0,0,0,17,4.48a.28.28,0,0,0-.23,0,.18.18,0,0,0-.07.09.17.17,0,0,0,0,.18.15.15,0,0,0,.16.06.13.13,0,0,0,.1-.1.09.09,0,0,0,0-.1s0,0-.06,0-.06,0-.06.06h0s0,0,0,0a.11.11,0,0,1,.08-.08.08.08,0,0,1,.09,0,.13.13,0,0,1,0,.13.18.18,0,0,1-.12.12.2.2,0,0,1-.19-.07.19.19,0,0,1,0-.2.21.21,0,0,1,.08-.11.28.28,0,0,1,.26,0,.24.24,0,0,1,.17.14c.09.22-.09.38-.28.51a1.16,1.16,0,0,1-.66.18Z"/><path class="cls-8" d="M16.86,4.9a.41.41,0,0,0,.1-.13.12.12,0,0,0,0-.1s0,0-.06,0,0,0,0,0h0a.08.08,0,0,1,.08,0,.12.12,0,0,1,0,.13.16.16,0,0,1-.12.12Z"/><path class="cls-7" d="M15.07,5a.09.09,0,1,1,.09.09A.09.09,0,0,1,15.07,5Z"/><path class="cls-7" d="M16.79,4.71a.1.1,0,0,1,.09-.07.08.08,0,0,1,.05.1.08.08,0,0,1-.08.07.09.09,0,0,1-.06-.1Z"/><path class="cls-8" d="M14.47,5.29a.31.31,0,0,0,.11-.23.21.21,0,0,0-.11-.22v0h0a.27.27,0,0,1,.12.25.24.24,0,0,1-.14.23Z"/><polygon class="cls-8" points="17.65 6 17.62 5.26 17.65 5.26 17.65 6 17.65 6"/><path class="cls-8" d="M14.48,5.26a.25.25,0,0,0,.08-.17h0a.17.17,0,0,1-.11.17Z"/><path class="cls-8" d="M15.36,4.44c0-.08-.08-.09-.11-.09s-.11.06-.22.11a.48.48,0,0,1-.31.09.52.52,0,0,1-.32-.09c-.11,0-.12-.11-.21-.11a.11.11,0,0,0-.11.12.1.1,0,0,0,0,0h0s0-.06,0-.08a.1.1,0,0,1,.08,0c.09,0,.12.06.23.11a.48.48,0,0,0,.31.09.52.52,0,0,0,.32-.09c.11,0,.14-.12.22-.12s.05,0,.06.06a0,0,0,0,1,0,0h0s0,0,0,0Z"/><path class="cls-8" d="M14.74,4.62h0a.6.6,0,0,1-.32-.09l-.09-.06c-.05,0-.08-.06-.13-.06a.1.1,0,0,0-.07,0,.12.12,0,0,0,0,.07h0v0a.13.13,0,0,1,0-.09.12.12,0,0,1,.09,0,.19.19,0,0,1,.13,0l.09.06a.55.55,0,0,0,.31.09A.57.57,0,0,0,15,4.45l.09-.06a.19.19,0,0,1,.13,0,.11.11,0,0,1,.13.1.1.1,0,0,1,0,0h0v0a0,0,0,0,0-.05,0s-.07,0-.12,0l-.1.07a.56.56,0,0,1-.32.09Zm-.4-.18.09.06a.57.57,0,0,0,.31.09.55.55,0,0,0,.31-.09l.09-.06a.25.25,0,0,1,.14-.06.06.06,0,0,1,.06,0s-.06,0-.09,0-.07,0-.12,0L15,4.48a.6.6,0,0,1-.32.09.56.56,0,0,1-.32-.09l-.06,0Zm-.15-.07a.11.11,0,0,0-.07,0s0,0,0,0v0a.12.12,0,0,1,.09,0,.17.17,0,0,1,.12,0l0,0a.21.21,0,0,0-.11,0Z"/><path class="cls-8" d="M12.67,4.9a.18.18,0,0,0,.12-.16h0a.16.16,0,0,1-.15.16Z"/><path class="cls-8" d="M10.85,7.83h0l-.06-.06a.67.67,0,0,1-.1-.28.82.82,0,0,1,0-.31.61.61,0,0,1,.11-.29A.4.4,0,0,1,11,6.71v0a.44.44,0,0,0-.22.15,1.09,1.09,0,0,0-.11.28,1.8,1.8,0,0,0,0,.31.85.85,0,0,0,.11.26l.05.06,0,0Z"/><path class="cls-8" d="M10.93,7.87a.19.19,0,0,1-.14-.08s0,0,0-.06a.81.81,0,0,1-.11-.27.88.88,0,0,1,0-.32.8.8,0,0,1,.11-.29A.48.48,0,0,1,11,6.67v0a.44.44,0,0,0-.27.18.68.68,0,0,0-.11.28.77.77,0,0,0,0,.3.55.55,0,0,0,.1.26s0,0,.05.06a.2.2,0,0,0,.2.08l-.08,0Z"/><path class="cls-8" d="M10.67,7.15a.37.37,0,0,1,.09-.31.39.39,0,0,1,.15-.11l.07,0h0s0,0,0,0l-.08,0a.33.33,0,0,0-.14.1.42.42,0,0,0-.11.29Z"/><path class="cls-8" d="M17.86,7.9a.06.06,0,0,1-.06,0,.44.44,0,0,1-.18-.3.29.29,0,0,1,.07-.27h0v0a.3.3,0,0,0-.07.24.48.48,0,0,0,.17.29l.05,0,.05,0Z"/><path class="cls-8" d="M18.14,7.5h0a.67.67,0,0,1-.44-.18.23.23,0,0,1-.07-.2A.16.16,0,0,1,17.7,7V7c-.05,0-.06.07-.06.14a.19.19,0,0,0,.06.18.62.62,0,0,0,.42.17.46.46,0,0,0,.28-.08.4.4,0,0,0,.17-.24.32.32,0,0,1-.16.27.54.54,0,0,1-.28.08Z"/><path class="cls-7" d="M17.61,10.05v.12a1,1,0,0,1-.1.33,1,1,0,0,1-.2.26A.9.9,0,0,1,17,11a1.86,1.86,0,0,1-.31.1,1.75,1.75,0,0,1-.32,0h-.3l-.32,0h-.26a1.18,1.18,0,0,0-.27,0,.94.94,0,0,0-.24.06.92.92,0,0,0-.3.18,1.06,1.06,0,0,0-.3-.18,1,1,0,0,0-.25-.06,1.18,1.18,0,0,0-.27,0h-.26l-.32,0H13a1.72,1.72,0,0,1-.64-.14,1.05,1.05,0,0,1-.27-.2,1,1,0,0,1-.2-.26,1,1,0,0,1-.09-.33.68.68,0,0,1,0-.12h0V5.27h5.79v4.78Z"/><path class="cls-8" d="M14.72,11.33v0a1,1,0,0,0-.3-.17,1.09,1.09,0,0,0-.24-.07,1.18,1.18,0,0,0-.27,0h-.26l-.15,0h-.16a1.63,1.63,0,0,1-.31,0,1.17,1.17,0,0,1-.32,0,1.41,1.41,0,0,1-.31-.1.9.9,0,0,1-.28-.2.76.76,0,0,1-.2-.27.85.85,0,0,1-.1-.33V5.27h5.8l0,4.79a.68.68,0,0,1,0,.12.85.85,0,0,1-.1.33.76.76,0,0,1-.2.27A.8.8,0,0,1,17,11a1.41,1.41,0,0,1-.31.1,1.12,1.12,0,0,1-.32,0,1.51,1.51,0,0,1-.3,0h-.17l-.15,0h-.26a1.18,1.18,0,0,0-.27,0,1.09,1.09,0,0,0-.24.07,1,1,0,0,0-.29.17v0ZM13.9,11a1.32,1.32,0,0,1,.28,0,1.09,1.09,0,0,1,.24.07,1,1,0,0,1,.3.17,1.16,1.16,0,0,1,.29-.17,1.17,1.17,0,0,1,.25-.07,1.18,1.18,0,0,1,.27,0h.26l.15,0,.17,0h.3a1.17,1.17,0,0,0,.32,0,.82.82,0,0,0,.3-.1.7.7,0,0,0,.27-.19.82.82,0,0,0,.2-.26,1.08,1.08,0,0,0,.09-.32.68.68,0,0,0,0-.12V5.27l-5.78,0v4.76a.68.68,0,0,0,0,.12.86.86,0,0,0,.1.32.79.79,0,0,0,.19.26.7.7,0,0,0,.27.19.81.81,0,0,0,.31.1,1.12,1.12,0,0,0,.32,0h.29l.17,0,.15,0h.26Z"/><rect class="cls-3" x="12.11" y="5.56" width="2.47" height="2.47"/><path class="cls-8" d="M14.6,8H12.11V5.56h2.48L14.6,8Zm0-2.48-2.46,0,0,2.45h2.44V5.56Z"/><path class="cls-9" d="M13.61,7.46l-.07,0h-.11V7.5a.47.47,0,0,0,0,.16.36.36,0,0,0,.05.12.34.34,0,0,0,.12.12.25.25,0,0,0,.18,0c.16,0,.24-.19.28-.34s.15-.23.22-.18a.11.11,0,0,1,0,.14.28.28,0,0,1-.12.09l.08.11a.29.29,0,0,0,.23-.22.21.21,0,0,0-.15-.26.25.25,0,0,0-.29.15c-.07.14-.11.38-.3.34s-.15-.17-.15-.23Z"/><path class="cls-9" d="M13.27,7.5a.69.69,0,0,1,0,.16c0,.09,0,.09-.06.12a.33.33,0,0,1-.11.12.25.25,0,0,1-.18,0c-.17,0-.24-.19-.28-.34s-.15-.23-.23-.18a.11.11,0,0,0,0,.14.29.29,0,0,0,.13.09l-.09.11a.29.29,0,0,1-.23-.22.24.24,0,0,1,.15-.26.25.25,0,0,1,.31.16c.07.13.1.37.28.33s.15-.17.15-.23l.08-.08.11,0Z"/><path class="cls-10" d="M13.57,6.46l.32-.36a.12.12,0,0,0,0-.1h-.07V5.94H14v0a0,0,0,0,1,0,0h-.1a.08.08,0,0,1,0,0,0,0,0,0,1,0,0H14a.27.27,0,0,1,.43,0,.24.24,0,0,1-.06.39.16.16,0,0,1-.2,0L14.23,6c.08,0,.15,0,.14-.07a.14.14,0,0,0-.13-.14.16.16,0,0,0-.15.1.31.31,0,0,0,0,.1s0,.07,0,.12A.28.28,0,0,1,14,6.2l-.33.35L12.37,8l-.1-.09Z"/><path class="cls-9" d="M12.62,6.58a5.2,5.2,0,0,0,.35,1,1,1,0,0,1,.38-.08,1,1,0,0,1,.37.08,5.84,5.84,0,0,0,.36-1l-.73-.94Z"/><path class="cls-10" d="M13.42,6l.5.65a4.18,4.18,0,0,1-.27.79l-.23,0Z"/><path class="cls-10" d="M13.28,6l-.51.65A4.94,4.94,0,0,0,13,7.4l.24,0Z"/><rect class="cls-10" x="14.85" y="5.56" width="2.47" height="2.47"/><path class="cls-8" d="M17.33,8H14.85l0-2.48h2.49V8Zm0-2.48-2.45,0V8H17.3V5.56Z"/><path class="cls-10" d="M17.31,10.17a.82.82,0,0,1-.06.2.92.92,0,0,1-.13.18.8.8,0,0,1-.19.13.71.71,0,0,1-.21.08,1.77,1.77,0,0,1-.5.05l-.3,0-.34,0H15.4l-.22,0-.34.1V8.29h2.47v1.76s0,.09,0,.12Z"/><path class="cls-8" d="M14.83,10.89V8.29h2.49v1.77a.57.57,0,0,1,0,.12.45.45,0,0,1-.06.2l0,.05a.77.77,0,0,1-.1.14,1.17,1.17,0,0,1-.19.14.86.86,0,0,1-.21.07,1.45,1.45,0,0,1-.51.05,1.84,1.84,0,0,1-.28,0,2.28,2.28,0,0,0-.36,0H15.4a.83.83,0,0,0-.22,0,2.59,2.59,0,0,0-.33.09Zm2.48-2.6-2.46,0v2.54l.31-.09a.91.91,0,0,1,.23,0h.18l.34,0a2.77,2.77,0,0,0,.3,0,1.4,1.4,0,0,0,.5,0,.66.66,0,0,0,.2-.07.59.59,0,0,0,.18-.13.64.64,0,0,0,.11-.13l0-.05a.76.76,0,0,0,.07-.19s0-.12,0-.12V8.29Z"/><path class="cls-11" d="M15.49,9l-.05,0h0s0,0,0,0,0,0,0,0h0s0,0,0,0,0,0,0,0,0,0,0,0,0,0,0,0Z"/><path class="cls-11" d="M15.46,9.05a0,0,0,0,1,0,0,0,0,0,0,1,0,0l0,0,0,0Z"/><path class="cls-11" d="M15.41,8.55h0l0,0a0,0,0,0,1,0,0V8.42a0,0,0,0,0,0,0h0s0,0,0,0l0,.05v0h0l0,0,0,0Z"/><path class="cls-3" d="M16.78,8.87V9a.21.21,0,0,1,0,.08s0,0,0,.05.06,0,0,.11,0,0,0,.05a.11.11,0,0,1,0,.05s0,.08,0,.14v0h0s0,0,0,0h0l0,0h0v0h0s0,0,0-.05l0-.06s0,0,0-.07,0,0,0,0V9.18s0,0,0,0a0,0,0,0,0,0,0v0s0,0,0,0l-.05,0a.34.34,0,0,0-.09.12s0,0,0,.05h0l0,0v0h-.05l-.05,0v0l.06,0s0,0,0,0l0,0a0,0,0,0,1,0,0l0-.05s0,0,0,0a0,0,0,0,1,0,0v0h0v0a0,0,0,0,1,0,0h0a0,0,0,0,1,0,0v0h-.06v0h0V9.17l-.08-.05h0a1,1,0,0,1-.29,0,.17.17,0,0,1,0,.07.19.19,0,0,1,0,.07v.13a.09.09,0,0,1,0,.05s0,0,0,0h0v0h-.06l0,0v0s0,0,0,0,0,0,0,0V9.37s0,0,0-.06v0h0s0-.08,0-.11v0h-.12l-.06,0a0,0,0,0,0,0,0s0,0,.05.06,0,0,0,0l0,0s0,0,0,0v0l0,0v0h0s0,0,0-.06l0-.06,0-.08s0,0,0-.08,0,0,.06-.06a.1.1,0,0,0,0-.05s0,0,0-.09v0h0l-.06,0h-.09l0,0h-.1s0,0,0,0l0,0v0s0,0,0,0h0l0,0,0,0,0,0s0,0,0,0h0l0,0,0,0h0l.09,0,.07,0h.11l0,0,0,0s0,0,0,0l.06,0h.12c.11,0,.11,0,.19,0a.81.81,0,0,0,.17,0h.15l.15,0h.13c.05,0,.08,0,.12,0a.18.18,0,0,1,.09,0v0s0,0,0,0v.07c0,.05,0,.06-.08.07Z"/><path class="cls-10" d="M16.33,8.94l0,0a.13.13,0,0,1-.11,0l0,0h0l0,0,.05,0,.05,0,.07,0,.23,0a.22.22,0,0,0,.17,0s0,0,0-.05,0,0,0,0l0,0h0l0,0a.06.06,0,0,1,0,.06,0,0,0,0,1,0,.05s-.07,0-.17,0l-.23,0-.06,0,0,0h-.05l.07,0,0,0h.12l0,0h0l.05,0,0,0h.11a.21.21,0,0,0,.11,0h.08l-.07,0-.12,0h-.1l-.06,0-.05,0h-.06Z"/><path class="cls-10" d="M15.48,8.61h0l0,0s0,0,0,0h0a.05.05,0,0,0,0,0Z"/><path class="cls-1" d="M15.48,8.61h0l0,0s0,0,0,0h0a.05.05,0,0,0,0,0Z"/><path class="cls-10" d="M15.85,9.18h0v0h0s0-.05,0-.06,0,0,0,0V9h0V9l0,0v.1h0Z"/><path class="cls-1" d="M16.06,9a.13.13,0,0,1,0,0l0,.1v0Z"/><path class="cls-11" d="M15.52,8.87l.07,0a.32.32,0,0,0,.1-.12.33.33,0,0,0,0-.13h-.06a.43.43,0,0,1-.05.12.39.39,0,0,1-.08.1Z"/><polygon class="cls-3" points="15.52 8.87 15.52 8.86 15.54 8.86 15.55 8.87 15.52 8.87"/><path class="cls-11" d="M15.67,9.42s0,0,0,0l0,0h0a.08.08,0,0,1,0,0,.06.06,0,0,1,0,0,0,0,0,0,1,0,0h0l0-.05Z"/><path class="cls-11" d="M16.66,9.47l.05,0,0,0h-.13a.09.09,0,0,1,0-.06Z"/><path class="cls-11" d="M16.37,9.41l0,0,.05,0h-.14l.05-.05Z"/><path class="cls-11" d="M15.85,9.47l0,0,0,0H15.8s0,0,0-.06Z"/><path class="cls-11" d="M15.58,8.58s0,0,0-.05h0a0,0,0,0,0,0,0s0,0,0,0v0s0,0,0,0l0,0s0,0,0,0a.06.06,0,0,0,0,0l0,0s0,0,0,0v0l0,0h0Z"/><path class="cls-3" d="M15.48,8.82h0l.07-.05-.07.06h0Z"/><path class="cls-1" d="M15.65,9.08l0,0Z"/><path class="cls-1" d="M15.69,9s0,.1.06.12Z"/><path class="cls-1" d="M16.55,9.19h0l.08,0Z"/><path class="cls-10" d="M16.31,9.14h0l.15-.06.08,0-.08.05-.14.05Z"/><path class="cls-10" d="M16.69,9.16h0l0,0h0l-.08-.06s0,0,0-.05-.06,0-.08,0h0c.05,0,.06,0,.08,0s.07,0,.08.06a.18.18,0,0,0,.07.05l0,0Z"/><path class="cls-3" d="M16.39,9l.05.05h.07l0,0h-.09Z"/><path class="cls-3" d="M16.76,8.71s0,0,0,0h0v.05h.06v0Z"/><path class="cls-3" d="M16.61,8.94v0h-.15l0,0,0,0h-.1l.07,0Z"/><path class="cls-3" d="M16.31,9l0,0H16.2V9l.06,0Z"/><path class="cls-3" d="M16.23,8.85l.05,0h.28l.08,0h.12l0,0-.17,0h-.34Z"/><path class="cls-10" d="M15.27,8.73h0v0h0Z"/><path class="cls-1" d="M15.27,8.73h0v0h0Z"/><path class="cls-11" d="M15.49,10.12l-.05,0h0s0,0,0,0,0,0,0,0h0l0,0s0,0,0,0,0,0,0,0,0,0,0,0Z"/><path class="cls-11" d="M15.46,10.15l0,0,0,0,0,0,0,0Z"/><path class="cls-11" d="M15.41,9.65h0s0,0,0,0a0,0,0,0,1,0,0V9.52a0,0,0,0,0,0,0h0s0,0,0,0l0,.05v0h0l0,0,0,0Z"/><path class="cls-3" d="M16.78,10v.09a.21.21,0,0,1,0,.08s0,0,0,0,.06,0,0,.11,0,0,0,0a.09.09,0,0,1,0,.05s0,.08,0,.14v0h0s0,0,0,0h-.06l0,0v0h0s0,0,0-.05l0-.06s0,0,0-.07,0,0,0-.05v-.05s0,0,0,0a.1.1,0,0,0,0,0v0s0,0,0,0l-.05,0a.31.31,0,0,0-.09.11s0,0,0,0h0l0,0v0h-.05l-.05,0v0l.06,0s0,0,0,0l0,0,0,0,0-.05,0,0a0,0,0,0,1,0,0v0h0v0a0,0,0,0,1,0,0h0s0,0,0,0v0h-.06v0h0v-.05l-.08,0h0a1,1,0,0,1-.29,0,.15.15,0,0,1,0,.07.19.19,0,0,1,0,.07v.13a.09.09,0,0,1,0,.05s0,0,0,0h0v0h-.06l0,0v0s0,0,0,0,0,0,0,0v0s0,0,0-.06v0h0s0-.08,0-.11v0h-.12l-.06,0v0s0,0,.05.06,0,0,0,0l0,0s0,0,0,0v0l0,0v0h0s0,0,0-.06a.33.33,0,0,0,0-.06l0-.08s0,0,0-.08,0,0,.06-.06a.1.1,0,0,0,0,0s0,0,0-.09v0h0l-.06,0h-.09l0,0h-.1l0,0s0,0,0,0v0l0,0h0l0,0,0,0s0,0,0,0,0,0,0,0h0l0,0,0,0h0l.09,0,.07,0h.11l0,0,0,0s0,0,0,0l.06,0h.12c.11,0,.11,0,.19,0a.81.81,0,0,0,.17,0h.15l.15,0h.13c.05,0,.08,0,.12,0l.09,0v0s0,0,0,0v.07a.15.15,0,0,1-.08.08Z"/><path class="cls-10" d="M16.33,10l0,0a.13.13,0,0,1-.11,0l0,0h0l0,0,.05,0,.05,0,.07,0,.23,0a.22.22,0,0,0,.17,0s0,0,0-.05a0,0,0,0,0,0,0h0v0l0,0s0,0,0,.06a.07.07,0,0,1,0,.06.3.3,0,0,1-.17,0l-.23,0-.06,0,0,0h-.05l.07,0,0,0h.12l0,0h0l.05,0,.06,0h.1l.11,0,.07,0h0l-.07,0H16.6l-.1,0-.06,0-.05,0h-.06Z"/><path class="cls-10" d="M15.48,9.71h0l0,0s0,0,0,0h0a.05.05,0,0,0,0,0Z"/><path class="cls-1" d="M15.48,9.71h0l0,0s0,0,0,0h0a.05.05,0,0,0,0,0Z"/><path class="cls-10" d="M15.85,10.23h0v0s0,0,0-.06a.09.09,0,0,0,0-.05v0h0v0l0,0v.1h0Z"/><path class="cls-1" d="M16.06,10.08a.1.1,0,0,1,0,0l0,.1v0Z"/><path class="cls-11" d="M15.52,10l.07,0a.32.32,0,0,0,.1-.12.33.33,0,0,0,0-.13h-.06a.69.69,0,0,1-.05.13.34.34,0,0,1-.08.09Z"/><polygon class="cls-3" points="15.52 9.97 15.52 9.96 15.54 9.96 15.55 9.97 15.52 9.97"/><path class="cls-11" d="M15.67,10.52s0,0,0,0l0,0h0a.06.06,0,0,1,0,0s0,0,0,0a0,0,0,0,1,0,0h0s0,0,0-.05Z"/><path class="cls-11" d="M16.66,10.57l.05,0,0,0h-.13s0-.05,0-.06Z"/><path class="cls-11" d="M16.37,10.51l0,0,.05,0h-.14l.05-.05Z"/><path class="cls-11" d="M15.85,10.58h0l0,0a0,0,0,0,1,0,0H15.8s0-.05,0-.05Z"/><path class="cls-11" d="M15.58,9.68s0,0,0,0,0,0,0,0a0,0,0,0,0,0,0V9.53s0,0,0,0l0,0s0,0,0,0a.06.06,0,0,0,0,0l0,0s0,0,0,0v0l0,0h0Z"/><path class="cls-1" d="M15.66,10.19l.05,0Z"/><path class="cls-1" d="M15.69,10.12s0,.1.06.12Z"/><path class="cls-1" d="M16.55,10.29h0l.08,0Z"/><path class="cls-10" d="M16.31,10.24h0a1.31,1.31,0,0,0,.15-.05l.08,0-.08,0-.14.05Z"/><path class="cls-10" d="M16.69,10.26h0l-.08-.06s0,0,0,0-.06,0-.08,0h0a.06.06,0,0,1,.07,0s.07,0,.08.06a.18.18,0,0,0,.07.05l0,0Z"/><path class="cls-3" d="M16.39,10.1l.05.05h.07l0,0h-.09Z"/><path class="cls-3" d="M16.76,9.81h0v.05h.06v0Z"/><path class="cls-3" d="M16.61,10v0h-.15l0,0,0,0h-.1l.07,0Z"/><path class="cls-3" d="M16.31,10.05l0,0H16.2v.05l.06,0Z"/><path class="cls-10" d="M15.27,9.83h0v0h0Z"/><path class="cls-1" d="M15.27,9.83h0v0h0Z"/><path class="cls-10" d="M12.12,10.17a.59.59,0,0,0,.07.2.54.54,0,0,0,.12.18.8.8,0,0,0,.19.13.71.71,0,0,0,.21.08,1.77,1.77,0,0,0,.5.05l.3,0,.34,0H14l.22,0a3.08,3.08,0,0,1,.33.1V8.29H12.11v1.76s0,.09,0,.12Z"/><path class="cls-8" d="M14.6,10.89h0a2.59,2.59,0,0,0-.33-.09l-.22,0h-.18a1.69,1.69,0,0,0-.33,0h0l-.26,0a1.45,1.45,0,0,1-.51-.05.86.86,0,0,1-.21-.07,1,1,0,0,1-.19-.14.77.77,0,0,1-.1-.14l0,0a.65.65,0,0,1-.06-.21.54.54,0,0,1,0-.11V8.29h2.48l0,2.61ZM14,10.73H14a1.81,1.81,0,0,1,.23,0l.31.09V8.29l-2.46,0v1.74h0a1,1,0,0,0,0,.12.6.6,0,0,0,.06.19l0,.05s0,.05.09.13a.8.8,0,0,0,.19.13.66.66,0,0,0,.2.07,1.4,1.4,0,0,0,.5,0l.26,0h0l.34,0Z"/><path class="cls-3" d="M12.41,10.6l.11.06a.77.77,0,0,0,.16.07V8.31h-.27V10.6Z"/><path class="cls-3" d="M12.69,10.73l-.06,0-.11,0-.11-.07V8.31h.28v2.42Zm0-2.42h-.27V10.6l.12.06.1,0,0,0V8.31Z"/><path class="cls-3" d="M13.78,10.73V8.31h-.27v2.44l.27,0Z"/><path class="cls-3" d="M13.5,10.76V8.31h.28v2.42l-.27,0Zm.28-2.45h-.27v2.44l.27,0V8.31Z"/><path class="cls-3" d="M14.33,8.31h-.27v2.41l.27,0Z"/><path class="cls-3" d="M14.33,10.78h0a1.6,1.6,0,0,0-.27,0V8.31h.28v2.47Zm0-2.47h-.27v2.41a1.76,1.76,0,0,1,.27,0V8.31Z"/><path class="cls-8" d="M18.59,8.2a.84.84,0,0,0,.63-.93A.9.9,0,0,0,19,6.61a.93.93,0,0,0-.61-.26v0a1,1,0,0,1,.63.26.94.94,0,0,1,.26.69.83.83,0,0,1-.66.93Z"/><path class="cls-8" d="M18.66,8.17a.89.89,0,0,0,.54-.86,1.09,1.09,0,0,0-.28-.78.7.7,0,0,0-.5-.18v0a.72.72,0,0,1,.52.19,1.12,1.12,0,0,1,.29.8.83.83,0,0,1-.57.86Z"/><rect class="cls-3" x="15.2" y="5.57" width="0.35" height="2.43"/><path class="cls-3" d="M15.56,8H15.2V5.57h.35V8Zm0-2.43H15.2V8h.35V5.57Z"/><rect class="cls-3" x="15.91" y="5.57" width="0.35" height="2.43"/><path class="cls-3" d="M16.26,8h-.35V5.57h.36V8Zm0-2.43h-.35V8h.35V5.57Z"/><rect class="cls-3" x="16.61" y="5.57" width="0.35" height="2.43"/><path class="cls-3" d="M17,8h-.36V5.57H17V8Zm0-2.43h-.35V8H17V5.57Z"/><path class="cls-3" d="M13.23,8.31v2.48H13V8.31Z"/><path class="cls-3" d="M13.14,10.79H13V8.31h.28v2.48Zm.09-2.48H13v2.47h.27V8.31Z"/></g></g></g></g></g></g></svg>