<svg xmlns="http://www.w3.org/2000/svg" xmlns:xlink="http://www.w3.org/1999/xlink" viewBox="0 0 29.46 17.19"><defs><style>.cls-1{fill:none;}.cls-2{clip-path:url(#clip-path);}.cls-3{fill:#bc0030;}.cls-4{fill:#f1d62f;}</style><clipPath id="clip-path"><rect class="cls-1" width="29.46" height="17.19"/></clipPath></defs><g id="Layer_2" data-name="Layer 2"><g id="cá»"><g id="central_africa" data-name="central africa"><g class="cls-2"><rect class="cls-3" width="29.46" height="17.19"/><rect y="8.59" width="29.46" height="8.59"/><polygon class="cls-4" points="13.42 8.3 14.33 7.64 15.23 8.3 14.89 7.23 15.8 6.57 14.67 6.57 14.33 5.5 13.98 6.57 12.86 6.57 13.77 7.23 13.42 8.3"/><g class="cls-2"><path class="cls-4" d="M19.17,13.57a2.68,2.68,0,0,0-.51-.57c-.22-.19-.51-.4-.73-.61l-.42.49s0,.07,0,.07a1.32,1.32,0,0,1,.8.41c.26.25.36.56.52.68s.53-.15.33-.47m-1.1-.78s-.05,0-.05-.06a0,0,0,0,1,.05-.05.06.06,0,0,1,.06.05.06.06,0,0,1-.06.06m.43.37a.06.06,0,0,1-.06-.06.06.06,0,0,1,.12,0,.06.06,0,0,1-.06.06m.37.38a.06.06,0,0,1-.06-.06.06.06,0,0,1,.12,0,.06.06,0,0,1-.06.06"/><path class="cls-4" d="M15.42,11.76a3.26,3.26,0,0,1-3.21-.59l-.49.6a4.36,4.36,0,0,0,.67.45l-.17.31a4.79,4.79,0,0,0,.81.34l.1-.33a4.1,4.1,0,0,0,.79.16l0,.34a4.22,4.22,0,0,0,.87,0l0-.34a4.1,4.1,0,0,0,.79-.16l.1.33a2.86,2.86,0,0,0,.41-.15l-.18-.7Z"/><path class="cls-4" d="M17.68,8.59a3.32,3.32,0,0,1-1.19,2.56l.94.65a3.06,3.06,0,0,0,.35-.37l-.26-.22a3.69,3.69,0,0,0,.44-.67l.31.16a4.05,4.05,0,0,0,.33-.81l-.32-.1A4.09,4.09,0,0,0,18.43,9l.34,0a4.31,4.31,0,0,0,0-.88l-.34,0a4.1,4.1,0,0,0-.16-.79l.33-.1a3.83,3.83,0,0,0-.33-.81L18,6.65A4.36,4.36,0,0,0,17.51,6l.27-.22a4,4,0,0,0-.62-.62l-.23.28A3.92,3.92,0,0,0,16.26,5l.17-.32a4.05,4.05,0,0,0-.81-.33l-.1.35a4,4,0,0,0-.76-.16l-.08.77a3.33,3.33,0,0,1,3,3.31"/><path class="cls-4" d="M16.37,11.6a24.08,24.08,0,0,1-2.57-2v0h0a21.87,21.87,0,0,0,2.56,2c.44.31.89.63,1.32.95l.13-.16c-1.47-1-4.95-3.47-5-4.35a1.73,1.73,0,0,0,.75,2.46c1.43.82,2.38,1.35,3.87,2.34l.23-.26c-.43-.32-.88-.64-1.32-1"/></g></g></g></g></g></svg>