<svg xmlns="http://www.w3.org/2000/svg" xmlns:xlink="http://www.w3.org/1999/xlink" viewBox="0 0 29.46 17.19"><defs><style>.cls-1{fill:none;}.cls-2{clip-path:url(#clip-path);}.cls-3{fill:#fff;}.cls-4{fill:#80a7d8;}.cls-5{fill:#f1bd51;}.cls-6{fill:#7a361d;}</style><clipPath id="clip-path"><rect class="cls-1" width="29.46" height="17.19"/></clipPath></defs><g id="Layer_2" data-name="Layer 2"><g id="cá»"><g id="south_america" data-name="south america"><g class="cls-2"><rect class="cls-3" y="5.73" width="29.46" height="5.73"/><rect class="cls-4" width="29.46" height="5.73"/><rect class="cls-4" y="11.46" width="29.46" height="5.73"/><g class="cls-2"><path class="cls-5" d="M14.61,8.59l.09,2.35s0,0,0,0,0,0,0,0l.09-2.35Z"/><path class="cls-6" d="M14.73,11s0,0,0-.05l-.09-2.35h0l.09,2.35s0,0,0,0,0,0,0,0l.09-2.35-.07,2.35s0,.05,0,.05Z"/><polygon class="cls-6" points="14.67 8.59 14.73 10.2 14.79 8.59 14.67 8.59"/><path class="cls-5" d="M14.51,9.35c-.13.29,0,.54-.15.79a1,1,0,0,0-.06.59c0,.12-.11.15-.08.18s.12,0,.16-.19-.05-.24.11-.56,0-.46.19-.74Z"/><path class="cls-6" d="M14.24,10.92h0s0,0,0-.05a.26.26,0,0,0,.06-.13.45.45,0,0,0,0-.11.79.79,0,0,1,.07-.48.87.87,0,0,0,.08-.38,1,1,0,0,1,.07-.41h0a1.06,1.06,0,0,0-.08.41.78.78,0,0,1-.08.39.72.72,0,0,0-.06.46.47.47,0,0,1,0,.12.23.23,0,0,1-.06.14l0,0c.06,0,.12-.06.15-.18a.34.34,0,0,0,0-.14.74.74,0,0,1,.1-.42.93.93,0,0,0,.1-.38.68.68,0,0,1,.1-.36.94.94,0,0,0-.09.36,1,1,0,0,1-.1.39.67.67,0,0,0-.09.41.81.81,0,0,1,0,.15.27.27,0,0,1-.14.19Z"/><path class="cls-6" d="M14.55,9.42c-.11.3,0,.49-.14.74.16-.18.06-.41.19-.71Z"/><path class="cls-5" d="M14.85,8.59l-.09-2.34s0,0,0,0,0,0,0,0l-.09,2.34Z"/><path class="cls-6" d="M14.84,8.59l-.09-2.34s0,0,0,0,0,0,0,0l-.09,2.34.08-2.34s0,0,0,0,0,0,0,0l.09,2.34Z"/><polygon class="cls-6" points="14.79 8.59 14.73 6.98 14.67 8.59 14.79 8.59"/><path class="cls-5" d="M15,7.83c.14-.29,0-.53.16-.79a1.06,1.06,0,0,0,.06-.58c0-.12.1-.16.08-.18s-.13,0-.17.18.06.25-.1.56,0,.46-.2.74Z"/><path class="cls-6" d="M15,7.84h0a1,1,0,0,0,.07-.4A.88.88,0,0,1,15.1,7a.77.77,0,0,0,.07-.47.49.49,0,0,1,0-.12.23.23,0,0,1,.06-.14s0,0,0,0-.12.06-.15.18a.76.76,0,0,0,0,.15A.74.74,0,0,1,15,7a.74.74,0,0,0-.09.38.82.82,0,0,1-.1.36,1.18,1.18,0,0,0,.08-.37A.93.93,0,0,1,15,7a.72.72,0,0,0,.1-.41.26.26,0,0,1,0-.15.25.25,0,0,1,.14-.2h0s0,0,0,.05a.23.23,0,0,0-.07.14s0,.07,0,.11a.8.8,0,0,1-.07.48.83.83,0,0,0-.07.38,1.06,1.06,0,0,1-.08.41Z"/><path class="cls-6" d="M14.92,7.76c.1-.29,0-.49.13-.74-.16.18-.05.41-.19.71Z"/><path class="cls-5" d="M14.73,8.47l-2.34.09s-.05,0-.05,0,.05,0,.05,0l2.34.09Z"/><path class="cls-6" d="M14.73,8.7l-2.34-.07s-.05,0-.05,0,0,0,.05,0l2.34-.09h0l-2.34.09s0,0,0,0,0,0,0,0l2.34.09Z"/><polygon class="cls-6" points="14.73 8.53 13.12 8.59 14.73 8.65 14.73 8.53"/><path class="cls-5" d="M14,8.37c-.29-.13-.53,0-.79-.15a1,1,0,0,0-.59-.06c-.11,0-.15-.11-.17-.08s0,.12.18.16.25-.05.56.11.46,0,.74.19Z"/><path class="cls-6" d="M13.91,8.54a1,1,0,0,0-.37-.09.77.77,0,0,1-.38-.09.65.65,0,0,0-.41-.1H12.6a.3.3,0,0,1-.2-.14h0v0s0,0,.05,0a.23.23,0,0,0,.13.06h.12a.8.8,0,0,1,.48.07.83.83,0,0,0,.37.08,1.09,1.09,0,0,1,.42.07v0a1,1,0,0,0-.41-.08.75.75,0,0,1-.38-.08.75.75,0,0,0-.47-.06h-.12a.3.3,0,0,1-.14-.07l0,0c0,.06.06.12.18.15a.26.26,0,0,0,.15,0,.77.77,0,0,1,.42.1.86.86,0,0,0,.37.1.82.82,0,0,1,.37.1Z"/><path class="cls-6" d="M13.9,8.41c-.29-.11-.49,0-.74-.14.18.16.41.06.71.19Z"/><path class="cls-5" d="M14.73,8.71l2.34-.09s.05,0,.05,0-.05,0-.05,0l-2.34-.09Z"/><path class="cls-6" d="M14.73,8.72v0l2.34-.09s0,0,0,0,0,0,0,0l-2.34-.09,2.34.08s.06,0,.06,0,0,0-.06,0l-2.34.09Z"/><polygon class="cls-6" points="14.73 8.65 16.34 8.59 14.73 8.53 14.73 8.65"/><path class="cls-5" d="M15.49,8.81c.29.14.53,0,.79.16a1.09,1.09,0,0,0,.59.06c.12,0,.15.1.18.08s0-.13-.19-.17-.24.06-.56-.1-.46,0-.74-.2Z"/><path class="cls-6" d="M17,9.12l0,0A.18.18,0,0,0,16.87,9h-.12A.77.77,0,0,1,16.28,9a.85.85,0,0,0-.38-.07,1,1,0,0,1-.41-.08h0a1,1,0,0,0,.41.07.94.94,0,0,1,.39.08.73.73,0,0,0,.46.07h.12a.23.23,0,0,1,.14.07h0S17,9,16.86,9h-.14a.66.66,0,0,1-.42-.1.77.77,0,0,0-.38-.09.79.79,0,0,1-.36-.1.91.91,0,0,0,.36.08.9.9,0,0,1,.38.1.74.74,0,0,0,.42.1.26.26,0,0,1,.15,0,.25.25,0,0,1,.19.14h0v0Z"/><path class="cls-6" d="M15.56,8.78c.3.1.49,0,.74.13-.18-.15-.41-.05-.71-.19Z"/><path class="cls-5" d="M14.65,8.51l-1.6,1.72s0,0,0,0,.06,0,.06,0l1.71-1.59Z"/><path class="cls-6" d="M13.06,10.29s0,0,0-.07L14.64,8.5h0l-1.59,1.72s0,0,0,0,0,0,0,0l1.72-1.59L13.1,10.28Z"/><polygon class="cls-6" points="14.69 8.55 13.59 9.73 14.77 8.63 14.69 8.55"/><path class="cls-5" d="M14,9c-.3.11-.39.37-.67.45a1,1,0,0,0-.46.38c-.09.07-.18,0-.18.07s.11.06.25,0,.13-.21.47-.32.35-.3.66-.38Z"/><path class="cls-6" d="M12.81,9.91h-.07l0,0s0,0,0,0a.22.22,0,0,0,.14-.05L13,9.71a.73.73,0,0,1,.39-.29.83.83,0,0,0,.32-.22A1,1,0,0,1,14,9V9a.93.93,0,0,0-.34.23.83.83,0,0,1-.33.22.74.74,0,0,0-.38.29l-.07.08a.21.21,0,0,1-.15,0l0,0a.22.22,0,0,0,.23,0,.55.55,0,0,0,.11-.1.73.73,0,0,1,.37-.23.85.85,0,0,0,.33-.2.79.79,0,0,1,.33-.18,1,1,0,0,0-.32.19.83.83,0,0,1-.34.21.74.74,0,0,0-.36.22.55.55,0,0,1-.11.1.3.3,0,0,1-.17.05Z"/><path class="cls-6" d="M14,9.05c-.28.13-.34.35-.61.43.23,0,.32-.26.63-.37Z"/><path class="cls-5" d="M14.81,8.68,16.41,7s0,0,0,0-.05,0-.05,0L14.65,8.51Z"/><path class="cls-6" d="M14.82,8.68h0L16.4,7s0,0,0,0,0,0,0,0L14.65,8.51l1.71-1.6s0,0,.06,0a0,0,0,0,1,0,.06L14.82,8.68Z"/><polygon class="cls-6" points="14.77 8.63 15.87 7.46 14.69 8.55 14.77 8.63"/><path class="cls-5" d="M15.42,8.21c.31-.11.4-.36.67-.45s.37-.3.46-.37.18,0,.18-.07-.1-.07-.24,0-.14.22-.48.33-.34.3-.66.38Z"/><path class="cls-6" d="M15.43,8.22h0A1,1,0,0,0,15.76,8a1,1,0,0,1,.33-.22.79.79,0,0,0,.38-.28.36.36,0,0,1,.08-.09.22.22,0,0,1,.14,0h0c-.05,0-.13,0-.24,0a.36.36,0,0,0-.11.1.69.69,0,0,1-.36.22,1,1,0,0,0-.34.2.8.8,0,0,1-.33.19.93.93,0,0,0,.32-.2.82.82,0,0,1,.34-.2.69.69,0,0,0,.36-.22.52.52,0,0,1,.11-.1c.11-.06.2-.07.24,0l0,0s0,0,0,0a.19.19,0,0,0-.13,0,.36.36,0,0,0-.08.09.73.73,0,0,1-.39.29,1,1,0,0,0-.32.21,1,1,0,0,1-.34.24Z"/><path class="cls-6" d="M15.45,8.13c.28-.13.34-.34.62-.42-.24,0-.33.25-.64.37Z"/><path class="cls-5" d="M14.81,8.51,13.1,6.92s0,0-.06,0,0,0,0,0l1.6,1.72Z"/><path class="cls-6" d="M14.65,8.67,13.05,7s0,0,0-.06.05,0,.06,0L14.82,8.5h0L13.09,6.92s0,0,0,0,0,0,0,0l1.59,1.72Z"/><polygon class="cls-6" points="14.77 8.55 13.59 7.46 14.69 8.63 14.77 8.55"/><path class="cls-5" d="M14.35,7.9c-.11-.3-.36-.39-.45-.67s-.3-.37-.37-.46,0-.18-.07-.18-.07.11,0,.25.22.13.32.47.3.35.39.66Z"/><path class="cls-6" d="M14.19,8a1.18,1.18,0,0,0-.2-.32.82.82,0,0,1-.2-.34A.67.67,0,0,0,13.56,7a.33.33,0,0,1-.09-.11.25.25,0,0,1,0-.24l0,0s0,0,0,0a.3.3,0,0,0,0,.14.35.35,0,0,0,.09.07.84.84,0,0,1,.29.39.72.72,0,0,0,.21.32,1.14,1.14,0,0,1,.24.35h0a1.09,1.09,0,0,0-.24-.34,1,1,0,0,1-.22-.33.71.71,0,0,0-.28-.37l-.09-.08a.26.26,0,0,1,0-.15s0,0,0,0,0,.13,0,.23a.53.53,0,0,0,.09.11.67.67,0,0,1,.23.37.85.85,0,0,0,.2.33.93.93,0,0,1,.19.33Z"/><path class="cls-6" d="M14.27,7.87c-.13-.28-.35-.34-.42-.61,0,.23.25.32.37.63Z"/><path class="cls-5" d="M14.65,8.68l1.72,1.59s0,0,.05,0,0,0,0,0l-1.6-1.72Z"/><path class="cls-6" d="M16.4,10.29l0,0L14.64,8.68h0l1.72,1.59s0,0,0,0,0,0,0,0L14.81,8.51l1.6,1.71a0,0,0,0,1,0,.07Z"/><polygon class="cls-6" points="14.69 8.63 15.87 9.73 14.77 8.55 14.69 8.63"/><path class="cls-5" d="M15.11,9.29c.11.3.37.39.45.66a1,1,0,0,0,.38.46c.07.09,0,.18.06.18s.07-.1,0-.24-.21-.14-.32-.47-.3-.35-.39-.67Z"/><path class="cls-6" d="M16,10.6s0,0,0,0a.21.21,0,0,0-.05-.13l-.08-.08a.7.7,0,0,1-.29-.38,1,1,0,0,0-.22-.33,1,1,0,0,1-.24-.34h0a.85.85,0,0,0,.23.34,1,1,0,0,1,.22.33.79.79,0,0,0,.28.38.36.36,0,0,1,.09.08.18.18,0,0,1,.05.14.06.06,0,0,0,0,0c0-.05.05-.13,0-.24a.87.87,0,0,0-.09-.11.68.68,0,0,1-.23-.36.82.82,0,0,0-.2-.34.69.69,0,0,1-.18-.32.82.82,0,0,0,.19.31.9.9,0,0,1,.21.34.69.69,0,0,0,.22.36l.1.11c.06.11.06.2,0,.24l0,0Z"/><path class="cls-6" d="M15.19,9.31c.13.28.35.34.43.62,0-.24-.26-.33-.37-.64Z"/><path class="cls-5" d="M14.62,8.55l-.81,2.2s0,0,0,.05,0,0,0,0l1-2.13Z"/><path class="cls-6" d="M13.84,10.8c-.05,0-.05,0,0-.06l.82-2.2h0l-.82,2.2s0,0,0,0l0,0,1-2.14-1,2.14s0,0,0,0Z"/><polygon class="cls-6" points="14.68 8.57 14.12 10.08 14.79 8.61 14.68 8.57"/><path class="cls-5" d="M14.24,9.21c-.24.22-.23.48-.45.67a1.11,1.11,0,0,0-.28.52c0,.11-.15.1-.14.14s.12,0,.22-.11.05-.25.32-.48.2-.41.46-.61Z"/><path class="cls-6" d="M13.4,10.56h0l0,0s0,0,0,0a.19.19,0,0,0,.1-.1.36.36,0,0,0,0-.11.74.74,0,0,1,.25-.41A.84.84,0,0,0,14,9.55a1.06,1.06,0,0,1,.23-.35h0a.89.89,0,0,0-.22.35,1,1,0,0,1-.22.33.72.72,0,0,0-.24.4l0,.11a.21.21,0,0,1-.12.11s0,0,0,0,.13,0,.2-.11a.33.33,0,0,0,.07-.13.73.73,0,0,1,.25-.35.9.9,0,0,0,.24-.31.72.72,0,0,1,.22-.3,1.06,1.06,0,0,0-.21.31.79.79,0,0,1-.24.31.76.76,0,0,0-.25.35.38.38,0,0,1-.06.13.29.29,0,0,1-.2.13Z"/><path class="cls-6" d="M14.24,9.29c-.21.23-.18.45-.4.63.21-.1.2-.36.44-.58Z"/><path class="cls-5" d="M14.84,8.64l.82-2.2s0,0,0-.05-.05,0-.05,0l-1,2.13Z"/><path class="cls-6" d="M14.85,8.64h0l.82-2.19s0,0,0-.05l0,0-1,2.13,1-2.14a.07.07,0,0,1,0,0l.05,0a.1.1,0,0,1,0,0l-.81,2.2Z"/><polygon class="cls-6" points="14.79 8.61 15.35 7.11 14.68 8.57 14.79 8.61"/><path class="cls-5" d="M15.23,8c.23-.22.22-.49.44-.68A.92.92,0,0,0,16,6.78c.05-.1.16-.09.14-.13s-.12,0-.22.11,0,.25-.31.48-.21.41-.47.6Z"/><path class="cls-6" d="M15.23,8h0a1.14,1.14,0,0,0,.23-.34.71.71,0,0,1,.22-.33.77.77,0,0,0,.24-.41.36.36,0,0,1,0-.11.2.2,0,0,1,.11-.1l0,0a.21.21,0,0,0-.21.11.83.83,0,0,0-.07.13.65.65,0,0,1-.25.35,1.06,1.06,0,0,0-.23.31.69.69,0,0,1-.23.3.91.91,0,0,0,.22-.3,1,1,0,0,1,.23-.32.67.67,0,0,0,.25-.34.46.46,0,0,1,.07-.14c.07-.09.15-.13.2-.12l0,0s0,0,0,0a.21.21,0,0,0-.11.1.28.28,0,0,0,0,.11.78.78,0,0,1-.24.41.77.77,0,0,0-.22.32.92.92,0,0,1-.23.35Z"/><path class="cls-6" d="M15.22,7.89c.21-.23.18-.45.41-.63-.22.11-.21.36-.45.59Z"/><path class="cls-5" d="M14.78,8.48l-2.2-.81s0,0-.05,0,0,0,0,0l2.13,1Z"/><path class="cls-6" d="M14.69,8.69l-2.14-1s0,0,0-.05.05,0,.06,0l2.2.82h0l-2.19-.81s0,0-.05,0,0,0,0,0l2.13,1Z"/><polygon class="cls-6" points="14.75 8.54 13.25 7.98 14.71 8.65 14.75 8.54"/><path class="cls-5" d="M14.12,8.1c-.22-.24-.49-.22-.68-.45a1.07,1.07,0,0,0-.52-.28c-.1,0-.1-.15-.13-.14s0,.13.11.22.25,0,.48.32.41.2.6.46Z"/><path class="cls-6" d="M14,8.23a.91.91,0,0,0-.3-.22.81.81,0,0,1-.32-.24A.74.74,0,0,0,13,7.52a.42.42,0,0,1-.14-.06.26.26,0,0,1-.12-.21l0,0s0,0,0,0a.2.2,0,0,0,.1.11l.1,0a.79.79,0,0,1,.42.25.75.75,0,0,0,.32.21,1.06,1.06,0,0,1,.35.23h0a1,1,0,0,0-.35-.22.87.87,0,0,1-.32-.22A.78.78,0,0,0,13,7.42l-.11,0a.2.2,0,0,1-.1-.11s0,0,0,0,0,.13.11.21a.75.75,0,0,0,.13.06.69.69,0,0,1,.35.25.79.79,0,0,0,.31.24.67.67,0,0,1,.3.23Z"/><path class="cls-6" d="M14,8.1c-.23-.2-.45-.18-.63-.4.11.21.36.2.59.44Z"/><path class="cls-5" d="M14.69,8.7l2.19.82s.05,0,.06,0,0,0,0,0l-2.13-1Z"/><path class="cls-6" d="M16.91,9.53h0l-2.2-.81v0l2.2.82s0,0,0,0,0,0,0,0l-2.13-1,2.14,1a0,0,0,0,1,0,0l0,0Z"/><polygon class="cls-6" points="14.71 8.65 16.22 9.21 14.75 8.54 14.71 8.65"/><path class="cls-5" d="M15.35,9.09c.22.23.48.22.67.44a1,1,0,0,0,.52.28c.11.06.1.16.13.15s0-.13-.1-.23-.25,0-.48-.31-.41-.21-.61-.46Z"/><path class="cls-6" d="M16.67,10s0,0,0,0a.16.16,0,0,0-.09-.11l-.11,0A.77.77,0,0,1,16,9.54a.87.87,0,0,0-.32-.22.92.92,0,0,1-.35-.23h0a1.06,1.06,0,0,0,.35.23.87.87,0,0,1,.33.22.79.79,0,0,0,.4.24l.11,0a.23.23,0,0,1,.11.11s0,0,0,0,0-.14-.11-.21l-.13-.07a.73.73,0,0,1-.35-.25.85.85,0,0,0-.31-.23.76.76,0,0,1-.3-.23.94.94,0,0,0,.31.22.85.85,0,0,1,.31.23.69.69,0,0,0,.35.25.42.42,0,0,1,.13.07.28.28,0,0,1,.13.2l0,0Z"/><path class="cls-6" d="M15.43,9.08c.23.21.45.18.63.41-.11-.21-.36-.21-.59-.45Z"/><path class="cls-5" d="M14.69,8.48l-2.13,1s0,0,0,0,.05,0,.05,0l2.2-.82Z"/><path class="cls-6" d="M12.55,9.53l0,0a0,0,0,0,1,0,0l2.13-1h0l-2.13,1s0,0,0,0,0,0,.05,0l2.19-.82-2.19.83Z"/><polygon class="cls-6" points="14.71 8.54 13.25 9.21 14.75 8.65 14.71 8.54"/><path class="cls-5" d="M14,8.68c-.33,0-.51.18-.79.16a1,1,0,0,0-.57.17c-.11,0-.18,0-.2,0s.08.11.24.08.2-.14.56-.11.43-.15.76-.11Z"/><path class="cls-6" d="M12.57,9.1A.22.22,0,0,1,12.39,9V9s0,0,0,0a.25.25,0,0,0,.15,0l.1-.05a.76.76,0,0,1,.47-.12.81.81,0,0,0,.38-.07A.86.86,0,0,1,14,8.67v0a1,1,0,0,0-.41.08.81.81,0,0,1-.38.08A.8.8,0,0,0,12.7,9L12.59,9a.23.23,0,0,1-.15,0h0c0,.06.1.09.23.08L12.77,9A.68.68,0,0,1,13.19,9a.71.71,0,0,0,.38-.06.87.87,0,0,1,.38,0,.8.8,0,0,0-.37.06.9.9,0,0,1-.39.05.81.81,0,0,0-.42.07l-.14.05Z"/><path class="cls-6" d="M13.89,8.74c-.31,0-.45.19-.73.16.22.07.4-.11.73-.1Z"/><path class="cls-5" d="M14.78,8.7l2.13-1s0,0,0,0-.06,0-.06,0l-2.19.81Z"/><path class="cls-6" d="M14.78,8.71v0l2.13-1s0,0,0,0,0,0,0,0l-2.2.81,2.19-.83s.05,0,.06,0,0,0,0,.05l-2.13,1Z"/><polygon class="cls-6" points="14.75 8.65 16.22 7.98 14.71 8.54 14.75 8.65"/><path class="cls-5" d="M15.52,8.51c.32,0,.5-.19.79-.16a1.11,1.11,0,0,0,.56-.17c.12,0,.18,0,.2,0s-.07-.1-.24-.08-.2.15-.56.12-.43.14-.75.1Z"/><path class="cls-6" d="M15.54,8.51h0a1.18,1.18,0,0,0,.4-.08.83.83,0,0,1,.39-.08.74.74,0,0,0,.46-.12l.1-.05a.23.23,0,0,1,.15,0h0s-.1-.09-.22-.07a.29.29,0,0,0-.14.05.75.75,0,0,1-.43.06,1,1,0,0,0-.38.06.71.71,0,0,1-.37.05,1.12,1.12,0,0,0,.36-.06.91.91,0,0,1,.4-.06.68.68,0,0,0,.41-.07l.14-.05a.29.29,0,0,1,.24.06v0s0,0-.05,0a.21.21,0,0,0-.14,0l-.11.05a.72.72,0,0,1-.46.12.79.79,0,0,0-.38.08,1.18,1.18,0,0,1-.39.08Z"/><path class="cls-6" d="M15.57,8.44c.31,0,.45-.19.73-.15-.22-.08-.39.1-.73.09Z"/><path class="cls-5" d="M14.84,8.55l-1-2.13s0,0,0,0,0,.05,0,.05l.81,2.2Z"/><path class="cls-6" d="M14.63,8.63,13.8,6.44a0,0,0,0,1,0,0l0,0a.07.07,0,0,1,0,0l1,2.13h0l-1-2.16h0v.05l.82,2.19Z"/><polygon class="cls-6" points="14.79 8.57 14.12 7.11 14.68 8.61 14.79 8.57"/><path class="cls-5" d="M14.65,7.81c0-.33-.19-.5-.17-.79a1,1,0,0,0-.17-.57c0-.11,0-.18,0-.2s-.1.08-.08.24.14.21.12.56.14.44.1.76Z"/><path class="cls-6" d="M14.65,7.81h0a.88.88,0,0,0-.09-.41A.81.81,0,0,1,14.48,7a.72.72,0,0,0-.12-.46l0-.11a.18.18,0,0,1,0-.15s0,0,0,0a.22.22,0,0,0-.07.23.39.39,0,0,0,.05.14.7.7,0,0,1,.06.42,1.07,1.07,0,0,0,.06.39.79.79,0,0,1,.05.37,1.24,1.24,0,0,0-.06-.37.86.86,0,0,1-.06-.39.71.71,0,0,0-.07-.42.58.58,0,0,1,0-.14.27.27,0,0,1,.06-.23h0s0,0,0,0a.24.24,0,0,0,0,.15.93.93,0,0,0,0,.1.76.76,0,0,1,.12.47.81.81,0,0,0,.08.38,1,1,0,0,1,.08.41Z"/><path class="cls-6" d="M14.58,7.75c0-.31-.19-.45-.15-.73-.08.23.1.4.09.73Z"/><path class="cls-5" d="M14.62,8.64l1,2.13s0,0,.05,0,0-.05,0-.05l-.82-2.2Z"/><path class="cls-6" d="M15.65,10.8c-.05,0-.06,0-.06,0l-1-2.13h0l1,2.14s0,0,0,0,0,0,0,0l-.82-2.2.83,2.19s0,0,0,.06Z"/><polygon class="cls-6" points="14.68 8.61 15.35 10.08 14.79 8.57 14.68 8.61"/><path class="cls-5" d="M14.82,9.38c0,.32.18.5.16.79a1,1,0,0,0,.17.56c0,.12,0,.18,0,.2s.11-.07.08-.23-.14-.21-.11-.56S15,9.7,15,9.38Z"/><path class="cls-6" d="M15.14,10.94s0,0,0-.06a.21.21,0,0,0,0-.14l-.05-.11a.72.72,0,0,1-.12-.46.92.92,0,0,0-.07-.38.88.88,0,0,1-.09-.41h0a1,1,0,0,0,.09.4.85.85,0,0,1,.08.39.82.82,0,0,0,.11.46.31.31,0,0,1,.05.1.22.22,0,0,1,0,.16v0s.09-.1.08-.22a.46.46,0,0,0-.05-.14.71.71,0,0,1-.07-.42A.84.84,0,0,0,15,9.75a.84.84,0,0,1,0-.37.82.82,0,0,0,.06.37.86.86,0,0,1,0,.39.66.66,0,0,0,.07.41.66.66,0,0,1,.05.15.24.24,0,0,1-.06.23Z"/><path class="cls-6" d="M14.88,9.43c0,.31.19.45.16.73.07-.22-.11-.39-.1-.72Z"/><path class="cls-5" d="M14.73,7.64a1,1,0,1,1-1,1,1,1,0,0,1,1-1Z"/><path class="cls-6" d="M14.73,9.55a1,1,0,1,1,1-1,1,1,0,0,1-1,1Zm0-1.9a.95.95,0,1,0,.95.94.95.95,0,0,0-.95-.94Z"/><path class="cls-6" d="M15.33,8.39a.38.38,0,0,0-.5-.06.32.32,0,0,0,0,.39h0a.48.48,0,0,1,0-.42.35.35,0,0,1,.54.08Z"/><path class="cls-6" d="M15.07,8.34a.2.2,0,0,0-.16.06c-.05,0-.07,0-.08,0s0,0,0,0l.09-.06a.21.21,0,0,1,.13,0,.4.4,0,0,1,.22.1.23.23,0,0,0-.22-.13Z"/><path class="cls-6" d="M15.24,8.47a.23.23,0,0,0-.35,0h0a.18.18,0,0,1,.27,0h.05Z"/><path class="cls-6" d="M15.05,8.39a.07.07,0,0,1,0,.14.07.07,0,0,1,0-.14Z"/><path class="cls-6" d="M14.89,8.47a.3.3,0,0,0,.35,0h-.05a.2.2,0,0,1-.27,0h0Z"/><path class="cls-6" d="M15.25,8.5a.3.3,0,0,1-.33.05c-.07-.05-.07-.06-.06-.06l.09,0a.37.37,0,0,0,.3,0Z"/><path class="cls-6" d="M14.89,8.72a0,0,0,0,1,0,.06s0,0-.05,0,0,0,0,0a.13.13,0,0,1-.1.06h0v0a.16.16,0,0,0,.09,0,.06.06,0,0,0,.09,0,.07.07,0,0,0,0-.09l0,0Z"/><path class="cls-6" d="M15,9c-.06,0-.09-.11-.16-.11l-.08,0h0V9s.08,0,.13,0L15,9Z"/><path class="cls-6" d="M15,9a.41.41,0,0,0-.22,0h0v0c.06,0,.09-.05.22,0Z"/><path class="cls-6" d="M15,9c-.16,0-.11.08-.24.08h0v0c.16,0,.09-.09.24-.11Z"/><path class="cls-6" d="M14.86,9.27a.13.13,0,0,0-.26,0,.13.13,0,0,1,.16-.1.13.13,0,0,1,.1.1Z"/><path class="cls-6" d="M14.13,8.39a.38.38,0,0,1,.5-.06.32.32,0,0,1,0,.39h0a.52.52,0,0,0,0-.42.35.35,0,0,0-.54.08Z"/><path class="cls-6" d="M14.39,8.34a.24.24,0,0,1,.17.06s.06,0,.07,0,0,0,0,0l-.08-.06a.24.24,0,0,0-.14,0,.4.4,0,0,0-.22.1.24.24,0,0,1,.22-.13Z"/><path class="cls-6" d="M14.23,8.47a.22.22,0,0,1,.34,0h0c-.07-.11-.25-.06-.26,0h0Z"/><path class="cls-6" d="M14.41,8.39a.07.07,0,0,0,0,.14.07.07,0,0,0,0-.14Z"/><path class="cls-6" d="M14.57,8.47a.28.28,0,0,1-.34,0h0a.19.19,0,0,0,.26,0h0Z"/><path class="cls-6" d="M14.22,8.5a.29.29,0,0,0,.32.05c.07-.05.07-.06.06-.06l-.09,0a.35.35,0,0,1-.29,0Z"/><path class="cls-6" d="M14.58,8.72a0,0,0,0,0,0,.06,0,0,0,0,0,.06,0l0,0a.09.09,0,0,0,.09.06h0l0,0a.18.18,0,0,1-.09,0,.06.06,0,0,1-.09,0,.07.07,0,0,1,0-.09l.05,0Z"/><path class="cls-6" d="M14.49,9c.07,0,.09-.11.17-.11l.07,0h0l0,0s-.07,0-.12,0a.52.52,0,0,1-.12.07Z"/><path class="cls-6" d="M14.51,9a.4.4,0,0,1,.22,0h0l0,0c-.06,0-.09-.05-.22,0Z"/><path class="cls-6" d="M14.49,9c.16,0,.11.08.24.08h0l0,0c-.16,0-.09-.09-.24-.11Z"/><path class="cls-6" d="M14.6,9.27a.13.13,0,0,1,.26,0,.13.13,0,0,0-.16-.1.13.13,0,0,0-.1.1Z"/></g></g></g></g></g></svg>