<svg xmlns="http://www.w3.org/2000/svg" xmlns:xlink="http://www.w3.org/1999/xlink" viewBox="0 0 29.46 17.19"><defs><style>.cls-1{fill:none;}.cls-2{clip-path:url(#clip-path);}.cls-3{fill:#1b257d;}.cls-4{fill:#f4c638;}</style><clipPath id="clip-path"><rect class="cls-1" width="29.46" height="17.19"/></clipPath></defs><g id="Layer_2" data-name="Layer 2"><g id="ther"><g id="thẻ_3_vùng_hiển_thị" data-name="thẻ 3 vùng hiển thị"><g id="BARBADOS"><g class="cls-2"><rect class="cls-3" width="29.46" height="17.19"/><rect class="cls-4" x="9.82" width="9.82" height="17.19"/><g class="cls-2"><path d="M14.73,3.83a6.46,6.46,0,0,1-1.34,2.48,2.63,2.63,0,0,1,.84-.13V9.84l-1,.15s0-.06,0-.14a14,14,0,0,0-.68-3.08c0-.14-.42-.65-.11-.56,0,0,.44.17.37.09A3.89,3.89,0,0,0,10.6,5.2c-.07,0-.11,0,0,.1A10.42,10.42,0,0,1,12.45,11c.4,0,1.37-.24,1.78-.24v2.58h1V10.77c.4,0,1.37.24,1.78.24A10.33,10.33,0,0,1,18.91,5.3c.06-.08,0-.12-.05-.1a3.89,3.89,0,0,0-2.13,1.1c-.06.08.34-.09.38-.09.3-.09-.09.42-.11.56a14,14,0,0,0-.68,3.08c0,.08,0,.14-.05.14l-1-.15V6.18a2.53,2.53,0,0,1,.83.13,6.46,6.46,0,0,1-1.34-2.48"/></g></g></g></g></g></g></svg>