<svg xmlns="http://www.w3.org/2000/svg" xmlns:xlink="http://www.w3.org/1999/xlink" viewBox="0 0 29.46 17.19"><defs><style>.cls-1{fill:none;}.cls-2{clip-path:url(#clip-path);}.cls-3{fill:#ba0019;}.cls-4{fill:#3e9a13;}.cls-5{fill:#fff;}</style><clipPath id="clip-path"><rect class="cls-1" width="29.46" height="17.19"/></clipPath></defs><g id="Layer_2" data-name="Layer 2"><g id="cá»"><g id="east_euro" data-name="east euro"><g class="cls-2"><rect class="cls-3" width="29.46" height="11.46"/><rect class="cls-4" y="11.46" width="29.46" height="5.73"/><rect class="cls-5" width="3.78" height="17.19"/><path class="cls-3" d="M.46,16.87H.63v-.48H.46Zm1.35,0H2v-.48H1.81Zm1.34,0h.17v-.48H3.15Zm-2-1.27H1.3v-.39H1.13Zm1.35,0h.17v-.39H2.48Zm-2-1H.63V14.1H.46Zm1.35,0H2V14.1H1.81Zm1.34,0h.17V14.1H3.15ZM.8,15.21H1v-.4h.17v-.4H1.3v.4h.17v.4h.17v.39H1.47V16H1.3v.39H1.13V16H1v-.4H.8Zm1.34,0h.17v-.4h.17v-.4h.17v.4h.17v.4H3v.39H2.82V16H2.65v.39H2.48V16H2.31v-.4H2.14Zm.34-1.59V14H2.31v.39H2.14v.4H2v.4H1.81v-.4H1.64v-.4H1.47V14H1.3v-.4H1.13V14H1v.39H.8v.4H.63v.4H.46v.39H.63V16H.8v.39H1v.4h.17v.4H1.3v-.4h.17v-.4h.17V16h.17v-.4H2V16h.16v.39h.17v.4h.17v.4h.17v-.4h.17v-.4H3V16h.16v-.4h.17v-.39H3.15v-.4H3v-.4H2.82V14H2.65v-.4Zm.42-.39H3v-.16h.09v.16h.08v.16H3.07v.15H3v-.15H2.9Zm0-.56v.24H2.82v.24H2.73v.32h.09v.23H2.9v.24h.25V13.7h.09v-.23h.08v-.32H3.24v-.24H3.15v-.24Zm-2.27.56H.71v-.16H.8v.16H.88v.15H.8v.16H.71v-.16H.63Zm0-.56v.24H.54v.24H.46v.31H.54v.24H.63v.24H.88V13.7H1v-.24h.09v-.31H1v-.24H.88v-.24Zm.92.56h.09v-.16h.08v.16h.09v.15H1.72v.16H1.64v-.16H1.55Zm.42,0h.09v-.16h.08v.16h.09v.15H2.14v.16H2.06v-.16H2Zm0-.56v.24H1.81v-.24H1.55v.24H1.47v.24H1.38v.31h.09v.24h.08v.24h.26V13.7H2v.24h.26V13.7h.08v-.24H2.4v-.31H2.31v-.24H2.23v-.24ZM.46,12.51H.63V12H.46Zm1.35,0H2V12H1.81Zm1.34,0h.17V12H3.15Zm-2.69-2H.63v-.31H.46Zm2.69,0h.17v-.31H3.15ZM1.81,9.42H2V9H1.81ZM.46,8.36v.23h0v.24H.63V8.59h0V8.36Zm.93,0v.23h0v.24h.16V8.59h0V8.36Zm.84,0v.23h0v.24H2.4V8.59h0V8.36Zm.92,0v.23h0v.24h.17V8.59h0V8.36ZM2.06,8.08v.16H2v.12H1.81V8.24H1.72V8.08H1.55v.24h.09v.12h.08v.15h0v.16H1.64v.12H1.55v.24h.17V9h.09V8.83H2V9h.08v.16h.17V8.87H2.14V8.75H2.06V8.59h0V8.44h.08V8.32h.09V8.08Zm-.25.08H2v-.4H1.81ZM.46,7H.63V6.65H.46ZM3.15,7h.17V6.65H3.15ZM.46,5.15H.63V4.67H.46Zm1.35,0H2V4.67H1.81Zm1.34,0h.17V4.67H3.15Zm-2,3.45h0V8.44H1.3V8.16h.17V7.84h.25V7.47h.09V7.29H2v.17h.08v.38h.25v.32h.17v.28h.17v.31H2.48V9H2.31v.32H2.06v.37H2V9.9H1.81V9.72H1.72V9.35H1.47V9H1.3V8.75H1.13ZM2.48,4.2v.39H2.31V5H2.14v.4H2v.39H1.81V5.39H1.64V5H1.47v-.4H1.3V4.2H1.13v.39H1V5H.79v.4H.63v.39H.46v.4H.63v.39H.79V7H1v.4h.17V7H1.3v-.4h.17V6.18H1.3V5.7h.17V6h.17v.63h.08V7H1.47v.32H1.3V7.6H1.13V8H1V7.6H.79V7.37H.63V7.13H.46v.71H.63v.32H.79v.28H1v.15H1v.15H.79V9H.63v.32H.46v.71H.63V9.82H.79V9.58H1V9.19h.17v.39H1.3v.24h.17v.32h.25v.39H1.64v.64H1.47v.31H1.3V11h.17v-.4H1.3v-.39H1.13v-.4H1v.4H.79v.39H.63V11H.46v.4H.63v.39H.8v.4H1v.39h.17V13H1.3v-.4h.17V12.2h.17v-.4h.17v-.39H2v.39h.16v.4h.17v.39h.17V13h.17v-.4h.17V12.2H3v-.4h.16v-.39h.17V11H3.15v-.4H3v-.39H2.82v-.4H2.65v.4H2.48v.39H2.31V11h.17v.47H2.31v-.31H2.14v-.64H2.06v-.39h.25V9.82h.17V9.58h.17V9.19h.17v.39H3v.24h.16v.24h.17V9.35H3.15V9H3V8.75H2.82V8.59h0V8.44H3V8.16h.16V7.84h.17V7.13H3.15v.24H3V7.6H2.82V8H2.65V7.6H2.48V7.37H2.31V7.05H2.06v-.4h.08V6h.17V5.7h.17v.48H2.31v.39h.17V7h.17v.4h.17V7H3v-.4h.16V6.18h.17v-.4H3.15V5.39H3V5H2.82v-.4H2.65V4.2ZM.63,3.8H.71V3.64H.8V3.8H.88V4H.8v.16H.71V4H.63Zm0-.32H.54v.24H.46V4H.54v.24H.63v.23H.88V4.28H1V4h.09V3.72H1V3.48H.88V3.25H.63Zm.92.32h.09V3.64h.08V3.8h.09V4H1.72v.16H1.64V4H1.55ZM2,3.8h.09V3.64h.08V3.8h.09V4H2.14v.16H2.06V4H2Zm-.42-.32H1.47v.24H1.38V4h.09v.24h.08v.23h.26V4.28H2v.23h.25V4.28h.08V4H2.4V3.72H2.31V3.48H2.23V3.25H2v.23H1.81V3.25H1.55ZM2.9,3.8H3V3.64h.09V3.8h.08V4H3.07v.16H3V4H2.9Zm0-.56v.24H2.82v.24H2.73V4h.09v.23H2.9v.24h.25V4.27h.09V4h.08V3.72H3.24V3.48H3.15V3.24ZM.46,3.09H.63V2.61H.46Zm1.35,0H2V2.61H1.81Zm1.34,0h.17V2.61H3.15ZM1.13,2H1.3v-.4H1.13ZM2.48,2h.17v-.4H2.48ZM.46.79H.63V.32H.46Zm1.35,0H2V.32H1.81Zm1.34,0h.17V.32H3.15ZM.8,1.58H1V1.19h.17V.79H1.3v.4h.17v.39h.17V2H1.47v.4H1.3v.39H1.13V2.38H1V2H.8Zm1.34,0h.17V1.19h.17V.79h.17v.4h.17v.39H3V2H2.82v.4H2.65v.39H2.48V2.38H2.31V2H2.14ZM2.48,0V.4H2.31V.79H2.14v.4H2v.39H1.81V1.19H1.64V.79H1.47V.4H1.3V0H1.13V.4H1V.79H.8v.4H.63v.39H.46V2H.63v.4H.8v.39H1v.4h.17v.39H1.3V3.17h.17v-.4h.17V2.38h.17V2H2v.4h.17v.39h.17v.4h.17v.39h.17V3.17h.17v-.4H3V2.38h.16V2h.17v-.4H3.15V1.19H3V.79H2.82V.4H2.65V0Z"/></g></g></g></g></svg>