<svg xmlns="http://www.w3.org/2000/svg" xmlns:xlink="http://www.w3.org/1999/xlink" viewBox="0 0 29.46 17.19"><defs><style>.cls-1{fill:none;}.cls-2{clip-path:url(#clip-path);}.cls-3{fill:#bc0030;}.cls-4{fill:#223e84;}.cls-5{clip-path:url(#clip-path-2);}.cls-6{fill:#fff;}.cls-7{fill:#502709;}.cls-8{fill:#348010;}.cls-9{fill:#245a08;}.cls-10{fill:#479513;}.cls-11{fill:#2a680b;}.cls-12{fill:#a7d5fd;}.cls-13{fill:#69000e;}.cls-14{fill:#ea002a;}.cls-15{fill:#3667c4;}.cls-16{fill:#f6d848;}.cls-17{fill:#a54918;}.cls-18{fill:#78497d;}.cls-19{fill:#88ff69;}.cls-20{fill:#163703;}.cls-21{fill:#1f4e06;}.cls-22{fill:#50b016;}.cls-23{fill:#7493fc;}.cls-24{clip-path:url(#clip-path-3);}.cls-25{fill:url(#radial-gradient);}.cls-26{clip-path:url(#clip-path-5);}.cls-27{fill:url(#radial-gradient-2);}.cls-28{fill:#f3b06a;}.cls-29{fill:#905f16;}.cls-30{fill:#f1a252;}.cls-31{clip-path:url(#clip-path-7);}.cls-32{fill:url(#radial-gradient-3);}.cls-33{clip-path:url(#clip-path-9);}.cls-34{fill:url(#radial-gradient-4);}.cls-35{fill:#71ca1b;}.cls-36{fill:#f6d828;}</style><clipPath id="clip-path"><rect class="cls-1" width="29.46" height="17.19"/></clipPath><clipPath id="clip-path-2"><rect class="cls-1" width="29.46" height="17.19"/></clipPath><clipPath id="clip-path-3"><path class="cls-1" d="M12.48,5.29a1.45,1.45,0,0,1-.51,0s0,0,0,0,0,0,0,0h0a1.16,1.16,0,0,0,0,.32,1.19,1.19,0,0,0,.07.23.32.32,0,0,0,.1.13c.12.08.24,0,.3,0a.28.28,0,0,0,.1-.09,1.39,1.39,0,0,0,0-.15l0,0s0-.07,0-.1,0-.07-.06-.07a.34.34,0,0,0,0-.2s0-.06,0-.06h0"/></clipPath><radialGradient id="radial-gradient" cx="-1233.33" cy="378.71" r="0.03" gradientTransform="translate(14179.59 -4974.57) scale(11.49 13.15)" gradientUnits="userSpaceOnUse"><stop offset="0" stop-color="#faf064"/><stop offset="1" stop-color="#d8521f"/></radialGradient><clipPath id="clip-path-5"><path class="cls-1" d="M12.51,5.72l0,0h0c0,.07,0,.11,0,.15s-.11.1-.11.09-.16.11-.29,0l0,0a.19.19,0,0,1-.1.22l-.55.28a.3.3,0,0,0,0,.22s0,0,0,.06a.33.33,0,0,0-.13.2s-.1,0-.1-.11,0-.1,0-.15a.46.46,0,0,0,0-.2s-.07,0-.1-.06,0,0,0,0,0,0,0,0a.3.3,0,0,0,0,.11l-.31.17a.38.38,0,0,1,.05.08,2.66,2.66,0,0,0,.14.5c.1.16.13.11.15.14l.07.06s.13,0,.15,0a.29.29,0,0,1,.11-.14c.07-.06.2-.19.2-.25a1.34,1.34,0,0,1,.07.43,5.25,5.25,0,0,0,.56.06.92.92,0,0,0,.39,0,1.43,1.43,0,0,0,0-.26.76.76,0,0,0,.07.19c0,.06.07.18.15.19a.18.18,0,0,0,.14-.11V7.39h.3l.07,0a.14.14,0,0,0,.1,0c.05,0,.07,0,0,0h0l.09,0h.14s-.09-.08-.14-.11l-.17,0a.9.9,0,0,0-.21,0,.63.63,0,0,0-.2,0s0,0,0,0a.8.8,0,0,0,0-.36.24.24,0,0,1,0-.18c0-.06,0-.25,0-.3a.23.23,0,0,0-.23-.15A.3.3,0,0,1,12.48,6a1.58,1.58,0,0,1,0-.32Z"/></clipPath><radialGradient id="radial-gradient-2" cx="-1294.47" cy="376.35" r="0.03" gradientTransform="translate(67461.46 -13055.57) scale(52.11 34.71)" xlink:href="#radial-gradient"/><clipPath id="clip-path-7"><path class="cls-1" d="M17,5.35a.23.23,0,0,0,0,.2s-.09,0-.07.07a.19.19,0,0,0,.05.1s0,0,0,0a.5.5,0,0,0,0,.13.13.13,0,0,0,.07.08c.07,0,.21.11.33,0s.06-.09.09-.13.11-.19.08-.27,0-.06,0-.1a.73.73,0,0,0,0-.18v0s0,0-.05,0a1.45,1.45,0,0,1-.51,0h0s0,0,0,.06"/></clipPath><radialGradient id="radial-gradient-3" cx="-1250.36" cy="378.72" r="0.03" gradientTransform="translate(14925.06 -4945.15) scale(11.92 13.07)" gradientUnits="userSpaceOnUse"><stop offset="0" stop-color="#882c24"/><stop offset="1" stop-color="#4d0a07"/></radialGradient><clipPath id="clip-path-9"><path class="cls-1" d="M17,5.72c0,.07,0,.22,0,.32s-.09.13-.24.18a.33.33,0,0,0-.28.32s0,.19,0,.25a.31.31,0,0,1,0,.18.45.45,0,0,0,0,.28s0,0,0,0a.58.58,0,0,0-.2,0,.86.86,0,0,0-.21,0l-.16,0c-.06,0-.13.06-.14.11h.14l.09,0h0s0,0,0,0a.16.16,0,0,0,.11,0l.06,0h.3v.23a.18.18,0,0,0,.15.11c.07,0,.11-.13.15-.19l.07-.19a1.61,1.61,0,0,0,0,.26.92.92,0,0,0,.39,0,4.9,4.9,0,0,0,.56-.06,1.34,1.34,0,0,1,.07-.43c0,.06.14.19.2.25a.24.24,0,0,1,.11.14c0,.06.14.05.16,0l.07-.06s0,0,.14-.14a2.22,2.22,0,0,0,.15-.5.38.38,0,0,1,.05-.08l-.32-.17a.18.18,0,0,0,0-.11s.05,0,.06,0a0,0,0,0,0,0,0s-.08,0-.09.06a.46.46,0,0,0,0,.2s0,.08,0,.15-.1.11-.1.11a.44.44,0,0,0-.13-.2,0,0,0,0,1,0-.06.33.33,0,0,0,0-.22l-.54-.28a.19.19,0,0,1-.1-.22l0,0c-.12.07-.28,0-.34,0s0,0-.06-.07a.61.61,0,0,1,0-.13s0,0,0,0h0"/></clipPath><radialGradient id="radial-gradient-4" cx="-1297.65" cy="376.34" r="0.03" gradientTransform="translate(67677.12 -13068.07) scale(52.14 34.74)" xlink:href="#radial-gradient-3"/></defs><g id="Layer_2" data-name="Layer 2"><g id="cá»"><g id="central_ameria" data-name="central ameria"><g class="cls-2"><rect class="cls-3" width="29.46" height="17.19"/><rect class="cls-4" y="1.23" width="29.46" height="14.73"/><g class="cls-5"><path class="cls-6" d="M21.48,8.59a6.75,6.75,0,1,1-6.75-6.75,6.76,6.76,0,0,1,6.75,6.75Z"/><path class="cls-7" d="M14.72,14.27a5.71,5.71,0,1,1,5.7-5.71,5.71,5.71,0,0,1-5.7,5.71Zm0-11.2a5.49,5.49,0,1,0,5.49,5.49,5.49,5.49,0,0,0-5.49-5.49Z"/><path class="cls-8" d="M14.11,2.67c.5-.54,1,.08,1,.38s-.52.94-1,.42c.48.12.63-.41.87-.42-.24,0-.34-.52-.83-.38Z"/><path class="cls-9" d="M14.07,3.47c.48.12.6-.41.84-.41-.14.17-.51.6-.84.41Z"/><path class="cls-9" d="M14.11,2.67c.5-.54,1,.08,1,.38-.41-.72-.54-.61-1-.38Z"/><path class="cls-8" d="M8.84,6.93c-.27-.69.5-.82.76-.68s.62.88,0,1.06c.32-.37-.1-.74,0-.95-.1.21-.62.07-.71.57Z"/><path class="cls-9" d="M9.55,7.31c.32-.37-.11-.71,0-.93.09.2.31.72,0,.93Z"/><path class="cls-9" d="M8.84,6.93c-.27-.69.5-.82.76-.68-.83,0-.78.21-.76.68Z"/><path class="cls-8" d="M20.19,6.24c.7.28.27.93,0,1s-1.07-.14-.75-.76c.06.49.61.43.71.65-.1-.22.37-.51.05-.91Z"/><path class="cls-9" d="M19.43,6.5c.06.49.6.41.69.63-.21-.07-.75-.25-.69-.63Z"/><path class="cls-9" d="M20.19,6.24c.7.28.27.93,0,1,.53-.64.38-.72,0-1Z"/><path class="cls-8" d="M11.2,13.49c-.74-.07-.51-.81-.27-1s1.07-.15.93.53c-.19-.46-.71-.25-.86-.43.15.18-.21.58.2.88Z"/><path class="cls-9" d="M11.86,13c-.19-.46-.69-.23-.84-.42.22,0,.79,0,.84.42Z"/><path class="cls-9" d="M11.2,13.49c-.74-.07-.51-.81-.27-1-.33.76-.16.79.27,1Z"/><path class="cls-8" d="M18.62,13c0,.74-.75.59-.95.37s-.27-1,.42-1c-.43.24-.16.73-.33.9.17-.17.61.14.86-.29Z"/><path class="cls-9" d="M18.09,12.42c-.43.24-.15.71-.32.88,0-.22-.05-.78.32-.88Z"/><path class="cls-9" d="M18.62,13c0,.74-.75.59-.95.37.8.24.81.07.95-.37Z"/><path class="cls-8" d="M9.38,5.52c-.07-.73.71-.65.92-.45s.35,1-.35,1c.42-.27.11-.73.27-.92-.16.19-.62-.1-.84.36Z"/><path class="cls-9" d="M10,6.08c.42-.27.1-.71.26-.89,0,.21.11.77-.26.89Z"/><path class="cls-9" d="M9.38,5.52c-.07-.73.71-.65.92-.45-.81-.17-.82,0-.92.45Z"/><path class="cls-8" d="M10.17,12.43c-.73-.12-.45-.84-.2-1s1.08-.08.89.59c-.15-.46-.68-.29-.82-.49.14.2-.26.57.13.9Z"/><path class="cls-9" d="M10.86,12c-.15-.46-.67-.27-.8-.47.22,0,.78.1.8.47Z"/><path class="cls-9" d="M10.17,12.43c-.73-.12-.45-.84-.2-1-.38.74-.21.78.2,1Z"/><path class="cls-8" d="M16,2.77c.66-.33.87.42.75.69s-.82.69-1.07,0c.4.29.73-.16,1-.08-.23-.08-.13-.61-.64-.65Z"/><path class="cls-9" d="M15.63,3.5c.4.29.7-.17.93-.08-.19.1-.69.37-.93.08Z"/><path class="cls-9" d="M16,2.77c.66-.33.87.42.75.69-.13-.82-.29-.76-.75-.69Z"/><path class="cls-8" d="M17.4,14c-.33.66-.95.19-1-.09s.23-1,.83-.68c-.5,0-.48.57-.71.64.23-.07.47.41.9.13Z"/><path class="cls-9" d="M17.21,13.18c-.5,0-.46.55-.69.63.08-.21.31-.72.69-.63Z"/><path class="cls-9" d="M17.4,14c-.33.66-.95.19-1-.09.6.57.69.43,1,.09Z"/><path class="cls-8" d="M20.64,7.56c.56.48-.06,1-.35,1s-1-.49-.45-1c-.11.48.43.61.44.85,0-.24.52-.35.36-.83Z"/><path class="cls-9" d="M19.84,7.54c-.11.48.42.59.43.83-.17-.14-.61-.49-.43-.83Z"/><path class="cls-9" d="M20.64,7.56c.56.48-.06,1-.35,1,.71-.43.59-.55.35-1Z"/><path class="cls-8" d="M11.23,3.66c.16-.72.87-.4,1-.14s0,1.07-.64.85c.47-.13.33-.67.54-.79-.21.12-.56-.29-.91.08Z"/><path class="cls-9" d="M11.6,4.37c.47-.13.31-.65.52-.77,0,.21-.14.77-.52.77Z"/><path class="cls-9" d="M11.23,3.66c.16-.72.87-.4,1-.14-.71-.42-.77-.26-1,.14Z"/><path class="cls-8" d="M9,9.83c-.65-.35-.15-.94.14-1s1.05.27.65.84c0-.49-.55-.49-.62-.73.07.24-.43.46-.17.89Z"/><path class="cls-9" d="M9.81,9.67c0-.49-.54-.47-.6-.71.19.1.7.35.6.71Z"/><path class="cls-9" d="M9,9.83c-.65-.35-.15-.94.14-1-.6.57-.46.66-.14,1Z"/><path class="cls-8" d="M18.46,4.12c.74-.1.69.67.5.89s-1,.41-1-.29c.29.39.74.07.93.22-.19-.15.07-.63-.4-.82Z"/><path class="cls-9" d="M17.93,4.72c.29.39.72.06.91.21-.22,0-.78.14-.91-.21Z"/><path class="cls-9" d="M18.46,4.12c.74-.1.69.67.5.89.13-.81,0-.81-.5-.89Z"/><path class="cls-8" d="M14.26,14.66c-.68.3-.85-.45-.72-.72s.85-.66,1.07,0c-.39-.3-.74.14-1,.05.22.09.11.61.61.67Z"/><path class="cls-9" d="M14.61,13.94c-.39-.3-.71.14-.94.05.2-.1.71-.35.94-.05Z"/><path class="cls-9" d="M14.26,14.66c-.68.3-.85-.45-.72-.72.09.82.25.77.72.72Z"/><path class="cls-8" d="M20.37,10.54c.31.67-.45.84-.72.72s-.67-.85,0-1.07c-.3.39.14.73.05,1,.09-.23.62-.11.68-.61Z"/><path class="cls-9" d="M19.64,10.19c-.3.39.14.71.05.93-.1-.19-.35-.7-.05-.93Z"/><path class="cls-9" d="M20.37,10.54c.31.67-.45.84-.72.72.82-.1.77-.26.72-.72Z"/><path class="cls-8" d="M8.73,8.36c-.43-.6.28-.91.57-.84s.82.71.21,1.05c.22-.44-.28-.69-.23-.93,0,.24-.59.22-.55.72Z"/><path class="cls-9" d="M9.51,8.57c.22-.44-.28-.67-.23-.91.14.18.48.62.23.91Z"/><path class="cls-9" d="M8.73,8.36c-.43-.6.28-.91.57-.84-.79.25-.71.4-.57.84Z"/><path class="cls-8" d="M12.77,14.16c-.7.25-.82-.51-.68-.77s.9-.6,1.07.07c-.37-.33-.74.09-1,0,.22.11.07.62.57.72Z"/><path class="cls-9" d="M13.16,13.46c-.37-.33-.71.09-.93,0,.2-.09.73-.31.93,0Z"/><path class="cls-9" d="M12.77,14.16c-.7.25-.82-.51-.68-.77,0,.82.21.78.68.77Z"/><path class="cls-8" d="M12.54,3c.42-.62,1-.07,1,.22s-.36,1-.9.57c.49.05.55-.5.78-.54-.23,0-.41-.47-.88-.25Z"/><path class="cls-9" d="M12.64,3.76c.49.05.53-.49.76-.53-.11.18-.41.67-.76.53Z"/><path class="cls-9" d="M12.54,3c.42-.62,1-.07,1,.22-.51-.64-.62-.51-1-.22Z"/><path class="cls-8" d="M19.71,12c.05.73-.73.63-.93.42s-.33-1,.37-1c-.42.26-.13.73-.29.91.16-.18.62.12.85-.33Z"/><path class="cls-9" d="M19.15,11.42c-.42.26-.11.71-.28.89,0-.22-.08-.78.28-.89Z"/><path class="cls-9" d="M19.71,12c.05.73-.73.63-.93.42.8.2.81,0,.93-.42Z"/><path class="cls-8" d="M19.46,5.06c.73.14.43.86.17,1s-1.08.05-.87-.61c.14.47.68.31.81.51-.13-.2.27-.56-.11-.9Z"/><path class="cls-9" d="M18.76,5.45c.14.47.66.29.79.49-.22,0-.78-.12-.79-.49Z"/><path class="cls-9" d="M19.46,5.06c.73.14.43.86.17,1,.41-.72.24-.77-.17-1Z"/><path class="cls-8" d="M10.27,4.51c0-.73.77-.58,1-.35s.25,1-.44,1c.43-.23.18-.72.35-.89-.17.17-.61-.16-.87.27Z"/><path class="cls-9" d="M10.79,5.13c.43-.23.16-.7.34-.87,0,.22,0,.79-.34.87Z"/><path class="cls-9" d="M10.27,4.51c0-.73.77-.58,1-.35-.79-.26-.81-.09-1,.35Z"/><path class="cls-8" d="M9.39,11.17c-.66-.33-.18-.94.11-1s1.05.24.67.82c0-.49-.57-.48-.64-.71.07.23-.41.47-.14.9Z"/><path class="cls-9" d="M10.17,11c0-.49-.55-.46-.63-.69.21.09.72.33.63.69Z"/><path class="cls-9" d="M9.39,11.17c-.66-.33-.18-.94.11-1-.59.59-.44.68-.11,1Z"/><path class="cls-8" d="M17.33,3.31c.7-.26.82.5.68.76s-.89.61-1.07-.06c.37.32.74-.1,1,0-.22-.11-.07-.62-.57-.71Z"/><path class="cls-9" d="M16.94,4c.37.32.72-.1.94,0-.2.09-.73.31-.94,0Z"/><path class="cls-9" d="M17.33,3.31c.7-.26.82.5.68.76,0-.83-.21-.78-.68-.76Z"/><path class="cls-8" d="M15.7,14.5c-.6.44-.93-.26-.86-.55s.69-.83,1-.23c-.44-.21-.68.29-.92.25.24,0,.23.58.74.53Z"/><path class="cls-9" d="M15.88,13.72c-.44-.21-.66.29-.9.25.17-.14.61-.5.9-.25Z"/><path class="cls-9" d="M15.7,14.5c-.6.44-.93-.26-.86-.55.27.78.41.7.86.55Z"/><path class="cls-8" d="M20.6,8.92c.51.54-.15.95-.45.91s-.91-.58-.35-1c-.16.46.37.65.36.89,0-.24.55-.3.44-.8Z"/><path class="cls-9" d="M19.8,8.83c-.16.46.37.62.35.86-.15-.15-.56-.55-.35-.86Z"/><path class="cls-9" d="M20.6,8.92c.51.54-.15.95-.45.91.75-.35.65-.48.45-.91Z"/><path class="cls-10" d="M11.07,10.91s0-.17,0-.24.17.18.25.22.54-.18.54-.18l.12-.22,0,.18s.13-.15.17-.21,0,.11,0,.17.12.08.1.19.15-.08.15-.08l.43,0a1.69,1.69,0,0,1,.19-.41l0,.16.17-.18a2.35,2.35,0,0,0,1.48,1.41,2.39,2.39,0,0,0,1.44-1.31l.25.24.22-.07a2.28,2.28,0,0,1,.44.14.62.62,0,0,1,.12.06s0-.13,0-.13.2,0,.18.15.05-.1.09-.12.13.1.15.13a4.93,4.93,0,0,0,.52.13.22.22,0,0,1,.05.1h.17a.11.11,0,0,0-.06.09.14.14,0,0,1-.08.13c-.06,0,0,0,.07.05s0,.11-.15.16c0,0,0,.09,0,.11s-.13,0-.15,0a.39.39,0,0,0,0,.13l-.18-.07s-.06.06,0,.09-.26,0-.3-.13-.1,0-.08.06a1,1,0,0,0-.23-.12l0,.06a.62.62,0,0,0-.16-.07s0,.06,0,.06l-.17-.11-.07.11a1.19,1.19,0,0,1-.17-.1s0,.06-.08.07a.15.15,0,0,0-.13-.07.37.37,0,0,0,0,.12l-.25,0s0,0,0,.08a1,1,0,0,1-.2-.07v.07a.41.41,0,0,1-.16,0l-.08.12H15.5l0,.1s-.24-.07-.26,0a.13.13,0,0,0,0,.1s-.19,0-.21,0V12s-.24-.07-.3,0a.46.46,0,0,1-.12.1s0,0,0,0l-.07-.1s-.09,0-.14,0-.19.07-.24,0,0-.06,0-.08a.1.1,0,0,0-.13,0l-.08-.11c0-.08-.11,0-.11,0V11.7h-.13a.12.12,0,0,1-.09-.08.83.83,0,0,1-.23,0l0,0a1,1,0,0,1-.33,0c-.06,0,.06-.09.06-.09l-.3-.07s-.31,0-.35,0-.06-.06-.06-.06l-.12.07s0-.11,0-.12-.18,0-.19.09a.34.34,0,0,1,0-.1.92.92,0,0,1-.12.16s0-.07,0-.07-.11.14-.15.15v-.1s-.3.16-.38.14,0-.06,0-.08h-.18l-.15,0c-.05,0,.06-.06.14,0s-.21-.07-.27,0,0-.08.08-.11-.14-.14-.23-.13a.29.29,0,0,1,.17,0s-.08-.23-.14-.26a.69.69,0,0,1,.26,0Z"/><path class="cls-11" d="M14.57,12h0s0,0,0,0l-.07-.09a.23.23,0,0,1-.1,0h0l-.1,0-.11,0,0,0s0-.06,0-.07a.08.08,0,0,0-.12,0h0s0,0-.09-.11-.09,0-.1,0l0-.09h-.12a.11.11,0,0,1-.1-.08.81.81,0,0,1-.22,0l0-.05a.83.83,0,0,1-.32,0s0-.09.06-.11-.25,0-.3,0a1,1,0,0,0-.23,0l-.12,0s-.06-.05-.07-.06a.29.29,0,0,1-.11.07s0-.1,0-.13-.16.07-.17.1a.19.19,0,0,1-.06-.1.54.54,0,0,1-.1.16s0,0,0-.06-.09.13-.13.14v-.11a.82.82,0,0,1-.36.15s0-.07,0-.09H11.2l-.08,0-.07,0s0,0,.09-.06-.18,0-.21,0,0,0,0-.06a.12.12,0,0,1,.08-.06s-.13-.11-.21-.11h0c.09,0,.22.11.23.11s-.07,0-.08.07a.1.1,0,0,0,0,0H11a.58.58,0,0,1,.22.05h0a.18.18,0,0,0-.11,0h.07l.09,0h.18a.51.51,0,0,0,0,.09,1.19,1.19,0,0,0,.38-.15v.11l.13-.15v.07a.77.77,0,0,0,.13-.17l.05.11c0-.05.15-.09.18-.1a.19.19,0,0,0,0,.13.55.55,0,0,0,.1-.08s0,.06.07.06h.11l.23,0,.32.07s-.08.07-.08.09h.05a2.2,2.2,0,0,0,.29,0l0,.06.22,0s0,.06.09.07h.13l0,.09s.08-.06.11,0l.08.11s.08-.05.12,0,.05.09.05.09l.12,0,.1,0h0a.23.23,0,0,0,.1,0l.09.11,0,0h0a.46.46,0,0,0,.12-.09c.06,0,.29,0,.3,0v-.07l.21,0s0-.06,0-.09.26,0,.27,0v-.09h.13l.08-.11a.51.51,0,0,0,.17,0v-.06l.21.06s0-.06,0-.07a2.12,2.12,0,0,1,.28,0s0-.11,0-.12a.17.17,0,0,1,.15.06v0s0,0,0,0l.2.1.05-.1.17.09a0,0,0,0,1,0,0,.34.34,0,0,1,.18.07l0-.06a.8.8,0,0,1,.23.11,1,1,0,0,0-.22-.1l0,.06a1,1,0,0,0-.17-.07,0,0,0,0,0,0,0h0l-.16-.08-.06.1a.53.53,0,0,1-.19-.09s0,0,0,0,0,0,0,0a.16.16,0,0,0-.12-.07s0,.09,0,.11a1.6,1.6,0,0,1-.27,0s0,0,0,.07a.52.52,0,0,1-.21-.06v.06a.29.29,0,0,1-.18,0l-.07.11H15.5l0,.09s-.15,0-.22,0a.07.07,0,0,0,0,.09c-.06,0-.21,0-.22,0V12a1.7,1.7,0,0,0-.26-.05h0a.58.58,0,0,1-.13.1Zm.17-.25a2.37,2.37,0,0,1-1.49-1.42l-.17.19L13,10.37a1.72,1.72,0,0,0-.17.41l-.44,0s-.1.11-.14.11a0,0,0,0,1,0,0c0-.06,0-.09-.06-.12s0,0,0-.08a.44.44,0,0,0,.05-.15s0,.13,0,.16,0,0,0,.06a.13.13,0,0,1,.07.13s.09,0,.13-.09l.44,0a1.39,1.39,0,0,1,.18-.41l.05.17.17-.18a2.38,2.38,0,0,0,1.49,1.4,2.41,2.41,0,0,0,1.43-1.31l.25.25.21-.08h0a4.12,4.12,0,0,1,.45.14l.11.06s0-.06,0-.11.19,0,.2.12a.21.21,0,0,1,.08-.11c.05,0,.14.11.16.14a1,1,0,0,0,.26.06,1.65,1.65,0,0,1,.26.07.22.22,0,0,1,.05.1l.16,0s-.05,0-.05.1a.14.14,0,0,1-.09.13s0,0,.07,0,0,0,0,0-.07.11-.18.15h0s0,.07,0,.1h0q-.11,0-.12,0a1,1,0,0,0,0,.13.67.67,0,0,1-.19-.06s0,0,0,.05h0s0-.06,0-.06l.19.06s0-.12,0-.13a.23.23,0,0,0,.13,0h0c-.06,0-.05-.08,0-.11s.18-.11.18-.14-.13,0-.13,0h0l0,0a.14.14,0,0,0,.08-.12.1.1,0,0,1,.06-.1l-.17,0a.3.3,0,0,0-.05-.1,1.11,1.11,0,0,0-.26-.06c-.18,0-.26,0-.27-.07s-.1-.13-.13-.13-.07.09-.09.12h0v0c0-.09-.19-.13-.2-.13a.17.17,0,0,1,0,.12l-.14-.05a3.47,3.47,0,0,0-.43-.15,1.06,1.06,0,0,1-.23.08l-.25-.25a2.37,2.37,0,0,1-1.43,1.32Zm3,0a.35.35,0,0,1-.26-.11l-.06,0h0s.06-.05.06-.05.21.1.28.11Zm-6.95-.51s.1-.07.17,0-.11-.23-.15-.25.21,0,.26,0a.28.28,0,0,0,0-.11.57.57,0,0,1,0-.13s.09,0,.14.1.09.11.12.12h0a2.21,2.21,0,0,0,.54-.18l.11-.21.07.17a1.72,1.72,0,0,1,.16-.2h0l-.17.21L12,10.5l-.1.21a2.24,2.24,0,0,1-.53.19.36.36,0,0,1-.15-.13.59.59,0,0,0-.1-.11.29.29,0,0,0,0,.13.26.26,0,0,1,0,.13H11l-.18,0c.06,0,.14.23.15.25h-.05a.2.2,0,0,0-.12,0Z"/><path class="cls-12" d="M13.43,10.72a2.35,2.35,0,0,1-.21-.46l1.51-1.34,1.52,1.33a2.05,2.05,0,0,1-.22.48h0l-.12,0a.19.19,0,0,1-.09,0,.11.11,0,0,1-.09,0,.22.22,0,0,1-.14,0,.12.12,0,0,1-.09,0,.2.2,0,0,1-.12,0l-.08,0a.11.11,0,0,1-.1,0l-.11,0a.39.39,0,0,1-.14,0,.11.11,0,0,1-.1,0,.43.43,0,0,1-.11,0l-.13,0-.15,0a.72.72,0,0,1-.14-.05l-.15,0a.39.39,0,0,1-.12,0,.25.25,0,0,1-.12,0l-.09,0a.34.34,0,0,1-.15,0,.36.36,0,0,1-.12-.05s0,0-.12.05Z"/><path d="M15.08,10.47a.47.47,0,0,0,.11-.32.25.25,0,0,0-.13-.18v0a.31.31,0,0,1,.14.2.43.43,0,0,1-.13.32Z"/><path class="cls-13" d="M13.69,10.4a1.76,1.76,0,0,0,.31.13,2.13,2.13,0,0,0,.74.1c.66,0,.65-.11.65-.11l-.23.23A6.62,6.62,0,0,1,14,10.69a2,2,0,0,1-.35-.29Z"/><path d="M15.07,10.76a5.07,5.07,0,0,1-1-.06,1.65,1.65,0,0,1-.36-.29,1.69,1.69,0,0,1,.32.11,2.17,2.17,0,0,0,.74.1,1.63,1.63,0,0,0,.61-.07l0,0s0,0,0,.05h0l-.19.21Zm-1.39-.35a4.48,4.48,0,0,0,.37.28,6.15,6.15,0,0,0,1,.06h.09l.19-.19c-.06,0-.22.09-.61.09a2.13,2.13,0,0,1-.74-.1,2.31,2.31,0,0,1-.32-.13Z"/><polygon points="14.11 10.56 14.14 10.01 13.72 10.43 13.71 10.41 14.14 10 14.11 10.56 14.11 10.56"/><polygon points="14.34 10.61 14.32 10.61 14.32 9.69 14.34 10.61 14.34 10.61"/><polygon points="15.08 10.61 15.06 10.61 15.06 9.63 15.08 10.61 15.08 10.61"/><polygon points="14.7 10.63 14.69 10.63 14.69 9.57 14.7 10.63 14.7 10.63"/><polygon class="cls-14" points="14.33 9.73 14.13 9.8 14.33 9.82 14.33 9.73"/><path d="M14.34,9.83l-.21,0,.2-.08v.1Zm0-.09-.19.07h.19V9.74Z"/><polygon class="cls-14" points="14.7 9.59 14.49 9.67 14.7 9.68 14.7 9.59 14.7 9.59"/><path d="M14.7,9.69h-.21l.2-.1v.11Zm0-.1-.2.09h.2V9.59Z"/><polygon class="cls-14" points="15.07 9.65 14.86 9.73 15.07 9.73 15.07 9.65"/><path d="M15.08,9.74h-.22l.21-.09v.1Zm0-.09-.19.08h.19V9.65Z"/><path class="cls-6" d="M13.78,10.37l.37-.36,0,.21s-.19.12-.19.21l-.16-.06Z"/><path d="M14,10.45l-.17-.08.36-.37v.22s-.19.13-.19.21v0Zm.19-.44-.35.36.15.05c0-.09.18-.2.19-.21V10Z"/><path class="cls-6" d="M14,10.44a.37.37,0,0,1,.14-.17v.22L14,10.44Z"/><path d="M14.12,10.51,14,10.45a.24.24,0,0,1,.14-.19v.24Z"/><path class="cls-6" d="M14.51,9.82a1,1,0,0,1,.26,0,.54.54,0,0,0,0,.18s-.21-.05-.29,0a.29.29,0,0,1,0-.21Z"/><path d="M14.47,10h0s0-.15,0-.22a1.13,1.13,0,0,1,.27,0c0,.07,0,.16,0,.18s-.08,0-.15,0a.27.27,0,0,0-.15,0Zm.18-.22h-.14a.3.3,0,0,0,0,.18.61.61,0,0,1,.29,0s0-.16,0-.17Z"/><path class="cls-6" d="M14.19,9.86a1,1,0,0,1,.26,0s0,.17,0,.19-.17-.09-.25,0-.06-.12,0-.18Z"/><path d="M14.46,10.08l0,0s-.18-.08-.25,0a.17.17,0,0,1,0-.19,1.13,1.13,0,0,1,.27,0,1.29,1.29,0,0,0,0,.2v0ZM14.28,10a.3.3,0,0,1,.15,0,.92.92,0,0,1,0-.18h-.25c0,.05,0,.16,0,.16s0,0,.08,0Z"/><path class="cls-6" d="M14.18,10.05a2,2,0,0,1,.26,0,.54.54,0,0,0,0,.18s-.2,0-.28,0,0-.14,0-.21Z"/><path d="M14.15,10.28v0s0-.14,0-.21a.75.75,0,0,1,.27,0,.87.87,0,0,0,0,.18h-.14a.18.18,0,0,0-.14,0Zm.17-.23h-.14s0,.15,0,.19.27,0,.27,0,0-.15,0-.17Z"/><path class="cls-6" d="M14.48,10a1.47,1.47,0,0,1,.33,0,.23.23,0,0,0,0,.2s-.24-.06-.32,0-.08-.14,0-.2Z"/><path d="M14.49,10.25h0s-.08-.15,0-.22a1.57,1.57,0,0,1,.34,0,.27.27,0,0,0,0,.21,1.92,1.92,0,0,1-.2,0,.23.23,0,0,0-.13,0Zm.22-.23-.23,0s0,.15,0,.18.31,0,.32,0,0-.19,0-.2Z"/><path class="cls-6" d="M14.16,10.26a2.09,2.09,0,0,1,.29,0,.9.9,0,0,0,0,.24s-.23,0-.28,0-.08-.19,0-.28Z"/><path d="M14.16,10.56h0s-.08-.2,0-.3a2.12,2.12,0,0,1,.3,0,2,2,0,0,0,0,.25,1.49,1.49,0,0,1-.17,0c-.06,0-.1,0-.11,0Zm0-.29c-.06.07,0,.21,0,.26s.28,0,.28,0,0-.19,0-.23Z"/><path class="cls-6" d="M14.49,10.26a2.15,2.15,0,0,1,.37,0,.39.39,0,0,0,0,.3s-.32-.09-.37,0-.08-.19,0-.28Z"/><path d="M14.88,10.58h0s-.33-.08-.36,0a.29.29,0,0,1,0-.3,2.3,2.3,0,0,1,.38,0,.46.46,0,0,0,0,.31v0Zm-.29-.08a1.33,1.33,0,0,1,.26.05.42.42,0,0,1,0-.29h-.36c-.07.08,0,.27,0,.27s0,0,.09,0Z"/><path class="cls-6" d="M14.87,9.82a1.08,1.08,0,0,1,.27,0,.54.54,0,0,0,0,.18s-.21-.05-.29,0a.33.33,0,0,1,0-.21Z"/><path d="M14.84,10h0s0-.15,0-.22a1.08,1.08,0,0,1,.27,0,1,1,0,0,0,0,.18s-.07,0-.14,0a.27.27,0,0,0-.15,0ZM15,9.82h-.15a.39.39,0,0,0,0,.18c.07,0,.28,0,.29,0s0-.16,0-.17Z"/><path class="cls-6" d="M14.87,10a1.08,1.08,0,0,1,.27,0s0,.15,0,.17-.21,0-.29,0,0-.14,0-.2Z"/><path d="M14.84,10.25v0a.29.29,0,0,1,0-.21,1.08,1.08,0,0,1,.27,0,1.05,1.05,0,0,0,0,.18.59.59,0,0,1-.14,0,.21.21,0,0,0-.15,0ZM15,10h-.15s0,.14,0,.18a.5.5,0,0,1,.29,0s0-.16,0-.17Z"/><path class="cls-6" d="M14.89,10.24a1.08,1.08,0,0,1,.27,0,1.06,1.06,0,0,0,0,.26s-.18-.08-.26,0-.05-.18,0-.25Z"/><path d="M15.16,10.53l0,0s-.18-.06-.24,0a.32.32,0,0,1,0-.26.71.71,0,0,1,.28,0,1.87,1.87,0,0,0,0,.27l0,0ZM15,10.24h-.15c-.05.06,0,.24,0,.24s.19,0,.23,0a1.71,1.71,0,0,1,0-.25Z"/><path class="cls-14" d="M15.19,10.09s.12,0,.12,0a.41.41,0,0,1,0,.23l-.11,0a.56.56,0,0,0,0-.17Z"/><path d="M15.32,10.29l-.12,0s0-.1,0-.18a.16.16,0,0,1,.13,0,.35.35,0,0,1,0,.24Zm0-.23a.2.2,0,0,0-.11,0,.62.62,0,0,1,0,.18h.1a.46.46,0,0,0,0-.21Z"/><path class="cls-6" d="M15.2,10.26s.05.18.11.2l-.08.1a.28.28,0,0,1-.11-.16.31.31,0,0,0,.08-.14Z"/><path d="M15.23,10.57h0s-.11-.08-.12-.16a.63.63,0,0,0,.08-.15c0,.05.08.18.13.19l-.09.12Zm0-.31a.23.23,0,0,1-.07.15.42.42,0,0,0,.11.14l.08-.1c-.07,0-.11-.18-.12-.19Z"/><path class="cls-15" d="M16,10.74a2.38,2.38,0,0,1-1.29,1,2.47,2.47,0,0,1-1.3-1h0c.1,0,.12-.05.12-.05a.36.36,0,0,0,.12.05.34.34,0,0,0,.15,0l.09,0a.25.25,0,0,0,.12,0,.39.39,0,0,0,.12,0l.15,0a.72.72,0,0,0,.14.05.75.75,0,0,0,.15,0l.13.05a.3.3,0,0,0,.1-.05.14.14,0,0,0,.11.05.39.39,0,0,0,.14,0l.11,0a.11.11,0,0,0,.1,0,.17.17,0,0,0,.08,0c.05,0,.12-.05.12-.05a.11.11,0,0,0,.09.05.22.22,0,0,0,.14,0,.11.11,0,0,0,.09,0s.09-.05.09-.05l.12,0Z"/><path d="M15.78,10.86h0a.14.14,0,0,1-.1-.06.15.15,0,0,1-.12,0,.12.12,0,0,1-.09,0,.09.09,0,0,1-.1,0,.2.2,0,0,1-.11,0l-.15,0c-.06,0-.12-.06-.12-.06l-.16,0a.39.39,0,0,1-.13,0,.15.15,0,0,1-.1,0,1,1,0,0,1-.16,0l-.15,0a.39.39,0,0,1-.12,0,.61.61,0,0,1-.14,0l-.09,0a.36.36,0,0,1-.16,0l-.13-.05s0,0-.12.05a.28.28,0,0,0,.12-.07.42.42,0,0,0,.14.05.38.38,0,0,0,.15,0l.09,0a.32.32,0,0,0,.14,0l.12,0,.15,0a1,1,0,0,0,.16.05.34.34,0,0,0,.1,0l.13,0,.17,0s0,.06.11.05a.5.5,0,0,0,.15-.05.28.28,0,0,0,.11.05.11.11,0,0,0,.1,0h0l.09,0a.33.33,0,0,0,.12-.05.27.27,0,0,0,.11.05.24.24,0,0,0,.13,0s0,0,.06,0h0a.07.07,0,0,1-.07,0,.14.14,0,0,1-.11,0Z"/><path class="cls-6" d="M14.73,7.39V8.92l-1.51,1.34a2.9,2.9,0,0,1-.16-1V7.39Z"/><path d="M13.21,10.29v0a2.92,2.92,0,0,1-.16-1V7.39h1.68l0,1.54-1.54,1.37Zm1.51-2.9H13.06V9.29a2.75,2.75,0,0,0,.16,1l1.5-1.32V7.39Z"/><path class="cls-16" d="M14.73,7.39V8.92l1.51,1.34a2.9,2.9,0,0,0,.16-1V7.39Z"/><path d="M16.25,10.29,14.73,8.93V7.39H16.4V9.29a3.14,3.14,0,0,1-.15,1v0Zm.14-2.9H14.73l0,1.52,1.49,1.32a2.91,2.91,0,0,0,.15-1V7.39Z"/><path class="cls-17" d="M13.19,7.81l1,1a.37.37,0,0,1,.08.23s.1.09.11.1.06-.07.05-.08l0-.05s0,0,.08.05.06,0,.05-.08a.18.18,0,0,0-.08-.09s-.11,0-.13-.06a1.63,1.63,0,0,0-.14-.18l-.72-1.07a.17.17,0,0,0-.23,0,.19.19,0,0,0,0,.24Z"/><path d="M14.35,9.18h0c-.08,0-.12-.07-.12-.1a.32.32,0,0,0-.08-.22l-1-1a.22.22,0,0,1,0-.15.16.16,0,0,1,0-.11.2.2,0,0,1,.24,0l.72,1.07a1.89,1.89,0,0,1,.14.19s.08,0,.12.06.07,0,.08.09a.09.09,0,0,1,0,.07l0,0a.14.14,0,0,1-.07,0v0s0,.05,0,.07l0,0ZM13.28,7.55a.11.11,0,0,0-.08,0,.11.11,0,0,0,0,.09.2.2,0,0,0,0,.14l1,1a.32.32,0,0,1,.09.23s0,0,.11.09h0v0l0-.06,0-.05h0l0,0a.07.07,0,0,0,0-.07.13.13,0,0,0-.08-.08s-.11,0-.13-.06a1,1,0,0,0-.14-.19l-.71-1.07a.2.2,0,0,0-.14-.06Z"/><polygon points="14.17 8.81 13.22 7.64 13.23 7.63 14.17 8.81 14.17 8.81"/><path class="cls-13" d="M13.23,9.11,14.16,8a.59.59,0,0,0,.12.12l-.91,1.1s-.08,0-.14-.11Z"/><path d="M13.37,9.23a.18.18,0,0,1-.15-.11L14.15,8s.06.07.14.11l-.92,1.12ZM14.15,8l-.92,1.11c.06.09.12.09.14.09h0l.91-1.1a.31.31,0,0,1-.13-.1Z"/><path class="cls-6" d="M14.07,7.87a.2.2,0,0,1,.17-.2.59.59,0,0,1,.35.3s-.07.2-.21.2a.55.55,0,0,1-.31-.3Z"/><path d="M14.39,8.17h0a.53.53,0,0,1-.32-.29.22.22,0,0,1,.18-.22.61.61,0,0,1,.36.3s-.08.21-.21.21Zm-.15-.5a.23.23,0,0,0-.17.2.53.53,0,0,0,.32.29h0c.12,0,.19-.2.19-.2a.63.63,0,0,0-.34-.29Z"/><path class="cls-18" d="M14.38,8.14l-.05,0a.57.57,0,0,1-.23-.25l.05,0a.41.41,0,0,0,.17.2s0,0,0-.07.09,0,.17,0V8a.18.18,0,0,0-.13,0,.1.1,0,0,0,0,.08v.06Z"/><path class="cls-13" d="M16.32,9.14a.2.2,0,0,1-.09,0c-.06-.07-.14-.18-.23-.27l-.91-1.12.1-.09.82,1s.2.21.33.39c0,0,0,.06,0,.09Z"/><path d="M16.22,9.19l-.06-.08L16,8.92,15.08,7.8l.1-.11.83,1a3.23,3.23,0,0,1,.34.38.12.12,0,0,1,0,.11l-.1,0Zm-1-1.48-.08.09L16,8.91c.06.06.11.13.16.19l.06.07.09,0s0-.08,0-.08A3.44,3.44,0,0,0,16,8.67l-.82-1Z"/><path class="cls-6" d="M15.4,7.93l-.15-.17s-.11,0-.13.07a.35.35,0,0,1-.29.15.63.63,0,0,0,.31.38s.09-.25.17-.3.1-.07.09-.13Z"/><path d="M15.14,8.37h0A.64.64,0,0,1,14.82,8a.45.45,0,0,0,.3-.15c0-.06.13-.08.13-.08l.16.18c0,.07-.09.13-.09.14s-.18.29-.18.29ZM14.83,8a.71.71,0,0,0,.3.36.8.8,0,0,1,.18-.3h0s.09-.06.08-.11l-.14-.17s-.1,0-.12.07a.42.42,0,0,1-.3.15Z"/><path class="cls-18" d="M15.3,8s-.13-.13-.17-.16l0,0L15.3,8Z"/><path class="cls-1" d="M15.19,7.94a.21.21,0,0,1,0,.11Z"/><path class="cls-1" d="M15.21,8a.13.13,0,0,1-.05.1Z"/><path class="cls-1" d="M15.23,8s0,0,0,.06Z"/><path class="cls-1" d="M15.24,8s0,0,0,0Z"/><path class="cls-18" d="M14.94,8.05l.16-.13,0,0a.7.7,0,0,1-.18.11Z"/><path class="cls-18" d="M15,8.06a.31.31,0,0,1,.1-.1l0,0a.41.41,0,0,1-.12.08Z"/><path class="cls-1" d="M15.07,8,15,8.07Z"/><path class="cls-1" d="M15.05,8.05,15,8.1Z"/><path class="cls-6" d="M15,8.73l1-1L16.3,8s-.05,0-.07,0,0,.07,0,.07-.05,0-.07,0,0,.08,0,.08,0,0-.06,0,0,.08,0,.08-.06,0-.07,0,0,.07,0,.07-.06,0-.09,0,0,.07,0,.07-.07,0-.1,0a.07.07,0,0,0,0,.08s-.05,0-.07,0,0,.08,0,.08a.07.07,0,0,0-.08,0,0,0,0,0,0,0,.07s-.05,0-.07,0,0,.08,0,.08,0,0-.07,0,0,.07,0,.07a.06.06,0,0,0-.08,0,.07.07,0,0,0,0,.08s-.06,0-.08,0,0,.06,0,.06a.11.11,0,0,0-.07,0s0,.08,0,.08,0-.05-.06,0,0,.08,0,.08,0,0-.06,0,0,.07,0,.07-.07,0,0,0L15,8.73Z"/><path d="M15.31,9l0,0c-.07,0-.07,0-.06,0s-.13-.14-.21-.23l1-1,.27.27s0,0-.06,0,0,0,0,.06h-.05s0,0,0,.06,0,0-.06,0a.11.11,0,0,0,0,.08h-.06s0,0,0,.07H16v0s0,0,0,0h-.05l0,0a.05.05,0,0,0,0,.07h-.06s0,0,0,.07h-.05l0,0s0,0,0,.06,0,0-.06,0,0,.05,0,.08,0,0,0,0,0,.07,0,.07,0,0,0,0,0,.08,0,.08h-.06a0,0,0,0,0,0,.07H15.4s0,0,0,.07l-.05,0s0,.06,0,.08l-.05,0s0,.06,0,.07l0,0Zm-.07,0h0a0,0,0,0,1,0-.06h.05a.09.09,0,0,1,0-.07h.06s0,0,0-.07h.06a0,0,0,0,1,0-.06h.07s0,0,0-.07a.06.06,0,0,1,.07,0,0,0,0,0,1,0-.06s.06,0,.08,0a.06.06,0,0,1,0-.08h.06a0,0,0,0,1,0-.06s.08,0,.09,0a.06.06,0,0,1,0-.08h.06a.08.08,0,0,1,0-.08.1.1,0,0,1,.09,0,0,0,0,0,1,0,0c.05-.09.09,0,.1,0s0-.06,0-.07h.08s0-.06,0-.08h.06a0,0,0,0,1,0-.07h.07s0,0,0-.07h.08L16,7.71l-1,1c.22.23.22.23.21.24Z"/><path class="cls-18" d="M16,7.79l-.08.08,0,.27s0-.08,0,0,0-.07,0-.06a2.43,2.43,0,0,1,0-.27Z"/><path class="cls-18" d="M15.84,7.94l-.06,0,0,.28s0-.1,0,0V7.94Z"/><path class="cls-18" d="M15.21,8.56l-.05.06v.16s0-.1,0,0v-.2Z"/><path class="cls-13" d="M15,8.71s0,0-.07,0-.06,0-.06,0,0,0,0,0a.29.29,0,0,1,.18,0L15,8.71Z"/><path d="M14.93,8.75l0,0v0s0,0,0,0a.22.22,0,0,1,.19,0L15,8.72a.12.12,0,0,0-.08,0Zm.12-.12a.23.23,0,0,0-.11,0s0,0,0,0l0,0,0,0,.06,0,.09-.07Z"/><path class="cls-13" d="M16,7.72a.08.08,0,0,1,0-.08s0-.08,0-.06-.08.1,0,.2L16,7.72Z"/><path d="M16,7.79h0a.17.17,0,0,1,0-.15l.05,0h.06s0,0,0,0a.08.08,0,0,0,0,.08L16,7.79Zm0-.21h0a.12.12,0,0,0-.05,0,.19.19,0,0,0,0,.12l0,0a.13.13,0,0,1,0-.08,0,0,0,0,0,0,0Z"/><path class="cls-13" d="M18.76,6.7s.07-.07,0-.1,0-.07-.07-.08a.15.15,0,0,0-.12,0,.3.3,0,0,0-.1,0s-.1.08-.1.1a.11.11,0,0,0,0,.09s0,0,0,0a.08.08,0,0,0,0,.08s0,0,0,0,0,.06,0,.07.05,0,.07,0,0,0,0,0,.05,0,.07,0,0-.06.08,0Z"/><path d="M18.64,6.74h0v0l0,0h0s0,0,.1,0a.11.11,0,0,0,0,0,.06.06,0,0,0,0-.05s0-.06-.06-.07-.05,0-.1,0l-.11-.05s-.1.07-.1.09a.11.11,0,0,0,0,.08l0,0s0,0,0,.07h0s0,0,0,.06h0l0,0s-.05,0-.05,0,0,0,0,0-.06,0-.06-.06h0a.12.12,0,0,1,0-.1s.08-.1.11-.11h0s.1,0,.11,0a.12.12,0,0,1,.11.06h0c.06,0,.08.07.08.07a.06.06,0,0,1,0,.07s0,0,0,0l0,0,0,0h0l0,0Z"/><path d="M18.46,6.57h0a.15.15,0,0,1,.15-.11.15.15,0,0,0-.13.11Z"/><path d="M18.51,6.61h0a.2.2,0,0,1,.15-.09l0,0c-.07,0-.12,0-.15.06l0,0Z"/><path d="M18.61,6.68h0l0,0a.16.16,0,0,1,.12,0l-.11,0-.05,0Z"/><path class="cls-13" d="M15.79,4.36s0-.05.06,0,.05.15.05.15l-.06,0s0,0-.05-.15Z"/><path d="M15.82,4.54v0s0,0,0-.15a0,0,0,0,1,0,0,.22.22,0,0,1,.08.17l-.09,0Zm0-.2a0,0,0,0,0,0,0,.24.24,0,0,1,.06.14l0,0a.33.33,0,0,0,0-.14Z"/><path class="cls-13" d="M15.48,5.46s0,0,0-.13l.06,0a.26.26,0,0,1,0,.15Z"/><path d="M15.52,5.46h0s0,0,0-.12l.06,0a.17.17,0,0,1,0,.15Z"/><path class="cls-19" d="M15.89,4.31a.15.15,0,0,1-.08,0l.08,0Z"/><path class="cls-1" d="M15.89,4.31a.15.15,0,0,1-.08,0Z"/><polygon class="cls-13" points="16.44 5.26 16.31 5.34 16.38 5.38 16.54 5.28 16.44 5.26 16.44 5.26"/><path d="M16.38,5.38l-.07,0,.13-.09h.1l-.16.11Zm.06-.11-.12.08.06,0,.15-.1Z"/><path class="cls-13" d="M14.66,5.78a.6.6,0,0,0-.06.11s-.07.06-.07.11a.17.17,0,0,0,0,.12,1.08,1.08,0,0,1,.07.5.53.53,0,0,0,0,.29s.06.11.08.11,0,0,.05-.06a4.18,4.18,0,0,0,0-1,.87.87,0,0,0-.1-.3.47.47,0,0,0,0-.09,1.12,1.12,0,0,1-.11-.5s-.17,0-.32-.29c-.08-.17-.19-.15-.32-.21l.06,0a.52.52,0,0,0,.17.06s0-.11,0-.11l.06-.06v.25c0,.11.15.26.24.31s.13-.09.12-.2a1.11,1.11,0,0,1,0-.27l.07.05a.29.29,0,0,0,0,.08s0,0,.08-.06h0l-.08.14a.92.92,0,0,0,0,.29c0,.07,0,.22,0,.27a.82.82,0,0,0,.12.27l.06.12a.7.7,0,0,1,.06.17.78.78,0,0,1,.06.25s0,.17,0,.25.08,0,.16,0a.3.3,0,0,0,.08-.21s.07-.06.06,0a.08.08,0,0,0,0,.07c-.05.12,0,.11,0,.11a1.31,1.31,0,0,0,.23-.15s.13,0,.12,0-.05.07-.05.07l.12,0-.24.14a2.26,2.26,0,0,1-.31.15c-.08,0-.23.11-.24.19s0,.3,0,.37,0,.38,0,.38h-.37s.07-.27,0-.34a4.19,4.19,0,0,0-.36-.38c-.11-.07.07,0,.07,0V6.57l.17.21a.42.42,0,0,0,0-.62c-.09-.11-.18-.28-.26-.3a.32.32,0,0,0-.24,0,.57.57,0,0,1-.59-.17l.12,0,.09,0s0,.14.23.14.3,0,.28-.25l.07,0,.06.06a.45.45,0,0,0,0,.19s.11.09.19.15l.07,0s0,0,.09,0,0-.07.11-.12a.33.33,0,0,0,0-.06l0,.1Z"/><path d="M14.88,7.4h-.37s.06-.28,0-.35L14.41,7a2.27,2.27,0,0,0-.26-.27s-.05,0,0,0a.35.35,0,0,1,.12,0l0-.07.19.2a.42.42,0,0,0,0-.6l-.09-.12c-.06-.09-.12-.17-.17-.18a.33.33,0,0,0-.24,0l-.16,0a.5.5,0,0,1-.43-.2l.21-.06s0,0,0,.07.08.06.21.06.21,0,.25,0,0-.1,0-.2l.08,0,.07,0a.5.5,0,0,0,0,.19s.06.07.11.1l.07,0,.07,0a.15.15,0,0,0,.08-.05l0,0,.06-.07,0-.05s0,0,0-.06l0-.09a.79.79,0,0,1-.1-.38,1.61,1.61,0,0,0,.11.38l0,.09a.1.1,0,0,0,0,0l0,.07a.62.62,0,0,1,.07.24,4.16,4.16,0,0,1,0,1s0,.06-.06.07h0s-.08-.1-.09-.11a.59.59,0,0,1,0-.31.9.9,0,0,0-.07-.48.31.31,0,0,1,0-.13s0-.06.05-.09l0,0,0,0a.09.09,0,0,1,0-.07s0,0,0,0h0l0,0,0,0-.06.07,0,.06s-.05,0-.08,0-.05,0-.09,0l-.07,0a.33.33,0,0,1-.12-.11.45.45,0,0,1,0-.19l-.05,0-.07,0c0,.1,0,.17,0,.2s-.12,0-.26,0a.29.29,0,0,1-.22-.07.1.1,0,0,1,0-.08l-.08,0-.11,0a.54.54,0,0,0,.42.17l.16,0a.36.36,0,0,1,.23,0c.07,0,.13.1.19.19l.09.12a.44.44,0,0,1,0,.63l-.18-.21v.07s-.08,0-.1,0,0,0,0,0a2.46,2.46,0,0,1,.28.28l.08.1c.08.08,0,.34,0,.36l.36,0s0-.31,0-.37a1.57,1.57,0,0,0,0-.22V6.64c0-.08.14-.15.25-.2l.31-.14.23-.15-.11,0s0,0,0-.06h-.1a.7.7,0,0,1-.23.14h0s0-.06,0-.12a.06.06,0,0,1,0-.07l0,0h0a.32.32,0,0,1-.08.21l0,0c-.08.06-.13.09-.14,0s0-.1,0-.14a.35.35,0,0,0,0-.12.91.91,0,0,0-.05-.25.17.17,0,0,1,0-.05l-.05-.11-.06-.13a1,1,0,0,1-.12-.27s0-.07,0-.11a1.15,1.15,0,0,1,0-.16,1,1,0,0,1,0-.29l.09-.15s0,0,0,0,0,.06-.06.06,0-.09,0-.09l-.08,0s0,.15,0,.26a.21.21,0,0,1,0,.18l-.06,0c-.11,0-.27-.2-.27-.32V4.43l0,.06s0,.07,0,.1a.42.42,0,0,1-.21,0l-.05,0,.1,0a.29.29,0,0,1,.23.17c.11.26.24.29.29.29h0c-.06,0-.19,0-.31-.29a.29.29,0,0,0-.22-.17l-.1,0,.06-.06a.74.74,0,0,0,.18.06.14.14,0,0,0,0-.1l.05-.07,0,.26c0,.1.14.25.24.3l.06,0a.29.29,0,0,0,0-.17,1.13,1.13,0,0,1,0-.27l.09,0a.31.31,0,0,0,0,.08h0l0,0,.05,0,0,0-.08.15a.83.83,0,0,0,0,.28s0,.1,0,.15a1,1,0,0,1,0,.12,1.13,1.13,0,0,0,.11.26l.06.13a.34.34,0,0,1,.05.11l0,.06a.78.78,0,0,1,.06.25s0,.06,0,.12a.57.57,0,0,1,0,.13s0,0,0,0,.05,0,.09-.06l0,0a.36.36,0,0,0,.08-.21.08.08,0,0,1,.06,0,.12.12,0,0,0,0,.08c0,.06,0,.09,0,.1h0a2,2,0,0,0,.23-.14h.07c.05,0,.06,0,.06,0l-.05.07.1,0a.66.66,0,0,1-.21.15,1.91,1.91,0,0,1-.32.16c-.15.06-.24.13-.24.18V7c0,.07,0,.38,0,.38Zm-.22-1.6,0,0a.05.05,0,0,1,0,0s0,0,0,0a.1.1,0,0,0,0,.07.17.17,0,0,0,0,.12,1.26,1.26,0,0,1,.07.5c0,.21,0,.27,0,.29a.23.23,0,0,0,.07.1s0,0,0,0a3.89,3.89,0,0,0,0-1,.85.85,0,0,0,0-.17Z"/><path class="cls-13" d="M14.72,5.6l.07-.11c0-.07.09-.12.14-.2A.37.37,0,0,0,15,5l0,0v.13l.09-.07,0,0a3.21,3.21,0,0,0-.41.57l0-.08Z"/><path d="M14.75,5.69l0-.09a.54.54,0,0,0,.06-.11l.08-.1.08-.11A.38.38,0,0,0,15,5H15v.14s0-.06.08-.07h0l0,0s-.2.23-.4.58ZM15,5a.32.32,0,0,1,0,.28.52.52,0,0,1-.08.11l-.07.09-.06.11,0,.06a3.71,3.71,0,0,1,.4-.56L15,5.17V5l0,0Z"/><path class="cls-13" d="M12.88,4.87a.85.85,0,0,0,.14.22l.06,0S13,4.92,13,4.85l-.07,0Z"/><path d="M13,5.1h0a.59.59,0,0,1-.12-.17.05.05,0,0,0,0,0l.07,0a.92.92,0,0,0,.14.21L13,5.1Zm-.14-.22s0,0,0,0a.48.48,0,0,0,.11.17l.05,0h0a.45.45,0,0,1-.13-.21l-.06,0Z"/><path class="cls-13" d="M13.21,4.79s0,.18,0,.24l.06,0a.42.42,0,0,0,0-.19l0,0Z"/><path d="M13.19,5h0a.46.46,0,0,0,0-.24l.07,0a.81.81,0,0,1,0,.2l-.06,0Zm0-.24a.39.39,0,0,1,0,.21h0a.54.54,0,0,0,0-.18l0,0Z"/><path class="cls-13" d="M15.05,4.22a1.49,1.49,0,0,0,0,.41l.07,0a.06.06,0,0,1,0-.07.9.9,0,0,0,.26-.13l0,0-.15.1s-.08,0-.12,0-.08-.08-.05-.22l-.07,0Z"/><path d="M15.08,4.64h0a1.46,1.46,0,0,1,0-.41l.08,0c0,.16,0,.21.06.22l.07,0a.84.84,0,0,0,.18-.11l0,.06a.78.78,0,0,1-.27.14.05.05,0,0,0,0,.06l-.09,0Zm0-.41a2.09,2.09,0,0,0,0,.39l.05,0a.08.08,0,0,1,0-.07.81.81,0,0,0,.25-.12l0,0a.45.45,0,0,1-.14.11l-.1,0c-.06,0-.11-.08-.08-.23l-.06,0Z"/><path class="cls-13" d="M15.79,5.4a2,2,0,0,0,0,.25l.06,0s0-.21,0-.23l-.08,0Z"/><path d="M15.85,5.68l-.07,0a1,1,0,0,1,0-.26l.08,0a.69.69,0,0,0,0,.24Zm-.06-.27a1.85,1.85,0,0,1,0,.24h.05c0-.06,0-.21,0-.23l-.08,0Z"/><path class="cls-13" d="M16.06,5.53s-.07.12-.14.13l.12,0a.29.29,0,0,0,.09-.07l-.07,0Z"/><path d="M15.93,5.67v0h0c.07,0,.13-.12.13-.12l.08,0a.29.29,0,0,1-.09.09l-.11,0Z"/><path class="cls-10" d="M15,5l0,0h.05l.12.09s0,0,0,0l0,.11h0a1,1,0,0,0,0,.11l.06-.06.08.07s.06-.05.08-.05a0,0,0,0,0,0,0h0c-.19-.08-.27-.18-.21-.27s.24-.06.29,0l.67.36s.05,0,0-.06a.11.11,0,0,1,0-.12s.09.09.13.1l.12,0v0s.11.07.11.11.08,0,.05-.07.13.06.14.11l0,0a.27.27,0,0,1,.05-.16A.19.19,0,0,1,17,5.13s0-.06.07-.06A.11.11,0,0,1,17,5,.11.11,0,0,0,17,5L17,4.92a0,0,0,0,1,0,0,.39.39,0,0,0-.14-.08s0-.09-.07-.1h0s-.05-.09-.1-.1a.19.19,0,0,1,.06,0,.13.13,0,0,0-.14,0l.05,0s0,0-.16,0a.08.08,0,0,0,0-.08s-.05,0-.05,0a.17.17,0,0,0-.09,0c-.05,0,0,0,0,0a.22.22,0,0,0-.12,0s0-.08,0-.12-.06,0-.07.06v0s-.07.08-.09.06a.45.45,0,0,1,0-.08l0,.06V4.3a.27.27,0,0,0-.09.12s-.05,0-.05.08,0,0-.07,0,0,0,0,0l0,0v0a.13.13,0,0,0-.08,0l0,0s-.09,0-.09-.06-.08,0-.09,0-.06,0-.06,0a.07.07,0,0,0,0,0s0,0,0,0a.1.1,0,0,0-.05-.06c-.05,0,0,0,0,0s-.06,0,0-.08,0,0,0,.1l0,0,0,0-.06,0s0-.09,0-.09a.08.08,0,0,0-.07.08h0a.23.23,0,0,0-.09,0c-.05,0,0,0,0,0a.19.19,0,0,0-.1,0l0,0s0,0-.08,0,0,0,0,0a.26.26,0,0,0-.09,0s0,0,0,0a.52.52,0,0,0-.14,0s0,.06,0,.06-.07,0-.08.07l.06,0a.07.07,0,0,0,0,0s0,0,0,0-.08,0-.08.09a.1.1,0,0,0,.1,0s0,0,0,0V5s.08,0,.08-.06,0,0,0,0l.08,0L15,5Z"/><path class="cls-20" d="M16.84,5.42v0s-.09-.08-.12-.1a.23.23,0,0,1,.13.08l0,0a.3.3,0,0,1,.05-.17A.27.27,0,0,1,17,5.12a.11.11,0,0,1,.05,0L17,5S17,5,17,5A.22.22,0,0,1,17,4.92l0,0-.13-.06s0-.09-.08-.1l0,0s-.07-.08-.11-.08a.08.08,0,0,1,.06,0,.19.19,0,0,0-.1,0h0l0,0a.46.46,0,0,0-.15,0s0,0-.05-.09,0,0,0,0-.05,0-.1,0,0,0,0,0-.06,0-.1,0h.06a0,0,0,0,1,0,0,.18.18,0,0,1,.13,0s0,0,0,0a.1.1,0,0,1,.05.1s0,0,0,0,.1,0,.1,0h0a.14.14,0,0,1,.11.06l-.06,0s.1.09.1.09h0a.1.1,0,0,1,.06.09c.05,0,.13.07.13.07l0,0L17,5A.07.07,0,0,1,17,5l0,.05s-.05,0-.06.07a.21.21,0,0,0-.08.06.3.3,0,0,0,0,.16l-.05.06Zm-.18,0a.45.45,0,0,0-.12-.12l0,0a.42.42,0,0,1-.14,0s0,0-.07-.06l0,0a.14.14,0,0,0,0,.12v0h0a.15.15,0,0,1,0-.14s.05,0,.07,0l.07.06.12,0v0s.13.07.13.11,0,0,0-.05h0s0,.05-.05.06Zm-1.21,0-.09-.07-.06.06a.44.44,0,0,1,0-.12h0l0-.12s0,0,0,0L15.08,5H15L14.93,5l-.07,0V5l.07,0L15,5h0l.12.1h.05l0,.12h0a.47.47,0,0,1,0,.12l0-.06.09.06s0,0,.07,0,0,0,0,0-.2-.11-.22-.18a.15.15,0,0,1,0-.09.2.2,0,0,1,.28,0l.7.37,0,0a0,0,0,0,1,0,0L15.64,5c-.11-.05-.21-.07-.28,0a.11.11,0,0,0,0,.08c0,.06.09.12.22.18a0,0,0,0,1-.05,0l-.07,0Zm-.75-.29,0,0s.05-.08.07-.1h0s-.08.06-.08.09a.12.12,0,0,0,.09,0l0,0V5h0V5a.12.12,0,0,1-.08,0Zm0-.11a.16.16,0,0,1,.05-.07h-.06c0-.06.08-.08.08-.08h0s0,0,0-.06a.28.28,0,0,1,.13,0h0c.05,0,.07,0,.09,0s0,0,0,0h0v0h0l-.11,0s0,0,0,0-.07,0-.08.08h.05s0,0,0,.06h0Zm.24-.26a.06.06,0,0,1,.06,0h0a.1.1,0,0,1,.07,0s0,0,0,0l.1,0a.08.08,0,0,1,.08-.08.17.17,0,0,0,0,.1l0,0v0l0,0s0-.09,0-.09h0s0,0,0,0a.08.08,0,0,0,0,0h0c.06,0,.07,0,.08,0v0a.1.1,0,0,0,0-.06v0h0a.19.19,0,0,1,0-.06s0,0,0,.06l-.06,0v0s0,0,0,0a.09.09,0,0,1,0-.09.09.09,0,0,0,0,.07v0h0s0,0-.07,0,0,0,0,0,0,0,0,0h-.11Zm.79-.09s-.08,0-.08-.06,0,0-.05,0h-.08s.05,0,.05,0,.09,0,.09,0a.07.07,0,0,0,.08.06v0h.08s0,0-.06,0v0Zm.1,0,0,0s0,0,0,0,.08,0,.09,0,0-.09,0-.09a.27.27,0,0,1,.09-.12v.1l0-.07s0,.06,0,.07l.07-.06,0,0s.05-.07.05-.07a.11.11,0,0,1,0,.13s0-.08,0-.12,0,0-.05.06l0,0s0,.07-.07.07a.14.14,0,0,1,0-.09l0,.07V4.3a.75.75,0,0,0-.07.12.12.12,0,0,0-.05.08s0,0,0,0l0,0s0,0,0,0Z"/><path class="cls-10" d="M14.92,3.91V3.84a.81.81,0,0,1,.17,0l0-.08a.58.58,0,0,1,.11.07.86.86,0,0,1,.21,0l0,.08a1.06,1.06,0,0,1,.2,0s0,.06,0,.06a.89.89,0,0,1,.24.06c.08,0,.08.09,0,.1l.1.15s-.16,0-.18,0-.06,0-.06,0l0,.11a.77.77,0,0,1-.13-.09s0,.06,0,.09a.2.2,0,0,1-.17-.11s-.07,0-.07.05l-.11-.12-.09,0a.16.16,0,0,0-.06,0s0,0,0,0l0-.07-.06-.06s0,.06-.08.06,0,0,0-.07-.11,0-.12,0A.14.14,0,0,1,14.79,4l.13,0Z"/><path class="cls-20" d="M15.72,4.43h0s-.09,0-.13-.09,0,0,0,.07-.14,0-.19-.1-.05,0-.05.05-.1-.09-.12-.11l-.09,0a.21.21,0,0,0-.07,0s0,0,0,0h0s0,0,0,0l-.1-.11s0,.07-.08.07a.08.08,0,0,1,0-.09s-.1,0-.11,0a.14.14,0,0,1,.09-.19l.13,0,0-.06a.43.43,0,0,1,.19,0l0-.07a.33.33,0,0,1,.12.06.89.89,0,0,1,.18,0h0V3.9a.48.48,0,0,1,.19,0,.05.05,0,0,1,0,.07.49.49,0,0,1,.24,0s.07.06.06.08h0l0,0,.1.14a1,1,0,0,0-.18.07c-.05,0-.06,0-.07,0v.11Zm-.34-.13a.22.22,0,0,0,.18.11s0-.08,0-.08l.14.08,0-.1,0,.05A.37.37,0,0,1,16,4.29l-.1-.14,0,0s0,0-.06-.06A1.05,1.05,0,0,0,15.6,4l0,0a.8.8,0,0,0-.21,0V3.82l-.2,0-.12-.07,0,.07-.18,0,0,.07-.14,0a.13.13,0,0,0-.09.16s.05,0,.06,0l.06,0a.17.17,0,0,0,0,.08s.08,0,.1-.06l.1.1h0a.15.15,0,0,1,.1,0l.08,0,.11.13s0-.06.06-.06Z"/><path class="cls-20" d="M14.8,4.68l-.07,0h0l-.06,0h0v0l0,0s-.09,0-.09-.07V4.46l-.06.07,0,0,0,0a.35.35,0,0,1-.05-.08v.05a.16.16,0,0,1-.12-.09l0,.06h0l-.06.07,0,0,0,.06H14l0,0h-.06a.25.25,0,0,1-.07,0s0,0,0,0a.07.07,0,0,1-.06.05v0a.16.16,0,0,1-.06,0,.05.05,0,0,1,0,0l-.05.07v0h0l.06,0,0,0s0,0,0,0h0s0,0,.07-.06v.06a.25.25,0,0,0,.07,0h.06l0,0,.07,0,0-.06,0,0,.05-.08,0,0,.05-.05c0,.05.1.08.1.08v0h0s0,0,.06.08,0,0,0,0,0,0,0,.07l.07-.06s0,0,0,.06,0,0,.07.06l.05,0v0s0,0,0,0h0l.06,0,0-.07a.24.24,0,0,1,.11.06,1.32,1.32,0,0,0,0-.16A.15.15,0,0,1,15,4.42l-.18-.08a1.05,1.05,0,0,1,0-.13l-.13,0s0-.11,0-.12h0l-.16,0a.62.62,0,0,1,0-.12h-.11l-.09-.1-.11.06-.14,0L14,4h-.18V4l-.12.07s0,0,0,.07a.38.38,0,0,0-.12.06v.1a.24.24,0,0,0-.08.1s0-.1.07-.11V4.2a.15.15,0,0,1,.1,0s0-.05,0-.07L13.82,4V3.93H14l0-.07.15,0,.11-.06.09.1h.12s0,.09,0,.12a.41.41,0,0,1,.16,0s0,.09,0,.11l.11,0s0,.11,0,.13.18.06.19.09a.33.33,0,0,0-.06.06s0,.11,0,.14l0,0s-.05-.05-.09-.05l0,.08Zm-1.22-.1a.07.07,0,0,1,0-.08l0,0,0,0h0l0,0s0,0,0,0a.18.18,0,0,0-.05.08Z"/><path class="cls-20" d="M12.5,5l.05-.09a.27.27,0,0,1-.07.08.46.46,0,0,1,0-.21h-.06l0,0c-.06,0-.06,0-.06,0l.11,0-.09,0h0l0,.06h.07a1.49,1.49,0,0,0,0,.22.2.2,0,0,1,.09-.11L12.53,5l.11,0,0,0h0s0,0,0,0v0s0-.07,0-.09h0L12.68,5l0,0v0a.32.32,0,0,1-.13.06ZM13,4.91V4.85l-.05,0a.34.34,0,0,1-.11,0v0l.08,0,.09,0v0s0,0,0,0h0l0-.11h.06s.16.07.16.11a.33.33,0,0,0,0-.1l.07,0s0-.07,0-.08.14-.06.16,0a.06.06,0,0,0,0-.06s0-.06-.09-.09h0l0,0,.06,0s0,0,0,0h.09a.42.42,0,0,0-.14-.05l-.05,0s0-.09,0-.11h-.07s-.09,0-.11,0a.08.08,0,0,1-.06-.09.16.16,0,0,0-.06.06.19.19,0,0,1-.13.06l-.06,0,0,.1h-.08l0,0h-.13a.17.17,0,0,1,0,.1l-.1,0v0h0a.54.54,0,0,0-.11,0l0,0,0,.07h0l0-.07,0,0a.24.24,0,0,1,.09-.06h0a.21.21,0,0,1,.11,0,.26.26,0,0,0,0-.09s.14,0,.15,0l0,0h.08l0-.09.07,0a.15.15,0,0,0,.11,0,.08.08,0,0,1,.08,0,.1.1,0,0,0,0,.07.53.53,0,0,1,.13,0h.07s0,.07,0,.09,0,0,0,0a.39.39,0,0,1,.15.07h-.11s0,0,0,0h-.09c.06,0,.09.08.1.12a.11.11,0,0,1,0,.08c-.07-.11-.16,0-.16,0a.12.12,0,0,1,0,.1l-.07,0s0,.09,0,.1a.61.61,0,0,0-.16-.11h0l0,.11L13,4.91Z"/><path class="cls-20" d="M13.33,5.7h0a.4.4,0,0,1-.07-.16l.07,0-.07-.17-.08.06-.34.14-.29.16s0,0,0-.08.05-.07,0-.19a.22.22,0,0,1,.12-.06l-.06-.11.17-.05a.15.15,0,0,1,0-.07.23.23,0,0,1,.14,0L13.06,5s.06,0,.08,0a.1.1,0,0,0,.11,0,.1.1,0,0,1,.13,0h0a1,1,0,0,0,.1-.14.47.47,0,0,1,.1.1l-.1-.09s-.09.14-.09.14,0,0,0,0S13.3,5,13.28,5a.14.14,0,0,1-.11.08.13.13,0,0,0-.09,0s-.08.08-.09.09h-.14a.31.31,0,0,0,0,.07l-.18,0,.06.1a.52.52,0,0,0-.11.07c0,.09,0,.15,0,.17a.3.3,0,0,1,0,.09l.61-.33.1,0,.08.18-.07,0a.53.53,0,0,0,.08.15l.17-.06a0,0,0,0,1,0,0l.1,0s0,0,0,0a.26.26,0,0,0,.09-.09l.09,0s0,0,0-.07.08,0,.1,0l.07,0,.07-.06s0,0,.06,0l.08,0,0,0s0-.07,0-.09l.16.06-.08-.14s.06-.06.06-.07h-.06l0-.08h-.07l0,0-.08,0,0-.11L14.08,5,14.14,5h0l-.05,0H14c-.12,0-.13,0-.13,0l-.06-.06-.08.06H13.7l-.07,0h0l.07,0h.05l.09-.07.07.07h.16a.11.11,0,0,1,.08,0L14.09,5a.63.63,0,0,1,.27.06l0,.11.1,0,0,0,0,0,0,.09h0l0,0s0,.06-.06.07h0a.39.39,0,0,1,.08.14l-.16,0,0,.08s0,0-.06,0l-.07,0s-.06-.06-.06-.06L14,5.56l-.07,0s-.08,0-.08,0a.16.16,0,0,1,0,.08l-.08,0s-.06.09-.1.09h0a.05.05,0,0,1-.05,0l-.09,0h0l0,0-.08,0-.09,0Z"/><path class="cls-20" d="M13.44,7V6.91l-.11,0-.06-.1-.14,0,0-.1-.09,0,.13-.14-.05,0h.13a.1.1,0,0,1-.05,0,.88.88,0,0,1,.18-.1l0,0,.11-.06V6.22l.11,0,0,0,.16,0v0h.11l0-.05.16,0,0,0,.16,0s0,0,0,0a.55.55,0,0,1,.12,0s0,0,0,0a.11.11,0,0,1,.09.07.09.09,0,0,1,0,0,.34.34,0,0,1,.15.11s0,0,.07,0a.68.68,0,0,1,.12.11l-.06,0s0,.1,0,.13v.08l-.07,0-.08.08,0-.11,0,.07-.08-.06,0,.06-.1-.06,0,.07h-.13l-.06.17-.12-.14-.06.12-.06,0v.09h-.06V7s-.13-.06-.15-.07L13.44,7Zm0-.13V7l.16-.13a.5.5,0,0,0,.13.09.62.62,0,0,0,0-.12h.06V6.74l.06,0,.06-.11L14,6.8l.07-.17h.12V6.57l.09,0,0,0,.08.06,0-.06,0,.11.08-.1.06,0V6.54c0-.06.06-.12,0-.13l.06,0-.12-.1a.12.12,0,0,0-.06,0,1.26,1.26,0,0,0-.13-.09.06.06,0,0,0-.06,0s0,0-.09-.06a0,0,0,0,0,0,0l-.09,0h0l0,0-.16-.05,0,0-.16,0,0,0h-.11v0l-.16,0,0,0-.11,0v.06l-.11,0,0,0-.17.1.06,0h-.16l.07,0-.14.13.1.06-.06.09.14,0,.06.1.11,0Z"/><path class="cls-20" d="M16.37,6.47l0,0a.67.67,0,0,0-.16-.17s0,.07,0,.08L16,6.26v.07l-.12-.09-.06,0-.13-.13-.11,0,0-.07H15.5l0-.13v.1l-.1,0-.1.12s0,0,0-.07,0,0,0,.06l-.06-.08,0,.08S15,6.09,15,6.07h0s-.06.09-.07.16h0l0-.15,0,.06V6h-.07l0-.16-.05,0V5.7l.16-.14h.24l0-.07a.29.29,0,0,1,.18,0s.09,0,.1-.06h0l.05.07h0c.06,0,.1,0,.12,0l-.06.11h.12l.08,0,.08,0h.12l0,0h.1l0,.06.14,0,0,0,.13,0h0a.08.08,0,0,1,0,.1s.05.08.12.1.09,0,.1,0a.08.08,0,0,1,0,.08.1.1,0,0,1-.09,0v.09l-.09.1-.06,0s0,.06,0,.09v0Zm-.21-.19c.07,0,.16.1.19.14l0-.08.07,0s.06-.09.07-.1V6.2a.15.15,0,0,0,.09,0,.21.21,0,0,0,0-.06s0,0-.09,0a.18.18,0,0,1-.13-.11.12.12,0,0,0,0-.1.42.42,0,0,1-.16,0l0,0-.14,0,0-.06-.1,0,0-.05H16l-.09,0-.21,0,.06-.11h-.17l0-.08s-.09.07-.13.07a.52.52,0,0,0-.18,0l0,.07h-.25l-.15.14v.07h.05l0,.16h.07l0,.16,0-.05,0,.14s0-.15.07-.15a.24.24,0,0,1,.09.1l0-.09.06.09s0-.09,0-.09l0,.09.1-.12.09,0V6l0,.12h.14l0,.08.1,0,.13.12.06,0,.12.09V6.25l.14.1s0-.06,0-.07Z"/><path class="cls-20" d="M15.77,7.13v0s-.08-.1-.1-.1,0,.06,0,.1a1.49,1.49,0,0,1-.18-.18s0,0,0,.05a.35.35,0,0,1-.09-.16s-.05-.06-.06-.07a.87.87,0,0,1-.19.17s0-.1,0-.12-.08,0-.1.06a.25.25,0,0,1,0-.27V6.53l.46-.18,0,.07,0-.09.09.09,0,0,.08,0h.05l0,.07h.13s0,0,.05.09H16l0,.16a.43.43,0,0,1,0,.2s-.06,0-.08-.06A.41.41,0,0,1,16,7a.61.61,0,0,1-.19,0l-.07.15Zm-.34-.23a2.53,2.53,0,0,1,.19.2s0-.11,0-.11.08.07.11.1L15.83,7,16,7a.5.5,0,0,0,0-.14s.06.08.07.08a.3.3,0,0,0,0-.19l0-.16h-.12a.33.33,0,0,1,0-.1s0,0-.09,0h-.06l0-.09h-.05l-.07,0,0,0-.09-.1,0,.1-.06-.07-.07,0-.37.14v0a.34.34,0,0,0,0,.26s.05-.07.09-.07a.16.16,0,0,1,0,.13,1,1,0,0,0,.18-.17s.09,0,.09.08A.73.73,0,0,0,15.4,7s0-.06,0-.06Z"/><path class="cls-21" d="M16,5.16h0l.12,0a.38.38,0,0,0,0-.1h.09s0,0,0,0l.12-.07-.18-.08.09-.09a.23.23,0,0,0-.09,0V4.65a.31.31,0,0,0-.11,0,.55.55,0,0,1,0-.09l-.09,0,0-.08h0l0,.07H16s0,.06,0,.09a.13.13,0,0,1,.12,0v0s.05,0,.09,0l-.09.08a.4.4,0,0,1,.18.08.26.26,0,0,1-.12.08l0,0h-.09s0,.06,0,.09-.06,0-.1,0Z"/><path class="cls-21" d="M16.48,5h0s0-.14,0-.17.1.07.16.07,0-.07,0-.1.1,0,.14,0a.18.18,0,0,0,0-.07h0l0,0a.11.11,0,0,1,.07,0h-.07s0,.08,0,.1a.26.26,0,0,1-.14,0,.13.13,0,0,1,0,.1.26.26,0,0,1-.17-.05s0,.14,0,.15Z"/><path class="cls-21" d="M15.27,4.2s0,0-.09-.08v0h0a.06.06,0,0,0,0,0s0,0,0,0,0,0,.06,0l.09.09Z"/><path class="cls-21" d="M15.53,4.25a.12.12,0,0,1-.09,0h0l.08,0s0-.1,0-.11,0,0,0,0l.1,0a.09.09,0,0,0,0-.07.59.59,0,0,1,.17,0l-.16,0s0,0,0,.07a.29.29,0,0,1-.14,0h0a.16.16,0,0,1,0,.12Z"/><path class="cls-1" d="M15,4.12a.89.89,0,0,0,0-.11Z"/><path class="cls-21" d="M14.06,4.47v0s0,0,0-.06,0,0,.05,0,0,0,0-.07v0l0,0,.05,0s0,0,.06,0,0,0,0,0,0,0,.06,0,0,0,0,0,.06,0,.08,0,0,0,0,0,0,.06,0,.06l-.07,0a.06.06,0,0,1-.06.06l0,0s0,0,0,.06l-.06,0s-.05.06-.05.07h0s0,.06,0,.07h-.05s0,0,0,.06l0,0Z"/><path class="cls-1" d="M13.81,4.54a.18.18,0,0,0,0-.13Z"/><path class="cls-21" d="M13,4.76v0s0-.1,0-.11a.1.1,0,0,1,.08,0,.07.07,0,0,1-.06,0,.66.66,0,0,1,0,.11l0,0Z"/><path class="cls-1" d="M13.37,4.63a.15.15,0,0,0-.13-.06Z"/><path class="cls-1" d="M12.66,4.87a.25.25,0,0,0,0-.12Z"/><polygon class="cls-21" points="13.69 6.64 13.61 6.51 13.58 6.61 13.57 6.6 13.61 6.5 13.69 6.64 13.71 6.54 13.74 6.58 13.81 6.49 13.91 6.63 13.81 6.5 13.73 6.6 13.71 6.56 13.69 6.64 13.69 6.64"/><path class="cls-21" d="M15.37,6h0l.06-.11.09,0,0-.12.1,0,0-.1.1,0V5.74s.08,0,.1.06a.41.41,0,0,1,0-.09l.09,0v0s0,0,0,0,.05,0,.05,0,0,.06,0,.06l-.08,0c0,.09,0,.09,0,.1l-.1-.07v.07l-.11,0,0,.1-.09-.05,0,.12-.09,0L15.37,6Z"/><polygon class="cls-21" points="16.2 6.14 16.06 6.05 16.02 6.09 15.89 6.03 15.82 6.08 15.74 5.93 15.69 6.02 15.59 5.89 15.61 5.88 15.69 6.01 15.74 5.92 15.82 6.06 15.89 6.01 16.01 6.08 16.06 6.04 16.19 6.13 16.23 6.02 16.36 6.05 16.42 5.93 16.36 6.06 16.24 6.03 16.2 6.14 16.2 6.14"/><path class="cls-10" d="M12.65,5.23l0,.12a.28.28,0,0,0-.11.05c0,.19,0,.18,0,.18a.11.11,0,0,1,0,.08l.29-.14v0l.33-.15h0l.1-.05.06.18-.06,0a.47.47,0,0,0,.07.17l.09,0,.09,0s0,.06,0,0,.1,0,.1,0,0,0,0,0,.1-.09.1-.09l.07,0a.22.22,0,0,0,0-.08s.09,0,.09,0l.06,0,.08-.07s0,0,.06.06.12.07.12,0l0-.09.15.06a.83.83,0,0,0-.07-.14s.07-.06,0-.07,0,0,0,0l0-.09h-.06l0,0-.09,0,0-.1A1.71,1.71,0,0,0,14.09,5l.05,0s0,0-.05,0H13.9s-.06-.07-.06-.07l-.09.07,0,0-.09,0s0,0,0,0a.49.49,0,0,0-.08-.1L13.42,5s0,.06,0,0-.11-.09-.12,0-.08.07-.09.06-.09,0-.1,0-.09.09-.09.09a.2.2,0,0,0-.13,0,.11.11,0,0,0,0,.07l-.17,0Z"/><path class="cls-10" d="M14.93,6.59v0l.2-.08.17-.06.08,0,0,.06.05-.09.08.1,0,0,.06,0h.06V6.5s.14,0,.15,0,0,.09,0,.09l.13,0,0,.15s.07.14,0,.2S16,6.86,16,6.86A1.15,1.15,0,0,1,16,7s-.18,0-.18,0l-.07.14S15.69,7,15.66,7s0,.11,0,.11l-.16-.19c-.05-.06-.06.06-.06.06a.84.84,0,0,1-.07-.16s-.07-.08-.07-.08a.77.77,0,0,1-.2.17s0-.08,0-.11-.11,0-.11,0a.34.34,0,0,1,0-.26Z"/><path class="cls-10" d="M14.24,4.39l-.05.06,0,0-.07.08v0l0,.07-.06,0,0,0h0l-.08,0s0-.06,0-.06,0,.07-.07.07,0,0,0,0,0,0-.05,0,0,0,0,0l-.05,0v0h0s0-.06,0-.07,0-.06,0-.06l0,0h-.07s0-.09.08-.11V4.2a.19.19,0,0,1,.09,0s0-.08,0-.08L13.82,4l0-.08H14l0-.07.14,0,.11-.06.09.09h.12v.12a.88.88,0,0,1,.17.06s0,.09,0,.1l.14,0s0,.1,0,.13.18,0,.19.08a.31.31,0,0,0-.06.06s0,.11,0,.14v0a.22.22,0,0,0-.1,0l0,.07-.07,0h0s0,0-.06,0v0l-.05,0s-.08,0-.08-.06V4.46l-.08.06a.35.35,0,0,1,0-.06s0,0,0,0l0-.08v.06s-.09,0-.1-.09Z"/><path class="cls-10" d="M13.12,4.73s.15.08.15.11,0-.07,0-.1l.06,0s0-.07,0-.09.13-.08.16,0,.09-.09-.08-.16c0,0,0-.06.09,0a.11.11,0,0,0,0,0h.1a.5.5,0,0,0-.14-.06c-.09,0,0,0,0,0a.21.21,0,0,1,0-.08.12.12,0,0,0-.09,0h0s-.09,0-.13,0a.07.07,0,0,1,0-.08.09.09,0,0,0-.08.06.19.19,0,0,1-.12,0l-.06,0,0,.09h-.07l0,0s-.1,0-.13,0a.17.17,0,0,1,0,.1.26.26,0,0,0-.1,0s0,0,0,0-.09,0-.11.06l0,0,0,0h0l-.09,0s.06,0,.06,0l0,0h.06a.91.91,0,0,0,0,.21.9.9,0,0,1,.1-.11L12.52,5s.12,0,.13-.06l0,0v.06s.05-.06.05-.08.08,0,.08,0v0l.08,0H13V4.9a.23.23,0,0,0,0-.05s0,0,0,0l0-.12Z"/><path class="cls-10" d="M14.23,6.65V6.57l.08.06,0-.06.06.07,0-.07v.11l.1-.09,0,0V6.54s.07-.12,0-.14l.06,0-.13-.11a.1.1,0,0,0-.06,0,.65.65,0,0,0-.13-.09.06.06,0,0,0-.07,0,.14.14,0,0,0-.08-.07s0,0,0,0l-.08-.05s0,0,0,0l-.16,0,0,0-.15,0,0,.06-.1,0v.05l-.15,0,0,0-.1,0v.07l-.1,0,0,0-.17.09s.05.06.05.06l-.15,0,.06,0-.13.12.09.06,0,.09.14,0,.05.09.12,0V7l.16-.13s.13.11.14.08V6.84h.06v-.1l0,0,.08-.11.1.14.07-.18.12,0Z"/><path class="cls-10" d="M14.91,6.22l0-.16,0,.05,0-.15h-.08l0-.15-.06,0,0-.07.05,0,.1-.1h.24l0-.08s.13,0,.16,0,.12-.06.12-.06h0l0,.07a.31.31,0,0,1,.18,0l-.07.09h.13l.08,0,.09,0h.11l0,0h.1l0,0,.13.06,0,0a.4.4,0,0,0,.13,0h0s0,.07,0,.09a.18.18,0,0,0,.12.12c.08,0,.08,0,.09,0a.1.1,0,0,1-.09.12v.09l-.09.09-.05,0s-.05.05-.05.09-.12-.16-.17-.17,0,.09,0,.09L16,6.25l0,.08-.11-.1-.07,0-.11-.12h-.12l.05-.06H15.5l0-.12,0,.1-.09,0-.11.11a.23.23,0,0,1,0-.07s-.06.07-.06.07l0-.09,0,.09A.36.36,0,0,0,15,6.06s-.08.11-.09.16Z"/><path class="cls-10" d="M13.4,5.61s0-.09,0-.13.1.07.1.07a.2.2,0,0,0,0-.12s.14.11.14.11,0-.13,0-.16.15,0,.15,0,.08,0,.05-.06.12.06.12.06,0-.1,0-.13.11,0,.11,0l0-.1h.12V5.13Z"/><path class="cls-21" d="M13.42,5.62l0,0a.54.54,0,0,0,0-.1s0,0,.11,0V5.44s0-.05.14.06a.16.16,0,0,0,0-.1c0-.05,0-.06.18,0,0,0,0,0,0,0v0s0,0,.15.06,0-.08,0-.1h0v0s0,0,.08,0l0-.07h.16l0-.09h0v.12H14.1l.08.14-.07,0-.06,0a.41.41,0,0,1,0,.1.28.28,0,0,1-.14,0,.06.06,0,0,1,0,.07l-.16,0h0c.05,0,0,.1,0,.14v0l0,0a.75.75,0,0,0-.09-.09l0,.09v0l0,0-.09-.07c.05,0,0,.1,0,.12Z"/><polygon class="cls-22" points="15.26 6.74 15.34 6.7 15.41 6.77 15.49 6.65 15.58 6.74 15.6 6.65 15.7 6.69 15.72 6.64 15.83 6.7 15.84 6.61 15.9 6.63 15.91 6.57 15.26 6.74"/><polygon class="cls-21" points="15.6 6.79 15.47 6.67 15.43 6.79 15.33 6.72 15.27 6.76 15.25 6.72 15.33 6.68 15.43 6.76 15.47 6.64 15.57 6.71 15.57 6.65 15.71 6.67 15.7 6.63 15.81 6.67 15.82 6.61 15.9 6.61 15.89 6.57 15.93 6.58 15.92 6.63 15.84 6.63 15.85 6.7 15.85 6.73 15.71 6.66 15.72 6.7 15.59 6.67 15.61 6.75 15.6 6.79 15.6 6.79"/><path class="cls-6" d="M14.73,13a2.47,2.47,0,0,0,1.51-.46c.6-.4.72-.41.82-.4s.28,0,.29.14-.24.22-.38.22a3.74,3.74,0,0,1-.52-.09l-.09.06c.06,0,.83.29,1,0a5.08,5.08,0,0,0,.3-.64.65.65,0,0,0-.55-.3,1.84,1.84,0,0,0-1,.41,1.93,1.93,0,0,1-1.37.43A2,2,0,0,1,13.36,12a1.81,1.81,0,0,0-1-.41.64.64,0,0,0-.54.3,5.08,5.08,0,0,0,.3.64c.15.24.91,0,1,0l-.1-.06a3.53,3.53,0,0,1-.51.09c-.15,0-.39-.07-.38-.22s.17-.13.28-.14.22,0,.82.4a2.56,2.56,0,0,0,1.51.46Z"/><path d="M14.76,13h0a2.65,2.65,0,0,1-1.51-.45l-.12-.09a1.75,1.75,0,0,1-.69.16c-.15,0-.25,0-.29-.11a4,4,0,0,1-.3-.64.63.63,0,0,1,.55-.32,1.85,1.85,0,0,1,1,.42,1.91,1.91,0,0,0,1.36.42,1.92,1.92,0,0,0,1.34-.4,1.88,1.88,0,0,1,1-.44.68.68,0,0,1,.56.31,4.54,4.54,0,0,1-.3.65.35.35,0,0,1-.3.11,2.24,2.24,0,0,1-.7-.15l-.1.08a2.56,2.56,0,0,1-1.49.45Zm-1.71-.59h0l.18.11a2.46,2.46,0,0,0,1.5.45l0,0v0a2.44,2.44,0,0,0,1.47-.45l.22-.13c.39-.26.51-.28.59-.28s.31,0,.32.16a.15.15,0,0,1,0,.11.53.53,0,0,1-.35.12,3.46,3.46,0,0,1-.51-.09l-.06,0,0,0a3.83,3.83,0,0,0,.69.13c.14,0,.24,0,.27-.1a4,4,0,0,0,.3-.64h0a.64.64,0,0,0-.53-.28,1.81,1.81,0,0,0-1,.41,2,2,0,0,1-1.38.43A2,2,0,0,1,13.37,12a1.78,1.78,0,0,0-1-.43.64.64,0,0,0-.53.29h0a4.58,4.58,0,0,0,.3.63.31.31,0,0,0,.27.1,2.37,2.37,0,0,0,.67-.14l0,0,0,0a3.06,3.06,0,0,1-.5.09.52.52,0,0,1-.35-.12.12.12,0,0,1,0-.11c0-.12.22-.15.29-.16s.22,0,.62.28l0,0Zm3.43,0a3.86,3.86,0,0,0,.49.09.52.52,0,0,0,.33-.11.12.12,0,0,0,0-.1c0-.08-.14-.12-.27-.13h0c-.1,0-.21,0-.58.25Zm-4.05-.25c-.16,0-.29.05-.3.13a.13.13,0,0,0,0,.1.5.5,0,0,0,.33.11,3.41,3.41,0,0,0,.48-.09c-.35-.22-.47-.25-.55-.25Z"/><path class="cls-23" d="M13,12.42a3.53,3.53,0,0,1-.51.09c-.15,0-.39-.07-.38-.22s.17-.13.28-.14.19,0,.61.27Z"/><path d="M12.5,12.52a.52.52,0,0,1-.35-.12.12.12,0,0,1,0-.11c0-.12.22-.15.29-.16a1.38,1.38,0,0,1,.62.27,1.66,1.66,0,0,1-.52.12Zm-.07-.36c-.16,0-.29.05-.3.13a.13.13,0,0,0,0,.1.5.5,0,0,0,.33.11,3.79,3.79,0,0,0,.51-.1c-.38-.21-.5-.24-.58-.24Z"/><path class="cls-23" d="M16.45,12.42a3.74,3.74,0,0,0,.52.09c.14,0,.39-.07.38-.22s-.18-.13-.29-.14-.19,0-.61.27Z"/><path d="M17,12.52a4.41,4.41,0,0,1-.52-.09c.37-.26.5-.3.59-.3s.31,0,.32.16a.15.15,0,0,1,0,.11.53.53,0,0,1-.35.12Zm-.5-.1c.06,0,.38.08.5.08a.52.52,0,0,0,.33-.11.12.12,0,0,0,0-.1c0-.08-.14-.12-.27-.13s-.23,0-.6.26Z"/><path class="cls-23" d="M13.47,12.08,13.36,12l-.17-.11s.08-.1.12-.11.13,0,.15.13,0,.17,0,.17Z"/><path d="M13.48,12.11l0,0L13.35,12l-.12-.09,0,0a.25.25,0,0,1,.12-.13h0s.11,0,.13.15,0,.17,0,.17v0Zm-.14-.33a.53.53,0,0,0-.14.11h0l.12.09.1.07s0-.08,0-.14,0-.14-.1-.14Z"/><path class="cls-6" d="M13.47,12.08s0-.07,0-.16-.09-.16-.15-.15a.69.69,0,0,0-.12.11h0l-.1-.07a.71.71,0,0,1,.22-.13A2.68,2.68,0,0,1,14,12a.56.56,0,0,1,0,.32,1.39,1.39,0,0,1-.56-.26Z"/><path d="M14,12.34a1.51,1.51,0,0,1-.58-.25,2.7,2.7,0,0,0,.57.24.7.7,0,0,0,0-.3,3.09,3.09,0,0,0-.67-.33.67.67,0,0,0-.21.13.16.16,0,0,1,.1.05s.07-.1.11-.12a.1.1,0,0,1,.09,0s.06.05.07.13,0,.17,0,.17h0a.82.82,0,0,0,0-.16.14.14,0,0,0,0-.12.08.08,0,0,0-.08,0l-.11.1-.12-.06a.49.49,0,0,1,.23-.15A2.56,2.56,0,0,1,14,12a.52.52,0,0,1,0,.33Z"/><path class="cls-6" d="M13.24,12.57a.42.42,0,0,0-.11.3c0,.22.16.23.27.23s.23-.08.23-.32a2.8,2.8,0,0,1-.39-.21Z"/><path d="M13.37,13.11a.23.23,0,0,1-.19-.06.24.24,0,0,1-.06-.18.41.41,0,0,1,.11-.31,3.27,3.27,0,0,0,.4.21c0,.23-.07.34-.23.34Zm-.14-.53a.52.52,0,0,0-.09.29.23.23,0,0,0,0,.16.26.26,0,0,0,.18.06h0c.15,0,.22-.11.22-.31a2.25,2.25,0,0,1-.39-.2Z"/><path class="cls-6" d="M13.32,12.62a.42.42,0,0,0-.09.23.14.14,0,0,0,.16.17c.13,0,.18-.19.12-.29l-.19-.11Z"/><path d="M13.37,13a.15.15,0,0,1-.11,0,.22.22,0,0,1,0-.14.42.42,0,0,1,.11-.24l.2.11a.22.22,0,0,1,0,.22.14.14,0,0,1-.13.09Zm0-.4a.58.58,0,0,0-.08.22.21.21,0,0,0,0,.12.18.18,0,0,0,.1,0h0a.15.15,0,0,0,.11-.08.21.21,0,0,0,0-.19l-.18-.11Z"/><path class="cls-23" d="M13.21,13.07a.34.34,0,0,0,.19,0c.13,0,.23-.08.23-.32a2.46,2.46,0,0,0,.42.15.3.3,0,0,1,0,.15c0,.09,0,.18-.12.18l-.59-.11a.3.3,0,0,1-.18-.08Z"/><path d="M14,13.27h0l-.59-.1a.5.5,0,0,1-.19-.09h.2c.15,0,.22-.11.22-.31,0,0,.18.07.43.13a.23.23,0,0,1,.06.17.2.2,0,0,1,0,.15.1.1,0,0,1-.08,0Zm-.7-.16.1,0,.59.11h0a.07.07,0,0,0,.06,0,.18.18,0,0,0,0-.13.3.3,0,0,0-.05-.15,2.4,2.4,0,0,1-.42-.14c0,.21-.06.32-.22.32Z"/><path class="cls-6" d="M14,13.19a.51.51,0,0,0,.05-.12A.1.1,0,0,0,14,13v0a.14.14,0,0,1,.05.09.15.15,0,0,1-.07.12Z"/><polygon class="cls-6" points="14.04 13.07 13.67 12.94 13.68 12.92 14.04 13.07 14.04 13.07"/><path class="cls-1" d="M13.74,13l.26.11Z"/><path class="cls-1" d="M13.83,13,14,13Z"/><path class="cls-23" d="M16,12.08l.11-.08.16-.11s-.08-.1-.12-.11-.13,0-.14.13,0,.17,0,.17Z"/><path d="M16,12.11v0s0-.07,0-.17.05-.15.12-.15h0s.11.1.12.11h0l0,0-.13.1-.14.1Zm.16-.32c-.08,0-.11.05-.12.13s0,.11,0,.14L16.1,12l.14-.1a.22.22,0,0,0-.09-.1Z"/><path class="cls-6" d="M16,12.08s0-.07,0-.16.08-.16.14-.15a.69.69,0,0,1,.12.11h0a.41.41,0,0,1,.11-.07.76.76,0,0,0-.23-.13,2.68,2.68,0,0,0-.67.33.66.66,0,0,0-.05.32,1.44,1.44,0,0,0,.57-.26Z"/><path d="M15.44,12.35a.48.48,0,0,1,0-.34,2.71,2.71,0,0,1,.68-.33.8.8,0,0,1,.24.13l-.11.09a1.09,1.09,0,0,0-.13-.11.06.06,0,0,0-.07,0,.17.17,0,0,0-.06.12c0,.09,0,.16,0,.16h0a1.13,1.13,0,0,1-.54.27Zm.71-.65a2.83,2.83,0,0,0-.66.33.72.72,0,0,0-.05.31,1.7,1.7,0,0,0,.54-.26s0-.08,0-.17,0-.12.06-.13a.12.12,0,0,1,.1,0,.67.67,0,0,1,.12.12.22.22,0,0,1,.09-.07,2.26,2.26,0,0,0-.22-.11Z"/><path class="cls-6" d="M16.23,12.57a.44.44,0,0,1,.1.3c0,.22-.16.23-.26.23s-.23-.08-.23-.32a2.8,2.8,0,0,0,.39-.21Z"/><path d="M16.09,13.11h0c-.17,0-.25-.11-.25-.33a4.28,4.28,0,0,0,.4-.22.39.39,0,0,1,.13.31.24.24,0,0,1-.06.18.25.25,0,0,1-.2.06Zm.13-.53a2,2,0,0,1-.38.21c0,.19.08.29.23.3h0a.25.25,0,0,0,.18-.06.17.17,0,0,0,.05-.16.43.43,0,0,0-.1-.29Z"/><path class="cls-6" d="M16.14,12.62a.48.48,0,0,1,.1.23.15.15,0,0,1-.16.17.19.19,0,0,1-.13-.29l.19-.11Z"/><path d="M16.09,13h0a.15.15,0,0,1-.14-.09.28.28,0,0,1,0-.22l.19-.11a.35.35,0,0,1,.12.24.18.18,0,0,1,0,.13.13.13,0,0,1-.12,0Zm0-.4-.17.11a.19.19,0,0,0,0,.19.12.12,0,0,0,.11.08h0a.15.15,0,0,0,.1,0,.16.16,0,0,0,0-.12.47.47,0,0,0-.1-.22Z"/><path class="cls-23" d="M16.25,13.07a.31.31,0,0,1-.18,0c-.13,0-.23-.08-.23-.32a3,3,0,0,1-.42.15.26.26,0,0,0-.06.15c0,.09.06.18.12.18l.59-.11a.3.3,0,0,0,.18-.08Z"/><path d="M15.48,13.27a.09.09,0,0,1-.08,0,.23.23,0,0,1-.05-.15c0-.11.05-.16.06-.16a2.46,2.46,0,0,0,.42-.15c0,.21.09.31.24.32h0a.25.25,0,0,0,.13,0s0,.08-.16.11l-.6.1Zm-.06-.33a.29.29,0,0,0-.05.14.24.24,0,0,0,.05.14.09.09,0,0,0,.06,0h0l.59-.11.1,0h-.11c-.15,0-.24-.11-.24-.32a1.31,1.31,0,0,1-.4.15Z"/><path class="cls-6" d="M15.47,13.17a.11.11,0,0,1-.09-.1.14.14,0,0,1,.06-.09v0a.1.1,0,0,0,0,.07.14.14,0,0,0,.06.1Z"/><polygon class="cls-6" points="15.44 13.1 15.78 12.92 15.79 12.94 15.44 13.1 15.44 13.1"/><path class="cls-1" d="M15.73,13l-.26.11Z"/><path class="cls-1" d="M15.64,13l-.2.08Z"/><path d="M12.28,12.08v-.14h0v0a.09.09,0,0,0,.08,0,.06.06,0,0,0,.06-.06s0-.05-.07-.07-.08,0-.08-.1a.08.08,0,0,1,.08-.08h.07v0h0v.13h0v0a.08.08,0,0,0-.07,0s0,0,0,0,0,0,.07.06a.12.12,0,0,1,.08.1c0,.07,0,.1-.1.11H12.3a.43.43,0,0,0,0,.05Z"/><path d="M12.61,11.85l0-.09,0,0h0l.07,0,.06,0H12.7s0,.05,0,.09l0,0c0,.09,0,.13,0,.16h.07a.17.17,0,0,0,.08-.1l0,0s0-.09,0-.11l0,0h0l.07,0,0,0h0l0,.07v0l0,0s0,.08-.09.09a.14.14,0,0,1-.16-.19l0-.07Z"/><path d="M13.38,12.32l0-.09,0,0h0l.07,0,.06,0h0l0,0a.3.3,0,0,0-.05.1l0,0c0,.09,0,.14,0,.16a.07.07,0,0,0,.06,0s.06,0,.09-.09l0,0,.06-.09-.05,0h0l.06,0,.05,0h0l0,.06v0l0,.05a.14.14,0,0,1-.1.08.1.1,0,0,1-.1,0c-.08,0-.08-.11,0-.18l0-.06Z"/><path d="M13.93,12.78h0a2,2,0,0,0,0-.26l-.19.22s0-.27,0-.29h0a2.4,2.4,0,0,0-.11.23l0,0h0l-.06,0h0a2.2,2.2,0,0,0,.15-.26h0v0l.06,0,.07,0h0s0,.2,0,.24l.15-.19h0l0,0,.07,0h0c0,.05,0,.26,0,.29l0,0h0l-.06,0-.08,0Z"/><path d="M15.38,12.64l0-.12h-.06l.08,0,.14-.05a0,0,0,0,0,0,0h0a1,1,0,0,0,0,.11h0a0,0,0,0,0,0,0s-.09,0-.11,0l0,.12h0l.09,0v0h0s0,.06,0,.09h0a0,0,0,0,0,0,0s-.07,0-.09,0v0l0,.12h.06l-.09,0-.07,0h0s0-.09,0-.14v0Z"/><path d="M15.66,12.53l0-.1h-.06l.08,0,.07,0h0l0,0,0,.1v0l.06.14a.17.17,0,0,0,.09-.06v-.06h0a1,1,0,0,0,0,.14h0l0,0-.12,0-.07,0h0l0,0-.06-.14v0Z"/><path d="M16.59,12l-.06-.11-.05,0h0l.07,0,.12-.07s0,0,0,0h0a.94.94,0,0,0,0,.09h0v0a.21.21,0,0,0-.1,0l.05.1h0l.08-.05v0h0l0,.08h0l0,0-.08,0h0a.67.67,0,0,0,.06.12.23.23,0,0,0,.09-.06s0,0,0,0h0a.42.42,0,0,0,0,.1h0l0,0-.12.06-.07,0h0l0,0L16.6,12v0Z"/><path d="M13,12.07,13,12l0,0h0l.11.06c.08,0,.07.09.05.11l0,0a.12.12,0,0,1-.07,0,.11.11,0,0,1,0,.12.1.1,0,0,1-.14,0l-.06,0-.06,0h0l.05,0,.07-.12,0,0Z"/><path class="cls-6" d="M13,12.14l-.05.08,0,0s.06,0,.07,0a.08.08,0,0,0,0-.08l0,0v0Z"/><path class="cls-6" d="M13,12.09l0,0,0,0a.05.05,0,0,0,0-.07h0a.32.32,0,0,0,0,.07Z"/><path d="M14.21,12.67a.66.66,0,0,0,0-.13h0l.13,0c.08,0,.09.05.09.07s0,0,0,0l-.06,0h0s.09.05.08.1-.05.08-.12.07h-.09s0-.1,0-.14v0Z"/><path class="cls-6" d="M14.26,12.73a.28.28,0,0,0,0,.08h0a0,0,0,0,0,.05,0,.09.09,0,0,0,0-.07h0v0Z"/><path class="cls-6" d="M14.26,12.67h.05s0,0,0,0,0-.06,0-.06h0a.54.54,0,0,0,0,.08v0Z"/><path d="M14.53,12.69v-.11h.05a.27.27,0,0,1,.13,0,0,0,0,0,1,0,.05s0,.06-.06.08a.77.77,0,0,0,.12.18h0a1.2,1.2,0,0,1-.16-.17h0v.12h-.06s0-.1,0-.15v0Z"/><path class="cls-6" d="M14.59,12.71h0s0,0,0-.06,0-.05-.08-.05v.1Z"/><path d="M16.28,12.17a.28.28,0,0,0-.06-.09l0,0h0l.09-.05a.27.27,0,0,1,.11,0,0,0,0,0,1,.06,0s0,.07,0,.1l.2.1h0l-.22-.06,0,0h0a1.09,1.09,0,0,0,.06.11l0,0h0l-.07,0-.07,0h0l0,0s-.05-.08-.07-.13l0,0Z"/><path class="cls-6" d="M16.34,12.16l0,0a.06.06,0,0,0,0-.07s-.05,0-.1,0l0,.09Z"/><path d="M15,12.87h.05s-.05-.12-.06-.13l-.1,0s0,.09,0,.12h-.05s.09-.28.1-.3H15l.06.13.07.15H15Z"/><path class="cls-6" d="M15,12.61h0a.87.87,0,0,1,0,.1H15a.42.42,0,0,1,0-.1Z"/><path d="M16,12.54a.14.14,0,0,1-.1-.07.19.19,0,0,1,.08-.25.17.17,0,0,1,.12,0,.17.17,0,0,1,0,.33.17.17,0,0,1-.14,0Z"/><path class="cls-6" d="M16.14,12.32a.12.12,0,0,0-.16-.05.12.12,0,0,0,0,.15.13.13,0,0,0,.17,0,.09.09,0,0,0,0-.13Z"/><path d="M16.92,12c-.05,0-.06-.05-.08-.09a.17.17,0,0,1,.14-.22.19.19,0,0,1,.13,0,.16.16,0,0,1,.09.09.2.2,0,0,1-.28.23Z"/><path class="cls-6" d="M17.12,11.83a.12.12,0,0,0-.14-.09c-.05,0-.08.06-.06.13a.12.12,0,0,0,.15.08.09.09,0,0,0,.05-.12Z"/><path class="cls-13" d="M10.78,6.81l2.54-1.32-.07-.18L11.06,6.37a1.73,1.73,0,0,0-.66.43c-.11.14-.06.23-.06.23l.08,0s0,.08,0,.11,0,.06,0,.06.06,0,.1-.08a1.74,1.74,0,0,1,.25-.29Z"/><path d="M10.44,7.19h0s0,0,0,0h0v0s0-.1,0-.1l-.06,0s-.07-.09,0-.23a2,2,0,0,1,.66-.44l2.2-1.05.08.18L10.78,6.82a1.61,1.61,0,0,0-.24.28c0,.07-.06.09-.1.09Zm0-.19a.11.11,0,0,1,0,.13s0,0,0,0h0s.05,0,.09-.08a1.61,1.61,0,0,1,.24-.29l2.55-1.32-.07-.16L11.06,6.38a1.7,1.7,0,0,0-.65.43c-.1.12-.07.19-.06.21s0,0,.07,0Z"/><path class="cls-6" d="M12.82,5.5l.33-.15s.11.08.1.17a.55.55,0,0,0,.3.37.92.92,0,0,1-.63.31,1.2,1.2,0,0,0-.05-.5s-.08-.12,0-.2Z"/><path d="M12.91,6.21h0s0-.39-.05-.49-.08-.13,0-.21l.33-.16a.24.24,0,0,1,.11.19.53.53,0,0,0,.29.35.86.86,0,0,1-.63.33Zm.24-.86-.32.16c0,.07.05.19.05.19a1,1,0,0,1,0,.49.93.93,0,0,0,.61-.3.5.5,0,0,1-.29-.36c0-.09-.1-.18-.1-.18Z"/><path class="cls-18" d="M12.92,5.71s.21-.15.28-.17v0l-.29.15Z"/><path class="cls-18" d="M13.11,5.79s0-.11,0-.15l0,0v0a.33.33,0,0,0,0,.14Z"/><path class="cls-18" d="M13.09,5.79a.16.16,0,0,1,0-.15h0v0a.18.18,0,0,0,0,.14Z"/><path class="cls-1" d="M13,5.65a.27.27,0,0,0,0,.09Z"/><path class="cls-1" d="M13,5.67s0,0,0,0Z"/><path class="cls-18" d="M13.38,5.88a.67.67,0,0,1-.18-.22h0a1.11,1.11,0,0,0,.15.23Z"/><path class="cls-18" d="M13.34,5.88a.3.3,0,0,1-.13-.15h0a.59.59,0,0,0,.1.16Z"/><path class="cls-18" d="M13.3,5.91a.18.18,0,0,1-.09-.12h0l.07.13Z"/><path class="cls-1" d="M13.22,5.85a.25.25,0,0,0,0,.09Z"/></g><g class="cls-24"><rect class="cls-25" x="11.89" y="5.29" width="0.68" height="0.81"/></g><g class="cls-5"><path d="M12.17,6.05h0a.27.27,0,0,1-.12,0A.28.28,0,0,1,12,5.88a.55.55,0,0,1-.07-.23.87.87,0,0,1,0-.32h0a1.35,1.35,0,0,0,0,.33,1.44,1.44,0,0,0,.07.23.23.23,0,0,0,.09.12.17.17,0,0,0,.11,0h0a.38.38,0,0,0,.15,0l0,0a.24.24,0,0,0,.09-.08.15.15,0,0,0,0-.07s0-.05,0-.08a.59.59,0,0,0,0-.08s0,0,0,0,0-.06,0-.06h0s0,0,.06,0a0,0,0,0,1,0,0,.08.08,0,0,0,0,0,.36.36,0,0,1,0,.07l0,0s0,0,0,.07a.12.12,0,0,1,0,.08.24.24,0,0,1-.09.08l0,0a.43.43,0,0,1-.16,0Zm.33-.5a.42.42,0,0,0,0-.2V5.29a.91.91,0,0,1-.36.06H12l0,0h.2a1,1,0,0,0,.35,0,0,0,0,0,1,0,0,.45.45,0,0,1,0,.23Z"/><path d="M11.9,5.39s0,0,0-.11,0-.07,0-.11,0-.06.05-.07l.12,0,.11,0a.46.46,0,0,1,.2,0,.71.71,0,0,1,.12.13s.06.12.05.27,0,.12,0,.12,0-.07-.08,0a.51.51,0,0,1,0-.1.48.48,0,0,1,0-.17,1.35,1.35,0,0,1-.3.06c-.1,0-.25,0-.25-.06l0,.08Z"/><path d="M12.56,5.6h0l0,0,0,0h0V5.43s0-.09,0-.12a.76.76,0,0,1-.29.07s-.26,0-.27-.07v.08s0,0,0-.12,0,0,0,0a.08.08,0,0,1,0-.06l0,0,0,0h.12a.23.23,0,0,1,.1,0,.41.41,0,0,1,.22,0,.2.2,0,0,1,.08.08l0,0s.06.13,0,.28,0,.13,0,.13Zm-.05-.06s0,0,.05,0a.42.42,0,0,0,0-.11.42.42,0,0,0,0-.27.08.08,0,0,1,0,0l-.08-.08a.35.35,0,0,0-.2,0l-.1,0H12a.31.31,0,0,1,0,.06s0,0,0,0a.18.18,0,0,1,0,.06c0,.06,0,.09,0,.1V5.31a1.15,1.15,0,0,0,.26.05h0a1.36,1.36,0,0,0,.29-.06.57.57,0,0,0,0,.13v.05s0,.06,0,.08l0,0Z"/><path class="cls-6" d="M12,5.27s-.06-.1,0-.13,0,.1.07.12,0,0-.05,0Z"/><path class="cls-6" d="M12,5.3h0l0,0s-.06-.11,0-.13,0,0,0,0a.08.08,0,0,0,0,.07l0,0Zm0-.15s0,.07,0,.1l0,0v0s0,0,0-.08v0Z"/></g><g class="cls-26"><rect class="cls-27" x="10.78" y="5.72" width="3.01" height="2.01"/></g><g class="cls-5"><path d="M12.92,7.74h0c-.07,0-.1-.09-.14-.15s0,0,0,0a.59.59,0,0,1-.06-.16,1.06,1.06,0,0,1,0,.23.84.84,0,0,1-.38.06,4.2,4.2,0,0,1-.58-.07,1.37,1.37,0,0,0-.08-.43c0,.07-.12.2-.18.25a.27.27,0,0,0-.11.14c0,.05-.13.06-.17,0l-.07-.07S11,7.51,11,7.4A1.73,1.73,0,0,1,10.84,7s0-.07,0-.08l-.05-.08.32-.17s0-.1,0-.11,0,.07,0,.11l-.32.17.06.07,0,.09a1.33,1.33,0,0,0,.12.42c.07.11.1.11.12.12l.09.07.06,0s.07,0,.08,0a.33.33,0,0,1,.12-.15c.06,0,.19-.18.19-.24h0a.84.84,0,0,1,.09.43s.29.05.55.05h0a1.19,1.19,0,0,0,.39-.05,2.29,2.29,0,0,0,0-.25,1.79,1.79,0,0,1,.09.19l0,0c0,.06.06.13.12.14h0a.14.14,0,0,0,.13-.1V7.39h.31l.16,0s.05,0,.05,0l0,0h0v0s.09,0,.09,0h.09l-.09,0-.07,0s0,0,0,0,0,0-.05,0l-.16,0h-.32v.22a.18.18,0,0,1-.15.12Zm.86-.36a.36.36,0,0,0-.15-.1l-.16,0a.9.9,0,0,0-.21,0,.43.43,0,0,0-.19,0c-.05,0-.05,0,0,0a.82.82,0,0,0,0-.36.25.25,0,0,1,0-.18,1.5,1.5,0,0,0,0-.3s-.07-.13-.22-.15A.29.29,0,0,1,12.47,6a1.55,1.55,0,0,1,0-.31h0a1.09,1.09,0,0,0,0,.31.29.29,0,0,0,.24.21A.25.25,0,0,1,13,6.4c0,.06,0,.26,0,.31a.21.21,0,0,0,0,.17.85.85,0,0,1,0,.37l.21,0a.62.62,0,0,1,.23,0l.16,0c.07,0,.14.07.15.11ZM11.25,7s-.12-.05-.12-.12a.17.17,0,0,1,0-.1s0,0,0,0,0-.16,0-.19,0,0-.07,0l0,0,0,0,0,0h0s0,0,0,0a.06.06,0,0,1,0,0h0c.05,0,.09,0,.1.07a.65.65,0,0,1,0,.19l0,.07a.24.24,0,0,0,0,.09c0,.06.1.1.1.1a.38.38,0,0,1,.12-.2s0,0,0,0a.25.25,0,0,1,0-.23l.54-.29A.19.19,0,0,0,12,6c.17.06.2,0,.26,0l.06,0s.08-.05.1-.09,0,0,0-.08a.2.2,0,0,1,0-.07h0a.45.45,0,0,1,0,.08.15.15,0,0,1,0,.09.27.27,0,0,1-.11.09l0,0a.27.27,0,0,1-.25,0h0a.18.18,0,0,1-.11.19l-.54.29a.31.31,0,0,0,0,.21s0,0,0,.06a.42.42,0,0,0-.12.21Z"/><path d="M13.75,7.4a.13.13,0,0,0-.07,0l0,0-.07,0h0l.07,0a.12.12,0,0,1,.07,0Z"/><path class="cls-1" d="M13.55,7.37l0,0h0a.1.1,0,0,1-.08,0Z"/><path d="M11.4,7.25s-.05,0-.05-.1A.24.24,0,0,0,11.24,7h0a.22.22,0,0,1,.11.18.37.37,0,0,0,0,.1Z"/><path d="M11.15,7.44A.69.69,0,0,1,10.94,7s0,0,0,0h0a.11.11,0,0,0,0,0,.74.74,0,0,0,.19.41Z"/><path class="cls-1" d="M11,6.71s0,.08,0,.11Z"/><path d="M11.49,7.19h0a.17.17,0,0,1,.09-.08s.07,0,.07-.08,0,.07-.06.09-.07,0-.08.08Z"/><path d="M11.64,7.17V7.11a.88.88,0,0,1,0-.24.18.18,0,0,1,0-.06.2.2,0,0,1-.12.12.25.25,0,0,0,.12-.23.28.28,0,0,0,0-.1h0s0,.05,0,.11a.94.94,0,0,1,0,.17.53.53,0,0,0,0,.22v.07Z"/><path d="M12.7,7.35h0a.68.68,0,0,1,0-.22.41.41,0,0,0,0-.23s0,0,0-.06a.16.16,0,0,1-.12,0c-.15,0-.21,0-.24-.06a0,0,0,0,1,0,0l0,0s.08.06.22.06a.13.13,0,0,0,.12-.06c.08-.09,0-.29,0-.29h0l0,.07a.26.26,0,0,1,0,.23.11.11,0,0,0,0,.08.47.47,0,0,1,0,.24.58.58,0,0,0,0,.21Z"/><path d="M12,6.89c-.32,0-.32-.22-.32-.29h0c0,.07,0,.28.3.28a.48.48,0,0,0,.25-.11.37.37,0,0,1-.25.12Z"/><path d="M12.27,6.68a1.77,1.77,0,0,1,0-.24c0,.09,0,.17,0,.24Z"/><path d="M11.82,6.33h0a1.85,1.85,0,0,1,.29,0l-.29,0Z"/><path d="M12.25,6.29c-.12,0-.13-.08-.13-.15a.11.11,0,0,1,0,0h0v.06c0,.07,0,.14.12.15Z"/><path class="cls-1" d="M12.4,6.06a1,1,0,0,0,0,.15Z"/><path d="M12.38,6.31v0h.07a.46.46,0,0,1,.24,0l-.24,0Z"/><path d="M12.87,7.28a.28.28,0,0,1-.12-.16l0,0h0l0,0a.41.41,0,0,0,.1.16Z"/><path d="M11.73,7.6a.46.46,0,0,0,0-.38.53.53,0,0,1,0-.25.23.23,0,0,0,0-.07h0a.25.25,0,0,1,0,.08.49.49,0,0,0,0,.24.45.45,0,0,1,0,.39Z"/><path d="M11.87,7.1a.11.11,0,0,1,0-.1l0-.06h0l0,.06-.05.09Z"/><path d="M12,7.65a.23.23,0,0,0-.11-.22,1.62,1.62,0,0,0,.15-.38h0a1.11,1.11,0,0,1-.16.37.2.2,0,0,1,.1.23Z"/><path class="cls-1" d="M12.29,6.92s0,.06,0,.09Z"/><path d="M12.57,7.33c0-.09-.12-.25-.17-.31h0c.05.07.18.23.15.32Z"/><path d="M12.29,7.41a1.12,1.12,0,0,0,0-.31h0a.57.57,0,0,1,0,.31Z"/><path d="M12.12,7.5a.1.1,0,0,1,.09-.11v0a.1.1,0,0,0-.09.09Z"/><path d="M12.53,7.64c0-.16-.07-.22-.09-.23l0,0,0,0s.08.07.08.24Z"/><path d="M12.91,7.38s0,0,.06-.06a.19.19,0,0,1,.09,0h0l-.08,0-.07,0Z"/><path class="cls-1" d="M12.12,5.55a.36.36,0,0,0,0,.11Z"/><path class="cls-1" d="M12.45,5.72s0,0,0,0Z"/><path class="cls-1" d="M12.5,5.59s0,0,0,0Z"/><path d="M11.82,6.85s0,0,0,0,0,0,0,0a0,0,0,0,0,0,0,0,0,0,0,0,0,0Z"/><path class="cls-1" d="M11.82,6.85s0,0,0,0,0,0,0,0a0,0,0,0,0,0,0A0,0,0,0,0,11.82,6.85Z"/><path d="M12.62,6.86a0,0,0,0,0,0,0,0,0,0,0,0,0,0,0,0,0,0,0,0,0s0,0,0,0Z"/><path class="cls-1" d="M12.62,6.86a0,0,0,0,0,0,0,0,0,0,0,0,0,0,0,0,0,0,0,0,0S12.6,6.86,12.62,6.86Z"/><path d="M12,5.76s0,0,0,0,0,0,0-.07v0c0-.06,0-.1,0-.12l-.1,0v0l.09,0c.06,0,0,.09,0,.14l0,0a.43.43,0,0,1,0,.05h.07s0,0,0,0l.06,0h0a0,0,0,0,0,0,0,0,0,0,0,1,0,.06h-.06l-.05,0Z"/><path d="M12.16,5.53h0s0,0,.06,0a.25.25,0,0,1,.19,0,.31.31,0,0,0-.19,0l-.05,0Z"/><path class="cls-6" d="M11.91,5.55s.05,0,.11,0-.06.05,0,.05-.05,0-.06,0,0,0,0,0Z"/><path d="M12,5.62a0,0,0,0,1-.05,0h0a.05.05,0,0,0,.05,0h0l0,0a.06.06,0,0,0-.06,0h0c.05,0,.07,0,.1,0s0,0,0,.05Z"/><path d="M12,5.59l0,0a0,0,0,0,0,0,0,0,0,0,0,0,0,0s0,0,0,0Z"/><path class="cls-1" d="M12,5.59l0,0a0,0,0,0,0,0,0,0,0,0,0,0,0,0S11.94,5.59,12,5.59Z"/><path d="M12.1,5.92a.11.11,0,0,1-.08,0,.37.37,0,0,0,.18,0v0Z"/><path d="M12,5.86h0a.06.06,0,0,1,.06,0h0a.13.13,0,0,1,.08,0H12.1a.06.06,0,0,0-.06,0Z"/><path d="M12,5.88h0a.42.42,0,0,1,.19,0Z"/><path class="cls-6" d="M12.2,5.58s.06,0,.1,0l0,0s0,0,0,0-.06,0-.08,0,0,0,0,0Z"/><path d="M12.24,5.62h0l0,0a.11.11,0,0,1,.11,0l0,0,0,0-.08,0Z"/><path d="M12.26,5.6s0,0,0,0a0,0,0,0,0,0,0s0,0,0,0a0,0,0,0,0,0,0Z"/><path class="cls-1" d="M12.26,5.6s0,0,0,0a0,0,0,0,0,0,0s0,0,0,0A0,0,0,0,0,12.26,5.6Z"/><path class="cls-28" d="M10.65,6.57s0-.07,0-.1a.09.09,0,0,1,.07-.07.14.14,0,0,1,.11-.06s.08,0,.1,0,.1.07.11.1a.12.12,0,0,1,0,.08s0,0,0,0a.07.07,0,0,1,0,.07s0,0,0,0,0,.06,0,.06,0,0-.07,0,0,0,0,0-.05,0-.07,0,0-.07-.11,0Z"/><path d="M10.8,6.62l0,0s0,0-.1,0h0c0-.08.1,0,.11,0l0,0h0l0,0h0v0l.06,0a.07.07,0,0,0,0-.06l0,0,0,0s0,0,0,0l0,0a.09.09,0,0,0,0-.08S11,6.31,11,6.31h0a.3.3,0,0,0-.1,0,.15.15,0,0,0-.11.05c-.05,0-.06.07-.06.07a.08.08,0,0,0,0,.07v0h0l0,0a.07.07,0,0,1,0-.09h0s0-.07.07-.08a.14.14,0,0,1,.11-.06.43.43,0,0,1,.11,0s.11.08.11.1a.12.12,0,0,1,0,.1h0s0,0,0,0h0s0,0,0,0h-.05v0Z"/><path d="M11,6.45a.15.15,0,0,0-.13-.1.12.12,0,0,1,.14.09Z"/><path d="M10.93,6.5l0,0c0-.06-.07-.06-.12-.07h0a.2.2,0,0,1,.12.06v0Z"/><path class="cls-1" d="M10.84,6.55s0,0-.05,0a.23.23,0,0,0-.11,0Z"/><path class="cls-6" d="M11.51,8.29a2.23,2.23,0,0,1,.17-.52,2.88,2.88,0,0,0,.36.05,3,3,0,0,0,.4,0l.23,0a.36.36,0,0,1,.05.17c0,.17.08,1,.08,1.15a2.17,2.17,0,0,1,0,.43c0,.33.09,1,.09,1.35l-.09,0s-.5,0-.5,0a12.19,12.19,0,0,1,.05-1.45,1.83,1.83,0,0,0-.05-.19c0-.08-.15-.34-.15-.4S12,9.4,12,9.5s0,1.32-.06,1.42l-.32.24a.86.86,0,0,1-.32-.15,7.29,7.29,0,0,1,.16-1.14.94.94,0,0,0,0-.36,11.72,11.72,0,0,1,0-1.22Z"/><path d="M11.59,11.17a.74.74,0,0,1-.32-.16,8.66,8.66,0,0,1,.16-1.15,1,1,0,0,0,0-.3.11.11,0,0,1,0-.05s0-.93.05-1.22a1.54,1.54,0,0,1,.16-.48v0s.15,0,.37,0a1.52,1.52,0,0,0,.36,0h0l.23,0a.44.44,0,0,1,.06.18,3.58,3.58,0,0,0,0,.36c0,.3.05.66.05.79a2.3,2.3,0,0,1,0,.43c0,.16,0,.4,0,.65a6.55,6.55,0,0,1,0,.7l-.1,0a2.9,2.9,0,0,1-.43,0s-.07,0-.07,0v-.06a10.19,10.19,0,0,1,0-1.39h0l0-.18-.06-.14a1.34,1.34,0,0,1-.09-.26c0,.06-.18.55-.19.64a4.82,4.82,0,0,0,0,.55c0,.38,0,.81,0,.87l-.33.24Zm.09-3.39s0,0,0,0a1.7,1.7,0,0,0-.15.48c0,.25,0,1,0,1.22v0a.75.75,0,0,1,0,.32A7.77,7.77,0,0,0,11.29,11a.77.77,0,0,0,.3.15h0l.32-.24c0-.05,0-.5,0-.86s0-.52,0-.55a6.28,6.28,0,0,1,.21-.65,1.91,1.91,0,0,0,.11.26l.05.14a1.83,1.83,0,0,1,.05.19,10.27,10.27,0,0,0-.05,1.39v.06l.06,0a2.9,2.9,0,0,0,.43,0l.09,0c0-.17,0-.43-.05-.69a6.09,6.09,0,0,1,0-.65,2,2,0,0,0,0-.42c0-.14,0-.5,0-.8s0-.3,0-.36a.58.58,0,0,0,0-.17l-.23,0h0a2.45,2.45,0,0,1-.36,0l-.36,0Z"/><path d="M11.52,8.24a.75.75,0,0,0,.23-.39h0a.8.8,0,0,1-.25.38Z"/><path d="M11.8,9.45A6.67,6.67,0,0,1,12,7.89h0a7.47,7.47,0,0,0-.21,1.55Z"/><path d="M11.86,9.7A.39.39,0,0,0,12,9.5h0a.37.37,0,0,1-.13.2Z"/><path d="M11.73,10.41a4.37,4.37,0,0,1,0-.44c0-.13,0-.24,0-.27h0s0,.15,0,.28,0,.38,0,.43Z"/><path d="M11.61,11.16a2,2,0,0,1,.08-.65h0a2.76,2.76,0,0,0-.09.64Z"/><path d="M12.84,10.88a2.23,2.23,0,0,1-.14-1h0a2.42,2.42,0,0,0,.12,1Z"/><path d="M12.19,8.85c0-.19.05-.21.06-.21a.13.13,0,0,1-.09-.1s0-.54,0-.61h0c0,.07,0,.57,0,.61a.18.18,0,0,0,.07.1s-.05,0-.06.21Z"/><path d="M12,8.8c0-.1.08-.34.09-.39h0a2.81,2.81,0,0,1-.1.39Z"/><path d="M12.71,9.5C12.62,9,12.56,8,12.56,7.92s-.13,0-.17,0v0a.33.33,0,0,0,.17,0s.07,1,.15,1.58Z"/><path d="M12.3,8.62s0-.5,0-.57h0c0,.07,0,.57,0,.57Z"/><path d="M12.44,8.83a.61.61,0,0,0-.07-.14h0s.07.09,0,.14Z"/><path class="cls-1" d="M11.82,7.86l.1,0Z"/><path d="M12.09,8.11s0-.14,0-.16h0a.7.7,0,0,0,0,.16Z"/><path d="M12.42,9.59a.19.19,0,0,0-.05-.14h0a.15.15,0,0,1,0,.15Z"/><path class="cls-29" d="M11.66,7.76a.32.32,0,0,1,0-.16l.29,0a2.19,2.19,0,0,0,.43,0l.25,0s0,.16,0,.19a1.44,1.44,0,0,1-.29,0,3.55,3.55,0,0,1-.49,0l-.25,0Z"/><path d="M12.32,7.84a3.49,3.49,0,0,1-.41,0l-.25,0a.26.26,0,0,1,0-.18l.3,0a2.19,2.19,0,0,0,.43,0l.25-.05s.05.18,0,.2a1.34,1.34,0,0,1-.3,0ZM11.7,7.6a.41.41,0,0,0,0,.16l.24,0a3.48,3.48,0,0,0,.49,0,1.57,1.57,0,0,0,.29,0l0-.18a.91.91,0,0,1-.25,0,2.23,2.23,0,0,1-.44,0L11.7,7.6Z"/><polygon class="cls-6" points="11.77 7.78 11.79 7.61 11.82 7.61 11.81 7.79 11.77 7.78"/><polygon points="11.82 7.8 11.76 7.79 11.78 7.61 11.82 7.61 11.82 7.79 11.82 7.8 11.82 7.8"/><polygon class="cls-6" points="12.52 7.64 12.53 7.83 12.57 7.82 12.56 7.63 12.52 7.64"/><polygon points="12.52 7.84 12.52 7.64 12.56 7.62 12.58 7.82 12.52 7.84 12.52 7.84"/><polygon class="cls-6" points="11.98 7.64 11.97 7.82 12 7.82 12.02 7.64 11.98 7.64"/><polygon points="12 7.83 11.97 7.83 11.98 7.63 12.02 7.63 12 7.83 12 7.83"/><path class="cls-30" d="M11.38,11.08a1.27,1.27,0,0,0,0,.18s0,.12,0,.12,0-.1,0-.1,0,.11,0,.13.07-.12.07-.12,0,.13,0,.14.08-.13.08-.13-.06.14,0,.15.06-.14.06-.14,0,.17.05.15.06-.06.07-.1a.35.35,0,0,0,0-.23c0-.08,0-.1,0-.1l-.18.13s-.22-.08-.22-.08Z"/><path d="M11.71,11.47h0a.05.05,0,0,1,0,0s0,0-.05,0,0,0,0-.05a.05.05,0,0,1-.05,0,0,0,0,0,1,0,0l0,0s0,0,0-.05l0,0a.13.13,0,0,1-.05-.11,1.64,1.64,0,0,1,0-.18l0,0a.76.76,0,0,0,.21.08l.18-.12s0,0,0,.1a.36.36,0,0,1,0,.21l0,0h0s0,.09-.07.09Zm-.05-.17s0,0,0,.07a.15.15,0,0,0,0,.08h0s0-.05,0-.09v0a.23.23,0,0,0,0-.2c0-.06,0-.09,0-.1a.76.76,0,0,1-.15.12.51.51,0,0,1-.24-.08,1.23,1.23,0,0,1,0,.19s0,.07,0,.09,0,0,.05,0a.2.2,0,0,1,0-.05s0,0,0,.06,0,.05,0,.06,0,0,0,0,0,0,0-.06h0v0s0,0,0,.07,0,0,0,0,0,0,.05-.05a.2.2,0,0,1,0-.07s0,0,0,.08,0,0,0,0,.06,0,.06-.06a.24.24,0,0,1,0-.07Z"/><path class="cls-30" d="M12.4,10.93s0,.06,0,.09,0,.11.12.11a1.17,1.17,0,0,1,.31,0,1,1,0,0,0,.24,0h.12s.08,0,.11,0,.06,0,.05-.06,0-.05-.1-.05l-.17,0a.88.88,0,0,0-.2-.07H12.4Z"/><path d="M13.05,11.14a1.14,1.14,0,0,1-.25,0,.73.73,0,0,0-.2,0h-.1a.28.28,0,0,1-.11,0,.13.13,0,0,1,0-.08v0s0-.06,0-.06h.47A1,1,0,0,1,13,11l0,0,.17,0c.07,0,.11,0,.11.06s0,0,0,0a.09.09,0,0,1-.09,0h-.05a.34.34,0,0,1-.14,0Zm-.3,0h.06a1.05,1.05,0,0,0,.24,0l.12,0h.07a.1.1,0,0,0,.07,0c0-.06,0-.07-.07-.07l-.18,0,0,0-.16-.05h-.47V11s0,0,0,0a.1.1,0,0,0,0,.07.12.12,0,0,0,.09,0h.26Z"/><path class="cls-17" d="M15.6,5.3l3.09,1.51c.18,0,.11.14.24.29s.07.08.11.08S19.12,7,19.1,7L19,6.94s0,.08.15.08.1,0,0-.13a.22.22,0,0,0-.2-.1,2,2,0,0,1-.24-.11,1.67,1.67,0,0,0-.31-.2L15.64,5s-.19-.13-.29,0,0,.2.25.29Z"/><path d="M19,7.19h0s-.05,0-.08-.06l0,0A.37.37,0,0,1,18.84,7a.17.17,0,0,0-.15-.13l-3.1-1.51c-.15-.07-.24-.14-.26-.21a.1.1,0,0,1,0-.09.19.19,0,0,1,.27,0l2.81,1.51a2.42,2.42,0,0,1,.32.2,1.08,1.08,0,0,0,.23.11.26.26,0,0,1,.21.1s.06.09,0,.12a.12.12,0,0,1-.13,0h0s0,.08,0,.12a.08.08,0,0,1-.07.05ZM15.49,4.93a.15.15,0,0,0-.13.09.08.08,0,0,0,0,.08c0,.06.1.13.25.19L18.7,6.8a.17.17,0,0,1,.15.14.65.65,0,0,0,.09.15l0,0s.05,0,.08,0h0a.05.05,0,0,0,.06,0,.11.11,0,0,0,0-.1L19,7h0a.23.23,0,0,0,.12.06s.05,0,.06,0,0,0,0-.1A.2.2,0,0,0,19,6.8a1.19,1.19,0,0,1-.25-.11,2.06,2.06,0,0,0-.32-.2L15.64,5a.53.53,0,0,0-.15-.05Z"/><polygon points="16.98 5.84 15.54 5.1 15.55 5.08 16.98 5.84 16.98 5.84"/></g><g class="cls-31"><rect class="cls-32" x="16.89" y="5.29" width="0.72" height="0.8"/></g><g class="cls-5"><path d="M17.3,6.05A.53.53,0,0,1,17.11,6l0,0A.11.11,0,0,1,17,5.89a.2.2,0,0,1,0-.09v0a.24.24,0,0,1-.06-.11s0-.06,0-.07a.08.08,0,0,1,.07,0,.25.25,0,0,1,0-.19s0-.06,0-.07a1.26,1.26,0,0,0,.37,0h.16l0,0c.06.15.07.17.07.21s0,0,0,0,0,0,0,0,0,.18-.08.28l0,0a.2.2,0,0,1-.19.13ZM17,5.3v0a.46.46,0,0,0,0,.2.09.09,0,0,0-.06,0v.06a.13.13,0,0,0,0,.07l0,0v0s0,.06,0,.09l.07.07h0c.07,0,.2.09.28,0a.22.22,0,0,0,.07-.09l0,0a.36.36,0,0,0,.09-.26.18.18,0,0,1,0-.06.48.48,0,0,0,0-.22h-.21a1,1,0,0,1-.35,0Z"/><path d="M17.56,5.39s0-.08,0-.15,0,0-.07-.09a.15.15,0,0,0-.08-.05l-.09,0a.31.31,0,0,0-.13,0c-.07,0-.11,0-.16,0s-.1.06-.11.11a.41.41,0,0,0,0,.24c0,.15,0,.12,0,.12s0-.06.07,0,0-.08,0-.13a.4.4,0,0,1,0-.15,1,1,0,0,0,.31.06c.11,0,.24,0,.25,0l0,.08Z"/><path d="M16.91,5.6s0,0,0-.13a.57.57,0,0,1,0-.23A.23.23,0,0,1,17,5.12a.28.28,0,0,1,.12,0h.27a.22.22,0,0,1,.08,0l0,0a.12.12,0,0,1,0,.07c0,.09,0,.14,0,.16l0-.09s-.18.05-.24.05A.71.71,0,0,1,17,5.29s0,.11,0,.15a.85.85,0,0,1,0,.13s-.06,0-.06,0Zm.35-.51h-.13l-.11,0a.2.2,0,0,0-.11.11.62.62,0,0,0,0,.23c0,.09,0,.11,0,.11s0,0,.05,0v-.1a.5.5,0,0,1,0-.17,1.35,1.35,0,0,0,.32.06.64.64,0,0,0,.24,0l0,.07s0,0,0-.14,0,0,0-.06l0,0-.06,0h-.15Z"/></g><g class="cls-33"><rect class="cls-34" x="15.68" y="5.72" width="3.01" height="2.01"/></g><g class="cls-5"><path d="M16.54,7.74a.18.18,0,0,1-.15-.11V7.39H16.1l-.16,0s-.06,0-.06,0h0l0,0-.07,0h-.15c0-.07.08-.11.15-.13a.41.41,0,0,1,.16,0,.52.52,0,0,1,.21,0,.8.8,0,0,1,.21,0,.62.62,0,0,1,0-.32.27.27,0,0,0,0-.17.37.37,0,0,0,0-.09,1.37,1.37,0,0,1,0-.16c0-.16.1-.27.29-.33s.24-.09.23-.17a.71.71,0,0,1,0-.14,1,1,0,0,0,0-.17h0a.15.15,0,0,0,0,.07.22.22,0,0,0,0,.08s0,.05.06.07.23.11.33,0h0a.14.14,0,0,1-.11,0A.51.51,0,0,1,17.07,6,.12.12,0,0,1,17,5.9a.29.29,0,0,1,0-.09s0,0,0,0V5.9A.71.71,0,0,0,17,6c0,.09-.09.14-.24.19a.32.32,0,0,0-.28.31,1.37,1.37,0,0,0,0,.16s0,.06,0,.09a.42.42,0,0,1,0,.18.37.37,0,0,0,0,.28h0v0h0a.5.5,0,0,0-.19,0l-.22,0-.14,0s-.15,0-.16.1h.14a.22.22,0,0,1,.09,0l0,0,0,0a.83.83,0,0,0,.15,0h.32v.24a.16.16,0,0,0,.13.1h0c.05,0,.08-.07.11-.13l0,0a.93.93,0,0,0,.07-.19h0l0,.25a1.34,1.34,0,0,0,.36,0,3.28,3.28,0,0,0,.58-.06,1.16,1.16,0,0,1,.06-.42.82.82,0,0,0,.22.24.26.26,0,0,1,.11.15.1.1,0,0,0,.08,0l.06,0,.07-.06c.05,0,.08,0,.15-.13A1.59,1.59,0,0,0,18.61,7c0-.06,0-.09,0-.1l.06-.08-.32-.15a.31.31,0,0,0,0-.12c.05,0,.06,0,.06,0v0h0l0,0s-.06,0-.07,0a.47.47,0,0,0,0,.15v0l0,0a.29.29,0,0,1,0,.1c0,.07-.11.12-.11.12a.57.57,0,0,0-.14-.21,0,0,0,0,1,0,0,.39.39,0,0,0,0-.23h0l-.53-.28A.18.18,0,0,1,17.42,6h0a.17.17,0,0,0,.09.2l.54.28a.31.31,0,0,1,0,.24s0,0,0,0a.37.37,0,0,1,.13.21s.09,0,.09-.11a.14.14,0,0,0,0-.09.14.14,0,0,1,0-.06v0s0-.13,0-.16.05,0,.08-.06h0s0,0,0,.06,0,0-.05,0,0,.06,0,.12l.32.15a.35.35,0,0,1-.06.09.81.81,0,0,1,0,.09,1.26,1.26,0,0,1-.12.42c-.07.11-.11.12-.13.13l-.09.07h-.07s-.08,0-.1-.05a.37.37,0,0,0-.1-.14.76.76,0,0,1-.21-.23,2.22,2.22,0,0,0-.05.41,4.49,4.49,0,0,1-.56.07h0a1.19,1.19,0,0,1-.39,0,.81.81,0,0,1,0-.22s0,.11-.05.14l0,.06c0,.06-.07.13-.13.14Z"/><path d="M15.72,7.4h0a.1.1,0,0,1,.06,0l.06,0,.05,0,0,0s0,0,0,0l0,0-.07,0a.1.1,0,0,0-.06.05Z"/><path class="cls-1" d="M15.91,7.37l0,0h0s.06,0,.09,0Z"/><path d="M18.08,7.26s0-.06,0-.11A.24.24,0,0,1,18.22,7h0a.23.23,0,0,0-.11.17.35.35,0,0,1,0,.11Z"/><path d="M18.32,7.45A.93.93,0,0,0,18.51,7s0,0,0-.06h0s0,0,0,0a.72.72,0,0,1-.2.41Z"/><path class="cls-1" d="M18.49,6.71s0,.08,0,.11Z"/><path d="M18,7.19a.2.2,0,0,0-.08-.08s-.08,0-.08-.09.05.05.08.08a.14.14,0,0,1,.09.08Z"/><path d="M17.82,7.17h0a.17.17,0,0,0,0-.07.73.73,0,0,0,0-.22.92.92,0,0,1,0-.19.58.58,0,0,1,0-.1h0s0,.27.14.32a.17.17,0,0,1-.13-.11v.07a.58.58,0,0,1,0,.23s0,.05,0,.07Z"/><path d="M16.78,7.35h0a.58.58,0,0,0,0-.21.44.44,0,0,1,0-.24s0-.06,0-.08a.36.36,0,0,1,0-.31s0,.2,0,.3a.14.14,0,0,0,.12.06c.15,0,.2,0,.23-.06l0,0a.06.06,0,0,1,0,0s-.09.06-.24.06a.16.16,0,0,1-.12,0,.13.13,0,0,1,0,.06.57.57,0,0,0,0,.23.68.68,0,0,1,0,.22Z"/><path d="M17.52,6.89a.41.41,0,0,1-.26-.11.59.59,0,0,0,.26.1c.3,0,.3-.21.3-.28h0c0,.07,0,.29-.31.29Z"/><path d="M17.19,6.68h0a1.77,1.77,0,0,0,0-.24,1,1,0,0,1,0,.24Z"/><path d="M17.67,6.33h0a1.8,1.8,0,0,0-.28,0,.85.85,0,0,1,.28,0l0,0Z"/><path d="M17.21,6.31c.11,0,.11-.1.12-.17a.13.13,0,0,1,0-.06h0v0c0,.07,0,.16-.14.17Z"/><path class="cls-1" d="M17.06,6.06a1,1,0,0,1,0,.15Z"/><path d="M16.79,6.32a.8.8,0,0,1,.25,0l0,0h0a1.12,1.12,0,0,0-.25,0Z"/><path d="M16.61,7.29a.71.71,0,0,0,.09-.17s0,0,0,0h0l0,0a.34.34,0,0,1-.1.17Z"/><path d="M17.75,7.59a.4.4,0,0,1-.06-.38.37.37,0,0,0,0-.23s0-.07,0-.09h0a.56.56,0,0,1,0,.07.42.42,0,0,1,0,.25.44.44,0,0,0,0,.37Z"/><path d="M17.61,7.1,17.55,7l0-.06h0l0,.06a.47.47,0,0,1,.05.1Z"/><path d="M17.44,7.65a.2.2,0,0,1,.09-.24.93.93,0,0,1-.16-.36h0a1.33,1.33,0,0,0,.16.36.25.25,0,0,0-.1.24Z"/><path class="cls-1" d="M17.18,6.92s0,.06,0,.09Z"/><path d="M16.91,7.32c0-.09.09-.25.14-.31h0c-.05.05-.18.22-.16.3Z"/><path d="M17.19,7.41a.61.61,0,0,1,0-.31h0a.87.87,0,0,0,0,.31Z"/><path d="M17.36,7.5a.13.13,0,0,0-.11-.09v0a.12.12,0,0,1,.11.11Z"/><path d="M17,7.64c0-.12,0-.21.06-.24l0,0v0h0a.31.31,0,0,0-.07.23Z"/><path d="M16.56,7.37l-.08,0h0l-.08,0h0a.17.17,0,0,1,.1,0l.07,0Z"/><path class="cls-1" d="M17.35,5.55c0,.06,0,0,0,.08Z"/><path class="cls-1" d="M17,5.7s0,0,0,0Z"/><path d="M17.64,6.85s0,0,0,0a0,0,0,0,1,0,0,0,0,0,0,1,0,0,0,0,0,0,1,0,0Z"/><path class="cls-1" d="M17.64,6.85s0,0,0,0a0,0,0,0,1,0,0,0,0,0,0,1,0,0A0,0,0,0,1,17.64,6.85Z"/><path d="M16.85,6.86s0,0,0,0a0,0,0,0,1,0,0,0,0,0,0,1,0,0,0,0,0,0,1,0,0Z"/><path class="cls-1" d="M16.85,6.86s0,0,0,0a0,0,0,0,1,0,0,0,0,0,0,1,0,0A0,0,0,0,1,16.85,6.86Z"/><path d="M17.34,5.75c-.06,0-.05,0,0-.07s0,.05,0,.06h.13a.07.07,0,0,0,0-.06v0s0-.09,0-.12.11,0,.13,0h0s0,0-.11,0,0,.05,0,.1v0h0a.06.06,0,0,1,0,.07s0,0,0,0h-.08Z"/><path d="M17.08,5.55c.05,0,.06-.06.13-.06s.11,0,.11,0h0a.17.17,0,0,0-.09,0,.15.15,0,0,0-.13,0Z"/><path class="cls-6" d="M17.55,5.55s0,0-.11,0,.07.05,0,.05a0,0,0,0,0,.06,0s0,0,0,0Z"/><path d="M17.51,5.62h0c-.06,0-.06,0-.06,0a.11.11,0,0,1,.08,0h0s0,.07,0,.07Z"/><path d="M17.51,5.59s0,0,0,0a0,0,0,0,1,0,0s0,0,0,0l0,0Z"/><path class="cls-1" d="M17.51,5.59s0,0,0,0a0,0,0,0,1,0,0s0,0,0,0Z"/><path d="M17.46,5.86s0,0-.06,0l-.06,0-.06,0a.06.06,0,0,1,.06,0l.06,0s.05,0,.07,0Z"/><path d="M17.45,5.88h-.18l.07,0h.12v0Z"/><path d="M17.36,5.92l-.09,0v0a.23.23,0,0,0,.18,0,.12.12,0,0,1-.09,0Z"/><path class="cls-6" d="M17.27,5.58s-.07,0-.1,0l-.06,0,.06,0s0,0,.08,0l0,0Z"/><path d="M17.21,5.62h0l-.06,0h0l.09,0a.08.08,0,0,1,.07,0l-.07,0-.08,0h0l.06,0h0l0,0h0l0,0Z"/><path d="M17.21,5.6a0,0,0,0,1,0,0,0,0,0,0,1,0,0s0,0,0,0,0,0,0,0Z"/><path class="cls-1" d="M17.21,5.6a0,0,0,0,1,0,0,0,0,0,0,1,0,0s0,0,0,0S17.22,5.6,17.21,5.6Z"/><path class="cls-6" d="M18,8.29a1.69,1.69,0,0,0-.18-.52,3.35,3.35,0,0,1-.75.06l-.24,0a.57.57,0,0,0-.05.17c0,.17-.07,1-.08,1.15a2.17,2.17,0,0,0,0,.43c0,.33-.09,1-.09,1.35l.09,0s.5,0,.5,0a10.31,10.31,0,0,0-.05-1.45,1.83,1.83,0,0,1,.05-.19,2.88,2.88,0,0,0,.15-.4s.2.55.21.65,0,1.32.06,1.42l.31.24a.86.86,0,0,0,.32-.15A7.29,7.29,0,0,0,18,9.87a1.25,1.25,0,0,1,0-.36c0-.07,0-.95,0-1.22Z"/><path d="M17.87,11.17h0l-.32-.24c0-.06,0-.54,0-.93s0-.46,0-.49-.19-.58-.21-.64a.68.68,0,0,1-.07.25,1.14,1.14,0,0,0-.06.15,1.37,1.37,0,0,0-.05.18,8.91,8.91,0,0,1,.05,1.4v.05s0,0-.23,0h-.28l-.09,0a6.32,6.32,0,0,1,0-.71c0-.25,0-.49,0-.65a2.3,2.3,0,0,1,0-.43c0-.11,0-.4.05-.67s0-.41,0-.48a.59.59,0,0,1,0-.18l.25,0a1.75,1.75,0,0,0,.39,0,2.88,2.88,0,0,0,.36,0h0v0a1.86,1.86,0,0,1,.17.5c0,.28,0,1.21,0,1.22v.05a.87.87,0,0,0,0,.3A7,7,0,0,1,18.19,11a.74.74,0,0,1-.32.16Zm-.32-.25.32.23h0a.7.7,0,0,0,.3-.15A6.85,6.85,0,0,0,18,9.87a1.13,1.13,0,0,1,0-.32v0s0-.93,0-1.22a2.29,2.29,0,0,0-.16-.49,1.67,1.67,0,0,0-.37,0,2.42,2.42,0,0,1-.36,0l-.27,0a.81.81,0,0,0,0,.16c0,.08,0,.27,0,.48s0,.56,0,.67a2.3,2.3,0,0,0,0,.43c0,.16,0,.4,0,.65a6.73,6.73,0,0,0-.05.7h.36c.2,0,.21,0,.21,0v-.06a10.65,10.65,0,0,0,0-1.39,1,1,0,0,1,0-.19,1.14,1.14,0,0,1,.06-.15,1.31,1.31,0,0,0,.09-.25,4.37,4.37,0,0,1,.23.65s0,.24,0,.49,0,.87,0,.93Z"/><path d="M18,8.22a.66.66,0,0,1-.26-.36h0a.73.73,0,0,0,.24.37Z"/><path d="M17.68,9.45a7.57,7.57,0,0,0-.23-1.55h0a7.76,7.76,0,0,1,.21,1.56Z"/><path d="M17.61,9.69a.25.25,0,0,1-.13-.19h0a.44.44,0,0,0,.12.19Z"/><path d="M17.75,10.41a1.48,1.48,0,0,1,0-.32c0-.17,0-.35,0-.39h0s0,.21,0,.38,0,.29,0,.33Z"/><path d="M17.87,11.16a3.06,3.06,0,0,0-.11-.64h0a2.46,2.46,0,0,1,.09.65Z"/><path d="M16.64,10.89a3,3,0,0,0,.11-1h0a2.47,2.47,0,0,1-.12,1Z"/><path d="M17.29,8.85c0-.18-.08-.2-.08-.2a.21.21,0,0,0,.08-.11s0-.53,0-.61h0c0,.08,0,.58,0,.61s0,.09-.09.11.06,0,.07.2Z"/><path d="M17.53,8.79a2,2,0,0,1-.12-.38h0c0,.06.07.29.1.38Z"/><path d="M16.77,9.5c.06-.56.12-1.57.12-1.58a.39.39,0,0,0,.18,0v0s-.17,0-.19,0-.05,1-.12,1.57Z"/><path d="M17.18,8.62a4.35,4.35,0,0,1,0-.57h0c0,.07,0,.57,0,.57Z"/><path d="M17,8.83s0-.13,0-.14h0a.24.24,0,0,0-.05.14Z"/><path class="cls-1" d="M17.65,7.86l-.1,0Z"/><path class="cls-1" d="M17.37,8s0,.16,0,.16Z"/><path d="M17.06,9.59a.14.14,0,0,1,0-.15h0a.13.13,0,0,0,0,.14Z"/><path class="cls-29" d="M17.81,7.76a.32.32,0,0,0,0-.16l-.29,0a2.22,2.22,0,0,1-.43,0l-.26,0a.92.92,0,0,0,0,.19,1.57,1.57,0,0,0,.29,0,3.7,3.7,0,0,0,.5,0l.25,0Z"/><path d="M17.14,7.84h-.08l-.29,0s0-.17,0-.2a1.82,1.82,0,0,1,.27,0,2.22,2.22,0,0,0,.43,0l.28,0a.27.27,0,0,1,.06.17,1.2,1.2,0,0,1-.26,0,2.34,2.34,0,0,1-.42,0Zm-.36,0a1.69,1.69,0,0,0,.28,0,3.78,3.78,0,0,0,.5,0l.24,0a.3.3,0,0,0,0-.16,1.22,1.22,0,0,1-.28.05,2.21,2.21,0,0,1-.44,0l-.25,0a.55.55,0,0,0,0,.17Z"/><polygon class="cls-6" points="17.7 7.78 17.68 7.61 17.64 7.61 17.65 7.79 17.7 7.78"/><polygon points="17.65 7.8 17.63 7.61 17.68 7.6 17.71 7.78 17.65 7.8 17.65 7.8"/><polygon class="cls-6" points="16.94 7.64 16.94 7.83 16.89 7.82 16.9 7.63 16.94 7.64"/><path d="M17,7.84h-.06v-.2H17v.21Zm-.05-.21v.19h0V7.64Z"/><polygon class="cls-6" points="17.48 7.64 17.49 7.82 17.47 7.82 17.44 7.64 17.48 7.64 17.48 7.64"/><polygon points="17.5 7.83 17.47 7.83 17.43 7.63 17.48 7.63 17.5 7.83 17.5 7.83"/><path class="cls-13" d="M18.09,11.08a.66.66,0,0,1,0,.18s0,.12,0,.12-.05-.1-.05-.1,0,.11,0,.13-.07-.12-.07-.12.05.13,0,.14-.08-.13-.08-.13.05.14,0,.15-.06-.14-.06-.14,0,.17-.06.15,0-.06-.06-.1a.33.33,0,0,1,0-.23c0-.08,0-.1,0-.1l.17.13s.23-.08.23-.08Z"/><path d="M17.75,11.47h0s0-.05-.06-.09v-.05h0a.28.28,0,0,1,0-.21c0-.07,0-.09,0-.09s.11.06.19.11h0a1,1,0,0,0,.22-.08l0,0a.59.59,0,0,1,0,.14s0,.09,0,.11-.05,0-.06,0a.06.06,0,0,1,0,.05l0,0s0,0,0,0a.05.05,0,0,1-.05,0,0,0,0,0,1,0,0s-.07,0-.08,0a.05.05,0,0,1,0,0Zm-.05-.42a.23.23,0,0,1,0,.09.3.3,0,0,0,0,.19v.05s0,.07.06.08h0a.15.15,0,0,0,0-.08.21.21,0,0,1,0-.06s0,0,0,.06,0,.07.05.07,0,0,0-.06a.2.2,0,0,1,0-.08s0,0,0,.08a0,0,0,0,0,0,0s0,0,0,0a.23.23,0,0,1,0-.09h0a.25.25,0,0,1,0,.07l0,0s0-.05,0-.07a.13.13,0,0,1,0-.05s0,0,0,.05l0,0a.07.07,0,0,0,0-.09.63.63,0,0,0,0-.16v0a.54.54,0,0,1-.2.09h0l-.18-.12Z"/><path class="cls-13" d="M17.07,10.93s0,.06,0,.09,0,.11-.13.11a1.1,1.1,0,0,0-.3,0,1.06,1.06,0,0,1-.24,0h-.13s-.08,0-.1,0a.07.07,0,0,1-.06-.06c0-.05,0-.05.1-.05l.18,0a.63.63,0,0,1,.19-.07h.47Z"/><path d="M16.42,11.14h-.13s0,0-.06,0a.09.09,0,0,1-.09,0,.08.08,0,0,1,0,0c0-.05.05-.06.11-.06l.17,0,0,0a1,1,0,0,1,.16-.05h.46s0,0,0,.08,0,.08,0,.1a.1.1,0,0,1-.09,0l-.12,0h-.2a1.1,1.1,0,0,1-.24,0Zm-.14,0,.14,0a1,1,0,0,0,.23,0,.79.79,0,0,1,.21,0H17c.06,0,.07,0,.09,0a.1.1,0,0,0,0-.07.78.78,0,0,0,0-.09H16.6l-.16.05,0,0-.18,0c-.06,0-.09,0-.09,0s.05,0,.08,0Z"/><path class="cls-35" d="M11.83,11.17V11l.06.06,0-.12S12,11,12,11v-.13l.1.11a.26.26,0,0,1,0-.15.25.25,0,0,1,.07.15c0,.06.07-.1.07-.1l.06.18,0-.06,0,.13.08-.12.07.15h.15l0,.08.06-.07.09.05.11,0s.09.05.09.05l0-.07s.07,0,.08.06l.06-.1a.49.49,0,0,1,.08.1.36.36,0,0,1,0-.11s0,0,.07,0l0-.15a.16.16,0,0,1,.09.07c0,.05,0-.08,0-.08a.72.72,0,0,1,.11.18,2.77,2.77,0,0,1-1,.15c-.48-.07-.88-.16-.88-.16Z"/><path class="cls-11" d="M13.07,11.24s-.06,0-.1,0l-.1,0-.1-.06,0,.08,0-.09h-.14L12.47,11l-.07.12L12.34,11l0,.07-.07-.18c0,.12-.05.11-.05.11a.29.29,0,0,0-.09-.16.37.37,0,0,0,0,.14l-.12-.1L12,11,11.91,11v.12L11.82,11l0,.15h0V11l.08.05v-.12S12,11,12,11l0-.12.11.1a.19.19,0,0,1,0-.14.18.18,0,0,1,.09.15h0s0-.05.05-.1l.07.18,0-.07.06.14.07-.12.08.14h.14l0,.09,0-.08.1,0,.1,0a.15.15,0,0,1,.09.05.09.09,0,0,1,0-.06.08.08,0,0,1,.09.06l0-.11a.38.38,0,0,1,.09.09.36.36,0,0,1,0-.1s.06,0,.08.05l0-.15s.07,0,.1.06,0,0,0-.07h0a.34.34,0,0,1,.13.18L13.59,11s0,.09,0,.1a.23.23,0,0,0-.11-.08l0,.15-.06-.05a.23.23,0,0,0,0,.11l-.1-.1,0,.1-.06-.05a.14.14,0,0,0-.07.06Z"/><path class="cls-35" d="M15.8,11.16a.41.41,0,0,1,.07-.12s.07.09.07.12l.06,0,.06.05.07,0,.06,0,.11,0,.05,0,.18,0,.06,0,.07-.08.06.06.09-.09a.23.23,0,0,1,.06.07.36.36,0,0,0,.09-.07s.07,0,.09,0a.14.14,0,0,0,0-.08s.05,0,.07,0,0-.08.07-.08a.16.16,0,0,1,0,.13l.12-.08a.38.38,0,0,1,0,.18s.09-.14.11-.09a.37.37,0,0,1,0,.19l.07-.05,0,.09.08,0a4.49,4.49,0,0,1-1,0,4.39,4.39,0,0,1-.91-.21Z"/><path class="cls-11" d="M17.59,11.36l0-.1-.06.05a.5.5,0,0,0,0-.19s-.06.05-.09.1a.93.93,0,0,0,0-.18l-.11.07a.36.36,0,0,0,0-.13s-.06.08-.06.08L17.1,11a.14.14,0,0,1-.05.09.08.08,0,0,0-.09,0,.24.24,0,0,1-.09.06l-.06-.06-.09.09-.07-.06,0,.08-.08,0-.17,0-.05,0-.11,0-.07-.06-.06,0L16,11.12l-.05,0-.09-.11a.8.8,0,0,0,0,.11h0a.62.62,0,0,1,.06-.12.27.27,0,0,1,.09.12l.05,0,.07.06.05-.05.07.06.11,0,.06,0,.17,0,.07,0,0-.08.07.07.09-.1a.14.14,0,0,1,.06.07s.07,0,.08-.07.06,0,.08,0,0,0,0-.05.06,0,.08,0,0-.08.07-.08a.13.13,0,0,1,0,.13.31.31,0,0,1,.11-.08.24.24,0,0,1,0,.16l.08-.08a.3.3,0,0,1,0,.21l.07-.06,0,.1.07,0-.08,0Z"/><path class="cls-35" d="M15.33,11.44a1.16,1.16,0,0,0,.48-.44c-.1.08-.07.06-.12.06A.2.2,0,0,1,15.6,11a.14.14,0,0,1-.1.05.27.27,0,0,1-.11-.05.35.35,0,0,1-.16.05.17.17,0,0,1-.11-.06l-.16.05a.59.59,0,0,1-.13-.05.3.3,0,0,1-.1.05.6.6,0,0,1-.16-.05l-.15,0a.39.39,0,0,1-.12,0,.32.32,0,0,1-.14,0l-.09,0a.4.4,0,0,1-.16,0,.48.48,0,0,1-.13,0s0,0-.12,0,.05,0,0,0a1.77,1.77,0,0,0,.42.4.27.27,0,0,0,.14-.07.64.64,0,0,0,.16.07.2.2,0,0,0,.13,0,.52.52,0,0,0,.12,0,.16.16,0,0,0,.11,0,.34.34,0,0,0,.28,0,.44.44,0,0,0,.13,0,.22.22,0,0,0,.09,0,.14.14,0,0,0,.1,0Z"/><path class="cls-36" d="M14.74,11.75a3.08,3.08,0,0,0,.61-.31s-.14,0-.1,0a.14.14,0,0,1-.09,0l-.15,0-.15,0a.39.39,0,0,1-.12,0,.32.32,0,0,1-.14,0l-.09,0a.4.4,0,0,1-.16,0,.48.48,0,0,1-.13-.05.62.62,0,0,1-.14.05,1.92,1.92,0,0,0,.66.33Z"/><path d="M14.74,11.76h0a1.83,1.83,0,0,1-.66-.33l.14-.07.13.05a.52.52,0,0,0,.16,0l.09,0a.27.27,0,0,0,.13,0,.63.63,0,0,0,.13,0l.15,0,.15,0a.15.15,0,0,0,.07,0h0a.23.23,0,0,0,.11,0,2.11,2.11,0,0,1-.61.33Zm-.52-.38a.34.34,0,0,1-.14,0,2.56,2.56,0,0,0,.66.31,3.66,3.66,0,0,0,.6-.3s-.11,0-.11,0,0,0-.07,0a.64.64,0,0,1-.15,0l-.15,0a.63.63,0,0,1-.13,0,.24.24,0,0,1-.11,0l-.11,0a.5.5,0,0,1-.14,0,.46.46,0,0,1-.15,0Z"/><path d="M15.25,11.07h0a.42.42,0,0,1-.12-.06l-.15.05a.58.58,0,0,1-.14-.05s-.06,0-.1,0a.37.37,0,0,1-.15-.05l-.15,0a.27.27,0,0,1-.13,0,.16.16,0,0,1-.14,0l-.09,0s-.09,0-.15,0l-.13,0a.21.21,0,0,1-.12,0c.1,0,.11-.06.11-.06s.08,0,.14,0a.4.4,0,0,0,.15,0l.1,0a.31.31,0,0,0,.13,0l.13,0,.15,0,.15,0a.3.3,0,0,0,.1,0A.48.48,0,0,0,15,11l.16,0a.27.27,0,0,0,.11.06.29.29,0,0,0,.15-.05l.12,0c.05,0,.09,0,.09,0h0l.1,0s.1,0,.12,0v0a.25.25,0,0,1-.14,0,.12.12,0,0,1-.08,0,.1.1,0,0,1-.11,0l-.11,0a.28.28,0,0,1-.14.05Z"/><path class="cls-35" d="M15.46,11.5a.68.68,0,0,1-.59.39,2.24,2.24,0,0,1-1.12-.27s.06-.11.1-.13a.35.35,0,0,1,.11.15.36.36,0,0,1,0-.11s.1.05.12.12a.36.36,0,0,1,.07-.09s.05.08.05.13.07-.07.11-.07.07,0,.09.16.07-.07.1-.06.08.06.06.13.09,0,.2-.07l.1.07a1.12,1.12,0,0,0,.12-.17s.08,0,.08.08a.77.77,0,0,1,.06-.15s.07,0,.07.08,0-.1.07-.12,0,0,0,.08a.49.49,0,0,1,.11-.15Z"/><path d="M14.73,11.78h0A2.52,2.52,0,0,1,13,9.29V7.39H16.4l0,1.91a2.52,2.52,0,0,1-1.68,2.48Zm1.65-4.39-3.32,0,0,1.88a2.48,2.48,0,0,0,1.65,2.45,2.48,2.48,0,0,0,1.65-2.45V7.39Z"/><path class="cls-11" d="M14.6,11.87h0a.14.14,0,0,0-.06-.14s0,0-.08,0a.24.24,0,0,0-.11-.15s-.07,0-.09.07a.7.7,0,0,0-.05-.13s-.06.06-.07.08a.44.44,0,0,0-.14-.11l0,.1h0a.46.46,0,0,0-.12-.14,1.06,1.06,0,0,0-.09.13h0a.64.64,0,0,1,.1-.13.3.3,0,0,1,.12.13.16.16,0,0,1,0-.08h0a.18.18,0,0,1,.13.11.24.24,0,0,1,.06-.08c.05,0,.07.08.07.13s.06-.08.1-.08a.22.22,0,0,1,.1.17s.06-.08.09-.07.09.06.07.15h0l0,0a.42.42,0,0,1,.15-.06l.1.08.11-.17s.08,0,.09.06a.22.22,0,0,1,.06-.14.11.11,0,0,1,.07.06.12.12,0,0,1,.06-.1.14.14,0,0,1,.07.08.22.22,0,0,1,.09-.14l-.09.15a.45.45,0,0,0-.07-.07s0,.11,0,.11h0a.13.13,0,0,0-.05-.07s-.06.09-.07.14a.28.28,0,0,0-.09-.07l-.11.17-.12-.08-.14.07-.05,0Z"/></g></g></g></g></g></svg>