<svg xmlns="http://www.w3.org/2000/svg" xmlns:xlink="http://www.w3.org/1999/xlink" viewBox="0 0 29.46 17.19"><defs><style>.cls-1{fill:none;}.cls-2{clip-path:url(#clip-path);}.cls-3{fill:#250392;}.cls-4{fill:#f5cc28;}.cls-5{fill:#fff;}</style><clipPath id="clip-path"><rect class="cls-1" width="29.46" height="17.19"/></clipPath></defs><g id="Layer_2" data-name="Layer 2"><g id="Layer_1-2" data-name="Layer 1"><g id="EUROPE"><g id="BOSNIA"><g class="cls-2"><rect class="cls-3" width="29.46" height="17.19"/><polygon class="cls-4" points="6.65 0 23.84 17.19 23.84 0 6.65 0"/><polygon class="cls-5" points="4.16 0 3.56 0 2.96 0 2.6 1.13 3.56 0.43 4.52 1.13 4.16 0"/><polygon class="cls-5" points="20.38 16.49 19.19 16.49 20.15 17.19 20.75 17.19 21.34 17.19 22.3 16.49 21.11 16.49 20.75 15.36 20.38 16.49"/><polygon class="cls-5" points="5.71 2.58 6.67 3.27 6.3 2.15 7.26 1.45 6.08 1.45 5.71 0.32 5.34 1.45 4.16 1.45 5.12 2.15 4.75 3.27 5.71 2.58"/><polygon class="cls-5" points="7.86 4.73 8.82 5.42 8.45 4.3 9.41 3.6 8.22 3.6 7.86 2.47 7.49 3.6 6.3 3.6 7.26 4.29 6.9 5.42 7.86 4.73"/><polygon class="cls-5" points="10.01 6.88 10.96 7.57 10.6 6.44 11.56 5.75 10.37 5.75 10.01 4.62 9.64 5.75 8.45 5.75 9.41 6.44 9.04 7.57 10.01 6.88"/><polygon class="cls-5" points="12.15 9.02 13.11 9.72 12.75 8.59 13.71 7.89 12.52 7.89 12.15 6.77 11.79 7.89 10.6 7.89 11.56 8.59 11.19 9.72 12.15 9.02"/><polygon class="cls-5" points="14.3 11.17 15.26 11.87 14.89 10.74 15.85 10.04 14.67 10.04 14.3 8.91 13.94 10.04 12.75 10.04 13.71 10.74 13.34 11.87 14.3 11.17"/><polygon class="cls-5" points="16.45 13.32 17.41 14.02 17.04 12.89 18 12.19 16.82 12.19 16.45 11.06 16.08 12.19 14.9 12.19 15.86 12.89 15.49 14.02 16.45 13.32"/><polygon class="cls-5" points="18.6 15.47 19.56 16.16 19.19 15.04 20.15 14.34 18.96 14.34 18.6 13.21 18.23 14.34 17.05 14.34 18 15.04 17.64 16.16 18.6 15.47"/></g></g></g></g></g></svg>