<svg xmlns="http://www.w3.org/2000/svg" xmlns:xlink="http://www.w3.org/1999/xlink" viewBox="0 0 29.46 17.19"><defs><style>.cls-1{fill:none;}.cls-2{clip-path:url(#clip-path);}.cls-3{fill:#e4b03a;}.cls-4{fill:#d03633;}.cls-5{fill:#fff;}</style><clipPath id="clip-path"><rect class="cls-1" width="29.46" height="17.19"/></clipPath></defs><g id="Layer_2" data-name="Layer 2"><g id="cá»"><g id="south_asia" data-name="south asia"><g class="cls-2"><rect class="cls-3" width="29.46" height="17.19"/><polygon class="cls-4" points="29.46 0 0 17.19 29.46 17.19 29.46 0"/><g class="cls-2"><path class="cls-5" d="M15.64,5.37c-.14,0-.23,0-.23.21s.1.29.24.22Z"/><path d="M15.57,5.83h0c-.1,0-.16-.1-.17-.25a.27.27,0,0,1,.06-.19.16.16,0,0,1,.18,0l0,.43a.16.16,0,0,1-.09,0Zm0-.47a.13.13,0,0,0-.09,0,.24.24,0,0,0-.05.18c0,.18.1.28.23.22l0-.43Z"/><path class="cls-5" d="M15.77,5c-.12-.1-.23-.06-.29.12s0,.31.16.29Z"/><path d="M15.61,5.45a.13.13,0,0,1-.12-.06.27.27,0,0,1,0-.24c.06-.18.18-.23.3-.13l-.12.43Zm0-.46c-.07,0-.13,0-.16.16a.25.25,0,0,0,0,.23s.06,0,.11,0h0l.12-.4a.19.19,0,0,0-.11,0Z"/><path class="cls-5" d="M16,4.69c-.1-.11-.21-.09-.3.08s0,.3.12.31Z"/><path d="M15.78,5.09h0A.18.18,0,0,1,15.63,5a.27.27,0,0,1,0-.24c.08-.17.2-.2.31-.08l-.19.4Zm.05-.46c-.06,0-.11,0-.16.14a.24.24,0,0,0,0,.24.12.12,0,0,0,.12.06L16,4.69a.19.19,0,0,0-.13-.06Z"/><path class="cls-5" d="M15.83,6.32a.29.29,0,0,0-.08.45.25.25,0,0,0,.43,0Z"/><path d="M16,6.9h0a.27.27,0,0,1-.22-.13.33.33,0,0,1-.06-.3.23.23,0,0,1,.14-.16l.35.46A.24.24,0,0,1,16,6.9Zm-.14-.58a.24.24,0,0,0-.13.15.33.33,0,0,0,.06.3.26.26,0,0,0,.21.11h0a.24.24,0,0,0,.2-.11l-.34-.45Z"/><path class="cls-5" d="M15.63,5.81c-.16,0-.31.17-.34.37s-.39.34-.19.72a.43.43,0,0,1,.33-.39.45.45,0,0,0,.4-.19Z"/><path d="M15.1,6.92v0a.38.38,0,0,1,.07-.49.43.43,0,0,0,.12-.23c0-.21.19-.43.35-.38l.21.52a.46.46,0,0,1-.41.2.43.43,0,0,0-.33.38v0Zm.48-1.11c-.14,0-.26.19-.28.37a.44.44,0,0,1-.13.24.37.37,0,0,0-.08.46.43.43,0,0,1,.34-.38.42.42,0,0,0,.4-.19l-.21-.5Z"/><path class="cls-5" d="M16.16,6.8c-.2,0-.22.3-.09.49s.49.12.48,0Z"/><path d="M16.32,7.4h0a.3.3,0,0,1-.25-.11A.4.4,0,0,1,16,6.93a.21.21,0,0,1,.15-.14l.41.46a.13.13,0,0,1,0,.08.31.31,0,0,1-.21.07Zm-.17-.6a.24.24,0,0,0-.14.14.36.36,0,0,0,.07.34.31.31,0,0,0,.24.1h0a.28.28,0,0,0,.2-.06.09.09,0,0,0,0-.07l-.4-.45Z"/><path class="cls-5" d="M16.71,8.35c0-.16-.26-.23-.39-.2s-.38,0-.44-.14c0,.11,0,.23.21.29s.14.15.1.19.42,0,.52-.14Z"/><path d="M16.3,8.51h-.11a.16.16,0,0,0,0-.1s0-.07-.11-.09a.33.33,0,0,1-.21-.16.17.17,0,0,1,0-.14.45.45,0,0,0,.44.14.4.4,0,0,1,.35.09.12.12,0,0,1,0,.11c-.08.15-.31.16-.41.16ZM15.88,8a.23.23,0,0,0,0,.14.31.31,0,0,0,.2.14.18.18,0,0,1,.13.11.1.1,0,0,1,0,.1h.11c.08,0,.32,0,.4-.15a.13.13,0,0,0,0-.1.4.4,0,0,0-.34-.09c-.14,0-.38,0-.44-.15Z"/><path class="cls-5" d="M16.55,7.29c-.19-.08-.3,0-.37.17s-.43,0-.54.19c.15-.07.3.07.37.12a.42.42,0,0,0,.65-.23Z"/><path d="M16.27,7.85h0A.45.45,0,0,1,16,7.77l0,0c-.08-.06-.22-.15-.33-.1,0-.15.18-.13.29-.13s.19,0,.24-.07.2-.25.39-.16l.11.25a.38.38,0,0,1-.4.31Zm-.55-.23a.45.45,0,0,1,.26.12l0,0a.44.44,0,0,0,.26.07h0a.35.35,0,0,0,.38-.29l-.1-.25-.11,0a.3.3,0,0,0-.25.19c-.06.1-.16.08-.26.08s-.23,0-.29.11a.11.11,0,0,1,.08,0Z"/><path class="cls-5" d="M16.66,7.51a.58.58,0,0,0-.25.43c0,.12.16.37.34.38.1-.2.15-.64-.09-.81Z"/><path d="M16.75,8.33h0c-.18,0-.35-.27-.35-.39a.54.54,0,0,1,.26-.43c.25.17.19.61.09.82Zm-.09-.81a.58.58,0,0,0-.25.42c0,.11.17.36.33.38.1-.2.15-.64-.08-.8Z"/><path class="cls-5" d="M15.88,8.4c0-.07.1-.09.17-.07s.18.09.14.16Z"/><path d="M16.19,8.5l-.31-.09c0-.09.1-.11.17-.09a.25.25,0,0,1,.15.11.08.08,0,0,1,0,.07ZM16,8.33c-.06,0-.11,0-.11.07l.3.09a.07.07,0,0,0,0-.05s-.08-.09-.13-.1Z"/><path class="cls-5" d="M14.84,8c0-.08.11-.22.29-.14s.21.23.13.29Z"/><path d="M15.26,8.18h0L14.84,8s0-.07,0-.1a.24.24,0,0,1,.28-.06.27.27,0,0,1,.17.19.12.12,0,0,1,0,.11ZM15,7.86a.24.24,0,0,0-.16.07.19.19,0,0,0,0,.09l.42.14a.09.09,0,0,0,0-.1.26.26,0,0,0-.16-.18l-.1,0Z"/><path class="cls-5" d="M15.28,8.18s.11-.14.33-.09.28.2.27.31Z"/><path d="M15.89,8.41l-.63-.23,0,0a.34.34,0,0,1,.33-.05c.27.06.28.24.28.31Zm-.41-.33a.26.26,0,0,0-.19.07l.58.24c0-.07,0-.23-.26-.29l-.13,0Z"/><path class="cls-5" d="M14.81,8a.17.17,0,0,0,0-.3c-.19-.09-.12-.33-.24-.38s-.23-.13-.24-.21a.24.24,0,0,0,.06.3c.09.07-.06.37,0,.45Z"/><path d="M14.82,8h0l-.41-.15c-.06,0,0-.15,0-.25s0-.17,0-.2a.22.22,0,0,1-.06-.3c0,.08.14.16.25.2a.25.25,0,0,1,.09.16.27.27,0,0,0,.15.22.23.23,0,0,1,.1.16.17.17,0,0,1-.07.16Zm-.52-.9a.25.25,0,0,0,.07.29s0,.12,0,.21,0,.2,0,.24l.4.15a.18.18,0,0,0,.07-.15.19.19,0,0,0-.1-.14.35.35,0,0,1-.16-.24c0-.07,0-.12-.08-.14s-.24-.13-.24-.22Z"/><path class="cls-5" d="M12.34,8a.28.28,0,0,0-.42,0,.23.23,0,0,0,0,.33Z"/><path d="M11.93,8.28h0a.2.2,0,0,1-.07-.15.22.22,0,0,1,.06-.19.3.3,0,0,1,.44,0l-.42.32Zm.21-.42a.28.28,0,0,0-.22.09.25.25,0,0,0-.06.18.19.19,0,0,0,.07.13L12.34,8a.24.24,0,0,0-.2-.09Z"/><path class="cls-5" d="M12.9,7.73c0-.2-.28-.22-.42-.17a.3.3,0,0,0-.14.4Z"/><path d="M12.34,8h0a.26.26,0,0,1,0-.23.32.32,0,0,1,.16-.18c.14,0,.39,0,.42.18L12.34,8Zm.28-.43a.32.32,0,0,0-.14,0,.3.3,0,0,0-.15.16.28.28,0,0,0,0,.22l.54-.22c0-.17-.22-.19-.27-.19Z"/><path class="cls-5" d="M13.27,7.71A.38.38,0,0,0,13,7.25c-.16,0-.35,0-.42-.19,0,.13.07.22.19.3s0,.28.17.4Z"/><path d="M12.93,7.76h0a.23.23,0,0,1-.12-.24c0-.07,0-.12-.06-.15s-.22-.17-.18-.32c.06.13.2.15.34.17l.08,0a.42.42,0,0,1,.27.22.28.28,0,0,1,0,.25l-.34,0Zm-.36-.7c0,.14.08.22.19.29s.06.1.06.17a.26.26,0,0,0,.11.23l.34,0a.32.32,0,0,0,0-.23A.43.43,0,0,0,13,7.25h-.08c-.14,0-.29,0-.34-.18Z"/><path class="cls-5" d="M13.25,7.71a.2.2,0,0,1,.2-.27c.17,0,.26.13.19.28Z"/><path d="M13.65,7.73h-.4a.22.22,0,0,1,0-.21.21.21,0,0,1,.17-.08.26.26,0,0,1,.21.11.19.19,0,0,1,0,.18Zm-.2-.28a.19.19,0,0,0-.17.07.26.26,0,0,0,0,.19h.39a.17.17,0,0,0,0-.17.22.22,0,0,0-.19-.09Z"/><path class="cls-5" d="M13.62,7.72a.2.2,0,0,1,.24-.24.19.19,0,0,1,.14.31Z"/><path d="M14,7.79l-.39-.06a.21.21,0,0,1,.24-.26A.25.25,0,0,1,14,7.6a.22.22,0,0,1,0,.19Zm-.2-.31a.21.21,0,0,0-.14.07.22.22,0,0,0-.05.17l.38.06a.18.18,0,0,0,0-.17.22.22,0,0,0-.17-.12Z"/><path class="cls-5" d="M14,7.78a.21.21,0,0,1,.26-.23c.16,0,.23.18.13.31Z"/><path d="M14.37,7.87,14,7.79a.25.25,0,0,1,0-.19.22.22,0,0,1,.21-.06.25.25,0,0,1,.17.14.2.2,0,0,1,0,.19Zm-.19-.32a.2.2,0,0,0-.14.06.22.22,0,0,0,0,.17l.37.08a.19.19,0,0,0,0-.17.22.22,0,0,0-.16-.13Z"/><path class="cls-5" d="M11.2,9.89c-.31,0-.38.08-.43.39s.49.45.43-.39Z"/><path d="M10.93,10.57h0a.14.14,0,0,1-.11-.06.28.28,0,0,1-.06-.23c.05-.32.13-.4.44-.4a.82.82,0,0,1-.12.62.26.26,0,0,1-.15.07Zm.26-.68c-.29,0-.37.08-.41.4a.25.25,0,0,0,.05.21.12.12,0,0,0,.1.05h0a.18.18,0,0,0,.13-.06.77.77,0,0,0,.13-.6Z"/><path class="cls-5" d="M11.34,9.48c-.48-.18-.73.57-1.21.44.17.26.58,0,.73,0s.82,0,.48-.46Z"/><path d="M10.37,10a.26.26,0,0,1-.24-.12h.12a.82.82,0,0,0,.47-.24c.18-.15.39-.3.62-.21s.14.23.1.32A.55.55,0,0,1,11,10h-.13a.51.51,0,0,0-.2,0,1.47,1.47,0,0,1-.29,0Zm-.24-.12a.3.3,0,0,0,.24.11.94.94,0,0,0,.28-.06.93.93,0,0,1,.19,0L11,10h0c.17,0,.37,0,.43-.17s0-.18-.09-.3a.68.68,0,0,0-.6.21.69.69,0,0,1-.6.23Z"/><path class="cls-5" d="M11,10.5c-.24-.1-.49.26-.44.42s.59,0,.44-.42Z"/><path d="M10.73,11h0a.15.15,0,0,1-.15-.09.32.32,0,0,1,.09-.27A.31.31,0,0,1,11,10.5a.38.38,0,0,1,0,.36.36.36,0,0,1-.27.15Zm.21-.52a.34.34,0,0,0-.26.16.4.4,0,0,0-.09.26.14.14,0,0,0,.14.08h0a.33.33,0,0,0,.26-.14.34.34,0,0,0,0-.34l-.08,0Z"/><path class="cls-5" d="M9.93,12.06a.29.29,0,0,1,.26.35,1.23,1.23,0,0,1-.92.79c-.43,0-.58.54-.94.39.34-.06.34-.45.61-.57-.2-.07-.3.37-.55.37s-.37.4-.67.37-.34.48-1,.49c-.46,0-1,.55-1.25.31A1.41,1.41,0,0,0,6.43,14c.43-.44.92-.24,1.09-.63a1.21,1.21,0,0,1-.66.19c-.28,0-.59.45-.91.25a.78.78,0,0,0,.5-.31c.19-.2.49-.07.72-.28s.66-.06,1-.47a.67.67,0,0,0-.5.09c-.19.1-.44-.07-.66,0,0-.28.54-.12.86-.31a1.4,1.4,0,0,1,1-.12c-.4,0-.56-.38-1.11-.27-.24,0-.44-.34-.68-.14,0-.14.26-.26.52-.12s.36-.12.88.2c.21.13.57-.08.8.06,0-.09-.16-.14-.31-.13.1-.2.72-.17,1,0Z"/><path d="M5.67,14.63a.19.19,0,0,1-.15-.06,1.32,1.32,0,0,0,.8-.5l.1-.1a1.34,1.34,0,0,1,.64-.34c.2-.06.37-.1.45-.3a1,1,0,0,1-.63.21h0a.77.77,0,0,0-.37.14c-.18.11-.39.22-.57.11a.9.9,0,0,0,.5-.32.52.52,0,0,1,.35-.14.6.6,0,0,0,.37-.15.82.82,0,0,1,.48-.2.69.69,0,0,0,.53-.27,1.16,1.16,0,0,0-.48.1.56.56,0,0,1-.32,0,.68.68,0,0,0-.35,0c0-.16.19-.18.39-.2a1.24,1.24,0,0,0,.47-.11,1.26,1.26,0,0,1,.76-.15l-.23-.1a.89.89,0,0,0-.68-.14.48.48,0,0,1-.3-.09c-.13-.08-.25-.14-.37-.05,0-.17.29-.25.52-.13a.38.38,0,0,0,.26,0,.79.79,0,0,1,.61.16.58.58,0,0,0,.38,0,.74.74,0,0,1,.43,0A.35.35,0,0,0,9,12h0c0-.1.18-.15.39-.15a1.13,1.13,0,0,1,.61.16.31.31,0,0,1,.26.37,1.23,1.23,0,0,1-.93.79.78.78,0,0,0-.46.23c-.15.12-.3.24-.49.16a.59.59,0,0,0,.36-.31A.63.63,0,0,1,8.92,13h0c-.08,0-.14.08-.21.17s-.17.21-.3.21a.44.44,0,0,0-.29.17.51.51,0,0,1-.35.2h0c-.12,0-.19.08-.28.17a.83.83,0,0,1-.65.32,1.61,1.61,0,0,0-.64.21,1.4,1.4,0,0,1-.46.16Zm1.84-1.3c-.07.21-.25.26-.45.32a1.21,1.21,0,0,0-.63.33l-.1.1a1.3,1.3,0,0,1-.8.49.2.2,0,0,0,.14,0,1.11,1.11,0,0,0,.45-.16,1.83,1.83,0,0,1,.65-.21.79.79,0,0,0,.64-.31c.09-.09.17-.18.29-.18h0a.49.49,0,0,0,.34-.19c.1-.09.18-.18.3-.18s.21-.1.29-.2.16-.2.26-.16a.65.65,0,0,0-.25.27.51.51,0,0,1-.36.31h.12a.59.59,0,0,0,.35-.18.79.79,0,0,1,.47-.24,1.21,1.21,0,0,0,.91-.78.29.29,0,0,0-.25-.35,1.09,1.09,0,0,0-.6-.16c-.2,0-.34,0-.39.13H9a.29.29,0,0,1,.28.14.73.73,0,0,0-.42,0,.72.72,0,0,1-.4,0,.75.75,0,0,0-.6-.17.41.41,0,0,1-.27,0c-.22-.11-.5,0-.51.12.1-.12.25,0,.38,0a.4.4,0,0,0,.29.1.92.92,0,0,1,.69.13.85.85,0,0,0,.31.13H8.46a1.13,1.13,0,0,0-.57.15,1.13,1.13,0,0,1-.48.11c-.2,0-.37,0-.39.19a.47.47,0,0,1,.36,0,.59.59,0,0,0,.3,0,.7.7,0,0,1,.5-.09.7.7,0,0,1-.53.29.78.78,0,0,0-.48.19.65.65,0,0,1-.37.15.57.57,0,0,0-.35.14.82.82,0,0,1-.5.31.51.51,0,0,0,.17,0,.73.73,0,0,0,.38-.15.73.73,0,0,1,.36-.15h0a1.11,1.11,0,0,0,.65-.19Z"/><path class="cls-5" d="M10.34,11.75c-.2-.15-.48,0-.68,0a.42.42,0,0,0,.28.4,3.51,3.51,0,0,0,.4-.36Z"/><path d="M9.94,12.12h0a.43.43,0,0,1-.28-.41.72.72,0,0,0,.29,0,.53.53,0,0,1,.4.05,3.6,3.6,0,0,1-.41.37Zm-.28-.4a.43.43,0,0,0,.28.38,4.55,4.55,0,0,0,.4-.35.56.56,0,0,0-.39,0,.57.57,0,0,1-.29,0Z"/><path class="cls-5" d="M10.66,11.31c-.32-.16-.37.24-.62.15a.33.33,0,0,0,.3.29Z"/><path d="M10.35,11.76h0a.34.34,0,0,1-.31-.3h.07a.27.27,0,0,0,.19-.1.31.31,0,0,1,.37-.07l-.31.46ZM10,11.47a.36.36,0,0,0,.3.28l.31-.45a.36.36,0,0,0-.35.08.24.24,0,0,1-.26.09Z"/><path class="cls-5" d="M10.85,10.94c-.47-.18-.53.27-.81.18.07.16.46.24.67.19Z"/><path d="M10.56,11.33h0c-.21,0-.47-.08-.52-.2a.16.16,0,0,1,.07,0,.37.37,0,0,0,.21-.1.47.47,0,0,1,.53-.09l-.14.37a.34.34,0,0,1-.15,0Zm-.52-.2c.07.14.47.22.67.17l.13-.36-.2,0a.49.49,0,0,0-.31.13.3.3,0,0,1-.29.09Z"/><path class="cls-5" d="M11.5,9c-.13-.18-.39,0-.43.17s.06.5.23.43Z"/><path d="M11.25,9.59h0a.14.14,0,0,1-.11-.06.52.52,0,0,1-.08-.39c0-.21.33-.34.44-.18l-.19.62Zm.1-.7a.33.33,0,0,0-.28.25.53.53,0,0,0,.08.38.12.12,0,0,0,.1.06h.05L11.49,9a.21.21,0,0,0-.14-.07Z"/><path class="cls-5" d="M11.81,8.41c-.21-.05-.46,0-.44.19-.08,0-.1.31.13.37Z"/><path d="M11.5,9h0a.25.25,0,0,1-.18-.22.16.16,0,0,1,.06-.16.14.14,0,0,1,0-.13.44.44,0,0,1,.41-.06L11.5,9Zm.13-.57a.27.27,0,0,0-.21.07.14.14,0,0,0,0,.13s-.06.09-.06.15a.25.25,0,0,0,.17.21l.32-.55Z"/><path class="cls-5" d="M12,8.27c-.22-.25-.45-.24-.59-.14s-.48.08-.48.28c.14-.12.27,0,.39,0s.21.19.54.09Z"/><path d="M11.67,8.51h0a.41.41,0,0,1-.25-.08.25.25,0,0,0-.11,0,.26.26,0,0,1-.18,0,.29.29,0,0,0-.24,0c0-.11.07-.13.17-.15a.7.7,0,0,0,.31-.14.37.37,0,0,1,.21-.06.5.5,0,0,1,.38.2l-.13.22-.16,0Zm-.37-.13a.25.25,0,0,1,.13,0,.38.38,0,0,0,.24.08h0l.15,0,.13-.2a.47.47,0,0,0-.37-.2.27.27,0,0,0-.2.07.71.71,0,0,1-.31.13c-.11,0-.17,0-.18.14a.23.23,0,0,1,.24,0,.2.2,0,0,0,.15,0Z"/><path class="cls-5" d="M11.44,12a.26.26,0,0,0,.33,0,.39.39,0,0,0-.21-.54c-.21,0-.23.42-.12.55Z"/><path d="M11.59,12.05h0a.16.16,0,0,1-.15-.06.52.52,0,0,1,0-.46.15.15,0,0,1,.13-.1.34.34,0,0,1,.26.26.31.31,0,0,1,0,.29.25.25,0,0,1-.19.07Zm0-.6a.15.15,0,0,0-.13.09.54.54,0,0,0,0,.45.18.18,0,0,0,.14,0h0a.27.27,0,0,0,.18-.07.29.29,0,0,0,0-.28c0-.11-.13-.23-.24-.24Z"/><path class="cls-5" d="M11.21,12c.29.1.42-.13.26-.29a2.26,2.26,0,0,1-.26.29Z"/><path d="M11.35,12h0l-.14,0,.26-.3a.2.2,0,0,1,.07.21.19.19,0,0,1-.19.11Zm.12-.31a3.15,3.15,0,0,1-.25.28l.13,0h0a.17.17,0,0,0,.17-.1.17.17,0,0,0,0-.2Z"/><path class="cls-5" d="M10.13,12.4c-.06.16-.35.19-.67.71s-.63.3-.71.65c.39-.31.69-.1.92-.41.35-.47.64-.41.78-.72.19-.46,1-.45,1.09-1.16-.29-.05-1.19.71-1.41.93Z"/><path d="M8.74,13.78v0c0-.18.14-.22.26-.27a.84.84,0,0,0,.46-.39,1.66,1.66,0,0,1,.5-.54c.08-.06.14-.1.16-.17.21-.2,1.07-.93,1.38-.93h0c0,.42-.32.59-.61.75s-.4.22-.47.41a.6.6,0,0,1-.31.3,1.51,1.51,0,0,0-.47.42.57.57,0,0,1-.42.21.85.85,0,0,0-.5.21Zm2.79-2.31c-.34,0-1.19.73-1.4.93,0,.07-.08.11-.17.18a1.71,1.71,0,0,0-.49.53.94.94,0,0,1-.47.4c-.11.05-.2.08-.24.23a1,1,0,0,1,.5-.19.55.55,0,0,0,.41-.21,1.42,1.42,0,0,1,.48-.42.57.57,0,0,0,.29-.3c.08-.19.28-.29.48-.41s.58-.33.61-.74Z"/><path class="cls-5" d="M17.4,5.42c.37.12.38.6.8.76s.47.53.82.44c-.33-.08-.3-.46-.64-.55s-.54-.71-.86-.8Z"/><path d="M18.9,6.64c-.13,0-.21-.08-.31-.18a.93.93,0,0,0-.39-.27.86.86,0,0,1-.43-.41.74.74,0,0,0-.37-.35h0a.72.72,0,0,1,.38.35.84.84,0,0,0,.43.4,1,1,0,0,1,.39.28c.13.12.22.22.41.17a.48.48,0,0,1-.31-.26.55.55,0,0,0-.32-.28,1.06,1.06,0,0,1-.49-.45,1,1,0,0,0-.37-.36c.15,0,.27.19.38.36s.27.38.48.43a.59.59,0,0,1,.33.29.59.59,0,0,0,.31.27l-.12,0Z"/><path class="cls-5" d="M19.09,7.93a.34.34,0,0,1-.17.48c.12.08.31,0,.41-.17-.15.34,0,.64.19.7-.12-.23.14-.34.06-.5a.55.55,0,0,1,.28.41c.2-.23-.15-.52-.08-.73Z"/><path d="M19.53,9h0a.31.31,0,0,1-.22-.18.66.66,0,0,1,0-.53.29.29,0,0,1-.4.17.27.27,0,0,0,.17-.16.44.44,0,0,0,0-.32l.69.18a.52.52,0,0,0,.07.31c.06.14.13.3,0,.43a.57.57,0,0,0-.29-.4.17.17,0,0,1,0,.19.31.31,0,0,0,0,.3Zm-.21-.71a.67.67,0,0,0,0,.52.28.28,0,0,0,.2.17.29.29,0,0,1,0-.29c0-.07.07-.13,0-.19a.5.5,0,0,1,.3.4c.1-.13,0-.28,0-.43a.44.44,0,0,1-.07-.3l-.68-.18a.35.35,0,0,1,0,.32.25.25,0,0,1-.18.15l.11,0a.35.35,0,0,0,.29-.19Z"/><path class="cls-5" d="M16.71,10.3c-.23-.2-.33,0-.44,0s-.24-.09-.29,0c.19,0,.1.16.47.2-.37,0-.3.44-.56.42.27.25.41-.23.63-.15-.07,0,.1.17,0,.38.19,0,.27-.27.29-.4Z"/><path d="M16.49,11.1h0a.33.33,0,0,0,0-.29s0-.06,0-.07h0a.34.34,0,0,0-.2.11c-.11.1-.24.18-.38,0a.26.26,0,0,0,.22-.17.38.38,0,0,1,.34-.26.41.41,0,0,1-.33-.12.17.17,0,0,0-.14-.06c0-.1.19-.09.3,0s.08,0,.13,0a.25.25,0,0,1,.3,0l.09.41c0,.09-.09.4-.3.4Zm0-.39h.05s0,0,0,.07a.38.38,0,0,1,0,.3c.18,0,.25-.3.26-.39l-.08-.4a.27.27,0,0,0-.29,0,.12.12,0,0,1-.14,0c-.1-.08-.24-.09-.29,0a.17.17,0,0,1,.15.05.43.43,0,0,0,.32.13.42.42,0,0,0-.33.26c-.05.09-.1.18-.21.18a.25.25,0,0,0,.14.06.33.33,0,0,0,.21-.12.33.33,0,0,1,.21-.11Z"/><path class="cls-5" d="M11.73,12.45a.48.48,0,0,0-.42,0c-.09.05-.05.06.06.07s.25.19,0,.2-.07.27-.3.29c.09.12.36,0,.46-.08,0,.1.12.19.06.32.17,0,.07-.35.34-.33-.11,0-.06.26.13.2-.11.05-.05.19.08.15-.09,0-.12.14,0,.2.11-.15,0-.7-.42-1Z"/><path d="M12.15,13.44h0a.1.1,0,0,1-.08-.11.08.08,0,0,1,0-.07h0a.12.12,0,0,1-.11-.07.12.12,0,0,1,0-.09.13.13,0,0,1-.16-.12.09.09,0,0,1,0-.09.24.24,0,0,0,0,.09.13.13,0,0,0,.18.1h0s-.05.07,0,.09a.1.1,0,0,0,.12.06h0s0,0,0,.08,0,.07.07.1a.42.42,0,0,0,0-.26,1.1,1.1,0,0,0-.44-.7.5.5,0,0,0-.41-.05c-.05,0-.05,0-.05.05l.1,0a.16.16,0,0,1,.15.13s0,.07-.14.08-.06,0-.08.1-.08.18-.22.19a.34.34,0,0,0,.45-.1.5.5,0,0,0,.05.13.28.28,0,0,1,0,.18.42.42,0,0,0,0-.17.18.18,0,0,1,0-.14c-.08.14-.37.2-.46.1a.27.27,0,0,0,.21-.2s.05-.1.1-.11.12,0,.12-.06-.07-.11-.13-.12-.11,0-.12,0,0,0,.06-.06a.38.38,0,0,1,.42,0,1.13,1.13,0,0,1,.46.7.39.39,0,0,1,0,.28Zm-.54-.22h0c.07,0,.09-.07.11-.14s.06-.2.2-.2h0c-.13,0-.16.11-.19.19s-.05.15-.12.15Z"/><path class="cls-5" d="M21.77,7.36a.64.64,0,1,0-.64-.64.63.63,0,0,0,.64.64Z"/><path d="M21.77,7.37a.65.65,0,1,1,.65-.65.65.65,0,0,1-.65.65Zm0-1.28a.64.64,0,1,0,.63.63.63.63,0,0,0-.63-.63Z"/><path class="cls-5" d="M18.43,8.14a.58.58,0,0,1,.7-.14,1.34,1.34,0,0,0,1.2.07c.34-.23.49-.35.64-.32a.57.57,0,0,0,.41.26.49.49,0,0,0,.33.08.48.48,0,0,0,.47-.16.5.5,0,0,0,.51-.39c.24,0,.25-.29.1-.46s0-.49-.53-.4c.21.13,0,.39.22.51a.29.29,0,0,0-.31.23.2.2,0,0,0,0-.24c0-.1-.23-.37-.45-.27.16,0,.07.29.19.39a.27.27,0,0,0-.23.12.61.61,0,0,0-.4-.23.39.39,0,0,0,0-.15.6.6,0,0,1-.08-.41,1.56,1.56,0,0,0-.26.41c-.18-.12-.61,0-.81.1A1.75,1.75,0,0,1,19,6.91a1.65,1.65,0,0,0-.74-.35c-.39-.12-.4-.55-.83-.84a7.5,7.5,0,0,0,1,2.42Z"/><path d="M19.88,8.19A1.62,1.62,0,0,1,19.12,8a.57.57,0,0,0-.68.14,7.11,7.11,0,0,1-1-2.42,1.17,1.17,0,0,1,.42.45c.12.17.21.32.42.38A1.81,1.81,0,0,1,19,6.9a1.83,1.83,0,0,0,1,.23l.15,0c.23-.07.54-.14.66-.06a1.51,1.51,0,0,1,.25-.4.77.77,0,0,0,.1.41.77.77,0,0,1,0,.15.58.58,0,0,1,.4.22.25.25,0,0,1,.22-.12c-.06,0-.07-.11-.08-.18s0-.18-.11-.19a.13.13,0,0,1,.1,0,.4.4,0,0,1,.27.13.28.28,0,0,1,.09.17.18.18,0,0,1,.06.15.3.3,0,0,1,.28-.15c-.09,0-.09-.14-.1-.23a.31.31,0,0,0-.13-.27.32.32,0,0,1,.13,0c.24,0,.29.16.33.28s0,.12.08.13a.35.35,0,0,1,.09.35.23.23,0,0,1-.19.13.49.49,0,0,1-.51.39.48.48,0,0,1-.47.16A.47.47,0,0,1,21.38,8,.52.52,0,0,1,21,7.75h0c-.12,0-.27.1-.52.28l-.07.05a.87.87,0,0,1-.46.11Zm-1-.27a.45.45,0,0,1,.23.07,1.58,1.58,0,0,0,.75.19.75.75,0,0,0,.45-.12l.07,0c.29-.2.43-.31.57-.28a.52.52,0,0,0,.41.26.56.56,0,0,0,.33.09.49.49,0,0,0,.47-.17h.06a.49.49,0,0,0,.44-.38c.12,0,.17-.08.18-.13a.35.35,0,0,0-.07-.33c-.05,0-.07-.06-.09-.13a.32.32,0,0,0-.44-.26c.12,0,.12.16.13.26a.29.29,0,0,0,.1.23.34.34,0,0,0-.3.19.11.11,0,0,1,0,0,0,0,0,0,1,0,0c0-.12,0-.18-.05-.18A.31.31,0,0,0,22,7a.35.35,0,0,0-.36-.1c.1,0,.11.09.12.18a.29.29,0,0,0,.07.19.36.36,0,0,0-.22.13.64.64,0,0,0-.41-.22.41.41,0,0,0,0-.16.68.68,0,0,1-.08-.41,2,2,0,0,0-.24.41,1.2,1.2,0,0,0-.66.06l-.16.05A1.85,1.85,0,0,1,19,6.91a1.7,1.7,0,0,0-.74-.34.79.79,0,0,1-.43-.39,1.56,1.56,0,0,0-.41-.46,7.7,7.7,0,0,0,1,2.41.68.68,0,0,1,.46-.21Z"/><path class="cls-5" d="M13.92,12.21a.62.62,0,1,0-.62-.62.61.61,0,0,0,.62.62Z"/><path d="M13.92,12.22a.63.63,0,1,1,.62-.63.63.63,0,0,1-.62.63Zm0-1.24a.61.61,0,0,0-.61.61.61.61,0,0,0,.61.61.61.61,0,0,0,.61-.61.62.62,0,0,0-.61-.61Z"/><path class="cls-5" d="M12.44,11.74a.46.46,0,0,0,.42.14c.08.19.31.18.42.29a.61.61,0,0,0,.54,0,.68.68,0,0,1-.32-.16c-.14-.12-.08-.36-.19-.44a.37.37,0,0,0,.08-.3.36.36,0,0,0,.16-.18.6.6,0,0,0,.34-.14c.08.07.28,0,.39.1a.34.34,0,0,0-.47-.37.39.39,0,0,0-.32,0c-.06,0-.24.07-.33.13a.2.2,0,0,0,.07-.26.33.33,0,0,0,.18-.22c.11,0,.28-.05.35,0a.56.56,0,0,0-.52-.2.35.35,0,0,0-.33.32.39.39,0,0,0-.12.41c-.07,0-.14.06-.17.1a.93.93,0,0,0-.33-.07Z"/><path d="M13.56,12.26a.4.4,0,0,1-.29-.09.4.4,0,0,0-.16-.08c-.1-.05-.21-.09-.25-.21a.43.43,0,0,1-.43-.14h0a.44.44,0,0,0,.41.14.42.42,0,0,0,.26.2.44.44,0,0,1,.16.1.64.64,0,0,0,.54,0,.54.54,0,0,1-.33-.15.44.44,0,0,1-.11-.25.27.27,0,0,0-.07-.18.4.4,0,0,0,.07-.31c.1-.06.16-.14.16-.18a.57.57,0,0,0,.35-.15.26.26,0,0,0,.16,0,.28.28,0,0,1,.23.07.39.39,0,0,0-.17-.33.28.28,0,0,0-.29,0c-.08,0-.29,0-.32,0s-.21,0-.31.11h0a.24.24,0,0,0,.07-.12.21.21,0,0,0,0-.14.34.34,0,0,0,.17-.22l.21,0a.29.29,0,0,1,.15,0,.6.6,0,0,0-.52-.18.33.33,0,0,0-.32.31.38.38,0,0,0-.12.4.28.28,0,0,0-.17.12,1.09,1.09,0,0,0-.34-.07.59.59,0,0,1,.34.06.24.24,0,0,1,.16-.11.38.38,0,0,1,.12-.41.35.35,0,0,1,.33-.32.64.64,0,0,1,.53.2l-.16,0a.71.71,0,0,1-.2,0,.33.33,0,0,1-.17.22.14.14,0,0,1,0,.13.19.19,0,0,1,0,.09c.09-.06.23-.13.28-.1s.25-.09.33,0a.3.3,0,0,1,.3,0,.37.37,0,0,1,.16.35.33.33,0,0,0-.23-.07c-.07,0-.13,0-.16,0a.54.54,0,0,1-.34.15s-.07.12-.16.17a.36.36,0,0,1-.07.31s.06.1.08.18a.35.35,0,0,0,.1.24.68.68,0,0,0,.32.16.52.52,0,0,1-.26.06Z"/><path class="cls-5" d="M12.33,10.69a.49.49,0,0,1,.05-.32c.07-.25,0-.31-.19-.28a1.75,1.75,0,0,0,.14.6Z"/><path d="M12.33,10.69a1.56,1.56,0,0,1-.15-.6c.13,0,.18,0,.21,0s0,.12,0,.25l0,.05a.48.48,0,0,0,0,.27Zm-.05-.6h-.09a2,2,0,0,0,.12.52.65.65,0,0,1,0-.2l0-.05c0-.13,0-.2,0-.24a.13.13,0,0,0-.1,0Z"/><path class="cls-5" d="M12.18,10.11c.05.05.25.08.27-.1s-.06-.27-.24-.2a2.77,2.77,0,0,0,0,.3Z"/><path d="M12.3,10.16h0a.19.19,0,0,1-.13-.05s0-.06,0-.1,0-.17,0-.2.17,0,.21,0a.26.26,0,0,1,0,.21.15.15,0,0,1-.15.14Zm0-.37-.11,0s0,.12,0,.19a.28.28,0,0,1,0,.1.19.19,0,0,0,.12,0,.13.13,0,0,0,.14-.13.26.26,0,0,0,0-.19.11.11,0,0,0-.08,0Z"/><path class="cls-5" d="M12.22,9.81a.22.22,0,0,0,.32-.08c.07-.15,0-.26-.18-.25a1.06,1.06,0,0,0-.14.33Z"/><path d="M12.36,9.85h0a.3.3,0,0,1-.15,0,.85.85,0,0,1,.15-.33c.1,0,.16,0,.19.07a.17.17,0,0,1,0,.18.19.19,0,0,1-.18.12Zm0-.36a.78.78,0,0,0-.16.32l.14,0a.17.17,0,0,0,.17-.11.18.18,0,0,0,0-.16.2.2,0,0,0-.16-.07Z"/><path class="cls-5" d="M12.35,9.47s.21.24.35.1a.22.22,0,0,0-.07-.4c-.06,0-.22.2-.28.3Z"/><path d="M12.59,9.63h0a.28.28,0,0,1-.24-.16.86.86,0,0,1,.28-.31.24.24,0,0,1,.17.17.28.28,0,0,1-.1.25.16.16,0,0,1-.11.05Zm0-.46a1,1,0,0,0-.27.3.32.32,0,0,0,.23.14h0a.13.13,0,0,0,.1,0,.24.24,0,0,0,.09-.24c0-.07-.07-.12-.15-.16Z"/><path class="cls-5" d="M12.63,9.17a.31.31,0,0,0,.41.22c.24-.09.14-.39,0-.45a1,1,0,0,0-.44.23Z"/><path d="M12.92,9.42h0c-.2,0-.28-.21-.3-.25a1.24,1.24,0,0,1,.45-.24.29.29,0,0,1,.12.27.22.22,0,0,1-.15.2l-.12,0Zm.14-.48a1.41,1.41,0,0,0-.43.23s.1.24.29.24h0l.12,0a.19.19,0,0,0,.14-.18.31.31,0,0,0-.12-.26Z"/><path class="cls-5" d="M13.07,8.94a.3.3,0,0,0,.32.37c.33,0,.24-.39.16-.44a1.1,1.1,0,0,0-.48.07Z"/><path d="M13.39,9.32a.3.3,0,0,1-.26-.11.34.34,0,0,1-.07-.27,1.12,1.12,0,0,1,.49-.08.33.33,0,0,1,.07.31c0,.07-.07.15-.23.15Zm.15-.45a1.45,1.45,0,0,0-.47.07.38.38,0,0,0,.07.27.32.32,0,0,0,.25.09h0c.15,0,.2-.07.22-.14a.33.33,0,0,0-.07-.29Z"/><path class="cls-5" d="M13.56,8.88c0,.08-.12.6.52.45.09,0,.3-.49-.52-.45Z"/><path d="M13.88,9.37h0a.34.34,0,0,1-.3-.14.5.5,0,0,1,0-.35h.11c.42,0,.51.16.52.26s0,.2-.1.21l-.2,0Zm-.22-.48h-.1a.44.44,0,0,0,0,.33.31.31,0,0,0,.29.13h0l.2,0a.22.22,0,0,0,.08-.2c0-.09-.09-.24-.5-.24Z"/><path class="cls-5" d="M13.91,8.93a.47.47,0,0,0,.54.5c.43-.09.07-.58-.54-.5Z"/><path d="M14.35,9.44h0a.48.48,0,0,1-.42-.31c0-.09,0-.18,0-.21h.14c.33,0,.58.18.59.34s-.06.16-.19.18Zm-.3-.51h-.14a.28.28,0,0,0,0,.18.46.46,0,0,0,.41.31h.09c.13,0,.2-.09.19-.17s-.26-.32-.58-.32Z"/><path class="cls-5" d="M14.28,9c-.07.14,0,.56.57.56s0-.55-.57-.56Z"/><path d="M14.85,9.58a.58.58,0,0,1-.53-.25A.42.42,0,0,1,14.27,9c.4,0,.78.3.78.47s0,.11-.2.11ZM14.28,9a.37.37,0,0,0,.06.32.54.54,0,0,0,.51.24c.12,0,.19,0,.19-.1S14.66,9,14.28,9Z"/><path class="cls-5" d="M14.7,9.13c0,.08-.08.53.55.57.46,0,.35-.62-.55-.57Z"/><path d="M15.28,9.71v0c.14,0,.23-.07.23-.17a.34.34,0,0,0-.17-.25,1,1,0,0,0-.54-.13.9.9,0,0,1,.55.11.34.34,0,0,1,.17.27h0v0c0,.1-.09.17-.23.17Z"/><path class="cls-5" d="M15.38,9.32c-.08.14-.16.48.53.51.44,0,.17-.5-.53-.51Z"/><path d="M15.93,9.84h0c-.3,0-.49-.08-.56-.21a.34.34,0,0,1,0-.31c.47,0,.76.23.76.39s-.08.13-.2.13Zm-.55-.51a.33.33,0,0,0,0,.29c.07.12.26.19.55.21h0c.12,0,.19-.05.19-.12s-.29-.38-.74-.38Z"/><path class="cls-5" d="M16,9.43a.32.32,0,0,0,.23.46c.33.06.37-.24.15-.39A.39.39,0,0,0,16,9.43Z"/><path d="M16.27,9.9h-.09a.35.35,0,0,1-.26-.21.29.29,0,0,1,0-.26s.14-.09.39.07a.29.29,0,0,1,.13.29.19.19,0,0,1-.2.12Zm-.21-.48H16a.25.25,0,0,0,0,.25.32.32,0,0,0,.25.2h.08a.17.17,0,0,0,.18-.12.23.23,0,0,0-.12-.26.44.44,0,0,0-.27-.09Z"/><path class="cls-5" d="M16.27,9.49c-.08.13,0,.44.46.44.1,0,.49-.39-.46-.44Z"/><path d="M16.73,9.94c-.29,0-.41-.1-.46-.19a.3.3,0,0,1,0-.26c.53,0,.64.15.64.25a.23.23,0,0,1-.17.2Zm-.46-.44a.26.26,0,0,0,0,.24c0,.09.17.19.45.19a.25.25,0,0,0,.16-.19c0-.08-.08-.22-.62-.24Z"/><path class="cls-5" d="M12.48,15.5a.72.72,0,1,0,0-1.43.72.72,0,1,0,0,1.43Z"/><path d="M12.48,15.51a.72.72,0,0,1-.72-.72.73.73,0,0,1,.72-.73.73.73,0,0,1,.73.73.73.73,0,0,1-.73.72Zm0-1.43a.71.71,0,1,0,.71.71.71.71,0,0,0-.71-.71Z"/><path class="cls-5" d="M17.74,5.07a1.6,1.6,0,0,0-.19.29c-.24.72.4,1.26.77,2a2.23,2.23,0,0,1-.2,2.17c-.16.21-.11.27-.31.48a.52.52,0,0,0-.14.48.34.34,0,0,1,.35.18.24.24,0,0,1,.27,0c.15-.08.28,0,.42.11a.39.39,0,0,1,.37.13.26.26,0,0,1,.29-.15.21.21,0,0,1,.3-.22.27.27,0,0,1,.35-.32.53.53,0,0,1,.67.05c-.3-.08-.29.23-.54.2.06.19-.1.29-.27.35.11-.05.22-.11.26,0a.31.31,0,0,1,.32,0,.22.22,0,0,1,.3.14.43.43,0,0,1,.16.55c0-.2-.18-.19-.23-.28s-.26,0-.3,0a.37.37,0,0,1-.43,0,.39.39,0,0,1-.35.31c0,.13-.09.35-.19.46.16.08.11.27.08.38.24,0,0,.25.45.38-.21.07-.6,0-.66-.24a.39.39,0,0,1-.33-.43.3.3,0,0,1,0-.51c-.19.06-.29-.24-.56-.12s-.48,0-.48-.16c-.05.09-.39,0-.43-.1-.11.06-.37,0-.37-.2a.24.24,0,0,1-.33-.2c-.13,0-.14-.13-.13-.24s-.09-.17,0-.3-.05-.22,0-.34a.34.34,0,0,1,0-.34,10.19,10.19,0,0,1-2.27-.53c-1.92-.59-2.44.79-2,1.66s-.06,1.22.11,2a.33.33,0,0,1,.26.34c.1,0,.17.11.14.29a.3.3,0,0,1,.27.08.24.24,0,0,1,.39,0c.24,0,.36.18.35.42a.64.64,0,0,1-.06.69,1.71,1.71,0,0,0,0-.32c0-.15-.22-.18-.2-.31a.25.25,0,0,1-.25-.13.3.3,0,0,1-.24,0,.41.41,0,0,1,.19.42.41.41,0,0,1,0,.4c0,.18-.18.24-.36.17a.31.31,0,0,0,.14-.28.32.32,0,0,1-.1-.23.69.69,0,0,1-.48-.18.72.72,0,0,0-.72.72c0-.15-.2-.3-.18-.42a.53.53,0,0,1,.5-.72c-.05-.13.14-.27.07-.42a3.75,3.75,0,0,0-.53-.71,1,1,0,0,0,0-.85c-.13-.32-.26-.24-.73.27-.77.85-1.79.61-2.69,1.17-.24.14-.48.2-.22-.06a6.53,6.53,0,0,1,1.38-.74,3.25,3.25,0,0,0,1.81-2.45c.65-3.16,3-2.12,4.55-1.53s1.16-.7.44-1.46a1.54,1.54,0,0,1-.28-2.19c.73-.1,2.12.15,1.84.39Z"/><path d="M13.07,14.8a.28.28,0,0,1-.15,0,.32.32,0,0,0,.13-.28.34.34,0,0,1-.1-.23h0a.66.66,0,0,1-.43-.19.72.72,0,0,0-.71.72.56.56,0,0,0-.11-.2c-.05-.08-.1-.15-.08-.22a.55.55,0,0,1,0-.47.63.63,0,0,1,.47-.26c0-.06,0-.12,0-.19s.07-.14,0-.21a3.33,3.33,0,0,0-.53-.72,1,1,0,0,0,0-.85c-.14-.35-.27-.21-.71.28a2.77,2.77,0,0,1-1.53.75,3.81,3.81,0,0,0-1.17.41c-.17.1-.32.16-.34.11s0-.09.11-.17a3.63,3.63,0,0,1,1-.55l.41-.19a3.29,3.29,0,0,0,1.8-2.45c.3-1.47,1-2.19,2.14-2.19a6.63,6.63,0,0,1,2.29.6l.13.05a1.76,1.76,0,0,0,.59.14h0a.38.38,0,0,0,.39-.21c.14-.31-.1-.91-.54-1.37a1.58,1.58,0,0,1-.29-2.21c.62-.1,1.81.09,1.89.31a.1.1,0,0,1,0,.1,1,1,0,0,0-.19.28c-.17.51.09.92.4,1.39a6.5,6.5,0,0,1,.37.63,2.28,2.28,0,0,1-.2,2.19,1.1,1.1,0,0,0-.13.21,1,1,0,0,1-.19.27.49.49,0,0,0-.13.47h.05a.35.35,0,0,1,.3.19.21.21,0,0,1,.26,0c.14-.08.28,0,.43.11h.07a.42.42,0,0,1,.3.14.24.24,0,0,1,.28-.15.22.22,0,0,1,.05-.17.24.24,0,0,1,.25-.05.27.27,0,0,1,.35-.32.53.53,0,0,1,.67.06h-.1c-.09,0-.14.06-.2.11a.26.26,0,0,1-.21.11.26.26,0,0,1-.13.27.1.1,0,0,1,.1,0c.05-.07.26-.06.32,0s.22-.05.3.14a.51.51,0,0,1,.19.28.33.33,0,0,1,0,.28.33.33,0,0,0-.16-.21.24.24,0,0,1-.08-.06c-.12.06-.26,0-.3,0a.37.37,0,0,1-.43,0,.36.36,0,0,1-.34.3c.05.13-.08.35-.18.46.15.08.11.25.07.38a.14.14,0,0,1,.15.12c0,.08.07.18.3.26a.33.33,0,0,1-.17,0c-.21,0-.45-.09-.49-.28a.4.4,0,0,1-.34-.43.36.36,0,0,1-.12-.27A.34.34,0,0,1,19,11.6a.3.3,0,0,1-.19-.07.32.32,0,0,0-.33-.06.55.55,0,0,1-.46-.1.11.11,0,0,1,0-.07c0,.1-.39.06-.44-.1,0,.06-.23,0-.31-.08a.16.16,0,0,1-.06-.12c0,.06-.2,0-.27-.05a.18.18,0,0,1-.05-.15c-.11,0-.15-.09-.14-.24s-.08-.18,0-.31-.07-.18,0-.34c-.09-.08-.08-.19-.05-.33a10.14,10.14,0,0,1-2.26-.52,2.77,2.77,0,0,0-.85-.15,1.22,1.22,0,0,0-1.11.54,1.34,1.34,0,0,0-.05,1.26,1.54,1.54,0,0,1,.15,1.23,1.45,1.45,0,0,0,0,.73.31.31,0,0,1,.25.34.14.14,0,0,1,.11.05.27.27,0,0,1,0,.24h.05a.32.32,0,0,1,.23.09c0-.12.28-.14.39,0a.31.31,0,0,1,.24.08.51.51,0,0,1,.11.34.64.64,0,0,1-.06.69c0-.08,0-.19,0-.27v-.05a.2.2,0,0,0-.11-.16.22.22,0,0,1-.09-.12.36.36,0,0,0,.1.11.27.27,0,0,1,.12.17v.05a1.22,1.22,0,0,1,0,.27.67.67,0,0,0,0-.69.44.44,0,0,0-.1-.33.29.29,0,0,0-.21-.08h0a.23.23,0,0,0-.37,0,.33.33,0,0,0-.28-.08.34.34,0,0,0,0-.24.14.14,0,0,0-.1-.05.33.33,0,0,0-.26-.34,1.55,1.55,0,0,1,0-.75,1.51,1.51,0,0,0-.14-1.22,1.34,1.34,0,0,1,0-1.26,1.24,1.24,0,0,1,1.13-.55,3.07,3.07,0,0,1,.85.14,11.42,11.42,0,0,0,2.27.54c0,.14,0,.24.05.33-.08.16-.09.27,0,.34s-.07.26,0,.31,0,.22.14.24a.24.24,0,0,0,.05.14.27.27,0,0,0,.27.06.17.17,0,0,0,.06.11.3.3,0,0,0,.3.08.33.33,0,0,0,.44.1.16.16,0,0,0,0,.07.58.58,0,0,0,.44.1.33.33,0,0,1,.35,0,.25.25,0,0,0,.21.07h0a.34.34,0,0,0-.13.23.32.32,0,0,0,.12.27.38.38,0,0,0,.32.42c.06.25.45.31.66.25-.24-.07-.28-.17-.31-.25s0-.11-.15-.13c0-.13.08-.3-.07-.37.1-.13.22-.34.18-.47a.39.39,0,0,0,.35-.31.28.28,0,0,0,.18.06.39.39,0,0,0,.25-.09c.07.11.19.08.3,0l.09.06a.27.27,0,0,1,.15.22.45.45,0,0,0,0-.27.47.47,0,0,0-.19-.28.22.22,0,0,0-.29-.14.4.4,0,0,0-.32,0s-.07,0-.14,0a.31.31,0,0,1-.13.06.4.4,0,0,1,.12-.07c.14-.07.18-.17.14-.28h0a.26.26,0,0,0,.2-.11.29.29,0,0,1,.31-.1.59.59,0,0,0-.66,0,.27.27,0,0,0-.3.09.26.26,0,0,0-.05.23c-.11,0-.19,0-.25.05a.27.27,0,0,0-.06.17h-.06a.25.25,0,0,0-.22.15.45.45,0,0,0-.38-.13c-.15-.15-.27-.18-.42-.11a.26.26,0,0,0-.27,0,.34.34,0,0,0-.35-.18A.5.5,0,0,1,17.8,10,.84.84,0,0,0,18,9.77a1.1,1.1,0,0,1,.13-.21,2.3,2.3,0,0,0,.2-2.17A5.49,5.49,0,0,0,18,6.76c-.31-.48-.58-.89-.41-1.4a1.15,1.15,0,0,1,.2-.29s0-.05,0-.08-.81-.33-1.49-.33l-.38,0a1.55,1.55,0,0,0,.29,2.19,1.6,1.6,0,0,1,.55,1.38.41.41,0,0,1-.41.22h0a1.66,1.66,0,0,1-.59-.13l-.14-.06a6.73,6.73,0,0,0-2.28-.59c-1.13,0-1.83.71-2.13,2.17a3.25,3.25,0,0,1-1.81,2.46l-.4.19a3.92,3.92,0,0,0-1,.55c-.11.11-.11.14-.11.15a.58.58,0,0,0,.32-.11,3.83,3.83,0,0,1,1.17-.42,2.6,2.6,0,0,0,1.52-.74c.47-.51.6-.63.74-.28a1,1,0,0,1,0,.86,3.3,3.3,0,0,1,.52.71.24.24,0,0,1,0,.23.2.2,0,0,0,0,.18.63.63,0,0,0-.46.27.55.55,0,0,0,0,.46.33.33,0,0,0,.08.21.5.5,0,0,1,.1.21.71.71,0,0,1,.71-.73.74.74,0,0,0,.48.19.4.4,0,0,0,.1.22.3.3,0,0,1-.13.29l.14,0a.2.2,0,0,0,.2-.19.41.41,0,0,0,0-.4.42.42,0,0,0-.18-.42h.08a.22.22,0,0,0,.15-.06.29.29,0,0,0,.24.14h0a.24.24,0,0,1-.24-.13.2.2,0,0,1-.22,0,.39.39,0,0,1,.18.42.4.4,0,0,1,0,.41.23.23,0,0,1-.22.2Z"/><path class="cls-5" d="M20.31,12.85a.79.79,0,1,0-.79-.79.79.79,0,0,0,.79.79Z"/><path d="M20.31,12.85a.79.79,0,0,1-.8-.79.8.8,0,0,1,1.6,0,.79.79,0,0,1-.8.79Zm0-1.57a.78.78,0,1,0,.78.78.78.78,0,0,0-.78-.78Z"/><path d="M17.89,10a3.5,3.5,0,0,0-.36-3.37,1.52,1.52,0,0,1-.24-1.47h0a1.5,1.5,0,0,0,.23,1.46A3.5,3.5,0,0,1,17.89,10Z"/><path d="M18.22,9h0a.42.42,0,0,0,.24-.26.38.38,0,0,1-.23.27Z"/><path d="M18.28,8.71h0a.28.28,0,0,1,.12-.16c.06-.06.11-.1.12-.18a.23.23,0,0,1-.11.19.27.27,0,0,0-.11.15Z"/><path d="M18.28,8.18h0a.28.28,0,0,1,.09-.2c.05-.07.1-.13.08-.2s0,.14-.07.21a.26.26,0,0,0-.09.19Z"/><path d="M18.16,7.69h0s0-.08.05-.13.11-.15.08-.22,0,.15-.06.23-.07.09-.06.12Z"/><path d="M18,7.2h0a.15.15,0,0,1,0-.14s0-.1,0-.14,0,.1,0,.15a.13.13,0,0,0,0,.12Z"/><path d="M17.79,6.81h0a.44.44,0,0,1,0-.1.25.25,0,0,0,0-.17s0,.11,0,.17a.18.18,0,0,0,0,.1Z"/><path d="M17.57,6.35h0l0,0s.07-.07,0-.12,0,.1,0,.13Z"/><path d="M17.42,6h0s.1,0,.09-.09,0,.09-.08.1Z"/><path d="M12.35,14.9a.2.2,0,0,1,.13-.17.45.45,0,0,1,.32,0h0a.37.37,0,0,0-.31,0,.22.22,0,0,0-.14.16Z"/><path d="M12.7,15.1a.07.07,0,0,1,0,0,.17.17,0,0,1,0-.17l.06,0a.25.25,0,0,0-.12,0,.22.22,0,0,0-.16.16h0c0-.09.1-.15.17-.18a.21.21,0,0,1,.18,0c-.06,0-.09,0-.11,0a.17.17,0,0,0-.05.15s0,0,.06,0Z"/><path d="M14,11.8a.3.3,0,0,1-.11-.27.21.21,0,0,1,.1-.15h0a.17.17,0,0,0-.08.13.32.32,0,0,0,.09.27Z"/><path d="M14.17,11.74a.14.14,0,0,1-.1-.13.22.22,0,0,1,0-.18h0a.19.19,0,0,0-.05.17.17.17,0,0,0,.06.1s0,0,0-.07a.13.13,0,0,1,.11-.1.09.09,0,0,1,.08,0,.14.14,0,0,1,0,.13s0-.09,0-.12a.07.07,0,0,0-.06,0,.14.14,0,0,0-.1.1.07.07,0,0,0,0,.09Z"/><path d="M20.38,12.39a.31.31,0,0,1-.07-.39.25.25,0,0,1,.3-.11h0a.24.24,0,0,0-.28.11.32.32,0,0,0,.06.38.39.39,0,0,1,.12-.32.32.32,0,0,1,.28-.07.36.36,0,0,0-.27.08.41.41,0,0,0-.13.31Z"/><path d="M20.69,12.39a.11.11,0,0,1-.12-.1.1.1,0,0,1,.11-.11h0a.1.1,0,1,0,0,.19.1.1,0,0,0,.08-.09.08.08,0,0,1-.08.1Z"/><path d="M21.9,6.72a.31.31,0,0,1-.32-.19h0A.35.35,0,0,0,22,6.7a.25.25,0,0,1-.12,0Z"/><path d="M22,6.62a.23.23,0,0,1-.17-.08.18.18,0,0,1-.06-.16.07.07,0,0,0,.07.06.15.15,0,0,0,.16,0s-.11,0-.17,0a.1.1,0,0,1-.06,0,.25.25,0,0,0,.07.12A.21.21,0,0,0,22,6.6h0s0,0,0,0Z"/><path d="M12.86,11.88h0c0-.06,0-.11.06-.17s.05-.07.05-.11a.13.13,0,0,1,.07-.09.29.29,0,0,1,.28.1.3.3,0,0,0-.27-.08.07.07,0,0,0-.06.07.23.23,0,0,1-.06.12s-.08.1-.06.15h0Z"/><path class="cls-1" d="M13.23,10.63l-.08,0Z"/><path d="M13.53,11.14a.4.4,0,0,1-.15,0,.5.5,0,0,0,.17,0h0a0,0,0,0,1,0,0Z"/><path d="M13.25,11.37l.14-.07h0l-.14.06Z"/><path d="M11.94,14.33a.33.33,0,0,1-.14-.24h0a.35.35,0,0,0,.12.24Z"/><path d="M12.13,14.16a.32.32,0,0,1,0-.27h0a.33.33,0,0,0,0,.26Z"/><path d="M12.86,14.18h0c-.06,0,0-.12,0-.2v-.1a.16.16,0,0,1,.08-.14s.11-.06.24,0a.26.26,0,0,0-.24,0,.13.13,0,0,0-.06.13.38.38,0,0,1,0,.1.21.21,0,0,0,0,.19h0Z"/><path d="M12.08,13.65h0a.43.43,0,0,1,.23,0Z"/><path d="M13.09,13.53a.19.19,0,0,1,0-.15h0a.24.24,0,0,0-.05.14Z"/><path d="M13.38,13.47a.14.14,0,0,1,.14-.1h0a0,0,0,0,1,0,0,.18.18,0,0,0-.14.09Z"/><path d="M12.9,11.28c0-.12-.21-.24-.28-.26h0c.07,0,.27.14.27.27Z"/><path d="M13.41,10.42h0a.22.22,0,0,1-.24-.17c0-.05,0-.08.1-.08s-.09,0-.09.08.09.15.23.16h0Z"/><path d="M13.9,11a.22.22,0,0,1-.14-.19.07.07,0,0,1,.05-.07h0a.06.06,0,0,0,0,.06.2.2,0,0,0,.12.19Z"/><path d="M13.28,12.18h0a.11.11,0,0,1,0-.13.12.12,0,0,1,.15,0,.14.14,0,0,0-.14.06.13.13,0,0,0,0,.12Z"/><path d="M13.61,13.86h0a.18.18,0,0,1,.13-.15.14.14,0,0,1,.15.09.14.14,0,0,0-.14-.08.14.14,0,0,0-.12.14Z"/><path d="M13,14.26h0c0-.18.09-.21.14-.22a.25.25,0,0,1,.22.16.25.25,0,0,0-.22-.14c-.05,0-.14,0-.13.2Z"/><path d="M11.58,14.38h0a.21.21,0,0,1,.08-.16.1.1,0,0,1,.09,0l-.08,0a.22.22,0,0,0-.08.14,0,0,0,0,1,0,0Z"/><path d="M20.14,10.53a.16.16,0,0,1-.17-.1.16.16,0,0,1,.05-.16h0a.12.12,0,0,0,0,.14.16.16,0,0,0,.16.11Z"/><path class="cls-1" d="M19.67,10.6s0,.05,0,.07Z"/><path d="M20.69,11.24a.16.16,0,0,1,0-.25s.07-.05.09,0h0s-.05,0-.07,0a.17.17,0,0,0,0,.24Z"/><path d="M19.29,12.52h0a.1.1,0,0,1,0-.12.19.19,0,0,1,.19,0,.28.28,0,0,0-.18,0s0,.06,0,.1Z"/><path d="M19,11.58v0a.81.81,0,0,1,.21-.1.82.82,0,0,0-.2.12Z"/><path d="M19,12.1h0a.3.3,0,0,1,.11-.24.38.38,0,0,0-.09.24Z"/><path d="M19.46,11.15a.49.49,0,0,1-.1-.33h0a.65.65,0,0,0,.09.33Z"/><path d="M20.32,10.93c0-.06.07-.09.14-.11h0c-.08,0-.13.05-.15.1Z"/><path class="cls-1" d="M20.39,11.21a.76.76,0,0,0,.09-.09Z"/><path d="M22,7.34a.15.15,0,0,1-.11,0,.19.19,0,0,0,.18,0,.15.15,0,0,0,.09-.13h0a.15.15,0,0,1-.09.14l-.08,0Z"/><path d="M22.57,7.21s-.07,0-.09,0h0a.2.2,0,0,0,.21,0,.09.09,0,0,0,0-.11.08.08,0,0,1,0,.12.21.21,0,0,1-.14,0Z"/><path d="M22.18,7.94h0A.41.41,0,0,1,22,7.82a.58.58,0,0,0,.19.1h0Z"/><path d="M22.62,7.56a.2.2,0,0,1-.11,0,.34.34,0,0,0,.18,0h-.07Z"/><path d="M21.38,8h0a.65.65,0,0,0,.23-.06.4.4,0,0,1-.23.07Z"/><path class="cls-1" d="M21.24,7.19a.17.17,0,0,0-.14,0Z"/><path d="M22.07,7.61a.75.75,0,0,0,.1-.2h0a.45.45,0,0,1-.11.19Z"/><path d="M21.49,7.85a.45.45,0,0,1-.26-.14c-.05-.06-.1-.1-.14-.08h0c.05,0,.1,0,.16.09s.21.2.38.11a.24.24,0,0,1-.13,0Z"/><path d="M21.59,7.61a.28.28,0,0,1,.05-.2h0a.39.39,0,0,0-.06.19Z"/><path d="M16.13,6.82h0a.14.14,0,0,0,.11-.06s-.07.07-.11.07Z"/><path d="M11.57,11.52a.33.33,0,0,0-.19-.4v0a.35.35,0,0,1,.18.42Z"/><path d="M17.83,6.42l-.11,0h0a.54.54,0,0,0,.28,0,.37.37,0,0,1-.18,0Z"/><path d="M18,6.85c.1,0,.1-.24.1-.33v0h0v0c0,.1,0,.29-.12.33Z"/><path d="M18.16,6.83h-.1a.34.34,0,0,0,.41-.19.29.29,0,0,1-.31.21Z"/><path d="M18.22,7.18A.32.32,0,0,0,18.34,7a.25.25,0,0,0,0-.2h0a.29.29,0,0,1,0,.21.29.29,0,0,1-.14.17Z"/><path d="M18.52,7a.38.38,0,0,1-.16,0h0a.43.43,0,0,0,.35,0,.21.21,0,0,0,.05-.18.15.15,0,0,1-.05.19.31.31,0,0,1-.19.06Z"/><path d="M19,7.12A.52.52,0,0,1,18.66,7h0a.46.46,0,0,0,.38.15c.05,0,.06-.06,0-.13,0,.09,0,.13,0,.14Z"/><path d="M18.35,7.34h-.06a.28.28,0,0,0,.25-.07.25.25,0,0,0,0-.27.25.25,0,0,1,0,.28.28.28,0,0,1-.2.08Z"/><path d="M19.33,7.25a.45.45,0,0,1-.16,0c-.07,0-.15,0-.16-.1h0s.06.07.14.09a.38.38,0,0,0,.3,0,.09.09,0,0,0,0-.1.09.09,0,0,1,0,.11.22.22,0,0,1-.15,0Z"/><path d="M19.68,7.39h0a.29.29,0,0,1-.25-.15h0a.29.29,0,0,0,.25.15.22.22,0,0,0,.2-.07.16.16,0,0,0,0-.16.13.13,0,0,1,0,.17.23.23,0,0,1-.18.07Z"/><path d="M19.92,7.44a.24.24,0,0,1-.17-.06h0a.32.32,0,0,0,.34,0,.17.17,0,0,0,0-.25c.1.14,0,.22,0,.26a.38.38,0,0,1-.19.05Z"/><path d="M20.33,7.45a.35.35,0,0,1-.21-.07v0a.29.29,0,0,0,.3,0,.17.17,0,0,0,.1-.13.28.28,0,0,0-.15-.22c.11.06.17.14.16.22a.17.17,0,0,1-.11.15l-.1,0Z"/><path d="M20.7,7.37a.25.25,0,0,1-.16-.06v0a.23.23,0,0,0,.26,0A.24.24,0,0,0,21,7.14s0-.07-.07-.1a.1.1,0,0,1,.08.1.23.23,0,0,1-.15.2.2.2,0,0,1-.11,0Z"/><path d="M18.65,7.23h-.07a.22.22,0,0,0,.19,0,.16.16,0,0,0,.08-.1.12.12,0,0,1-.07.11.21.21,0,0,1-.13,0Z"/><path d="M19,7.39H19a.18.18,0,0,1-.17-.19h0c0,.1.08.16.16.18a.22.22,0,0,0,.26-.14.21.21,0,0,1-.21.16Z"/><path d="M19.35,7.5a.3.3,0,0,1-.25-.13h0a.27.27,0,0,0,.26.12.16.16,0,0,0,.16-.12.16.16,0,0,1-.16.14Z"/><path d="M19.65,7.56h0a.23.23,0,0,1-.17-.1h0a.15.15,0,0,0,.15.09.25.25,0,0,0,.23-.11.22.22,0,0,1-.22.13Z"/><path d="M20,7.66a.25.25,0,0,1-.23-.13h0a.23.23,0,0,0,.24.12.26.26,0,0,0,.25-.2.27.27,0,0,1-.25.22Z"/><path d="M20.38,7.61a.28.28,0,0,1-.16-.05h0a.32.32,0,0,0,.3,0,.2.2,0,0,0,.09-.21.2.2,0,0,1-.08.22.42.42,0,0,1-.15,0Z"/><path d="M20.74,7.61a.24.24,0,0,1-.18-.07h0a.24.24,0,0,0,.31,0,.23.23,0,0,0,0-.28.2.2,0,0,1,0,.29.21.21,0,0,1-.13.05Z"/><path d="M20.89,7.76v0c.05,0,.09-.08.1-.14a.12.12,0,0,0,0-.13s.07.07.06.14a.19.19,0,0,1-.11.15Z"/><path d="M18.43,7.79h0a.38.38,0,0,0,.19-.23.34.34,0,0,0-.08-.28.33.33,0,0,1,.09.29.37.37,0,0,1-.2.23Z"/><path d="M18.74,7.62a.24.24,0,0,1-.12,0h0a.3.3,0,0,0,.26,0,.31.31,0,0,0,.18-.21.27.27,0,0,1-.18.22.32.32,0,0,1-.14,0Z"/><path d="M18.8,8a.25.25,0,0,0,0-.34h0a.25.25,0,0,1,0,.35Z"/><path d="M19.2,8a.19.19,0,0,0,0-.24.27.27,0,0,0-.36-.06h0a.28.28,0,0,1,.38.07A.16.16,0,0,1,19.2,8Z"/><path d="M19.16,7.73v0a.26.26,0,0,0,.16-.22.27.27,0,0,1-.15.24Z"/><path d="M19.62,8.17c.09-.07.14-.12.14-.17s-.07-.11-.19-.15-.26-.06-.3,0h0c0-.05.2,0,.32,0s.19.11.19.17-.05.11-.15.17Z"/><path d="M19.59,7.85c.07,0,.12-.09.12-.15a.19.19,0,0,0-.13-.16h0a.19.19,0,0,1,.13.17s0,.11-.13.15Z"/><path d="M20.21,8.14c0-.06,0-.11,0-.15a.38.38,0,0,0-.43,0h0a.39.39,0,0,1,.45,0,.1.1,0,0,1,0,.16Z"/><path d="M20.51,8s0,0,0-.07-.11-.09-.21-.09a.22.22,0,0,0-.22.15h0a.22.22,0,0,1,.23-.15c.1,0,.21,0,.23.1a.07.07,0,0,1,0,.07Z"/><path d="M19.92,7.93A.31.31,0,0,0,20,7.66h0a.3.3,0,0,1-.08.28Z"/><path d="M20.39,7.79a.31.31,0,0,0,0-.19h0a.22.22,0,0,1,0,.19Z"/><path d="M20.7,7.84a.18.18,0,0,0,0-.23h0a.18.18,0,0,1,0,.24Z"/><path d="M17,5.83a.2.2,0,0,1-.11,0,.37.37,0,0,1-.11-.32h0a.36.36,0,0,0,.11.31.37.37,0,0,0,.33,0,.53.53,0,0,1-.23.08Z"/><path d="M17,6.14a.22.22,0,0,1-.13,0,.24.24,0,0,1,0-.31h0a.24.24,0,0,0,0,.29c.06.06.19.07.38-.06a.43.43,0,0,1-.26.11Z"/><path d="M16.6,6a.39.39,0,0,1-.26-.12h0a.29.29,0,0,0,.4.06c.08-.06.11-.19,0-.38.15.19.11.33,0,.4a.28.28,0,0,1-.16,0Z"/><path d="M17.18,6.39l-.09,0A.21.21,0,0,1,17,6.13h0a.19.19,0,0,0,.06.21.25.25,0,0,0,.26,0,.34.34,0,0,1-.18.07Z"/><path d="M16.5,6.32a.31.31,0,0,1-.13,0A.46.46,0,0,1,16.13,6h0a.45.45,0,0,0,.24.32.31.31,0,0,0,.31,0,.34.34,0,0,1-.19.07Z"/><path d="M16.73,6.6h0a.29.29,0,0,1-.25-.3h0a.27.27,0,0,0,.23.29.34.34,0,0,0,.37-.26.34.34,0,0,1-.33.27Z"/><path d="M17.17,6.77h0a.32.32,0,0,1-.28-.2h0a.32.32,0,0,0,.27.2.41.41,0,0,0,.35-.2.41.41,0,0,1-.34.21Z"/><path d="M16.83,6.29a.16.16,0,0,1-.1,0A.37.37,0,0,1,16.52,6h0a.31.31,0,0,0,.48.2.38.38,0,0,1-.19.06Z"/><path d="M15.91,6.15a.25.25,0,0,1-.12,0A.3.3,0,0,1,15.6,6h0a.28.28,0,0,0,.18.17.4.4,0,0,0,.36-.06.4.4,0,0,1-.25.09Z"/><path d="M15.92,6.4a.24.24,0,0,1-.14-.05.18.18,0,0,1,0-.23h0a.15.15,0,0,0,0,.21c.09.07.28.07.49-.12a.53.53,0,0,1-.36.18Z"/><path d="M16.2,6.76h-.05c-.13,0-.17-.21-.2-.36h0c0,.14.08.31.19.35s.23,0,.41-.2a.55.55,0,0,1-.36.22Z"/><path d="M16.67,6.9a.47.47,0,0,1-.33-.19h0a.43.43,0,0,0,.32.19.41.41,0,0,0,.29-.2.35.35,0,0,1-.29.21Z"/><path d="M17.33,7.11a.2.2,0,0,1-.14-.05.4.4,0,0,1-.06-.3h0c0,.15,0,.24.05.29a.21.21,0,0,0,.15,0,.49.49,0,0,0,.35-.24.42.42,0,0,1-.35.25Z"/><path d="M17.58,7.43a.21.21,0,0,1-.12,0,.31.31,0,0,1-.15-.3h0a.3.3,0,0,0,.14.29c.11.06.26,0,.44-.1a.54.54,0,0,1-.33.14Z"/><path d="M17.82,7.81a.34.34,0,0,1-.26-.1.32.32,0,0,1-.09-.31h0a.26.26,0,0,0,.08.29.44.44,0,0,0,.49,0,.57.57,0,0,1-.24.06Z"/><path d="M16.77,7.17a.19.19,0,0,1-.1,0,.24.24,0,0,1-.11-.26h0a.24.24,0,0,0,.11.25c.11.06.28,0,.46-.16a.57.57,0,0,1-.37.2Z"/><path d="M17,7.45l-.08,0a.31.31,0,0,1-.19-.27h0a.31.31,0,0,0,.18.26c.08,0,.22,0,.41-.17a.44.44,0,0,1-.33.2Z"/><path d="M17.17,7.77l-.11,0a.3.3,0,0,1-.15-.33h0a.27.27,0,0,0,.14.3.37.37,0,0,0,.42-.13.43.43,0,0,1-.31.17Z"/><path d="M16.43,7.17h0a.21.21,0,0,0,.16-.11.17.17,0,0,1-.15.12Z"/><path d="M16.6,7.43h0v0a.22.22,0,0,0,.2-.11.21.21,0,0,1-.18.13Z"/><path d="M16.85,7.88a.16.16,0,0,1-.12,0h0a.2.2,0,0,0,.19,0,.22.22,0,0,0,.16-.11c0,.07-.09.11-.15.12Z"/><path d="M17.32,8.07A.34.34,0,0,1,17,7.84h0a.34.34,0,0,0,.3.23h0a.42.42,0,0,0,.35-.28.4.4,0,0,1-.35.29Z"/><path d="M18,8.17a.36.36,0,0,1-.36-.26h0a.41.41,0,0,0,.52.24l-.17,0Z"/><path d="M17.88,8.5a.2.2,0,0,1-.13,0,.28.28,0,0,1,0-.36h0a.27.27,0,0,0,0,.34c.09.07.24,0,.39-.09a.39.39,0,0,1-.27.14Z"/><path d="M18.17,8.87a.36.36,0,0,1-.27-.14.32.32,0,0,1-.08-.24h0a.32.32,0,0,0,.07.22.46.46,0,0,0,.26.15Z"/><path d="M17.43,8.45a.27.27,0,0,1-.16,0,.39.39,0,0,1-.13-.4h0c0,.18,0,.32.12.38a.37.37,0,0,0,.41,0,.48.48,0,0,1-.26.09Z"/><path d="M16.94,8.25a.38.38,0,0,1-.19-.05h0a.47.47,0,0,0,.39,0,.52.52,0,0,1-.21,0Z"/><path d="M17.55,8.8l-.1,0a.29.29,0,0,1-.13-.35h0a.29.29,0,0,0,.11.34c.1,0,.24,0,.39-.15a.38.38,0,0,1-.29.18Z"/><path d="M17.2,8.54A.38.38,0,0,1,17,8.47a.35.35,0,0,1-.12-.23h0a.29.29,0,0,0,.11.22.39.39,0,0,0,.31.06l-.11,0Z"/><path d="M18.12,9.33c-.16-.07-.2-.17-.2-.23a.31.31,0,0,1,.15-.26v0a.25.25,0,0,0-.14.24.27.27,0,0,0,.18.23Z"/><path d="M17.93,9.09a.27.27,0,0,1-.31-.3h0c0,.19.1.28.3.3Z"/><path d="M17.43,9.09A.2.2,0,0,1,17.27,9c-.06-.07-.06-.21.08-.34h0c-.14.13-.14.25-.08.32s.22.1.39,0a.37.37,0,0,1-.24.11Z"/><path d="M17.74,9.4l-.09,0a.25.25,0,0,1-.11-.32h0a.22.22,0,0,0,.11.29A.25.25,0,0,0,18,9.23a.27.27,0,0,1-.24.17Z"/><path d="M17.17,8.91A.23.23,0,0,1,17,8.82a.37.37,0,0,1,0-.37h0a.4.4,0,0,0,0,.36.27.27,0,0,0,.24.09Z"/><path d="M16.82,8.6a.18.18,0,0,1-.13,0,.26.26,0,0,1-.09-.17h0a.22.22,0,0,0,.07.16.32.32,0,0,0,.24,0l-.11,0Z"/><path d="M16.86,8.88a.19.19,0,0,1-.15-.06.19.19,0,0,1,0-.25h0a.19.19,0,0,0,0,.23.28.28,0,0,0,.31,0,.38.38,0,0,1-.17,0Z"/><path d="M18,9.69a.26.26,0,0,1-.2-.1c0-.05,0-.11,0-.21h0a.24.24,0,0,0,0,.19.27.27,0,0,0,.19.11Z"/><path d="M17.72,10.15a.29.29,0,0,1-.15-.29.33.33,0,0,1,.23-.26h0a.35.35,0,0,0-.22.26.32.32,0,0,0,.14.28Z"/><path d="M17.62,9.74a.22.22,0,0,1-.14-.19.3.3,0,0,1,.09-.25h0a.3.3,0,0,0-.08.24.22.22,0,0,0,.12.19Z"/><path d="M16.51,8.89a.18.18,0,0,1-.15-.08.29.29,0,0,1,0-.35h0a.27.27,0,0,0,0,.34c.08.09.2.09.33,0a.3.3,0,0,1-.19.08Z"/><path d="M17.37,9.43a.22.22,0,0,1-.2-.11A.28.28,0,0,1,17.26,9h0a.26.26,0,0,0-.09.3c.05.1.17.13.32.1l-.13,0Z"/><path d="M17.11,9.3a.23.23,0,0,1-.21-.09c0-.07,0-.18,0-.34h0a.39.39,0,0,0,0,.32.3.3,0,0,0,.25.09Z"/><path d="M16.2,9a.17.17,0,0,1-.12,0,.3.3,0,0,1,.05-.45h0a.29.29,0,0,0-.12.21.31.31,0,0,0,.07.22.16.16,0,0,0,.14,0,.19.19,0,0,0,.14-.11.18.18,0,0,1-.14.13Z"/><path d="M15.92,8.85a.25.25,0,0,1-.22-.12.34.34,0,0,1,0-.41h0a.34.34,0,0,0,0,.39.28.28,0,0,0,.33.1l-.12,0Z"/><path d="M16.79,9.65a.22.22,0,0,1-.17-.06.24.24,0,0,1,0-.2.47.47,0,0,1,.29-.26h0a.45.45,0,0,0-.29.26.24.24,0,0,0,0,.18.25.25,0,0,0,.22.05.39.39,0,0,0,.29-.33.39.39,0,0,1-.29.34Z"/><path d="M16.63,9.31a.27.27,0,0,1-.21-.17.27.27,0,0,1,.06-.26h0a.28.28,0,0,0-.06.24.3.3,0,0,0,.2.18Z"/><path d="M16.29,9.54c-.05-.17.06-.26.18-.33v0c-.11.06-.22.14-.18.31Z"/><path d="M16.32,9.35c-.15-.06-.2-.21-.16-.41h0c-.05.2,0,.34.14.41Z"/><path d="M15.93,9.47a.2.2,0,0,1,0-.21.3.3,0,0,1,.25-.07h0a.25.25,0,0,0-.23.07s0,.11,0,.2Z"/><path d="M15.94,9.25a.28.28,0,0,1-.18-.15.38.38,0,0,1,0-.29.4.4,0,0,0,0,.28.28.28,0,0,0,.17.15Z"/><path d="M15.45,9.36c0-.17.1-.27.31-.28h0c-.21,0-.32.11-.32.27Z"/><path d="M15.5,8.74h-.07a.18.18,0,0,1-.12-.1.28.28,0,0,1,0-.24.3.3,0,0,1,.16-.17h0a.28.28,0,0,0-.15.17.3.3,0,0,0,0,.23.18.18,0,0,0,.12.08.26.26,0,0,0,.23,0,.21.21,0,0,1-.17.07Z"/><path d="M15.2,8.48a.25.25,0,0,1-.2-.12.26.26,0,0,1,0-.31h0a.24.24,0,0,0,0,.29.25.25,0,0,0,.29.11l-.1,0Z"/><path d="M14.87,8.37a.3.3,0,0,1-.24-.12.29.29,0,0,1,0-.33h0a.29.29,0,0,0,0,.31.33.33,0,0,0,.36.1l-.13,0Z"/><path d="M15,9.25a.21.21,0,0,1,.1-.24c.11,0,.26,0,.41.15C15.37,9,15.23,9,15.12,9a.21.21,0,0,0-.09.23Z"/><path d="M15.27,9a.33.33,0,0,1,.1-.31h0a.39.39,0,0,0-.11.3Z"/><path d="M14.46,8.24a.29.29,0,0,1-.22-.1.3.3,0,0,1,0-.33h0a.27.27,0,0,0,0,.31.32.32,0,0,0,.35.08l-.15,0Z"/><path d="M15.13,9A.35.35,0,0,1,15,8.75a.37.37,0,0,1,.14-.3h0a.38.38,0,0,0-.14.29.39.39,0,0,0,.15.26Z"/><path d="M14.9,9.2a.26.26,0,0,1-.19-.31A.24.24,0,0,1,15,8.7h0a.24.24,0,0,0-.25.18.29.29,0,0,0,.18.31Z"/><path d="M14.78,8.77a.23.23,0,0,1-.17-.2.27.27,0,0,1,.11-.25h0a.28.28,0,0,0-.11.24.25.25,0,0,0,.16.2Z"/><path d="M14.43,9.07a.16.16,0,0,1,.06-.17.23.23,0,0,1,.23,0h0a.22.22,0,0,0-.21,0,.17.17,0,0,0-.07.16Z"/><path d="M14.06,9a.2.2,0,0,1,.13-.26.29.29,0,0,1,.32.2h0a.26.26,0,0,0-.3-.18.19.19,0,0,0-.14.24Z"/><path d="M14.32,8.72c0-.14.23-.18.29-.19h0a.41.41,0,0,0-.29.18Z"/><path d="M14.43,8.6a.2.2,0,0,1-.16-.16.26.26,0,0,1,.06-.24h0a.25.25,0,0,0-.06.23.24.24,0,0,0,.15.16Z"/><path d="M14.1,8A.22.22,0,0,1,13.93,8a.29.29,0,0,1,0-.22h0c0,.1,0,.17,0,.21s.12.07.25.06Z"/><path d="M14.18,8.32a.22.22,0,0,1-.2-.08c-.05-.06,0-.14,0-.25h0a.23.23,0,0,0,0,.23c0,.07.14.1.28.09Z"/><path d="M14.14,8.72a.25.25,0,0,1-.17-.2A.25.25,0,0,1,14,8.28h0a.28.28,0,0,0-.07.22.31.31,0,0,0,.16.21Z"/><path d="M13.76,8.92a.3.3,0,0,1,0-.33A.22.22,0,0,1,14,8.5v0a.2.2,0,0,0-.21.08.36.36,0,0,0,0,.32Z"/><path d="M13.75,8.2a.18.18,0,0,1-.16-.08.21.21,0,0,1,0-.19.34.34,0,0,1,.2-.22h0a.31.31,0,0,0-.18.21.22.22,0,0,0,0,.18c.09.12.26.07.35,0a.28.28,0,0,1-.2.08Z"/><path d="M13.78,8.58a.3.3,0,0,1-.19-.17.34.34,0,0,1,.05-.25h0a.25.25,0,0,0,0,.23.27.27,0,0,0,.17.18Z"/><path d="M13.35,8h0a.28.28,0,0,1-.26-.15.18.18,0,0,1,0-.2h0a.19.19,0,0,0,0,.19.29.29,0,0,0,.25.14.26.26,0,0,0,.22-.12.22.22,0,0,0,0-.21.18.18,0,0,1,0,.22.26.26,0,0,1-.23.12Z"/><path d="M13.5,8.39a.22.22,0,0,1-.19-.08.28.28,0,0,1,0-.28h0a.24.24,0,0,0,0,.26.29.29,0,0,0,.27.08Z"/><path d="M13.39,8.9a.15.15,0,0,1,0-.2.31.31,0,0,1,.34,0h0a.3.3,0,0,0-.32,0,.16.16,0,0,0,0,.19Z"/><path d="M13.4,8.71a.29.29,0,0,1-.05-.37h0a.3.3,0,0,0,0,.36Z"/><path d="M13.18,8.94a.19.19,0,0,1,0-.2.23.23,0,0,1,.18-.1h0a.26.26,0,0,0-.18.1s0,.11,0,.19Z"/><path d="M12.91,9c-.06-.06-.07-.12,0-.17a.24.24,0,0,1,.27-.08v0a.24.24,0,0,0-.26.07.13.13,0,0,0,0,.16Z"/><path d="M12.7,9.13a.14.14,0,0,1,0-.18.21.21,0,0,1,.21-.11v0a.2.2,0,0,0-.2.09.16.16,0,0,0,0,.18Z"/><path d="M12.5,9.3a.12.12,0,0,1-.06-.13.29.29,0,0,1,.2-.17h0a.29.29,0,0,0-.2.17.13.13,0,0,0,.05.12Z"/><path d="M13.18,8.72a.31.31,0,0,1,0-.28.24.24,0,0,1,.15-.16h0a.24.24,0,0,0-.15.16.37.37,0,0,0,0,.27Z"/><path d="M13.13,8.48a.31.31,0,0,1,0-.59v0a.28.28,0,0,0-.19.27.32.32,0,0,0,.22.3Z"/><path d="M12.92,8.8a.18.18,0,0,1-.07-.19A.28.28,0,0,1,13,8.4h0a.29.29,0,0,0-.15.2.22.22,0,0,0,.06.19Z"/><path d="M12.87,8.13a.23.23,0,0,1-.23-.19.18.18,0,0,1,.07-.19v0c-.05,0-.08.09-.06.17a.22.22,0,0,0,.25.18Z"/><path d="M12.56,8.23l-.11,0A.24.24,0,0,1,12.32,8a.21.21,0,0,1,.08-.16h0a.16.16,0,0,0-.07.15.21.21,0,0,0,.12.17.37.37,0,0,0,.35-.08.35.35,0,0,1-.25.11Z"/><path d="M12.84,8.55a.21.21,0,0,1-.19-.09.26.26,0,0,1,0-.24h0a.3.3,0,0,0,0,.24.29.29,0,0,0,.21.09Z"/><path d="M12.73,8.87a.23.23,0,0,1-.24-.19.25.25,0,0,1,.14-.26h0a.23.23,0,0,0,.11.44Z"/><path d="M12.17,8.35h0A.17.17,0,0,1,12,8.26a.18.18,0,0,1,.07-.17h0c-.06.05-.08.11-.06.15s.07.08.14.09a.25.25,0,0,0,.24-.16.24.24,0,0,1-.23.17Z"/><path d="M11.93,8.68a.23.23,0,0,1-.18-.11.12.12,0,0,1,0-.13h0a.11.11,0,0,0,0,.11.18.18,0,0,0,.18.1c.07,0,.18-.05.26-.32-.07.28-.19.33-.26.34Z"/><path d="M12.49,8.56a.22.22,0,0,1-.25-.23h0a.24.24,0,0,0,.26.23Z"/><path d="M12.45,9.15a.21.21,0,0,1-.2-.21.28.28,0,0,1,.25-.25v0a.25.25,0,0,0-.24.23c0,.1.06.18.18.21Z"/><path d="M12.21,8.87a.25.25,0,0,1-.15-.06A.17.17,0,0,1,12,8.65h0a.2.2,0,0,0,.06.15.25.25,0,0,0,.21.06Z"/><path d="M12.32,9.5a.12.12,0,0,1-.12-.1.26.26,0,0,1,.22-.26h0a.24.24,0,0,0-.2.25.11.11,0,0,0,.14.1Z"/><path d="M12.24,9.81a.22.22,0,0,1-.17-.19.24.24,0,0,1,.14-.22.24.24,0,0,0-.12.22.21.21,0,0,0,.15.18Z"/><path d="M12.12,10h-.07A.19.19,0,0,1,12,9.81a.23.23,0,0,1,.11-.23h0a.22.22,0,0,0-.11.22.23.23,0,0,0,.09.17.16.16,0,0,0,.12,0,.13.13,0,0,0,.05-.07.08.08,0,0,1-.05.09Z"/><path d="M12.14,10.32a.22.22,0,0,1-.15-.06s-.08-.14,0-.31c-.07.13-.08.23,0,.3a.18.18,0,0,0,.19,0,0,0,0,0,0,0,0h0a.07.07,0,0,1,0,.06Z"/><path d="M12.12,10.59a.11.11,0,0,1-.08,0,.2.2,0,0,1,0-.29h0a.19.19,0,0,0,0,.27.15.15,0,0,0,.22-.06.17.17,0,0,1-.14.1Z"/><path d="M12.21,10.8l-.1,0a.2.2,0,0,1-.08-.23h0a.16.16,0,0,0,.07.2.17.17,0,0,0,.23,0,.17.17,0,0,1-.14.07Z"/><path d="M11.67,8.93a.19.19,0,0,1-.13,0,.09.09,0,0,1,0-.1h0a.06.06,0,0,0,0,.09.17.17,0,0,0,.17,0,.25.25,0,0,0,.16-.24.22.22,0,0,1-.15.25Z"/><path d="M11.59,9.25a.2.2,0,0,1-.11,0A.17.17,0,0,1,11.42,9h0a.13.13,0,0,0,.06.17.23.23,0,0,0,.26,0,.25.25,0,0,0,.05-.31.25.25,0,0,1,0,.32.34.34,0,0,1-.17.05Z"/><path d="M11.94,9.13a.21.21,0,0,1-.12,0h0a.26.26,0,0,0,.23,0,.31.31,0,0,0,.17-.22.27.27,0,0,1-.16.23.31.31,0,0,1-.13,0Z"/><path d="M12.22,9.32A.29.29,0,0,1,12,9.1h0a.31.31,0,0,0,.16.22Z"/><path d="M12.05,9.5a.33.33,0,0,1-.24-.1.24.24,0,0,1-.07-.21h0a.25.25,0,0,0,.06.2.36.36,0,0,0,.29.11Z"/><path d="M12,9.78a.24.24,0,0,1-.23-.11.35.35,0,0,1,.06-.31h0a.28.28,0,0,0,0,.29c0,.08.11.12.23.12Z"/><path d="M11.49,9.6l-.12,0a.14.14,0,0,1-.08-.16h0a.13.13,0,0,0,.08.14.25.25,0,0,0,.33-.1.25.25,0,0,1-.22.14Z"/><path d="M11.32,9.89h0a.12.12,0,0,1-.08-.12h0s0,.08.08.1.22-.05.3-.31c-.06.24-.17.32-.27.32Z"/><path d="M11.69,9.93h0a.23.23,0,0,1-.2-.12h0a.22.22,0,0,0,.19.12.23.23,0,0,0,.21-.14.21.21,0,0,1-.2.15Z"/><path d="M11.87,10.2a.18.18,0,0,1-.15-.07.2.2,0,0,1-.05-.21h0a.17.17,0,0,0,0,.19.21.21,0,0,0,.23.06.15.15,0,0,1-.09,0Z"/><path d="M11.58,10.18a.27.27,0,0,1-.14,0,.23.23,0,0,1-.11-.25h0a.25.25,0,0,0,.11.24.28.28,0,0,0,.28,0,.27.27,0,0,1-.15,0Z"/><path d="M11.38,10.3a.19.19,0,0,1-.1,0,.22.22,0,0,1-.13-.28h0a.21.21,0,0,0,.11.27.26.26,0,0,0,.32-.09.24.24,0,0,1-.22.13Z"/><path d="M11.79,10.49a.31.31,0,0,1-.13,0,.23.23,0,0,1-.16-.2h0a.26.26,0,0,0,.15.19.33.33,0,0,0,.32,0,.33.33,0,0,1-.19.06Z"/><path d="M11.17,10.48a.21.21,0,0,1-.12,0s0,0,0,0h0a0,0,0,0,0,0,0,.21.21,0,0,0,.18,0,.2.2,0,0,0,.13-.16.16.16,0,0,1-.12.17l-.08,0Z"/><path d="M11.45,10.63h0a.24.24,0,0,1-.2-.16h0a.24.24,0,0,0,.2.16.27.27,0,0,0,.25-.16.26.26,0,0,1-.23.17Z"/><path d="M11.87,10.77l-.12,0a.26.26,0,0,1-.15-.19h0a.24.24,0,0,0,.14.17.34.34,0,0,0,.31,0,.33.33,0,0,1-.19.06Z"/><path d="M12.37,11.13a.21.21,0,0,1-.1,0,.28.28,0,0,1-.13-.31h0a.28.28,0,0,0,.13.3.17.17,0,0,0,.21,0,.14.14,0,0,1-.12.06Z"/><path d="M12,11.07a.25.25,0,0,1-.16-.06.21.21,0,0,1-.1-.27h0a.23.23,0,0,0,.09.26.29.29,0,0,0,.33,0,.28.28,0,0,1-.17.07Z"/><path d="M11.6,10.93a.22.22,0,0,1-.13,0,.3.3,0,0,1-.11-.28h0a.28.28,0,0,0,.11.27.26.26,0,0,0,.27,0,.3.3,0,0,1-.15,0Z"/><path d="M11.21,10.85a.43.43,0,0,1-.2-.06.14.14,0,0,1-.06-.16h0a.11.11,0,0,0,.06.13.33.33,0,0,0,.37,0,.24.24,0,0,1-.18.07Z"/><path d="M10.85,11.11a.12.12,0,0,1-.11,0h0a.16.16,0,0,0,.18,0,.33.33,0,0,0,.23-.24.31.31,0,0,1-.23.26Z"/><path d="M11.32,11.12a.36.36,0,0,1-.25-.11h0a.34.34,0,0,0,.27.11.26.26,0,0,0,.19-.19c0,.15-.12.19-.19.2Z"/><path d="M11.69,11.28h0a.21.21,0,0,1-.19-.2h0a.21.21,0,0,0,.18.19c.12,0,.23-.06.28-.22-.06.21-.18.24-.24.24Z"/><path d="M12.54,11.38a.21.21,0,0,1-.17-.1.26.26,0,0,1,0-.17h0a.17.17,0,0,0,0,.15.25.25,0,0,0,.17.11Z"/><path d="M12.27,11.28a.24.24,0,0,1-.15-.06.19.19,0,0,1-.07-.16h0a.19.19,0,0,0,.07.15.24.24,0,0,0,.23,0l-.09,0Z"/><path d="M12.52,11.59a.13.13,0,0,1-.11-.06.26.26,0,0,1,0-.23h0a.24.24,0,0,0,0,.22.15.15,0,0,0,.13.06Z"/><path d="M12.49,11.81a.14.14,0,0,1-.14-.1.18.18,0,0,1,.06-.19h0a.15.15,0,0,0,.1.28Z"/><path d="M12.42,12.05a.17.17,0,0,1-.16-.11.21.21,0,0,1,.09-.25v0a.2.2,0,0,0-.09.22.19.19,0,0,0,.2.12Z"/><path d="M12,11.43h0a.2.2,0,0,1-.17-.22h0a.18.18,0,0,0,.36,0,.18.18,0,0,1-.18.17Z"/><path d="M12.26,11.67a.2.2,0,0,1-.14-.06.2.2,0,0,1,0-.2h0a.2.2,0,0,0,0,.18.24.24,0,0,0,.22.06Z"/><path d="M12.16,13.22l0,0h0s.06,0,.09,0,.09-.08.06-.14-.08-.05-.12,0a.09.09,0,0,0-.07.1c0-.06,0-.1.07-.11a.09.09,0,0,1,.13.05.11.11,0,0,1-.07.15l-.06,0Z"/><path d="M12.25,13h0a.14.14,0,0,0-.1-.16A.13.13,0,0,0,12,13a.14.14,0,0,1,.17-.12.15.15,0,0,1,.1.18Z"/><path d="M12.06,12.85h0s0-.05,0-.07a.14.14,0,0,0-.12-.07s-.06,0-.09.06a.09.09,0,0,1,.09-.08h0a.14.14,0,0,1,.13.08.07.07,0,0,1,0,.09Z"/><path d="M11.91,12.7h0a.09.09,0,0,0,0-.1s-.08-.05-.11,0a.06.06,0,0,0,0,.06.06.06,0,0,1,0-.08.12.12,0,0,1,.13,0,.1.1,0,0,1,0,.12Z"/><path d="M11.84,12.55a.12.12,0,0,0,0-.1s-.08,0-.12,0-.06,0-.06,0h0s0,0,.07,0a.16.16,0,0,1,.14.06.1.1,0,0,1,0,.11Z"/><path d="M12,12.74h0a.11.11,0,0,0,0-.15.13.13,0,0,0-.17-.05c.06-.06.13,0,.18,0a.14.14,0,0,1,0,.17Z"/><path d="M12.77,13.35a.15.15,0,0,1-.16-.1.19.19,0,0,1,0-.18.11.11,0,0,1,.11-.06h0a.12.12,0,0,0-.1.06s0,.09,0,.16a.15.15,0,0,0,.15.1h0a.09.09,0,0,0,.08,0s0,0-.08,0Z"/><path d="M12.54,13.38a.14.14,0,0,1-.12-.08.15.15,0,0,1,0-.19.16.16,0,0,1,.15,0v0a.11.11,0,0,0-.14,0,.12.12,0,0,0,0,.17.12.12,0,0,0,.11.07.11.11,0,0,0,.1-.06s-.05.07-.1.07Z"/><path d="M12.26,13.38a.12.12,0,0,1-.11,0h0s.05,0,.1,0a.18.18,0,0,0,.15-.07s-.09.08-.15.08Z"/><path d="M12.43,13.15l-.07,0h0a.08.08,0,0,1,.07.05Z"/><path d="M12.35,12.27a.13.13,0,0,1-.12-.09.15.15,0,0,1,0-.21h0a.15.15,0,0,0,0,.2.14.14,0,0,0,.19.07l-.08,0Z"/><path d="M12.33,12.46a.12.12,0,0,1-.11-.07.17.17,0,0,1,0-.21h0a.15.15,0,0,0,0,.19.13.13,0,0,0,.19,0l-.09,0Z"/><path d="M12.39,12.68a.13.13,0,0,1-.13-.09.13.13,0,0,1,0-.16h0a.13.13,0,0,0,0,.15.18.18,0,0,0,.19.08Z"/><path d="M12.05,12.6a.17.17,0,0,1,.2-.07h0a.19.19,0,0,0-.19.06Z"/><path d="M12.24,11.9a.18.18,0,0,1-.17-.11.18.18,0,0,1,0-.19h0a.15.15,0,0,0,0,.17.17.17,0,0,0,.17.12Z"/><path d="M12.21,12.17A.2.2,0,0,1,12,12a.18.18,0,0,1,.09-.21h0A.18.18,0,0,0,12,12a.23.23,0,0,0,.23.16Z"/><path d="M12.18,12.41a.13.13,0,0,1-.13-.09.16.16,0,0,1,0-.2h0a.17.17,0,0,0,0,.18.15.15,0,0,0,.18.09Z"/><path d="M12.14,12.53a.09.09,0,0,1,0-.13h0a.09.09,0,0,0,0,.12Z"/><path d="M11.86,12.44a.2.2,0,0,1,.19-.14h0a.24.24,0,0,0-.19.13Z"/><path d="M12,12.32a.21.21,0,0,0-.17-.18c-.05,0-.09,0-.1,0h0s.06-.05.12-.05a.2.2,0,0,1,.17.2Z"/><path d="M11.91,12.16c0-.07.07-.1.1-.11v0a.13.13,0,0,0-.11.09Z"/><path d="M12.07,11.81a.24.24,0,0,1-.23-.17.26.26,0,0,1,.07-.26h0a.29.29,0,0,0-.07.25.26.26,0,0,0,.22.17Z"/><path d="M11.72,12h0s0-.07.09-.09a.18.18,0,0,1,.2.06.17.17,0,0,0-.19,0c-.05,0-.09,0-.09.07Z"/><path d="M11.76,11.66h0a.2.2,0,0,1-.14-.09h0a.27.27,0,0,0,.13.09.14.14,0,0,0,.12,0,.09.09,0,0,1-.08,0Z"/><path d="M11.07,11.35a.23.23,0,0,1-.16-.06.27.27,0,0,1-.08-.19h0a.24.24,0,0,0,.07.18.23.23,0,0,0,.18.05.15.15,0,0,0,.13-.08.16.16,0,0,0,0-.15.16.16,0,0,1,0,.16.2.2,0,0,1-.15.09Z"/><path d="M11.21,11.61a.12.12,0,0,1-.1-.06.17.17,0,0,1,0-.21h0a.15.15,0,0,0,0,.19.12.12,0,0,0,.14.05l0,0Z"/><path d="M11.56,11.29c-.07-.08-.27,0-.32,0h0c.07,0,.27-.05.33,0Z"/><path d="M10.75,11.38a.26.26,0,0,1-.14,0s0,0,0-.06h0s0,0,0,0a.25.25,0,0,0,.31,0,.19.19,0,0,1-.18.09Z"/><path d="M11,11.57a.17.17,0,0,1-.1,0,.2.2,0,0,1-.06-.17h0a.17.17,0,0,0,.06.15.2.2,0,0,0,.21,0l-.12,0Z"/><path d="M10.93,11.89a.09.09,0,0,1-.08,0,.15.15,0,0,1,0-.22.17.17,0,0,1,.23,0c.05,0,.07.07.05.11h0s0-.06-.05-.09a.15.15,0,0,0-.21,0,.14.14,0,0,0,0,.2.09.09,0,0,0,.11,0,0,0,0,0,1,0,0Z"/><path d="M10.73,11.61a.16.16,0,0,1-.12,0,.16.16,0,0,1-.09-.19h0s0,.13.07.17a.19.19,0,0,0,.27,0,.18.18,0,0,1-.15.09Z"/><path d="M10.47,11.84a.15.15,0,0,1-.13-.08.14.14,0,0,1,0-.17h0a.12.12,0,0,0,0,.16.14.14,0,0,0,.17.05.18.18,0,0,0,.11-.12.13.13,0,0,0,0-.11s.05.06,0,.12a.19.19,0,0,1-.12.13Z"/><path d="M10.27,12a.15.15,0,0,1-.13-.1.16.16,0,0,1,0-.15h0a.13.13,0,0,0,0,.13.15.15,0,0,0,.12.1.17.17,0,0,0,.12,0,.15.15,0,0,0,0-.13.12.12,0,0,1,0,.14.17.17,0,0,1-.13,0Z"/><path d="M10.74,11.9l-.07,0a.11.11,0,0,1-.07-.12h0a.1.1,0,0,0,.07.1.14.14,0,0,0,.17,0,.17.17,0,0,1-.11.06Z"/><path class="cls-1" d="M10.86,11.65a.08.08,0,0,0,0-.08Z"/><path d="M10.1,12.09h0A.14.14,0,0,1,10,12a.06.06,0,0,1,0-.07h0s0,0,0,.06a.11.11,0,0,0,.1.08c.05,0,.09,0,.13-.07a.12.12,0,0,1-.12.09Z"/><path d="M10.77,12.05a.1.1,0,0,1-.08-.05.11.11,0,0,1,0-.12h0s0,.07,0,.1a.11.11,0,0,0,.12,0l-.05,0Z"/><path d="M10.54,12.1h-.06a.15.15,0,0,1-.11-.11h0a.16.16,0,0,0,.11.1A.2.2,0,0,0,10.7,12a.2.2,0,0,1-.16.1Z"/><path d="M10.56,12.23a.06.06,0,0,1-.06,0,.11.11,0,0,1,0-.12h0a.11.11,0,0,0,0,.11.07.07,0,0,0,.08,0Z"/><path d="M12.48,12.86a.2.2,0,0,1-.11,0,.14.14,0,0,1-.06-.18h0c0,.06,0,.12,0,.16a.22.22,0,0,0,.27,0,.21.21,0,0,1-.16.08Z"/><path d="M12.56,13.08a.17.17,0,0,1-.08-.22h0a.19.19,0,0,0,.07.21Z"/><path d="M12.27,13h0a.19.19,0,0,1,.08-.1.22.22,0,0,1,.14,0,.31.31,0,0,0-.13,0,.15.15,0,0,0-.08.08Z"/><path d="M12.15,12.84h0a.23.23,0,0,1,.07-.1.2.2,0,0,1,.1,0l-.09,0a.2.2,0,0,0-.07.09Z"/><path d="M17.58,10.4a.18.18,0,0,1-.12-.05.29.29,0,0,1-.06-.29.19.19,0,0,1,.18-.11v0a.16.16,0,0,0-.17.1.27.27,0,0,0,.06.27.18.18,0,0,0,.2,0l-.09,0Z"/><path d="M17.58,10.56a.09.09,0,0,1-.08,0,.14.14,0,0,1,0-.18h0a.12.12,0,0,0,0,.16.11.11,0,0,0,.16,0,.12.12,0,0,1-.09,0Z"/><path d="M17.85,10.81a.27.27,0,0,1-.22-.12.14.14,0,0,1,0-.15h0a.15.15,0,0,0,0,.13.26.26,0,0,0,.21.12h0a.17.17,0,0,0,.16-.1.14.14,0,0,1-.16.11Z"/><path d="M18.14,11a.25.25,0,0,1-.13,0c-.07,0-.11-.08-.11-.12h0a.11.11,0,0,0,.09.1.23.23,0,0,0,.24,0,.16.16,0,0,0,0-.16c0,.1,0,.15,0,.17a.19.19,0,0,1-.12,0Z"/><path d="M18.52,11.05a.35.35,0,0,1-.28-.14h0a.32.32,0,0,0,.35.12.15.15,0,0,0,.09-.18.14.14,0,0,1-.09.19l-.09,0Z"/><path d="M18.9,11.14a.36.36,0,0,1-.28-.11h0a.37.37,0,0,0,.35.09.12.12,0,0,0,.09-.14.13.13,0,0,1-.09.16Z"/><path d="M17.3,9.66l-.13,0A.27.27,0,0,1,17,9.51h0a.18.18,0,0,0,.12.12.4.4,0,0,0,.32,0,.53.53,0,0,1-.2.05Z"/><path d="M16.77,10a.14.14,0,0,1-.1,0,.18.18,0,0,0,.16,0A.3.3,0,0,0,17,9.71a.12.12,0,0,0,0-.1h0a.12.12,0,0,1,0,.11.27.27,0,0,1-.15.23l-.06,0Z"/><path d="M17.06,9.88a.28.28,0,0,1-.13,0v0a.22.22,0,0,0,.21,0,.24.24,0,0,0,.14-.18.21.21,0,0,1-.13.19.19.19,0,0,1-.1,0Z"/><path d="M17.45,10a.24.24,0,0,1-.17-.06.14.14,0,0,1-.07-.11h0a.14.14,0,0,0,.07.1.35.35,0,0,0,.29,0l-.13,0Z"/><path d="M16.73,10.3a.09.09,0,0,1-.08,0,.12.12,0,0,0,.1,0,.23.23,0,0,0,.16-.17.17.17,0,0,0-.06-.18h0a.18.18,0,0,1,.06.19.25.25,0,0,1-.17.19Z"/><path d="M17,10.08a.21.21,0,0,1-.12,0h0a.25.25,0,0,0,.21,0,.19.19,0,0,0,.12-.15.17.17,0,0,1-.11.16l-.11,0Z"/><path d="M17.36,10.19a.18.18,0,0,1-.21-.15h0c0,.1.09.15.22.15Z"/><path d="M17.1,10.31a.28.28,0,0,1-.23-.11h0a.28.28,0,0,0,.23.11.2.2,0,0,0,.18-.11.18.18,0,0,1-.18.12Z"/><path d="M17.4,10.49a.24.24,0,0,1-.14-.05.19.19,0,0,1-.07-.15h0a.14.14,0,0,0,.06.14.28.28,0,0,0,.2.05Z"/><path d="M16.74,10.58h0a.1.1,0,0,0,.12,0,.26.26,0,0,0,0-.28.24.24,0,0,1,0,.29.12.12,0,0,1-.09,0Z"/><path d="M16.84,10.81h0a.09.09,0,0,0,.1-.06.25.25,0,0,0-.07-.26.23.23,0,0,1,.09.26.11.11,0,0,1-.11.07Z"/><path d="M17.16,11h0a.09.09,0,0,0,.06-.1c0-.09-.09-.19-.27-.2.19,0,.28.1.28.2a.09.09,0,0,1-.07.11Z"/><path d="M17.53,11.2h0s.05,0,0-.09a.28.28,0,0,0-.33-.2.3.3,0,0,1,.35.2.08.08,0,0,1,0,.1Z"/><path d="M18,11.3h0s0-.08,0-.13a.29.29,0,0,0-.35-.07.29.29,0,0,1,.36.06.12.12,0,0,1,0,.15Z"/><path d="M18.2,11.47h0a.09.09,0,0,0,.09,0,.16.16,0,0,0,0-.15s-.1-.11-.31-.08c.22,0,.29,0,.32.07a.17.17,0,0,1,0,.17.11.11,0,0,1-.08,0Z"/><path d="M18.45,11.47h0c.06,0,.11-.08.1-.13s-.1-.07-.25,0c.22-.06.26,0,.27,0s0,.12-.11.14Z"/><path d="M18.75,11.5h0a.07.07,0,0,0,.06,0,.11.11,0,0,0,0-.12s-.08-.08-.23,0c.16-.06.22,0,.24,0a.12.12,0,0,1,0,.13l0,0Z"/><path d="M17,10.51a.2.2,0,0,1-.11,0h0a.23.23,0,0,0,.24,0,.17.17,0,0,0,.08-.17.16.16,0,0,1-.07.18.28.28,0,0,1-.15,0Z"/><path d="M17.09,10.73a.44.44,0,0,0,.06-.1.31.31,0,0,0,0-.19h0a.27.27,0,0,1,0,.2.13.13,0,0,1-.07.09Z"/><path d="M17.23,10.66l-.08,0h0a.23.23,0,0,0,.28-.14.23.23,0,0,1-.21.17Z"/><path d="M17.3,10.9a.3.3,0,0,0,0-.26h0a.32.32,0,0,1,0,.27Z"/><path d="M17.42,10.77l-.08,0h0a.16.16,0,0,0,.12,0,.29.29,0,0,0,.14-.13.22.22,0,0,1-.14.14Z"/><path d="M17.57,11.07a.29.29,0,0,0,.06-.17.3.3,0,0,0-.08-.18h0a.23.23,0,0,1,.09.19.19.19,0,0,1-.07.17Z"/><path d="M17.68,11h-.05v0a.31.31,0,0,0,.3-.1.27.27,0,0,1-.25.12Z"/><path d="M18,11.19a.26.26,0,0,0-.15-.27h0a.25.25,0,0,1,.15.28Z"/><path d="M18,11.15v0a.37.37,0,0,0,.28-.17.31.31,0,0,1-.27.19Z"/><path d="M18.38,11.27a.27.27,0,0,0-.13-.23h0a.25.25,0,0,1,.12.24Z"/><path d="M18.37,11.2h0a.18.18,0,0,0,.18-.15.18.18,0,0,1-.18.16Z"/><path d="M18.69,11.29a.25.25,0,0,0-.16-.17v0a.24.24,0,0,1,.15.19Z"/><path d="M18.68,11.25v0a.22.22,0,0,0,.15-.11.18.18,0,0,1-.14.13Z"/><path d="M18.84,11.44h0a.2.2,0,0,0,.18-.1c.05-.08.06-.17,0-.21h0c0,.05,0,.15,0,.22a.19.19,0,0,1-.16.11Z"/><path d="M17,5.58a.35.35,0,0,1-.23-.07c-.05,0-.08-.15,0-.32-.07.14-.07.24,0,.31a.42.42,0,0,0,.43,0h0a.43.43,0,0,1-.21,0Z"/><path d="M17.09,5.3a.35.35,0,0,1-.31-.14c-.05-.1,0-.22.18-.32-.15.11-.21.22-.16.31a.39.39,0,0,0,.47.1h0a.43.43,0,0,1-.19,0Z"/><path d="M16.75,5.36A.29.29,0,0,1,16.54,5a.32.32,0,0,1,.3-.27h0a.32.32,0,0,0-.29.26.3.3,0,0,0,.2.34Z"/><path d="M16,5.17a.35.35,0,0,1-.17-.06.15.15,0,0,1,0-.17h0s0,.1,0,.15a.27.27,0,0,0,.32,0,.47.47,0,0,0,0-.52.42.42,0,0,1,0,.53.27.27,0,0,1-.16.06Z"/><path d="M15.81,5.51a.3.3,0,0,1-.16,0,.16.16,0,0,1-.05-.18h0a.14.14,0,0,0,0,.16.28.28,0,0,0,.42-.33.27.27,0,0,1-.1.34.34.34,0,0,1-.17,0Z"/><path d="M15.76,5.87h-.09a.16.16,0,0,1-.11-.12h0s0,.08.1.1A.29.29,0,0,0,16,5.76a.28.28,0,0,0,0-.33c.09.18,0,.28,0,.34a.31.31,0,0,1-.24.1Z"/><path d="M16.43,5.46a.42.42,0,0,1-.34-.16h0a.44.44,0,0,0,.42.17Z"/><path d="M16.39,5.09a.24.24,0,0,1-.12,0A.11.11,0,0,1,16.2,5h0a.13.13,0,0,0,.07.08.38.38,0,0,0,.26,0,.28.28,0,0,1-.15,0Z"/><path d="M10,12.18h0a.15.15,0,0,1-.11-.08A.11.11,0,0,1,9.91,12h0a.1.1,0,0,0-.05.1.1.1,0,0,0,.09.07s.09,0,.12-.08a.12.12,0,0,1-.11.1Z"/><path d="M9.85,12.26h0a.11.11,0,0,1-.11-.08.11.11,0,0,1,0-.11h0s-.06.06,0,.1a.1.1,0,0,0,.1.07.14.14,0,0,0,.12-.08.11.11,0,0,1-.11.09Z"/><path d="M9.71,12.35h0a.11.11,0,0,1-.1-.08.13.13,0,0,1,.05-.12v0s-.06.06-.05.1a.11.11,0,0,0,.1.06s.09,0,.11-.08a.1.1,0,0,1-.11.1Z"/><path d="M9.56,12.42h0a.1.1,0,0,1-.08-.08.12.12,0,0,1,.06-.1v0s-.06,0,0,.08a.09.09,0,0,0,.06.07.14.14,0,0,0,.16-.06.16.16,0,0,1-.13.08Z"/><path d="M9.41,12.5h0a.12.12,0,0,1-.08-.09.11.11,0,0,1,.06-.09h0s-.06,0,0,.08,0,.06.06.08a.15.15,0,0,0,.16-.07.15.15,0,0,1-.13.09Z"/><path d="M10.27,12.19h0a.13.13,0,0,1-.1-.11h0a.1.1,0,0,0,.09.09.16.16,0,0,0,.19-.1.15.15,0,0,1-.16.12Z"/><path d="M10.36,12.35a.09.09,0,0,1-.08,0,.1.1,0,0,1,0-.13h0a.08.08,0,0,0,0,.11s.08.06.11,0Z"/><path d="M10.13,12.28h-.08c-.05,0-.08-.06-.07-.1h0a.09.09,0,0,0,.07.09.18.18,0,0,0,.2,0,.15.15,0,0,1-.13.07Z"/><path d="M10.18,12.44a.16.16,0,0,1-.09,0,.11.11,0,0,1,0-.12h0s0,.08,0,.1.08.06.12,0l0,0Z"/><path d="M10,12.4a.11.11,0,0,1-.08,0,.13.13,0,0,1-.08-.11h0a.12.12,0,0,0,.07.1.17.17,0,0,0,.16,0,.13.13,0,0,1-.08,0Z"/><path d="M10,12.53a.09.09,0,0,1-.07-.09.08.08,0,0,1,0-.08h0a.06.06,0,0,0,0,.07.15.15,0,0,0,.06.09Z"/><path d="M9.82,12.51a.12.12,0,0,1-.08,0,.11.11,0,0,1-.06-.12h0s0,.08.06.11a.14.14,0,0,0,.16,0,.12.12,0,0,1-.09,0Z"/><path d="M9.72,12.59a.07.07,0,0,1-.06,0,.11.11,0,0,1,.05-.11h0s-.06.06-.05.09a.07.07,0,0,0,.07.05Z"/><path d="M9.63,12.55a.09.09,0,0,1-.07,0,.09.09,0,0,1,0-.09h0a.13.13,0,0,0,0,.08.1.1,0,0,0,.09,0Z"/><path d="M9.25,12.57h0c-.06,0-.11-.06-.11-.1s0,0,0,0h0a0,0,0,0,0,0,0s0,.08.1.09.09,0,.14-.07-.08.09-.12.09Z"/><path d="M9.07,12.66h0a.17.17,0,0,1-.12-.11s0,0,0-.05v0s0,0,0,0a.15.15,0,0,0,.11.09s.1,0,.14-.09c0,.09-.08.11-.12.11Z"/><path d="M9.5,12.66a.07.07,0,0,1,0-.07.11.11,0,0,1,.09-.09h0a.09.09,0,0,0-.08.08.05.05,0,0,0,0,.07Z"/><path d="M9.42,12.63a.11.11,0,0,1-.08,0,.09.09,0,0,1,0-.06h0a.06.06,0,0,0,0,.05.17.17,0,0,0,.12,0Z"/><path d="M9.28,12.71a.07.07,0,0,1,0,0,.1.1,0,0,1,0-.12h0a.08.08,0,0,0,0,.1.06.06,0,0,0,.07,0Z"/><path d="M9,12.77a.07.07,0,0,1-.06,0,.08.08,0,0,1,0-.1H9a.07.07,0,0,0,0,.08.07.07,0,0,0,.08,0l0,0Z"/><path class="cls-1" d="M9.13,12.63s.06.07.11,0Z"/><path d="M8.84,12.75c-.07,0-.09,0-.1-.05a.11.11,0,0,1,0-.12v0a.07.07,0,0,0,0,.09s.05.09.22,0a.33.33,0,0,1-.14,0Z"/><path d="M8.61,12.8h0l0,0a.11.11,0,0,1,.07-.09v0a.11.11,0,0,0-.06.07l0,0s.07,0,.21,0a.32.32,0,0,1-.17.07Z"/><path d="M8.8,12.84h0a.07.07,0,0,1,0-.09h0s0,.05,0,.07h.07a.06.06,0,0,1,0,0Z"/><path d="M8.62,12.9a.05.05,0,0,1,0,0,.06.06,0,0,1,0-.08h0s0,0,0,.06.05,0,.1,0l-.06,0Z"/><path d="M8.41,12.87H8.36s0,0,0,0l0,0h0v0a.19.19,0,0,0,.23,0,.21.21,0,0,1-.16.08Z"/><path d="M8.42,13h0a.09.09,0,0,1,0-.11h0a.08.08,0,0,0,0,.09s0,0,.07,0Z"/><path d="M8.23,13s-.07,0-.07,0,0,0,0,0v0s0,0,0,0,.09,0,.21,0a.26.26,0,0,1-.15.05Z"/><path d="M8.23,13.08l0,0a.09.09,0,0,1,0-.1v0s-.05,0,0,.07,0,0,.07,0l0,0Z"/><path d="M8.09,13.08l-.06,0s0,0,0-.07h0s0,0,0,.05.09,0,.17,0l-.12,0Z"/><path d="M8,13.2H8a0,0,0,0,1,0,0s0-.06.07-.09v0s-.07,0-.07.07,0,0,0,0h.05s0,0,0,0Z"/><path d="M12.26,13.53a.15.15,0,0,1-.12,0,0,0,0,0,1,0-.06h0a.06.06,0,0,0,0,0s.08,0,.14,0a.12.12,0,0,0,.11-.07.08.08,0,0,0,0-.09.07.07,0,0,1,0,.1.15.15,0,0,1-.12.08Z"/><path d="M12.47,13.49l-.08,0h0a.14.14,0,0,0,.14,0,.12.12,0,0,0,.08-.11.11.11,0,0,1-.07.12.13.13,0,0,1-.08,0Z"/><path class="cls-5" d="M17.48,3.69c-.37-.18-1.13-.53-1.35-.25a1.5,1.5,0,0,1,1.26.45Z"/><path d="M17.39,3.9h0a1.47,1.47,0,0,0-1.25-.44c.16-.27.89,0,1.35.23l-.09.22Zm-1.08-.49a1.7,1.7,0,0,1,1.08.47l.08-.19a3.07,3.07,0,0,0-1.06-.35.35.35,0,0,0-.28.11.3.3,0,0,1,.18,0Z"/><path class="cls-5" d="M17.7,3.67c-.42-.5-.67-.39-1-.56s-.75-.19-.84.07c.42-.21.81.11,1,.14a1,1,0,0,1,.6.42Z"/><path d="M17.53,3.75l0,0a1,1,0,0,0-.58-.39,1,1,0,0,1-.24-.08,1,1,0,0,0-.8-.07c0-.13.16-.2.35-.2a1,1,0,0,1,.48.13,1.11,1.11,0,0,0,.29.1,1.25,1.25,0,0,1,.7.46l-.18.08ZM16.18,3.1a1.21,1.21,0,0,1,.51.14,1.68,1.68,0,0,0,.24.08,1,1,0,0,1,.59.39v0h0l.17-.08a1.22,1.22,0,0,0-.7-.43,1.24,1.24,0,0,1-.28-.11A1,1,0,0,0,16.24,3c-.1,0-.29,0-.35.18a.51.51,0,0,1,.29-.08Z"/><path class="cls-5" d="M19.31,3.61c-.22-.51-.69-.38-.9-.59s-1.08-.61-1.4-.39c.71,0,1,.48,1.38.66s.55.41.92.32Z"/><path d="M19.16,3.63h0a1.09,1.09,0,0,1-.57-.22l-.2-.11A2.43,2.43,0,0,1,18,3.06a1.38,1.38,0,0,0-1-.42c.27-.25,1.07,0,1.4.37a.73.73,0,0,0,.32.15.76.76,0,0,1,.59.44.32.32,0,0,1-.16,0Zm-2.08-1a1.44,1.44,0,0,1,1,.43,3.08,3.08,0,0,0,.34.24l.2.11a1.12,1.12,0,0,0,.57.22h0l.15,0a.77.77,0,0,0-.59-.43A.68.68,0,0,1,18.4,3c-.32-.33-1.1-.57-1.38-.39Z"/><path class="cls-5" d="M18.48,3.55c-.38-.47-1-.88-1.23-.73.35,0,.47.27.71.42s.14.39.52.31Z"/><path d="M18.35,3.57h0a.23.23,0,0,1-.22-.14A.56.56,0,0,0,18,3.25a1.2,1.2,0,0,1-.21-.17.75.75,0,0,0-.5-.25.19.19,0,0,1,.14-.05,1.93,1.93,0,0,1,1.1.77.39.39,0,0,1-.14,0Zm-1.09-.74a.7.7,0,0,1,.5.24,1.2,1.2,0,0,0,.21.17.47.47,0,0,1,.17.18c.07.1.11.17.34.13-.35-.42-1-.87-1.22-.72Z"/><path class="cls-5" d="M16.68,4.38a1.45,1.45,0,0,0-1.53.23c.6.1,1.5,0,1.53-.23Z"/><path d="M15.75,4.67a3.73,3.73,0,0,1-.6,0A1.05,1.05,0,0,1,16,4.26a1.85,1.85,0,0,1,.67.12c0,.21-.5.29-.94.29ZM16,4.28a1,1,0,0,0-.86.34,5.28,5.28,0,0,0,.59,0c.41,0,.91-.07.93-.27a2.28,2.28,0,0,0-.66-.1Z"/><path class="cls-5" d="M16.61,4.56c-.4-.19-.71.07-1.08,0-.71-.07-1.22,0-1.28.32.4-.37,1.09-.07,1.36-.14a4.37,4.37,0,0,1,1.63.13,1.45,1.45,0,0,0-.63-.34Z"/><path d="M14.24,4.93v0c0-.24.3-.35.79-.35l.5,0a1.54,1.54,0,0,0,.43,0,1,1,0,0,1,.65,0l.13,0a1.06,1.06,0,0,1,.5.29,4.86,4.86,0,0,0-1.63-.11,1.39,1.39,0,0,1-.39,0c-.12,0-.26,0-.4,0a.83.83,0,0,0-.57.18v0ZM16,4.73a4.2,4.2,0,0,1,1.24.16,1.19,1.19,0,0,0-.5-.28l-.13-.05a1,1,0,0,0-.65,0,1.24,1.24,0,0,1-.43,0c-.83-.08-1.2,0-1.27.29a.82.82,0,0,1,.56-.17,2.5,2.5,0,0,1,.4,0,1.31,1.31,0,0,0,.39,0,1.79,1.79,0,0,1,.39,0Z"/><path class="cls-5" d="M17.85,3.5c-.09-.3-.08-.63.37-.6-.11-.15-.54-.22-.61.32-.5-.37-1.05-.44-1.15-.12.26-.22.66-.06,1.14.48a1.23,1.23,0,0,1,.25-.08Z"/><path d="M17.6,3.59h0c-.46-.53-.87-.7-1.12-.48.07-.33.66-.26,1.15.1,0-.38.26-.42.36-.42a.34.34,0,0,1,.25.1h-.05a.36.36,0,0,0-.31.12.55.55,0,0,0,0,.48,1.07,1.07,0,0,0-.26.09ZM16.72,3a1.38,1.38,0,0,1,.88.58.78.78,0,0,1,.25-.09.52.52,0,0,1,0-.48.38.38,0,0,1,.32-.12h0A.37.37,0,0,0,18,2.8c-.09,0-.31,0-.36.42-.5-.35-1.06-.41-1.15-.12a.32.32,0,0,1,.25-.1Z"/><path class="cls-5" d="M17.16,3.92c-.28-.18-.67-.48,0-.6-.29-.16-.72-.09-.67.44-.78-.31-1.33-.2-1.45.11s.35.53.43.31c-.08,0-.38-.07-.23-.26s1,0,1.73.35c.21.11.94.09.18-.35Z"/><path d="M17.27,4.34a.84.84,0,0,1-.3-.06,3.41,3.41,0,0,0-1.42-.44c-.15,0-.25,0-.29.09a.13.13,0,0,0,0,.14.24.24,0,0,0,.25.1c0,.16-.31.12-.41,0a.31.31,0,0,1,0-.28c.13-.33.76-.39,1.46-.1a.49.49,0,0,1,.1-.41.49.49,0,0,1,.57,0c-.23,0-.35.12-.37.2s.2.3.37.41.35.25.33.33-.17.09-.23.09Zm-1.72-.51A3.49,3.49,0,0,1,17,4.27a.79.79,0,0,0,.29.05c.12,0,.21,0,.22-.08s0-.14-.33-.31-.4-.28-.38-.42.15-.16.39-.2a.52.52,0,0,0-.56,0,.47.47,0,0,0-.1.4c-.72-.26-1.33-.22-1.45.11a.27.27,0,0,0,0,.26c.1.14.34.18.39,0s0,0,0,0a.28.28,0,0,1-.23-.11.16.16,0,0,1,0-.16c0-.06.15-.09.3-.09Z"/><path class="cls-5" d="M17,4.43C16.74,4,16,4.39,15.88,4c-.2.64,1,.29,1.08.48Z"/><path d="M17,4.42h0s-.17,0-.33,0h-.1c-.26,0-.52,0-.63-.15a.31.31,0,0,1,0-.27c.09.21.3.22.52.23s.45,0,.57.23Zm-.33-.07a.8.8,0,0,1,.31,0,.63.63,0,0,0-.54-.2c-.23,0-.44,0-.52-.24a.36.36,0,0,0,0,.26c.1.13.36.14.62.14Z"/><path class="cls-5" d="M21.51,4.92c.15.07.28,0,0-.14.15.08.28,0,.05-.13.15.08.28,0,.05-.13a1,1,0,0,0-.15.4Z"/><path d="M21.6,5h0a.16.16,0,0,1-.09,0,.92.92,0,0,1,.15-.41c.13,0,.14.1.13.12s-.06.06-.13,0,.09.05.08.09-.07.06-.14,0c.09,0,.1.08.09.1s0,0-.09,0Zm.06-.43a1,1,0,0,0-.14.4h.08s.07,0,.08,0,0-.07-.1-.1h.08a.08.08,0,0,0,.07,0s0-.06-.09-.09h.07s.07,0,.07,0,0-.07-.12-.11Z"/><path class="cls-5" d="M21.59,4.05c.33-.35,0-.47.38-.83s.06-.49.37-.72c.11-.07.33-.22.35-.37.13.33-.42.38-.38.91,0,.35-.21.32-.3.89,0,.12-.1.39-.42.12Z"/><path d="M21.83,4.17a.48.48,0,0,1-.25-.11.51.51,0,0,0,.16-.4A.53.53,0,0,1,22,3.21a.51.51,0,0,0,.2-.38.4.4,0,0,1,.18-.34c.13-.09.32-.23.34-.36.08.16,0,.26-.12.37a.62.62,0,0,0-.24.54.48.48,0,0,1-.11.35,1.52,1.52,0,0,0-.19.54c0,.07-.05.24-.19.24Zm.85-2c0,.14-.19.28-.31.36a.42.42,0,0,0-.2.34.54.54,0,0,1-.2.4.47.47,0,0,0-.21.43.48.48,0,0,1-.17.39.42.42,0,0,0,.24.11C22,4.16,22,4,22,3.93a1.28,1.28,0,0,1,.19-.54A.49.49,0,0,0,22.3,3a.66.66,0,0,1,.25-.55c.1-.11.19-.2.13-.36Z"/><path class="cls-5" d="M21.74,4.21c.18-.4.39-.39.49-.55s.61,0,.95-.21c-.06.37-.52.24-.72.48a.65.65,0,0,1-.72.28Z"/><path d="M21.93,4.24l-.19,0a.85.85,0,0,1,.34-.42.64.64,0,0,0,.15-.13c.11-.18.27-.14.43-.12a.71.71,0,0,0,.52-.1c0,.23-.2.28-.38.33a.67.67,0,0,0-.34.16.64.64,0,0,1-.53.31Zm.57-.7a.28.28,0,0,0-.26.13.64.64,0,0,1-.15.13.93.93,0,0,0-.35.41h.19a.65.65,0,0,0,.52-.29.66.66,0,0,1,.35-.18c.18,0,.34-.09.38-.3a.69.69,0,0,1-.52.1Z"/><path class="cls-5" d="M21.78,4.34c.33-.26.56-.09.79-.23.56-.34.78.07,1.29-.09-.14.32-.88.05-1.2.29s-1.46.47-.88,0Z"/><path d="M21.76,4.59c-.08,0-.13,0-.15,0s0-.11.17-.21a.71.71,0,0,1,.49-.16.58.58,0,0,0,.29-.06.93.93,0,0,1,.75-.1,1,1,0,0,0,.55,0c-.13.34-.88.06-1.2.29a2,2,0,0,1-.9.28ZM23,4a.91.91,0,0,0-.45.14.51.51,0,0,1-.3.06.72.72,0,0,0-.48.16c-.15.11-.17.17-.16.2s.05,0,.13,0a1.9,1.9,0,0,0,.89-.28,1.12,1.12,0,0,1,.62-.11c.26,0,.51,0,.58-.17a.83.83,0,0,1-.54,0A1.45,1.45,0,0,0,23,4Z"/><path class="cls-5" d="M20.84,6.18a.39.39,0,0,0-.33-.36c-.2,0-.28-.23-.43-.24s-.24-.3-.45-.3-.28.27.19.51,1,.51,1,.39Z"/><path d="M20.79,6.22h0a3.34,3.34,0,0,1-.87-.38l-.1,0c-.37-.18-.36-.35-.35-.4s.08-.11.16-.12h0a.38.38,0,0,1,.27.17c.06.07.12.13.18.13a.41.41,0,0,1,.19.11.44.44,0,0,0,.24.13.41.41,0,0,1,.34.37.06.06,0,0,1-.06,0Zm-1.15-.93a.16.16,0,0,0-.16.1c0,.1.06.25.35.39l.1,0a3.41,3.41,0,0,0,.86.37h0s0,0,0,0a.4.4,0,0,0-.33-.35.44.44,0,0,1-.24-.13c-.06-.05-.11-.1-.18-.1a.35.35,0,0,1-.19-.14.37.37,0,0,0-.25-.16Z"/><path class="cls-5" d="M20.24,6.3c-.2,0-.23.3-.42.31.27.15.46-.06.6-.25Z"/><path d="M20,6.67h0a.41.41,0,0,1-.18,0A.35.35,0,0,0,20,6.45a.36.36,0,0,1,.22-.16l.18.07a.58.58,0,0,1-.43.31Zm.25-.36c-.1,0-.15.08-.21.15s-.11.16-.21.16l.17,0a.56.56,0,0,0,.42-.29l-.17-.05Z"/><path class="cls-5" d="M20.41,6.34c-.18.14-.23.45,0,.54-.16-.21.26-.3.13-.5Z"/><path d="M20.46,6.9h0a.24.24,0,0,1-.17-.2.43.43,0,0,1,.14-.36l.18,0c.07.1,0,.17-.07.24s-.14.15-.07.26l0,0Zm-.05-.56a.41.41,0,0,0-.14.35.25.25,0,0,0,.15.18c-.06-.11,0-.18.08-.26s.13-.13.07-.22l-.16,0Z"/><path class="cls-5" d="M20.58,6.35c-.13.26.22.3.13.5.2,0,.23-.43.05-.53Z"/><path d="M20.7,6.86h0c0-.09,0-.15-.06-.21a.22.22,0,0,1-.06-.3l.18,0a.29.29,0,0,1,.12.31.26.26,0,0,1-.17.24Zm.06-.54-.18,0a.22.22,0,0,0,.07.28c.05.06.1.12.07.21a.26.26,0,0,0,.15-.22.3.3,0,0,0-.11-.3Z"/><path class="cls-5" d="M19.23,5.77a1,1,0,0,1,.84.46.6.6,0,0,0,.71.11c.14-.15.06-.46-.31-.36-.09-.16-.36-.1-.49-.23s-.62-.5-.75,0Z"/><path d="M20.53,6.42a.6.6,0,0,1-.47-.19,1,1,0,0,0-.78-.45h-.05c0-.19.13-.29.27-.29a.84.84,0,0,1,.49.25.48.48,0,0,0,.23.1.38.38,0,0,1,.26.13.28.28,0,0,1,.36.11.25.25,0,0,1-.06.26.36.36,0,0,1-.25.08Zm-1.25-.65a1,1,0,0,1,.79.45.63.63,0,0,0,.46.19.33.33,0,0,0,.24-.08.2.2,0,0,0,.05-.24c0-.11-.18-.15-.34-.11a.46.46,0,0,0-.26-.13.47.47,0,0,1-.24-.1.84.84,0,0,0-.48-.24q-.2,0-.27.27Z"/><path class="cls-5" d="M20.47,6c-.08,0-.11.17-.06.25Z"/><path d="M20.42,6.22a.15.15,0,0,1,0-.17A.13.13,0,0,1,20.47,6s0,0,0,0h0a.12.12,0,0,0-.07.07.2.2,0,0,0,0,.17Z"/><path class="cls-5" d="M20.66,6.07a.17.17,0,0,1,0,.14Z"/><path d="M20.66,6.21s0-.09,0-.14h0a.16.16,0,0,1,0,.14Z"/><path class="cls-5" d="M19.75,5.79c.17,0,.21.13.39.18Z"/><path d="M20.14,6A.42.42,0,0,1,20,5.88a.33.33,0,0,0-.2-.08h0a.41.41,0,0,1,.21.09.6.6,0,0,0,.18.09Z"/><path class="cls-5" d="M19.64,5.37A6.43,6.43,0,0,1,21,5.81a1.54,1.54,0,0,0,1.13.1c.39-.11,1.15-.21,1.11.28.21-.24-.05-.51-.58-.55,0-.24-.25-.46-.43-.32.17,0,.32.3,0,.43a.3.3,0,0,0-.42-.35c.16,0,.32.31,0,.41A1.11,1.11,0,0,1,21,5.65c-.24-.15-1.61-.69-1.31-.28Z"/><path d="M23.22,6.21v0A.29.29,0,0,0,23.16,6a.58.58,0,0,0-.44-.13,2.3,2.3,0,0,0-.6.09A1.63,1.63,0,0,1,21,5.82a5.57,5.57,0,0,0-1.34-.44c0-.06-.06-.1,0-.13s0,0,.1,0A4.1,4.1,0,0,1,21,5.64a1.09,1.09,0,0,0,.79.16c.14,0,.21-.1.21-.19a.26.26,0,0,0-.17-.21.28.28,0,0,1,.38.08.33.33,0,0,1,.05.27.26.26,0,0,0,.18-.27.16.16,0,0,0-.15-.15h0a.16.16,0,0,1,.17.14s0,.2-.21.28a.34.34,0,0,0-.05-.26.32.32,0,0,0-.37-.09.24.24,0,0,1,.19.21c0,.06,0,.15-.22.21a1.11,1.11,0,0,1-.8-.17c-.23-.13-1.28-.52-1.34-.39s0,.06,0,.1A5.48,5.48,0,0,1,21,5.81a1.65,1.65,0,0,0,1.13.1,2.14,2.14,0,0,1,.6-.1.62.62,0,0,1,.45.14.31.31,0,0,1,.07.22.22.22,0,0,0,0-.23.77.77,0,0,0-.63-.3.36.36,0,0,0-.11-.26.24.24,0,0,0-.29-.07c.05-.08.21,0,.3.06a.39.39,0,0,1,.11.27c.32,0,.57.14.63.3a.22.22,0,0,1-.05.25l0,0Z"/><path class="cls-5" d="M21.13,5.13c-.19.08-.07.28-.35.39s-.49.36-.42.58c.19-.43.53-.41.65-.57s.3-.42.12-.4Z"/><path d="M20.36,6.12v0c-.06-.21.12-.47.42-.59A.31.31,0,0,0,21,5.28a.28.28,0,0,1,.13-.16c.06,0,.08,0,.09,0s-.07.22-.19.38a.55.55,0,0,1-.21.14.86.86,0,0,0-.45.43v0Zm.78-1a.19.19,0,0,0-.13.15.34.34,0,0,1-.23.23c-.29.11-.47.35-.42.56a.81.81,0,0,1,.45-.42.6.6,0,0,0,.2-.14c.08-.11.22-.3.18-.36s0,0-.05,0Z"/><path class="cls-5" d="M21.18,5.16c0,.33-.28.21-.17.68a1,1,0,0,1,0,.63c.3-.22.1-.67.24-.84a1.32,1.32,0,0,0,.18-.33c-.07.2-.07.56.12.65-.15-.36.41-.65,0-1.07a.6.6,0,0,1-.39.28Z"/><path d="M21,6.49v0a.91.91,0,0,0,0-.61c-.06-.29,0-.37.07-.45a.31.31,0,0,0,.1-.25.59.59,0,0,0,.39-.28c.24.24.14.44.06.63a.54.54,0,0,0-.07.44c-.19-.08-.21-.39-.16-.59a.71.71,0,0,1-.15.27.56.56,0,0,0,0,.31.62.62,0,0,1-.19.54Zm.58-1.61a.5.5,0,0,1-.38.28.35.35,0,0,1-.1.26c-.06.08-.12.15-.07.42a1,1,0,0,1,0,.61.63.63,0,0,0,.15-.51.7.7,0,0,1,.06-.32,1.17,1.17,0,0,0,.17-.29c0,.2,0,.53.15.61a.47.47,0,0,1,.05-.43.49.49,0,0,0,0-.63Z"/><path class="cls-5" d="M20.24,4.82a.49.49,0,0,1,.05.34.94.94,0,0,0,.27-.29.19.19,0,0,1,.08.36.51.51,0,0,0,.4-.12,1,1,0,0,0-.8-.29Z"/><path d="M20.64,5.24h0l0,0A.17.17,0,0,0,20.73,5a.2.2,0,0,0-.17-.16.86.86,0,0,1-.27.3.52.52,0,0,0-.06-.35.3.3,0,0,1,.13,0,1.11,1.11,0,0,1,.69.3.49.49,0,0,1-.41.14Zm-.09-.38a.22.22,0,0,1,.2.17.18.18,0,0,1-.09.19A.5.5,0,0,0,21,5.1a1,1,0,0,0-.8-.27.37.37,0,0,1,.05.33.83.83,0,0,0,.26-.3Z"/><path class="cls-5" d="M17.37,4.16a.34.34,0,0,0-.17-.07c-.28-.06-.14-.31.1-.31.51-.55.79-.13,1.41-.3a.69.69,0,0,1,.48,0,.65.65,0,0,1,.84.08.24.24,0,0,1,.11-.09c.22-.06.39.13.45.37a.64.64,0,0,1,.49.16c.18-.09.3-.09.34,0,.16-.07.36-.12.46.13s-.24.18-.29.7a.41.41,0,0,1-.68.26c-.46-.31-.91-.36-1.13.11s-.39.75-.93.59a.59.59,0,0,0-.6.23c-.16.21-.4,0-.68,0,.36-.06.22-.15.53-.17s.21-.28.4-.32c-.72.19-.69-.08-1.28.1.26-.33.66-.14.86-.34-.53,0-.77-.36-1-.21s-.21.89-1.2.83a1.24,1.24,0,0,0-1.07.32c.5-1,1.18-.46,1.5-.79A2.12,2.12,0,0,0,16.75,5a.19.19,0,0,1,.14-.11c-.82-.26-.32-.66.48-.69Z"/><path d="M14.81,6.29h0a1,1,0,0,1,1.05-.68.6.6,0,0,0,.46-.12A2.25,2.25,0,0,0,16.74,5a.25.25,0,0,1,.15-.12c-.29-.08-.44-.2-.43-.33s.42-.34.91-.36l-.17-.06C17,4.06,17,4,17,4a.24.24,0,0,1,.26-.18.73.73,0,0,1,.58-.29l.23,0a1.54,1.54,0,0,0,.6,0,.74.74,0,0,1,.49,0,.67.67,0,0,1,.84.08.12.12,0,0,1,.1-.08c.2-.06.39.1.46.37l.07,0a.66.66,0,0,1,.42.18c.16-.1.29-.09.34,0,.21-.12.38-.07.46.13s0,.17-.07.24a.65.65,0,0,0-.22.46.4.4,0,0,1-.41.36.52.52,0,0,1-.29-.09c-.5-.35-.92-.31-1.11.1s-.41.75-.94.6a.55.55,0,0,0-.59.23c-.09.11-.23.11-.4.07a.92.92,0,0,0-.29,0h0a.07.07,0,0,1,.06,0A.52.52,0,0,0,17.85,6a.43.43,0,0,1,.25-.07.28.28,0,0,0,.25-.18c0-.06.06-.12.12-.14a1.37,1.37,0,0,1-.67.06,1.22,1.22,0,0,0-.58.05.61.61,0,0,1,.52-.24.63.63,0,0,0,.34-.11,1.31,1.31,0,0,1-.6-.15c-.17-.07-.3-.12-.41-.06a.75.75,0,0,0-.25.33.82.82,0,0,1-1,.51,1.21,1.21,0,0,0-1.06.32Zm3.07-2.8a.72.72,0,0,0-.57.3c-.15,0-.25.08-.26.16s.05.11.15.13a.39.39,0,0,1,.17.07c-.48,0-.87.19-.89.37s.13.23.41.32a.35.35,0,0,0-.14.13,2.48,2.48,0,0,1-.44.52.61.61,0,0,1-.47.13,1,1,0,0,0-1,.63,1.24,1.24,0,0,1,1-.3c.65,0,.8-.23.93-.49a.82.82,0,0,1,.27-.34c.11-.07.25,0,.41,0a1.34,1.34,0,0,0,.6.16.45.45,0,0,1-.34.13.69.69,0,0,0-.52.23,1,1,0,0,1,.58-.07,1.65,1.65,0,0,0,.68,0,.32.32,0,0,0-.12.14.27.27,0,0,1-.26.19.42.42,0,0,0-.24.07.48.48,0,0,1-.21.08l.22,0c.16,0,.29,0,.37-.07a.59.59,0,0,1,.61-.24c.52.15.71-.13.92-.58s.63-.46,1.14-.11a.58.58,0,0,0,.28.09.38.38,0,0,0,.39-.35.68.68,0,0,1,.23-.47c.07-.07.11-.11.07-.23s-.23-.23-.45-.12c-.07-.09-.17-.09-.35,0a.6.6,0,0,0-.49-.17c-.07-.26-.25-.41-.45-.36a.16.16,0,0,0-.1.08.7.7,0,0,0-.84-.08.74.74,0,0,0-.49,0,1.54,1.54,0,0,1-.6,0l-.23,0Z"/><path class="cls-5" d="M21.42,4a.3.3,0,0,1,0,.1c0,.21-.3.22-.32.52s0,.24-.14.22-.19-.18-.09-.38Z"/><path d="M21,4.86h0a.19.19,0,0,1-.12-.1.33.33,0,0,1,0-.29.34.34,0,0,0,0,.28.16.16,0,0,0,.11.1.08.08,0,0,0,.07,0,.38.38,0,0,0,.05-.2.43.43,0,0,1,.19-.32c.07-.06.13-.11.13-.2a.25.25,0,0,0,0-.09h0a.3.3,0,0,1,0,.1.26.26,0,0,1-.14.21.42.42,0,0,0-.18.31c0,.11,0,.18-.06.21a.07.07,0,0,1-.06,0Z"/><path class="cls-5" d="M17.52,3.86a.33.33,0,0,0-.22-.08Z"/><path d="M17.52,3.86a.38.38,0,0,0-.22-.07.29.29,0,0,1,.23.06Z"/><path class="cls-5" d="M19.19,3.48c.25.11.37.36.72.38s.55.5,1.13.18l0,0Z"/><path d="M20.67,4.16A.86.86,0,0,1,20.24,4a.73.73,0,0,0-.33-.14.74.74,0,0,1-.49-.21.94.94,0,0,0-.23-.16h0a.84.84,0,0,1,.24.16.79.79,0,0,0,.48.21.67.67,0,0,1,.34.14A.65.65,0,0,0,21,4h0l0,0h0a.73.73,0,0,1-.37.11Z"/><path class="cls-5" d="M20,3.57a.47.47,0,0,0-.05.29Z"/><path d="M20,3.86a.4.4,0,0,1,0-.29h0a.4.4,0,0,0-.05.29Z"/><path class="cls-5" d="M18.92,4.61c-.44,0-.55.22-.55.44a.54.54,0,0,0,.56.49.5.5,0,0,0,.56-.47.52.52,0,0,0-.57-.46Z"/><path d="M18.93,5.54a.55.55,0,0,1-.57-.49c0-.2.1-.44.56-.44a.51.51,0,0,1,.57.46c0,.23-.17.47-.56.47Zm0-.92c-.45,0-.54.23-.54.43a.52.52,0,0,0,.55.48.49.49,0,0,0,.55-.46.5.5,0,0,0-.56-.45Z"/><path class="cls-5" d="M19,5.53c0-.12-.22-.11-.21-.2s.12-.13.12-.26.19-.13.25,0,.26.3.3.19Z"/><path d="M19,5.53c0-.06-.07-.09-.12-.11s-.11,0-.1-.09,0-.07.05-.11a.2.2,0,0,0,.07-.15A.1.1,0,0,1,19,5a.18.18,0,0,1,.19.06.69.69,0,0,0,.26.23s0,0,0,0,0,0,0,0-.22-.15-.27-.23A.15.15,0,0,0,19,5a.09.09,0,0,0-.08.09.2.2,0,0,1-.07.16.31.31,0,0,0,0,.1s0,.06.09.08.12,0,.13.11Z"/><path class="cls-5" d="M19.15,5a.36.36,0,0,0,0,.47Z"/><path d="M19.15,5.5a.33.33,0,0,1,0-.47h0a.34.34,0,0,0,0,.46Z"/><path class="cls-5" d="M19.29,5.19a.29.29,0,0,0,0,.24Z"/><path d="M19.29,5.43a.23.23,0,0,1,0-.24h0a.3.3,0,0,0,0,.23Z"/><path d="M21.05,4.86h0a.25.25,0,0,0,.29-.19.16.16,0,0,0-.15-.17.15.15,0,0,1,.16.17.24.24,0,0,1-.27.2Z"/><path d="M20.21,4c0-.12,0-.2.11-.23a.27.27,0,0,1,.28.11h0a.27.27,0,0,0-.26-.11s-.12.07-.12.22Z"/><path class="cls-5" d="M20.17,4.33a.35.35,0,0,0-.56-.19.3.3,0,0,0,.14.5,1.12,1.12,0,0,1,.42-.31Z"/><path d="M19.76,4.64h0a.28.28,0,0,1-.23-.21.33.33,0,0,1,.08-.29.3.3,0,0,1,.22-.08.4.4,0,0,1,.36.26,1.27,1.27,0,0,0-.42.32Zm.06-.57a.32.32,0,0,0-.21.08.28.28,0,0,0-.07.28.27.27,0,0,0,.21.2,1.12,1.12,0,0,1,.42-.31.39.39,0,0,0-.35-.25Z"/><path class="cls-5" d="M20.05,4.15c-.17-.15-.41.13-.19.38Z"/><path d="M19.86,4.53a.27.27,0,0,1,0-.38.15.15,0,0,1,.22,0h0a.14.14,0,0,0-.2,0,.27.27,0,0,0,0,.37Z"/><path d="M20.6,3.85c-.1-.11-.33,0-.26.19a.34.34,0,0,1,.26-.19Z"/><path d="M20,4.44a.81.81,0,0,1,.2-.11A.46.46,0,0,0,20,4.14c-.06,0-.21.17-.07.3Z"/><path d="M19.11,4.31a.25.25,0,0,1,.07-.21.18.18,0,0,1,.15,0A.11.11,0,0,1,19.42,4a.36.36,0,0,1,.28.08h0A.32.32,0,0,0,19.42,4a.15.15,0,0,0-.09.06.22.22,0,0,0-.14.05.33.33,0,0,0-.08.2Z"/><path d="M18.92,4.6a.24.24,0,0,1,.1-.26.35.35,0,0,1,.35,0h0a.34.34,0,0,0-.33,0,.25.25,0,0,0-.11.25Z"/><path d="M18.79,4.79h0A.3.3,0,0,1,19,4.69a.24.24,0,0,1,.14.09A.23.23,0,0,0,19,4.71a.3.3,0,0,0-.21.07Z"/><path d="M19.81,4.89c.14-.2.27-.23.33-.23h0a.16.16,0,0,1,.13.06.21.21,0,0,1,0-.25h0a.21.21,0,0,0,0,.24.28.28,0,0,0-.13,0h0c-.06,0-.18,0-.33.21Z"/><path d="M20.67,4.71c-.1,0-.16-.08-.15-.14s.08-.1.19-.11h0c-.11,0-.17,0-.18.11s0,.1.14.13Z"/><path d="M18.94,4.05c-.12,0-.18-.08-.17-.12s.12-.08.23-.06h0c-.11,0-.2,0-.21,0s0,.08.15.12Z"/><path d="M19.12,3.8c-.06,0-.07,0-.06,0s.13-.06.33,0h0c-.2,0-.31,0-.32,0s0,0,.05,0Z"/><path d="M18.65,5.05h0a.15.15,0,0,1-.05-.15h0c0,.05,0,.12.05.14s.09,0,.15-.06-.09.08-.12.08Z"/><path class="cls-1" d="M18.62,5.19a.29.29,0,0,1,0,.09Z"/><path d="M18,3.85h0c-.1,0-.15-.1-.15-.15s.07-.07.15-.06c-.08,0-.12,0-.13.06s0,.11.14.14h0Z"/><path d="M17.89,4.22h0c-.11,0-.16-.12-.15-.18A.1.1,0,0,1,17.86,4c-.06,0-.1,0-.11.07s0,.13.15.17h0Z"/><path d="M18.25,4.13h0c-.13,0-.19-.11-.18-.16s0-.06.12-.05-.1,0-.11.06.05.1.18.13h0Z"/><path d="M18.29,3.84c-.16,0-.19-.08-.18-.12s.1-.09.17-.09h0c-.06,0-.15,0-.16.08s.06.08.17.11Z"/><path d="M18.51,4.05c-.09,0-.13-.07-.12-.11s.1-.06.23,0a0,0,0,0,1,0,0h0c-.15,0-.21,0-.22,0s0,.08.11.11Z"/><path d="M18.69,3.78c-.08,0-.09-.06-.08-.09s.09-.08.22-.06h0c-.12,0-.2,0-.21.05s0,.06.07.08Z"/><path d="M18.15,4.44h0a.14.14,0,0,1,0-.16s.07-.07.2,0c-.1,0-.16,0-.19,0a.16.16,0,0,0,0,.14Z"/><path d="M18.5,4.58c-.06,0-.09-.07-.06-.12a.2.2,0,0,1,.24-.09h0a.19.19,0,0,0-.22.08.09.09,0,0,0,.05.12Z"/><path d="M18.67,4.25s0,0,0,0,.14-.07.27,0h0a.35.35,0,0,0-.26,0s0,0,0,0Z"/><path class="cls-5" d="M16.89,4.85a.86.86,0,0,1,.52.14,1.22,1.22,0,0,0,.92.07c-.3.11-.53-.35-.76-.29s-.65.14-.83,0c.43,0,.66-.31,1.16,0a.8.8,0,0,0,.47.13c-.41-.49-.94-.17-1-.57.25.26.85-.06,1.15.43Z"/><path d="M18,5.13A1.52,1.52,0,0,1,17.41,5a1,1,0,0,0-.52-.15h0a.41.41,0,0,1-.19-.08,1.71,1.71,0,0,0,.43-.09.77.77,0,0,1,.74.06.93.93,0,0,0,.47.13,1,1,0,0,0-.64-.31c-.19,0-.34-.06-.36-.26a.72.72,0,0,0,.45.12.76.76,0,0,1,.71.31.79.79,0,0,0-.71-.3.59.59,0,0,1-.45-.12c0,.18.17.2.36.23a1,1,0,0,1,.64.33.75.75,0,0,1-.47-.12.75.75,0,0,0-.73-.05,1.18,1.18,0,0,1-.43.07c.19.17.67,0,.83,0s.21.06.32.14.28.22.44.16a.7.7,0,0,1-.33.07Zm-.94-.28a1.71,1.71,0,0,1,.35.13,1.22,1.22,0,0,0,.92.08c-.16.07-.32,0-.45-.14s-.21-.17-.31-.14a1.94,1.94,0,0,1-.51.07Z"/><path class="cls-5" d="M20.59,3.85a.36.36,0,0,0-.25.19Z"/><path d="M20.34,4.05a.31.31,0,0,1,.25-.21h0a.36.36,0,0,0-.25.2Z"/><path class="cls-5" d="M17.46,4.35c-.06-.07,0-.14-.09-.19Z"/><path d="M17.46,4.36a.31.31,0,0,1-.05-.1s0-.07-.05-.1a.12.12,0,0,1,.07.09.14.14,0,0,0,0,.1Z"/></g></g></g></g></g></svg>