<svg xmlns="http://www.w3.org/2000/svg" xmlns:xlink="http://www.w3.org/1999/xlink" viewBox="0 0 29.46 17.19"><defs><style>.cls-1{fill:none;}.cls-2{clip-path:url(#clip-path);}.cls-3{fill:#1a0095;}.cls-4{fill:#ba0019;}.cls-5{fill:#fff;}</style><clipPath id="clip-path"><rect class="cls-1" width="29.46" height="17.19"/></clipPath></defs><g id="Layer_2" data-name="Layer 2"><g id="cá»"><g id="south_east_asia" data-name="south east asia"><g class="cls-2"><rect class="cls-3" width="29.46" height="17.19"/><rect class="cls-4" y="4.3" width="29.46" height="8.59"/><rect class="cls-5" x="9.27" y="8.58" width="10.93" height="1.77"/><path class="cls-4" d="M20.22,10.37H9.27l0-1.79,10.94,0,0,1.81Zm0-1.79-10.9,0,0,1.74,10.88,0V8.58Z"/><polygon class="cls-5" points="9.26 10.34 9.08 10.76 20.38 10.76 20.2 10.34 9.26 10.34"/><path class="cls-4" d="M20.41,10.78H9.05l.19-.44,11,0,.21.46Zm-11.29,0H20.35l-.17-.39-10.92,0-.14.37Z"/><polygon class="cls-5" points="17.89 10.34 17.68 10.76 20.25 10.76 20.03 10.34 17.89 10.34"/><path class="cls-4" d="M20.28,10.78H17.64l.23-.45H20l.25.46Zm-2.57,0h2.5l-.2-.39-2.12,0-.18.37Z"/><polygon class="cls-5" points="18.51 10.34 18.4 10.76 19.7 10.76 19.59 10.34 18.51 10.34"/><path class="cls-4" d="M19.73,10.78H18.4l.09-.44,1.1,0,.14.46Zm-.16-.43-1.06,0-.09.39,1.25,0-.1-.39Z"/><polygon class="cls-5" points="18.7 10.34 18.63 10.76 19.47 10.76 19.4 10.34 18.7 10.34"/><path class="cls-4" d="M19.49,10.78h-.86l.05-.44.72,0,.09.46Zm-.11-.43-.68,0-.05.39.79,0-.06-.39Z"/><polygon class="cls-5" points="13.61 10.34 13.38 10.76 16.08 10.76 15.86 10.34 13.61 10.34"/><path class="cls-4" d="M16.12,10.78H13.34l.25-.45h2.27l.26.46Zm-2.7,0h2.63l-.21-.39-2.23,0-.19.37Z"/><rect class="cls-5" x="9.21" y="8.55" width="11.05" height="0.42"/><path class="cls-4" d="M20.28,9H9.21l0-.44,11.07,0,0,.46Zm-.05-.44-11,0,0,.4,11,0V8.55Z"/><rect class="cls-5" x="17.87" y="8.58" width="2.17" height="1.76"/><path class="cls-4" d="M20.06,10.36H17.87l0-1.78,2.19,0,0,1.8Zm0-1.78-2.15,0,0,1.74,2.12,0V8.58Z"/><rect class="cls-5" x="19.42" y="9.41" width="0.22" height="0.93"/><path class="cls-4" d="M19.66,10.36h-.24l0-.95.24,0,0,1Zm0-.95-.2,0,0,.91.17,0V9.41Z"/><rect class="cls-5" x="18.47" y="9.41" width="0.22" height="0.93"/><path class="cls-4" d="M18.71,10.36h-.24l0-.95.24,0,0,1Zm0-.95-.2,0,0,.91.18,0V9.41Z"/><polygon class="cls-5" points="14.16 10.34 14.05 10.76 15.4 10.76 15.29 10.34 14.16 10.34"/><path class="cls-4" d="M15.43,10.78H14.05l.09-.44,1.15,0,.14.46Zm-.16-.43-1.11,0-.09.39,1.3,0-.1-.39Z"/><polygon class="cls-5" points="14.38 10.34 14.31 10.76 15.16 10.76 15.09 10.34 14.38 10.34"/><path class="cls-4" d="M15.18,10.78h-.87l0-.44.73,0,.09.46Zm-.12-.43-.68,0-.05.39.8,0-.07-.39Z"/><rect class="cls-5" x="13.58" y="8.58" width="2.28" height="1.77"/><path class="cls-4" d="M15.88,10.37h-2.3l0-1.79,2.3,0,0,1.81Zm0-1.79-2.26,0,0,1.74,2.24,0V8.58Z"/><rect class="cls-5" x="15.4" y="9.41" width="0.22" height="0.94"/><path class="cls-4" d="M15.64,10.36H15.4l0-.95.23,0,0,1Zm-.05-.95-.19,0,0,.91.17,0V9.41Z"/><rect class="cls-5" x="13.89" y="9.41" width="0.22" height="0.94"/><path class="cls-4" d="M14.13,10.36h-.24l0-.95.24,0,0,1Zm0-.95-.2,0,0,.91.18,0V9.41Z"/><rect class="cls-5" x="14.18" y="8.15" width="1.1" height="2.19"/><path class="cls-4" d="M15.31,10.37H14.18l0-2.22,1.12,0,0,2.24Zm-.05-2.22-1.08,0,0,2.17,1.06,0V8.15Z"/><rect class="cls-5" x="15.01" y="9.41" width="0.22" height="0.94"/><path class="cls-4" d="M15.25,10.36H15l0-.95.23,0,0,1Zm-.05-.95-.19,0,0,.91.17,0V9.41Z"/><rect class="cls-5" x="14.28" y="9.41" width="0.22" height="0.94"/><path class="cls-4" d="M14.52,10.36h-.24l0-.95.24,0,0,1Zm0-.95-.2,0,0,.91.18,0V9.41Z"/><polygon class="cls-5" points="14.25 8.5 14.72 9.18 15.21 8.5 14.25 8.5"/><path class="cls-4" d="M14.72,9.21l-.51-.73h1l-.53.73Zm-.43-.69.43.62.45-.62Z"/><rect class="cls-5" x="18.73" y="8.58" width="0.61" height="2.18"/><path class="cls-4" d="M19.37,10.78h-.64l0-2.2.64,0,0,2.22Zm0-2.2-.6,0,0,2.16.57,0V8.58Z"/><rect class="cls-5" x="18.84" y="8.58" width="0.41" height="2.18"/><path class="cls-4" d="M19.27,10.78h-.43l0-2.2.44,0,0,2.22Zm-.05-2.2-.38,0,0,2.16.36,0V8.58Z"/><polygon class="cls-5" points="9.41 10.34 9.19 10.76 11.76 10.76 11.55 10.34 9.41 10.34"/><path class="cls-4" d="M11.8,10.78H9.16l.23-.45h2.16l.25.46Zm-2.57,0h2.5l-.2-.39-2.12,0-.18.37Z"/><polygon class="cls-5" points="9.92 10.34 9.82 10.76 11.03 10.76 10.93 10.34 9.92 10.34"/><path class="cls-4" d="M11.06,10.78H9.82l.08-.44,1,0,.13.46Zm-.15-.43-1,0-.08.39,1.16,0-.09-.39Z"/><polygon class="cls-5" points="10.1 10.34 10.04 10.76 10.81 10.76 10.74 10.34 10.1 10.34"/><path class="cls-4" d="M10.83,10.78H10l0-.44.66,0,.09.46Zm-.11-.43-.62,0,0,.39.72,0-.06-.39Z"/><rect class="cls-5" x="9.39" y="8.58" width="2.15" height="1.77"/><path class="cls-4" d="M11.56,10.37H9.39l0-1.79,2.17,0,0,1.81Zm0-1.79-2.13,0,0,1.74,2.11,0V8.58Z"/><rect class="cls-5" x="9.81" y="9.41" width="0.22" height="0.93"/><path class="cls-4" d="M10.05,10.36H9.81l0-.95.24,0,0,1ZM10,9.41l-.19,0,0,.91.17,0V9.41Z"/><rect class="cls-5" x="10.81" y="9.41" width="0.22" height="0.93"/><path class="cls-4" d="M11,10.36h-.23l0-.95.24,0,0,1Zm0-.95-.19,0,0,.91.17,0V9.41Z"/><rect class="cls-5" x="10.13" y="8.58" width="0.61" height="2.18"/><path class="cls-4" d="M10.76,10.78h-.63l0-2.2.63,0,0,2.22Zm0-2.2-.59,0,0,2.16.57,0V8.58Z"/><rect class="cls-5" x="10.23" y="8.58" width="0.41" height="2.18"/><path class="cls-4" d="M10.66,10.78h-.43l0-2.2.43,0,0,2.22Zm0-2.2-.39,0,0,2.16.37,0V8.58Z"/><rect class="cls-5" x="9.08" y="8.16" width="11.29" height="0.42"/><path class="cls-4" d="M20.4,8.6H9.08l0-.44,11.32,0,0,.46Zm0-.44-11.28,0,0,.4,11.25,0v-.4Z"/><rect class="cls-5" x="8.77" y="10.66" width="11.88" height="0.53"/><path class="cls-4" d="M20.67,11.21H8.77l0-.55,11.9,0,0,.58Zm-.05-.55-11.85,0,0,.51,11.83,0v-.51Z"/><rect class="cls-5" x="8.59" y="10.77" width="12.24" height="0.54"/><path class="cls-4" d="M20.85,11.33H8.59l0-.56,12.26,0,0,.58Zm0-.56-12.22,0,0,.51,12.2,0v-.51Z"/><rect class="cls-5" x="8.27" y="11.08" width="12.92" height="0.53"/><path class="cls-4" d="M21.21,11.63H8.27l0-.55,12.94,0,0,.58Zm0-.55-12.9,0,0,.51,12.88,0v-.51Z"/><rect class="cls-5" x="7.82" y="11.46" width="13.82" height="0.53"/><path class="cls-4" d="M21.67,12H7.82l0-.55,13.84,0,0,.57Zm-.05-.55-13.8,0,0,.51,13.78,0v-.51Z"/><rect class="cls-5" x="7.37" y="11.99" width="14.72" height="0.53"/><path class="cls-4" d="M22.12,12.54H7.37l0-.55,14.74,0,0,.57ZM22.07,12,7.37,12l0,.5,14.68,0V12Z"/><rect class="cls-5" x="10.13" y="10.66" width="0.61" height="1.87"/><path class="cls-4" d="M10.76,12.55h-.63l0-1.89.63,0,0,1.92Zm0-1.89-.59,0,0,1.85.57,0V10.66Z"/><rect class="cls-5" x="10.23" y="10.66" width="0.41" height="1.87"/><path class="cls-4" d="M10.66,12.55h-.43l0-1.89.43,0,0,1.92Zm0-1.89-.39,0,0,1.85.37,0V10.66Z"/><rect class="cls-5" x="18.72" y="10.66" width="0.61" height="1.87"/><path class="cls-4" d="M19.36,12.55h-.64l0-1.89.63,0,0,1.92Zm-.05-1.89-.59,0,0,1.85.57,0V10.66Z"/><rect class="cls-5" x="18.82" y="10.66" width="0.41" height="1.87"/><path class="cls-4" d="M19.25,12.55h-.43l0-1.89.43,0,0,1.92Zm0-1.89-.39,0,0,1.85.36,0V10.66Z"/><rect class="cls-5" x="14.5" y="8.58" width="0.49" height="3.95"/><path class="cls-4" d="M15,12.55H14.5l0-4,.52,0,0,4Zm0-4-.48,0,0,3.93.45,0V8.58Z"/><g class="cls-2"><path class="cls-5" d="M18,8.59V7.51s.11.21,1,.26.94-.16,1-.27l0,1.1Z"/><path class="cls-4" d="M20,8.62H18l0-1.11V7.43l0,.07s.12.2.95.25.92-.15,1-.26h0l0,1.12ZM18,7.57v1h1.87l0-1c-.09.1-.31.18-1,.2A1.77,1.77,0,0,1,18,7.57Z"/><path class="cls-5" d="M18.57,7.33l-.27-.22c.09-.05.26,0,.26,0A.62.62,0,0,1,19,6.81a.65.65,0,0,1,.47.34s.16-.09.25,0l-.26.22Z"/><path class="cls-4" d="M19.48,7.35h-.91l-.28-.22a.07.07,0,0,1,.08,0,.5.5,0,0,1,.19,0s.09-.24.46-.34a.67.67,0,0,1,.48.35.26.26,0,0,1,.25,0l-.27.25Zm-1.11-.23h-.06l.27.18h.89l.23-.19h0a.42.42,0,0,0-.17,0A.85.85,0,0,0,19,6.83a.65.65,0,0,0-.44.33s-.13,0-.21,0Z"/><path class="cls-5" d="M18.43,7.88l-.34-.3c.11-.08.33.06.33.06a.85.85,0,0,1,.6-.49.88.88,0,0,1,.61.49s.21-.14.33-.06l-.35.3Z"/><path class="cls-4" d="M19.62,7.9H18.43l-.36-.3a.11.11,0,0,1,.11-.07.39.39,0,0,1,.24.09s.12-.35.6-.49a.93.93,0,0,1,.63.49A.35.35,0,0,1,20,7.56l-.35.34Zm-1.44-.32a.11.11,0,0,0-.08,0l.35.26H19.6l.33-.29h-.06a.54.54,0,0,0-.23.07A1.07,1.07,0,0,0,19,7.17a.84.84,0,0,0-.58.47s-.16-.06-.26-.06Z"/><path class="cls-5" d="M19,5.67s.41.71,0,.72,0-.7,0-.72Z"/><path class="cls-4" d="M19,6.42a.19.19,0,0,1-.17-.08c-.1-.16.07-.51.14-.64l0,0h0a1,1,0,0,1,.19.51.2.2,0,0,1-.2.23Zm0-.71h0c-.06.12-.23.46-.14.6a.14.14,0,0,0,.13,0v0a.14.14,0,0,0,.14-.08c.07-.15-.08-.48-.14-.58Z"/><path class="cls-5" d="M18.68,6.58l-.2-.12a.41.41,0,0,1,.19,0s.07-.13.36-.19.36.19.36.19a.38.38,0,0,1,.19,0l-.2.12Z"/><path class="cls-4" d="M19.38,6.6h-.7l-.25-.14,0,0a.56.56,0,0,1,.2,0s.08-.13.35-.18a.56.56,0,0,1,.38.19.26.26,0,0,1,.19,0l0,0-.25.14Zm-.84-.12.15.08h.68l.14-.07a.39.39,0,0,0-.12,0A.54.54,0,0,0,19,6.33c-.26,0-.33.16-.33.17s-.09,0-.15,0Z"/><path class="cls-5" d="M18.85,6.67V6.58A.33.33,0,0,1,19,6.39a.3.3,0,0,1,.18.19v.09Z"/><path class="cls-4" d="M19.23,6.69h-.38l0-.11a.3.3,0,0,1,.2-.21.31.31,0,0,1,.21.2v.12ZM19,6.42c-.12,0-.15.16-.16.16v.09l.32,0V6.58h0A.24.24,0,0,0,19,6.42Z"/><path class="cls-5" d="M18.67,6.94V6.82a.41.41,0,0,1,.74,0v.12Z"/><path class="cls-4" d="M19.41,7h-.74l0-.14s.08-.19.38-.26a.54.54,0,0,1,.4.25V7ZM19,6.6a.49.49,0,0,0-.34.23v.11l.68,0v-.1h0A.47.47,0,0,0,19,6.6Z"/><path class="cls-5" d="M18.67,7.12V7a.41.41,0,0,1,.74,0v.12Z"/><path class="cls-4" d="M19.41,7.14h-.74l0-.14A.5.5,0,0,1,19,6.74a.58.58,0,0,1,.4.25v.15ZM19,6.78a.49.49,0,0,0-.34.23v.11l.68,0V7h0A.5.5,0,0,0,19,6.78Z"/><path class="cls-5" d="M18.68,7.67l-.2-.3c.06-.08.19.06.19.06A.75.75,0,0,1,19,6.94a.75.75,0,0,1,.36.49s.12-.14.19-.06l-.2.3Z"/><path class="cls-4" d="M19.39,7.69h-.71l-.22-.31c.05-.13.15,0,.2,0A.7.7,0,0,1,19,6.92a.75.75,0,0,1,.38.46c.05,0,.15-.08.2,0l-.21.33Zm-.86-.32h0l.21.28h.67l.19-.29h0a.23.23,0,0,0-.13.07l0,0v0A.79.79,0,0,0,19,7a.76.76,0,0,0-.33.47v0l0,0a.24.24,0,0,0-.12-.07Z"/><path class="cls-5" d="M18.68,8l-.2-.3c.06-.07.19.06.19.06A.77.77,0,0,1,19,7.3a.77.77,0,0,1,.36.49s.12-.13.19-.06l-.2.3Z"/><path class="cls-4" d="M19.39,8.05h-.71l-.22-.3c.05-.14.15,0,.2,0A.69.69,0,0,1,19,7.28a.74.74,0,0,1,.38.47c.05,0,.15-.09.2,0l-.21.33Zm-.86-.32,0,0L18.7,8h.67l.19-.28h0a.23.23,0,0,0-.13.07l0,0v0A.79.79,0,0,0,19,7.32a.76.76,0,0,0-.33.47v0l0,0a.24.24,0,0,0-.12-.07Z"/><path class="cls-5" d="M18.67,8.58V8.27a1,1,0,0,1,.37-.6,1,1,0,0,1,.37.6v.31Z"/><path class="cls-4" d="M19.41,8.6h-.74l0-.33A.92.92,0,0,1,19,7.65a1,1,0,0,1,.4.62V8.6ZM19,7.69a1,1,0,0,0-.34.59v.3l.68,0V8.27A.94.94,0,0,0,19,7.69Z"/><path class="cls-5" d="M18.68,8.58l-.2-.23c.06,0,.19,0,.19,0A.59.59,0,0,1,19,8a.59.59,0,0,1,.36.36s.12-.09.19,0l-.2.23Z"/><path class="cls-4" d="M19.39,8.6h-.71l-.22-.23s0-.06.07-.06a.25.25,0,0,1,.13,0A.63.63,0,0,1,19,8a.62.62,0,0,1,.38.35s.14-.07.19,0l-.2.26Zm-.86-.24h0l.2.19h.68l.18-.2h0a.32.32,0,0,0-.13.05l0,0v0A.6.6,0,0,0,19,8.05a.57.57,0,0,0-.33.35v0l0,0a.28.28,0,0,0-.13-.05Z"/><path class="cls-5" d="M10,7.25,9.72,7c.09-.06.25,0,.25,0a.65.65,0,0,1,.47-.35.65.65,0,0,1,.47.35s.16-.1.25,0l-.26.21Z"/><path class="cls-4" d="M10.9,7.27H10l-.28-.22a.07.07,0,0,1,.08,0,.47.47,0,0,1,.19.06s.09-.25.46-.35a.67.67,0,0,1,.48.35.26.26,0,0,1,.25,0l-.27.25ZM9.79,7l-.06,0,.27.17h.89L11.12,7h0a.28.28,0,0,0-.17.06.8.8,0,0,0-.48-.35.61.61,0,0,0-.44.33s-.13,0-.21,0Z"/><path class="cls-5" d="M9.85,7.8l-.34-.3c.11-.07.32.06.32.06a.9.9,0,0,1,.61-.49.9.9,0,0,1,.61.49s.21-.13.32-.06L11,7.8Z"/><path class="cls-4" d="M11,7.82H9.85l-.36-.3a.12.12,0,0,1,.11-.06.49.49,0,0,1,.24.08s.11-.35.6-.49a.9.9,0,0,1,.62.49.38.38,0,0,1,.33-.06L11,7.82ZM9.6,7.5l-.08,0,.35.26H11l.33-.29s0,0-.06,0a.5.5,0,0,0-.23.08,1,1,0,0,0-.62-.49.84.84,0,0,0-.58.47S9.7,7.5,9.6,7.5Z"/><path class="cls-5" d="M9.51,8.59V7.51s.11.21,1,.26.94-.16,1-.27l0,1.1Z"/><path class="cls-4" d="M11.45,8.62H9.51l0-1.11V7.43l0,.07s.13.2,1,.25.92-.15,1-.26h0l0,1.12Zm-1.91-1v1H11.4l0-1c-.08.1-.31.18-.95.2a1.71,1.71,0,0,1-.94-.22Z"/><path class="cls-5" d="M10.43,5.67s.42.71,0,.72,0-.7,0-.72Z"/><path class="cls-4" d="M10.42,6.42a.18.18,0,0,1-.16-.08c-.1-.16.07-.51.13-.64l0,0h0a1.07,1.07,0,0,1,.19.51.21.21,0,0,1-.21.23Zm0-.71h0c0,.12-.22.46-.13.6a.14.14,0,0,0,.12,0v0a.14.14,0,0,0,.15-.08c.07-.15-.08-.48-.14-.58Z"/><path class="cls-5" d="M10.09,6.58l-.21-.12a.43.43,0,0,1,.2,0s.06-.13.36-.19.35.19.35.19a.43.43,0,0,1,.2,0l-.21.12Z"/><path class="cls-4" d="M10.79,6.6h-.7l-.26-.14,0,0a.62.62,0,0,1,.21,0s.08-.13.35-.18a.56.56,0,0,1,.38.19.26.26,0,0,1,.19,0l0,0-.25.14ZM10,6.48l.15.08h.68l.14-.07a.31.31,0,0,0-.12,0,.58.58,0,0,0-.37-.18c-.27,0-.33.16-.33.17s-.09,0-.15,0Z"/><path class="cls-5" d="M10.26,6.67V6.58a.33.33,0,0,1,.19-.19.33.33,0,0,1,.18.19v.09Z"/><path class="cls-4" d="M10.63,6.69h-.37l0-.11a.3.3,0,0,1,.2-.21.31.31,0,0,1,.21.2v.12Zm-.2-.27a.27.27,0,0,0-.16.16v.09l.31,0V6.58h0a.27.27,0,0,0-.17-.16Z"/><path class="cls-5" d="M10.08,6.94V6.82a.5.5,0,0,1,.37-.24.5.5,0,0,1,.36.24v.12Z"/><path class="cls-4" d="M10.81,7h-.73l0-.14a.51.51,0,0,1,.39-.26c.32.07.39.24.39.25V7Zm-.38-.36a.49.49,0,0,0-.34.23v.11l.67,0v-.1h0a.47.47,0,0,0-.35-.22Z"/><path class="cls-5" d="M10.08,7.12V7a.5.5,0,0,1,.37-.24A.5.5,0,0,1,10.8,7v.12Z"/><path class="cls-4" d="M10.81,7.14h-.73L10,7a.53.53,0,0,1,.39-.26c.32.07.39.25.39.25v.15Zm-.38-.36a.49.49,0,0,0-.34.23v.11l.67,0V7h0a.5.5,0,0,0-.35-.22Z"/><path class="cls-5" d="M10.09,7.67l-.21-.3c.07-.08.2.06.2.06a.71.71,0,0,1,.36-.49.72.72,0,0,1,.35.49s.13-.14.2-.06l-.21.3Z"/><path class="cls-4" d="M10.8,7.69h-.71l-.23-.31c.06-.13.16,0,.2,0a.76.76,0,0,1,.37-.46.79.79,0,0,1,.38.46s.14-.08.19,0l-.2.33Zm-.86-.32h0l.2.28h.67l.2-.29h0a.24.24,0,0,0-.12.07l0,0v0A.75.75,0,0,0,10.43,7a.76.76,0,0,0-.33.47v0l0,0a.24.24,0,0,0-.12-.07Z"/><path class="cls-5" d="M10.09,8l-.21-.3c.07-.07.2.06.2.06a.73.73,0,0,1,.36-.49.74.74,0,0,1,.35.49s.13-.13.2-.06l-.21.3Z"/><path class="cls-4" d="M10.8,8.05h-.71l-.23-.3c.06-.14.16,0,.2,0a.75.75,0,0,1,.37-.47.77.77,0,0,1,.38.47s.14-.09.19,0l-.2.33Zm-.86-.32,0,0,.2.27h.67l.2-.28h0a.24.24,0,0,0-.12.07l0,0v0a.75.75,0,0,0-.34-.47.76.76,0,0,0-.33.47v0l0,0a.24.24,0,0,0-.12-.07Z"/><path class="cls-5" d="M10.08,8.58V8.27a1,1,0,0,1,.37-.6,1,1,0,0,1,.36.6v.31Z"/><path class="cls-4" d="M10.81,8.6h-.73l0-.33a1,1,0,0,1,.38-.62.9.9,0,0,1,.4.62V8.6Zm-.39-.91a1,1,0,0,0-.33.59v.3l.67,0V8.27a.92.92,0,0,0-.36-.58Z"/><path class="cls-5" d="M10.09,8.58l-.21-.23c.07,0,.2,0,.2,0A.56.56,0,0,1,10.44,8a.56.56,0,0,1,.35.36s.13-.09.2,0l-.21.23Z"/><path class="cls-4" d="M10.79,8.6h-.7l-.22-.23s0-.06.07-.06a.22.22,0,0,1,.12,0A.62.62,0,0,1,10.43,8a.59.59,0,0,1,.37.35s.15-.07.2,0l-.21.26Zm-.85-.24h0l.2.19h.67l.19-.2h0a.28.28,0,0,0-.12.05l0,0v0a.57.57,0,0,0-.34-.35.57.57,0,0,0-.33.35v0l0,0a.28.28,0,0,0-.12-.05Z"/><path class="cls-5" d="M13.48,8.09H16a.22.22,0,0,1,.22.22.22.22,0,0,1-.22.23h-2.5a.22.22,0,0,1-.22-.23.22.22,0,0,1,.22-.22Z"/><path class="cls-4" d="M16,8.56h-2.5a.25.25,0,0,1,0-.49H16a.25.25,0,1,1,0,.49Zm-2.5-.45a.2.2,0,0,0,0,.4H16a.2.2,0,0,0,0-.4Z"/><path class="cls-5" d="M16.25,8.35l0-1.47s-.06.36-.23.36H13.42c-.17,0-.22-.36-.22-.36l0,1.47Z"/><path class="cls-4" d="M16.27,8.37h-3l0-1.49h0c0,.09.08.34.2.34H16c.12,0,.19-.25.2-.34h.05l0,1.49Zm-3-1.32,0,1.3,3,0V7.05c0,.1-.1.21-.2.21H13.42c-.1,0-.16-.11-.2-.21Z"/><path class="cls-5" d="M15.67,7.68V7.2S16,7.11,16,7s-.43.16-.43.16H14s-.4-.29-.44-.16.28.21.28.21v.48Z"/><path class="cls-4" d="M15.69,7.71h-1.9l0-.51a.38.38,0,0,1-.28-.14.11.11,0,0,1,0-.08s0-.05.07-.05a1,1,0,0,1,.4.2h1.56a.81.81,0,0,1,.38-.2S16,7,16,7a.11.11,0,0,1,0,.08c-.05.1-.28.16-.29.16v.49ZM13.56,7s0,0,0,0,0,0,0,0a.48.48,0,0,0,.26.14l0,.5,1.83,0V7.2c.08,0,.24-.09.28-.16s0,0,0,0,0,0,0,0a.93.93,0,0,0-.37.19H14A1.09,1.09,0,0,0,13.56,7Z"/><path class="cls-5" d="M15.85,8.1V7.59s.39-.06.34-.19-.53.16-.53.16H13.79s-.47-.28-.53-.16.34.19.34.19V8.1Z"/><path class="cls-4" d="M15.88,8.12H13.61l0-.53s-.28,0-.33-.12a.06.06,0,0,1,0-.07.09.09,0,0,1,.09-.05,1.58,1.58,0,0,1,.47.19h1.87a1.62,1.62,0,0,1,.46-.19.09.09,0,0,1,.09.05.08.08,0,0,1,0,.07c-.06.09-.32.14-.36.14l0,.49v0Zm-2.55-.73s0,0-.05,0,.25.15.32.16l0,.53,2.2,0V7.59c.09,0,.3-.08.34-.15s-.49.14-.5.14H13.79a1.76,1.76,0,0,0-.46-.19Z"/><path class="cls-5" d="M15,5.5V5.3c-.23,0-.18-.22-.18-.31a.2.2,0,0,0-.1-.33.21.21,0,0,0-.1.33c0,.09.08.31-.18.31v.2Z"/><path class="cls-4" d="M15,5.52h-.58l0-.22a.3.3,0,0,0,.16-.07s0-.12,0-.19V5a.2.2,0,0,1,0-.17.28.28,0,0,1,.16-.18c.13.05.17.12.18.17a.24.24,0,0,1-.05.2V5c0,.06,0,.15,0,.2a.17.17,0,0,0,.12,0l0,.22v0Zm-.31-.84a.27.27,0,0,0-.11.15.15.15,0,0,0,0,.14.15.15,0,0,0,0,.07.34.34,0,0,1,0,.22.22.22,0,0,1-.17.06l0,.18.5,0V5.3a.14.14,0,0,1-.14,0,.33.33,0,0,1,0-.23V5a.18.18,0,0,0-.09-.31Z"/><path class="cls-5" d="M15.39,6.82V6.44s.23-.08.2-.19-.31.13-.31.13H14.17s-.27-.23-.31-.13.2.19.2.19v.38Z"/><path class="cls-4" d="M15.42,6.85H14.07l0-.41s-.23-.07-.2-.19a.05.05,0,0,1,.06,0,.71.71,0,0,1,.29.16h1.1a.6.6,0,0,1,.27-.15.05.05,0,0,1,.06,0c0,.12-.19.2-.21.21v.39Zm-1.52-.6c0,.08.12.15.17.17l0,.4,1.28,0V6.44c.07,0,.22-.11.2-.18s-.23.1-.28.14H14.17a.69.69,0,0,0-.27-.16Z"/><path class="cls-5" d="M15.53,7.16V6.75s.28,0,.24-.16-.37.14-.37.14H14.06s-.33-.24-.37-.14.24.16.24.16v.41Z"/><path class="cls-4" d="M15.55,7.19H13.94l0-.44s-.19,0-.23-.1a.07.07,0,0,1,0-.06s0,0,.07,0a.89.89,0,0,1,.34.16H15.4a.93.93,0,0,1,.33-.15s.06,0,.06,0a.06.06,0,0,1,0,.06c0,.08-.23.11-.25.12v.42Zm-1.81-.6,0,0s.15.08.22.1l0,.43,1.55,0V6.75c.07,0,.21-.07.24-.12l0,0a.94.94,0,0,0-.32.15H14.06a.88.88,0,0,0-.32-.16Z"/><path class="cls-5" d="M15.16,6.21V6s.15-.06.13-.13-.2.09-.2.09h-.72s-.18-.16-.2-.09.13.13.13.13v.26Z"/><path class="cls-4" d="M15.18,6.23H14.3l0-.28s-.16,0-.13-.14h0l0,0c.06,0,.16.09.19.11h.7a.35.35,0,0,1,.18-.11h0l0,0c0,.09-.12.15-.14.16v.26Zm-1-.41s.06.09.11.11v.28l.82,0V6c.06,0,.14-.09.13-.12a.44.44,0,0,0-.16.09h-.74a.52.52,0,0,0-.17-.11Z"/><path class="cls-5" d="M15.25,6.44V6.18s.18-.06.15-.13-.24.09-.24.09H14.3s-.22-.16-.24-.09.15.13.15.13v.26Z"/><path class="cls-4" d="M15.27,6.46h-1l0-.28s-.12,0-.15-.09h0V6s0,0,.05,0a.56.56,0,0,1,.22.11h.85A.51.51,0,0,1,15.37,6h0l0,0a0,0,0,0,1,0,0,.32.32,0,0,1-.16.11v.26Zm-1.18-.41c0,.06.09.1.13.11l0,.28,1,0V6.18c.06,0,.14-.07.15-.11s-.15,0-.2.09H14.3a.86.86,0,0,0-.21-.11Z"/><path class="cls-5" d="M15,5.76V5.52s.1,0,.09-.11-.14.07-.14.07h-.51s-.13-.13-.15-.07.1.11.1.11v.21Z"/><path class="cls-4" d="M15.06,5.78l-.63,0,0-.22s-.11,0-.09-.12v0h0c.05,0,.12.07.14.09H15a.23.23,0,0,1,.12-.08h0l0,0c0,.07-.09.13-.1.13v.24Zm-.71-.36s.06.07.09.09v.22H15V5.52s.1-.07.09-.1A.29.29,0,0,0,15,5.5h-.52a.42.42,0,0,0-.13-.09Z"/><path class="cls-5" d="M15.1,5.92V5.71s.13,0,.11-.11-.17.07-.17.07h-.61s-.16-.13-.18-.07.11.11.11.11v.21Z"/><path class="cls-4" d="M15.12,5.94h-.75l0-.23s-.13,0-.11-.12h0l0,0c.05,0,.14.08.16.1H15a.26.26,0,0,1,.15-.09h0l0,0c0,.08-.1.13-.12.14v.21Zm-.84-.33s.05.06.09.08l0,.23.68,0V5.71c.06,0,.12-.08.11-.1a.41.41,0,0,0-.14.08h-.62a1.2,1.2,0,0,0-.15-.08Z"/><path class="cls-5" d="M14.54,5.93l-.12-.13s.11,0,.11,0a.33.33,0,0,1,.2-.2.33.33,0,0,1,.2.2s.07-.05.11,0l-.11.13Z"/><path class="cls-4" d="M14.93,6h-.39l-.16-.17h.07l.07,0a.34.34,0,0,1,.2-.19.33.33,0,0,1,.22.19l.07,0h0L14.93,6Zm-.48-.14.1.1h.37l.1-.12-.08,0,0,0v0a.28.28,0,0,0-.19-.19.29.29,0,0,0-.17.19v0l0,0a.11.11,0,0,0-.07,0Z"/><path class="cls-5" d="M14.46,6.14,14.3,6s.15,0,.15,0a.41.41,0,0,1,.28-.21A.38.38,0,0,1,15,6s.1-.06.15,0L15,6.14Z"/><path class="cls-4" d="M15,6.16h-.55L14.29,6s0,0,.05,0a.3.3,0,0,1,.12,0s.06-.15.27-.21A.42.42,0,0,1,15,6s.11,0,.15,0L15,6.16ZM14.35,6l.12.1H15L15.11,6a.22.22,0,0,0-.09,0,.53.53,0,0,0-.29-.21.41.41,0,0,0-.26.2s-.08,0-.12,0Z"/><path class="cls-5" d="M14.42,6.5l-.18-.17c.06,0,.17,0,.17,0a.49.49,0,0,1,.32-.28.49.49,0,0,1,.32.28s.11-.08.17,0L15,6.5Z"/><path class="cls-4" d="M15.05,6.52h-.63l-.19-.18s0,0,.06,0a.32.32,0,0,1,.13,0s.06-.2.3-.28a.5.5,0,0,1,.34.28.16.16,0,0,1,.18,0l-.19.21Zm-.76-.18h0l.19.13H15l.15-.14-.12,0a.63.63,0,0,0-.34-.28.44.44,0,0,0-.29.27s-.09,0-.14,0Z"/><path class="cls-5" d="M14.34,7l-.22-.22c.07-.05.21,0,.21,0a.6.6,0,0,1,.4-.34.6.6,0,0,1,.4.34s.14-.09.22,0L15.12,7Z"/><path class="cls-4" d="M15.13,7h-.79l-.24-.22a.08.08,0,0,1,.08-.06.35.35,0,0,1,.16.06s.08-.25.38-.34a.66.66,0,0,1,.43.34.18.18,0,0,1,.21,0L15.13,7Zm-1-.23h0l.23.18h.75l.2-.18h0a.34.34,0,0,0-.15,0,.76.76,0,0,0-.42-.34.57.57,0,0,0-.37.33s-.11,0-.17,0Z"/><polygon class="cls-5" points="14.29 7.31 14.72 7.85 15.18 7.31 14.29 7.31"/><path class="cls-4" d="M14.72,7.88l-.48-.59h1l-.5.59Zm-.39-.55.39.49.41-.49Z"/><path class="cls-5" d="M14.27,7.37,14,7.14c.1-.07.26,0,.26,0a.7.7,0,0,1,.48-.39.7.7,0,0,1,.48.39s.17-.11.26,0l-.27.23Z"/><path class="cls-4" d="M15.21,7.39h-.94L14,7.15a.08.08,0,0,1,.08-.06.44.44,0,0,1,.2.07s.09-.28.47-.39a.76.76,0,0,1,.5.39.25.25,0,0,1,.25,0l-.27.27Zm-1.15-.25H14l.27.21h.91l.24-.21h0a.44.44,0,0,0-.18.06.82.82,0,0,0-.49-.39.68.68,0,0,0-.46.38s-.13-.05-.21-.05Z"/><polygon class="cls-5" points="14.25 7.9 14.72 8.58 15.21 7.9 14.25 7.9"/><path class="cls-4" d="M14.72,8.61l-.51-.73h1l-.53.73Zm-.43-.69.43.62.45-.62Z"/><path class="cls-5" d="M14.23,8l-.3-.3c.1-.08.28.06.28.06a.8.8,0,0,1,.52-.49.8.8,0,0,1,.52.49s.18-.14.28-.06l-.29.3Z"/><path class="cls-4" d="M15.24,8h-1l-.31-.3c0-.06.05-.07.09-.07a.47.47,0,0,1,.19.07.86.86,0,0,1,.52-.47.82.82,0,0,1,.54.47c.06,0,.21-.1.28,0l-.3.34ZM14,7.68s0,0-.06,0l.29.26h1l.28-.29h-.06a.46.46,0,0,0-.19.07l0,0v0a.8.8,0,0,0-.51-.47.8.8,0,0,0-.49.47v0l0,0A.4.4,0,0,0,14,7.68Z"/><path class="cls-5" d="M14.23,8.58l-.3-.3c.1-.08.28.05.28.05a.8.8,0,0,1,.52-.48.8.8,0,0,1,.52.48s.18-.13.28-.05l-.29.3Z"/><path class="cls-4" d="M15.24,8.6h-1l-.31-.31A.08.08,0,0,1,14,8.23a.47.47,0,0,1,.19.07.83.83,0,0,1,.52-.47.8.8,0,0,1,.54.47c.06,0,.21-.1.28,0l-.3.34ZM14,8.28s0,0-.06,0l.29.26h1l.28-.29h-.06a.46.46,0,0,0-.19.07l0,0v0a.8.8,0,0,0-.51-.47.8.8,0,0,0-.49.47v0l0,0A.4.4,0,0,0,14,8.28Z"/><rect class="cls-5" x="11.73" y="9.41" width="0.22" height="0.93"/><path class="cls-4" d="M12,10.36h-.24l0-.95.23,0,0,1Zm-.05-.95-.19,0,0,.91.17,0V9.41Z"/><rect class="cls-5" x="12.46" y="9.41" width="0.22" height="0.94"/><path class="cls-4" d="M12.7,10.36h-.24l0-.95.24,0,0,1Zm0-.95-.2,0,0,.91.17,0V9.41Z"/><rect class="cls-5" x="12.12" y="9.41" width="0.22" height="0.94"/><path class="cls-4" d="M12.36,10.36h-.24l0-.95.23,0,0,1Zm0-.95-.19,0,0,.91.17,0V9.41Z"/><rect class="cls-5" x="16.05" y="9.41" width="0.22" height="0.94"/><path class="cls-4" d="M16.29,10.36h-.24l0-.95.24,0,0,1Zm0-.95-.2,0,0,.91.18,0V9.41Z"/><rect class="cls-5" x="17.52" y="9.41" width="0.22" height="0.94"/><path class="cls-4" d="M17.76,10.36h-.24l0-.95.24,0,0,1Zm0-.95-.2,0,0,.91.18,0V9.41Z"/><rect class="cls-5" x="16.79" y="9.41" width="0.22" height="0.94"/><path class="cls-4" d="M17,10.36h-.24l0-.95.23,0,0,1ZM17,9.41l-.19,0,0,.91.17,0V9.41Z"/><rect class="cls-5" x="16.44" y="9.41" width="0.22" height="0.94"/><path class="cls-4" d="M16.68,10.36h-.24l0-.95.24,0,0,1Zm0-.95-.2,0,0,.91.18,0V9.41Z"/><rect class="cls-5" x="17.13" y="9.41" width="0.22" height="0.94"/><path class="cls-4" d="M17.37,10.36h-.24l0-.95.24,0,0,1Zm0-.95-.2,0,0,.91.17,0V9.41Z"/><rect class="cls-5" x="13.2" y="9.41" width="0.22" height="0.94"/><path class="cls-4" d="M13.44,10.36H13.2l0-.95.24,0,0,1Zm0-.95-.19,0,0,.91.17,0V9.41Z"/><rect class="cls-5" x="12.81" y="9.41" width="0.22" height="0.94"/><path class="cls-4" d="M13.05,10.36h-.24l0-.95.24,0,0,1ZM13,9.41l-.19,0,0,.91.17,0V9.41Z"/><rect class="cls-5" x="14.51" y="5.13" width="0.45" height="0.17"/><path class="cls-4" d="M15,5.33h-.47l0-.2.47,0,0,.22Zm-.05-.2-.42,0,0,.15.4,0V5.13Z"/><rect class="cls-5" x="14.56" y="4.97" width="0.33" height="0.16"/><path class="cls-4" d="M14.92,5.15h-.36l0-.18.36,0,0,.2ZM14.87,5l-.31,0,0,.14.28,0V5Z"/></g></g></g></g></g></svg>