<svg xmlns="http://www.w3.org/2000/svg" xmlns:xlink="http://www.w3.org/1999/xlink" viewBox="0 0 29.46 17.19"><defs><style>.cls-1{fill:none;}.cls-2{clip-path:url(#clip-path);}.cls-3{fill:#22368f;}.cls-4{fill:#fff;}.cls-5{fill:#bc0030;}.cls-6{fill:#f3d02f;}</style><clipPath id="clip-path"><rect class="cls-1" width="29.46" height="17.19"/></clipPath></defs><g id="Layer_2" data-name="Layer 2"><g id="cá»"><g id="west_africa" data-name="west africa"><g class="cls-2"><rect class="cls-3" width="29.46" height="17.19"/><rect class="cls-4" y="8.59" width="29.46" height="4.3"/><rect class="cls-5" y="10.03" width="29.46" height="1.43"/><polygon class="cls-6" points="10.96 5.58 10.76 6.18 10.14 6.18 10.64 6.55 10.45 7.14 10.96 6.77 11.46 7.14 11.27 6.55 11.77 6.18 11.15 6.18 10.96 5.58"/><polygon class="cls-6" points="8.43 6.41 8.24 7 7.61 7 8.12 7.37 7.93 7.96 8.43 7.59 8.94 7.96 8.74 7.37 9.25 7 8.62 7 8.43 6.41"/><polygon class="cls-6" points="6.87 8.55 6.68 9.15 6.05 9.15 6.56 9.52 6.37 10.11 6.87 9.74 7.38 10.11 7.18 9.52 7.69 9.15 7.06 9.15 6.87 8.55"/><polygon class="cls-6" points="6.87 11.21 6.68 11.8 6.05 11.8 6.56 12.17 6.37 12.76 6.87 12.4 7.38 12.76 7.18 12.17 7.69 11.8 7.06 11.8 6.87 11.21"/><polygon class="cls-6" points="8.43 13.36 8.24 13.95 7.61 13.95 8.12 14.32 7.93 14.91 8.43 14.55 8.94 14.91 8.74 14.32 9.25 13.95 8.62 13.95 8.43 13.36"/><polygon class="cls-6" points="10.96 14.18 10.76 14.77 10.14 14.77 10.64 15.14 10.45 15.73 10.96 15.37 11.46 15.73 11.27 15.14 11.77 14.77 11.15 14.77 10.96 14.18"/><polygon class="cls-6" points="13.48 13.36 13.29 13.95 12.66 13.95 13.17 14.32 12.98 14.91 13.48 14.55 13.99 14.91 13.79 14.32 14.3 13.95 13.67 13.95 13.48 13.36"/><polygon class="cls-6" points="15.04 8.55 14.85 9.15 14.23 9.15 14.73 9.52 14.54 10.11 15.04 9.74 15.55 10.11 15.35 9.52 15.86 9.15 15.24 9.15 15.04 8.55"/><polygon class="cls-6" points="15.04 11.21 14.85 11.8 14.23 11.8 14.73 12.17 14.54 12.76 15.04 12.4 15.55 12.76 15.35 12.17 15.86 11.8 15.24 11.8 15.04 11.21"/><polygon class="cls-6" points="13.48 6.41 13.29 7 12.66 7 13.17 7.37 12.98 7.96 13.48 7.59 13.99 7.96 13.79 7.37 14.3 7 13.67 7 13.48 6.41"/></g></g></g></g></svg>