<svg xmlns="http://www.w3.org/2000/svg" xmlns:xlink="http://www.w3.org/1999/xlink" viewBox="0 0 29.46 17.19"><defs><style>.cls-1{fill:none;}.cls-2{clip-path:url(#clip-path);}.cls-3{fill:#cb1d23;}.cls-4{fill:#f7de29;}</style><clipPath id="clip-path"><rect class="cls-1" width="29.46" height="17.19"/></clipPath></defs><g id="Layer_2" data-name="Layer 2"><g id="cá»"><g id="east_asia" data-name="east asia"><g class="cls-2"><rect class="cls-3" width="29.46" height="17.19"/><polygon class="cls-4" points="2.83 6.22 3.39 4.5 1.93 3.44 3.74 3.44 4.3 1.73 4.86 3.44 6.66 3.44 5.2 4.51 5.76 6.22 4.3 5.17 2.83 6.22"/><polygon class="cls-4" points="7.86 7.15 8.47 7.39 8.89 6.89 8.85 7.54 9.45 7.79 8.82 7.95 8.77 8.61 8.42 8.05 7.79 8.21 8.21 7.7 7.86 7.15"/><polygon class="cls-4" points="11.15 3.85 10.51 3.74 10.2 4.32 10.11 3.67 9.46 3.55 10.05 3.27 9.96 2.62 10.41 3.09 11 2.8 10.7 3.38 11.15 3.85"/><polygon class="cls-4" points="9.78 6.79 9.98 6.17 9.45 5.78 10.11 5.78 10.31 5.15 10.52 5.78 11.17 5.78 10.64 6.17 10.84 6.79 10.31 6.41 9.78 6.79"/><polygon class="cls-4" points="7.89 1.09 8.49 1.37 8.94 0.89 8.86 1.54 9.45 1.82 8.81 1.95 8.72 2.6 8.4 2.02 7.76 2.15 8.21 1.67 7.89 1.09"/></g></g></g></g></svg>