<svg xmlns="http://www.w3.org/2000/svg" xmlns:xlink="http://www.w3.org/1999/xlink" viewBox="0 0 29.46 17.19"><defs><style>.cls-1{fill:none;}.cls-2{clip-path:url(#clip-path);}.cls-3{fill:#f4c533;}.cls-4{fill:#fff;}.cls-5{fill:#bc0030;}.cls-6{fill:#4d72c0;}.cls-7{fill:#508e38;}</style><clipPath id="clip-path"><rect class="cls-1" width="29.46" height="17.19"/></clipPath></defs><g id="Layer_2" data-name="Layer 2"><g id="cá»"><g id="east_africa" data-name="east africa"><g class="cls-2"><rect class="cls-3" width="29.46" height="17.19"/><rect class="cls-4" y="4.3" width="29.46" height="12.89"/><rect class="cls-5" y="8.59" width="29.46" height="8.59"/><rect class="cls-6" y="12.89" width="29.46" height="4.3"/><polygon class="cls-7" points="0 0 0 17.19 14.32 8.59 0 0"/><g class="cls-2"><path class="cls-4" d="M8.74,8.59A3.87,3.87,0,0,1,1,8.6H1a3.87,3.87,0,0,1,7.74,0Z"/><path class="cls-7" d="M10.46,8.59a3.87,3.87,0,0,1-7.74,0h0a3.87,3.87,0,0,1,7.74,0Z"/><polygon class="cls-4" points="5.05 11.14 5.57 11.14 5.73 10.64 5.89 11.14 6.41 11.14 5.99 11.45 6.15 11.94 5.73 11.63 5.31 11.94 5.47 11.45 5.05 11.14"/><polygon class="cls-4" points="5.05 5.61 5.57 5.61 5.73 5.11 5.89 5.61 6.41 5.61 5.99 5.91 6.15 6.41 5.73 6.1 5.31 6.41 5.47 5.91 5.05 5.61"/><polygon class="cls-4" points="5.05 7.45 5.57 7.45 5.73 6.95 5.89 7.45 6.41 7.45 5.99 7.75 6.15 8.25 5.73 7.95 5.31 8.25 5.47 7.75 5.05 7.45"/><polygon class="cls-4" points="5.05 9.29 5.57 9.29 5.73 8.8 5.89 9.29 6.41 9.29 5.99 9.6 6.15 10.1 5.73 9.79 5.31 10.1 5.47 9.6 5.05 9.29"/></g></g></g></g></g></svg>