<svg xmlns="http://www.w3.org/2000/svg" xmlns:xlink="http://www.w3.org/1999/xlink" viewBox="0 0 29.46 17.19"><defs><style>.cls-1{fill:none;}.cls-2{clip-path:url(#clip-path);}.cls-3{fill:#2f3c85;}.cls-4{fill:#292c2f;}.cls-5,.cls-7{fill:#fff;}.cls-6{fill:#d80031;}.cls-7{fill-rule:evenodd;}</style><clipPath id="clip-path"><rect class="cls-1" width="29.46" height="17.19"/></clipPath></defs><g id="Layer_2" data-name="Layer 2"><g id="ther"><g id="thẻ_3_vùng_hiển_thị" data-name="thẻ 3 vùng hiển thị"><g id="CUBA"><g class="cls-2"><rect class="cls-3" width="29.46" height="17.19"/><path class="cls-4" d="M0,12H0ZM0,5.15H0Z"/><path class="cls-5" d="M0,13.75H29.46V10.32H0ZM0,6.86H29.46V3.43H0Z"/><polygon class="cls-6" points="0 0 0 17.19 14.86 8.61 0 0"/><polygon class="cls-7" points="4.96 5.73 4.08 8.44 5.43 8.88 4.96 5.73"/><polygon class="cls-7" points="4.96 5.73 5.82 8.44 4.46 8.88 4.96 5.73"/><polygon class="cls-7" points="7.68 7.72 4.82 7.72 4.82 9.13 7.68 7.72"/><polygon class="cls-7" points="7.68 7.72 5.35 9.38 4.52 8.25 7.68 7.72"/><polygon class="cls-7" points="2.22 7.72 4.55 9.38 5.38 8.25 2.22 7.72"/><polygon class="cls-7" points="2.22 7.72 5.1 7.72 5.1 9.13 2.22 7.72"/><polygon class="cls-7" points="6.63 10.9 5.74 8.19 4.38 8.63 6.63 10.9"/><polygon class="cls-7" points="6.63 10.9 4.33 9.22 5.16 8.08 6.63 10.9"/><polygon class="cls-7" points="3.27 10.9 5.57 9.22 4.74 8.08 3.27 10.9"/><polygon class="cls-7" points="3.27 10.9 4.16 8.19 5.52 8.63 3.27 10.9"/></g></g></g></g></g></svg>