<svg xmlns="http://www.w3.org/2000/svg" xmlns:xlink="http://www.w3.org/1999/xlink" viewBox="0 0 29.46 17.19"><defs><style>.cls-1{fill:none;}.cls-2{clip-path:url(#clip-path);}.cls-3{fill:#fff;}.cls-4{fill:#dd7d21;}.cls-5{fill:#2c6752;}</style><clipPath id="clip-path"><rect class="cls-1" width="29.46" height="17.19"/></clipPath></defs><g id="Layer_2" data-name="Layer 2"><g id="cá»"><g id="west_asia" data-name="west asia"><g class="cls-2"><rect class="cls-3" width="29.46" height="17.19"/><g class="cls-2"><path class="cls-4" d="M12.6,5.22a.69.69,0,0,0,0,.3,3,3,0,0,1-.08,1,.89.89,0,0,1-.44.36c-.09,0-.38-.19-.65-.27a.72.72,0,0,0-.37-.07,1,1,0,0,0-.44.15s-.05,0-.08,0a1,1,0,0,0-.17.21c0,.07-.1.34-.19.37s-.31.26-.46.27a1.16,1.16,0,0,1-.21,0c-.11,0-.12-.12-.22-.17a.32.32,0,0,1-.12-.1s0-.12-.08-.12-.08.2-.08.26a.68.68,0,0,0,.17.31c.06,0,.06.3,0,.37s.06.14.07.21-.09.13,0,.14a.21.21,0,0,1,.1.18c0,.09.21.12.25.2a1.25,1.25,0,0,1,.07.31c0,.09.06,0,.07.26l.26.14c.08,0,.07.14.18.18s.11,0,.17,0,0,0,.07.05.14,0,.23,0,.12.14.18.17.3.1.31.12a1.18,1.18,0,0,0,.2.07.36.36,0,0,0,.11-.06.36.36,0,0,0,.19,0c.08,0,.14-.11.2-.11L12,10l.14,0a.39.39,0,0,1,.23,0,.91.91,0,0,1,.32.44,1,1,0,0,1,0,.17.35.35,0,0,1,.16,0s0,0,.35,0c0-.08-.33-.3,0-.61s.3-.19.36-.24a.76.76,0,0,1,.77-.07c.42-.07.11-.13.35-.15a.59.59,0,0,1,.21,0A.17.17,0,0,1,15,9.58a.33.33,0,0,1,.25-.13c0-.09.32-.21.5-.23s.15-.34.54-.21c0-.09.07-.24.18-.27,0-.19,0-.57.14-.7s.37-.14.69-.13.33.21.4.23a.19.19,0,0,0,.18-.05c.09-.05,0-.17.06-.17a.41.41,0,0,0,.16,0c.11,0,.09,0,.17-.07s.24,0,.29.06a.35.35,0,0,0,.19.06c0,.07.15.07.15.07s-.08,0-.05-.07a.26.26,0,0,0-.06-.23.8.8,0,0,1-.13-.13c0-.05,0-.05-.06-.12s-.22-.15-.26-.23,0-.14-.1-.21-.36-.31-.37-.57,0-.5.18-.58c0-.15,0-.17.19-.25s.17,0,.27,0a.35.35,0,0,0,.25-.06c.1-.07,0-.23.27-.45s.35-.34.44-.35.39-.23.52-.22a1.52,1.52,0,0,1,.3-.32c.11-.09.24-.09.29-.16s0-.2.22-.31.31-.18.38-.24.22,0,.28-.07.06-.27.11-.31l-.31.16a1.18,1.18,0,0,1-.46.14c-.16,0-.07.08-.16.11s-.23,0-.28.07a1.88,1.88,0,0,1-.24.25,1.2,1.2,0,0,1-.21.09l-.23.11a1,1,0,0,1-.28,0s-.19.24-.27.32-.19.07-.27.12a4.87,4.87,0,0,1-1.3.57c-.5.08-.27,0-.43,0s-.38.34-.56.36h-.28s-.27.14-.41.11a1,1,0,0,1-.43,0,.48.48,0,0,1-.32,0c-.12,0-.12.05-.36,0s-.39,0-.51,0-.1-.1-.18-.1-.09,0-.18,0-.12,0-.2,0a2.36,2.36,0,0,1-.31,0c-.13,0-.17-.07-.26-.07a4.14,4.14,0,0,1-.55-.2Z"/><path class="cls-5" d="M14.05,13.86a1.57,1.57,0,0,1,.79-.29c.34-.06.69-.16.88-.21a8.51,8.51,0,0,1-.84.3l-.83.2Z"/><path class="cls-5" d="M15.39,13.34a1,1,0,0,1,.48-1,1.2,1.2,0,0,1-.48,1Z"/><path class="cls-5" d="M16,13.12c-.21-.35.14-.8.39-1a1.06,1.06,0,0,1-.39,1Z"/><path class="cls-5" d="M16.64,12.85c-.22-.3,0-.83.31-1a1,1,0,0,1-.31,1Z"/><path class="cls-5" d="M17.24,12.47a.85.85,0,0,1,.22-1c.21.24,0,.75-.22,1Z"/><path class="cls-5" d="M17.72,12.09A1,1,0,0,1,18,11a1,1,0,0,1-.3,1.08Z"/><path class="cls-5" d="M18.1,12c-.05-.39.62-.81.9-.8,0,.31-.32.66-.9.8Z"/><path class="cls-5" d="M17.73,12.43a1.29,1.29,0,0,1,1.14-.26c-.06.19-.78.6-1.14.26Z"/><path class="cls-5" d="M17.3,12.75c.44-.12.72-.21,1,.06-.19.24-.9.17-1-.06Z"/><path class="cls-5" d="M16.67,13a.81.81,0,0,1,1,.3,1,1,0,0,1-1-.3Z"/><path class="cls-5" d="M16.09,13.36a1,1,0,0,1,1,.26.75.75,0,0,1-1-.26Z"/><path class="cls-5" d="M15.56,13.53a1.08,1.08,0,0,1,1,.47c-.57.06-.78-.11-1-.47Z"/><path class="cls-5" d="M15.42,13.86a1.61,1.61,0,0,0-.8-.29c-.33-.06-.69-.16-.87-.21a7.87,7.87,0,0,0,.83.3l.84.2Z"/><path class="cls-5" d="M14.07,13.34a1,1,0,0,0-.48-1,1.22,1.22,0,0,0,.48,1Z"/><path class="cls-5" d="M13.42,13.12c.21-.35-.14-.8-.39-1a1.06,1.06,0,0,0,.39,1Z"/><path class="cls-5" d="M12.82,12.85c.22-.3,0-.83-.31-1a1,1,0,0,0,.31,1Z"/><path class="cls-5" d="M12.22,12.47a.85.85,0,0,0-.22-1c-.21.24,0,.75.22,1Z"/><path class="cls-5" d="M11.74,12.09a1,1,0,0,0-.3-1.08,1,1,0,0,0,.3,1.08Z"/><path class="cls-5" d="M11.36,12c.05-.39-.62-.81-.89-.8,0,.31.31.66.89.8Z"/><path class="cls-5" d="M11.73,12.43a1.29,1.29,0,0,0-1.14-.26c.06.19.78.6,1.14.26Z"/><path class="cls-5" d="M12.17,12.75c-.45-.12-.73-.21-1,.06.19.24.91.17,1-.06Z"/><path class="cls-5" d="M12.79,13a.81.81,0,0,0-1,.3,1,1,0,0,0,1-.3Z"/><path class="cls-5" d="M13.37,13.36a1,1,0,0,0-1,.26.75.75,0,0,0,1-.26Z"/><path class="cls-5" d="M13.91,13.53A1.07,1.07,0,0,0,13,14a.8.8,0,0,0,1-.47Z"/></g></g></g></g></g></svg>