<svg xmlns="http://www.w3.org/2000/svg" xmlns:xlink="http://www.w3.org/1999/xlink" viewBox="0 0 29.46 17.19"><defs><style>.cls-1{fill:none;}.cls-2{clip-path:url(#clip-path);}.cls-3{fill:#fff;}.cls-4{fill:#223e84;}.cls-5{fill:#bc0030;}.cls-6{clip-path:url(#clip-path-4);}.cls-7{clip-path:url(#clip-path-5);}.cls-8{clip-path:url(#clip-path-6);}.cls-9{clip-path:url(#clip-path-7);}.cls-10{clip-path:url(#clip-path-8);}.cls-11{clip-path:url(#clip-path-9);}.cls-12{clip-path:url(#clip-path-10);}.cls-13{fill:#f5cd28;}.cls-14{fill:#272015;}.cls-15{fill:#999396;}.cls-16{fill:#347c63;}.cls-17{fill:#1a4104;}.cls-18{fill:#1a4204;}.cls-19{fill:#c0003b;}.cls-20{clip-path:url(#clip-path-11);}.cls-21{clip-path:url(#clip-path-12);}.cls-22{clip-path:url(#clip-path-13);}.cls-23{clip-path:url(#clip-path-14);}.cls-24{clip-path:url(#clip-path-15);}</style><clipPath id="clip-path"><rect class="cls-1" width="29.46" height="17.19"/></clipPath><clipPath id="clip-path-4"><rect class="cls-1" x="16.02" y="6.44" width="0.68" height="0.75"/></clipPath><clipPath id="clip-path-5"><rect class="cls-1" x="15.81" y="6.32" width="0.76" height="0.48"/></clipPath><clipPath id="clip-path-6"><rect class="cls-1" x="15.02" y="6.15" width="1.34" height="0.56"/></clipPath><clipPath id="clip-path-7"><rect class="cls-1" x="12.76" y="6.44" width="0.68" height="0.75"/></clipPath><clipPath id="clip-path-8"><rect class="cls-1" x="12.9" y="6.31" width="0.76" height="0.48"/></clipPath><clipPath id="clip-path-9"><rect class="cls-1" x="13.11" y="6.14" width="1.34" height="0.56"/></clipPath><clipPath id="clip-path-10"><rect class="cls-1" x="14.1" y="5.92" width="1.26" height="0.44"/></clipPath><clipPath id="clip-path-11"><rect class="cls-1" x="16.02" y="10.06" width="0.73" height="0.4"/></clipPath><clipPath id="clip-path-12"><rect class="cls-1" x="15.62" y="9.95" width="0.81" height="0.3"/></clipPath><clipPath id="clip-path-13"><rect class="cls-1" x="12.72" y="10.06" width="0.73" height="0.4"/></clipPath><clipPath id="clip-path-14"><rect class="cls-1" x="13.05" y="9.95" width="0.81" height="0.3"/></clipPath><clipPath id="clip-path-15"><rect class="cls-1" x="13.39" y="9.63" width="2.68" height="0.54"/></clipPath></defs><g id="Layer_2" data-name="Layer 2"><g id="ther"><g id="thẻ_3_vùng_hiển_thị" data-name="thẻ 3 vùng hiển thị"><g id="DOMINICAN_REPUBLIC" data-name="DOMINICAN REPUBLIC"><g class="cls-2"><g class="cls-2"><rect class="cls-3" width="29.46" height="17.19"/><rect class="cls-4" width="12.63" height="6.6"/><rect class="cls-5" y="10.55" width="12.63" height="6.63"/><rect class="cls-4" x="16.84" y="10.55" width="12.63" height="6.63"/><rect class="cls-5" x="16.84" width="12.63" height="6.6"/><g class="cls-2"><path d="M16.76,7.31a.21.21,0,0,0-.09-.18s.11,0,.12.18Z"/><path d="M16.71,7.32a.21.21,0,0,0-.09-.18s.11,0,.12.18Z"/><path d="M16.66,7.33c0-.14-.08-.19-.09-.19s.11,0,.12.18Z"/><path d="M16.62,7.34a.23.23,0,0,0-.09-.18s.11,0,.12.18Z"/><path d="M16.57,7.36a.21.21,0,0,0-.09-.18s.11,0,.12.18Z"/><path d="M16.52,7.39c0-.14-.08-.19-.09-.19s.12,0,.12.19Z"/><g class="cls-6"><path class="cls-4" d="M16.7,7.12a1.57,1.57,0,0,0-.26-.55,2.47,2.47,0,0,0-.33-.13L16,6.63a1,1,0,0,1,.32.24,2.16,2.16,0,0,1,.09.33l.15-.06s.12,0,.12,0Z"/></g><path d="M16.42,7.22v0a1.87,1.87,0,0,0-.09-.32c-.05-.11-.3-.23-.3-.23l.07-.21a1.52,1.52,0,0,1,.36.12,1.62,1.62,0,0,1,.27.56s0,0-.06,0h-.07l-.16.06ZM16,6.64a.59.59,0,0,1,.31.23,1.69,1.69,0,0,1,.09.31l.14-.06h.08a1.3,1.3,0,0,0-.23-.52,1,1,0,0,0-.33-.13L16,6.64Z"/><g class="cls-7"><path class="cls-4" d="M16.57,6.8a1.26,1.26,0,0,0-.44-.08c-.1,0-.3-.07-.32-.12s.18-.28.18-.28l.13.14c.09.09.3,0,.37.16Z"/></g><path d="M16.57,6.82h0a.59.59,0,0,0-.3-.07h-.14c-.21,0-.31-.09-.32-.13s.11-.23.17-.31l.16.14a.25.25,0,0,0,.15,0,.27.27,0,0,1,.23.13l.08.17s0,0,0,0,0,0,0,0Zm-.31-.11a.77.77,0,0,1,.28.06l-.07-.14c0-.08-.11-.09-.2-.1a.28.28,0,0,1-.16-.06L16,6.33a1.15,1.15,0,0,0-.14.26s.05,0,.3.12h.13Z"/><path d="M16.26,6.72A.66.66,0,0,1,16,6.64l-.11,0c-.07,0-.09,0-.09,0s0-.06.1,0l.11.05c.07,0,.22.1.24.08l0,0Z"/><g class="cls-8"><path class="cls-4" d="M15.09,6.16a3.11,3.11,0,0,1,.73,0c.34.06.54.18.54.26a.38.38,0,0,1-.08.26s0-.06-.08-.09a5.47,5.47,0,0,0-.58-.15h-.45s-.15,0-.15-.08a.81.81,0,0,1,.07-.22Z"/></g><path d="M16.27,6.72v0s0-.05-.07-.06l-.08,0c-.14,0-.41-.12-.49-.13h-.45s-.17,0-.17-.1a1,1,0,0,1,.08-.23l.3,0a1.94,1.94,0,0,1,.44,0c.34.06.55.18.55.27a.44.44,0,0,1-.07.27Zm-.71-.28h.06c.09,0,.36.09.5.13l.08,0a.12.12,0,0,1,.09.08.45.45,0,0,0,.05-.24c0-.06-.18-.19-.52-.24a2,2,0,0,0-.44,0h-.27a.71.71,0,0,0-.08.21s.09.06.14.07h.39Z"/><path d="M15.27,6.42h0l-.08,0a.08.08,0,0,0-.07,0s0,0,0,0,0,0,0-.06a.12.12,0,0,1,.09,0l.07,0h.05v0h0l0,0Z"/><path d="M12.71,7.31h0a.26.26,0,0,1,.11-.21s-.07.08-.08.22Z"/><path d="M12.76,7.32h0a.24.24,0,0,1,.1-.2s-.07.07-.07.21Z"/><path d="M12.81,7.32h0a.22.22,0,0,1,.1-.21s-.07.07-.07.21Z"/><path d="M12.85,7.34h0a.26.26,0,0,1,.11-.21s-.07.08-.08.22Z"/><path d="M12.9,7.36h0c0-.16.1-.21.11-.21s-.07.07-.08.21Z"/><path d="M12.94,7.38h0a.22.22,0,0,1,.1-.21s-.07.07-.08.21Z"/><g class="cls-9"><path class="cls-4" d="M12.76,7.11c.17-.45.24-.51.27-.54a1.59,1.59,0,0,1,.33-.13l.08.18a.91.91,0,0,0-.31.25,1.87,1.87,0,0,0-.09.32l-.15-.06s-.13,0-.13,0Z"/></g><path d="M13.05,7.21h0l-.15-.07H12.8s-.05,0-.05,0A1.89,1.89,0,0,1,13,6.56a2,2,0,0,1,.34-.14l.11.2s-.26.14-.31.25a1.42,1.42,0,0,0-.1.32v0Zm-.2-.1h0l.14,0a1.4,1.4,0,0,1,.09-.31c.05-.12.31-.24.32-.25l-.09-.17c-.13.06-.29.12-.31.14s-.1.11-.26.54Z"/><g class="cls-10"><path class="cls-4" d="M12.9,6.79a1,1,0,0,1,.44-.07c.09,0,.29-.08.31-.13s-.17-.28-.17-.28l-.13.14c-.09.09-.3,0-.37.17Z"/></g><path d="M12.9,6.81h0v0L13,6.61c0-.1.14-.11.23-.13a.2.2,0,0,0,.14,0l.14-.15c.09.08.22.26.2.31s-.11.08-.33.13h-.13a.79.79,0,0,0-.31.07Zm.57-.49-.11.14a.29.29,0,0,1-.17.06c-.08,0-.16,0-.2.1l-.06.14a.74.74,0,0,1,.28-.06h.12c.24-.06.3-.1.31-.12a1.67,1.67,0,0,0-.17-.26Z"/><path d="M13.21,6.72a.05.05,0,0,1,0,0l0,0s.17,0,.25-.08l.11,0c.09,0,.12,0,.12,0h-.11l-.11,0a.82.82,0,0,1-.24.09Z"/><g class="cls-11"><path class="cls-4" d="M14.38,6.15a3.11,3.11,0,0,0-.73,0c-.34.06-.54.19-.54.26a.38.38,0,0,0,.08.27s0-.07.08-.09a4.43,4.43,0,0,1,.58-.16h.44c.05,0,.16,0,.16-.08a1.3,1.3,0,0,0-.07-.23Z"/></g><path d="M13.19,6.71h0a.47.47,0,0,1-.08-.27c0-.09.21-.21.56-.27a2.65,2.65,0,0,1,.44,0h.27a.58.58,0,0,1,.11.25c0,.07-.17.09-.17.09h-.45a3.1,3.1,0,0,0-.5.13l-.08,0s-.06,0-.06.07l0,0Zm.9-.56a2.76,2.76,0,0,0-.44,0c-.34.06-.53.18-.53.24a.55.55,0,0,0,.06.24.12.12,0,0,1,.09-.08l.07,0a2.86,2.86,0,0,1,.5-.13h.42c.09,0,.18,0,.18-.06a.79.79,0,0,0-.08-.22Z"/><path d="M14.2,6.42a0,0,0,0,1,0,0l0,0h0s0,0,0,0l.07,0,.09,0c.07,0,.08,0,.08.06s0,0-.08,0l-.07,0-.08,0Z"/><g class="cls-12"><path class="cls-4" d="M14.72,5.92c-.47,0-.59.08-.61.16a.89.89,0,0,0,.05.29s.08-.15.57-.15.58.14.58.14a1.74,1.74,0,0,0,.06-.29c0-.07-.2-.15-.65-.15Z"/></g><path d="M14.16,6.4v0a.71.71,0,0,1-.06-.3c0-.07.11-.15.63-.16s.66.06.66.16a.85.85,0,0,1-.06.29h0a1,1,0,0,0-.59-.12h0c-.47,0-.56.13-.56.13v0Zm.54-.19c.46,0,.59.1.62.13s0-.2,0-.27-.17-.13-.62-.13-.59,0-.61.14a.66.66,0,0,0,.05.26s.17-.13.53-.13Z"/><polygon class="cls-13" points="15.37 6.39 15.39 6.2 15.41 6.2 15.39 6.37 15.46 6.37 15.46 6.4 15.37 6.39"/><polygon class="cls-13" points="15.49 6.4 15.51 6.21 15.52 6.21 15.51 6.4 15.49 6.4"/><polygon class="cls-13" points="15.67 6.41 15.7 6.22 15.8 6.24 15.8 6.26 15.71 6.25 15.71 6.3 15.78 6.32 15.78 6.34 15.7 6.33 15.69 6.39 15.78 6.41 15.77 6.43 15.67 6.41"/><polygon class="cls-13" points="15.97 6.48 16.03 6.32 15.98 6.31 15.99 6.28 16.1 6.32 16.09 6.34 16.05 6.33 15.99 6.49 15.97 6.48"/><path class="cls-13" d="M15.56,6.38h.07v0h0Zm0-.09h.06v0h-.06Zm0,.11,0-.19h.08s0,0,0,0,0,0,0,0v0l0,0s0,0,0,0v0l0,0h-.09Z"/><path class="cls-13" d="M15.85,6.33h.08v0s0,0,0,0l0,0h0Zm0,.1.06-.18h.06l0,0v0a0,0,0,0,1,0,0l0,0h0a0,0,0,0,0,0,0v.06h0V6.37h0l0,.08Z"/><path class="cls-13" d="M16.19,6.55h.07l0,0,0,0s0,0,0,0v0h-.05Zm0,0,.06-.19.05,0h0l0,0s0,0,0,0a.06.06,0,0,1,0,0s0,0,0,0l0,0h-.11Z"/><path class="cls-13" d="M16.09,6.44l.05,0v-.1s0,0,0,0ZM16,6.51l.12-.17h0v.2h0V6.48l-.06,0,0,0Z"/><polygon class="cls-13" points="14.67 6.18 14.67 6.01 14.62 6.01 14.62 5.99 14.75 5.99 14.75 6.01 14.69 6.01 14.69 6.18 14.67 6.18"/><polygon class="cls-13" points="14.94 6.18 14.95 5.99 14.97 5.99 14.96 6.18 14.94 6.18"/><path class="cls-13" d="M14.35,6.11h.07V6h-.08Zm0,.1,0-.19h.1s0,0,0,0V6.1l0,0h0l0,.08Z"/><path class="cls-13" d="M14.51,6.1h.05l0-.06a.06.06,0,0,1,0,0,.08.08,0,0,0,0,0Zm0,.08,0-.19h0l.08.19h0l0,0H14.5v.06Z"/><path class="cls-13" d="M14.79,6.07h.08V6h-.08Zm0,.11V6h.1l0,0a0,0,0,0,1,0,0s0,0,0,0h0l0,0,0,0h0l0,0v0s0,0,0,0h-.05v.08Z"/><path class="cls-13" d="M15.06,6.12h.06V6l0,0ZM15,6.19,15.1,6h0l0,.2h0V6.15h-.07l0,.05Z"/><polygon class="cls-13" points="13.56 6.46 13.54 6.26 13.56 6.26 13.59 6.45 13.56 6.46"/><path class="cls-13" d="M13.79,6.35h0a0,0,0,0,0,0,0h.08v0h-.07l0,0s0,0,0,0v0l0,0h.06l0,0v0h0a0,0,0,0,0,0,0h0v0s0,0,0,0h.07a0,0,0,0,1,0,0v0l0,0h-.07l0,0a0,0,0,0,1,0,0Z"/><path class="cls-13" d="M13.6,6.34a.19.19,0,0,1,0-.08.06.06,0,0,1,.06,0s0,0,0,0l0,0,0,.06a.11.11,0,0,1,0,0,.05.05,0,0,1,0,0l0,0h0l0,0s0,0,0,0Zm0,0,0,0s0,0,0,0a.05.05,0,0,0,0,0,.13.13,0,0,0,0-.06s0,0,0,0,0,0,0,0h0l0,0a.15.15,0,0,0,0,.07Z"/><path class="cls-13" d="M13.42,6.48h0l0,0h0s0,0,0,0v0l0,0h-.08Zm0,0-.06-.18.05,0h.06l0,0,0,0v0a0,0,0,0,1,0,0v0l0,0h-.08Z"/><path class="cls-3" d="M13.38,6.84l.25.24V9a.35.35,0,0,0,.33.32h.41a.45.45,0,0,1,.37.2.43.43,0,0,1,.37-.2h.45A.33.33,0,0,0,15.85,9V7.08l.25-.24Z"/><path d="M14.74,9.56v0a.47.47,0,0,0-.36-.2H14A.37.37,0,0,1,13.61,9V7.08l-.24-.23,2.73,0-.24.27V9a.39.39,0,0,1-.1.23.31.31,0,0,1-.21.11h-.45a.44.44,0,0,0-.36.2v0Zm1.35-2.73-2.71,0,.26.22V9a.33.33,0,0,0,.32.3h.41a.47.47,0,0,1,.37.19.47.47,0,0,1,.36-.19h.46a.26.26,0,0,0,.18-.1.32.32,0,0,0,.1-.21V7.08l.25-.25Z"/><polygon class="cls-5" points="14.95 6.84 14.95 7.96 15.85 7.96 15.85 7.08 16.1 6.84 14.95 6.84"/><path d="M15.86,8H15V6.84H16.1l-.24.25V8Zm.23-1.14H15V8h.88V7.08l.25-.25Z"/><polygon class="cls-4" points="13.38 6.84 14.53 6.84 14.53 7.96 13.63 7.96 13.63 7.08 13.38 6.84"/><path d="M14.54,8h-.91V7.08l-.25-.24h1.16V8Zm0-1.13H13.38l.25.23V8h.88V6.84Z"/><path class="cls-5" d="M13.63,8.36h.9v1l-.08,0H14A.35.35,0,0,1,13.63,9Z"/><path d="M14.54,9.38l-.09,0H14A.36.36,0,0,1,13.62,9V8.36h.91v1Zm0-1h-.89V9a.34.34,0,0,0,.32.31h.49l.07,0v-1Z"/><path class="cls-4" d="M15.85,8.36H15v1l.08,0h.49A.35.35,0,0,0,15.85,9Z"/><path d="M14.94,9.38v-1h.91V9a.36.36,0,0,1-.34.33H15l-.09,0Zm.9-1H15v1l.06,0h.5A.34.34,0,0,0,15.84,9V8.36Z"/><path d="M14.74,9.56v0a.47.47,0,0,0-.36-.2H14A.37.37,0,0,1,13.61,9V7.08l-.24-.23,2.73,0-.24.27V9a.39.39,0,0,1-.1.23.31.31,0,0,1-.21.11h-.45a.44.44,0,0,0-.36.2v0Zm1.35-2.73-2.71,0,.26.22V9a.33.33,0,0,0,.32.3h.41a.47.47,0,0,1,.37.19.47.47,0,0,1,.36-.19h.46a.26.26,0,0,0,.18-.1.32.32,0,0,0,.1-.21V7.08l.25-.25Z"/><polygon class="cls-13" points="14.7 7.48 14.7 7.8 14.78 7.8 14.78 7.48 14.86 7.48 14.86 7.4 14.78 7.4 14.78 7.32 14.7 7.32 14.7 7.4 14.62 7.4 14.62 7.48 14.7 7.48"/><path d="M14.8,7.82h-.1l0-.34h-.06l0-.09.1,0,0-.06.1,0,0,.1.06,0,0,.1h-.1l0,.33Zm-.1-.36V7.8h.06V7.48l.09,0V7.4h-.07V7.32H14.7V7.4h-.09v.07l.07,0Z"/><polygon class="cls-14" points="14.77 7.89 14.11 7.03 14.15 6.99 14.81 7.86 14.77 7.89 14.77 7.89"/><polygon class="cls-13" points="14.11 7.03 14.04 6.88 14.17 6.99 14.11 7.03"/><path class="cls-5" d="M14.48,7.66s-.09.33-.09.33a1.14,1.14,0,0,0,.26,0s0-.22-.05-.23-.12-.1-.12-.12Z"/><path class="cls-3" d="M14.26,7.44l0,.43s.3.26.3.23,0-.44,0-.44Z"/><path class="cls-4" d="M14,7.17v.48a2.14,2.14,0,0,0,.26.19l0-.38Z"/><polygon points="14.01 7.58 13.99 7.17 14.02 7.17 14.01 7.58 14.01 7.58"/><polygon class="cls-14" points="14.73 7.92 13.96 7.15 14 7.11 14.77 7.88 14.73 7.92 14.73 7.92"/><polygon class="cls-13" points="13.96 7.15 13.87 7.02 14.01 7.11 13.96 7.15"/><path class="cls-3" d="M13.87,7.32v1.2a.44.44,0,0,0,.42.41c.16,0,.41-.08.41-.08V8Z"/><path d="M14.27,8.94a.45.45,0,0,1-.41-.42V7.32l.85.63v.9a1.84,1.84,0,0,1-.42.09Zm-.41-1.61,0,1.19a.41.41,0,0,0,.38.39v0l0,0a2.36,2.36,0,0,0,.4-.08V8l-.82-.63Z"/><path class="cls-5" d="M13.87,8.28v.24a.44.44,0,0,0,.42.41c.16,0,.41-.08.41-.08-.17-.09-.58.16-.58-.49a.32.32,0,0,1-.25-.08Z"/><path class="cls-4" d="M14.13,7.51V8.2a.81.81,0,0,1-.25-.08v-.8Z"/><path class="cls-5" d="M14.36,7.71v.53a.33.33,0,0,1,.16,0l.18.08V8Z"/><path class="cls-4" d="M14.68,8.53a1,1,0,0,0-.23-.1h-.1s0,.09,0,.13.08.08.11.08l.23,0Z"/><path d="M14.27,8.94a.45.45,0,0,1-.41-.42V7.32l.85.63v.9a1.84,1.84,0,0,1-.42.09Zm-.41-1.61,0,1.19a.41.41,0,0,0,.38.39v0l0,0a2.36,2.36,0,0,0,.4-.08V8l-.82-.63Z"/><polygon class="cls-14" points="14.69 7.98 13.83 7.3 13.87 7.26 14.72 7.94 14.69 7.98 14.69 7.98"/><polygon class="cls-13" points="13.83 7.3 13.72 7.18 13.88 7.25 13.83 7.3"/><polygon class="cls-14" points="14.72 7.88 14.68 7.85 15.34 6.98 15.38 7.01 14.72 7.88 14.72 7.88"/><polygon class="cls-13" points="15.39 7.01 15.46 6.87 15.32 6.98 15.39 7.01"/><path class="cls-5" d="M15,7.64s.08.33.08.33l-.26,0s0-.22.05-.24A.74.74,0,0,0,15,7.64Z"/><path class="cls-3" d="M15.23,7.42l0,.44s-.3.26-.29.22,0-.44,0-.44Z"/><path class="cls-4" d="M15.48,7.16v.48a2.14,2.14,0,0,1-.26.19s0-.39,0-.39Z"/><polygon points="15.51 7.56 15.47 7.15 15.5 7.15 15.51 7.56 15.51 7.56"/><polygon class="cls-14" points="14.76 7.91 14.72 7.87 15.49 7.1 15.53 7.14 14.76 7.91 14.76 7.91"/><polygon class="cls-13" points="15.54 7.14 15.63 7 15.48 7.09 15.54 7.14"/><path class="cls-3" d="M15.62,7.3V8.51a.43.43,0,0,1-.41.4,2.53,2.53,0,0,1-.42-.08V8Z"/><path d="M15.22,8.93h0a2.18,2.18,0,0,1-.42-.09V8l.83-.66,0,1.22a.44.44,0,0,1-.41.42Zm-.41-.1s.25.06.4.07h0a.41.41,0,0,0,.38-.39V7.3L14.8,8v.87Z"/><path class="cls-5" d="M15.62,8.27v.24a.43.43,0,0,1-.41.4,2.53,2.53,0,0,1-.42-.08c.17-.08.58.16.58-.48a.31.31,0,0,0,.25-.08Z"/><path class="cls-4" d="M15.36,7.49v.7a1,1,0,0,0,.25-.08V7.3Z"/><path class="cls-5" d="M15.13,7.69v.54a.3.3,0,0,0-.15,0l-.19.07V8Z"/><path class="cls-4" d="M14.81,8.51A1.38,1.38,0,0,1,15,8.42h.1s0,.08,0,.13-.08.07-.1.07l-.24,0Z"/><path d="M15.22,8.93h0a2.18,2.18,0,0,1-.42-.09V8l.83-.66,0,1.22a.44.44,0,0,1-.41.42Zm-.41-.1s.25.06.4.07h0a.41.41,0,0,0,.38-.39V7.3L14.8,8v.87Z"/><polygon class="cls-14" points="14.8 7.97 14.77 7.92 15.62 7.24 15.66 7.29 14.8 7.97 14.8 7.97"/><polygon class="cls-13" points="15.66 7.29 15.77 7.16 15.61 7.24 15.66 7.29"/><path class="cls-5" d="M14.88,8.8s.09.11.11.09,0-.19-.07-.27a1.18,1.18,0,0,1-.07-.32c0-.13-.09,0-.09,0Z"/><path d="M15,8.91s-.06,0-.1-.09l-.13-.5s0-.09.08-.09,0,.06,0,.07a.71.71,0,0,0,.05.23l0,.08,0,.1c0,.12,0,.17,0,.19Zm-.15-.65s0,0-.05.06l.12.48.08.08a.73.73,0,0,0,0-.16l0-.1,0-.08a.72.72,0,0,1-.05-.24v0Z"/><path class="cls-5" d="M14.81,9.06H15a3,3,0,0,1-.06-.33c0-.12-.15-.49-.15-.49Z"/><path d="M15,9.08h-.18l-.07-.83a1.36,1.36,0,0,1,.18.49c0,.12.07.33.07.33Zm-.24-.82.08.8H15c0-.06,0-.22-.06-.32a3.37,3.37,0,0,0-.14-.48Z"/><path class="cls-3" d="M14.7,8.22a1.53,1.53,0,0,0-.22.53.54.54,0,0,0,.14.34l.12.24a1.34,1.34,0,0,0,.12-.28c0-.08,0-.41,0-.54A4,4,0,0,1,15,8.08Z"/><path d="M14.74,9.36v0s-.09-.18-.13-.24l0,0a.56.56,0,0,1-.12-.32,1.36,1.36,0,0,1,.22-.53l.26-.16s-.08.33-.09.45a1.83,1.83,0,0,0,0,.32.91.91,0,0,1,0,.22,1.2,1.2,0,0,1-.12.29v0Zm.19-1.29-.22.16a1.3,1.3,0,0,0-.22.52.52.52,0,0,0,.11.3l0,0,.11.22a.87.87,0,0,0,.1-.25.91.91,0,0,0,0-.22,1.81,1.81,0,0,1,0-.32,3.4,3.4,0,0,1,.11-.44Z"/><path class="cls-4" d="M14.7,8.22a1.53,1.53,0,0,0-.22.53.54.54,0,0,0,.14.34c0-.11,0-.22,0-.36a.92.92,0,0,1,.27-.61Z"/><path class="cls-5" d="M14.79,8.12a2.76,2.76,0,0,0-.09.43c0,.09,0,.3.05.47a1.65,1.65,0,0,1,0,.31,1.34,1.34,0,0,0,.12-.28c0-.08,0-.41,0-.54A4,4,0,0,1,15,8.08Z"/><path d="M14.74,9.36v0s-.09-.18-.13-.24l0,0a.56.56,0,0,1-.12-.32,1.36,1.36,0,0,1,.22-.53l.26-.16s-.08.33-.09.45a1.83,1.83,0,0,0,0,.32.91.91,0,0,1,0,.22,1.2,1.2,0,0,1-.12.29v0Zm.19-1.29-.22.16a1.3,1.3,0,0,0-.22.52.52.52,0,0,0,.11.3l0,0,.11.22a.87.87,0,0,0,.1-.25.91.91,0,0,0,0-.22,1.81,1.81,0,0,1,0-.32,3.4,3.4,0,0,1,.11-.44Z"/><path class="cls-5" d="M14.67,8.14c-.05,0,0,.14,0,.14a.16.16,0,0,1,.11,0c.07,0,.11.11.11.11a.12.12,0,0,0,.05-.1c0-.07-.14-.14-.25-.11Z"/><path d="M14.87,8.37h0s0-.1-.1-.1h0a.14.14,0,0,0-.1,0,.12.12,0,0,1,0-.16.24.24,0,0,1,.26.06.14.14,0,0,1,0,.06.18.18,0,0,1-.06.11Zm-.12-.14a.16.16,0,0,1,.13.1.15.15,0,0,0,0-.08.05.05,0,0,0,0,0,.25.25,0,0,0-.22-.06.11.11,0,0,0,0,.11.13.13,0,0,1,.09,0Z"/><path d="M14.51,7.87l.14.36.11,0h.09l.1,0h.1v0a4.53,4.53,0,0,0-.54-.27Z"/><path d="M14.65,8.25l-.15-.38v0h0a3.22,3.22,0,0,1,.56.27h0l0,0-.11,0-.09,0h-.1l-.1,0Zm-.13-.4.14.36.09,0h.1l.09-.05h.11a5.8,5.8,0,0,0-.53-.26Z"/><path class="cls-3" d="M14.52,7.83l.14.37.11,0a.16.16,0,0,1,.09,0l.1,0a.27.27,0,0,1,.1,0l-.14-.4a.27.27,0,0,0-.1,0,.26.26,0,0,0-.09.06.22.22,0,0,0-.11,0,.19.19,0,0,0-.1,0Z"/><path d="M14.66,8.22l-.15-.38s.07-.06.1-.08h.11a.26.26,0,0,1,.09-.06l.11,0,.16.42s-.08,0-.12,0l-.09.05h-.1l-.1,0Zm.25-.52-.09,0-.08.06h-.12l-.09,0,.14.34.09,0a.19.19,0,0,1,.1,0L15,8.09h.11l-.15-.38Z"/><polygon class="cls-15" points="14.88 8.15 14.72 7.77 14.74 7.77 14.88 8.15 14.88 8.15"/><path class="cls-15" d="M14.55,7.86h0a.34.34,0,0,1,.2-.06.62.62,0,0,0-.19.07Z"/><path class="cls-15" d="M14.56,7.91v0a.3.3,0,0,1,.21,0,.43.43,0,0,0-.2.07Z"/><path class="cls-15" d="M14.58,8v0a.28.28,0,0,1,.2-.05.4.4,0,0,0-.19.07Z"/><path class="cls-15" d="M14.59,8h0a.26.26,0,0,1,.21-.06.43.43,0,0,0-.2.07Z"/><path class="cls-15" d="M14.62,8.06h0a.25.25,0,0,1,.2-.06.44.44,0,0,0-.19.07Z"/><path class="cls-15" d="M14.63,8.11h0A.31.31,0,0,1,14.83,8a.43.43,0,0,0-.2.07Z"/><path class="cls-15" d="M14.66,8.16l0,0a.3.3,0,0,1,.21-.05.36.36,0,0,0-.19.07Z"/><path class="cls-15" d="M14.75,7.81h0a.26.26,0,0,1,.19-.08.44.44,0,0,0-.18.09Z"/><path class="cls-15" d="M14.77,7.87l0,0a.32.32,0,0,1,.19-.07.28.28,0,0,0-.17.09Z"/><path class="cls-15" d="M14.78,7.91v0A.33.33,0,0,1,15,7.81a.35.35,0,0,0-.18.1Z"/><path class="cls-15" d="M14.8,8h0A.26.26,0,0,1,15,7.87.44.44,0,0,0,14.8,8Z"/><path class="cls-15" d="M14.81,8h0A.26.26,0,0,1,15,7.92a.51.51,0,0,0-.18.09Z"/><path class="cls-15" d="M14.84,8.05h0A.33.33,0,0,1,15,8a.46.46,0,0,0-.17.09Z"/><path class="cls-15" d="M14.86,8.1h0A.27.27,0,0,1,15,8a.46.46,0,0,0-.17.09Z"/><path d="M14.66,8.22l-.15-.38s.07-.06.1-.08h.11a.26.26,0,0,1,.09-.06l.11,0,.16.42s-.08,0-.12,0l-.09.05h-.1l-.1,0Zm.25-.52-.09,0-.08.06h-.12l-.09,0,.14.34.09,0a.19.19,0,0,1,.1,0L15,8.09h.11l-.15-.38Z"/><path class="cls-16" d="M14.26,10.38a1.83,1.83,0,0,0,.33-.23c.11-.09.21-.22.33-.33s.18-.09.24-.22a.74.74,0,0,0,0-.33s.05,0,.08.09.06-.16.06-.11a.64.64,0,0,0,0,.2s.1-.22.1-.22,0,.26,0,.23a1.42,1.42,0,0,1,.11-.16v.16a.78.78,0,0,0,.09-.2s.06.12.08.09,0-.21.07-.19.05.11.05.11a3.35,3.35,0,0,1,0-.55l.09,0V8.54l.09.28a1.09,1.09,0,0,0,0-.26,1.65,1.65,0,0,1,0-.17,1.56,1.56,0,0,1,.12.17,1,1,0,0,0-.1-.28s-.11.11-.09.1.07-.22.1-.22.09.15.08.13L16,8l.08.15a.31.31,0,0,0,0-.14.49.49,0,0,1,0-.12l.05.06a1.07,1.07,0,0,1,0-.18l.05.11.05.08V7.85l0,0s-.11-.23-.16-.24-.12.07-.12.07.09-.15.12-.15h0l0-.16s.2.27.19.23-.09-.22-.1-.29,0-.18,0-.18l.09.12s.08.15.08.13,0-.24,0-.24l.1.21.09-.25,0,.24s0-.12,0-.17,0,0,0,0,0,.2,0,.22,0,.12,0,.12l.11-.22s.1-.07.1-.07l-.05.12s-.12.25-.1.25.1-.12.15-.12.14.13.12.14-.1,0-.13,0-.27.26-.23.25a1,1,0,0,0,.18-.16s0,.12,0,.11l.17-.09s-.22.19-.19.19a.77.77,0,0,0,.15-.06L16.67,8a.59.59,0,0,1,.16-.08A.39.39,0,0,1,17,8h-.17s-.17.23-.13.21a.69.69,0,0,0,.12-.11l-.05.13.21-.13-.29.3s.2-.16.23-.15a1.35,1.35,0,0,1,.17.17l-.2-.09a1.56,1.56,0,0,0-.25.32,1.07,1.07,0,0,1,.22-.1s.11.17.09.17l-.13,0s-.25.13-.25.13l.22,0a1.11,1.11,0,0,0,.19,0l.15-.05-.18.12a.54.54,0,0,1-.16.06l.19,0-.32.1a.91.91,0,0,0-.14.07h.21l.23,0-.28,0a.15.15,0,0,0-.07,0l.27,0-.18,0,.16.06.12.07-.28-.05h-.12l.13,0a.07.07,0,0,1,0,0h-.13l.12.07.06,0-.2,0,.17.13-.21,0h0l.1.1,0,.06-.12,0-.1,0,.08.09-.14,0,.08.12-.15,0s.07,0,.07.07,0,.16-.05.14,0-.09,0-.12l-.05-.05a.29.29,0,0,0-.1,0,1.5,1.5,0,0,0,.13.11l-.19,0s.18.08.15.08l-1-.07c-.06,0-.35.32-.41.35s-.19.19-.25.2a.62.62,0,0,0-.14,0Z"/><path class="cls-17" d="M14.37,10.46l-.12-.06s.23-.17.33-.26l.18-.18.15-.15.12-.1a.17.17,0,0,0,.11-.12.36.36,0,0,0,0-.22v-.1c.06,0,.08,0,.1.07l0-.05s0-.06,0-.06a1.17,1.17,0,0,1,0,.21.93.93,0,0,1,.08-.22h0v0a1.08,1.08,0,0,1,0,.18.43.43,0,0,1,.08-.14l0,.15a1.89,1.89,0,0,0,.06-.18s.05,0,.07,0l0,0a.45.45,0,0,1,0-.08c0-.07,0-.11.05-.11s.07.1.07.12a1.85,1.85,0,0,1,0-.56l.12,0,0-.2a.78.78,0,0,1,.09.2c0-.06,0-.15,0-.18a1.2,1.2,0,0,1,0-.17s.09.08.13.13a1.78,1.78,0,0,1-.1-.23s0,0-.06.07a.08.08,0,0,1,0-.08c0-.1,0-.14.07-.14s.09.13.09.14h0S16,8.18,16,8.17a.55.55,0,0,0,0,.12h0l0,0c.05,0,.12.29.12.29s-.08-.08-.12-.12a.49.49,0,0,1,0,.11,1.49,1.49,0,0,1,0,.28,1.5,1.5,0,0,1-.12-.29l0,.21H15.8s0,.29,0,.53c0,0-.05-.08-.07-.09a.41.41,0,0,0,0,.09.22.22,0,0,1,0,.08s0,0-.07,0a.08.08,0,0,1,0,0,.43.43,0,0,1-.08.2h0l0-.15c0,.06-.08.15-.08.17s0,0,0-.16l-.06.15s0,0,0-.15c0,.06,0,.07,0,.07s-.06-.09-.09-.09a.11.11,0,0,1,0,.08.4.4,0,0,1,0,.23.26.26,0,0,1-.13.14l-.11.09-.15.15a1,1,0,0,1-.18.18,3.74,3.74,0,0,1-.33.24l.1,0,.13,0a.54.54,0,0,0,.14-.11l.11-.09a.66.66,0,0,0,.16-.15c.13-.13.22-.21.26-.21l.65,0,.35,0L16,9.84h.17l0,0-.07-.06a.22.22,0,0,1,.12,0l.05.06a.24.24,0,0,1,0,.07.08.08,0,0,0,0,0s0-.11,0-.13,0,0-.06-.06h.16l-.1-.09h.17l-.1-.07s.08,0,.12,0l.09,0,0,0a.9.9,0,0,0-.1-.09l0,0h.07l.21,0-.17-.1h.14l-.12-.08h.1l0,0a.35.35,0,0,0-.12,0s.07,0,.12,0l.21,0-.05,0-.16-.05h0l.16,0h-.27s0-.06.07-.06l.2,0-.15,0h-.2V9h0L16.61,9l.32-.11h0s-.25.11-.32.13l-.08,0h.15l.23,0s-.25.07-.28.07l-.06,0h.26l-.15,0,.13,0a.49.49,0,0,1,.13.08,1.85,1.85,0,0,1-.29,0h0s0,0,.06,0h-.15a.32.32,0,0,1,.13.05l.06,0h-.21l.18.1a1.28,1.28,0,0,1-.21,0,.31.31,0,0,1,.09.07l0,.07s-.1,0-.14,0l-.11,0,.11.07h-.17l.1.09-.11,0a.05.05,0,0,1,0,.05s0,.16-.06.16,0-.05,0-.08a.14.14,0,0,1,0-.06l-.05,0h0l0,0,0,0,.07.06h-.2c.17.05.17.06.17.07a1.87,1.87,0,0,1-.4,0l-.65-.05a1.06,1.06,0,0,0-.24.2.82.82,0,0,1-.16.15l-.11.09a.45.45,0,0,1-.15.12l-.14,0Zm2.38-1.61s.1,0,.15-.09l.07,0,0,0h-.19l-.21,0h0l0,0a.7.7,0,0,1,.22-.14l.07,0,.06,0s-.07-.14-.09-.14a1.08,1.08,0,0,0-.18.07l0,0s.2-.34.24-.34l.2.08c-.08,0-.16-.13-.17-.13a1,1,0,0,0-.22.14h0a.19.19,0,0,1,.06-.07l.21-.25-.19.15,0-.11a.26.26,0,0,1-.09.09s.09-.22.11-.23h0L16.68,8h0l0,0,.09-.14a.31.31,0,0,1-.12,0s0,0,.08-.13l-.05,0s0,0,0-.09-.11.13-.14.13.19-.27.22-.27l.07,0,.05,0s-.07-.11-.11-.11a.18.18,0,0,0-.09.07s0,0-.06,0,0,0,.06-.2,0-.06,0-.06a.3.3,0,0,1,0-.1l-.07.06s-.1.22-.1.22,0-.11,0-.13a1.64,1.64,0,0,1,0-.2,0,0,0,0,0,0,0,1.66,1.66,0,0,1,0,.16h0a0,0,0,0,1,0,0l-.07-.21-.06.25-.11-.18a.9.9,0,0,1,0,.21s0,0-.07-.07l0,0-.05-.07a.5.5,0,0,1,0,.12s0,.13.07.2a.27.27,0,0,1,0,.08s0,0-.21-.21l.06.15h-.06a.25.25,0,0,0,0,.07l0,0c.07,0,.16.2.18.26l-.07,0h0v0l.07,0a2.58,2.58,0,0,0-.17-.22h0a.15.15,0,0,0-.1.07h0s0,0,0-.05.07-.12.09-.12h0l0-.15a1.36,1.36,0,0,1,.17.18l0,0a1.15,1.15,0,0,1-.06-.21c0-.06,0-.18,0-.18h0s0,0,0,0l.09.08a.16.16,0,0,1,0,.06l0,.06a1.12,1.12,0,0,1,0-.22h0v0l.11.18.06-.25.07.22a.7.7,0,0,1,0-.14c0-.06.05-.06.05-.06a1,1,0,0,1,0,.24.08.08,0,0,1,0,0s.06-.12.07-.14.1-.08.1-.08,0,.11,0,.14,0,0,0,.06l-.07.14h0s.07-.08.11-.08.13.1.14.13l0,0a.08.08,0,0,1-.06,0l-.06,0a1.26,1.26,0,0,0-.22.24l.16-.17a.31.31,0,0,1,0,.12,1.12,1.12,0,0,1,.15-.11h0l0,0c-.06.08-.13.14-.14.16s.09,0,.13-.07h0L16.71,8a.23.23,0,0,1,.12-.06.49.49,0,0,1,.13,0h0L16.8,8a.75.75,0,0,0-.13.18l.1-.11h0v0l0,.1.19-.14-.21.25a.43.43,0,0,1,.16-.1s.14.13.18.17l-.21-.06a3,3,0,0,0-.22.27.77.77,0,0,1,.19-.08c.05,0,.11.15.11.18a.08.08,0,0,1-.09,0l-.06,0-.18.1.15,0h.18l.15-.06s-.1.1-.16.15a.43.43,0,0,1-.17.06ZM16,8.26,16,8l.09.11A.38.38,0,0,0,16,8a.66.66,0,0,1,0-.13s0,0,0,0a.38.38,0,0,1,0-.15s.07.09.08.11l0,.06v0s-.07,0-.08-.07l-.05-.11a.6.6,0,0,1,0,.16s0,0,0,0l0,.07a.31.31,0,0,1,0,.14L16,8l.08.29Z"/><path class="cls-17" d="M15.19,9.68l0,0,.14-.16,0-.06s0,0,0,.07l-.14.17Z"/><path class="cls-17" d="M15.25,9.7l0,0a.51.51,0,0,0,.16-.23s0,.19-.14.26Z"/><path class="cls-17" d="M15.43,9.63l0,0a.37.37,0,0,0,.09-.16s0,.14-.07.18Z"/><path class="cls-17" d="M15.46,9.71l0,0a.47.47,0,0,0,.18-.37.38.38,0,0,1-.16.4Z"/><path class="cls-17" d="M15.58,9.71l0,0a.77.77,0,0,0,.19-.49.59.59,0,0,1-.16.51Z"/><path class="cls-17" d="M15.64,9.74l0,0c.15-.07.15-.44.15-.48l0,0c0,.09,0,.45-.16.53Z"/><path class="cls-17" d="M15.87,9.48a1.13,1.13,0,0,0-.07-.39.6.6,0,0,1,.1.39Z"/><path class="cls-17" d="M16,9.4h0A.9.9,0,0,0,15.84,9s.12.15.12.41Z"/><path class="cls-17" d="M16,9.38h0c.05-.55-.06-.61-.06-.61s.15,0,.09.61Z"/><path class="cls-17" d="M16.06,9.14h0a.56.56,0,0,0,0-.33s.09.08.07.33Z"/><path class="cls-17" d="M16.14,9h0a.82.82,0,0,0-.08-.4h0a.53.53,0,0,1,.11.41Z"/><path class="cls-17" d="M16.14,9.3v0c.22-.15.37-.21.43-.19a1.84,1.84,0,0,0-.42.21Z"/><path class="cls-17" d="M16,9.51v0c.44-.3.53-.24.54-.23a1.13,1.13,0,0,0-.53.26Z"/><path class="cls-17" d="M16.57,9.41a1.5,1.5,0,0,0-.3,0v0c.18,0,.29,0,.31,0Z"/><path class="cls-17" d="M16.4,9.58a.65.65,0,0,0-.23,0v0c.13,0,.22,0,.25,0Z"/><path class="cls-17" d="M16.29,8.75l0,0c.3-.34.36-.37.37-.37s-.06.06-.35.39Z"/><path class="cls-17" d="M16.28,8.84l0,0,.34-.23s0,.05-.32.26Z"/><path class="cls-17" d="M16.25,9l0,0c.23-.22.33-.23.33-.23s-.09,0-.31.25Z"/><path class="cls-17" d="M16.25,9.1l0,0c.39-.31.56-.25.57-.25a1,1,0,0,0-.55.27Z"/><path class="cls-17" d="M16.19,9.19l0,0a1.25,1.25,0,0,1,.3-.15l0,0a1.35,1.35,0,0,0-.32.15Z"/><path class="cls-17" d="M16.39,7.94c-.08-.36-.12-.51-.12-.52s.07.15.15.51Z"/><path class="cls-17" d="M16.44,7.94s0-.16,0-.2a.76.76,0,0,0-.09-.35h0a.73.73,0,0,1,.1.37s0,.19,0,.19Z"/><path class="cls-17" d="M16.51,7.55s-.05-.06,0-.24h0a.66.66,0,0,0,0,.23Z"/><path class="cls-17" d="M16.49,7.75h0a1.36,1.36,0,0,0,.1-.26s0,.19-.08.27Z"/><path class="cls-17" d="M16.38,8.16l.08-.2.16-.38h0c0,.11-.1.27-.15.38l-.07.17,0,0Z"/><path class="cls-17" d="M16.39,8.37l0,0a2.14,2.14,0,0,1,.31-.51s-.06.09-.28.53Z"/><path class="cls-17" d="M16.4,8.44l0,0A3,3,0,0,0,16.67,8s0,.11-.27.47Z"/><path class="cls-17" d="M16.35,8.6l0,0a1.68,1.68,0,0,1,.41-.42s-.1.08-.39.44Z"/><path class="cls-17" d="M16.18,8.8A1.17,1.17,0,0,0,16,8.29s.16.17.2.5Z"/><path class="cls-17" d="M16.23,8.62a3.42,3.42,0,0,0-.19-.5l0,0a1.23,1.23,0,0,1,.17.52Z"/><path class="cls-17" d="M16.26,8.49a1.49,1.49,0,0,0-.2-.58l0,0a.89.89,0,0,1,.18.6Z"/><path class="cls-17" d="M16.3,8.6a1.45,1.45,0,0,0-.14-.68h0a1,1,0,0,1,.12.69Z"/><path class="cls-17" d="M16.35,8.33s0-.14-.13-.43h0a1.08,1.08,0,0,1,.11.44Z"/><path class="cls-17" d="M16.38,8.06a.79.79,0,0,0-.3-.48l0,0c.35.32.28.5.28.5Z"/><path class="cls-17" d="M16.08,9.42s0-.13,0-.18a.23.23,0,0,1,0-.07L16,9.36h0L16.13,9h0v0a1,1,0,0,1,0,.18s-.05.17-.05.18Z"/><path class="cls-17" d="M16.26,9.71a1.16,1.16,0,0,0-.49-.09v0a.8.8,0,0,1,.5.12Z"/><path class="cls-17" d="M16.09,9.74l-.35,0v0a2.46,2.46,0,0,1,.39.06Z"/><path class="cls-17" d="M16.34,9.65c-.06,0-.39-.12-.5-.13v0a2.59,2.59,0,0,1,.51.16Z"/><path class="cls-18" d="M15.25,9.55s0,0,0-.07a.32.32,0,0,0,0-.13h0a.37.37,0,0,1,0,.14l0,.06Z"/><path class="cls-16" d="M15.1,10.45c-.32-.16-.66-.6-.74-.62s-.86.11-.85.09a.78.78,0,0,1,.06-.19c0-.06.13-.12.12-.12h-.22s-.09.11-.12.12-.2,0-.24,0a.48.48,0,0,0-.1.09.87.87,0,0,1,0-.1.24.24,0,0,1,0-.07h-.16s0-.05.06-.09A.27.27,0,0,1,13,9.53l.1,0-.09,0,.11-.05.11,0s-.06-.07-.06-.1-.07.11-.12.12a.76.76,0,0,1-.21,0c-.05,0-.12.08-.12.08a.75.75,0,0,1,0-.11l0,0H12.7a.7.7,0,0,1,0-.12l0-.08-.07-.07,0-.11h.16a.59.59,0,0,1,.13.05.29.29,0,0,1,0-.08s0-.07,0-.07L13,9s0-.13-.08-.16-.24-.07-.28-.12-.08-.23-.1-.27a.15.15,0,0,0-.06-.06h.12a.71.71,0,0,1,0-.12.28.28,0,0,1,0-.11s.05.09.08.09.08,0,.08,0v0l.09.11a.51.51,0,0,1,0-.09l0,0a.41.41,0,0,0,0,.07.58.58,0,0,1,.05.14s0,.26,0,.28a1.82,1.82,0,0,0,.08.19V8.7s-.05-.13,0-.17a.81.81,0,0,0,0-.09s0,.08,0,.08.06.09.06.09l.05-.09a.9.9,0,0,1-.14-.14c0-.05,0-.14,0-.14a.57.57,0,0,1-.12-.07s-.15-.23-.15-.23h0a.62.62,0,0,1,0-.14s0-.13,0-.13l.05,0s.07,0,.07,0a1,1,0,0,1-.09-.27.61.61,0,0,1,.11-.23l.06.09.12-.17a.46.46,0,0,1,.05.1v.1h.09s.05,0,.05,0a.19.19,0,0,0-.08.05s0,.11-.06.12a.42.42,0,0,0-.14.09s0,.15,0,.15.08.1.08.14a1.05,1.05,0,0,1,0,.13s0,0,.06,0A.1.1,0,0,0,13.19,8s-.09-.1-.1-.13a2.27,2.27,0,0,1,0-.28l.11.07a.49.49,0,0,0,.08-.1.82.82,0,0,0,0-.14l.05.15a.28.28,0,0,1,.08-.08l.11,0a.62.62,0,0,0,0,.1,1.45,1.45,0,0,1,0,.29,1.52,1.52,0,0,1-.22.22s0,.13,0,.13l.14-.13,0,.1v.08l.1,0s.07,0,.07,0l0,.08s-.07.15-.09.17l-.17.09s-.12.14-.15.19a.28.28,0,0,0,0,.13.46.46,0,0,1,.08-.16,1.11,1.11,0,0,0,.12-.13l0,.11.11-.07.18,0s-.1.09-.1.11a.37.37,0,0,1-.05.16L13.29,9s0,.07,0,.09a.12.12,0,0,0,0,.05.28.28,0,0,1,.05-.08.12.12,0,0,0,0-.09.38.38,0,0,1,.08.09,1.61,1.61,0,0,1,0,.22.65.65,0,0,0,0,.14l.1.09s-.09-.18-.07-.27a.5.5,0,0,1,.09-.18.51.51,0,0,0,0-.09.38.38,0,0,1,.08.11A.23.23,0,0,1,13.71,9a.84.84,0,0,1,.08.19.44.44,0,0,1,.08-.11.36.36,0,0,1,.06.2.27.27,0,0,1-.1.15l-.08,0,.13,0a.22.22,0,0,1,.08,0l-.17.05s.2,0,.2,0a.37.37,0,0,0,0-.13.65.65,0,0,1,0-.1l.1,0h.08s-.06-.13,0-.13.21.17.21.14a1.05,1.05,0,0,1,.08-.18l.08.16a.38.38,0,0,1,0,.12.28.28,0,0,1,0,.12,1.3,1.3,0,0,0,.17.22,2.45,2.45,0,0,0,.43.42l.19.1Z"/><path class="cls-17" d="M15.11,10.46h0a2.8,2.8,0,0,1-.57-.46.66.66,0,0,0-.17-.16l-.51.05a2.22,2.22,0,0,1-.33,0h0v0a.64.64,0,0,1,.05-.17.43.43,0,0,1,.1-.09,1.2,1.2,0,0,0-.19,0,.34.34,0,0,1-.12.12l-.1,0-.13,0a.48.48,0,0,0-.1.09s0-.09,0-.11a.11.11,0,0,1,0-.06h0a.31.31,0,0,1,0,.07.29.29,0,0,0,0,.09s.05-.07.09-.08a.34.34,0,0,1,.14,0l.09,0a.41.41,0,0,0,.12-.11h.23l0,0a.76.76,0,0,0-.09.09.64.64,0,0,0-.06.16.69.69,0,0,0,.32,0l.5-.06a.57.57,0,0,1,.21.16,2.45,2.45,0,0,0,.55.46l.08-.1-.06,0L15,10.25a1.57,1.57,0,0,1-.35-.32l-.09-.09a1.46,1.46,0,0,1-.17-.22s0-.08,0-.13a.35.35,0,0,0,0-.12l-.07-.15a1.56,1.56,0,0,0-.07.17s-.06,0-.14-.08l-.08-.05s0,0,0,.06,0,0,0,.06H14s0,0,0,.07a.36.36,0,0,1,0,.14h0l-.17,0h0l.13-.06h-.06l-.13,0s0,0,.08-.06a.27.27,0,0,0,.09-.15.38.38,0,0,0-.06-.19.34.34,0,0,1-.07.11S13.72,9,13.71,9l-.06.06L13.57,9l0,.07s0,0,0,0a.5.5,0,0,0,0,.13.5.5,0,0,0,0,.21.17.17,0,0,1,0,.07s-.1-.08-.11-.09a.26.26,0,0,1,0-.15,1.55,1.55,0,0,0,0-.22L13.36,9a.12.12,0,0,1,0,.08.19.19,0,0,0-.05.08.07.07,0,0,1,0-.06s0-.08,0-.09l.23-.15s.05-.13.05-.15.07-.09.11-.12l-.18.06-.11.07,0-.11-.11.13a.36.36,0,0,0-.08.15s0-.09,0-.14l.1-.12.06-.06s0,0,.09-.06l.07,0s0-.06,0-.09,0-.07,0-.08l0-.07s0,0,0,0l-.11,0s0,0,0-.07,0-.1,0-.1l-.13.12a.28.28,0,0,1,0-.13l.22-.22a1,1,0,0,0,0-.28s0-.08,0-.1l-.09,0s-.06.06-.07.08l-.06-.14a.27.27,0,0,1,0,.12s-.08.1-.08.11l-.13-.07c0,.06,0,.24,0,.26s0,0,.05.08,0,0,0,.06,0,0,0,.05l0,0a.1.1,0,0,1-.08,0,1.05,1.05,0,0,0,0-.13A.35.35,0,0,0,13,7.81a1.54,1.54,0,0,1,0-.17l.14-.09s0,0,0-.06a.16.16,0,0,1,0-.06l.09,0s0,0-.05,0h-.09V7.26l-.05-.09-.1.17-.07-.09s-.1.15-.1.22a1.12,1.12,0,0,0,.08.27.11.11,0,0,1-.08,0s0,0,0-.05V7.8a.5.5,0,0,0,0,.13l-.05,0c.05,0,.13.19.15.21a.57.57,0,0,0,.12.07l0,.14s.11.11.14.14l-.05.11a.76.76,0,0,1-.07-.09s0,0,0-.07,0,0,0,.07a.37.37,0,0,0,0,.09.31.31,0,0,1,0,.08v.18a.88.88,0,0,1-.1-.19V8.55a1,1,0,0,0,0-.14.78.78,0,0,0-.05-.14s0-.06,0-.07,0,0,0,0a.17.17,0,0,0,0,.09l-.1-.12v0l-.09,0s-.06-.06-.08-.08a.27.27,0,0,0,0,.09l0,.11h-.11a.1.1,0,0,1,.05.06v0a1,1,0,0,0,.09.23s.11.05.17.07l.11,0A.38.38,0,0,1,13,9l-.12-.05a.1.1,0,0,1,0,.06A.17.17,0,0,0,13,9l-.14,0h-.15a.79.79,0,0,1,0,.09l.07.07,0,.09a.68.68,0,0,0,0,.12l.07,0s0,0,0,.06a.29.29,0,0,0,0,.09.17.17,0,0,1,.11-.08.76.76,0,0,0,.21,0s.06-.05.08-.09l0,0a.67.67,0,0,0,.07.11l-.12,0-.1,0,.08,0-.1,0a.2.2,0,0,0-.11.09l0,0,0,0h0a.13.13,0,0,0,0-.05l0-.05a.27.27,0,0,1,.13-.1l.1,0-.09,0a.24.24,0,0,1,.11-.06l.11,0s-.06,0-.07-.08v0s-.07.08-.1.09a.71.71,0,0,1-.21,0s-.09.06-.12.08a.22.22,0,0,1,0-.12.05.05,0,0,1,0-.05l-.08,0a.32.32,0,0,1,0-.14l0-.08s0,0-.07-.06l0-.1h.17l.12,0a.08.08,0,0,1,0-.06V8.89A.38.38,0,0,1,13,9s0-.12-.08-.15l-.1,0a.38.38,0,0,1-.18-.08,1.74,1.74,0,0,1-.1-.23V8.41a.16.16,0,0,0-.05-.06h.12l0-.11a.28.28,0,0,1,0-.11l.09.08s.08.05.08.05v0l.11.11a.09.09,0,0,1,0-.1l0,0s0,.06,0,.07a1.31,1.31,0,0,1,0,.15,1,1,0,0,1,0,.14v.14a1.45,1.45,0,0,0,.08.18V8.7l0-.07a.58.58,0,0,1,0-.1.81.81,0,0,0,0-.09l.07.08s.05.07.06.09l0-.1s-.13-.09-.14-.13a.7.7,0,0,1,0-.14s-.09,0-.12-.07-.14-.22-.15-.23h.05a.27.27,0,0,1-.05-.13s0-.13,0-.13h0a.12.12,0,0,1,.07,0h.06a.54.54,0,0,1-.1-.26.48.48,0,0,1,.12-.23l.07.09.1-.17a.17.17,0,0,1,.07.1v.09h.08l.06,0s-.06,0-.08.06l0,.06,0,.07a.55.55,0,0,0-.14.09.62.62,0,0,0,0,.14h0a.75.75,0,0,1,.08.14,1.05,1.05,0,0,1,0,.13l.05,0a.05.05,0,0,0,0,0,0,0,0,0,0,0,0l0-.06s-.06-.06-.06-.08a2.35,2.35,0,0,1,0-.28l.13.06.07-.09,0-.14h0l.06.13a.1.1,0,0,1,.06-.07l.11-.06a1,1,0,0,1,0,.11,1.58,1.58,0,0,1,0,.3l-.21.21a.23.23,0,0,0,0,.13l.13-.13s0,.07,0,.1v.08s.07,0,.08-.05a.15.15,0,0,1,.08,0,.26.26,0,0,1,0,.08.21.21,0,0,0,0,.07.28.28,0,0,1-.05.1s0,0-.08,0a.24.24,0,0,0-.09.05l-.06.06-.09.12s0,.05,0,.08a.34.34,0,0,1,.06-.12l.13-.13,0,.11.1-.07.19,0-.09.12s0,.14-.06.17l-.16.1a.23.23,0,0,1,.08.09s0,.13,0,.19h0a.45.45,0,0,1,.06-.14l0,0a.37.37,0,0,0,0-.08s.09.07.1.11A.12.12,0,0,1,13.71,9a.88.88,0,0,1,.09.2.19.19,0,0,1,.07-.12.31.31,0,0,1,.07.21.28.28,0,0,1-.1.15l-.09.05a.53.53,0,0,1,.13,0,.22.22,0,0,1,.08,0h0l-.13.06H14a.15.15,0,0,0,0-.13.42.42,0,0,1,0-.09s.08,0,.11,0h.05s0,0,0-.05,0-.08,0-.08,0,0,.09.05l.12.09a.42.42,0,0,1,.08-.18,1,1,0,0,1,.09.15.62.62,0,0,1,0,.13s-.05.12-.05.13h0a1.33,1.33,0,0,0,.16.2l.09.09a1.59,1.59,0,0,0,.35.33l.12.07.06,0-.08.12Zm-1.66-1.2v0a.65.65,0,0,0,0,.14l.08.08,0,0a.53.53,0,0,1-.05-.2ZM13.35,9l-.06,0a.19.19,0,0,0,0,.08s0,0,0,0a.1.1,0,0,1,.05-.07.24.24,0,0,0,0-.08Z"/><path class="cls-17" d="M12.77,9.33l0,0a.19.19,0,0,1,.11,0l.05,0L13,9.19s-.07.06-.11.08h-.06a.14.14,0,0,0-.09.05Z"/><path class="cls-17" d="M12.83,9.37s.09,0,.13-.06L13,9.25a.5.5,0,0,1,.14-.15h0a1,1,0,0,0-.14.15.22.22,0,0,1-.06.07l-.14,0Z"/><path class="cls-17" d="M12.85,9.41v0a.33.33,0,0,0,.15,0l.08-.07s0,.05-.06.08a.41.41,0,0,1-.17,0Z"/><path class="cls-1" d="M13.38,9.1v0Z"/><path class="cls-17" d="M13,9.67v0l.28-.06s-.24.07-.28.08Z"/><path class="cls-17" d="M13.12,9.75h0v0a.43.43,0,0,0,.28-.14.32.32,0,0,1-.26.16Z"/><path class="cls-17" d="M13.45,9.59a.7.7,0,0,1-.3-.06v0a1.23,1.23,0,0,0,.58,0,.87.87,0,0,1-.29,0Z"/><path class="cls-17" d="M13.6,9.48s0-.05,0-.29h0c0,.29,0,.29,0,.29Z"/><path class="cls-1" d="M13.55,9.34a.4.4,0,0,1,0-.11Z"/><path class="cls-1" d="M13.58,9.09s0,.1,0,.1Z"/><path class="cls-17" d="M13.72,9.42h0a.37.37,0,0,0,0-.13s0,.06,0,.13Z"/><path class="cls-1" d="M13.7,9.25v0Z"/><path class="cls-1" d="M13.83,9.3c0,.07-.05.07-.05.07Z"/><path class="cls-17" d="M14.2,9.57S14,9.44,14,9.4v0a2.7,2.7,0,0,1,.23.18Z"/><path class="cls-17" d="M14.28,9.52s-.08-.09-.15-.13h0a.43.43,0,0,1,.14.14Z"/><path class="cls-17" d="M14.31,9.64s0-.13,0-.22h0a.19.19,0,0,1,0,.23Z"/><path class="cls-1" d="M14.38,9.33l0,.17Z"/><path class="cls-17" d="M12.79,8.68a.23.23,0,0,1-.08-.07s0,0,0-.07a.06.06,0,0,0,0,0,.24.24,0,0,0-.14-.12h0a.2.2,0,0,1,.14.1s0,0,0,.07a.14.14,0,0,0,0,.06l.08.08Z"/><path class="cls-17" d="M13,8.79s-.05,0-.07-.08h0l-.05,0s0,0-.06-.09l0,0v0c0-.06,0-.14-.13-.15v0c.16,0,.15.12.15.17s0,0,0,.06l.05.09s.05,0,.07,0l.05.09Z"/><path class="cls-17" d="M12.71,8.37s0,0-.05-.09l-.05,0v0l.06.06a.13.13,0,0,1,0,.1Z"/><path class="cls-17" d="M12.85,8.51a.21.21,0,0,1,0-.22h0c0,.09,0,.2,0,.21Z"/><path class="cls-17" d="M12.9,8.53s0-.13,0-.19v0c.1.07,0,.21,0,.21Z"/><path class="cls-1" d="M12.88,8.59v0Z"/><path class="cls-1" d="M13.12,8.27a.15.15,0,0,1,.07.11Z"/><path class="cls-17" d="M13.23,8.87s0,0,0-.06a.78.78,0,0,0,.09-.2h0s-.06.15-.09.2l0,0Z"/><path class="cls-17" d="M13.22,9h0c.05-.18.14-.21.14-.21s-.08,0-.12.21Z"/><path class="cls-17" d="M13.3,8.89h0a.65.65,0,0,0,.27-.25.51.51,0,0,1-.26.26Z"/><path class="cls-17" d="M12.78,9.21h0A.26.26,0,0,1,13,9.14H13c.07,0,.1-.06.1-.07s0,.07-.1.09H13s-.07,0-.17.05Z"/><path class="cls-17" d="M12.94,9.11a1,1,0,0,0-.25,0h0a.59.59,0,0,1,.27.06Z"/><path class="cls-17" d="M13.08,9.07S13,9,12.91,9v0a.18.18,0,0,1,.17.13Z"/><path class="cls-17" d="M13.35,9.5a.63.63,0,0,0-.27,0v0c.25,0,.27,0,.28,0Z"/><path class="cls-1" d="M13.28,9.26c0-.09,0-.11,0-.11Z"/><path class="cls-17" d="M13.22,8.68h0a1.26,1.26,0,0,1,.23-.31s-.11.13-.22.32Z"/><path class="cls-17" d="M13.43,8.45v0a1.26,1.26,0,0,0,.18-.21.7.7,0,0,1-.17.23Z"/><path class="cls-17" d="M13.25,8.43c0-.08,0-.14,0-.18a.25.25,0,0,1,0-.18.35.35,0,0,1,.1-.11s.05,0,.05-.07a.51.51,0,0,0,.06-.2.26.26,0,0,1,.07-.16s-.06.08-.06.16a.48.48,0,0,1,0,.18.26.26,0,0,1-.07.1.48.48,0,0,0-.09.11c0,.05,0,.07,0,.16s0,.11,0,.19Z"/><path class="cls-17" d="M13.25,8.28a.37.37,0,0,1,0-.23s0,0,0-.06a.38.38,0,0,0,.13-.39h0a.41.41,0,0,1-.13.4.23.23,0,0,0,0,.05,1,1,0,0,0,0,.23Z"/><path class="cls-17" d="M13,8.14S12.91,8,12.78,8v0l.24.2Z"/><path class="cls-17" d="M13.06,8.06,13,8l-.07,0-.05,0V8a.11.11,0,0,1,.06,0L13,8l.1,0Z"/><path class="cls-17" d="M13,8s0,0,0-.07,0,0,0,0a.27.27,0,0,1-.11-.16h0c0,.06.07.11.11.15L13,7.9A.09.09,0,0,1,13,8Z"/><path class="cls-1" d="M13.21,9.3v0Z"/><path class="cls-17" d="M13.19,8a1.16,1.16,0,0,1,0-.27s0,.15,0,.26Z"/><path class="cls-17" d="M13.27,7.91a1.59,1.59,0,0,0,.05-.27h0a.6.6,0,0,1-.06.27Z"/><path class="cls-17" d="M13.19,7.9a.41.41,0,0,1,0-.12s0,0,0,0l0-.07s0,0,0,.06a.11.11,0,0,1,0,0,.51.51,0,0,0,0,.11Z"/><path class="cls-17" d="M13,7.74h0a.44.44,0,0,1,0-.22s0,0,0-.07a.39.39,0,0,0,0-.1s0,0,0,.1a.08.08,0,0,1,0,.08.52.52,0,0,0,0,.21Z"/><path class="cls-17" d="M13,7.49s0-.11.13-.14h0a.48.48,0,0,0-.13.13Z"/><path class="cls-17" d="M13,7.65h0a.49.49,0,0,1,.14-.2.14.14,0,0,1,.11,0s-.06,0-.1,0a.46.46,0,0,0-.13.2Z"/><path class="cls-1" d="M12.93,7.36a.27.27,0,0,0,0,.13Z"/><path class="cls-17" d="M13,7.43h0a.81.81,0,0,0,.07-.23s0,.15-.06.24Z"/><path class="cls-17" d="M13.34,8.44h0a1.62,1.62,0,0,1,.11-.34s-.07.19-.09.34Z"/><path class="cls-19" d="M13,7.73a.05.05,0,1,0-.1,0,.05.05,0,0,0,.1,0Z"/><path class="cls-17" d="M12.92,7.79a.06.06,0,0,1-.06-.06c0-.07.12-.07.12,0a.06.06,0,0,1-.06.06Z"/><path class="cls-19" d="M13,7.8s0,0,0,0a.05.05,0,0,0-.05,0,.06.06,0,0,0,.05.06s0,0,0-.06Z"/><path class="cls-17" d="M13,7.87a.07.07,0,0,1-.06-.07c0-.07.11-.06.11,0s0,.07-.05.07Z"/><path class="cls-19" d="M13.22,8.18a0,0,0,0,0-.05,0,0,0,0,0,0,0,0s0,.06,0,.06a.06.06,0,0,0,.05-.06Z"/><path class="cls-17" d="M13.17,8.25s-.05,0-.05-.07.11-.07.11,0,0,.07-.06.07Z"/><path class="cls-19" d="M13.32,8.24a.05.05,0,0,0-.05-.05,0,0,0,0,0,0,.1.05.05,0,0,0,.05,0Z"/><path class="cls-17" d="M13.27,8.3a.06.06,0,0,1-.06-.06.06.06,0,0,1,.11,0,.06.06,0,0,1-.05.06Z"/><path class="cls-19" d="M13,8.8a.06.06,0,0,0-.05-.06s0,0,0,.06a0,0,0,0,0,0,0,0,0,0,0,0,.05,0Z"/><path class="cls-17" d="M12.92,8.86a.06.06,0,0,1-.05-.06.06.06,0,0,1,.11,0,.06.06,0,0,1-.06.06Z"/><path class="cls-19" d="M13.2,8.91a0,0,0,0,0,0-.05,0,0,0,0,0,0,.05s0,.06,0,.06a.06.06,0,0,0,0-.06Z"/><path class="cls-17" d="M13.15,9s-.05,0-.05-.07a.06.06,0,0,1,.11,0,.07.07,0,0,1-.06.07Z"/><path class="cls-19" d="M13.34,9.37a.05.05,0,0,0-.05,0,0,0,0,0,0,0,.1.05.05,0,0,0,.05-.05Z"/><path class="cls-17" d="M13.29,9.43a.06.06,0,0,1-.06-.06c0-.07.12-.07.12,0a.06.06,0,0,1-.06.06Z"/><path class="cls-19" d="M13.58,9.5a.06.06,0,0,0-.05-.06s0,0,0,.06a0,0,0,0,0,0,.05,0,0,0,0,0,.05-.05Z"/><path class="cls-17" d="M13.53,9.56a.06.06,0,0,1,0-.06.06.06,0,0,1,.11,0,.06.06,0,0,1-.06.06Z"/><path class="cls-19" d="M13.71,9.49a.05.05,0,0,0-.05-.05.05.05,0,1,0,0,.1.05.05,0,0,0,.05,0Z"/><path class="cls-17" d="M13.66,9.55a.06.06,0,0,1-.06-.06.06.06,0,0,1,.11,0s0,.06-.05.06Z"/><path class="cls-19" d="M14.09,9.58A0,0,0,0,0,14,9.53a.05.05,0,0,0,0,.1,0,0,0,0,0,.05-.05Z"/><path class="cls-17" d="M14,9.64a.06.06,0,0,1,0-.06.06.06,0,0,1,.11,0,.06.06,0,0,1-.06.06Z"/><path class="cls-1" d="M16.82,10.32c-.06-.1-.1-.11-.1-.11Z"/><path class="cls-1" d="M16.8,10.35c-.06-.1-.1-.11-.1-.11Z"/><path class="cls-1" d="M16.77,10.38c-.06-.1-.1-.11-.1-.11Z"/><path class="cls-1" d="M16.75,10.41c-.06-.09-.1-.1-.1-.1Z"/><path class="cls-1" d="M16.72,10.44c-.06-.1-.1-.11-.1-.11Z"/><path class="cls-1" d="M16.7,10.47c-.06-.1-.1-.11-.1-.11Z"/><path class="cls-1" d="M16.67,10.49c-.06-.09-.1-.1-.1-.1Z"/><path class="cls-1" d="M16.65,10.53c-.06-.1-.1-.11-.1-.11Z"/><path class="cls-1" d="M16.62,10.55c-.06-.09-.1-.1-.1-.1Z"/><g class="cls-20"><path class="cls-5" d="M16.75,10.23a.52.52,0,0,0-.4-.1.24.24,0,0,0-.22-.06c-.07,0-.11.19-.11.21s.08.07.14.08h.26s.12.09.12.09a1.27,1.27,0,0,1,.21-.23Z"/></g><path d="M16.54,10.48v0a.31.31,0,0,0-.11-.08h-.26c-.07,0-.16,0-.16-.09s.05-.19.13-.22a.24.24,0,0,1,.23.06h.11a.38.38,0,0,1,.29.1,2.46,2.46,0,0,0-.21.24v0Zm-.36-.41h0c-.07,0-.11.18-.11.2s.07.06.13.06h.26a.28.28,0,0,1,.12.08,1,1,0,0,1,.2-.21.48.48,0,0,0-.27-.07h-.13a.26.26,0,0,0-.16-.07Z"/><g class="cls-21"><path class="cls-5" d="M16.34,10.22c0-.07-.05-.11-.1-.1a2.69,2.69,0,0,1-.4.13c-.08,0-.22-.08-.22-.14s.21-.12.21-.12L16,10a1,1,0,0,1,.29-.08c.11,0,.17.06.17.12a.44.44,0,0,1-.09.15Z"/></g><path d="M15.84,10.26a.33.33,0,0,1-.15,0s-.09-.05-.09-.1.17-.12.22-.13L16,10a.89.89,0,0,1,.29-.09.19.19,0,0,1,.15.06.11.11,0,0,1,0,.08.35.35,0,0,1-.1.17c0-.07-.05-.1-.08-.1l-.13,0a1.56,1.56,0,0,1-.28.08Zm0-.26c-.08,0-.19.09-.19.11s0,.05.08.08a.22.22,0,0,0,.13,0v0a1,1,0,0,0,.28-.08l.12,0a.1.1,0,0,1,.11.1.67.67,0,0,0,.06-.15.06.06,0,0,0,0-.05.19.19,0,0,0-.13,0A1,1,0,0,0,16,10l-.16,0Z"/><path d="M16.25,10.28h0l-.12,0a.07.07,0,0,0-.08,0s0-.06,0-.06h0l.13,0c.09,0,.09,0,.09-.06h0s0,.08-.11.08Z"/><path d="M12.67,10.32h0c.06-.1.1-.11.1-.11s0,0-.08.12Z"/><path d="M12.69,10.36l0,0c.06-.1.1-.11.1-.11s0,0-.08.13Z"/><path d="M12.72,10.39l0,0c.06-.1.1-.11.1-.11s0,0-.08.13Z"/><path d="M12.74,10.42l0,0a.33.33,0,0,1,.1-.11s0,0-.08.13Z"/><path d="M12.77,10.44h0c.06-.1.1-.11.1-.11s0,0-.08.12Z"/><path d="M12.79,10.48l0,0c.07-.1.11-.11.11-.11s0,0-.08.13Z"/><path d="M12.82,10.5h0a.7.7,0,0,1,.11-.12s0,0-.08.13Z"/><path d="M12.84,10.53h0c.07-.1.11-.11.11-.11s0,0-.08.12Z"/><path d="M12.86,10.56l0,0c.06-.1.1-.11.11-.11s0,0-.09.13Z"/><g class="cls-22"><path class="cls-5" d="M12.72,10.23a.52.52,0,0,1,.4-.1.25.25,0,0,1,.22-.06c.07,0,.12.19.12.21s-.08.07-.15.08h-.26c-.05,0-.11.09-.11.09a1.43,1.43,0,0,0-.22-.23Z"/></g><path d="M12.94,10.48l0,0a1.2,1.2,0,0,0-.2-.21.32.32,0,0,1,.28-.13h.09a.32.32,0,0,1,.26-.06c.08,0,.12.19.12.22s-.09.09-.15.09h-.26a.24.24,0,0,0-.11.08v0Zm.06-.33a.38.38,0,0,0-.27.09c.06,0,.17.15.21.19a.31.31,0,0,1,.11-.08h.26c.07,0,.13,0,.13-.06s0-.17-.11-.2a.26.26,0,0,0-.2.06H13Z"/><g class="cls-23"><path class="cls-5" d="M13.14,10.22c0-.07,0-.11.09-.1a3.14,3.14,0,0,0,.4.13c.08,0,.23-.08.23-.14s-.21-.12-.21-.12l-.14,0a1.07,1.07,0,0,0-.29-.08c-.11,0-.18.06-.17.12a.32.32,0,0,0,.09.15Z"/></g><path d="M13.64,10.26h0a1.56,1.56,0,0,1-.28-.08l-.12,0a.08.08,0,0,0-.08.08s-.11-.11-.12-.15a.11.11,0,0,1,0-.08.21.21,0,0,1,.16-.06,1,1,0,0,1,.29.09l.13,0c.07,0,.23.08.23.14s-.15.15-.23.15Zm-.42-.15a.51.51,0,0,1,.14,0,.88.88,0,0,0,.27.08v0c.08,0,.2-.08.2-.12s-.1-.07-.2-.11l-.13.05a.82.82,0,0,0-.29-.09.2.2,0,0,0-.14,0l0,.05a.5.5,0,0,0,.08.15.08.08,0,0,1,.08-.1Z"/><path d="M13.22,10.28c-.09,0-.1,0-.11-.08h0c0,.05,0,.07.1.06l.12,0h.05s.05,0,.06,0-.05,0-.06,0h0l-.13,0Z"/><g class="cls-24"><path class="cls-5" d="M14.76,9.63c-1,0-1.36.16-1.37.3a.25.25,0,0,0,.19.24c.06,0,.22-.09.21-.12a0,0,0,0,1,0,0,4.46,4.46,0,0,1,1-.08,3.43,3.43,0,0,1,1,.08s0,0-.08.07c.14,0,.18.07.24.08a.24.24,0,0,0,.19-.22c0-.14-.4-.29-1.31-.31Z"/></g><path d="M13.58,10.18a.16.16,0,0,1-.12-.06.26.26,0,0,1-.08-.19c0-.15.39-.32,1.22-.32h.16a2.41,2.41,0,0,1,1.29.25.09.09,0,0,1,0,.08.26.26,0,0,1-.21.23h0a.09.09,0,0,1-.07,0,.26.26,0,0,0-.14-.05h0v0l0,0,0,0a4.68,4.68,0,0,0-1-.07,4.72,4.72,0,0,0-1,.08h0v.05a.49.49,0,0,1-.22.1Zm1-.54c-.86,0-1.19.18-1.19.29a.23.23,0,0,0,.07.17.16.16,0,0,0,.1.05c.06,0,.2-.07.2-.1s0,0,0,0a2.75,2.75,0,0,1,1-.11,2.66,2.66,0,0,1,1,.1s0,0,0,.05l0,0c.09,0,.13,0,.16,0l.06,0h0a.22.22,0,0,0,.18-.2.09.09,0,0,0,0-.06c-.05-.05-.28-.21-1.27-.24Z"/><polygon class="cls-13" points="13.71 9.95 13.66 9.8 13.75 9.77 13.75 9.79 13.68 9.81 13.7 9.86 13.77 9.84 13.77 9.86 13.7 9.88 13.72 9.93 13.8 9.9 13.8 9.92 13.71 9.95"/><path class="cls-13" d="M14,9.73h0v.13l0,0H14a0,0,0,0,1,0,0s0,0,0,0V9.74h0v.09a0,0,0,0,1,0,0s0,0,0,0h0s0,0,0,0,0,0,0,0Z"/><polygon class="cls-13" points="14.21 9.87 14.21 9.71 14.23 9.71 14.23 9.85 14.3 9.85 14.3 9.87 14.21 9.87"/><rect class="cls-13" x="14.33" y="9.71" width="0.02" height="0.16"/><path class="cls-13" d="M14.48,9.81h0a.05.05,0,0,1,0,0l0,0h0l0,0V9.74l0,0h.06l0,0h0s0,0,0,0h0a0,0,0,0,0,0,0,0,0,0,0,0,0,0,.08.08,0,0,0,0,0v0h0l0,0Z"/><path class="cls-13" d="M15,9.87V9.71h0l0,.11v0l0-.11h0v.16h0V9.74l0,.13h0l0-.13v.13Z"/><rect class="cls-13" x="15.18" y="9.71" width="0.02" height="0.16"/><polygon class="cls-13" points="15.23 9.88 15.23 9.72 15.25 9.72 15.31 9.84 15.31 9.72 15.32 9.72 15.32 9.88 15.31 9.88 15.24 9.75 15.24 9.88 15.23 9.88"/><rect class="cls-13" x="15.37" y="9.73" width="0.02" height="0.15"/><path class="cls-13" d="M15.51,9.85h0a.05.05,0,0,1,0,0s0,0,0,0h0a0,0,0,0,1,0,0,.09.09,0,0,1,0,0l0-.05,0,0h0s0,0,0,0l0,0h0a0,0,0,0,0,0,0h0l0,0a0,0,0,0,0,0,0v.06h.05l0,0Z"/><polygon class="cls-13" points="15.67 9.94 15.7 9.77 15.72 9.78 15.76 9.92 15.79 9.79 15.8 9.8 15.77 9.96 15.75 9.96 15.71 9.81 15.68 9.94 15.67 9.94"/><path class="cls-13" d="M13.59,10l-.07-.16.06,0h0l0,0v0l0,0h0l0,0,0,0h0l0,0h-.07l0,.07Zm0-.1h0v0h-.07Z"/><path class="cls-13" d="M13.83,9.92l0-.16h.1v.06l0,0h0v.06Zm0-.09h.06v0s0,0,0,0h-.06Z"/><path class="cls-13" d="M14.09,9.88V9.72h.07v0s0,0,0,0v0h0l0,0s0,0,0,0v0s0,0,0,0h-.07Zm0-.09h.05v0h-.06Zm0,.07h.06v0H14.1Z"/><path class="cls-13" d="M14.51,9.87l.05-.17h0l.05.17h0v0h-.06v0Zm0-.07h0V9.75a0,0,0,0,1,0,0V9.8Z"/><path class="cls-13" d="M14.73,9.87V9.71h.09l0,0v.11h-.09Zm0,0h.06v0s0,0,0,0,0,0,0,0l0,0h-.05Z"/><path class="cls-13" d="M14.87,9.79a.14.14,0,0,1,0-.07.05.05,0,0,1,0,0h0l0,0v.09l0,0H14.9l0,0a.06.06,0,0,1,0,0Zm0,0a.07.07,0,0,0,0,.05H15s0,0,0-.05,0,0,0,0v0h0a.11.11,0,0,0,0,.06Z"/><path class="cls-13" d="M15.52,9.9l.09-.15h0l0,.18h0V9.87h0l0,.05Zm.06-.06h0V9.76l0,0Z"/><path class="cls-13" d="M15.78,10l.11-.13h0l0,.18h0v0l-.05,0,0,0Zm.06,0,0,0V9.85s0,0,0,0Z"/><path class="cls-5" d="M15.2,10.1a.28.28,0,0,0-.24,0v.1s.08,0,.1,0l.1,0Z"/><path d="M15.17,10.28l-.11-.06H15l0-.12a.25.25,0,0,1,.26,0l0,.19Zm-.16-.1h.06l.08,0,0-.13H15l0,.09Z"/><path class="cls-5" d="M14.28,10.11a.27.27,0,0,1,.24,0v.11h-.11l-.1,0Z"/><path d="M14.3,10.28l0-.17a.27.27,0,0,1,.26,0v.12l-.11,0-.12,0Zm.13-.19a.35.35,0,0,0-.14,0l0,.12.09,0,.11,0V10.1Z"/><path class="cls-5" d="M14.65,10.07v.16s0,0,.08,0a.22.22,0,0,0,.09,0v-.16l-.1,0-.07,0Z"/><path d="M14.73,10.26s-.08,0-.09,0v-.16a.12.12,0,0,1,.09,0h.1v.18a.14.14,0,0,1-.1,0Zm-.06,0,.14,0v-.14h-.14v.15Z"/><path class="cls-5" d="M14.82,10.24s.2,0,.2,0a.31.31,0,0,0,0-.1h-.2Z"/><path d="M14.91,10.28h0a.14.14,0,0,1-.11,0v-.11H15s0,.07,0,.11-.09,0-.13,0Zm.1-.15-.19,0v.09s.17,0,.18,0v-.09Z"/><path class="cls-5" d="M14.82,10.07A.23.23,0,0,1,15,10a.12.12,0,0,1,.08,0v.14s0,0-.08,0a.28.28,0,0,0-.12,0Z"/><path d="M14.8,10.24v-.17a.24.24,0,0,1,.14-.05.18.18,0,0,1,.1,0v.15l-.08,0a.33.33,0,0,0-.13,0Zm.14-.08a.11.11,0,0,1,.09,0l0-.13-.06,0a.42.42,0,0,0-.13,0v.12a.25.25,0,0,1,.11,0Z"/><path class="cls-5" d="M14.65,10.24s-.2,0-.21,0v-.1h.21Z"/><path d="M14.56,10.28s-.13,0-.13,0a.31.31,0,0,1,0-.1h.22v.12s-.07,0-.1,0Zm-.11-.13a.17.17,0,0,1,0,.08.36.36,0,0,0,.18,0v-.1l-.18,0Z"/><path class="cls-5" d="M14.65,10.07a.49.49,0,0,0-.14,0,.08.08,0,0,0-.07,0v.14l.07,0a.33.33,0,0,1,.13,0Z"/><path d="M14.66,10.25l0,0-.12,0h0l-.06,0,0-.15a.17.17,0,0,1,.09-.05l.14,0v.2Zm-.14-.09.11,0v-.13l-.11,0a.14.14,0,0,0-.07,0v.11l.06,0Z"/></g></g></g></g></g></g></g></svg>