<svg xmlns="http://www.w3.org/2000/svg" xmlns:xlink="http://www.w3.org/1999/xlink" viewBox="0 0 29.46 17.19"><defs><style>.cls-1{fill:none;}.cls-2{clip-path:url(#clip-path);}.cls-3{fill:#d6003f;}.cls-4{fill:#f4c638;}.cls-5{fill:#5784d9;}.cls-6{fill:#49ae32;}</style><clipPath id="clip-path"><rect class="cls-1" width="29.46" height="17.19"/></clipPath></defs><g id="Layer_2" data-name="Layer 2"><g id="cá»"><g id="east_africa" data-name="east africa"><g class="cls-2"><rect class="cls-3" width="29.46" height="17.19"/><g class="cls-2"><path class="cls-4" d="M6.7,12.69a.73.73,0,0,0-.58.66H8a.7.7,0,0,0-.59-.67A5.63,5.63,0,0,0,11,11.54c-.28-.12-.6.07-.83,0,.54-.26,2.18-1.32,1.92-2.46A2.64,2.64,0,0,1,11,10.41c.62-.93,1.45-1.9.73-2.65a1.15,1.15,0,0,1-.42,1c.36-1,.7-2.22-.07-3,.1.29.06,1.12-.08,1.16,0-.67-.16-2.07-.86-2a2,2,0,0,1,.33,1.29,2.07,2.07,0,0,0-.74-.94A4.06,4.06,0,0,0,8.42,3.67a1.57,1.57,0,0,0,.73,1.25c-.32,0-.64-.63-1-.65s-.49.25-.93.1c0,.15.26.21.3.32s-.32,0-.51-.11a1.05,1.05,0,0,0,1,.49,1.86,1.86,0,0,1,1.25.2,1.92,1.92,0,0,1-.78,0,1,1,0,0,0,.82.41c.37,0,.57-.2.67-.08a6.09,6.09,0,0,1,.58.88c-.43,0-.3-.49-.78-.76-.27.56.31,1.22.71,1.5a2.14,2.14,0,0,0,.24,1.09,1.39,1.39,0,0,1,.22,1,1.43,1.43,0,0,1-.38-1.22c-.3.08-.42.6-.28.87a.87.87,0,0,1,.06.75c-.12.16-.13.14-.13.48a.87.87,0,0,1-.3.62,1.14,1.14,0,0,0,0-.55c-.14.25-.51.51-.63.78s-.14.73-.7.84a5.85,5.85,0,0,0-1.41.45c-.05-.35.1-1.07.39-1s1.15-.3.84-1a.61.61,0,0,1-.48.46c.23-.31.65-.62.45-1.14a1.55,1.55,0,0,1-.57.63c.29-.56,0-.73-.31-.27a3,3,0,0,0-.3,1c-.13-.37-.12-.85-.28-1.25a.35.35,0,0,1,.4-.5c.46.12,1.21.12,1.16-.63a.84.84,0,0,1-.91.24c.41-.3.74-.87.28-1.17a1.08,1.08,0,0,1-.59.83,1.91,1.91,0,0,1,0-.86,2.55,2.55,0,0,0-.42,1.05,3.61,3.61,0,0,1,.14-1c.1-.35.33-.12.7-.09s.83-.18.74-.65a.65.65,0,0,1-.62.24c.3-.18.83-.51.54-1-.12.19-.16.35-.51.41C8,6.32,8,6,8.25,5.9c-.49-.09-.77.22-.91.72,0-.34-.12-.47-.14-.72a.57.57,0,0,0-.27-1,1.08,1.08,0,0,0,0,.6.78.78,0,0,0-.9,0,.65.65,0,0,0,.84.14c-.09.32-.34.26-.68.14A.65.65,0,0,0,7,6.19c.15.4.16.71-.29,1.29a1.07,1.07,0,0,0-.29-.93c-.25-.24-.45,0-.06.55a1.61,1.61,0,0,1-.58-.87A1.59,1.59,0,0,0,6,7.46c-.11.12-.24,0-.43-.31.07.95.47,1.13,1,.92,0,.52,0,1,0,1.63a2.51,2.51,0,0,0-.94-.88c-.07.25.19.59.34.77a3.18,3.18,0,0,1-.71-.42c-.05.43.5.82.85,1a1.17,1.17,0,0,1-.87-.43c0,1.17,1.27,1,1.51.79,0,.57.08,1.24.11,1.82-.36-.06-.33-.17-.64-.2-.85,0-1.52-1-1.74-1.74-.07.12,0,.24-.08.39a2.73,2.73,0,0,0-.55-1,2.31,2.31,0,0,1,0,.8,1.53,1.53,0,0,1-.16-.62c0-.23.22-.39.2-.71s-.22-.74-.25-1.13a4.41,4.41,0,0,1-.32,1.07,4.27,4.27,0,0,1,.18-1,1.06,1.06,0,0,0,.18-.88,2.26,2.26,0,0,1-.31.51c0-.31.32-.81.68-1s.57-.61.37-.94a4.86,4.86,0,0,0-.69.8A1.46,1.46,0,0,1,5.45,5.45c.17,0,.5-.06.6-.28a1.31,1.31,0,0,1-.68,0C5.53,5,5.87,5,6.18,5A.79.79,0,0,0,7,4.62a1.79,1.79,0,0,1-1.07.07c.48-.25,1.22-.27,1.6-.6-.44-.32-1.52.08-2.2.55A5.33,5.33,0,0,0,6,3.9c-.38-.18-1.33.87-1.65,1.5A1.47,1.47,0,0,0,3.76,6c.16-.56.18-1,.32-1.43C3,5,3.46,6.94,3.22,7.41A3.09,3.09,0,0,0,3,5.88c-.33.25-.36,1.72,0,2.94a6.15,6.15,0,0,1-.39-1c-.48.88.29,1.93.93,2.75A4,4,0,0,1,2.23,9.29c.09,1.58,1.74,1.91,2,2.3-.35-.16-1-.48-1.3-.15a3.55,3.55,0,0,1,1.12.42c.43.54,1.24.77,2.65.83Z"/><polygon class="cls-5" points="0 17.19 29.46 17.18 29.46 8.59 0 17.19"/><polygon class="cls-6" points="0 0 29.46 0.01 29.46 8.59 0 0"/></g></g></g></g></g></svg>