<svg xmlns="http://www.w3.org/2000/svg" xmlns:xlink="http://www.w3.org/1999/xlink" viewBox="0 0 29.46 17.19"><defs><style>.cls-1{fill:none;}.cls-2{clip-path:url(#clip-path);}.cls-3{fill:#e1001f;}.cls-4{fill:#f6d928;}.cls-5{fill:#f6d728;}.cls-6{fill:#ca001c;}.cls-7{fill:#f0f7ff;}</style><clipPath id="clip-path"><rect class="cls-1" width="29.46" height="17.19"/></clipPath></defs><g id="Layer_2" data-name="Layer 2"><g id="cá»"><g id="west_europee" data-name="west europee"><g class="cls-2"><rect width="29.46" height="5.73"/><rect class="cls-3" y="5.73" width="29.46" height="5.73"/><rect class="cls-4" y="11.46" width="29.46" height="5.73"/><g class="cls-2"><path class="cls-5" d="M10.65,4.07V11c0,2.57,3.46,2.26,4.08,3.29.62-1,4.08-.72,4.08-3.29V4.07Z"/><path d="M14.73,14.29l0,0c-.22-.37-.8-.56-1.47-.78-1.17-.39-2.61-.87-2.61-2.53V4h8.2V11c0,1.66-1.44,2.14-2.6,2.53-.68.22-1.26.41-1.48.78l0,0ZM10.68,4.09V11c0,1.62,1.37,2.08,2.57,2.48a2.92,2.92,0,0,1,1.48.77,2.92,2.92,0,0,1,1.48-.77c1.21-.4,2.57-.86,2.57-2.48V4.09Z"/><path d="M14.46,5.06a1.78,1.78,0,0,1-.14.86,2,2,0,0,0-.39.79,23.36,23.36,0,0,0,.8,5.39,23.36,23.36,0,0,0,.8-5.39,6.4,6.4,0,0,0-.3-2Z"/><path class="cls-6" d="M14.54,5.28a2.61,2.61,0,0,1-1-.22,1.41,1.41,0,0,0,.74.33Z"/><path d="M14.32,5.37a1.2,1.2,0,0,1-.75-.3,3.68,3.68,0,0,0,1,.2v0a2.88,2.88,0,0,1-1-.23,1.69,1.69,0,0,0,.75.3Z"/><path class="cls-6" d="M14.42,4.44c-.62-.31-1,0-.57.6,0-.11.43-.25.61.24a1.22,1.22,0,0,1-.68,0,1.26,1.26,0,0,0,.85.11c.1-.06-.19-.58-.19-.58Z"/><path d="M14.39,5.45a1.13,1.13,0,0,1-.61-.14,1.52,1.52,0,0,0,.68,0C14.34,5,14.16,5,14.07,5h0c-.11,0-.2,0-.21.09-.21-.25-.25-.48-.14-.62s.4-.15.71,0v0c-.3-.15-.56-.15-.68,0s-.06.35.12.59c0,0,.1-.11.21-.11s.29,0,.41.36a1.25,1.25,0,0,1-.7,0,1.49,1.49,0,0,0,.84.08c.07,0-.08-.37-.19-.56.07.07.31.51.2.58a.62.62,0,0,1-.24,0Z"/><path d="M15.18,4.87a.83.83,0,0,0,.4-.2,2.54,2.54,0,0,1-.81-.21c-.16-.08-.45-.27-.45.08s.37.62.31.91Z"/><path class="cls-7" d="M14.67,4.65a2,2,0,0,1-.25-.15s-.1.23.08.31a.33.33,0,0,1,.17-.16Z"/><path d="M14.52,4.52c-.09,0-.11.1-.06.23a.23.23,0,0,1,.21-.19Z"/><path d="M15.64,7.32V9.75L18.4,12V6A1.21,1.21,0,0,0,18.11,5V6.29Z"/><polygon class="cls-5" points="16.19 11.75 16.11 11.75 16.11 6.6 16.19 6.6 16.19 11.75 16.19 11.75"/><polygon class="cls-5" points="16.77 11.75 16.69 11.75 16.69 6.6 16.77 6.6 16.77 11.75 16.77 11.75"/><polygon class="cls-5" points="17.34 11.75 17.27 11.75 17.27 6.6 17.34 6.6 17.34 11.75 17.34 11.75"/><polygon class="cls-5" points="17.92 11.75 17.84 11.75 17.84 6.6 17.92 6.6 17.92 11.75 17.92 11.75"/><path d="M15.1,7.78a3.66,3.66,0,0,0,3-1V5.06a.45.45,0,0,0,.33-.46c-.58.48-1.48-.63-2,.52a.6.6,0,0,0,1.07.18c.41.35.08,1.67-2.41,1.65Z"/><path class="cls-6" d="M15.78,11.81a.26.26,0,0,0,.1.41.33.33,0,0,1,.07-.34Z"/><path d="M15.9,12.22a.25.25,0,0,1-.19-.19.26.26,0,0,1,.06-.23l0,0a.29.29,0,0,0-.06.21.29.29,0,0,0,.16.18.29.29,0,0,1,0-.34.43.43,0,0,0,0,.35Z"/><path class="cls-6" d="M16.5,12.51a.41.41,0,0,1-.12.31c.25-.06.35-.14.27-.29Z"/><path d="M16.38,12.83a.57.57,0,0,0,.11-.32h0a.4.4,0,0,1-.12.32c.15-.06.24-.11.26-.17s0-.07,0-.12.07.09.05.13-.13.12-.3.16Z"/><path class="cls-6" d="M17.33,12.2a.61.61,0,0,1,0,.33c.18-.16.24-.39.1-.43Z"/><path d="M17.36,12.54a.82.82,0,0,0-.05-.33h0a.55.55,0,0,1,0,.34.52.52,0,0,0,.15-.36.11.11,0,0,0-.06-.07c.05,0,.08,0,.09.07a.43.43,0,0,1-.18.36Z"/><path class="cls-6" d="M17.31,11.46a.4.4,0,0,1,.2.21c0-.23,0-.35-.23-.39Z"/><path d="M17.52,11.67c-.09-.11-.15-.18-.22-.2v0c.07,0,.14.09.21.21,0-.24-.06-.33-.24-.37.23,0,.26.16.24.38Z"/><path class="cls-6" d="M15.49,10.78l1,.89a3.93,3.93,0,0,1-.51.08c-.15,0-.27,0-.23.08s.12.05.16.11.11.14.19.06a1.36,1.36,0,0,1,.37-.17s0,.48,0,.54-.08.18,0,.18a.54.54,0,0,1,.2,0c.17,0,.15.07.11-.18a2.59,2.59,0,0,1,0-.52,2.58,2.58,0,0,1,.49.42c.12.16.1,0,.17,0a.4.4,0,0,1,.2-.11c.06,0-.16-.08-.22-.12l-.54-.31a3.59,3.59,0,0,1,.43-.1c.17,0,.17,0,.15-.11a.66.66,0,0,1,0-.2s0-.08-.13,0a5.14,5.14,0,0,1-.57.29l-.81-1.07Z"/><path d="M16.69,12.58h-.11a.56.56,0,0,0-.17,0h-.05s0-.07,0-.14l0-.06s0-.39,0-.53c0,0-.28.1-.35.18A.09.09,0,0,1,16,12c-.05,0-.08,0-.12-.1a.2.2,0,0,0-.09-.06l-.07,0h0v0s.14-.06.25-.06a4.26,4.26,0,0,0,.51-.08l-1-.87,0,0,1,.89a2.16,2.16,0,0,1-.52.1c-.13,0-.22,0-.23.06l.07,0a.14.14,0,0,1,.1.07S16,12,16,12l.06,0a1.17,1.17,0,0,1,.38-.17,3.42,3.42,0,0,1,0,.55l0,.06s0,.1,0,.11h.32s0-.05,0-.1l0-.09a2.59,2.59,0,0,1,0-.52,1.69,1.69,0,0,1,.52.41c0,.06.06.07.08.07s0,0,0,0,0-.05,0-.06a.41.41,0,0,1,.18-.1s0,0-.08-.06A.48.48,0,0,1,17.3,12l-.54-.31a2,2,0,0,1,.44-.13c.09,0,.13,0,.14,0s0,0,0-.05a1,1,0,0,1,0-.17v0s0,0-.1,0a5.15,5.15,0,0,1-.58.29l-.82-1.08.83,1.06s.46-.21.55-.29.1-.06.12,0,0,0,0,.06v0a.29.29,0,0,0,0,.16.11.11,0,0,1,0,.08s-.05,0-.16,0a3.3,3.3,0,0,0-.42.1,5.65,5.65,0,0,1,.53.29l.12.05c.09,0,.13,0,.13.07l0,0a.51.51,0,0,0-.18.09l0,.06s0,0-.05,0-.05,0-.1-.09a2.31,2.31,0,0,0-.49-.4s0,.27,0,.5l0,.09c0,.07,0,.1,0,.11Z"/><path d="M14.73,13.46l.43-.51c.5.3.86.22,1.09-.25-.74.12-1.09-.55-1.05-2l.56.86v-.8l.68.08L14.65,8.91Z"/><path d="M13.82,7.32V9.75L11.06,12V6A1.21,1.21,0,0,1,11.35,5V6.29Z"/><polygon class="cls-5" points="13.35 11.75 13.27 11.75 13.27 6.6 13.35 6.6 13.35 11.75 13.35 11.75"/><polygon class="cls-5" points="12.77 11.75 12.69 11.75 12.69 6.6 12.77 6.6 12.77 11.75 12.77 11.75"/><polygon class="cls-5" points="12.2 11.75 12.12 11.75 12.12 6.6 12.2 6.6 12.2 11.75 12.2 11.75"/><polygon class="cls-5" points="11.62 11.75 11.54 11.75 11.54 6.6 11.62 6.6 11.62 11.75 11.62 11.75"/><path d="M14.36,7.78a3.68,3.68,0,0,1-3-1V5.06A.46.46,0,0,1,11,4.6c.58.48,1.49-.63,2,.52A.6.6,0,0,1,12,5.3C11.54,5.65,11.87,7,14.36,7Z"/><path class="cls-6" d="M13.68,11.81a.26.26,0,0,1-.1.41.35.35,0,0,0-.06-.34Z"/><path d="M13.58,12.24a.39.39,0,0,0-.08-.36.31.31,0,0,1,.09.35.51.51,0,0,0,.14-.2.29.29,0,0,0-.06-.21l0,0a.26.26,0,0,1,.06.23.33.33,0,0,1-.17.21Z"/><path class="cls-6" d="M13,12.51a.45.45,0,0,0,.12.31c-.24-.06-.35-.14-.26-.29Z"/><path d="M13.09,12.81c-.18,0-.28-.07-.31-.14a.18.18,0,0,1,0-.14c0,.06,0,.1,0,.13s.11.11.28.15c-.11-.11-.16-.21-.14-.3h0a.45.45,0,0,0,.12.3Z"/><path class="cls-6" d="M12.14,12.2a.46.46,0,0,0,0,.33c-.19-.16-.25-.39-.11-.43Z"/><path d="M12.13,12.53a.4.4,0,0,1-.21-.35.11.11,0,0,1,.09-.09.24.24,0,0,0-.06.09.41.41,0,0,0,.17.34.4.4,0,0,1,0-.32h0a.49.49,0,0,0,0,.32Z"/><path class="cls-6" d="M12.16,11.46a.38.38,0,0,0-.21.21c0-.23,0-.35.23-.39Z"/><path d="M12,11.67c0-.22,0-.36.21-.41-.17.07-.23.16-.21.41,0-.14.12-.21.19-.22v0c-.07,0-.13.09-.2.2Z"/><path class="cls-6" d="M14,10.78l-1,.89a3.87,3.87,0,0,0,.52.08c.14,0,.26,0,.22.08s-.12.05-.16.11-.11.14-.19.06a1.36,1.36,0,0,0-.37-.17s0,.48,0,.54.08.18,0,.18a.54.54,0,0,0-.2,0c-.17,0-.15.07-.11-.18a2,2,0,0,0,0-.52,2.58,2.58,0,0,0-.49.42c-.12.16-.1,0-.16,0a.48.48,0,0,0-.21-.11c-.06,0,.16-.08.23-.12l.53-.31a3.59,3.59,0,0,0-.43-.1c-.17,0-.17,0-.14-.11a.66.66,0,0,0,0-.2s0-.08.12,0a5.12,5.12,0,0,0,.58.29l.8-1.07Z"/><path d="M12.77,12.58h0s0,0,0-.11v-.09a2.48,2.48,0,0,0,0-.51s-.35.26-.47.41-.08.09-.1.09,0,0-.05,0l0-.06a.51.51,0,0,0-.18-.09l0,0s0,0,.12-.07l.12-.05.53-.31-.42-.08c-.11,0-.14,0-.16,0a.11.11,0,0,1,0-.08.45.45,0,0,0,0-.16.06.06,0,0,1,0,0,.07.07,0,0,1,0-.06s.06,0,.12,0a4.75,4.75,0,0,0,.57.28l.79-1.06-.78,1.08a3.08,3.08,0,0,1-.6-.28c-.06-.05-.08-.05-.09-.05a.32.32,0,0,0,0,.08.48.48,0,0,1,0,.17.18.18,0,0,0,0,.05s.06,0,.14,0l.44.11s-.48.29-.54.33a.48.48,0,0,1-.12.05s-.1,0-.11.06a.35.35,0,0,1,.21.1.08.08,0,0,1,0,.06s0,0,0,0,0,0,.08-.07a2.35,2.35,0,0,1,.5-.42,1.41,1.41,0,0,1,0,.53l0,.09s0,.09,0,.1h.3s0-.08,0-.12l0-.05a5.25,5.25,0,0,1,0-.54,1.07,1.07,0,0,1,.39.16.11.11,0,0,0,.07,0s.07,0,.1-.09a.14.14,0,0,1,.1-.07s.05,0,.06,0-.09-.06-.21-.06a4.17,4.17,0,0,1-.52-.08l1-.91,0,0-1,.89s.37.06.51.06.22,0,.24.06h0v0l-.07,0a.2.2,0,0,0-.09.06c0,.05-.07.1-.12.1a.09.09,0,0,1-.09,0,1.23,1.23,0,0,0-.36-.16c0,.11,0,.47,0,.51l0,.06c0,.07,0,.12,0,.14h0a.56.56,0,0,0-.17,0h-.11Z"/><path d="M14.73,13.46,14.3,13c-.5.3-.86.22-1.09-.25.74.12,1.09-.55,1-2l-.56.86v-.8l-.68.08,1.79-1.91Z"/></g></g></g></g></g></svg>