<svg xmlns="http://www.w3.org/2000/svg" xmlns:xlink="http://www.w3.org/1999/xlink" viewBox="0 0 29.46 17.19"><defs><style>.cls-1{fill:none;}.cls-2{clip-path:url(#clip-path);}.cls-3{fill:#bc0030;}.cls-4{fill:#f3d02f;}.cls-5{fill:#419e4b;}</style><clipPath id="clip-path"><rect class="cls-1" width="29.46" height="17.19"/></clipPath></defs><g id="Layer_2" data-name="Layer 2"><g id="cá»"><g id="west_africa" data-name="west africa"><g class="cls-2"><rect class="cls-3" width="10.21" height="17.19"/><rect class="cls-4" x="10.21" width="19.25" height="8.59"/><rect class="cls-5" x="10.21" y="8.59" width="19.25" height="8.59"/><polygon points="5.1 6.04 4.32 8.47 5.53 8.86 5.1 6.04"/><polygon points="5.1 6.04 5.89 8.47 4.68 8.86 5.1 6.04"/><polygon points="7.53 7.8 4.98 7.8 4.98 9.08 7.53 7.8"/><polygon points="7.53 7.8 5.47 9.31 4.72 8.27 7.53 7.8"/><polygon points="2.68 7.8 4.74 9.31 5.49 8.27 2.68 7.8"/><polygon points="2.68 7.8 5.23 7.8 5.23 9.08 2.68 7.8"/><polygon points="6.6 10.66 5.82 8.23 4.6 8.63 6.6 10.66"/><polygon points="6.6 10.66 4.54 9.16 5.29 8.13 6.6 10.66"/><polygon points="3.6 10.66 5.67 9.16 4.92 8.13 3.6 10.66"/><polygon points="3.6 10.66 4.39 8.23 5.61 8.63 3.6 10.66"/></g></g></g></g></svg>