<svg xmlns="http://www.w3.org/2000/svg" xmlns:xlink="http://www.w3.org/1999/xlink" viewBox="0 0 29.46 17.19"><defs><style>.cls-1{fill:none;}.cls-2{clip-path:url(#clip-path);}.cls-3{fill:#fff;}.cls-4{fill:#2a43b6;}</style><clipPath id="clip-path"><rect class="cls-1" width="29.46" height="17.19"/></clipPath></defs><g id="Layer_2" data-name="Layer 2"><g id="cá»"><g id="central_ameria" data-name="central ameria"><g class="cls-2"><rect class="cls-3" width="29.46" height="17.19"/><polygon class="cls-4" points="14.73 7.64 14.44 8.55 14.89 8.69 14.73 7.64"/><polygon class="cls-4" points="14.73 7.64 15.03 8.55 14.57 8.69 14.73 7.64"/><polygon class="cls-4" points="15.64 8.3 14.68 8.3 14.68 8.78 15.64 8.3"/><polygon class="cls-4" points="15.64 8.3 14.87 8.86 14.59 8.47 15.64 8.3"/><polygon class="cls-4" points="13.82 8.3 14.6 8.86 14.88 8.47 13.82 8.3"/><polygon class="cls-4" points="13.82 8.3 14.78 8.3 14.78 8.78 13.82 8.3"/><polygon class="cls-4" points="15.29 9.37 15 8.46 14.54 8.61 15.29 9.37"/><polygon class="cls-4" points="15.29 9.37 14.52 8.8 14.8 8.42 15.29 9.37"/><polygon class="cls-4" points="14.17 9.37 14.94 8.8 14.66 8.42 14.17 9.37"/><polygon class="cls-4" points="14.17 9.37 14.46 8.46 14.92 8.61 14.17 9.37"/><polygon class="cls-4" points="19.5 9.07 19.21 9.98 19.66 10.13 19.5 9.07"/><polygon class="cls-4" points="19.5 9.07 19.8 9.98 19.35 10.13 19.5 9.07"/><polygon class="cls-4" points="20.41 9.73 19.46 9.73 19.46 10.21 20.41 9.73"/><polygon class="cls-4" points="20.41 9.73 19.64 10.29 19.36 9.9 20.41 9.73"/><polygon class="cls-4" points="18.6 9.73 19.37 10.29 19.65 9.9 18.6 9.73"/><polygon class="cls-4" points="18.6 9.73 19.55 9.73 19.55 10.21 18.6 9.73"/><polygon class="cls-4" points="20.07 10.8 19.77 9.89 19.32 10.04 20.07 10.8"/><polygon class="cls-4" points="20.07 10.8 19.29 10.24 19.57 9.85 20.07 10.8"/><polygon class="cls-4" points="18.94 10.8 19.72 10.24 19.43 9.85 18.94 10.8"/><polygon class="cls-4" points="18.94 10.8 19.24 9.89 19.69 10.04 18.94 10.8"/><polygon class="cls-4" points="19.5 6.21 19.21 7.11 19.66 7.26 19.5 6.21"/><polygon class="cls-4" points="19.5 6.21 19.8 7.11 19.35 7.26 19.5 6.21"/><polygon class="cls-4" points="20.41 6.87 19.46 6.87 19.46 7.34 20.41 6.87"/><polygon class="cls-4" points="20.41 6.87 19.64 7.43 19.36 7.04 20.41 6.87"/><polygon class="cls-4" points="18.6 6.87 19.37 7.43 19.65 7.04 18.6 6.87"/><polygon class="cls-4" points="18.6 6.87 19.55 6.87 19.55 7.34 18.6 6.87"/><polygon class="cls-4" points="20.07 7.93 19.77 7.03 19.32 7.17 20.07 7.93"/><polygon class="cls-4" points="20.07 7.93 19.29 7.37 19.57 6.99 20.07 7.93"/><polygon class="cls-4" points="18.94 7.93 19.72 7.37 19.43 6.99 18.94 7.93"/><polygon class="cls-4" points="18.94 7.93 19.24 7.03 19.69 7.17 18.94 7.93"/><polygon class="cls-4" points="9.96 9.07 9.66 9.98 10.12 10.13 9.96 9.07"/><polygon class="cls-4" points="9.96 9.07 10.25 9.98 9.8 10.13 9.96 9.07"/><polygon class="cls-4" points="10.87 9.73 9.91 9.73 9.91 10.21 10.87 9.73"/><polygon class="cls-4" points="10.87 9.73 10.09 10.29 9.81 9.9 10.87 9.73"/><polygon class="cls-4" points="9.05 9.73 9.82 10.29 10.1 9.9 9.05 9.73"/><polygon class="cls-4" points="9.05 9.73 10 9.73 10 10.21 9.05 9.73"/><polygon class="cls-4" points="10.52 10.8 10.22 9.89 9.77 10.04 10.52 10.8"/><polygon class="cls-4" points="10.52 10.8 9.75 10.24 10.03 9.85 10.52 10.8"/><polygon class="cls-4" points="9.4 10.8 10.17 10.24 9.89 9.85 9.4 10.8"/><polygon class="cls-4" points="9.4 10.8 9.69 9.89 10.14 10.04 9.4 10.8"/><polygon class="cls-4" points="9.96 6.21 9.66 7.11 10.12 7.26 9.96 6.21"/><polygon class="cls-4" points="9.96 6.21 10.25 7.11 9.8 7.26 9.96 6.21"/><polygon class="cls-4" points="10.87 6.87 9.91 6.87 9.91 7.34 10.87 6.87"/><polygon class="cls-4" points="10.87 6.87 10.09 7.43 9.81 7.04 10.87 6.87"/><polygon class="cls-4" points="9.05 6.87 9.82 7.43 10.1 7.04 9.05 6.87"/><polygon class="cls-4" points="9.05 6.87 10 6.87 10 7.34 9.05 6.87"/><polygon class="cls-4" points="10.52 7.93 10.22 7.03 9.77 7.17 10.52 7.93"/><polygon class="cls-4" points="10.52 7.93 9.75 7.37 10.03 6.99 10.52 7.93"/><polygon class="cls-4" points="9.4 7.93 10.17 7.37 9.89 6.99 9.4 7.93"/><polygon class="cls-4" points="9.4 7.93 9.69 7.03 10.14 7.17 9.4 7.93"/><rect class="cls-4" width="29.46" height="5.73"/><rect class="cls-4" y="11.46" width="29.46" height="5.73"/></g></g></g></g></svg>