<svg xmlns="http://www.w3.org/2000/svg" xmlns:xlink="http://www.w3.org/1999/xlink" viewBox="0 0 29.46 17.19"><defs><style>.cls-1{fill:none;}.cls-2{clip-path:url(#clip-path);}.cls-3{fill:#fff;}.cls-4{fill:#f0953e;}.cls-5{fill:#3b8916;}.cls-6{fill:#16007e;}</style><clipPath id="clip-path"><rect class="cls-1" width="29.46" height="17.19"/></clipPath></defs><g id="Layer_2" data-name="Layer 2"><g id="cá»"><g id="south_asia" data-name="south asia"><g class="cls-2"><rect class="cls-3" width="29.46" height="17.19"/><rect class="cls-4" width="29.46" height="5.73"/><rect class="cls-5" y="11.46" width="29.46" height="5.73"/><g class="cls-2"><path class="cls-6" d="M14.73,6a2.58,2.58,0,1,0,2.58,2.57A2.58,2.58,0,0,0,14.73,6m0,.25-.07,1.29.07.74.07-.74-.06-1.29h.19A.11.11,0,0,0,15,6.4a.12.12,0,0,0,.1-.1l.19,0-.4,1.23-.12.73.26-.69.27-1.27a.64.64,0,0,1,.18.06s0,0,0,0a.11.11,0,0,0,.11.1.1.1,0,0,0,.1-.06.56.56,0,0,1,.17.09l-.7,1.09-.31.67.43-.61.59-1.15.16.1a.14.14,0,0,0,0,.07.11.11,0,0,0,.1.11.11.11,0,0,0,.09-.05l.14.14-1,.86-.47.58.57-.48.87-1,.13.14a.13.13,0,0,0,0,.09.1.1,0,0,0,.11.1.07.07,0,0,0,.06,0l.11.17L15.59,8,15,8.45l.68-.31,1.09-.71.09.19a.09.09,0,0,0-.06.09.1.1,0,0,0,.1.11h0L17,8l-1.27.27-.7.26.74-.13L17,8a1.16,1.16,0,0,1,0,.18.12.12,0,0,0-.09.11A.11.11,0,0,0,17,8.4h0c0,.06,0,.13,0,.19l-1.3-.06L15,8.59l.74.07,1.3-.06c0,.06,0,.13,0,.19h0a.11.11,0,0,0-.11.11A.1.1,0,0,0,17,9a1.06,1.06,0,0,1,0,.19l-.44-.14-.79-.26L15,8.67h0l.7.26L17,9.2l-.06.18h0a.11.11,0,0,0-.11.1s0,0,0,0h0l0,0h0l-.09.17-1.09-.7h0L15,8.74h0l.35.25.25.18h0l1.15.59-.1.17a.07.07,0,0,0-.06,0,.1.1,0,0,0-.11.1s0,.07,0,.08l-.13.15-.87-1-.57-.48.47.57,1,.87a.86.86,0,0,1-.14.13.07.07,0,0,0-.06,0,.1.1,0,0,0-.11.1.09.09,0,0,0,0,.05l-.17.11-.59-1.16-.43-.6h0l.31.67.7,1.09-.17.09a.1.1,0,0,0-.1-.06.09.09,0,0,0-.1.1v0l-.18.06-.27-1.27-.26-.69h0l.12.73.4,1.23-.19,0a.11.11,0,0,0-.21,0h-.2l.07-1.29-.07-.74-.07.74.07,1.29h-.2a.11.11,0,0,0-.11-.11.11.11,0,0,0-.1.09l-.19,0,.4-1.23.13-.73-.26.69-.27,1.27-.19-.06s0,0,0,0a.1.1,0,0,0-.11-.1.11.11,0,0,0-.1.06l-.17-.09.7-1.09.31-.67-.43.6-.59,1.16-.16-.11a.14.14,0,0,0,0-.06.11.11,0,0,0-.11-.11.12.12,0,0,0-.08,0,.86.86,0,0,1-.14-.13l1-.87.47-.57h0L14,9.28l-.87,1L13,10.09A.09.09,0,0,0,13,10a.1.1,0,0,0-.1-.11l-.07,0c0-.05-.07-.1-.1-.16l1.15-.59.61-.43-.68.31-1.09.7a.89.89,0,0,1-.08-.17.1.1,0,0,0,.07-.09.11.11,0,0,0-.11-.11h-.05l-.06-.19,1.27-.27.7-.26-.73.12-1.24.4c0-.06,0-.12,0-.19a.1.1,0,0,0,.09-.1.11.11,0,0,0-.11-.11h0c0-.06,0-.13,0-.19l1.3.06.74-.07-.74-.07-1.3.07c0-.06,0-.13,0-.19h0a.11.11,0,0,0,.11-.11.11.11,0,0,0-.1-.11c0-.06,0-.12,0-.18l1.24.39.73.13-.7-.26L12.48,8l.06-.19h0a.11.11,0,0,0,.11-.11.1.1,0,0,0-.07-.09l.09-.18,1.09.71.68.31L13.87,8l-1.15-.59.1-.17a.08.08,0,0,0,.07,0,.09.09,0,0,0,.1-.1.1.1,0,0,0,0-.09L13.08,7l.87,1,.57.48-.47-.57-1-.87a.86.86,0,0,1,.14-.13.12.12,0,0,0,.08,0,.11.11,0,0,0,.11-.11.08.08,0,0,0,0-.06l.16-.11.59,1.15.43.61-.3-.67-.71-1.09.17-.09a.11.11,0,0,0,.1.07A.11.11,0,0,0,14,6.45s0,0,0,0a.6.6,0,0,1,.19-.06l.27,1.26.26.7-.13-.73-.4-1.23.19,0a.11.11,0,0,0,.11.09.09.09,0,0,0,.1-.1h.2"/><path class="cls-3" d="M14.73,8.21a.39.39,0,1,1-.38.38.38.38,0,0,1,.38-.38"/><path class="cls-6" d="M14.73,8.3a.3.3,0,1,1,0,.59.3.3,0,1,1,0-.59"/></g></g></g></g></g></svg>