<svg xmlns="http://www.w3.org/2000/svg" xmlns:xlink="http://www.w3.org/1999/xlink" viewBox="0 0 29.46 17.19"><defs><style>.cls-1{fill:none;}.cls-2{clip-path:url(#clip-path);}.cls-3{fill:#bd1032;}.cls-4{fill:#fff;}.cls-5{fill:#050505;}.cls-6{fill:#439b4c;}</style><clipPath id="clip-path"><rect class="cls-1" width="29.46" height="17.19"/></clipPath></defs><g id="Layer_2" data-name="Layer 2"><g id="cá»"><g id="west_asia" data-name="west asia"><g class="cls-2"><rect class="cls-3" width="29.46" height="5.73"/><rect class="cls-4" y="5.73" width="29.46" height="5.73"/><rect class="cls-5" y="11.46" width="29.46" height="5.73"/><g class="cls-2"><path class="cls-6" d="M17.27,7.54a.29.29,0,0,1-.08-.07s0,0,.07,0a.32.32,0,0,0,.33-.06l.08-.07.1,0a.21.21,0,0,0,.13,0A.28.28,0,0,0,18,7.27s0,0,.06,0a.18.18,0,0,1-.12.24.26.26,0,0,1-.17,0c-.09,0-.1,0-.15,0a.35.35,0,0,1-.37,0"/><path class="cls-6" d="M17.63,7.21A.58.58,0,0,1,17.57,7s0,0,.06,0,.07.06.06.19,0,.14-.06.1"/><path class="cls-6" d="M13.4,7.09a.57.57,0,0,0,.21.32s-.1,0-.15,0c-.25.25-1.15,1.13-1.32,1.34.49,0,1,0,1.49,0,0-.33.32-.35.53-.47.11.17.38.16.42.41V9.81H10.4a.61.61,0,0,1-.78.47c.13-.13.34-.18.42-.36a1.27,1.27,0,0,0-.25-.87,1.7,1.7,0,0,0,.44-.23c-.15.44.38.39.78.38,0-.15,0-.33-.11-.35a1.07,1.07,0,0,0,.41-.28v.6H14.2c0-.19.05-.49-.1-.49s0,.38-.11.38H11.75V8.68L12.48,8l.92-.86"/><path class="cls-6" d="M19,7.07a1.92,1.92,0,0,0,.47.25c0,.08-.09.11-.11.19V9.2c.22.05.26-.07.36-.14,0,.27.2.54.2.75H19Z"/><path class="cls-6" d="M17.77,8s.33-.28.33-.3V9.16h.24c0-.56,0-1.13,0-1.66a1.79,1.79,0,0,0,.34-.33V9.81h-2.1c0-.55,0-1.12.6-1V8.59s-.06,0-.06,0,.13-.13.41-.37v1h.24s0-1.15,0-1.18M17,9.14c0,.07.2.07.19,0s-.23-.06-.19,0"/><path class="cls-6" d="M10.91,10a.13.13,0,0,1,0,.26.13.13,0,1,1,0-.26"/><path class="cls-6" d="M14.86,7.08a2.31,2.31,0,0,0,.47.24c0,.08-.09.11-.11.2V9.21c.21,0,.26-.08.36-.14,0,.27.2.53.19.74h-.91Z"/></g></g></g></g></g></svg>