<svg xmlns="http://www.w3.org/2000/svg" xmlns:xlink="http://www.w3.org/1999/xlink" viewBox="0 0 29.46 17.19"><defs><style>.cls-1{fill:none;}.cls-2{clip-path:url(#clip-path);}.cls-3{fill:#fff;}.cls-4{fill:#313883;}</style><clipPath id="clip-path"><rect class="cls-1" width="29.46" height="17.19"/></clipPath></defs><g id="Layer_2" data-name="Layer 2"><g id="cá»"><g id="west_asia" data-name="west asia"><g class="cls-2"><rect class="cls-3" width="29.46" height="17.19"/><rect class="cls-4" y="1.36" width="29.46" height="2.76"/><rect class="cls-4" y="13.06" width="29.46" height="2.76"/><path class="cls-4" d="M17,8.59,18.1,6.66H15.84l-1.11-2-1.11,2H11.36L12.5,8.59l-1.14,1.94h2.26l1.11,2,1.11-2H18.1ZM14.33,6.66l.4-.71.4.71ZM16.6,9.21l.39.68h-.78ZM16.21,7.3H17L16.6,8Zm-1.08,3.23-.4.7-.4-.7ZM14,9.89l-.74-1.3L14,7.3H15.5l.75,1.29-.75,1.3Zm-.71,0h-.78l.39-.68ZM12.47,7.3h.78L12.86,8Z"/></g></g></g></g></svg>