<svg xmlns="http://www.w3.org/2000/svg" xmlns:xlink="http://www.w3.org/1999/xlink" viewBox="0 0 29.46 17.19"><defs><style>.cls-1{fill:none;}.cls-2{clip-path:url(#clip-path);}.cls-3{fill:#488a30;}.cls-4{fill:#f1da28;}</style><clipPath id="clip-path"><rect class="cls-1" width="29.46" height="17.19"/></clipPath></defs><g id="Layer_2" data-name="Layer 2"><g id="ther"><g id="thẻ_3_vùng_hiển_thị" data-name="thẻ 3 vùng hiển thị"><g id="JAMAICA"><g class="cls-2"><polygon class="cls-3" points="2.75 17.19 26.72 17.19 14.73 10.19 2.75 17.19"/><polygon class="cls-3" points="26.72 0 2.75 0 14.73 6.99 26.72 0"/><polygon points="0 15.59 11.98 8.59 0 1.6 0 15.59"/><polygon points="29.46 15.59 29.46 1.6 17.48 8.59 29.46 15.59"/><polygon class="cls-4" points="0 17.19 0 17.19 2.75 17.19 14.73 10.19 26.72 17.19 29.46 17.19 14.73 8.59 0 17.19"/><polygon class="cls-4" points="26.72 0 14.73 6.99 2.75 0 0 0 14.73 8.59 29.46 0 26.72 0"/><polygon class="cls-4" points="29.46 0 14.73 8.59 29.46 17.19 29.46 15.59 17.48 8.59 29.46 1.6 29.46 0"/><polygon class="cls-4" points="0 1.6 11.98 8.59 0 15.59 0 17.19 14.73 8.59 0 0 0 1.6"/></g></g></g></g></g></svg>