<svg xmlns="http://www.w3.org/2000/svg" xmlns:xlink="http://www.w3.org/1999/xlink" viewBox="0 0 29.46 17.19"><defs><style>.cls-1{fill:none;}.cls-2{clip-path:url(#clip-path);}.cls-3{fill:#fff;}.cls-4{fill:#2a680b;}.cls-5{fill:#aa0017;}</style><clipPath id="clip-path"><rect class="cls-1" width="29.46" height="17.19"/></clipPath></defs><g id="Layer_2" data-name="Layer 2"><g id="cá»"><g id="east_africa" data-name="east africa"><g class="cls-2"><rect class="cls-3" width="29.46" height="17.19"/><rect width="29.46" height="5.16"/><rect class="cls-4" y="12.03" width="29.46" height="5.16"/><g class="cls-2"><path d="M11.54,13.7l.18.1,5-8.69c.29-.08.45-.36.61-.63a6.06,6.06,0,0,0,.72-1.9,6.42,6.42,0,0,0-1.28,1.57,1.15,1.15,0,0,0-.24.85Z"/><path d="M11.73,13.82l-.2-.11,5-8.71a1.14,1.14,0,0,1,.24-.85,6.23,6.23,0,0,1,1.28-1.58,5.3,5.3,0,0,1-.7,1.91c-.16.28-.32.57-.62.65l-5,8.69ZM18.06,2.58a6.7,6.7,0,0,0-1.25,1.58,1.17,1.17,0,0,0-.25.84l-5,8.7.17.08,5-8.67c.3-.09.46-.37.62-.64a6.11,6.11,0,0,0,.72-1.89Z"/><path class="cls-3" d="M11.54,13.7l.18.1,5-8.69c.29-.08.45-.36.61-.63a6.06,6.06,0,0,0,.72-1.9,6.42,6.42,0,0,0-1.28,1.57,1.15,1.15,0,0,0-.24.85Z"/><path d="M17.67,13.7l-.19.1-5-8.69c-.29-.08-.45-.36-.61-.63a6.26,6.26,0,0,1-.73-1.9,6.31,6.31,0,0,1,1.29,1.57,1.15,1.15,0,0,1,.24.85Z"/><path d="M17.48,13.82h0l-5-8.69c-.29-.07-.45-.36-.61-.64a6.22,6.22,0,0,1-.73-1.9,5.6,5.6,0,0,1,1.31,1.57,1.15,1.15,0,0,1,.24.86l5,8.68-.2.13ZM11.13,2.59a6.94,6.94,0,0,0,.74,1.88c.16.27.32.55.61.63l5,8.68.17-.1L12.65,5a1.18,1.18,0,0,0-.25-.85,6.16,6.16,0,0,0-1.27-1.57Z"/><path class="cls-3" d="M17.67,13.7l-.19.1-5-8.69c-.29-.08-.45-.36-.61-.63a6.26,6.26,0,0,1-.73-1.9,6.31,6.31,0,0,1,1.29,1.57,1.15,1.15,0,0,1,.24.85Z"/><path class="cls-5" d="M0,6v5.15H12.57c.32.86,1.39,2.58,2,2.58s1.72-1.72,2-2.58H29.46V6H16.64c-.32-.86-1.39-2.58-2-2.58s-1.71,1.72-2,2.58Z"/><path d="M16.64,11.17a7.23,7.23,0,0,0,.54-2.58A7.18,7.18,0,0,0,16.64,6a7.38,7.38,0,0,0-.53,2.57,7.43,7.43,0,0,0,.53,2.58Z"/><path d="M12.57,11.17A7.23,7.23,0,0,1,12,8.59,7.18,7.18,0,0,1,12.57,6a7.38,7.38,0,0,1,.53,2.57,7.43,7.43,0,0,1-.53,2.58Z"/><path class="cls-3" d="M14.6,8c.24,0,.43.29.43.64s-.19.65-.43.65-.43-.29-.43-.65.2-.64.43-.64Z"/><path class="cls-3" d="M14.71,9.22a5.46,5.46,0,0,1,.43,2.26,5.44,5.44,0,0,1-.43,2.25Z"/><path class="cls-3" d="M14.5,8a5.46,5.46,0,0,1-.43-2.26,5.46,5.46,0,0,1,.43-2.26Z"/><path class="cls-3" d="M14.5,9.22a5.46,5.46,0,0,0-.43,2.26,5.44,5.44,0,0,0,.43,2.25Z"/><path class="cls-3" d="M14.71,8a5.46,5.46,0,0,0,.43-2.26,5.46,5.46,0,0,0-.43-2.26Z"/></g></g></g></g></g></svg>