<svg xmlns="http://www.w3.org/2000/svg" xmlns:xlink="http://www.w3.org/1999/xlink" viewBox="0 0 29.46 17.19"><defs><style>.cls-1{fill:none;}.cls-2{clip-path:url(#clip-path);}.cls-3{fill:#bc0030;}.cls-4{fill:#f3d02f;}.cls-5{fill:#b49b21;}.cls-6{fill:#223e84;}.cls-7{fill:#fff;}</style><clipPath id="clip-path"><rect class="cls-1" width="29.46" height="17.19"/></clipPath></defs><g id="Layer_2" data-name="Layer 2"><g id="cá»"><g id="micronesia"><g class="cls-2"><rect class="cls-3" width="29.46" height="17.19"/><g class="cls-2"><path class="cls-4" d="M17.16,9.39c.43.12,1.08.09,1.37.43-.43-.11-1,.58-1.37.43.36.25-5.31,0-4.85,0-.43-.12-1.09-.09-1.38-.43.43.12,1-.58,1.38-.43-.37-.25-1-.45-1.15-.87.37.26,1.11-.22,1.44.07-.26-.37-.79-.77-.78-1.21.26.36,1.12.17,1.33.55-.12-.43-.46-1-.32-1.4.12.43,1,.54,1.06,1,0-.45-.12-1.09.18-1.43,0,.44.74.84.66,1.28.19-.41.29-1.06.66-1.28-.19.4.43,1,.18,1.43.32-.32.62-.9,1.06-1-.31.32,0,1.12-.32,1.4.41-.18.88-.63,1.33-.55-.4.19-.36,1.06-.78,1.21.45,0,1-.29,1.44-.07-.44,0-.69.87-1.14.87Z"/><path class="cls-5" d="M16,10.39c-.88,0-3.27-.07-3.65-.11h-.05l-.38-.07a1.56,1.56,0,0,1-1-.36l-.06-.07.09,0a1,1,0,0,0,.66-.21,1.21,1.21,0,0,1,.57-.24,2.8,2.8,0,0,0-.25-.14c-.33-.18-.68-.36-.79-.67l0-.08.08.05a1,1,0,0,0,.69,0,1.32,1.32,0,0,1,.62,0l-.19-.23c-.25-.28-.52-.57-.51-.89V7.29l.06.07c.11.17.38.22.64.26a1.18,1.18,0,0,1,.59.19L13,7.54a1.6,1.6,0,0,1-.18-1l0-.09,0,.09c.05.2.29.33.51.46a1.34,1.34,0,0,1,.5.39c0-.1,0-.2,0-.3a1.46,1.46,0,0,1,.19-1L14.11,6v.09c0,.21.16.41.33.61a1.27,1.27,0,0,1,.33.53c0-.09.06-.18.1-.27a1.64,1.64,0,0,1,.52-.9l.08,0,0,.08a.92.92,0,0,0,.1.67,1.2,1.2,0,0,1,.13.62l.18-.22a1.54,1.54,0,0,1,.79-.66h.1l-.07.06a1,1,0,0,0-.14.68,1.37,1.37,0,0,1-.09.62l.25-.15a1.5,1.5,0,0,1,1-.35l.09,0-.09,0c-.18.08-.28.34-.36.58a1.3,1.3,0,0,1-.29.55l.28,0a1.63,1.63,0,0,1,1,0l.09,0h-.1c-.2,0-.37.22-.53.42a1.35,1.35,0,0,1-.47.43l.28,0a1.56,1.56,0,0,1,1,.36l.06.07-.09,0a1,1,0,0,0-.66.22,1.06,1.06,0,0,1-.66.22s-.1.1-1.24.1Zm-3.65-.17c.26,0,2.25.11,3.65.11a3.76,3.76,0,0,0,1.19-.07l0,0c.18.07.43-.07.66-.2a1.18,1.18,0,0,1,.62-.24,1.8,1.8,0,0,0-.88-.28,2.61,2.61,0,0,1-.42-.08V9.36c.22,0,.39-.21.56-.42a1.23,1.23,0,0,1,.49-.43,1.94,1.94,0,0,0-.92,0,2.37,2.37,0,0,1-.42.08l0-.06c.2-.07.29-.32.38-.58a1.21,1.21,0,0,1,.32-.58,1.9,1.9,0,0,0-.85.34,3,3,0,0,1-.37.22l0,0c.16-.13.15-.4.15-.68a1.33,1.33,0,0,1,.1-.65,1.79,1.79,0,0,0-.68.62,3,3,0,0,1-.28.33l0,0c.12-.19,0-.44-.08-.7a1.19,1.19,0,0,1-.13-.64,1.88,1.88,0,0,0-.43.82c-.05.14-.1.28-.15.4l-.06,0c0-.21-.13-.41-.32-.62A1.37,1.37,0,0,1,14,6.16a1.59,1.59,0,0,0-.12.91c0,.16,0,.31,0,.44h-.06c0-.21-.27-.34-.51-.48a1.12,1.12,0,0,1-.51-.41,1.81,1.81,0,0,0,.19.9,4.14,4.14,0,0,1,.15.41l-.06,0c-.1-.19-.36-.23-.64-.28a1.13,1.13,0,0,1-.63-.21,1.76,1.76,0,0,0,.49.78,2,2,0,0,1,.28.33l0,0c-.14-.12-.41-.09-.7,0a1.25,1.25,0,0,1-.66,0,1.71,1.71,0,0,0,.73.56,3.28,3.28,0,0,1,.37.22l0,.05c-.19-.07-.44.07-.67.2a1.18,1.18,0,0,1-.62.24,1.8,1.8,0,0,0,.88.28l.42.08Z"/><polygon class="cls-4" points="12.69 9.82 11.13 9.19 12.81 9.12 11.57 8 13.16 8.51 12.38 7.02 13.71 8.05 13.48 6.39 14.38 7.81 14.73 6.17 15.09 7.81 15.98 6.39 15.75 8.05 17.08 7.02 16.3 8.51 17.89 8 16.65 9.12 18.33 9.19 16.77 9.82 18.33 10.45 11.13 10.45 12.69 9.82"/><path class="cls-5" d="M18.33,10.48H11.14l0-.05,1.49-.61-1.49-.61V9.16l1.61-.06L11.55,8l0,0,1.53.49L12.36,7l0,0,1.27,1-.22-1.59.06,0,.85,1.36.34-1.57h.06l.34,1.57L16,6.37l.05,0L15.79,8l1.27-1,0,0-.74,1.42L17.88,8l0,0L16.72,9.1l1.61.06v.05l-1.49.61,1.49.61v.05Zm-7-.05h6.9L16.7,9.82l1.49-.61-1.61-.06,1.19-1.09-1.53.5L17,7.13l-1.27,1,.21-1.6-.86,1.36-.34-1.57-.34,1.57-.86-1.36.22,1.6-1.28-1,.75,1.43-1.53-.5,1.19,1.09-1.61.06,1.49.61-1.48.61Z"/><path class="cls-4" d="M16.76,9.82a2,2,0,1,1-2-2,2,2,0,0,1,2,2Z"/><path class="cls-5" d="M14.73,11.88a2.06,2.06,0,1,1,2.06-2.06,2.06,2.06,0,0,1-2.06,2.06Zm0-4.06a2,2,0,1,0,2,2,2,2,0,0,0-2-2Z"/><rect class="cls-6" y="10.49" width="29.46" height="6.69"/><path class="cls-7" d="M0,10.87c1,0,2,.63,3,.63s2-.63,2.94-.63,2,.63,3,.63,2-.63,2.94-.63,2,.63,3,.63,2-.63,2.95-.63,2,.63,2.94.63,2-.63,2.95-.63,2,.63,2.95.63,2-.63,2.94-.63v-1c-1,0-2,.63-2.94.63s-2-.63-2.95-.63-2,.63-2.95.63-2-.63-2.94-.63-2,.63-2.95.63-2-.63-3-.63-2,.63-2.94.63-2-.63-2.95-.63-2,.63-2.94.63S1,9.82,0,9.82Z"/><path class="cls-7" d="M0,13c1,0,2,.63,3,.63s2-.63,2.94-.63,2,.63,3,.63,2-.63,2.94-.63,2,.63,3,.63,2-.63,2.95-.63,2,.63,2.94.63,2-.63,2.95-.63,2,.63,2.95.63,2-.63,2.94-.63V11.92c-1,0-2,.64-2.94.64s-2-.64-2.95-.64-2,.64-2.95.64-2-.64-2.94-.64-2,.64-2.95.64-2-.64-3-.64-2,.64-2.94.64-2-.64-2.95-.64-2,.64-2.94.64S1,11.92,0,11.92Z"/><path class="cls-7" d="M0,15.08c1,0,2,.63,3,.63s2-.63,2.94-.63,2,.63,3,.63,2-.63,2.94-.63,2,.63,3,.63,2-.63,2.95-.63,2,.63,2.94.63,2-.63,2.95-.63,2,.63,2.95.63,2-.63,2.94-.63V14c-1,0-2,.63-2.94.63s-2-.63-2.95-.63-2,.63-2.95.63-2-.63-2.94-.63-2,.63-2.95.63-2-.63-3-.63-2,.63-2.94.63S6.87,14,5.89,14s-2,.63-2.94.63S1,14,0,14Z"/><path class="cls-4" d="M15.4,4.9h1.09s-.1-.14-.18-.15a6.19,6.19,0,0,0-.82,0Z"/><path class="cls-5" d="M16.51,4.94H15.33l.14-.14.39,0a1.35,1.35,0,0,1,.45,0c.09,0,.22.11.21.18v0Zm-1.05-.06h1a.32.32,0,0,0-.15-.09,1.24,1.24,0,0,0-.43,0,2.11,2.11,0,0,1-.38,0l0,0Z"/><path class="cls-4" d="M13.23,4.65a1.69,1.69,0,0,0,1.23.55,22.89,22.89,0,0,0,2.2-.67l-2.8-.06c-.36-.25-.63-.22-.82-.06h-.53c-.08,0,.06.22.17.22Z"/><path class="cls-5" d="M14.46,5.23h0a1.69,1.69,0,0,1-1.25-.56h-.53a.27.27,0,0,1-.22-.19.06.06,0,0,1,0-.08l.55,0a.67.67,0,0,1,.84.07l2.78,0v0a6.33,6.33,0,0,0-1.09.36,3.14,3.14,0,0,1-1.11.32Zm-1.09-.91a.44.44,0,0,0-.31.11l-.55,0a.21.21,0,0,0,.17.16h.55a1.67,1.67,0,0,0,1.23.55v0a3,3,0,0,0,1.09-.31,7.42,7.42,0,0,1,.87-.31l-2.56,0a1,1,0,0,0-.49-.18Z"/><path class="cls-4" d="M14.49,4.46a1,1,0,0,0-.92-.73,18,18,0,0,1-2.52-.37A3.18,3.18,0,0,0,12.62,4a3.11,3.11,0,0,1,1.45.51Z"/><path class="cls-5" d="M14.53,4.49h-.46A3.05,3.05,0,0,0,12.61,4,3.21,3.21,0,0,1,11,3.38l0,0a12.58,12.58,0,0,0,2,.31l.51.05a1,1,0,0,1,.95.76v0ZM11.16,3.42a3.53,3.53,0,0,0,1.46.5,3.27,3.27,0,0,1,1.47.51h.37a1,1,0,0,0-.9-.67l-.5,0a13.07,13.07,0,0,1-1.9-.29Z"/><path class="cls-4" d="M14.15,4.77c.17.22.43.21.71,0s.58-.71.72-.72a7.59,7.59,0,0,0,2.83-.82,15.19,15.19,0,0,1-2.23.23c-1.28,0-1.43.59-1.95,1Z"/><path class="cls-5" d="M14.47,5a.42.42,0,0,1-.34-.17,0,0,0,0,1,0,0,0,0,0,0,1,0,0c.2.25.5.11.66,0a2.16,2.16,0,0,0,.4-.4c.14-.18.25-.31.34-.32a7.49,7.49,0,0,0,2.67-.74l-.09,0a16,16,0,0,1-2,.19,1.82,1.82,0,0,0-1.59.67,3.47,3.47,0,0,1-.34.32s0,0,0,0a0,0,0,0,1,0,0,2.46,2.46,0,0,0,.33-.31,1.91,1.91,0,0,1,1.64-.69,14.43,14.43,0,0,0,2-.19l.25,0,0,.06a7.77,7.77,0,0,1-2.85.82c-.06,0-.18.15-.3.29a2.05,2.05,0,0,1-.41.42.71.71,0,0,1-.4.15Z"/><path class="cls-5" d="M14.35,4.55h0s0,0,0,0a3.75,3.75,0,0,0,.44-.35l.31-.24a2.27,2.27,0,0,1,1.45-.33,10.13,10.13,0,0,0,1.67-.3h0a.05.05,0,0,1,0,0s0,0,0,0h-.05a9.1,9.1,0,0,1-1.68.29A2.31,2.31,0,0,0,15.12,4l-.3.24a5.37,5.37,0,0,1-.45.35Z"/><path class="cls-5" d="M14,4.45c-.07-.39-.43-.52-.94-.6l-.43-.06a8.68,8.68,0,0,1-1.2-.22,1.39,1.39,0,0,1-.26-.1l-.12-.05,0,0,.12,0a1.39,1.39,0,0,0,.26.1,8.25,8.25,0,0,0,1.19.21l.43.06c.53.09.91.22,1,.64l-.06,0Z"/><path class="cls-5" d="M14.39,5.09h-.15a0,0,0,0,1,0,0l0,0a2.33,2.33,0,0,0,1.3-.33s0,0,0,0,0,0,0,0a2.47,2.47,0,0,1-1.17.34Z"/><path class="cls-5" d="M13.14,4.54H12.5l0,0a0,0,0,0,1,0,0h.64a0,0,0,0,1,0,0,0,0,0,0,1,0,0Z"/><path class="cls-5" d="M13.42,4.44a.08.08,0,0,1-.08.08.08.08,0,0,1,0-.16.08.08,0,0,1,.08.08Z"/><path class="cls-5" d="M13.34,4.55a.11.11,0,0,1,0-.22.11.11,0,0,1,0,.22Zm0-.16a.05.05,0,0,0-.05.05.05.05,0,0,0,.1,0,0,0,0,0,0-.05-.05Z"/></g></g></g></g></g></svg>