<svg xmlns="http://www.w3.org/2000/svg" xmlns:xlink="http://www.w3.org/1999/xlink" viewBox="0 0 29.46 17.19"><defs><style>.cls-1{fill:none;}.cls-2{clip-path:url(#clip-path);}.cls-3{fill:#d50037;}.cls-4{fill:#f9f02a;}</style><clipPath id="clip-path"><rect class="cls-1" width="29.46" height="17.19"/></clipPath></defs><g id="Layer_2" data-name="Layer 2"><g id="cá»"><g id="central_asia" data-name="central asia"><g class="cls-2"><rect class="cls-3" width="29.46" height="17.19"/><g class="cls-2"><path class="cls-4" d="M19.91,8.61c-.67.17-1.39-.37-2-.25v0c.6-.28,1.58,0,1.94-.53-.63.27-1.42-.14-2,.06v0c.54-.37,1.56-.21,1.82-.82-.57.36-1.41.08-2,.37v0c.48-.44,1.51-.45,1.67-1.09-.51.44-1.38.31-1.88.67v0c.4-.51,1.41-.68,1.47-1.34-.43.52-1.31.52-1.75,1l0,0C17.48,6,18.44,5.62,18.4,5c-.35.58-1.21.72-1.58,1.22l0,0c.24-.61,1.13-1.08,1-1.72-.25.62-1.08.89-1.37,1.44l0,0c.14-.63.94-1.23.7-1.84-.15.65-.92,1.05-1.12,1.63h0c0-.65.73-1.37.4-1.93,0,.67-.74,1.18-.85,1.78h0c-.06-.65.51-1.47.1-2,.06.67-.55,1.28-.57,1.9h0c-.16-.62.28-1.52-.21-2,.16.66-.34,1.36-.26,2h0c-.26-.6,0-1.55-.52-1.9.27.62-.12,1.39.06,2h0c-.34-.55-.2-1.54-.8-1.8.35.57.09,1.4.36,2h0C13.06,5.18,13,4.18,12.41,4c.44.51.31,1.37.67,1.87l0,0c-.5-.41-.68-1.41-1.33-1.47.52.43.52,1.31.95,1.75l0,0c-.56-.33-.89-1.28-1.54-1.25.58.35.71,1.22,1.22,1.59l0,0c-.61-.23-1.09-1.13-1.73-1,.63.25.9,1.1,1.46,1.38l0,0c-.64-.13-1.25-1-1.86-.71.66.15,1.06,1,1.66,1.13v0c-.66,0-1.39-.75-2-.41.68,0,1.2.77,1.82.86v0c-.65.09-1.5-.52-2-.1.68-.06,1.31.59,1.94.57v0c-.63.19-1.56-.28-2,.22.68-.17,1.4.37,2,.25v0c-.59.29-1.59,0-1.95.54.64-.27,1.44.15,2-.07h0c-.54.39-1.58.22-1.85.84.59-.37,1.45-.07,2-.39v0c-.47.47-1.53.46-1.7,1.12.52-.46,1.43-.3,1.92-.7h0c-.38.54-1.44.7-1.51,1.38.45-.54,1.37-.52,1.8-1h0c-.28.6-1.32.92-1.27,1.61.36-.61,1.28-.73,1.62-1.28h0c-.18.64-1.16,1.12-1,1.79.26-.65,1.16-.92,1.4-1.52h0c-.08.67-1,1.3-.72,1.93.16-.68,1-1.09,1.15-1.71h0c0,.67-.76,1.43-.41,2,.05-.7.81-1.23.86-1.88h0c.13.66-.52,1.53-.09,2.06-.06-.7.62-1.34.56-2h0c.24.63-.27,1.6.24,2.06-.17-.69.4-1.43.24-2.06h0c.33.59,0,1.62.56,2-.28-.65.16-1.47-.08-2.06h0c.42.53.23,1.61.86,1.88-.37-.59-.06-1.47-.4-2h0c.49.46.48,1.55,1.14,1.72-.46-.53-.29-1.44-.71-1.93h0c.55.38.71,1.45,1.39,1.52-.54-.45-.52-1.37-1-1.8h0c.6.28.92,1.32,1.61,1.28-.6-.36-.73-1.28-1.27-1.62h0c.64.2,1.12,1.16,1.78,1-.65-.26-.91-1.14-1.5-1.39v0c.66.1,1.28,1,1.91.72-.67-.16-1.07-1-1.69-1.14v0c.66,0,1.41.75,2,.41-.69,0-1.21-.78-1.84-.86v0c.65-.1,1.5.52,2,.1-.68.06-1.31-.59-1.94-.57v0c.63-.19,1.56.28,2-.22m-2.37.32a1.86,1.86,0,0,1-.08.41h.06l-.06,0c0,.13-.09.26-.14.39l.05,0h-.06a2.12,2.12,0,0,1-.21.36l.06,0h-.07a2.6,2.6,0,0,1-.26.32l.05,0-.06,0c-.1.1-.2.2-.31.29l0,0-.06,0a2.71,2.71,0,0,1-.35.24l0,0-.06,0a2.64,2.64,0,0,1-.38.18l0,0,0,0a2.64,2.64,0,0,1-.4.12.14.14,0,0,0,0,.06l0-.06a3,3,0,0,1-.42.06.43.43,0,0,1,0,.05l0-.05h-.12l-.3,0v.06l0-.06a2.7,2.7,0,0,1-.41-.08.13.13,0,0,0,0,.06s0,0,0-.06l-.39-.14,0,.05v-.06a2.12,2.12,0,0,1-.36-.21l0,.06V11a3.92,3.92,0,0,1-.32-.25l0,0s0,0,0-.06l-.29-.3,0,0,0-.07a2.08,2.08,0,0,1-.24-.34l0,0,0,0a2.59,2.59,0,0,1-.17-.38l-.06,0,0-.05a2.64,2.64,0,0,1-.12-.4l-.05,0a.1.1,0,0,1,.05,0,3,3,0,0,1-.06-.42h0l0,0V8.61c0-.1,0-.2,0-.3H11.9l.06,0A2.7,2.7,0,0,1,12,7.88H12l.06,0c0-.13.09-.26.14-.39h0a1.58,1.58,0,0,1,.2-.36l-.06,0h.07a2.6,2.6,0,0,1,.26-.32l-.05,0,.06,0c.1-.1.2-.2.31-.29l-.05,0,.07,0a2.08,2.08,0,0,1,.34-.24l0,0,0,0A2.59,2.59,0,0,1,13.75,6l0-.06,0,.05a2.64,2.64,0,0,1,.4-.12s0,0,0-.05a.1.1,0,0,1,0,.05l.42-.06a.43.43,0,0,1,0,0l0,0h.12l.3,0V5.76l0,.06a1.86,1.86,0,0,1,.41.08.13.13,0,0,0,0-.06l0,.06L15.9,6l0,0v.07a1.58,1.58,0,0,1,.36.2l0,0v.06a2.6,2.6,0,0,1,.32.26l0,0,0,.06c.1.1.2.2.29.31l0,0,0,.07a2.08,2.08,0,0,1,.24.34l0,0,0,.06a2.64,2.64,0,0,1,.18.38l.05,0-.05,0a2.64,2.64,0,0,1,.12.4l.06,0,0,0c0,.14,0,.28,0,.42h.05l-.05,0v.12c0,.1,0,.2,0,.3h.06l-.06,0"/><path class="cls-4" d="M14.48,7a3.36,3.36,0,0,0-1.26-.28l-.11.1a3.74,3.74,0,0,1,1.21.26A.8.8,0,0,1,14.48,7"/><path class="cls-4" d="M16.1,6.56a2.29,2.29,0,0,0-2.7,0,3.81,3.81,0,0,1,1.35.31,3.81,3.81,0,0,1,1.35-.31"/><path class="cls-4" d="M14.1,7.22A3.74,3.74,0,0,0,13,7l-.07.09A3.45,3.45,0,0,1,14,7.32l.13-.1"/><path class="cls-4" d="M15.07,7.85a.69.69,0,0,0-.13.11A3.43,3.43,0,0,1,16,10.38l.2-.15a3.46,3.46,0,0,0-1.14-2.38"/><path class="cls-4" d="M15.19,7.08a3.62,3.62,0,0,1,1.2-.26l-.11-.1A3.36,3.36,0,0,0,15,7l.17.08"/><path class="cls-4" d="M15.45,7.59l-.16.1a3.64,3.64,0,0,1,1.22,2.24l.18-.25a3.75,3.75,0,0,0-1.24-2.09"/><path class="cls-4" d="M13.79,7.46a3.18,3.18,0,0,0-1-.27,2.39,2.39,0,0,0-.23,2,3.89,3.89,0,0,1,1.2-1.77"/><path class="cls-4" d="M15.54,7.32a3.31,3.31,0,0,1,1.05-.27L16.52,7a3.74,3.74,0,0,0-1.12.26l.14.1"/><path class="cls-4" d="M13.8,10.45v.1a2.25,2.25,0,0,0,1.9,0v-.1a3.3,3.3,0,0,0-.95-2.32,3.3,3.3,0,0,0-.95,2.32"/><path class="cls-4" d="M14.75,7.12l-.16.09.16.09.16-.09-.16-.09"/><path class="cls-4" d="M15.71,7.46a3.89,3.89,0,0,1,1.2,1.77,2.39,2.39,0,0,0-.23-2,3.18,3.18,0,0,0-1,.27"/><path class="cls-4" d="M14.56,8a.69.69,0,0,0-.13-.11,3.46,3.46,0,0,0-1.14,2.38l.2.15A3.43,3.43,0,0,1,14.56,8"/><path class="cls-4" d="M14.61,7.69l.14.1.14-.1-.14-.1-.14.1"/><path class="cls-4" d="M14.21,7.69l-.16-.1a3.8,3.8,0,0,0-1.24,2.09l.18.25a3.64,3.64,0,0,1,1.22-2.24"/><path class="cls-4" d="M15,7.44l.14.1.16-.09-.13-.1L15,7.44"/><path class="cls-4" d="M14.23,7.45l.16.09.14-.1-.16-.09-.14.1"/></g></g></g></g></g></svg>