<svg xmlns="http://www.w3.org/2000/svg" xmlns:xlink="http://www.w3.org/1999/xlink" viewBox="0 0 29.46 17.19"><defs><style>.cls-1{fill:none;}.cls-2{clip-path:url(#clip-path);}.cls-3{fill:#1c2a7d;}.cls-4{fill:#f6d849;}.cls-5{fill:#bc0030;}.cls-6{fill:#ed00fd;}</style><clipPath id="clip-path"><rect class="cls-1" width="29.46" height="17.19"/></clipPath></defs><g id="Layer_2" data-name="Layer 2"><g id="cá»"><g id="west_europee" data-name="west europee"><g class="cls-2"><rect class="cls-3" width="29.46" height="17.19"/><g class="cls-2"><path class="cls-4" d="M6.2,3.5,6.14,5.29H4.33A2.62,2.62,0,0,1,3.92,4a.76.76,0,0,1,.8-.75A7.36,7.36,0,0,1,6.2,3.5Z"/><path class="cls-4" d="M4.14,3.58v0Z"/><path d="M4.14,4.64s0,0,0,0v-1s0,0,0,0v1a0,0,0,0,1,0,0Z"/><path class="cls-4" d="M4.28,3.48v0Z"/><path d="M4.28,4.88a0,0,0,0,1,0,0V3.48s0,0,0,0V4.86s0,0,0,0Z"/><path class="cls-4" d="M4.43,3.41v0Z"/><path d="M4.43,5.07l0,0V3.41a0,0,0,1,1,0,0V5.05a0,0,0,0,1,0,0Z"/><path class="cls-4" d="M4.58,3.37v0Z"/><path d="M4.58,4.68s0,0,0,0V3.37s0,0,0,0V4.66l0,0Z"/><path class="cls-4" d="M4.72,3.37v0Z"/><path d="M4.72,4.69a0,0,0,0,1,0,0V3.37a0,0,0,1,1,0,0v1.3a0,0,0,0,1,0,0Z"/><path class="cls-4" d="M4.87,3.32v0Z"/><path d="M4.87,4.69l0,0V3.32s0,0,0,0V4.67a0,0,0,0,1,0,0Z"/><path class="cls-4" d="M5,3.32v0Z"/><path d="M5,4.69a0,0,0,0,1,0,0V3.32s0,0,0,0V4.67s0,0,0,0Z"/><path class="cls-4" d="M5.16,3.33v0Z"/><path d="M5.16,4.7a0,0,0,0,1,0,0V3.33s0,0,0,0V4.68a0,0,0,0,1,0,0Z"/><path class="cls-4" d="M5.3,3.35v0Z"/><path d="M5.3,4.71l0,0V3.35a0,0,0,0,1,0,0V4.69s0,0,0,0Z"/><path class="cls-4" d="M5.45,3.43v0Z"/><path d="M5.45,4.8l0,0V3.43s0,0,0,0V4.78l0,0Z"/><path class="cls-4" d="M5.6,3.45v0Z"/><path d="M5.6,5s0,0,0,0V3.45a0,0,0,0,1,0,0V5a0,0,0,0,1,0,0Z"/><path class="cls-4" d="M5.74,3.45v0Z"/><path d="M5.74,4.81l0,0V3.45a0,0,0,1,1,0,0V4.79l0,0Z"/><path class="cls-4" d="M5.89,3.45v0Z"/><path d="M5.89,4.81l0,0V3.45a0,0,0,1,1,0,0V4.79a0,0,0,0,1,0,0Z"/><path d="M5.05,3.38c.31.05,1,.37.91.79-.11.61-.46.37-.93.28l-.36.12c-.13.13-.31.25-.44.09H4v.82H6.35v-2Z"/><path d="M6.35,5.51H4l0-.85.23,0c.17.17.34,0,.43-.09L5,4.43l.27.06a1.45,1.45,0,0,0,.33.06c.12,0,.26,0,.32-.38a.41.41,0,0,0-.08-.31,1.46,1.46,0,0,0-.81-.46,0,0,0,0,1,0,0s0,0,0,0l1.3.11,0,2s0,0,0,0ZM4.21,4.67H4l0,.8,2.29,0v-2L5.27,3.42a1.3,1.3,0,0,1,.63.42A.47.47,0,0,1,6,4.18c-.05.29-.16.42-.36.42a1.58,1.58,0,0,1-.34-.07L5,4.47l-.34.12a.5.5,0,0,1-.3.17.21.21,0,0,1-.17-.09Z"/><path class="cls-4" d="M6.24,3.24a.15.15,0,0,1-.14.14A.15.15,0,0,1,6,3.24H6a.16.16,0,0,1,.14-.15.15.15,0,0,1,.15.15Z"/><path d="M6.1,3.4a.17.17,0,1,1,0-.33.17.17,0,0,1,.17.17.16.16,0,0,1-.16.16Zm0-.28A.11.11,0,0,0,6,3.24a.12.12,0,0,0,.12.12.12.12,0,0,0,.11-.12.12.12,0,0,0-.12-.12Z"/><path class="cls-4" d="M5.92,3.16a.14.14,0,1,1-.28,0h0a.14.14,0,0,1,.28,0Z"/><path d="M5.78,3.32a.16.16,0,1,1,0-.32.16.16,0,0,1,.16.16.21.21,0,0,1-.05.12.15.15,0,0,1-.11,0Zm0-.28a.12.12,0,0,0-.12.12.12.12,0,0,0,.2.09.18.18,0,0,0,0-.09A.12.12,0,0,0,5.78,3Z"/><path class="cls-4" d="M5.6,3.08a.14.14,0,0,1-.14.14.15.15,0,0,1-.15-.14h0a.14.14,0,0,1,.14-.14.15.15,0,0,1,.15.14Z"/><path d="M5.46,3.24h0a.16.16,0,0,1,0-.32.17.17,0,0,1,.17.16.16.16,0,0,1-.16.16Zm0-.28a.12.12,0,0,0,0,.24.12.12,0,0,0,0-.24Z"/><path class="cls-4" d="M5.27,3A.14.14,0,1,1,5,3H5a.15.15,0,0,1,.14-.15A.14.14,0,0,1,5.27,3Z"/><path d="M5.13,3.19A.16.16,0,0,1,5,3a.17.17,0,0,1,.16-.17A.16.16,0,0,1,5.29,3a.16.16,0,0,1-.16.17Zm0-.28A.12.12,0,0,0,5,3a.12.12,0,0,0,.12.11A.11.11,0,0,0,5.25,3a.12.12,0,0,0-.12-.12Z"/><path class="cls-4" d="M5,3a.14.14,0,0,1-.14.14A.14.14,0,0,1,4.67,3h0a.14.14,0,0,1,.14-.14A.15.15,0,0,1,5,3Z"/><path d="M4.81,3.16A.18.18,0,0,1,4.64,3a.17.17,0,0,1,.17-.16A.16.16,0,0,1,5,3a.17.17,0,0,1-.16.17Zm0-.29A.12.12,0,0,0,4.69,3a.12.12,0,0,0,.12.12A.12.12,0,0,0,4.93,3a.13.13,0,0,0-.12-.12Z"/><path class="cls-4" d="M4.63,3a.14.14,0,1,1-.28,0h0a.14.14,0,0,1,.28,0Z"/><path d="M4.49,3.17A.16.16,0,0,1,4.33,3a.15.15,0,0,1,0-.11A.17.17,0,0,1,4.65,3a.16.16,0,0,1-.16.16Zm0-.28a.12.12,0,0,0-.09,0,.11.11,0,0,0,0,.08.12.12,0,0,0,.24,0,.12.12,0,0,0-.12-.12Z"/><path class="cls-4" d="M4.33,3.12a.14.14,0,1,1-.28,0h0A.15.15,0,0,1,4.19,3a.15.15,0,0,1,.14.14Z"/><path d="M4.19,3.28A.17.17,0,0,1,4,3.12.17.17,0,0,1,4.3,3a.16.16,0,0,1-.11.28Zm0-.28a.12.12,0,0,0-.12.12.11.11,0,0,0,.12.11.12.12,0,0,0,.12-.11A.12.12,0,0,0,4.19,3Z"/><path class="cls-4" d="M4.07,3.3a.14.14,0,1,1-.28,0h0a.14.14,0,1,1,.28,0Z"/><path d="M3.93,3.47a.17.17,0,0,1-.16-.17.16.16,0,0,1,.32,0,.17.17,0,0,1-.16.17Zm0-.29a.13.13,0,0,0-.12.12.12.12,0,0,0,.12.12.12.12,0,0,0,.12-.12.12.12,0,0,0-.12-.12Z"/><path class="cls-4" d="M3.89,3.56a.14.14,0,1,1-.28,0h0a.14.14,0,0,1,.28,0Z"/><path d="M3.75,3.73a.17.17,0,0,1-.16-.17.15.15,0,0,1,0-.11.16.16,0,1,1,.12.28Zm0-.29a.12.12,0,0,0-.08,0,.09.09,0,0,0,0,.08.12.12,0,1,0,.24,0,.12.12,0,0,0-.12-.12Z"/><path class="cls-4" d="M3.81,3.87A.15.15,0,0,1,3.66,4a.14.14,0,0,1-.14-.14h0a.14.14,0,0,1,.14-.14.15.15,0,0,1,.15.14Z"/><path d="M3.66,4a.17.17,0,0,1-.16-.17.16.16,0,0,1,.16-.16.17.17,0,0,1,.17.16A.18.18,0,0,1,3.66,4Zm0-.29a.13.13,0,0,0-.12.12A.12.12,0,0,0,3.66,4a.12.12,0,0,0,.12-.12.12.12,0,0,0-.12-.12Z"/><path class="cls-4" d="M3.81,4.19a.14.14,0,0,1-.28,0h0a.14.14,0,0,1,.28,0Z"/><path d="M3.67,4.35a.16.16,0,1,1,0-.32.16.16,0,1,1,0,.32Zm0-.28a.12.12,0,1,0,0,.24.12.12,0,1,0,0-.24Z"/><path class="cls-4" d="M3.87,4.5a.14.14,0,1,1-.28,0h0a.14.14,0,0,1,.14-.14.14.14,0,0,1,.14.14Z"/><path d="M3.73,4.67a.18.18,0,0,1-.17-.17.17.17,0,0,1,.17-.16.16.16,0,0,1,.16.16.17.17,0,0,1-.16.17Zm0-.29a.12.12,0,0,0-.12.12.12.12,0,0,0,.12.12.12.12,0,0,0,.12-.12.13.13,0,0,0-.12-.12Z"/><path class="cls-4" d="M6.16,3.42l0,.19a7.45,7.45,0,0,0-1.31-.25c-.43,0-.77.17-.77.6a2.34,2.34,0,0,0,.43,1.21l-.25.12A2.62,2.62,0,0,1,3.83,4a.84.84,0,0,1,.89-.83,7,7,0,0,1,1.44.26Z"/><path d="M4.24,5.31h0A2.77,2.77,0,0,1,3.81,4a.86.86,0,0,1,.91-.85,4.61,4.61,0,0,1,1.13.19l.31.07v.21h0a1.86,1.86,0,0,1-.45-.08,3.68,3.68,0,0,0-.88-.15c-.28,0-.74.08-.74.58a2.43,2.43,0,0,0,.41,1.2l-.25.15Zm.48-2.13A.83.83,0,0,0,3.85,4a2.57,2.57,0,0,0,.4,1.27l.23-.1A2.18,2.18,0,0,1,4,4c0-.39.29-.62.79-.62a3.68,3.68,0,0,1,.89.15c.16,0,.3.08.43.1V3.42h0a1.17,1.17,0,0,1-.3,0,4.61,4.61,0,0,0-1.12-.19Z"/><path class="cls-4" d="M6.52,3.5l.05,1.79H8.39A2.71,2.71,0,0,0,8.79,4,.75.75,0,0,0,8,3.24a7.26,7.26,0,0,0-1.47.26Z"/><path class="cls-4" d="M8.58,3.58v0Z"/><path d="M8.58,4.64l0,0v-1s0,0,0,0v1l0,0Z"/><path class="cls-4" d="M8.43,3.48v0Z"/><path d="M8.43,4.88l0,0V3.48s0,0,0,0V4.86l0,0Z"/><path class="cls-4" d="M8.29,3.41v0Z"/><path d="M8.29,5.07s0,0,0,0V3.41a0,0,0,0,1,.05,0V5.05a0,0,0,0,1,0,0Z"/><path class="cls-4" d="M8.14,3.37v0Z"/><path d="M8.14,4.68l0,0V3.37s0,0,0,0V4.66l0,0Z"/><path class="cls-4" d="M8,3.37v0Z"/><path d="M8,4.69s0,0,0,0V3.37a0,0,0,0,1,0,0v1.3a0,0,0,0,1,0,0Z"/><path class="cls-4" d="M7.85,3.32v0Z"/><path d="M7.85,4.69a0,0,0,0,1,0,0V3.32s0,0,0,0V4.67a0,0,0,0,1,0,0Z"/><path class="cls-4" d="M7.7,3.32v0Z"/><path d="M7.7,4.69l0,0V3.32s0,0,0,0V4.67a0,0,0,0,1,0,0Z"/><path class="cls-4" d="M7.56,3.33v0Z"/><path d="M7.56,4.7s0,0,0,0V3.33s0,0,0,0V4.68a0,0,0,0,1,0,0Z"/><path class="cls-4" d="M7.41,3.35v0Z"/><path d="M7.41,4.71l0,0V3.35a0,0,0,1,1,0,0V4.69l0,0Z"/><path class="cls-4" d="M7.26,3.43v0Z"/><path d="M7.26,4.8l0,0V3.43s0,0,0,0V4.78s0,0,0,0Z"/><path class="cls-4" d="M7.12,3.45v0Z"/><path d="M7.12,5l0,0V3.45a0,0,0,1,1,0,0V5l0,0Z"/><path class="cls-4" d="M7,3.45v0Z"/><path d="M7,4.81l0,0V3.45a0,0,0,0,1,0,0V4.79s0,0,0,0Z"/><path class="cls-4" d="M6.83,3.45v0Z"/><path d="M6.83,4.81s0,0,0,0V3.45a0,0,0,1,1,0,0V4.79l0,0Z"/><path d="M7.66,3.38c-.31.05-1,.37-.91.79.11.61.47.37.94.28L8,4.57c.13.13.32.25.45.09H8.7v.82H6.37v-2Z"/><path d="M8.7,5.51H6.37l0-2,1.32-.14s0,0,0,0,0,0,0,0a1.46,1.46,0,0,0-.81.46.37.37,0,0,0-.08.31c.06.34.19.38.32.38a1.66,1.66,0,0,0,.33-.06l.26-.06.36.12c.1.09.31.24.42.1H8.7l0,.84s0,0,0,0ZM7.43,3.42l-1.06.1,0,2,2.28,0v-.8l-.18,0a.18.18,0,0,1-.15.08A.49.49,0,0,1,8,4.58l-.35-.11-.24.06a1.72,1.72,0,0,1-.34.07c-.2,0-.31-.13-.37-.42a.43.43,0,0,1,.09-.34,1.32,1.32,0,0,1,.61-.42Z"/><path class="cls-4" d="M6.48,3.24a.14.14,0,1,0,.28,0h0a.15.15,0,0,0-.14-.15.15.15,0,0,0-.14.15Z"/><path d="M6.62,3.4a.16.16,0,0,1-.16-.16.16.16,0,1,1,.32,0,.16.16,0,0,1-.16.16Zm0-.28a.12.12,0,0,0-.12.12.12.12,0,0,0,.24,0,.12.12,0,0,0-.12-.12Z"/><path class="cls-4" d="M6.8,3.16a.14.14,0,0,0,.28,0h0a.14.14,0,0,0-.28,0Z"/><path d="M6.94,3.32a.16.16,0,1,1,0-.32.16.16,0,0,1,0,.32Zm0-.28a.12.12,0,0,0,0,.24.12.12,0,0,0,0-.24Z"/><path class="cls-4" d="M7.12,3.08a.14.14,0,1,0,.28,0h0a.14.14,0,1,0-.28,0Z"/><path d="M7.26,3.24a.16.16,0,1,1,.16-.16.15.15,0,0,1,0,.11.18.18,0,0,1-.12.05Zm0-.28a.12.12,0,0,0,0,.24h0a.12.12,0,0,0,.09,0,.11.11,0,0,0,0-.08A.12.12,0,0,0,7.26,3Z"/><path class="cls-4" d="M7.44,3a.15.15,0,0,0,.14.14A.15.15,0,0,0,7.73,3h0a.15.15,0,0,0-.15-.15A.15.15,0,0,0,7.44,3Z"/><path d="M7.58,3.19A.16.16,0,0,1,7.42,3a.17.17,0,0,1,.28-.12.16.16,0,0,1-.12.28Zm0-.28A.12.12,0,0,0,7.46,3a.12.12,0,0,0,.12.12A.11.11,0,0,0,7.7,3a.11.11,0,0,0-.12-.12Z"/><path class="cls-4" d="M7.77,3a.14.14,0,0,0,.28,0h0a.14.14,0,1,0-.28,0Z"/><path d="M7.91,3.16a.17.17,0,0,1-.12-.05A.16.16,0,1,1,8.07,3a.17.17,0,0,1-.16.17Zm0-.29A.12.12,0,0,0,7.79,3a.14.14,0,0,0,0,.09.12.12,0,1,0,.09-.21Z"/><path class="cls-4" d="M8.08,3a.15.15,0,0,0,.15.14A.14.14,0,0,0,8.37,3h0a.14.14,0,0,0-.14-.14A.15.15,0,0,0,8.08,3Z"/><path d="M8.23,3.17a.16.16,0,1,1,0-.32.16.16,0,0,1,0,.32Zm0-.28a.12.12,0,1,0,0,.24A.12.12,0,0,0,8.35,3a.13.13,0,0,0-.12-.12Z"/><path class="cls-4" d="M8.39,3.12a.14.14,0,1,0,.28,0h0A.15.15,0,0,0,8.53,3a.14.14,0,0,0-.14.14Z"/><path d="M8.53,3.28a.16.16,0,0,1-.16-.16.16.16,0,1,1,.32,0,.16.16,0,0,1-.16.16Zm0-.28L8.44,3a.11.11,0,0,0,0,.08.12.12,0,0,0,.12.12.12.12,0,0,0,.12-.11A.12.12,0,0,0,8.53,3Z"/><path class="cls-4" d="M8.64,3.3a.14.14,0,0,0,.14.14.14.14,0,0,0,.14-.14h0a.14.14,0,0,0-.14-.14.14.14,0,0,0-.14.14Z"/><path d="M8.78,3.47a.17.17,0,0,1-.16-.17.16.16,0,0,1,.16-.16A.17.17,0,0,1,9,3.3a.18.18,0,0,1-.17.17Zm0-.29a.13.13,0,0,0-.12.12.12.12,0,0,0,.12.12A.12.12,0,0,0,8.9,3.3a.12.12,0,0,0-.12-.12Z"/><path class="cls-4" d="M8.82,3.56a.15.15,0,1,0,.29,0h0A.15.15,0,0,0,9,3.42a.15.15,0,0,0-.14.14Z"/><path d="M9,3.73a.17.17,0,0,1-.16-.17A.16.16,0,0,1,9,3.4a.17.17,0,0,1,.17.16A.18.18,0,0,1,9,3.73Zm0-.29a.12.12,0,0,0-.11.12A.11.11,0,0,0,9,3.68a.12.12,0,0,0,.12-.12A.12.12,0,0,0,9,3.44Z"/><path class="cls-4" d="M8.91,3.87a.14.14,0,0,0,.28,0h0a.14.14,0,1,0-.28,0Z"/><path d="M9.05,4a.17.17,0,0,1-.16-.17.16.16,0,0,1,.16-.16.17.17,0,0,1,.17.16A.18.18,0,0,1,9.05,4Zm0-.29a.13.13,0,0,0-.12.12A.12.12,0,0,0,9.05,4a.12.12,0,0,0,.12-.12.12.12,0,0,0-.12-.12Z"/><path class="cls-4" d="M8.91,4.19a.14.14,0,0,0,.28,0h0a.14.14,0,1,0-.28,0Z"/><path d="M9.05,4.35a.16.16,0,1,1,.16-.16.16.16,0,0,1-.16.16Zm0-.28a.12.12,0,0,0,0,.24.12.12,0,0,0,0-.24Z"/><path class="cls-4" d="M8.85,4.5a.14.14,0,1,0,.28,0h0A.14.14,0,0,0,9,4.36a.14.14,0,0,0-.14.14Z"/><path d="M9,4.67a.18.18,0,0,1-.17-.17A.17.17,0,0,1,9,4.34a.16.16,0,0,1,.16.16A.17.17,0,0,1,9,4.67Zm0-.29a.12.12,0,0,0-.12.12A.12.12,0,0,0,9,4.62a.12.12,0,0,0,.12-.12A.13.13,0,0,0,9,4.38Z"/><path class="cls-4" d="M6.56,3.42v.19a7.39,7.39,0,0,1,1.32-.25c.43,0,.76.17.76.6a2.32,2.32,0,0,1-.42,1.21l.25.12A2.73,2.73,0,0,0,8.89,4,.85.85,0,0,0,8,3.16a6.86,6.86,0,0,0-1.43.26Z"/><path d="M8.48,5.31h0l-.25-.12A2.65,2.65,0,0,0,8.63,4c0-.5-.47-.58-.74-.58A3.77,3.77,0,0,0,7,3.53a4.34,4.34,0,0,1-.43.1l0-.2a1.39,1.39,0,0,1,.33-.1A4.52,4.52,0,0,1,8,3.14.87.87,0,0,1,8.91,4,2.73,2.73,0,0,1,8.5,5.3Zm-.59-2c.5,0,.78.23.78.62a2.45,2.45,0,0,1-.42,1.23l.22.08A2.76,2.76,0,0,0,8.87,4,.83.83,0,0,0,8,3.18a4.45,4.45,0,0,0-1.11.19l-.32.08,0,.16L7,3.49a3.76,3.76,0,0,1,.9-.15Z"/><rect class="cls-5" y="8.59" width="29.46" height="8.59"/><path class="cls-4" d="M6.36,1.52l-.15.28.15.27L6.5,1.8Zm0,.7-.15.28.15.27L6.5,2.5Z"/><path d="M6.36,2.79s0,0,0,0l-.15-.27.15-.3h0l.14.28-.14.29Zm0-.53-.13.25.13.22.13-.24-.13-.23Zm0-.16a0,0,0,0,1,0,0l-.15-.27.15-.3s0,0,0,0h0l.14.28-.14.29s0,0,0,0Zm0-.53-.13.24L6.36,2l.13-.24-.13-.22Z"/><path class="cls-4" d="M5.83,2.15l.23.14.24-.14L6.06,2Zm.59,0,.23.14.23-.14L6.65,2Z"/><path d="M6.65,2.32h0l-.23-.14s0,0,0,0,0,0,0,0L6.64,2l.26.15v0s0,0,0,0l-.24.14Zm-.19-.17.19.12.19-.12L6.64,2l-.18.13Zm-.4.17h0l-.23-.14s0,0,0,0,0,0,0,0L6.05,2l.26.15v0s0,0,0,0l-.23.14Zm-.19-.17.19.12.2-.12L6.05,2l-.18.13Z"/><path class="cls-4" d="M6.47,2.15A.11.11,0,1,1,6.36,2a.11.11,0,0,1,.11.11Z"/><path d="M6.36,2.28a.13.13,0,1,1,0-.26.13.13,0,1,1,0,.26Zm0-.22a.09.09,0,0,0-.09.09c0,.1.18.1.18,0a.09.09,0,0,0-.09-.09Z"/><path class="cls-4" d="M6.66,2.87a.3.3,0,0,1-.3.29.3.3,0,1,1,0-.59.3.3,0,0,1,.3.3Z"/><path d="M6.36,3.19a.33.33,0,1,1,.32-.32.32.32,0,0,1-.32.32Zm0-.6a.28.28,0,1,0,.28.28.28.28,0,0,0-.28-.28Z"/><path d="M6.65,3h0a1.82,1.82,0,0,0-.57,0,0,0,0,0,1,0,0s0,0,0,0a1.47,1.47,0,0,1,.59,0l0,0a0,0,0,0,1,0,0Zm0-.15h0l-.21,0,0-.22s0,0,0,0v.19a.42.42,0,0,1,.19,0,0,0,0,0,1,0,0,0,0,0,0,1,0,0Zm-.58,0a0,0,0,0,1,0,0s0,0,0,0a1.52,1.52,0,0,1,.21,0l0,0V2.57s0,0,0,0v.19a1.2,1.2,0,0,1-.23.05Z"/><path class="cls-4" d="M6.06,3.37a3.31,3.31,0,0,1-.27,1.35L6.1,4.6a8.15,8.15,0,0,0,.16-1.2Zm.59,0-.2,0a10.06,10.06,0,0,0,.17,1.2l.31.12a3.49,3.49,0,0,1-.28-1.35Z"/><path d="M5.79,4.74h0v0A3.41,3.41,0,0,0,6,3.37h.23a2.72,2.72,0,0,1,0,.28,6.69,6.69,0,0,1-.14.94l-.32.14Zm.27-1.35a3.11,3.11,0,0,1-.23,1.29l.26-.1a6.28,6.28,0,0,0,.12-.92c0-.1,0-.19,0-.26Zm.87,1.35h0l-.31-.12a5,5,0,0,1-.15-1c0-.1,0-.19,0-.26l.22-.06A3.83,3.83,0,0,0,7,4.71a0,0,0,0,1,0,0Zm-.3-1.37-.17.06a.88.88,0,0,1,0,.23,6.56,6.56,0,0,0,.14.93l.24.09a3.72,3.72,0,0,1-.25-1.31Z"/><path class="cls-4" d="M6.36,4.43a.59.59,0,0,0-.66.62c-.09-.16-.47-.66-.83-.59a.61.61,0,0,0-.37.67.64.64,0,0,0-1.06-.29c.33.27.48,1.08.76,1.43H8.52c.28-.35.43-1.16.76-1.43a.65.65,0,0,0-1.07.29.59.59,0,0,0-.37-.67c-.35-.07-.73.43-.82.59a.59.59,0,0,0-.66-.62Z"/><path d="M8.52,6.3H4.2a2.47,2.47,0,0,1-.34-.67,2.23,2.23,0,0,0-.44-.77.68.68,0,0,1,.48-.22A.65.65,0,0,1,4.48,5a.58.58,0,0,1,.39-.57c.34-.07.69.35.81.54a.61.61,0,0,1,.68-.57A.59.59,0,0,1,7,5c.13-.19.48-.61.82-.54A.59.59,0,0,1,8.24,5a.63.63,0,0,1,.57-.38.79.79,0,0,1,.48.18,2.69,2.69,0,0,0-.43.81,2.53,2.53,0,0,1-.33.66ZM3.9,4.69a.74.74,0,0,0-.45.17,1.7,1.7,0,0,1,.45.76,2.73,2.73,0,0,0,.31.64h4.3a3.08,3.08,0,0,0,.31-.63,2.16,2.16,0,0,1,.45-.8,1.06,1.06,0,0,0-.46-.13.62.62,0,0,0-.58.45s0,0,0,0a0,0,0,0,1,0,0,.58.58,0,0,0-.35-.65c-.32-.06-.69.38-.81.58,0,0,0,0,0,0l0,0a.56.56,0,0,0-.63-.6.57.57,0,0,0-.64.6v0h0c-.07-.12-.45-.65-.81-.58a.58.58,0,0,0-.35.65s0,0,0,0h0a.61.61,0,0,0-.58-.45Z"/><path d="M8.51,6.27c0,.16-1,.34-2.15.34s-2.15-.18-2.15-.34S5.17,6,6.36,6s2.15.08,2.15.24Z"/><path d="M6.36,6.63c-1.16,0-2.18-.17-2.18-.36S5.85,6,6.36,6s2.17,0,2.17.26-1,.36-2.17.36Zm0-.58c-1.4,0-2.13.11-2.13.22a4.15,4.15,0,0,0,2.13.32,4.19,4.19,0,0,0,2.13-.32c0-.11-.73-.22-2.13-.22Z"/><path class="cls-4" d="M6.46,3.28a.11.11,0,0,1-.1.1.1.1,0,0,1-.1-.1h0a.09.09,0,0,1,.1-.1.1.1,0,0,1,.1.1Z"/><path d="M6.36,3.4a.12.12,0,0,1-.12-.12.16.16,0,0,1,0-.09.13.13,0,0,1,.21.09.12.12,0,0,1-.12.12Zm0-.2-.06,0a.14.14,0,0,0,0,.06c0,.09.16.09.16,0a.09.09,0,0,0-.08-.08Z"/><path class="cls-4" d="M6.46,3.5a.1.1,0,0,1-.1.1.11.11,0,0,1-.11-.1h0a.11.11,0,0,1,.11-.11.1.1,0,0,1,.1.11Z"/><path d="M6.36,3.62a.12.12,0,0,1-.13-.12.13.13,0,0,1,.26,0,.12.12,0,0,1-.13.12Zm0-.21a.09.09,0,0,0-.09.09c0,.09.17.09.17,0a.09.09,0,0,0-.08-.09Z"/><path class="cls-4" d="M6.47,3.73a.12.12,0,0,1-.11.12.12.12,0,0,1-.12-.12h0a.12.12,0,0,1,.12-.12.12.12,0,0,1,.11.12Z"/><path d="M6.36,3.87h0a.14.14,0,1,1,0-.28.14.14,0,0,1,0,.28Zm0-.24a.11.11,0,0,0-.1.1c0,.1.19.1.19,0a.1.1,0,0,0-.09-.1Z"/><path class="cls-4" d="M6.49,4a.13.13,0,0,1-.13.13A.13.13,0,0,1,6.22,4h0a.13.13,0,0,1,.14-.13A.13.13,0,0,1,6.49,4Z"/><path d="M6.36,4.14h0A.15.15,0,0,1,6.2,4a.16.16,0,0,1,.16-.16A.16.16,0,0,1,6.51,4a.15.15,0,0,1-.15.15Zm0-.26A.11.11,0,1,0,6.47,4a.11.11,0,0,0-.11-.11Z"/><path class="cls-4" d="M6.5,4.28a.15.15,0,0,1-.14.15.15.15,0,0,1-.15-.15h0a.15.15,0,0,1,.15-.15.15.15,0,0,1,.14.15Z"/><path d="M6.36,4.45a.17.17,0,1,1,.17-.17.18.18,0,0,1-.17.17Zm0-.3a.13.13,0,0,0-.13.13.12.12,0,0,0,.13.12.12.12,0,0,0,.12-.12.12.12,0,0,0-.12-.13Z"/><path d="M6.3,4.56s0,0,0,0,0,.08,0,.12,0,0,0,0V4.61s0-.05,0-.05Zm.12,0s0,0,0,.05a.31.31,0,0,0,0,.11s0,0,0,0,0-.09,0-.12,0,0,0,0Zm-.22,0a0,0,0,0,0,0,0s0,.06,0,.1,0,0,0,0V4.6l0,0Zm.31,0s0,0,0,0a.47.47,0,0,0,0,.12s0,0,0,0,0-.07,0-.1a0,0,0,0,0,0,0Zm-.44,0s0,0,0,0a.49.49,0,0,1,0,.12s0,0,0,0,0-.07,0-.12,0,0,0,0Zm.57,0s0,0,0,0v.12s0,0,0,0a.5.5,0,0,1,0-.12,0,0,0,0,0,0,0Zm-1.7,0s0,0,0,0l.05.1s0,0,0,0a.37.37,0,0,0,0-.11s0,0,0,0Zm2.83,0s0,0,0,0l0,.11s0,.05,0,0a.31.31,0,0,1,0-.1s0,0,0,0Zm-2.71,0s0,0,0,0,0,.07,0,.11,0,0,0,0l0-.1s0,0,0,0Zm2.59,0,0,0a.93.93,0,0,0,0,.1s0,0,0,0a1.17,1.17,0,0,1,0-.11s0,0,0,0Zm-2.45,0a0,0,0,0,0,0,0l.05.11s0,0,0,0l0-.13s0,0,0,0Zm2.32,0s0,0,0,0,0,.1,0,.13,0,0,0,0,0-.07,0-.11,0,0,0,0Zm-2.67,0s0,0,0,.05a.25.25,0,0,0,0,.07s0,0,0,0a.31.31,0,0,0,0-.08s0,0,0,0Zm3,0,0,0a.19.19,0,0,1,0,.08s0,0,0,0a.25.25,0,0,1,0-.07s0-.05,0-.05ZM6,4.76s0,0,0,0,0,.07,0,.11,0,0,0,0a.28.28,0,0,0,0-.11s0,0,0,0Zm.82,0s0,0,0,0a.75.75,0,0,1,0,.11s0,0,0,0a.45.45,0,0,0,0-.11,0,0,0,0,0,0,0Zm-.41,0s0,0,0,.06A.32.32,0,0,1,6.27,5s-.06,0-.1,0L6.08,5S6,5,6.06,5a1,1,0,0,1,.27.66s0,.05,0,.05,0,0,0-.05A1.06,1.06,0,0,1,6.66,5c0-.06,0-.08,0,0L6.54,5s-.07,0-.1,0a.42.42,0,0,1-.06-.18s0-.06,0-.06Zm-1,0h0s0,0,0,0l0,.11s0,0,0,0,0,0,0-.08,0,0,0,0Zm2,0s0,0,0,0a.19.19,0,0,1,0,.08s0,0,0,0a.45.45,0,0,0,0-.11s0,0,0,0Zm-2.62,0s0,0,0,0a.24.24,0,0,0,.06.1s0,0,0,0a.66.66,0,0,1,0-.11l0,0ZM8,4.76l0,0,0,.11s0,.05,0,0L8,4.81s0,0,0,0Zm-4.13.1s0,0,0,0A.6.6,0,0,0,3.91,5s0,0,0,0l0-.08s0,0,0,0Zm5,0s0,0,0,0L8.79,5s0,0,0,0a.27.27,0,0,0,.07-.08s0,0,0,0ZM4,4.88s0,0,0,0L4,5s.06,0,0,0l0-.1a.07.07,0,0,0-.05,0Zm4.75,0,0,0s0,.06,0,.1,0,0,0,0l.06-.11s0,0,0,0Zm-5,0s0,0,0,0L3.79,5s0,0,0,0L3.73,4.9ZM9,4.89H9L8.9,5s0,0,0,0L9,4.93a0,0,0,0,0,0,0Zm-3.14,0s0,0,0,0l0,.1s0,0,0,0,0-.07,0-.12l0,0Zm1,0s0,0,0,0a.74.74,0,0,0,0,.12s0,0,0,0a.36.36,0,0,1,0-.1s0,0,0,0ZM5,4.86s0,0,0,0a1.09,1.09,0,0,1,0,.25s0,0-.06,0l-.08,0s0,0,0,0a.94.94,0,0,1,.34.5s0,0,0,0a1.09,1.09,0,0,1,0-.58s0-.1,0,0-.06.08-.09,0A2.26,2.26,0,0,1,5,4.89l0,0Zm2.69,0,0,0a2.26,2.26,0,0,1-.11.22s-.07,0-.1,0-.06,0,0,0a1.09,1.09,0,0,1,0,.58s0,0,0,0a.84.84,0,0,1,.34-.5s0,0,0,0l-.08,0s0,0,0,0a.6.6,0,0,1,0-.25s0,0,0,0Zm-3.56.07s0,0,0,0,0,.08,0,.11,0,0,0,0,0,0,0-.08a0,0,0,0,0,0,0Zm4.44,0s0,0,0,0,0,0,0,.08,0,0,0,0,0-.07,0-.11,0,0,0,0Zm-3.91,0s0,0,0,.06L4.75,5s0,0,0,0L4.7,4.9l0,0ZM8,4.88s0,0,0,0L7.94,5s0,0,0,0l.08-.09s0-.07,0-.06ZM4.26,5s0,0,0,0l0,.09s0,0,0,0,0-.06,0-.09l0,0Zm4.2,0a0,0,0,0,0,0,0,.28.28,0,0,0,0,.09s0,0,0,0,0-.06,0-.09,0,0,0,0ZM4.63,5s0,0,0,0l.09.09s0,0,0,0L4.66,5ZM8.07,5h0a.53.53,0,0,1-.06.1s0,0,0,0l.08-.09s0,0,0,0ZM4,5.15s0,0,0,0a.55.55,0,0,1,.1.18s0,0,0,0-.07,0-.12,0-.06,0,0,0a1.62,1.62,0,0,1,.42.4s.06.07,0,0a.82.82,0,0,1-.07-.36.86.86,0,0,0,0-.18s0,0,0,0a.34.34,0,0,1,0,.08s-.05,0-.09,0l-.16-.16,0,0Zm4.63,0,0,0s-.12.12-.16.16-.07,0-.08,0a.34.34,0,0,1,0-.08s0,0,0,0,0,.1,0,.18a.6.6,0,0,1-.07.36s0,0,.05,0a1.48,1.48,0,0,1,.42-.4s0-.05,0,0-.07,0-.13,0,0,0,0,0a.5.5,0,0,1,.09-.18s0,0,0,0Z"/><path class="cls-6" d="M4.3,6.09l.06.18Zm.12,0,0,.18Zm.12,0,0,.18Zm.11,0,0,.19ZM4.8,6l0,.18ZM5,6l0,.18Zm.15,0,0,.18Zm.15,0,0,.18Zm.14,0,0,.18Zm.14,0v0Zm.15,0v0Zm.13,0v0Zm.15,0v0Zm.17,0v0Zm2.28.19-.06.18Zm-.12,0-.05.18ZM8.18,6l0,.18ZM8.06,6,8,6.2ZM7.91,6l0,.18ZM7.76,6l0,.18ZM7.6,6l0,.18ZM7.46,6l0,.18Zm-.14,0,0,.18Zm-.14,0v0ZM7,5.92v0Zm-.14,0v0Zm-.15,0v0Zm-.17,0v0Zm-.21,0v0Z"/><path d="M8.36,6.29h0s0,0,0,0l.05-.18h0s0,0,0,0l-.06.18Zm-4,0h0l0-.18s0,0,0,0h0l.06.18s0,0,0,0Zm3.89,0h0s0,0,0,0l0-.18s0,0,0,0,0,0,0,0l-.05.18,0,0Zm-3.79,0,0,0-.05-.18,0,0s0,0,0,0l0,.18s0,0,0,0Zm.11,0a0,0,0,0,1,0,0l0-.18s0,0,0,0,0,0,0,0l0,.19s0,0,0,0Zm3.57,0h0a0,0,0,0,1,0,0l0-.19s0,0,0,0l0,0,0,.18a0,0,0,0,1,0,0ZM8,6.22H8s0,0,0,0L8,6s0,0,0,0a0,0,0,0,1,0,0l0,.18,0,0Zm-3.34,0a0,0,0,0,1,0,0l0-.18,0,0,0,0,0,.18s0,0,0,0Zm3,0h0a0,0,0,0,1,0,0l0-.18s0,0,0,0l0,0,0,.19ZM5,6.2H5l0-.19s0,0,0,0S5,6,5,6l0,.18s0,0,0,0Zm2.89,0h0a0,0,0,0,1,0,0l0-.18s0,0,0,0l0,0,0,.19Zm-3,0h0l0-.19,0,0s0,0,0,0l0,.18s0,0,0,0Zm2.61,0h0a0,0,0,0,1,0,0l0-.18s0,0,0,0l0,0,0,.18s0,0,0,0Zm-2.16,0s0,0,0,0l0-.18s0,0,0,0,0,0,0,0l0,.18a0,0,0,0,1,0,0Zm2.3,0h0l0,0,0-.18s0,0,0,0,0,0,0,0l0,.18s0,0,0,0Zm-2.45,0,0,0,0-.18a0,0,0,0,1,0,0s0,0,0,0l0,.18a0,0,0,0,1,0,0h0Zm2.17,0h0s0,0,0,0l0-.18s0,0,0,0a0,0,0,0,1,0,0l0,.19Zm-1.88,0h0l0-.19a0,0,0,0,1,0,0s0,0,0,0l0,.18,0,0Zm1.6,0H7l0,0V5.92l0,0s0,0,0,0v.18a0,0,0,0,1,0,0Zm.15,0h0s0,0,0,0V5.92l0,0s0,0,0,0v.18l0,0Zm-1.62,0,0,0,0-.18a0,0,0,0,1,0,0l0,0v.19l0,0Zm.15,0,0,0V5.93s0,0,0,0l0,0v.19l0,0Zm1.18,0h0a0,0,0,0,1,0,0V5.91l0,0a0,0,0,0,1,0,0V6.1s0,0,0,0Zm-1,0a0,0,0,0,1,0,0V5.92s0,0,0,0l0,0V6.1a0,0,0,0,1,0,0Zm.53,0a0,0,0,0,1,0,0v-.2s0,0,0,0v.2a0,0,0,0,1,0,0Zm.38,0h0s0,0,0,0V5.91s0,0,0,0,0,0,0,0v.18a0,0,0,0,1,0,0ZM6,6.11a0,0,0,0,1,0,0V5.91s0,0,0,0,0,0,0,0v.18a0,0,0,0,1,0,0Zm.58,0h0s0,0,0,0V5.9s0,0,0,0a0,0,0,0,1,0,0v.19s0,0,0,0Zm-.41,0a0,0,0,0,1,0,0V5.9a0,0,0,0,1,0,0s0,0,0,0v.18s0,0,0,0Z"/></g></g></g></g></g></svg>