<svg xmlns="http://www.w3.org/2000/svg" xmlns:xlink="http://www.w3.org/1999/xlink" viewBox="0 0 29.46 17.19"><defs><style>.cls-1{fill:none;}.cls-2{clip-path:url(#clip-path);}.cls-3{fill:#4f9f3a;}.cls-4{fill:#bc0030;}</style><clipPath id="clip-path"><rect class="cls-1" width="29.46" height="17.19"/></clipPath></defs><g id="Layer_2" data-name="Layer 2"><g id="cá»"><g id="east_africa" data-name="east africa"><g class="cls-2"><rect width="29.46" height="8.59"/><rect class="cls-3" y="8.59" width="29.46" height="8.59"/><rect class="cls-4" y="5.73" width="29.46" height="5.73"/><g class="cls-2"><path class="cls-4" d="M14.73,2.84A3.67,3.67,0,0,0,11.25,5.3h7a3.7,3.7,0,0,0-3.49-2.46"/><path class="cls-4" d="M14.73.69c-.12,0-.17.18-.17.37a6.65,6.65,0,0,0,.17,1.35,6.65,6.65,0,0,0,.17-1.35c0-.19-.05-.37-.17-.37m-.51,0c-.12,0-.15.2-.14.39a7.32,7.32,0,0,0,.29,1.32,6.56,6.56,0,0,0,.05-1.35c0-.19-.07-.37-.2-.36m1,0c-.12,0-.19.17-.2.36a6.56,6.56,0,0,0,.05,1.35,6.55,6.55,0,0,0,.29-1.32c0-.19,0-.38-.14-.39m-1.5.07h0c-.13,0-.14.21-.11.39a7,7,0,0,0,.4,1.3A6.81,6.81,0,0,0,14,1.11c0-.17-.1-.33-.21-.33m2,0c-.11,0-.18.16-.21.33a6.81,6.81,0,0,0-.06,1.36,7,7,0,0,0,.4-1.3c0-.18,0-.37-.1-.39h0m-2.48.1h0c-.12,0-.12.22-.07.4a6.75,6.75,0,0,0,.51,1.26,6.69,6.69,0,0,0-.18-1.35c0-.17-.13-.32-.24-.32m3,0C16.11.88,16,1,16,1.2a6.69,6.69,0,0,0-.18,1.35,6.75,6.75,0,0,0,.51-1.26c.05-.18.05-.37-.07-.4s0,0,0,0M12.78,1h0c-.11,0-.09.23,0,.41a6.63,6.63,0,0,0,.62,1.21A7.24,7.24,0,0,0,13,1.33c0-.15-.14-.29-.24-.3m3.91,0c-.1,0-.19.15-.25.3a7.24,7.24,0,0,0-.3,1.33,6.63,6.63,0,0,0,.62-1.21c.07-.18.09-.37,0-.41h0m-4.39.19,0,0c-.11.05-.08.24,0,.41A6.88,6.88,0,0,0,13,2.79a7.22,7.22,0,0,0-.42-1.29c-.06-.15-.17-.28-.27-.28m4.86,0c-.1,0-.2.13-.27.28a7.22,7.22,0,0,0-.42,1.29,6.88,6.88,0,0,0,.73-1.14c.08-.17.11-.36,0-.41l0,0m-5.31.24h0c-.11.06-.06.25,0,.41A6.82,6.82,0,0,0,12.67,3a6.21,6.21,0,0,0-.53-1.25c-.08-.14-.19-.27-.29-.25m5.74,0c-.09,0-.2.12-.27.25A6.21,6.21,0,0,0,16.79,3a7,7,0,0,0,.83-1.08c.09-.16.14-.35,0-.41h-.06m-6.15.26-.06,0c-.1.08,0,.26.07.41a6.84,6.84,0,0,0,.91,1A6.44,6.44,0,0,0,11.73,2c-.08-.12-.2-.23-.29-.23m6.58,0c-.09,0-.21.11-.29.23a6.44,6.44,0,0,0-.63,1.2,6.84,6.84,0,0,0,.91-1c.11-.15.17-.33.07-.41l-.06,0M11,2a.05.05,0,0,0,0,0c-.1.08,0,.25.1.39a6.78,6.78,0,0,0,1,.92,7.63,7.63,0,0,0-.73-1.14A.44.44,0,0,0,11,2m7.38,0a.47.47,0,0,0-.29.2,6.85,6.85,0,0,0-.74,1.14,6.78,6.78,0,0,0,1-.92c.12-.14.2-.31.11-.39a.13.13,0,0,0-.08,0m-7.73.34a.11.11,0,0,0-.08,0c-.09.09,0,.25.14.38a6.46,6.46,0,0,0,1.07.83A6.46,6.46,0,0,0,11,2.54a.43.43,0,0,0-.3-.17m8.1,0a.45.45,0,0,0-.3.17,6.46,6.46,0,0,0-.83,1.07,6.46,6.46,0,0,0,1.07-.83c.13-.13.23-.29.14-.38a.11.11,0,0,0-.08,0m-8.43.36a.11.11,0,0,0-.09,0c-.08.09,0,.25.17.37a7.63,7.63,0,0,0,1.14.73,6.28,6.28,0,0,0-.92-1,.65.65,0,0,0-.3-.15m8.76,0a.65.65,0,0,0-.3.15,6.78,6.78,0,0,0-.92,1A7.63,7.63,0,0,0,19,3.15c.15-.12.26-.28.18-.37a.14.14,0,0,0-.1,0M10,3.13a.14.14,0,0,0-.1.05c-.07.1.06.25.21.35a6.44,6.44,0,0,0,1.2.63,6.84,6.84,0,0,0-1-.91A.55.55,0,0,0,10,3.13m9.36,0a.64.64,0,0,0-.29.12,7.4,7.4,0,0,0-1,.91,6.44,6.44,0,0,0,1.2-.63c.15-.1.28-.25.21-.35a.13.13,0,0,0-.12-.05m-9.62.42a.11.11,0,0,0-.11.06c-.06.11.08.24.24.33a6.21,6.21,0,0,0,1.25.53,6.82,6.82,0,0,0-1.08-.82.63.63,0,0,0-.3-.1m9.9,0a.63.63,0,0,0-.3.1,7.31,7.31,0,0,0-1.08.82,6.34,6.34,0,0,0,1.26-.53c.16-.09.29-.22.23-.33a.11.11,0,0,0-.11-.06M9.6,4c-.08,0-.14,0-.16.07s.09.23.26.31A7.22,7.22,0,0,0,11,4.79a6.88,6.88,0,0,0-1.14-.73A1,1,0,0,0,9.6,4M19.87,4a.78.78,0,0,0-.25.07,6.51,6.51,0,0,0-1.15.73,7.22,7.22,0,0,0,1.29-.42c.17-.08.32-.2.27-.31A.18.18,0,0,0,19.87,4M9.39,4.45c-.07,0-.13,0-.15.08s.12.23.29.29a7.24,7.24,0,0,0,1.33.3A6.63,6.63,0,0,0,9.65,4.5a.85.85,0,0,0-.26,0m10.68,0a.85.85,0,0,0-.26,0,6.29,6.29,0,0,0-1.2.62,7.31,7.31,0,0,0,1.32-.3c.18-.06.33-.17.29-.29s-.08-.08-.15-.08M9.29,4.92c-.1,0-.18,0-.2.1s.13.21.31.26l.07,0h.93A4.7,4.7,0,0,0,9.49,5l-.2,0m10.88,0L20,5a4.62,4.62,0,0,0-.9.35H20l.07,0c.18,0,.35-.14.32-.26s-.11-.1-.21-.1"/></g></g></g></g></g></svg>