<svg xmlns="http://www.w3.org/2000/svg" xmlns:xlink="http://www.w3.org/1999/xlink" viewBox="0 0 29.46 17.19"><defs><style>.cls-1{fill:none;}.cls-2{clip-path:url(#clip-path);}.cls-3{fill:#d80031;}.cls-4{fill:#fff;}.cls-5{fill:#2530a9;}.cls-6{fill:#f5d028;}</style><clipPath id="clip-path"><rect class="cls-1" width="29.46" height="17.19"/></clipPath></defs><g id="Layer_2" data-name="Layer 2"><g id="cá»"><g id="south_east_asia" data-name="south east asia"><g class="cls-2"><rect class="cls-3" width="29.46" height="1.23"/><rect class="cls-4" y="1.23" width="29.46" height="1.23"/><rect class="cls-3" y="2.46" width="29.46" height="1.23"/><rect class="cls-4" y="3.68" width="29.46" height="1.23"/><rect class="cls-3" y="4.91" width="29.46" height="1.23"/><rect class="cls-4" y="6.14" width="29.46" height="1.23"/><rect class="cls-3" y="7.37" width="29.46" height="1.23"/><rect class="cls-4" y="8.59" width="29.46" height="1.23"/><rect class="cls-3" y="9.82" width="29.46" height="1.23"/><rect class="cls-4" y="11.05" width="29.46" height="1.23"/><rect class="cls-3" y="12.28" width="29.46" height="1.23"/><rect class="cls-4" y="13.5" width="29.46" height="1.23"/><rect class="cls-3" y="14.73" width="29.46" height="1.23"/><rect class="cls-4" y="15.96" width="29.46" height="1.23"/><rect class="cls-5" width="17.19" height="9.82"/><g class="cls-2"><path class="cls-6" d="M4.6,4.91A3.23,3.23,0,0,1,9.51,2.16a3.68,3.68,0,1,0,0,5.5A3.23,3.23,0,0,1,4.6,4.91"/><polygon class="cls-6" points="11.97 4.91 13.73 4.23 11.85 4.38 13.14 3 11.51 3.95 12.07 2.15 11.01 3.71 10.74 1.84 10.54 3.18 10.49 3.57 10.47 3.71 9.41 2.15 9.98 3.95 8.34 3 9.63 4.38 7.75 4.23 9.51 4.91 7.75 5.59 9.63 5.44 8.34 6.82 9.98 5.87 9.41 7.68 10.47 6.11 10.49 6.25 10.54 6.64 10.74 7.98 11.01 6.11 12.07 7.68 11.51 5.87 13.14 6.82 11.85 5.44 13.73 5.59 11.97 4.91"/></g></g></g></g></g></svg>