<svg xmlns="http://www.w3.org/2000/svg" xmlns:xlink="http://www.w3.org/1999/xlink" viewBox="0 0 29.46 17.19"><defs><style>.cls-1{fill:none;}.cls-2{clip-path:url(#clip-path);}.cls-3{fill:#cbae43;}.cls-4{fill:#b41630;}.cls-5{fill:#ac6a32;}.cls-6{fill:#355d8e;}.cls-7{fill:#718c42;}</style><clipPath id="clip-path"><rect class="cls-1" width="29.46" height="17.19"/></clipPath></defs><g id="Layer_2" data-name="Layer 2"><g id="Layer_1-2" data-name="Layer 1"><g id="EUROPE"><g id="MONTENEGRO"><g class="cls-2"><rect class="cls-3" width="29.46" height="17.19"/><rect class="cls-4" x="0.86" y="0.86" width="27.74" height="15.47"/><g class="cls-2"><path class="cls-5" d="M18.46,8.45a1.81,1.81,0,0,0,.7-.33.79.79,0,0,0,.32-.44c0-.09,0-.16,0-.11a3,3,0,0,1-.38.27,1.35,1.35,0,0,1-.33.13h-.06a1.49,1.49,0,0,0,.47-.28,1.1,1.1,0,0,0,.31-.59c0-.16,0-.15-.06-.11s-.23.27-.34.35a2.9,2.9,0,0,1-.34.25c-.09.05-.2.1,0,0a1.61,1.61,0,0,0,.59-.71,1.38,1.38,0,0,0,.1-.56s0-.11-.06,0a3.07,3.07,0,0,1-.4.64c-.16.17-.12.14-.16.17s-.1.08,0,0a2.2,2.2,0,0,0,.33-.55,1.64,1.64,0,0,0,.11-.58,1,1,0,0,0-.08-.37c0-.05,0-.09-.06,0s-.14.46-.21.66a2.94,2.94,0,0,1-.24.46s-.1.12,0,0a2.79,2.79,0,0,0,.25-1,1.57,1.57,0,0,0-.09-.75.52.52,0,0,0-.11-.15,3.24,3.24,0,0,1-.07.68,2.21,2.21,0,0,1-.2.61s-.06.06,0,0a1.71,1.71,0,0,0,.09-.44,2.09,2.09,0,0,0,0-.79.94.94,0,0,0-.22-.4A5.19,5.19,0,0,1,18,5.64s-.06-.06-.07,0a2.55,2.55,0,0,1-.25.69c-.17.31-.24.35-.24.35l-.06-.11s0-.07-.06,0a2.26,2.26,0,0,1-.34.52c-.21.25-.33.36-.32.55a.41.41,0,0,0,.23.36c.13.08.15.13.13.23s-.14.13-.23.13a1.91,1.91,0,0,0-.28,0s0,.09-.09.14-.06.07-.1.07h0a1.08,1.08,0,0,1,.18-.7l-.52-.61-.09,0v0A.39.39,0,0,1,15.71,7a.22.22,0,0,0,.12,0c.05,0,0-.06,0-.11a1.06,1.06,0,0,1,0-.26.33.33,0,0,1,0-.08s.07.08.12.08,0-.05.05-.1a.38.38,0,0,1,.11-.23.32.32,0,0,0,.17.06.47.47,0,0,0,.33-.13c.1-.09.1-.12.1-.12a1.5,1.5,0,0,0,.33.08.38.38,0,0,0,.38-.17.35.35,0,0,0,0-.32s-.07,0-.07,0,0,.16-.08.21A.24.24,0,0,1,17,6a.81.81,0,0,0-.33,0l-.14,0a.56.56,0,0,1,.22-.15A.18.18,0,0,1,17,5.9s.06.11.09,0a.36.36,0,0,0,0-.29.29.29,0,0,0-.26-.11.45.45,0,0,0-.14,0,.32.32,0,0,0-.19-.18.68.68,0,0,0-.5.11.62.62,0,0,1-.23,0,.75.75,0,0,1-.2-.1l0-.12.07,0s0,0,0,0-.06-.08-.06-.08a.16.16,0,0,1,.1-.15l.1,0s.07,0,.1,0a.06.06,0,0,0,0,0,.13.13,0,0,0,.07,0,.11.11,0,0,0,0-.11s0-.05,0-.06a.15.15,0,0,0,0-.09v0s0,0,0-.07A.11.11,0,0,0,16,4.34h0a.15.15,0,0,0,0-.08l-.05-.07a.06.06,0,0,0,0-.06.1.1,0,0,0-.07-.07h-.05L15.62,4l0,0a.18.18,0,0,0,0-.06.13.13,0,0,0-.07,0h0l-.22,0h-.06A1.35,1.35,0,0,0,15,3.74h-.07A.27.27,0,0,0,15,3.58a.22.22,0,0,0-.1-.17l-.06,0v0h.1V3.17h-.1l0-.09h-.21v.1h-.1v.16l.11,0v.06l-.07,0a.21.21,0,0,0-.1.17.29.29,0,0,0,0,.15h-.07a1.12,1.12,0,0,0-.18.08h-.07l-.21,0h0s-.06,0-.07,0a.1.1,0,0,0,0,.06l0,0-.13.07h-.06a.12.12,0,0,0-.07.07.06.06,0,0,0,0,.06l-.05.07a.15.15,0,0,0,0,.08h0a.09.09,0,0,0-.05.09c0,.06,0,.07,0,.07v0a.14.14,0,0,0,0,.09s0,0,0,.06a.14.14,0,0,0,0,.11.13.13,0,0,0,.07,0s0,0,0,0,.09,0,.09,0l.1,0c.12.06.11.15.11.15s-.07,0-.07.08,0,0,0,0l.07,0,0,.12a.62.62,0,0,1-.2.1.56.56,0,0,1-.22,0,.69.69,0,0,0-.5-.11.29.29,0,0,0-.19.18.47.47,0,0,0-.15,0,.29.29,0,0,0-.26.11.4.4,0,0,0,0,.29c0,.1.06,0,.09,0a.18.18,0,0,1,.21-.06.49.49,0,0,1,.22.15l-.13,0a.86.86,0,0,0-.34,0,.24.24,0,0,1-.24,0c-.08,0-.08-.17-.08-.21s-.05,0-.06,0a.3.3,0,0,0,0,.32c.07.15.22.17.37.17a1.5,1.5,0,0,0,.33-.08s0,0,.1.12a.48.48,0,0,0,.33.13.38.38,0,0,0,.18-.06.45.45,0,0,1,.11.23s0,.1.05.1.12-.08.12-.08a.6.6,0,0,0,0,.08.72.72,0,0,1,0,.26s0,.1,0,.11l.13,0a.4.4,0,0,1-.1.28v0l-.08,0L13,7.92a1.08,1.08,0,0,1,.18.7h0s-.06,0-.11-.07S13,8.43,13,8.4a1.76,1.76,0,0,0-.27,0c-.1,0-.21,0-.23-.13s0-.15.13-.23a.43.43,0,0,0,.23-.36c0-.19-.11-.3-.33-.55a2.08,2.08,0,0,1-.33-.52c0-.06,0,0-.07,0l0,.11s-.07,0-.24-.35a2.35,2.35,0,0,1-.26-.69c0-.09,0,0-.07,0a5.69,5.69,0,0,1-.17-1.27.94.94,0,0,0-.22.4,2.09,2.09,0,0,0-.05.79,1.71,1.71,0,0,0,.09.44c0,.1,0,0,0,0a2.4,2.4,0,0,1-.21-.61,3.24,3.24,0,0,1-.07-.68.52.52,0,0,0-.11.15,1.71,1.71,0,0,0-.09.75,2.79,2.79,0,0,0,.25,1c.08.14,0,.06,0,0a2.94,2.94,0,0,1-.24-.46c-.07-.2-.2-.6-.21-.66s0,0-.06,0a1.29,1.29,0,0,0-.08.37,2.28,2.28,0,0,0,.11.58,2.55,2.55,0,0,0,.33.55c.08.1,0,0,0,0s0,0-.16-.17a2.93,2.93,0,0,1-.39-.64c0-.07-.06,0-.06,0a1.12,1.12,0,0,0,.09.56,1.68,1.68,0,0,0,.59.71c.17.11.05.06,0,0a2.94,2.94,0,0,1-.35-.25c-.1-.08-.28-.31-.33-.35S10,7,10,7.11a1,1,0,0,0,.31.59,1.37,1.37,0,0,0,.46.28h-.06a1.18,1.18,0,0,1-.32-.13A4.2,4.2,0,0,1,10,7.57c-.06-.05-.05,0,0,.11a.81.81,0,0,0,.31.44,2,2,0,0,0,.7.33c.1,0,0,0,0,0l-.24-.05a2.31,2.31,0,0,1-.6-.26c-.09-.05-.1-.07-.09,0a.76.76,0,0,0,.32.46,1.71,1.71,0,0,0,.62.17c.09,0,.06,0,0,0l-.29,0a2.32,2.32,0,0,1-.4-.1V8.67s0,0-.05,0l-.07,0s0,0-.05,0,0-.08,0-.11,0,0,0,0L10,8.61s0,0,0,.08l0,.09-.13,0s0,0,0,0L10,9a0,0,0,0,0,0,0l.1-.06,0,.13-.09,0s0,.08,0,.1a.35.35,0,0,1,.21.19,3.12,3.12,0,0,1,.14.78.94.94,0,0,0,.34.63s0,0,0,0a.16.16,0,0,0,0,.13.18.18,0,0,0,.12.13s0,.05,0,.05a.73.73,0,0,0,0,.24.84.84,0,0,0,.18.36s0,0,0,.06,0,0-.07,0a.5.5,0,0,0-.12.13.22.22,0,0,0,0,.16c0,.08.12.14.12.14s0,0,0,.07a.18.18,0,0,0,.08.15.43.43,0,0,0,.15.06v.08s.07.07.11.09a.17.17,0,0,0,.14,0s.06,0,.08,0a.64.64,0,0,1,0,.2c0,.05,0,.11,0,.13s.06,0,.11,0,.06,0,.1,0a.36.36,0,0,0,.13,0s0,0,0-.08a.52.52,0,0,1,0-.14l.14,0s.06,0,.06,0,0,0-.11-.07a.48.48,0,0,1-.15-.1s0-.05,0-.06,0,0,0-.05a.16.16,0,0,0,0-.07l.06-.06L12,12.4s.07-.13.1-.17a1.31,1.31,0,0,0,.13-.12,1.06,1.06,0,0,1,.19-.16l.21-.11a.26.26,0,0,0,0,.14s.09,0,.27-.16a1.44,1.44,0,0,1,.31-.17l.08.12c.05.06.09,0,.31-.3a3.44,3.44,0,0,1,.48-.53l.05,0,0,0a1.5,1.5,0,0,1-.09.18c0,.09-.11.11-.18.23a.59.59,0,0,0-.09.31c0,.12.06.14.06.14a.75.75,0,0,0-.14.19.82.82,0,0,0-.05.24s0,0-.06.09-.11.09-.22.2a1.24,1.24,0,0,1-.27.18s0,.06,0,.1a.33.33,0,0,0,.18.12.41.41,0,0,0,.18,0c.06,0,0,0,0,.07a.38.38,0,0,0-.05.2c0,.1.08.08.17.06a.67.67,0,0,0,.19-.06v0a.35.35,0,0,0,0,.12c0,.08,0,.12,0,.14s.07,0,.1,0a.63.63,0,0,1,.17-.06.15.15,0,0,0,.1-.06.15.15,0,0,0,0,.08,1.15,1.15,0,0,0,0,.19.39.39,0,0,0,.1.15c.06.05.07,0,.11,0a1.2,1.2,0,0,1,.12-.14,1.36,1.36,0,0,0,.06.2.81.81,0,0,0,.23.32.81.81,0,0,0,.23-.32,1.36,1.36,0,0,0,.06-.2,1.2,1.2,0,0,1,.12.14c0,.07.06.09.11,0a.39.39,0,0,0,.1-.15.59.59,0,0,0,0-.19.15.15,0,0,0,0-.08.2.2,0,0,0,.11.06.53.53,0,0,1,.16.06s.08.05.1,0a.19.19,0,0,0,0-.14.29.29,0,0,0,0-.12v0a.67.67,0,0,0,.19.06c.09,0,.16,0,.17-.06a.38.38,0,0,0-.05-.2S16,13,16,13a.41.41,0,0,0,.18,0,.33.33,0,0,0,.18-.12s0-.07,0-.1a1.54,1.54,0,0,1-.27-.18c-.11-.11-.18-.12-.22-.2l-.05-.09a1.44,1.44,0,0,0,0-.24,1,1,0,0,0-.15-.19s.07,0,.06-.14a.45.45,0,0,0-.09-.31c-.07-.12-.14-.14-.18-.23a1.5,1.5,0,0,1-.09-.18.08.08,0,0,1,0,0l.06,0a4,4,0,0,1,.48.53c.22.3.26.36.31.3l.08-.11a1,1,0,0,1,.31.17c.18.12.23.2.27.16a.19.19,0,0,0,0-.1L17,12l.2.08a1,1,0,0,1,.29.2.52.52,0,0,0,.46,0c.16,0,.6-.19.77-.27a1,1,0,0,0,.32-.17.59.59,0,0,0,0-.17.19.19,0,0,0-.05-.1s0,0,0-.06,0-.09,0-.11,0-.05,0-.13a.53.53,0,0,0-.3-.48l0,0,0,0v-.12s0,0,0,0,0,0,.06,0,.05,0,.06,0a.74.74,0,0,1,0-.14s0,0,0,0h-.07s0,0,0,0,0,0,0-.07,0,0,0,0l-.18-.05a0,0,0,0,0,0,0v.1s0,0,0,0l-.06,0s0,0-.05,0,0,.13,0,.16,0,0,0,.06h.11s0,0,0,0a.44.44,0,0,1-.05.09.06.06,0,0,1-.06,0h-.07a.6.6,0,0,0-.33.11.56.56,0,0,0-.2.23c0,.05-.05,0-.07.06s-.08.08-.08.12,0,.06-.05.1a.22.22,0,0,0,0,.3.8.8,0,0,1,.13.22s0,.06,0,.06a.28.28,0,0,1-.1-.06l-.31-.24c-.08-.06,0-.05,0-.05l.07,0s0,0,0-.06a.46.46,0,0,1-.17-.09s0-.05,0-.08.15-.09.07-.11l-.26-.06c-.07,0-.08-.05-.08-.05l.05-.07s0-.06,0-.07a1.11,1.11,0,0,1-.28-.07.66.66,0,0,1-.4-.45h0c0,.08.14.23.28.23s.22,0,.17-.12l-.11-.14s0,0,0,0a.47.47,0,0,0,.44.2c.3,0,.3-.08.3-.1s-.06-.06-.1-.1,0,0,0,0a.84.84,0,0,0,.41,0c.07,0,.28-.11.3-.22a.65.65,0,0,1-.22,0c-.09,0-.15-.08-.05-.06a1,1,0,0,0,.45,0c.1,0,.23-.11.23-.26l-.25-.06-.09,0a.74.74,0,0,0,.5,0c.23-.12.24-.28.24-.32V9.26a2.12,2.12,0,0,1-.38.05.67.67,0,0,1-.21,0,1.73,1.73,0,0,0,.68-.15.53.53,0,0,0,.23-.41,1.75,1.75,0,0,1-.41.11l-.3,0s-.06,0,0,0A1.72,1.72,0,0,0,19,8.67a.72.72,0,0,0,.32-.46c0-.11,0-.09-.08,0a2.67,2.67,0,0,1-.6.26l-.25.05s-.07,0,0,0M10.4,9l-.09,0-.05-.1s0,0,0,0h.09a.36.36,0,0,0,0,.09h0m2.75,1.61a.75.75,0,0,1-.31.25.8.8,0,0,1-.28.07c-.05,0,0,.07,0,.07l0,.08s0,0-.08,0l-.26.06c-.09,0,0,.09.07.12s0,.05,0,.07a.69.69,0,0,1-.17.1s0,0,0,.06l.18,0-.09.07a.55.55,0,0,1-.31.1h-.62s0-.06,0-.15a.78.78,0,0,0-.11-.28l-.13-.18V11a.17.17,0,0,0,0-.12.61.61,0,0,0-.13-.14.8.8,0,0,1,0-.11,2.22,2.22,0,0,0-.07-.38,3.3,3.3,0,0,0-.28-.51,1.52,1.52,0,0,1-.15-.47.53.53,0,0,1,0-.23s0,0,0-.05a.69.69,0,0,0,.13.11,1.67,1.67,0,0,0,.67.15.67.67,0,0,1-.21,0,2,2,0,0,1-.37-.05s0,0,0,.05,0,.2.25.32a.72.72,0,0,0,.49,0l-.09,0-.24.06a.29.29,0,0,0,.22.26,1,1,0,0,0,.46,0c.09,0,0,0-.05.06a.73.73,0,0,1-.23,0c0,.11.23.2.31.22a.8.8,0,0,0,.4,0c.06,0,.05,0,0,0s-.09.05-.09.1,0,.08.29.1a.46.46,0,0,0,.44-.2c.06,0,.05,0,0,0l-.11.14c0,.07,0,.13.17.12s.24-.16.28-.24h0l-.08.19M15.53,4.2l0-.08a.93.93,0,0,1,.18.13.35.35,0,0,1,.07.15.51.51,0,0,1,0,.17.23.23,0,0,0,0,.12l0,0-.1,0a.18.18,0,0,1-.14,0s0,0,0-.07a.2.2,0,0,0,.11-.18.74.74,0,0,0-.08-.32m-.61.37a.42.42,0,0,0,0-.26,3.06,3.06,0,0,1,0-.32.42.42,0,0,1,.21.12.43.43,0,0,1,.14.27c0,.06,0,.12,0,.18a.15.15,0,0,0,0,.09l-.08,0a.18.18,0,0,1-.13,0,.29.29,0,0,1-.13,0l-.05,0a.22.22,0,0,0,.09-.1m-.57-.46a.38.38,0,0,1,.2-.12,3.06,3.06,0,0,1-.05.32.5.5,0,0,0,0,.26.3.3,0,0,0,.09.1l0,0a.25.25,0,0,1-.13,0,.18.18,0,0,1-.13,0l-.08,0a.22.22,0,0,0,0-.09,1.16,1.16,0,0,1,0-.18.41.41,0,0,1,.15-.27m-.43.66a.18.18,0,0,1-.14,0l-.09,0,0,0a.23.23,0,0,0,0-.12.51.51,0,0,1,0-.17.3.3,0,0,1,.08-.15A.72.72,0,0,1,14,4.12l0,.08a.74.74,0,0,0-.08.32.2.2,0,0,0,.11.18s0,0,0,.07M15.49,5.9c-.11.06-.18,0-.17.1s.1.08.1.08a1.28,1.28,0,0,1-.19.17.86.86,0,0,1-.18.08s0,0,0,.06a.17.17,0,0,0,.08.1l0,0-.21.2a.49.49,0,0,1-.15.09c-.05,0,0,.11,0,.15s.06.09.09.09,0,0,0,.08l-.15.2h0l-.15-.2s0-.07,0-.08.08-.06.09-.09,0-.13,0-.15a.65.65,0,0,1-.15-.09l-.21-.2,0,0a.17.17,0,0,0,.08-.1s0-.06,0-.06a.86.86,0,0,1-.18-.08A1.28,1.28,0,0,1,14,6.08s.1,0,.11-.08-.06,0-.18-.1a.42.42,0,0,1-.16-.15A.37.37,0,0,0,14,5.57a.21.21,0,0,0,0-.13h0a2.3,2.3,0,0,0,.69.09,2.25,2.25,0,0,0,.69-.09h0a.22.22,0,0,0,0,.13.34.34,0,0,0,.2.18.42.42,0,0,1-.16.15"/><path class="cls-4" d="M13.11,6.08a1,1,0,0,0-.3-.09.94.94,0,0,0-.34,0,.35.35,0,0,1-.2,0,.29.29,0,0,1-.19-.21.19.19,0,0,0,0,.23.24.24,0,0,0,.15.1c.19,0,.37-.07.52-.08a.44.44,0,0,1,.26.08.06.06,0,0,0,.08,0c.05,0,.07,0,0-.08"/><path class="cls-4" d="M17.36,5.83a.27.27,0,0,1-.19.21A.35.35,0,0,1,17,6a.94.94,0,0,0-.34,0,1,1,0,0,0-.3.09s0,0,0,.08a.06.06,0,0,0,.08,0,.44.44,0,0,1,.26-.08c.16,0,.34.12.52.08a.29.29,0,0,0,.15-.1.19.19,0,0,0,0-.23"/><path class="cls-3" d="M16.2,8.51a1.06,1.06,0,0,1,.17-.59l-.46-.52a1.45,1.45,0,0,1-1.19,0,1.42,1.42,0,0,1-1.18,0l-.46.52a1.06,1.06,0,0,1,.17.59,2.77,2.77,0,0,1-.12.81,1.48,1.48,0,0,0,0,.75,1,1,0,0,0,.6.61,3.09,3.09,0,0,1,.76.37,1.63,1.63,0,0,1,.21.21,1.63,1.63,0,0,1,.21-.21,3.53,3.53,0,0,1,.76-.37.93.93,0,0,0,.6-.61,1.38,1.38,0,0,0,0-.75,3.26,3.26,0,0,1-.11-.81"/><path class="cls-3" d="M12.7,11.42l-.2.08-.05,0a1,1,0,0,1-.18.13.54.54,0,0,1-.25.09h-.58a.32.32,0,0,0-.29.09.17.17,0,0,0,0,.24.13.13,0,0,0,.2,0,.17.17,0,0,0,0-.14s0,0,.06,0a.51.51,0,0,1,.17,0,.81.81,0,0,1,.22.07s0,0,0,0l-.12,0-.14,0s0,0,0,0a.11.11,0,0,1,0,.06s0,.06,0,.06l0,0,0-.05a.16.16,0,0,0,0-.07s0,0,.06,0a.2.2,0,0,1,.07.13.23.23,0,0,1,0,.11s0,0,0,0,0,.08,0,.08,0,0,0,0,0-.11.05-.13,0-.07,0,0a.28.28,0,0,1,.05.09.1.1,0,0,1,0,0l.08-.1a.75.75,0,0,1,.13-.15c.06,0,.17-.15.22-.18l.23-.13s0,0,0-.1a.76.76,0,0,1,.06-.18.31.31,0,0,1,0-.07"/><path class="cls-3" d="M12.58,11.37h0l-.1,0h0l-.15.1h.22a.17.17,0,0,0,.12-.07"/><path class="cls-3" d="M13.2,11.33v0l0-.06-.07.05-.11.13c0,.05-.09.09,0,0l.09-.16.06-.07-.13,0a.42.42,0,0,1-.19-.07l-.11-.06-.22.08s-.09,0,0,0l.13.05a.38.38,0,0,0,.16,0c.06,0,.15,0,.11,0a1,1,0,0,0-.11.21.69.69,0,0,0,0,.25.41.41,0,0,0,0,.09,1,1,0,0,1,.23-.17,1.42,1.42,0,0,1,.27-.16s0,0,0-.06a1.15,1.15,0,0,1,0-.16"/><path class="cls-3" d="M13.85,10.81h0a.53.53,0,0,0-.17.15c0,.07-.08.07,0,0a.7.7,0,0,1,.12-.15l0,0a1.82,1.82,0,0,1-.27-.15l-.05.09a.41.41,0,0,1-.12.07,1.15,1.15,0,0,0,.09-.12.31.31,0,0,0,0-.08l-.17-.17a.55.55,0,0,1-.15.26.88.88,0,0,1-.4.23s-.09,0,0,0A.46.46,0,0,0,13,11l.18,0s.07,0,0,0a1.18,1.18,0,0,1-.31.05c-.07,0-.16,0-.07,0a.43.43,0,0,0,.2.07h.25s.06,0,.06,0a.32.32,0,0,0,0,.17.78.78,0,0,0,0,.21l.05.12s0,.06,0,0l.07-.22a.81.81,0,0,0,0-.09s0-.06,0,0a1.67,1.67,0,0,0-.05.18c0,.06,0,.15,0,.08s.23-.28.26-.32a.61.61,0,0,0,.07-.1,1.2,1.2,0,0,0,.12-.11l.14-.15-.16-.07"/><path class="cls-3" d="M10.34,8.78l0-.07a0,0,0,0,0,0,0,.27.27,0,0,1-.08,0s0,0,0,0a.89.89,0,0,0,0-.11s0,0,0,0L10,8.6s0,0,0,.05l.06.11s0,0,0,0l-.08,0s0,0,0,0A.31.31,0,0,0,10,9s0,0,0,0l.07,0s0,0,.05,0a1.09,1.09,0,0,0,0,.17s0,0,0,0h.06s0-.05,0-.05l-.09-.16s0,0,0,0l.1,0s0,0,0,0"/><path class="cls-3" d="M11.14,12.24s0-.06,0-.08a.34.34,0,0,1-.07-.11s0-.06,0-.08,0,0-.06,0-.07,0-.07.11a.18.18,0,0,0,.12.18c.1,0,.1,0,.09,0"/><path class="cls-3" d="M11.24,12.21s0,0,0,0,0,0,0,.07a.16.16,0,0,0,.07.07s0,0,0,0a.06.06,0,0,0,0,0,.2.2,0,0,1,0,0s0,0,0,0"/><path class="cls-3" d="M11.35,12.53s0,0,.08,0a.44.44,0,0,1,.15,0s.09-.06.08-.11a.11.11,0,0,0-.08-.09H11.5a.1.1,0,0,1-.07.05l-.06,0s0,0,0,0-.05,0-.08,0,0,0-.06,0h-.15s0,0,0,0a.13.13,0,0,0,0,.1.38.38,0,0,0,.14,0l.11,0s.05,0,.06,0"/><path class="cls-3" d="M11.79,12.58s0-.07,0-.1-.06,0-.09,0h-.06a.14.14,0,0,1-.07,0l-.12.05c-.06,0-.07.06-.1.07s-.07,0-.07,0h0s0,0,0,.05.07,0,.11,0a.09.09,0,0,0,.08,0l.06-.06a.32.32,0,0,1,.14,0l.13,0"/><path class="cls-3" d="M11.79,12.41s0,0,.05,0,0-.07,0-.1l0-.05,0,.1s0,0,0,0"/><path class="cls-3" d="M11.64,12.16a.29.29,0,0,0,0-.1.44.44,0,0,1,0,.08.25.25,0,0,1,0,.06h.07s0,0,0-.05"/><path class="cls-3" d="M11.38,12.26a.15.15,0,0,0,.09,0,.06.06,0,0,0,0-.09.13.13,0,0,0-.06,0h0a.17.17,0,0,1,0,.07.1.1,0,0,0,0,.07s0,.06.05,0"/><path class="cls-3" d="M11.48,12a.11.11,0,0,0,0-.06l0,0a.35.35,0,0,0,0,.06v0l0,0s0,0,0,0"/><path class="cls-3" d="M10.86,10.75s.06,0,0-.21a1.44,1.44,0,0,0-.22-.55,2.75,2.75,0,0,1-.22-.47,1.41,1.41,0,0,1-.07-.36.22.22,0,0,1,0-.13s0,0,0,0,0,0-.06,0a.28.28,0,0,0-.06.09v0h-.11c-.07,0-.11,0-.11,0s0,0,.06.05.09,0,.11.06a.92.92,0,0,1,.11.26,2.37,2.37,0,0,1,.09.44,1.62,1.62,0,0,0,.14.51c0,.05.16.31.28.25"/><path class="cls-3" d="M11,11.13c-.05,0-.05.23,0,.33a.66.66,0,0,0,.16.27s0,0,.05,0h0l.07,0s0-.09,0-.15a.94.94,0,0,0-.13-.3c-.08-.13-.12-.16-.17-.13"/><path class="cls-3" d="M11,11a.12.12,0,0,0-.12-.12.08.08,0,0,0-.07,0,.12.12,0,0,0,.07.2.13.13,0,0,0,.1,0A.11.11,0,0,0,11,11"/><path class="cls-3" d="M12,12.85l-.08,0a.36.36,0,0,1-.11-.1s0,0-.05,0h-.13s0,.05,0,.09a.69.69,0,0,1,0,.18,0,0,0,0,1,0,0s0,0,0,0,0,0,0,0l.08-.12H12s0,0,0-.05"/><path class="cls-3" d="M11.83,13h0s0,0,0,0a0,0,0,0,0,0,0l0,0,0,0s0,0,0,0,0-.05,0-.07a0,0,0,0,0,0,0"/><path class="cls-3" d="M11.36,6.19a1.16,1.16,0,0,0,.19.43c.07.12.09.16.08.17s0,0-.08-.1-.11-.17-.17-.26a2.1,2.1,0,0,1-.17-.32s0,0-.05,0a.52.52,0,0,0,0,.41,1.29,1.29,0,0,0,.23.33c0,.05.1.14.09.15l-.08-.07-.2-.23A1.54,1.54,0,0,1,11,6.48s0,0,0,0a.26.26,0,0,0,0,.2.58.58,0,0,0,.2.36c.08.09.16.16.15.18s-.1-.07-.16-.12l-.23-.23s-.07,0-.07.13.17.3.24.39.15.13.15.15-.08,0-.13-.06l-.25-.16s0,0,0,.16a.61.61,0,0,0,.24.31c.07.06.19.12.19.14s-.06,0-.13,0L11,7.8c-.06,0-.06,0-.06,0a.28.28,0,0,0,.07.22.54.54,0,0,0,.29.15c.09,0,.11,0,.11,0h-.23q-.12,0-.12.06s0,.08.12.16a.77.77,0,0,0,.31.11c.06,0,.06,0,.05,0s0,0-.13,0-.15,0-.16.07a.16.16,0,0,0,.08.14.5.5,0,0,0,.32.06c.14,0,.18,0,.18,0s0,0-.11,0a.58.58,0,0,0-.17,0s0,.1.06.15a.67.67,0,0,0,.31.05c.08,0,.19,0,.19,0s-.05,0-.12.07-.1.05-.11.08,0,.06.08.09a.48.48,0,0,0,.29,0c.06,0,.1,0,.11,0s0,0,0,0a.33.33,0,0,1-.15.08c-.07,0-.08,0-.11.08s0,.11.18.12a.87.87,0,0,0,.37-.09c.06,0,.08,0,.09,0s0,0,0,.05a.68.68,0,0,1-.17.09.08.08,0,0,0-.05.08s0,.09.11.12A.48.48,0,0,0,13,9.88S13,9.83,13,9.8a1.21,1.21,0,0,1,0-.28l-.12,0a.24.24,0,0,1-.12-.13s0,0-.07,0l-.1,0a.25.25,0,0,1-.19-.1.24.24,0,0,1,0-.18s-.06,0-.09,0A.39.39,0,0,1,12.11,9,.18.18,0,0,1,12,8.84.08.08,0,0,0,12,8.79a.3.3,0,0,1-.11-.07.23.23,0,0,1-.07-.15s0,0-.15-.09-.09-.17-.09-.22.06-.08.06-.1l-.08,0a.23.23,0,0,1-.13-.19c0-.14.09-.15.09-.15l-.05,0s-.14-.09-.14-.17a.14.14,0,0,1,.07-.13.34.34,0,0,1,.1,0,.18.18,0,0,1-.07-.09.21.21,0,0,1,0-.2.22.22,0,0,1,.16,0s.08,0,.09,0,0,0,0,0a.23.23,0,0,1,0-.14.16.16,0,0,1,.12-.11.37.37,0,0,1,.24,0s0,0,0,0-.07-.12-.15-.24a3,3,0,0,1-.2-.37,2.31,2.31,0,0,1-.16-.47c0-.07,0,0,0,0s0,0-.08.15a.77.77,0,0,0-.06.38"/><path class="cls-3" d="M13.17,8.64A.25.25,0,0,1,13,8.52c-.06-.09-.15-.12-.31-.11a.27.27,0,0,1-.28-.19.26.26,0,0,1,.17-.32c.17-.08.24-.17.25-.3s-.17-.32-.34-.51a2.56,2.56,0,0,1-.3-.47.23.23,0,0,0-.05.13c0,.06,0,.13,0,.15s0,0-.13-.07-.18,0-.24,0,0,.19,0,.25.1.11.09.13-.1,0-.13-.06-.09-.09-.19-.08-.13,0-.14.12.09.15.15.18.09.06.07.07,0,0-.06,0a.25.25,0,0,0-.15,0,.1.1,0,0,0-.05.17.55.55,0,0,0,.25.12s.05,0,.05,0-.06,0-.14,0-.11.08-.1.14.15.13.23.14.1,0,.11,0,0,0,0,0-.13,0-.15.09a.15.15,0,0,0,0,.16.27.27,0,0,0,.2,0s.07,0,.1,0,0,.06-.08.09-.05.11,0,.16a.3.3,0,0,0,.22,0s.08-.07.11,0-.08.05-.12.11,0,.14.06.19a.3.3,0,0,0,.25,0,0,0,0,0,1,.07,0s0,.07,0,.11a.15.15,0,0,0,.07.22.28.28,0,0,0,.27-.08s0,0,.06,0,0,0,0,.05a.13.13,0,0,0,0,.18.22.22,0,0,0,.17,0l.07-.25h0s0,0,0,0,0,0,0,0h0s0,0,0,0l0,0a.07.07,0,0,0,0-.05l0,0,0,0c0-.07,0-.16,0-.26s0-.13,0-.2Z"/><path class="cls-3" d="M10.53,6.72a1.22,1.22,0,0,0,.33.43,1,1,0,0,1,0-.11.36.36,0,0,1,0-.11,2.24,2.24,0,0,1-.14-.2,1.35,1.35,0,0,1-.14-.34s.09.2.15.31l.14.2s0-.1.05-.1,0,0,0,0a0,0,0,0,0,0,0l-.06-.1a.35.35,0,0,1-.05-.08,1.38,1.38,0,0,1-.22-.39,6,6,0,0,1-.21-.65c0-.12,0-.06-.06,0a1,1,0,0,0,0,.38,1.72,1.72,0,0,0,.2.68"/><path class="cls-3" d="M10.7,7.47l.13.09,0-.06a.59.59,0,0,1,0-.11l-.1-.09a1,1,0,0,1-.2-.21c-.11-.13,0,0,.06,0l.25.23v0a.09.09,0,0,1,0-.07s0,0-.09-.09a2.45,2.45,0,0,1-.42-.5c-.1-.16-.21-.38-.21-.38a1.16,1.16,0,0,0,.15.68,1.33,1.33,0,0,0,.43.5"/><path class="cls-3" d="M11.73,9.49a.13.13,0,0,0,.07-.15l-.12,0a1.34,1.34,0,0,1-.27.07c-.06,0-.06,0-.06,0h.13a2.54,2.54,0,0,0,.26-.11s0,0,0,0a.15.15,0,0,1-.08,0s-.06,0-.15,0a2.68,2.68,0,0,1-.45.05,1.42,1.42,0,0,1-.32,0s-.05,0,0,.14a.68.68,0,0,0,.52.18,1.39,1.39,0,0,0,.47-.13"/><path class="cls-3" d="M11.25,9.23a.46.46,0,0,0,.25-.05l0,0a.15.15,0,0,1,0-.1h-.13a.73.73,0,0,1-.26,0c-.1,0-.06,0,0,0a.79.79,0,0,0,.28,0c.05,0,0,0,0,0l-.12-.07a2.28,2.28,0,0,1-.44,0,2.31,2.31,0,0,1-.38-.09h0s0,0,.06.14a.63.63,0,0,0,.33.22,2.09,2.09,0,0,0,.48.06"/><path class="cls-3" d="M11.2,8.79a.12.12,0,0,1,0,0s0-.06,0-.06a.57.57,0,0,0-.18,0,1.4,1.4,0,0,1-.23-.05c-.09,0-.15,0-.14,0s0,0,.07,0a2.84,2.84,0,0,0,.36,0c.09,0,.14,0,.15,0l.08,0-.09,0-.12,0s0,0-.14,0a1.69,1.69,0,0,1-.41-.12,1.53,1.53,0,0,1-.4-.2s0,0,0,0a.37.37,0,0,0,.12.21.71.71,0,0,0,.41.27,1.46,1.46,0,0,0,.55.08"/><path class="cls-3" d="M10.43,8.16a1.55,1.55,0,0,0,.56.23s0-.07,0-.1,0,0,.09,0,0,0,0,0l-.11,0a3.19,3.19,0,0,1-.31-.09c-.13,0-.17-.08-.16-.09l.17.07a1.93,1.93,0,0,0,.33.08c.07,0,0,0,0,0a.51.51,0,0,1-.08-.09L10.68,8a1.61,1.61,0,0,1-.36-.15l-.11-.08L10,7.63s0,0,0,0a.51.51,0,0,0,.11.22c.07.11.09.14.32.3"/><path class="cls-3" d="M10.39,7.71a1.62,1.62,0,0,0,.46.25s0,0,0,0a.28.28,0,0,1,0-.08l-.17-.1-.26-.17c-.06,0,0,0,0,0l.2.13.23.14a.08.08,0,0,1,0,0,.12.12,0,0,1,.07,0l0,0a.76.76,0,0,0-.17-.09,2.43,2.43,0,0,1-.34-.24A4.78,4.78,0,0,1,10.06,7s0,0,0,0a.43.43,0,0,0,0,.15,1.12,1.12,0,0,0,.35.51"/><path class="cls-3" d="M11.19,6l.08.13.05.08V6.18a.28.28,0,0,1,0-.13.21.21,0,0,0,0-.08s0,0,0-.06,0-.17-.06-.26a3.31,3.31,0,0,1,0-.34c0-.12,0-.06,0,0s0,.14,0,.27a2.94,2.94,0,0,0,.08.34.17.17,0,0,1,0-.07l.07-.15c0-.06,0-.07,0-.07s-.08-.38-.1-.56-.05-.65-.05-.65a1.23,1.23,0,0,0-.22.72,2.91,2.91,0,0,0,0,.5,1.41,1.41,0,0,0,.09.38"/><path class="cls-3" d="M10.94,6.62c0-.09,0-.16.07-.17l-.09-.21A1.4,1.4,0,0,1,10.86,6c0-.2-.06-.41,0-.07a1.36,1.36,0,0,0,.14.47l.08.14a1,1,0,0,1,0-.17,1,1,0,0,1,0-.24,2.58,2.58,0,0,1-.18-.47,3.1,3.1,0,0,1-.1-.62c0-.14,0-.19,0-.19s-.11.08-.15.5a2.73,2.73,0,0,0,.13,1c0,.15.14.34.14.34"/><path class="cls-3" d="M12.13,9.79l-.07,0c-.05,0,0-.13,0-.13l0,0-.13.07-.11,0s0,0,0,0l.11-.05a1.1,1.1,0,0,0,.2-.15H12a.49.49,0,0,1-.13,0,.77.77,0,0,1-.28.15,1.93,1.93,0,0,1-.42.13.22.22,0,0,0,.13.16.76.76,0,0,0,.46,0,1.68,1.68,0,0,0,.42-.16"/><path class="cls-3" d="M12.43,10a.2.2,0,0,0,0-.16l0,0a.76.76,0,0,1-.18.13c-.1.05-.14.05,0,0a1.48,1.48,0,0,0,.23-.19l0,0s-.1,0-.36.17a1,1,0,0,1-.41.16.54.54,0,0,0,.43.13c.32,0,.43-.16.45-.26"/><path class="cls-3" d="M13,9.91a.26.26,0,0,1-.08.08.68.68,0,0,1-.17,0l0,0a.58.58,0,0,1-.13.15.25.25,0,0,1-.15,0l.11-.06a.53.53,0,0,0,.13-.13c0-.05,0,0,0,0h-.13c-.06,0-.05,0-.06,0l-.09.1c-.05.07-.11.12-.16.19s0,.05,0,.05,0,0,.16,0a.4.4,0,0,0,.27-.06.56.56,0,0,0,.19-.16A.48.48,0,0,0,13,9.91"/><path class="cls-3" d="M13.09,10.29l-.05.06.05-.11,0,0a1.15,1.15,0,0,1-.06-.17,1.19,1.19,0,0,1-.12.29c-.07.11-.14.15-.1.18a.23.23,0,0,0,.34-.18.3.3,0,0,0,0-.08l-.05,0"/><path class="cls-3" d="M18.33,7.79a.7.7,0,0,0,.25-.32c0-.14,0-.19,0-.16l-.25.16c-.05,0-.11.08-.12.06s.08-.07.15-.15A.81.81,0,0,0,18.59,7c0-.15-.05-.17-.08-.13l-.23.23c-.06,0-.14.13-.15.12s.07-.09.15-.18a.62.62,0,0,0,.19-.36.22.22,0,0,0,0-.2s0,0,0,0-.09.16-.14.22l-.21.23L18,7s.05-.1.1-.15a1.66,1.66,0,0,0,.22-.33.52.52,0,0,0,0-.41s0,0-.05,0a3.08,3.08,0,0,1-.16.32l-.18.26s-.06.11-.08.1,0,0,.08-.17a1.39,1.39,0,0,0,.2-.43A1.11,1.11,0,0,0,18,5.81C18,5.67,18,5.66,18,5.66s0,0,0,0a2.31,2.31,0,0,1-.16.47,1.76,1.76,0,0,1-.2.37c-.08.12-.15.2-.15.24s0,.07,0,0a.41.41,0,0,1,.25,0,.14.14,0,0,1,.11.11.22.22,0,0,1,0,.14s0,0,0,0,0,0,.09,0a.24.24,0,0,1,.17,0,.23.23,0,0,1,0,.2.14.14,0,0,1-.06.09l.1,0a.16.16,0,0,1,.06.13c0,.08-.1.15-.13.17l-.06,0s.09,0,.09.15a.2.2,0,0,1-.13.19l-.07,0s0,.06,0,.1a.19.19,0,0,1-.09.22c-.11.06-.14.06-.14.09a.2.2,0,0,1-.08.15.3.3,0,0,1-.11.07s-.06,0-.06.05a.24.24,0,0,1-.09.16.36.36,0,0,1-.19.06s-.08,0-.09,0a.24.24,0,0,1-.05.18.25.25,0,0,1-.19.1l-.1,0a0,0,0,0,0-.06,0,.29.29,0,0,1-.12.13l-.13,0a.83.83,0,0,1,0,.28l.08.08a.48.48,0,0,0,.39.08c.12,0,.11-.09.11-.12a.07.07,0,0,0,0-.08.83.83,0,0,1-.16-.09s0,0,0-.05,0,0,.09,0a.88.88,0,0,0,.38.09c.13,0,.2-.06.17-.12s0-.06-.11-.08a.28.28,0,0,1-.14-.08s0,0,0,0,.05,0,.12,0a.44.44,0,0,0,.28,0c.09,0,.1-.06.09-.09a.21.21,0,0,0-.11-.08c-.08,0-.14,0-.13-.07s.12,0,.19,0a.67.67,0,0,0,.31-.05c.07-.05.11-.12.06-.15a.5.5,0,0,0-.16,0c-.08,0-.12,0-.12,0s0,0,.19,0a.47.47,0,0,0,.31-.06.16.16,0,0,0,.08-.14s-.06-.06-.16-.07-.11,0-.13,0,0,0,0,0a.8.8,0,0,0,.32-.11c.12-.08.12-.13.12-.16s0-.06-.13-.06h-.22s0,0,.11,0a.55.55,0,0,0,.28-.15.32.32,0,0,0,.08-.22s0,0-.06,0l-.22.08c-.06,0-.11.06-.12,0s.11-.08.18-.13"/><path class="cls-3" d="M18,7.46a.25.25,0,0,0-.15,0s0,0-.06,0,0,0,.07-.07.16-.1.15-.18,0-.11-.14-.12-.16.07-.19.08-.11.08-.12.06,0-.07.08-.13.12-.18.06-.25-.14-.06-.24,0-.11.09-.14.07,0-.09,0-.15a.23.23,0,0,0-.05-.13,2.56,2.56,0,0,1-.3.47c-.17.19-.34.37-.33.51a.36.36,0,0,0,.24.3.25.25,0,0,1,.17.32.26.26,0,0,1-.27.19c-.16,0-.26,0-.32.11a.24.24,0,0,1-.2.12h0c0,.07,0,.13,0,.2s0,.19.05.26v0s0,0,0,0l0,.05,0,0,0,0h0s0,0,0,0a0,0,0,0,0,0,0h0c0,.11.05.18.06.25a.22.22,0,0,0,.17,0,.13.13,0,0,0,.05-.18s0,0,0-.05,0,0,.06,0a.28.28,0,0,0,.27.08A.16.16,0,0,0,17,9.05S17,9,17,8.94s.05,0,.08,0a.29.29,0,0,0,.25,0,.14.14,0,0,0,.06-.19c-.05-.06-.15-.07-.12-.11s.07,0,.11,0a.27.27,0,0,0,.21,0c.09,0,.1-.12,0-.16s-.11-.06-.08-.09.07,0,.1,0a.27.27,0,0,0,.2,0,.12.12,0,0,0,.05-.16c0-.07-.1-.08-.14-.09s-.06,0-.06,0,0,0,.12,0S18,8,18,7.94a.1.1,0,0,0-.09-.14c-.08,0-.15,0-.15,0s0,0,.05,0a.58.58,0,0,0,.26-.12A.1.1,0,0,0,18,7.46"/><path class="cls-3" d="M18.59,7.15a1.37,1.37,0,0,0,.33-.43,1.91,1.91,0,0,0,.2-.68,1,1,0,0,0,0-.38c0-.09-.05-.15-.07,0a5.35,5.35,0,0,1-.2.66,2.16,2.16,0,0,1-.22.39l-.06.08-.05.1,0,0s0,0,.05,0,0,.1,0,.1a1.22,1.22,0,0,0,.14-.2,2.41,2.41,0,0,0,.15-.31,1.35,1.35,0,0,1-.14.34l-.13.2a.66.66,0,0,1,0,.11l0,.11"/><path class="cls-3" d="M19.32,6.29a3.93,3.93,0,0,1-.2.38,2.83,2.83,0,0,1-.43.5c-.09.07-.1.07-.08.09a.14.14,0,0,1,0,.07v0a3,3,0,0,0,.25-.23c.09-.09.17-.17.07,0a1.39,1.39,0,0,1-.2.21l-.11.09a.59.59,0,0,1,0,.11l0,.06.13-.09a1.4,1.4,0,0,0,.44-.5,1.19,1.19,0,0,0,.14-.68"/><path class="cls-3" d="M18.38,5.14a1.39,1.39,0,0,0-.22-.72s0,.47-.06.65-.1.56-.1.56l0,.07a.94.94,0,0,1,.06.15.17.17,0,0,1,0,.07,2.94,2.94,0,0,0,.08-.34,1.66,1.66,0,0,0,0-.27c0-.06,0-.12,0,0a1.79,1.79,0,0,1,0,.34c0,.09-.05.23-.06.26s0,0,0,.06a.19.19,0,0,0,0,.08.55.55,0,0,1,0,.13.07.07,0,0,0,0,.05l.05-.08L18.25,6a1.41,1.41,0,0,0,.09-.38,2.67,2.67,0,0,0,0-.5"/><path class="cls-3" d="M18.64,6.28a2.33,2.33,0,0,0,.13-1c0-.42-.14-.5-.14-.5a1.14,1.14,0,0,0,0,.19,2.61,2.61,0,0,1-.11.62,3.09,3.09,0,0,1-.17.47,1,1,0,0,1,0,.24,1,1,0,0,1,0,.17l.09-.14a1.59,1.59,0,0,0,.13-.47c.06-.34,0-.13,0,.07a2.86,2.86,0,0,1-.07.28,1.38,1.38,0,0,1-.09.21c.05,0,.07.08.08.17s.08-.19.13-.34"/><path class="cls-3" d="M18.73,9.3a1.51,1.51,0,0,1-.32,0A2.45,2.45,0,0,1,18,9.28c-.1,0-.14,0-.15,0a.19.19,0,0,1-.09,0s0,0,0,0a1.62,1.62,0,0,0,.25.11h.13s0,0-.06,0a1.25,1.25,0,0,1-.26-.07l-.13,0a.13.13,0,0,0,.08.15,1.32,1.32,0,0,0,.47.13.61.61,0,0,0,.51-.19c.08-.12.05-.13,0-.13"/><path class="cls-3" d="M19,8.8a3,3,0,0,1-.39.09,2.28,2.28,0,0,1-.44,0L18.08,9s0,0,0,0a.75.75,0,0,0,.28,0c.07,0,.12,0,0,0a.8.8,0,0,1-.27,0H18a.27.27,0,0,1,0,.1l0,0a.48.48,0,0,0,.26.05,2,2,0,0,0,.47-.06A.63.63,0,0,0,19,9c.08-.12.07-.14.07-.14h0"/><path class="cls-3" d="M19.29,8.19a1.59,1.59,0,0,1-.39.2,2,2,0,0,1-.41.12c-.12,0-.12,0-.15,0l-.12,0-.08,0,.07,0a.37.37,0,0,0,.16,0,2.66,2.66,0,0,0,.35,0c.05,0,.08,0,.08,0l-.14,0a1.7,1.7,0,0,1-.23.05.73.73,0,0,0-.19,0s0,0,0,.06l0,0a1.46,1.46,0,0,0,.55-.08.75.75,0,0,0,.41-.27.39.39,0,0,0,.11-.21c0-.05,0-.07,0,0"/><path class="cls-3" d="M19.42,7.63l-.18.13-.12.08a1.3,1.3,0,0,1-.36.15l-.22.06a.28.28,0,0,1-.08.09s-.1.06,0,0a1.24,1.24,0,0,0,.32-.08c.12,0,.17-.08.18-.07s0,0-.16.09-.22.06-.31.09l-.11,0s-.05,0,0,0,.07,0,.09,0,0,.08,0,.1A1.6,1.6,0,0,0,19,8.16c.23-.16.26-.19.33-.3a.84.84,0,0,0,.11-.22s0,0,0,0"/><path class="cls-3" d="M18.56,7.78a.08.08,0,0,1,0,0l.23-.14L19,7.56s.06,0,0,0l-.26.17a1,1,0,0,1-.17.1.28.28,0,0,1,0,.08s0,0,0,0a1.8,1.8,0,0,0,.45-.25,1,1,0,0,0,.35-.51c0-.11,0-.13,0-.15s0,0,0,0-.23.25-.34.35a2,2,0,0,1-.35.24c-.08,0-.15.06-.17.09l0,0a.12.12,0,0,1,.07,0"/><path class="cls-3" d="M17.62,9.51l-.13,0H17.4a1.3,1.3,0,0,0,.21.15l.1.05s0,0,0,0l-.11,0-.14-.07,0,0s0,.1,0,.13l-.07,0a1.71,1.71,0,0,0,.41.16.75.75,0,0,0,.46,0,.22.22,0,0,0,.14-.16,1.77,1.77,0,0,1-.42-.13,1,1,0,0,1-.29-.15"/><path class="cls-3" d="M17.12,9.82l0,0a1.1,1.1,0,0,0,.23.19c.09.05.06.05,0,0a.48.48,0,0,1-.18-.13l-.05,0A.22.22,0,0,0,17,10c0,.1.13.25.44.26a.54.54,0,0,0,.43-.13,1.08,1.08,0,0,1-.41-.16c-.26-.16-.32-.18-.36-.17"/><path class="cls-3" d="M17,10.18l-.08-.1s0,0-.07,0h-.12s-.05,0,0,0a.86.86,0,0,0,.14.13c.05,0,.11,0,.1.06a.23.23,0,0,1-.14,0,.64.64,0,0,1-.14-.15l0,0a.68.68,0,0,1-.17,0,.54.54,0,0,1-.08-.08.55.55,0,0,0,.16.33.85.85,0,0,0,.19.16.42.42,0,0,0,.28.06c.14,0,.15,0,.15,0s0,0,0-.05-.1-.12-.16-.19"/><path class="cls-3" d="M16.38,10a1.09,1.09,0,0,1-.05.17s0,0,0,0a.82.82,0,0,1,0,.11l0-.06-.05,0,0,.08a.23.23,0,0,0,.13.18c.09,0,.17,0,.21,0s0-.07-.1-.18-.1-.24-.12-.29"/><path class="cls-3" d="M16.37,5.62a.06.06,0,0,1,0,.12.06.06,0,1,1,0-.12"/><path class="cls-3" d="M15.59,5.65l.1,0a.57.57,0,0,0,.35,0,.77.77,0,0,1,.31-.12c.06,0,.09,0,.15,0s0,0,0,0,0-.08-.08-.13a.49.49,0,0,0-.34,0,.92.92,0,0,0-.23.12c-.05,0-.1.09-.12.08s0,0,.05-.06l0,0a.61.61,0,0,1-.38-.12.26.26,0,0,0,.12.26"/><path class="cls-3" d="M16.9,5.57a.34.34,0,0,0-.28,0,.64.64,0,0,0-.15.08.15.15,0,0,1,0,.13c-.07,0-.13,0-.15,0a.15.15,0,0,1,0-.06.71.71,0,0,1-.24.08.55.55,0,0,1-.31,0l-.15.13-.13.1,0,0s0,0,0,0a2.32,2.32,0,0,1-.22.21.75.75,0,0,1-.15.07.14.14,0,0,0,.07.08s.05,0,0,.07L15,6.74a.27.27,0,0,1-.13.07s-.08,0,0,.1a.3.3,0,0,0,.3,0,.63.63,0,0,0,.26-.18s0,.21,0,.31a1,1,0,0,0,0,.28.25.25,0,0,0,0,.09.4.4,0,0,0,.15-.2A.8.8,0,0,0,15.64,7s0-.07,0,0l.09,0h0a1.31,1.31,0,0,1,0-.19.6.6,0,0,1,.06-.29s0,0,0,0a.16.16,0,0,0,.09.11.53.53,0,0,1,.15-.32s0,0,.09,0a.51.51,0,0,0,.3,0c.09,0,.15-.13.13-.14a.35.35,0,0,1-.24,0c-.11,0-.16-.07-.1-.13a1.93,1.93,0,0,1,.22-.17c.12-.1.22-.16.32-.14a.18.18,0,0,1,.14.09s.06.05.06,0a.28.28,0,0,0-.13-.25"/><path class="cls-3" d="M15.75,7.32l-.06-.12,0,.08a.84.84,0,0,1-.08.15l.1,0a.39.39,0,0,0,.1-.05l0,0"/><path class="cls-3" d="M15.31,7a.76.76,0,0,1-.11.17c-.08.08-.14.07-.14.07l.06,0A.52.52,0,0,0,15.24,7a.48.48,0,0,1-.29.06l0,.08a1,1,0,0,1-.1.18s0,0,0,0,0,0,.2.07a.88.88,0,0,0,.35,0,.74.74,0,0,0,0-.14,1.36,1.36,0,0,1,0-.34"/><path class="cls-3" d="M13.08,5.62a.06.06,0,1,1,0,.12.06.06,0,1,1,0-.12"/><path class="cls-3" d="M12.94,5.57c.06,0,.09,0,.15,0a.77.77,0,0,1,.31.12.59.59,0,0,0,.35,0l.1,0A.26.26,0,0,0,14,5.39a.59.59,0,0,1-.38.12l0,0s.06,0,.05.06-.07,0-.12-.08a.76.76,0,0,0-.23-.12.49.49,0,0,0-.34,0c-.09,0-.09.11-.08.13s0,0,0,0"/><path class="cls-3" d="M14.6,6.81a.25.25,0,0,1-.14-.07l-.23-.25s0-.06,0-.07a.21.21,0,0,0,.07-.08.75.75,0,0,1-.15-.07A1.69,1.69,0,0,1,14,6.06s0,0,0,0l0,0-.13-.1-.14-.13a.59.59,0,0,1-.32,0,.71.71,0,0,1-.24-.08.15.15,0,0,1,0,.06.09.09,0,0,1-.14,0,.12.12,0,0,1,0-.13l-.16-.08a.34.34,0,0,0-.28,0,.3.3,0,0,0-.13.25c0,.08.05,0,.06,0a.18.18,0,0,1,.14-.09c.11,0,.2,0,.33.14a1.63,1.63,0,0,1,.21.17c.06.06,0,.1-.1.13a.35.35,0,0,1-.24,0s0,.1.14.14a.48.48,0,0,0,.29,0c.07,0,.08,0,.09,0a.53.53,0,0,1,.15.32.16.16,0,0,0,.09-.11s0-.06,0,0a.74.74,0,0,1,.06.29.9.9,0,0,1,0,.19h0l.08,0s0,0,0,0a.93.93,0,0,0,.08.28.36.36,0,0,0,.14.2.25.25,0,0,0,0-.09,1.09,1.09,0,0,0,0-.28c0-.1,0-.31,0-.31a.57.57,0,0,0,.25.18.32.32,0,0,0,.31,0c.05-.07,0-.09,0-.1"/><path class="cls-3" d="M13.75,7.2a.78.78,0,0,1-.05.12l0,0a.24.24,0,0,0,.09.05l.11,0a.69.69,0,0,1-.09-.15l0-.08"/><path class="cls-3" d="M14.52,7.15l0-.08A.48.48,0,0,1,14.2,7a.52.52,0,0,0,.12.16l.06,0s-.05,0-.13-.07A.63.63,0,0,1,14.13,7a1.36,1.36,0,0,1,0,.34,1,1,0,0,1,0,.14.89.89,0,0,0,.35,0c.19-.05.2-.07.2-.07s0,0,0,0a1.08,1.08,0,0,1-.11-.18"/><path class="cls-3" d="M13.87,11.8s.11,0,.15-.06a.51.51,0,0,0,.07-.15l.05-.07a.8.8,0,0,1,0,.15.6.6,0,0,0,0,.25c0,.09.08.11.11.1a.33.33,0,0,0,.11-.12.25.25,0,0,1,0-.07c0-.05,0-.12.05-.12s0,.06,0,.09a1.23,1.23,0,0,0-.05.25c0,.06,0,.18.07.19s.1-.06.13-.19.05-.17.06-.17,0,.09,0,.13v.09a.43.43,0,0,0,.05.17s.06,0,.06,0a.06.06,0,0,0,.06,0,.76.76,0,0,0,.06-.26s0-.13,0-.13,0,0,.06.17.07.19.14.19.07-.13.07-.19a1.29,1.29,0,0,0-.06-.25c0-.07,0-.06.06,0a.26.26,0,0,0,.05.09.22.22,0,0,0,.09.1s.1,0,.12-.1a1.87,1.87,0,0,0-.06-.38s0,0,0,.05,0,.11.08.15.11.08.14.06,0-.08,0-.21-.15-.21-.23-.31a1.32,1.32,0,0,1-.15-.29,1.26,1.26,0,0,0-.28.19l-.21.23-.21-.23a.92.92,0,0,0-.28-.19,1.55,1.55,0,0,1-.16.28l-.13.13a.56.56,0,0,0-.09.19c0,.13,0,.2,0,.21"/><path class="cls-3" d="M13.87,12.25l.07-.07s0,0,0,0a.82.82,0,0,0,0,.22c0,.06,0,.1.09.06l.11-.09s.06-.05,0,0a.72.72,0,0,0,0,.23c0,.11.06.12.13,0a.61.61,0,0,0,.12-.22s.06-.07.06,0,0,.43.23.49.23-.31.23-.49,0,0,.06,0a.93.93,0,0,0,.13.22c.06.08.11.07.12,0a.72.72,0,0,0,0-.23c0-.05,0,0,.06,0a.37.37,0,0,0,.11.09c.06,0,.07,0,.08-.06a.81.81,0,0,0,0-.22c0-.06,0,0,0,0l.08.07a.22.22,0,0,0,.12,0,.46.46,0,0,0,0-.28l-.11-.15h-.07l-.06,0v.1l.11.12s.06.07,0,0L15.42,12a.37.37,0,0,1,0,.11s-.07,0-.08,0h0v0a.57.57,0,0,1,.06.15s0,0,0,0a.86.86,0,0,0-.1-.16s-.05-.07-.05,0a.74.74,0,0,1,0,.17l0,0s0,.13,0,.15,0,.05,0,0L15,12.31s-.07,0-.09,0l-.06-.11a.48.48,0,0,1-.06.14.21.21,0,0,1-.08.07,1.7,1.7,0,0,1,0,.21s0,.05,0,.05,0,0,0-.05v-.21a.3.3,0,0,1-.09-.07.48.48,0,0,1-.06-.14.8.8,0,0,1-.05.11s-.1,0-.1,0a1.64,1.64,0,0,1-.07.15s0,0,0,0a1.55,1.55,0,0,1,0-.15l0,0a.31.31,0,0,1,0-.17c0-.05,0,0-.06,0l-.1.16c0,.06,0,.06,0,0a1.13,1.13,0,0,1,.07-.15v0h0a.08.08,0,0,1-.08,0S14,12,14,12l-.11.08c-.07,0,0,0,0,0l.11-.12v-.1l-.06,0h-.08l-.1.15a.39.39,0,0,0,0,.28.22.22,0,0,0,.12,0"/><path class="cls-3" d="M13.66,12.86l.19-.13a.49.49,0,0,0,.14-.14h0s0,0,0-.06v-.15a.23.23,0,0,0,0-.11.38.38,0,0,1-.11.07c-.06,0-.09,0-.09,0l0-.07-.07.13a.78.78,0,0,1-.23.21,1.23,1.23,0,0,1-.22.15c-.07,0,0,.05,0,.05a.45.45,0,0,0,.23.09.3.3,0,0,0,.29-.06"/><path class="cls-3" d="M14.25,12.79a.1.1,0,0,1-.11-.09,1.31,1.31,0,0,1,0-.2l0,0a.09.09,0,0,1-.07,0l0,.06a.4.4,0,0,1-.11.12l-.17.11a.58.58,0,0,1-.15.11.26.26,0,0,0-.13.17c0,.09,0,.11.06.11a.74.74,0,0,0,.18,0,1.2,1.2,0,0,0,.37-.22.65.65,0,0,0,.2-.21"/><path class="cls-3" d="M14.54,12.89a.59.59,0,0,1-.06-.12,1.47,1.47,0,0,0-.05-.19.49.49,0,0,1,0,.11.16.16,0,0,1-.09.1.46.46,0,0,1-.06.1,1.12,1.12,0,0,1-.2.17.68.68,0,0,0-.23.18.19.19,0,0,0,0,.19s.07,0,.12,0a2,2,0,0,0,.4-.15.61.61,0,0,0,.26-.36"/><path class="cls-3" d="M14.63,13.34a.68.68,0,0,0,.07-.28l0,0a.48.48,0,0,1-.08-.1.93.93,0,0,1-.07.13.46.46,0,0,1-.13.16,1.49,1.49,0,0,0-.22.21.35.35,0,0,0,0,.27c0,.05.07,0,.11,0l.13-.12a1,1,0,0,0,.23-.23"/><path class="cls-3" d="M16.28,12.78l-.23-.15a.78.78,0,0,1-.23-.21l-.07-.13v.07s0,0-.1,0l-.11-.07a.23.23,0,0,0,0,.11,1,1,0,0,1,0,.15s0,.06,0,.06h0a.36.36,0,0,0,.14.14l.18.13a.34.34,0,0,0,.3.06.52.52,0,0,0,.23-.09s0,0,0-.05"/><path class="cls-3" d="M15.88,13a.91.91,0,0,1-.16-.11l-.16-.11a.3.3,0,0,1-.11-.12l0-.06a.13.13,0,0,1-.08,0l0,0a1.31,1.31,0,0,1,0,.2.09.09,0,0,1-.1.09.69.69,0,0,0,.19.21,1.33,1.33,0,0,0,.37.22.92.92,0,0,0,.18,0c.07,0,.08,0,.06-.11a.25.25,0,0,0-.12-.17"/><path class="cls-3" d="M15.42,13.06a1.2,1.2,0,0,1-.21-.17.21.21,0,0,1-.05-.1.2.2,0,0,1-.1-.1L15,12.58l0,.19a.3.3,0,0,1-.06.12.65.65,0,0,0,.27.36,1.76,1.76,0,0,0,.4.15s.09.07.11,0,0-.11,0-.19a.8.8,0,0,0-.23-.18"/><path class="cls-3" d="M15.08,13.21a.5.5,0,0,1-.14-.16l-.06-.13-.08.1-.05,0a.81.81,0,0,0,.06.28,1,1,0,0,0,.24.23l.13.12s.08.05.11,0a.35.35,0,0,0,0-.27,2.23,2.23,0,0,0-.22-.21"/><path class="cls-3" d="M14.79,13.44l-.07-.08a.24.24,0,0,1-.06.08,1.56,1.56,0,0,1-.16.15.62.62,0,0,0,.06.23.69.69,0,0,0,.16.18.55.55,0,0,0,.16-.18.52.52,0,0,0,.07-.23,1.56,1.56,0,0,1-.16-.15"/><path class="cls-6" d="M18.84,11.61c-.05,0-.06,0-.06,0l0,0s-.07.07-.07.07-.08,0-.09.08,0,.07.06.06a.27.27,0,0,0,.18-.07.29.29,0,0,0,.05-.1s0,0,0,0"/><path class="cls-6" d="M19,11.16a.53.53,0,0,0-.27-.35s-.06.2-.07.27,0,.06,0,.07l.24.06s.09,0,.07-.05"/><path class="cls-6" d="M18.23,11.05s0,0,.05-.06l.07-.29a.66.66,0,0,0-.3.06.48.48,0,0,0-.2.19A.42.42,0,0,0,18,11l.25.06"/><path class="cls-6" d="M17.85,11.38h-.08a.69.69,0,0,0,.1.21.28.28,0,0,0,.25.12.26.26,0,0,0,.24-.12.25.25,0,0,1,0-.09l-.32-.05-.23-.06"/><path class="cls-5" d="M16.05,8.66A1.06,1.06,0,0,1,16.2,8l-.39-.46a1.23,1.23,0,0,1-1.09,0,1.21,1.21,0,0,1-1.08,0L13.25,8a1,1,0,0,1,.14.65,5.87,5.87,0,0,0-.15,1.13,1.14,1.14,0,0,0,.35.62,2.34,2.34,0,0,0,.58.31,1.73,1.73,0,0,1,.42.24.85.85,0,0,1,.13.12l.14-.12a1.64,1.64,0,0,1,.41-.24,2,2,0,0,0,.58-.31,1.15,1.15,0,0,0,.36-.62,6,6,0,0,0-.16-1.13"/><path class="cls-5" d="M15.26,6.69a.68.68,0,0,1-.2.13h0a.22.22,0,0,0,.11,0,.5.5,0,0,0,.15-.13,0,0,0,0,0,0,0l-.06.08"/><path class="cls-5" d="M15.5,6.83s0,.3,0,.3,0,.09,0,.1,0,0,0,0,.05-.38.05-.38h0s0,0,0,0"/><path class="cls-5" d="M15.94,6.17a.42.42,0,0,0-.12.08l-.08,0s0,0,0-.11A.86.86,0,0,1,15.86,6s0,0,0,0a.85.85,0,0,0-.12.17,1,1,0,0,0-.09.3l.07,0,.14-.1A.94.94,0,0,0,16,6.21s0,0,0,0"/><path class="cls-5" d="M14.19,6.69l-.07-.08a0,0,0,0,0,0,0,.67.67,0,0,0,.15.13.22.22,0,0,0,.11,0h0a.56.56,0,0,1-.19-.13"/><path class="cls-5" d="M14,7.13s0-.26,0-.3,0,0,0,0h0s0,.33.06.38,0,0,0,0,0-.09,0-.1"/><path class="cls-5" d="M13.61,6s-.07,0,0,0a.86.86,0,0,1,.13.17c0,.06,0,.12,0,.11l-.09,0-.11-.08s-.07,0,0,0l.14.12.15.1.07,0a1.4,1.4,0,0,0-.09-.3A1.31,1.31,0,0,0,13.61,6"/><path class="cls-5" d="M14.72,12a.06.06,0,0,0,0,0,.86.86,0,0,1,0-.15s0,0,0,0,0,0,0,0,0,.13,0,.15,0,0,0,0"/><path class="cls-5" d="M15.48,11.65c0,.06,0,0,0,0a.42.42,0,0,0-.06-.14.59.59,0,0,0-.1-.11l.05.08.09.17"/><path class="cls-5" d="M15.19,11.7a.5.5,0,0,0,.08.15l0-.17a.24.24,0,0,0-.06-.11v0l0,.09"/><path class="cls-5" d="M15,11.88s0,.07,0,.06a.45.45,0,0,1,0-.08.23.23,0,0,0,0-.09s0,0,0,0a.64.64,0,0,0,0,.09v0"/><path class="cls-5" d="M14,11.65a.87.87,0,0,1,.09-.17l0-.08a.53.53,0,0,0-.11.11.78.78,0,0,0-.05.14s0,.06,0,0"/><path class="cls-5" d="M14.25,11.7a.17.17,0,0,0,0-.07s0,0,0,0,0,0-.06.09a.61.61,0,0,0,0,.17,1.13,1.13,0,0,0,.07-.15"/><path class="cls-5" d="M14.48,11.88v0a.46.46,0,0,0,0-.09s0,0,0,0a.92.92,0,0,0,0,.09s0,.08,0,.08,0,0,0-.06"/><path class="cls-5" d="M13.78,12.57l0,0,0,0s-.06,0-.08.07l-.09.08s-.07,0-.06,0h0s0,0,.07,0a.52.52,0,0,0,.11-.08l.08-.09"/><path class="cls-5" d="M14,12.86s.05,0,0,0H14l-.1.1-.07.05-.11.07s0,0,0,0h0l.09,0,.06,0,.1-.09"/><path class="cls-5" d="M14.31,13.05s0,0,0,0-.09.09-.13.11l-.11.06s0,0,0,0h0l.06,0h0l.08,0s.08-.06.1-.1"/><path class="cls-5" d="M14.44,13.31a.46.46,0,0,0-.16.15s0,.07,0,.08,0,0,0,0l0,0,.12-.11a.47.47,0,0,0,.1-.1.09.09,0,0,0,0-.06.41.41,0,0,1-.1.11"/><path class="cls-5" d="M15.91,12.75a.49.49,0,0,1-.1-.08s-.05,0-.07-.07a.11.11,0,0,1,0,0l0,0a.44.44,0,0,0,.08.09.52.52,0,0,0,.11.08l.06,0h0s0,0-.05,0"/><path class="cls-5" d="M15.72,13,15.61,13l-.07-.05-.1-.1h0s0,0,0,0a.53.53,0,0,0,.11.09l.06,0,.09,0h0s0,0,0,0"/><path class="cls-5" d="M15.41,13.21l-.1-.06s-.11-.1-.14-.11-.05,0,0,0a.41.41,0,0,0,.09.1.21.21,0,0,0,.09,0h0l.06,0h0s0,0,0,0"/><path class="cls-5" d="M15,13.31a.41.41,0,0,1-.1-.11.09.09,0,0,0,0,.06.28.28,0,0,0,.09.1.69.69,0,0,1,.12.11l0,0s0,0,0,0a.27.27,0,0,0,0-.08.57.57,0,0,0-.16-.15"/><path class="cls-5" d="M14.7,13.63s0,.12,0,.12,0-.09,0-.12a.68.68,0,0,0,0-.12h-.06a.68.68,0,0,0,0,.12"/><path class="cls-6" d="M16,8.71A1.14,1.14,0,0,1,16.13,8l-.35-.4a1.31,1.31,0,0,1-1.06,0,1.28,1.28,0,0,1-1.05,0l-.36.4a1.19,1.19,0,0,1,.12.68,5.74,5.74,0,0,0-.13,1,.11.11,0,0,0,0,.05h.32l0,0,.05,0s0-.07,0-.08l.08,0,0,0A.29.29,0,0,0,14,9.5a.27.27,0,0,0,0-.13.54.54,0,0,1,0-.11s0,0,0,0,0,0,0-.05a.27.27,0,0,1,0-.13l0,0L14,9s-.2,0-.24-.11,0-.24-.05-.26,0,0,0,0a.16.16,0,0,1-.13-.1.19.19,0,0,1,0-.15s0,0,0,0,.06.09.08.07,0,0,0-.08a.2.2,0,0,1,0-.12.27.27,0,0,0,0-.09s0,0,0,0a.1.1,0,0,1,.05,0s0,0,0,0,0-.07,0-.09,0,0,.05,0a.06.06,0,0,1,0,.06s0,0,0,0,0,0,0-.05,0-.05,0,0a.11.11,0,0,1,0,.1s0,0,0,.08a1,1,0,0,0,0,.15,1,1,0,0,0,0,.15c0,.06.05.13.1.14H14a.5.5,0,0,1,.09-.13.35.35,0,0,1,.14,0l.06,0-.06,0s-.09,0-.1-.05,0-.07,0-.08A.17.17,0,0,1,14,8.26a.11.11,0,0,1,0-.09s0-.09.06,0,0,.06.06.07.05,0,0,0a.16.16,0,0,1,0-.09s0,0,0,0l.13,0h0a.07.07,0,0,1,0,0,.22.22,0,0,1,.11,0,.16.16,0,0,0,.09,0,.26.26,0,0,1,.11,0,.09.09,0,0,1,.07,0s0,0,0,0,0,0,0,0h.08s.07,0,0,.05,0,.06,0,.06,0,0,0,0,0,0,0,0l0,0s.06.05,0,.08a.3.3,0,0,1-.09.07s0,0,0,0,.06.07.08.08l0,0s0,0,0,0l-.06,0-.09,0s0,0,0,0l0,.07v0h.58l.05,0h.2c.07,0,.08-.06.07-.09s0-.06-.13-.07l-.27,0c-.09,0-.25-.07-.27-.19s.07-.17.12-.2l.2-.08a.54.54,0,0,1,.24,0c.09,0,.15,0,.19,0s.06,0,.06,0a.25.25,0,0,1-.15.14.66.66,0,0,1-.31,0,.36.36,0,0,0-.16,0c-.05,0-.1.07-.05.13s.28.09.34.09.3,0,.37.11a.19.19,0,0,1-.07.27l-.2.06h-.06a.34.34,0,0,1,0,.08s0,.08,0,.1a.16.16,0,0,0,.12,0c.05,0,.11,0,.11.08a.78.78,0,0,1,0,.19.7.7,0,0,1,0,.16.26.26,0,0,1,0,.07l-.07.16h.34V9.76a6.61,6.61,0,0,0-.12-1"/><path class="cls-7" d="M13.35,10a.94.94,0,0,0,.41.52c.3.17.42.15.7.33s.26.21.26.21,0,0,.27-.21.4-.16.69-.33A1,1,0,0,0,16.1,10Z"/><path class="cls-3" d="M13.59,8.49a.08.08,0,0,0,.1,0c.05,0,.06,0,.07.07a1.23,1.23,0,0,0,0,.21c0,.08.15.09.15.09a.74.74,0,0,1,0-.14s0,0,0,0,0,0-.06-.05a1,1,0,0,1-.09-.21.65.65,0,0,1,0-.21s0-.06,0-.07h0s0,0,0,0,0,0,0,0,0,0,0,0,0,0,0,0a.05.05,0,0,1,0,.05l-.05,0a0,0,0,0,0-.06,0,.19.19,0,0,0,.05.1.11.11,0,0,1,0,.11s-.06,0-.07,0,0,0,0,0,0,0,0,.05"/><path class="cls-3" d="M13.57,8.41l0,0,0,0v0a.12.12,0,0,0,0,0Z"/><path class="cls-3" d="M13.64,8.18s0,0,0,0,0,0,0,0h0l0,.05s0,0,0,0"/><path class="cls-3" d="M13.72,8.11s0,0,0,0,0,0,0,0l0,0h0a.11.11,0,0,1,0,.06"/><path class="cls-3" d="M13.85,8.13a.1.1,0,0,0,0,0,0,0,0,0,1,0,0s0,0,0,0,0,0,0,0"/><path class="cls-3" d="M14,9s.09,0,.15-.11.05,0,0,.05a.24.24,0,0,0,0,.15s0,0,.05,0a.76.76,0,0,1,0-.11s0,0,0,0a.24.24,0,0,0,.06.11s0,0,0-.05,0-.1,0-.12,0,0,0,0l0,.06s.05,0,.05,0,0-.09,0-.1.05,0,.1,0,0,0,0-.05a.28.28,0,0,0-.08-.12s0-.08,0-.09.06,0,.09,0h.07s0,0,0,0a.1.1,0,0,0-.05,0,.18.18,0,0,0-.09-.06h-.1s0,0,0,0l0,0h0a0,0,0,0,1,0,0,.11.11,0,0,0,0,0s0-.07,0-.09,0,0-.08,0,0,0,0,0,0,0,0,0,0,0,.05-.06,0,0,0,0h0a.27.27,0,0,1,0-.07.08.08,0,0,0,0-.09s-.07,0-.1,0a.1.1,0,0,0,0,.08s0,0,0,0,0,0,0,0,0,0,0,0a.05.05,0,0,0,0,0h-.13a0,0,0,0,0,0,.05h-.06l-.1,0,0,0v0h0s0,0,0,0l0,0s0,0,0,0h.09a.07.07,0,0,1,0,.07s-.06,0-.08,0,0,0,0,0,0,0,0,0h.09a.14.14,0,0,1,.1,0s0,0,0,0l-.05,0,0,0-.15,0c-.09,0-.12.15-.12.15l.05,0,.13-.07s0,0,0,0,0,0,0,0l.07,0c.05,0,0,0,0,0a.66.66,0,0,0,0,.09c0,.06.06,0,.1,0s0,0,0,0-.07.08-.09.08a.05.05,0,0,1-.05,0s0-.06,0-.07-.05,0-.09,0,0,0,0,0,0,0,0,0,0,0,0,0l-.1,0c-.06,0-.05.05-.05.09A.3.3,0,0,0,14,9"/><path class="cls-3" d="M14.61,8l0,0h0s0,0,0,0a.06.06,0,0,0-.05,0,.15.15,0,0,0-.07,0h0V8s0,0,0,0"/><path class="cls-3" d="M14.74,8.16h0l0,0,0,0s0,0,0,0-.06,0-.07,0a.1.1,0,0,1,0,.06s0,0,0,0"/><path class="cls-3" d="M14.73,8.19s-.08.06-.1.07a0,0,0,0,0,0,0,.12.12,0,0,1,0,.05.18.18,0,0,1,0,.06h0a.07.07,0,0,0,.06,0l.07,0,.08,0s0-.05-.06-.08a.11.11,0,0,0-.09,0"/><path class="cls-3" d="M14.23,8.32s0,0,0,0,0,0,0,0-.19,0-.2-.12a.11.11,0,0,0,0,.12.2.2,0,0,0,.19.06"/><path class="cls-3" d="M13.91,9.79l0,0h.14s0,0,0-.05a.81.81,0,0,0,0-.16.73.73,0,0,1,.07-.2s0-.05,0-.08l0-.09s0,0-.05,0,0,0,0,.06a.92.92,0,0,1,0,.18.48.48,0,0,1-.11.19l-.06,0h-.07a.11.11,0,0,0,0,.06s0,0,0,0l0,0,.05,0s0,0,0,0,0,0,0,0"/><path class="cls-3" d="M13.69,9.79a0,0,0,0,0,0,0h.09s0,0,0,0,0,0-.06,0"/><path class="cls-3" d="M13.82,9.78l0,0h.1a0,0,0,0,0,0,0,0,0,0,0,0-.06,0"/><path class="cls-3" d="M14.69,9.74l0,0a.08.08,0,0,0,0,0h0s0,0,0,0,0,0,0,0"/><path class="cls-3" d="M14.77,9.79s0,0,0,0l0,0,0,0h.07v0"/><path class="cls-3" d="M15.16,9.32s0,0,0-.05,0,0,0,0l-.1,0s-.12,0-.15,0,0,.09,0,.13,0,0,0,0l0,0a.64.64,0,0,1,.06.09s0,0,0,.07-.05.11-.08.12-.06,0-.09,0a.07.07,0,0,0-.08,0s0,0,0,0a0,0,0,0,1,0,0s0,0,0,.06H15A.21.21,0,0,0,15,9.73s.05-.06.07-.08,0,0,0-.07a.2.2,0,0,0,0-.09.12.12,0,0,1,0-.1s0-.05.07-.07"/><path class="cls-3" d="M14.86,8.86s0,0,0,0h-.1s0,0,0,0a.14.14,0,0,1,0,.1s-.05,0-.07,0,0,0,0,0l0,.07s0,0,0,0l0,0s0,0-.06-.06,0,0-.05,0,0,.05-.05.05a.16.16,0,0,1-.07-.09s0-.06-.05-.06l-.09.07s0,0,0,0,0,0,0,0a.06.06,0,0,0,0,.08s.06,0,.09,0a.1.1,0,0,1,.07,0s0,0,0,.12,0,.08,0,.08,0,0,.05,0,0-.11.06-.11,0,0,.06.05.06.07.08,0,0-.08.05-.09,0,0,0,0,0,.06,0,.05l.27-.09a.79.79,0,0,1,.17,0h.14s0,0,0,0,0,0-.08,0l-.15,0c-.05,0-.07,0-.06,0s0,0,.07,0h.22s0,0,0,.05a.29.29,0,0,0,0,.13.13.13,0,0,0,0,.09s.14.08.17.1,0,0,0,0,0,0,0,0l.1,0s0,0,0,0a.34.34,0,0,0,0,.09s0,0,0,.06l-.07.08-.08,0c-.06,0-.08,0-.08.06s0,0,0,0v0h0l0,0s.07,0,.11,0,0,0,0,.05h.13a.87.87,0,0,1,.08-.14.24.24,0,0,0,0-.09V9.36s0,0,0-.09,0-.08-.09-.09a.16.16,0,0,1-.14-.07s0-.09-.05-.18-.08-.09-.18-.11a.72.72,0,0,0-.25,0h-.22c-.05,0,0,0,0,0"/><path class="cls-3" d="M15.34,9.79s0,0,0,0h.09a0,0,0,0,0,0,0s0,0-.06,0"/><path class="cls-3" d="M15.5,9.78l0,0h.09s0,0-.06,0"/><path class="cls-3" d="M13.31,9.84s0,.05,0,.08h2.78a.24.24,0,0,0,0-.08Z"/><path class="cls-3" d="M15.19,8.51a2.14,2.14,0,0,0,.49.09c.14,0,.13.12.09.18s-.23.06-.26.06a.14.14,0,0,1,0,.05h.08a.35.35,0,0,0,.22-.07.13.13,0,0,0,0-.2.39.39,0,0,0-.25-.08l-.29,0c-.11,0-.16-.06-.16-.13s.06-.09.1-.11a.25.25,0,0,1,.17,0,.69.69,0,0,0,.26,0,.18.18,0,0,0,.15-.1h-.08c-.06,0-.11,0-.22,0a.56.56,0,0,0-.2,0c-.06,0-.2,0-.24.13s0,.13.1.19"/><path class="cls-5" d="M14.46,8a.05.05,0,0,1,0,.1.05.05,0,1,1,0-.1"/><path class="cls-5" d="M15.58,8.18a.54.54,0,0,0-.16,0s0,0,0,0h.14a.13.13,0,0,0,.11,0h-.13"/><path class="cls-3" d="M17.81,11.3l.56.11h.08l.06,0s0-.06,0-.06a.24.24,0,0,0,0-.07s0-.05.07,0a.25.25,0,0,1,.06.18c0,.07.12.09.16.09s.06,0,.08,0a.33.33,0,0,0,0-.17s0,0,0-.05l-.33-.08s0,0,0-.07.1-.33.1-.33a.71.71,0,0,0-.28-.08l-.08.36s0,0-.09,0-.41-.09-.41-.09l0,.07a.49.49,0,0,0-.05.19s0,0,.07.05"/><path class="cls-3" d="M19,11.58c-.05,0-.08,0-.11,0s0,.15-.08.2a.33.33,0,0,1-.24.12c-.08,0-.13,0-.11-.12s.15-.13.18-.19a.12.12,0,0,0,0-.15.18.18,0,0,0-.13,0,.3.3,0,0,0-.1.13.4.4,0,0,1-.1.18.41.41,0,0,1-.32.07.22.22,0,0,1-.2-.18,1.69,1.69,0,0,0-.12-.32s-.05,0-.1,0a.19.19,0,0,0-.06.13.21.21,0,0,0,.05.15.63.63,0,0,1,.12.18c0,.06.08.15,0,.16a.21.21,0,0,1-.17-.05c-.06-.06-.3-.22-.36-.27l-.09-.07a.53.53,0,0,1-.32-.12,2,2,0,0,1,.07.22.62.62,0,0,1,0,.09l.33.17.37.2c.09.06.16.15.32.11s.49-.13.59-.16a1.88,1.88,0,0,0,.5-.18c.11-.07.12-.07.14-.14a.11.11,0,0,0,0-.14"/><path class="cls-3" d="M18.42,10.47h.07c.06,0,0,0,0,.06l-.05.1s0,.05,0,.05l.08,0c.05,0,0,0,0,0s0-.1,0-.13,0,0,0,0l.06,0s0,0,0,0a.15.15,0,0,0,0-.07s0,0,0,0h-.08s0,0,0,0l.05-.08s0,0,0,0l-.1,0h0s0,.08,0,.1,0,0,0,0a.1.1,0,0,1-.07,0s0,0,0,0,0,.09,0,.11,0,0,0,0"/><path class="cls-3" d="M16.63,11.34s.06,0,.11,0a.53.53,0,0,0,.16,0L17,11.2c.05,0,0,0,0,0a1.35,1.35,0,0,1-.21-.08l-.12.07a.5.5,0,0,1-.19.07l-.12,0s0,0,.05.07a.76.76,0,0,1,.09.16c.05.07,0,0,0,0a.58.58,0,0,0-.11-.13.28.28,0,0,0-.06-.06l0,.07v0a1.43,1.43,0,0,1,0,.16s0,0,.05.05l.26.16a1.6,1.6,0,0,1,.24.18V11.8a.69.69,0,0,0,0-.25.45.45,0,0,0-.11-.21"/><path class="cls-3" d="M16.24,11.1a.31.31,0,0,0,.11,0l.14,0a.44.44,0,0,0,.19-.07c.09,0,0,0-.06,0A.93.93,0,0,1,16.3,11c-.07,0,0,0,0,0l.18,0a.46.46,0,0,0,.28,0c.08,0,0,0,0,0a1,1,0,0,1-.4-.23.66.66,0,0,1-.15-.26,1.29,1.29,0,0,1-.17.16.19.19,0,0,0,0,.09.58.58,0,0,0,.08.12.39.39,0,0,1-.11-.08.21.21,0,0,1-.06-.08l-.26.15s0,0,0,0a.51.51,0,0,1,.12.15c.05.07,0,.06,0,0a.44.44,0,0,0-.17-.15h0l0,0-.17.07a.62.62,0,0,1,.14.14c0,.05.1.09.12.12l.08.1a3,3,0,0,1,.25.31c0,.08,0,0,0-.07l0-.18c0-.06,0,0,0,0l0,.1c0,.06.05.15.06.22s0,0,0,0a.54.54,0,0,0,.05-.11.88.88,0,0,0,0-.22.36.36,0,0,0,0-.17s0,0,.07,0"/><path class="cls-3" d="M17,11.34l-.1,0h0a.18.18,0,0,0,.13.07h.21a.8.8,0,0,1-.14-.09,0,0,0,0,0-.06,0"/><path class="cls-3" d="M18.59,11.25s0,.06,0,.08,0,.05,0,.06l.07,0a.06.06,0,0,0,0-.06.59.59,0,0,0,0-.08Z"/><path class="cls-3" d="M19,11.5l0,0s0,0,0,0a.12.12,0,0,0,0-.08s0,0,0,0a.15.15,0,0,0,0,.08"/><path class="cls-3" d="M17.65,11.25h.05a.51.51,0,0,1,0-.1s0-.07,0-.07,0,0,0,0,0,0-.06.07,0,.05,0,.06"/><path class="cls-5" d="M12.46,9.55a.21.21,0,0,1-.1,0h0s.07,0,.09,0,0,0,0-.05,0,0-.06.05"/><path class="cls-5" d="M12.83,9.75l-.08.07-.05,0,0,0h0l.13-.08s0,0,0,0h0"/><path class="cls-5" d="M11.33,7.09l0,0s0,0,0,0l0,0,0,0s0,0,0,0a.33.33,0,0,1,.06.08"/><path class="cls-5" d="M11.22,7.34l0,0s0,0,.05,0,0,0-.05,0,0,0,0-.05l0,0,.05.06"/><path class="cls-5" d="M11.26,7.74s.07,0,.07,0,0,0,0,0l-.08-.05-.06,0,0,0s0,0,0,.06l.07.06"/><path class="cls-5" d="M11.34,8.06s0,0,0,0h-.06s0,0,0,0l.06,0h.05s0,0,0,0"/><path class="cls-5" d="M11.38,8.41h-.1l.05,0h.1s0,0,0,0,0,0-.09,0"/><path class="cls-5" d="M11.77,8.8s0,0,0,0a.18.18,0,0,1-.1,0h0a.28.28,0,0,0,.14,0s0,0,0,0"/><path class="cls-5" d="M11.93,9.07h-.07l-.08,0H12s.06,0,0,0,0,0-.07,0"/><path class="cls-5" d="M12.25,9.28l-.08.06,0,0,0,0s0,0,0,0l.09-.06s.06,0,0-.06l0,0"/><path class="cls-5" d="M11.72,6.6l.06.08c.06.07,0,0,0,0l-.13-.17s0,0,0,0l.06.09"/><path class="cls-5" d="M11.61,7s0,0,0,0l-.1-.12s0,0,0,0,0,.07.05.09l.07.1s0,0,0,0"/><path class="cls-5" d="M11.76,7.61s-.06,0-.09,0l-.08,0s-.06,0-.06,0,0,0,.05,0l.11,0s.07,0,.07,0"/><path class="cls-5" d="M11.61,7.26l.09.06s0,0,.05,0,0,0-.05,0l0,0,0,0s0,0,0,0"/><path class="cls-5" d="M12,7l0,0,0,0s0,0,0,0,.06.07.07.06S12,7,12,7"/><path class="cls-5" d="M11.73,7.94l-.06,0s0,0,0,0h.1s.05,0,0,0h0l-.06,0"/><path class="cls-5" d="M11.79,8.27h.05l.09,0s0,0,0,0H11.9l-.08,0,0,0"/><path class="cls-5" d="M12.22,8.48s0,0,0,0,0,0,0,0l-.08.05,0,0s0,0,0,0h.06l.1-.06"/><path class="cls-5" d="M12.42,8.74l.07,0s0-.05,0-.05,0,0-.05,0l-.12.09h0s0,0,0,0a.07.07,0,0,0,.06,0l.05,0"/><path class="cls-5" d="M12.72,9a.17.17,0,0,0,.08-.06s0,0,0,0,0,0-.05,0L12.71,9l0,0s0,0,0,0l0,0"/><path class="cls-5" d="M17.08,9.6a.26.26,0,0,1-.1,0s-.05-.07-.06-.05,0,0,0,.05.06,0,.1,0h0"/><path class="cls-5" d="M16.74,9.84l0,0-.08-.07h0s0,0,0,0l.12.08h0l0,0"/><path class="cls-5" d="M18.12,7.09,18.17,7s0,0,0,0a.23.23,0,0,0-.05,0l0,0s0,0,0,0l0,0"/><path class="cls-5" d="M18.14,7.41s0,0,0,0l.05,0,.05-.06-.05,0-.05.05s-.05,0,0,0"/><path class="cls-5" d="M18.3,7.62l0,0-.05,0-.08.05s0,0,0,0,.05,0,.08,0l.06-.06s.06-.06.05-.06"/><path class="cls-5" d="M18.18,8h-.06s0,0,0,0,0,0,0,0h.05l.06,0h-.05"/><path class="cls-5" d="M18.07,8.41c-.05,0-.09,0-.1,0s0,0,0,0h.11l.05,0h-.1"/><path class="cls-5" d="M17.91,8.81h-.08a.16.16,0,0,1-.1,0s-.05,0-.06,0a0,0,0,0,0,0,0,.25.25,0,0,0,.13,0h.07"/><path class="cls-5" d="M17.67,9.1l-.08,0h-.08s-.06,0-.07,0,0,0,0,0h.19"/><path class="cls-5" d="M17.32,9.36l0,0-.09-.06s0,0,0,0,0,0,.05.06l.09.06s0,0,0,0l0,0"/><path class="cls-5" d="M17.66,6.68l.06-.08.07-.09s0,0,0,0l-.12.17s0,.08,0,0"/><path class="cls-5" d="M18,6.74s0,0,0,0l-.09.12s-.05,0,0,0l0,0,.08-.1A.28.28,0,0,0,18,6.74"/><path class="cls-5" d="M17.68,7.61s0,0,.07,0l.12,0s.05,0,0,0-.06,0-.06,0l-.08,0s-.09,0-.09,0"/><path class="cls-5" d="M17.83,7.24l0,0a.07.07,0,0,1-.05,0s-.06,0,0,0,0,0,.05,0l.09-.06s0,0,0,0"/><path class="cls-5" d="M17.44,7.08s0,0,.07-.06.06,0,.06,0,0,0,0,0l-.05,0s-.06.05,0,.06"/><path class="cls-5" d="M17.66,8h.09s0,0,0,0l-.06,0-.06,0h0s0,0,.05,0"/><path class="cls-5" d="M17.62,8.25l-.07,0h-.06s0,0,0,0l.09,0h0l0,0"/><path class="cls-5" d="M17.35,8.52l0,0-.07-.05s0,0,0,0,0,0,0,0l.1.06h.06s0,0,0,0"/><path class="cls-5" d="M17.14,8.79h0L17,8.69s0,0,0,0,0,0,0,.05l.06,0,.05,0,.06,0s0,0,0,0"/><path class="cls-5" d="M16.77,9s0,0,0,0l-.08-.08s0,0-.05,0,0,0,0,0a.24.24,0,0,0,.08.06.07.07,0,0,1,0,0s0,0,0,0"/><path class="cls-3" d="M14.72,5.42a1.86,1.86,0,0,1-.57-.08l-.14,0a1.86,1.86,0,0,0,.71.11,1.79,1.79,0,0,0,.71-.11l-.14,0a1.86,1.86,0,0,1-.57.08"/><path class="cls-3" d="M15.46,5.25l-.13-.09s0,0,0-.06L15.49,5c.06,0,0,0,0,0s0,0-.24-.06a4.57,4.57,0,0,0-.58,0,4.43,4.43,0,0,0-.57,0c-.21,0-.24.06-.24.06s0,0,0,0l.17.06s0,.05,0,.06a.73.73,0,0,0-.13.09,0,0,0,0,0,0,0l.1,0a4.62,4.62,0,0,1,.63-.06,4.34,4.34,0,0,1,.63.06l.1,0a0,0,0,0,0,0,0"/><polygon class="cls-3" points="13.93 5.07 13.83 5.14 13.95 5.19 14.07 5.1 13.93 5.07"/><polygon class="cls-3" points="15.52 5.07 15.37 5.1 15.49 5.19 15.61 5.14 15.52 5.07"/><path class="cls-3" d="M15.22,5.34a2.67,2.67,0,0,0-.5,0,4.36,4.36,0,0,0-.5,0,1.7,1.7,0,0,0,.5,0,1.7,1.7,0,0,0,.5,0"/><path class="cls-6" d="M14.92,9.47s0,0,0,0,0-.05,0-.08a1.39,1.39,0,0,1,0-.15l-.15,0-.14,0s-.06,0-.09,0h-.1s0,0-.07,0a.36.36,0,0,0-.08.12.71.71,0,0,0-.05.22.27.27,0,0,1,0,.11h.44s0,0,0-.05l.06,0a0,0,0,0,0,0,0s0,0,0,0a.19.19,0,0,1,.1,0s.05,0,.06,0l0-.06a.05.05,0,0,0,0-.05.12.12,0,0,1,0,0"/><path class="cls-6" d="M15.62,9.49s0,0,0,0h-.06s0,.05,0,.05h-.11c-.05,0-.12-.06-.15-.07l0-.06,0,0s0,0,0,.08,0,.08,0,.12a.35.35,0,0,1-.06.14.26.26,0,0,0-.05.09h.21l0,0a.1.1,0,0,1,.06,0v0a.14.14,0,0,1,.08-.06.3.3,0,0,1,.12,0,.11.11,0,0,0,0-.05.1.1,0,0,0,0-.09"/><polygon class="cls-3" points="14.68 3.38 14.79 3.37 14.78 3.27 14.89 3.29 14.9 3.2 14.78 3.21 14.8 3.11 14.66 3.1 14.69 3.21 14.57 3.2 14.57 3.29 14.69 3.28 14.68 3.38"/><path class="cls-3" d="M14.92,3.53h-.15V3.41h-.08v.12h-.15a.11.11,0,0,0,0,.05v0h.39V3.53"/><path class="cls-6" d="M14.73,3.76a.19.19,0,0,0,.18-.12h-.37a.2.2,0,0,0,.19.12"/><path class="cls-6" d="M14.81,3.42V3.5h.09a.24.24,0,0,0-.09-.08"/><path class="cls-6" d="M14.65,3.42a.21.21,0,0,0-.1.08h.1Z"/><path class="cls-5" d="M14.84,5l-.12,0L14.6,5s0,0,0,0a0,0,0,0,0,0,.05l.15.08.16-.08s0,0,0-.05,0,0-.06,0"/><path class="cls-5" d="M15.11,5a.11.11,0,0,1,0,.22.11.11,0,1,1,0-.22"/><path class="cls-5" d="M14.33,5a.11.11,0,1,1,0,.22.11.11,0,1,1,0-.22"/><polygon class="cls-3" points="14.6 5.05 14.72 5.12 14.85 5.05 14.72 4.99 14.6 5.05"/><path class="cls-3" d="M15.11,5a.07.07,0,0,1,.07.06.07.07,0,0,1-.14,0A.07.07,0,0,1,15.11,5"/><path class="cls-3" d="M14.33,5a.07.07,0,0,1,.07.06.07.07,0,0,1-.07.07.08.08,0,0,1-.07-.07s0-.06.07-.06"/><path class="cls-3" d="M14.09,4.71h.07s0,0,0-.07l-.06-.06,0,0v.08a.1.1,0,0,0,0,.08"/><path class="cls-3" d="M14.15,4.74s0,0,0,0,0,0,0,0a0,0,0,0,1,0,0l0,0"/><path class="cls-3" d="M14,4.74l0,0,0,0,.07,0s0,0,0,0,0,0-.06,0,0,0-.05,0"/><path class="cls-3" d="M14.08,4.88a.32.32,0,0,1-.17-.08.12.12,0,0,1-.11.11h0a.35.35,0,0,0,.12,0H14l.11,0a.1.1,0,0,0,0-.09.09.09,0,0,1-.08.06"/><path class="cls-3" d="M13.8,4.8l-.1,0s0,0,0,0a.08.08,0,0,0,.08,0l.07,0s0,0,0,0"/><path class="cls-3" d="M13.57,4.68l-.06,0a.2.2,0,0,0,0,.09.07.07,0,0,0,.07,0s.07,0,.06,0l-.06-.06"/><path class="cls-3" d="M13.6,4.82l0,0h0s0,0,0,0"/><path class="cls-3" d="M13.67,4.56a.39.39,0,0,1,.07-.33A.6.6,0,0,1,14,4L14,4a.68.68,0,0,1,.16-.12L14,3.91h0a.09.09,0,0,1-.08.09l0,0a.93.93,0,0,0-.19.11.05.05,0,0,1,0,0,.09.09,0,0,1-.09.08h0v0a.49.49,0,0,0-.06.13.1.1,0,0,1,0,.08s0,.08-.06.08a.13.13,0,0,0,0,0,.07.07,0,0,0,.06.06c.05,0,.11.09.11.09s0-.06,0-.15"/><path class="cls-3" d="M14,4s0,0,0-.05h-.05s0,0,0,.05H14"/><path class="cls-3" d="M13.65,4.15s0,0,0-.06a.05.05,0,1,0,0,.06"/><path class="cls-3" d="M13.47,4.36a.05.05,0,0,1,0,.1.05.05,0,0,1,0-.1"/><path class="cls-3" d="M14.48,3.76a.61.61,0,0,0-.13.06h0s.08,0,.08.06a.09.09,0,0,1-.09.08.08.08,0,0,1-.08-.07,0,0,0,0,1,0,0l-.07,0a.63.63,0,0,0-.25.29.48.48,0,0,0-.07.37c0,.09.15.11.15.11l0,0s0,0,0-.06a.15.15,0,0,0,0-.07.05.05,0,0,1,.05,0l0,.06.05.06a.16.16,0,0,0,0-.08s0-.08,0-.15a.63.63,0,0,1,.1-.29.85.85,0,0,1,.24-.19.08.08,0,0,0,.05-.07.26.26,0,0,1,0-.07s0,0-.08,0"/><path class="cls-3" d="M14.33,3.92a0,0,0,0,0,.05,0s0,0,0,0-.05,0-.05,0a0,0,0,0,0,0,0"/><path class="cls-3" d="M14.56,4.79a.1.1,0,0,0,.09,0s0,0,0-.07h-.07l-.07,0a.07.07,0,0,0,.05,0"/><path class="cls-3" d="M14.67,4.83a.06.06,0,0,1-.06,0,.14.14,0,0,1-.11,0,.11.11,0,0,1,0-.06h-.05a.2.2,0,0,1,0,.08.11.11,0,0,1-.12,0s-.06,0-.07,0,0,0,0,.05a.14.14,0,0,0,.11,0h.28s.06,0,.08,0,0,0,0-.06,0,0,0,0"/><path class="cls-3" d="M14.24,4.79a.07.07,0,0,0,.08,0l0,0-.06,0-.06,0h0a.08.08,0,0,0,0,.08"/><path class="cls-3" d="M14.79,4.72a0,0,0,0,0,0,.07.11.11,0,0,0,.1,0,.07.07,0,0,0,0,0l-.06,0h-.08"/><path class="cls-3" d="M15.19,4.85a.11.11,0,0,1-.12,0,.28.28,0,0,1,0-.08h0a.18.18,0,0,1-.05.06s-.07,0-.11,0a.06.06,0,0,1-.06,0s0,0,0,0,0,0,0,.06.08,0,.08,0h.29a.12.12,0,0,0,.1,0s0-.05,0-.05,0,0-.06,0"/><path class="cls-3" d="M15.17,4.72l-.06,0v0a.07.07,0,0,0,.12-.07h0l-.05,0"/><path class="cls-3" d="M15.39,4.63V4.55l0,0-.07.06s0,.07,0,.07h.07a.1.1,0,0,0,0-.08"/><path class="cls-3" d="M15.31,4.76a0,0,0,0,0,0,0l0,0a0,0,0,0,0,0,0,0,0,0,0,0,0,0"/><path class="cls-3" d="M15.36,4.81l.07,0a.06.06,0,0,1,0,0l0,0s0,0-.06,0-.05,0-.05,0,0,0,0,0"/><path class="cls-3" d="M15.53,4.8a.32.32,0,0,1-.17.08c-.07,0-.07-.06-.07-.06a.08.08,0,0,0,0,.09.23.23,0,0,0,.1,0h.09a.48.48,0,0,0,.13,0h0a.12.12,0,0,1-.11-.11"/><path class="cls-3" d="M15.74,4.77l-.09,0s0,0,0,0l.08,0s.07,0,.07,0,0,0,0,0"/><path class="cls-3" d="M15.87,4.68l-.06.06s0,0,.07,0a.05.05,0,0,0,.06,0s0-.09,0-.09l-.06,0"/><path class="cls-3" d="M15.84,4.82s0,0,0,0h0l0,0"/><path class="cls-3" d="M15.89,4.43a.1.1,0,0,1,0-.08.49.49,0,0,0-.06-.13v0h0a.08.08,0,0,1-.08-.08s0,0,0,0A.72.72,0,0,0,15.56,4l-.05,0a.09.09,0,0,1-.08-.09h0l-.18-.05A.72.72,0,0,1,15.4,4l0,.06a.6.6,0,0,1,.25.19.39.39,0,0,1,.07.33c0,.09,0,.15,0,.15s.06-.08.11-.09.06,0,.06-.06v0a.08.08,0,0,1-.07-.08"/><path class="cls-3" d="M15.49,4h0s0,0,0-.05h-.06s0,0,0,.05"/><path class="cls-3" d="M15.79,4.15a0,0,0,0,0,.06,0s0,0,0-.06,0,0-.06,0,0,0,0,.06"/><path class="cls-3" d="M16,4.36a0,0,0,1,1-.05,0,0,0,0,0,1,.05,0"/><path class="cls-3" d="M14.89,3.86s0,.05,0,.07a.85.85,0,0,1,.24.19.53.53,0,0,1,.1.29c0,.07,0,.11,0,.15a.21.21,0,0,0,0,.08l.05-.06.06-.06s0,0,0,0v.07s0,0,0,.06a0,0,0,0,1,0,0s.12,0,.15-.11a.47.47,0,0,0-.06-.37.66.66,0,0,0-.26-.29l-.07,0a0,0,0,0,1,0,0A.08.08,0,0,1,15.1,4,.09.09,0,0,1,15,3.88s0-.06.09-.06h0L15,3.76s-.08,0-.07,0v.07"/><path class="cls-3" d="M14.72,4.55a.39.39,0,0,1,0,.06.09.09,0,0,0,0,.06.06.06,0,0,0,.05,0,.05.05,0,0,0,0,0,.14.14,0,0,0,0-.06.15.15,0,0,1,0-.06"/><path class="cls-3" d="M14.72,4.73a0,0,0,0,1,0,0s0,0,0,0l0,0s0,0,0,0"/><path class="cls-3" d="M14.64,4.63a.25.25,0,0,0,0-.07.28.28,0,0,0,0-.06.28.28,0,0,0,0,.06.23.23,0,0,0,.06.07.22.22,0,0,0,.09-.14,1.12,1.12,0,0,0,0-.36c0-.13,0-.35,0-.35l-.13,0-.13,0s0,.22,0,.35a.91.91,0,0,0,0,.36.25.25,0,0,0,.1.14"/><path class="cls-3" d="M15.06,3.87a0,0,0,0,0,0,0,0,0,0,0,0,0,0s0,0-.05,0,0,0,0,0"/><path class="cls-5" d="M14,4.27a.09.09,0,0,1,.09.09.09.09,0,0,1-.09.1.1.1,0,0,1-.1-.1.1.1,0,0,1,.1-.09"/><path class="cls-5" d="M14.19,4a.08.08,0,0,0-.12,0s0,.09,0,.11a.09.09,0,0,0,.13,0,.07.07,0,0,0,0-.11"/><path class="cls-3" d="M14,4.3a.05.05,0,1,1,0,.1.05.05,0,1,1,0-.1"/><path class="cls-3" d="M14.16,4.05a.06.06,0,0,0-.07,0s0,0,0,0,.09-.06,0-.07"/><path class="cls-5" d="M14.72,4.28a.09.09,0,0,1,.1.1.1.1,0,1,1-.2,0,.09.09,0,0,1,.1-.1"/><path class="cls-5" d="M14.72,4.05a.1.1,0,0,1,.1.1.09.09,0,0,1-.1.09.1.1,0,0,1-.1-.09.11.11,0,0,1,.1-.1"/><path class="cls-5" d="M14.72,3.84a.09.09,0,1,1-.09.09.09.09,0,0,1,.09-.09"/><path class="cls-5" d="M15.41,4.27a.09.09,0,0,0-.09.09.09.09,0,0,0,.09.1.09.09,0,0,0,.1-.1.09.09,0,0,0-.1-.09"/><path class="cls-5" d="M15.37,4.06a.08.08,0,0,0-.12,0,.07.07,0,0,0,0,.11.1.1,0,0,0,.13,0s0-.07,0-.11"/><path class="cls-3" d="M15.42,4.3a0,0,0,0,1,0,.1.05.05,0,1,1,0-.1"/><path class="cls-3" d="M15.29,4.05c-.06,0,0,.09,0,.07s0,0,0,0a0,0,0,0,0-.06,0"/><path class="cls-3" d="M14.72,4.31a.05.05,0,1,1,0,.1.05.05,0,1,1,0-.1"/><path class="cls-3" d="M14.72,4.08a0,0,0,1,1-.05,0,0,0,0,0,1,.05,0"/><path class="cls-3" d="M14.72,3.87a0,0,0,0,1,0,0,0,0,0,0,1,0,0,0,0,0,0,1,0,0,0,0,0,0,1,0,0"/><path class="cls-5" d="M17.91,11.06a.09.09,0,0,1,.08.08.09.09,0,0,1-.08.09.09.09,0,0,1-.09-.09.09.09,0,0,1,.09-.08"/><path class="cls-5" d="M18.14,11.11a.09.09,0,1,1,0,.18.09.09,0,0,1,0-.18"/><path class="cls-5" d="M18.83,11.26a.09.09,0,0,1,.09.09.09.09,0,0,1-.18,0,.09.09,0,0,1,.09-.09"/><path class="cls-5" d="M18.38,11.17a.08.08,0,0,1,.08.09.08.08,0,0,1-.08.08.09.09,0,0,1-.09-.08.09.09,0,0,1,.09-.09"/><path class="cls-5" d="M18.44,11a.09.09,0,0,1,0,.18.09.09,0,0,1,0-.18"/><path class="cls-5" d="M18.5,10.76a.09.09,0,0,1,.09.08.09.09,0,0,1-.09.09.08.08,0,0,1-.08-.09.08.08,0,0,1,.08-.08"/><path class="cls-3" d="M17.91,11.09a0,0,0,0,1,.05,0,0,0,0,0,1-.05,0,0,0,0,0,1,0,0,0,0,0,0,1,0,0"/><path class="cls-3" d="M18.15,11.15a0,0,0,0,1,0,0,0,0,0,0,1,0,0s0,0,0,0a0,0,0,0,1,0,0"/><path class="cls-3" d="M18.83,11.29a0,0,0,0,1,.05.05,0,0,0,0,1-.05,0,0,0,0,0,1,0,0,0,0,0,0,1,0-.05"/><path class="cls-3" d="M18.38,11.2a0,0,0,0,1,.05.05,0,0,0,0,1-.05,0,0,0,0,0,1,0,0,0,0,0,0,1,0-.05"/><path class="cls-3" d="M18.45,11a0,0,0,0,1,0,0,0,0,0,0,1,0,0s-.05,0-.05,0a0,0,0,0,1,.05,0"/><path class="cls-3" d="M18.51,10.79a0,0,0,0,1,0,.05,0,0,0,0,1,0,0,0,0,0,0,1-.05,0,0,0,0,0,1,.05-.05"/></g></g></g></g></g></g></svg>