<svg xmlns="http://www.w3.org/2000/svg" xmlns:xlink="http://www.w3.org/1999/xlink" viewBox="0 0 29.46 17.19"><defs><style>.cls-1{fill:none;}.cls-2{clip-path:url(#clip-path);}.cls-3{fill:#b01f35;}.cls-4{fill:#296437;}</style><clipPath id="clip-path"><rect class="cls-1" width="29.46" height="17.19"/></clipPath></defs><g id="Layer_2" data-name="Layer 2"><g id="cá»"><g id="north_africa" data-name="north africa"><g class="cls-2"><rect class="cls-3" width="29.46" height="17.19"/><polygon class="cls-4" points="13.56 7.22 9.77 7.22 14.08 10.52 14.73 10.02 12.11 8.02 13.31 8.02 13.56 7.22"/><polygon class="cls-4" points="15.9 7.22 14.73 3.43 13.08 8.76 13.73 9.26 14.73 6.02 15.1 7.22 15.9 7.22"/><polygon class="cls-4" points="16.63 9.56 19.7 7.22 14.36 7.22 14.11 8.02 17.35 8.02 16.38 8.76 16.63 9.56"/><polygon class="cls-4" points="14.73 11.01 17.8 13.36 16.15 8.02 15.35 8.02 16.35 11.26 15.38 10.52 14.73 11.01"/><polygon class="cls-4" points="12.83 9.56 11.66 13.36 15.98 10.06 15.73 9.26 13.12 11.26 13.48 10.06 12.83 9.56"/></g></g></g></g></svg>