<svg xmlns="http://www.w3.org/2000/svg" xmlns:xlink="http://www.w3.org/1999/xlink" viewBox="0 0 29.46 17.19"><defs><style>.cls-1{fill:none;}.cls-2{clip-path:url(#clip-path);}.cls-3{fill:#fff;}.cls-4{fill:#317267;}.cls-5{fill:#f5e129;}.cls-6{fill:#c0003b;}</style><clipPath id="clip-path"><rect class="cls-1" width="29.46" height="17.19"/></clipPath></defs><g id="Layer_2" data-name="Layer 2"><g id="cá»"><g id="east_africa" data-name="east africa"><g class="cls-2"><rect width="29.46" height="17.19"/><rect class="cls-3" width="29.46" height="5.91"/><rect class="cls-4" width="29.46" height="5.37"/><rect class="cls-3" y="11.27" width="29.46" height="5.92"/><rect class="cls-5" y="11.82" width="29.46" height="5.37"/><polygon class="cls-6" points="0 0 0 17.19 11.28 8.59 0 0"/><polygon class="cls-5" points="5.85 11.81 3.76 10.28 1.67 11.82 2.48 9.35 0.37 7.83 2.97 7.84 3.76 5.37 4.55 7.84 7.15 7.83 5.04 9.35 5.85 11.81"/><g class="cls-2"><path class="cls-3" d="M1.94,10.09H3.45a.47.47,0,0,0,.65,0,2.37,2.37,0,0,1,1.39,0l.18-.19L5.23,8.46l-.16-.17a1.69,1.69,0,0,0-1-.13,2.11,2.11,0,0,1-.87,0,3.63,3.63,0,0,0-.72.14s-.18.18-.18.18Z"/><path d="M3.75,10.24h0a.42.42,0,0,1-.31-.13H1.94L2.3,8.46l.19-.19a3.61,3.61,0,0,1,.73-.15,2.21,2.21,0,0,0,.87,0,1.62,1.62,0,0,1,1,.14l.16.17L5.69,9.9l-.19.21A5.18,5.18,0,0,0,4.67,10a1.09,1.09,0,0,0-.56.11.63.63,0,0,1-.36.13Zm-.3-.16a.42.42,0,0,0,.3.12h0a.56.56,0,0,0,.34-.12A1.19,1.19,0,0,1,4.67,10a3.35,3.35,0,0,1,.82.12l.17-.19L5.21,8.47l-.15-.16h0a1.71,1.71,0,0,0-1-.14,1.89,1.89,0,0,1-.87,0,3.62,3.62,0,0,0-.71.15l-.18.17L2,10.1l1.49,0Z"/><path d="M3.74,10.24a.48.48,0,0,1-.31-.12.69.69,0,0,1,.33-.27,4,4,0,0,0-1.51-.11s0,0,0,0,0,0,0,0a3.53,3.53,0,0,1,1.55.13,2.51,2.51,0,0,1,1.4-.15,0,0,0,0,1,0,0l0,0a2.45,2.45,0,0,0-1.35.13,1.06,1.06,0,0,1,.29.22.62.62,0,0,1-.38.16Zm.06-.37a1,1,0,0,0-.35.25.54.54,0,0,0,.64,0,.7.7,0,0,0-.29-.21Z"/><polygon points="3.79 9.87 3.77 8.28 3.8 8.28 3.79 9.87 3.79 9.87"/><polygon points="5.36 9.56 5.06 8.31 5.08 8.3 5.36 9.56 5.36 9.56"/><path d="M2.37,9h0s0,0,0,0l.15-.65s0,0,0,0l0,0-.15.65Z"/><path d="M1,10.27l.35.41a.09.09,0,0,0,.12,0L2,10.05l.22-.27a.22.22,0,0,0,0-.13l.42-.37h.09s-.07,0,0-.08l.1-.07.07.09a1.34,1.34,0,0,1-.11.14H2.63l-.22.2.09.08.15.4.18-.12-.12-.41L3,9.24l-.1-.14L2.93,9s.88.55,1.22.4l0-.39s-.91-.09-.93-.27.2-.2.2-.2l-.1-.14,0-.07.15.2.36-.31L6,10.63c.11-.05.14-.07.14-.19L4.07,8.08l.16-.17a.14.14,0,0,0,0-.11l.24-.21a.3.3,0,0,1,.16.13l.67-.57a.09.09,0,0,0,.1,0l1.1-1.06L5.34,7l0,0s0,0,0-.11-.11.06-.12.06S5,6.82,5,6.75v.19l-.31.28H4.42l-.34.33,0,.12,0,.11-.18.15,0,0L4,7.73l0-.1,0-.08s-.21.22-.22.2l-.57-.64,0-.12L2.88,6.6a.26.26,0,0,0-.38.23c0,.07-.3,0-.3,0l-.15,0L1.22,8.05l.46.56,1-1.2,0-.34.2.22a.31.31,0,0,0,.19,0l.56.63L3.51,8l.09.09L3.69,8l0,.05-.13.09A.26.26,0,0,1,3.46,8l-.31.26,0,0L2.2,9H2.11l0,.25.61-.51V8.72l.07,0,.47-.38s0,0,0,0l-.42.38v0l-.07.07,0,0-.56.51H2.06l-.31.32a.36.36,0,0,0-.23.06Z"/><path d="M1.37,10.72l-.06,0L1,10.28l.56-.53a.56.56,0,0,1,.23-.06l.31-.31h.1l.55-.5.07,0,0-.09.43-.39h0l0,0-.45.38-.09,0,0,.06-.62.52V9.05l.1,0,.92-.78v0l.32-.28a.32.32,0,0,0,.16.21l.05,0,.06,0h0l-.08,0L3.5,8l.09-.11L3,7.29s-.1,0-.18,0l-.21-.23v.33L1.7,8.62l-.49-.55L2,6.87l.15,0,.2,0a.19.19,0,0,0,.1,0,.27.27,0,0,1,.4-.25l.36.4,0,.13h0s.54.61.56.63l.15-.16.05,0L4,7.6l0-.07.35-.33h.24l.29-.28V6.74a.63.63,0,0,0,.23.12.11.11,0,0,1,.09-.07l.05,0a.09.09,0,0,1,0,.1l0,0L6.53,6.1h0v0L5.46,7.18a.14.14,0,0,1-.14,0l-.64.56a.53.53,0,0,0-.17-.12l-.23.2c0,.05,0,.07,0,.11l-.16.17h0s2.05,2.32,2.07,2.34,0,.17-.16.22L3.87,8.25l-.33.3-.19-.2v.07l.09.12s-.11,0-.17.1a.14.14,0,0,0,0,.11c0,.12.56.22.91.25,0,.43,0,.43,0,.43a.32.32,0,0,1-.14,0A2.88,2.88,0,0,1,2.93,9l0,.08L3,9.23l-.25.3.12.39-.19.15-.17-.41L2.4,9.58l.22-.22h.13l.1-.13-.08-.07-.07.08s0,0,0,0v0s0,0,0,0H2.64l-.41.37a.14.14,0,0,1,0,.12l-.75.91-.07,0ZM2.7,8.9l-.54.5h-.1l-.3.31a.52.52,0,0,0-.23.06l-.56.5.36.39a.07.07,0,0,0,.09,0l.74-.9a.16.16,0,0,0,0-.12l.43-.39h0a.07.07,0,0,1,0-.06l.1-.08.09.1a.83.83,0,0,1-.12.17H2.63l-.21.19.1.06.15.41.15-.14L2.7,9.52,3,9.23l-.09-.12L2.92,9h0A3.38,3.38,0,0,0,4,9.42l.13,0s0-.24,0-.38c-.08,0-.91-.08-.93-.27a.18.18,0,0,1,0-.13.26.26,0,0,1,.18-.09l-.11-.11,0-.09.19.2.33-.31L6,10.62a.17.17,0,0,0,.12-.18S6,10.26,4.06,8.09l.16-.2a.12.12,0,0,0,0-.09l.25-.22a.29.29,0,0,1,.19.13l.63-.57.09,0,.94-.89-1,.7-.06,0s0,0,0-.05a.07.07,0,0,0,0-.06s-.07,0-.08,0l0,0A.42.42,0,0,1,5,6.75l0,.19-.31.3H4.42l-.33.32,0,.12.05.09c-.18.18-.19.18-.2.18l0-.05s0,0,0,0L4,7.71v0l0-.09,0,0c-.13.12-.17.16-.19.16l-.59-.65,0-.13-.35-.38H2.75c-.13,0-.21.08-.23.24s-.06,0-.13,0l-.2,0-.14,0L1.23,8.06l.47.54.92-1.2,0-.33.23.21h.06l.11,0,.58.63L3.53,8l0,0,0,0,0,0,0,0,0,0,0,0a.22.22,0,0,1-.06.07l-.07,0A.27.27,0,0,1,3.44,8l-.28.28v0l-.94.79H2.12V9.3l.58-.52V8.72l.09,0,.45-.37c.06,0,0,0,0,.06l-.43.38v0l-.08.07-.07,0ZM4.05,7.71v0l-.16.15s0,0,0,0,.08-.09.15-.15l0,0Z"/></g></g></g></g></g></svg>