<svg xmlns="http://www.w3.org/2000/svg" xmlns:xlink="http://www.w3.org/1999/xlink" viewBox="0 0 32.55 22.48"><defs><style>.cls-1{fill:none;}.cls-2{clip-path:url(#clip-path);}.cls-3{fill:#1f357e;}.cls-4{fill:#3d9546;}.cls-5{fill:#fff;}.cls-6{fill:#c0003b;}.cls-7{fill:#f5cd28;}</style><clipPath id="clip-path" transform="translate(1.54 2.64)"><rect class="cls-1" width="29.46" height="17.19"/></clipPath></defs><g id="Layer_2" data-name="Layer 2"><g id="cá»"><g id="south_africa" data-name="south africa"><g class="cls-2"><polygon class="cls-3" points="1.54 2.65 1.54 19.83 31.01 2.65 1.54 2.65"/><polygon class="cls-4" points="31.01 2.65 1.54 19.83 31.01 19.83 31.01 2.65"/><g class="cls-2"><polygon class="cls-5" points="3.09 22.48 0 17.19 29.46 0 32.55 5.29 3.09 22.48 3.09 22.48"/><polygon class="cls-6" points="2.7 21.81 0.39 17.85 29.85 0.66 32.16 4.63 2.7 21.81 2.7 21.81"/></g><polygon class="cls-7" points="10.24 8.8 8.98 8.59 9.19 9.85 8.21 9.03 7.76 10.23 7.32 9.03 6.33 9.85 6.55 8.59 5.28 8.8 6.1 7.82 4.9 7.37 6.1 6.93 5.28 5.94 6.55 6.16 6.33 4.89 7.32 5.71 7.76 4.51 8.21 5.71 9.19 4.89 8.98 6.16 10.24 5.94 9.42 6.93 10.63 7.37 9.42 7.82 10.24 8.8"/><g class="cls-2"><path class="cls-3" d="M7.94,4.73A1.72,1.72,0,1,1,6.22,3,1.72,1.72,0,0,1,7.94,4.73" transform="translate(1.54 2.64)"/><path class="cls-7" d="M7.65,4.73A1.43,1.43,0,1,1,6.22,3.29,1.43,1.43,0,0,1,7.65,4.73" transform="translate(1.54 2.64)"/></g></g></g></g></g></svg>