<svg xmlns="http://www.w3.org/2000/svg" xmlns:xlink="http://www.w3.org/1999/xlink" viewBox="0 0 29.46 17.19"><defs><style>.cls-1{fill:none;}.cls-2{clip-path:url(#clip-path);}.cls-3{fill:#3564c2;}.cls-4{fill:#fff;}.cls-5{fill:#f5cd28;}.cls-6{fill:#95d4fd;}.cls-7{fill:#487ba2;}.cls-8{fill:#c0003b;}.cls-9{fill:#5b7133;}.cls-10{fill:#263732;}.cls-11{fill:#93c438;}.cls-12{fill:#b0008a;}.cls-13{fill:#f3cd2d;}.cls-14{fill:#6091be;}.cls-15{fill:#2f4791;}</style><clipPath id="clip-path"><rect class="cls-1" width="29.46" height="17.19"/></clipPath></defs><g id="Layer_2" data-name="Layer 2"><g id="cá»"><g id="central_ameria" data-name="central ameria"><g class="cls-2"><rect class="cls-3" y="11.46" width="29.46" height="5.73"/><rect class="cls-3" width="29.46" height="5.73"/><rect class="cls-4" y="5.73" width="29.46" height="5.73"/><polygon class="cls-5" points="13 9.59 14.73 6.6 16.46 9.59 13 9.59"/><polygon class="cls-6" points="13.17 9.49 14.73 6.8 16.29 9.49 13.17 9.49"/><g class="cls-2"><path class="cls-6" d="M13.48,9.24h-.06l-.05,0v0l.05,0h.15a.15.15,0,0,1-.09,0Z"/><path class="cls-6" d="M13.34,9.43l0,0s0,0,.06-.05h.13a.11.11,0,0,0,.11,0h.05l0,0a.19.19,0,0,1-.13,0h-.11l0,0Z"/><path class="cls-6" d="M13.64,9.46h-.12l0,0v0h-.05v0h.1a.16.16,0,0,1,.12,0Z"/><path class="cls-6" d="M14.07,9.23c-.06,0-.08,0-.09-.08h-.14v0h.05a.24.24,0,0,1,.12,0c0,.07,0,.08.08.08s0,0,0,0h0l-.07,0Z"/><polygon class="cls-1" points="13.86 9.25 13.87 9.25 13.91 9.25 14 9.25 13.86 9.25"/><path class="cls-6" d="M14,9.39l0,0s0,0,.05,0,.08-.06.14,0a.27.27,0,0,0,.12.06h.11s0,0,0,0h-.07a.16.16,0,0,1-.1,0,.1.1,0,0,0-.12,0l0,.06Z"/><path class="cls-6" d="M14.29,9.49a.42.42,0,0,1-.12,0l0,0,0,0v0h0l0,0h.06a.17.17,0,0,0,.1,0h.09s0,0-.05,0Z"/><path class="cls-6" d="M14.66,9.17h-.19v0h0a.39.39,0,0,1,.16,0h.14l-.15,0Z"/><path class="cls-6" d="M14.72,9.35a.15.15,0,0,1-.1,0l0,0a.17.17,0,0,0-.12,0l0,0v0h0l0,0a.34.34,0,0,1,.14,0l0,0a.15.15,0,0,0,.08,0l.07,0,0,0Z"/><path class="cls-6" d="M14.79,9.43l-.1,0a.11.11,0,0,0-.1,0l0,0a.12.12,0,0,1,.13,0h.13l.05,0s0,0,.06,0h0l0,0-.06,0-.05,0Z"/><path class="cls-6" d="M15.17,9.25a.36.36,0,0,0-.14,0h0a.39.39,0,0,1,.15,0,.13.13,0,0,0,.07-.06l0,0a.17.17,0,0,1,.12,0h-.11a.2.2,0,0,1-.12.09Z"/><path class="cls-6" d="M15.22,9.41v0l.07,0s.06,0,.08,0l0,0a.18.18,0,0,0,.09-.1q0,.09-.09.12l-.05,0s0,0,0,0l-.08,0Z"/><path class="cls-6" d="M15.34,9.3v0h0s0,0,0,0l0,0s0,0,.07,0,.06,0,.08,0h-.07s-.05,0-.06,0l0,0-.05,0Z"/><path class="cls-6" d="M15.56,9.42h0l0-.11s.06,0,.08,0,0,0,.06.05l0,0,.06,0s-.05,0-.07,0l-.05,0,0,0-.05,0s0,.09,0,.1Z"/><path class="cls-6" d="M15.82,9.25c0-.07-.05-.1-.09-.11a.14.14,0,0,1,0,.07l0,0,0-.07a.11.11,0,0,1,.1.09s.08,0,.1,0-.05.05-.1.05Z"/><path class="cls-6" d="M16.14,9.39l-.07,0-.05,0s0,0-.06,0h0s0-.08.07-.08l0,0,.05,0a.07.07,0,0,0,.05,0s0,0,0,0l0,.05Z"/><path class="cls-6" d="M15,9.44v0h0s0,0,0,0a.41.41,0,0,0,.09-.1h.15a.13.13,0,0,1-.08,0h-.06s0,.06-.07.09l-.06,0Z"/><path class="cls-6" d="M13.71,9.25h0s0,0,.07-.06,0,0,.06,0l0,0h-.08l0,0Z"/><path class="cls-6" d="M13.87,9.4h0a.05.05,0,0,0,0,0l0,0v0h0l0,0,.06,0,.05,0s0,0,0,0Z"/><polygon class="cls-4" points="14.74 8.88 14.72 6.82 14.74 6.82 14.74 8.88 14.74 8.88"/><polygon class="cls-4" points="13.99 8.1 13.99 8.08 15.47 8.08 13.99 8.1 13.99 8.1"/><polygon class="cls-4" points="15.85 8.73 14.18 7.78 14.19 7.77 15.85 8.73 15.85 8.73"/><polygon class="cls-4" points="13.62 8.74 15.29 7.76 15.3 7.78 13.62 8.74 13.62 8.74"/><polygon class="cls-4" points="14.4 8.68 14.39 8.68 15.02 7.59 14.4 8.68 14.4 8.68"/><polygon class="cls-4" points="15.13 8.77 14.42 7.55 14.43 7.55 15.13 8.77 15.13 8.77"/><path class="cls-6" d="M15,8.09a.23.23,0,1,1-.23-.23.23.23,0,0,1,.23.23Z"/><path class="cls-7" d="M16,9l-.77,0s0,.11,0,.11a4,4,0,0,1,.71,0c0,.05-.62.08-.62.08a2.6,2.6,0,0,1,.61,0s-.32,0-.29.06a1.66,1.66,0,0,1,.44,0s-.17.07-.17.07l.32,0L16,9Z"/><path class="cls-8" d="M14.62,7.94s.05,0,.05.08a.83.83,0,0,1-.07.13s.09.16.19.09.09-.2.05-.22-.13-.13-.22-.08Z"/><path d="M14.76,8.24s0-.05-.06-.07-.07,0-.08,0v0h0v0s.07,0,.09,0,.07.05.06.08Z"/><path class="cls-9" d="M14.07,8.41c.09,0,.12.08.14.1a.93.93,0,0,0,.13,0l.1.06s0-.09.08-.1.21.11.21.11,0-.11.07-.1a3,3,0,0,1,.28.2s0-.07.06-.08.22.08.22.08,0-.08.06-.08.43.36.5.37-.12.05-.12.05,0,0,0,0a3.84,3.84,0,0,1-.48,0s0,0,0,0-2,0-2,0c.18-.31.55-.73.71-.76Z"/><path class="cls-10" d="M14.85,9.16c.07,0,0-.21-.36-.5.6.41.22.47.83.49Z"/><path class="cls-10" d="M14.75,8.64l.59.46h.13a3.7,3.7,0,0,1-.72-.47Z"/><path class="cls-10" d="M15.09,8.73s.48.37.4.38a2,2,0,0,0,.32,0c-.31,0-.24,0-.72-.37Z"/><path class="cls-10" d="M15.38,8.74l.42.32.1,0c-.12,0-.14,0-.52-.28Z"/><path class="cls-11" d="M14.14,8.45s0,.06.07.07a2,2,0,0,1,.32.22c.11.11.27.25.21.27a.11.11,0,0,1-.11,0s.08.13,0,.14-.37-.39-.37-.39.13.36,0,.34-.14-.27-.14-.27-.05.12-.08.12,0-.16,0-.16-.18.31-.26.28.29-.61.43-.58Z"/><path class="cls-11" d="M14.53,8.55s0,0,.08,0a3.4,3.4,0,0,1,.52.43s-.57-.26-.6-.44Z"/><path class="cls-11" d="M14.88,8.62s.37.4.47.38-.44-.38-.47-.38Z"/><path class="cls-11" d="M15.16,8.65s.4.4.5.38-.43-.37-.5-.38Z"/><path class="cls-11" d="M15.42,8.67c-.05,0,.33.3.38.3s-.26-.32-.38-.3Z"/><path class="cls-12" d="M14.12,7.86a.86.86,0,0,1,.61-.27.89.89,0,0,1,.62.27l-.1-.16a.81.81,0,0,0-1,0Z"/><path class="cls-8" d="M15.19,7.6a.83.83,0,0,0-.92,0l-.08.13a.83.83,0,0,1,1.08,0Z"/><path class="cls-13" d="M15.14,7.48a.78.78,0,0,0-.41-.11.71.71,0,0,0-.39.1l-.08.14a.81.81,0,0,1,.94,0Z"/><path class="cls-11" d="M15.07,7.37l.07.13a.73.73,0,0,0-.41-.11.69.69,0,0,0-.41.12l.07-.13a.61.61,0,0,1,.34-.08.67.67,0,0,1,.34.07Z"/><path class="cls-14" d="M15,7.29l.07.1a.91.91,0,0,0-.35-.07.81.81,0,0,0-.36.09l.06-.1a.67.67,0,0,1,.3-.06.75.75,0,0,1,.28,0Z"/><path class="cls-15" d="M15,7.23l0,.09a.78.78,0,0,0-.6,0l.05-.09a.8.8,0,0,1,.5,0Z"/><path class="cls-4" d="M14.35,9.2h.78s-.14,0-.13,0a1.23,1.23,0,0,0,.27,0l-.17,0s.08,0,.08,0-.15,0-.15,0l.18,0-.26,0s.17.07.17.07h-1s.16,0,.16-.05-.11,0-.11,0a3.3,3.3,0,0,0,.44,0s-.09,0-.09,0a.57.57,0,0,0,.18,0s-.23-.05-.23-.05.14,0,.16,0-.26-.05-.26-.05Z"/><path class="cls-7" d="M14.2,9.22a6.78,6.78,0,0,0-.83.07c-.06,0,.43.09.43.09a2.2,2.2,0,0,0-.55,0s.31,0,.31,0l-.39,0,.19-.31Z"/><path class="cls-13" d="M12.5,9.27a.05.05,0,0,1,0,.07s-.06,0-.06,0a0,0,0,0,1,0-.06s.05,0,.06,0Z"/><path class="cls-1" d="M12.5,9.27a.05.05,0,0,1,0,.07s-.06,0-.06,0a0,0,0,0,1,0-.06S12.49,9.25,12.5,9.27Z"/><path class="cls-13" d="M12.58,9.76s-.05.05,0,.09h0l-.08-.18h0s0,0,0,0l0,0,.05,0-.06-.13h-.08s0,0,0,.06h0l-.06-.14h0s.07,0,.11,0l.3,0,.06.07Zm.16-.27-.19,0,0,.11Z"/><path d="M12.53,9.86l-.08-.18h0l.06.17h0s0-.06,0-.09l.26-.24-.06-.06-.33,0,0,0h0l.33,0,.06.06-.25.24s-.05.05,0,.09Zm0-.15h0l.08-.07-.06-.13h-.08s0,.05,0,.06l0,0a0,0,0,0,1,0-.05h.08l.06.13-.08.07Z"/><path class="cls-13" d="M12.85,10.19s0,0,0,.08h0l-.12-.16h0s0,0,.07,0L13,10h0l-.36.11v0l.2-.3h0l-.18.13c-.07.05-.07.06,0,.1v0l-.08-.12h0s0,0,.12,0l.17-.13s0,0,0-.07h0l.09.13L12.8,10l.26-.08.09.13h0s0,0-.07,0Z"/><path d="M12.83,10.28l-.12-.16h0l.09.15h0s0,0,0-.07l.21-.16s0,0,.06,0h0l-.25.17s0,0,0,.07l0,0Zm-.06-.14,0,0h0L13,10l-.21.16,0,0Zm-.1-.08,0,0L13,10h0l-.36.11Zm.48,0h0l-.07-.12-.25.08L13,9.77v0l0,0-.15.22.25-.08.09.13ZM12.63,10l0,0s0,0,.07-.08l.18-.14h0l-.17.13c-.07.05-.08.06-.06.1Zm0-.08h0s0,0,.11,0l.16-.12s0,0,0-.07l0,0a.05.05,0,0,1,0,.05l-.17.13s-.06,0-.08,0Z"/><path class="cls-13" d="M12.92,10.34s0,0,.07,0l.18-.19a.05.05,0,0,0,0-.08h0l.25.22-.05.1h0a.23.23,0,0,0-.06-.18s-.05,0-.07,0l-.07.08h0a.08.08,0,0,0,.12,0h0l-.1.12h0a.08.08,0,0,0,0-.12h0l-.08.09a0,0,0,0,0,0,.07.24.24,0,0,0,.18,0h0l-.1.05-.24-.22Z"/><path d="M13.15,10.58h0l-.25-.22h0l.22.22h0l0,0Zm.08-.07h0a.2.2,0,0,1-.14,0,0,0,0,0,1,0-.07l.08-.09s0,0,0,.08a.16.16,0,0,0,0-.07l-.09.08s0,0,0,.07a.21.21,0,0,0,.18,0ZM13,10.36h0s0,0,.06,0l.17-.2s0,0,0,0l0,0,0,0v0l0,0-.18.2,0,0Zm.4-.07-.06-.09s-.05,0-.07,0l0,0,0,0s0,0,.08,0a.21.21,0,0,1,.06.1Z"/><path class="cls-13" d="M13.55,10.73s0,.08,0,.1v0l-.11-.07v-.13c0-.08,0-.09,0-.11l-.06.11s0,0,0,.07v0l-.17-.11h0s0,0,.07,0l.14-.22s0-.05,0-.08h0l.2.12c.07.05.09.11.06.16a.11.11,0,0,1-.14,0s0,0,0,.06Zm-.08-.2c.07.05.11,0,.14,0a.08.08,0,0,0,0-.12s0,0-.06,0l-.06.1Z"/><path d="M13.57,10.85l-.12-.07a.09.09,0,0,1,0,0v-.08c0-.08,0-.09,0-.1l-.06.1s0,0,0,.07l0,0s0,0,0,0l.06-.11s0,0,0,.11v.13l.11.07v0s0-.06,0-.1V10.6c.07,0,.11,0,.14,0s0-.11-.06-.15l0,0,0,0a.12.12,0,0,1,.06.16s-.08.06-.14,0a.09.09,0,0,1,0,.05v.08s0,.08,0,.1v0Zm-.3-.22h0s0,0,0,0l0,0,.14-.23s0,0,0-.06h0a.06.06,0,0,1,0,.06l-.14.22,0,0Zm.28-.07h0l-.09,0h0l.08,0h0s0,0,.06-.05,0-.07,0-.1h0l0,0,0,0,0,0s0,0,0,0h0c.05,0,.06.07,0,.12a.06.06,0,0,1-.06,0Z"/><path class="cls-13" d="M13.78,10.57s0-.05,0-.07h0l.17.08h0s-.06,0-.07,0l-.11.24s0,.05,0,.07h0l-.18-.08h0s.05,0,.07,0Z"/><path d="M13.77,10.94l-.18-.08h0l.17.08h0s0,0,0-.07l.1-.24,0,0h0l0,0-.11.24s0,.05,0,.07v0Zm-.17-.09h0l0,0,.11-.24s0-.05,0-.07h0a.06.06,0,0,1,0,.06l-.11.24s0,0,0,0h0Z"/><path class="cls-13" d="M14.21,10.78h0a.18.18,0,0,0-.1-.15c-.07,0-.12.07-.14.14s0,.2.06.21a.13.13,0,0,0,.13,0h0A.17.17,0,0,1,14,11a.19.19,0,0,1-.12-.24.22.22,0,0,1,.25-.16l.05,0,0,0h.05Z"/><path d="M14,11H14a.21.21,0,0,1-.12-.25.21.21,0,0,1,.25-.16l.05,0,0,0h0l0,0-.05,0a.2.2,0,0,0-.24.16A.19.19,0,0,0,14,11a.17.17,0,0,0,.14,0A.13.13,0,0,1,14,11Zm-.07-.1a.19.19,0,0,1,0-.17s.05-.13.13-.13h0c-.09,0-.13.1-.14.13a.17.17,0,0,0,0,.16Z"/><path class="cls-13" d="M14.48,11s0,.07.06.08h0l-.19,0h0s0,0,.05,0V11l-.14,0,0,0,0,0a0,0,0,0,0,0,.05v0l-.14,0v0c.06,0,.07,0,.09-.08l.15-.26.09,0Zm-.12-.28-.1.16.12,0Z"/><path d="M14.54,11.13l-.19,0,.05,0s0,0,0,0l.17,0h0s0,0-.06-.07l-.05-.36-.08,0-.14.27s0,0-.06.06a.18.18,0,0,0,0-.07l.15-.26.09,0,.05.35s0,.07,0,.07v0Zm-.28-.07h0a.08.08,0,0,1,0-.05l0,0,0,0,.14,0v.1h0l0-.1-.13,0,0,0v0s0,.05,0,.05Z"/><path class="cls-13" d="M15.05,10.82h0a.16.16,0,0,0-.14-.11c-.08,0-.09.12-.09.18s.08.19.14.18A.13.13,0,0,0,15,11h0a.19.19,0,0,1-.36-.07.21.21,0,0,1,.18-.24H15l0,0h0Z"/><path d="M14.88,11.13a.18.18,0,0,1-.18-.19.21.21,0,0,1,.18-.24,0,0,0,0,1,0,0H15l0,0h-.08c-.12,0-.18.12-.18.23a.19.19,0,0,0,.18.18h0a.13.13,0,0,0,.1,0,.12.12,0,0,1-.1.05Zm0-.05c-.06,0-.13,0-.14-.18s0-.17.09-.18h0a.19.19,0,0,1,.11,0,.18.18,0,0,0-.1,0c-.1,0-.1.14-.09.17s.07.18.12.18S15,11,15,11s0,0,0,0a.14.14,0,0,1-.1.05Z"/><path class="cls-13" d="M15.12,11.08s.05,0,0-.06l-.06-.26s0,0-.06,0v0l.32-.07.05.09h0a.22.22,0,0,0-.17-.05c-.05,0-.05,0,0,.07l0,.1h0s.07,0,.08-.09h0l0,.16h0c0-.05-.05-.06-.11,0h0l0,.11s0,0,.05,0a.2.2,0,0,0,.15-.12h0V11l-.32.08Z"/><path d="M15.12,11.1v0l0,0v0l-.06-.26s0,0,0,0h0a.05.05,0,0,1,0,0l.06.26s0,0,0,0l0,0h0l.32-.09v0l-.33.08ZM15.3,11s-.05,0-.05,0l0-.11c.08,0,.08,0,.1,0s0,0-.09,0l0,.11s0,0,0,0a.2.2,0,0,0,.16-.12v0a.31.31,0,0,1-.15.11Zm-.1-.25v0s0-.06,0-.07a.14.14,0,0,1,.11,0l-.08,0c-.08,0-.07,0-.07.07v0Z"/><path class="cls-13" d="M15.81,10.75l-.08-.17c0-.05,0-.07-.08-.05v0l.13-.06v0s0,0,0,.09l.12.29,0,0-.33-.2.08.19c0,.06,0,.07.1.05v0l-.14.06h0c.05,0,.05-.05,0-.1l-.1-.23a.09.09,0,0,0-.07,0v0l.13,0Z"/><path d="M15.55,11v0c.05,0,.05-.05,0-.1l-.1-.23H15.4a.1.1,0,0,1,.07,0l.1.23s0,.07,0,.1h0l0,0Zm.12-.08h0s0,0-.06-.06l-.08-.19.33.19,0,0-.12-.27s0-.06,0-.07a.07.07,0,0,0,0,.06l.12.29,0,0-.33-.2.09.19c0,.06,0,.06.09.05Zm.14-.18-.29-.17-.12,0h0l.13-.06.29.18-.08-.16s0-.05-.05-.05h0s0,0,.06.06l.07.16Z"/><path class="cls-13" d="M16.06,10.25l.09.08h0a.22.22,0,0,0-.16,0l.17.26s0,0,.08,0h0l-.17.11h0s0,0,0-.07l-.17-.26a.16.16,0,0,0-.06.15h0l0-.1Z"/><path d="M16.07,10.74v0s0,0,0-.07l-.18-.26a.2.2,0,0,0,0,.15l0,0a.35.35,0,0,1,.06-.14l.18.26s0,.06,0,.08h0l0,0,0,0Zm.12-.12,0,0L16,10.34a.1.1,0,0,1,.12,0c-.06,0-.09,0-.12,0l.18.25s0,0,.06,0l0,0Zm-.39-.17h0l.27-.19.09.07h0l-.07-.08-.26.19Z"/><path class="cls-13" d="M16.53,10.23s.08,0,.11,0l0,0-.1.09,0,0-.07,0c-.07,0-.09,0-.11,0l.09.09s0,0,.07,0v0l-.14.13h0s0,0,0-.07l-.18-.19s0,0-.07,0h0l.17-.17a.12.12,0,0,1,.17,0s0,.1,0,.15a.07.07,0,0,1,.06,0Zm-.21,0c.07-.06.07-.1,0-.15s-.07,0-.11,0,0,0,0,.06l.09.09Z"/><path d="M16.36,10.53v0s0,0,0-.07l-.18-.19s0,0-.07,0l0,0s0,0,.05,0l.19.19s0,0,0,.07h0l0,0,0,0Zm.09-.13,0,0-.09-.09s.05,0,.11,0l.12,0h0l0,0,0,0-.12,0c-.06,0-.09,0-.11,0l.09.08s0,0,.07,0l0,0Zm-.13-.14h0c.07-.07.06-.11,0-.14s-.07,0-.11,0,0,0,0,0l0,0,0,0s0,0,0-.06.08,0,.12,0,0,.09,0,.15Zm.27,0h-.06l-.06,0h0l.06,0s.08,0,.11,0v0Zm-.16-.07a.13.13,0,0,0,0-.12.13.13,0,0,0-.17,0l0,0,0,0a.12.12,0,0,1,.17,0,.09.09,0,0,1,0,.12Z"/><path class="cls-13" d="M16.81,9.87s.06,0,.09,0l0,0-.11.15h0s0,0,0,0h0l-.07,0-.08.11,0,0a.05.05,0,0,0,0,0s0,0,.06,0h0l-.08.12h0c0-.05,0-.07,0-.12l-.17-.25,0-.08Zm-.31,0,.11.16.07-.1Z"/><path d="M16.67,10.22h0c0-.05,0-.07,0-.11l-.17-.26,0-.08.33.11c.05,0,.07,0,.09,0v0a.12.12,0,0,1-.08,0l-.33-.11,0,.08.17.25a.14.14,0,0,1,0,.12h0v0Zm0-.1s-.05,0-.06,0l0,0,.08-.11.07,0h0l-.1,0-.07.11,0,0,0,0,.06,0v0Zm-.09-.1-.11-.16.18.06-.07.1Z"/><path class="cls-13" d="M16.91,9.83s0-.05,0-.07l-.23-.12s-.06,0-.07,0h0l.09-.18h0s0,0,0,.07l.24.12s0,0,.06,0a.21.21,0,0,0,0-.19h0l.08.08-.14.3Z"/><path d="M16.93,9.84h0s0-.05,0-.07l-.24-.11s0,0-.06,0v0h0l.26.13s0,0,0,.07h0l.14-.3h0l-.15.3Zm0-.15-.27-.13s0,0,0,0a.08.08,0,0,0,0,0l.23.12s.05,0,.06,0a.25.25,0,0,0,0-.19l0,0a.22.22,0,0,1,0,.18s0,0,0,0Z"/><path class="cls-13" d="M17,9.27a.06.06,0,0,1,.07,0s0,0,0,.06a.07.07,0,0,1-.07,0,.06.06,0,0,1,0-.07Z"/><path d="M17,9.34h0a.06.06,0,0,1,0-.07.05.05,0,0,1,.05,0s.06,0,.05.06a.05.05,0,0,1-.05,0Z"/><path class="cls-13" d="M12.5,8.78s.07,0,.06-.1h0l0,.13,0,0-.06,0c-.07,0-.07.07-.06.09l.12,0s0,0,0-.06h0l0,.2h0s0-.05-.06-.05l-.26,0s-.05,0,0,.07h0l0-.24a.11.11,0,0,1,.08-.14c.06,0,.1,0,.12.09l0,0ZM12.41,9c0-.09-.05-.12-.11-.11s-.07.05-.06.11,0,0,0,0l.12,0Z"/><path d="M12.25,9.15l0-.23c0-.09,0-.14.08-.15a.11.11,0,0,1,.12.09s0,0,0,0l.05,0s.07,0,.06-.09v0a.16.16,0,0,1-.07.07l-.05,0,0,0s-.05-.09-.1-.09a.11.11,0,0,0-.09.14l0,.24h0s0,0,0,0l0,0,.26,0,0,0,0,0-.28.05h0s0,0,0,.05Zm0-.15s0,0,0,0a.17.17,0,0,1,0-.08s0,0,.05,0h0s.07,0,.08.11h0c0-.08,0-.11-.08-.11h0a.05.05,0,0,0,0,0,.06.06,0,0,0,0,.07s0,0,0,0l.08,0-.06,0Zm.16,0s0-.05.06-.1l.06,0,0,0v0l0,0-.07.05c-.06,0-.07.06-.06.08l.12,0s0,0,0-.06v0l0,0-.12,0Z"/><path class="cls-13" d="M12.57,8.66s0-.06-.05-.06h-.27s-.05,0-.05.05h0V8.31l.1,0v0a.23.23,0,0,0-.1.15c0,.05,0,.05.06.05h.1v0c0-.05,0-.07-.07-.1v0h.15v0a.08.08,0,0,0-.07.09v0h.12s.05,0,.05,0a.25.25,0,0,0-.08-.18h0l.1.05,0,.33Z"/><path d="M12.59,8.66h0s0-.05-.05-.06h-.27a0,0,0,0,0,0,.05v0s0,0,.05,0h.27s.05,0,.05.06h0V8.33h0v.34Zm-.07-.15H12.4a.11.11,0,0,1,0-.09s0,0,0,.07l.12,0h0s.05,0,.05,0a.25.25,0,0,0-.08-.17h0a.24.24,0,0,1,.06.17s0,0-.05,0Zm-.25,0s-.06,0-.06-.05a.25.25,0,0,1,0-.11.26.26,0,0,0,0,.11c0,.05,0,.05,0,.05h0Z"/><path class="cls-13" d="M12.45,8.08l.12,0s0,0,.06,0h0l0,.2h0s0,0,0-.06l-.26-.06s0,0-.06,0h0l0-.2c0-.12.09-.15.14-.14s.09.12.07.2Zm0,0v0c0-.07,0-.1-.07-.12a.08.08,0,0,0-.1.07s0,.05.05.05Z"/><path d="M12.6,8.27h0v0l0,0-.25-.06s0,0-.06,0v0h0l.28.06s0,0,0,0,0,0,0,0h0v0Zm0-.15h0l-.14,0V8c0-.09,0-.18-.07-.2s-.11,0-.13.15V8c0-.09.07-.14.12-.14s.11.11.1.2v.05l.11,0s0,0,0,0v0l0,0Zm-.27-.06s-.06,0-.05-.06a.08.08,0,0,1,.08-.07h0c.07,0,.09.05.07.12h0c0-.07,0-.1-.07-.11h0a.07.07,0,0,0-.07.07s0,0,0,.05h0Z"/><path class="cls-13" d="M12.59,7.75c.1,0,.13,0,.16,0s0-.11-.08-.14l-.18-.07s-.05,0-.07,0h0l.05-.13h0s0,0,0,.07l.18.07a.13.13,0,0,1,.08.2c0,.1-.11.13-.19.1l-.19-.08s-.05,0-.06,0h0l.07-.18h0s0,0,0,.06Z"/><path d="M12.63,7.85h-.06l-.19-.08s-.05,0-.06,0v0h0l.23.09c.07,0,.14,0,.18-.1a.17.17,0,0,0,0-.12.13.13,0,0,0-.09-.07l-.18-.08,0,0s0,0,0,0v0l0,0,.18.07c.05,0,.08,0,.09.08s0,.07,0,.12-.07.11-.13.11Zm0-.08h0l-.08,0-.17-.07s0,0,0,0l0,0,.18.08.07,0h0a.07.07,0,0,0,.07-.06c0-.06,0-.11-.07-.14l-.18-.07s-.05,0-.06,0v0h0l.21.08c.08,0,.11.08.08.14s0,.06-.08.06Z"/><path class="cls-13" d="M12.82,7.57h0s0,0,0-.07l-.22-.15s-.05,0-.08,0h0l.11-.17c.07-.12.12-.12.16-.09s0,.09,0,.14h0c0-.05.09-.09.15-.05s.07.1,0,.19Zm-.1-.27c0-.06,0-.1,0-.13a.08.08,0,0,0-.12,0v0l0,0,.1.06Zm.1.1s.06,0,.09,0a.08.08,0,0,0,0-.13c-.05,0-.09,0-.14,0l0,0Z"/><path d="M12.82,7.57h0s0,0,0-.07l-.23-.15s-.05,0-.06,0v0h.06l.22.14s0,0,0,.08h0l.13-.2c.05-.09.05-.15,0-.19s-.11,0-.15.05h0a.11.11,0,0,1,.16-.05c.05,0,.06.1,0,.19l-.12.2Zm0-.15a.06.06,0,0,1,0,0l-.1-.06c.07-.12.1-.12.16-.08s0,.09,0,.13l0,0Zm0-.18s-.06,0-.09.07l.08.09s.06,0,.09,0a.08.08,0,0,0,0-.13l0,0Zm-.11.06h0c0-.07,0-.1,0-.13s-.07,0-.1,0a0,0,0,0,0,0,0s0,0,0,0,.07-.06.12,0,0,.07,0,.13Zm-.16-.08,0,0c.07-.1.12-.13.18-.1s0,.11,0,.14,0-.1,0-.13-.1,0-.16.09l0,0Z"/><path class="cls-13" d="M13,7.21s0,0,0-.07L12.83,7a.05.05,0,0,0-.08,0h0l.13-.15h0a.05.05,0,0,0,0,.08l.19.17s0,0,.06,0a.2.2,0,0,0,0-.18h0l.06.1L13,7.23Z"/><path d="M13,7.23h0s0,0,0,0l0,0L12.82,7s0,0-.07,0l0,0a0,0,0,0,1,.06,0l.19.18s0,0,0,0,0,0,0,0h0L13.25,7V7l0,0L13,7.23Zm.07-.13,0,0-.2-.18a.06.06,0,0,1,0-.05s0,0,0,0l.19.18,0,0a.2.2,0,0,0,.07-.2h0a.24.24,0,0,1-.06.18l0,0Z"/><path class="cls-13" d="M13.12,6.67a.05.05,0,0,0-.08,0h0l.15-.13h0a.05.05,0,0,0,0,.08l.17.2a.05.05,0,0,0,.08,0h0L13.29,7v0s0,0,0-.07Z"/><path d="M13.29,7h0a.05.05,0,0,0,0-.08l-.17-.2s0,0-.07,0l0,0s0,0,.06,0l.17.21a.05.05,0,0,1,0,.08h0l0,0,0,0Zm.1-.12a.05.05,0,0,1,0,0l-.17-.2s0,0,0-.05a.06.06,0,0,0,0,.05l.16.2s0,0,.07,0v0Z"/><path class="cls-13" d="M13.58,6.39v0c-.05,0-.12-.06-.17,0s0,.15,0,.2.16.13.21.09.06-.07.06-.12h0a.19.19,0,0,1-.09.18.19.19,0,0,1-.26-.07.22.22,0,0,1,0-.29l0,0h0l0,0h0Z"/><path d="M13.51,6.76a.2.2,0,0,1-.17-.09.22.22,0,0,1,0-.3l0,0h0l0,0h0s0,0,0,0h0l0,0a.23.23,0,0,0,0,.29.2.2,0,0,0,.26.07.15.15,0,0,0,.07-.09.11.11,0,0,1-.07.09l-.09,0Zm0-.07a.18.18,0,0,1-.15-.1c0-.08-.07-.17,0-.21a.19.19,0,0,1,.13,0,.2.2,0,0,0-.13,0c-.08.05,0,.17,0,.19s.16.12.2.09a.15.15,0,0,0,.05-.12,0,0,0,0,1,0,0,.15.15,0,0,1-.06.1Z"/><path class="cls-13" d="M14,6.42a.08.08,0,0,0,.09,0h0L14,6.54h0s0,0,0,0l0,0,0,0-.13,0v0a.11.11,0,0,0,0,0s0,0,.06,0v0l-.14.06v0s0-.06,0-.11V6.2l.06,0Zm-.26-.17v.18l.11,0Z"/><path d="M13.72,6.64v0s0-.07,0-.11V6.2l.07,0,.22.27s0,0,.06,0h0a.12.12,0,0,1-.08,0l-.22-.27-.06.06v.3s0,.08,0,.11h0l.14,0s-.07,0-.07,0a.11.11,0,0,1,0,0v0l.13,0,0,0,0,0-.06-.08-.13,0v0a.06.06,0,0,1,0,0s0,0,0,0h0l-.14.06Zm.06-.2v-.2l.12.15-.11.05Z"/><path class="cls-13" d="M14.28,6.41s.05,0,.05,0l0-.27s0,0-.06,0V6l.19,0h.09a.21.21,0,0,1,.15.18.23.23,0,0,1-.1.2l-.1,0-.18,0Zm.14-.07s0,0,.05,0,.12,0,.1-.2S14.5,6,14.43,6s0,0,0,.06Z"/><path d="M14.28,6.43h0s.05,0,.05-.06l0-.27s0,0,0,0h0a.05.05,0,0,1,0,0l0,.27s0,0-.05.06h0l.19,0a.29.29,0,0,0,.1,0,.19.19,0,0,0,.09-.19A.18.18,0,0,0,14.52,6h0a.19.19,0,0,1,.15.18.2.2,0,0,1-.1.2l-.1,0-.19,0Zm.19,0c-.05,0-.05,0-.05,0l0-.25s0-.06,0-.06h0c.07,0,.11,0,.12.16s0,.19-.1.2Zm0-.36h0s0,0,0,.06l0,.25s0,0,0,0,.13,0,.12-.2S14.52,6,14.45,6Z"/><path class="cls-13" d="M14.69,6.37s.06,0,.06,0l0-.26s0,0,0-.06h0l.33,0,0,.1h0a.22.22,0,0,0-.15-.1c-.05,0-.05,0-.05.05v.11h0c.05,0,.08,0,.1-.06h0v.16h0a.08.08,0,0,0-.09-.07h0v.11s0,.06,0,.06a.23.23,0,0,0,.17-.08h0l-.05.1-.33,0Z"/><path d="M15,6.41h0l-.33,0h0l.3,0v0Zm-.13,0c-.05,0-.06,0-.05-.06V6.21c.05,0,.08,0,.09,0a.09.09,0,0,0-.07,0l0,.11s0,0,0,.06h0a.23.23,0,0,0,.17-.08v0a.24.24,0,0,1-.15.06Zm-.17,0a0,0,0,0,0,0,0V6.06s0,0,0,0h0s0,0,0,0l0,.26s0,0,0,0Zm.14-.28v0s0-.05.05-.05a.21.21,0,0,1,.11,0,.26.26,0,0,0-.1,0h0c-.05,0-.05,0-.05.05v0Z"/><path class="cls-13" d="M15.56,6.43l.06-.17s0-.07,0-.1h0l.13,0v0c-.05,0-.06,0-.08.06l-.1.29,0,0-.11-.37-.07.2c0,.06,0,.07,0,.1v0l-.15,0v0s.06,0,.08,0l.08-.24-.05,0v0l.13,0Z"/><path d="M15.55,6.56l-.05,0-.11-.37-.06.21s0,.06,0,.09h0s0,0,0-.1l.06-.2.12.37h0l.1-.28s0-.06,0-.06,0,0,0,.06l-.1.29Zm-.24-.1-.1,0h0l0,0s0,0,.06,0l.08-.24-.05,0h0s0,0,0,0l-.08.24s0,.06-.06.06l.07,0Zm.26,0-.1-.33h0l.1.33,0-.17s0-.07,0-.09h0a.07.07,0,0,1,0,.09l0,.17Z"/><path class="cls-13" d="M15.8,6.31s0-.06,0-.07v0l.17.09v0s-.06,0-.07,0l-.12.23s0,.06,0,.07v0l-.17-.09h0s.05,0,.07,0Z"/><path d="M15.77,6.67l-.17-.09h0l.15.09v0s0,0,0-.07l.11-.23,0,0h0l0,0-.12.24s0,0,0,.06v0Zm-.13-.09h0a0,0,0,0,0,0,0l.12-.23s0,0,0-.07h0a.06.06,0,0,1,0,.06l-.12.23s0,0,0,0Z"/><path class="cls-13" d="M16.24,6.63h0s0-.13-.05-.16-.14,0-.17.08-.06.19,0,.23a.14.14,0,0,0,.14,0v0a.18.18,0,0,1-.24-.27.21.21,0,0,1,.28-.09l0,0s0,0,0,0h.05Z"/><path d="M16,6.82a.17.17,0,0,1-.1,0,.19.19,0,0,1,0-.28.2.2,0,0,1,.28-.08l0,0,0,0h0l0,0h0l0,0a.21.21,0,0,0-.28.08.19.19,0,0,0,0,.26.18.18,0,0,0,.16,0l-.06,0Zm0,0-.07,0c-.05,0-.07-.12,0-.23s.12-.13.19-.08a.16.16,0,0,1,0,.1.13.13,0,0,0-.06-.1c-.06,0-.13,0-.17.08s-.05.19,0,.23a.19.19,0,0,0,.13,0h-.07Z"/><path class="cls-13" d="M16.39,7.05s0,.06,0,.1h0L16.24,7V7s0,0,.05,0,0,0,0,0l0-.06-.1-.1,0,0,0,0a0,0,0,0,0,0,.07h0l-.11-.1,0,0a.09.09,0,0,0,.11,0l.28-.13.07,0Zm.05-.3-.17.08.09.08Z"/><path d="M16.37,7.16,16.24,7h0l.11.13h0s0-.06,0-.09l.16-.32-.07,0-.28.13a.12.12,0,0,1-.1,0s0,0,0,0a.09.09,0,0,0,.07,0l.28-.13.07,0-.15.31s0,.07,0,.1h0ZM16.28,7h0l.06-.09-.1-.1,0,0,0,0s0,.06,0,.07l0,0a.09.09,0,0,1,0,0l0,0,0,0,.1.1-.07.1Z"/><path class="cls-13" d="M16.64,7.4a.11.11,0,0,0,0,.11h0l-.08-.11s0,0,0,0l0-.06c0-.07,0-.09,0-.11l-.1.07s0,0,0,.07h0l-.12-.16h0s0,0,.07,0L16.69,7s0,0,0-.08h0l.14.2c0,.07,0,.13,0,.16a.1.1,0,0,1-.14,0,.14.14,0,0,1,0,.06Zm0-.22c.05.08.09.09.14.05s0-.07,0-.12,0,0-.06,0l-.1.06Z"/><path d="M16.61,7.52l-.07-.11,0,0,0-.07c0-.07,0-.09,0-.11l-.1.07s0,0,0,.07l0,0a.05.05,0,0,1,0,0l.1-.07s0,0,0,.11l0,.07,0,0,.08.11h0a.09.09,0,0,1,0-.11l0-.06a.07.07,0,0,0,0-.06c.06,0,.11.06.14,0a.1.1,0,0,0,0-.16l0,0,0,0a.12.12,0,0,1,0,.17s-.1,0-.15,0a0,0,0,0,1,0,0l0,.07s0,.07,0,.11Zm.13-.27a.12.12,0,0,1-.09-.06h0c.05.07.09.08.14.05s0-.06,0-.11l0,0-.07,0,.07,0,0,0c0,.06,0,.09,0,.12a.06.06,0,0,1-.05,0Zm-.3,0h0L16.69,7l0,0a.08.08,0,0,0,0,0l0,0h0s0,0,0,0l-.22.15Z"/><path class="cls-13" d="M16.84,7.85a.08.08,0,0,0,0,.09h0l-.08-.18h0s0,0,0,0l0,0,.05,0L16.8,7.6h-.09a.06.06,0,0,0,0,.07h0l-.06-.13h0s.06,0,.11,0h.3l.06.07ZM17,7.59h-.18l0,.11Z"/><path d="M16.79,7.94l-.08-.18h0l.06.17h0s0-.06,0-.08l.26-.23-.05-.06h0l.06.06-.27.23s-.05,0,0,.08Zm0-.15h0l.09-.07-.06-.12h-.07a0,0,0,0,0,0,.06l0,0,0,0h.09l.05.13-.09.07Z"/><path class="cls-13" d="M17.14,8.23v0c.06-.06.08-.1.07-.15S17.13,8,17,8s-.18.08-.17.14.06.06.11,0,0,0,0-.06h0l0,.18h0s0,0-.07,0h-.08a.15.15,0,0,0,0-.07l0-.08A.19.19,0,0,1,17,7.9a.21.21,0,0,1,.25.15.09.09,0,0,1,0,0,0,0,0,0,0,0,0l0,0Z"/><path d="M17,8.3s0,0,0,0l-.11,0a.21.21,0,0,0,0-.07l0-.08a.25.25,0,0,1,0-.15A.22.22,0,0,1,17,7.9a.21.21,0,0,1,.26.15v.08a.08.08,0,0,0,0,0l-.11.06,0,0,.09,0a0,0,0,0,1,0,0V8.05A.2.2,0,0,0,17,7.91a.17.17,0,0,0-.13.08.14.14,0,0,0,0,.14.13.13,0,0,0,0,.08.19.19,0,0,1,0,.07l.08,0c.05,0,.06,0,.07,0h0v0Zm-.12-.11a.07.07,0,0,1-.07-.06c0-.07,0-.11.17-.14s.2,0,.21.07a.16.16,0,0,1,0,.09.1.1,0,0,0,0-.09S17.15,8,17,8s-.18.07-.16.13.05.06.1,0,0,0,0-.06v0a.07.07,0,0,1,0,0Z"/><path class="cls-13" d="M17,8.45c-.1,0-.13,0-.12.09s.05.1.13.1h.19s.05,0,.05-.06h0v.14h0s0-.05-.05-.05H17c-.09,0-.14,0-.15-.15s0-.16.13-.16h.21s0,0,0,0h0v.2h0s0-.06-.06-.06Z"/><path d="M17.25,8.72s0-.05-.05-.05H17c-.1,0-.15,0-.15-.15a.17.17,0,0,1,0-.13.25.25,0,0,1,.09,0h.21s0,0,0,0v0a0,0,0,0,1,0,0H17a.11.11,0,0,0-.08,0,.18.18,0,0,0,0,.13c0,.1,0,.15.14.15h.2s.05,0,.05.05h0v0ZM17,8.65c-.1,0-.14,0-.14-.11a.14.14,0,0,1,0-.07l.11,0h.19a.06.06,0,0,1,0,0H17a.13.13,0,0,0-.1,0s0,0,0,.06,0,.1.12.1h.2s0,0,0-.06v0l-.05,0Z"/><path class="cls-13" d="M16.9,9.07s-.07,0-.08.06h0l0-.19h0s0,0,0,0H17l0-.14h0l-.05,0s0,0,0,0h0l0-.15h0c0,.05,0,.06.07.09l.26.15,0,.08Zm.27-.13L17,8.85,17,9Z"/><path d="M16.82,9.13h0l0-.2V9l0,.16h0c0-.05,0-.05.07-.06L17.24,9l0-.08L17,8.79s-.05,0-.06,0l.06,0,.27.16V9l-.34.05s-.07,0-.08.06ZM16.9,9H17l0-.14h0l-.05,0s0,0,0,0v0s0,0,0,0l.05,0,0,0L17,9Z"/></g></g></g></g></g></svg>