<svg xmlns="http://www.w3.org/2000/svg" xmlns:xlink="http://www.w3.org/1999/xlink" viewBox="0 0 29.46 17.19"><defs><style>.cls-1{fill:none;}.cls-2{clip-path:url(#clip-path);}.cls-3{fill:#e8333c;}.cls-4{fill:#3d9546;}.cls-5{fill:#fff;}.cls-6{fill:#dc1f34;}.cls-7{fill:#db001e;}</style><clipPath id="clip-path"><rect class="cls-1" width="29.46" height="17.19"/></clipPath></defs><g id="Layer_2" data-name="Layer 2"><g id="cá»"><g id="west_asia" data-name="west asia"><g class="cls-2"><rect class="cls-3" width="29.46" height="17.19"/><rect class="cls-4" x="8.59" y="11.46" width="20.87" height="5.73"/><rect class="cls-5" x="8.59" width="20.87" height="5.73"/><g class="cls-2"><path class="cls-5" d="M5.7,3h.92a.09.09,0,0,1,.09.09v.44a.09.09,0,0,1-.09.08H5.7a.09.09,0,0,1-.09-.08V3.05A.09.09,0,0,1,5.7,3Z"/><path class="cls-6" d="M6.62,3.58H5.7a.09.09,0,0,1-.1-.09V3.05A.09.09,0,0,1,5.7,3h.92a.09.09,0,0,1,.1.09v.44a.09.09,0,0,1-.1.09ZM5.7,3a.09.09,0,0,0-.09.08v.44a.09.09,0,0,0,.09.08h.92a.09.09,0,0,0,.09-.08V3.05A.09.09,0,0,0,6.62,3Z"/><path class="cls-5" d="M5.72,3H6.6a.09.09,0,0,1,.09.08v.4a.09.09,0,0,1-.09.08H5.72a.08.08,0,0,1-.08-.08v-.4A.08.08,0,0,1,5.72,3Z"/><path class="cls-6" d="M6.6,3.55H5.72a.08.08,0,0,1-.09-.08v-.4A.09.09,0,0,1,5.72,3H6.6a.09.09,0,0,1,.09.09v.4a.08.08,0,0,1-.09.08ZM5.72,3a.08.08,0,0,0-.08.07v.4a.08.08,0,0,0,.08.07H6.6a.08.08,0,0,0,.08-.07v-.4A.08.08,0,0,0,6.6,3Z"/><polygon class="cls-5" points="6.12 3.14 6.18 3.15 6.18 3.17 6.22 3.19 6.26 3.16 6.3 3.19 6.26 3.21 6.27 3.24 6.32 3.24 6.32 3.29 6.28 3.28 6.26 3.31 6.3 3.34 6.27 3.37 6.23 3.34 6.18 3.35 6.18 3.39 6.12 3.4 6.12 3.36 6.07 3.34 6.04 3.36 6 3.34 6.03 3.31 6 3.29 5.96 3.29 5.95 3.23 5.99 3.24 6.02 3.21 5.99 3.18 6.03 3.15 6.06 3.17 6.12 3.17 6.12 3.14"/><polygon class="cls-6" points="6.12 3.4 6.11 3.36 6.07 3.34 6.05 3.37 6 3.35 6.02 3.31 5.96 3.3 5.95 3.23 5.99 3.23 6.02 3.2 5.98 3.19 6.03 3.14 6.07 3.17 6.1 3.16 6.06 3.18 6.03 3.15 5.99 3.19 6.03 3.2 6 3.24 5.95 3.24 5.96 3.29 6 3.29 6.03 3.31 6.01 3.35 6.04 3.36 6.06 3.33 6.12 3.35 6.13 3.39 6.18 3.38 6.17 3.35 6.23 3.33 6.27 3.36 6.3 3.34 6.25 3.31 6.27 3.28 6.32 3.28 6.31 3.24 6.26 3.25 6.25 3.21 6.29 3.18 6.25 3.17 6.23 3.2 6.13 3.15 6.18 3.14 6.23 3.18 6.25 3.16 6.3 3.18 6.26 3.21 6.32 3.23 6.32 3.29 6.28 3.29 6.31 3.34 6.27 3.37 6.23 3.35 6.18 3.36 6.19 3.39 6.12 3.4 6.12 3.4"/><path class="cls-5" d="M6.14,3.21a.06.06,0,0,1,.06,0,.06.06,0,0,1-.12,0,.06.06,0,0,1,.06,0Z"/><path class="cls-6" d="M6.14,3.32a.07.07,0,0,1-.07-.06c0-.06.14-.06.14,0a.07.07,0,0,1-.07.06Zm0-.1a0,0,0,0,0,0,0c0,.05.1.05.1,0a0,0,0,0,0-.05,0Z"/><path class="cls-5" d="M5.78,3l-.09.07Z"/><path class="cls-1" d="M5.78,3l-.09.07Z"/><path class="cls-5" d="M5.83,3l-.08.07Z"/><path class="cls-1" d="M5.83,3l-.08.07Z"/><path class="cls-5" d="M5.89,3l-.08.07Z"/><path class="cls-1" d="M5.89,3l-.08.07Z"/><path class="cls-5" d="M6,3l-.09.07Z"/><path class="cls-1" d="M6,3l-.09.07Z"/><path class="cls-5" d="M6,3l-.08.07Z"/><path class="cls-1" d="M6,3l-.08.07Z"/><path class="cls-5" d="M6.06,3,6,3.09Z"/><path class="cls-1" d="M6.06,3,6,3.09Z"/><path class="cls-5" d="M6.12,3,6,3.09Z"/><path class="cls-1" d="M6.12,3,6,3.09Z"/><path class="cls-5" d="M6.17,3l-.08.07Z"/><path class="cls-1" d="M6.17,3l-.08.07Z"/><path class="cls-5" d="M6.23,3l-.08.07Z"/><path class="cls-1" d="M6.23,3l-.08.07Z"/><path class="cls-5" d="M6.29,3l-.09.07Z"/><path class="cls-1" d="M6.29,3l-.09.07Z"/><path class="cls-5" d="M6.35,3l-.09.07Z"/><path class="cls-1" d="M6.35,3l-.09.07Z"/><path class="cls-5" d="M6.4,3l-.08.07Z"/><path class="cls-1" d="M6.4,3l-.08.07Z"/><path class="cls-5" d="M6.17,3l-.08.07Z"/><path class="cls-1" d="M6.17,3l-.08.07Z"/><path class="cls-5" d="M6.46,3l-.09.07Z"/><path class="cls-1" d="M6.46,3l-.09.07Z"/><path class="cls-5" d="M6.52,3l-.09.07Z"/><path class="cls-1" d="M6.52,3l-.09.07Z"/><path class="cls-5" d="M6.57,3l-.08.07Z"/><path class="cls-1" d="M6.57,3l-.08.07Z"/><path class="cls-5" d="M6.63,3l-.09.07Z"/><path class="cls-1" d="M6.63,3l-.09.07Z"/><path class="cls-5" d="M6.54,3l.09.07Z"/><path class="cls-1" d="M6.54,3l.09.07Z"/><path class="cls-5" d="M6.49,3l.08.07Z"/><path class="cls-1" d="M6.49,3l.08.07Z"/><path class="cls-5" d="M6.43,3l.09.07Z"/><path class="cls-1" d="M6.43,3l.09.07Z"/><path class="cls-5" d="M6.37,3l.09.07Z"/><path class="cls-1" d="M6.37,3l.09.07Z"/><path class="cls-5" d="M6.32,3l.08.07Z"/><path class="cls-1" d="M6.32,3l.08.07Z"/><path class="cls-5" d="M6.26,3l.09.07Z"/><path class="cls-1" d="M6.26,3l.09.07Z"/><path class="cls-5" d="M6.2,3l.09.07Z"/><path class="cls-1" d="M6.2,3l.09.07Z"/><path class="cls-5" d="M6.15,3l.08.07Z"/><path class="cls-1" d="M6.15,3l.08.07Z"/><path class="cls-5" d="M6.09,3l.08.07Z"/><path class="cls-1" d="M6.09,3l.08.07Z"/><path class="cls-5" d="M6,3l.09.07Z"/><path class="cls-1" d="M6,3l.09.07Z"/><path class="cls-5" d="M6,3l.08.07Z"/><path class="cls-1" d="M6,3l.08.07Z"/><path class="cls-5" d="M5.92,3,6,3.09Z"/><path class="cls-1" d="M5.92,3,6,3.09Z"/><path class="cls-5" d="M6.15,3l.08.07Z"/><path class="cls-1" d="M6.15,3l.08.07Z"/><path class="cls-5" d="M5.86,3,6,3.09Z"/><path class="cls-1" d="M5.86,3,6,3.09Z"/><path class="cls-5" d="M5.81,3l.08.07Z"/><path class="cls-1" d="M5.81,3l.08.07Z"/><path class="cls-5" d="M5.75,3l.08.07Z"/><path class="cls-1" d="M5.75,3l.08.07Z"/><path class="cls-5" d="M5.69,3l.09.07Z"/><path class="cls-1" d="M5.69,3l.09.07Z"/><path class="cls-5" d="M5.78,3.45l-.09.07Z"/><path class="cls-1" d="M5.78,3.45l-.09.07Z"/><path class="cls-5" d="M5.83,3.45l-.08.07Z"/><path class="cls-1" d="M5.83,3.45l-.08.07Z"/><path class="cls-5" d="M5.89,3.45l-.08.07Z"/><path class="cls-1" d="M5.89,3.45l-.08.07Z"/><path class="cls-5" d="M6,3.45l-.09.07Z"/><path class="cls-1" d="M6,3.45l-.09.07Z"/><path class="cls-5" d="M6,3.45l-.08.07Z"/><path class="cls-1" d="M6,3.45l-.08.07Z"/><path class="cls-5" d="M6.06,3.45,6,3.52Z"/><path class="cls-1" d="M6.06,3.45,6,3.52Z"/><path class="cls-5" d="M6.12,3.45,6,3.52Z"/><path class="cls-1" d="M6.12,3.45,6,3.52Z"/><path class="cls-5" d="M6.17,3.45l-.08.07Z"/><path class="cls-1" d="M6.17,3.45l-.08.07Z"/><path class="cls-5" d="M6.23,3.45l-.08.07Z"/><path class="cls-1" d="M6.23,3.45l-.08.07Z"/><path class="cls-5" d="M6.29,3.45l-.09.07Z"/><path class="cls-1" d="M6.29,3.45l-.09.07Z"/><path class="cls-5" d="M6.35,3.45l-.09.07Z"/><path class="cls-1" d="M6.35,3.45l-.09.07Z"/><path class="cls-5" d="M6.4,3.45l-.08.07Z"/><path class="cls-1" d="M6.4,3.45l-.08.07Z"/><path class="cls-5" d="M6.17,3.45l-.08.07Z"/><path class="cls-1" d="M6.17,3.45l-.08.07Z"/><path class="cls-5" d="M6.46,3.45l-.09.07Z"/><path class="cls-1" d="M6.46,3.45l-.09.07Z"/><path class="cls-5" d="M6.52,3.45l-.09.07Z"/><path class="cls-1" d="M6.52,3.45l-.09.07Z"/><path class="cls-5" d="M6.57,3.45l-.08.07Z"/><path class="cls-1" d="M6.57,3.45l-.08.07Z"/><path class="cls-5" d="M6.63,3.45l-.09.07Z"/><path class="cls-1" d="M6.63,3.45l-.09.07Z"/><path class="cls-5" d="M6.54,3.45l.09.07Z"/><path class="cls-1" d="M6.54,3.45l.09.07Z"/><path class="cls-5" d="M6.49,3.45l.08.07Z"/><path class="cls-1" d="M6.49,3.45l.08.07Z"/><path class="cls-5" d="M6.43,3.45l.09.07Z"/><path class="cls-1" d="M6.43,3.45l.09.07Z"/><path class="cls-5" d="M6.37,3.45l.09.07Z"/><path class="cls-1" d="M6.37,3.45l.09.07Z"/><path class="cls-5" d="M6.32,3.45l.08.07Z"/><path class="cls-1" d="M6.32,3.45l.08.07Z"/><path class="cls-5" d="M6.26,3.45l.09.07Z"/><path class="cls-1" d="M6.26,3.45l.09.07Z"/><path class="cls-5" d="M6.2,3.45l.09.07Z"/><path class="cls-1" d="M6.2,3.45l.09.07Z"/><path class="cls-5" d="M6.15,3.45l.08.07Z"/><path class="cls-1" d="M6.15,3.45l.08.07Z"/><path class="cls-5" d="M6.09,3.45l.08.07Z"/><path class="cls-1" d="M6.09,3.45l.08.07Z"/><path class="cls-5" d="M6,3.45l.09.07Z"/><path class="cls-1" d="M6,3.45l.09.07Z"/><path class="cls-5" d="M6,3.45l.08.07Z"/><path class="cls-1" d="M6,3.45l.08.07Z"/><path class="cls-5" d="M5.92,3.45,6,3.52Z"/><path class="cls-1" d="M5.92,3.45,6,3.52Z"/><path class="cls-5" d="M6.15,3.45l.08.07Z"/><path class="cls-1" d="M6.15,3.45l.08.07Z"/><path class="cls-5" d="M5.86,3.45,6,3.52Z"/><path class="cls-1" d="M5.86,3.45,6,3.52Z"/><path class="cls-5" d="M5.81,3.45l.08.07Z"/><path class="cls-1" d="M5.81,3.45l.08.07Z"/><path class="cls-5" d="M5.75,3.45l.08.07Z"/><path class="cls-1" d="M5.75,3.45l.08.07Z"/><path class="cls-5" d="M5.69,3.45l.09.07Z"/><path class="cls-1" d="M5.69,3.45l.09.07Z"/><path class="cls-5" d="M2,2.94H2.9A.09.09,0,0,1,3,3v.43a.09.09,0,0,1-.09.09H2a.09.09,0,0,1-.09-.09V3A.09.09,0,0,1,2,2.94Z"/><path class="cls-6" d="M2.9,3.55H2a.09.09,0,0,1-.1-.09V3a.09.09,0,0,1,.1-.1H2.9A.09.09,0,0,1,3,3v.43a.09.09,0,0,1-.1.09ZM2,3A.08.08,0,0,0,1.89,3v.43A.09.09,0,0,0,2,3.54H2.9A.09.09,0,0,0,3,3.46V3A.08.08,0,0,0,2.9,3Z"/><path class="cls-5" d="M2,3h.88A.09.09,0,0,1,3,3v.4a.08.08,0,0,1-.09.08H2a.08.08,0,0,1-.09-.08V3A.09.09,0,0,1,2,3Z"/><path class="cls-6" d="M2.88,3.53H2a.09.09,0,0,1-.09-.09V3A.09.09,0,0,1,2,3h.88A.09.09,0,0,1,3,3v.4a.09.09,0,0,1-.09.09ZM2,3A.08.08,0,0,0,1.92,3v.4A.09.09,0,0,0,2,3.52h.88A.09.09,0,0,0,3,3.44V3A.08.08,0,0,0,2.88,3Z"/><polygon class="cls-5" points="2.4 3.12 2.46 3.12 2.46 3.14 2.5 3.17 2.54 3.14 2.58 3.16 2.54 3.18 2.55 3.22 2.6 3.22 2.6 3.26 2.56 3.26 2.54 3.29 2.58 3.32 2.55 3.34 2.51 3.31 2.46 3.33 2.46 3.37 2.4 3.37 2.4 3.33 2.35 3.31 2.32 3.34 2.28 3.32 2.3 3.29 2.27 3.27 2.23 3.27 2.23 3.21 2.27 3.21 2.3 3.18 2.27 3.15 2.31 3.13 2.34 3.15 2.4 3.14 2.4 3.12"/><polygon class="cls-6" points="2.4 3.38 2.39 3.33 2.35 3.32 2.33 3.35 2.28 3.33 2.3 3.28 2.27 3.27 2.23 3.27 2.23 3.21 2.27 3.21 2.3 3.18 2.26 3.16 2.31 3.12 2.35 3.14 2.38 3.14 2.34 3.15 2.31 3.13 2.27 3.16 2.31 3.17 2.28 3.22 2.23 3.22 2.24 3.27 2.27 3.26 2.31 3.28 2.29 3.32 2.33 3.33 2.34 3.31 2.4 3.33 2.41 3.36 2.46 3.36 2.45 3.33 2.51 3.31 2.55 3.34 2.58 3.31 2.53 3.29 2.55 3.25 2.6 3.25 2.59 3.22 2.54 3.23 2.53 3.19 2.57 3.15 2.53 3.14 2.51 3.17 2.41 3.13 2.46 3.11 2.5 3.16 2.53 3.13 2.58 3.15 2.54 3.19 2.6 3.21 2.6 3.26 2.56 3.27 2.59 3.31 2.55 3.35 2.51 3.32 2.46 3.33 2.47 3.37 2.4 3.38 2.4 3.38"/><path class="cls-5" d="M2.42,3.19a.05.05,0,1,1-.06.05.06.06,0,0,1,.06-.05Z"/><path class="cls-6" d="M2.42,3.29s-.07,0-.07,0,.14-.07.14,0,0,0-.07,0Zm0-.09s0,0,0,0,.1,0,.1,0,0,0-.05,0Z"/><path class="cls-5" d="M2.06,3,2,3.07Z"/><path class="cls-1" d="M2.06,3,2,3.07Z"/><path class="cls-5" d="M2.11,3,2,3.07Z"/><path class="cls-1" d="M2.11,3,2,3.07Z"/><path class="cls-5" d="M2.17,3l-.09.08Z"/><path class="cls-1" d="M2.17,3l-.09.08Z"/><path class="cls-5" d="M2.23,3l-.09.08Z"/><path class="cls-1" d="M2.23,3l-.09.08Z"/><path class="cls-5" d="M2.28,3l-.08.08Z"/><path class="cls-1" d="M2.28,3l-.08.08Z"/><path class="cls-5" d="M2.34,3l-.08.08Z"/><path class="cls-1" d="M2.34,3l-.08.08Z"/><path class="cls-5" d="M2.4,3l-.09.08Z"/><path class="cls-1" d="M2.4,3l-.09.08Z"/><path class="cls-5" d="M2.45,3l-.08.08Z"/><path class="cls-1" d="M2.45,3l-.08.08Z"/><path class="cls-5" d="M2.51,3l-.08.08Z"/><path class="cls-1" d="M2.51,3l-.08.08Z"/><path class="cls-5" d="M2.57,3l-.09.08Z"/><path class="cls-1" d="M2.57,3l-.09.08Z"/><path class="cls-5" d="M2.62,3l-.08.08Z"/><path class="cls-1" d="M2.62,3l-.08.08Z"/><path class="cls-5" d="M2.68,3l-.08.08Z"/><path class="cls-1" d="M2.68,3l-.08.08Z"/><path class="cls-5" d="M2.45,3l-.08.08Z"/><path class="cls-1" d="M2.45,3l-.08.08Z"/><path class="cls-5" d="M2.74,3l-.09.08Z"/><path class="cls-1" d="M2.74,3l-.09.08Z"/><path class="cls-5" d="M2.8,3l-.09.08Z"/><path class="cls-1" d="M2.8,3l-.09.08Z"/><path class="cls-5" d="M2.85,3l-.08.08Z"/><path class="cls-1" d="M2.85,3l-.08.08Z"/><path class="cls-5" d="M2.91,3l-.09.08Z"/><path class="cls-1" d="M2.91,3l-.09.08Z"/><path class="cls-5" d="M2.82,3l.09.08Z"/><path class="cls-1" d="M2.82,3l.09.08Z"/><path class="cls-5" d="M2.77,3l.08.08Z"/><path class="cls-1" d="M2.77,3l.08.08Z"/><path class="cls-5" d="M2.71,3l.09.08Z"/><path class="cls-1" d="M2.71,3l.09.08Z"/><path class="cls-5" d="M2.65,3l.09.08Z"/><path class="cls-1" d="M2.65,3l.09.08Z"/><path class="cls-5" d="M2.6,3l.08.08Z"/><path class="cls-1" d="M2.6,3l.08.08Z"/><path class="cls-5" d="M2.54,3l.08.08Z"/><path class="cls-1" d="M2.54,3l.08.08Z"/><path class="cls-5" d="M2.48,3l.09.08Z"/><path class="cls-1" d="M2.48,3l.09.08Z"/><path class="cls-5" d="M2.43,3l.08.08Z"/><path class="cls-1" d="M2.43,3l.08.08Z"/><path class="cls-5" d="M2.37,3l.08.08Z"/><path class="cls-1" d="M2.37,3l.08.08Z"/><path class="cls-5" d="M2.31,3l.09.08Z"/><path class="cls-1" d="M2.31,3l.09.08Z"/><path class="cls-5" d="M2.26,3l.08.08Z"/><path class="cls-1" d="M2.26,3l.08.08Z"/><path class="cls-5" d="M2.2,3l.08.08Z"/><path class="cls-1" d="M2.2,3l.08.08Z"/><path class="cls-5" d="M2.43,3l.08.08Z"/><path class="cls-1" d="M2.43,3l.08.08Z"/><path class="cls-5" d="M2.14,3l.09.08Z"/><path class="cls-1" d="M2.14,3l.09.08Z"/><path class="cls-5" d="M2.08,3l.09.08Z"/><path class="cls-1" d="M2.08,3l.09.08Z"/><path class="cls-5" d="M2,3l.08.08Z"/><path class="cls-1" d="M2,3l.08.08Z"/><path class="cls-5" d="M2,3l.09.08Z"/><path class="cls-1" d="M2,3l.09.08Z"/><path class="cls-5" d="M2.06,3.42,2,3.5Z"/><path class="cls-1" d="M2.06,3.42,2,3.5Z"/><path class="cls-5" d="M2.11,3.42,2,3.5Z"/><path class="cls-1" d="M2.11,3.42,2,3.5Z"/><path class="cls-5" d="M2.17,3.42l-.09.08Z"/><path class="cls-1" d="M2.17,3.42l-.09.08Z"/><path class="cls-5" d="M2.23,3.42l-.09.08Z"/><path class="cls-1" d="M2.23,3.42l-.09.08Z"/><path class="cls-5" d="M2.28,3.42,2.2,3.5Z"/><path class="cls-1" d="M2.28,3.42,2.2,3.5Z"/><path class="cls-5" d="M2.34,3.42l-.08.08Z"/><path class="cls-1" d="M2.34,3.42l-.08.08Z"/><path class="cls-5" d="M2.4,3.42l-.09.08Z"/><path class="cls-1" d="M2.4,3.42l-.09.08Z"/><path class="cls-5" d="M2.45,3.42l-.08.08Z"/><path class="cls-1" d="M2.45,3.42l-.08.08Z"/><path class="cls-5" d="M2.51,3.42l-.08.08Z"/><path class="cls-1" d="M2.51,3.42l-.08.08Z"/><path class="cls-5" d="M2.57,3.42l-.09.08Z"/><path class="cls-1" d="M2.57,3.42l-.09.08Z"/><path class="cls-5" d="M2.62,3.42l-.08.08Z"/><path class="cls-1" d="M2.62,3.42l-.08.08Z"/><path class="cls-5" d="M2.68,3.42,2.6,3.5Z"/><path class="cls-1" d="M2.68,3.42,2.6,3.5Z"/><path class="cls-5" d="M2.45,3.42l-.08.08Z"/><path class="cls-1" d="M2.45,3.42l-.08.08Z"/><path class="cls-5" d="M2.74,3.42l-.09.08Z"/><path class="cls-1" d="M2.74,3.42l-.09.08Z"/><path class="cls-5" d="M2.8,3.42l-.09.08Z"/><path class="cls-1" d="M2.8,3.42l-.09.08Z"/><path class="cls-5" d="M2.85,3.42l-.08.08Z"/><path class="cls-1" d="M2.85,3.42l-.08.08Z"/><path class="cls-5" d="M2.91,3.42l-.09.08Z"/><path class="cls-1" d="M2.91,3.42l-.09.08Z"/><path class="cls-5" d="M2.82,3.42l.09.08Z"/><path class="cls-1" d="M2.82,3.42l.09.08Z"/><path class="cls-5" d="M2.77,3.42l.08.08Z"/><path class="cls-1" d="M2.77,3.42l.08.08Z"/><path class="cls-5" d="M2.71,3.42l.09.08Z"/><path class="cls-1" d="M2.71,3.42l.09.08Z"/><path class="cls-5" d="M2.65,3.42l.09.08Z"/><path class="cls-1" d="M2.65,3.42l.09.08Z"/><path class="cls-5" d="M2.6,3.42l.08.08Z"/><path class="cls-1" d="M2.6,3.42l.08.08Z"/><path class="cls-5" d="M2.54,3.42l.08.08Z"/><path class="cls-1" d="M2.54,3.42l.08.08Z"/><path class="cls-5" d="M2.48,3.42l.09.08Z"/><path class="cls-1" d="M2.48,3.42l.09.08Z"/><path class="cls-5" d="M2.43,3.42l.08.08Z"/><path class="cls-1" d="M2.43,3.42l.08.08Z"/><path class="cls-5" d="M2.37,3.42l.08.08Z"/><path class="cls-1" d="M2.37,3.42l.08.08Z"/><path class="cls-5" d="M2.31,3.42l.09.08Z"/><path class="cls-1" d="M2.31,3.42l.09.08Z"/><path class="cls-5" d="M2.26,3.42l.08.08Z"/><path class="cls-1" d="M2.26,3.42l.08.08Z"/><path class="cls-5" d="M2.2,3.42l.08.08Z"/><path class="cls-1" d="M2.2,3.42l.08.08Z"/><path class="cls-5" d="M2.43,3.42l.08.08Z"/><path class="cls-1" d="M2.43,3.42l.08.08Z"/><path class="cls-5" d="M2.14,3.42l.09.08Z"/><path class="cls-1" d="M2.14,3.42l.09.08Z"/><path class="cls-5" d="M2.08,3.42l.09.08Z"/><path class="cls-1" d="M2.08,3.42l.09.08Z"/><path class="cls-5" d="M2,3.42l.08.08Z"/><path class="cls-1" d="M2,3.42l.08.08Z"/><path class="cls-5" d="M2,3.42l.09.08Z"/><path class="cls-1" d="M2,3.42l.09.08Z"/><path class="cls-5" d="M3.62,4.21c-1.37,1.35-2,1.52-1.69,1.63S3.1,5.25,4,4.33,5.51,2.58,5.23,2.48s-.14.3-1.61,1.73Z"/><path class="cls-6" d="M2,5.86H1.93s-.07,0-.07-.06.1-.15.34-.34A15.7,15.7,0,0,0,3.62,4.21,9,9,0,0,0,4.91,2.7c.15-.22.19-.28.33-.23a.11.11,0,0,1,.07.08c.05.25-.47,1-1.28,1.78A5.19,5.19,0,0,1,2,5.86ZM5.16,2.47c-.07,0-.12.07-.24.24A9.41,9.41,0,0,1,3.63,4.22,15.7,15.7,0,0,1,2.21,5.46c-.22.17-.34.27-.34.32a.1.1,0,0,0,.07,0H2A5.23,5.23,0,0,0,4,4.32c.81-.81,1.32-1.52,1.27-1.76,0,0,0-.06-.06-.08Z"/><path class="cls-5" d="M2.46,5.19,3,5.32c-.46.43-1,.61-1.11.53s.25-.25.62-.66Z"/><path class="cls-6" d="M1.93,5.88l-.09,0s0,0,0,0,.08-.12.21-.23a3.61,3.61,0,0,0,.45-.4L3,5.31a1.86,1.86,0,0,1-1,.57Zm.53-.68A3.9,3.9,0,0,1,2,5.61c-.12.09-.21.16-.2.21l0,0c.14.07.66-.12,1.1-.53L2.46,5.2Z"/><path class="cls-5" d="M2.46,5.24l.4.11a1.39,1.39,0,0,1-1,.48c-.12,0,.23-.2.59-.59Z"/><path class="cls-6" d="M1.94,5.84H1.86l0,0s0-.07.16-.16a3.49,3.49,0,0,0,.46-.4l.4.1a1.59,1.59,0,0,1-.92.5Zm.52-.59A3.8,3.8,0,0,1,2,5.66c-.09.07-.16.12-.16.14a.12.12,0,0,0,.09,0,1.68,1.68,0,0,0,.92-.49l-.4-.09Z"/><path class="cls-6" d="M3.76,4.33a.32.32,0,0,0,0-.07h0v0s0,0,.06,0l0,0,0,0a.15.15,0,0,0,0-.06s0,0,0,0H4v0s0,0,0,0l0,0s0,0,0,0l0,0h0l0,0,0,0Z"/><path class="cls-6" d="M3.6,4.46h0l0-.05,0,0,0,0h.09l0,0v0h0l-.06,0H3.66l-.09.08h0Z"/><path class="cls-6" d="M3.42,4.73l0,0,0,0,0,0,0,0,.09,0,0,0v0l0,0h0l-.08,0h0l0,.07h0l0,0Z"/><path class="cls-6" d="M3.23,4.9a0,0,0,0,1,0,0v0a.06.06,0,0,1,0,0l0,0,.08,0h.1v0l0,0H3.27l0,0,0,0h0a.08.08,0,0,0,0,0v0h0l0,0Z"/><polygon class="cls-6" points="3.07 5.07 3.04 5.06 3.12 5.04 3.15 5 3.15 4.97 3.15 4.94 3.15 4.94 3.15 4.94 3.15 4.94 3.13 4.92 3.15 4.94 3.13 4.93 3.11 4.89 3.17 4.97 3.18 4.97 3.19 4.98 3.24 4.96 3.23 4.98 3.19 4.99 3.16 4.97 3.16 5.01 3.07 5.07 3.07 5.07"/><path class="cls-6" d="M2.8,5.25h0V5.12l.06.07,0,0H3l0,0a.32.32,0,0,0,0-.07l0-.06H3l0,.05s0,0,0,0l0,0,0,0H2.84l-.06,0,0,0h0a.08.08,0,0,1,0,0v0Z"/><path class="cls-6" d="M2.07,5.73H2s0,0,0,0l.05,0s0,0,0,0,0,0,0,0a.11.11,0,0,1,0-.05h0l.07,0,0,0h0s0,0,0,0l0,0a.07.07,0,0,0,0,0H2.15a.05.05,0,0,0,0,0,0,0,0,0,0,0,0,0,0,0,0,1,0,0l0,0Zm.44-.18a.14.14,0,0,1,0-.06s0,0,0,0l0,0h0l0,0-.06,0a.06.06,0,0,1-.05,0l0,.08,0-.08h0s0,0,0,0h0s0,0,0,0h0l0,0a0,0,0,0,1,0,0,.05.05,0,0,1,0,0,.11.11,0,0,0,0,.06h0v0h0a.09.09,0,0,1,0,0h.05l.06,0a0,0,0,0,0,0,0h0l0,0s-.05,0-.06,0v0h0a0,0,0,0,0,0,0l.05,0a.06.06,0,0,1,0,0s0,0,.05,0v0H2.58s0,0,0,0v0Z"/><path class="cls-5" d="M5.2,3a5.55,5.55,0,0,0,.9-2A6,6,0,0,0,4.79,2.81Z"/><path class="cls-6" d="M5.2,3l-.41-.19A6.51,6.51,0,0,1,6.09,1l0,0A6.74,6.74,0,0,1,5.2,3Zm.91-2A5.79,5.79,0,0,0,4.8,2.82L5.19,3a7.11,7.11,0,0,0,.92-2Z"/><path class="cls-5" d="M5.16,3a6.26,6.26,0,0,0,.9-1.92A6.73,6.73,0,0,0,4.83,2.83Z"/><path class="cls-6" d="M5.16,3h0a8.34,8.34,0,0,0,.92-1.9A6.24,6.24,0,0,0,4.84,2.83,6.36,6.36,0,0,1,6.07,1.05,6.75,6.75,0,0,1,5.16,3Z"/><path class="cls-5" d="M5.05,2.45l-.22.38L5.16,3l.22-.38Z"/><path class="cls-6" d="M5.16,3l-.33-.15L4.9,2.7l.15-.26.33.15a2.49,2.49,0,0,1-.15.28L5.16,3Zm-.11-.53-.13.24-.08.13L5.15,3l.06-.1.16-.28-.32-.13Z"/><path class="cls-5" d="M5.08,2.49l-.19.34.24.11c.07-.13.13-.22.19-.34Z"/><path class="cls-6" d="M5.13,3l-.25-.12L5,2.69l.13-.2.25.1a2.18,2.18,0,0,1-.12.22L5.13,3Zm0-.45L5,2.7l-.08.13.24.1L5.2,2.8l.12-.2-.24-.1Z"/><polygon class="cls-5" points="5.26 2.63 5.1 2.55 4.95 2.8 5.11 2.87 5.26 2.63"/><path class="cls-6" d="M5.12,2.88,5,2.81l.14-.26.17.07-.14.26Zm0-.32L5,2.8l.15.07.14-.25-.16-.06Z"/><path class="cls-5" d="M5.26,2.63,5,2.8Z"/><polygon class="cls-6" points="4.96 2.81 5.25 2.62 5.26 2.63 4.96 2.81 4.96 2.81"/><path class="cls-5" d="M5.11,2.87v0Z"/><polygon class="cls-6" points="5.11 2.88 5.09 2.55 5.12 2.87 5.11 2.88 5.11 2.88"/><path class="cls-5" d="M6,1.37l-.16-.08Z"/><polygon class="cls-6" points="5.98 1.37 5.82 1.3 5.99 1.36 5.98 1.37 5.98 1.37"/><path class="cls-7" d="M6,1.17a.05.05,0,0,0,0,.05,0,0,0,0,0,.06,0s0,0,0-.05a0,0,0,0,0,0,0Z"/><path class="cls-1" d="M6,1.17a.05.05,0,0,0,0,.05,0,0,0,0,0,.06,0s0,0,0-.05A0,0,0,0,0,6,1.17Z"/><path class="cls-5" d="M5,4.19c1.38,1.35,2,1.52,1.69,1.63S5.48,5.23,4.56,4.3,3.07,2.56,3.35,2.45,3.49,2.76,5,4.19Z"/><path class="cls-6" d="M6.58,5.83a5.23,5.23,0,0,1-2-1.52c-.82-.82-1.34-1.53-1.29-1.78a.14.14,0,0,1,.08-.09c.13,0,.17,0,.32.23A8.58,8.58,0,0,0,5,4.18,14.2,14.2,0,0,0,6.38,5.42c.24.19.35.28.34.34s0,0-.07.06ZM3.42,2.44l-.07,0a.09.09,0,0,0-.06.07c0,.24.46,1,1.28,1.77,1,1,1.83,1.61,2.08,1.51,0,0,0,0,.06,0s-.12-.15-.34-.33A14.2,14.2,0,0,1,5,4.19,8.58,8.58,0,0,1,3.66,2.68c-.12-.17-.17-.24-.24-.24Z"/><path class="cls-5" d="M6.12,5.17l-.48.12a1.48,1.48,0,0,0,1.1.54c.15-.08-.25-.26-.62-.66Z"/><path class="cls-6" d="M6.66,5.85a1.85,1.85,0,0,1-1-.55l.49-.14a3.8,3.8,0,0,0,.45.41c.13.1.21.17.21.22s0,0,0,0l-.09,0Zm-.55-.68-.47.13a1.87,1.87,0,0,0,1,.54h0l.08,0,0,0s-.09-.11-.21-.21a3.8,3.8,0,0,1-.45-.41Z"/><path class="cls-5" d="M6.12,5.22l-.4.1a1.39,1.39,0,0,0,1,.48c.12,0-.23-.19-.59-.58Z"/><path class="cls-6" d="M6.65,5.82a1.61,1.61,0,0,1-.93-.49l.4-.12a3,3,0,0,0,.46.41c.11.08.17.13.16.16h0l0,0Zm-.54-.6-.39.11c.46.4.88.51,1,.46s0-.09-.14-.16a3.58,3.58,0,0,1-.46-.41Z"/><path class="cls-6" d="M4.82,4.3l0,0,0,0h0l0,0s0,0,0,0l0,0v0l0,0,0,0h.06s0,0,0,0v0h0v0Z"/><path class="cls-6" d="M5,4.41l-.1-.09H4.83l0,0h0l.07,0h.1l0,0H5L5,4.41Z"/><path class="cls-6" d="M5.17,4.7h0l0-.09h0l-.06,0,0,0,0,0H5l0,0,0,.06.11.07s0,0,0,0l0,0,0,0Z"/><path class="cls-6" d="M5.36,4.89s0,0,0,0v0s0,0,0,0l0,0h0l0,0,0,0h-.1l.05,0h0l0,0,0,0,0,0v.09l0,0Z"/><polygon class="cls-6" points="5.54 5.04 5.49 5.04 5.44 5 5.42 4.94 5.4 4.96 5.39 4.96 5.44 4.89 5.43 4.91 5.44 4.91 5.44 4.92 5.44 4.92 5.43 4.94 5.44 4.98 5.49 5.03 5.52 5.03 5.62 4.99 5.64 5.01 5.62 5 5.62 5.01 5.54 5.04 5.54 5.04"/><path class="cls-6" d="M5.79,5.25l0,0s0,0,0,0l0,0h0l-.09.05H5.62l0-.06s0,0,0,0V5h0l0,0v.09s.05,0,.07,0h0l.07,0,0-.06h0l0,.07v0h0v0Z"/><path class="cls-6" d="M6.51,5.71s0,0-.06,0a0,0,0,0,1,0,0s0,0,0,0l0,0h0l-.06,0,0,0H6.22l0-.09v0l0,0,0,0s0,0,0,0h0s0,0,0,0l0,0,0,0s0,0,0,0,0,0-.06,0v0s0,0,0,0H6l-.07,0v0s0,0,0,0a.06.06,0,0,1,.05,0s0,0,0,0h.05l0,0h0s0,0-.06,0l0,0H6l-.05,0s0,0,0,0,0,0,.06,0,0,0,.06,0,0,0,0,0v0h0a.43.43,0,0,0,0,0s0,0,0,0l0,0h0l0,0h0s0,0,0,0h0l0,.14v0l0,0h0l0,0h0l.06,0h.06l0,0a0,0,0,0,1,0,.06v0h.1s0,0,0,0Z"/><path class="cls-5" d="M3.39,3a5.39,5.39,0,0,1-.91-2A5.87,5.87,0,0,1,3.79,2.79Z"/><path class="cls-6" d="M3.38,3h0a6.74,6.74,0,0,1-.92-2l0,0A6.57,6.57,0,0,1,3.8,2.78L3.38,3ZM2.49,1a6,6,0,0,0,.9,2l.4-.18A7.11,7.11,0,0,0,2.49,1Z"/><path class="cls-5" d="M3.43,3A6.22,6.22,0,0,1,2.52,1,6.9,6.9,0,0,1,3.75,2.81Z"/><path class="cls-6" d="M3.42,3A7.44,7.44,0,0,1,2.5,1h0A7.31,7.31,0,0,0,3.43,3Zm.33-.16A11.37,11.37,0,0,0,2.61,1.1,10.15,10.15,0,0,1,3.75,2.8Z"/><path class="cls-5" d="M3.53,2.42l.22.39L3.43,3c-.08-.12-.16-.26-.23-.38Z"/><path class="cls-6" d="M3.42,3l-.08-.14L3.2,2.58l.32-.16a2.46,2.46,0,0,1,.17.27l.06.11L3.42,3Zm.1-.53-.31.15.14.23.08.13.32-.14-.07-.1-.16-.27Z"/><path class="cls-5" d="M3.5,2.46l.2.34-.25.11-.19-.33Z"/><path class="cls-6" d="M3.45,2.92,3.38,2.8l-.13-.22.25-.12.13.21.07.13-.25.12Zm0-.45-.23.11a2.39,2.39,0,0,1,.13.21l.07.11.23-.11-.08-.11a1.13,1.13,0,0,0-.12-.21Z"/><polygon class="cls-5" points="3.32 2.6 3.49 2.53 3.63 2.77 3.47 2.85 3.32 2.6"/><path class="cls-6" d="M3.46,2.86l-.14-.25.16-.09.16.25-.18.09Zm0-.33-.15.08.14.23.16-.07-.15-.24Z"/><path class="cls-5" d="M3.32,2.6l.31.17Z"/><polygon class="cls-6" points="3.63 2.77 3.32 2.61 3.33 2.6 3.63 2.77 3.63 2.77"/><path class="cls-5" d="M3.47,2.85l0-.32Z"/><path class="cls-1" d="M3.47,2.85l0-.32Z"/><path class="cls-5" d="M2.59,1.34l.17-.07Z"/><path class="cls-1" d="M2.59,1.34l.17-.07Z"/><path class="cls-7" d="M2.61,1.15s.05,0,0,.05a.06.06,0,0,1-.06,0,0,0,0,0,1,0-.06s0,0,0,0Z"/><path class="cls-6" d="M2.61,1.23h0s0,0,0-.06a.05.05,0,0,1,.05,0s.06,0,.06.06a.05.05,0,0,1-.05,0Z"/><path class="cls-5" d="M3.87,2.43c0,.89,0,1.22-.06,1.27S2,3.7,2,4s1.42.51,1.84.51c.57,0,.86-.25.86-.76V2.43Z"/><path class="cls-6" d="M3.87,4.47C3.46,4.47,2,4.22,2,4s.83-.21,1.38-.23a2.09,2.09,0,0,0,.41,0c.06,0,.06-.34.06-1.08V2.43h.86V3.7c0,.51-.29.77-.86.77Zm.85-2H3.87v.17c0,.76,0,1.05-.06,1.1l-.42,0C2.89,3.75,2,3.78,2,4s1.37.5,1.83.5.85-.25.85-.75V2.43Z"/><path class="cls-5" d="M3.87,2.69v.12a2.48,2.48,0,0,0,.86,0V2.69a3.1,3.1,0,0,1-.86,0Z"/><path class="cls-6" d="M4.3,2.85l-.43,0V2.69a4.11,4.11,0,0,0,.86,0v.13a2.09,2.09,0,0,1-.43,0Zm-.43-.16v.12a3.45,3.45,0,0,0,.85,0V2.69a2.43,2.43,0,0,1-.85,0Z"/><path class="cls-5" d="M3.87,2.43v.13a3.1,3.1,0,0,0,.86,0V2.43a2.48,2.48,0,0,1-.86,0Z"/><path class="cls-6" d="M4.3,2.6l-.43,0V2.43a3.53,3.53,0,0,0,.86,0v.13a2.09,2.09,0,0,1-.43,0Zm-.43-.16v.12a3,3,0,0,0,.85,0V2.43a2.42,2.42,0,0,1-.85,0Z"/><path class="cls-5" d="M3.87,2.56v.13a3.1,3.1,0,0,0,.86,0V2.56a3.1,3.1,0,0,1-.86,0Z"/><path class="cls-6" d="M4.3,2.73a3.28,3.28,0,0,1-.43,0V2.56a3.09,3.09,0,0,0,.86,0v.14a3.13,3.13,0,0,1-.43,0Zm-.43-.16v.12a4,4,0,0,0,.85,0V2.56a2.42,2.42,0,0,1-.85,0Z"/><path class="cls-5" d="M3.87,2.81v.13a3.1,3.1,0,0,0,.86,0V2.81a2.48,2.48,0,0,1-.86,0Z"/><path class="cls-6" d="M4.3,3,3.87,3V2.81a3.53,3.53,0,0,0,.86,0v.13A2.09,2.09,0,0,1,4.3,3Zm-.43-.16v.12a3.46,3.46,0,0,0,.85,0V2.81a2.42,2.42,0,0,1-.85,0Z"/><path class="cls-5" d="M3.91,2.6s0,0,0,0,0,0,0,0,0,0,0,0a0,0,0,0,1,0,0Z"/><path class="cls-1" d="M3.91,2.6s0,0,0,0,0,0,0,0,0,0,0,0A0,0,0,0,1,3.91,2.6Z"/><path class="cls-5" d="M4.07,2.62s0,0,0,0,0,0,0,0,0,0,0,0,0,0,0,0Z"/><path class="cls-1" d="M4.07,2.62s0,0,0,0,0,0,0,0,0,0,0,0S4.05,2.62,4.07,2.62Z"/><path class="cls-5" d="M4.22,2.63s0,0,0,0a0,0,0,0,1-.08,0s0,0,0,0Z"/><path class="cls-1" d="M4.22,2.63s0,0,0,0a0,0,0,0,1-.08,0S4.2,2.63,4.22,2.63Z"/><path class="cls-5" d="M4.38,2.63s0,0,0,0a0,0,0,0,1-.08,0s0,0,0,0Z"/><path class="cls-1" d="M4.38,2.63s0,0,0,0a0,0,0,0,1-.08,0S4.36,2.63,4.38,2.63Z"/><path class="cls-5" d="M4.53,2.62s0,0,0,0,0,0,0,0,0,0,0,0,0,0,0,0Z"/><path class="cls-1" d="M4.53,2.62s0,0,0,0,0,0,0,0,0,0,0,0S4.51,2.62,4.53,2.62Z"/><path class="cls-5" d="M4.69,2.6a0,0,0,0,1,0,0s0,0,0,0,0,0,0,0a0,0,0,0,1,0,0Z"/><path class="cls-1" d="M4.69,2.6a0,0,0,0,1,0,0s0,0,0,0,0,0,0,0A0,0,0,0,1,4.69,2.6Z"/><path class="cls-5" d="M3.87,3.07l.86.68Z"/><polygon class="cls-6" points="4.73 3.75 3.87 3.07 3.88 3.06 4.73 3.75 4.73 3.75"/><path class="cls-5" d="M4,3.07l.77.6Z"/><polygon class="cls-6" points="4.73 3.67 3.96 3.07 3.96 3.06 4.73 3.67 4.73 3.67"/><path class="cls-5" d="M4.07,3.09l.66.51Z"/><polygon class="cls-6" points="4.73 3.59 4.07 3.1 4.08 3.09 4.73 3.59 4.73 3.59"/><path class="cls-5" d="M4.16,3.09l.57.43Z"/><polygon class="cls-6" points="4.73 3.52 4.15 3.1 4.16 3.09 4.73 3.52 4.73 3.52"/><path class="cls-5" d="M4.24,3.09l.49.36Z"/><polygon class="cls-6" points="4.73 3.44 4.24 3.1 4.25 3.09 4.73 3.44 4.73 3.44"/><path class="cls-5" d="M4.33,3.09l.4.28Z"/><polygon class="cls-6" points="4.73 3.36 4.33 3.1 4.33 3.09 4.73 3.36 4.73 3.36"/><path class="cls-5" d="M4.41,3.09l.32.2Z"/><polygon class="cls-6" points="4.73 3.29 4.41 3.1 4.42 3.09 4.73 3.29 4.73 3.29"/><path class="cls-5" d="M4.5,3.09l.23.15Z"/><path class="cls-1" d="M4.5,3.09l.23.15Z"/><path class="cls-5" d="M4.58,3.09l.15.1Z"/><path class="cls-1" d="M4.58,3.09l.15.1Z"/><path class="cls-5" d="M4.67,3.09l.06.05Z"/><path class="cls-1" d="M4.67,3.09l.06.05Z"/><path class="cls-5" d="M3.87,3.14l.86.69Z"/><polygon class="cls-6" points="4.73 3.82 3.87 3.15 3.88 3.14 4.73 3.82 4.73 3.82"/><path class="cls-5" d="M4.73,3.07l-.94.76Z"/><polygon class="cls-6" points="3.79 3.83 4.72 3.06 4.73 3.07 3.79 3.83 3.79 3.83"/><path class="cls-5" d="M4.64,3.07l-.82.66Z"/><polygon class="cls-6" points="3.82 3.73 4.64 3.06 4.65 3.07 3.82 3.73 3.82 3.73"/><path class="cls-5" d="M4.53,3.09l-.66.51Z"/><polygon class="cls-6" points="3.88 3.6 4.52 3.09 4.53 3.1 3.88 3.6 3.88 3.6"/><path class="cls-5" d="M4.44,3.09l-.57.43Z"/><polygon class="cls-6" points="3.88 3.53 4.44 3.09 4.45 3.1 3.88 3.53 3.88 3.53"/><path class="cls-5" d="M4.36,3.09l-.49.36Z"/><polygon class="cls-6" points="3.88 3.45 4.35 3.09 4.36 3.1 3.88 3.45 3.88 3.45"/><path class="cls-5" d="M4.27,3.09l-.4.28Z"/><polygon class="cls-6" points="3.88 3.38 4.27 3.09 4.28 3.1 3.88 3.38 3.88 3.38"/><path class="cls-5" d="M4.19,3.09l-.32.2Z"/><polygon class="cls-6" points="3.88 3.3 4.18 3.09 4.19 3.1 3.88 3.3 3.88 3.3"/><path class="cls-5" d="M4.1,3.09l-.23.15Z"/><path class="cls-1" d="M4.1,3.09l-.23.15Z"/><path class="cls-5" d="M4,3.09l-.15.1Z"/><path class="cls-1" d="M4,3.09l-.15.1Z"/><path class="cls-5" d="M3.93,3.09l-.06.05Z"/><path class="cls-1" d="M3.93,3.09l-.06.05Z"/><path class="cls-5" d="M4.73,3.14l-.94.76Z"/><polygon class="cls-6" points="3.79 3.91 4.72 3.14 4.73 3.15 3.79 3.91 3.79 3.91"/><path class="cls-5" d="M4.73,3.22,3.79,4Z"/><polygon class="cls-6" points="3.79 3.98 4.72 3.21 4.73 3.22 3.79 3.98 3.79 3.98"/><path class="cls-5" d="M4.73,3.29l-.94.76Z"/><polygon class="cls-6" points="3.79 4.06 4.72 3.29 4.73 3.3 3.79 4.06 3.79 4.06"/><path class="cls-5" d="M4.73,3.37l-.94.76Z"/><polygon class="cls-6" points="3.79 4.14 4.72 3.37 4.73 3.38 3.79 4.14 3.79 4.14"/><path class="cls-5" d="M4.73,3.45l-.94.76Z"/><polygon class="cls-6" points="3.79 4.21 4.72 3.44 4.73 3.45 3.79 4.21 3.79 4.21"/><path class="cls-5" d="M4.73,3.52l-.94.76Z"/><polygon class="cls-6" points="3.79 4.29 4.72 3.52 4.73 3.53 3.79 4.29 3.79 4.29"/><path class="cls-5" d="M4.73,3.6l-.94.76Z"/><polygon class="cls-6" points="3.79 4.36 4.72 3.59 4.73 3.6 3.79 4.36 3.79 4.36"/><path class="cls-5" d="M4.73,3.67l-.94.76Z"/><polygon class="cls-6" points="3.79 4.44 4.72 3.67 4.73 3.68 3.79 4.44 3.79 4.44"/><path class="cls-5" d="M4.73,3.75l-.88.71Z"/><polygon class="cls-6" points="3.85 4.46 4.72 3.74 4.73 3.76 3.85 4.46 3.85 4.46"/><path class="cls-5" d="M4.73,3.83l-.8.63Z"/><polygon class="cls-6" points="3.94 4.46 4.72 3.82 4.73 3.83 3.94 4.46 3.94 4.46"/><path class="cls-5" d="M4.7,3.93l-.63.5Z"/><polygon class="cls-6" points="4.08 4.44 4.69 3.92 4.7 3.93 4.08 4.44 4.08 4.44"/><path class="cls-5" d="M4.67,4l-.51.4Z"/><polygon class="cls-6" points="4.16 4.44 4.67 4.02 4.67 4.04 4.16 4.44 4.16 4.44"/><path class="cls-5" d="M4.61,4.16l-.25.2Z"/><path class="cls-1" d="M4.61,4.16l-.25.2Z"/><path class="cls-5" d="M3.87,3.22l.83.66Z"/><polygon class="cls-6" points="4.7 3.87 3.87 3.22 3.88 3.21 4.7 3.87 4.7 3.87"/><path class="cls-5" d="M3.87,3.29,4.7,4Z"/><polygon class="cls-6" points="4.7 3.95 3.87 3.3 3.88 3.29 4.7 3.95 4.7 3.95"/><path class="cls-5" d="M3.87,3.37l.8.63Z"/><polygon class="cls-6" points="4.67 4 3.87 3.38 3.88 3.36 4.67 4 4.67 4"/><path class="cls-5" d="M3.87,3.45l.8.63Z"/><polygon class="cls-6" points="4.67 4.07 3.87 3.45 3.88 3.44 4.67 4.07 4.67 4.07"/><path class="cls-5" d="M3.87,3.52l.77.61Z"/><polygon class="cls-6" points="4.65 4.13 3.87 3.53 3.88 3.52 4.65 4.13 4.65 4.13"/><path class="cls-5" d="M3.85,3.57l.76.61Z"/><polygon class="cls-6" points="4.62 4.17 3.84 3.58 3.85 3.57 4.62 4.17 4.62 4.17"/><path class="cls-5" d="M3.85,3.65l.71.56Z"/><polygon class="cls-6" points="4.56 4.2 3.84 3.65 3.85 3.64 4.56 4.2 4.56 4.2"/><path class="cls-5" d="M3.82,3.7l.71.56Z"/><polygon class="cls-6" points="4.53 4.25 3.81 3.71 3.82 3.69 4.53 4.25 4.53 4.25"/><path class="cls-5" d="M3.79,3.75l.68.53Z"/><polygon class="cls-6" points="4.47 4.28 3.79 3.76 3.79 3.74 4.47 4.28 4.47 4.28"/><path class="cls-5" d="M3.79,3.83l.65.5Z"/><polygon class="cls-6" points="4.45 4.33 3.79 3.83 3.79 3.82 4.45 4.33 4.45 4.33"/><path class="cls-5" d="M3.79,3.9l.57.46Z"/><polygon class="cls-6" points="4.36 4.35 3.79 3.91 3.79 3.9 4.36 4.35 4.36 4.35"/><path class="cls-5" d="M3.87,2.94v.13a3.1,3.1,0,0,0,.86,0V2.94a3.1,3.1,0,0,1-.86,0Z"/><path class="cls-6" d="M4.3,3.11a3.28,3.28,0,0,1-.43,0V2.94a3.53,3.53,0,0,0,.86,0v.14a3.13,3.13,0,0,1-.43,0ZM3.87,3v.12a4,4,0,0,0,.85,0V2.94a2.42,2.42,0,0,1-.85,0Z"/><path class="cls-5" d="M3.79,4l.51.4Z"/><polygon class="cls-6" points="4.3 4.38 3.79 3.98 3.79 3.97 4.3 4.38 4.3 4.38"/><path class="cls-5" d="M3.79,4.05l.45.36Z"/><polygon class="cls-6" points="4.25 4.4 3.79 4.06 3.79 4.05 4.25 4.4 4.25 4.4"/><path class="cls-5" d="M3.79,4.13l.4.3Z"/><polygon class="cls-6" points="4.19 4.43 3.79 4.14 3.79 4.13 4.19 4.43 4.19 4.43"/><path class="cls-5" d="M3.79,4.21l.28.22Z"/><polygon class="cls-6" points="4.08 4.43 3.79 4.21 3.79 4.2 4.08 4.43 4.08 4.43"/><path class="cls-5" d="M3.79,4.28,4,4.46Z"/><path class="cls-1" d="M3.79,4.28,4,4.46Z"/><path class="cls-5" d="M3.79,4.36l.14.1Z"/><path class="cls-1" d="M3.79,4.36l.14.1Z"/><path class="cls-5" d="M3.91,3S4,3,4,3s0,0,0,0,0,0,0,0a0,0,0,0,1,0,0Z"/><path class="cls-1" d="M3.91,3S4,3,4,3s0,0,0,0,0,0,0,0A0,0,0,0,1,3.91,3Z"/><path class="cls-5" d="M4.07,3s0,0,0,0,0,0,0,0S4,3,4,3s0,0,0,0Z"/><ellipse class="cls-1" cx="4.07" cy="3.03" rx="0.04" ry="0.03"/><path class="cls-5" d="M4.22,3s0,0,0,0a0,0,0,0,1-.08,0s0,0,0,0Z"/><path class="cls-1" d="M4.22,3s0,0,0,0a0,0,0,0,1-.08,0S4.2,3,4.22,3Z"/><path class="cls-5" d="M4.38,3s0,0,0,0a0,0,0,0,1-.08,0s0,0,0,0Z"/><path class="cls-1" d="M4.38,3s0,0,0,0a0,0,0,0,1-.08,0S4.36,3,4.38,3Z"/><path class="cls-5" d="M4.53,3s0,0,0,0,0,0,0,0,0,0,0,0,0,0,0,0Z"/><path class="cls-1" d="M4.53,3s0,0,0,0,0,0,0,0,0,0,0,0S4.51,3,4.53,3Z"/><path class="cls-5" d="M4.69,3a0,0,0,0,1,0,0s0,0,0,0,0,0,0,0a0,0,0,0,1,0,0Z"/><ellipse class="cls-1" cx="4.69" cy="3.01" rx="0.04" ry="0.03"/><path class="cls-5" d="M2.65,4.26l1-.53Z"/><polygon class="cls-6" points="2.66 4.26 2.65 4.25 3.67 3.72 2.66 4.26 2.66 4.26"/><path class="cls-5" d="M2.6,4.23l1-.5Z"/><polygon class="cls-6" points="2.6 4.24 2.59 4.22 3.56 3.72 2.6 4.24 2.6 4.24"/><path class="cls-5" d="M2.57,4.18l.88-.45Z"/><polygon class="cls-6" points="2.57 4.19 2.56 4.17 3.44 3.72 2.57 4.19 2.57 4.19"/><path class="cls-5" d="M2.54,4.13l.77-.4Z"/><polygon class="cls-6" points="2.54 4.14 2.54 4.12 3.3 3.72 2.54 4.14 2.54 4.14"/><path class="cls-5" d="M2.48,4.08l.71-.35Z"/><polygon class="cls-6" points="2.49 4.09 2.48 4.07 3.19 3.72 2.49 4.09 2.49 4.09"/><path class="cls-5" d="M2.51,4,3,3.75Z"/><polygon class="cls-6" points="2.51 4.01 2.51 4 2.99 3.74 2.51 4.01 2.51 4.01"/><path class="cls-5" d="M2.48,4l.37-.2Z"/><polygon class="cls-6" points="2.49 3.96 2.48 3.95 2.85 3.74 2.49 3.96 2.49 3.96"/><path class="cls-5" d="M2.48,3.88l.26-.13Z"/><path class="cls-1" d="M2.48,3.88l.26-.13Z"/><path class="cls-5" d="M2.74,4.28l1-.5Z"/><polygon class="cls-6" points="2.74 4.29 2.74 4.28 3.7 3.77 2.74 4.29 2.74 4.29"/><path class="cls-5" d="M2.82,4.31l.91-.48Z"/><polygon class="cls-6" points="2.83 4.31 2.82 4.3 3.73 3.82 2.83 4.31 2.83 4.31"/><path class="cls-5" d="M2.91,4.33l.85-.45Z"/><polygon class="cls-6" points="2.91 4.34 2.91 4.33 3.76 3.87 2.91 4.34 2.91 4.34"/><path class="cls-5" d="M3,4.36,3.7,4Z"/><polygon class="cls-6" points="3 4.37 2.99 4.35 3.7 3.97 3 4.37 3 4.37"/><path class="cls-5" d="M3.11,4.36,3.73,4Z"/><polygon class="cls-6" points="3.11 4.37 3.1 4.35 3.73 4.02 3.11 4.37 3.11 4.37"/><path class="cls-5" d="M3.19,4.38l.54-.27Z"/><polygon class="cls-6" points="3.2 4.39 3.19 4.38 3.73 4.1 3.2 4.39 3.2 4.39"/><path class="cls-5" d="M3.28,4.41l.42-.23Z"/><polygon class="cls-6" points="3.28 4.42 3.27 4.4 3.7 4.17 3.28 4.42 3.28 4.42"/><path class="cls-5" d="M3.39,4.41l.34-.18Z"/><polygon class="cls-6" points="3.4 4.42 3.39 4.4 3.73 4.22 3.4 4.42 3.4 4.42"/><path class="cls-5" d="M3.51,4.43l.22-.12Z"/><path class="cls-1" d="M3.51,4.43l.22-.12Z"/><path class="cls-5" d="M3.62,4.43l.14-.07Z"/><path class="cls-1" d="M3.62,4.43l.14-.07Z"/><path class="cls-5" d="M3.82,3.7H3.68a1.94,1.94,0,0,0,0,.76h.14a1.94,1.94,0,0,1,0-.76Z"/><path class="cls-6" d="M3.83,4.47H3.68a1.82,1.82,0,0,1,0-.77h.15a2.49,2.49,0,0,0,0,.77Zm0-.77H3.68a2.36,2.36,0,0,0,0,.75h.13a1.89,1.89,0,0,1,0-.75Z"/><path class="cls-5" d="M2.14,4.05l.34-.25Z"/><polygon class="cls-6" points="2.15 4.06 2.14 4.05 2.48 3.79 2.15 4.06 2.15 4.06"/><path class="cls-5" d="M2.14,3.88l.34.3Z"/><polygon class="cls-6" points="2.49 4.17 2.14 3.88 2.15 3.87 2.49 4.17 2.49 4.17"/><path class="cls-5" d="M2.65,3.75l-.17,0a.86.86,0,0,0,0,.45l.17,0a1.57,1.57,0,0,1,0-.53Z"/><path class="cls-6" d="M2.66,4.29l-.18,0a.94.94,0,0,1,0-.47l.17,0a1.4,1.4,0,0,0,0,.54Zm0-.54-.17,0a1,1,0,0,0,0,.45l.15,0a1.3,1.3,0,0,1,0-.52Z"/><path class="cls-5" d="M4.73,2.48V2.36c-.13,0-.22-.08-.22-.15H4.09c0,.07-.09.15-.22.15v.12Z"/><path class="cls-6" d="M4.73,2.49H3.87V2.36c.13,0,.21-.08.21-.15h.43a.17.17,0,0,0,.06.1.27.27,0,0,0,.15.05v.14Zm-.22-.28H4.09c0,.07-.08.16-.22.16v.11h.84V2.36a.24.24,0,0,1-.15,0,.14.14,0,0,1-.06-.11Z"/><rect class="cls-5" x="4.12" y="2.05" width="0.36" height="0.15"/><path class="cls-6" d="M4.49,2.21H4.12V2.05h.37v.16Zm0-.16H4.12v.15h.36V2.05Z"/><rect class="cls-5" x="4.15" y="1.9" width="0.3" height="0.15"/><path class="cls-6" d="M4.46,2.06H4.15V1.9h.31v.17Zm0-.16H4.15v.14h.28V1.9Z"/><rect class="cls-5" x="4.15" y="1.75" width="0.3" height="0.15"/><path class="cls-6" d="M4.46,1.91H4.15V1.75h.31v.17Zm0-.16H4.15V1.9h.28V1.75Z"/><rect class="cls-5" x="4.18" y="1.55" width="0.24" height="0.2"/><path class="cls-6" d="M4.43,1.76H4.18V1.55h.25v.22Zm0-.21H4.18v.2h.22V1.55Z"/><rect class="cls-5" x="4.17" y="1.37" width="0.26" height="0.18"/><path class="cls-6" d="M4.44,1.55H4.17V1.37h.27v.19Zm0-.18H4.17v.17h.25V1.37Z"/><path class="cls-5" d="M4.31,1c.2,0,.36.11.36.25s-.16.24-.36.24S4,1.34,4,1.21,4.12,1,4.31,1Z"/><path class="cls-6" d="M4.31,1.45c-.19,0-.35-.11-.35-.24S4.12,1,4.31,1s.36.11.36.25-.16.24-.36.24Zm0-.48C4.12,1,4,1.08,4,1.21s.15.23.34.23.35-.11.35-.23S4.5,1,4.31,1Z"/><path class="cls-5" d="M4.49,1.19a.41.41,0,0,0,.09.18.54.54,0,0,1-.27.08.37.37,0,0,1-.26-.08.41.41,0,0,0,.09-.18c0-.06-.09-.15-.09-.15A.53.53,0,0,1,4.31,1,.54.54,0,0,1,4.58,1s-.09.09-.09.15Z"/><path class="cls-6" d="M4.31,1.45s-.21,0-.27-.07a.48.48,0,0,0,.09-.19c0-.06-.08-.14-.08-.14a.47.47,0,0,1,.53,0s-.08.09-.08.15.08.17.08.18a.48.48,0,0,1-.27.08Zm-.25-.4a.22.22,0,0,1,.09.14c0,.07-.09.18-.09.19a.48.48,0,0,0,.25.06.42.42,0,0,0,.26-.08s-.09-.1-.09-.17S4.57,1,4.57,1a.57.57,0,0,0-.51,0Z"/><path class="cls-5" d="M4.43,1.19a.61.61,0,0,0,.09.21.33.33,0,0,1-.21.05c-.09,0-.16,0-.2-.05a.61.61,0,0,0,.09-.21c0-.06-.09-.17-.09-.17A.27.27,0,0,1,4.31,1,.28.28,0,0,1,4.52,1s-.09.11-.09.17Z"/><path class="cls-6" d="M4.26,1.45c-.07,0-.12,0-.16-.05a.72.72,0,0,0,.09-.21C4.19,1.13,4.1,1,4.1,1A.31.31,0,0,1,4.31,1,.31.31,0,0,1,4.52,1s-.08.12-.08.18a.41.41,0,0,0,.09.2c-.07.06-.11.06-.22.06ZM4.11,1a.33.33,0,0,1,.09.17.76.76,0,0,1-.08.21s.08,0,.14,0h0a.39.39,0,0,0,.24-.05h0a.41.41,0,0,1-.09-.2c0-.07.08-.17.08-.18a.37.37,0,0,0-.2,0,.31.31,0,0,0-.2.05Z"/><path class="cls-5" d="M4,1.14a.09.09,0,0,1,.09.08.09.09,0,0,1-.18,0A.09.09,0,0,1,4,1.14Z"/><path class="cls-6" d="M4,1.3a.09.09,0,0,1-.09-.08c0-.09.19-.09.19,0A.09.09,0,0,1,4,1.3Zm0-.15a.08.08,0,0,0-.08.07c0,.07.16.07.16,0A.07.07,0,0,0,4,1.15Z"/><path class="cls-5" d="M4.67,1.14a.08.08,0,0,1,.08.08.07.07,0,0,1-.08.07.08.08,0,0,1-.09-.07.09.09,0,0,1,.09-.08Z"/><path class="cls-6" d="M4.67,1.3a.09.09,0,0,1-.1-.08c0-.09.19-.09.19,0a.09.09,0,0,1-.09.08Zm0-.15a.07.07,0,0,0-.08.07c0,.07.16.07.16,0a.08.08,0,0,0-.08-.07Z"/><path class="cls-5" d="M4.31,1.14a.09.09,0,0,1,.09.08.08.08,0,0,1-.09.07.08.08,0,0,1-.08-.07.09.09,0,0,1,.08-.08Z"/><path class="cls-6" d="M4.31,1.3a.09.09,0,0,1-.09-.08c0-.09.19-.09.19,0a.09.09,0,0,1-.1.08Zm0-.15a.08.08,0,0,0-.08.07c0,.07.17.07.17,0a.08.08,0,0,0-.09-.07Z"/><path class="cls-5" d="M4.31.89A.08.08,0,0,1,4.4,1,.08.08,0,0,1,4.31,1,.08.08,0,0,1,4.23,1,.08.08,0,0,1,4.31.89Z"/><path class="cls-6" d="M4.31,1.05A.09.09,0,0,1,4.22,1c0-.09.19-.09.19,0a.09.09,0,0,1-.1.09Zm0-.15s-.08,0-.08.06S4.4,1,4.4,1,4.36.9,4.31.9Z"/><path class="cls-5" d="M4.06,2.33a.09.09,0,0,1,.09.08.09.09,0,0,1-.18,0,.09.09,0,0,1,.09-.08Z"/><path class="cls-6" d="M4.06,2.49A.09.09,0,0,1,4,2.41c0-.09.19-.09.2,0a.1.1,0,0,1-.1.08Zm0-.15A.08.08,0,0,0,4,2.41c0,.07.17.07.17,0a.08.08,0,0,0-.08-.07Z"/><path class="cls-5" d="M4.54,2.33a.09.09,0,0,1,.09.08.09.09,0,0,1-.18,0,.09.09,0,0,1,.09-.08Z"/><path class="cls-6" d="M4.54,2.49a.1.1,0,0,1-.1-.08c0-.09.2-.09.2,0a.09.09,0,0,1-.1.08Zm0-.15a.08.08,0,0,0-.08.07c0,.07.17.07.17,0a.08.08,0,0,0-.09-.07Z"/><polygon class="cls-5" points="4.09 2.21 4.51 2.21 4.3 2.43 4.09 2.21"/><path class="cls-6" d="M4.3,2.44l-.22-.23h.43l-.21.24Zm.21-.24H4.09l.21.21.21-.22Z"/><path class="cls-5" d="M4.3,2.28a.11.11,0,0,1,.12.1c0,.06,0,.1-.12.1s-.12,0-.12-.1a.11.11,0,0,1,.12-.1Z"/><path class="cls-6" d="M4.3,2.49a.12.12,0,0,1-.13-.11.13.13,0,0,1,.26,0,.12.12,0,0,1-.13.11Zm0-.2a.1.1,0,0,0-.11.09c0,.11.22.11.22,0a.1.1,0,0,0-.11-.09Z"/><path class="cls-5" d="M3.87,3.14h.58a0,0,0,0,1,0,0v.1s0,0,0,0H3.87l0,0v-.1a0,0,0,0,1,0,0Z"/><path class="cls-6" d="M4.45,3.3H3.87s-.05,0-.05,0v-.1s0,0,.05,0h.58s0,0,0,0v.1s0,0,0,0Zm-.58-.15,0,.12.61,0,0,0v-.1l-.61,0Z"/><path class="cls-5" d="M4.68,3a.13.13,0,0,0-.14.13v.11a.14.14,0,0,0,.14.14.15.15,0,0,0,.15-.14V3.15A.14.14,0,0,0,4.68,3Zm0,0a.09.09,0,0,0-.08.1v.07c0,.06,0,.11.08.11a.1.1,0,0,0,.09-.11V3.17a.09.09,0,0,0-.09-.1Z"/><path class="cls-6" d="M4.68,3.4a.15.15,0,0,1-.15-.14V3.15A.15.15,0,0,1,4.68,3a.14.14,0,0,1,.15.14v.11a.14.14,0,0,1-.15.14Zm0-.38a.13.13,0,0,0-.13.13v.11a.13.13,0,0,0,.13.13.13.13,0,0,0,.14-.13V3.15A.13.13,0,0,0,4.68,3Zm0,.33a.1.1,0,0,1-.09-.11V3.17a.1.1,0,0,1,.09-.11.11.11,0,0,1,.1.11v.07a.11.11,0,0,1-.1.11Zm0-.28s-.07.05-.07.1v.07a.08.08,0,1,0,.15,0V3.17a.09.09,0,0,0-.08-.1Z"/><path class="cls-5" d="M4,3a.1.1,0,0,0-.09.11v.12a.09.09,0,1,0,.17,0V3.15C4,3.09,4,3,4,3ZM4,3a.14.14,0,0,0-.15.13v.17A.14.14,0,0,0,4,3.42a.14.14,0,0,0,.14-.13V3.12A.14.14,0,0,0,4,3Z"/><path class="cls-6" d="M4,3.43a.14.14,0,0,1-.15-.14V3.12A.15.15,0,0,1,4,3a.15.15,0,0,1,.15.14v.17A.15.15,0,0,1,4,3.43ZM4,3a.13.13,0,0,0-.14.12v.17A.13.13,0,0,0,4,3.41a.12.12,0,0,0,.13-.12V3.12A.12.12,0,0,0,4,3Zm0,.38a.1.1,0,0,1-.1-.11V3.15c0-.07,0-.12.1-.12s.09.05.09.12v.12A.1.1,0,0,1,4,3.38Zm0-.33c-.05,0-.08,0-.08.1v.12a.07.07,0,0,0,.15,0V3.15c0-.06,0-.1-.07-.1Z"/><path class="cls-5" d="M3.72,3.09a.1.1,0,0,0-.09.11v0a.1.1,0,0,0,.09.1.09.09,0,0,0,.08-.1v0c0-.06,0-.11-.08-.11Zm0,0a.13.13,0,0,0-.14.13v.08a.14.14,0,0,0,.28,0V3.17A.13.13,0,0,0,3.72,3Z"/><path class="cls-6" d="M3.72,3.39a.15.15,0,0,1-.15-.14V3.17a.15.15,0,0,1,.3,0v.08a.15.15,0,0,1-.15.14Zm0-.34a.13.13,0,0,0-.14.12v.08a.13.13,0,0,0,.14.13.13.13,0,0,0,.13-.13V3.17a.13.13,0,0,0-.13-.12Zm0,.29a.1.1,0,0,1-.09-.11c0-.18.18-.16.18,0s0,.14-.09.14Zm0-.24a.09.09,0,0,0-.08.1c0,.16.16.13.16,0s0-.13-.08-.13Z"/><path class="cls-5" d="M3.38,3a.15.15,0,0,0-.16.12v.13c0,.07.07.12.16.12a.14.14,0,0,0,.15-.12V3.14A.14.14,0,0,0,3.38,3Zm0,0c-.14,0-.26.06-.26.14V3.3c0,.08.12.15.26.15s.25-.07.25-.15V3.11C3.63,3,3.52,3,3.38,3Z"/><path class="cls-6" d="M3.38,3.45c-.15,0-.27-.07-.27-.15V3.11c0-.08.12-.15.27-.15s.26.07.26.15V3.3c0,.08-.12.15-.26.15Zm0-.48c-.14,0-.25.07-.25.14V3.3c0,.08.11.14.25.14s.25-.06.25-.14V3.11C3.63,3,3.51,3,3.38,3Zm0,.43a.15.15,0,0,1-.16-.13V3.14a.16.16,0,0,1,.32,0v.13a.15.15,0,0,1-.16.13Zm0-.37c-.08,0-.15.05-.15.11v.13c0,.06.07.11.15.11a.13.13,0,0,0,.14-.11V3.14A.13.13,0,0,0,3.38,3Z"/><path class="cls-5" d="M5.22,3.05a.14.14,0,0,0-.15.12V3.3a.14.14,0,0,0,.15.12.15.15,0,0,0,.16-.12V3.17c0-.07-.07-.12-.16-.12Zm0-.06C5.08,3,5,3.06,5,3.14v.18c0,.09.11.15.25.15s.26-.06.26-.15V3.14c0-.08-.11-.15-.26-.15Z"/><path class="cls-6" d="M5.22,3.48c-.14,0-.26-.07-.26-.16V3.14c0-.09.12-.16.26-.16s.27.07.27.16v.18c0,.09-.12.16-.27.16Zm0-.48C5.09,3,5,3.06,5,3.14v.18c0,.08.11.14.24.14s.25-.06.25-.14V3.14c0-.08-.11-.14-.25-.14Zm0,.42c-.09,0-.16,0-.16-.12V3.17a.16.16,0,0,1,.32,0V3.3c0,.07-.07.12-.16.12Zm0-.37a.13.13,0,0,0-.14.12V3.3a.13.13,0,0,0,.14.11c.08,0,.15-.05.15-.11V3.17a.14.14,0,0,0-.15-.12Z"/><path class="cls-5" d="M4.76,3.14h.3s0,0,0,0v.1a0,0,0,0,1,0,0h-.3l0,0v-.1s0,0,0,0Z"/><path class="cls-6" d="M5.06,3.3H4.75l0,0V3.16l0,0h.31l0,0v.11l0,0Zm-.3-.15v.12l.31,0V3.17l-.31,0Z"/><path class="cls-5" d="M4.44,3.12h.18a0,0,0,0,1,0,0v.13a.1.1,0,0,1,0,0H4.44s0,0,0,0V3.15s0,0,0,0Z"/><path class="cls-6" d="M4.62,3.33H4.44s0,0,0-.05V3.15s0,0,0,0h.18s0,0,0,0v.13s0,.05,0,.05Zm-.18-.21v.16l.17,0V3.15l-.18,0Z"/><path class="cls-5" d="M3.5,3.12h.18s0,0,0,0v.13s0,0,0,0H3.5a.1.1,0,0,1,0,0V3.15a0,0,0,0,1,0,0Z"/><path class="cls-6" d="M3.68,3.33H3.5s0,0,0-.05V3.15s0,0,0,0h.18s0,0,0,0v.13s0,.05,0,.05ZM3.5,3.12v.16l.18,0V3.15l-.18,0Z"/><path class="cls-5" d="M2.89,3.09h.35s0,0,0,.05V3.3s0,.05,0,.05H2.89s0,0,0-.05V3.14s0-.05,0-.05Z"/><path class="cls-6" d="M3.24,3.35H2.89s0,0,0-.05V3.14s0-.06,0-.06h.35s0,0,0,.06V3.3s0,.05,0,.05ZM2.89,3.1s0,0,0,0V3.3s0,0,0,0h.35s0,0,0,0V3.14s0,0,0,0Z"/><path class="cls-5" d="M5.36,3.12h.33s0,0,0,0v.17s0,0,0,0H5.36s0,0,0,0V3.16s0,0,0,0Z"/><path class="cls-6" d="M5.69,3.38H5.36s0,0,0,0V3.16s0-.05,0-.05h.33s0,0,0,.05v.17s0,0,0,0Zm-.33-.26s0,0,0,0v.17s0,0,0,0h.33a0,0,0,0,0,0,0V3.16a.1.1,0,0,0,0,0Z"/></g></g></g></g></g></svg>