<svg xmlns="http://www.w3.org/2000/svg" xmlns:xlink="http://www.w3.org/1999/xlink" viewBox="0 0 29.46 17.19"><defs><style>.cls-1{fill:none;}.cls-2{clip-path:url(#clip-path);}.cls-3{fill:#fff;}.cls-4{fill:#2a680b;}</style><clipPath id="clip-path"><rect class="cls-1" width="29.46" height="17.19"/></clipPath></defs><g id="Layer_2" data-name="Layer 2"><g id="cá»"><g id="south_asia" data-name="south asia"><g class="cls-2"><rect class="cls-3" width="29.46" height="17.19"/><rect class="cls-4" x="7.37" width="22.1" height="17.19"/><g class="cls-2"><path class="cls-3" d="M18,3.44A5.16,5.16,0,1,1,12.8,8.59,5.16,5.16,0,0,1,18,3.44"/><path class="cls-4" d="M16.13,3.89a4.72,4.72,0,1,1-.39,6.67,4.72,4.72,0,0,1,.39-6.67"/><polygon class="cls-3" points="21.8 5.17 20.23 5.86 20.57 6.64 21.8 5.17"/><polygon class="cls-3" points="21.8 5.17 20.93 6.65 20.19 6.22 21.8 5.17"/><polygon class="cls-3" points="21.99 7.18 20.85 5.89 20.21 6.46 21.99 7.18"/><polygon class="cls-3" points="21.99 7.18 20.32 6.81 20.5 5.97 21.99 7.18"/><polygon class="cls-3" points="19.83 4.74 20 6.45 20.85 6.36 19.83 4.74"/><polygon class="cls-3" points="19.83 4.74 20.97 6.02 20.32 6.59 19.83 4.74"/><polygon class="cls-3" points="20.15 7.99 21.01 6.51 20.27 6.07 20.15 7.99"/><polygon class="cls-3" points="20.15 7.99 19.98 6.28 20.83 6.19 20.15 7.99"/><polygon class="cls-3" points="18.81 6.48 20.48 6.85 20.67 6.01 18.81 6.48"/><polygon class="cls-3" points="18.81 6.48 20.38 5.79 20.72 6.58 18.81 6.48"/></g></g></g></g></g></svg>