<svg xmlns="http://www.w3.org/2000/svg" xmlns:xlink="http://www.w3.org/1999/xlink" viewBox="0 0 29.46 17.19"><defs><style>.cls-1{fill:none;}.cls-2{clip-path:url(#clip-path);}.cls-3{fill:#fff;}.cls-4{fill:#2534a4;}.cls-5{fill:#bc0030;}.cls-6{fill:#2a690b;}.cls-7{fill:#3e60bd;}.cls-8{fill:#f5cd28;}.cls-9{fill:#f8e72a;}</style><clipPath id="clip-path"><rect class="cls-1" width="29.46" height="17.19"/></clipPath></defs><g id="Layer_2" data-name="Layer 2"><g id="cá»"><g id="south_america" data-name="south america"><g class="cls-2"><rect class="cls-3" y="5.73" width="29.46" height="5.73"/><rect class="cls-4" y="11.46" width="29.46" height="5.73"/><rect class="cls-5" width="29.46" height="5.73"/><g class="cls-2"><path class="cls-3" d="M16.91,8.59a2.18,2.18,0,1,1-2.18-2.18,2.18,2.18,0,0,1,2.18,2.18Z"/><path d="M14.73,10.81A2.22,2.22,0,1,1,17,8.59a2.22,2.22,0,0,1-2.22,2.22Zm0-4.36a2.15,2.15,0,1,0,2.15,2.14,2.15,2.15,0,0,0-2.15-2.14Z"/><path class="cls-5" d="M14.73,6.72A1.87,1.87,0,1,0,16.6,8.59a1.87,1.87,0,0,0-1.87-1.87Zm0,3.28a1.41,1.41,0,1,1,1.4-1.41A1.41,1.41,0,0,1,14.73,10Z"/><path d="M14.73,10.47A1.88,1.88,0,1,1,16.6,8.59a1.88,1.88,0,0,1-1.87,1.88Zm0-3.75A1.87,1.87,0,1,0,16.6,8.59a1.87,1.87,0,0,0-1.87-1.87Zm0,3.28a1.41,1.41,0,1,1,1.41-1.41A1.41,1.41,0,0,1,14.73,10Zm0-2.81a1.4,1.4,0,1,0,1.4,1.4,1.4,1.4,0,0,0-1.4-1.4Z"/><path class="cls-6" d="M15,7.57s.84.37.69,1.11a.94.94,0,0,1-.8.83c-.18.08-.31.2-.38.19a.92.92,0,0,1-.17-.08.14.14,0,0,0,.14.15c.15,0,.34-.19.43-.22a.94.94,0,0,0,.81-.85c.16-.81-.72-1.1-.72-1.13Z"/><path d="M14.53,9.77h0a.14.14,0,0,1-.14-.15h0a.6.6,0,0,0,.17.07.37.37,0,0,0,.18-.07l.2-.11.11,0a.85.85,0,0,0,.69-.79,1,1,0,0,0-.58-1l-.07,0-.05,0,.12.06h0a1,1,0,0,1,.61,1.07,1,1,0,0,1-.78.85.37.37,0,0,0-.16.09.59.59,0,0,1-.28.13Zm-.16-.14a.15.15,0,0,0,.14.14h0a.53.53,0,0,0,.28-.14l.13-.08a1,1,0,0,0,.2-1.92,1,1,0,0,1,.58,1.06.87.87,0,0,1-.68.79l-.12,0-.19.11a.38.38,0,0,1-.18.08,1.08,1.08,0,0,1-.18-.07Z"/><path class="cls-6" d="M15.45,7.73c0,.06,0,.12,0,.12a.18.18,0,0,1,0-.11c0-.07,0-.12,0-.12s0,0,.06.11Z"/><path d="M15.45,7.85s0-.06-.06-.11a.24.24,0,0,1,0-.12h0a.15.15,0,0,0,0,.11.14.14,0,0,0,0,.1h0a.59.59,0,0,0,0-.11.15.15,0,0,0,0-.1.23.23,0,0,1,0,.1c0,.06,0,.1,0,.11Z"/><path class="cls-6" d="M15.42,7.74c0,.06,0,.11,0,.12a.23.23,0,0,1-.08-.1c0-.06,0-.11,0-.12s.05,0,.08.1Z"/><path d="M15.45,7.86s-.06-.05-.08-.1,0-.1,0-.11h0s0,.06,0,.11.06.09.08.09h0s0-.06,0-.11a.35.35,0,0,0-.06-.09.2.2,0,0,1,.06.09.29.29,0,0,1,0,.11Z"/><path class="cls-6" d="M15.34,7.8c.06,0,.1,0,.1.06s0,0-.11,0-.1,0-.1-.06,0,0,.11,0Z"/><path d="M15.41,7.87h-.08c-.05,0-.11-.05-.1-.07h0s0,0,.08.06l.08,0h0s0,0-.1-.06h0c.05,0,.11,0,.11.07Z"/><path class="cls-6" d="M15.35,7.77c.05,0,.09.07.09.09s-.06,0-.11-.05-.1-.07-.09-.09.06,0,.11,0Z"/><path d="M15.43,7.86l-.1,0c-.05,0-.1-.08-.09-.1h0s0,0,.08.09a.23.23,0,0,0,.1.05h0s0,0-.08-.08l-.1,0a.21.21,0,0,1,.1,0c.05,0,.1.08.09.1Z"/><path class="cls-6" d="M15.39,7.75s.07.1.06.11,0,0-.1-.07-.08-.1-.07-.11.06,0,.11.07Z"/><path d="M15.45,7.86a.22.22,0,0,1-.1-.07s-.08-.1-.07-.11a.2.2,0,0,1,.11.07s.08.09.06.11Zm-.16-.18s0,.06.06.11a.22.22,0,0,0,.1.07h0s0,0-.07-.1l-.09-.07Z"/><path class="cls-6" d="M15.44,7.86l0,0h0a.11.11,0,0,0,0,0s0,0,0,0l0,0,0,0s0,0,0-.05a.16.16,0,0,0,0-.06s0,0,0,0,0,0,0,0,0,0,0,0,0,.05,0,.05Z"/><path d="M15.33,7.93h0a.1.1,0,0,1,0,0h0l0,0,0-.05h0v0l0,0,0,0,0,0,0,0,0,0,0,0,0,0Z"/><path class="cls-6" d="M15.7,7.94c0,.1,0,.17,0,.17a.3.3,0,0,1,0-.19c0-.09,0-.16,0-.16a.29.29,0,0,1,0,.18Z"/><path d="M15.67,8.11h0s0-.1-.05-.19a.3.3,0,0,1,0-.16h0a.26.26,0,0,0,0,.15c0,.11,0,.18,0,.18h0a.47.47,0,0,0,0-.16.49.49,0,0,0,0-.15.31.31,0,0,1,0,.15c0,.08,0,.15,0,.16Z"/><path class="cls-6" d="M15.66,7.94c0,.1,0,.18,0,.18s-.05-.08-.07-.18,0-.17,0-.17.05.07.07.17Z"/><path d="M15.66,8.12S15.6,8,15.58,8s0-.16,0-.18h0a.23.23,0,0,0,0,.17c0,.11.05.18.07.18h0a.34.34,0,0,0,0-.17.53.53,0,0,0-.06-.16.34.34,0,0,1,.06.16.38.38,0,0,1,0,.18Z"/><path class="cls-6" d="M15.53,8c.07,0,.13.11.12.14s-.07,0-.15-.06-.13-.11-.13-.13.08,0,.16.05Z"/><path d="M15.64,8.13a.35.35,0,0,1-.14-.07c-.08-.05-.13-.11-.13-.13h0s0,.08.11.13a.3.3,0,0,0,.14.06h0s0-.08-.12-.14l-.11-.05.11.05c.08,0,.13.11.12.14Z"/><path class="cls-6" d="M15.55,7.94c.07.08.11.16.09.17s-.07,0-.14-.11-.1-.15-.09-.17.08,0,.14.11Z"/><path d="M15.64,8.12s-.08,0-.14-.12-.1-.15-.09-.17.09,0,.15.11.1.15.09.17Zm-.22-.29s0,.09.09.17.1.11.13.11h0s0-.08-.09-.16a.31.31,0,0,0-.13-.12Z"/><path class="cls-6" d="M15.61,7.94c.05.09.07.17.05.18s-.07,0-.12-.14-.07-.17,0-.18.07,0,.12.14Z"/><path d="M15.66,8.12s-.07-.06-.12-.14-.07-.17,0-.19.07.06.12.15.08.17.05.18Zm-.17-.32s0,.08.06.18.09.14.11.14h0s0-.08-.05-.18-.1-.14-.12-.14Z"/><path class="cls-6" d="M15.65,8.12h-.06s0,0-.05,0a.1.1,0,0,0-.07.05s0,0,0,0l.08,0h.07a.17.17,0,0,1,.06-.06s.07,0,.09-.07,0,0,0,0l-.07,0s0,.05,0,.07l-.06,0Z"/><path d="M15.49,8.18h0l0,0h0l.05,0,.1,0,0,0s0,0,.05,0A.15.15,0,0,0,15.81,8s0,0,0,0,0,0,0,0a.15.15,0,0,1-.06.05l0,0a.31.31,0,0,0-.06.06h-.07l-.08,0Zm0,0,.07,0h0a.16.16,0,0,0,.07,0l.06,0a.06.06,0,0,0,0,0l0,0s0,0,.07,0h0a.12.12,0,0,0-.08,0,0,0,0,0,0,0,0l0,0-.06,0h-.06l0,0a.19.19,0,0,0-.08,0Z"/><path class="cls-6" d="M15.84,8.29c0,.1,0,.17-.06.16s0-.1,0-.19,0-.17.06-.16,0,.1,0,.19Z"/><path d="M15.78,8.45h0s0-.11,0-.19,0-.16.06-.16,0,.11,0,.19,0,.16-.06.16Zm.05-.34s0,.05-.06.15,0,.18,0,.18h0s0,0,.06-.15,0-.18,0-.18Z"/><path class="cls-6" d="M15.8,8.28c0,.1,0,.18,0,.18a.3.3,0,0,1,0-.19c0-.1,0-.18,0-.18a.3.3,0,0,1,0,.19Z"/><path d="M15.77,8.46h0s0-.1,0-.19,0-.16,0-.17h0s0,.09,0,.17,0,.18,0,.19h0s0-.09,0-.17a.52.52,0,0,0,0-.17.4.4,0,0,1,0,.17.57.57,0,0,1,0,.18Z"/><path class="cls-6" d="M15.66,8.3c.07.06.11.13.1.15s-.07,0-.14-.08-.11-.14-.1-.16.08,0,.14.09Z"/><path d="M15.75,8.46s-.08,0-.13-.09-.11-.14-.1-.16h0s0,.09.09.16a.33.33,0,0,0,.13.09h0s0-.08-.1-.15a.33.33,0,0,0-.11-.08.34.34,0,0,1,.11.07c.07.07.11.14.1.16Z"/><path class="cls-6" d="M15.69,8.26c.05.09.08.17.06.19s-.07,0-.11-.14-.08-.17-.06-.18.07,0,.11.13Z"/><path d="M15.75,8.45s-.07-.06-.12-.14-.07-.17-.05-.18.07,0,.12.13.07.17.05.19Zm-.17-.32a.33.33,0,0,0,.06.18c0,.08.09.14.11.14h0a.31.31,0,0,0-.06-.18c0-.08-.09-.14-.11-.14Z"/><path class="cls-6" d="M15.75,8.27c0,.1,0,.18,0,.19s-.06-.07-.09-.17,0-.18,0-.18.06.06.09.16Z"/><path d="M15.77,8.46s-.07-.08-.09-.17,0-.18,0-.19h0s.06.07.09.17,0,.18,0,.19Zm-.11-.35s0,.08,0,.18.07.17.09.17h0a.35.35,0,0,0,0-.19c0-.1-.07-.16-.09-.16Z"/><path class="cls-6" d="M15.76,8.45s0,0-.06,0,0,0,0,0-.07,0-.08,0,0,0,0,0,.06,0,.08,0h.07l.07,0a.34.34,0,0,0,.11-.05s0,0,0,0a.19.19,0,0,0-.08,0l0,.07s-.06,0-.06,0Z"/><path d="M15.69,8.46h0s0,0,0,0h0l-.07,0a.11.11,0,0,1,.11,0h0l.06,0s.05,0,.05,0,0,0,0,0a.19.19,0,0,1,.08,0h0a.11.11,0,0,0-.08,0s0,0,0,0l0,0,0,0h0l.06,0s.06,0,.08,0l0,0,0,0-.07,0h0l-.07,0Z"/><path class="cls-6" d="M15.85,8.68c0,.08-.1.13-.12.12a.34.34,0,0,1,.07-.18c0-.08.1-.13.12-.12a.34.34,0,0,1-.07.18Z"/><path d="M15.74,8.8h0s0-.11.07-.18.09-.12.11-.12h0a.27.27,0,0,0-.12.12c-.05.09-.08.16-.07.18h0s.06,0,.11-.12a.47.47,0,0,0,.07-.16.35.35,0,0,1-.07.16c0,.07-.09.12-.11.12Z"/><path class="cls-6" d="M15.82,8.65c0,.1-.08.17-.1.15s0-.09,0-.19.08-.16.1-.15,0,.1,0,.19Z"/><path d="M15.72,8.81h0s0-.11,0-.2.08-.15.1-.15,0,.11,0,.2-.07.15-.1.15Zm.13-.35s-.06.06-.09.15a.36.36,0,0,0,0,.19h0s.06-.05.1-.15,0-.18,0-.19Z"/><path class="cls-6" d="M15.69,8.61a.4.4,0,0,1,0,.19s-.06-.05-.1-.14,0-.17,0-.18.06,0,.1.13Z"/><path d="M15.71,8.8s-.06-.06-.09-.14,0-.17,0-.18h0s.07,0,.1.13.05.17,0,.19Zm-.11-.32s0,.09,0,.18.07.14.09.14h0s0-.08,0-.18a.27.27,0,0,0-.08-.13Z"/><path class="cls-6" d="M15.73,8.59c0,.11,0,.19,0,.2s0-.07-.05-.18,0-.18,0-.19,0,.07.05.17Z"/><path d="M15.71,8.79s-.05-.09-.05-.17,0-.19,0-.2h0s0,.09.05.17,0,.19,0,.2Zm0-.37s0,.09,0,.19,0,.18.05.18h0s0-.09,0-.2a.32.32,0,0,0-.05-.17Z"/><path class="cls-6" d="M15.78,8.62c0,.1,0,.19-.06.19s0-.09,0-.19,0-.19.06-.19,0,.09,0,.19Z"/><path d="M15.72,8.81h0a.42.42,0,0,1,0-.18c0-.1,0-.19.06-.19a.31.31,0,0,1,0,.19c0,.09,0,.19-.06.19Zm0-.37s0,.07,0,.18a.31.31,0,0,0,0,.18h0s0-.07,0-.18,0-.16,0-.18Z"/><path class="cls-6" d="M15.72,8.8l-.06,0s0,0,0,0a.12.12,0,0,0-.08,0s0,0,0,0,.06,0,.08,0l.06,0,.08,0s.08,0,.12,0,.05,0,0,0h-.09s0,0-.06,0Z"/><path d="M15.71,8.81h0l-.06,0,.06,0h.16l.07,0,0,0h-.12l-.08,0Zm0,0-.06,0,0,0h-.08l0,0h0l0,0,.05,0h0a0,0,0,0,1,0,0l.07,0h0l.07,0,0,0h.09a.1.1,0,0,0-.09,0l-.06,0Z"/><path class="cls-6" d="M15.75,9.08c-.09.07-.16.1-.17.08s.05-.1.13-.17.16-.11.17-.09-.05.1-.13.18Z"/><path d="M15.59,9.17h0s0-.1.13-.17a.37.37,0,0,1,.15-.1h0a.44.44,0,0,0-.16.09c-.09.08-.14.15-.13.17h0a.38.38,0,0,0,.16-.1A.57.57,0,0,0,15.86,9a.58.58,0,0,1-.11.13.45.45,0,0,1-.16.09Z"/><path class="cls-6" d="M15.72,9c-.07.09-.14.15-.16.13a.4.4,0,0,1,.1-.19c.07-.09.14-.15.16-.13a.4.4,0,0,1-.1.19Z"/><path d="M15.57,9.17h0s0-.12.1-.21.12-.13.15-.13h0s-.09.05-.15.13a.4.4,0,0,0-.1.19h0s.09-.06.15-.14a.66.66,0,0,0,.1-.17.55.55,0,0,1-.1.18c-.06.07-.12.13-.15.13Z"/><path class="cls-6" d="M15.59,8.94a.31.31,0,0,1,0,.21s-.05-.07-.06-.18,0-.2,0-.21.05.07.06.18Z"/><path d="M15.55,9.16s0-.08-.05-.19,0-.21,0-.22h0s.05.1.06.19a.35.35,0,0,1,0,.22Zm0-.4s0,.09,0,.21a.33.33,0,0,0,.05.18h0s0-.09,0-.21,0-.18-.06-.18Z"/><path class="cls-6" d="M15.64,8.94c0,.11-.06.2-.08.2s0-.09,0-.21.07-.21.09-.2,0,.09,0,.21Z"/><path d="M15.56,9.14h0a.35.35,0,0,1,0-.21c0-.1.06-.21.09-.21h0a.38.38,0,0,0-.08.2c0,.1,0,.19,0,.21h0s0-.08.08-.2a.68.68,0,0,0,0-.19.43.43,0,0,1,0,.19c0,.1-.06.2-.08.2Z"/><path class="cls-6" d="M15.68,9c0,.11-.1.19-.12.19s0-.11,0-.22.09-.19.12-.18,0,.1-.05.21Z"/><path d="M15.57,9.17h0a.34.34,0,0,1,0-.22c.05-.11.1-.19.12-.19s0,.12,0,.22-.09.19-.11.19Zm.15-.4s-.07.07-.11.18a.45.45,0,0,0,0,.21h0s.06-.07.11-.19.06-.2,0-.21Z"/><path class="cls-6" d="M15.56,9.16l-.06-.05a.07.07,0,0,0,0-.07l-.09,0s0,0,0,.05.06,0,.08,0l.06.05.09,0s.08,0,.13,0,.07,0,.05,0l-.1,0-.08,0Z"/><path d="M15.77,9.22h0l-.09,0h-.13l-.06-.06.06.05h.07l.06,0,.09,0Zm.05,0a.16.16,0,0,0-.1,0s0,0,0,0h-.12l-.06-.05a.08.08,0,0,0,0-.07l-.07,0a.09.09,0,0,1,.07,0,.06.06,0,0,1,0,.05s.06.06.06.06h.16a.17.17,0,0,1,.1,0v0Z"/><path class="cls-6" d="M15.48,9.42c-.12,0-.22,0-.21,0s.1-.06.22-.08.21,0,.21,0-.1.07-.22.09Z"/><path d="M15.36,9.43h-.09s.11,0,.21,0a.53.53,0,0,0,.19-.06.53.53,0,0,1-.19.06Zm-.07,0a.57.57,0,0,1,.2-.07c.1,0,.19,0,.2,0h0s-.1,0-.2,0a.6.6,0,0,0-.2.06Z"/><path class="cls-6" d="M15.47,9.36c-.12.05-.22.06-.22,0s.09-.09.2-.13.22-.06.23,0-.09.09-.21.13Z"/><path d="M15.28,9.41h0s.08-.09.2-.13.22-.06.23,0-.09.09-.21.14a.54.54,0,0,1-.19,0Zm.35-.18a.47.47,0,0,0-.17,0c-.13.05-.21.11-.21.13h0a.59.59,0,0,0,.19-.05c.13,0,.21-.1.2-.13Z"/><path class="cls-6" d="M15.4,9.2c-.05.11-.12.19-.15.19s0-.1,0-.21.12-.19.15-.19,0,.1,0,.21Z"/><path d="M15.25,9.39h0s.1-.08.15-.18l0-.16a.41.41,0,0,1,0,.16c-.05.11-.11.19-.15.19Zm0,0a.45.45,0,0,1,0-.17c.05-.11.12-.19.15-.19h0s-.1.08-.14.18a.38.38,0,0,0-.06.17Z"/><path class="cls-6" d="M15.45,9.23c-.09.09-.17.16-.19.14s0-.1.11-.2.17-.16.19-.14,0,.1-.11.2Z"/><path d="M15.26,9.38h0v0h0a.46.46,0,0,0,.19-.15l.1-.13a.53.53,0,0,1-.1.14c-.08.08-.15.15-.19.15Zm0,0a.43.43,0,0,1,.11-.17A.36.36,0,0,1,15.56,9h0a.39.39,0,0,0-.19.14.52.52,0,0,0-.11.17Z"/><path class="cls-6" d="M15.47,9.29c-.11.08-.21.13-.22.11s.05-.1.16-.18.2-.13.21-.1,0,.1-.15.17Z"/><path d="M15.26,9.41h0a.4.4,0,0,0,.2-.11.81.81,0,0,0,.13-.11l0,0a.09.09,0,0,1,0,0,.68.68,0,0,1-.12.12.6.6,0,0,1-.21.11Zm0,0a.59.59,0,0,1,.16-.16.44.44,0,0,1,.2-.11h0a.48.48,0,0,0-.21.1.59.59,0,0,0-.16.16Z"/><path class="cls-6" d="M15.25,9.39l0-.08s0,0,0-.07a.17.17,0,0,0-.07-.09s0,0,0,.06a.45.45,0,0,0,.06.09.47.47,0,0,1,0,.09l.08.07a.9.9,0,0,0,.1.11s.07,0,.06,0a.25.25,0,0,0-.07-.08s-.06,0-.09,0l-.07-.06Z"/><path d="M15.46,9.59l0,0s-.05-.05-.07-.07l0,0-.08-.07a.26.26,0,0,0,0-.08.2.2,0,0,1,0,.08l.06,0,0,.05a.27.27,0,0,0,.07.08l0,0Zm0,0a.16.16,0,0,0-.07-.09l0,0h0l0,0,0,0h0s0-.08,0-.08,0-.05,0-.07a.1.1,0,0,0,0-.07.18.18,0,0,1,.05.07,0,0,0,0,1,0,0,.87.87,0,0,0,0,.1l0,0,0,0h0l0,0a.16.16,0,0,1,.08.08Zm-.27-.27a.35.35,0,0,1-.06-.09s0-.05,0-.06h0s0,0,0,.05a.15.15,0,0,0,0,.07l0,0Z"/><path class="cls-6" d="M15.12,9.61c-.12,0-.22,0-.22-.06s.1-.06.22-.06.22,0,.22.06-.1.06-.22.06Z"/><path d="M15.11,9.62a.28.28,0,0,1-.2,0h0s.11,0,.2,0h0c.12,0,.22,0,.22-.06s-.09-.06-.21-.06a.47.47,0,0,0-.19,0,.45.45,0,0,1,.18,0h0c.13,0,.22,0,.22.06s-.09.06-.22.07Z"/><path class="cls-6" d="M15.09,9.42c-.08.1-.16.16-.19.14s0-.12.1-.22.16-.17.19-.14,0,.12-.1.22Z"/><path d="M14.92,9.56h0s0-.12.1-.22.13-.15.17-.15h0s-.12.06-.18.14-.12.2-.09.22h0a.34.34,0,0,0,.17-.15.53.53,0,0,0,.1-.17.47.47,0,0,1-.1.18c-.06.08-.13.14-.17.14Z"/><path class="cls-6" d="M15.12,9.52c-.11.05-.21.06-.22,0s.06-.1.18-.15.21-.06.23,0-.07.1-.19.15Z"/><path d="M14.94,9.57l0,0s.07-.1.19-.15.22-.06.23,0-.07.1-.19.15a.49.49,0,0,1-.18.05Zm.32-.22a.55.55,0,0,0-.18.05c-.11,0-.19.12-.18.15s.11,0,.22,0,.2-.12.18-.15,0,0,0,0Z"/><path class="cls-6" d="M15.18,7.59c.06,0,.09.1.08.11s-.07,0-.13-.08-.09-.1-.07-.11a.33.33,0,0,1,.12.08Z"/><path d="M15.25,7.7a.26.26,0,0,1-.12-.08c-.05,0-.08-.08-.08-.1h0s0,.05.07.1a.4.4,0,0,0,.12.08h0s0-.06-.08-.11a.3.3,0,0,0-.1-.07l.11.07s.08.09.07.1Z"/><path class="cls-6" d="M15.12,7.65c.07,0,.14,0,.14,0s-.06,0-.13,0-.14,0-.15,0,.06,0,.14,0Z"/><path d="M15.2,7.71h-.07c-.07,0-.15,0-.15,0s.08,0,.14,0,.14,0,.14,0ZM15,7.65h0a.28.28,0,0,0,.14,0h.13s-.06,0-.14,0Z"/><path class="cls-6" d="M15.14,7.61c.07,0,.13.08.12.09s-.07,0-.14,0S15,7.58,15,7.57s.07,0,.14,0Z"/><path d="M15.25,7.71a.39.39,0,0,1-.14,0A.29.29,0,0,1,15,7.58h0s.05.06.11.09l.13,0Zm0,0a.26.26,0,0,0-.12-.08l-.1,0,.1,0c.07,0,.12.07.12.09Z"/><path class="cls-6" d="M14.15,9.4a2.94,2.94,0,0,1,.34.1c.16.06.41.26.47.27a.21.21,0,0,0,.22-.13c-.11,0-.18.08-.29,0a2,2,0,0,0-.3-.19,3.78,3.78,0,0,0-.42-.13Z"/><path d="M15,9.77h0l-.17-.1a1.52,1.52,0,0,0-.3-.17,2.94,2.94,0,0,0-.34-.1l0-.07h0a3.22,3.22,0,0,1,.42.13,1,1,0,0,1,.23.15l.07,0a.24.24,0,0,0,.22,0l.07,0a.2.2,0,0,1-.2.13Zm-.83-.37a2.09,2.09,0,0,1,.34.1,1.14,1.14,0,0,1,.3.17l.17.1h0a.22.22,0,0,0,.2-.13l-.06,0a.26.26,0,0,1-.23,0l-.08-.05a2.11,2.11,0,0,0-.22-.14,3.78,3.78,0,0,0-.42-.13l0,.06Z"/><polygon class="cls-6" points="14.34 7.72 14.56 7.61 14.32 7.67 14.29 7.71 14.34 7.72"/><path d="M14.34,7.73l-.05,0,0,0,.24-.06a2.25,2.25,0,0,0-.21.12Zm.22-.12-.24.06,0,0h0l.22-.11Z"/><path class="cls-6" d="M14.55,7.78a1.6,1.6,0,0,0-.29,0l.18-.23a.93.93,0,0,0-.1.2c.05,0,.14,0,.21.08Z"/><path d="M14.55,7.78h-.07a.93.93,0,0,0-.22,0c.05-.07.13-.17.17-.24l0,.06a.66.66,0,0,0-.07.15l.14,0,.07,0Zm-.12-.29a2.07,2.07,0,0,1-.17.24l.22,0h0l0,0-.14,0,.07-.15,0-.06Z"/><polygon class="cls-6" points="14.3 7.74 14.49 7.59 14.27 7.69 14.26 7.73 14.3 7.74"/><path d="M14.31,7.74h-.05v0l.22-.1-.18.15Zm.18-.15-.21.1,0,0h0l.19-.14Z"/><path class="cls-6" d="M14.51,7.77l-.29,0a2.07,2.07,0,0,0,.17-.24,1.2,1.2,0,0,0-.09.21,1,1,0,0,0,.21.08Z"/><path d="M14.51,7.78l-.07,0-.23,0c.06-.06.13-.17.18-.23h0l-.17.23a.93.93,0,0,1,.22,0h0l-.05,0-.14-.06s0-.1.07-.15l0,0v0a.66.66,0,0,0-.07.15l.14.06.07,0Z"/><polygon class="cls-6" points="14.27 7.75 14.5 7.66 14.26 7.69 14.23 7.73 14.27 7.75"/><path d="M14.27,7.75h0l0,0,.25,0-.22.1Zm.23-.1-.24,0,0,0,0,0,.23-.1Z"/><path class="cls-6" d="M14.48,7.78l-.29,0a2.15,2.15,0,0,0,.14-.26c0,.07-.06.16-.07.22a1.87,1.87,0,0,0,.22.07Z"/><path d="M14.48,7.78H14.2l.21,0h0l-.15,0a1.54,1.54,0,0,1,.05-.17v0a.62.62,0,0,0,0,.16.47.47,0,0,0,.14,0l.07,0Zm-.24-.11.09-.17h0l-.09.17Z"/><polygon class="cls-6" points="14.25 7.75 14.4 7.57 14.21 7.71 14.2 7.76 14.25 7.75"/><path d="M14.2,7.76v0l.19-.15-.15.19Zm.2-.2-.19.15v0h.05l.15-.19Z"/><path class="cls-6" d="M14.48,7.79h-.31c0-.08.09-.22.12-.3,0,.08,0,.18,0,.25l.24,0Z"/><path d="M14.48,7.79h-.31c0-.08.08-.21.12-.29h0c0,.1-.08.21-.12.29a.9.9,0,0,1,.24,0h0l-.16,0a1,1,0,0,1,0-.17l0-.05v.05a1.36,1.36,0,0,0,0,.17l.16,0,.08,0Z"/><polygon class="cls-6" points="14.22 7.79 14.4 7.62 14.18 7.74 14.17 7.79 14.22 7.79"/><path d="M14.22,7.79h-.05v0l.22-.12-.18.17Zm.18-.17-.22.12v0h.05l.18-.17Z"/><path class="cls-6" d="M14.44,7.79H14.1l.2-.33c0,.08-.09.2-.11.27a1.11,1.11,0,0,0,.25,0Z"/><path d="M14.1,7.8h0l.2-.33h0a3.54,3.54,0,0,1-.19.33h.25l-.17,0,.08-.2,0-.07,0,.07a1.14,1.14,0,0,0-.07.19l.16,0H14.1Z"/><polygon class="cls-6" points="14.16 7.81 14.39 7.61 14.13 7.75 14.1 7.81 14.16 7.81"/><path d="M14.1,7.81l0-.06.26-.14-.23.2Zm.29-.2-.26.14,0,0h.06l.23-.19Z"/><path class="cls-6" d="M14.41,7.8l-.34,0a3.68,3.68,0,0,0,.15-.35c0,.09-.06.21-.07.28a2.11,2.11,0,0,0,.26,0Z"/><path d="M14.06,7.86h0a3.49,3.49,0,0,0,.15-.34h0a2.67,2.67,0,0,1-.15.34l.26,0h-.18a2.09,2.09,0,0,1,0-.21v0a2.09,2.09,0,0,0,0,.21h.18l-.26,0Z"/><polygon class="cls-6" points="14.13 7.85 14.31 7.59 14.08 7.8 14.07 7.86 14.13 7.85"/><path d="M14.07,7.87V7.8l.23-.21-.18.26-.06,0Zm.24-.28-.23.21v.06l.06,0,.18-.25Z"/><path class="cls-6" d="M14.35,7.83l-.34,0c.06-.1.13-.25.18-.35a1.8,1.8,0,0,0-.09.28,2.13,2.13,0,0,0,.25,0Z"/><path d="M14,7.87h0a2.16,2.16,0,0,0,.17-.34l0,.09c0,.07-.05.14-.06.19l.17,0h0a1.09,1.09,0,0,0-.26,0Zm.17-.35a3.54,3.54,0,0,1-.16.34l.25,0h0a.47.47,0,0,1-.17,0,1,1,0,0,1,.06-.19l0-.09Z"/><polygon class="cls-6" points="14.1 7.87 14.32 7.67 14.06 7.81 14.04 7.87 14.1 7.87"/><path d="M14,7.88l0-.07.26-.14-.22.2Zm.29-.21-.26.15,0,0h.05l.23-.2Z"/><path class="cls-6" d="M14.33,7.84a1.87,1.87,0,0,0-.34.08c0-.1.1-.26.13-.36,0,.09,0,.2,0,.28Z"/><path d="M14,7.92h0a1.89,1.89,0,0,0,.13-.33h0a1.78,1.78,0,0,1-.12.33l.26-.06h-.18a2,2,0,0,1,0-.2v0a.88.88,0,0,0,0,.2h.26l-.08,0a1,1,0,0,0-.26.06Z"/><polygon class="cls-6" points="14.06 7.88 14.2 7.61 14 7.85 14 7.91 14.06 7.88"/><path d="M14,7.91V7.84l.2-.23c0,.09-.14.27-.14.27l-.06,0Zm.2-.3L14,7.85V7.9l.05,0,.15-.27Z"/><path class="cls-6" d="M14.33,7.85,14,8c0-.11.08-.29.11-.4,0,.1,0,.23,0,.32a1.46,1.46,0,0,0,.29,0Z"/><path d="M14,8h0c0-.11.08-.29.11-.4v.09a.92.92,0,0,0,0,.23h.28l-.09,0L14,8Zm.11-.41c0,.11-.07.29-.1.4l.27-.08.08,0h-.09a.62.62,0,0,1-.19,0,2.15,2.15,0,0,1,0-.23V7.55Z"/><polygon class="cls-6" points="14.03 7.95 14.21 7.67 13.98 7.89 13.97 7.96 14.03 7.95"/><path d="M14,8V7.89l.24-.22L14,8Zm.25-.29L14,7.89V8l.06,0a2.28,2.28,0,0,1,.18-.27Z"/><path class="cls-6" d="M14.28,7.89a3.58,3.58,0,0,0-.35.11c0-.11.07-.29.09-.4,0,.1,0,.23,0,.32l.28,0Z"/><path d="M13.93,8h0c0-.11.06-.29.08-.4v.09a.76.76,0,0,1,0,.15.76.76,0,0,1,0-.15V7.6a2.83,2.83,0,0,1-.08.4l.27-.09.08,0-.09,0-.17,0h0l.17,0,.09,0-.08,0L13.93,8Z"/><polygon class="cls-6" points="13.99 7.99 14.13 7.68 13.93 7.94 13.93 8.01 13.99 7.99"/><path d="M13.93,8V7.94l.2-.26L14,8l-.06,0Zm.2-.34-.2.27V8L14,8l.14-.3Z"/><path class="cls-6" d="M14.25,7.93,13.88,8c0-.1.09-.28.12-.39,0,.1,0,.23,0,.31a2.8,2.8,0,0,0,.29,0Z"/><path d="M13.88,8h0c0-.1.09-.28.12-.39h0c0,.12-.08.28-.12.39l.27-.07.1,0H14a2.08,2.08,0,0,1,0-.23v0a2,2,0,0,0,0,.22h.28l-.09,0a1.63,1.63,0,0,0-.28.07Z"/><polygon class="cls-6" points="13.96 8.02 14.19 7.78 13.92 7.95 13.89 8.02 13.96 8.02"/><path d="M13.89,8l0-.07.28-.17L14,8Zm.3-.24L13.92,8l0,.06H14l.23-.23Z"/><path class="cls-6" d="M14.2,8l-.36,0A3,3,0,0,0,14,7.63c0,.1-.05.23-.06.32l.28,0Z"/><path d="M13.83,8h0c0-.1.1-.26.13-.37h0c0,.12-.09.26-.13.36l.27,0h0l-.18,0a1.85,1.85,0,0,1,0-.23v0a1,1,0,0,0,0,.23h.18l-.27,0Z"/><polygon class="cls-6" points="13.91 7.99 14.07 7.7 13.86 7.94 13.85 8.02 13.91 7.99"/><path d="M13.85,8V7.94l.22-.25a3.33,3.33,0,0,1-.16.3l-.06,0Zm.22-.33L13.86,8V8l.06,0s0,0,.16-.3Z"/><path class="cls-6" d="M14.21,7.93c-.11.05-.29.11-.39.17,0-.13.07-.35.09-.47,0,.11,0,.26,0,.36a1.7,1.7,0,0,0,.31-.06Z"/><path d="M13.82,8.1h0c0-.13.07-.35.09-.48v.11a1.13,1.13,0,0,0,0,.26l.2,0,.1,0-.09,0-.3.13Zm.09-.47a4.14,4.14,0,0,1-.09.46L14.11,8l.1,0-.1,0L13.9,8a1.17,1.17,0,0,1,0-.26v-.1Z"/><polygon class="cls-6" points="13.89 8.08 14.08 7.74 13.83 8.03 13.82 8.11 13.89 8.08"/><path d="M13.82,8.11V8l.25-.29c-.06.12-.19.33-.19.34l-.07,0Zm.26-.37L13.83,8v.08l.06,0s0,0,.19-.34Z"/><path class="cls-6" d="M14.17,8l-.39.19c0-.13.06-.34.08-.47,0,.11,0,.26,0,.36A1.77,1.77,0,0,0,14.17,8Z"/><path d="M13.78,8.17h0a3.81,3.81,0,0,0,.07-.47h0a3.55,3.55,0,0,1-.06.47A2.57,2.57,0,0,1,14.08,8l.09,0-.11,0a.49.49,0,0,1-.2.05,2.09,2.09,0,0,1,0-.26v0a2.09,2.09,0,0,0,0,.26L14.06,8l.11,0-.09,0-.29.14Z"/><polygon class="cls-6" points="13.85 8.13 13.99 7.77 13.78 8.09 13.79 8.17 13.85 8.13"/><path d="M13.79,8.18V8.09L14,7.77c-.05.12-.14.35-.14.36l-.06,0Zm.2-.41-.2.32v.08l.06,0L14,7.77Z"/><path class="cls-6" d="M14.12,8l-.38.19c0-.13,0-.34.07-.47a2.1,2.1,0,0,0,0,.36,1.92,1.92,0,0,0,.3-.08Z"/><path d="M13.73,8.2h0c0-.13,0-.34.06-.47v.11a1.93,1.93,0,0,0,0,.25A1,1,0,0,0,14,8l.1,0L14,8.05a2,2,0,0,0-.29.15Zm.07-.48a3.78,3.78,0,0,1-.06.47L14,8l.09,0L14,8l-.2,0a.94.94,0,0,1,0-.25V7.72Z"/><polygon class="cls-6" points="13.82 8.18 14.03 7.85 13.77 8.12 13.75 8.2 13.82 8.18"/><path d="M13.75,8.2V8.12L14,7.85l-.21.33-.07,0ZM14,7.85l-.26.27,0,.07.07,0L14,7.85Z"/><path class="cls-6" d="M14.11,8c-.1.08-.25.19-.34.28,0-.14,0-.35,0-.47,0,.1,0,.25.08.34S14,8,14.11,8Z"/><path d="M13.77,8.27h0c0-.13,0-.31,0-.44h0a3.59,3.59,0,0,1,0,.43L14,8.05,14.11,8,14,8l-.18.1a1.26,1.26,0,0,1-.07-.25v0a1.26,1.26,0,0,0,.07.25L14,8l.1,0L14,8.05a3,3,0,0,0-.26.22Z"/><polygon class="cls-6" points="13.83 8.19 13.86 7.8 13.75 8.18 13.78 8.25 13.83 8.19"/><path d="M13.78,8.25l0-.07.1-.38c0,.11,0,.38,0,.39l-.05.06Zm.07-.45-.09.38,0,.07.05-.06s0,0,0-.39Z"/><path class="cls-6" d="M14.08,8c-.1.08-.25.19-.34.28,0-.13,0-.34,0-.47a2.79,2.79,0,0,0,.09.34A1.91,1.91,0,0,0,14.08,8Z"/><path d="M13.74,8.31h0c0-.13,0-.33,0-.46h0a3.49,3.49,0,0,1,0,.44l.25-.2L14.08,8,14,8.08l-.19.1a1.49,1.49,0,0,1-.07-.25V7.87l0,.06a1.2,1.2,0,0,0,.06.24L14,8.08,14.08,8,14,8.09l-.26.21Z"/><polygon class="cls-6" points="13.81 8.26 13.9 7.88 13.73 8.23 13.75 8.3 13.81 8.26"/><path d="M13.75,8.31l0-.08.17-.35-.09.38-.06.05Zm.15-.43-.16.35V8.3l.05-.05.1-.37Z"/><path class="cls-6" d="M14.07,8c-.09.09-.24.23-.32.33,0-.14-.06-.35-.08-.48,0,.1.08.25.12.34A1.73,1.73,0,0,0,14.07,8Z"/><path d="M13.75,8.36h0c0-.14-.06-.34-.08-.47h0a4,4,0,0,1,.08.46L14,8.11,14.07,8,14,8.1a.84.84,0,0,1-.19.12A2.07,2.07,0,0,1,13.7,8l0-.07,0,.07a1.12,1.12,0,0,0,.08.24L14,8.1l.1-.07L14,8.11l-.24.25Z"/><polygon class="cls-6" points="13.81 8.3 13.83 7.9 13.73 8.29 13.76 8.37 13.81 8.3"/><path d="M13.76,8.37l0-.08.1-.39c0,.14,0,.39,0,.4l-.05.07Zm.06-.47-.09.39,0,.07,0-.06s0,0,0-.4Z"/><path class="cls-6" d="M14,8.1c-.1.08-.25.2-.34.29,0-.14,0-.35,0-.49a1.9,1.9,0,0,0,.09.36A2.09,2.09,0,0,0,14,8.1Z"/><path d="M13.7,8.4h0c0-.14,0-.35,0-.49l0,.11c0,.09.05.18.07.25a.93.93,0,0,0,.19-.11L14,8.1,14,8.17l-.26.22Zm0-.49a3.71,3.71,0,0,1,0,.48A3,3,0,0,1,14,8.17L14,8.1,14,8.16l-.2.1A1.26,1.26,0,0,1,13.68,8l0-.1Z"/><path class="cls-7" d="M15.44,8.51a.7.7,0,0,1-.71.7.7.7,0,0,1-.7-.7.7.7,0,0,1,.7-.71.71.71,0,0,1,.71.71Z"/><polygon class="cls-6" points="13.78 8.35 13.92 7.97 13.71 8.31 13.71 8.39 13.78 8.35"/><path d="M13.71,8.39V8.31L13.92,8l-.14.38-.07,0ZM13.92,8l-.21.34v.08l.07,0s0,0,.14-.38Z"/><path class="cls-6" d="M14,8.1a3.08,3.08,0,0,0-.3.33c0-.14-.06-.35-.08-.48a2,2,0,0,0,.12.34A2.14,2.14,0,0,0,14,8.1Z"/><path d="M13.73,8.44h0c0-.13-.05-.33-.07-.46h0c0,.15.06.33.08.46.06-.08.15-.17.23-.26L14,8.1,14,8.17a.77.77,0,0,1-.17.12.85.85,0,0,1-.09-.24l0-.06,0,0a2.3,2.3,0,0,0,.09.25L14,8.17,14,8.1,14,8.18l-.23.25Z"/><polygon class="cls-6" points="13.78 8.37 13.77 7.97 13.7 8.37 13.74 8.44 13.78 8.37"/><path d="M13.74,8.44l0-.07.06-.4c0,.13,0,.39,0,.4l0,.07Zm0-.47-.06.4,0,.06,0-.06s0,0,0-.4Z"/><path class="cls-6" d="M14,8.13c-.09.09-.22.23-.3.33A3.7,3.7,0,0,0,13.61,8a2.84,2.84,0,0,0,.13.35c.08-.05.18-.14.26-.2Z"/><path d="M13.7,8.47h0c0-.13-.06-.35-.09-.48h0a4,4,0,0,1,.09.48,2.61,2.61,0,0,1,.23-.25L14,8.13l-.09.07-.17.13a1.45,1.45,0,0,1-.09-.25l0-.09,0,.09a2.07,2.07,0,0,0,.09.24l.17-.12L14,8.13l-.07.08a2.32,2.32,0,0,0-.22.25Z"/><polygon class="cls-6" points="13.76 8.41 13.8 8 13.69 8.39 13.71 8.47 13.76 8.41"/><path d="M13.71,8.47l0-.08L13.8,8c0,.14,0,.4,0,.41l0,.06ZM13.8,8l-.11.39,0,.07,0-.05s0,0,0-.41Z"/><path class="cls-6" d="M14,8.15c-.08.1-.2.25-.27.36,0-.14-.09-.35-.13-.48a2.68,2.68,0,0,0,.16.34L14,8.15Z"/><path d="M13.71,8.51h0c0-.14-.09-.34-.13-.47h0c0,.13.09.32.12.45,0-.08.13-.18.2-.27L14,8.14l-.08.08a1.1,1.1,0,0,1-.16.15,2.68,2.68,0,0,1-.12-.24l0-.07,0,.07a1.23,1.23,0,0,0,.11.23,1.77,1.77,0,0,0,.16-.14L14,8.14l-.06.09a2.26,2.26,0,0,0-.21.28Z"/><polygon class="cls-6" points="13.76 8.45 13.73 8.04 13.68 8.44 13.72 8.52 13.76 8.45"/><path d="M13.72,8.52l0-.08.05-.4,0,.41,0,.07Zm0-.48-.05.4,0,.07,0-.06s0,0,0-.41Z"/><path class="cls-6" d="M14,8.17c-.07.11-.19.26-.25.38,0-.14-.11-.35-.15-.47a2.4,2.4,0,0,0,.17.32A2.49,2.49,0,0,0,14,8.17Z"/><path d="M13.72,8.55h0c0-.13-.1-.31-.14-.44v0l0,.09a2.42,2.42,0,0,0,.12.23l.15-.15L14,8.17l-.06.09c-.06.09-.14.2-.19.29Zm-.15-.47v0a4.28,4.28,0,0,1,.14.43c0-.08.12-.19.19-.28L14,8.17l-.07.08a1.06,1.06,0,0,1-.16.15,1.17,1.17,0,0,1-.13-.23l0-.09Z"/><polygon class="cls-6" points="13.78 8.48 13.83 8.08 13.71 8.46 13.73 8.54 13.78 8.48"/><path d="M13.73,8.54l0-.08.11-.38,0,.4-.06.06Zm.09-.46-.11.38,0,.08,0-.06s0,0,0-.4Z"/><path class="cls-6" d="M14,8.21a3.23,3.23,0,0,0-.22.41c-.05-.13-.14-.33-.19-.45a2.23,2.23,0,0,0,.2.3c.06-.06.14-.18.21-.26Z"/><path d="M13.74,8.62h0c-.05-.13-.14-.32-.19-.44h0c.06.12.14.3.19.43a3,3,0,0,1,.16-.3l0-.1a.47.47,0,0,1-.06.09l-.14.17a1.27,1.27,0,0,1-.15-.21l0-.08.06.08a.85.85,0,0,0,.14.21l.14-.17A.35.35,0,0,1,14,8.21l0,.1c-.05.1-.12.22-.16.31Z"/><polygon class="cls-6" points="13.77 8.52 13.66 8.13 13.7 8.54 13.75 8.6 13.77 8.52"/><path d="M13.75,8.6l-.06-.06,0-.41c0,.13.12.38.12.39l0,.08Zm-.1-.47,0,.41.05.05,0-.07-.12-.39Z"/><path class="cls-6" d="M14,8.25c-.06.12-.17.29-.22.41-.05-.13-.14-.32-.2-.44.07.09.14.22.21.3A2.78,2.78,0,0,0,14,8.25Z"/><path d="M13.73,8.67h0c-.05-.13-.14-.32-.2-.44l.06.08a1.27,1.27,0,0,0,.15.21l.14-.17L14,8.25l0,.1c-.06.11-.13.22-.17.31Zm-.2-.45a3.62,3.62,0,0,1,.2.44c0-.09.11-.21.16-.31l.06-.1-.07.1-.14.17a2.1,2.1,0,0,1-.15-.22l-.06-.08Z"/><polygon class="cls-6" points="13.78 8.59 13.73 8.19 13.7 8.59 13.74 8.66 13.78 8.59"/><path d="M13.74,8.67l-.05-.08,0-.41c0,.14,0,.4,0,.41l0,.08Zm0-.49,0,.41,0,.07,0-.07s0,0,0-.41Z"/><path class="cls-6" d="M14,8.29a3.18,3.18,0,0,0-.23.4c-.05-.13-.13-.33-.19-.45a2.36,2.36,0,0,0,.2.31c.07-.07.15-.18.22-.26Z"/><path d="M13.73,8.7h0c-.05-.13-.14-.33-.19-.45h0c.06.12.14.31.19.44a3.49,3.49,0,0,1,.18-.31L14,8.29l-.07.09a1.29,1.29,0,0,1-.15.17,2.1,2.1,0,0,1-.15-.22l-.05-.08.06.08a.85.85,0,0,0,.14.21l.14-.16L14,8.29l-.05.08c-.06.11-.14.23-.18.32Z"/><polygon class="cls-6" points="13.77 8.62 13.7 8.22 13.69 8.63 13.74 8.7 13.77 8.62"/><path d="M13.74,8.7l-.05-.07V8.22c0,.14.08.4.08.4l0,.08Zm-.05-.48v.41l.05.06,0-.07s0,0-.08-.4Z"/><path class="cls-6" d="M13.93,8.35c-.07.1-.19.27-.25.38,0-.13-.12-.34-.16-.46a2.43,2.43,0,0,0,.18.32c.07-.06.16-.17.23-.24Z"/><path d="M13.68,8.74h0c0-.13-.11-.31-.16-.44h0a3,3,0,0,1,.16.44,2.4,2.4,0,0,1,.19-.29l.06-.1-.07.09c-.06.06-.11.12-.16.16a2.32,2.32,0,0,1-.14-.23l0,0,0,0a2.36,2.36,0,0,0,.13.23,1.17,1.17,0,0,0,.15-.16l.08-.09-.06.1-.19.29Z"/><polygon class="cls-6" points="13.74 8.67 13.77 8.26 13.66 8.65 13.69 8.73 13.74 8.67"/><path d="M13.69,8.73l0-.08.11-.39,0,.41-.05.06Zm.08-.47-.11.39,0,.07,0-.05s0,0,0-.41Z"/><path class="cls-6" d="M13.94,8.36c-.06.11-.17.29-.22.41-.05-.13-.15-.32-.2-.43a2.16,2.16,0,0,0,.21.29c.06-.07.14-.19.21-.27Z"/><path d="M13.72,8.78h0c-.05-.12-.13-.29-.19-.4h0a3.52,3.52,0,0,1,.19.4,3.07,3.07,0,0,1,.16-.31l0-.11a.33.33,0,0,1-.06.1l-.14.18a1.75,1.75,0,0,1-.16-.2l0,0,0,0a1.27,1.27,0,0,0,.15.21l.14-.18.06-.1,0,.11c-.05.11-.12.23-.15.31Z"/><polygon class="cls-6" points="13.72 8.7 13.6 8.32 13.64 8.73 13.7 8.78 13.72 8.7"/><path d="M13.7,8.79l-.06-.06,0-.41.12.38,0,.09Zm-.1-.47.05.41,0,0,0-.08-.12-.38Z"/><path class="cls-6" d="M13.92,8.39c0,.13-.12.32-.15.45-.07-.11-.19-.28-.27-.38.08.07.18.19.25.24a3.07,3.07,0,0,0,.17-.31Z"/><path d="M13.77,8.85h0a3.79,3.79,0,0,0-.25-.35l0,0,.07.07.18.17a1,1,0,0,0,.11-.2l.06-.11,0,.1c0,.12-.09.25-.12.35Zm-.27-.39,0,0c.07.1.18.24.24.35,0-.1.07-.24.11-.35l0-.1a.37.37,0,0,0-.05.11,1.76,1.76,0,0,1-.12.2,1.36,1.36,0,0,1-.18-.17l-.07-.07Z"/><polygon class="cls-6" points="13.83 8.73 13.7 8.36 13.76 8.76 13.81 8.81 13.83 8.73"/><path d="M13.81,8.82l-.05-.06-.06-.4c.05.12.13.36.14.37l0,.09Zm-.11-.46.06.4.05.05,0-.08-.13-.37Z"/><path class="cls-6" d="M13.92,8.43c0,.13-.12.32-.15.45-.07-.11-.19-.28-.27-.38a2.71,2.71,0,0,0,.25.24,3.07,3.07,0,0,0,.17-.31Z"/><path d="M13.78,8.89h0c-.07-.11-.19-.27-.27-.38l.08.07.17.17a.82.82,0,0,0,.11-.21l.06-.11,0,.12a3.09,3.09,0,0,0-.1.34ZM13.5,8.5a3.67,3.67,0,0,1,.27.38c0-.1.07-.23.11-.34l0-.12-.05.12-.11.2a.9.9,0,0,1-.19-.16L13.5,8.5Z"/><polygon class="cls-6" points="13.83 8.8 13.66 8.45 13.76 8.84 13.82 8.88 13.83 8.8"/><path d="M13.82,8.88l-.06,0-.1-.39.18.35,0,.08Zm-.16-.43.1.38.06.05V8.8l-.17-.35Z"/><path class="cls-6" d="M13.91,8.46a3.89,3.89,0,0,0-.09.47L13.5,8.6c.09.06.2.15.28.19a2.52,2.52,0,0,0,.13-.33Z"/><path d="M13.82,8.94h0c-.07-.09-.2-.22-.28-.31l0,0,.08.05a1.05,1.05,0,0,0,.2.14s.05-.14.08-.21,0-.09,0-.12l0,.11c0,.12-.05.26-.06.36ZM13.5,8.6l0,0a2.7,2.7,0,0,1,.28.31c0-.1,0-.24.07-.36l0-.11,0,.12c0,.07-.06.16-.09.22a1.86,1.86,0,0,1-.2-.14L13.5,8.6Z"/><polygon class="cls-6" points="13.85 8.85 13.75 8.46 13.77 8.87 13.82 8.93 13.85 8.85"/><path d="M13.82,8.93l-.05-.06,0-.41c0,.13.09.38.1.39l0,.08Zm-.07-.47,0,.41.05.05,0-.07s0,0-.09-.39Z"/><path class="cls-6" d="M13.91,8.5a4.07,4.07,0,0,0-.05.49c-.09-.1-.25-.22-.34-.3a2.88,2.88,0,0,0,.29.16,2.92,2.92,0,0,0,.1-.35Z"/><path d="M13.86,9h0a2.88,2.88,0,0,0-.33-.28h0c.11.08.24.19.33.27,0-.1,0-.25,0-.37V8.5a.5.5,0,0,1,0,.12,1,1,0,0,1-.07.23,1.43,1.43,0,0,1-.21-.11l0,0,0,0a1.43,1.43,0,0,0,.21.11c0-.06,0-.15.06-.23l0-.12v.11a2.73,2.73,0,0,0,0,.38Z"/><polygon class="cls-6" points="13.85 8.88 13.6 8.6 13.79 8.94 13.86 8.96 13.85 8.88"/><path d="M13.86,9l-.07,0L13.6,8.6a3.2,3.2,0,0,1,.25.28V9ZM13.6,8.6l.19.34.07,0V8.88h0L13.6,8.6Z"/><path class="cls-6" d="M13.91,8.55c0,.14,0,.35-.05.48a3.07,3.07,0,0,0-.34-.29,2.88,2.88,0,0,0,.29.16c0-.1.07-.25.1-.35Z"/><path d="M13.87,9h0c-.08-.09-.23-.21-.32-.29h0l.32.28c0-.1,0-.24,0-.36l0-.12,0,.12c0,.08,0,.17-.06.23a1.13,1.13,0,0,1-.22-.11l0,0,0,0a1,1,0,0,0,.22.12c0-.06,0-.15.06-.23a1,1,0,0,1,0-.12v.12a2.38,2.38,0,0,0,0,.36Z"/><polygon class="cls-6" points="13.88 8.95 13.69 8.61 13.81 8.99 13.87 9.03 13.88 8.95"/><path d="M13.87,9l-.06,0-.12-.39a3.5,3.5,0,0,0,.19.34V9Zm-.18-.42.12.38.06,0V9l-.19-.34Z"/><path class="cls-6" d="M13.92,8.61a3.85,3.85,0,0,0,0,.48l-.36-.27a2,2,0,0,0,.3.14,2.21,2.21,0,0,0,.08-.35Z"/><path d="M13.9,9.1h0l-.33-.26h0a3.17,3.17,0,0,1,.33.26c0-.1,0-.24,0-.37V8.61a.6.6,0,0,1,0,.12,1.28,1.28,0,0,1-.06.23,1,1,0,0,1-.22-.1l0,0,0,0,.21.1c0-.06,0-.15.06-.23a.51.51,0,0,1,0-.13v.12c0,.13,0,.27,0,.37Z"/><polygon class="cls-6" points="13.9 9.01 13.67 8.71 13.84 9.06 13.91 9.09 13.9 9.01"/><path d="M13.91,9.1l-.07,0-.17-.36.23.3V9.1Zm-.24-.39.17.35.06,0V9h0l-.23-.3Z"/><path class="cls-6" d="M13.92,8.67c0,.14,0,.35,0,.49l-.35-.28a2.1,2.1,0,0,0,.3.15c0-.1.05-.25.07-.36Z"/><path d="M13.9,9.16h0a4.22,4.22,0,0,0-.36-.27l.09,0a1.28,1.28,0,0,0,.22.09c0-.06,0-.15.05-.23s0-.09,0-.12v.11c0,.13,0,.27,0,.38Zm-.36-.27a4.06,4.06,0,0,1,.36.26c0-.1,0-.25,0-.37V8.67a.5.5,0,0,1,0,.12,1.69,1.69,0,0,1-.05.24,1.07,1.07,0,0,1-.22-.1l-.09,0Z"/><polygon class="cls-6" points="13.92 9.06 13.76 8.7 13.85 9.09 13.91 9.14 13.92 9.06"/><path d="M13.91,9.15l-.06-.05-.09-.4c.06.12.16.35.17.36l0,.09Zm-.15-.45.09.39.06.05V9.06l-.16-.36Z"/><path class="cls-6" d="M13.93,8.71c0,.14,0,.36,0,.49A3.6,3.6,0,0,0,13.58,9l.31.1c0-.11,0-.26,0-.37Z"/><path d="M14,9.2h0A3.35,3.35,0,0,0,13.59,9h0l.36.2c0-.1,0-.24,0-.36V8.71s0,.08,0,.13l0,.24A1.19,1.19,0,0,1,13.66,9l0,0,0,0a.71.71,0,0,0,.23.06c0-.06,0-.15,0-.23a.53.53,0,0,1,0-.13v.12c0,.13,0,.27,0,.37Z"/><polygon class="cls-6" points="13.95 9.05 13.65 8.84 13.91 9.12 13.98 9.13 13.95 9.05"/><path d="M14,9.13h-.07l-.26-.28L14,9l0,.09Zm-.33-.29.26.28H14l0-.07h0l-.3-.21Z"/><path class="cls-6" d="M13.94,8.73a3.91,3.91,0,0,0,.05.48c-.11-.07-.28-.15-.39-.21a2.12,2.12,0,0,0,.31.09c0-.1,0-.25,0-.36Z"/><path d="M14,9.22h0L13.62,9h0a2.42,2.42,0,0,1,.36.19c0-.1,0-.25,0-.38v0c0,.08,0,.17,0,.24A.71.71,0,0,1,13.69,9h0l.22.06a.93.93,0,0,0,0-.24s0-.09,0-.13v.11a3.71,3.71,0,0,0,0,.38Z"/><polygon class="cls-6" points="13.98 9.12 13.73 8.83 13.93 9.18 13.99 9.21 13.98 9.12"/><path d="M14,9.21l-.08,0-.19-.35c.09.1.25.29.26.29v.09Zm-.27-.38.2.35.06,0V9.12h0l-.25-.29Z"/><path class="cls-6" d="M14,8.78c0,.14,0,.35.07.48a3.52,3.52,0,0,0-.4-.18l.32.07a2.29,2.29,0,0,0,0-.37Z"/><path d="M14,9.27h0l-.38-.17h0a3.34,3.34,0,0,1,.38.17c0-.1,0-.25-.06-.38v0a1.85,1.85,0,0,1,0,.24,1.12,1.12,0,0,1-.22-.05h0l.22.05a1.85,1.85,0,0,0,0-.24V8.78l0,.1a3.53,3.53,0,0,0,0,.38Z"/><polygon class="cls-6" points="14.04 9.17 13.74 8.96 13.99 9.25 14.06 9.25 14.04 9.17"/><path d="M14.06,9.25H14L13.73,9l.31.21,0,.08ZM13.73,9l.26.28h.07l0-.08h0L13.73,9Z"/><path class="cls-6" d="M14,8.84c0,.13.06.35.1.47a2.83,2.83,0,0,0-.41-.14c.1,0,.24,0,.33,0s0-.26,0-.37Z"/><path d="M14.07,9.32h0l-.39-.15h0a3.54,3.54,0,0,1,.39.14A3.21,3.21,0,0,1,14,9l0-.11A.49.49,0,0,1,14,9a2.26,2.26,0,0,1,0,.25.85.85,0,0,1-.23,0h0l.21,0A1,1,0,0,0,14,9a.62.62,0,0,1,0-.13L14,9c0,.12.05.27.07.36Z"/><polygon class="cls-6" points="14.07 9.21 13.82 8.92 14.01 9.27 14.07 9.3 14.07 9.21"/><path d="M14.08,9.3l-.07,0-.19-.35c.09.1.24.29.25.29V9.3Zm-.26-.38.19.35.06,0V9.21h0l-.25-.29Z"/><path class="cls-6" d="M14,8.87c0,.14.09.34.14.47a3.15,3.15,0,0,0-.42-.09,1.79,1.79,0,0,0,.33,0c0-.1,0-.25,0-.37Z"/><path d="M14.13,9.34h0l-.41-.09h0l.41.08A2.27,2.27,0,0,1,14,9l0-.11S14,9,14,9a2.24,2.24,0,0,1,0,.24.87.87,0,0,1-.23,0H14L14,9a.6.6,0,0,1,0-.12L14,9l.11.35Z"/><polygon class="cls-6" points="14.08 9.21 13.74 9.14 14.06 9.3 14.13 9.28 14.08 9.21"/><path d="M14.06,9.31l-.33-.17.35.07.05.07-.07,0Zm-.32-.17.32.16.07,0-.05-.06-.34-.08Z"/><path class="cls-6" d="M14,8.92c0,.13.09.34.14.46a3,3,0,0,0-.41-.09,1.69,1.69,0,0,0,.32,0c0-.1,0-.25-.05-.36Z"/><path d="M14.16,9.38h0l-.39-.09h0a2,2,0,0,1,.39.09A3.07,3.07,0,0,1,14,9l0-.1S14,9,14,9a2.24,2.24,0,0,1,0,.24.85.85,0,0,1-.23,0h.23A2.24,2.24,0,0,0,14,9a.6.6,0,0,1,0-.12L14,9c0,.12.08.27.11.36Z"/><polygon class="cls-6" points="14.14 9.25 13.81 9.09 14.1 9.33 14.18 9.32 14.14 9.25"/><path d="M14.1,9.33l-.29-.24.33.16,0,.07Zm-.29-.24.29.24h.08l0-.07h0l-.33-.16Z"/><path class="cls-6" d="M14,8.94c.07.12.17.31.24.42H13.8a2.55,2.55,0,0,0,.32-.07A3.62,3.62,0,0,0,14,8.94Z"/><path d="M13.8,9.36h0l.09,0,.23-.05c0-.07,0-.15-.08-.23a.61.61,0,0,1,0-.12l.06.1.18.32H13.8ZM14,8.94s0,.08,0,.12.06.16.08.23l-.23.06h.34A1.92,1.92,0,0,1,14.05,9L14,8.94Z"/><polygon class="cls-6" points="14.19 9.29 13.85 9.19 14.17 9.38 14.24 9.36 14.19 9.29"/><path d="M14.17,9.38h0l-.32-.19.34.1.05.06-.07,0Zm-.32-.19.32.18.07,0-.05-.06-.34-.1Z"/><path class="cls-6" d="M14,9c.07.12.16.31.24.42a3.09,3.09,0,0,0-.43,0l.31-.08A2.91,2.91,0,0,0,14,9Z"/><path d="M13.84,9.42h0l.09,0,.22-.05a1.35,1.35,0,0,0-.08-.24S14,9,14,9l.06.11a2.84,2.84,0,0,0,.18.31h-.43ZM14,9l.05.11c0,.08.06.17.08.24a1.16,1.16,0,0,1-.22.06h.33a2.84,2.84,0,0,1-.18-.31L14,9Z"/><polygon class="cls-6" points="14.23 9.31 13.91 9.12 14.19 9.39 14.27 9.39 14.23 9.31"/><path d="M14.27,9.39h-.08l-.28-.27.32.19,0,.08Zm-.36-.26.29.26h.06l0-.07h0l-.32-.19Z"/><path class="cls-6" d="M14.06,9c.07.11.19.29.27.39l-.42.06a1.17,1.17,0,0,0,.3-.12c0-.1-.11-.23-.15-.33Z"/><path d="M13.91,9.47h0l.09,0a.83.83,0,0,0,.21-.09,2,2,0,0,0-.1-.22L14.05,9l.07.09.21.3-.41.06h0ZM14.05,9l.06.11.11.22a.73.73,0,0,1-.22.09l-.06,0,.39-.06a3,3,0,0,1-.21-.3L14.05,9Z"/><polygon class="cls-6" points="14.26 9.34 13.91 9.34 14.25 9.44 14.31 9.4 14.26 9.34"/><path d="M14.25,9.44l-.34-.1h0l.34.09.06,0v0l0,0-.07,0Z"/><polygon class="cls-6" points="14.46 7.67 14.71 7.62 14.46 7.63 14.42 7.65 14.46 7.67"/><path d="M14.46,7.67l0,0,0,0h.25l-.25,0Zm.25,0h-.25l0,0h0l.25,0Z"/><path class="cls-6" d="M14.6,7.72l-.26-.08.27-.12a1.4,1.4,0,0,0-.18.12,1.38,1.38,0,0,0,.17.08Z"/><path d="M14.59,7.72l-.06,0-.19,0,.27-.13h0l-.27.13a.77.77,0,0,1,.19,0h0l-.11-.06.12-.09,0,0,0,0a.41.41,0,0,0-.13.08l.11.05.06,0Z"/><polygon class="cls-6" points="14.45 7.67 14.69 7.61 14.44 7.64 14.4 7.67 14.45 7.67"/><path d="M14.45,7.68h0l0,0,.25,0-.24.07Zm.24-.07-.25,0,0,0h0l.24-.06Z"/><path class="cls-6" d="M14.61,7.74l-.3,0,.2-.2a1.63,1.63,0,0,0-.11.17l.21.06Z"/><path d="M14.61,7.74h-.07l-.23,0,.2-.2h0a1.89,1.89,0,0,1-.2.2l.23,0h0a.4.4,0,0,1-.13,0,.52.52,0,0,1,.07-.12l0,0,0,0a.62.62,0,0,0-.08.12l.13,0h.08Z"/><polygon class="cls-6" points="14.36 7.69 14.61 7.66 14.37 7.66 14.32 7.67 14.36 7.69"/><path d="M14.36,7.69h0l0,0h.25l-.25,0Z"/><path class="cls-6" d="M14.54,7.75l-.27,0,.25-.14-.16.12a1.34,1.34,0,0,0,.18.07Z"/><path d="M14.54,7.75l-.07,0-.2,0,.25-.14h0l-.24.14.21,0h0l-.12-.05.11-.09,0,0,0,0-.11.08.12,0,.06,0Z"/><polygon class="cls-6" points="14.34 7.69 14.56 7.59 14.31 7.66 14.29 7.69 14.34 7.69"/><path d="M14.34,7.69h-.05l0,0,.25-.07-.22.1Zm.22-.1-.24.07,0,0h.05s0,0,.22-.1Z"/><path class="cls-6" d="M14.54,7.77l-.23-.09a1.29,1.29,0,0,0,.16-.17,1.29,1.29,0,0,0-.09.16.86.86,0,0,0,.16.1Z"/><path d="M14.54,7.78l0,0-.18-.07.16-.18h0l-.16.18.18.06h0l0,0a.26.26,0,0,1-.1-.07.67.67,0,0,1,.06-.12l0,0v0a.34.34,0,0,0-.07.11l.1.07.06,0Z"/><polygon class="cls-6" points="14.35 7.71 14.52 7.63 14.33 7.66 14.31 7.69 14.35 7.71"/><path d="M14.35,7.71l0,0,0,0,.19,0-.17.08Zm.17-.08-.19,0,0,0h0l.17-.07Z"/><polygon class="cls-6" points="14.21 9.31 13.85 9.31 14.21 9.4 14.27 9.36 14.21 9.31"/><path d="M14.21,9.41l-.36-.09h.35l.07,0-.06.05Zm0-.1h-.35l.36.08.06,0-.07,0Z"/><polygon class="cls-6" points="14.27 9.34 13.91 9.25 14.26 9.42 14.32 9.4 14.27 9.34"/><path d="M14.26,9.42h0l-.34-.17.36.08.05.07-.06,0Zm-.35-.17.35.17.06,0-.05-.06h0l-.36-.09Z"/><polygon class="cls-6" points="14.33 9.36 13.97 9.34 14.33 9.45 14.39 9.41 14.33 9.36"/><path d="M14.33,9.45,14,9.34l.36,0,.06.05-.06,0ZM14,9.34l.36.11.06,0-.06-.05-.36,0Z"/><path class="cls-6" d="M14.1,9.11c.09.1.23.26.33.35l-.41.1a2.59,2.59,0,0,0,.29-.14,3.37,3.37,0,0,0-.21-.31Z"/><path d="M14,9.56h0l.08,0,.2-.1a1.2,1.2,0,0,0-.13-.21.86.86,0,0,0-.07-.1l.08.07a3.74,3.74,0,0,0,.25.28l-.4.1h0Zm.08-.45a.86.86,0,0,1,.07.1,1.28,1.28,0,0,1,.14.21.82.82,0,0,1-.21.1l-.06,0,.39-.09-.26-.27-.07-.08Z"/><polygon class="cls-6" points="14.38 9.38 14.02 9.26 14.36 9.46 14.43 9.45 14.38 9.38"/><path d="M14.36,9.46h0L14,9.26l.36.12,0,.06-.07,0ZM14,9.26l.34.2.07,0,0-.06h0L14,9.26Z"/><path class="cls-6" d="M14.13,9.13l.36.32a3.12,3.12,0,0,0-.39.15c.08-.06.2-.12.27-.18s-.17-.2-.24-.29Z"/><path d="M14.1,9.6h0l.08,0,.19-.13a1.35,1.35,0,0,0-.16-.19.39.39,0,0,0-.08-.1l.09.08.28.24a2.62,2.62,0,0,0-.39.15h0Zm0-.47.09.1.15.19-.19.13-.06,0,.37-.14-.27-.24-.09-.08Z"/><polygon class="cls-6" points="14.41 9.4 14.07 9.47 14.43 9.49 14.48 9.44 14.41 9.4"/><path d="M14.43,9.49h0l-.36,0,.34-.07.07,0-.05.05Zm0-.09-.34.07.36,0,.05-.05-.07,0Z"/><polygon class="cls-6" points="14.34 9.38 13.98 9.4 14.35 9.47 14.4 9.43 14.34 9.38"/><path d="M14.35,9.47,14,9.41l.36,0,.07,0-.06.05Zm0-.09-.36,0,.37.06.05-.05-.06,0Z"/><polygon class="cls-6" points="14.4 9.4 14.04 9.34 14.39 9.48 14.46 9.46 14.4 9.4"/><path d="M14.39,9.49h0L14,9.34l.37.05.06.07-.07,0ZM14,9.34l.35.14.07,0L14.4,9.4h0L14,9.34Z"/><polygon class="cls-6" points="14.46 9.42 14.1 9.42 14.47 9.51 14.53 9.47 14.46 9.42"/><path d="M14.47,9.51l-.37-.08h.36l.07.05-.06,0Zm0-.09H14.1l.37.07.06,0-.07-.05Z"/><path class="cls-6" d="M14.22,9.18c.1.1.25.25.35.33l-.4.13c.08-.05.21-.11.27-.16a2.1,2.1,0,0,0-.22-.3Z"/><path d="M14.17,9.64h0l.08-.05a1,1,0,0,0,.19-.12,1.73,1.73,0,0,0-.15-.19l-.07-.1.08.08a3,3,0,0,0,.28.25l-.4.13Zm.05-.46.08.1.15.19a1,1,0,0,1-.2.13l-.06,0,.38-.12a3,3,0,0,1-.27-.25l-.08-.08Z"/><polygon class="cls-6" points="14.51 9.43 14.15 9.34 14.5 9.52 14.57 9.5 14.51 9.43"/><path d="M14.5,9.52l-.35-.18.36.09.06.06-.07,0Zm-.35-.18.35.17.07,0-.06-.06h0l-.36-.09Z"/><path class="cls-6" d="M14.25,9.2c.11.09.27.22.39.3-.12,0-.28.12-.39.17a1.29,1.29,0,0,0,.25-.2,3.08,3.08,0,0,0-.25-.27Z"/><path d="M14.26,9.67h0l.08-.06a.79.79,0,0,0,.17-.14l-.16-.18-.09-.09.1.07a1.85,1.85,0,0,0,.29.22l-.37.18Zm0-.47.09.09.17.18-.18.15-.05,0,.35-.17-.29-.21-.09-.08Z"/><polygon class="cls-6" points="14.54 9.45 14.21 9.54 14.57 9.54 14.62 9.49 14.54 9.45"/><path d="M14.21,9.54h0l.33-.09.08,0,0,0Zm.33-.09a1.77,1.77,0,0,1-.31.09h.34l0,0-.08,0Z"/><polygon class="cls-8" points="15.11 8.99 14.73 8.73 14.35 8.99 14.49 8.57 14.16 8.31 14.59 8.31 14.73 7.88 14.88 8.31 15.3 8.31 14.97 8.57 15.11 8.99"/><path d="M15.12,9l-.39-.27L14.35,9l.14-.42-.33-.26h.43l.14-.42.15.42h.42L15,8.57l.15.43Zm-.39-1.12-.14.43h-.43l.33.26L14.35,9l.38-.26.38.26L15,8.57l.33-.27h-.42l-.15-.43Z"/><path class="cls-9" d="M16.16,8.93l.12,0,.21,0,0,0-.11,0H16.3l.05.05.06.08v0L16.27,9l-.12,0Z"/><path class="cls-9" d="M16.5,8.46v0l-.18,0h-.07a.05.05,0,0,1-.05,0s0,0,0-.06,0-.05,0-.06a.08.08,0,0,1,0,0l.08,0,.17,0v0l-.18,0-.06,0,0,0v0a.06.06,0,0,0,0,.06h.08Z"/><path class="cls-9" d="M16.26,8.09h0l0,.11-.11,0-.05,0s0,0,0-.06a.17.17,0,0,1,0-.07.07.07,0,0,1,0-.06.2.2,0,0,1,.08,0h.09s0,0,.06,0a.16.16,0,0,1,0,.07.09.09,0,0,1,0,0,.05.05,0,0,1,0,0s0,0,0,0l0,0s0,0,0,0l0,0v0l0,0,0,0h-.1s-.05,0-.07,0l0,0a0,0,0,0,0,0,0s0,0,0,.05l0,0,.06,0Z"/><polygon class="cls-9" points="14.96 7.11 15.01 6.81 15.04 6.82 15 7.08 15.13 7.11 15.12 7.14 14.96 7.11"/><polygon class="cls-9" points="14.65 7.09 14.65 6.78 14.85 6.78 14.85 6.82 14.69 6.82 14.69 6.92 14.84 6.92 14.84 6.95 14.69 6.95 14.69 7.06 14.86 7.06 14.86 7.09 14.65 7.09"/><path class="cls-9" d="M13.79,7.29l0,0a.29.29,0,0,1,0,.09.25.25,0,0,1,0,.07.11.11,0,0,1-.07,0l-.07,0-.07-.05a.3.3,0,0,1,0-.08.09.09,0,0,1,0-.07l0-.06a.09.09,0,0,1,.07,0,.11.11,0,0,1,.07,0l0,0-.05,0-.05,0,0,0a.11.11,0,0,0,0,0l0,.05.06,0h.05l0,0a.05.05,0,0,0,0-.05.07.07,0,0,0,0-.06Z"/><polygon class="cls-9" points="13.66 7.56 13.43 7.36 13.46 7.33 13.69 7.53 13.66 7.56"/><polygon class="cls-9" points="13.51 7.74 13.27 7.55 13.29 7.52 13.51 7.69 13.59 7.58 13.62 7.6 13.51 7.74"/><path class="cls-9" d="M13.05,7.92l0,0,.16.06.07,0,0,0a.16.16,0,0,1-.05.12h0a.13.13,0,0,1-.08,0L13,8.09v0l.17.07.05,0h0a.05.05,0,0,0,0,0,.13.13,0,0,0,0-.06l-.07,0Z"/><polygon class="cls-9" points="13.23 8.67 12.92 8.67 12.92 8.47 12.96 8.47 12.96 8.64 13.05 8.64 13.05 8.48 13.09 8.48 13.09 8.64 13.2 8.64 13.2 8.47 13.23 8.47 13.23 8.67"/><path class="cls-9" d="M14.39,7.14l-.06-.31.09,0h.1l0,0a.14.14,0,0,1,0,.07.13.13,0,0,1,0,.06.43.43,0,0,1,0,0l0,0,0,0a.05.05,0,0,1,0,0Zm0,0h.1l0,0a.06.06,0,0,0,0,0V7a.15.15,0,0,0,0-.07.05.05,0,0,0,0,0h-.11Z"/><path class="cls-9" d="M15.39,7.26,15.54,7l.09,0,0,0s0,0,0,0,0,0,0,0,0,0,0,0a.08.08,0,0,1,0,0,.08.08,0,0,1-.08,0l-.06,0-.06.11Zm.11-.13.07,0h0l0,0a.06.06,0,0,0,0,0,0,0,0,0,0,0,0l0,0-.07,0Z"/><path class="cls-9" d="M15.55,7.34l.29-.16,0,0-.13.3,0,0,0-.09-.08-.08-.09,0Zm.15,0,.07.06,0-.08,0-.06-.05,0Z"/><path class="cls-9" d="M15.77,7.55,16,7.36l.08.1,0,0s0,0,0,0l0,0-.06,0-.06,0a0,0,0,0,1,0,0s0,0,0,0l0,.09,0,0,0-.07,0,0v0s0,0,0,0v0l0,0-.11.08Zm.17-.07,0,.06,0,0h0s0,0,0,0,0,0,0,0,0,0,0,0L16,7.41Z"/><path class="cls-9" d="M15.94,7.76l.32,0,0,0L16.07,8l0,0,.06-.07-.05-.1-.1,0Zm.15,0,.05.08.06-.06,0,0h0Z"/><path class="cls-9" d="M16.21,8.57l.3.13v0l-.32.08v0l.1,0V8.65l-.09,0Zm.12.09v.09l.09,0h.07l-.06,0Z"/><path class="cls-9" d="M13.28,9,13,9l0-.12V8.85a.05.05,0,0,1,0,0l0,0h.05a.07.07,0,0,1,0,0,0,0,0,0,0,0,0l0,0,.07-.07v0l-.05.05,0,0,0,0V9l.13,0Zm-.17,0,0-.08,0,0H13l0,0a0,0,0,0,0,0,.05L13,9Z"/><path class="cls-9" d="M13.24,8.4l-.3,0v-.1a.1.1,0,0,0,0,0,.05.05,0,0,1,0,0l0,0h0a.09.09,0,0,1,.07,0,.13.13,0,0,1,0,.08v.07h.13Zm-.15-.05V8.28s0,0,0-.06H13l0,0s0,0,0,0v.07Z"/><path class="cls-9" d="M13.37,7.94l-.25-.17.05-.09,0,0h0l0,0,0,0v0l0,0,0,0a0,0,0,0,1,0,0s0,0,0,0a0,0,0,0,1,0,0,.08.08,0,0,1,0,0Zm-.13-.13,0,0a0,0,0,0,0,0,0,0,0,0,0,0,0,0l0,0h0l0,0,0,0Zm.12.08,0-.06v0s0,0,0,0l0,0h-.05s0,0,0,0l0,0Z"/><path class="cls-9" d="M13.89,7.34,13.81,7l0,0,.26.21,0,0L14,7.17l-.1.06,0,.09Zm0-.15L14,7.14l-.07,0-.05,0a.14.14,0,0,1,0,.06Z"/></g></g></g></g></g></svg>