<svg xmlns="http://www.w3.org/2000/svg" xmlns:xlink="http://www.w3.org/1999/xlink" viewBox="0 0 29.46 17.19"><defs><style>.cls-1{fill:none;}.cls-2{clip-path:url(#clip-path);}.cls-3{fill:#2534a4;}.cls-4{fill:#bc0030;}.cls-5{fill:#fff;}.cls-6{fill:#f3d02f;}</style><clipPath id="clip-path"><rect class="cls-1" width="29.46" height="17.19"/></clipPath></defs><g id="Layer_2" data-name="Layer 2"><g id="cá»"><g id="south_east_asia" data-name="south east asia"><g class="cls-2"><rect class="cls-3" width="29.46" height="8.59"/><rect class="cls-4" y="8.59" width="29.46" height="8.59"/><polygon class="cls-5" points="0 0 0 17.19 14.96 8.59 0 0"/><polygon class="cls-6" points="2.02 15.53 1.36 15.14 0.79 15.66 0.95 14.91 0.28 14.53 1.05 14.45 1.2 13.7 1.51 14.4 2.28 14.32 1.7 14.83 2.02 15.53"/><path class="cls-6" d="M4,7l-.56-1L3.15,6l.77,1.09Zm-.44.44L2.42,6.57l0-.53h.48l1,1.19Zm-.18.21-1-.55,0-.32,1.1.75Z"/><path class="cls-6" d="M5.42,6.84l.29-1.07-.2-.26L5.28,6.82Zm-.62,0L4.62,5.37,5,5l.34.33L5.15,6.82Zm-.27,0L4.24,5.78l.2-.25.24,1.31Z"/><path class="cls-6" d="M6.54,7.71l1-.54,0-.32-1.1.74Zm-.42-.45.93-1.15.53,0v.47l-1.21,1Zm-.21-.18.58-1,.32,0L6,7.17Z"/><path class="cls-6" d="M6.72,9.05l1.07.29.26-.2L6.74,8.9Zm0-.62,1.47-.18.4.35-.32.34L6.74,8.78Zm0-.27,1.08-.29.25.2L6.72,8.3Z"/><path class="cls-6" d="M5.9,10.14l.56,1,.33,0L6,10.05Zm.43-.44,1.18.9,0,.53-.48,0L6.1,10Zm.18-.21,1,.55,0,.32-1.1-.75Z"/><path class="cls-6" d="M4.52,10.35l-.28,1.07.2.26.23-1.31Zm.62,0,.19,1.47-.34.4-.35-.32.15-1.53Zm.27,0,.3,1.07-.2.25-.24-1.31Z"/><path class="cls-6" d="M3.4,9.51l-1,.55,0,.32,1.1-.76Zm.44.44-.92,1.16-.53,0v-.48l1.2-1Zm.2.18-.56,1-.32,0L3.93,10Z"/><path class="cls-6" d="M3.21,8.15,2.13,7.86l-.25.2,1.31.23Zm0,.62L1.74,9l-.4-.35.32-.34,1.53.15Zm0,.27-1.07.3-.26-.2,1.31-.25Z"/><g class="cls-2"><path class="cls-6" d="M5,6.78A1.82,1.82,0,1,1,3.15,8.59,1.81,1.81,0,0,1,5,6.78"/><polygon class="cls-6" points="11.2 9.21 11.66 8.59 11.2 7.97 11.93 8.21 12.38 7.59 12.38 8.36 13.11 8.59 12.38 8.83 12.38 9.6 11.93 8.97 11.2 9.21"/><polygon class="cls-6" points="2.02 1.47 1.36 1.85 0.79 1.33 0.95 2.09 0.28 2.47 1.05 2.54 1.2 3.3 1.51 2.59 2.28 2.68 1.7 2.17 2.02 1.47"/></g></g></g></g></g></svg>