<svg xmlns="http://www.w3.org/2000/svg" xmlns:xlink="http://www.w3.org/1999/xlink" viewBox="0 0 29.46 17.19"><defs><style>.cls-1{fill:none;}.cls-2{clip-path:url(#clip-path);}.cls-3{fill:#ea0020;}.cls-4{fill:#2a680b;}.cls-5{fill:#fcff2c;}.cls-6{fill:#fff;}.cls-7{fill:#1a0095;}</style><clipPath id="clip-path"><rect class="cls-1" width="29.46" height="17.19"/></clipPath></defs><g id="Layer_2" data-name="Layer 2"><g id="Layer_1-2" data-name="Layer 1"><g id="EUROPE"><g id="PORTUGAL"><g class="cls-2"><rect class="cls-3" x="10.3" width="19.16" height="17.19"/><rect class="cls-4" width="10.3" height="17.19"/><g class="cls-2"><path class="cls-5" d="M13.66,11.26c-1.29,0-7.24-3.76-7.28-4.35l.33-.55c.59.86,6.67,4.48,7.26,4.35l-.31.55Z"/><path class="cls-5" d="M6.64,6.29c-.12.31,1.55,1.35,3.56,2.57a14,14,0,0,0,3.86,1.87s.07-.11.06-.11-.08.05-.17,0a20.34,20.34,0,0,1-3.71-1.87A16.26,16.26,0,0,1,6.73,6.31a.24.24,0,0,1,0-.12h0l-.05.09Zm7.05,5s-.06,0-.14,0A16.18,16.18,0,0,1,9.85,9.5c-2-1.22-3.7-2.33-3.52-2.62l0-.08h0C6.23,7.29,9.7,9.27,9.9,9.4c2,1.24,3.7,2,3.85,1.78l-.06.1Z"/><path d="M13.61,11.33h-.06A15.19,15.19,0,0,1,9.85,9.5C7.55,8.13,6.39,7.3,6.31,7a.13.13,0,0,1,0-.09l0-.09v0l0,.07a.06.06,0,0,0,0,.07c.07.33,1.23,1.15,3.52,2.52a16,16,0,0,0,3.69,1.82c.08,0,.12,0,.13,0l0-.06h-.07A12.77,12.77,0,0,1,9.9,9.41l-.14-.08C7.52,8,6.38,7.17,6.38,6.84c0,.22.57.8,3.39,2.47l.14.08a13.06,13.06,0,0,0,3.74,1.81s.08,0,.09,0h0s0,0,0,0l0,.08a.09.09,0,0,1-.09.05Zm.41-.58a16.26,16.26,0,0,1-3.83-1.88C8,7.55,6.51,6.6,6.63,6.29l0-.11h0l0,.09c-.12.33,1.83,1.52,3.55,2.57A16.49,16.49,0,0,0,14,10.72h0l0-.06a.27.27,0,0,1-.15,0,20.61,20.61,0,0,1-3.71-1.87A17,17,0,0,1,6.72,6.32a.28.28,0,0,1,0-.13.58.58,0,0,0,0,.11,16.84,16.84,0,0,0,3.51,2.46A20.29,20.29,0,0,0,14,10.63c.08,0,.14,0,.16,0s0,0,0,.1-.05,0-.07,0Z"/><path class="cls-5" d="M10.31,7.27a12.44,12.44,0,0,0,3.82-.54l-.2-.33a10.84,10.84,0,0,1-3.63.53,7.44,7.44,0,0,1-3.6-.59l-.19.34a9.38,9.38,0,0,0,3.8.59Z"/><path class="cls-5" d="M14.19,6.73a5.57,5.57,0,0,1-1.52.41,15.66,15.66,0,0,1-2.36.18A16.57,16.57,0,0,1,8,7.17a6.33,6.33,0,0,1-1.58-.42l0-.09a6.77,6.77,0,0,0,1.56.42,18.09,18.09,0,0,0,2.24.14A15.4,15.4,0,0,0,12.65,7a3.62,3.62,0,0,0,1.47-.42l.07.11ZM14,6.41a4.67,4.67,0,0,1-1.45.39A16.08,16.08,0,0,1,10.32,7a12.81,12.81,0,0,1-2.17-.14,5.77,5.77,0,0,1-1.51-.38l.05-.08a5.22,5.22,0,0,0,1.47.37,15.15,15.15,0,0,0,2.16.14,15.43,15.43,0,0,0,2.22-.16A3.78,3.78,0,0,0,14,6.3l.06.11Z"/><path d="M10.28,7.33A15.89,15.89,0,0,1,8,7.18a6.87,6.87,0,0,1-1.57-.41V6.71l0,0a7.52,7.52,0,0,0,1.57.4,15.85,15.85,0,0,0,2.23.15A15.43,15.43,0,0,0,12.65,7a3.68,3.68,0,0,0,1.46-.42l.09.12a4.89,4.89,0,0,1-1.53.43,16.07,16.07,0,0,1-2.36.17ZM6.5,6.67l0,.09a8.21,8.21,0,0,0,1.58.4,17.44,17.44,0,0,0,2.23.14v0l0,0a16.07,16.07,0,0,0,2.36-.17,6.14,6.14,0,0,0,1.51-.4l-.07-.1a3.43,3.43,0,0,1-1.46.43,16.67,16.67,0,0,1-2.35.17,17.6,17.6,0,0,1-2.24-.14A6.6,6.6,0,0,1,6.5,6.67Zm3.8.3a15.42,15.42,0,0,1-2.15-.14,5.71,5.71,0,0,1-1.44-.36l-.08,0,0-.08,0,0a5.46,5.46,0,0,0,1.46.37,15.73,15.73,0,0,0,2.14.13,14.86,14.86,0,0,0,2.24-.16,3.75,3.75,0,0,0,1.4-.39L14,6.4a4,4,0,0,1-1.46.41A15,15,0,0,1,10.32,7ZM6.68,6.36l0,.08h.06a6.16,6.16,0,0,0,1.44.35,15.42,15.42,0,0,0,2.15.14h0a15,15,0,0,0,2.24-.16A4.7,4.7,0,0,0,14,6.4l-.06-.09a3.49,3.49,0,0,1-1.39.4,15,15,0,0,1-2.23.16,15.42,15.42,0,0,1-2.16-.14,5,5,0,0,1-1.48-.37Z"/><path class="cls-5" d="M6.05,8.84a11.29,11.29,0,0,0,4.25.66,12.23,12.23,0,0,0,4.26-.63l0-.43c-.23.36-2.36.71-4.26.69A10.39,10.39,0,0,1,6,8.45v.39Z"/><path class="cls-5" d="M14.6,8.77v.11a4.88,4.88,0,0,1-1.69.48,17.81,17.81,0,0,1-2.63.18,16.2,16.2,0,0,1-2.5-.18A5.84,5.84,0,0,1,6,8.88V8.76a6.36,6.36,0,0,0,1.8.51,16,16,0,0,0,2.48.17,17.77,17.77,0,0,0,2.62-.18,5.23,5.23,0,0,0,1.7-.49Zm0-.36v.1A4.45,4.45,0,0,1,12.91,9a17.81,17.81,0,0,1-2.63.18A16.39,16.39,0,0,1,7.78,9,6.56,6.56,0,0,1,6,8.52V8.4a6,6,0,0,0,1.8.5,15.82,15.82,0,0,0,2.48.18A17.77,17.77,0,0,0,12.9,8.9a5.49,5.49,0,0,0,1.7-.49Z"/><path d="M10.28,9.55a17.14,17.14,0,0,1-2.5-.17A6,6,0,0,1,6,8.89V8.76a7.46,7.46,0,0,0,1.82.5,16.85,16.85,0,0,0,2.48.17,17.16,17.16,0,0,0,2.61-.18,5.23,5.23,0,0,0,1.7-.49l0,.12a4.68,4.68,0,0,1-1.71.49,17.44,17.44,0,0,1-2.63.18ZM6,8.77l0,.11a6.37,6.37,0,0,0,1.77.47,15.85,15.85,0,0,0,2.5.17,17.53,17.53,0,0,0,2.63-.18,4.66,4.66,0,0,0,1.68-.47v-.1a4.81,4.81,0,0,1-1.69.5,17.39,17.39,0,0,1-2.62.18A16.85,16.85,0,0,1,7.8,9.28,6.12,6.12,0,0,1,6,8.77Zm4.29.41A17.34,17.34,0,0,1,7.78,9,6.39,6.39,0,0,1,6,8.53V8.4a6.82,6.82,0,0,0,1.81.49,17,17,0,0,0,2.48.17,17.16,17.16,0,0,0,2.61-.18,5.27,5.27,0,0,0,1.7-.48l0,.11A4.48,4.48,0,0,1,12.91,9a17.44,17.44,0,0,1-2.63.18ZM6,8.41l0,.11A7.12,7.12,0,0,0,7.79,9a17.1,17.1,0,0,0,2.49.17A17.44,17.44,0,0,0,12.91,9a4.58,4.58,0,0,0,1.68-.48V8.41a4.81,4.81,0,0,1-1.69.5,17.39,17.39,0,0,1-2.62.18A16.85,16.85,0,0,1,7.8,8.92,6.44,6.44,0,0,1,6,8.41Z"/><path class="cls-5" d="M10.29,11.18a14.77,14.77,0,0,1-3.74-.58L6.8,11a9.92,9.92,0,0,0,3.51.58A9,9,0,0,0,13.79,11L14,10.6a13.42,13.42,0,0,1-3.75.58Z"/><path class="cls-5" d="M13.88,10.9l-.11.17a10,10,0,0,1-1.31.33,11.35,11.35,0,0,1-2.16.2A10.36,10.36,0,0,1,6.71,11l0-.09h0l.09,0a11.49,11.49,0,0,0,3.55.59,12.2,12.2,0,0,0,2.11-.2,6.5,6.5,0,0,0,1.43-.39l0,0Zm.22-.35h0l-.09.14a8.68,8.68,0,0,1-1.66.37,13.75,13.75,0,0,1-2,.17,13.93,13.93,0,0,1-3.79-.56l0-.1a16.24,16.24,0,0,0,3.84.57,14.72,14.72,0,0,0,2-.18A9.27,9.27,0,0,0,14,10.59h0l.11,0Z"/><path d="M10.3,11.61h0A10.16,10.16,0,0,1,6.71,11l-.06-.09,0,0h0l.09,0a11.51,11.51,0,0,0,3.55.58h0a12.21,12.21,0,0,0,2.11-.19,6.3,6.3,0,0,0,1.43-.39h0l-.11.16a8.31,8.31,0,0,1-1.32.34,11.76,11.76,0,0,1-2.16.2ZM6.67,10.9l0,.08a10.59,10.59,0,0,0,3.58.61,11.65,11.65,0,0,0,2.15-.2,8.05,8.05,0,0,0,1.32-.34.63.63,0,0,0,.07-.12,5.89,5.89,0,0,1-1.42.39,11.88,11.88,0,0,1-2.08.2h0a11.32,11.32,0,0,1-3.59-.59l-.08,0Zm3.65.34h0a14.11,14.11,0,0,1-3.8-.56l0-.1a17.36,17.36,0,0,0,3.85.54A15.2,15.2,0,0,0,12.16,11l.18,0A11.17,11.17,0,0,0,14,10.59l.12-.06h0l-.1.06a9.09,9.09,0,0,1-1.65.37l-.18,0a13,13,0,0,1-1.84.15,15.75,15.75,0,0,1-3.85-.57l.07.08a14.62,14.62,0,0,0,3.78.56,11.6,11.6,0,0,0,1.79-.14l.24,0A9.77,9.77,0,0,0,14,10.68l.08-.14-.07.15a8.86,8.86,0,0,1-1.66.38l-.24,0a11.89,11.89,0,0,1-1.8.14Z"/><path class="cls-5" d="M10.3,4.77A3.82,3.82,0,1,1,6.48,8.59,3.82,3.82,0,0,1,10.3,4.77Zm0-.38a4.2,4.2,0,1,1-4.2,4.2,4.2,4.2,0,0,1,4.2-4.2Z"/><path class="cls-5" d="M10.3,4.34A4.26,4.26,0,1,1,6.05,8.6,4.26,4.26,0,0,1,10.3,4.34Zm0,.1A4.16,4.16,0,1,1,6.14,8.6,4.18,4.18,0,0,1,10.3,4.44Z"/><path d="M10.3,12.86A4.27,4.27,0,1,1,14.56,8.6a4.26,4.26,0,0,1-4.26,4.26Zm0-8.51A4.25,4.25,0,1,0,14.54,8.6,4.25,4.25,0,0,0,10.3,4.35Zm0,8.42A4.18,4.18,0,1,1,14.47,8.6a4.17,4.17,0,0,1-4.17,4.17Zm0-8.32A4.15,4.15,0,1,0,14.45,8.6,4.14,4.14,0,0,0,10.3,4.45Z"/><path class="cls-5" d="M10.3,4.7A3.9,3.9,0,1,1,6.41,8.59,3.91,3.91,0,0,1,10.3,4.7Zm0,.09a3.81,3.81,0,1,1-3.8,3.8,3.81,3.81,0,0,1,3.8-3.8Z"/><path d="M10.3,12.5a3.91,3.91,0,1,1,3.91-3.91A3.91,3.91,0,0,1,10.3,12.5Zm0-7.79a3.89,3.89,0,1,0,3.88,3.88A3.88,3.88,0,0,0,10.3,4.71Zm0,7.7a3.82,3.82,0,1,1,3.82-3.82,3.82,3.82,0,0,1-3.82,3.82Zm0-7.61a3.79,3.79,0,1,0,3.79,3.79A3.79,3.79,0,0,0,10.3,4.8Z"/><rect class="cls-5" x="10.13" y="4.32" width="0.37" height="8.56"/><path class="cls-1" d="M10.18,4.33h0Z"/><path class="cls-1" d="M10.18,12.87h0Z"/><path class="cls-5" d="M10.44,4.28h.09v8.64h-.09V4.28Zm-.36,0h.09v8.64h-.09V4.28Z"/><path d="M10.53,12.94h-.09V4.28l.1,0v8.66h0Zm0-8.66h-.08v8.63h.07V4.28Zm-.35,8.66h-.09l0-8.66.11,0v8.66h0Zm0-8.66h-.08v8.63h.07V4.28Z"/><path class="cls-5" d="M6,8.42c.54-.5,2.5-.81,4.25-.81s3.81.37,4.26.8v.36c-.37-.35-2-.77-4.26-.78S6.35,8.42,6,8.78V8.42Z"/><path d="M6.05,8.75l0-.32h0v.32Z"/><path d="M14.57,8.76l0-.31a0,0,0,0,1,0,0v.31Z"/><path class="cls-5" d="M10.3,7.94a14.89,14.89,0,0,1,2.75.24,3.11,3.11,0,0,1,1.55.59v.11A3.28,3.28,0,0,0,13,8.28,14.6,14.6,0,0,0,10.3,8a16.77,16.77,0,0,0-2.79.25c-.6.12-1.41.36-1.51.6V8.76c0-.16.65-.4,1.5-.57a14.91,14.91,0,0,1,2.8-.25Zm0-.37a14.83,14.83,0,0,1,2.75.25,3.23,3.23,0,0,1,1.55.58v.11A3.39,3.39,0,0,0,13,7.91a14.86,14.86,0,0,0-2.74-.24,14.68,14.68,0,0,0-2.78.25C6.93,8,6.09,8.28,6,8.51V8.4a2.78,2.78,0,0,1,1.5-.58,15.8,15.8,0,0,1,2.8-.25Z"/><path d="M6,8.89H6V8.76c.06-.18.7-.42,1.52-.59a16,16,0,0,1,2.8-.24,14.67,14.67,0,0,1,2.75.24,3.13,3.13,0,0,1,1.56.59v.12A3.85,3.85,0,0,0,13,8.29a14.27,14.27,0,0,0-2.7-.24,16.12,16.12,0,0,0-2.82.24c-.66.14-1.41.38-1.5.59ZM10.3,8A14.52,14.52,0,0,1,13,8.27a3.42,3.42,0,0,1,1.57.6l0-.1a3.12,3.12,0,0,0-1.54-.57A14.57,14.57,0,0,0,10.32,8,15.09,15.09,0,0,0,7.5,8.2c-.91.18-1.44.43-1.49.57v.06a3.57,3.57,0,0,1,1.5-.56A15,15,0,0,1,10.3,8ZM6,8.53H6l0,0V8.4A2.9,2.9,0,0,1,7.5,7.81a15,15,0,0,1,2.8-.25,14.74,14.74,0,0,1,2.76.25,3.15,3.15,0,0,1,1.55.58v.12A4,4,0,0,0,13,7.92a15.26,15.26,0,0,0-2.71-.24,15,15,0,0,0-2.8.25c-.67.13-1.43.38-1.51.59Zm4.3-.87A14.56,14.56,0,0,1,13,7.9a3.66,3.66,0,0,1,1.57.6l0-.1a3.33,3.33,0,0,0-1.54-.57,14.49,14.49,0,0,0-2.72-.24,16,16,0,0,0-2.83.24A2.84,2.84,0,0,0,6,8.4v.07a3.36,3.36,0,0,1,1.5-.56,15.07,15.07,0,0,1,2.79-.25Z"/><path class="cls-5" d="M10.28,5.71a9.13,9.13,0,0,1,3.59.55l.24.4a9.12,9.12,0,0,0-3.83-.56,9.79,9.79,0,0,0-3.78.57l.27-.46a9.67,9.67,0,0,1,3.51-.5Z"/><path class="cls-1" d="M13.92,6.32l.15.25Z"/><path class="cls-5" d="M10.3,6a14,14,0,0,1,2.47.18,4.79,4.79,0,0,1,1.35.39l.07.12a5.09,5.09,0,0,0-1.43-.42,14,14,0,0,0-2.46-.17,14.42,14.42,0,0,0-2.49.17,4.06,4.06,0,0,0-1.34.42l.07-.13a4.72,4.72,0,0,1,1.25-.39A16.22,16.22,0,0,1,10.3,6Zm0-.36a13.16,13.16,0,0,1,2.38.16,3.6,3.6,0,0,1,1.24.41l.1.15a3.41,3.41,0,0,0-1.38-.46,14.65,14.65,0,0,0-2.34-.17A13.78,13.78,0,0,0,7.91,6a4.34,4.34,0,0,0-1.19.36l.09-.13a4.67,4.67,0,0,1,1.08-.33,14.12,14.12,0,0,1,2.41-.17Z"/><path d="M14.19,6.75h0a5.09,5.09,0,0,0-1.43-.42,13.5,13.5,0,0,0-2.37-.17h-.17a14.47,14.47,0,0,0-2.4.17,4,4,0,0,0-1.33.42l0-.15A4.7,4.7,0,0,1,7.79,6.2,15.48,15.48,0,0,1,10.3,6h.06a14.69,14.69,0,0,1,2.41.17,4.56,4.56,0,0,1,1.36.41l.07.12h0Zm-3.83-.7H10.3a14,14,0,0,0-2.5.18,4.72,4.72,0,0,0-1.26.38l-.06.12A3.52,3.52,0,0,1,7.81,6.3a13.46,13.46,0,0,1,2.4-.17h.17a12.78,12.78,0,0,1,2.38.17,5.21,5.21,0,0,1,1.39.4l0-.08a4.68,4.68,0,0,0-1.34-.39,13.55,13.55,0,0,0-2.41-.18ZM14,6.42h0A3.39,3.39,0,0,0,12.64,6a14.24,14.24,0,0,0-2.34-.17A15.35,15.35,0,0,0,7.91,6a3.61,3.61,0,0,0-1.18.37l.07-.16a4.2,4.2,0,0,1,1.09-.33,14.43,14.43,0,0,1,2.41-.17h.07a13.73,13.73,0,0,1,2.32.16,3.64,3.64,0,0,1,1.23.41L14,6.4h0ZM10.3,5.76a15.64,15.64,0,0,1,2.34.16A4,4,0,0,1,14,6.34l-.05-.09a3.94,3.94,0,0,0-1.23-.4,14.63,14.63,0,0,0-2.31-.16H10.3a13.12,13.12,0,0,0-2.4.18,4.25,4.25,0,0,0-1.09.32l-.08.13a3.36,3.36,0,0,1,1.18-.39,14.34,14.34,0,0,1,2.39-.17Z"/><path class="cls-5" d="M12.41,10.37a10.45,10.45,0,0,0-2.11-.16c-2.63,0-3.49.54-3.59.69l-.2-.32a7,7,0,0,1,3.81-.73A13.42,13.42,0,0,1,12.6,10l-.19.33Z"/><path class="cls-1" d="M6.56,10.62l.13.23Z"/><path class="cls-5" d="M10.29,10.16a12.53,12.53,0,0,1,2.14.17l0,.09a10.56,10.56,0,0,0-2.09-.16,10,10,0,0,0-2.82.33c-.27.07-.71.25-.76.39l0-.08c0-.09.29-.26.79-.41a10.38,10.38,0,0,1,2.84-.33Zm0-.37a13,13,0,0,1,2.31.2l-.06.09a12.19,12.19,0,0,0-2.25-.19,10.87,10.87,0,0,0-2.95.34c-.3.09-.83.28-.84.43l0-.08c0-.14.46-.32.87-.44a10.64,10.64,0,0,1,3-.35Z"/><path d="M6.71,11h0l0-.09c0-.1.3-.28.8-.42a9.83,9.83,0,0,1,2.84-.33,13.24,13.24,0,0,1,2.15.17l0,.1a12,12,0,0,0-2-.15h-.2a9.82,9.82,0,0,0-2.7.33c-.29.08-.72.25-.76.38Zm3.58-.82a10.08,10.08,0,0,0-2.83.34c-.52.14-.77.32-.79.39l0,.06c.09-.17.57-.33.76-.38a9.85,9.85,0,0,1,2.71-.33h.2a11,11,0,0,1,2,.16l0-.09a15.36,15.36,0,0,0-2.13-.15Zm-3.76.51h0l0-.09c0-.19.68-.39.89-.45a10.37,10.37,0,0,1,3-.35,13,13,0,0,1,2.31.2l-.05.11a12.6,12.6,0,0,0-2.26-.19,10.67,10.67,0,0,0-2.95.34c-.39.12-.82.3-.83.43Zm3.79-.88a10.74,10.74,0,0,0-3,.35c-.52.15-.85.32-.86.43l0,.05c.09-.18.77-.39.85-.41a10.63,10.63,0,0,1,3-.34,12.52,12.52,0,0,1,2.26.19l0-.08a15.07,15.07,0,0,0-2.3-.19Z"/><path d="M9.53,10.05a0,0,0,0,1,0,0l0,0h0v0a0,0,0,0,1,0,0l0,0h0v0Zm0,0v0h0a0,0,0,0,1,0,0v0h0s0,0,0,0Zm.1,0h0Zm.1,0h0v0h0V10h0v0h0Zm0,0h0Zm0,0h0v0h.05v.07h0v0Zm0,0h0a0,0,0,0,0,0,0v0h0v0Zm.05,0V10h0v0h0v0h0v0h0v0h0v0h0v.05ZM10,10h0s0,0,0,0h0v0h0v0h0Zm0,0h0v0Zm.05,0V10h0v0h0v0h0v.05Zm.08,0h0v0h0v0h0v0h0Zm0,0v0h0v0h0v0Zm0,0h0a0,0,0,0,0,0,0s0,0,0,0h0v0h0s0,0,0,0Zm.12,0h0v0a0,0,0,0,1,0,0h0v0h0a0,0,0,0,0,0,0h0Zm0,0h0Zm.05,0V10h0v.08Zm0-.06v0h0v0Zm0,.06V10h0v.05Zm0,0V10h.08v0h0v0h0v0h0v0h0v0Zm.11-.06v0h0v0Zm0,.06V10h0v.05Zm0,0V10h0v0h0v0h0v0Zm.09,0h0a0,0,0,0,0,0,0h0Zm0,0h0Zm0,0h0s0,0,0,0h0v0h0v0h0l0,.07Zm0,0h0v0h0s0,0,0,0Zm.05,0s0,0,0,0h0v0h0s0,0,0,0h0v0Zm0,0h0a0,0,0,0,0,0,0h0v0h0s0,0,0,0Zm.08,0V10h0v0Zm.07,0h0s0,0,0,0h0s0,0,0,0l0,0h0s0,0,0,0h0v0h0Zm0,0h0Zm0,0h0v0Zm0,0V10h.05v0h0v0Zm0-.05v0h0v0h0Zm.08,0h0a0,0,0,0,1,0,0l0,0h0a0,0,0,0,1,0,0h-.05a0,0,0,0,0,0,0h0Zm0,0h0Zm.06,0h0Zm0,.07V10h0v.06Zm0,0h0v0h0v0h0v0h0Zm0,0h0v0h0Zm0,0h0Zm0,0,0,0h0v0h0a0,0,0,0,1,0,0Zm0,0s0,0,0,0h0s0,0,0,0h0Zm.08.06V10h0v0s0,0,0,0v0h0v0Zm0,0s0,0,0,0h0v0s0,0,0,0h0v0Zm0,0V10h0v0Zm0,0s0,0,0,0h0v0h0s0,0,0,0Zm0,0v0h0v0h0a0,0,0,0,0,0,0Zm.06,0h0Zm0,.09h0l0-.06h0l0,.06h0Zm.08,0h0v0h0v0h0v0h0v0h0Zm0,0h0v0h0a0,0,0,0,1,0,0Z"/><path d="M11.41,10.07h0v0h0s0,0,0,0h0a0,0,0,0,1,0,0h0s0,0,0,0h0v0h0Zm0,0h0v0h0v0h0v0h0Zm0,0v0h0v0h-.05v0Zm0,0v0h0s0,0,0,0,0,0,0,0h0v0Zm.11,0h0v0h0v0h0v0h0l0,.08Zm0,0v0h0v0h0v0Zm.09,0h0v0h0v0h0Zm0,0h0Zm.13,0h0v0h0a0,0,0,0,0,0,0v-.06h0s0,0,0,0h0v0H11.7v0h0Zm0,0,0,0h0s0,0,0,0,0,0,0,0,0,0,0,0h0v0Zm0,0v0h0s0,0,0,0,0,0,0,0h0Zm.05,0,0-.08h0l0,.08Zm0,0h0v0h0v0h0v0h0l0,.05Zm0,0v-.06H12v0h0v0h0v.05h0v0h0v0Zm.09,0h0l0-.08h0v0h0l0,0h0Zm0,0h0v0h0s0,0,0,0Zm.08,0h0v0h0Zm0,0h0Zm0,0,0-.05h0v0h0v0h0v0Zm.06,0,0,0h0v0h0v0Zm0,0h0v0h0v0Z"/><path class="cls-3" d="M12.39,10.43h0a0,0,0,0,1,0,0l.24-.41h0s0,0,0,0l-.23.41Z"/><path class="cls-5" d="M6.74,6.21c1.3,0,7.33,3.69,7.35,4.37l-.37.57c-.17-.79-6.29-4.39-7.3-4.33l.32-.61Z"/><path d="M13.76,11.13l.29-.51h0s0,0,0,0l-.31.5Z"/><path d="M6.44,6.79l.28-.55h0s0,0,0,0l-.3.54Z"/><path class="cls-5" d="M6.38,6.8c.24-.16,2,.63,3.89,1.76s3.64,2.4,3.48,2.64l-.06.08,0,0s0,0,0-.13a13.59,13.59,0,0,0-3.43-2.53C8.2,7.43,6.5,6.69,6.33,6.9l0-.1Zm7.75,3.82c.15-.3-1.5-1.55-3.55-2.76S7,6,6.7,6.18l-.06.11v0a.3.3,0,0,1,.17,0A13,13,0,0,1,10.56,8c.83.48,3.52,2.21,3.51,2.7,0,0,0,.05,0,.07l.07-.11Z"/><path d="M13.68,11.31l0,0h0s0,0,0-.11a13.61,13.61,0,0,0-3.42-2.53A13.67,13.67,0,0,0,6.45,6.88c-.06,0-.1,0-.11,0h0v0l0-.1a.18.18,0,0,1,.11,0,13.72,13.72,0,0,1,3.8,1.77c1.67,1,3.41,2.24,3.48,2.59a.08.08,0,0,1,0,.07l-.06.09h0v0ZM6.45,6.86a13.37,13.37,0,0,1,3.79,1.77,13.44,13.44,0,0,1,3.44,2.54.45.45,0,0,1,0,.08l0-.06a0,0,0,0,0,0,0c-.08-.35-1.85-1.59-3.48-2.57A13.39,13.39,0,0,0,6.48,6.79l-.09,0,0,.06Zm7.62,3.87h0v0c0-.5-2.73-2.25-3.51-2.7A12.76,12.76,0,0,0,6.82,6.25a.3.3,0,0,0-.16,0h0a.18.18,0,0,1,.15-.06A13.23,13.23,0,0,1,10.57,8c.55.32,3.53,2.18,3.51,2.71h0l0-.05c.14-.28-1.42-1.49-3.54-2.75S7,6,6.71,6.19l0,.1h0l.07-.12a.25.25,0,0,1,.16,0,14.61,14.61,0,0,1,3.74,1.72c1.85,1.09,3.72,2.44,3.55,2.78l-.06.09Z"/><path class="cls-6" d="M7.75,9.07a2.55,2.55,0,0,0,5.1,0h0V5.67H7.75V9.07Z"/><path d="M10.3,11.63a2.54,2.54,0,0,1-1.81-.76,2.57,2.57,0,0,1-.75-1.8V5.66h5.11l0,3.42a2.58,2.58,0,0,1-2.57,2.56Zm2.54-6H7.75l0,3.4a2.5,2.5,0,0,0,.74,1.78,2.55,2.55,0,0,0,1.79.75,2.54,2.54,0,0,0,2.54-2.53V5.67Z"/><path class="cls-3" d="M7.85,9.07h0a2.46,2.46,0,0,0,2.45,2.44,2.46,2.46,0,0,0,2.44-2.43h0V5.77H7.85v3.3Zm3.91-2.31V9.08h0c0,.06,0,.13,0,.19a1.48,1.48,0,0,1-1.46,1.27,1.46,1.46,0,0,1-1-.43,1.5,1.5,0,0,1-.43-1V6.76Z"/><path d="M10.3,11.52a2.47,2.47,0,0,1-1.74-.72,2.42,2.42,0,0,1-.72-1.73V5.77h4.9V9.08a2.46,2.46,0,0,1-2.45,2.44Zm2.43-5.75H7.85V9.07a2.44,2.44,0,0,0,4.87,0V5.77Zm-2.44,4.78a1.44,1.44,0,0,1-1-.44,1.48,1.48,0,0,1-.43-1V6.75h2.93V9.08c0,.06,0,.13,0,.19a1.45,1.45,0,0,1-.43.85,1.43,1.43,0,0,1-1,.43ZM8.85,6.77V9.08a1.46,1.46,0,0,0,.43,1,1.43,1.43,0,0,0,1,.43,1.47,1.47,0,0,0,1-.42,1.42,1.42,0,0,0,.41-.85,1,1,0,0,0,0-.18V6.76Z"/><path class="cls-7" d="M10,8.7h0a.34.34,0,0,0,.09.24.31.31,0,0,0,.46,0,.34.34,0,0,0,.09-.24V8.23H10V8.7Z"/><path class="cls-6" d="M10.49,8.35a.06.06,0,0,0,0,.12.06.06,0,1,0,0-.12Z"/><path class="cls-6" d="M10.31,8.52a.06.06,0,0,0-.06.06.07.07,0,0,0,.06.07.07.07,0,0,0,.07-.07.07.07,0,0,0-.07-.06Z"/><path class="cls-6" d="M10.49,8.7a.06.06,0,0,0-.06.06.06.06,0,0,0,.06.06s.07,0,.07-.06a.07.07,0,0,0-.07-.06Z"/><path class="cls-6" d="M10.14,8.7a.06.06,0,0,0-.06.06.06.06,0,0,0,.06.06s.07,0,.07-.06a.07.07,0,0,0-.07-.06Z"/><path class="cls-6" d="M10.14,8.35a.06.06,0,0,0-.06.06.06.06,0,0,0,.06.06.07.07,0,0,0,.07-.06s0-.06-.07-.06Z"/><path class="cls-7" d="M10,9.8h0a.36.36,0,0,0,.1.25.31.31,0,0,0,.46,0,.4.4,0,0,0,.09-.25V9.34H10V9.8Z"/><path class="cls-6" d="M10.49,9.45s-.06,0-.06.07a.06.06,0,0,0,.06.06.06.06,0,0,0,.06-.06.07.07,0,0,0-.06-.07Z"/><path class="cls-6" d="M10.31,9.63a.06.06,0,0,0-.06.06.06.06,0,0,0,.06.06.06.06,0,0,0,.06-.06.05.05,0,0,0-.06-.06Z"/><path class="cls-6" d="M10.49,9.8a.07.07,0,0,0-.07.07.07.07,0,0,0,.07.06.06.06,0,0,0,.06-.06.07.07,0,0,0-.06-.07Z"/><path class="cls-6" d="M10.14,9.8a.07.07,0,0,0-.06.07.06.06,0,0,0,.06.06.06.06,0,0,0,.06-.06s0-.07-.06-.07Z"/><path class="cls-6" d="M10.14,9.45s-.06,0-.06.07a.06.06,0,0,0,.06.06.06.06,0,0,0,.06-.06.07.07,0,0,0-.06-.07Z"/><path class="cls-7" d="M9.09,8.7h0a.35.35,0,0,0,.1.24.29.29,0,0,0,.23.1.26.26,0,0,0,.22-.1.35.35,0,0,0,.1-.24V8.24H9.1V8.7Z"/><path class="cls-6" d="M9.6,8.35a.06.06,0,0,0-.06.06s0,.07.06.07a.07.07,0,0,0,.06-.07.06.06,0,0,0-.06-.06Z"/><path class="cls-6" d="M9.42,8.52a.06.06,0,0,0-.06.06.07.07,0,0,0,.06.07s.06,0,.06-.07a.06.06,0,0,0-.06-.06Z"/><path class="cls-6" d="M9.6,8.7a.06.06,0,0,0-.06.06s0,.07.06.07a.07.07,0,0,0,.06-.07A.06.06,0,0,0,9.6,8.7Z"/><path class="cls-6" d="M9.25,8.7a.06.06,0,0,0-.06.06.07.07,0,0,0,.06.07.07.07,0,0,0,.07-.07.07.07,0,0,0-.07-.06Z"/><path class="cls-6" d="M9.25,8.35a.06.06,0,0,0-.06.06.07.07,0,0,0,.06.07s.06,0,.06-.07a.06.06,0,0,0-.06-.06Z"/><path class="cls-7" d="M10.88,8.7h0a.39.39,0,0,0,.09.24.31.31,0,0,0,.46,0,.34.34,0,0,0,.09-.24V8.24h-.64V8.7Z"/><path class="cls-6" d="M11.38,8.35a.06.06,0,0,0-.06.06.07.07,0,0,0,.06.07.07.07,0,0,0,.07-.07.07.07,0,0,0-.07-.06Z"/><path class="cls-6" d="M11.2,8.52a.06.06,0,0,0-.06.06.07.07,0,0,0,.06.07.07.07,0,0,0,.07-.07.07.07,0,0,0-.07-.06Z"/><path class="cls-6" d="M11.38,8.7a.06.06,0,0,0-.06.06.07.07,0,0,0,.06.07.07.07,0,0,0,.07-.07.07.07,0,0,0-.07-.06Z"/><path class="cls-6" d="M11,8.7a.07.07,0,0,0-.07.06.07.07,0,0,0,.07.07.07.07,0,0,0,.06-.07A.06.06,0,0,0,11,8.7Z"/><path class="cls-6" d="M11,8.35a.06.06,0,0,0-.06.06.07.07,0,0,0,.06.07.07.07,0,0,0,.07-.07A.07.07,0,0,0,11,8.35Z"/><path class="cls-7" d="M10,7.58h0a.34.34,0,0,0,.09.24.31.31,0,0,0,.46,0,.34.34,0,0,0,.09-.24V7.12H10v.46Z"/><path class="cls-6" d="M10.49,7.23a.06.06,0,0,0-.06.06.07.07,0,0,0,.06.07.07.07,0,0,0,.07-.07.07.07,0,0,0-.07-.06Z"/><path class="cls-6" d="M10.31,7.4a.06.06,0,0,0-.06.06.07.07,0,0,0,.06.07.07.07,0,0,0,.07-.07.07.07,0,0,0-.07-.06Z"/><path class="cls-6" d="M10.49,7.58a.06.06,0,0,0-.06.06.07.07,0,0,0,.06.07.07.07,0,0,0,.07-.07.07.07,0,0,0-.07-.06Z"/><path class="cls-6" d="M10.14,7.58a.06.06,0,0,0-.06.06.07.07,0,0,0,.06.07.07.07,0,0,0,.07-.07.07.07,0,0,0-.07-.06Z"/><path class="cls-6" d="M10.14,7.23a.06.06,0,0,0-.06.06.07.07,0,0,0,.06.07.07.07,0,0,0,.07-.07.07.07,0,0,0-.07-.06Z"/><path class="cls-5" d="M8.17,6.63a.29.29,0,0,1,.17-.29.3.3,0,0,1,.18.3Z"/><path class="cls-5" d="M8,6.35l0,.27h.18c0-.23.17-.27.17-.26a.25.25,0,0,1,.18.26H8.7l0-.28Z"/><path d="M8.71,6.63H8.52a.27.27,0,0,0-.18-.26s-.16,0-.16.25H8l0-.29h.66l0,.3Zm-.39-.28H8l0,.26h.17a.24.24,0,0,1,.15-.26Zm0,0a.28.28,0,0,1,.17.27h.16l0-.27Z"/><path class="cls-5" d="M8,6.62h.73s0,0,0,0,0,0,0,0H8s0,0,0,0a0,0,0,0,1,0,0Z"/><path d="M8.71,6.7H8a0,0,0,0,1,0,0,0,0,0,0,1,0,0h.73a0,0,0,0,1,0,0,0,0,0,0,1,0,0ZM8,6.63v0h.73s0,0,0,0L8,6.63Z"/><path class="cls-5" d="M8.24,6.62a.2.2,0,0,1,.1-.18.19.19,0,0,1,.1.18Z"/><path d="M8.45,6.63H8.24a.2.2,0,0,1,.1-.21.21.21,0,0,1,.11.2Zm-.11-.18a.2.2,0,0,0-.09.17h.18a.16.16,0,0,0-.09-.16Z"/><path class="cls-5" d="M8,6.23h.7a0,0,0,0,1,0,0,0,0,0,0,1,0,0H8s0,0,0,0,0,0,0,0Z"/><path d="M8.69,6.3H8s0,0,0,0,0,0,0,0h.7a0,0,0,0,1,0,0,0,0,0,0,1,0,0ZM8,6.24v0h.7l0,0L8,6.24Z"/><path class="cls-5" d="M8,6.29h.67s0,0,0,0,0,0,0,0H8a0,0,0,0,1,0,0,0,0,0,0,1,0,0Z"/><path d="M8.68,6.36H8a0,0,0,0,1,0,0,0,0,0,0,1,0,0h.67s0,0,0,0,0,0,0,0ZM8,6.3v0h.67v0L8,6.3Z"/><path class="cls-5" d="M8.22,5.84h.06v0h0v0h0v0h0v0h.05v.08s0,0,0,0H8.25a0,0,0,0,1,0,0V5.84Z"/><path d="M8.44,6h-.2l0,0V5.84h.07v0l0,0v0h.06v0l0,0v0h.06v.1l0,0Zm-.17-.12h0l0,.07.2,0V5.84h0v0H8.37v0h0v0H8.28v0Z"/><polygon class="cls-5" points="8.42 5.95 8.44 6.23 8.25 6.23 8.26 5.95 8.42 5.95 8.42 5.95"/><path d="M8.45,6.24h-.2V6h.17l0,.3Zm0-.29H8.26v.27h.16V6Z"/><path class="cls-5" d="M8.45,6h.06V6h0V6H8.6V6h0V6h.06v.09s0,0,0,0H8.48s0,0,0,0V6Z"/><path d="M8.66,6.09H8.47l0,0V6h.07V6h0V6H8.6V6h0V6h.07v.11l0,0ZM8.5,6H8.45v.08l.2,0,0,0V6h0V6h0V6H8.54V6h0V6Z"/><polygon class="cls-5" points="8.65 6.08 8.66 6.23 8.48 6.23 8.49 6.08 8.65 6.08"/><path d="M8.67,6.24H8.48V6.08h.17l0,.17Zm0-.16H8.49v.14h.16V6.08Z"/><path class="cls-5" d="M8,6h.05V6h0V6h.05V6h0V6h.05v.09a0,0,0,0,1,0,0H8a0,0,0,0,1,0,0V6Z"/><path d="M8.21,6.09H8l0,0V6h.06V6h0V6h.06V6h0V6h.06v.11l0,0ZM8,6H8v.08l.2,0V6h0V6h0V6h0V6h0V6Z"/><polygon class="cls-5" points="8.2 6.08 8.2 6.23 8.03 6.23 8.03 6.08 8.2 6.08"/><path d="M8.21,6.24H8V6.08H8.2v.17Zm0-.16H8v.14h.15V6.08Z"/><path d="M8.33,6s0,0,0,0v.07h0V6Z"/><path d="M8.55,6.14a0,0,0,1,1,0,0v.05h0V6.14Z"/><path d="M8.1,6.14s0,0,0,0v.05h0V6.14Z"/><path class="cls-5" d="M10.19,5.84h.05v0h0v0h.05v0h0v0h.05v.08s0,0,0,0h-.19s0,0,0,0V5.84Z"/><path d="M10.4,6h-.2l0,0V5.84h.06v0h0v0h.06v0h0v0h.06l0,.1,0,0Zm-.17-.12h0v.07l.2,0V5.84h0v0h-.05v0h0v0h0v0Z"/><polygon class="cls-5" points="10.39 5.95 10.4 6.23 10.21 6.23 10.23 5.95 10.39 5.95 10.39 5.95"/><path d="M10.41,6.24h-.2V6h.18l0,.3Zm0-.28h-.14v.27h.17l0-.26Z"/><path class="cls-5" d="M10.42,6h.05V6h0V6h.05V6h0V6h.05v.09a0,0,0,0,1,0,0h-.19a0,0,0,0,1,0,0V6Z"/><path d="M10.63,6.09h-.2l0,0V6h.06V6h0V6h.06V6h0l0,0h.07v.11l0,0ZM10.46,6h0v.08l.2,0V6h0V6h0V6h0V6h0V6Z"/><polygon class="cls-5" points="10.62 6.08 10.62 6.23 10.44 6.23 10.45 6.08 10.62 6.08"/><path d="M10.43,6.24V6.08h.18v.16Zm.18-.16h-.16v.13h.16V6.08Z"/><path class="cls-5" d="M10,6h0V6h0V6h0V6h0V6h0v.09a0,0,0,0,1,0,0H10s0,0,0,0V6Z"/><path d="M10.17,6.09H10l0,0V6H10V6h0V6h.06V6h0V6h.06v.11l0,0ZM10,6h0v.08l.2,0V6h0V6H10.1V6h0V6H10V6Z"/><polygon class="cls-5" points="10.16 6.08 10.17 6.23 9.99 6.23 9.99 6.08 10.16 6.08"/><path d="M10.18,6.24H10V6.08h.18l0,.17Zm0-.16H10v.14h.15V6.08Z"/><path class="cls-5" d="M10.13,6.64a.3.3,0,0,1,.17-.3.29.29,0,0,1,.18.3Z"/><path class="cls-5" d="M10,6.35l0,.27h.18c0-.23.17-.26.18-.26a.26.26,0,0,1,.17.26h.18l0-.28Z"/><path d="M10.67,6.63h-.19a.25.25,0,0,0-.18-.26.24.24,0,0,0-.16.25H10l0-.29h.66l0,.3Zm-.38-.28H10l0,.26h.17a.24.24,0,0,1,.16-.26Zm0,0a.26.26,0,0,1,.17.27h.16l0-.27Z"/><path class="cls-5" d="M9.94,6.62h.73a0,0,0,0,1,0,0,0,0,0,0,1,0,0H9.94a0,0,0,0,1,0,0,0,0,0,0,1,0,0Z"/><path d="M10.67,6.7H9.94a0,0,0,0,1,0,0,0,0,0,0,1,0,0h.73a0,0,0,0,1,0,0,0,0,0,0,1,0,0Zm-.73-.07v0h.73s0,0,0,0l-.75,0Z"/><path class="cls-5" d="M10.21,6.62a.19.19,0,0,1,.09-.18.2.2,0,0,1,.11.18Z"/><path d="M10.42,6.63h-.21c0-.16.08-.2.09-.2a.18.18,0,0,1,.12.19Zm-.12-.18a.18.18,0,0,0-.08.17h.17a.17.17,0,0,0-.09-.16Z"/><path class="cls-5" d="M10,6.23h.7s0,0,0,0,0,0,0,0H10a0,0,0,0,1,0,0,0,0,0,0,1,0,0Z"/><path d="M10.66,6.3H10a0,0,0,0,1,0,0,0,0,0,0,1,0,0h.7s0,0,0,0,0,0,0,0ZM10,6.24v0h.7v0l-.71,0Z"/><path class="cls-5" d="M10,6.29h.67a0,0,0,0,1,0,0,0,0,0,0,1,0,0H10s0,0,0,0,0,0,0,0Z"/><path d="M10.64,6.36H10s0,0,0,0,0,0,0,0h.67a0,0,0,0,1,0,0,0,0,0,0,1,0,0ZM10,6.3v0h.67s0,0,0,0L10,6.3Z"/><path d="M10.29,6s0,0,0,0v.07h0V6Z"/><path d="M10.52,6.14s0,0,0,0v.05h0V6.14Z"/><path d="M10.06,6.14s0,0,0,0v.05h0V6.14Z"/><path class="cls-5" d="M12.13,5.84h0v0h0v0h0v0h0v0h.06v.09s0,0,0,0h-.19a0,0,0,0,1,0,0V5.84Z"/><path d="M12.34,6h-.2l0,0V5.84h.06v0h0v0h.06v0h0v0h.07v.11l0,0Zm-.17-.12h0v.08l.2,0V5.84h0v0h-.05v0h0v0h-.05v0Z"/><polygon class="cls-5" points="12.33 5.96 12.34 6.23 12.15 6.23 12.17 5.96 12.33 5.96"/><path d="M12.35,6.24h-.2V6h.17l0,.3Zm0-.28h-.15v.26h.16V6Z"/><path class="cls-5" d="M12.36,6h.05V6h0V6h.05V6h0V6h.05v.09s0,0,0,0h-.19a0,0,0,0,1,0,0V6Z"/><path d="M12.57,6.09h-.2l0,0V6l.06,0V6h0V6h.06V6h0V6h.06v.11l0,0ZM12.4,6h0v.07l.2,0V6h0V6H12.5V6h0V6h-.05V6Z"/><polygon class="cls-5" points="12.56 6.08 12.56 6.23 12.38 6.23 12.39 6.08 12.56 6.08"/><path d="M12.57,6.24h-.19V6.08h.18v.17Zm0-.16h-.16v.14h.15V6.08Z"/><path class="cls-5" d="M11.9,6h0V6h0V6h0V6h0V6h.05v.08s0,0,0,0h-.18s0,0,0,0V6Z"/><path d="M12.11,6.09h-.19l0,0V6L12,6V6h0V6L12,6V6h0V6l.06,0,0,.11,0,0ZM11.94,6h0v.07l.2,0V6h0V6H12V6h0V6H12V6Z"/><polygon class="cls-5" points="12.1 6.08 12.11 6.23 11.93 6.23 11.94 6.08 12.1 6.08"/><path d="M12.12,6.24h-.19V6.08h.18l0,.17Zm0-.16h-.16v.14h.16V6.08Z"/><path class="cls-5" d="M12.07,6.64a.31.31,0,0,1,.17-.3.28.28,0,0,1,.18.3Z"/><path class="cls-5" d="M11.92,6.35l0,.27h.18c0-.23.17-.26.18-.26a.26.26,0,0,1,.17.26h.18l0-.27Z"/><path d="M12.61,6.63h-.19a.27.27,0,0,0-.17-.26.23.23,0,0,0-.17.25h-.19l0-.28.66,0,0,.3Zm-.38-.28h-.31v.26h.16a.25.25,0,0,1,.16-.26Zm0,0a.28.28,0,0,1,.17.27h.16l0-.26Z"/><path class="cls-5" d="M11.88,6.62h.73a0,0,0,0,1,0,0s0,0,0,0h-.73s0,0,0,0,0,0,0,0Z"/><path d="M12.61,6.7h-.73a0,0,0,0,1,0,0,0,0,0,0,1,0,0h.73a0,0,0,0,1,0,0,0,0,0,0,1,0,0Zm-.73-.07v0h.73s0,0,0,0l-.75,0Z"/><path class="cls-5" d="M12.15,6.62a.19.19,0,0,1,.09-.18.19.19,0,0,1,.11.18Z"/><path d="M12.36,6.63h-.21c0-.16.09-.2.09-.2a.18.18,0,0,1,.12.19Zm-.12-.18a.18.18,0,0,0-.08.17h.17a.17.17,0,0,0-.09-.16Z"/><path class="cls-5" d="M11.9,6.23h.7s0,0,0,0,0,0,0,0h-.7a0,0,0,0,1,0,0,0,0,0,0,1,0,0Z"/><path d="M12.6,6.3h-.7a0,0,0,0,1,0,0,0,0,0,0,1,0,0h.7s0,0,0,0,0,0,0,0Zm-.7-.06v0h.7s0,0,0,0l-.71,0Z"/><path class="cls-5" d="M11.91,6.29h.67a0,0,0,0,1,0,0,0,0,0,0,1,0,0h-.67s0,0,0,0,0,0,0,0Z"/><path d="M12.58,6.37h-.67s0,0,0,0,0,0,0,0h.67a0,0,0,0,1,0,0,0,0,0,0,1,0,0Zm-.67-.07v0h.67s0,0,0,0l-.68,0Z"/><path d="M12.23,6s0,0,0,0v.07h0V6Z"/><path d="M12.46,6.14s0,0,0,0v.05h0V6.14Z"/><path d="M12,6.14a0,0,0,1,1,0,0v.05h0V6.14Z"/><path class="cls-5" d="M8.23,7.83h0v0h0v0h0v0h0v0h.05v.08s0,0,0,0H8.25s0,0,0,0V7.83Z"/><path d="M8.44,8h-.2l0,0V7.83h.06v0h0v0h.06v0h0v0h.06v.1l0,0Zm-.17-.12h0v.07l.2,0V7.83h0v0H8.37v0h0v0H8.28v0Z"/><polygon class="cls-5" points="8.42 7.94 8.44 8.22 8.25 8.22 8.26 7.94 8.43 7.94 8.42 7.94"/><path d="M8.45,8.23h-.2V7.94h.17l0,.3Zm0-.29H8.26v.27h.17l0-.27Z"/><path class="cls-5" d="M8.46,8h0V8h0V8H8.6V8h0V8h.06v.09l0,0H8.48l0,0V8Z"/><path d="M8.67,8.08h-.2l0,0V8h.06V8h0V8H8.6V8h0V8h.07v.11l0,0ZM8.5,8h0v.08l.21,0V8h0V8h0V8H8.54V8h0V8Z"/><polygon class="cls-5" points="8.65 8.07 8.66 8.22 8.48 8.22 8.49 8.07 8.65 8.07"/><path d="M8.67,8.23H8.48V8.07h.17l0,.17Zm0-.16H8.49v.14h.16V8.07Z"/><path class="cls-5" d="M8,8h.05V8h0V8h.05V8h0V8h.05v.09l0,0H8l0,0V8Z"/><path d="M8.21,8.08H8l0,0V8h.06V8h0V8h.06V8h0V8h.06v.11l0,0ZM8,8H8v.08l.2,0V8h0V8h0V8h0V8h0V8Z"/><polygon class="cls-5" points="8.2 8.07 8.21 8.22 8.03 8.22 8.03 8.07 8.2 8.07"/><path d="M8.21,8.23H8V8.07H8.2v.17Zm0-.16H8v.14h.15V8.07Z"/><path class="cls-5" d="M8.17,8.62a.29.29,0,0,1,.17-.29.3.3,0,0,1,.18.3Z"/><path class="cls-5" d="M8,8.33l0,.28h.18c0-.23.17-.27.17-.26a.25.25,0,0,1,.18.26H8.7l0-.28Z"/><path d="M8.71,8.62H8.52a.26.26,0,0,0-.18-.26s-.16,0-.16.25H8l0-.29h.66l0,.3Zm-.38-.28H8l0,.27h.17a.23.23,0,0,1,.16-.26Zm0,0a.28.28,0,0,1,.17.27h.16l0-.27Z"/><path class="cls-5" d="M8,8.61h.73a0,0,0,0,1,0,0,0,0,0,0,1,0,0H8s0,0,0,0a0,0,0,0,1,0,0Z"/><path d="M8.71,8.69H8a0,0,0,0,1,0,0,0,0,0,0,1,0,0h.73a0,0,0,0,1,0,0,0,0,0,0,1,0,0ZM8,8.62v.05h.73s0,0,0,0L8,8.62Z"/><path class="cls-5" d="M8.25,8.61a.21.21,0,0,1,.09-.19.21.21,0,0,1,.1.19Z"/><path d="M8.46,8.62H8.25c0-.16.08-.2.09-.2s.11,0,.11.19Zm-.12-.19a.26.26,0,0,0-.09.18h.18a.22.22,0,0,0-.09-.17Z"/><path class="cls-5" d="M8,8.22h.69a0,0,0,0,1,0,0,0,0,0,0,1,0,0H8a0,0,0,0,1,0,0,0,0,0,0,1,0,0Z"/><path d="M8.69,8.29H8s0,0,0,0a0,0,0,0,1,0,0h.69a0,0,0,1,1,0,.08ZM8,8.23v0h.69l0,0L8,8.23Z"/><path class="cls-5" d="M8,8.28h.67s0,0,0,0,0,0,0,0H8a0,0,0,0,1,0,0l0,0Z"/><path d="M8.68,8.35H8a0,0,0,0,1,0-.08h.67s0,0,0,0,0,0,0,0ZM8,8.29v0h.67s0,0,0,0L8,8.29Z"/><path d="M8.33,8s0,0,0,0V8.1h0V8Z"/><path d="M8.55,8.13a0,0,0,1,1,0,0v0h0v0Z"/><path d="M8.1,8.13s0,0,0,0v0h0v0Z"/><path class="cls-5" d="M12,9.93l0,0,0,0,0,0,0,0,0,0,0,0,0,0,0,0,0,0-.06.07h0L12,10a0,0,0,0,1,0,0L12,9.93Z"/><path d="M12.11,10.17h0L11.94,10v0L12,9.92l.05,0,0,0h0v0l0,0,0,0,0,0,0,0,0,0-.08.08ZM12,9.93,12,10l.15.16h0l.06-.06,0,0,0,0,0,0,0,0,0,0v0l0,0,0,0,0,0Z"/><polygon class="cls-5" points="12.07 10.15 11.88 10.35 11.76 10.22 11.96 10.04 12.07 10.15"/><path d="M11.88,10.37l-.13-.14L12,10l.13.11-.2.23ZM12,10l-.19.19.12.11.18-.2L12,10Z"/><path class="cls-5" d="M12.08,10.19l0,0,0,0,0,0,0,0,0,0,0,0,0,0,0,0,0,0-.07.06h0L12,10.28s0,0,0,0l.06-.06Z"/><path d="M12.17,10.43h0L12,10.28v0l.06-.06,0,0,0,0h0l0,0,0,0,0,0h0v0l.05,0-.08.09Zm-.1-.24,0,.06.14.17v0l.06-.06,0,0v0l0,0,0,0,0,0,0,0,0,0,0,0,0,0Z"/><polygon class="cls-5" points="12.14 10.4 12.04 10.51 11.92 10.39 12.03 10.28 12.14 10.4 12.14 10.4"/><path d="M12,10.53l-.13-.14.11-.11.13.11-.11.14Zm0-.24-.09.1.11.11.1-.11-.12-.1Z"/><path class="cls-5" d="M11.76,9.86l0,0,0,0,0,0,0,0,0,0,0,0,0,0,0,0,0,0-.06.06h0L11.7,10a0,0,0,0,1,0,0l.06-.06Z"/><path d="M11.85,10.1h0L11.69,10v0l.06-.06.05,0,0,0,0,0v0l.06,0,0,0h0v0l0,0-.08.08Zm-.1-.23,0,.06.14.16h0l.07-.06,0,0v0l0,0,0,0,0,0v0l0,0,0,0,0,0Z"/><polygon class="cls-5" points="11.82 10.08 11.72 10.19 11.6 10.06 11.7 9.96 11.82 10.08"/><path d="M11.72,10.21l-.13-.14L11.7,10l.13.12-.11.14Zm0-.24-.1.1.12.1.09-.1L11.7,10Z"/><path class="cls-5" d="M11.41,10.45a.31.31,0,0,1,.33-.09.29.29,0,0,1-.08.34l-.25-.25Z"/><path class="cls-5" d="M11.51,10.14l-.21.17.12.13c.16-.16.31-.07.31-.06a.26.26,0,0,1-.06.31l.13.12L12,10.6l-.46-.46Z"/><path d="M11.8,10.83l-.14-.14a.28.28,0,0,0,.06-.31h0a.24.24,0,0,0-.1,0,.26.26,0,0,0-.19.09l-.14-.13.21-.19.48.46-.18.24Zm-.05-.45a.64.64,0,0,1,0,.09.3.3,0,0,1-.09.22l.12.11.16-.21-.21-.21Zm-.25-.23-.2.17.13.11a.27.27,0,0,1,.29-.07l-.22-.21Z"/><path class="cls-5" d="M11.29,10.31l.51.51a0,0,0,0,1,0,0,0,0,0,0,1,0,0l-.52-.52a0,0,0,0,1,0,0s0,0,0,0Z"/><path d="M11.77,10.89h0l-.52-.52a0,0,0,0,1,0-.06h0l.54.52s0,0,0,.06l0,0Zm-.52-.54.52.53,0,0-.51-.55,0,0Z"/><path class="cls-5" d="M11.48,10.49a.12.12,0,1,1,.14.14l-.14-.14Z"/><path d="M11.62,10.65l-.15-.15c.11-.14.21-.08.21-.08a.18.18,0,0,1-.06.22Zm0-.22a.25.25,0,0,0-.14.07l.14.12a.23.23,0,0,0,.05-.18Z"/><path class="cls-5" d="M11.57,10l.5.5a0,0,0,0,1,0,0h0l-.49-.49a0,0,0,0,1,0,0,0,0,0,0,1,0,0Z"/><path d="M12,10.6h0l-.5-.5a0,0,0,0,1,0-.05h.06l.49.49s0,0,0,.05l0,0Zm-.48-.55,0,0,.5.51,0,0-.5-.52Z"/><path class="cls-5" d="M11.54,10.1l.47.47a0,0,0,0,1,0,0h0l-.47-.47a0,0,0,0,1,0,0Z"/><path d="M12,10.63h0l-.47-.47a.06.06,0,0,1,0-.06h.06l.47.47a.06.06,0,0,1,0,.06Zm-.46-.53,0,0,.49.49v0l-.47-.5Z"/><path d="M11.94,10.14s.05,0,0,0l-.05.05,0,0,0,0Z"/><path d="M12,10.36s.05,0,0,0l0,0,0,0,0,0Z"/><path d="M11.71,10a0,0,0,1,1,0,0l0,0,0,0,0,0Z"/><path class="cls-5" d="M12.13,7.83h0v0h0v0h0v0h0v0h0v.08s0,0,0,0h-.19s0,0,0,0V7.83Z"/><path d="M12.34,8h-.2l0,0V7.83h.06v0l0,0v0h.06v0l0,0v0h.06v.1l0,0Zm-.17-.12h0v.07l.2,0V7.83h0v0h-.05v0h0v0h-.05v0Z"/><polygon class="cls-5" points="12.32 7.94 12.34 8.22 12.15 8.22 12.16 7.94 12.32 7.94"/><path d="M12.35,8.23h-.2V7.94h.17l0,.3Zm0-.29h-.15v.27h.17l0-.27Z"/><path class="cls-5" d="M12.35,8h.06V8h0V8h.06V8h0V8h.06v.09s0,0,0,0h-.18l0,0V8Z"/><path d="M12.56,8.08h-.19l0,0V8h.07V8h0V8h.07V8h0V8h.07v.11l0,0ZM12.4,8h-.05l0,.08.19,0,0,0V8h-.05V8h0V8h-.05V8h0V8Z"/><polygon class="cls-5" points="12.55 8.07 12.56 8.22 12.38 8.22 12.39 8.07 12.55 8.07"/><path d="M12.57,8.23h-.19V8.07h.17l0,.17Zm0-.16h-.15v.14h.16V8.07Z"/><path class="cls-5" d="M11.9,8h0V8h0V8h0V8h0V8h.05v.09l0,0h-.19l0,0V8Z"/><path d="M12.11,8.08h-.2l0,0V8H12V8h0V8H12V8h0V8h.06v.11l0,0ZM11.94,8h0v.08l.2,0V8h0V8H12V8h0V8H12V8Z"/><polygon class="cls-5" points="12.1 8.07 12.1 8.22 11.93 8.22 11.93 8.07 12.1 8.07"/><path d="M11.92,8.23V8.07h.18l0,.16Zm.17-.16h-.16v.13h.16V8.07Z"/><path class="cls-5" d="M12.07,8.62a.29.29,0,0,1,.17-.29.3.3,0,0,1,.18.3Z"/><path class="cls-5" d="M11.92,8.33l0,.28h.18c0-.23.17-.27.17-.26a.25.25,0,0,1,.18.26h.18l0-.28Z"/><path d="M12.61,8.62h-.19a.27.27,0,0,0-.18-.26s-.16,0-.16.25h-.19l0-.29h.66l0,.3Zm-.39-.28h-.3l0,.26h.17a.24.24,0,0,1,.15-.26Zm0,0a.28.28,0,0,1,.17.27h.16l0-.27Z"/><path class="cls-5" d="M11.88,8.61h.73a0,0,0,0,1,0,0,0,0,0,0,1,0,0h-.73a0,0,0,0,1,0,0,0,0,0,0,1,0,0Z"/><path d="M12.61,8.69h-.73a0,0,0,0,1,0,0,0,0,0,0,1,0,0h.73a0,0,0,0,1,0,0,0,0,0,0,1,0,0Zm-.73-.07v.05h.73s0,0,0,0l-.74,0Z"/><path class="cls-5" d="M12.14,8.61a.19.19,0,0,1,.1-.18.19.19,0,0,1,.1.18Z"/><path d="M12.35,8.62h-.21c0-.16.09-.2.1-.2s.11,0,.11.19Zm-.11-.19a.23.23,0,0,0-.08.18h.17a.2.2,0,0,0-.09-.17Z"/><path class="cls-5" d="M11.9,8.22h.69a0,0,0,0,1,0,0,0,0,0,0,1,0,0H11.9a0,0,0,0,1,0,0,0,0,0,0,1,0,0Z"/><path d="M12.59,8.29H11.9a0,0,0,0,1,0-.08h.69a0,0,0,1,1,0,.08Zm-.69-.06v0h.69l0,0-.71,0Z"/><path class="cls-5" d="M11.91,8.28h.67s0,0,0,0,0,0,0,0h-.67a0,0,0,0,1,0,0l0,0Z"/><path d="M12.58,8.35h-.67a0,0,0,0,1,0,0,0,0,0,0,1,0,0h.67s0,0,0,0,0,0,0,0Zm-.67-.06v0h.67v0l-.68,0Z"/><path d="M12.23,8s0,0,0,0V8.1h0V8Z"/><path d="M12.45,8.13a0,0,0,1,1,0,0v0h0v0Z"/><path d="M12,8.13s0,0,0,0v0h0v0Z"/><path class="cls-5" d="M8.42,10.09l0,0,0,0,0,0,0,0,0,0,0,0,0,0,0,0,0,0,.06.06a0,0,0,0,1,0,0l-.14.13h0l-.06-.06Z"/><path d="M8.49,10.17h0l-.06-.06,0,0,0,0v0l0,0,0,0,.05,0v0h0l0-.05.08.06v0l-.16.15Zm0-.11,0,0,.06.06v0L8.64,10l-.06-.08,0,0h0l0,0-.05,0,0,0,0,0,0,0,0,0Z"/><polygon class="cls-5" points="8.64 10.03 8.85 10.22 8.71 10.35 8.53 10.15 8.64 10.03"/><path d="M8.71,10.37l-.19-.22L8.63,10l.22.18-.14.16ZM8.63,10l-.1.11.18.18.13-.12L8.63,10Z"/><path class="cls-5" d="M8.68,10l0,0,0,0,0,0,0,0,0,0,0,0,0,0,0,0,0,0,.06.06a0,0,0,0,1,0,0l-.13.13h0L8.68,10Z"/><path d="M8.75,10.1h0L8.67,10l0,0,0,0v0h0l0-.05,0,0v0h0l0-.06.08.07v0l-.16.14Zm0-.1,0,0,.07.06h0L8.89,10l-.06-.08,0,0h0l0,0,0,0,0,0h0l0,0,0,0Z"/><polygon class="cls-5" points="8.89 9.96 9 10.06 8.88 10.19 8.78 10.08 8.89 9.96"/><path d="M8.88,10.2l-.11-.11L8.89,10l.12.1-.13.15Zm0-.23-.11.12.1.08L9,10.05,8.89,10Z"/><path class="cls-5" d="M8.35,10.35l0,0,0,0,0,0,0,0,0,0,0,0,0,0,0,0,0,0,.06.06a0,0,0,0,1,0,0l-.13.13h0l-.07-.06Z"/><path d="M8.43,10.42h0l-.06-.06,0-.06,0,0v0h0l0,0,0,0v0h0l0-.05.08.06v0l-.16.14Zm0-.1,0,0,.07.05h0l.13-.13-.06-.08,0,0h0l0,0,0,0,0,0h0l0,0,0,0Z"/><polygon class="cls-5" points="8.57 10.28 8.68 10.38 8.56 10.51 8.45 10.4 8.57 10.28"/><path d="M8.56,10.53l-.11-.12.11-.13.13.1-.13.15Zm0-.24-.1.12.1.09.11-.12-.11-.09Z"/><path class="cls-5" d="M8.94,10.7a.3.3,0,0,1-.08-.33.26.26,0,0,1,.33.08l-.25.25Z"/><path class="cls-5" d="M8.63,10.59l.17.22.13-.13a.23.23,0,0,1-.06-.31.28.28,0,0,1,.31.06l.12-.12-.21-.17-.46.45Z"/><path d="M8.8,10.82l-.18-.22.46-.47.23.17-.12.14A.4.4,0,0,0,9,10.36a.33.33,0,0,0-.11,0h0a.24.24,0,0,0,.07.29l-.14.15Zm0-.43-.21.21.16.19.12-.12a.22.22,0,0,1-.09-.22.11.11,0,0,1,0-.06ZM9,10.34a.32.32,0,0,1,.21.09l.11-.13-.22-.15-.2.21.1,0Z"/><path class="cls-5" d="M8.8,10.82l.51-.52a0,0,0,0,1,0,0,0,0,0,0,1,0,0l-.52.52s0,0,0,0a0,0,0,0,1,0,0Z"/><path d="M8.83,10.88h0a.06.06,0,0,1,0-.06l.51-.52h.06s0,0,0,.06l-.54.52Zm.5-.57-.53.52v0h0l.51-.52v0Z"/><path class="cls-5" d="M9,10.63a.19.19,0,0,1-.06-.2.19.19,0,0,1,.2.06L9,10.63Z"/><path d="M9,10.64H9a.2.2,0,0,1-.07-.21s.11-.06.22.05L9,10.64Zm-.05-.2a.17.17,0,0,0,.05.17l.14-.13a.23.23,0,0,0-.19,0Z"/><path class="cls-5" d="M8.53,10.53,9,10h0a0,0,0,0,1,0,0l-.49.5a0,0,0,0,1,0,0s0,0,0,0Z"/><path d="M8.56,10.59h0v-.05L9,10h.06a.06.06,0,0,1,0,.06l-.52.5Zm0,0h0l.49-.49v0h0l-.51.5v0Z"/><path class="cls-5" d="M8.59,10.57l.47-.48a0,0,0,0,1,0,0,0,0,0,0,1,0,0l-.47.47h0s0,0,0,0Z"/><path d="M8.61,10.63l0,0a0,0,0,0,1,0,0l.47-.47h.06a0,0,0,0,1,0,.05l-.5.49Zm0,0v0l.47-.47v0h0l-.49.47v0Z"/><path d="M8.63,10.16a0,0,0,1,1,0,0l.05,0,0,0,0-.05Z"/><path d="M8.86,10.07a0,0,0,0,1,0,0l0,0,0,0,0,0Z"/><path d="M8.54,10.39s0-.05,0,0l0,0,0,0,0,0Z"/></g></g></g></g></g></g></svg>