<svg xmlns="http://www.w3.org/2000/svg" xmlns:xlink="http://www.w3.org/1999/xlink" viewBox="0 0 29.46 17.19"><defs><style>.cls-1{fill:none;}.cls-2{clip-path:url(#clip-path);}.cls-3{fill:#681840;}.cls-4{fill:#fff;}</style><clipPath id="clip-path"><rect class="cls-1" width="29.46" height="17.19"/></clipPath></defs><g id="Layer_2" data-name="Layer 2"><g id="cá»"><g id="west_asia" data-name="west asia"><g class="cls-2"><polygon class="cls-3" points="8.78 0 11.91 0.95 8.78 1.91 11.91 2.86 8.78 3.82 11.91 4.77 8.78 5.73 11.91 6.68 8.78 7.64 11.91 8.59 8.78 9.55 11.91 10.5 8.78 11.46 11.91 12.41 8.78 13.37 11.91 14.32 8.78 15.28 11.91 16.23 8.78 17.19 29.46 17.19 29.46 0 8.78 0"/><polygon class="cls-4" points="0 0 0 17.19 8.78 17.19 11.91 16.23 8.78 15.28 11.91 14.32 8.78 13.37 11.91 12.41 8.78 11.46 11.91 10.5 8.78 9.55 11.91 8.59 8.78 7.64 11.91 6.68 8.78 5.73 11.91 4.77 8.78 3.82 11.91 2.86 8.78 1.91 11.91 0.95 8.78 0 0 0"/></g></g></g></g></svg>