<svg xmlns="http://www.w3.org/2000/svg" xmlns:xlink="http://www.w3.org/1999/xlink" viewBox="0 0 29.46 17.19"><defs><style>.cls-1{fill:none;}.cls-2{clip-path:url(#clip-path);}.cls-3{fill:#fff;}.cls-4{fill:#b50037;}.cls-5{fill:#1e3476;}</style><clipPath id="clip-path"><rect class="cls-1" width="29.46" height="17.19"/></clipPath></defs><g id="Layer_2" data-name="Layer 2"><g id="cá»"><g id="east_asia" data-name="east asia"><g class="cls-2"><rect class="cls-3" width="29.46" height="17.19"/><rect x="19.39" y="2.87" width="0.72" height="1.97" transform="translate(1.18 11.6) rotate(-33.69)"/><rect x="20.68" y="4.8" width="0.72" height="1.97" transform="matrix(0.83, -0.55, 0.55, 0.83, 0.32, 12.64)"/><rect x="20.93" y="2.08" width="0.72" height="4.3" transform="translate(1.23 12.51) rotate(-33.68)"/><rect x="21.18" y="1.67" width="0.72" height="1.97" transform="translate(2.14 12.39) rotate(-33.69)"/><rect x="22.47" y="3.61" width="0.72" height="1.97" transform="translate(1.28 13.43) rotate(-33.69)"/><rect x="8.71" y="10.22" width="0.72" height="4.3" transform="translate(-5.34 7.11) rotate(-33.69)"/><rect x="7.17" y="11.01" width="0.72" height="1.97" transform="translate(-5.39 6.19) rotate(-33.7)"/><rect x="8.46" y="12.95" width="0.72" height="1.97" transform="translate(-6.24 7.23) rotate(-33.69)"/><rect x="6.92" y="11.41" width="0.72" height="4.3" transform="translate(-6.3 6.32) rotate(-33.69)"/><rect x="6.92" y="4.46" width="4.3" height="0.72" transform="translate(0.03 9.69) rotate(-56.31)"/><rect x="6.03" y="3.87" width="4.3" height="0.72" transform="translate(0.13 8.68) rotate(-56.31)"/><rect x="5.13" y="3.27" width="4.3" height="0.72" transform="translate(0.23 7.68) rotate(-56.32)"/><rect x="18.76" y="12.98" width="1.97" height="0.72" transform="translate(-2.3 22.37) rotate(-56.31)"/><rect x="20.05" y="11.04" width="1.97" height="0.72" transform="translate(-0.12 22.58) rotate(-56.31)"/><rect x="19.65" y="13.57" width="1.97" height="0.72" transform="translate(-2.4 23.38) rotate(-56.31)"/><rect x="20.95" y="11.64" width="1.97" height="0.72" transform="translate(-0.22 23.58) rotate(-56.3)"/><rect x="20.55" y="14.17" width="1.97" height="0.72" transform="translate(-2.5 24.38) rotate(-56.3)"/><rect x="21.84" y="12.23" width="1.97" height="0.72" transform="translate(-0.31 24.6) rotate(-56.31)"/><g class="cls-2"><path class="cls-4" d="M11.16,6.21l-.05.07.05-.07"/><path class="cls-4" d="M17.11,5a4.29,4.29,0,0,0-5.95,1.19,2.15,2.15,0,1,0,3.57,2.38A2.15,2.15,0,0,1,18.31,11a4.3,4.3,0,0,0-1.2-6"/><path class="cls-5" d="M11.16,6.21a2.15,2.15,0,1,0,3.57,2.38A2.15,2.15,0,0,1,18.31,11a4.3,4.3,0,0,1-7.15-4.77"/></g></g></g></g></g></svg>