<svg xmlns="http://www.w3.org/2000/svg" xmlns:xlink="http://www.w3.org/1999/xlink" viewBox="0 0 29.46 17.19"><defs><style>.cls-1{fill:none;}.cls-2{clip-path:url(#clip-path);}.cls-3{fill:#3e81c5;}.cls-4{fill:#f1d62f;}.cls-5{fill:#347d59;}.cls-6{fill:#dfad29;}</style><clipPath id="clip-path"><rect class="cls-1" width="29.46" height="17.19"/></clipPath></defs><g id="Layer_2" data-name="Layer 2"><g id="cá»"><g id="east_africa" data-name="east africa"><g class="cls-2"><rect class="cls-3" width="29.46" height="8.59"/><rect class="cls-4" y="8.59" width="29.46" height="4.3"/><rect class="cls-5" y="12.89" width="29.46" height="4.3"/><polygon class="cls-6" points="27.72 6.26 26.38 5.24 27.03 6.79 26 5.46 26.22 7.12 25.58 5.57 25.36 7.23 25.14 5.57 24.5 7.12 24.71 5.46 23.69 6.79 24.33 5.24 23 6.26 24.02 4.92 22.47 5.57 23.8 4.54 22.14 4.76 23.69 4.12 22.02 3.9 23.69 3.68 22.14 3.04 23.8 3.25 22.47 2.23 24.02 2.87 23 1.54 24.33 2.56 23.69 1.01 24.71 2.34 24.5 0.68 25.14 2.23 25.36 0.56 25.58 2.23 26.22 0.68 26 2.34 27.03 1.01 26.38 2.56 27.72 1.54 26.69 2.87 28.25 2.23 26.91 3.25 28.58 3.04 27.03 3.68 28.69 3.9 27.03 4.12 28.58 4.76 26.91 4.54 28.25 5.57 26.69 4.92 27.72 6.26"/><g class="cls-2"><path class="cls-6" d="M26.57,3.9a1.21,1.21,0,1,1-1.21-1.21A1.21,1.21,0,0,1,26.57,3.9Z"/><path class="cls-3" d="M25.36,5.17A1.28,1.28,0,1,1,26.63,3.9a1.28,1.28,0,0,1-1.27,1.27Zm0-2.42A1.15,1.15,0,1,0,26.51,3.9a1.14,1.14,0,0,0-1.15-1.15Z"/></g></g></g></g></g></svg>