<svg xmlns="http://www.w3.org/2000/svg" xmlns:xlink="http://www.w3.org/1999/xlink" viewBox="0 0 29.46 17.19"><defs><style>.cls-1{fill:none;}.cls-2{clip-path:url(#clip-path);}.cls-3{fill:#bc0030;}.cls-4{fill:#1c2a7d;}.cls-5{fill:#fff;}</style><clipPath id="clip-path"><rect class="cls-1" width="29.46" height="17.19"/></clipPath></defs><g id="Layer_2" data-name="Layer 2"><g id="cá»"><g id="polynesia"><g class="cls-2"><rect class="cls-3" width="29.46" height="17.19"/><rect class="cls-4" width="15.74" height="7.87"/><polygon class="cls-5" points="7.87 5.46 8.55 7.54 6.78 6.26 8.96 6.26 7.19 7.54 7.87 5.46"/><polygon class="cls-5" points="5.47 2.3 6.01 3.96 4.59 2.93 6.34 2.93 4.92 3.96 5.47 2.3"/><polygon class="cls-5" points="10.33 1.97 10.84 3.53 9.51 2.56 11.15 2.56 9.82 3.53 10.33 1.97"/><polygon class="cls-5" points="7.87 0.33 8.41 1.99 7 0.96 8.74 0.96 7.33 1.99 7.87 0.33"/><polygon class="cls-5" points="9.07 3.99 9.41 5.03 8.53 4.39 9.62 4.39 8.73 5.03 9.07 3.99"/></g></g></g></g></svg>