<svg xmlns="http://www.w3.org/2000/svg" xmlns:xlink="http://www.w3.org/1999/xlink" viewBox="0 0 29.46 17.19"><defs><style>.cls-1{fill:none;}.cls-2{clip-path:url(#clip-path);}.cls-3{fill:#3d9635;}.cls-4{fill:#fff;}</style><clipPath id="clip-path"><rect class="cls-1" width="29.46" height="17.19"/></clipPath></defs><g id="Layer_2" data-name="Layer 2"><g id="cá»"><g id="west_asia" data-name="west asia"><g class="cls-2"><rect class="cls-3" width="29.46" height="17.19"/><g class="cls-2"><path class="cls-4" d="M8.34,4.87c0,.4-.07,1.11.27,1.18s.19-.7.34-.83.08-.07.08,0v.62a.3.3,0,0,0,.24.31c.1,0,.18,0,.22.1,0,.36,0,.72,0,1.08,0,0,.25.07.26-.61,0-.4-.08-.73,0-.81s.1-.08.16,0,.16.17.33.13.41-.19.41-.39a1.61,1.61,0,0,0-.12-.56s-.05-.12,0-.15.11.06.13,0a.57.57,0,0,0-.22-.34.16.16,0,0,0-.27.1.89.89,0,0,0,.2.6.56.56,0,0,1,.06.3.16.16,0,0,1-.21,0S10,5.39,10,5.36c.06-.35,0-.39,0-.48s-.09-.18-.14-.27a.09.09,0,0,0-.15,0,.88.88,0,0,0,0,.64c0,.14.11.22.08.22s-.08.06-.13,0a2.17,2.17,0,0,1-.07-.58c0-.16,0-.49-.14-.57a.1.1,0,0,0-.18,0,2.22,2.22,0,0,0,0,.45,4.51,4.51,0,0,1,.12.72c0,.34-.19.15-.18,0a1.7,1.7,0,0,0,0-.65c0-.09-.07-.11-.16-.09s-.23.17-.27.47c0,0,0,.16-.06.3s-.13.26-.2,0-.1-.72-.2-.6"/><path class="cls-4" d="M9.46,6.52,8.38,7a1.1,1.1,0,0,1,.86-.69c.22,0,.16.08.22.17"/><path class="cls-4" d="M10.83,4.25l-.07,0a.19.19,0,0,0-.14.25c.1.63.17,1.11.27,1.74,0,.07,0,.17-.12.16s-.17-.28-.4-.27a.46.46,0,0,0-.39.36,1.13,1.13,0,0,0,0,.41.35.35,0,0,0,.39.1c.1,0,.18-.15.22-.12h0s0,.37-.48.62c-.29.13-.53.16-.65-.08s0-.72-.19-.58c-.56,1.46,1.33,1.66,1.54.06,0,0,.06-.09.08-.08s0,0,0,0c0,1.45-1.46,1.55-1.7,1.1a1.52,1.52,0,0,1-.09-.49.29.29,0,0,0-.05-.16c-.06,0-.14.07-.16.26a2.2,2.2,0,0,0,0,.36c.07,1.14,1.9.65,2.2-.3a2.92,2.92,0,0,0,0-.9h0c.18.2.43,0,.49,0a.09.09,0,0,1,.13,0,.3.3,0,0,0,.44-.13A4.46,4.46,0,0,0,12.29,6a.57.57,0,0,0-.2.08,0,0,0,0,0,0,0l0,.15v0h0s-.09,0-.09,0c0-.2-.23-.22-.33.09-.08.06-.21.07-.23,0s-.06-.24-.23-.14C11.1,5.8,11,5.41,11,5c.07,0,.13,0,.2,0a2.37,2.37,0,0,0-.3-.7h-.06M10.32,6.5a.1.1,0,0,1,.1.06.1.1,0,0,1,0,.11h0s-.06,0-.1,0a.12.12,0,0,1-.09-.05s0-.08,0-.1h0a.07.07,0,0,1,.06,0"/><path class="cls-4" d="M12.1,4.21a.25.25,0,0,0-.12,0,.24.24,0,0,0-.05.32c.08,0,.15.11.1.15-.2.21-.73.58-.76.64h0a1.67,1.67,0,0,0,.39,0h0a5.1,5.1,0,0,0,.66-.66l-.09-.06s0-.05,0-.08a.21.21,0,0,0,0-.33l-.17,0m0,.19a.12.12,0,0,1,.09.07s0,.09,0,.1-.08,0-.1-.07,0-.09,0-.09h0"/><path class="cls-4" d="M8.42,7.55a1.09,1.09,0,0,0-.11,1,.24.24,0,0,0,.23.08.43.43,0,0,0,.15-.41c0-.07-.07-.08-.11,0s-.13.06-.14-.05a2.69,2.69,0,0,1,0-.51c0-.14,0-.09-.05,0"/><path class="cls-4" d="M17.05,7a11.15,11.15,0,0,0-.55-1c-.09-.16-.74-1.1-.83-1.21s.34.11-.07-.39l-.3-.25c-.06-.05-.22-.13-.25,0a.7.7,0,0,0,0,.29,1.28,1.28,0,0,0,.17.26A18.38,18.38,0,0,1,17,7.65c.09,0,.07-.54,0-.61"/><path class="cls-4" d="M16.19,8.44c0,.05.1.23.27.23a1,1,0,0,0,.78-.62,1,1,0,0,0,.18-.48,10.93,10.93,0,0,0-.19-2.43.46.46,0,0,1,0-.17s.09,0,.12,0-.13-.47-.23-.63-.05-.12-.12,0a1,1,0,0,0-.1.46c.14,1,.18,1.79.27,2.75a.37.37,0,0,1-.06.28,2.62,2.62,0,0,1-.92.66"/><path class="cls-4" d="M20.1,8.44c-.2.12-.2.26,0,.26a1,1,0,0,0,.87-.41,1.23,1.23,0,0,0,.14-.54,12.37,12.37,0,0,0-.15-2.62,1.38,1.38,0,0,1,0-.25s.11,0,.14,0-.24-.42-.34-.58-.05-.13-.11,0a.69.69,0,0,0-.06.46,27.36,27.36,0,0,1,.29,3,1.49,1.49,0,0,1-.06.25,2.41,2.41,0,0,1-.28.33c-.1.07-.3.14-.37.19"/><path class="cls-4" d="M20.26,7.51V6.87c0-.18-.09-.86-.12-1s-.06-.37-.1-.54A2.39,2.39,0,0,1,20,5s.09,0,.12-.06a1.93,1.93,0,0,0-.28-.76c0-.07-.11,0-.19.07s0,.25,0,.41A16,16,0,0,1,20,7.94c0,.08.3-.27.3-.43"/><path class="cls-4" d="M18.73,6.16c-.14,0-.41-.25-.49-.4a.24.24,0,0,1,0-.21s.12-.07.18,0,0,.08,0,.09.1,0,.11,0,0-.08,0-.14a.15.15,0,0,1,.27-.08.6.6,0,0,1,.07.27c0,.05-.07,0-.11,0s-.05,0-.05.09,0,.29,0,.42"/><path class="cls-4" d="M16.31,7.78a11.58,11.58,0,0,0,0-1.2,13,13,0,0,0-.13-1.5c0-.28.12,0,.1-.13a1.76,1.76,0,0,0-.39-.72c-.06-.09-.06-.1-.15,0s0,.38,0,.56A10.11,10.11,0,0,1,16,6.44a14.24,14.24,0,0,1,0,1.73c.1,0,.26-.15.31-.39"/><path class="cls-4" d="M20.71,7.25c-.24-.39-.58-.84-.68-1s-.87-1.3-1-1.41c-.29-.3.13,0-.06-.28a2,2,0,0,0-.34-.33c-.07,0-.11-.13-.13,0a2.35,2.35,0,0,0,0,.37.49.49,0,0,0,.11.23,21.19,21.19,0,0,1,2.07,3c.09-.05.06-.54,0-.61"/><path class="cls-4" d="M17.92,11.81h0a.2.2,0,0,0-.06.36c-2.15,0-5.46,0-6.16,0-.4,0-1.65-.05-1.68-.05a1.27,1.27,0,0,0,1.17.49l6.64,0a.46.46,0,0,0,.08.47h0c.08,0,.12,0,.15-.08s.89,0,1,0h0c0,.06.09.13.18.12s.28-.05.28-.37c0,0,0-.54-.37-.51l-.32,0a6.39,6.39,0,0,0-.78-.05s.07-.18,0-.24a.08.08,0,0,0-.07,0h0a.69.69,0,0,1,0-.1h0m.14.78h0c.32,0,.61,0,.92,0a.1.1,0,0,1,0,.15H18.7v0c0-.07-.2-.07-.24,0h0a1.79,1.79,0,0,1-.4,0c0-.05,0-.14,0-.16"/><path class="cls-4" d="M12.47,4.54c-.21.6.12,1.26.35,1.19s.27-.24.34-.59c0-.09.08-.1.1,0,0,.45,0,.55.15.69a.37.37,0,0,0,.5,0l.2-.2a.12.12,0,0,1,.17,0c.07.06.06.15.19.22a.42.42,0,0,0,.41-.08A1.66,1.66,0,0,1,15,5.49c.05-.07.14,0,.14,0s-.06.08,0,.15.08,0,.12,0,.23-.35.23-.35-.05-.1-.09-.07l-.1.07c-.07,0-.2,0-.26,0S15,5,14.91,4.84s-.09-.19,0-.2.13,0,.14,0-.09-.27-.18-.36a.19.19,0,0,0-.29,0c-.07.06-.06.14-.07.21a.33.33,0,0,0,.06.29.87.87,0,0,1,.17.59.24.24,0,0,1-.22.1s-.14,0-.19-.39,0-.66-.11-.84-.07-.21-.17,0a.41.41,0,0,0-.06.41,1.2,1.2,0,0,1,.06.63,1,1,0,0,1-.12.17.19.19,0,0,1-.26,0,.27.27,0,0,1-.15-.22,2.84,2.84,0,0,0,0-.7.12.12,0,0,0-.21,0,1.64,1.64,0,0,0-.39.79c-.06.19-.12.13-.16.06s-.12-.9-.25-.77"/><path class="cls-4" d="M13.18,5.78h0s0,0-.07,0A.34.34,0,0,0,13,6.1s.12.33.22.55a1.89,1.89,0,0,1,.08.75,1.88,1.88,0,0,1-.75.78.42.42,0,0,1-.32,0h0A.2.2,0,0,1,12.18,8h0a1.71,1.71,0,0,0,.75-.78.75.75,0,0,0,0-.56.48.48,0,0,0-.12-.26h0s.15.06.17,0a.88.88,0,0,0-.22-.4.18.18,0,0,0-.26,0c-.1,0-.12.24-.07.4s.18.14.27.38h0a.54.54,0,0,1,0,.25,3.07,3.07,0,0,1-.57.53h0V7.47c0-.07,0-.23,0-.26h0c-.16.11-.21.43-.24.53a7.4,7.4,0,0,0-1.15.78c-.14.22,1-.25,1.09-.31h0s0,.12.1.2a.56.56,0,0,0,.59.19,1.91,1.91,0,0,0,.87-.71s.08-.09.13,0a1.36,1.36,0,0,0,1.22.64c.14-.17.08-.25,0-.29s-.3-.12-.34-.23,0-.19.17-.26a5.94,5.94,0,0,0,1.13-.21.9.9,0,0,1,.13-.39A.14.14,0,0,1,15.94,7h0l-.06,0H14.61l0,0c.3,0,.82-.12.85-.62a.41.41,0,1,0-.81,0c0,.07,0,.2,0,.22-.45,0-1,.32-1,.52h0a.14.14,0,0,1-.07-.13,2.32,2.32,0,0,0-.31-1l-.1-.09h0M15,6.23a.2.2,0,0,1,.1,0s.08.07.07.11h0a.12.12,0,0,1-.13,0c-.05,0-.08-.07-.07-.11h0m-1.14,1h0a3.83,3.83,0,0,0,.52.05c.14,0,.21.12.08.17s-.26.08-.26.27a.29.29,0,0,1,0,.17h0s-.08,0-.12,0a.7.7,0,0,1-.34-.5.13.13,0,0,1,.13-.13"/><path class="cls-4" d="M9.89,4.55c.14.07.4,0,.39-.19a.41.41,0,0,0,0-.11c0-.07-.1,0-.12,0s0,.06,0,.07-.06,0-.06-.06a.08.08,0,0,0,0,0h0s0,0,0,0a.13.13,0,0,0,0,.06,0,0,0,0,1,0,0h0s0,0,0,0,0,0,0,0l0,0c-.08,0-.08.09-.08.12a.2.2,0,0,0,.1.21"/><path class="cls-4" d="M14,6.3c.14.07.48,0,.4-.19,0,0,0-.09,0-.1s-.11,0-.13,0,0,0,0,.07,0,0,0-.06,0,0,0-.06h0s0,0,0,0,0,0,0,0a0,0,0,0,1,0,0h0l0,0s0,0,0-.06l0,0c-.08,0-.08.09-.08.12s0,.17.1.21"/><path class="cls-4" d="M16.45,5.58c.14.06.4,0,.39-.19V5.28c0-.07-.11,0-.13,0s0,.06,0,.07-.06,0-.06-.06a.08.08,0,0,0,0,0h0s0,0,0,0,0,0,0,.06a0,0,0,0,1,0,0h0s0,0,0,0a.13.13,0,0,0,0-.06h0c-.08,0-.08.08-.08.12a.2.2,0,0,0,.1.21"/><path class="cls-4" d="M17.7,7.4a.84.84,0,0,0-.08.84.63.63,0,0,0,.3.34.22.22,0,0,0,.32,0c.14-.15.15-.54.21-.61a.13.13,0,0,1,.23-.06.45.45,0,0,0,.21.18.34.34,0,0,0,.45,0,.48.48,0,0,0,.24-.29,9.55,9.55,0,0,0,0-1.74s-.14-.71-.14-.72,0-.34,0-.42,0,0,0,0l.06,0s.07-.06,0-.12l-.33-.62s-.07-.05-.11,0a.25.25,0,0,0-.08.18c0,.15,0,.3,0,.45s.09.5.14.76c0,.54.05,1,.09,1.57,0,.23-.07.53-.14.56a.15.15,0,0,1-.17,0,2,2,0,0,1-.25-.33.16.16,0,0,0-.24,0,3.21,3.21,0,0,0-.42.8c0,.06-.13.1-.24,0a1.08,1.08,0,0,1-.15-.78"/><path class="cls-4" d="M16.51,4.25a.47.47,0,0,1,.19.44c0,.15-.1.32-.14.3s0-.16,0-.3-.2-.26-.18-.31.07-.15.15-.13"/><path class="cls-4" d="M18.11,7.55a4.31,4.31,0,0,0,0-.68c0-.18-.2-1.64-.25-1.78s.2,0,.17-.19-.29-.46-.35-.63,0-.13-.11,0a1.47,1.47,0,0,0-.08.65A14.07,14.07,0,0,1,17.85,8c.09,0,.21-.22.26-.45"/><path class="cls-4" d="M20.27,4.62c.12.06.18.38.17.47s-.08.35-.13.33,0-.25,0-.32-.18-.28-.17-.34a.11.11,0,0,1,.14-.14"/><path class="cls-4" d="M11.69,7c.11,0,.17.28.16.35s-.08.25-.12.23,0-.18,0-.23-.17-.19-.16-.25.06-.11.13-.1"/><path class="cls-4" d="M8.74,4.18c.16,0,.17.28.16.36s-.08.26-.12.24,0-.19,0-.24-.16-.22-.14-.26.06-.12.13-.1"/><path class="cls-4" d="M12,5.31a.28.28,0,0,0-.09.38.2.2,0,0,0,.2.07c.12,0,.2-.23.2-.23s0-.07-.14.06-.07,0-.09,0a.32.32,0,0,1,0-.19c0-.06,0-.09-.1,0"/><path class="cls-4" d="M12.89,4.08a.44.44,0,0,0-.19.32c0,.09,0,.09,0,.14s.08,0,.16,0A.14.14,0,0,0,13,4.44c0-.1-.1,0-.11-.06s.05-.14.12-.24,0-.11-.09-.06"/><path class="cls-4" d="M13.65,4.22a2.31,2.31,0,0,0-.06.37c0,.09.1.13.16,0a1,1,0,0,0,.08-.4c0-.14-.12-.14-.18,0"/><path class="cls-4" d="M18.41,6.64l.67-.48c.07,0,.05.24,0,.24a2.43,2.43,0,0,1-.69.48s-.06-.18,0-.24"/><path class="cls-4" d="M19,6.64c.11.06.16.39.15.48s-.11.33-.16.3,0-.22,0-.29-.12-.29-.1-.34A.11.11,0,0,1,19,6.64"/><path class="cls-4" d="M15.11,8.09a1.42,1.42,0,0,1,.19-.16c.07,0,.13,0,.13,0s0,.13,0,.21,0,.08.09.06a.5.5,0,0,1,.3-.09c.08,0,.09.14,0,.14a1.86,1.86,0,0,0-.42.15.1.1,0,0,1-.12,0,.11.11,0,0,1,0-.12c0-.07,0-.11-.08-.1s-.08,0-.1,0,0-.06,0-.08"/><path class="cls-4" d="M19.7,8.27a.09.09,0,0,1,0,.13l-.13.11s0,.09,0,.11.41-.15.41-.15a.12.12,0,0,0,0-.1s-.09,0-.13,0-.09,0-.05-.07l.05-.09s0-.07-.07-.1h-.18s-.05,0-.06.08,0,.07.1.1"/></g></g></g></g></g></svg>