<svg xmlns="http://www.w3.org/2000/svg" xmlns:xlink="http://www.w3.org/1999/xlink" viewBox="0 0 29.46 17.19"><defs><style>.cls-1{fill:none;}.cls-2{clip-path:url(#clip-path);}.cls-3{fill:#fff;}.cls-4{fill:#ea0020;}.cls-5{fill:#3555e2;}.cls-6{fill:#f8e72a;}</style><clipPath id="clip-path"><rect class="cls-1" width="29.46" height="17.19"/></clipPath></defs><g id="Layer_2" data-name="Layer 2"><g id="Layer_1-2" data-name="Layer 1"><g id="EUROPE"><g id="SLOVENIA"><g class="cls-2"><rect class="cls-3" width="29.46" height="17.19"/><rect class="cls-4" y="11.46" width="29.46" height="5.73"/><rect class="cls-5" y="5.73" width="29.46" height="5.73"/><g class="cls-2"><path class="cls-4" d="M6.51,3.3l-.15.08L6.52,6a3,3,0,0,0,.85,1.88,2.83,2.83,0,0,0,1.23.73h0a2.83,2.83,0,0,0,1.23-.73A3,3,0,0,0,10.68,6l.16-2.6-.16-.08h0L10.52,6a2.78,2.78,0,0,1-.81,1.79,2.7,2.7,0,0,1-1.11.67h0a2.7,2.7,0,0,1-1.11-.67A2.78,2.78,0,0,1,6.68,6L6.51,3.3h0"/><path class="cls-5" d="M10.68,3.3A5.28,5.28,0,0,0,8.6,2.86a5.36,5.36,0,0,0-2.09.44L6.68,6a2.78,2.78,0,0,0,.81,1.79,2.7,2.7,0,0,0,1.11.67h0a2.7,2.7,0,0,0,1.11-.67A2.78,2.78,0,0,0,10.52,6"/><polyline class="cls-6" points="8.73 4.11 8.82 3.98 8.66 4 8.6 3.86 8.54 4 8.38 3.98 8.47 4.11 8.38 4.24 8.54 4.22 8.6 4.36 8.66 4.22 8.82 4.24"/><polyline class="cls-6" points="8.14 3.32 8.23 3.2 8.07 3.21 8.01 3.07 7.95 3.21 7.79 3.2 7.88 3.32 7.79 3.45 7.95 3.43 8.01 3.58 8.07 3.43 8.23 3.45"/><polyline class="cls-6" points="9.31 3.32 9.41 3.2 9.25 3.21 9.19 3.07 9.13 3.21 8.97 3.2 9.06 3.32 8.97 3.45 9.13 3.43 9.19 3.58 9.25 3.43 9.41 3.45"/><path class="cls-3" d="M10.28,6.35,9.44,5.23l-.34.45-.5-1-.51,1-.33-.45L6.92,6.35a.55.55,0,0,0,.56.56.55.55,0,0,0,.28-.07h0a.38.38,0,0,1,.13-.06.54.54,0,0,1,.43.06.55.55,0,0,0,.28.07h0a.55.55,0,0,0,.28-.07.54.54,0,0,1,.43-.06.38.38,0,0,1,.13.06h0a.55.55,0,0,0,.28.07.55.55,0,0,0,.56-.56"/><path class="cls-3" d="M7.12,7l.12.22h0a.56.56,0,0,0,.38,0,.35.35,0,0,0,.14-.06h0A.53.53,0,0,1,8,7.09H8a.55.55,0,0,1,.28.07.54.54,0,0,0,.43.06.38.38,0,0,0,.13-.06h0a.53.53,0,0,1,.28-.07h0a.55.55,0,0,1,.28.07.54.54,0,0,0,.43.06l.09,0L10.08,7h0L10,7h0l-.13.06A.64.64,0,0,1,9.44,7a.57.57,0,0,0-.28-.08h0A.54.54,0,0,0,8.88,7h0l-.13.06A.64.64,0,0,1,8.32,7,.57.57,0,0,0,8,6.92H8A.54.54,0,0,0,7.76,7h0l-.14.06A.62.62,0,0,1,7.2,7L7.12,7h0"/><path class="cls-3" d="M9.81,7.39c-.06.08-.14.16-.21.24a2.62,2.62,0,0,1-1,.62h0a2.55,2.55,0,0,1-1-.62c-.07-.08-.15-.16-.21-.24h0a.59.59,0,0,0,.23,0,.35.35,0,0,0,.14-.06h0A.53.53,0,0,1,8,7.25H8a.55.55,0,0,1,.28.07.54.54,0,0,0,.43.06.38.38,0,0,0,.13-.06h0a.53.53,0,0,1,.28-.07h0a.55.55,0,0,1,.28.07.53.53,0,0,0,.37.07h0"/></g></g></g></g></g></g></svg>