<svg xmlns="http://www.w3.org/2000/svg" xmlns:xlink="http://www.w3.org/1999/xlink" viewBox="0 0 29.46 17.19"><defs><style>.cls-1{fill:none;}.cls-2{clip-path:url(#clip-path);}.cls-3{fill:#325d37;}.cls-4{fill:#2d4db6;}.cls-5{fill:#f3d02f;}.cls-6{fill:#fff;}</style><clipPath id="clip-path"><rect class="cls-1" width="29.46" height="17.19"/></clipPath></defs><g id="Layer_2" data-name="Layer 2"><g id="cá»"><g id="melanisia"><g class="cls-2"><polygon class="cls-3" points="1.48 17.19 29.46 17.19 29.46 0.86 1.48 17.19"/><polygon class="cls-4" points="0 0 0 16.32 27.98 0 0 0"/><polygon class="cls-5" points="0 17.19 0 17.19 1.48 17.19 29.46 0.86 29.46 0 29.46 0 0 17.19"/><polygon class="cls-5" points="27.98 0 0 16.32 0 17.19 29.46 0 29.46 0 27.98 0"/><polygon class="cls-6" points="5.16 3.83 4.7 5.23 5.4 5.46 5.16 3.83"/><polygon class="cls-6" points="5.16 3.83 5.61 5.23 4.91 5.46 5.16 3.83"/><polygon class="cls-6" points="6.56 4.84 5.08 4.84 5.08 5.58 6.56 4.84"/><polygon class="cls-6" points="6.56 4.84 5.37 5.71 4.93 5.12 6.56 4.84"/><polygon class="cls-6" points="3.75 4.84 4.95 5.71 5.38 5.12 3.75 4.84"/><polygon class="cls-6" points="3.75 4.84 5.23 4.84 5.23 5.58 3.75 4.84"/><polygon class="cls-6" points="6.02 6.49 5.57 5.09 4.87 5.32 6.02 6.49"/><polygon class="cls-6" points="6.02 6.49 4.83 5.63 5.26 5.03 6.02 6.49"/><polygon class="cls-6" points="4.29 6.49 5.48 5.63 5.05 5.03 4.29 6.49"/><polygon class="cls-6" points="4.29 6.49 4.75 5.09 5.45 5.32 4.29 6.49"/><polygon class="cls-6" points="7.86 6.54 7.41 7.94 8.11 8.16 7.86 6.54"/><polygon class="cls-6" points="7.86 6.54 8.32 7.94 7.62 8.16 7.86 6.54"/><polygon class="cls-6" points="9.27 7.55 7.79 7.55 7.79 8.29 9.27 7.55"/><polygon class="cls-6" points="9.27 7.55 8.07 8.42 7.64 7.82 9.27 7.55"/><polygon class="cls-6" points="6.46 7.55 7.66 8.42 8.09 7.82 6.46 7.55"/><polygon class="cls-6" points="6.46 7.55 7.94 7.55 7.94 8.29 6.46 7.55"/><polygon class="cls-6" points="8.73 9.2 8.28 7.8 7.57 8.03 8.73 9.2"/><polygon class="cls-6" points="8.73 9.2 7.54 8.33 7.97 7.74 8.73 9.2"/><polygon class="cls-6" points="7 9.2 8.19 8.33 7.76 7.74 7 9.2"/><polygon class="cls-6" points="7 9.2 7.45 7.8 8.15 8.03 7 9.2"/><polygon class="cls-6" points="2.45 6.54 1.99 7.94 2.69 8.16 2.45 6.54"/><polygon class="cls-6" points="2.45 6.54 2.9 7.94 2.2 8.16 2.45 6.54"/><polygon class="cls-6" points="3.85 7.55 2.38 7.55 2.38 8.29 3.85 7.55"/><polygon class="cls-6" points="3.85 7.55 2.66 8.42 2.22 7.82 3.85 7.55"/><polygon class="cls-6" points="1.05 7.55 2.24 8.42 2.67 7.82 1.05 7.55"/><polygon class="cls-6" points="1.05 7.55 2.52 7.55 2.52 8.29 1.05 7.55"/><polygon class="cls-6" points="3.31 9.2 2.86 7.8 2.16 8.03 3.31 9.2"/><polygon class="cls-6" points="3.31 9.2 2.12 8.33 2.56 7.74 3.31 9.2"/><polygon class="cls-6" points="1.58 9.2 2.77 8.33 2.34 7.74 1.58 9.2"/><polygon class="cls-6" points="1.58 9.2 2.04 7.8 2.74 8.03 1.58 9.2"/><polygon class="cls-6" points="2.45 1.12 1.99 2.52 2.69 2.75 2.45 1.12"/><polygon class="cls-6" points="2.45 1.12 2.9 2.52 2.2 2.75 2.45 1.12"/><polygon class="cls-6" points="3.85 2.14 2.38 2.14 2.38 2.87 3.85 2.14"/><polygon class="cls-6" points="3.85 2.14 2.66 3 2.22 2.41 3.85 2.14"/><polygon class="cls-6" points="1.05 2.14 2.24 3 2.67 2.41 1.05 2.14"/><polygon class="cls-6" points="1.05 2.14 2.52 2.14 2.52 2.87 1.05 2.14"/><polygon class="cls-6" points="3.31 3.78 2.86 2.38 2.16 2.61 3.31 3.78"/><polygon class="cls-6" points="3.31 3.78 2.12 2.92 2.56 2.32 3.31 3.78"/><polygon class="cls-6" points="1.58 3.78 2.77 2.92 2.34 2.32 1.58 3.78"/><polygon class="cls-6" points="1.58 3.78 2.04 2.38 2.74 2.61 1.58 3.78"/><polygon class="cls-6" points="7.86 1.12 7.41 2.52 8.11 2.75 7.86 1.12"/><polygon class="cls-6" points="7.86 1.12 8.32 2.52 7.62 2.75 7.86 1.12"/><polygon class="cls-6" points="9.27 2.14 7.79 2.14 7.79 2.87 9.27 2.14"/><polygon class="cls-6" points="9.27 2.14 8.07 3 7.64 2.41 9.27 2.14"/><polygon class="cls-6" points="6.46 2.14 7.66 3 8.09 2.41 6.46 2.14"/><polygon class="cls-6" points="6.46 2.14 7.94 2.14 7.94 2.87 6.46 2.14"/><polygon class="cls-6" points="8.73 3.78 8.28 2.38 7.57 2.61 8.73 3.78"/><polygon class="cls-6" points="8.73 3.78 7.54 2.92 7.97 2.32 8.73 3.78"/><polygon class="cls-6" points="7 3.78 8.19 2.92 7.76 2.32 7 3.78"/><polygon class="cls-6" points="7 3.78 7.45 2.38 8.15 2.61 7 3.78"/></g></g></g></g></svg>