<svg xmlns="http://www.w3.org/2000/svg" xmlns:xlink="http://www.w3.org/1999/xlink" viewBox="0 0 29.46 17.19"><defs><style>.cls-1{fill:#fff;}.cls-2{clip-path:url(#clip-path);}.cls-3{fill:#d03033;}.cls-4{fill:#1f189b;}.cls-5{fill:#f2b126;}.cls-6{fill:#32784c;}</style><clipPath id="clip-path"><rect class="cls-1" width="29.46" height="17.19"/></clipPath></defs><g id="Layer_2" data-name="Layer 2"><g id="cá»"><g id="south_africa" data-name="south africa"><rect class="cls-1" width="29.46" height="17.19"/><g class="cls-2"><polygon class="cls-3" points="5.16 0 13.76 5.73 29.46 5.73 29.46 0 5.16 0"/><polygon class="cls-1" points="15.48 6.88 29.46 6.88 29.46 5.73 13.76 5.73 15.48 6.88"/><polygon class="cls-1" points="13.76 11.46 29.46 11.46 29.46 10.31 15.48 10.31 13.76 11.46"/><polygon class="cls-4" points="13.76 11.46 5.16 17.19 29.46 17.19 29.46 11.46 13.76 11.46"/><polygon points="0 5.73 3.43 5.73 0 3.44 0 5.73"/><polygon points="0 5.73 0 11.46 3.43 11.46 7.73 8.59 3.43 5.73 0 5.73"/><polygon points="0 11.46 0 13.74 3.43 11.46 0 11.46"/><polygon class="cls-5" points="0 3.44 7.73 8.59 0 13.74 0 15.12 9.79 8.59 0 2.06 0 3.44"/><polygon class="cls-6" points="0 0 0 2.06 9.79 8.59 0 15.12 0 17.19 3.1 17.19 13.41 10.31 29.46 10.31 29.46 6.88 13.41 6.88 3.1 0 0 0"/></g></g></g></g></svg>