<svg xmlns="http://www.w3.org/2000/svg" xmlns:xlink="http://www.w3.org/1999/xlink" viewBox="0 0 29.46 17.19"><defs><style>.cls-1{fill:none;}.cls-2{clip-path:url(#clip-path);}.cls-3{fill:#f5cd28;}.cls-4{fill:#ed6f22;}.cls-5{fill:#2f742e;}.cls-6{fill:#8e1841;}</style><clipPath id="clip-path"><rect class="cls-1" width="29.46" height="17.19"/></clipPath></defs><g id="Layer_2" data-name="Layer 2"><g id="cá»"><g id="south_asia" data-name="south asia"><g class="cls-2"><rect class="cls-3" width="29.46" height="17.19"/><rect class="cls-4" x="6.23" y="1.8" width="5" height="13.58"/><rect class="cls-5" x="1.3" y="1.8" width="4.93" height="13.58"/><rect class="cls-6" x="12.54" y="1.8" width="15.62" height="13.58"/><g class="cls-2"><path class="cls-3" d="M18.49,8.11h.26a.64.64,0,0,0-.22.57c.3-.45.41-.36.41-.36a.42.42,0,0,0-.13.54,1.81,1.81,0,0,1,.36-.55,1.28,1.28,0,0,0,.08.66,3.27,3.27,0,0,1,.29-.59s0,.35.12.47a1,1,0,0,0,.2-.37s.22.39.36.45a1.41,1.41,0,0,0,.11-.48s.47.33.84.14a.81.81,0,0,1-.45-.4s.61.27.86.15a7.19,7.19,0,0,0-.84-.48,1.69,1.69,0,0,0,.57.12,1.13,1.13,0,0,0-.26-.19Z"/><path class="cls-6" d="M19.27,9a1,1,0,0,1-.11-.66,2.58,2.58,0,0,0-.34.55.39.39,0,0,1,.08-.53l0,0s-.14,0-.38.38a.64.64,0,0,1,.2-.6l-.25,0s0,0,0,0v0h.26s-.27.27-.21.59c.17-.3.29-.37.36-.38s.05,0,.05,0l0,0a.37.37,0,0,0-.11.49,1.42,1.42,0,0,1,.34-.55,1.92,1.92,0,0,0,.11.67,2,2,0,0,1,.25-.59s0,.34.15.46a1,1,0,0,0,.17-.37s.26.39.39.45a1.59,1.59,0,0,0,.09-.47,1.41,1.41,0,0,0,.59.18.46.46,0,0,0,.25-.06.68.68,0,0,1-.45-.37,3.56,3.56,0,0,0,.7.15.47.47,0,0,0,.17,0c-.25-.16-.84-.44-.84-.44s.35.09.51.09h.05a1.84,1.84,0,0,0-.25-.17s.21.08.27.17-.31,0-.45-.05a4.66,4.66,0,0,1,.72.4c-.24.14-.77-.07-.86-.11a1,1,0,0,0,.44.36.83.83,0,0,1-.84-.1.88.88,0,0,1-.09.47c-.16,0-.36-.39-.39-.45a.67.67,0,0,1-.18.38.61.61,0,0,1-.15-.46,3.52,3.52,0,0,0-.25.57Z"/><path class="cls-3" d="M22.1,4.89a5.38,5.38,0,0,1,2.68,1c0-.14,0-.29.14-.36a.22.22,0,0,1,.29.29c-.22.5-1.09-.07-1.37-.22L24,5.9a1,1,0,0,1-.8-.51c-.07.29-.07.37-.43.37.14-.22.18-.29,0-.51l-.07.43-.36-.5v.5a1.28,1.28,0,0,0-.51-.29c-.22-.07-.36.37-.44.58.22-.21.29-.36.66-.21-.2.18-.14.4.07.57,0,0,0-.3.06-.37.11.09.36.42.66.45a2.12,2.12,0,0,0,.65-.15c.73-.07,2.32.07,2,1.16a1.12,1.12,0,0,1-.29.5c1,.37.14,1.67-.07,2.32s-.05,1,.67,1a.64.64,0,0,1-.67.34.39.39,0,0,0,.22.26c-.31.27.11.69-.08.9a.91.91,0,0,1-.72-.08l0,.21a5.62,5.62,0,0,1-.56-.06,2.75,2.75,0,0,0,.14-.3.51.51,0,0,1-.58.3.73.73,0,0,1,.19-.31c-.22.22-.24.31-.48.31,0-.36.22-.8.66-.65.07,0,.3.18.4.06s0-.55,0-.69c0-.64-.08-.6-.44-1S23.33,10,23,9.91s-.94.33-1.23.47a6.11,6.11,0,0,1-2.17.87.5.5,0,0,0,0-.11,3.19,3.19,0,0,0,.92-1.72,5,5,0,0,1-1,1.8,2.28,2.28,0,0,1-.21.56,1.91,1.91,0,0,1,.78-.24c-.08.45-.5.36-.58.58s.29.5,0,.65H18.33a1.68,1.68,0,0,0,.19-.32c-.15.1-.25.35-.59.32,0-.09.17-.24.14-.3-.19.19-.28.34-.53.3.07-.22.07-.51.36-.51s.43.07.58-.14-.05-1.15-.13-1.59a2.8,2.8,0,0,0-.09-.87l.07,1.3a3.8,3.8,0,0,1-.79-.65,1.17,1.17,0,0,1,.29-1.81A2.92,2.92,0,0,1,18.64,8c-.08-.22.1-.38-.16-.45-.07.14-.15.29-.3.27l.08-.36s-.26,0-.21.48c-.3-.14-.15-.48-.15-.48h-.14s0,.43-.24.52a3.39,3.39,0,0,0,.09-.52S17.22,8,17,7.8c.13-.15.23-.17.21-.35A1.92,1.92,0,0,0,17.09,7a1.42,1.42,0,0,0,1,0,1.1,1.1,0,0,0,0,.24,1,1,0,0,1,.79.08c-.07-.51-.36-.58-.65-.94V6.7a.65.65,0,0,1-.51-.44l-.21.15c-.39-.23-.67-.76-.13-.73.33,0,.05.29.05.29a9,9,0,0,1,1.16-.29.47.47,0,0,0-.4-.23c.25-.19.51-.26.69.15.18,0,.35-.21.24-.5a.62.62,0,0,1,.53.35c.1,0,.2-.09.18-.45.25.22.37.29.39.47a1,1,0,0,0,.69-.15c-.07.29-.07.36-.36.51a.82.82,0,0,1,.18.67l-.14,0a3.58,3.58,0,0,1,0,.6h-.15l.22.65-.14.21A11.28,11.28,0,0,1,22,7.64a12.23,12.23,0,0,1,1.81-.29c.43,0,.43.21,1,.21V7.2a.69.69,0,0,0-.58-.65,3.41,3.41,0,0,0-.8.22,4.91,4.91,0,0,1-1,.07,1.8,1.8,0,0,1-1.12-.41c-.19.05-.3.22-.4.51A.54.54,0,0,1,21,6.19c-.21-.8.36-1.16,1.09-1.3Z"/><path class="cls-3" d="M22.32,11.4c-.15-.22-.66-.58-.51-.94s1.45-.94,1.66-.15c.08.22-.15.79-.22,1a.81.81,0,0,1,.59-.14c-.07.29-.5.51-.5.51a4.64,4.64,0,0,1-.3,1.08H22.1l.14-.29-.21.29h-.37l.29-.36s-.34.4-.63.38c.07-.58.42-.67.92-.46a1.37,1.37,0,0,0,.08-.93Z"/><path class="cls-6" d="M21.34,12.81h0c.05-.57.37-.73.93-.49a.22.22,0,0,1,0-.13,1.14,1.14,0,0,0,0-.79,1.15,1.15,0,0,0-.16-.19c-.2-.21-.46-.48-.35-.76a1.59,1.59,0,0,1,1.13-.55.53.53,0,0,1,.57.41,2.06,2.06,0,0,1-.19.91l0,.1a.14.14,0,0,1,.07-.06.65.65,0,0,1,.5-.09c-.05.31-.48.52-.49.53a3.81,3.81,0,0,1-.3,1.07H22.1l.13-.31-.19.31h-.38l.19-.26a.82.82,0,0,1-.51.29Zm.52-.3-.18.27.35,0,.2-.28-.12.31.93,0a4.55,4.55,0,0,0,.28-1.06s.44-.24.5-.51h-.13a.6.6,0,0,0-.34.1l-.1.05,0-.13a2.1,2.1,0,0,0,.19-.89.5.5,0,0,0-.54-.39,1.58,1.58,0,0,0-1.1.53c-.1.26.14.52.34.73a1.4,1.4,0,0,1,.17.2,1.19,1.19,0,0,1,0,.81.57.57,0,0,0,0,.14,1.61,1.61,0,0,0-.45-.1c-.27,0-.42.18-.47.54.27,0,.6-.38.6-.38h0l-.08.11Z"/><path class="cls-3" d="M18.44,6c-.1.06,0,.46.13.39s-.06-.43-.13-.39Z"/><path class="cls-6" d="M18.54,6.36c-.06,0-.11-.06-.14-.16s0-.23,0-.26.2.12.22.24a.15.15,0,0,1-.07.18ZM18.46,6c-.05,0-.06.13,0,.24s.06.13.11.13v0l0,0a.12.12,0,0,0,.05-.14c0-.11-.12-.23-.16-.23Z"/><path class="cls-3" d="M18.53,5.83c.18.12.46.46.81.44-.26-.22-.21-.38-.21-.38a1,1,0,0,0,.76.25c-.18-.13-.22-.14-.26-.27a1.34,1.34,0,0,0,.69,0Z"/><path class="cls-6" d="M19.28,6.26A1,1,0,0,1,18.66,6l-.14-.11s0,0,0,0,0,0,0,0l.14.11a1,1,0,0,0,.66.33c-.27-.19-.22-.36-.22-.36a1.11,1.11,0,0,0,.76.24h-.05c-.14-.1-.17-.13-.21-.24l.08,0a1.18,1.18,0,0,0,.62,0,1,1,0,0,1-.63.06h-.06a.58.58,0,0,0,.21.2l.06,0a.89.89,0,0,1-.77-.22.53.53,0,0,0,.22.35Z"/><path class="cls-3" d="M18.88,8l0-.3s.19.46.34.47a1.67,1.67,0,0,1,0-.61Z"/><path class="cls-6" d="M19.25,8.19c-.17,0-.35-.41-.37-.46V8l0,0V8l0-.3c.08.12.25.44.36.45a1.38,1.38,0,0,1-.07-.59s0,.27.08.6Z"/><path class="cls-3" d="M19.34,7.66s.39.73.59.61a.73.73,0,0,1-.26-.6,1,1,0,0,0,.52.59A1.7,1.7,0,0,0,20,7.6s.32.57.49.58a.33.33,0,0,0,.06-.27Z"/><path class="cls-6" d="M19.87,8.3h0c-.2,0-.5-.6-.52-.62s0,0,0,0a0,0,0,0,1,0,0s.31.56.5.61h.07a.72.72,0,0,1-.27-.59s.17.44.55.58A1.94,1.94,0,0,0,20,7.61h0s0,0,0,0,.35.51.47.52a.35.35,0,0,0,0-.25h0s.07.14,0,.27-.34-.3-.45-.47a1.38,1.38,0,0,1,.12.54.87.87,0,0,1-.54-.54.89.89,0,0,0,.27.54.09.09,0,0,1-.07,0Z"/><path class="cls-3" d="M19,7.16l.29.37,0-.5s.29.23.34.22-.08-.53-.08-.53a5.45,5.45,0,0,0,.41.57,3.73,3.73,0,0,0,0-.57s.29.8.39.79.07-.11.07-.11Z"/><path class="cls-6" d="M19.33,7.53,19,7.17s0,0,0,0,0,0,0,0l.29.37,0-.49.35.21a3.35,3.35,0,0,0-.09-.51c.16.19.39.53.42.55s0-.31,0-.56a2.89,2.89,0,0,0,.4.77l.05,0a.1.1,0,0,0,0-.07s0,0,0,.09a.08.08,0,0,1-.07,0h0c-.1,0-.34-.61-.4-.8,0,.57,0,.58,0,.59s0,0-.43-.58a1.1,1.1,0,0,1,.11.53c-.07,0-.3-.16-.37-.21l0,.48Z"/><path class="cls-3" d="M18.81,6.51a3.23,3.23,0,0,0,.49.39c.05,0-.18-.48-.18-.48a1.52,1.52,0,0,0,.36.26c.1,0,0-.31,0-.31s.3.25.36.24,0-.24,0-.24l.21.2a5.46,5.46,0,0,0,0-.57,5.27,5.27,0,0,0,.48.46Z"/><path class="cls-6" d="M19.3,6.91a2.25,2.25,0,0,1-.5-.39s0,0,0,0h0a2.61,2.61,0,0,0,.48.38h0a1.87,1.87,0,0,0-.19-.45,3.28,3.28,0,0,0,.37.24c.05,0,0-.2,0-.3a2.34,2.34,0,0,0,.37.23.42.42,0,0,0,0-.23c.11.07.21.17.23.18s0-.35-.06-.55c.19.16.46.43.49.44s0,0-.49-.43a4,4,0,0,1,.07.57s0,0-.24-.2c0,.06.05.23,0,.25s-.28-.18-.36-.25a.41.41,0,0,1,0,.31h-.05a1.45,1.45,0,0,1-.36-.27c.18.29.24.46.2.48Z"/><path class="cls-3" d="M17,6.66s.1.61,1,.38c.09,0,0,.16,0,.22a.91.91,0,0,1,.76.06.62.62,0,0,0-.35-.54.3.3,0,0,0-.22,0s-1.09,0-1.24-.15Z"/><path class="cls-6" d="M18.82,7.33h0a.66.66,0,0,0-.38-.11,1.1,1.1,0,0,0-.34,0H18v0s0-.15,0-.17a1.83,1.83,0,0,1-.42.06A.56.56,0,0,1,17,6.68h0c.16.37.48.49,1,.35h0s0,.11,0,.19v0a.78.78,0,0,1,.36-.07.64.64,0,0,1,.37.1.57.57,0,0,0-.34-.5h-.05a.29.29,0,0,0-.15,0A3.22,3.22,0,0,1,17,6.67v0a0,0,0,0,1,0,0,2.87,2.87,0,0,0,1.19.15.58.58,0,0,1,.19,0h.06a.66.66,0,0,1,.37.56h0Z"/><path class="cls-3" d="M16.52,10.38c0,.06-.06.08-.2.28.06.08.34.21.41.14s.08-.22.08-.22a1.48,1.48,0,0,0,.69.64.32.32,0,0,0,.43-.29c0-.22-.33-.57-.47-.71-.36-.44-.33-1.26-1-1.14,0,0,0,.1-.09.11s.08.2-.05.23c.1.1.12.17,0,.22.08.11.17.15,0,.24a1,1,0,0,1,.24.5Z"/><path class="cls-6" d="M17.61,11.25l-.12,0a1.4,1.4,0,0,1-.69-.62.2.2,0,0,1-.06.2.08.08,0,0,1-.07,0h0a.61.61,0,0,1-.36-.17,1.38,1.38,0,0,1,.13-.2s.06-.06.06-.1a1,1,0,0,0-.23-.48l.1-.1a.15.15,0,0,0-.05-.08l0-.06s.08-.06.09-.09,0-.07-.08-.13.07,0,.08-.07,0-.09,0-.16a.29.29,0,0,0,.1-.12.27.27,0,0,1,.14,0c.37,0,.49.31.63.65a1.92,1.92,0,0,0,.27.51c.14.14.48.49.48.72a.33.33,0,0,1-.34.32Zm-.82-.67c.28.36.5.57.71.62a.3.3,0,0,0,.41-.27c0-.21-.32-.56-.46-.7a2,2,0,0,1-.28-.52c-.14-.36-.28-.69-.72-.62a.16.16,0,0,1-.1.12s.08.11,0,.16,0,.05-.09.07.1.08.09.13,0,.06-.11.09a.05.05,0,0,1,.05,0s.07.07.06.1,0,.07-.11.11a.86.86,0,0,1,.24.45.17.17,0,0,1-.06.14,1.22,1.22,0,0,0-.13.18c.05.05.33.17.38.12s.07-.16.07-.21Z"/><path class="cls-3" d="M16.34,4.25a22,22,0,0,0-.17,4.48,1.07,1.07,0,0,1-.74,0c.06-.25.24-4.27.91-4.52Z"/><path class="cls-6" d="M15.79,8.84a1,1,0,0,1-.36-.06c0-.06,0-.24,0-.48.1-1.15.32-3.86.88-4.07a23.75,23.75,0,0,0-.16,4.5.67.67,0,0,1-.39.11Zm.54-4.6c-.52.22-.75,3-.84,4.06,0,.26,0,.43,0,.47a2,2,0,0,0,.34,0,.71.71,0,0,0,.37-.08,21.57,21.57,0,0,1,.17-4.48Z"/><path class="cls-3" d="M15.73,11.36s-1,.13-.56-.44c.35-.15.34.21.21.33a.27.27,0,0,0,.29-.24.31.31,0,0,1,.06-.44c-.66.15-.75-.31-.51-.38s.22.12.34.21c.23-.21.36-.23.5,0,.13-.21.33-.18.33-.16.22.37-.26.39-.45.34A.41.41,0,0,1,16,11c0,.13.1.15.26.2-.33-.91,1.16.24-.34.13a.49.49,0,0,0,0,.12c.12,0,.2,0,.24.18s-.13.08-.26,0,.08.21-.06.27a.37.37,0,0,1-.13-.24c-.06.08-.15,0-.23,0s.27-.09.26-.34Z"/><path class="cls-3" d="M14.9,8.58c.06-.26.66-.23.38.05.19.31.78.27,1,.09-.19-.35.32-.28.3,0-.06.48-1.75.41-1.68-.14Z"/><path class="cls-3" d="M26,13.19a10.86,10.86,0,0,0,.68,1.33.58.58,0,0,0,.71,0s.26.27.37.36a.3.3,0,0,0,.1-.09,1,1,0,0,1-.33-.4.77.77,0,0,0,.1-.64c-.32-.53-1.37-.32-1.63-.52Z"/><path class="cls-6" d="M27.76,14.85h0c-.11-.08-.36-.35-.38-.36-.08.16-.54.19-.7,0a4.86,4.86,0,0,1-.46-.86c-.08-.19-.16-.36-.22-.47a2.07,2.07,0,0,0,.55.09c.4,0,.9.07,1.1.41a.81.81,0,0,1-.09.66.68.68,0,0,0,.22.29l.1.09a.16.16,0,0,1-.11.11Zm-.39-.38s.28.26.39.35a.26.26,0,0,0,.09-.07l-.1-.08a.59.59,0,0,1-.23-.31.78.78,0,0,0,.09-.64c-.19-.33-.68-.37-1.07-.4A1.18,1.18,0,0,1,26,13.2a1.85,1.85,0,0,1,.25.45,5.3,5.3,0,0,0,.45.86.6.6,0,0,0,.68,0Z"/><path class="cls-3" d="M14.69,4A10.86,10.86,0,0,0,14,2.65a.58.58,0,0,0-.7,0s-.27-.27-.38-.35a.23.23,0,0,0-.1.08c.11.12.26.18.33.4a.78.78,0,0,0-.1.64c.32.53,1.37.33,1.63.53Z"/><path class="cls-6" d="M14.68,4a1.2,1.2,0,0,0-.53-.11c-.4,0-.9-.08-1.1-.42a.78.78,0,0,1,.1-.66.85.85,0,0,0-.23-.29.81.81,0,0,1-.1-.09.19.19,0,0,1,.11-.11c.12.09.38.35.39.36.08-.16.54-.18.71,0a4.9,4.9,0,0,1,.45.86,5.21,5.21,0,0,0,.23.47l0,0ZM12.92,2.34a.28.28,0,0,0-.08.08.3.3,0,0,1,.1.07.66.66,0,0,1,.23.32.81.81,0,0,0-.09.64c.19.32.68.36,1.07.4a1.85,1.85,0,0,1,.5.08l-.2-.42A3.94,3.94,0,0,0,14,2.66a.62.62,0,0,0-.68,0s-.29-.27-.4-.35Z"/><path class="cls-3" d="M14.59,13.14a10.86,10.86,0,0,0-1.33.68.58.58,0,0,0,0,.7s-.27.27-.35.38A.23.23,0,0,0,13,15c.12-.11.18-.26.4-.33a.78.78,0,0,0,.64.1c.53-.32.32-1.37.53-1.63Z"/><path class="cls-6" d="M13,15h0a.28.28,0,0,1-.09-.11c.09-.12.35-.38.36-.39s-.12-.15-.14-.29a.6.6,0,0,1,.11-.42,5.11,5.11,0,0,1,.85-.45,4.41,4.41,0,0,0,.48-.23,2.24,2.24,0,0,0-.09.56c0,.4-.08.9-.42,1.1a.78.78,0,0,1-.22,0h0a.79.79,0,0,1-.44-.13.82.82,0,0,0-.28.23.47.47,0,0,1-.1.1Zm1.55-1.89a2.5,2.5,0,0,1-.45.25,4.45,4.45,0,0,0-.85.45.52.52,0,0,0-.09.39.44.44,0,0,0,.12.29s-.27.29-.35.4L13,15l.08-.09a.66.66,0,0,1,.32-.23.8.8,0,0,0,.64.09c.32-.19.36-.68.4-1.07a1.35,1.35,0,0,1,.11-.55Z"/><path class="cls-3" d="M26,4a10.86,10.86,0,0,1,.68-1.33.58.58,0,0,1,.7,0s.27-.27.38-.35a.23.23,0,0,1,.1.08c-.11.12-.26.18-.33.4a.78.78,0,0,1,.1.64C27.34,4,26.29,3.77,26,4Z"/><path class="cls-6" d="M26,4l0,0a5.21,5.21,0,0,0,.23-.47,4.9,4.9,0,0,1,.45-.86.65.65,0,0,1,.74,0,2.22,2.22,0,0,1,.35-.35.22.22,0,0,1,.12.08.27.27,0,0,1-.1.11.75.75,0,0,0-.22.31.76.76,0,0,1,.09.64c-.2.34-.7.38-1.1.42A1.24,1.24,0,0,0,26,4Zm1-1.43a.51.51,0,0,0-.32.1,4.45,4.45,0,0,0-.45.85c-.07.16-.14.31-.2.42a1.53,1.53,0,0,1,.5-.08c.39,0,.88-.08,1.07-.4a.78.78,0,0,0-.09-.63.65.65,0,0,1,.23-.33s.07-.05.09-.09,0,0-.09-.06-.35.35-.35.36A.55.55,0,0,0,27,2.56Z"/><path class="cls-3" d="M15.17,9.17c0,.11.25.16.52.16s.54,0,.56-.12-.24,0-.51,0-.5-.11-.57,0Z"/><path class="cls-3" d="M15.7,9.35h0c-.1,0-.42,0-.51-.11a.06.06,0,0,1,0-.07c0-.07.14-.05.29,0l.29,0h0a2,2,0,0,0,.27,0c.12,0,.2,0,.23,0s0,0,0,.05-.37.14-.56.14Zm-.42-.2a.13.13,0,0,0-.1,0l0,0a.8.8,0,0,0,.49.1h0c.31,0,.52-.06.53-.11a0,0,0,0,0,0,0s-.1,0-.2,0l-.27,0a1.21,1.21,0,0,1-.3,0l-.17,0Z"/><path class="cls-3" d="M15.19,9.48c0,.1.27.13.5.13s.46,0,.5-.11-.29,0-.5,0-.44-.11-.5,0Z"/><path class="cls-3" d="M15.73,9.63h0c-.24,0-.51,0-.51-.15a.11.11,0,0,1,.11-.06l.16,0a.83.83,0,0,0,.22,0l.22,0,.18,0c.05,0,.12,0,.14.07s-.28.13-.48.13Zm-.44-.17s-.07,0-.08,0,.16.1.48.11h0c.22,0,.42,0,.45-.11s-.14,0-.29,0l-.2,0a1.06,1.06,0,0,1-.25,0,.44.44,0,0,0-.15,0Z"/><path class="cls-3" d="M15.27,9.75c0,.08.21.14.42.14s.51-.08.51-.17-.3,0-.5,0-.43-.07-.43,0Z"/><path class="cls-3" d="M15.7,9.9h0a.7.7,0,0,1-.43-.1.09.09,0,0,1,0-.05s.06,0,.08,0h.13l.21,0a2,2,0,0,0,.27,0l.2,0s.07,0,.08,0-.32.18-.52.18Zm-.37-.16h-.05c.05.08.23.12.41.12v0c.21,0,.49-.08.49-.15l-.24,0-.25,0-.25,0Z"/><path class="cls-3" d="M15.24,10c0,.08.28.1.51.09s.46-.09.48-.17-.27,0-.49.05-.5,0-.5,0Z"/><path class="cls-3" d="M15.61,10.14c-.08,0-.36,0-.38-.1s.07-.06.17-.06h.34a1.35,1.35,0,0,0,.28,0l.17,0s0,0,.06,0-.28.18-.5.19ZM15.4,10a.3.3,0,0,0-.14,0s.13.08.35.08h.14c.24,0,.45-.09.47-.16L16,10a1.45,1.45,0,0,1-.29,0H15.4Z"/></g></g></g></g></g></svg>