<svg xmlns="http://www.w3.org/2000/svg" xmlns:xlink="http://www.w3.org/1999/xlink" viewBox="0 0 29.46 17.19"><defs><style>.cls-1{fill:none;}.cls-2{clip-path:url(#clip-path);}.cls-3{fill:#419e4b;}.cls-4{fill:#bc0030;}.cls-5{fill:#f3d02f;}.cls-6{fill:#fff;}</style><clipPath id="clip-path"><rect class="cls-1" width="29.46" height="17.19"/></clipPath></defs><g id="Layer_2" data-name="Layer 2"><g id="ther"><g id="thẻ_3_vùng_hiển_thị" data-name="thẻ 3 vùng hiển thị"><g id="SAINT_KITTS" data-name="SAINT KITTS"><g class="cls-2"><polygon class="cls-3" points="0 0 0 13.46 20.18 0 0 0"/><polygon class="cls-4" points="9.28 17.19 29.46 17.19 29.46 3.73 9.28 17.19"/><polygon class="cls-5" points="20.18 0 0 13.46 0 14.87 22.31 0 20.18 0"/><polygon class="cls-5" points="7.15 17.19 9.28 17.19 29.46 3.73 29.46 2.31 7.15 17.19"/><path d="M9.07,12.74l-.53,0-1.28-.05,1.51-1L8.28,9.92,9.7,11l1.5-1-.44,1.2-.18.5L12,12.86l-1.81-.08-.63,1.7ZM19.2,6l-.52,0-1.28,0,1.5-1-.49-1.74,1.42,1.12,1.51-1-.45,1.21L20.71,5,22.13,6.1,20.32,6l-.63,1.69Zm3.11-6L0,14.87v2.32H7.15L29.46,2.31V0Z"/><polygon class="cls-6" points="21.34 3.28 19.83 4.29 18.41 3.17 18.9 4.91 17.4 5.91 18.68 5.96 20.89 4.49 21.34 3.28"/><polygon class="cls-6" points="19.69 7.72 20.32 6.03 22.13 6.1 20.71 4.98 20.89 4.49 18.68 5.96 19.2 5.98 19.69 7.72"/><polygon class="cls-6" points="11.2 10.04 9.7 11.04 8.28 9.92 8.77 11.66 7.26 12.66 8.54 12.72 10.76 11.24 11.2 10.04"/><polygon class="cls-6" points="9.56 14.48 10.19 12.78 11.99 12.86 10.58 11.73 10.76 11.24 8.54 12.72 9.07 12.74 9.56 14.48"/></g></g></g></g></g></svg>