<svg xmlns="http://www.w3.org/2000/svg" xmlns:xlink="http://www.w3.org/1999/xlink" viewBox="0 0 29.46 17.19"><defs><style>.cls-1{fill:none;}.cls-2{clip-path:url(#clip-path);}.cls-3{fill:#4a5bb5;}.cls-4,.cls-6{fill:#f6d928;}.cls-5{fill:#a1001d;}.cls-10,.cls-6,.cls-7,.cls-8,.cls-9{fill-rule:evenodd;}.cls-11,.cls-7{fill:#fff;}.cls-8{fill:#485ba3;}.cls-9{fill:#980015;}</style><clipPath id="clip-path"><rect class="cls-1" width="29.46" height="17.19"/></clipPath></defs><g id="Layer_2" data-name="Layer 2"><g id="cá»"><g id="south_africa" data-name="south africa"><g class="cls-2"><rect class="cls-3" width="29.46" height="17.19"/><rect class="cls-4" y="3.07" width="29.46" height="11.05"/><rect class="cls-5" y="4.3" width="29.46" height="8.59"/><g class="cls-2"><path class="cls-6" d="M4.59,8.41H25.1a.18.18,0,0,1,.18.18.18.18,0,0,1-.18.19H4.59a.18.18,0,0,1-.18-.19.18.18,0,0,1,.18-.18Z"/><path d="M25.1,8.8H4.59a.2.2,0,0,1-.2-.21.2.2,0,0,1,.2-.2H25.1a.2.2,0,0,1,.2.2.2.2,0,0,1-.2.21ZM4.59,8.43a.16.16,0,0,0,0,.32H25.1a.16.16,0,0,0,0-.32Z"/><polygon class="cls-7" points="23.02 6.63 21.97 7 23.02 7.37 24.06 7 23.02 6.63"/><path d="M23,7.39,21.91,7,23,6.61,24.12,7,23,7.39ZM22,7l1,.34L24,7l-1-.35L22,7Z"/><path class="cls-6" d="M7.25,6.88H22.33a.12.12,0,1,1,0,.24H7.25a.12.12,0,1,1,0-.24Z"/><path d="M22.33,7.14H7.25A.15.15,0,0,1,7.1,7a.15.15,0,0,1,.15-.15H22.33a.16.16,0,0,1,.16.15.15.15,0,0,1-.16.14ZM7.25,6.9a.1.1,0,0,0-.11.1.11.11,0,0,0,.11.1H22.33a.11.11,0,0,0,.11-.1.1.1,0,0,0-.11-.1Z"/><path d="M21.85,7.14v0a.1.1,0,0,0,0-.2V6.85a.15.15,0,1,1,0,.29Zm.25,0v0a.1.1,0,0,0,0-.2V6.85a.15.15,0,0,1,.14.15.15.15,0,0,1-.14.14Zm-.13,0v0a.1.1,0,0,0,0-.2V6.85a.15.15,0,1,1,0,.29Z"/><polygon class="cls-7" points="22.04 7.37 20.99 7.73 22.04 8.1 23.08 7.73 22.04 7.37"/><path d="M22,8.12l-1.1-.39L22,7.35l1.11.38L22,8.12Zm-1-.39,1,.35,1-.35-1-.35-1,.35Z"/><path class="cls-6" d="M6.27,7.61H21.35a.13.13,0,0,1,.13.12.13.13,0,0,1-.13.13H6.27a.13.13,0,0,1-.13-.13.13.13,0,0,1,.13-.12Z"/><path d="M21.35,7.88H6.27a.15.15,0,0,1-.15-.15.14.14,0,0,1,.15-.14H21.35a.15.15,0,0,1,.15.14.15.15,0,0,1-.15.15ZM6.27,7.63a.11.11,0,0,0-.11.1.1.1,0,0,0,.11.1H21.35a.1.1,0,0,0,.11-.1.11.11,0,0,0-.11-.1Z"/><path d="M21.11,7.88v0a.1.1,0,1,0,0-.2v0a.15.15,0,1,1,0,.29Zm-.12,0v0a.1.1,0,0,0,0-.2v0a.15.15,0,1,1,0,.29Zm-.12,0v0a.1.1,0,0,0,0-.2v0a.15.15,0,0,1,.14.14.15.15,0,0,1-.14.15Z"/><path class="cls-8" d="M23.81,8.45c-.18.32.15-.11,1,.43a.75.75,0,0,1,.27.55l-.1-.12c-.06.06.05.32.07.45-.13-.07-.11-.1-.15-.19a1.68,1.68,0,0,0,0,.5c-.1,0-.09-.1-.14-.12,0,.13,0,.26,0,.4a1,1,0,0,0-.15-.12c0,.06-.11.24-.11.3a.13.13,0,0,1-.07-.1,2,2,0,0,0-.29.44c-.17-.15-.6-.5-.65-.69-.05.1-.12.14-.27.22-.05-.3-.26-.64-.15-.9l-.22.15a1.77,1.77,0,0,1,1-1.2Z"/><path d="M24.11,10.9,24,10.84c-.19-.17-.56-.48-.61-.66,0,.11-.09.15-.22.23h0l0,0a1.71,1.71,0,0,0-.09-.3A.88.88,0,0,1,23,9.49a1.12,1.12,0,0,1-.2.17,1.72,1.72,0,0,1,1-1.23c0,.05,0,.12,0,.13h.13a1.48,1.48,0,0,1,.86.3.76.76,0,0,1,.28.56c-.05,0-.06,0-.08,0l0-.06A1.16,1.16,0,0,0,25,9.6c0,.06,0,.12,0,.16s-.14-.07-.16-.11v.06a1,1,0,0,0,0,.36.14.14,0,0,1-.13-.07l0,0s0,.12,0,.19a.61.61,0,0,0,0,.19.42.42,0,0,1-.14-.09l0,0s0,.09,0,.15a.62.62,0,0,0-.06.14.12.12,0,0,1-.1-.1,4.9,4.9,0,0,0-.26.44v0Zm-.68-.73a3.2,3.2,0,0,0,.63.65l0,0a2.47,2.47,0,0,1,.28-.42s.05.07.09.1,0-.08,0-.14a.86.86,0,0,0,.05-.15h.06l.12.1a.22.22,0,0,1,0-.18.5.5,0,0,0,0-.21c.05,0,.07,0,.08,0a.23.23,0,0,0,.09.07c-.06-.06-.05-.22-.05-.35V9.57l.05,0c0,.06,0,.08.13.14A.26.26,0,0,1,25,9.61c0-.14-.08-.27,0-.31a.11.11,0,0,1,.07.06l.05.05a.88.88,0,0,0-.29-.52,1.45,1.45,0,0,0-.84-.29h-.09s-.06,0-.07,0,0-.06.05-.14a1.88,1.88,0,0,0-1,1.21A.58.58,0,0,1,23,9.49a1.18,1.18,0,0,0,.09.6,2.12,2.12,0,0,1,.09.31c.12-.1.19-.13.23-.23Z"/><path class="cls-9" d="M23.12,10c.08-.15.15-.2.2-.3s.1-.31.17-.29.08.09,0,.26a.75.75,0,0,1-.35.33Z"/><path class="cls-9" d="M23.64,10.41a1.34,1.34,0,0,1,0-.24c0-.14-.07-.23,0-.23s.11,0,.11.17a.37.37,0,0,1-.13.3Z"/><path class="cls-9" d="M24,10.64c0-.16,0-.24,0-.34s-.1-.31,0-.33.11,0,.13.23a.69.69,0,0,1-.06.44Z"/><path class="cls-9" d="M24.45,9.49a1.72,1.72,0,0,0-.22-.12c-.11-.09-.16-.18-.2-.13s0,.09.11.17a.44.44,0,0,0,.31.08Z"/><path class="cls-9" d="M24.38,10a1.51,1.51,0,0,0-.14-.21c-.06-.12-.06-.22-.12-.19s-.07.08,0,.19.1.14.26.21Z"/><path class="cls-8" d="M5.31,8.76c0-.1,0-.11,0-.18.09,0,.09.13.19.06s.06,0,0-.12A3.75,3.75,0,0,1,6,8.65c.15,0,.42-.16.6,0s.12.37.12.62c-.07,0,0-.05-.11-.14a3.93,3.93,0,0,1,0,.84s0,0-.06-.09c-.07.21-.17.26-.17.51,0-.1,0-.08,0-.13-.07.16-.57.29-.38.46-.17-.11-.24-.09-.32-.19a.38.38,0,0,0-.09.12c-.31-.14-.2-.44-.44-.64a1.13,1.13,0,0,0-.06.21,3.19,3.19,0,0,0-.12-.45c0,.08,0,0-.13.17,0-.24-.09-.29-.07-.44-.09.06,0,0-.12.11.09-.59.46-1,.72-.89Z"/><path d="M5.93,10.77l-.17-.08a.31.31,0,0,1-.16-.1.31.31,0,0,1,0,.11.44.44,0,0,1-.3-.33.57.57,0,0,0-.17-.3.11.11,0,0,1,0,.08.41.41,0,0,1,0,.12l0,.07v-.07c0-.07,0-.13,0-.18a1.55,1.55,0,0,0,0-.23l0,0a.55.55,0,0,0-.08.1l0,0v0a2,2,0,0,0,0-.21.63.63,0,0,1,0-.19l0,0-.06.07-.05,0V9.65c.08-.56.44-1,.72-.93v0a.21.21,0,0,0,0-.1l-.06-.07.08,0,.08.06s.05,0,.09,0,0,0,0-.1v0h0a1.4,1.4,0,0,1,.33.08L6,8.63l.15,0a.49.49,0,0,1,.47.08.54.54,0,0,1,.13.48c0,.05,0,.1,0,.15v0h0a.11.11,0,0,1-.06-.06,3.92,3.92,0,0,1,0,.48,2.54,2.54,0,0,0,0,.26v.09l0-.08,0,0h0l-.07.13a.62.62,0,0,0-.08.33v.15l0-.15a.37.37,0,0,1,0-.08h0a.62.62,0,0,1-.2.15c-.09.07-.19.13-.2.19a.07.07,0,0,0,0,.06l0,0Zm-.32-.21a.56.56,0,0,0,.17.09l.1,0v0c0-.08.11-.14.22-.21a.6.6,0,0,0,.2-.17l0,0,0,0h0a1,1,0,0,1,.08-.21.54.54,0,0,0,.08-.17l0-.05,0,.05v0c0-.06,0-.12,0-.19a2.74,2.74,0,0,0,0-.58l0-.09.07.07a.44.44,0,0,1,.05.09l0,0V9.16a.51.51,0,0,0-.11-.45.46.46,0,0,0-.43-.07L6,8.67l-.2-.05L5.5,8.55c0,.06,0,.09,0,.11s-.11,0-.14,0V8.8l0,0c-.22-.12-.57.24-.67.81h0a.23.23,0,0,1,.07-.06l0,0v0a.41.41,0,0,0,0,.22,1.23,1.23,0,0,1,0,.16l0-.06,0-.06,0,0v0a1.29,1.29,0,0,1,.08.28.44.44,0,0,0,0,.1v0a.93.93,0,0,1,0-.1.46.46,0,0,1,.22.31.47.47,0,0,0,.25.32.12.12,0,0,1,.07-.11Z"/><path class="cls-9" d="M4.94,9.73c.08-.19.15-.25.2-.38S5.24,9,5.32,9s.07.12,0,.33a.86.86,0,0,1-.35.41Z"/><path class="cls-9" d="M5.23,10.21c0-.17.09-.24.11-.35s0-.34.08-.33.09.08,0,.28a.75.75,0,0,1-.23.4Z"/><path class="cls-9" d="M5.59,10.54c0-.17,0-.23,0-.34s0-.32,0-.32.09.06.07.25a.66.66,0,0,1-.16.41Z"/><path class="cls-9" d="M6.35,9.45c-.15-.14-.23-.17-.33-.26s-.24-.32-.3-.27,0,.14.15.3a.84.84,0,0,0,.48.23Z"/><path class="cls-9" d="M6.26,10c-.09-.14-.16-.18-.23-.28s-.14-.3-.2-.27,0,.11.07.27a.65.65,0,0,0,.36.28Z"/><path class="cls-7" d="M20.87,8.59c-1.23,1.23-2.87,3.69-6.14,3.69-2.86,0-4.91-2.46-6.14-3.69,1.23-1.22,3.28-3.68,6.14-3.68,3.27,0,4.91,2.46,6.14,3.68Z"/><path d="M14.73,12.3c-2.57,0-4.48-2-5.74-3.27l-.41-.42A5.74,5.74,0,0,1,9,8.16c1.26-1.3,3.16-3.27,5.74-3.27,2.78,0,4.38,1.76,5.55,3.05.21.23.41.45.6.64l-.6.67c-1.17,1.29-2.77,3.05-5.55,3.05Zm0-7.37c-2.56,0-4.46,2-5.71,3.26l-.41.42c.12.1.26.24.41.39,1.25,1.29,3.15,3.26,5.71,3.26,2.76,0,4.35-1.76,5.52-3,.21-.23.41-.45.6-.64a6,6,0,0,1-.6-.62c-1.16-1.28-2.76-3-5.52-3Z"/><path class="cls-10" d="M14.3,6.19c.33.37.06.52.4.54s.16.39.47.4,0,.87.18,1.15.39.09.39.3-.57.2-.58.88c0,.39-.49.41-.51.66s.92.37.91.58-1,.18-1.07.42,1.39.4,1.51,1a5.52,5.52,0,0,1-1.27.14c-2.86,0-4.91-2.46-6.14-3.69,1.23-1.22,3.28-3.68,6.14-3.68,0,0-.85.78-.43,1.28Z"/><rect class="cls-11" x="10.88" y="7.28" width="0.3" height="0.98"/><rect class="cls-11" x="10.88" y="8.92" width="0.3" height="0.98"/><rect class="cls-11" x="11.48" y="7.28" width="0.3" height="0.98"/><rect class="cls-11" x="11.48" y="8.92" width="0.3" height="0.98"/><rect class="cls-11" x="12.07" y="7.28" width="0.3" height="0.98"/><rect class="cls-11" x="12.07" y="8.92" width="0.3" height="0.98"/><rect class="cls-11" x="12.67" y="7.28" width="0.3" height="0.98"/><rect class="cls-11" x="12.67" y="8.92" width="0.3" height="0.98"/><rect class="cls-11" x="13.27" y="7.28" width="0.3" height="0.98"/><rect class="cls-11" x="13.27" y="8.92" width="0.3" height="0.98"/><rect class="cls-11" x="13.86" y="7.28" width="0.3" height="0.98"/><rect class="cls-11" x="13.86" y="8.92" width="0.3" height="0.98"/><rect x="15.39" y="7.28" width="0.3" height="0.98"/><rect x="15.39" y="8.92" width="0.3" height="0.98"/><rect x="15.98" y="7.28" width="0.3" height="0.98"/><rect x="15.98" y="8.92" width="0.3" height="0.98"/><rect x="16.58" y="7.28" width="0.3" height="0.98"/><rect x="16.58" y="8.92" width="0.3" height="0.98"/><rect x="17.17" y="7.28" width="0.3" height="0.98"/><rect x="17.17" y="8.92" width="0.3" height="0.98"/><rect x="17.77" y="7.28" width="0.3" height="0.98"/><rect x="17.77" y="8.92" width="0.3" height="0.98"/><rect x="18.36" y="7.28" width="0.3" height="0.98"/><rect x="18.36" y="8.92" width="0.3" height="0.98"/><path class="cls-8" d="M12.75,5.56c-.17.33.29-.1,1,.45a1.28,1.28,0,0,1,.33.69,2,2,0,0,1-.44-.19,1.17,1.17,0,0,1,.33.7c-.12-.07-.17-.06-.21-.15,0,.12.1.2.1.39a1.23,1.23,0,0,0-.22-.15c.11.19-.2.55-.05.67A1,1,0,0,1,13,7.58c-.06,0-.07.09-.07.16s-.41-.31-.37-.43a.54.54,0,0,0-.08.21,1.12,1.12,0,0,1-.34-.5L12,7.2a.71.71,0,0,1,0-.56l-.2.15a1.82,1.82,0,0,1,.92-1.23Z"/><path d="M13.68,8h-.06A1,1,0,0,1,13,7.58a.27.27,0,0,0,0,.16s-.24-.16-.3-.23-.12-.15-.11-.2a1.91,1.91,0,0,0,0,.21A.92.92,0,0,1,12.11,7a.15.15,0,0,1,0,.09L12,7.24v0a.76.76,0,0,1,0-.54,1.36,1.36,0,0,1-.17.16,1.7,1.7,0,0,1,.9-1.26c0,.08,0,.11,0,.12a.13.13,0,0,0,.08,0h.11a1.4,1.4,0,0,1,.87.3,1.3,1.3,0,0,1,.33.71,1.47,1.47,0,0,1-.42-.15.93.93,0,0,1,.32.66.28.28,0,0,1-.13,0,.14.14,0,0,1-.08,0,.36.36,0,0,0,0,.09.5.5,0,0,1,.06.24,2.5,2.5,0,0,1-.25-.14c.08.08,0,.21,0,.34s-.09.25,0,.31l0,0ZM13,7.56a1,1,0,0,0,.61.39.45.45,0,0,1,0-.31c0-.12.08-.25,0-.33a.44.44,0,0,1,.25.13l-.08-.22a.3.3,0,0,1-.05-.16.34.34,0,0,0,.14.08l.1.06a1.31,1.31,0,0,0-.35-.68s.3.13.45.16A1.49,1.49,0,0,0,13.77,6a1.35,1.35,0,0,0-.85-.3h-.11c-.05,0-.09,0-.11,0s0-.06,0-.13a1.88,1.88,0,0,0-.88,1.23A.55.55,0,0,1,12,6.62l.05,0,0,.06a.68.68,0,0,0,0,.53l0-.09L12.11,7a1.52,1.52,0,0,0,.37.5.21.21,0,0,1,0-.21c0,.11.31.37.39.43A.13.13,0,0,1,13,7.56Z"/><path class="cls-9" d="M12.33,7.17c0-.22.08-.31.1-.46s0-.44.09-.44.11.1.07.36a1,1,0,0,1-.26.54Z"/><path class="cls-9" d="M12.8,7.59c0-.19,0-.28,0-.4s-.09-.36,0-.38.12.06.13.28a.79.79,0,0,1-.13.5Z"/><path class="cls-9" d="M13.54,7.92c-.08-.16-.15-.21-.2-.32s-.11-.34-.18-.31-.07.11,0,.29a.77.77,0,0,0,.35.34Z"/><path class="cls-9" d="M13.8,6.44c-.21-.11-.31-.11-.44-.18S13,6,12.94,6.08s0,.15.26.26a.93.93,0,0,0,.6.1Z"/><path class="cls-9" d="M13.87,7.06c-.15-.12-.23-.14-.33-.22s-.25-.28-.31-.22,0,.13.16.26a.78.78,0,0,0,.48.18Z"/></g></g></g></g></g></svg>