<svg xmlns="http://www.w3.org/2000/svg" xmlns:xlink="http://www.w3.org/1999/xlink" viewBox="0 0 29.46 17.19"><defs><style>.cls-1{fill:none;}.cls-2{clip-path:url(#clip-path);}.cls-3{fill:#42a04b;}.cls-4{fill:#4694d2;}.cls-5{fill:#eac126;}</style><clipPath id="clip-path"><rect class="cls-1" width="29.46" height="17.19"/></clipPath></defs><g id="Layer_2" data-name="Layer 2"><g id="cá»"><g id="east_africa" data-name="east africa"><g class="cls-2"><polygon class="cls-3" points="0 0 0 13.05 22.46 0 0 0"/><polygon class="cls-4" points="7 17.19 29.46 17.19 29.46 4.14 7 17.19"/><polygon class="cls-5" points="29.45 0 29.45 0.01 29.46 0 29.45 0"/><polygon class="cls-5" points="0 17.19 0.01 17.18 0 17.16 0 17.19"/><polygon class="cls-5" points="22.46 0 0 13.05 0 14.38 24.7 0 22.46 0"/><polygon class="cls-5" points="0 17.19 0 17.19 0.02 17.19 0.01 17.18 0 17.19"/><polygon class="cls-5" points="29.46 0 29.45 0.01 29.46 0.02 29.46 0"/><polygon class="cls-5" points="4.76 17.19 7 17.19 29.46 4.14 29.46 2.81 4.76 17.19"/><polygon points="24.7 0 0 14.38 0 17.16 0.01 17.18 0.02 17.19 4.76 17.19 29.46 2.81 29.46 0.02 29.45 0.01 29.45 0 24.7 0"/></g></g></g></g></svg>