<svg xmlns="http://www.w3.org/2000/svg" xmlns:xlink="http://www.w3.org/1999/xlink" viewBox="0 0 29.46 17.19"><defs><style>.cls-1{fill:none;}.cls-2{clip-path:url(#clip-path);}.cls-3{fill:#2d6b4f;}.cls-4{fill:#f5cd28;}.cls-5{fill:#c0003b;}.cls-6{fill:#fff;}</style><clipPath id="clip-path"><rect class="cls-1" width="29.46" height="17.19"/></clipPath></defs><g id="Layer_2" data-name="Layer 2"><g id="cá»"><g id="west_africa" data-name="west africa"><g class="cls-2"><rect class="cls-3" width="29.46" height="17.19"/><rect class="cls-4" y="3.44" width="29.46" height="3.44"/><rect class="cls-4" y="10.31" width="29.46" height="3.44"/><rect class="cls-5" width="10.31" height="10.31"/><polygon class="cls-6" points="5.16 1.89 4.15 5 5.7 5.5 5.16 1.89"/><polygon class="cls-6" points="5.16 1.89 6.17 5 4.61 5.5 5.16 1.89"/><polygon class="cls-6" points="8.26 4.15 5 4.15 5 5.78 8.26 4.15"/><polygon class="cls-6" points="8.26 4.15 5.62 6.07 4.66 4.75 8.26 4.15"/><polygon class="cls-6" points="2.05 4.15 4.69 6.07 5.65 4.75 2.05 4.15"/><polygon class="cls-6" points="2.05 4.15 5.32 4.15 5.32 5.78 2.05 4.15"/><polygon class="cls-6" points="7.08 7.8 6.07 4.69 4.51 5.2 7.08 7.8"/><polygon class="cls-6" points="7.08 7.8 4.43 5.88 5.39 4.56 7.08 7.8"/><polygon class="cls-6" points="3.24 7.8 5.88 5.88 4.92 4.56 3.24 7.8"/><polygon class="cls-6" points="3.24 7.8 4.25 4.69 5.8 5.2 3.24 7.8"/></g></g></g></g></svg>