<svg xmlns="http://www.w3.org/2000/svg" xmlns:xlink="http://www.w3.org/1999/xlink" viewBox="0 0 29.46 17.19"><defs><style>.cls-1{fill:none;}.cls-2{clip-path:url(#clip-path);}.cls-3{fill:#d30025;}.cls-4{fill:#fff;}</style><clipPath id="clip-path"><rect class="cls-1" width="29.46" height="17.19"/></clipPath></defs><g id="Layer_2" data-name="Layer 2"><g id="cá»"><g id="north_africa" data-name="north africa"><g class="cls-2"><rect class="cls-3" width="29.46" height="17.19"/><g class="cls-2"><path class="cls-4" d="M14.73,4.3a4.3,4.3,0,1,1-4.3,4.29,4.3,4.3,0,0,1,4.3-4.29"/><path class="cls-3" d="M14.73,5.37a3.23,3.23,0,1,1-3.22,3.22,3.22,3.22,0,0,1,3.22-3.22"/><path class="cls-4" d="M15.59,6A2.58,2.58,0,1,1,13,8.59,2.59,2.59,0,0,1,15.59,6"/><polyline class="cls-3" points="13.66 8.59 15.5 9.19 15.79 8.27"/><polyline class="cls-3" points="13.66 8.59 15.5 8 15.79 8.91"/><polyline class="cls-3" points="14.99 6.75 14.99 8.69 15.96 8.69"/><polyline class="cls-3" points="14.99 6.75 16.13 8.32 15.35 8.89"/><polyline class="cls-3" points="14.99 10.43 16.13 8.87 15.35 8.3"/><polyline class="cls-3" points="14.99 10.43 14.99 8.5 15.96 8.5"/><polyline class="cls-3" points="17.15 7.46 15.31 8.05 15.61 8.97"/><polyline class="cls-3" points="17.15 7.46 16.02 9.02 15.23 8.45"/><polyline class="cls-3" points="17.15 9.73 16.02 8.17 15.23 8.73"/><polyline class="cls-3" points="17.15 9.73 15.31 9.13 15.61 8.21"/></g></g></g></g></g></svg>