<svg xmlns="http://www.w3.org/2000/svg" xmlns:xlink="http://www.w3.org/1999/xlink" viewBox="0 0 29.46 17.19"><defs><style>.cls-1{fill:none;}.cls-2{clip-path:url(#clip-path);}.cls-3{fill:#d00027;}.cls-4{fill:#fff;}</style><clipPath id="clip-path"><rect class="cls-1" width="29.46" height="17.19"/></clipPath></defs><g id="Layer_2" data-name="Layer 2"><g id="cá»"><g id="west_asia" data-name="west asia"><g class="cls-2"><rect class="cls-3" width="29.46" height="17.19"/><g class="cls-2"><path class="cls-4" d="M8.59,4.3A4.3,4.3,0,1,1,4.3,8.59,4.29,4.29,0,0,1,8.59,4.3"/><path class="cls-3" d="M9.67,5.16A3.44,3.44,0,1,1,6.23,8.59,3.43,3.43,0,0,1,9.67,5.16"/><polygon class="cls-4" points="12.22 8.59 14.27 9.26 14.6 8.23 12.22 8.59"/><polygon class="cls-4" points="12.22 8.59 14.27 7.93 14.6 8.95 12.22 8.59"/><polygon class="cls-4" points="13.71 6.55 13.71 8.7 14.78 8.7 13.71 6.55"/><polygon class="cls-4" points="13.71 6.55 14.97 8.29 14.1 8.92 13.71 6.55"/><polygon class="cls-4" points="13.71 10.64 14.97 8.9 14.1 8.27 13.71 10.64"/><polygon class="cls-4" points="13.71 10.64 13.71 8.49 14.78 8.49 13.71 10.64"/><polygon class="cls-4" points="16.11 7.33 14.07 7.99 14.4 9.02 16.11 7.33"/><polygon class="cls-4" points="16.11 7.33 14.85 9.07 13.98 8.44 16.11 7.33"/><polygon class="cls-4" points="16.11 9.86 14.85 8.12 13.98 8.75 16.11 9.86"/><polygon class="cls-4" points="16.11 9.86 14.07 9.19 14.4 8.17 16.11 9.86"/></g></g></g></g></g></svg>