<svg xmlns="http://www.w3.org/2000/svg" xmlns:xlink="http://www.w3.org/1999/xlink" viewBox="0 0 29.46 17.19"><defs><style>.cls-1{fill:none;}.cls-2{clip-path:url(#clip-path);}.cls-3{fill:#80a7d8;}.cls-4{fill:#f3d02f;}.cls-4,.cls-8{fill-rule:evenodd;}.cls-5{fill:#1b257d;}.cls-6{fill:#fff;}.cls-7,.cls-8{fill:#c0003b;}</style><clipPath id="clip-path"><rect class="cls-1" width="29.46" height="17.19"/></clipPath></defs><g id="Layer_2" data-name="Layer 2"><g id="cá»"><g id="polynesia"><g class="cls-2"><rect class="cls-3" width="29.46" height="17.19"/><polygon class="cls-4" points="28.28 4.25 27.44 3.67 26.59 4.25 26.91 3.31 26.06 2.73 27.11 2.73 27.44 1.79 27.76 2.73 28.81 2.73 27.96 3.31 28.28 4.25"/><polygon class="cls-4" points="25.65 11.73 24.8 11.15 23.95 11.73 24.28 10.79 23.43 10.21 24.48 10.22 24.8 9.28 25.13 10.22 26.18 10.21 25.32 10.79 25.65 11.73"/><polygon class="cls-4" points="28.28 10.04 27.44 9.46 26.59 10.04 26.91 9.1 26.06 8.52 27.11 8.52 27.44 7.58 27.76 8.52 28.81 8.52 27.96 9.1 28.28 10.04"/><polygon class="cls-4" points="16.96 15.47 16.11 14.89 15.27 15.47 15.59 14.53 14.74 13.95 15.79 13.95 16.11 13.01 16.44 13.95 17.49 13.95 16.64 14.53 16.96 15.47"/><polygon class="cls-4" points="18.29 9.52 19.14 10.1 19.99 9.52 19.66 10.46 20.51 11.04 19.46 11.04 19.14 11.98 18.82 11.04 17.77 11.04 18.62 10.46 18.29 9.52"/><polygon class="cls-4" points="21.39 5.25 22.23 5.83 23.08 5.25 22.76 6.18 23.61 6.76 22.56 6.76 22.23 7.7 21.91 6.76 20.86 6.76 21.71 6.18 21.39 5.25"/><polygon class="cls-4" points="23.99 4.36 24.84 4.94 25.68 4.36 25.36 5.29 26.21 5.88 25.16 5.87 24.84 6.81 24.51 5.87 23.46 5.88 24.31 5.29 23.99 4.36"/><polygon class="cls-4" points="21.39 11.76 22.23 12.34 23.08 11.76 22.76 12.7 23.61 13.28 22.56 13.28 22.23 14.22 21.91 13.28 20.86 13.28 21.71 12.7 21.39 11.76"/><polygon class="cls-4" points="18.29 12.52 19.14 13.1 19.99 12.52 19.66 13.46 20.51 14.04 19.46 14.04 19.14 14.97 18.82 14.04 17.77 14.04 18.62 13.46 18.29 12.52"/><rect class="cls-5" width="14.73" height="7.37"/><polygon class="cls-6" points="13.08 0 0 6.54 0 7.37 1.65 7.37 14.73 0.82 14.73 0 13.08 0"/><polygon class="cls-6" points="0 0 0 0.82 13.08 7.37 14.73 7.37 14.73 6.54 1.65 0 0 0"/><polygon class="cls-6" points="6.14 0 6.14 2.46 0 2.46 0 4.91 6.14 4.91 6.14 7.37 8.59 7.37 8.59 4.91 14.73 4.91 14.73 2.46 8.59 2.46 8.59 0 6.14 0"/><polygon class="cls-7" points="6.63 0 6.63 2.95 0 2.95 0 4.42 6.63 4.42 6.63 7.37 8.1 7.37 8.1 4.42 14.73 4.42 14.73 2.95 8.1 2.95 8.1 0 6.63 0"/><polygon class="cls-8" points="8.72 2.46 9.82 2.46 14.73 0 13.63 0 8.72 2.46"/><polygon class="cls-7" points="0 0.55 3.81 2.46 4.91 2.46 0 0 0 0.55"/><polygon class="cls-8" points="14.73 7.37 14.73 6.82 10.92 4.91 9.82 4.91 14.73 7.37"/><polygon class="cls-7" points="4.91 4.91 0 7.37 1.1 7.37 6.01 4.91 4.91 4.91"/></g></g></g></g></svg>