<svg xmlns="http://www.w3.org/2000/svg" xmlns:xlink="http://www.w3.org/1999/xlink" viewBox="0 0 29.46 17.19"><defs><style>.cls-1{fill:none;}.cls-2{clip-path:url(#clip-path);}.cls-3{fill:#f8e82a;}.cls-4{fill:#cc3220;}.cls-5{fill:#fffcff;}.cls-6{fill:#cc2920;}.cls-7{fill:#9ba49a;}.cls-8{fill:#fff;}</style><clipPath id="clip-path"><rect class="cls-1" width="29.46" height="17.19"/></clipPath></defs><g id="Layer_2" data-name="Layer 2"><g id="cá»"><g id="east_africa" data-name="east africa"><g class="cls-2"><rect width="29.46" height="17.19"/><rect class="cls-3" y="2.87" width="29.46" height="2.86"/><rect class="cls-4" y="5.73" width="29.46" height="2.87"/><rect class="cls-3" y="11.46" width="29.46" height="2.86"/><rect class="cls-4" y="14.32" width="29.46" height="2.86"/><g class="cls-2"><path class="cls-5" d="M17.41,8.59a2.68,2.68,0,1,1-2.68-2.67,2.68,2.68,0,0,1,2.68,2.67Z"/><path d="M14.73,11.28a2.69,2.69,0,1,1,2.69-2.69,2.69,2.69,0,0,1-2.69,2.69Zm0-5.35a2.66,2.66,0,1,0,2.66,2.66,2.67,2.67,0,0,0-2.66-2.66Z"/><path class="cls-6" d="M14.26,6.54l-.18-.32a.53.53,0,0,1,.36-.12s0,.35,0,.35Z"/><path d="M14.25,6.56l-.18-.33a.46.46,0,0,1,.37-.14,2.16,2.16,0,0,1,0,.36l-.19.11Zm.18-.46a.66.66,0,0,0-.34.13l.17.29.16-.08s0-.32,0-.34Z"/><path class="cls-3" d="M14.43,6.46l0-.36a.72.72,0,0,1,.55.22l-.19.27Z"/><path d="M14.82,6.61l-.4-.14,0-.38h0a.71.71,0,0,1,.55.22,1.8,1.8,0,0,1-.19.29Zm-.35-.49,0,.34.37.11s.18-.25.18-.26a.71.71,0,0,0-.52-.19Z"/><path class="cls-6" d="M14.82,6.59,15,6.31a.66.66,0,0,1,.18.35l-.28.07s-.08-.14-.08-.14Z"/><path d="M14.9,6.74h0a.91.91,0,0,1-.08-.13L15,6.31a.49.49,0,0,1,.22.35,1.92,1.92,0,0,1-.3.08Zm-.07-.15.08.12.27-.06A.76.76,0,0,0,15,6.32l-.16.27Z"/><path d="M14.35,11.12a1.13,1.13,0,0,1,1-.3c-.1-.16-.42-.14-.42-.14s-.09-.74,0-.78a1.31,1.31,0,0,1,.4,0,.13.13,0,0,0,.06-.19c-.06-.07-.23-.35-.16-.4s.45,0,.45,0L14.57,8a1.06,1.06,0,0,1,.11-.77c.26-.22.23-.46.22-.45a.39.39,0,0,0-.64-.2.26.26,0,0,0,0,.32s-.39.1-.4.17.43,0,.43,0l0,.31s-.87.8-.21,1.48l0,0a1.11,1.11,0,0,0,.48.35c.23.24.21.2.21.2a1.67,1.67,0,0,1,0,.45,3.05,3.05,0,0,0-.74,0c-.08,0-.38,0-.31.5l.11-.25s0,.18.07.24a.54.54,0,0,1,.07-.31s0,.2.06.23,0-.33.3-.3a2.73,2.73,0,0,0,.43,0,5.9,5.9,0,0,1,.06.78c-.18,0-.62,0-.64.13a1.46,1.46,0,0,1,.37,0s-.21.18-.14.29Z"/><path d="M14.34,11.14v0c-.06-.1.09-.25.14-.29h-.35c0-.16.48-.2.64-.16,0,0,0-.47-.07-.76a1.69,1.69,0,0,1-.42,0h0c-.16,0-.21.15-.24.23s0,.08,0,.08S13.9,10,13.9,10a.84.84,0,0,0-.05.29c-.1,0-.09-.23-.09-.24l-.08.26c-.1-.45.14-.5.25-.52h0l.26,0a3.63,3.63,0,0,1,.48,0,1.68,1.68,0,0,0,0-.43h0l-.2-.2A1,1,0,0,1,14,8.78l0,0a1.12,1.12,0,0,0,.47.35l.21.2a1.24,1.24,0,0,1,0,.47,4.57,4.57,0,0,0-.74,0h0c-.12,0-.33.06-.26.48l.08-.26s0,.18.09.24a.37.37,0,0,1,.05-.31c0,.09,0,.21.08.23a.22.22,0,0,0,0-.06c0-.09.09-.25.25-.25a2.64,2.64,0,0,0,.46,0,3.66,3.66,0,0,1,.07.8h-.16c-.21,0-.46.06-.48.13a.25.25,0,0,1,.12,0,1.1,1.1,0,0,1,.24,0c0,.07-.16.2-.14.28a1.19,1.19,0,0,1,1-.29.62.62,0,0,0-.39-.11h0c0-.18-.09-.75,0-.79a1.76,1.76,0,0,1,.4,0,.08.08,0,0,0,.05-.05.12.12,0,0,0,0-.12.9.9,0,0,1-.18-.38.08.08,0,0,1,0-.05c.07,0,.45,0,.47,0L14.55,8s-.11-.54.12-.79a.49.49,0,0,0,.22-.43.39.39,0,0,0-.62-.19c-.14.16-.06.28,0,.29a1.26,1.26,0,0,0-.4.18h.07a2.59,2.59,0,0,0,.35,0l0,.32a1.53,1.53,0,0,0-.45.88.76.76,0,0,0,.24.59h0s0,0,0,0a.78.78,0,0,1-.27-.61,1.45,1.45,0,0,1,.46-.89l0-.29a1.54,1.54,0,0,1-.34.05c-.07,0-.08,0-.09,0s.32-.19.4-.21-.09-.14,0-.3a.42.42,0,0,1,.68.2.52.52,0,0,1-.23.46c-.21.24-.11.75-.11.76l1.07,1.37s-.23,0-.36,0-.08,0-.09,0a.76.76,0,0,0,.16.39.14.14,0,0,1,0,.14s0,.07-.08.07L15,9.9H14.9a2.31,2.31,0,0,0,0,.77.44.44,0,0,1,.41.13h-.19a1,1,0,0,0-.79.31Z"/><path class="cls-7" d="M14.45,7.21s-.63.7-.36,1.23c0-.07,0-.12,0-.12s.08.07.07,0a.5.5,0,0,0,0-.12l.08,0,0-.09.12,0s-.05-.12,0-.12h.1c-.18-.33,0-.59.07-.88Z"/><path class="cls-7" d="M14.1,8.49l0,0c-.28-.54.35-1.24.36-1.25a.4.4,0,0,1,0,.19.76.76,0,0,0,0,.69s-.1,0-.11,0,0,.06,0,.1h-.14l.07.07h-.08a.54.54,0,0,1,0,.11s-.09-.05-.1-.05a.17.17,0,0,1,0,.12v0Zm.33-1.28c0,.09-.55.7-.35,1.18a.06.06,0,0,1,0,0v0l.08,0a.42.42,0,0,1,0-.1v0l.11,0-.07-.07h.14c-.06-.09-.05-.1-.05-.11h.12a.71.71,0,0,1,0-.69,1.09,1.09,0,0,0,0-.17Z"/><path class="cls-7" d="M14.67,6.61s0,.24-.1.31-.1,0-.09.09,0,.06.1,0,.3-.31.09-.44Z"/><path class="cls-7" d="M14.53,7.08s0,0-.06-.07,0-.07.08-.09.11-.31.11-.31a.18.18,0,0,1,.12.22.3.3,0,0,1-.19.24Zm.14-.46s0,.24-.09.31S14.49,7,14.5,7s0,0,0,0h0a.26.26,0,0,0,.18-.21.21.21,0,0,0-.08-.21Z"/><path class="cls-8" d="M14.44,6.82a.06.06,0,0,1-.06,0,0,0,0,0,1-.05,0,.06.06,0,0,1,.05-.06.06.06,0,0,1,.06.06Z"/><path class="cls-6" d="M14.23,7s-.21.21,0,.27.14-.08.18-.12-.09-.1-.14-.15Z"/><path d="M14.19,7.31h0s-.08,0-.08-.09.08-.19.11-.21,0,0,.07,0,.09.06.09.12l0,0s0,.06-.16.1Zm0-.28s-.1.12-.08.19,0,0,.06.06.12-.06.13-.08,0,0,0,0,0-.06-.07-.09l-.06,0Z"/><path class="cls-7" d="M14.61,8.75a.58.58,0,0,0,0,.29.3.3,0,0,1,.28,0,1.28,1.28,0,0,1-.29-.28Z"/><path class="cls-7" d="M14.61,9.06h0a.44.44,0,0,1,0-.3h0a1.06,1.06,0,0,0,0,.28c.11,0,.18-.06.24,0a.7.7,0,0,1-.27-.25,3.47,3.47,0,0,0,.3.27h-.11a.37.37,0,0,0-.16,0Z"/><path class="cls-8" d="M14.88,9.44v.34a.45.45,0,0,0,.17,0s0-.24-.18-.34Z"/><path class="cls-8" d="M15,9.8h-.11l0-.35a.35.35,0,0,1,.23.3s0,0,0,0Zm-.07,0a.33.33,0,0,0,.14,0,.37.37,0,0,0-.19-.31l0,.32Z"/><path class="cls-7" d="M15.74,9.48A1.2,1.2,0,0,0,15,8.82a.6.6,0,0,1-.44-.77c0-.05,0-.13.2-.06s.91.45,1,.47,0,1,0,1Z"/><path d="M15.74,9.49h0A1.19,1.19,0,0,0,15,8.83a.59.59,0,0,1-.47-.46.5.5,0,0,1,0-.33c0-.07.07-.13.22-.06l.18.09c.28.14.75.36.83.38s0,.61,0,.87,0,.17,0,.17ZM14.61,8a.07.07,0,0,0-.07.06.47.47,0,0,0,0,.34A.57.57,0,0,0,15,8.8a1.19,1.19,0,0,1,.77.63,3.8,3.8,0,0,0,0-.95c-.09,0-.46-.2-.84-.38L14.72,8l-.11,0Z"/><path class="cls-6" d="M15.21,8.81s.75.45.52.83a.37.37,0,0,0,.14-.39.54.54,0,0,1-.25.68c.05,0,.08,0,.08,0l-.08.08s0,.05.26-.09c-.08.07-.09.11-.09.11s0,.06.21-.1a.82.82,0,0,0-.18.25c.41,0,1.31-1.38-.28-1.78l.07.08Z"/><path d="M15.79,10.22l0,0h0a.66.66,0,0,1,.11-.16.23.23,0,0,1-.1.05h0l0,0s0-.06.09-.13a.49.49,0,0,1-.24.12l0,0,.06-.06s0,0-.06,0a.54.54,0,0,0,.28-.55.34.34,0,0,1-.16.25c.07-.16.06-.42-.5-.8l0,0,.41-.31-.08-.06c.86.19,1,.66.94.91a1,1,0,0,1-.64.87ZM16,10c-.06.1-.12.18-.15.24a1,1,0,0,0,.58-.84c0-.43-.29-.75-.9-.9.1.06.1.06.09.07l-.39.29h0c.46.32.63.6.49.83a.43.43,0,0,0,.12-.4h0l0,0a.52.52,0,0,1-.25.67h0l0,.09a2.31,2.31,0,0,1,.24-.11.49.49,0,0,0-.06.12s.07,0,.19-.11Z"/><path class="cls-8" d="M15.24,8.68c.1.07.14.1.15.14a.47.47,0,0,0-.18,0A3,3,0,0,0,15,8.59a1,1,0,0,1-.18-.1c-.08,0-.16-.31.14-.24l.34.16.36.11.21.23a3.52,3.52,0,0,0-.42-.18.71.71,0,0,1,.16.19l-.34-.08Z"/><path d="M15.41,8.83h0l-.15,0h0L15,8.6h0a.7.7,0,0,1-.19-.1.2.2,0,0,1-.08-.19s.07-.11.23-.07l.34.16.36.11.22.24c-.16-.05-.4-.17-.43-.17a.41.41,0,0,1,.17.18l0,0-.06,0a1.46,1.46,0,0,0-.3-.07v0a1.65,1.65,0,0,1,.32.07.92.92,0,0,0-.15-.16,1.47,1.47,0,0,1,.43.16l-.12-.09-.1-.12-.35-.11a2.65,2.65,0,0,1-.35-.15c-.1,0-.17,0-.19.05a.2.2,0,0,0,.06.16l.18.1a1.32,1.32,0,0,1,.25.21h.14s0-.05-.11-.09h0c.11.05.14.07.16.11v0Z"/><path d="M13.8,7A3.27,3.27,0,0,1,14.2,7Z"/><path class="cls-8" d="M13.81,7.06V7A3.38,3.38,0,0,1,14.2,7s-.25.06-.39.1Z"/></g></g></g></g></g></svg>