<svg xmlns="http://www.w3.org/2000/svg" xmlns:xlink="http://www.w3.org/1999/xlink" viewBox="0 0 29.46 17.19"><defs><style>.cls-1{fill:none;}.cls-2{clip-path:url(#clip-path);}.cls-3{fill:#fff;}.cls-4{fill:#bd0034;}.cls-5{fill:#1a237b;}</style><clipPath id="clip-path"><rect class="cls-1" width="29.46" height="17.19"/></clipPath></defs><g id="Layer_2" data-name="Layer 2"><g id="cá»"><g id="north_europee" data-name="north europee"><g class="cls-2"><rect class="cls-3" width="29.46" height="17.19"/><polygon class="cls-4" points="19.73 6.21 29.46 0.77 29.46 0 28.79 0 17.69 6.21 19.73 6.21"/><polygon class="cls-4" points="19.27 11.32 29.46 17.02 29.46 15.88 21.3 11.32 19.27 11.32"/><polygon class="cls-4" points="0 1.31 8.72 6.21 10.76 6.21 0 0.17 0 1.31"/><polygon class="cls-4" points="10.3 11.32 0 17.09 0 17.19 1.86 17.19 12.33 11.32 10.3 11.32"/><polygon class="cls-5" points="27.45 0 17.13 0 17.13 5.78 27.45 0"/><polygon class="cls-5" points="12.57 0 2.3 0 12.57 5.78 12.57 0"/><polygon class="cls-5" points="29.46 6.21 29.46 2.27 22.46 6.21 29.46 6.21"/><polygon class="cls-5" points="29.46 15.22 29.46 11.32 22.46 11.32 29.46 15.22"/><polygon class="cls-5" points="2.88 17.19 12.57 17.19 12.57 11.76 2.88 17.19"/><polygon class="cls-5" points="17.13 17.19 26.85 17.19 17.13 11.76 17.13 17.19"/><polygon class="cls-5" points="0 11.32 0 15.39 7.24 11.32 0 11.32"/><polygon class="cls-5" points="0 6.21 7.24 6.21 0 2.13 0 6.21"/><polygon class="cls-4" points="13.49 0 13.49 7.24 0 7.24 0 10.3 13.49 10.3 13.49 17.19 16.22 17.19 16.22 10.3 29.46 10.3 29.46 7.24 16.22 7.24 16.22 0 13.49 0"/></g></g></g></g></svg>