<svg xmlns="http://www.w3.org/2000/svg" xmlns:xlink="http://www.w3.org/1999/xlink" viewBox="0 0 29.46 17.19"><defs><style>.cls-1{fill:none;}.cls-2{clip-path:url(#clip-path);}.cls-3{fill:#cb001c;}.cls-4{fill:#fff;}.cls-5{fill:#2a3560;}</style><clipPath id="clip-path"><rect class="cls-1" width="29.46" height="17.19"/></clipPath></defs><g id="Layer_2" data-name="Layer 2"><g id="cá»"><g id="north_america" data-name="north america"><g class="cls-2"><rect class="cls-3" y="15.86" width="29.46" height="1.32"/><rect class="cls-4" y="14.54" width="29.46" height="1.32"/><rect class="cls-3" y="13.22" width="29.46" height="1.32"/><rect class="cls-4" y="11.9" width="29.46" height="1.32"/><rect class="cls-3" y="10.58" width="29.46" height="1.32"/><rect class="cls-4" y="9.25" width="29.46" height="1.32"/><rect class="cls-3" y="7.93" width="29.46" height="1.32"/><rect class="cls-4" y="6.61" width="29.46" height="1.32"/><rect class="cls-3" y="5.29" width="29.46" height="1.32"/><rect class="cls-4" y="3.97" width="29.46" height="1.32"/><rect class="cls-3" y="2.64" width="29.46" height="1.32"/><rect class="cls-4" y="1.32" width="29.46" height="1.32"/><rect class="cls-3" width="29.46" height="1.32"/><rect class="cls-5" width="13.45" height="9.25"/><polygon class="cls-4" points="1.21 1.02 1.33 1.37 1.69 1.37 1.4 1.59 1.51 1.94 1.21 1.72 0.92 1.94 1.03 1.59 0.73 1.37 1.1 1.37 1.21 1.02"/><polygon class="cls-4" points="1.21 2.56 1.33 2.91 1.69 2.91 1.4 3.13 1.51 3.48 1.21 3.26 0.92 3.48 1.03 3.13 0.73 2.91 1.1 2.91 1.21 2.56"/><polygon class="cls-4" points="1.21 4.11 1.33 4.46 1.69 4.46 1.4 4.67 1.51 5.03 1.21 4.81 0.92 5.03 1.03 4.67 0.73 4.46 1.1 4.46 1.21 4.11"/><polygon class="cls-4" points="1.21 5.65 1.33 6 1.69 6 1.4 6.22 1.51 6.57 1.21 6.35 0.92 6.57 1.03 6.22 0.73 6 1.1 6 1.21 5.65"/><polygon class="cls-4" points="1.21 7.2 1.33 7.55 1.69 7.55 1.4 7.76 1.51 8.11 1.21 7.9 0.92 8.11 1.03 7.76 0.73 7.55 1.1 7.55 1.21 7.2"/><polygon class="cls-4" points="2.29 1.83 2.4 2.18 2.77 2.18 2.47 2.4 2.59 2.75 2.29 2.53 1.99 2.75 2.1 2.4 1.81 2.18 2.17 2.18 2.29 1.83"/><polygon class="cls-4" points="2.29 3.38 2.4 3.73 2.77 3.73 2.47 3.94 2.59 4.29 2.29 4.08 1.99 4.29 2.1 3.94 1.81 3.73 2.17 3.73 2.29 3.38"/><polygon class="cls-4" points="2.29 4.92 2.4 5.27 2.77 5.27 2.47 5.49 2.59 5.84 2.29 5.62 1.99 5.84 2.1 5.49 1.81 5.27 2.17 5.27 2.29 4.92"/><polygon class="cls-4" points="2.29 6.47 2.4 6.82 2.77 6.82 2.47 7.03 2.59 7.38 2.29 7.17 1.99 7.38 2.1 7.03 1.81 6.82 2.17 6.82 2.29 6.47"/><polygon class="cls-4" points="3.38 1.02 3.49 1.37 3.86 1.37 3.56 1.59 3.68 1.94 3.38 1.72 3.08 1.94 3.19 1.59 2.9 1.37 3.27 1.37 3.38 1.02"/><polygon class="cls-4" points="3.38 2.56 3.49 2.91 3.86 2.91 3.56 3.13 3.68 3.48 3.38 3.26 3.08 3.48 3.19 3.13 2.9 2.91 3.27 2.91 3.38 2.56"/><polygon class="cls-4" points="3.38 4.11 3.49 4.46 3.86 4.46 3.56 4.67 3.68 5.03 3.38 4.81 3.08 5.03 3.19 4.67 2.9 4.46 3.27 4.46 3.38 4.11"/><polygon class="cls-4" points="3.38 5.65 3.49 6 3.86 6 3.56 6.22 3.68 6.57 3.38 6.35 3.08 6.57 3.19 6.22 2.9 6 3.27 6 3.38 5.65"/><polygon class="cls-4" points="3.38 7.2 3.49 7.55 3.86 7.55 3.56 7.76 3.68 8.11 3.38 7.9 3.08 8.11 3.19 7.76 2.9 7.55 3.27 7.55 3.38 7.2"/><polygon class="cls-4" points="4.45 1.83 4.57 2.18 4.94 2.18 4.64 2.4 4.75 2.75 4.45 2.53 4.16 2.75 4.27 2.4 3.97 2.18 4.34 2.18 4.45 1.83"/><polygon class="cls-4" points="4.45 3.38 4.57 3.73 4.94 3.73 4.64 3.94 4.75 4.29 4.45 4.08 4.16 4.29 4.27 3.94 3.97 3.73 4.34 3.73 4.45 3.38"/><polygon class="cls-4" points="4.45 4.92 4.57 5.27 4.94 5.27 4.64 5.49 4.75 5.84 4.45 5.62 4.16 5.84 4.27 5.49 3.97 5.27 4.34 5.27 4.45 4.92"/><polygon class="cls-4" points="4.45 6.47 4.57 6.82 4.94 6.82 4.64 7.03 4.75 7.38 4.45 7.17 4.16 7.38 4.27 7.03 3.97 6.82 4.34 6.82 4.45 6.47"/><polygon class="cls-4" points="5.54 1.02 5.66 1.37 6.03 1.37 5.73 1.59 5.84 1.94 5.54 1.72 5.25 1.94 5.36 1.59 5.06 1.37 5.43 1.37 5.54 1.02"/><polygon class="cls-4" points="5.54 2.56 5.66 2.91 6.03 2.91 5.73 3.13 5.84 3.48 5.54 3.26 5.25 3.48 5.36 3.13 5.06 2.91 5.43 2.91 5.54 2.56"/><polygon class="cls-4" points="5.54 4.11 5.66 4.46 6.03 4.46 5.73 4.67 5.84 5.03 5.54 4.81 5.25 5.03 5.36 4.67 5.06 4.46 5.43 4.46 5.54 4.11"/><polygon class="cls-4" points="5.54 5.65 5.66 6 6.03 6 5.73 6.22 5.84 6.57 5.54 6.35 5.25 6.57 5.36 6.22 5.06 6 5.43 6 5.54 5.65"/><polygon class="cls-4" points="5.54 7.2 5.66 7.55 6.03 7.55 5.73 7.76 5.84 8.11 5.54 7.9 5.25 8.11 5.36 7.76 5.06 7.55 5.43 7.55 5.54 7.2"/><polygon class="cls-4" points="6.62 1.83 6.73 2.18 7.1 2.18 6.8 2.4 6.92 2.75 6.62 2.53 6.32 2.75 6.44 2.4 6.14 2.18 6.51 2.18 6.62 1.83"/><polygon class="cls-4" points="6.62 3.38 6.73 3.73 7.1 3.73 6.8 3.94 6.92 4.29 6.62 4.08 6.32 4.29 6.44 3.94 6.14 3.73 6.51 3.73 6.62 3.38"/><polygon class="cls-4" points="6.62 4.92 6.73 5.27 7.1 5.27 6.8 5.49 6.92 5.84 6.62 5.62 6.32 5.84 6.44 5.49 6.14 5.27 6.51 5.27 6.62 4.92"/><polygon class="cls-4" points="6.62 6.47 6.73 6.82 7.1 6.82 6.8 7.03 6.92 7.38 6.62 7.17 6.32 7.38 6.44 7.03 6.14 6.82 6.51 6.82 6.62 6.47"/><polygon class="cls-4" points="7.71 1.02 7.82 1.37 8.19 1.37 7.89 1.59 8.01 1.94 7.71 1.72 7.41 1.94 7.53 1.59 7.23 1.37 7.6 1.37 7.71 1.02"/><polygon class="cls-4" points="7.71 2.56 7.82 2.91 8.19 2.91 7.89 3.13 8.01 3.48 7.71 3.26 7.41 3.48 7.53 3.13 7.23 2.91 7.6 2.91 7.71 2.56"/><polygon class="cls-4" points="7.71 4.11 7.82 4.46 8.19 4.46 7.89 4.67 8.01 5.03 7.71 4.81 7.41 5.03 7.53 4.67 7.23 4.46 7.6 4.46 7.71 4.11"/><polygon class="cls-4" points="7.71 5.65 7.82 6 8.19 6 7.89 6.22 8.01 6.57 7.71 6.35 7.41 6.57 7.53 6.22 7.23 6 7.6 6 7.71 5.65"/><polygon class="cls-4" points="7.71 7.2 7.82 7.55 8.19 7.55 7.89 7.76 8.01 8.11 7.71 7.9 7.41 8.11 7.53 7.76 7.23 7.55 7.6 7.55 7.71 7.2"/><polygon class="cls-4" points="8.79 1.83 8.9 2.18 9.27 2.18 8.97 2.4 9.08 2.75 8.79 2.53 8.49 2.75 8.6 2.4 8.3 2.18 8.67 2.18 8.79 1.83"/><polygon class="cls-4" points="8.79 3.38 8.9 3.73 9.27 3.73 8.97 3.94 9.08 4.29 8.79 4.08 8.49 4.29 8.6 3.94 8.3 3.73 8.67 3.73 8.79 3.38"/><polygon class="cls-4" points="8.79 4.92 8.9 5.27 9.27 5.27 8.97 5.49 9.08 5.84 8.79 5.62 8.49 5.84 8.6 5.49 8.3 5.27 8.67 5.27 8.79 4.92"/><polygon class="cls-4" points="8.79 6.47 8.9 6.82 9.27 6.82 8.97 7.03 9.08 7.38 8.79 7.17 8.49 7.38 8.6 7.03 8.3 6.82 8.67 6.82 8.79 6.47"/><polygon class="cls-4" points="9.88 1.02 9.99 1.37 10.36 1.37 10.06 1.59 10.17 1.94 9.88 1.72 9.58 1.94 9.69 1.59 9.39 1.37 9.76 1.37 9.88 1.02"/><polygon class="cls-4" points="9.88 2.56 9.99 2.91 10.36 2.91 10.06 3.13 10.17 3.48 9.88 3.26 9.58 3.48 9.69 3.13 9.39 2.91 9.76 2.91 9.88 2.56"/><polygon class="cls-4" points="9.88 4.11 9.99 4.46 10.36 4.46 10.06 4.67 10.17 5.03 9.88 4.81 9.58 5.03 9.69 4.67 9.39 4.46 9.76 4.46 9.88 4.11"/><polygon class="cls-4" points="9.88 5.65 9.99 6 10.36 6 10.06 6.22 10.17 6.57 9.88 6.35 9.58 6.57 9.69 6.22 9.39 6 9.76 6 9.88 5.65"/><polygon class="cls-4" points="9.88 7.2 9.99 7.55 10.36 7.55 10.06 7.76 10.17 8.11 9.88 7.9 9.58 8.11 9.69 7.76 9.39 7.55 9.76 7.55 9.88 7.2"/><polygon class="cls-4" points="10.95 1.83 11.06 2.18 11.43 2.18 11.13 2.4 11.25 2.75 10.95 2.53 10.65 2.75 10.77 2.4 10.47 2.18 10.84 2.18 10.95 1.83"/><polygon class="cls-4" points="10.95 3.38 11.06 3.73 11.43 3.73 11.13 3.94 11.25 4.29 10.95 4.08 10.65 4.29 10.77 3.94 10.47 3.73 10.84 3.73 10.95 3.38"/><polygon class="cls-4" points="10.95 4.92 11.06 5.27 11.43 5.27 11.13 5.49 11.25 5.84 10.95 5.62 10.65 5.84 10.77 5.49 10.47 5.27 10.84 5.27 10.95 4.92"/><polygon class="cls-4" points="10.95 6.47 11.06 6.82 11.43 6.82 11.13 7.03 11.25 7.38 10.95 7.17 10.65 7.38 10.77 7.03 10.47 6.82 10.84 6.82 10.95 6.47"/><polygon class="cls-4" points="12.04 1.02 12.15 1.37 12.52 1.37 12.22 1.59 12.34 1.94 12.04 1.72 11.74 1.94 11.86 1.59 11.56 1.37 11.93 1.37 12.04 1.02"/><polygon class="cls-4" points="12.04 2.56 12.15 2.91 12.52 2.91 12.22 3.13 12.34 3.48 12.04 3.26 11.74 3.48 11.86 3.13 11.56 2.91 11.93 2.91 12.04 2.56"/><polygon class="cls-4" points="12.04 4.11 12.15 4.46 12.52 4.46 12.22 4.67 12.34 5.03 12.04 4.81 11.74 5.03 11.86 4.67 11.56 4.46 11.93 4.46 12.04 4.11"/><polygon class="cls-4" points="12.04 5.65 12.15 6 12.52 6 12.22 6.22 12.34 6.57 12.04 6.35 11.74 6.57 11.86 6.22 11.56 6 11.93 6 12.04 5.65"/><polygon class="cls-4" points="12.04 7.2 12.15 7.55 12.52 7.55 12.22 7.76 12.34 8.11 12.04 7.9 11.74 8.11 11.86 7.76 11.56 7.55 11.93 7.55 12.04 7.2"/></g></g></g></g></svg>