<svg xmlns="http://www.w3.org/2000/svg" xmlns:xlink="http://www.w3.org/1999/xlink" viewBox="0 0 29.46 17.19"><defs><style>.cls-1{fill:none;}.cls-2{clip-path:url(#clip-path);}.cls-3{fill:#4497b1;}.cls-4{fill:#bc0030;}.cls-5{fill:#fff;}.cls-6{fill:#50b63f;}</style><clipPath id="clip-path"><rect class="cls-1" width="29.46" height="17.19"/></clipPath></defs><g id="Layer_2" data-name="Layer 2"><g id="cá»"><g id="central_asia" data-name="central asia"><g class="cls-2"><rect class="cls-3" width="29.46" height="5.5"/><rect class="cls-4" y="5.5" width="29.46" height="0.34"/><rect class="cls-5" y="5.84" width="29.46" height="5.5"/><rect class="cls-4" y="11.34" width="29.46" height="0.34"/><rect class="cls-6" y="11.69" width="29.46" height="5.5"/><g class="cls-2"><path class="cls-5" d="M6.87,2.75A2.06,2.06,0,1,1,4.81.69,2.06,2.06,0,0,1,6.87,2.75"/><path class="cls-3" d="M7.46,2.75A1.72,1.72,0,1,1,5.74,1,1.72,1.72,0,0,1,7.46,2.75"/><polygon class="cls-5" points="10.04 0.69 9.91 1.08 10.11 1.14 10.04 0.69"/><polygon class="cls-5" points="10.04 0.69 10.16 1.08 9.97 1.14 10.04 0.69"/><polygon class="cls-5" points="10.43 0.97 10.02 0.97 10.02 1.18 10.43 0.97"/><polygon class="cls-5" points="10.43 0.97 10.1 1.22 9.97 1.05 10.43 0.97"/><polygon class="cls-5" points="9.64 0.97 9.98 1.22 10.1 1.05 9.64 0.97"/><polygon class="cls-5" points="9.64 0.97 10.06 0.97 10.06 1.18 9.64 0.97"/><polygon class="cls-5" points="10.28 1.43 10.15 1.04 9.96 1.1 10.28 1.43"/><polygon class="cls-5" points="10.28 1.43 9.95 1.19 10.07 1.02 10.28 1.43"/><polygon class="cls-5" points="9.79 1.43 10.13 1.19 10.01 1.02 9.79 1.43"/><polygon class="cls-5" points="9.79 1.43 9.92 1.04 10.12 1.1 9.79 1.43"/><polygon class="cls-5" points="11.69 0.69 11.56 1.08 11.76 1.14 11.69 0.69"/><polygon class="cls-5" points="11.69 0.69 11.81 1.08 11.62 1.14 11.69 0.69"/><polygon class="cls-5" points="12.08 0.97 11.67 0.97 11.67 1.18 12.08 0.97"/><polygon class="cls-5" points="12.08 0.97 11.75 1.22 11.62 1.05 12.08 0.97"/><polygon class="cls-5" points="11.29 0.97 11.63 1.22 11.75 1.05 11.29 0.97"/><polygon class="cls-5" points="11.29 0.97 11.71 0.97 11.71 1.18 11.29 0.97"/><polygon class="cls-5" points="11.93 1.43 11.8 1.04 11.61 1.1 11.93 1.43"/><polygon class="cls-5" points="11.93 1.43 11.6 1.19 11.72 1.02 11.93 1.43"/><polygon class="cls-5" points="11.44 1.43 11.78 1.19 11.66 1.02 11.44 1.43"/><polygon class="cls-5" points="11.44 1.43 11.57 1.04 11.77 1.1 11.44 1.43"/><polygon class="cls-5" points="13.34 0.69 13.21 1.08 13.4 1.14 13.34 0.69"/><polygon class="cls-5" points="13.34 0.69 13.46 1.08 13.27 1.14 13.34 0.69"/><polygon class="cls-5" points="13.73 0.97 13.32 0.97 13.32 1.18 13.73 0.97"/><polygon class="cls-5" points="13.73 0.97 13.39 1.22 13.27 1.05 13.73 0.97"/><polygon class="cls-5" points="12.94 0.97 13.28 1.22 13.4 1.05 12.94 0.97"/><polygon class="cls-5" points="12.94 0.97 13.36 0.97 13.36 1.18 12.94 0.97"/><polygon class="cls-5" points="13.58 1.43 13.45 1.04 13.26 1.1 13.58 1.43"/><polygon class="cls-5" points="13.58 1.43 13.24 1.19 13.37 1.02 13.58 1.43"/><polygon class="cls-5" points="13.09 1.43 13.43 1.19 13.31 1.02 13.09 1.43"/><polygon class="cls-5" points="13.09 1.43 13.22 1.04 13.42 1.1 13.09 1.43"/><polygon class="cls-5" points="8.39 2.34 8.26 2.73 8.46 2.79 8.39 2.34"/><polygon class="cls-5" points="8.39 2.34 8.51 2.73 8.32 2.79 8.39 2.34"/><polygon class="cls-5" points="8.78 2.62 8.37 2.62 8.37 2.83 8.78 2.62"/><polygon class="cls-5" points="8.78 2.62 8.45 2.86 8.32 2.7 8.78 2.62"/><polygon class="cls-5" points="8 2.62 8.33 2.86 8.45 2.7 8 2.62"/><polygon class="cls-5" points="8 2.62 8.41 2.62 8.41 2.83 8 2.62"/><polygon class="cls-5" points="8.63 3.08 8.5 2.69 8.31 2.75 8.63 3.08"/><polygon class="cls-5" points="8.63 3.08 8.29 2.84 8.42 2.67 8.63 3.08"/><polygon class="cls-5" points="8.14 3.08 8.48 2.84 8.36 2.67 8.14 3.08"/><polygon class="cls-5" points="8.14 3.08 8.27 2.69 8.47 2.75 8.14 3.08"/><polygon class="cls-5" points="10.04 2.34 9.91 2.73 10.11 2.79 10.04 2.34"/><polygon class="cls-5" points="10.04 2.34 10.16 2.73 9.97 2.79 10.04 2.34"/><polygon class="cls-5" points="10.43 2.62 10.02 2.62 10.02 2.83 10.43 2.62"/><polygon class="cls-5" points="10.43 2.62 10.1 2.86 9.97 2.7 10.43 2.62"/><polygon class="cls-5" points="9.64 2.62 9.98 2.86 10.1 2.7 9.64 2.62"/><polygon class="cls-5" points="9.64 2.62 10.06 2.62 10.06 2.83 9.64 2.62"/><polygon class="cls-5" points="10.28 3.08 10.15 2.69 9.96 2.75 10.28 3.08"/><polygon class="cls-5" points="10.28 3.08 9.95 2.84 10.07 2.67 10.28 3.08"/><polygon class="cls-5" points="9.79 3.08 10.13 2.84 10.01 2.67 9.79 3.08"/><polygon class="cls-5" points="9.79 3.08 9.92 2.69 10.12 2.75 9.79 3.08"/><polygon class="cls-5" points="11.69 2.34 11.56 2.73 11.76 2.79 11.69 2.34"/><polygon class="cls-5" points="11.69 2.34 11.81 2.73 11.62 2.79 11.69 2.34"/><polygon class="cls-5" points="12.08 2.62 11.67 2.62 11.67 2.83 12.08 2.62"/><polygon class="cls-5" points="12.08 2.62 11.75 2.86 11.62 2.7 12.08 2.62"/><polygon class="cls-5" points="11.29 2.62 11.63 2.86 11.75 2.7 11.29 2.62"/><polygon class="cls-5" points="11.29 2.62 11.71 2.62 11.71 2.83 11.29 2.62"/><polygon class="cls-5" points="11.93 3.08 11.8 2.69 11.61 2.75 11.93 3.08"/><polygon class="cls-5" points="11.93 3.08 11.6 2.84 11.72 2.67 11.93 3.08"/><polygon class="cls-5" points="11.44 3.08 11.78 2.84 11.66 2.67 11.44 3.08"/><polygon class="cls-5" points="11.44 3.08 11.57 2.69 11.77 2.75 11.44 3.08"/><polygon class="cls-5" points="13.34 2.34 13.21 2.73 13.4 2.79 13.34 2.34"/><polygon class="cls-5" points="13.34 2.34 13.46 2.73 13.27 2.79 13.34 2.34"/><polygon class="cls-5" points="13.73 2.62 13.32 2.62 13.32 2.83 13.73 2.62"/><polygon class="cls-5" points="13.73 2.62 13.39 2.86 13.27 2.7 13.73 2.62"/><polygon class="cls-5" points="12.94 2.62 13.28 2.86 13.4 2.7 12.94 2.62"/><polygon class="cls-5" points="12.94 2.62 13.36 2.62 13.36 2.83 12.94 2.62"/><polygon class="cls-5" points="13.58 3.08 13.45 2.69 13.26 2.75 13.58 3.08"/><polygon class="cls-5" points="13.58 3.08 13.24 2.84 13.37 2.67 13.58 3.08"/><polygon class="cls-5" points="13.09 3.08 13.43 2.84 13.31 2.67 13.09 3.08"/><polygon class="cls-5" points="13.09 3.08 13.22 2.69 13.42 2.75 13.09 3.08"/><polygon class="cls-5" points="6.74 3.99 6.61 4.38 6.8 4.44 6.74 3.99"/><polygon class="cls-5" points="6.74 3.99 6.86 4.38 6.67 4.44 6.74 3.99"/><polygon class="cls-5" points="7.13 4.27 6.72 4.27 6.72 4.48 7.13 4.27"/><polygon class="cls-5" points="7.13 4.27 6.8 4.51 6.67 4.35 7.13 4.27"/><polygon class="cls-5" points="6.34 4.27 6.68 4.51 6.8 4.35 6.34 4.27"/><polygon class="cls-5" points="6.34 4.27 6.76 4.27 6.76 4.48 6.34 4.27"/><polygon class="cls-5" points="6.98 4.73 6.85 4.34 6.66 4.41 6.98 4.73"/><polygon class="cls-5" points="6.98 4.73 6.65 4.49 6.77 4.32 6.98 4.73"/><polygon class="cls-5" points="6.49 4.73 6.83 4.49 6.71 4.32 6.49 4.73"/><polygon class="cls-5" points="6.49 4.73 6.62 4.34 6.82 4.41 6.49 4.73"/><polygon class="cls-5" points="8.39 3.99 8.26 4.38 8.46 4.44 8.39 3.99"/><polygon class="cls-5" points="8.39 3.99 8.51 4.38 8.32 4.44 8.39 3.99"/><polygon class="cls-5" points="8.78 4.27 8.37 4.27 8.37 4.48 8.78 4.27"/><polygon class="cls-5" points="8.78 4.27 8.45 4.51 8.32 4.35 8.78 4.27"/><polygon class="cls-5" points="8 4.27 8.33 4.51 8.45 4.35 8 4.27"/><polygon class="cls-5" points="8 4.27 8.41 4.27 8.41 4.48 8 4.27"/><polygon class="cls-5" points="8.63 4.73 8.5 4.34 8.31 4.41 8.63 4.73"/><polygon class="cls-5" points="8.63 4.73 8.29 4.49 8.42 4.32 8.63 4.73"/><polygon class="cls-5" points="8.14 4.73 8.48 4.49 8.36 4.32 8.14 4.73"/><polygon class="cls-5" points="8.14 4.73 8.27 4.34 8.47 4.41 8.14 4.73"/><polygon class="cls-5" points="10.04 3.99 9.91 4.38 10.11 4.44 10.04 3.99"/><polygon class="cls-5" points="10.04 3.99 10.16 4.38 9.97 4.44 10.04 3.99"/><polygon class="cls-5" points="10.43 4.27 10.02 4.27 10.02 4.48 10.43 4.27"/><polygon class="cls-5" points="10.43 4.27 10.1 4.51 9.97 4.35 10.43 4.27"/><polygon class="cls-5" points="9.64 4.27 9.98 4.51 10.1 4.35 9.64 4.27"/><polygon class="cls-5" points="9.64 4.27 10.06 4.27 10.06 4.48 9.64 4.27"/><polygon class="cls-5" points="10.28 4.73 10.15 4.34 9.96 4.41 10.28 4.73"/><polygon class="cls-5" points="10.28 4.73 9.95 4.49 10.07 4.32 10.28 4.73"/><polygon class="cls-5" points="9.79 4.73 10.13 4.49 10.01 4.32 9.79 4.73"/><polygon class="cls-5" points="9.79 4.73 9.92 4.34 10.12 4.41 9.79 4.73"/><polygon class="cls-5" points="11.69 3.99 11.56 4.38 11.76 4.44 11.69 3.99"/><polygon class="cls-5" points="11.69 3.99 11.81 4.38 11.62 4.44 11.69 3.99"/><polygon class="cls-5" points="12.08 4.27 11.67 4.27 11.67 4.48 12.08 4.27"/><polygon class="cls-5" points="12.08 4.27 11.75 4.51 11.62 4.35 12.08 4.27"/><polygon class="cls-5" points="11.29 4.27 11.63 4.51 11.75 4.35 11.29 4.27"/><polygon class="cls-5" points="11.29 4.27 11.71 4.27 11.71 4.48 11.29 4.27"/><polygon class="cls-5" points="11.93 4.73 11.8 4.34 11.61 4.41 11.93 4.73"/><polygon class="cls-5" points="11.93 4.73 11.6 4.49 11.72 4.32 11.93 4.73"/><polygon class="cls-5" points="11.44 4.73 11.78 4.49 11.66 4.32 11.44 4.73"/><polygon class="cls-5" points="11.44 4.73 11.57 4.34 11.77 4.41 11.44 4.73"/><polygon class="cls-5" points="13.34 3.99 13.21 4.38 13.4 4.44 13.34 3.99"/><polygon class="cls-5" points="13.34 3.99 13.46 4.38 13.27 4.44 13.34 3.99"/><polygon class="cls-5" points="13.73 4.27 13.32 4.27 13.32 4.48 13.73 4.27"/><polygon class="cls-5" points="13.73 4.27 13.39 4.51 13.27 4.35 13.73 4.27"/><polygon class="cls-5" points="12.94 4.27 13.28 4.51 13.4 4.35 12.94 4.27"/><polygon class="cls-5" points="12.94 4.27 13.36 4.27 13.36 4.48 12.94 4.27"/><polygon class="cls-5" points="13.58 4.73 13.45 4.34 13.26 4.41 13.58 4.73"/><polygon class="cls-5" points="13.58 4.73 13.24 4.49 13.37 4.32 13.58 4.73"/><polygon class="cls-5" points="13.09 4.73 13.43 4.49 13.31 4.32 13.09 4.73"/><polygon class="cls-5" points="13.09 4.73 13.22 4.34 13.42 4.41 13.09 4.73"/></g></g></g></g></g></svg>