<svg xmlns="http://www.w3.org/2000/svg" xmlns:xlink="http://www.w3.org/1999/xlink" viewBox="0 0 29.46 17.19"><defs><style>.cls-1{fill:none;}.cls-2{clip-path:url(#clip-path);}.cls-3{fill:#c0003b;}.cls-4{fill:#3d9546;}.cls-5{fill:#f5cd28;}.cls-6{fill:#f3cd2d;}</style><clipPath id="clip-path"><rect class="cls-1" width="29.46" height="17.19"/></clipPath></defs><g id="Layer_2" data-name="Layer 2"><g id="cá»"><g id="melanisia"><g class="cls-2"><rect class="cls-3" width="29.46" height="8.59"/><rect class="cls-4" y="8.59" width="29.46" height="8.59"/><polygon points="0 0 0 17.19 16.67 8.59 0 0"/><rect y="7.06" width="29.46" height="3.08"/><polygon class="cls-5" points="0 15.96 14.3 8.59 0 1.22 0 15.96"/><rect class="cls-5" y="8.14" width="29.46" height="0.91"/><polygon points="0 14.95 12.32 8.59 0 2.24 0 14.95"/><g class="cls-2"><path class="cls-6" d="M3.48,10.24v1A2.61,2.61,0,0,0,6,8.46,2.36,2.36,0,0,0,3.69,6a2.15,2.15,0,0,0-2.18,2.1A1.85,1.85,0,0,0,3.44,10,1.41,1.41,0,0,0,4.82,8.38,1.28,1.28,0,0,1,3.54,9.51,1.33,1.33,0,0,1,2.13,8.23,1.5,1.5,0,0,1,3.57,6.74,1.63,1.63,0,0,1,5.15,8.38a1.84,1.84,0,0,1-1.67,1.86Z"/><path class="cls-6" d="M2.74,9l0,0A3.9,3.9,0,0,1,4.27,7.42,4.08,4.08,0,0,0,2.74,9Z"/><path class="cls-6" d="M2.79,9,2.73,9A4,4,0,0,1,4.25,7.42h0a3.56,3.56,0,0,0-.59.43,3.9,3.9,0,0,1,.59-.43h0A3.86,3.86,0,0,0,2.8,9V9Zm.33-.59A5.86,5.86,0,0,0,2.75,9h0a3,3,0,0,1,.34-.55Z"/><path class="cls-6" d="M2.84,8.8s-.13-.25,0-.37,0,.31,0,.31l.05-.07s-.07-.32,0-.38,0,.3,0,.3l0-.07s0-.3,0-.36,0,.29,0,.29l.06-.07s0-.29.05-.36,0,.28,0,.28l.06-.07s0-.27.06-.33,0,.25,0,.25l.06-.06s0-.25.06-.31,0,.24,0,.24L3.54,8s0-.25.08-.3,0,.24,0,.24l.07-.06s0-.29.1-.32,0,.26,0,.26l.07,0s0-.25.13-.28-.06.23-.06.23l.06,0s.07-.25.16-.28-.1.24-.1.24l.06,0s.1-.22.18-.23-.09.18-.09.18l.08,0s.13-.24.17-.17-.18.18-.18.18l-.07,0s.27-.13.3-.06-.37.11-.37.11L4,7.59s.28-.07.24,0-.3,0-.3,0l-.06,0s.27-.06.23,0-.3.06-.3.06l-.06,0S4,7.72,4,7.8s-.34.08-.34.08L3.57,8s.28-.09.26,0S3.48,8,3.48,8l-.07.07s.3-.1.21,0a.63.63,0,0,1-.31.11l-.08.11s.3-.18.25-.08-.33.17-.33.17l-.06.07s.27-.15.24-.07S3,8.6,3,8.6l0,.07s.32-.19.29-.1-.33.17-.33.17l0,.06s.3-.17.3-.09-.34.16-.34.16Z"/><path class="cls-6" d="M4.45,9l0,0A3.9,3.9,0,0,0,2.92,7.42,4.08,4.08,0,0,1,4.45,9Z"/><path class="cls-6" d="M4.4,9V9A3.86,3.86,0,0,0,2.91,7.43h0A4.31,4.31,0,0,1,4.47,9L4.4,9ZM4,8.31A3.73,3.73,0,0,1,4.41,9l0,0c-.13-.19-.29-.41-.48-.64Z"/><path class="cls-6" d="M4.35,8.8s.12-.25,0-.37-.05.31-.05.31l0-.07s.07-.32,0-.38,0,.3,0,.3l0-.07s0-.3,0-.36,0,.29,0,.29L4,8.38s0-.29,0-.36S4,8.3,4,8.3l-.06-.07s0-.27-.06-.33,0,.25,0,.25l-.06-.06s0-.25-.06-.31,0,.24,0,.24L3.65,8s0-.25-.09-.3,0,.24,0,.24l-.07-.06s0-.29-.1-.32,0,.26,0,.26l-.07,0s0-.25-.13-.28.06.23.06.23l-.06,0s-.07-.25-.16-.28.1.24.1.24l-.06,0S3,7.32,3,7.31s.09.18.09.18L3,7.45s-.13-.24-.17-.17.18.18.18.18L3,7.5s-.27-.13-.3-.06.37.11.37.11l.07,0s-.28-.07-.24,0,.3,0,.3,0l.06,0s-.27-.06-.23,0,.3.06.3.06l.06,0s-.26-.07-.22,0,.34.08.34.08L3.62,8s-.28-.09-.26,0,.35.11.35.11l.07.07s-.3-.1-.21,0a.63.63,0,0,0,.31.11L4,8.33s-.3-.18-.26-.08.34.17.34.17l.06.07s-.27-.15-.24-.07.31.18.31.18l0,.07s-.32-.19-.29-.1.33.17.33.17l0,.06S4,8.63,4,8.71s.34.16.34.16Z"/></g></g></g></g></g></svg>