<svg xmlns="http://www.w3.org/2000/svg" xmlns:xlink="http://www.w3.org/1999/xlink" viewBox="0 0 29.46 17.19"><defs><style>.cls-1{fill:none;}.cls-2{clip-path:url(#clip-path);}.cls-3{fill:#eed12f;}.cls-4{fill:#242ea7;}.cls-5{fill:#bd0034;}.cls-6{fill:#fff;}</style><clipPath id="clip-path"><rect class="cls-1" width="29.46" height="17.19"/></clipPath></defs><g id="Layer_2" data-name="Layer 2"><g id="cá»"><g id="south_america" data-name="south america"><g class="cls-2"><rect class="cls-3" width="29.46" height="5.73"/><rect class="cls-4" y="5.73" width="29.46" height="5.73"/><rect class="cls-5" y="11.46" width="29.46" height="5.73"/><polygon class="cls-6" points="13.45 7.77 13.68 6.14 14.45 7.59 12.97 6.87 14.59 6.58 13.45 7.77"/><polygon class="cls-6" points="15.01 7.59 15.78 6.14 16.01 7.77 14.87 6.58 16.49 6.87 15.01 7.59"/><polygon class="cls-6" points="12.04 8.47 11.7 6.86 12.92 7.96 11.29 7.79 12.71 6.96 12.04 8.47"/><polygon class="cls-6" points="16.54 7.96 17.76 6.86 17.42 8.47 16.75 6.96 18.18 7.79 16.54 7.96"/><polygon class="cls-6" points="10.96 9.61 10.09 8.21 11.61 8.83 10.02 9.23 11.07 7.96 10.96 9.61"/><polygon class="cls-6" points="17.85 8.83 19.38 8.21 18.5 9.61 18.39 7.96 19.45 9.23 17.85 8.83"/><polygon class="cls-6" points="10.33 11.05 9.03 10.04 10.68 10.09 9.31 11.01 9.88 9.47 10.33 11.05"/><polygon class="cls-6" points="18.78 10.09 20.43 10.04 19.13 11.05 19.58 9.47 20.15 11.01 18.78 10.09"/></g></g></g></g></svg>