<svg xmlns="http://www.w3.org/2000/svg" viewBox="0 0 298.4 519.29"><defs><style>.cls-1{fill:#253878;}.cls-2{fill:#0f1b43;}.cls-3{fill:#ca5b28;}.cls-4{fill:#f4a160;}.cls-5{fill:#e77d2f;}.cls-6{fill:#3357a7;}.cls-7{fill:#89d1f4;}.cls-8{fill:#e7f0fa;}.cls-9{fill:#171716;}.cls-10{fill:#0e111b;}.cls-11{fill:#fff;}.cls-12{fill:#9b4422;}.cls-13{fill:#231f20;}</style></defs><g id="Layer_2" data-name="Layer 2"><g id="Layer_1-2" data-name="Layer 1"><path d="M122.88,216.47c.72,4.15,4.86,6.28,9.23,5.91,1.39-.12,2.79,0,4.54,0,.41,2.34.87,4.61,1.2,6.9.5,3.42,1.19,6.72,3.78,9.31a2.91,2.91,0,0,1,.56,1.89c0,7.12.2,14.26-.24,21.35-.55,9.09-1.63,18.15-2.55,27.21a30.6,30.6,0,0,1-1,4.61c-.89,3.56-1.95,7.09-2.72,10.68-1.14,5.3-2.23,10.61-3.08,16-.73,4.66-1.21,9.38-1.59,14.09a101.34,101.34,0,0,0-.34,11c.1,4.2.47,8.39.86,12.58.3,3.13.85,6.25,1.21,9.38.22,1.9.31,3.82.48,6.1l1.23.37,4.39-13.13.63,0c.56,6.81,1.16,13.6,4.76,20.18,3.3-4.68,4.43-9.91,7.2-14.63.68,2.93,1.14,5.59,1.9,8.16,1.89,6.38,4,12.71,5.85,19.09,1.38,4.71,2.57,9.47,3.83,14.22.13.5.19,1,.27,1.48-3.74,2.82-4,5.51-2.32,9.77a9,9,0,0,1,.17,6.65c-.88,2.36-1.42,4.69-.64,7.17.07.21-.08.5-.15.85-2.15-.55-4.24-1.14-6.36-1.58a4.63,4.63,0,0,0-2.48.1,3.08,3.08,0,0,1-3.52-.81A13.39,13.39,0,0,0,135.58,428a6,6,0,0,0-2.91,1.55,6.12,6.12,0,0,1-3.84,2,2.52,2.52,0,0,0-2.16,1.63c-.91,1.78-2.15,3.45-1.57,5.64-1.57,2-1,5.16-3.76,6.6-1.87,1-2.52,2.9-2.59,4.91,0,1.49-.15,3.16,2.21,3.26-.52,5.12,3.77,5.84,6.88,7.88-.06.68-.09,1.45-.2,2.22-.35,2.46,0,2.84,2.7,2.46a11,11,0,0,0,3.63,6.18,9.14,9.14,0,0,0,6.6,2.16c2.42-.16,4.83-.5,7.46-.78a15.82,15.82,0,0,1-1.22,2,5.13,5.13,0,0,0-1,4.2c.09.65.36,1.67.77,1.79.6.18,1.41-.25,2.1-.5.44-.16.82-.51,1.27-.67.13,0,.39.27.67.48-3.74,3.66-2.31,7.82-1.26,11.95,1,3.72,4.07,5.33,7,7.08a4.68,4.68,0,0,1,2.08,2.18c1.4,3,3,6,5.71,8.1,5.34,4,11.09,4.39,17.06,1.4.54-.27,1.05-.59,1.71-1a7.16,7.16,0,0,1,.9,1.31c1.3,3.23,4,4.85,7.07,5.8,3.88,1.2,7.85,1.92,11.91,1a22.81,22.81,0,0,0,4.48-1.38c4.37-2,8.74-4.11,13-6.36a35.5,35.5,0,0,0,5.83-4q6.9-5.69,13.62-11.59a56.93,56.93,0,0,1,13-8.35,38.39,38.39,0,0,0,6.75-4.48c3.68-2.86,4.86-6.7,3.86-11.22-.84-3.8-2-7.44-4.81-10.37a4.18,4.18,0,0,1-.92-2.85,13.31,13.31,0,0,0-2.71-8.55c-2.73-3.88-4.3-8.19-3.55-13.1a5.31,5.31,0,0,0-1.92-5.39,8.59,8.59,0,0,1-3.21-6.11,8.81,8.81,0,0,0-4.51-7,4.21,4.21,0,0,1-2-3.47c-.78-7.67-1.62-15.33-2.58-23-.36-2.86-1-5.68-1.66-8.5-.67-3-1.44-6-2.16-8.94a1.81,1.81,0,0,1-.16-.77c.72-3.5,1.47-7,2.21-10.43l2.54-.22c2,1.71,2.72,4,2.5,7l1.49-.53c2.11,3.8,3.65,8.15,8.43,10.41,1.45-5.12,2.83-10,4.32-15.24,2.86,2.16,5.51,4.15,9.18,4.41a14.77,14.77,0,0,0-.09-1.85c-1.74-9-3.72-18-5.18-27.08-1.33-8.21-2.12-16.5-3.09-24.76-.38-3.3-.71-6.62-.82-9.94-.07-2.17.33-4.36.46-6.55.15-2.54.22-5.08.36-7.61s.41-5.25.46-7.87a33.57,33.57,0,0,0-.33-5.76c-.84-5.45-1.82-10.88-2.75-16.31q-1.5-8.67-3-17.35c-.13-.77-.31-1.54-.5-2.31a3.74,3.74,0,0,1,.51-3.25A7.54,7.54,0,0,0,251,232c-.61-2.7.18-5.38.77-8,1.4-6.26,2.52-12.54,2.06-19a40.07,40.07,0,0,0-2.24-10.5,25.22,25.22,0,0,1-1.49-9c.07-3.5.19-7,0-10.49-.24-3.75,1.62-6.66,3.34-10.28.74,3.45,1.35,6.38,2,9.31a8,8,0,0,0,.59,2c1,2,2.54,2.56,4.56,1.58a16.26,16.26,0,0,0,3.32-2.08c3.5-2.95,6.84-6,8.56-10.48a4.31,4.31,0,0,1,1.73-1.91c3.4-2.15,6.8-4.34,10.34-6.25a20,20,0,0,0,10.32-13c1.12-4.22,2-8.5,3.14-12.73a10.32,10.32,0,0,0-2.54-10.16c-1.47-1.62-2.87-3.31-4.39-4.89-4.4-4.6-9.85-7.52-15.72-9.73-1.87-.71-3.92-1.07-5.17-2.89a.69.69,0,0,0-.44-.26c-3-.3-4.62-2.56-6.7-4.29-3.35-2.81-7-5.27-10.41-8A43.5,43.5,0,0,1,247,85.75a6.14,6.14,0,0,1-1.34-3.82,33,33,0,0,1,1-7.26,32.05,32.05,0,0,0,0-16.13,7.58,7.58,0,0,0-.5-1.48c-1.41-2.73-2.62-3.16-5.25-1.59a13.35,13.35,0,0,0-3.57,3,26.88,26.88,0,0,0-5.09,10.31c-.5-1.21-.79-1.87-1-2.55-1.3-3.53-2.32-7.19-4.87-10.12a3.37,3.37,0,0,1-.72-1.39c-1.55-6.46-2.87-13-4.65-19.39A118.64,118.64,0,0,0,216.45,23,37.81,37.81,0,0,0,204.67,7.76a20.51,20.51,0,0,0-5.41-3.19A62.86,62.86,0,0,0,170.93.22a39.84,39.84,0,0,0-17,5A37.05,37.05,0,0,0,143.62,14c-2.49,3.09-4.06,6.94-6.06,10.44-.38.67-.85,1.29-1.57,2.36a3.14,3.14,0,0,1-.55,2.88c-1.39,1.71-1.08,3.79-.64,5.95,4.54,1.84,5.56,6.19,7.07,10.43-1.62.95-3.23,1.8-4.73,2.8-4.33,2.89-7,7.11-8.85,11.81a55,55,0,0,0-3.67,18.76,8.54,8.54,0,0,0,.54,3.33c1.47,3.63,4.15,4.74,7.86,3.46,2.63-.91,5.27-1.79,8.35-2.83-.38,1.11-.64,1.8-.85,2.51-.86,3-2.07,6-2.49,9.06-.64,4.67,3.22,9.1,7.89,9.71,1,.12,1.88.34,3.32.61-2.24,2-4.28,3.71-6.24,5.53-3.78,3.52-7.64,7-11.25,10.69-2.36,2.42-3.47,5.7-4.41,8.87a47.38,47.38,0,0,0-1.85,9.79,69,69,0,0,0,.42,9.18c.07,1.22.21,2.43.3,3.65a14.19,14.19,0,0,0,3.6,8.56c2.29,2.66,2,5.87,1.26,9-.21.94-2,1.72-3.11,1.21-2.48-1.15-4.14-.15-5.77,1.62m19.17-87.69c-.06.84.53,1.89-.82,2.39.29-.85.56-1.61.82-2.38l1.83-2.66C142.82,84.14,143,85.67,141.36,85.72ZM211.2,430.17c8.22,3.32,15.75.51,23.31-3-.1.51-.08.73-.18.84a13.08,13.08,0,0,1-8.17,4.3c-2,.28-4,.65-6,.79-3.37.25-6.67.11-8.93-3-1.51-.66-3.07-1.27-3.39-3.27ZM202.33,10.26a6.51,6.51,0,0,0-4.72-3.36c-2-.48-4.07-1-6.11-1.53a17.23,17.23,0,0,0-7.75-.63c-1.71.35-3.5.36-5.18.79C173.16,6.92,168,9,164.23,13.28a40.11,40.11,0,0,0-8,13.51c-.78,2.2-1.72,4.35-2.68,6.76a8.9,8.9,0,0,1-1.21-1.42c-3.45-6.69-3.84-13.74-2.13-20.93a6.29,6.29,0,0,1,2-3.55,34.77,34.77,0,0,1,7.13-3.9,39,39,0,0,1,12.3-2.49,71.58,71.58,0,0,1,12.07.3,51.4,51.4,0,0,1,16.34,4.65c4.95,2.31,8.75,6.34,11.91,10.84.09.13,0,.4-.1,1.33a24,24,0,0,0-2.76-3.2c-2.24-1.76-4.62-3.35-6.93-5a13.74,13.74,0,0,0,2,2A35.06,35.06,0,0,1,215.59,25c1.56,2.92,3.08,5.84,3.36,9.51-.41-.46-.73-.68-.84-1-1.29-3.45-4-6-6.08-8.85a6.34,6.34,0,0,0-2.36-2c-3.11-1.38-6.31-2.54-9.45-3.86-7-2.93-14.16-2.17-21.17-.53-4.55,1.07-8.89,3.1-13.27,4.84a10.7,10.7,0,0,0-3.25,2.17c-1.34,1.25-2.48,2.71-3.71,4.08-.53.58-1.06,1.17-1.63,1.72s-1.06.91-1.8,1.55a5.31,5.31,0,0,1,.08-1.17c1.54-3.8,2.77-7.72,5-11.24s4.56-7.33,8.37-9.62c1.5-.89,3.21-1.42,4.72-2.29A21.43,21.43,0,0,1,184.91,5.6c5.91.16,11.85.89,16.91,4.56A1.36,1.36,0,0,0,202.33,10.26Zm23.17,48c.06,1.4,0,2.8.2,4.18.64,5.67,1.27,11.35.29,17s-.22,5.11-5.39,6.12a3.12,3.12,0,0,0-2.74,2.39,4.94,4.94,0,0,1-3,3.14c-4,1.73-8.24,1.71-12.4,1.65-2.85,0-5.67-1-8.51-1.48A6,6,0,0,1,190.29,89a2.47,2.47,0,0,1-.61-2.08,10.91,10.91,0,0,1,2.79-4,10.32,10.32,0,0,1,11.87-.63,29.31,29.31,0,0,1,4.54,3.49c1,.84,1.43.69,1.87-.49-.94-.75-1.8-1.5-2.73-2.15a21,21,0,0,1-5.27-5.44,30.72,30.72,0,0,1-4.15-10.45c-.54-2.3-.72-4.83.58-7.07,3.19.27,3.36.38,5.39,1.85a26.35,26.35,0,0,1,6.19,7.09c2,3,3.66,6.18,5.49,9.27.37.62.84,1.17,1.62,2.23,0-2.55.53-4.63-.1-6.26-2.07-5.33-2-10.82-1.84-16.33a11.78,11.78,0,0,1,1.27-4.49c1.13-2.35,3.24-2.62,5.07-.74a11.27,11.27,0,0,1,1.4,2.2c.65,1.11,1.28,2.23,1.92,3.35l.57-.57a9.69,9.69,0,0,1,1.26,1.64,39.29,39.29,0,0,1,3.71,10.89,41.08,41.08,0,0,1,.38,4.14,17.61,17.61,0,0,1-.07,3.08c-.29,2.24-.7,4.48-1,6.72a2.61,2.61,0,0,0,1.34,3,11.31,11.31,0,0,0,5.4-5.33,19,19,0,0,0-1.78,1.32c-1.13,1-2,2.32-3.84,2.81a7.64,7.64,0,0,1-.22-1.93c.86-5.06.55-10.24,1.86-15.29a31.66,31.66,0,0,1,4.38-9.17,9.58,9.58,0,0,1,5.08-3.91,5.15,5.15,0,0,1,1.18,4c-.14,1.48-.27,3-.49,4.43-.73,5-1.76,9.82-4.4,14.2-.7,1.16-1.25,2.42-1.86,3.64a20.37,20.37,0,0,0,1.72-1.89c3-4.26,4.32-9.16,5.16-14.21.45-2.73.73-5.49,1.15-8.78a26.84,26.84,0,0,1,1.07,14.19c-.79,4.74-1.69,9.43-1.67,14.27,0,2.17-.32,4.36-.5,6.53-.31,3.82-1.94,7.25-3.34,10.72a9.67,9.67,0,0,1-8.89,6.36,15.24,15.24,0,0,1-9.48-2.47,36.4,36.4,0,0,1-7.64-6.37A7.09,7.09,0,0,1,212.74,97,2.7,2.7,0,0,0,211,94.53c-.31.54-.59,1-.83,1.45a3.1,3.1,0,0,1-3.46,1.82,14.15,14.15,0,0,1-3.49-.86c-2.36-1-4.63-2.29-6.94-3.45a2.1,2.1,0,0,1,1.62-.4,40.2,40.2,0,0,0,12,.29c3.75-.34,7.32-1.21,8.79-5.44.18-.52.94-.93,1.52-1.18a11.51,11.51,0,0,1,2.28-.56c2.71-.55,3.59-1.43,4.05-4.08a61.27,61.27,0,0,0,.15-16.73C226.49,63,225.93,60.62,225.5,58.23Zm18.32,404.23a15.73,15.73,0,0,0,2-1.15,32,32,0,0,0,8.88-9.83c2.54,3.78,2.08,9.91-.94,13.51a17,17,0,0,1-5.54,4.69c-2.32,1.13-4.5,2.59-6.73,3.92-.09,0-.07.3-.1.45l0-.05a10.45,10.45,0,0,0,5.2-2.31,18.69,18.69,0,0,1,2.82-1.92c3.1-1.68,5.6-3.88,6.73-7.36a8.55,8.55,0,0,1,.84-1.35,18.29,18.29,0,0,1,5.46,14.25,7.36,7.36,0,0,1-2.48,5.37,55.58,55.58,0,0,1-6.54,4.78c-2.9,1.81-6.14,3.1-8.88,5.1A163.21,163.21,0,0,0,226,505.69a18.63,18.63,0,0,1-2.23,1.82c-5.22,3.79-11.23,6-17,8.85-5.47,2.67-10.91,1.91-16.35.2a7.41,7.41,0,0,1-5.24-4.92,4.17,4.17,0,0,1,1,.47c3.62,3.2,7.95,3.83,12.53,3.4a49.89,49.89,0,0,0,6.22-.93,23.61,23.61,0,0,0,5.5-1.72c6.55-3.3,11.44-8.57,16.06-14.11a8.43,8.43,0,0,0,.75-1.39c2.15-3.92,2.72-8.28,3.62-12.57a5.76,5.76,0,0,0-1.39-5.29,13.37,13.37,0,0,1,.36,7c-.52,2.3-1.19,4.57-1.92,6.81-1.08,3.29-2.62,6.3-5.52,8.45a13.45,13.45,0,0,0-2.12,2.32,29.37,29.37,0,0,1-11.89,8.4c-3.79,1.51-7.85,1.75-11.85,2A13.87,13.87,0,0,1,184.36,509c-2.4-3-2-6.12,1-8.67,1.51.88,3,1.73,4.51,2.64,3.12,1.89,6.21,1.53,9.2-.21a6.52,6.52,0,0,0,1.86-9.39c-2.27-3-5.56-4.13-9-4.9a3.22,3.22,0,0,0-1.53.26c-1.57.53-3.13,1.11-4.7,1.66a8.82,8.82,0,0,0-5.27,5.5c-.62,1.53-.67,3,.67,4.22a27.87,27.87,0,0,1-2.24,2.11c-4.18,3.14-8.39,4.08-13,.48-1.65-1.3-3.31-2.6-4.87-4a3.66,3.66,0,0,1-1.56-3.17c.57-5.29,2.2-9.93,7.39-12.48.73-.36,1.4-.81,2.34-1.35-.58-.19-.76-.33-.9-.29a6.14,6.14,0,0,0-1.19.47,24.25,24.25,0,0,0-7.92,6.81,4.71,4.71,0,0,1-3.72,2.16,7.14,7.14,0,0,1-5.17-2.19c-1.29-1.13-.63-2.4-.54-3.67.17-2.3,1-3,3.27-2.69l1.57.21a4.51,4.51,0,0,0,4.68-2.19c1.78-2.7,1.87-4.28.12-7-.28-.42-.55-.84-.77-1.19,1.78-3.12,4.26-4.24,7.49-3.58,1.54.31,3.09.53,4.78.81.75-1.95,2.12-2.47,4-2.06a4.63,4.63,0,0,0,2-.31c1.49-.39,3-.85,4.63-1.33,0,1.7-.52,2.89-2,3.5-1.29.53-2.6,1-3.92,1.49-2.06.7-4.16,1.32-6.21,2.07-.42.15-.69.69-1.45,1.49,1.2-.08,1.71-.11,2.22-.16,4-.37,5.34.45,6.84,4.14.27.65.57,1.28.85,1.92,1,2.21,2.23,4.17,4.84,4.78a7.8,7.8,0,0,1,2.2.83c3.11,1.8,6.2,1.78,9.6.65,2.36-.79,5.05-1.63,7.32.76.34.36,1.55,1,2.18-.16a13.75,13.75,0,0,1-2.58-2.67c-2-3.68-5.08-5.64-9-6.68-1.77-.48-3.54-1-5.27-1.63a4.37,4.37,0,0,1-3-2.6,19,19,0,0,1,11.54,2.24,33.4,33.4,0,0,0,11.93,3.7,17.52,17.52,0,0,0,3.37.3c5.24-.29,10.46-.63,15.69-1a3.85,3.85,0,0,1,2.84,1l.25-2,3.71-1.18a3,3,0,0,0-1.8-.14,50.77,50.77,0,0,1-5.16.82c-2.87.17-5.87.66-8.59.05-6.38-1.43-12.69-3.21-18.18-7.11A16.45,16.45,0,0,1,193,459.88c-.11-.49-.21-1.21.05-1.5,1.08-1.2,2.3-2.28,3.47-3.41.35-.84.69-1.67,1.13-2.75,3,1.36,5.6,2.69,8.32,3.8s5.36,1.94,8,2.9a6.91,6.91,0,0,1-3.13,0c-2.64-.55-5.28-1.11-7.88-1.82-1.39-.38-2.69-1.12-4-1.61a23,23,0,0,0-2.48-.61,4,4,0,0,0,.41,1.49c2,2.53,4.19,5,7.17,6.43a83.24,83.24,0,0,0,9.43,3.91,23.38,23.38,0,0,0,7.19,1.3c6.48,0,12.74-1.72,19-3a11.62,11.62,0,0,0,3.13-1.33c.48-.26.76-.87,1.13-1.33-.48.15-1,.26-1.44.45-1.53.63-3,1.37-4.58,1.9a4,4,0,0,1-3.65-.34c3.81-2.26,7.85-3.8,10.58-7.12s5.82-6.35,6.66-11.29a13.12,13.12,0,0,0,1.07,2.34c1.63,2.12.72,4-.55,5.75a25,25,0,0,1-2.62,2.94C247.55,458.83,245.68,460.64,243.82,462.46Zm-17.4-286.37a13,13,0,0,0-1.84.79c-1.56,1.06-2.08,2.78-2.65,4.43-2,5.75-2.81,11.75-3.68,17.71a28.34,28.34,0,0,0,.08,7.36c.37,3.13,1.16,6.2,1.67,9.31a22.61,22.61,0,0,1,0,3.42,18.18,18.18,0,0,1-6.22-7.14q-5.76-10.64-11.34-21.38a66.3,66.3,0,0,1-2.8-6.79c-1.07-2.78-2.07-5.59-3.08-8.39a3.66,3.66,0,0,0-2.83-2.6,12.73,12.73,0,0,0,.23,7.57,116.52,116.52,0,0,1,4,22.73,103.64,103.64,0,0,0,5.56,25.07A37.23,37.23,0,0,0,207,235a47.62,47.62,0,0,0,8.84,10.72c.67.6,1.26,1.3,2.23,2.31-4.92,0-9.28,0-13.65,0-7.29,0-14.58.18-21.87.14-3.94,0-7.87-.33-11.4-2.48a23,23,0,0,0-4.53-2.1c-5-1.72-6-4.17-4.78-8.5,0-.17.14-.33.18-.5l1.86-8.65c-2.12-.46-2.35-.47-4.17.56-2.06,1.16-4,2.48-6.1,3.61-2.25,1.22-3.9.59-4.76-1.72a6.6,6.6,0,0,0-2.68-3.75,2.29,2.29,0,0,1-1-2.94c.48-1.39.54-2.92,1-4.32,1.29-4.09,2.72-8.13,4-12.22a82.75,82.75,0,0,0,3.23-17.27c1-10.68-.17-21.16-2.23-31.59-.35-1.75-1-3.44-1.49-5.16h-.7a27.87,27.87,0,0,0-1.07,3.4c-1.74,9.38-3.41,18.78-5.13,28.17-.3,1.66-.72,3.3-1.08,4.95h-.55c-.88-2.17-2.36-4.3-2.5-6.52a37.62,37.62,0,0,0-1.86-9.23c-1.37-4.27-3-8.37-6.54-11.51a8.18,8.18,0,0,1-2.29-4.29c-.61-3.07-.7-6.25-1.13-9.37A34.81,34.81,0,0,1,129,129.49a14.32,14.32,0,0,1,.85-1.57c.13,2.35.16,4.26.36,6.16.48,4.69,1.31,9.36,1,14.11a3,3,0,0,0,.16,1.55,5.69,5.69,0,0,0,1.69,2.1c.27.17,1.34-.61,1.8-1.17,2.46-3,4.91-6,7.22-9A31.35,31.35,0,0,0,147.76,115a12.75,12.75,0,0,1,.08-6.23c.57-2,2.78-3.86,4.5-3.72a40.83,40.83,0,0,0,22.12-4.59,8.79,8.79,0,0,1,1.45-.62A12.57,12.57,0,0,0,182,95.44c2-2.41,4.13-4.73,6.07-7,1.93,1.63,3.56,3.42,5.55,4.62,6.22,3.76,12.56,7.29,18.86,10.92.13.08.21.26.57.72L210.35,113l-10.2-8.92c-.22,1.26-.18,1.24.21,2,1.62,3,3.18,6,3.62,9.48a7.77,7.77,0,0,1-2.69,7.25,3.18,3.18,0,0,1-3.41.68,7.32,7.32,0,0,1-4.08-3.55c-1.53-2.76-2.94-5.58-4.42-8.37a17.09,17.09,0,0,0-1.12-1.53,17.93,17.93,0,0,0-.74,2.28c-.88,5-1.78,10-2.54,15a24.07,24.07,0,0,0-.44,6.53A17.83,17.83,0,0,0,190,144.92a74.81,74.81,0,0,0,6.81,5.78,23.07,23.07,0,0,0,5.75,3.07c2.88,1,5.72.94,7.74-2a27.41,27.41,0,0,0,2-2.78,41.66,41.66,0,0,0,4.34-13.17c.09-.56.29-1.37.68-1.56a12.17,12.17,0,0,1,5.62-1.62c-.51,1.64-.83,3.09-1.4,4.44-2.13,5.1-4.43,10.12-6.48,15.25a55.07,55.07,0,0,0-2.35,7.76c-.57,2.4.18,3.64,2.49,4.45a9.53,9.53,0,0,0,8.15-.34c2.42-1.39,4.64-3.12,7-4.69.44-.3.91-.55,1.55-.94-.69,3-1.37,5.58-1.9,8.21-.69,3.42-1.44,6.84-.72,10.36a5.11,5.11,0,0,0,6,4.05c1.83-.37,3.62-1,5.51-1.46-3.17,2.88-6.24,5.71-9.37,8.5a7.81,7.81,0,0,1-4.67,2.32c-1.3-2.33-.08-4.67-.17-7S226.42,178.92,226.42,176.09Zm-58.19,86.7-.74.11c0,1.11,0,2.22,0,3.32.3,6.71.72,13.41.89,20.12.09,3.76-.16,7.53-.33,11.29q-.28,6.3-.71,12.59c-.3,4.35-.66,8.7-1.05,13-.24,2.79-.65,5.57-.86,8.36a124,124,0,0,0-.18,14.68c.11,2.36.32,4.71.5,7.07.21,2.9.19,5.61-1.68,8.24a60.18,60.18,0,0,0-4.4,8.34c-.87,1.74-1.61,3.53-2.57,5.66-2.18-5.61-2.61-11-3.33-16.53-3.2,6.1-5.52,12.51-9,19.06a27,27,0,0,1-.47-3.49c.11-5,.22-10,.46-15,.29-6.12.56-12.25,1.15-18.35a81.47,81.47,0,0,1,2.12-13.22c2.71-10.06,6-20,8.69-30a144.06,144.06,0,0,0,3-15.47c1-6.31,2.17-12.61,2-19.06,0-.77.29-1.56.26-2.33,0-1.38.12-2.91-.42-4.1a49.44,49.44,0,0,0-3.75-6.33c-1-1.49-2.08-2.87-3.13-4.3a44.29,44.29,0,0,1,5.57,1.76,8,8,0,0,1,4.92,4.77c1,2.26,2,4.5,3.12,6.68,1.59,3.1,3.62,3.43,6.27,1.17,2.2-1.87,4.41-3.73,6.64-5.55,1.55-1.26,2-1.21,3.73-.09,1.07.7,2.21,1.28,3.44,2,.35-.67.67-1,.7-1.4a23.25,23.25,0,0,0,0-2.64c0-.52-.09-1-.09-1.57a1.73,1.73,0,0,1,1.46-1.91,2.44,2.44,0,0,1,2,.71,12.7,12.7,0,0,0,5.7,4.47,10,10,0,0,1,4.2,3.85c1.43,2.09,2.8,4.27,5,5.65,1.36.83,3.11,1.36,4.17.27a82,82,0,0,1,8.43-7.81c.06-.05.08-.15.14-.21l6.23-6.54c-.48,4.2-.93,7.91-1.34,11.62a28.69,28.69,0,0,0-.44,5.75,44.58,44.58,0,0,1-.66,13.25c-1.4,6.95-2.79,13.91-4.45,20.8a84.14,84.14,0,0,1-6.58,18c-2,4-4.24,8-6.37,12l-.53-.17v-1.43c-.06-3.83.38-7.65,0-11.51-.39-4.17,0-8.41-.3-12.59a135.62,135.62,0,0,0-3.81-25.41c-1-4.07-1.94-8.18-2.92-12.27-.69-2.89-1.32-5.81-2.12-8.68-.33-1.19-.55-2.57-2-3.41-.62.67-1.22,1.28-1.76,1.93-3.21,3.83-6.42,7.64-9.58,11.5a48.22,48.22,0,0,0-8,12.94c-.19.5-.44,1-.68,1.55C172.56,276.74,170.39,269.77,168.23,262.79Zm56.35-84.53.8.25c0,1.3,0,2.59,0,3.89-.08,2.27-.36,4.54-.29,6.8.08,2.58,1.23,3.17,3.57,2.1,3-1.38,5-4,7.48-6.09s5.17-4.16,7.87-6.09c1.27-.91,2.58-.25,2.91,1.29a3.05,3.05,0,0,1,0,1.56c-1.62,5.06-2.47,10.43-6.06,14.71a25.69,25.69,0,0,0-2.37,3.79c-1.59,2.81-.95,4.19,2.2,4.77.6.11,1.24,0,1.82.17a11.06,11.06,0,0,1,2.68.94c1.92,1.1,2.35,3.14,2.92,5.07,1,3.31.44,6.65-.09,9.9a21.53,21.53,0,0,0,.42,8.53c1.13,4.94,1.33,8.82-4,11.32-.71.34-1.35.82-2.06,1.14a60.13,60.13,0,0,1-17.82,5.15c-2.63.32-5.34.15-7.42-1.79-5.17-4.81-9.68-10.17-12.31-16.82A89.1,89.1,0,0,1,199,203.63c-.39-4.44-1-8.88-1.73-13.27-.64-3.7-1.7-7.34-2.54-11a11.63,11.63,0,0,1-.16-5.14,19.51,19.51,0,0,1,2.91,5.82c1.31,3.35,2.33,6.82,3.86,10.06,2.78,5.85,5.69,11.66,8.83,17.33a109.89,109.89,0,0,0,7.06,10.75,5.48,5.48,0,0,0,4.24,2.73c-.19-2-.32-3.82-.55-5.62-.53-4.07-1.42-8.12-1.61-12.21-.35-7.36,1.71-14.4,3.6-21.42A17.92,17.92,0,0,1,224.58,178.26ZM205.29,384.5l.76-.1c.31-.6.65-1.18.93-1.79a81,81,0,0,1,9-15.72c.8-1,1.5-2.18,3.32-2.43.85,1.48,1.85,3,2.62,4.64,1.13,2.37,1.94,4.9,3.15,7.22s2.18,4.73,4.87,6.23c.86-2.24,1.65-4.27,2.43-6.3a77.41,77.41,0,0,1,3,11.59c.78,4.57,1.26,9.19,1.79,13.8.56,4.77,1.09,9.55,1.49,14.35s-1.67,8.08-5.71,10.4a31.6,31.6,0,0,1-12.36,4.14A11.74,11.74,0,0,1,206.75,421c-1.58-6.27-3.2-12.56-5.38-18.64-1.69-4.73-2.67-9.6-4-14.4-1.48-5.39-2.94-10.78-4.44-16.26,1.62-2.16,3.27-4.42,5-6.61.39-.48,1.16-.65,2-1.12.28,1.46.47,2.48.68,3.49.84,4.11,1.58,8.25,2.57,12.32A29.08,29.08,0,0,0,205.29,384.5Zm24.31-3.59a13.33,13.33,0,0,1-4.1-5.69c-1-2.32-1.77-4.76-2.81-7.08a27.38,27.38,0,0,0-2.53-4.3,1.45,1.45,0,0,0-2.46-.2c-.37.37-.75.73-1.12,1.11-3.28,3.28-5.31,7.39-7.48,11.4-.54,1-1.12,2-1.69,3l-.52-.24c2.15-7.57,4.26-15.14,6.45-22.7,1-3.28,2.12-6.49,3.12-9.76,1.56-5.11,3.1-10.23,4.58-15.37a74.94,74.94,0,0,0,2.28-8.9c.62-4,.87-8,1.18-12,.67-8.55,1.42-17.1,1.87-25.66.38-7.27.4-14.56.57-21.84q.1-4.47.18-9a4.69,4.69,0,0,1,1.83-3.91,18.05,18.05,0,0,1,1.41,2.52c.69,1.89,1.3,3.81,1.85,5.75A178.23,178.23,0,0,1,237,284.38c.69,5.56,1.4,11.12,1.93,16.7.48,5,.84,10.1,1.05,15.16.16,3.66.12,7.33-.06,11-.2,4.19.13,8.41-.75,12.59-.63,3-.85,6.07-1.2,9.11-.31,2.7-.48,5.42-.83,8.11-.15,1.19-.25,2.65-1,3.44a9.17,9.17,0,0,0-2.34,5.42A58.65,58.65,0,0,1,229.6,380.91ZM143.49,239.6a14.59,14.59,0,0,1,1.43.38c3,1.14,5.28,3.51,7.52,5.62,2.58,2.44,4.56,5.54,6.63,8.47a11.82,11.82,0,0,1,2,6.94c.09,9.09-1.6,18-3,26.85a132.21,132.21,0,0,1-3.43,14.83c-2,7-4.28,13.89-6.46,20.82-.55,1.75-1.1,3.51-1.73,5.24-1.56,4.37-3.08,8.75-4.78,13.06-2.11,5.38-4.55,10.62-5.51,16.4-.42,2.55-1.33,5-2.15,8a19.72,19.72,0,0,1-.68-2.55c-.57-5.75-1.37-11.48-1.58-17.24a149.15,149.15,0,0,1,.53-15.23,93.65,93.65,0,0,1,1.28-10.14c.92-5.26,2-10.48,3.1-15.71.64-3.08,1.35-6.15,2.11-9.21.35-1.44,1.08-2.81,1.28-4.26.59-4.24,1-8.51,1.45-12.77.21-2.09,0-4.23.4-6.29,1-5.37.88-10.8,1-16.21.07-2.43-.27-4.87-.18-7.3C142.86,246.16,143.22,243,143.49,239.6Zm78.76-122.35c.91,1.21,1.41,1.91,1.95,2.58a20.05,20.05,0,0,0,10.3,6.5c4.19,1.23,8.42,2.43,12.7,3.27a26.06,26.06,0,0,0,13.26-.7,24.7,24.7,0,0,0,13.28-10.25c.9-1.4,1.52-3,2.54-4.29a20.94,20.94,0,0,1,3.6-3.37,2.51,2.51,0,0,1,2.93-.11,25.69,25.69,0,0,1,7.12,5.33c1.52,1.7,3.1,3.36,4.55,5.11.86,1,1.54,2.22,2.3,3.34l-.25.55c-3.1-1.3-5.93,0-8.76.67-5.39,1.36-10.54,3.23-14.54,7.46a17.29,17.29,0,0,1-5,3.35c-4.65,2.25-9.39,4.3-14.56,6.64a2.47,2.47,0,0,0,.39,2.49,18.67,18.67,0,0,0,3.24,4.06,29.1,29.1,0,0,0,5.9,3.92,18.37,18.37,0,0,0,6.18,2,25.85,25.85,0,0,0,9.85-.59c4-1.14,8-2.05,10.85-5.41a12.61,12.61,0,0,1,.92-.87,14.75,14.75,0,0,1-6.49,6.71c-2.39,1.28-4.73,2.67-7,4.16a18.49,18.49,0,0,1-8.29,3,26.17,26.17,0,0,1-8.3-.62c-5.64-1.12-11-3-15.48-6.78-2.22-1.85-4.54-3.57-6.8-5.37a45.07,45.07,0,0,1-3.83-3.2c-5.06-5.06-9.32-10.69-11.81-17.48-1.44-3.94-3.37-7.77-3.39-12.09a14.33,14.33,0,0,0-1.86-6.5c-.78-1.52-1.5-3.08-2.23-4.57.27-.19.35-.29.4-.28a10,10,0,0,1,1,.37c4,1.8,8,3.6,12.4,3.91,4,.29,7.62-.4,10.37-3.75,1.62-2,2.37-4.26,3.27-6.54.46-1.19,1-2.36,1.31-3.18,3.18,1.09,6,2.38,8.95,2.95a34.51,34.51,0,0,0,7.61.1,3.49,3.49,0,0,1,3.54,2.09,2.74,2.74,0,0,1-.63.18c-7.42,0-14,2.72-20.34,6.21-1.52.83-2.76,2.16-4.25,3.06-4,2.4-8,4.78-13,4.41C225,115.6,223.84,116.58,222.25,117.25ZM184.32,367.83l-.34,0q-1.89-6.8-3.77-13.59a1.8,1.8,0,0,1,0-.52,63.67,63.67,0,0,0-2.52-16.05,34.2,34.2,0,0,1-1.18-5.38c-.6-5.2-1.25-10.41-1.51-15.63-.2-4.09.12-8.21.28-12.31.2-5.16,1-10.31.09-15.48a9.49,9.49,0,0,1,.27-3.38c1-4.86,3.49-9,6.47-12.79,3.6-4.62,7.42-9.08,11.17-13.59.18-.22.53-.29.87-.46.13.87.17,1.58.33,2.26A97.33,97.33,0,0,1,197,284.11c0,6.57-.29,13.14-.53,19.71a53,53,0,0,1-.66,8.37c-1.62,8.06-3.41,16.1-5.25,24.11-1.71,7.42-3.71,14.78-5.33,22.22A77.66,77.66,0,0,0,184.32,367.83Zm-15.4,9.05a31.39,31.39,0,0,1,4.56-10.17c2.07-3.07,3.59-6.55,6.58-9.61.55,2.36,1,4.23,1.43,6.09,1.29,5.17,2.79,10.31,2.95,15.7a2.93,2.93,0,0,0,1.26,2.81c2.69-2.28,4-5.6,6.36-8.67,1.69,9.67,2.81,18.78,2.19,28a7.85,7.85,0,0,1-1.69,4.32,41.11,41.11,0,0,1-7.19,6.88c-3.81,3.13-8.1,4-12.79,3.69-3.85-.26-6.65-2-7.83-5.92-.2-.67-.41-1.33-.61-2-3.46-11.32-5.88-22.93-9.92-34.09-1-2.83-1.19-6-1.66-9a9.36,9.36,0,0,1,.23-2.39c.84,2.63.78,5.39,1.65,7.81s.27,5.48,2.69,7.84c3.45-5.64,4.29-12.4,9.06-17.37C167.83,366.28,168.14,371.56,168.92,376.88Zm71.29,41.83a6.69,6.69,0,0,1,4.75,5.07c.58,2.1,1,4.26,1.6,6.34a6.82,6.82,0,0,1-.49,5.59c-1.41,2.51-2.84,5-4.24,7.55a10.9,10.9,0,0,1-5.66,4.85,5.78,5.78,0,0,0-1.21.94c2.19.68,2.4.69,4.46,0,4.44-1.39,7.59-4.41,10.13-8.25a6,6,0,0,1,.72,5.63,26.43,26.43,0,0,1-1.42,3.66,27.57,27.57,0,0,1-13,12.14c-1.41.64-3.25,1.31-3.88,2.5a3.06,3.06,0,0,1-3.05,1.78c-1.23.09-2.44.27-3.66.37-4,.35-8,.65-11.91-1.08-2.06-.93-4.22-1.66-6.33-2.47a14.19,14.19,0,0,1-7.06-5.55c1.17.18,2.1.29,3,.47,2.83.55,5.65,1.17,8.49,1.68a9.31,9.31,0,0,0,6.84-1.31,94.26,94.26,0,0,1-9.72-2.45,96.87,96.87,0,0,1-9.15-4.45c.31-1.06.61-2.1,1-3.24,3.63,0,7,0,10.46,0,2.48,0,4.91-.41,6.86-2.14a22.83,22.83,0,0,1,7-4.43c.08,0,.06-.31.09-.53a80.5,80.5,0,0,1-20.74-.86c-.08-.74-.11-1.17-.18-1.6-.27-1.73-1.5-3.51.27-5.14.06-.06,0-.31-.07-.47-.49-2.89,1.27-5.44,1.17-8.32a16.53,16.53,0,0,1,1.2,2.31,8.48,8.48,0,0,0,1.65,2.29,26.84,26.84,0,0,0,4,2.92,13.3,13.3,0,0,0,3.62,1.36c3.15.7,6.26-.14,9.35-.55,7.32-1,12.12-5,14.16-12.2C239.5,420.41,239.83,419.7,240.21,418.71ZM126.06,81h0a4.08,4.08,0,0,1,0-.78c.88-8.19,4.52-15.17,9.5-21.56a5.94,5.94,0,0,1,1.31-1.29c4.41-3,8.34-6.63,13.6-8.3,3-.94,5.84-1.5,8.73-.53,5.3,1.79,10.59,3.63,15.72,5.84,4.52,1.94,9,3.3,14,2.4a2.69,2.69,0,0,1,3.11,3.42A11.15,11.15,0,0,1,185.84,68a35.23,35.23,0,0,1-7.77,2.35c-4.19.82-8.45,1.31-12.68,2-2.25.35-4.46.93-6.72,1.14a44.73,44.73,0,0,0-18.37,5.84c-3.12,1.79-6.25,3.55-9.42,5.23-2.47,1.32-4.07.6-4.8-2A6.08,6.08,0,0,1,126.06,81ZM169,23.07c-.12.58-.16.92-.26,1.25A31.45,31.45,0,0,0,167,37.76c.56,4.75,1.63,8.8,6.76,11.1,3.75,1.68,7.28,1.55,11,1.07a11.43,11.43,0,0,0,7-3.38c1.95-2,4-3.92,6-5.9a6.72,6.72,0,0,1,4.11-2.13c2.6-.27,5.2-.57,7.81-.84.83-.09,1.67-.11,3-.19-1.65-2.53-4.32-3.21-6-5.23l4.4-5.19c-3.6.1-6.6,2-9.66.46.13-1.57.24-2.91.38-4.62-1.73.14-3.08.29-4.44.36a46,46,0,0,0-12.62,2.28c-1.58.53-2.54.17-3.18-1.31a8.31,8.31,0,0,1-.81-5.29c4.85-1.25,9.76-2,14.7-.71,3.71,1,7.32,2.33,10.93,3.63a8.34,8.34,0,0,1,3.4,1.9A59.41,59.41,0,0,1,216.22,32c3.16,5.2,4.78,11.07,6.42,16.89a14.29,14.29,0,0,1,.22,2.32c-.7-.26-1.1-.44-1.51-.56-2.28-.68-3.17-.44-4.5,1.54a12,12,0,0,0-2,6.71c0,2.1.09,4.21.11,6.32,0,.79-.05,1.58-.09,2.89L212.33,65c.17-.74.29-1.43.5-2.09,1.22-3.85.09-7.23-2.12-10.38a4.15,4.15,0,0,0-1.3-1.24c-2.83-1.59-5.71-3.13-9-3.59A9.93,9.93,0,0,0,191,51.12c-1.09,1.28-1.65,3-2.51,4.63A21.8,21.8,0,0,1,176.61,54c-3.83-1.69-7.66-3.45-11.62-4.81-4.29-1.46-8.73-2.48-13.11-3.72-.55-.16-1.28-.31-1.57-.71-2-2.78-2.24-6.13-2.84-9.34-.07-.34.44-.78.64-1.11l-1.93-2.08c2.8.94,5.07,2.92,8.33,3,2-2.15,4.11-4.36,6.12-6.67C162.85,26,165.21,23.68,169,23.07Zm27.51,241.5.48-.09c.63,2.71,1.23,5.43,1.87,8.13,1.22,5.2,2.58,10.38,3.65,15.61a79.07,79.07,0,0,1,1.7,11.42c.54,10.12,1.19,20.24.75,30.38a48,48,0,0,1-.48,5.49c-1.06,6.65-2.25,13.29-3.28,19.95a14.28,14.28,0,0,1-3,7.07c-3.52,4.46-6.53,9.32-9.77,14-.68,1-1.44,1.93-2.38,3.17a8.62,8.62,0,0,1-.78-4.56c.22-4.65.37-9.29.7-13.93a41.23,41.23,0,0,1,1-7c2.15-8.59,4.58-17.11,6.63-25.72,2.28-9.64,4.06-19.37,4.27-29.33.18-9,.45-18.09-.49-27.11C197.2,269.56,196.83,267.07,196.51,264.57Zm54.27,20.55c-2.2-3.15-3.2-6.7-4.21-10.22-1.19-4.13-2.12-8.33-3.35-12.44a13.85,13.85,0,0,0-3-6,23.21,23.21,0,0,0-.91,5.4c-.1,3.89,1,7.58,1.94,11.33,2.31,9.6,4.54,19.24,5.34,29.13.18,2.26.74,4.5.93,6.76.45,5.59.79,11.18,1.18,16.77.32,4.55.67,9.09.92,13.63.09,1.55-.2,3.13-.14,4.68.08,2.09,0,2.43-1.88,3.14A4.53,4.53,0,0,0,245,349.8c-.57,1.19-1,2.44-1.67,3.58a20.66,20.66,0,0,0-2.57,8.48c-.06.54-.22,1.08-.38,1.85-1.86-2-3.21-3.86-2.29-6.49a6.26,6.26,0,0,0,.11-1.31q.62-5.88,1.26-11.75c.39-3.57.94-7.13,1.16-10.7.25-4,.21-8.08.28-12.12a149.26,149.26,0,0,0-1.62-24.63c-.89-5.89-1.44-11.83-2.32-17.72s-1.77-11.6-3-17.33c-.87-4.14-2.26-8.17-3.54-12.68.82.42,1.4.66,1.93,1,.89.55,1.73,1.17,2.61,1.74,1.22.8,2.13.41,2.82-.77a11.63,11.63,0,0,1,.83-1.35c1.49-1.88,3-3.75,4.83-6a7.45,7.45,0,0,1,.34,1.49c-.3,4.65,1.12,9,2.13,13.45,1.53,6.66,3.7,13.16,4.63,20C250.86,280.68,251.29,282.87,250.78,285.12ZM151,433.66a4.37,4.37,0,0,1,3.63-.33c1.82.63,3.72,1,5.54,1.64a2.68,2.68,0,0,1,1.55,1.15c1.89,4.25,5.7,5.51,9.74,6.18,3.53.58,7.12.79,10.7,1.07,5,.39,9.78-.29,13.92-3.51,1.38-1.07,2.85-2,4.29-3,.45-.31.95-.55,1.48-.86.29,1.07.56,1.89.73,2.74.53,2.6.62,5-2,6.79-.77.53-1.14,1.68-1.63,2.59s-.65,1.63-1.08,2.38a29.65,29.65,0,0,1-12.85,12c-1.65.81-3.22,1.78-4.9,2.51a12.38,12.38,0,0,1-6.87,1.15c-1.12-.16-2-.79-1.55-1.88.62-1.46.19-2.77,0-4.13a11,11,0,0,0-8.12-9.33c-1.75-.44-3.56-.68-5.5-1-.24-3.73-2.77-5.48-5.67-6.52C152,440,151.5,437,151,433.66Zm18.43-187.75-.24.79c-2.85-.76-5.69-1.54-8.55-2.29a72.89,72.89,0,0,1-17.59-6.79,5.59,5.59,0,0,1-2.54-2.81,38.32,38.32,0,0,1-2.66-10.14,12.79,12.79,0,0,1,.51-5.89,57.86,57.86,0,0,0,2.69-9.88c.66-5,.75-10.12,1-15.19.1-2.13-.49-4.33.88-6.28a1.88,1.88,0,0,0,.16-.76c1.44-8.37,2.85-16.74,4.32-25.1.44-2.56,1-5.08,1.63-7.88a6.27,6.27,0,0,1,.51.74c.16.5.32,1,.45,1.51a90.67,90.67,0,0,1,2.66,27.83A106.73,106.73,0,0,1,151.29,196a96.45,96.45,0,0,1-5.69,19.13,16.47,16.47,0,0,0-1.49,7.4,3.37,3.37,0,0,0,1.44,2.92,5.93,5.93,0,0,1,2.41,3.32c1,3,3.56,3.89,6.25,2.29,1.13-.67,2.18-1.46,3.28-2.18a14.39,14.39,0,0,1,5.07-2.31c-.09.57-.13.89-.2,1.21-.62,2.82-1.29,5.64-1.84,8.47-1,4.95,2.19,7.46,5.61,8.28A22.28,22.28,0,0,1,169.43,245.91ZM251,287.57l.69-.21a9.12,9.12,0,0,0,.39-2.54c-.58-4.42-1.12-8.86-2-13.23-.77-3.85-2-7.62-3-11.43a76.77,76.77,0,0,1-2.58-13.11c-.22-2.87,1-5.16,3.4-6,.26,1.11.56,2.21.77,3.33,1.68,9.11,3.42,18.21,5,27.34a91,91,0,0,1,1.08,10.43,58.34,58.34,0,0,1-.41,6c-.15,2.69-.21,5.39-.35,8.08-.15,2.88-.61,5.76-.48,8.62.24,5.3.72,10.59,1.27,15.86.49,4.61,1.2,9.2,1.84,13.8s1.14,9,1.93,13.51c1,5.43,2.18,10.81,3.26,16.22.18.91.23,1.85.35,2.9-2.22.06-3.51-1.4-5.09-2.23a5.74,5.74,0,0,1-3.08-5.63,20.64,20.64,0,0,0-1.44-7.44,41.28,41.28,0,0,1-2.31-13.65c0-4.64-.42-9.28-.68-13.91-.16-2.8-.25-5.61-.57-8.39-.6-5.3-1.5-10.58-2-15.89-.76-8.31-2.79-16.36-4.6-24.46-.81-3.57-1.65-7.15-2.21-10.77a36.34,36.34,0,0,1,.06-6c.56.54.82.67.88.86a97.8,97.8,0,0,1,3.16,9.74A72.65,72.65,0,0,0,249.39,285,25.28,25.28,0,0,0,251,287.57Zm-25.37-6.89c-.24,5.51-.33,11-.74,16.51-.61,8-1.44,15.89-2.22,23.83a21,21,0,0,1-.83,3.84c-2.51,8.3-5.09,16.58-7.57,24.89-2.32,7.81-4.56,15.64-6.79,23.47-.66,2.35-1.14,4.75-1.73,7.12a7.77,7.77,0,0,1-.79,1.37,19.68,19.68,0,0,1-1-2.79c-.92-4.55-1.81-9.11-2.63-13.67a11.94,11.94,0,0,1-.31-4.1c1-5.95,2.48-11.83,3.34-17.8A40.5,40.5,0,0,1,209.17,329a123.85,123.85,0,0,0,8.22-17C221.19,301.93,223.07,291.29,225.65,280.68ZM215.3,134.82a9.5,9.5,0,0,1,0,2.33,70.81,70.81,0,0,1-2.46,8,38.35,38.35,0,0,1-3.45,6.15,4.13,4.13,0,0,1-4.8,1.88,21.54,21.54,0,0,1-4.93-1.67,38.45,38.45,0,0,1-9.46-7.87c-2.29-2.49-4.1-5.4-4.37-8.82a41.56,41.56,0,0,1,.3-8.34c.51-4.08,1.3-8.13,2-12.18a10.9,10.9,0,0,1,.61-1.67c1.43,2.51,2.69,4.81,4,7a14.57,14.57,0,0,0,2.35,3.13c3.43,3.19,6.88,2.4,9.11-1.93,1.54-3,.95-6.12,0-9.18-.28-.88-.61-1.74-1.1-3.13,2.39,1.63,4.34,2.75,5.7,4.7a3.62,3.62,0,0,1,.61,3.4c-1.32,4.63-2.52,9.28-3.71,13.95-.8,3.11.12,4.22,3.32,4.19C211.05,134.81,213.11,134.82,215.3,134.82ZM169,270.14h.52c.7,2,1.55,3.91,2.05,5.93,1,4,1.8,8,2.61,12.06a51,51,0,0,1,.5,12.59c-.21,4.11-.54,8.21-.66,12.32-.08,2.51.13,5,.24,7.53A79,79,0,0,0,176.64,338a99.64,99.64,0,0,1,2.51,15,7.53,7.53,0,0,1-1.45,5.09c-2.53,4-4.88,8.09-7.33,12.13a11.14,11.14,0,0,1-1.19,1.4c-.6-3.64-1.18-7-1.72-10.36a41.8,41.8,0,0,1-.51-4.16c-.26-4.37-.2-8.78-.73-13.12-.63-5.11.26-10.13.37-15.19.1-4.89,1-9.75,1.35-14.63q.66-9.16,1-18.35c.15-4.29.07-8.59,0-12.89,0-3.41-.23-6.82-.29-10.23A18.37,18.37,0,0,1,169,270.14Zm28-208,.55.11c-.18,2.15,0,4.42-.62,6.41a101,101,0,0,1-4.51,11.19,31.43,31.43,0,0,1-3.15,4.47c-1.2,1.71-2.32,3.48-3.58,5.14-1.06,1.39-2.28,2.66-3.39,4-2.18,2.67-4.44,5.22-8,6a8.72,8.72,0,0,0-1.64.83,40.35,40.35,0,0,1-15.41,3.89c-3.23.17-6.49-.18-9.73-.16-3.82,0-6.18-2.08-7.87-5.16a5.4,5.4,0,0,1-.46-4.28c2.38,2,2.37,2.06,5.27,2.34a9.17,9.17,0,0,0,3.33-.34C152.82,95.11,158,93.66,163,92a27.43,27.43,0,0,0,11.88-7.48c2.38-2.56,4.59-5.27,6.89-7.9a3.31,3.31,0,0,1,1.11-1c5.26-2,8.64-6.1,12-10.24A25.7,25.7,0,0,0,196.94,62.09ZM123.27,173.73a3.15,3.15,0,0,1,3.44-1.16,31.07,31.07,0,0,0,4.32.4,8.07,8.07,0,0,0,.45,1.37,5.24,5.24,0,0,0,1.12,1.7c5.72,4.86,8.12,11.27,8.51,18.51.14,2.78-.47,5.59-.44,8.39,0,6-2,11.5-3.82,17.08a1.94,1.94,0,0,1-1.83,1.61c-3.24.1-6.51.35-9.43-2.27.35-.91.66-1.73,1-2.53,1.29-3.26,2.84-6.43,3.82-9.78a41.19,41.19,0,0,0,1.7-9.52,23.74,23.74,0,0,0-1.1-7.74c-.72-2.43-1.75-4.91-4.11-6.44-1.22,1.09-.95,2.27-.86,3.51.36,5.09.14,10.12-1.8,15m38.84,209.69c.68,3.37,2.3,6.14,5.5,7.57,2.69,1.2,5.66.77,8.49.71,3.73-.08,7.12-1.75,10.48-3.2,3.12-1.35,5.8-3.27,6.92-6.76a11.35,11.35,0,0,1,1.34-2.14c1.46,2.7,2.83,5.08,1.84,8.11a3.47,3.47,0,0,0,.45,2.44c1.4,2.41,3,4.73,4.42,7.12a4.69,4.69,0,0,1,.81,2.13c.18,5-1.82,7.76-6.55,9.27a11.51,11.51,0,0,1-1.55.32c-2.49.43-5,.89-7.49,1.28a15.4,15.4,0,0,1-2.88.12c-2.36-.08-4.71-.17-7.06-.34A18.64,18.64,0,0,1,166,432.9a1.92,1.92,0,0,1-.51-2.36c.22-.45,1.09-.66,1.7-.8a5.17,5.17,0,0,1,1.84,0c4.63.59,8.62-1.11,12.4-3.48a11.92,11.92,0,0,0,4.61-4.7,17.69,17.69,0,0,0-3.26-.22,37.84,37.84,0,0,0-6.45,1.12,26.23,26.23,0,0,1-7.53.79,4.72,4.72,0,0,1-3.78-1.77c.48-1.91.08-3.23-2-4.31C160.54,415.89,160.71,413,163.06,411.51Zm116.3-302c-.09.34-.08.58-.19.65-2.61,1.66-4.11,4.17-5.59,6.81-4.11,7.35-10.38,11.38-18.88,11.92-5,.32-9.76-.67-14.52-1.92s-9.46-2.7-13.29-6a36.54,36.54,0,0,1-2.74-2.87c.85-1.62,2-1.49,3.16-1.45a14.43,14.43,0,0,0,7.8-2,81.16,81.16,0,0,0,7.09-4.46,42.8,42.8,0,0,1,8.37-4.32,37.84,37.84,0,0,1,11.15-2.76c.89-.08,1.79,0,2.69,0l.06.55a15.78,15.78,0,0,1-2.64.75,11.53,11.53,0,0,0-7.07,3.71c-1.8,1.81-3.61,3.61-5.25,5.55a23.08,23.08,0,0,0-2.52,4,6,6,0,0,0-.31,1.89c3.25,1.24,6.32,1,9.35.61,4.87-.62,8.87-3.23,12.45-6.36a20.73,20.73,0,0,1,9.42-4.36A5.62,5.62,0,0,1,279.36,109.51Zm17.13,16.55,0,.78c-1,.61-2,1.54-3.14,1.77-3.47.69-6.24,2.71-9.17,4.45a13.88,13.88,0,0,0-6.34,8.08c-1.16,3.72.72,9,6.27,8.91,1.33,0,2.65-.17,4-.26a5.79,5.79,0,0,1-2.6,2.16c-3.56,1.16-7.13,2.57-10.81,3.05-2.82.37-6,.52-8.68-1a82,82,0,0,1-8.3-5,7.37,7.37,0,0,1-3.06-5c3.18-1.36,6.37-2.57,9.42-4.05,4.42-2.14,8.88-4.23,12.25-8a7.83,7.83,0,0,1,2.17-1.47c4.36-2.37,9.12-3.57,13.91-4.63C293.7,125.58,295.13,126,296.49,126.06Zm-43,35.21c-1.37,3.46-2.48,6.81-4.62,9.63a24.71,24.71,0,0,1-11.86,8.74,8.26,8.26,0,0,1-4.33.19c-2-.45-2.93-2.27-2.68-5.07.29-3.39.75-6.77,1.36-10.12.92-5,3.41-9.45,6.13-14.18,2.67,2.06,5.1,4,7.63,5.87,1.83,1.32,3.76,2.5,5.69,3.69A26.16,26.16,0,0,0,253.53,161.27ZM133.87,430.34c.39-.43.52-.68.73-.79,3.28-1.71,8.58-.65,11.06,1.65,1,.93,1.68,2.39,2.82,2.93a3.49,3.49,0,0,1,2.11,3,27.89,27.89,0,0,1,.15,5.17c-.06,1.06.18,1.7,1.22,2,2.7.67,4.48,2.2,5,5.08.22,1.28,1.1,1.77,2.47,1.78,7.81.11,10.21,3.7,11.29,9a8.74,8.74,0,0,1-1.26,6.23,2.26,2.26,0,0,1-2.87,1.22,9.19,9.19,0,0,0-4.88.24c-.47.1-.94.17-1.49.27,1-4.4.85-5.05-1-7.82-2.2-3.32-5.42-5.61-8.13-8.41a6,6,0,0,0-2.21-1.4,3.14,3.14,0,0,1-1.92-2.22c-1.71-4.4-4.06-8.31-8.94-9.85C140.45,433.68,139.31,431.44,133.87,430.34Zm66.47,54.3a43.72,43.72,0,0,0-5.6.91c-3.75,1.15-7.18.49-10.68-1.08a9.48,9.48,0,0,1-5.6-6.13,8.36,8.36,0,0,0-2.87-4.3,17.34,17.34,0,0,0-3-1.47c2.29-.71,4.14-1.23,6-1.85,2.19-.76,3.83-2,4.19-4.56a3.42,3.42,0,0,1,1.38-2.09c2.39-1.54,4.89-2.92,7.34-4.36.82,1.85,1.41,3.61,2.31,5.18,2.77,4.8,7.23,7.55,12.23,9.44,3.58,1.36,7.29,2.35,11,3.53a3.48,3.48,0,0,1-.42.4,1.87,1.87,0,0,1-.7.33c-5.94.58-11.85.29-17.18-2.51-4.78-2.52-9.83-3.52-15-4.18a6.88,6.88,0,0,0-1.71.28c1.51,2.49,3,4.41,5.67,5.12,2.28.59,4.55,1.27,6.77,2.07A11.71,11.71,0,0,1,200.34,484.64ZM180.62,76.5a5.82,5.82,0,0,1-.53,1.11c-5,6.14-10.59,11.46-18.4,13.86-2.59.79-5.16,1.66-7.77,2.4a58.71,58.71,0,0,1-7.13,1.72,13.26,13.26,0,0,1-4.69-.27c-1.79-.37-2.43-1.45-1.71-3.11,1.25-2.88,2.77-5.64,4.23-8.42A2.81,2.81,0,0,1,147,82.36c3.11-.41,6.21-.93,9.32-1.43,1.28-.2,2.57-.45,3.84-.71,6.32-1.31,12.82-1.65,19-3.53A10.47,10.47,0,0,1,180.62,76.5Zm-1.53-56.69c.43,1.67.68,2.94,1.09,4.15.74,2.2,2.64,3.3,4.33,2.78a62.15,62.15,0,0,1,8.07-2.19c2.62-.42,5.29-1.15,8-.59,0,.4,0,.66,0,.92-.5,4.07,0,4.54,4.12,4.17.6-.05,1.19-.23,1.8-.31s1.25-.11,2.33-.21c-1.06,1.15-1.79,1.89-2.46,2.68-1,1.23-.92,1.81.38,2.76L209.6,36a22.06,22.06,0,0,1-3.5.72c-2.42.64-4.52.75-6.77-.94A47.2,47.2,0,0,0,190.94,31a92.26,92.26,0,0,0-8.84-3.24,2.62,2.62,0,0,0-1.29.09,14.56,14.56,0,0,0-6.73,3.4c-2.5,2.31-3.8,5-2.47,8.46.61,1.62,1,3.33,1.59,5.41a15.47,15.47,0,0,0,3.56.87,29.86,29.86,0,0,0,7.75-.35A20,20,0,0,0,195,39.44a5.27,5.27,0,0,1,4.77-1.8,23.91,23.91,0,0,0-2.08,1.58c-2.09,2-4.14,4-6.19,6.08a9.57,9.57,0,0,1-4.88,3,53.45,53.45,0,0,1-7,1c-4.24.21-7.27-2.14-9.79-5.24a5.84,5.84,0,0,1-1.34-2.8c-.43-4.17-1-8.36-.07-12.54a12.28,12.28,0,0,1,1.87-4.75l3.93,4.44C175.8,25.3,176.59,22.3,179.09,19.81Zm57,130c-2,5.26-5.83,8.62-9.92,11.63a12.08,12.08,0,0,1-8.55,2.76c-3.3-.35-4.4-1.62-3.68-4.8a38.39,38.39,0,0,1,1.41-4.5c.72-2,1.5-3.92,2.31-5.86,2-4.88,4.12-9.74,6.36-15C227.13,140.22,231.69,144.94,236.07,149.76ZM128.5,460a5,5,0,0,1,2.28-5.1c3.72-2.66,8-3.9,12.41-4.72a6.16,6.16,0,0,1,2.34.11c5.18,1.21,8.21,4.64,9.68,9.6a5,5,0,0,1-1.23,4.86,34.32,34.32,0,0,0-2.61,3.51c-1.09,1.74-2.3,3.35-4.27,4.1a15.89,15.89,0,0,1-8.52.9c-3.82-.69-6.13-3.08-7-7.28a7.47,7.47,0,0,1,1.7-.44c2,0,4,0,6,0,3,0,4.7-1.71,4.83-4.7a5.78,5.78,0,0,0-3.69-5.84c-2.38-1.05-5-1.86-7.42-.07a19.15,19.15,0,0,0-2.63,2.89ZM146.22,113.3l.79.07c.1,3.75.39,7.5.26,11.24a28.45,28.45,0,0,1-5.38,15.12c-1.72,2.52-3.68,4.88-5.58,7.28-1,1.27-2.11,2.46-3.16,3.69l-.63-.2c-.11-.8-.27-1.6-.32-2.4-.24-3.49-.45-7-.68-10.47-.18-2.62-.45-5.23-.54-7.85a12.72,12.72,0,0,1,1.53-6.58,9.59,9.59,0,0,1,1.32-1.46c.32,1.47.52,2.55.81,3.62a3.25,3.25,0,0,0,5.6,1.53,19.54,19.54,0,0,0,5.07-9.33C145.6,116.14,145.92,114.72,146.22,113.3Zm-12.9-28.45-.23-.44c4-2,7.87-4.19,11.89-6.1a32,32,0,0,1,7.15-2.58c5.65-1.13,11.36-2.08,17.07-2.84a84,84,0,0,0,14.88-3.06,13.26,13.26,0,0,0,8.11-7c1.42-2.83,1.16-4.54-.93-6.91,1.37-1.33,3-1.28,4.64-.85s2.25,1.71,1.47,3.44a38.64,38.64,0,0,1-3,5.82c-2.63,3.85-5.66,7.41-9.94,9.51a24.81,24.81,0,0,1-6.21,2.08c-9.46,1.77-18.94,3.38-28.42,5-1.87.33-3.79.49-5.63,1C140.52,82.81,136.93,83.86,133.32,84.85Zm92.56,163.89-3.14,3.37a37.43,37.43,0,0,1-4.27,4.52,35.05,35.05,0,0,0-6.35,5.82c-1.65,2.09-3.42,2.14-5.37.26a24.54,24.54,0,0,1-3.49-4.24,12.11,12.11,0,0,0-5.81-5.07,7.85,7.85,0,0,1-4.23-4.14C204.09,248.82,214.74,249.89,225.88,248.74ZM206.71,133.43c-.17-4.35,5.66-25.18,7.52-27.06,2.22,3.92,4.42,7.75,4.52,12.47a19.67,19.67,0,0,0,1.41,5.57c.7,2.14,1.57,4.23,2.41,6.45C217.5,133.45,212.39,134.75,206.71,133.43Zm31.55,70c.85-1.57,1.42-2.64,2-3.7,1.54-2.73,3.89-5,4.8-8.1.78-2.69,1.79-5.31,2.66-8,1.08-3.34.36-4.92-3.1-6.56,1.61-1.21,2.28-3.27,4.11-4,0,1.65,0,3.21,0,4.77.09,2.8.08,5.61.39,8.38a42.64,42.64,0,0,0,1.51,8.2,43.57,43.57,0,0,1,2.12,11c.41,7.86-1.55,15.4-3.24,23.24-1.15-2.07-.75-4-.54-5.87.49-4.51,1-9-.64-13.46-1.28-3.35-2.7-4.73-6.15-5.09A35.76,35.76,0,0,1,238.26,203.39Zm11.45,174.53c-2.54-1.25-3.79-3.33-5-5.42-1-1.82-1.87-3.75-2.73-5.67a4.25,4.25,0,0,1-.6-2.2c.55-3.43.7-7,2.46-10.11a10.47,10.47,0,0,0,1.26-2.28c.64-2.62,2.31-4,5.09-4.39.36,1.2.69,2.46,1.11,3.67,1.93,5.53,2.93,11.1,1.09,16.89C251.45,371.47,250.66,374.58,249.71,377.92ZM297,128.29a1.86,1.86,0,0,1,.11.72c-1.2,4.81-2.17,9.7-3.73,14.39-1.25,3.78-4.52,5.35-8.39,5.58a7.48,7.48,0,0,1-2.83-.3c-2.83-1-4.18-4.17-3.21-7.38a13.67,13.67,0,0,1,5.3-7C288.06,131.46,292.6,130.13,297,128.29Zm-112.56,294a7.64,7.64,0,0,1-.53,1c-2.13,2.33-5,3.48-7.74,4.79a12.14,12.14,0,0,1-6.68.89c-.61-.07-1.22-.2-1.83-.24-1.28-.08-2.54,0-3.07,1.44a3.24,3.24,0,0,0,.87,3.62A18.28,18.28,0,0,0,176,439a61.2,61.2,0,0,0,7.3.26,54.21,54.21,0,0,0,6-.11c2.29-.21,4.55-.67,7.4-1.11-4,3.42-8.1,4.93-12.75,4.64-3.14-.2-6.28-.55-9.39-1a42.51,42.51,0,0,1-7.15-1.61,6.24,6.24,0,0,1-3.34-2.36,42.31,42.31,0,0,1-2.76-6.77,3.4,3.4,0,0,1,0-1.82c.45-1.86,1.31-3.69,1.4-5.56s-.54-3.72-.85-5.56c2.15.9,2.15.9,2.35,2.21.44,2.95,1.43,3.85,4.38,4a22,22,0,0,0,8.56-1A17.14,17.14,0,0,1,184.41,422.27Zm63.26-303.54a14.25,14.25,0,0,1,1.17-2.43c1.26-1.67,2.67-3.22,3.95-4.88,3.63-4.73,8.78-6.4,14.37-7.2a1.91,1.91,0,0,1,1,.11c2.89,1.25,5.77,2.54,9,4a15.5,15.5,0,0,0-1.74.59c-2.27,1.1-4.62,2.08-6.78,3.38-1.78,1.09-3.24,2.69-5,3.83C258.87,119.2,253.66,120,247.67,118.73ZM187.84,249.52v5.85a2.94,2.94,0,0,1-.78-.06c-.47-.23-.92-.51-1.38-.77-2.83-1.62-3-1.64-5.58.41-2.19,1.74-4.31,3.58-6.5,5.32-1.86,1.49-3,1.3-4.32-.65a12.61,12.61,0,0,1-.85-1.63c-1.14-2.37-2.24-4.76-3.42-7.11a6.67,6.67,0,0,0-4-3.46c-2.87-1-5.61-2.37-8.41-3.59l.16-.57C164.16,246.86,175.66,250.15,187.84,249.52Zm-42,199.61a28.93,28.93,0,0,0-12.29,3.09c-2.54,1.25-5,2.57-6.13,5.43-.24.64-.52,1.26-.83,2-1-.52-1.86-.93-2.69-1.41a3.84,3.84,0,0,1-1.87-3c-.27-2,.13-2.62,2.1-2.83a31,31,0,0,1,4.72-.07,3.28,3.28,0,0,0,3-1.16,5.16,5.16,0,0,0,.54-5.25,3.89,3.89,0,0,0-3.93-2.15c-1,0-2.08.42-3-.45.49-1.36,1.08-2.59,2.48-3a22,22,0,0,1,8.75-1C140.66,439.86,144.34,442.81,145.87,449.13Zm35.1,49c.53-3.43,2.1-5.54,4.9-6.71.89-.36,1.9-.42,2.77-.81,4.4-2,7.82.06,11,2.77a4.53,4.53,0,0,1,1.47,4.78,6.65,6.65,0,0,1-6.35,4.9c-3,.23-5.29-1.15-7.41-2.83C185.51,498.84,183.73,497.8,181,498.16Zm90.34-334.5.35.46c-.86,1.5-1.65,3-2.6,4.48-2.27,3.42-5.49,5.82-8.9,8a1.8,1.8,0,0,1-2.73-.61,10.64,10.64,0,0,1-1.17-2.86q-.7-2.92-1.16-5.91c-.25-1.69-.33-3.4-.5-5.31C260.26,163.1,265.62,164.91,271.31,163.66ZM195.2,384.08c1,3.52,1.93,7.05,2.91,10.58,1.23,4.47,2.42,8.95,3.73,13.4.91,3.11,1.87,6.21,3,9.24,1,2.77.1,5.06-1.16,7.43-2.11-1.86-3.26-4.23-4.52-6.54a3.7,3.7,0,0,1-.41-2.72c.86-4.29-1.22-7.52-4.09-10.75C196.25,398.07,195,391.08,195.2,384.08ZM158.91,498.24c2,1.65,3.44,3,5,4.22,2,1.51,4,3.28,6.63,3.53a11.65,11.65,0,0,0,9.19-3.09c.77-.69,1.59-1.31,2.26-1.86.08,2.8.15,5.54.23,8.49-4.71,3.28-9.44,4.31-14.91,1.47C162.41,508.42,159.62,504.34,158.91,498.24Zm-31.69-312.7a16,16,0,0,1,3.8,8.71c.79,7.76-2.09,14.62-5,21.49a17.22,17.22,0,0,1-1.12,1.95c-.77-1.33-1.22-2.9-2.26-3.7m29-181-.53.53c-1.78-1.07-3.5-2.25-5.35-3.17-2.47-1.24-4.35-3.92-7.65-3,.56-4.91,6.9-14.49,10.74-16.64-.16,3.69-.51,7.51-.45,11.32S150.09,29.51,151.7,33ZM140.8,356.93l-.76-.22c-.66,1.19-1.4,2.34-1.94,3.58s-1,2.8-1.47,4.2c-.45,1.21-.95,2.4-1.42,3.6,1.41-11.48,5.39-22.09,10.13-32.32,0,13-2.21,25.9-2.27,39C140.31,369.06,141.09,362.92,140.8,356.93ZM152.09,46.62l.12.64A76.66,76.66,0,0,0,140,53.71c-5.34,3.55-8.42,8.55-11.28,13.87a60.28,60.28,0,0,0-2.46,6c-.16-.2-.28-.28-.27-.33.12-.69.25-1.37.39-2,1.24-5.66,2.56-11.24,6.09-16.09A20.19,20.19,0,0,1,149,46.48C150.05,46.44,151.07,46.57,152.09,46.62Zm38.32,8.25c.68-2.08,1.15-3.67,2.59-4.49,2.72-1.56,5.63-2.51,8.79-1.37a50.68,50.68,0,0,1,5.84,2.32c3.65,1.82,5.43,7.07,3.77,11.15-.54-1-1.09-1.91-1.49-2.86-1.41-3.39-6.55-6.43-10.48-4.89a2.28,2.28,0,0,1-1.74,0C195.44,53.38,193.2,53.7,190.41,54.87ZM129,465c-.63-4.24,2.21-6.45,4.41-9a1.52,1.52,0,0,1,.94-.32c.82-.08,1.66,0,2.47-.16a5.36,5.36,0,0,1,5.77,2.69c1.64,2.77-.47,6.81-3.56,6.36a21.61,21.61,0,0,0-4.18-.17C132.94,464.47,131.06,464.74,129,465ZM175.09,36.47c-.38-5.1,2.52-7.41,7.1-7.22a12.39,12.39,0,0,1,2.83.46c4.33,1.21,5.13,2.33,5,6.81A8.52,8.52,0,0,1,180.54,45a4.2,4.2,0,0,1-4.23-3.24C175.83,40,175.49,38.25,175.09,36.47ZM147.66,481.34c-1.55-1.41-1.39-2.52-1-3.48a9.69,9.69,0,0,1,4.55-5.26c3-1.61,5.86-.92,7.69,1.64a4.57,4.57,0,0,1-.46,5.73c-1.67,2-2.68,2.24-5,1.13-.87-.42-1.68-.94-2.51-1.44a1.75,1.75,0,0,0-2.56.36A8.48,8.48,0,0,0,147.66,481.34ZM245.77,86.62c2.5,1.91,4.91,3.93,7.51,5.7,2.37,1.61,6.47,4.88,7.33,6.35-5.93.6-11.38,0-15.93-3.94C245.06,91.94,245.41,89.35,245.77,86.62Zm-100.93,24,.56.28c-.41,5.48-1.64,10.63-5.64,14.81-.73.76-1.4,1.33-2.46,1.1a2.48,2.48,0,0,1-1.94-2.23c-.44-2.45-.22-4.74,1.69-6.57C139.64,115.5,142.24,113.05,144.84,110.59ZM204,442l16.49.51c-2.58,2.42-4.72,4.62-8,4.87-2.36.18-4.73.18-7.1.18-1.52,0-3-.15-4.56-.24l-.32-.51A6.27,6.27,0,0,0,204,442ZM137,33.58c2.14-3.71,5.86-3.87,8.22-.29s2.11,7.76,2.69,12l-3.07.3c-.87-2.48-1.6-4.82-2.52-7.07C140.8,34.64,140.7,34.62,137,33.58ZM194,406.3l.66.34c-.89,2.64-2,5.21-4.26,7.07a24,24,0,0,1-11.5,4.8,46.2,46.2,0,0,1-7.81.11c-3.14-.05-4.92-1.53-5.67-4.32,1.11.61,2.42,1.41,3.8,2.07,2.92,1.39,6,1.11,9,.41a16.62,16.62,0,0,0,5.6-2,41.24,41.24,0,0,0,9.53-8.21C193.48,406.43,193.78,406.39,194,406.3Zm-73.92,46a4.18,4.18,0,0,1,.77-4.95,7.87,7.87,0,0,1,7.54-2.83c3.21.47,3.85,1.87,2.95,5a2.06,2.06,0,0,1-2.66,1.55C125.75,450.41,123,451.23,120.09,452.32Zm6.32-14.92c.82-4.3,5.75-7.18,9.5-5.72a3.7,3.7,0,0,1,1.88,4.6c-.53,1.42-1.27,1.63-3.47.82a6.48,6.48,0,0,0-4.08-.28A33,33,0,0,1,126.41,437.4Zm30,21.69c4.34,3.91,4.91,6.79.07,11.47l-5.48.5a42.13,42.13,0,0,1,3.61-5.19,5.9,5.9,0,0,0,1.81-4.67C156.41,460.54,156.45,459.87,156.45,459.09ZM149.62,490c3.27,2,6.38,2.79,9.74.57-.64,3.07-1.22,5.8-1.8,8.59C153.45,497.38,150.44,494.91,149.62,490Zm98.56-58.13a4.39,4.39,0,0,1,1.69,5,16,16,0,0,1-9.46,10.87,5.23,5.23,0,0,1-1,.18C243.68,443.07,246.8,437.94,248.18,431.82ZM193.82,80l4.1-10.23L202.59,80Zm24.68,25.6a119.15,119.15,0,0,1-12.63-6.34l5.58-2.34C212.56,100.86,215.94,102.85,218.5,105.62Zm17.69,145.76-5.6-3.68,10.57-3.31Zm-46-209.33c1.1-3.4,1.91-6.31,1-9.62l6.36,3.63Zm13.72,18c4.75,1.39,13.41,11.64,12.65,16.66C212.67,70.74,209.82,64.2,203.94,60Zm-71.34,106,.57-.14a36.45,36.45,0,0,1,4.25,13.35c-.85-.93-1.28-1.46-1.78-1.9a5.45,5.45,0,0,1-1.93-4.58,25.67,25.67,0,0,0-.79-4.85C132.81,167.31,132.7,166.68,132.6,166.05Zm77-104.26a37.72,37.72,0,0,0-5-3.24,33.21,33.21,0,0,0-5.43-1.4,1.4,1.4,0,0,1,1.49-1.64,10.75,10.75,0,0,1,4.29.62A8.07,8.07,0,0,1,209.56,61.79Zm-38.69-40L176.7,20l.29.46-3.17,5.71C172.2,25.19,171.74,23.69,170.87,21.81ZM143,44.88,137.94,35C140.61,35.75,142.73,40,143,44.88ZM135.84,32l1.51-3.39c2.36-.77,4.14-.38,5.71,1.39C139.89,29.42,139.89,29.42,135.84,32ZM174.09,42.4c-.73-2.51-2.86-4.87-1-8C173.42,37.28,173.76,39.84,174.09,42.4ZM128.11,439l-.08-.56,4.47-.52.07.52ZM196.43,262l-.3.07-.6-2L196,260Z"/><path class="cls-1" d="M226.42,176.09c0,2.83-.08,5.19,0,7.55s-1.13,4.63.17,7a7.81,7.81,0,0,0,4.67-2.32c3.13-2.79,6.2-5.62,9.37-8.5-1.89.51-3.68,1.09-5.51,1.46a5.11,5.11,0,0,1-6-4.05c-.72-3.52,0-6.94.72-10.36.53-2.63,1.21-5.24,1.9-8.21-.64.39-1.11.64-1.55.94-2.32,1.57-4.54,3.3-7,4.69a9.53,9.53,0,0,1-8.15.34c-2.31-.81-3.06-2.05-2.49-4.45a55.07,55.07,0,0,1,2.35-7.76c2.05-5.13,4.35-10.15,6.48-15.25.57-1.35.89-2.8,1.4-4.44a12.17,12.17,0,0,0-5.62,1.62c-.39.19-.59,1-.68,1.56A41.66,41.66,0,0,1,212.24,149a27.41,27.41,0,0,1-2,2.78c-2,2.89-4.86,3-7.74,2a23.07,23.07,0,0,1-5.75-3.07,74.81,74.81,0,0,1-6.81-5.78,17.83,17.83,0,0,1-5.44-11.11,24.07,24.07,0,0,1,.44-6.53c.76-5,1.66-10,2.54-15a17.93,17.93,0,0,1,.74-2.28,17.09,17.09,0,0,1,1.12,1.53c1.48,2.79,2.89,5.61,4.42,8.37a7.32,7.32,0,0,0,4.08,3.55,3.18,3.18,0,0,0,3.41-.68A7.77,7.77,0,0,0,204,115.5c-.44-3.48-2-6.48-3.62-9.48-.39-.72-.43-.7-.21-2l10.2,8.92,2.66-8.23c-.36-.46-.44-.64-.57-.72-6.3-3.63-12.64-7.16-18.86-10.92-2-1.2-3.62-3-5.55-4.62-1.94,2.22-4.06,4.54-6.07,7a12.57,12.57,0,0,1-6.05,4.43,8.79,8.79,0,0,0-1.45.62,40.83,40.83,0,0,1-22.12,4.59c-1.72-.14-3.93,1.72-4.5,3.72a12.75,12.75,0,0,0-.08,6.23A31.35,31.35,0,0,1,142,141.62c-2.31,3.09-4.76,6.07-7.22,9-.46.56-1.53,1.34-1.8,1.17a5.69,5.69,0,0,1-1.69-2.1,3,3,0,0,1-.16-1.55c.32-4.75-.51-9.42-1-14.11-.2-1.9-.23-3.81-.36-6.16a14.32,14.32,0,0,0-.85,1.57,34.81,34.81,0,0,0-2.17,17.26c.43,3.12.52,6.3,1.13,9.37a8.18,8.18,0,0,0,2.29,4.29c3.53,3.14,5.17,7.24,6.54,11.51a37.62,37.62,0,0,1,1.86,9.23c.14,2.22,1.62,4.35,2.5,6.52h.55c.36-1.65.78-3.29,1.08-4.95,1.72-9.39,3.39-18.79,5.13-28.17a27.87,27.87,0,0,1,1.07-3.4h.7c.5,1.72,1.14,3.41,1.49,5.16,2.06,10.43,3.27,20.91,2.23,31.59a82.75,82.75,0,0,1-3.23,17.27c-1.3,4.09-2.73,8.13-4,12.22-.45,1.4-.51,2.93-1,4.32a2.29,2.29,0,0,0,1,2.94,6.6,6.6,0,0,1,2.68,3.75c.86,2.31,2.51,2.94,4.76,1.72,2.07-1.13,4-2.45,6.1-3.61,1.82-1,2.05-1,4.17-.56L162,234.59c0,.17-.14.33-.18.5-1.18,4.33-.24,6.78,4.78,8.5a23,23,0,0,1,4.53,2.1c3.53,2.15,7.46,2.46,11.4,2.48,7.29,0,14.58-.1,21.87-.14,4.37,0,8.73,0,13.65,0-1-1-1.56-1.71-2.23-2.31A47.62,47.62,0,0,1,207,235a37.23,37.23,0,0,1-3.36-6.82A103.64,103.64,0,0,1,198,203.11a116.52,116.52,0,0,0-4-22.73,12.73,12.73,0,0,1-.23-7.57,3.66,3.66,0,0,1,2.83,2.6c1,2.8,2,5.61,3.08,8.39a66.3,66.3,0,0,0,2.8,6.79Q208,201.34,213.81,212a18.18,18.18,0,0,0,6.22,7.14,22.61,22.61,0,0,0,0-3.42c-.51-3.11-1.3-6.18-1.67-9.31a28.34,28.34,0,0,1-.08-7.36c.87-6,1.7-12,3.68-17.71.57-1.65,1.09-3.37,2.65-4.43A13,13,0,0,1,226.42,176.09ZM170.52,111l.83-.3c.68.87,1.41,1.71,2,2.62,1.71,2.55,3.31,5.16,5.06,7.68a21.22,21.22,0,0,1,.68,22.89,47.31,47.31,0,0,1-9,10.59,5.86,5.86,0,0,1-8.81-.52c-2.22-2.7-4.4-5.46-6.39-8.34-4.45-6.45-5.7-13.25-1.85-20.51,2.09-4,4.08-7.94,6.16-11.89a11,11,0,0,1,1.41-1.73c.33.66.37,1.21.11,1.53-1.27,1.59-1.11,3.45-1.09,5.29s.08,3.65,0,5.47c-.1,2.77,0,5.47,2,7.67a3.91,3.91,0,0,0,6.49-.4,8.58,8.58,0,0,0,1-2.12,25.59,25.59,0,0,0,1.43-9.31C170.46,116.75,170.52,113.88,170.52,111Z"/><path class="cls-2" d="M168.23,262.79c2.16,7,4.33,13.95,6.56,21.13.24-.56.49-1.05.68-1.55a48.22,48.22,0,0,1,8-12.94c3.16-3.86,6.37-7.67,9.58-11.5.54-.65,1.14-1.26,1.76-1.93,1.5.84,1.72,2.22,2,3.41.8,2.87,1.43,5.79,2.12,8.68,1,4.09,1.87,8.2,2.92,12.27a135.62,135.62,0,0,1,3.81,25.41c.26,4.18-.09,8.42.3,12.59.37,3.86-.07,7.68,0,11.51v1.43l.53.17c2.13-4,4.33-8,6.37-12a84.14,84.14,0,0,0,6.58-18c1.66-6.89,3.05-13.85,4.45-20.8a44.58,44.58,0,0,0,.66-13.25,28.69,28.69,0,0,1,.44-5.75c.41-3.71.86-7.42,1.34-11.62l-6.23,6.54c-.06.06-.08.16-.14.21a82,82,0,0,0-8.43,7.81c-1.06,1.09-2.81.56-4.17-.27-2.25-1.38-3.62-3.56-5-5.65a10,10,0,0,0-4.2-3.85,12.7,12.7,0,0,1-5.7-4.47,2.44,2.44,0,0,0-2-.71,1.73,1.73,0,0,0-1.46,1.91c0,.52.08,1,.09,1.57a23.25,23.25,0,0,1,0,2.64c0,.37-.35.73-.7,1.4-1.23-.7-2.37-1.28-3.44-2-1.71-1.12-2.18-1.17-3.73.09-2.23,1.82-4.44,3.68-6.64,5.55-2.65,2.26-4.68,1.93-6.27-1.17-1.12-2.18-2.14-4.42-3.12-6.68a8,8,0,0,0-4.92-4.77,44.29,44.29,0,0,0-5.57-1.76c1.05,1.43,2.17,2.81,3.13,4.3a49.44,49.44,0,0,1,3.75,6.33c.54,1.19.38,2.72.42,4.1,0,.77-.28,1.56-.26,2.33.16,6.45-1,12.75-2,19.06a144.06,144.06,0,0,1-3,15.47c-2.71,10.06-6,20-8.69,30A81.47,81.47,0,0,0,146,341.31c-.59,6.1-.86,12.23-1.15,18.35-.24,5-.35,10-.46,15a27,27,0,0,0,.47,3.49c3.43-6.55,5.75-13,9-19.06.72,5.49,1.15,10.92,3.33,16.53,1-2.13,1.7-3.92,2.57-5.66a60.18,60.18,0,0,1,4.4-8.34c1.87-2.63,1.89-5.34,1.68-8.24-.18-2.36-.39-4.71-.5-7.07a124,124,0,0,1,.18-14.68c.21-2.79.62-5.57.86-8.36.39-4.34.75-8.69,1.05-13q.43-6.29.71-12.59c.17-3.76.42-7.53.33-11.29-.17-6.71-.59-13.41-.89-20.12,0-1.1,0-2.21,0-3.32Z"/><path class="cls-2" d="M224.58,178.26a17.92,17.92,0,0,0-1.7,3.39c-1.89,7-3.95,14.06-3.6,21.42.19,4.09,1.08,8.14,1.61,12.21.23,1.8.36,3.62.55,5.62a5.48,5.48,0,0,1-4.24-2.73,109.89,109.89,0,0,1-7.06-10.75c-3.14-5.67-6-11.48-8.83-17.33-1.53-3.24-2.55-6.71-3.86-10.06a19.51,19.51,0,0,0-2.91-5.82,11.63,11.63,0,0,0,.16,5.14c.84,3.67,1.9,7.31,2.54,11,.77,4.39,1.34,8.83,1.73,13.27a89.1,89.1,0,0,0,5.83,25.22c2.63,6.65,7.14,12,12.31,16.82,2.08,1.94,4.79,2.11,7.42,1.79a60.13,60.13,0,0,0,17.82-5.15c.71-.32,1.35-.8,2.06-1.14,5.32-2.5,5.12-6.38,4-11.32a21.53,21.53,0,0,1-.42-8.53c.53-3.25,1.05-6.59.09-9.9-.57-1.93-1-4-2.92-5.07a11.06,11.06,0,0,0-2.68-.94c-.58-.15-1.22-.06-1.82-.17-3.15-.58-3.79-2-2.2-4.77a25.69,25.69,0,0,1,2.37-3.79c3.59-4.28,4.44-9.65,6.06-14.71a3.05,3.05,0,0,0,0-1.56c-.33-1.54-1.64-2.2-2.91-1.29-2.7,1.93-5.35,3.95-7.87,6.09s-4.46,4.71-7.48,6.09c-2.34,1.07-3.49.48-3.57-2.1-.07-2.26.21-4.53.29-6.8,0-1.3,0-2.59,0-3.89Z"/><path class="cls-3" d="M205.29,384.5a29.08,29.08,0,0,1-2-4.71c-1-4.07-1.73-8.21-2.57-12.32-.21-1-.4-2-.68-3.49-.87.47-1.64.64-2,1.12-1.76,2.19-3.41,4.45-5,6.61,1.5,5.48,3,10.87,4.44,16.26,1.33,4.8,2.31,9.67,4,14.4,2.18,6.08,3.8,12.37,5.38,18.64a11.74,11.74,0,0,0,13.82,9.52,31.6,31.6,0,0,0,12.36-4.14c4-2.32,6.11-5.72,5.71-10.4s-.93-9.58-1.49-14.35c-.53-4.61-1-9.23-1.79-13.8a77.41,77.41,0,0,0-3-11.59c-.78,2-1.57,4.06-2.43,6.3-2.69-1.5-3.7-4-4.87-6.23s-2-4.85-3.15-7.22c-.77-1.64-1.77-3.16-2.62-4.64-1.82.25-2.52,1.4-3.32,2.43a81,81,0,0,0-9,15.72c-.28.61-.62,1.19-.93,1.79Z"/><path class="cls-4" d="M229.55,479.58a3.84,3.84,0,0,0-2.83-1c-5.23.38-10.45.72-15.69,1a17.52,17.52,0,0,1-3.37-.3,33.4,33.4,0,0,1-11.93-3.7,19,19,0,0,0-11.54-2.24,4.37,4.37,0,0,0,3,2.6c1.73.62,3.5,1.15,5.27,1.63,3.89,1,7,3,9,6.68a13.75,13.75,0,0,0,2.58,2.67c-.63,1.2-1.84.52-2.18.16-2.27-2.39-5-1.55-7.32-.76-3.4,1.13-6.49,1.15-9.6-.65a7.8,7.8,0,0,0-2.2-.83c-2.61-.61-3.83-2.57-4.84-4.78-.28-.64-.58-1.27-.85-1.92-1.5-3.69-2.86-4.51-6.84-4.14-.51.05-1,.08-2.22.16.76-.8,1-1.34,1.45-1.49,2.05-.75,4.15-1.37,6.21-2.07,1.32-.46,2.63-1,3.92-1.49,1.48-.61,2-1.8,2-3.5-1.66.48-3.14.94-4.63,1.33a4.63,4.63,0,0,1-2,.31c-1.9-.41-3.27.11-4,2.06-1.69-.28-3.24-.5-4.78-.81-3.23-.66-5.71.46-7.49,3.58.22.35.49.77.77,1.19,1.75,2.71,1.66,4.29-.12,7a4.51,4.51,0,0,1-4.68,2.19l-1.57-.21c-2.25-.31-3.1.39-3.27,2.69-.09,1.27-.75,2.54.54,3.67a7.14,7.14,0,0,0,5.17,2.19,4.71,4.71,0,0,0,3.72-2.16,24.25,24.25,0,0,1,7.92-6.81,6.14,6.14,0,0,1,1.19-.47c.14,0,.32.1.9.29-.94.54-1.61,1-2.34,1.35-5.19,2.55-6.82,7.19-7.39,12.48a3.66,3.66,0,0,0,1.56,3.17c1.56,1.41,3.22,2.71,4.87,4,4.59,3.6,8.8,2.66,13-.48a27.87,27.87,0,0,0,2.24-2.11c-1.34-1.24-1.29-2.69-.67-4.22a8.82,8.82,0,0,1,5.27-5.5c1.57-.55,3.13-1.13,4.7-1.66a3.22,3.22,0,0,1,1.53-.26c3.47.77,6.76,1.94,9,4.9a6.52,6.52,0,0,1-1.86,9.39c-3,1.74-6.08,2.1-9.2.21-1.49-.91-3-1.76-4.51-2.64-3.06,2.55-3.43,5.65-1,8.67a13.87,13.87,0,0,0,12.18,5.49c4-.24,8.06-.48,11.85-2a29.37,29.37,0,0,0,11.89-8.4,13.45,13.45,0,0,1,2.12-2.32c2.9-2.15,4.44-5.16,5.52-8.45.73-2.24,1.4-4.51,1.92-6.81a13.42,13.42,0,0,0-.35-7Z"/><path class="cls-1" d="M229.6,380.91a58.65,58.65,0,0,0,4.19-15,9.17,9.17,0,0,1,2.34-5.42c.72-.79.82-2.25,1-3.44.35-2.69.52-5.41.83-8.11.35-3,.57-6.12,1.2-9.11.88-4.18.55-8.4.75-12.59.18-3.66.22-7.33.06-11-.21-5.06-.57-10.12-1.05-15.16-.53-5.58-1.24-11.14-1.93-16.7A178.23,178.23,0,0,0,232.21,258c-.55-1.94-1.16-3.86-1.85-5.75a18.05,18.05,0,0,0-1.41-2.52,4.69,4.69,0,0,0-1.83,3.91q-.08,4.49-.18,9c-.17,7.28-.19,14.57-.57,21.84-.45,8.56-1.2,17.11-1.87,25.66-.31,4-.56,8.05-1.18,12a74.94,74.94,0,0,1-2.28,8.9c-1.48,5.14-3,10.26-4.58,15.37-1,3.27-2.16,6.48-3.12,9.76-2.19,7.56-4.3,15.13-6.45,22.7l.52.24c.57-1,1.15-2,1.69-3,2.17-4,4.2-8.12,7.48-11.4.37-.38.75-.74,1.12-1.11a1.45,1.45,0,0,1,2.46.2,27.38,27.38,0,0,1,2.53,4.3c1,2.32,1.78,4.76,2.81,7.08A13.33,13.33,0,0,0,229.6,380.91Z"/><path class="cls-1" d="M143.49,239.6c-.27,3.43-.63,6.56-.74,9.7-.09,2.43.25,4.87.18,7.3-.16,5.41-.08,10.84-1,16.21-.36,2.06-.19,4.2-.4,6.29-.42,4.26-.86,8.53-1.45,12.77-.2,1.45-.93,2.82-1.28,4.26-.76,3.06-1.47,6.13-2.11,9.21-1.08,5.23-2.18,10.45-3.1,15.71a93.65,93.65,0,0,0-1.28,10.14,149.15,149.15,0,0,0-.53,15.23c.21,5.76,1,11.49,1.58,17.24a19.72,19.72,0,0,0,.68,2.55c.82-3,1.73-5.45,2.15-8,1-5.78,3.4-11,5.51-16.4,1.7-4.31,3.22-8.69,4.78-13.06.63-1.73,1.18-3.49,1.73-5.24,2.18-6.93,4.47-13.83,6.46-20.82a132.21,132.21,0,0,0,3.43-14.83c1.42-8.89,3.11-17.76,3-26.85a11.82,11.82,0,0,0-2-6.94c-2.07-2.93-4-6-6.63-8.47-2.24-2.11-4.48-4.48-7.52-5.62A14.59,14.59,0,0,0,143.49,239.6Z"/><path class="cls-1" d="M222.25,117.25c1.59-.67,2.78-1.65,3.9-1.57,5,.37,9-2,13-4.41,1.49-.9,2.73-2.23,4.25-3.06,6.33-3.49,12.92-6.23,20.34-6.21a2.74,2.74,0,0,0,.63-.18,3.49,3.49,0,0,0-3.54-2.09,34.51,34.51,0,0,1-7.61-.1c-2.95-.57-5.77-1.86-8.95-2.95-.34.82-.85,2-1.31,3.18-.9,2.28-1.65,4.58-3.27,6.54-2.75,3.35-6.33,4-10.37,3.75-4.45-.31-8.42-2.11-12.4-3.91a10,10,0,0,0-1-.37c-.05,0-.13.09-.4.28.73,1.49,1.45,3,2.23,4.57a14.33,14.33,0,0,1,1.86,6.5c0,4.32,1.95,8.15,3.39,12.09,2.49,6.79,6.75,12.42,11.81,17.48a45.07,45.07,0,0,0,3.83,3.2c2.26,1.8,4.58,3.52,6.8,5.37,4.52,3.75,9.84,5.66,15.48,6.78a26.17,26.17,0,0,0,8.3.62,18.49,18.49,0,0,0,8.29-3c2.27-1.49,4.61-2.88,7-4.16A14.75,14.75,0,0,0,291,148.9a12.61,12.61,0,0,0-.92.87c-2.85,3.36-6.88,4.27-10.85,5.41a25.85,25.85,0,0,1-9.85.59,18.37,18.37,0,0,1-6.18-2,29.1,29.1,0,0,1-5.9-3.92,18.67,18.67,0,0,1-3.24-4.06,2.47,2.47,0,0,1-.39-2.49c5.17-2.34,9.91-4.39,14.56-6.64a17.29,17.29,0,0,0,5-3.35c4-4.23,9.15-6.1,14.54-7.46,2.83-.71,5.66-2,8.76-.67l.25-.55c-.76-1.12-1.44-2.31-2.3-3.34-1.45-1.75-3-3.41-4.55-5.11a25.69,25.69,0,0,0-7.12-5.33,2.51,2.51,0,0,0-2.93.11,20.94,20.94,0,0,0-3.6,3.37c-1,1.29-1.64,2.89-2.54,4.29a24.7,24.7,0,0,1-13.28,10.25,26.06,26.06,0,0,1-13.26.7c-4.28-.84-8.51-2-12.7-3.27a20.05,20.05,0,0,1-10.3-6.5C223.66,119.16,223.16,118.46,222.25,117.25Z"/><path class="cls-1" d="M184.32,367.83a77.66,77.66,0,0,1,.94-9.31c1.62-7.44,3.62-14.8,5.33-22.22,1.84-8,3.63-16.05,5.25-24.11a53,53,0,0,0,.66-8.37c.24-6.57.52-13.14.53-19.71a97.33,97.33,0,0,0-2.57-23.18c-.16-.68-.2-1.39-.33-2.26-.34.17-.69.24-.87.46-3.75,4.51-7.57,9-11.17,13.59-3,3.81-5.51,7.93-6.47,12.79a9.49,9.49,0,0,0-.27,3.38c.94,5.17.11,10.32-.09,15.48-.16,4.1-.48,8.22-.28,12.31.26,5.22.91,10.43,1.51,15.63a34.2,34.2,0,0,0,1.18,5.38,63.67,63.67,0,0,1,2.52,16.05,1.8,1.8,0,0,0,0,.52q1.88,6.8,3.77,13.59Z"/><path class="cls-3" d="M168.92,376.88c-.78-5.32-1.09-10.6-2.73-16-4.77,5-5.61,11.73-9.06,17.37-2.42-2.36-1.8-5.37-2.69-7.84s-.81-5.18-1.65-7.81a9.36,9.36,0,0,0-.23,2.39c.47,3,.64,6.16,1.66,9,4,11.16,6.46,22.77,9.92,34.09.2.67.41,1.33.61,2,1.18,3.88,4,5.66,7.83,5.92,4.69.31,9-.56,12.79-3.69a41.11,41.11,0,0,0,7.19-6.88,7.85,7.85,0,0,0,1.69-4.32c.62-9.26-.5-18.37-2.19-28-2.37,3.07-3.67,6.39-6.36,8.67a2.93,2.93,0,0,1-1.26-2.81c-.16-5.39-1.66-10.53-2.95-15.7-.46-1.86-.88-3.73-1.43-6.09-3,3.06-4.51,6.54-6.58,9.61A31.39,31.39,0,0,0,168.92,376.88Z"/><path class="cls-4" d="M241.39,474.05c0-.15,0-.4.1-.45,2.23-1.33,4.41-2.79,6.73-3.92a17,17,0,0,0,5.54-4.69c3-3.6,3.48-9.73.94-13.51a32,32,0,0,1-8.88,9.83,15.73,15.73,0,0,1-2,1.15l.09-.09c-.37.45-.65,1.06-1.13,1.32a11.62,11.62,0,0,1-3.13,1.33c-6.29,1.31-12.55,3-19,3a23.38,23.38,0,0,1-7.19-1.3,83.24,83.24,0,0,1-9.43-3.91c-3-1.43-5.13-3.9-7.17-6.43a4,4,0,0,1-.41-1.49l.05.05c-1.17,1.13-2.39,2.21-3.47,3.41-.26.29-.16,1-.05,1.5a16.45,16.45,0,0,0,6.84,10.18c5.49,3.9,11.8,5.68,18.18,7.11,2.72.61,5.72.12,8.59-.05a50.77,50.77,0,0,0,5.16-.82,3,3,0,0,1,1.8.14l-3.71,1.18c-.08.64-.17,1.31-.25,2l-.07-.08a5.75,5.75,0,0,1,1.38,5.28c-.9,4.29-1.47,8.65-3.62,12.57a8.43,8.43,0,0,1-.75,1.39c-4.62,5.54-9.51,10.81-16.06,14.11a23.61,23.61,0,0,1-5.5,1.72,49.89,49.89,0,0,1-6.22.93c-4.58.43-8.91-.2-12.53-3.4a4.17,4.17,0,0,0-1-.47,7.41,7.41,0,0,0,5.24,4.92c5.44,1.71,10.88,2.47,16.35-.2,5.74-2.8,11.75-5.06,17-8.85a18.63,18.63,0,0,0,2.23-1.82,163.21,163.21,0,0,1,18.48-15.13c2.74-2,6-3.29,8.88-5.1a55.58,55.58,0,0,0,6.54-4.78,7.36,7.36,0,0,0,2.48-5.37,18.29,18.29,0,0,0-5.46-14.25,8.55,8.55,0,0,0-.84,1.35c-1.13,3.48-3.63,5.68-6.73,7.36a18.69,18.69,0,0,0-2.82,1.92,10.34,10.34,0,0,1-5.21,2.3,5.19,5.19,0,0,1-4.32,1Z"/><path class="cls-4" d="M240.21,418.71c-.38,1-.71,1.7-.92,2.44-2,7.19-6.84,11.22-14.16,12.2-3.09.41-6.2,1.25-9.35.55a13.3,13.3,0,0,1-3.62-1.36,26.84,26.84,0,0,1-4-2.92,8.48,8.48,0,0,1-1.65-2.29,16.53,16.53,0,0,0-1.2-2.31c.1,2.88-1.66,5.43-1.17,8.32,0,.16.13.41.07.47-1.77,1.63-.54,3.41-.27,5.14.07.43.1.86.18,1.6a80.5,80.5,0,0,0,20.74.86c0,.22,0,.5-.09.53a22.83,22.83,0,0,0-7,4.43c-2,1.73-4.38,2.11-6.86,2.14-3.42.05-6.83,0-10.46,0-.34,1.14-.64,2.18-1,3.24a96.87,96.87,0,0,0,9.15,4.45,94.26,94.26,0,0,0,9.72,2.45,9.31,9.31,0,0,1-6.84,1.31c-2.84-.51-5.66-1.13-8.49-1.68-.92-.18-1.85-.29-3-.47a14.19,14.19,0,0,0,7.06,5.55c2.11.81,4.27,1.54,6.33,2.47,3.87,1.73,7.88,1.43,11.91,1.08,1.22-.1,2.43-.28,3.66-.37a3.06,3.06,0,0,0,3.05-1.78c.63-1.19,2.47-1.86,3.88-2.5a27.57,27.57,0,0,0,13-12.14,26.43,26.43,0,0,0,1.42-3.66,6,6,0,0,0-.72-5.63c-2.54,3.84-5.69,6.86-10.13,8.25-2.06.65-2.27.64-4.46,0a5.78,5.78,0,0,1,1.21-.94,10.9,10.9,0,0,0,5.66-4.85c1.4-2.53,2.83-5,4.24-7.55a6.82,6.82,0,0,0,.49-5.59c-.62-2.08-1-4.24-1.6-6.34A6.69,6.69,0,0,0,240.21,418.71Z"/><path class="cls-5" d="M126.06,81a6.08,6.08,0,0,0,0,1.54c.73,2.63,2.33,3.35,4.8,2,3.17-1.68,6.3-3.44,9.42-5.23a44.73,44.73,0,0,1,18.37-5.84c2.26-.21,4.47-.79,6.72-1.14,4.23-.67,8.49-1.16,12.68-2A35.23,35.23,0,0,0,185.84,68a11.15,11.15,0,0,0,6.07-7.82,2.69,2.69,0,0,0-3.11-3.42c-5,.9-9.45-.46-14-2.4-5.13-2.21-10.42-4-15.72-5.84-2.89-1-5.77-.41-8.73.53-5.26,1.67-9.19,5.33-13.6,8.3a5.94,5.94,0,0,0-1.31,1.29C130.49,65,126.85,72,126,80.2a4.08,4.08,0,0,0,0,.78Z"/><path class="cls-1" d="M169,23.07c-3.79.61-6.15,2.91-8.37,5.47-2,2.31-4.13,4.52-6.12,6.67-3.26-.1-5.53-2.08-8.33-3l1.93,2.08c-.2.33-.71.77-.64,1.11.6,3.21.86,6.56,2.84,9.34.29.4,1,.55,1.57.71,4.38,1.24,8.82,2.26,13.11,3.72,4,1.36,7.79,3.12,11.62,4.81a21.8,21.8,0,0,0,11.9,1.79c.86-1.63,1.42-3.35,2.51-4.63a9.93,9.93,0,0,1,9.41-3.46c3.27.46,6.15,2,9,3.59a4.15,4.15,0,0,1,1.3,1.24c2.21,3.15,3.34,6.53,2.12,10.38-.21.66-.33,1.35-.5,2.09l2.52,3.18c0-1.31.1-2.1.09-2.89,0-2.11-.12-4.22-.11-6.32a12,12,0,0,1,2-6.71c1.33-2,2.22-2.22,4.5-1.54.41.12.81.3,1.51.56a14.29,14.29,0,0,0-.22-2.32C221,43.1,219.38,37.23,216.22,32a59.41,59.41,0,0,0-6.45-8.26,8.34,8.34,0,0,0-3.4-1.9c-3.61-1.3-7.22-2.67-10.93-3.63-4.94-1.29-9.85-.54-14.7.71a8.31,8.31,0,0,0,.81,5.29c.64,1.48,1.6,1.84,3.18,1.31a46,46,0,0,1,12.62-2.28c1.36-.07,2.71-.22,4.44-.36-.14,1.71-.25,3.05-.38,4.62,3.06,1.55,6.06-.36,9.66-.46l-4.4,5.19c1.65,2,4.32,2.7,6,5.23-1.32.08-2.16.1-3,.19-2.61.27-5.21.57-7.81.84a6.72,6.72,0,0,0-4.11,2.13c-2,2-4.07,3.88-6,5.9a11.43,11.43,0,0,1-7,3.38c-3.72.48-7.25.61-11-1.07-5.13-2.3-6.2-6.35-6.76-11.1a31.45,31.45,0,0,1,1.75-13.44C168.84,24,168.88,23.65,169,23.07Z"/><path class="cls-6" d="M196.51,264.57c.32,2.5.69,5,1,7.49.94,9,.67,18.07.49,27.11-.21,10-2,19.69-4.27,29.33-2.05,8.61-4.48,17.13-6.63,25.72a41.23,41.23,0,0,0-1,7c-.33,4.64-.48,9.28-.7,13.93a8.62,8.62,0,0,0,.78,4.56c.94-1.24,1.7-2.18,2.38-3.17,3.24-4.68,6.25-9.54,9.77-14a14.28,14.28,0,0,0,3-7.07c1-6.66,2.22-13.3,3.28-19.95A48,48,0,0,0,205,330c.44-10.14-.21-20.26-.75-30.38a79.07,79.07,0,0,0-1.7-11.42c-1.07-5.23-2.43-10.41-3.65-15.61-.64-2.7-1.24-5.42-1.87-8.13Z"/><path class="cls-6" d="M250.78,285.12c.51-2.25.08-4.44-.22-6.63-.93-6.8-3.1-13.3-4.63-20-1-4.43-2.43-8.8-2.13-13.45a7.45,7.45,0,0,0-.34-1.49c-1.81,2.25-3.34,4.12-4.83,6a11.63,11.63,0,0,0-.83,1.35c-.69,1.18-1.6,1.57-2.82.77-.88-.57-1.72-1.19-2.61-1.74-.53-.33-1.11-.57-1.93-1,1.28,4.51,2.67,8.54,3.54,12.68,1.21,5.73,2.12,11.53,3,17.33s1.43,11.83,2.32,17.72a149.26,149.26,0,0,1,1.62,24.63c-.07,4,0,8.09-.28,12.12-.22,3.57-.77,7.13-1.16,10.7q-.65,5.86-1.26,11.75a6.26,6.26,0,0,1-.11,1.31c-.92,2.63.43,4.47,2.29,6.49.16-.77.32-1.31.38-1.85a20.66,20.66,0,0,1,2.57-8.48c.65-1.14,1.1-2.39,1.67-3.58a4.53,4.53,0,0,1,2.58-2.46c1.93-.71,2-1,1.88-3.14-.06-1.55.23-3.13.14-4.68-.25-4.54-.6-9.08-.92-13.63-.39-5.59-.73-11.18-1.18-16.77-.19-2.26-.75-4.5-.93-6.76-.8-9.89-3-19.53-5.34-29.13-.9-3.75-2-7.44-1.94-11.33a23.21,23.21,0,0,1,.91-5.4,13.85,13.85,0,0,1,3,6c1.23,4.11,2.16,8.31,3.35,12.44C247.58,278.42,248.58,282,250.78,285.12Z"/><path class="cls-2" d="M237.16,81.88a11.31,11.31,0,0,1-5.4,5.33,2.61,2.61,0,0,1-1.34-3c.32-2.24.73-4.48,1-6.72a17.61,17.61,0,0,0,.07-3.08,41.08,41.08,0,0,0-.38-4.14,39.29,39.29,0,0,0-3.71-10.89,9.69,9.69,0,0,0-1.26-1.64l-.57.57-.08-.09c.42,2.38,1,4.75,1.23,7.15a61.27,61.27,0,0,1-.15,16.73c-.46,2.65-1.34,3.53-4.05,4.08a11.51,11.51,0,0,0-2.28.56c-.58.25-1.34.66-1.52,1.18-1.47,4.23-5,5.1-8.79,5.44a40.2,40.2,0,0,1-12-.29,2.1,2.1,0,0,0-1.62.4c2.31,1.16,4.58,2.4,6.94,3.45a14.15,14.15,0,0,0,3.49.86A3.1,3.1,0,0,0,210.18,96c.24-.47.52-.91.83-1.45A2.7,2.7,0,0,1,212.74,97a7.09,7.09,0,0,0,1.91,3.36,36.4,36.4,0,0,0,7.64,6.37,15.24,15.24,0,0,0,9.48,2.47,9.67,9.67,0,0,0,8.89-6.36c1.4-3.47,3-6.9,3.34-10.72.18-2.17.51-4.36.5-6.53,0-4.84.88-9.53,1.67-14.27a26.84,26.84,0,0,0-1.07-14.19c-.42,3.29-.7,6-1.15,8.78-.84,5-2.13,9.95-5.16,14.21A20.37,20.37,0,0,1,237.07,82Z"/><path class="cls-6" d="M225.59,58.33c-.64-1.12-1.27-2.24-1.92-3.35a11.27,11.27,0,0,0-1.4-2.2c-1.83-1.88-3.94-1.61-5.07.74A11.78,11.78,0,0,0,215.93,58c-.18,5.51-.23,11,1.84,16.33.63,1.63.1,3.71.1,6.26-.78-1.06-1.25-1.61-1.62-2.23-1.83-3.09-3.49-6.3-5.49-9.27A26.35,26.35,0,0,0,204.57,62c-2-1.47-2.2-1.58-5.39-1.85-1.3,2.24-1.12,4.77-.58,7.07a30.72,30.72,0,0,0,4.15,10.45A21,21,0,0,0,208,83.12c.93.65,1.79,1.4,2.73,2.15-.44,1.18-.9,1.33-1.87.49a29.31,29.31,0,0,0-4.54-3.49,10.32,10.32,0,0,0-11.87.63,10.91,10.91,0,0,0-2.79,4,2.47,2.47,0,0,0,.61,2.08A6,6,0,0,0,194,91.25c2.84.44,5.66,1.44,8.51,1.48,4.16.06,8.42.08,12.4-1.65a4.94,4.94,0,0,0,3-3.14,3.12,3.12,0,0,1,2.74-2.39c5.17-1,4.42-.51,5.39-6.12s.35-11.35-.29-17c-.16-1.38-.14-2.78-.2-4.17Z"/><path class="cls-4" d="M151,433.66c.5,3.35.95,6.35,1.44,9.58,2.9,1,5.43,2.79,5.67,6.52,1.94.36,3.75.6,5.5,1a11,11,0,0,1,8.12,9.33c.16,1.36.59,2.67,0,4.13-.47,1.09.43,1.72,1.55,1.88a12.38,12.38,0,0,0,6.87-1.15c1.68-.73,3.25-1.7,4.9-2.51a29.65,29.65,0,0,0,12.85-12c.43-.75.67-1.62,1.08-2.38s.86-2.06,1.63-2.59c2.62-1.77,2.53-4.19,2-6.79-.17-.85-.44-1.67-.73-2.74-.53.31-1,.55-1.48.86-1.44,1-2.91,2-4.29,3-4.14,3.22-8.91,3.9-13.92,3.51-3.58-.28-7.17-.49-10.7-1.07-4-.67-7.85-1.93-9.74-6.18a2.68,2.68,0,0,0-1.55-1.15c-1.82-.61-3.72-1-5.54-1.64A4.37,4.37,0,0,0,151,433.66Z"/><path class="cls-2" d="M169.43,245.91a22.28,22.28,0,0,0-3.3-1.36c-3.42-.82-6.57-3.33-5.61-8.28.55-2.83,1.22-5.65,1.84-8.47.07-.32.11-.64.2-1.21a14.39,14.39,0,0,0-5.07,2.31c-1.1.72-2.15,1.51-3.28,2.18-2.69,1.6-5.23.67-6.25-2.29a5.93,5.93,0,0,0-2.41-3.32,3.37,3.37,0,0,1-1.44-2.92,16.47,16.47,0,0,1,1.49-7.4A96.45,96.45,0,0,0,151.29,196a106.73,106.73,0,0,0,1.36-12.25A90.67,90.67,0,0,0,150,155.94c-.13-.51-.29-1-.45-1.51a6.27,6.27,0,0,0-.51-.74c-.58,2.8-1.19,5.32-1.63,7.88-1.47,8.36-2.88,16.73-4.32,25.1a1.88,1.88,0,0,1-.16.76c-1.37,1.95-.78,4.15-.88,6.28-.24,5.07-.33,10.17-1,15.19a57.86,57.86,0,0,1-2.69,9.88,12.79,12.79,0,0,0-.51,5.89,38.32,38.32,0,0,0,2.66,10.14,5.59,5.59,0,0,0,2.54,2.81,72.89,72.89,0,0,0,17.59,6.79c2.86.75,5.7,1.53,8.55,2.29Z"/><path class="cls-1" d="M251,287.57a25.28,25.28,0,0,1-1.63-2.53,72.65,72.65,0,0,1-5.06-15.72,97.8,97.8,0,0,0-3.16-9.74c-.06-.19-.32-.32-.88-.86a36.34,36.34,0,0,0-.06,6c.56,3.62,1.4,7.2,2.21,10.77,1.81,8.1,3.84,16.15,4.6,24.46.49,5.31,1.39,10.59,2,15.89.32,2.78.41,5.59.57,8.39.26,4.63.64,9.27.68,13.91a41.28,41.28,0,0,0,2.31,13.65,20.64,20.64,0,0,1,1.44,7.44,5.74,5.74,0,0,0,3.08,5.63c1.58.83,2.87,2.29,5.09,2.23-.12-1.05-.17-2-.35-2.9-1.08-5.41-2.29-10.79-3.26-16.22-.79-4.48-1.31-9-1.93-13.51s-1.35-9.19-1.84-13.8c-.55-5.27-1-10.56-1.27-15.86-.13-2.86.33-5.74.48-8.62.14-2.69.2-5.39.35-8.08a58.34,58.34,0,0,0,.41-6,91,91,0,0,0-1.08-10.43c-1.56-9.13-3.3-18.23-5-27.34-.21-1.12-.51-2.22-.77-3.33-2.43.86-3.62,3.15-3.4,6a76.77,76.77,0,0,0,2.58,13.11c1,3.81,2.19,7.58,3,11.43.88,4.37,1.42,8.81,2,13.23a9.12,9.12,0,0,1-.39,2.54Z"/><path class="cls-6" d="M225.65,280.68c-2.58,10.61-4.46,21.25-8.26,31.35a123.85,123.85,0,0,1-8.22,17,40.5,40.5,0,0,0-4.83,14.31c-.86,6-2.3,11.85-3.34,17.8a11.94,11.94,0,0,0,.31,4.1c.82,4.56,1.71,9.12,2.63,13.67a19.68,19.68,0,0,0,1,2.79,7.77,7.77,0,0,0,.79-1.37c.59-2.37,1.07-4.77,1.73-7.12,2.23-7.83,4.47-15.66,6.79-23.47,2.48-8.31,5.06-16.59,7.57-24.89a21,21,0,0,0,.83-3.84c.78-7.94,1.61-15.87,2.22-23.83C225.32,291.7,225.41,286.19,225.65,280.68Z"/><path class="cls-7" d="M215.3,134.82c-2.19,0-4.25,0-6.31,0-3.2,0-4.12-1.08-3.32-4.19,1.19-4.67,2.39-9.32,3.71-13.95a3.62,3.62,0,0,0-.61-3.4c-1.36-2-3.31-3.07-5.7-4.7.49,1.39.82,2.25,1.1,3.13,1,3.06,1.58,6.21,0,9.18-2.23,4.33-5.68,5.12-9.11,1.93a14.57,14.57,0,0,1-2.35-3.13c-1.35-2.24-2.61-4.54-4-7a10.9,10.9,0,0,0-.61,1.67c-.7,4.05-1.49,8.1-2,12.18a41.56,41.56,0,0,0-.3,8.34c.27,3.42,2.08,6.33,4.37,8.82a38.45,38.45,0,0,0,9.46,7.87,21.54,21.54,0,0,0,4.93,1.67,4.13,4.13,0,0,0,4.8-1.88,38.35,38.35,0,0,0,3.45-6.15,70.81,70.81,0,0,0,2.46-8A9.5,9.5,0,0,0,215.3,134.82Z"/><path class="cls-6" d="M169,270.14a18.37,18.37,0,0,0-.32,2.54c.06,3.41.25,6.82.29,10.23.05,4.3.13,8.6,0,12.89q-.32,9.18-1,18.35c-.35,4.88-1.25,9.74-1.35,14.63-.11,5.06-1,10.08-.37,15.19.53,4.34.47,8.75.73,13.12a41.8,41.8,0,0,0,.51,4.16c.54,3.36,1.12,6.72,1.72,10.36a11.14,11.14,0,0,0,1.19-1.4c2.45-4,4.8-8.14,7.33-12.13a7.53,7.53,0,0,0,1.45-5.09,99.64,99.64,0,0,0-2.51-15,79,79,0,0,1-2.43-17.41c-.11-2.51-.32-5-.24-7.53.12-4.11.45-8.21.66-12.32a51,51,0,0,0-.5-12.59c-.81-4-1.63-8.06-2.61-12.06-.5-2-1.35-3.95-2.05-5.93Z"/><path class="cls-5" d="M196.94,62.09a25.7,25.7,0,0,1-2,3.32c-3.38,4.14-6.76,8.29-12,10.24a3.31,3.31,0,0,0-1.11,1c-2.3,2.63-4.51,5.34-6.89,7.9A27.43,27.43,0,0,1,163,92c-5.07,1.62-10.21,3.07-15.34,4.52a9.17,9.17,0,0,1-3.33.34c-2.9-.28-2.89-.35-5.27-2.34a5.4,5.4,0,0,0,.46,4.28c1.69,3.08,4,5.18,7.87,5.16,3.24,0,6.5.33,9.73.16a40.35,40.35,0,0,0,15.41-3.89,8.72,8.72,0,0,1,1.64-.83c3.6-.79,5.86-3.34,8-6,1.11-1.36,2.33-2.63,3.39-4,1.26-1.66,2.38-3.43,3.58-5.14a31.43,31.43,0,0,0,3.15-4.47,101,101,0,0,0,4.51-11.19c.65-2,.44-4.26.62-6.41Z"/><path class="cls-1" d="M124.22,201.82c1.94-4.84,2.16-9.87,1.8-15-.09-1.24-.36-2.42.86-3.51,2.36,1.53,3.39,4,4.11,6.44a23.74,23.74,0,0,1,1.1,7.74,41.19,41.19,0,0,1-1.7,9.52c-1,3.35-2.53,6.52-3.82,9.78-.32.8-.63,1.62-1,2.53,2.92,2.62,6.19,2.37,9.43,2.27a1.94,1.94,0,0,0,1.83-1.61c1.77-5.58,3.86-11.07,3.82-17.08,0-2.8.58-5.61.44-8.39-.39-7.24-2.79-13.65-8.51-18.51a5.24,5.24,0,0,1-1.12-1.7A8.07,8.07,0,0,1,131,173a31.07,31.07,0,0,1-4.32-.4,3.15,3.15,0,0,0-3.44,1.16"/><path class="cls-4" d="M163.06,411.51c-2.35,1.49-2.52,4.38,0,5.64,2.12,1.08,2.52,2.4,2,4.31a4.72,4.72,0,0,0,3.78,1.77,26.23,26.23,0,0,0,7.53-.79,37.84,37.84,0,0,1,6.45-1.12,17.69,17.69,0,0,1,3.26.22,11.92,11.92,0,0,1-4.61,4.7c-3.78,2.37-7.77,4.07-12.4,3.48a5.17,5.17,0,0,0-1.84,0c-.61.14-1.48.35-1.7.8a1.92,1.92,0,0,0,.51,2.36,18.64,18.64,0,0,0,11.74,5.24c2.35.17,4.7.26,7.06.34a15.4,15.4,0,0,0,2.88-.12c2.5-.39,5-.85,7.49-1.28a11.51,11.51,0,0,0,1.55-.32c4.73-1.51,6.73-4.29,6.55-9.27a4.69,4.69,0,0,0-.81-2.13c-1.45-2.39-3-4.71-4.42-7.12a3.47,3.47,0,0,1-.45-2.44c1-3-.38-5.41-1.84-8.11a11.35,11.35,0,0,0-1.34,2.14c-1.12,3.49-3.8,5.41-6.92,6.76-3.36,1.45-6.75,3.12-10.48,3.2-2.83.06-5.8.49-8.49-.71C165.36,417.65,163.74,414.88,163.06,411.51Z"/><path class="cls-8" d="M279.36,109.51a5.62,5.62,0,0,0-1.46-.06,20.73,20.73,0,0,0-9.42,4.36c-3.58,3.13-7.58,5.74-12.45,6.36-3,.38-6.1.63-9.35-.61a6,6,0,0,1,.31-1.89,23.08,23.08,0,0,1,2.52-4c1.64-1.94,3.45-3.74,5.25-5.55a11.53,11.53,0,0,1,7.07-3.71,15.78,15.78,0,0,0,2.64-.75l-.06-.55c-.9,0-1.8-.07-2.69,0a37.84,37.84,0,0,0-11.15,2.76,42.8,42.8,0,0,0-8.37,4.32,81.16,81.16,0,0,1-7.09,4.46,14.43,14.43,0,0,1-7.8,2c-1.11,0-2.31-.17-3.16,1.45a36.54,36.54,0,0,0,2.74,2.87c3.83,3.3,8.52,4.74,13.29,6s9.53,2.24,14.52,1.92c8.5-.54,14.77-4.57,18.88-11.92,1.48-2.64,3-5.15,5.59-6.81C279.28,110.09,279.27,109.85,279.36,109.51Z"/><path class="cls-8" d="M202.33,10.26a1.36,1.36,0,0,1-.51-.1c-5.06-3.67-11-4.4-16.91-4.56a21.43,21.43,0,0,0-11.36,2.72c-1.51.87-3.22,1.4-4.72,2.29-3.81,2.29-6.06,6-8.37,9.62s-3.45,7.44-5,11.24a5.31,5.31,0,0,0-.08,1.17c.74-.64,1.3-1.07,1.8-1.55s1.1-1.14,1.63-1.72c1.23-1.37,2.37-2.83,3.71-4.08a10.7,10.7,0,0,1,3.25-2.17c4.38-1.74,8.72-3.77,13.27-4.84,7-1.64,14.18-2.4,21.17.53,3.14,1.32,6.34,2.48,9.45,3.86a6.34,6.34,0,0,1,2.36,2c2.13,2.88,4.79,5.4,6.08,8.85.11.3.43.52.84,1-.28-3.67-1.8-6.59-3.36-9.51a35.06,35.06,0,0,0-11.38-12.84,13.74,13.74,0,0,1-2-2Z"/><path class="cls-7" d="M202.12,9.82c2.34,1.62,4.74,3.17,7,4.9a23,23,0,0,1,2.81,3.15c.07-.93.18-1.2.09-1.32-3.24-4.46-7.11-8.43-12.09-10.65a51.47,51.47,0,0,0-16.41-4.39,72.62,72.62,0,0,0-12.07-.11,39.55,39.55,0,0,0-12.27,2.69,34.92,34.92,0,0,0-7.06,4,6.43,6.43,0,0,0-2,3.59c-1.58,7.22-1.08,14.26,2.47,20.9a8.9,8.9,0,0,0,1.24,1.4c.92-2.43,1.82-4.59,2.57-6.81a40.09,40.09,0,0,1,7.74-13.63c3.74-4.32,8.83-6.5,14.21-8,1.68-.46,3.47-.5,5.17-.88a17.29,17.29,0,0,1,7.77.51c2,.48,4.08,1,6.13,1.42a6.53,6.53,0,0,1,4.77,3.29Z"/><path class="cls-8" d="M296.49,126.06c-1.36-.08-2.79-.48-4.07-.19-4.79,1.06-9.55,2.26-13.91,4.63a7.83,7.83,0,0,0-2.17,1.47c-3.37,3.78-7.83,5.87-12.25,8-3,1.48-6.24,2.69-9.42,4.05a7.37,7.37,0,0,0,3.06,5,82,82,0,0,0,8.3,5c2.72,1.48,5.86,1.33,8.68,1,3.68-.48,7.25-1.89,10.81-3.05a5.79,5.79,0,0,0,2.6-2.16c-1.32.09-2.64.23-4,.26-5.55.13-7.43-5.19-6.27-8.91a13.88,13.88,0,0,1,6.34-8.08c2.93-1.74,5.7-3.76,9.17-4.45,1.12-.23,2.1-1.16,3.14-1.77Z"/><path class="cls-2" d="M253.53,161.27a26.16,26.16,0,0,1-2.68-1.25c-1.93-1.19-3.86-2.37-5.69-3.69-2.53-1.84-5-3.81-7.63-5.87-2.72,4.73-5.21,9.13-6.13,14.18-.61,3.35-1.07,6.73-1.36,10.12-.25,2.8.68,4.62,2.68,5.07a8.26,8.26,0,0,0,4.33-.19,24.71,24.71,0,0,0,11.86-8.74C251.05,168.08,252.16,164.73,253.53,161.27Z"/><path class="cls-5" d="M133.87,430.34c5.44,1.1,6.58,3.34,4.16,8,4.88,1.54,7.23,5.45,8.94,9.85a3.14,3.14,0,0,0,1.92,2.22,6,6,0,0,1,2.21,1.4c2.71,2.8,5.93,5.09,8.13,8.41,1.83,2.77,2,3.42,1,7.82.55-.1,1-.17,1.49-.27a9.19,9.19,0,0,1,4.88-.24,2.26,2.26,0,0,0,2.87-1.22,8.74,8.74,0,0,0,1.26-6.23c-1.08-5.26-3.48-8.85-11.29-9-1.37,0-2.25-.5-2.47-1.78-.51-2.88-2.29-4.41-5-5.08-1-.26-1.28-.9-1.22-2a27.89,27.89,0,0,0-.15-5.17,3.49,3.49,0,0,0-2.11-3c-1.14-.54-1.82-2-2.82-2.93-2.48-2.3-7.78-3.36-11.06-1.65C134.39,429.66,134.26,429.91,133.87,430.34Z"/><path class="cls-5" d="M200.34,484.64a11.71,11.71,0,0,0-5.94-5.27c-2.22-.8-4.49-1.48-6.77-2.07-2.7-.71-4.16-2.63-5.67-5.12a6.88,6.88,0,0,1,1.71-.28c5.21.66,10.26,1.66,15,4.18,5.33,2.8,11.24,3.09,17.18,2.51a1.87,1.87,0,0,0,.7-.33,3.48,3.48,0,0,0,.42-.4c-3.72-1.18-7.43-2.17-11-3.53-5-1.89-9.46-4.64-12.23-9.44-.9-1.57-1.49-3.33-2.31-5.18-2.45,1.44-5,2.82-7.34,4.36a3.42,3.42,0,0,0-1.38,2.09c-.36,2.55-2,3.8-4.19,4.56-1.81.62-3.66,1.14-6,1.85a17.34,17.34,0,0,1,3,1.47,8.36,8.36,0,0,1,2.87,4.3,9.48,9.48,0,0,0,5.6,6.13c3.5,1.57,6.93,2.23,10.68,1.08A43.72,43.72,0,0,1,200.34,484.64Z"/><path class="cls-9" d="M180.62,76.5a10.47,10.47,0,0,0-1.47.19c-6.21,1.88-12.71,2.22-19,3.53-1.27.26-2.56.51-3.84.71-3.11.5-6.21,1-9.32,1.43a2.81,2.81,0,0,0-2.34,1.43c-1.46,2.78-3,5.54-4.23,8.42-.72,1.66-.08,2.74,1.71,3.11a13.26,13.26,0,0,0,4.69.27,58.71,58.71,0,0,0,7.13-1.72c2.61-.74,5.18-1.61,7.77-2.4,7.81-2.4,13.41-7.72,18.4-13.86A5.82,5.82,0,0,0,180.62,76.5Z"/><path class="cls-7" d="M179.09,19.81c-2.5,2.49-3.29,5.49-4.84,8.54l-3.93-4.44a12.28,12.28,0,0,0-1.87,4.75c-.91,4.18-.36,8.37.07,12.54a5.84,5.84,0,0,0,1.34,2.8c2.52,3.1,5.55,5.45,9.79,5.24a53.45,53.45,0,0,0,7-1,9.57,9.57,0,0,0,4.88-3c2-2,4.1-4.08,6.19-6.08a23.91,23.91,0,0,1,2.08-1.58,5.27,5.27,0,0,0-4.77,1.8,20,20,0,0,1-10.51,6.16,29.86,29.86,0,0,1-7.75.35,15.47,15.47,0,0,1-3.56-.87c-.6-2.08-1-3.79-1.59-5.41-1.33-3.49,0-6.15,2.47-8.46a14.56,14.56,0,0,1,6.73-3.4,2.62,2.62,0,0,1,1.29-.09A92.26,92.26,0,0,1,190.94,31a47.2,47.2,0,0,1,8.39,4.85c2.25,1.69,4.35,1.58,6.77.94a22.06,22.06,0,0,0,3.5-.72L206.77,34c-1.3-.95-1.4-1.53-.38-2.76.67-.79,1.4-1.53,2.46-2.68-1.08.1-1.71.13-2.33.21s-1.2.26-1.8.31c-4.17.37-4.62-.1-4.12-4.17,0-.26,0-.52,0-.92-2.73-.56-5.4.17-8,.59a62.15,62.15,0,0,0-8.07,2.19c-1.69.52-3.59-.58-4.33-2.78C179.77,22.75,179.52,21.48,179.09,19.81Z"/><path class="cls-2" d="M236.07,149.76c-4.38-4.82-8.94-9.54-12.07-15.79-2.24,5.28-4.32,10.14-6.36,15-.81,1.94-1.59,3.89-2.31,5.86a38.39,38.39,0,0,0-1.41,4.5c-.72,3.18.38,4.45,3.68,4.8a12.08,12.08,0,0,0,8.55-2.76C230.24,158.38,234.07,155,236.07,149.76Z"/><path class="cls-4" d="M128.5,460l1.91-2.16A19.15,19.15,0,0,1,133,455c2.42-1.79,5-1,7.42.07a5.78,5.78,0,0,1,3.69,5.84c-.13,3-1.82,4.68-4.83,4.7-2,0-4-.06-6,0a7.47,7.47,0,0,0-1.7.44c.86,4.2,3.17,6.59,7,7.28a15.89,15.89,0,0,0,8.52-.9c2-.75,3.18-2.36,4.27-4.1a34.32,34.32,0,0,1,2.61-3.51,5,5,0,0,0,1.23-4.86c-1.47-5-4.5-8.39-9.68-9.6a6.16,6.16,0,0,0-2.34-.11c-4.42.82-8.69,2.06-12.41,4.72A5,5,0,0,0,128.5,460Z"/><path class="cls-7" d="M146.22,113.3c-.3,1.42-.62,2.84-.91,4.26a19.54,19.54,0,0,1-5.07,9.33,3.25,3.25,0,0,1-5.6-1.53c-.29-1.07-.49-2.15-.81-3.62a9.59,9.59,0,0,0-1.32,1.46,12.72,12.72,0,0,0-1.53,6.58c.09,2.62.36,5.23.54,7.85.23,3.49.44,7,.68,10.47.05.8.21,1.6.32,2.4l.63.2c1-1.23,2.16-2.42,3.16-3.69,1.9-2.4,3.86-4.76,5.58-7.28a28.45,28.45,0,0,0,5.38-15.12c.13-3.74-.16-7.49-.26-11.24Z"/><path class="cls-3" d="M133.32,84.85c3.61-1,7.2-2,10.83-2.94,1.84-.46,3.76-.62,5.63-1,9.48-1.66,19-3.27,28.42-5a24.81,24.81,0,0,0,6.21-2.08c4.28-2.1,7.31-5.66,9.94-9.51a38.64,38.64,0,0,0,3-5.82c.78-1.73.25-3-1.47-3.44s-3.27-.48-4.64.85c2.09,2.37,2.35,4.08.93,6.91a13.26,13.26,0,0,1-8.11,7,84,84,0,0,1-14.88,3.06c-5.71.76-11.42,1.71-17.07,2.84A32,32,0,0,0,145,78.31c-4,1.91-7.93,4.06-11.89,6.1Z"/><path class="cls-10" d="M225.88,248.74c-11.14,1.15-21.79.08-32.66.52a7.85,7.85,0,0,0,4.23,4.14,12.11,12.11,0,0,1,5.81,5.07,24.54,24.54,0,0,0,3.49,4.24c1.95,1.88,3.72,1.83,5.37-.26a35.05,35.05,0,0,1,6.35-5.82,37.43,37.43,0,0,0,4.27-4.52Z"/><path class="cls-2" d="M206.71,133.43c5.68,1.32,10.79,0,15.86-2.57-.84-2.22-1.71-4.31-2.41-6.45a19.67,19.67,0,0,1-1.41-5.57c-.1-4.72-2.3-8.55-4.52-12.47C212.37,108.25,206.54,129.08,206.71,133.43Z"/><path class="cls-10" d="M238.26,203.39a35.76,35.76,0,0,0,3.94.9c3.45.36,4.87,1.74,6.15,5.09,1.69,4.47,1.13,9,.64,13.46-.21,1.91-.61,3.8.54,5.87,1.69-7.84,3.65-15.38,3.24-23.24a43.57,43.57,0,0,0-2.12-11,42.64,42.64,0,0,1-1.51-8.2c-.31-2.77-.3-5.58-.39-8.38,0-1.56,0-3.12,0-4.77-1.83.7-2.5,2.76-4.11,4,3.46,1.64,4.18,3.22,3.1,6.56-.87,2.66-1.88,5.28-2.66,8-.91,3.14-3.26,5.37-4.8,8.1C239.68,200.75,239.11,201.82,238.26,203.39Z"/><path class="cls-2" d="M249.71,377.92c.95-3.34,1.74-6.45,2.71-9.51,1.84-5.79.84-11.36-1.09-16.89-.42-1.21-.75-2.47-1.11-3.67-2.78.42-4.45,1.77-5.09,4.39a10.47,10.47,0,0,1-1.26,2.28c-1.76,3.14-1.91,6.68-2.46,10.11a4.25,4.25,0,0,0,.6,2.2c.86,1.92,1.71,3.85,2.73,5.67C245.92,374.59,247.17,376.67,249.71,377.92Z"/><path class="cls-7" d="M297,128.29c-4.37,1.84-8.91,3.17-12.75,6.05a13.67,13.67,0,0,0-5.3,7c-1,3.21.38,6.4,3.21,7.38a7.48,7.48,0,0,0,2.83.3c3.87-.23,7.14-1.8,8.39-5.58,1.56-4.69,2.53-9.58,3.73-14.39A1.86,1.86,0,0,0,297,128.29Z"/><path class="cls-5" d="M184.41,422.27a17.14,17.14,0,0,0-7.29,1,22,22,0,0,1-8.56,1c-2.95-.18-3.94-1.08-4.38-4-.2-1.31-.2-1.31-2.35-2.21.31,1.84.95,3.72.85,5.56s-1,3.7-1.4,5.56a3.4,3.4,0,0,0,0,1.82,42.31,42.31,0,0,0,2.76,6.77,6.24,6.24,0,0,0,3.34,2.36,42.51,42.51,0,0,0,7.15,1.61c3.11.47,6.25.82,9.39,1,4.65.29,8.72-1.22,12.75-4.64-2.85.44-5.11.9-7.4,1.11a54.21,54.21,0,0,1-6,.11A61.2,61.2,0,0,1,176,439a18.28,18.28,0,0,1-10.57-5.28,3.24,3.24,0,0,1-.87-3.62c.53-1.43,1.79-1.52,3.07-1.44.61,0,1.22.17,1.83.24a12.14,12.14,0,0,0,6.68-.89c2.75-1.31,5.61-2.46,7.74-4.79A7.64,7.64,0,0,0,184.41,422.27Z"/><path class="cls-7" d="M247.67,118.73c6,1.29,11.2.47,16-2.64,1.76-1.14,3.22-2.74,5-3.83,2.16-1.3,4.51-2.28,6.78-3.38a15.5,15.5,0,0,1,1.74-.59c-3.2-1.42-6.08-2.71-9-4a1.91,1.91,0,0,0-1-.11c-5.59.8-10.74,2.47-14.37,7.2-1.28,1.66-2.69,3.21-3.95,4.88A14.25,14.25,0,0,0,247.67,118.73Z"/><path class="cls-6" d="M237.07,82c.61-1.22,1.16-2.48,1.86-3.64,2.64-4.38,3.67-9.24,4.4-14.2.22-1.47.35-2.95.49-4.43a5.15,5.15,0,0,0-1.18-4,9.58,9.58,0,0,0-5.08,3.91,31.66,31.66,0,0,0-4.38,9.17c-1.31,5-1,10.23-1.86,15.29a7.64,7.64,0,0,0,.22,1.93c1.79-.49,2.71-1.79,3.84-2.81a19,19,0,0,1,1.78-1.32Z"/><path class="cls-10" d="M187.84,249.52c-12.18.63-23.68-2.66-35.13-6.26l-.16.57c2.8,1.22,5.54,2.6,8.41,3.59a6.67,6.67,0,0,1,4,3.46c1.18,2.35,2.28,4.74,3.42,7.11a12.61,12.61,0,0,0,.85,1.63c1.32,1.95,2.46,2.14,4.32.65,2.19-1.74,4.31-3.58,6.5-5.32,2.6-2,2.75-2,5.58-.41.46.26.91.54,1.38.77a2.94,2.94,0,0,0,.78.06Z"/><path class="cls-4" d="M145.87,449.13c-1.53-6.32-5.21-9.27-9.07-9.78a22,22,0,0,0-8.75,1c-1.4.39-2,1.62-2.48,3,.87.87,2,.48,3,.45a3.89,3.89,0,0,1,3.93,2.15,5.16,5.16,0,0,1-.54,5.25,3.28,3.28,0,0,1-3,1.16,31,31,0,0,0-4.72.07c-2,.21-2.37.86-2.1,2.83a3.84,3.84,0,0,0,1.87,3c.83.48,1.7.89,2.69,1.41.31-.72.59-1.34.83-2,1.11-2.86,3.59-4.18,6.13-5.43A28.93,28.93,0,0,1,145.87,449.13Z"/><path class="cls-9" d="M181,498.16c2.76-.36,4.54.68,6.33,2.1,2.12,1.68,4.42,3.06,7.41,2.83a6.65,6.65,0,0,0,6.35-4.9,4.53,4.53,0,0,0-1.47-4.78c-3.13-2.71-6.55-4.76-11-2.77-.87.39-1.88.45-2.77.81C183.07,492.62,181.5,494.73,181,498.16Z"/><path class="cls-2" d="M271.31,163.66c-5.69,1.25-11.05-.56-16.71-1.78.17,1.91.25,3.62.5,5.31q.45,3,1.16,5.91a10.64,10.64,0,0,0,1.17,2.86,1.8,1.8,0,0,0,2.73.61c3.41-2.15,6.63-4.55,8.9-8,.95-1.44,1.74-3,2.6-4.48Z"/><path class="cls-11" d="M195.2,384.08c-.23,7,1.05,14-.52,20.64,2.87,3.23,4.95,6.46,4.09,10.75a3.7,3.7,0,0,0,.41,2.72c1.26,2.31,2.41,4.68,4.52,6.54,1.26-2.37,2.21-4.66,1.16-7.43-1.15-3-2.11-6.13-3-9.24-1.31-4.45-2.5-8.93-3.73-13.4C197.13,391.13,196.17,387.6,195.2,384.08Z"/><path class="cls-5" d="M158.91,498.24c.71,6.1,3.5,10.18,8.44,12.76,5.47,2.84,10.2,1.81,14.91-1.47-.08-2.95-.15-5.69-.23-8.49-.67.55-1.49,1.17-2.26,1.86a11.65,11.65,0,0,1-9.19,3.09c-2.61-.25-4.61-2-6.63-3.53C162.35,501.26,160.87,499.89,158.91,498.24Z"/><path class="cls-10" d="M122.65,214c1,.8,1.49,2.37,2.26,3.7a17.22,17.22,0,0,0,1.12-1.95c2.9-6.87,5.78-13.73,5-21.49a16,16,0,0,0-3.8-8.71"/><path class="cls-8" d="M151.7,33c-1.61-3.51-3.19-7.08-3.24-11s.29-7.63.45-11.32c-3.84,2.15-10.18,11.73-10.74,16.64,3.3-.91,5.18,1.77,7.65,3,1.85.92,3.57,2.1,5.35,3.17Z"/><path class="cls-6" d="M140.8,356.93c.29,6-.49,12.13,2.27,17.8.06-13.06,2.28-26,2.27-39-4.74,10.23-8.72,20.84-10.13,32.32.47-1.2,1-2.39,1.42-3.6.5-1.4.88-2.84,1.47-4.2s1.28-2.39,1.94-3.58Z"/><path class="cls-4" d="M152.09,46.62c-1,0-2-.18-3.05-.14a20.19,20.19,0,0,0-16.57,8.66c-3.53,4.85-4.85,10.43-6.09,16.09-.14.68-.27,1.36-.39,2,0,0,.11.13.27.33a60.28,60.28,0,0,1,2.46-6c2.86-5.32,5.94-10.32,11.28-13.87a76.66,76.66,0,0,1,12.21-6.45Z"/><path class="cls-4" d="M190.41,54.87c2.79-1.17,5-1.49,7.28-.13a2.28,2.28,0,0,0,1.74,0c3.93-1.54,9.07,1.5,10.48,4.89.4,1,1,1.83,1.49,2.86,1.66-4.08-.12-9.33-3.77-11.15A50.68,50.68,0,0,0,201.79,49c-3.16-1.14-6.07-.19-8.79,1.37C191.56,51.2,191.09,52.79,190.41,54.87Z"/><path class="cls-9" d="M129,465c2.08-.21,4-.48,5.85-.57a21.61,21.61,0,0,1,4.18.17c3.09.45,5.2-3.59,3.56-6.36a5.36,5.36,0,0,0-5.77-2.69c-.81.13-1.65.08-2.47.16a1.52,1.52,0,0,0-.94.32C131.19,458.5,128.35,460.71,129,465Z"/><path class="cls-2" d="M175.09,36.47c.4,1.78.74,3.57,1.22,5.33A4.2,4.2,0,0,0,180.54,45,8.52,8.52,0,0,0,190,36.52c.12-4.48-.68-5.6-5-6.81a12.39,12.39,0,0,0-2.83-.46C177.61,29.06,174.71,31.37,175.09,36.47Zm2.48-2.16h-.18a4.51,4.51,0,0,1,0-.52,4.46,4.46,0,0,1,2.47-3.18c1.07-.69,1.74,0,2.52.64.52.41,1.3.47,1.85.86a10.5,10.5,0,0,1,2.28,2c1.57,2,.33,4,0,6a3.2,3.2,0,0,1-2.61,2.61,5.23,5.23,0,0,1-6.51-5C177.43,36.56,177.51,35.44,177.57,34.31Z"/><path class="cls-9" d="M147.66,481.34a8.48,8.48,0,0,1,.66-1.32,1.75,1.75,0,0,1,2.56-.36c.83.5,1.64,1,2.51,1.44,2.33,1.11,3.34.87,5-1.13a4.57,4.57,0,0,0,.46-5.73c-1.83-2.56-4.69-3.25-7.69-1.64a9.69,9.69,0,0,0-4.55,5.26C146.27,478.82,146.11,479.93,147.66,481.34Z"/><path class="cls-7" d="M245.77,86.62c-.36,2.73-.71,5.32-1.09,8.11,4.55,3.93,10,4.54,15.93,3.94-.86-1.47-5-4.74-7.33-6.35C250.68,90.55,248.27,88.53,245.77,86.62Z"/><path class="cls-1" d="M144.84,110.59c-2.6,2.46-5.2,4.91-7.79,7.39-1.91,1.83-2.13,4.12-1.69,6.57a2.48,2.48,0,0,0,1.94,2.23c1.06.23,1.73-.34,2.46-1.1,4-4.18,5.23-9.33,5.64-14.81Z"/><path class="cls-5" d="M204,442a6.27,6.27,0,0,1-3.47,4.81l.32.51c1.52.09,3,.24,4.56.24,2.37,0,4.74,0,7.1-.18,3.26-.25,5.4-2.45,8-4.87Z"/><path class="cls-5" d="M243.82,462.46c1.86-1.82,3.73-3.63,5.56-5.47a25,25,0,0,0,2.62-2.94c1.27-1.77,2.18-3.63.55-5.75a13.12,13.12,0,0,1-1.07-2.34c-.84,4.94-4,8-6.66,11.29s-6.77,4.86-10.58,7.12a4,4,0,0,0,3.65.34c1.56-.53,3.05-1.27,4.58-1.9.47-.19,1-.3,1.44-.45Z"/><path class="cls-7" d="M137,33.58c3.66,1,3.76,1.06,5.32,4.9.92,2.25,1.65,4.59,2.52,7.07l3.07-.3c-.58-4.2-.32-8.37-2.69-12S139.18,29.87,137,33.58Z"/><path class="cls-12" d="M194,406.3c-.23.09-.53.13-.66.29a41.24,41.24,0,0,1-9.53,8.21,16.62,16.62,0,0,1-5.6,2c-3,.7-6.07,1-9-.41-1.38-.66-2.69-1.46-3.8-2.07.75,2.79,2.53,4.27,5.67,4.32a46.2,46.2,0,0,0,7.81-.11,24,24,0,0,0,11.5-4.8c2.3-1.86,3.37-4.43,4.26-7.07Z"/><path class="cls-9" d="M120.09,452.32c3-1.09,5.66-1.91,8.6-1.18a2.06,2.06,0,0,0,2.66-1.55c.9-3.18.26-4.58-2.95-5a7.87,7.87,0,0,0-7.54,2.83A4.18,4.18,0,0,0,120.09,452.32Z"/><path class="cls-9" d="M126.41,437.4a33,33,0,0,0,3.83-.58,6.48,6.48,0,0,1,4.08.28c2.2.81,2.94.6,3.47-.82a3.7,3.7,0,0,0-1.88-4.6C132.16,430.22,127.23,433.1,126.41,437.4Z"/><path class="cls-5" d="M156.45,459.09c0,.78,0,1.45,0,2.11a5.9,5.9,0,0,1-1.81,4.67,42.13,42.13,0,0,0-3.61,5.19l5.48-.5C161.36,465.88,160.79,463,156.45,459.09Z"/><path class="cls-5" d="M149.62,490c.82,5,3.83,7.43,7.94,9.16.58-2.79,1.16-5.52,1.8-8.59C156,492.74,152.89,492,149.62,490Z"/><path class="cls-5" d="M248.18,431.82c-1.38,6.12-4.5,11.25-8.76,16.06a5.23,5.23,0,0,0,1-.18,16,16,0,0,0,9.46-10.87A4.39,4.39,0,0,0,248.18,431.82Z"/><path class="cls-2" d="M193.82,80h8.77l-4.67-10.23Z"/><path class="cls-12" d="M211.25,430.12c2.26,3.12,5.56,3.26,8.93,3,2-.14,4-.51,6-.79a13.08,13.08,0,0,0,8.17-4.3c.1-.11.08-.33.18-.84-7.56,3.48-15.09,6.29-23.31,3Z"/><path class="cls-5" d="M196.42,454.92a23,23,0,0,1,2.48.61c1.36.49,2.66,1.23,4,1.61,2.6.71,5.24,1.27,7.88,1.82a6.91,6.91,0,0,0,3.13,0c-2.68-1-5.41-1.82-8-2.9s-5.36-2.44-8.32-3.8c-.44,1.08-.78,1.91-1.13,2.75Z"/><path class="cls-10" d="M218.5,105.62c-2.56-2.77-5.94-4.76-7.05-8.68l-5.58,2.34A119.15,119.15,0,0,0,218.5,105.62Z"/><path class="cls-10" d="M236.19,251.38l5-7-10.57,3.31Z"/><path class="cls-11" d="M190.22,42.05l7.33-6-6.36-3.63C192.13,35.74,191.32,38.65,190.22,42.05Z"/><path class="cls-2" d="M203.94,60c5.88,4.18,8.73,10.72,12.65,16.66C217.35,71.66,208.69,61.41,203.94,60Z"/><path class="cls-10" d="M132.6,166.05c.1.63.21,1.26.32,1.88a25.67,25.67,0,0,1,.79,4.85,5.45,5.45,0,0,0,1.93,4.58c.5.44.93,1,1.78,1.9a36.45,36.45,0,0,0-4.25-13.35Z"/><path class="cls-5" d="M209.56,61.79a8.07,8.07,0,0,0-4.66-5.66,10.75,10.75,0,0,0-4.29-.62,1.4,1.4,0,0,0-1.49,1.64,33.21,33.21,0,0,1,5.43,1.4A37.72,37.72,0,0,1,209.56,61.79Z"/><path class="cls-1" d="M170.87,21.81c.87,1.88,1.33,3.38,2.95,4.33L177,20.43,176.7,20Z"/><path class="cls-8" d="M143,44.88c-.31-4.93-2.43-9.13-5.1-9.89Z"/><path class="cls-1" d="M135.84,32c4-2.62,4-2.62,7.22-2-1.57-1.77-3.35-2.16-5.71-1.39Z"/><path class="cls-11" d="M174.09,42.4c-.33-2.56-.67-5.12-1-8C171.23,37.53,173.36,39.89,174.09,42.4Z"/><path class="cls-11" d="M128.11,439l4.46-.56-.07-.52-4.47.52Z"/><path class="cls-12" d="M211.2,430.17l-3.34-3.32c.32,2,1.88,2.61,3.39,3.27Z"/><path class="cls-9" d="M141.37,85.72c1.67,0,1.45-1.58,1.82-2.65l-1.83,2.66Z"/><path class="cls-10" d="M196.43,262l-.42-2-.48.12.6,2Z"/><path class="cls-9" d="M141.36,85.73c-.26.77-.53,1.53-.82,2.38,1.35-.5.76-1.55.83-2.39Z"/><path d="M170.52,111c0,2.88-.06,5.75,0,8.62a25.59,25.59,0,0,1-1.43,9.31,8.58,8.58,0,0,1-1,2.12,3.91,3.91,0,0,1-6.49.4c-2-2.2-2.08-4.9-2-7.67.07-1.82,0-3.65,0-5.47s-.18-3.7,1.09-5.29c.26-.32.22-.87-.11-1.53a11,11,0,0,0-1.41,1.73c-2.08,4-4.07,7.94-6.16,11.89-3.85,7.26-2.6,14.06,1.85,20.51,2,2.88,4.17,5.64,6.39,8.34a5.86,5.86,0,0,0,8.81.52,47.31,47.31,0,0,0,9-10.59,21.22,21.22,0,0,0-.68-22.89c-1.75-2.52-3.35-5.13-5.06-7.68-.61-.91-1.34-1.75-2-2.62Zm1.57,2.57c2.39,3.71,4.76,7,6.71,10.47,3.49,6.28,2.88,12.73-.24,18.9-2.16,4.25-5.6,7.62-9.09,10.85a6.52,6.52,0,0,1-2.76,1.33,4.35,4.35,0,0,1-4.66-1.73c-2.54-3.24-5.33-6.34-7.45-9.84-3.48-5.74-4.1-11.85-.75-18,1.12-2.08,2.13-4.23,3.23-6.32a16.47,16.47,0,0,1,1.28-1.8,13.14,13.14,0,0,1,.62,5.42c0,2.62-.41,5.28.84,7.76a5.45,5.45,0,0,0,4.9,3.42c2.41.06,3.82-1.49,4.91-3.4a5.87,5.87,0,0,0,.46-1.23,29.47,29.47,0,0,0,1.18-9.85C171.2,117.69,170.7,115.7,172.09,113.57Z"/><path d="M241.39,474.05,237,475a5.19,5.19,0,0,0,4.32-1Z"/><path d="M177.57,34.31c-.06,1.13-.14,2.25-.16,3.37a5.23,5.23,0,0,0,6.51,5,3.2,3.2,0,0,0,2.61-2.61c.32-2,1.56-4,0-6a10.5,10.5,0,0,0-2.28-2c-.55-.39-1.33-.45-1.85-.86-.78-.61-1.45-1.33-2.52-.64a4.46,4.46,0,0,0-2.47,3.18,4.51,4.51,0,0,0,0,.52Zm5.54-1c.41.35,1,.8,1.56,1.34A3.61,3.61,0,0,1,183,40.85c-.68.18-1.8.22-2.14-.17-1.19-1.36-2.49-2.82-1.79-4.45Zm-1.56-.91c-1.23,2.16-1.23,2.16-3,1.4C179.31,31.64,179.62,31.48,181.55,32.44Z"/><path class="cls-7" d="M172.09,113.57c-1.39,2.13-.89,4.12-.82,6a29.47,29.47,0,0,1-1.18,9.85,5.87,5.87,0,0,1-.46,1.23c-1.09,1.91-2.5,3.46-4.91,3.4a5.45,5.45,0,0,1-4.9-3.42c-1.25-2.48-.89-5.14-.84-7.76a13.14,13.14,0,0,0-.62-5.42,16.47,16.47,0,0,0-1.28,1.8c-1.1,2.09-2.11,4.24-3.23,6.32-3.35,6.16-2.73,12.27.75,18,2.12,3.5,4.91,6.6,7.45,9.84a4.35,4.35,0,0,0,4.66,1.73,6.52,6.52,0,0,0,2.76-1.33c3.49-3.23,6.93-6.6,9.09-10.85,3.12-6.17,3.73-12.62.24-18.9C176.85,120.54,174.48,117.28,172.09,113.57Z"/><path class="cls-9" d="M183.11,33.35l-4.06,2.88c-.7,1.63.6,3.09,1.79,4.45.34.39,1.46.35,2.14.17a3.61,3.61,0,0,0,1.69-6.16C184.14,34.15,183.52,33.7,183.11,33.35Z"/><path class="cls-11" d="M181.55,32.44c-1.93-1-2.24-.8-3,1.4C180.32,34.6,180.32,34.6,181.55,32.44Z"/><path d="M62.37,90.26c-2.47-1.15-4.13-.15-5.76,1.62a15.83,15.83,0,0,1-2.7,1.93c-1.22-2-2.29-3.65-3.36-5.34A37.28,37.28,0,0,0,35,74.34a11.46,11.46,0,0,0-4-1c-2.12-.15-3,.61-2.89,2.74a33.25,33.25,0,0,0,1.37,6.09,9.16,9.16,0,0,1,.62,2.39c-.84-.64-1.69-1.26-2.52-1.9a18.19,18.19,0,0,0-8.24-3.84c-2.75-.45-5.5-.9-8.27-1.27A4.86,4.86,0,0,0,9,77.78c-2.66.85-3.59,2.66-2.12,5a83.92,83.92,0,0,0,5.71,7.51c.52.67,1.14,1.28,2,2.26a8.3,8.3,0,0,1-1.56,0c-3.35-1-6.62-.22-9.82.63S-1,97.9,1,100.74a23.33,23.33,0,0,0,3.54,3.48,17.27,17.27,0,0,0,1.68,1.21c-2.55,2.12-2.71,4.27-.36,6.77,1.86,2,3.92,3.76,6,5.56a21.37,21.37,0,0,0,7,4.17,40.14,40.14,0,0,1,5.21,2.5,50.52,50.52,0,0,0,12.34,4.2,31.37,31.37,0,0,0,4.86,1.2c.82.07,1.66,1.19,2.29,2,2.53,3.21,4.19,3.64,7.43,1.36,1.83-1.29,3.52-.83,5.21-.12a2.79,2.79,0,0,1,1.21,1.87c.71,4.15,4.85,6.28,9.23,5.91"/><path d="M23.22,109.82a60.82,60.82,0,0,0-7-1.82,23.76,23.76,0,0,1-8.85-3.12c-2-1.19-4.06-2.47-5.35-4.58C1.31,99.2.78,98.12,1.69,97a25.44,25.44,0,0,0,4.24-.25,8.2,8.2,0,0,1,5.39.5c3.72,1.71,8,2,11.31,4.77,1.74,1.42,2.8.84,4.16-1.46-1.18-1.89-3.08-3-4.9-4.19s-4.11-2.11-5.72-3.62a100.47,100.47,0,0,1-7-7.83,6,6,0,0,1-1.21-2,3.89,3.89,0,0,1-.19-2.45c.42-1,1.55-.61,2.35-.41a28.13,28.13,0,0,1,10.6,5c3.67,2.86,7.39,5.65,10,9.62a9.45,9.45,0,0,0,2.05,2,11.73,11.73,0,0,0,2,1c.8-4.22-.4-7.7-2-11.11-1-2.21-2.13-4.41-3-6.68a10.41,10.41,0,0,1-.63-3.34c-.06-1.38.51-1.86,1.89-2a6,6,0,0,1,5.8,2.93,33.55,33.55,0,0,1,3,4.93c2,4.37,4,8.77,5.64,13.28a40.05,40.05,0,0,1,1.95,8.4,6,6,0,0,1-1,4c-1.74,2.39-3.61,4.77-6.53,5.95A3.51,3.51,0,0,0,37.42,118a13.07,13.07,0,0,1-.73,4.62c-.66,2.06-3.73,4.1-5.26,3.59-2.4-.8-4.76-1.73-7.1-2.69-2.19-.91-4.33-1.91-6.48-2.9a11,11,0,0,1-2.54-1.36q-4.31-3.67-8.44-7.53a13.25,13.25,0,0,1-1.58-2.65,21,21,0,0,1,3.41.49,13,13,0,0,1,3.05,1.52,13.15,13.15,0,0,0,6.47,2A4.53,4.53,0,0,0,23.22,109.82Z"/><path d="M60.43,105.33c.36,5.1.14,10.12-1.79,15-2.07,5.19-5.73,9.14-9.77,12.79a2.38,2.38,0,0,1-3.46-.52c-.78-1-1.47-2.13-2.34-3.4,2.8-1.32,5.47-2.61,8.17-3.85,2.12-1,4.24-2.14,5-4.39A17.26,17.26,0,0,0,57.51,114c-.41-4.69-1.39-9.33-2.21-14-.31-1.7-.83-3.36-1.15-4.65a40.75,40.75,0,0,0,3.54-3.18,3.11,3.11,0,0,1,3.43-1.16"/><path d="M34.49,127.3c1.22-1.51,2.53-2.58,3.09-4a16.24,16.24,0,0,0,1-5.34c0-1.2.26-2.1,1.31-2.61,2.93-1.41,5-3.7,7-6.21a6.31,6.31,0,0,0,1.52-5.08,55,55,0,0,0-1.79-7.37,76.49,76.49,0,0,0-2.9-7.59c-1.4-3.2-3-6.32-4.47-9.48-.24-.51-.42-1-.81-2,.82.49,1.2.67,1.52.91A38.35,38.35,0,0,1,48,86.71c2,2.76,4,5.56,5,8.91.86,3,1.72,6.06,2.44,9.12a32.5,32.5,0,0,1,.35,13.78,6.37,6.37,0,0,1-3.49,4.93c-2.29,1.11-4.62,2.14-6.83,3.38C41.87,128.84,38.29,128.34,34.49,127.3Z"/><path d="M60.44,134.21a18.28,18.28,0,0,1-1.12,2c-.77-1.34-1.22-2.91-2.26-3.71s-2.73-.91-4.51-1.44c7.56-7.62,10-16.73,9.09-27"/><path d="M12.28,79A6.07,6.07,0,0,1,13.74,79c2.57.51,5.18.9,7.68,1.66A18.11,18.11,0,0,1,26.33,83c2,1.33,3.69,3,5.5,4.48a1.89,1.89,0,0,1,.61.83c.62,2.18,1.23,4.36,1.75,6.56.07.27-.37.66-.8,1.38C27.39,89,21.14,82.45,12.28,79Z"/><path d="M2.67,95.47c6.12-4.66,18.39-.3,22.68,5.26a1.47,1.47,0,0,1-2.56.42c-2.35-2.15-5.31-2.81-8.12-4A23.92,23.92,0,0,0,2.67,95.47Z"/><path d="M21.74,110.65a7,7,0,0,1-2,1,10.56,10.56,0,0,1-6.64-1c-2.26-1.33-4.48-2.76-7.24-3.15a5.28,5.28,0,0,1,3-.53C13,108.08,17.16,109.34,21.74,110.65Z"/><path class="cls-6" d="M23.22,109.82a4.53,4.53,0,0,1-5,3.21,13.15,13.15,0,0,1-6.47-2,13,13,0,0,0-3.05-1.52,21,21,0,0,0-3.41-.49,13.25,13.25,0,0,0,1.58,2.65q4.14,3.86,8.44,7.53a11,11,0,0,0,2.54,1.36c2.15,1,4.29,2,6.48,2.9,2.34,1,4.7,1.89,7.1,2.69,1.53.51,4.6-1.53,5.26-3.59a13.07,13.07,0,0,0,.73-4.62,3.51,3.51,0,0,1,2.37-3.91c2.92-1.18,4.79-3.56,6.53-5.95a6,6,0,0,0,1-4,40.05,40.05,0,0,0-1.95-8.4c-1.67-4.51-3.64-8.91-5.64-13.28a33.55,33.55,0,0,0-3-4.93A6,6,0,0,0,31,74.63c-1.38.13-1.95.61-1.89,2A10.41,10.41,0,0,0,29.69,80c.91,2.27,2,4.47,3,6.68,1.62,3.41,2.82,6.89,2,11.11a11.73,11.73,0,0,1-2-1,9.45,9.45,0,0,1-2.05-2c-2.61-4-6.33-6.76-10-9.62a28.13,28.13,0,0,0-10.6-5c-.8-.2-1.93-.57-2.35.41a3.89,3.89,0,0,0,.19,2.45,6,6,0,0,0,1.21,2,100.47,100.47,0,0,0,7,7.83c1.61,1.51,3.82,2.39,5.72,3.62s3.72,2.3,4.9,4.19c-1.36,2.3-2.42,2.88-4.16,1.46-3.35-2.73-7.59-3.06-11.31-4.77a8.2,8.2,0,0,0-5.39-.5A25.44,25.44,0,0,1,1.69,97c-.91,1.14-.38,2.22.28,3.32,1.29,2.11,3.35,3.39,5.35,4.58A23.76,23.76,0,0,0,16.17,108,60.82,60.82,0,0,1,23.22,109.82Z"/><path class="cls-1" d="M61.12,91.05a3.11,3.11,0,0,0-3.43,1.16,40.75,40.75,0,0,1-3.54,3.18c.32,1.29.84,3,1.15,4.65.82,4.64,1.8,9.28,2.21,14a17.26,17.26,0,0,1-1.25,6.92c-.78,2.25-2.9,3.42-5,4.39-2.7,1.24-5.37,2.53-8.17,3.85.87,1.27,1.56,2.37,2.34,3.4a2.38,2.38,0,0,0,3.46.52c4-3.65,7.7-7.6,9.77-12.79,1.93-4.85,2.15-9.87,1.79-15"/><path class="cls-2" d="M34.49,127.3c3.8,1,7.38,1.54,11-.47,2.21-1.24,4.54-2.27,6.83-3.38a6.37,6.37,0,0,0,3.49-4.93,32.5,32.5,0,0,0-.35-13.78c-.72-3.06-1.58-6.09-2.44-9.12-.94-3.35-3-6.15-5-8.91a38.35,38.35,0,0,0-8.12-8.17c-.32-.24-.7-.42-1.52-.91.39,1,.57,1.53.81,2,1.49,3.16,3.07,6.28,4.47,9.48a76.49,76.49,0,0,1,2.9,7.59,55,55,0,0,1,1.79,7.37,6.31,6.31,0,0,1-1.52,5.08c-2,2.51-4.05,4.8-7,6.21-1,.51-1.27,1.41-1.31,2.61a16.24,16.24,0,0,1-1,5.34C37,124.72,35.71,125.79,34.49,127.3Z"/><path class="cls-10" d="M61.64,104c.89,10.28-1.53,19.39-9.09,27,1.78.53,3.43.61,4.51,1.44s1.49,2.37,2.26,3.71a18.28,18.28,0,0,0,1.12-2"/><path class="cls-2" d="M12.28,79c8.86,3.41,15.11,10,21.11,17.24.43-.72.87-1.11.8-1.38-.52-2.2-1.13-4.38-1.75-6.56a1.89,1.89,0,0,0-.61-.83C30,86,28.28,84.36,26.33,83a18.11,18.11,0,0,0-4.91-2.42c-2.5-.76-5.11-1.15-7.68-1.66A6.07,6.07,0,0,0,12.28,79Z"/><path class="cls-2" d="M2.67,95.47a23.92,23.92,0,0,1,12,1.71c2.81,1.16,5.77,1.82,8.12,4a1.47,1.47,0,0,0,2.56-.42C21.06,95.17,8.79,90.81,2.67,95.47Z"/><path class="cls-2" d="M21.74,110.65c-4.58-1.31-8.75-2.57-13-3.67a5.28,5.28,0,0,0-3,.53c2.76.39,5,1.82,7.24,3.15a10.56,10.56,0,0,0,6.64,1A7,7,0,0,0,21.74,110.65Z"/><path class="cls-1" d="M125.16,152.27c-12.82,1.4-29.39,2.75-39.8-4.88-3.49-2.56-7.32-.94-11.1-3-5.13-2.87-7.73-3.49-14.3-6.12-1-.41-5.22-4.08-6.23-4.54-1.27-.57-.22-4.3-.43-5.68-.88-5.75,3.22-5.24,4.5-10.91,1.53-6.8,3.27-10.37,4.81-17.17,11.12.35,11.23-4.5,19.94,2.43,2.47,2,7.58,3,10.13,4.89a35,35,0,0,0,8.89,4.62c10.68,3.86,24.42,5.23,32.26,9.88"/><path class="cls-13" d="M125.16,151.65c-7.77.84-15.67,1.56-23.48.72a38,38,0,0,1-11.43-2.87,32.33,32.33,0,0,1-4.76-2.78,11.73,11.73,0,0,0-5.57-1.65,21.17,21.17,0,0,1-3.26-.47,14.87,14.87,0,0,1-3.29-1.46Q71.15,142,68.84,141c-1.61-.67-3.24-1.28-4.87-1.9a20.13,20.13,0,0,1-4.68-2c-1.17-.84-2.28-1.77-3.42-2.65-.79-.61-2-1.09-2.14-2.16-.12-1.39.3-2.78.2-4.17-.12-1.62-.22-3,.72-4.43.82-1.23,1.93-2.22,2.66-3.52,1.1-2,1.38-4.25,2-6.39,1.25-4.57,2.87-9,3.93-13.66l-.6.46a34.93,34.93,0,0,0,7.07-.53,35.92,35.92,0,0,1,4.46-.79c4.27-.23,7,3.47,10.6,5.1,2.35,1.07,4.94,1.73,7.13,3.12a51.12,51.12,0,0,0,7.5,4.22c5.4,2.26,11.19,3.51,16.86,4.87,5.85,1.39,12,2.68,17.28,5.74a.63.63,0,0,0,.63-1.08c-4.53-2.65-9.76-4-14.81-5.2-5.77-1.42-11.62-2.63-17.23-4.61A36.19,36.19,0,0,1,93.35,107a33.29,33.29,0,0,0-6.8-3.21,17.13,17.13,0,0,1-3.21-1.59c-1.16-.79-2.21-1.71-3.41-2.45A10.83,10.83,0,0,0,75.37,98a16.48,16.48,0,0,0-4.83.58,35.22,35.22,0,0,1-7.93.72.62.62,0,0,0-.61.45c-1,4.3-2.43,8.44-3.65,12.68-.63,2.18-.9,4.63-1.9,6.68a21.53,21.53,0,0,1-2.52,3.42c-1.85,2.43-1.14,5.18-1.39,8-.1,1.12-.31,2.72.66,3.54s1.94,1.33,2.85,2a29.63,29.63,0,0,0,3.25,2.44,36.69,36.69,0,0,0,5.21,2.07c1.68.64,3.36,1.27,5,2s3.45,1.84,5.24,2.62c2,.88,4.15.88,6.27,1.18a9,9,0,0,1,3.26,1c.93.53,1.75,1.21,2.66,1.75a32.89,32.89,0,0,0,10.83,3.87c9,1.67,18.33.82,27.38-.16.8-.09.8-1.34,0-1.25Z"/><path d="M127.26,153.88a47.41,47.41,0,0,1-.18-16.84,50.35,50.35,0,0,1,2-7.92c.7-2,1.65-4,4-4.39,1.58-.25.91-2.66-.67-2.41a6.87,6.87,0,0,0-5,4.3,39.38,39.38,0,0,0-2.6,8.84,50.65,50.65,0,0,0,0,19.09c.3,1.58,2.71.91,2.41-.67Z"/><path d="M111,117.87c.06.06-7.72,2.67-7.72,2.67l-9.94,8.1L88,134.19l-4.88,2.19L82,137.64l1,1.44s2.56,1.5,2.78,1.55,4.33.84,4.33.84l8.72.55,9-1.16s5.33-2.5,5.5-2.56,5-4.62,5-4.62,1.17-3,1.23-3.06.63-3.4.63-3.4l2.94-6.32-10.74-3.81Z"/><path d="M80.43,101.44l-6.75,1.7-8.33,9.29-5.83,10-7.71,9.18-.25,1.53s5,2.37,5.24,2.37,7.51.84,7.51.84h3.56l7.18-3.63s4.15-3.36,4.21-3.56a27.53,27.53,0,0,1,2.07-1.87l.91-1.68.65-3.31,1.68-3.42s-1-8.42-1-8.62-1-6.19-1-6.19Z"/><path class="cls-8" d="M123.15,120.36a4.35,4.35,0,0,0-1.13.25,16.32,16.32,0,0,0-6.35,5.2c-2.13,3.1-4.67,5.89-8.29,7.33a14.75,14.75,0,0,1-7.28,1.38A5,5,0,0,1,100,133a18,18,0,0,1,1.15-3.55c.87-1.81,1.9-3.55,2.92-5.29a9.16,9.16,0,0,1,4.69-4.24,12.21,12.21,0,0,0,1.87-1.1l-.15-.41c-.69.18-1.39.3-2.06.54a29.81,29.81,0,0,0-8,4.32,34,34,0,0,0-5.56,5,64.68,64.68,0,0,1-4.55,4.82,11.44,11.44,0,0,1-5.59,3.05c-.86.19-1.81.32-2.13,1.74a29.43,29.43,0,0,0,2.66,1.65c3.59,1.77,7.47,1.95,11.37,2a35.83,35.83,0,0,0,11.5-1.39,17.44,17.44,0,0,0,12.12-12.86c.61-2.32,1.26-4.54,2.94-6.32C123.21,120.82,123.15,120.64,123.15,120.36Z"/><path class="cls-7" d="M100.7,133.68a15.9,15.9,0,0,0,11.71-5.17c1.12-1.22,1.92-2.74,3.08-3.92,1.39-1.43,3-2.64,4.52-3.93a11.81,11.81,0,0,1,1.22-.8c-2.73-.45-5.2-.87-7.66-1.26a1.62,1.62,0,0,0-.81.12c-4.12,1.71-7.74,4-9.59,8.35-.65,1.52-1.42,3-2.06,4.52A11.15,11.15,0,0,0,100.7,133.68Z"/><path class="cls-8" d="M80.43,101.44a14,14,0,0,0-3.49,1.3,48.56,48.56,0,0,0-10,8.92,7.25,7.25,0,0,0-1.28,2c-1.46,4.4-4.46,7.77-7.39,11.16-2,2.35-4.27,4.52-6.45,6.8a6.71,6.71,0,0,0,4.38,3.1A76,76,0,0,0,65,136c2.81.26,5.4-1,7.63-2.34,2.92-1.73,5.41-4.2,8-6.47A5.4,5.4,0,0,0,82,124.39c-1.09.55-2.15,1.15-3.25,1.65-4.61,2.12-8.12-1.67-8.48-5.21a12.63,12.63,0,0,1,2.4-9.08c1.83-2.52,3.42-5.22,6.09-7a10.93,10.93,0,0,0,2-2.63Z"/><path class="cls-7" d="M81.64,103.14c-3,3.12-6.34,5.88-8.52,9.68a12.5,12.5,0,0,0-1.93,7.76c.34,3,2.63,5.24,5.36,5a6.76,6.76,0,0,0,2.49-.78c3.16-1.59,5.34-4.09,5-7.72-.39-4.5-1.35-9-2.08-13.43C82,103.5,81.76,103.32,81.64,103.14Z"/></g></g></svg>