<?xml version="1.0" encoding="UTF-8"?>
<svg width="191px" height="60px" viewBox="0 0 191 60" version="1.1" xmlns="http://www.w3.org/2000/svg" xmlns:xlink="http://www.w3.org/1999/xlink">
    <title>C2E24A1A-EFA5-4A91-A158-A2357E84FA76</title>
    <g id="Home" stroke="none" stroke-width="1" fill="none" fill-rule="evenodd">
        <g id="Home3" transform="translate(-50.000000, -60.000000)" fill-rule="nonzero">
            <g id="Header">
                <g id="header">
                    <g id="UNIS-Logo" transform="translate(50.000000, 60.000000)">
                        <g id="Group" fill="#00528A">
                            <path d="M51.2820513,53.1468531 C46.4868465,52.2144522 43.5564436,51.4152514 41.6916417,51.4152514 C40.7592408,51.4152514 38.2284382,51.6816517 35.1648352,53.013653 C31.968032,51.6816517 29.5704296,51.4152514 28.6380286,51.4152514 C26.9064269,51.2820513 23.8428238,52.2144522 19.047619,53.1468531 C14.2524143,54.0792541 12.1212121,53.1468531 12.1212121,53.1468531 C19.4472194,58.4748585 26.7732268,55.1448551 28.5048285,54.4788545 C30.2364302,53.8128538 31.968032,53.8128538 31.968032,53.8128538 C32.6340326,53.8128538 33.1668332,53.8128538 33.6996337,53.9460539 C31.5684316,55.011655 29.3040293,56.4768565 26.9064269,58.7412587 C26.9064269,58.7412587 26.6400266,58.8744589 26.9064269,59.1408591 C27.1728272,59.4072594 27.4392274,59.6736597 27.4392274,59.6736597 C27.4392274,59.6736597 27.7056277,59.9400599 27.972028,59.5404595 C28.2384282,59.2740593 31.035631,55.5444555 35.1648352,54.2124542 C39.2940393,55.4112554 42.0912421,59.1408591 42.3576424,59.5404595 C42.6240426,59.9400599 42.8904429,59.6736597 42.8904429,59.6736597 C42.8904429,59.6736597 43.1568432,59.4072594 43.4232434,59.1408591 C43.6896437,58.8744589 43.4232434,58.7412587 43.4232434,58.7412587 C41.025641,56.4768565 38.7612388,55.011655 36.6300366,53.9460539 C37.1628372,53.8128538 37.8288378,53.8128538 38.3616384,53.8128538 C38.3616384,53.8128538 40.0932401,53.8128538 41.8248418,54.4788545 C43.5564436,55.1448551 50.8824509,58.4748585 58.2084582,53.1468531 C58.2084582,53.013653 56.0772561,53.9460539 51.2820513,53.1468531 Z" id="Path"></path>
                            <path d="M51.9480519,49.1508492 C54.0792541,47.2860473 54.6120546,45.1548452 54.8784549,43.8228438 C55.1448551,42.6240426 55.5444555,40.6260406 55.5444555,40.6260406 C52.6140526,41.8248418 51.2820513,44.6220446 49.95005,47.2860473 C48.4848485,49.8168498 46.4868465,51.015651 46.4868465,51.015651 C56.7432567,55.011655 62.6040626,46.8864469 62.6040626,46.8864469 C62.0712621,47.1528472 58.6080586,48.2184482 57.8088578,48.3516484 C56.8764569,48.3516484 51.9480519,49.1508492 51.9480519,49.1508492 Z" id="Path"></path>
                            <path d="M63.003663,40.2264402 C62.6040626,40.4928405 58.8744589,43.1568432 58.8744589,43.1568432 C60.7392607,39.027639 59.6736597,33.4332334 59.6736597,33.4332334 C59.6736597,33.4332334 58.0752581,35.964036 56.7432567,38.4948385 C55.4112554,41.025641 55.5444555,42.6240426 55.5444555,44.3556444 C55.5444555,46.0872461 54.7452547,47.5524476 54.7452547,47.5524476 C59.5404595,46.4868465 61.005661,45.4212454 61.005661,45.4212454 C66.999667,41.6916417 66.8664669,35.5644356 66.8664669,35.5644356 C66.4668665,36.6300366 63.4032634,39.96004 63.003663,40.2264402 Z" id="Path"></path>
                            <path d="M62.4708625,35.5644356 C63.003663,33.3000333 61.2720613,25.974026 61.2720613,25.974026 C61.005661,25.8408258 60.8724609,26.5068265 60.8724609,26.5068265 C60.8724609,26.5068265 60.6060606,28.2384282 60.2064602,30.3696304 C59.8068598,32.5008325 60.2064602,33.966034 60.2064602,33.966034 C61.005661,36.6300366 60.3396603,40.4928405 60.3396603,40.4928405 C70.8624709,32.6340326 68.5980686,26.9064269 68.5980686,26.9064269 C67.9320679,28.5048285 62.4708625,35.5644356 62.4708625,35.5644356 Z" id="Path"></path>
                            <path d="M64.7352647,27.039627 C64.6020646,27.3060273 64.2024642,24.3756244 61.1388611,19.7136197 C61.1388611,19.7136197 60.8724609,19.7136197 61.005661,20.3796204 C61.005661,20.9124209 61.4052614,23.043623 61.4052614,23.3100233 C61.4052614,23.5764236 61.5384615,24.1092241 61.9380619,25.041625 C62.3376623,25.974026 63.6696637,29.7036297 63.8028638,29.8368298 C63.9360639,29.97003 64.3356643,32.2344322 64.2024642,32.3676324 C64.2024642,32.5008325 66.999667,27.972028 67.5324675,27.1728272 C68.0652681,26.3736264 69.9300699,22.3776224 68.4648685,17.1828172 C68.4648685,17.1828172 67.9320679,19.5804196 67.2660673,20.9124209 C66.6000666,22.2444222 65.9340659,23.3100233 65.6676657,24.5088245 C65.4012654,25.3080253 65.001665,26.9064269 64.7352647,27.039627 Z" id="Path"></path>
                            <path d="M61.5384615,15.1848152 C61.005661,14.6520147 58.4748585,13.1868132 58.4748585,13.1868132 C58.6080586,13.4532135 60.8724609,18.1152181 61.4052614,18.9144189 C61.9380619,19.8468198 62.3376623,20.1132201 62.3376623,20.1132201 C63.5364635,21.045621 64.6020646,23.7096237 64.8684649,24.1092241 C65.001665,24.3756244 65.2680653,24.2424242 65.2680653,23.976024 C65.2680653,23.7096237 66.2004662,19.98002 66.4668665,18.5148185 C66.7332667,17.049617 66.7332667,15.984016 66.7332667,15.984016 C66.8664669,11.3220113 64.2024642,8.79120879 64.2024642,8.79120879 C64.6020646,9.59040959 64.0692641,14.6520147 63.9360639,15.0516151 C63.9360639,15.4512155 64.0692641,18.2484182 64.0692641,18.2484182 C63.9360639,17.982018 62.0712621,15.5844156 61.5384615,15.1848152 Z" id="Path"></path>
                            <path d="M61.1388611,11.1888112 C58.8744589,8.52480852 54.8784549,6.52680653 54.8784549,6.52680653 C54.8784549,9.59040959 59.1408591,12.3876124 60.3396603,13.3200133 C61.4052614,14.2524143 63.003663,15.984016 63.1368631,16.2504163 C63.4032634,16.5168165 63.5364635,16.3836164 63.5364635,16.3836164 C63.2700633,15.5844156 63.4032634,9.72360972 62.4708625,7.05960706 C61.5384615,4.3956044 59.4072594,3.33000333 59.4072594,3.33000333 C59.2740593,3.33000333 59.4072594,3.46320346 59.4072594,3.46320346 C60.6060606,5.06160506 61.1388611,11.1888112 61.1388611,11.1888112 Z" id="Path"></path>
                            <path d="M59.4072594,8.25840826 C57.6756577,3.46320346 53.6796537,1.73160173 53.6796537,1.73160173 C55.9440559,7.19280719 59.4072594,8.25840826 59.4072594,8.25840826 Z" id="Path"></path>
                            <path d="M23.8428238,51.015651 C23.8428238,51.015651 21.8448218,49.95005 20.3796204,47.2860473 C18.9144189,44.7552448 17.7156177,41.8248418 14.7852148,40.6260406 C14.7852148,40.6260406 15.1848152,42.6240426 15.4512155,43.8228438 C15.7176157,45.021645 16.2504163,47.2860473 18.3816184,49.1508492 C18.3816184,49.1508492 13.3200133,48.3516484 12.5208125,48.2184482 C11.7216117,48.0852481 8.25840826,47.019647 7.72560773,46.7532468 C7.72560773,46.7532468 13.5864136,55.011655 23.8428238,51.015651 Z" id="Path"></path>
                            <path d="M15.3180153,47.6856477 C15.3180153,47.6856477 14.6520147,46.2204462 14.5188145,44.4888445 C14.5188145,42.7572428 14.6520147,41.1588412 13.3200133,38.6280386 C11.988012,36.0972361 10.3896104,33.5664336 10.3896104,33.5664336 C10.3896104,33.5664336 9.32400932,39.1608392 11.3220113,43.2900433 C11.3220113,43.2900433 7.59240759,40.6260406 7.19280719,40.3596404 C6.79320679,40.0932401 3.72960373,36.6300366 3.1968032,35.8308358 C3.1968032,35.8308358 3.1968032,41.958042 9.05760906,45.6876457 C9.19080919,45.5544456 10.5228105,46.6200466 15.3180153,47.6856477 Z" id="Path"></path>
                            <path d="M9.85680986,40.4928405 C9.85680986,40.4928405 9.32400932,36.6300366 9.99000999,33.966034 C9.99000999,33.966034 10.3896104,32.3676324 9.99000999,30.3696304 C9.59040959,28.2384282 9.32400932,26.5068265 9.32400932,26.5068265 C9.32400932,26.5068265 9.19080919,25.974026 8.92440892,25.974026 C8.92440892,25.974026 7.32600733,33.1668332 7.72560773,35.5644356 C7.72560773,35.5644356 2.26440226,28.6380286 1.5984016,26.9064269 C1.5984016,26.9064269 -0.666000666,32.6340326 9.85680986,40.4928405 Z" id="Path"></path>
                            <path d="M6.12720613,32.2344322 C6.12720613,32.1012321 6.52680653,29.97003 6.52680653,29.7036297 C6.66000666,29.5704296 7.99200799,25.8408258 8.39160839,24.9084249 C8.79120879,23.976024 8.92440892,23.4432234 8.92440892,23.1768232 C8.92440892,22.9104229 9.19080919,20.9124209 9.32400932,20.2464202 C9.32400932,19.7136197 9.19080919,19.5804196 9.19080919,19.5804196 C6.26040626,24.2424242 5.86080586,27.1728272 5.59440559,26.9064269 C5.32800533,26.9064269 4.92840493,25.3080253 4.52880453,24.2424242 C4.26240426,23.043623 3.5964036,21.978022 2.93040293,20.6460206 C2.26440226,19.3140193 1.73160173,16.9164169 1.73160173,16.9164169 C0.266400266,22.1112221 2.26440226,26.1072261 2.66400266,26.9064269 C3.33000333,27.8388278 6.12720613,32.3676324 6.12720613,32.2344322 Z" id="Path"></path>
                            <path d="M5.06160506,23.976024 C5.06160506,24.2424242 5.32800533,24.5088245 5.46120546,24.1092241 C5.59440559,23.8428238 6.79320679,21.045621 7.99200799,20.1132201 C7.99200799,20.1132201 8.39160839,19.7136197 8.92440892,18.9144189 C9.45720946,18.1152181 11.7216117,13.4532135 11.8548119,13.1868132 C11.8548119,13.1868132 9.32400932,14.6520147 8.79120879,15.1848152 C8.25840826,15.7176157 6.39360639,18.1152181 6.12720613,18.1152181 C6.12720613,18.1152181 6.39360639,15.3180153 6.26040626,14.9184149 C6.26040626,14.5188145 5.59440559,9.59040959 5.99400599,8.65800866 C5.99400599,8.65800866 3.33000333,11.1888112 3.46320346,15.8508159 C3.46320346,15.8508159 3.33000333,16.9164169 3.72960373,18.3816184 C4.12920413,19.8468198 5.06160506,23.7096237 5.06160506,23.976024 Z" id="Path"></path>
                            <path d="M7.05960706,16.2504163 C7.32600733,15.984016 8.79120879,14.2524143 9.99000999,13.3200133 C11.0556111,12.3876124 15.4512155,9.45720946 15.4512155,6.52680653 C15.4512155,6.52680653 11.5884116,8.52480852 9.19080919,11.1888112 C9.19080919,11.1888112 9.72360972,5.06160506 11.0556111,3.5964036 C11.0556111,3.5964036 11.0556111,3.46320346 11.0556111,3.46320346 C11.0556111,3.46320346 8.79120879,4.52880453 7.99200799,7.19280719 C7.05960706,9.85680986 7.19280719,15.7176157 6.92640693,16.5168165 C6.66000666,16.3836164 6.92640693,16.6500167 7.05960706,16.2504163 Z" id="Path"></path>
                            <path d="M16.6500167,1.73160173 C16.6500167,1.73160173 12.6540127,3.33000333 10.9224109,8.25840826 C10.7892108,8.25840826 14.3856144,7.19280719 16.6500167,1.73160173 Z" id="Path"></path>
                            <path d="M49.5504496,17.5824176 C49.2840493,17.7156177 49.5504496,19.3140193 49.95005,19.1808192 C50.3496503,19.047619 49.95005,17.4492174 49.5504496,17.5824176 Z M39.4272394,18.6480186 C39.1608392,18.5148185 38.7612388,19.3140193 39.027639,19.4472194 C39.1608392,19.5804196 39.5604396,18.7812188 39.4272394,18.6480186 Z M40.0932401,17.8488178 C39.8268398,17.7156177 39.4272394,18.5148185 39.8268398,18.5148185 C40.2264402,18.6480186 40.3596404,17.982018 40.0932401,17.8488178 Z M37.5624376,25.7076257 C37.4292374,25.7076257 37.4292374,26.1072261 37.5624376,26.1072261 C37.5624376,26.1072261 37.6956377,25.7076257 37.5624376,25.7076257 Z M33.966034,24.3756244 C33.6996337,24.2424242 33.1668332,24.9084249 33.6996337,24.9084249 C34.3656344,25.041625 34.4988345,24.7752248 33.966034,24.3756244 Z M35.964036,25.974026 C35.8308358,25.974026 35.6976357,25.974026 35.6976357,26.1072261 C35.6976357,26.2404262 35.8308358,26.3736264 35.964036,26.3736264 C36.0972361,26.3736264 36.0972361,26.2404262 36.0972361,26.2404262 C36.0972361,25.974026 36.0972361,25.974026 35.964036,25.974026 Z M34.3656344,27.7056277 C34.2324342,27.7056277 34.0992341,27.8388278 34.0992341,27.8388278 C34.0992341,27.972028 34.2324342,28.1052281 34.3656344,28.1052281 C34.4988345,28.1052281 34.6320346,27.972028 34.6320346,27.8388278 C34.6320346,27.7056277 34.4988345,27.7056277 34.3656344,27.7056277 Z M24.5088245,27.7056277 C24.2424242,27.972028 24.5088245,28.6380286 24.9084249,28.5048285 C25.4412254,28.2384282 24.9084249,27.4392274 24.5088245,27.7056277 Z M45.6876457,31.4352314 C45.4212454,31.7016317 45.6876457,31.8348318 45.954046,31.7016317 C46.2204462,31.5684316 45.954046,31.3020313 45.6876457,31.4352314 Z M48.2184482,26.2404262 C47.5524476,26.3736264 47.952048,26.6400266 48.3516484,26.6400266 C48.7512488,26.6400266 49.017649,26.1072261 48.2184482,26.2404262 Z M49.5504496,17.5824176 C49.2840493,17.7156177 49.5504496,19.3140193 49.95005,19.1808192 C50.3496503,19.047619 49.95005,17.4492174 49.5504496,17.5824176 Z M40.0932401,17.8488178 C39.8268398,17.7156177 39.4272394,18.5148185 39.8268398,18.5148185 C40.2264402,18.6480186 40.3596404,17.982018 40.0932401,17.8488178 Z M39.4272394,18.6480186 C39.1608392,18.5148185 38.7612388,19.3140193 39.027639,19.4472194 C39.1608392,19.5804196 39.5604396,18.7812188 39.4272394,18.6480186 Z M48.2184482,26.2404262 C47.5524476,26.3736264 47.952048,26.6400266 48.3516484,26.6400266 C48.7512488,26.6400266 49.017649,26.1072261 48.2184482,26.2404262 Z M45.6876457,31.4352314 C45.4212454,31.7016317 45.6876457,31.8348318 45.954046,31.7016317 C46.2204462,31.5684316 45.954046,31.3020313 45.6876457,31.4352314 Z M37.5624376,25.7076257 C37.4292374,25.7076257 37.4292374,26.1072261 37.5624376,26.1072261 C37.5624376,26.1072261 37.6956377,25.7076257 37.5624376,25.7076257 Z M35.964036,25.974026 C35.8308358,25.974026 35.6976357,25.974026 35.6976357,26.1072261 C35.6976357,26.2404262 35.8308358,26.3736264 35.964036,26.3736264 C36.0972361,26.3736264 36.0972361,26.2404262 36.0972361,26.2404262 C36.0972361,25.974026 36.0972361,25.974026 35.964036,25.974026 Z M34.3656344,27.7056277 C34.2324342,27.7056277 34.0992341,27.8388278 34.0992341,27.8388278 C34.0992341,27.972028 34.2324342,28.1052281 34.3656344,28.1052281 C34.4988345,28.1052281 34.6320346,27.972028 34.6320346,27.8388278 C34.6320346,27.7056277 34.4988345,27.7056277 34.3656344,27.7056277 Z M33.966034,24.3756244 C33.6996337,24.2424242 33.1668332,24.9084249 33.6996337,24.9084249 C34.3656344,25.041625 34.4988345,24.7752248 33.966034,24.3756244 Z M24.5088245,27.7056277 C24.2424242,27.972028 24.5088245,28.6380286 24.9084249,28.5048285 C25.4412254,28.2384282 24.9084249,27.4392274 24.5088245,27.7056277 Z M24.5088245,27.7056277 C24.2424242,27.972028 24.5088245,28.6380286 24.9084249,28.5048285 C25.4412254,28.2384282 24.9084249,27.4392274 24.5088245,27.7056277 Z M33.966034,24.3756244 C33.6996337,24.2424242 33.1668332,24.9084249 33.6996337,24.9084249 C34.3656344,25.041625 34.4988345,24.7752248 33.966034,24.3756244 Z M34.3656344,27.7056277 C34.2324342,27.7056277 34.0992341,27.8388278 34.0992341,27.8388278 C34.0992341,27.972028 34.2324342,28.1052281 34.3656344,28.1052281 C34.4988345,28.1052281 34.6320346,27.972028 34.6320346,27.8388278 C34.6320346,27.7056277 34.4988345,27.7056277 34.3656344,27.7056277 Z M35.964036,25.974026 C35.8308358,25.974026 35.6976357,25.974026 35.6976357,26.1072261 C35.6976357,26.2404262 35.8308358,26.3736264 35.964036,26.3736264 C36.0972361,26.3736264 36.0972361,26.2404262 36.0972361,26.2404262 C36.0972361,25.974026 36.0972361,25.974026 35.964036,25.974026 Z M37.5624376,25.7076257 C37.4292374,25.7076257 37.4292374,26.1072261 37.5624376,26.1072261 C37.5624376,26.1072261 37.6956377,25.7076257 37.5624376,25.7076257 Z M39.4272394,18.6480186 C39.1608392,18.5148185 38.7612388,19.3140193 39.027639,19.4472194 C39.1608392,19.5804196 39.5604396,18.7812188 39.4272394,18.6480186 Z M40.0932401,17.8488178 C39.8268398,17.7156177 39.4272394,18.5148185 39.8268398,18.5148185 C40.2264402,18.6480186 40.3596404,17.982018 40.0932401,17.8488178 Z M45.6876457,31.4352314 C45.4212454,31.7016317 45.6876457,31.8348318 45.954046,31.7016317 C46.2204462,31.5684316 45.954046,31.3020313 45.6876457,31.4352314 Z M48.2184482,26.2404262 C47.5524476,26.3736264 47.952048,26.6400266 48.3516484,26.6400266 C48.7512488,26.6400266 49.017649,26.1072261 48.2184482,26.2404262 Z M49.5504496,17.5824176 C49.2840493,17.7156177 49.5504496,19.3140193 49.95005,19.1808192 C50.3496503,19.047619 49.95005,17.4492174 49.5504496,17.5824176 Z M37.5624376,25.7076257 C37.4292374,25.7076257 37.4292374,26.1072261 37.5624376,26.1072261 C37.5624376,26.1072261 37.6956377,25.7076257 37.5624376,25.7076257 Z M35.964036,25.974026 C35.8308358,25.974026 35.6976357,25.974026 35.6976357,26.1072261 C35.6976357,26.2404262 35.8308358,26.3736264 35.964036,26.3736264 C36.0972361,26.3736264 36.0972361,26.2404262 36.0972361,26.2404262 C36.0972361,25.974026 36.0972361,25.974026 35.964036,25.974026 Z M34.3656344,27.7056277 C34.2324342,27.7056277 34.0992341,27.8388278 34.0992341,27.8388278 C34.0992341,27.972028 34.2324342,28.1052281 34.3656344,28.1052281 C34.4988345,28.1052281 34.6320346,27.972028 34.6320346,27.8388278 C34.6320346,27.7056277 34.4988345,27.7056277 34.3656344,27.7056277 Z M33.966034,24.3756244 C33.6996337,24.2424242 33.1668332,24.9084249 33.6996337,24.9084249 C34.3656344,25.041625 34.4988345,24.7752248 33.966034,24.3756244 Z M24.5088245,27.7056277 C24.2424242,27.972028 24.5088245,28.6380286 24.9084249,28.5048285 C25.4412254,28.2384282 24.9084249,27.4392274 24.5088245,27.7056277 Z M40.0932401,17.8488178 C39.8268398,17.7156177 39.4272394,18.5148185 39.8268398,18.5148185 C40.2264402,18.6480186 40.3596404,17.982018 40.0932401,17.8488178 Z M39.4272394,18.6480186 C39.1608392,18.5148185 38.7612388,19.3140193 39.027639,19.4472194 C39.1608392,19.5804196 39.5604396,18.7812188 39.4272394,18.6480186 Z M49.5504496,17.5824176 C49.2840493,17.7156177 49.5504496,19.3140193 49.95005,19.1808192 C50.3496503,19.047619 49.95005,17.4492174 49.5504496,17.5824176 Z M48.2184482,26.2404262 C47.5524476,26.3736264 47.952048,26.6400266 48.3516484,26.6400266 C48.7512488,26.6400266 49.017649,26.1072261 48.2184482,26.2404262 Z M45.6876457,31.4352314 C45.4212454,31.7016317 45.6876457,31.8348318 45.954046,31.7016317 C46.2204462,31.5684316 45.954046,31.3020313 45.6876457,31.4352314 Z M24.5088245,27.7056277 C24.2424242,27.972028 24.5088245,28.6380286 24.9084249,28.5048285 C25.4412254,28.2384282 24.9084249,27.4392274 24.5088245,27.7056277 Z M33.966034,24.3756244 C33.6996337,24.2424242 33.1668332,24.9084249 33.6996337,24.9084249 C34.3656344,25.041625 34.4988345,24.7752248 33.966034,24.3756244 Z M34.3656344,27.7056277 C34.2324342,27.7056277 34.0992341,27.8388278 34.0992341,27.8388278 C34.0992341,27.972028 34.2324342,28.1052281 34.3656344,28.1052281 C34.4988345,28.1052281 34.6320346,27.972028 34.6320346,27.8388278 C34.6320346,27.7056277 34.4988345,27.7056277 34.3656344,27.7056277 Z M35.964036,25.974026 C35.8308358,25.974026 35.6976357,25.974026 35.6976357,26.1072261 C35.6976357,26.2404262 35.8308358,26.3736264 35.964036,26.3736264 C36.0972361,26.3736264 36.0972361,26.2404262 36.0972361,26.2404262 C36.0972361,25.974026 36.0972361,25.974026 35.964036,25.974026 Z M37.5624376,25.7076257 C37.4292374,25.7076257 37.4292374,26.1072261 37.5624376,26.1072261 C37.5624376,26.1072261 37.6956377,25.7076257 37.5624376,25.7076257 Z M39.4272394,18.6480186 C39.1608392,18.5148185 38.7612388,19.3140193 39.027639,19.4472194 C39.1608392,19.5804196 39.5604396,18.7812188 39.4272394,18.6480186 Z M40.0932401,17.8488178 C39.8268398,17.7156177 39.4272394,18.5148185 39.8268398,18.5148185 C40.2264402,18.6480186 40.3596404,17.982018 40.0932401,17.8488178 Z M45.6876457,31.4352314 C45.4212454,31.7016317 45.6876457,31.8348318 45.954046,31.7016317 C46.2204462,31.5684316 45.954046,31.3020313 45.6876457,31.4352314 Z M48.2184482,26.2404262 C47.5524476,26.3736264 47.952048,26.6400266 48.3516484,26.6400266 C48.7512488,26.6400266 49.017649,26.1072261 48.2184482,26.2404262 Z M49.5504496,17.5824176 C49.2840493,17.7156177 49.5504496,19.3140193 49.95005,19.1808192 C50.3496503,19.047619 49.95005,17.4492174 49.5504496,17.5824176 Z M37.5624376,25.7076257 C37.4292374,25.7076257 37.4292374,26.1072261 37.5624376,26.1072261 C37.5624376,26.1072261 37.6956377,25.7076257 37.5624376,25.7076257 Z M35.964036,25.974026 C35.8308358,25.974026 35.6976357,25.974026 35.6976357,26.1072261 C35.6976357,26.2404262 35.8308358,26.3736264 35.964036,26.3736264 C36.0972361,26.3736264 36.0972361,26.2404262 36.0972361,26.2404262 C36.0972361,25.974026 36.0972361,25.974026 35.964036,25.974026 Z M34.3656344,27.7056277 C34.2324342,27.7056277 34.0992341,27.8388278 34.0992341,27.8388278 C34.0992341,27.972028 34.2324342,28.1052281 34.3656344,28.1052281 C34.4988345,28.1052281 34.6320346,27.972028 34.6320346,27.8388278 C34.6320346,27.7056277 34.4988345,27.7056277 34.3656344,27.7056277 Z M33.966034,24.3756244 C33.6996337,24.2424242 33.1668332,24.9084249 33.6996337,24.9084249 C34.3656344,25.041625 34.4988345,24.7752248 33.966034,24.3756244 Z M24.5088245,27.7056277 C24.2424242,27.972028 24.5088245,28.6380286 24.9084249,28.5048285 C25.4412254,28.2384282 24.9084249,27.4392274 24.5088245,27.7056277 Z M40.0932401,17.8488178 C39.8268398,17.7156177 39.4272394,18.5148185 39.8268398,18.5148185 C40.2264402,18.6480186 40.3596404,17.982018 40.0932401,17.8488178 Z M38.8944389,19.4472194 C39.1608392,19.5804196 39.5604396,18.7812188 39.2940393,18.6480186 C39.1608392,18.5148185 38.6280386,19.3140193 38.8944389,19.4472194 Z M49.5504496,17.5824176 C49.2840493,17.7156177 49.5504496,19.3140193 49.95005,19.1808192 C50.3496503,19.047619 49.95005,17.4492174 49.5504496,17.5824176 Z M48.2184482,26.2404262 C47.5524476,26.3736264 47.952048,26.6400266 48.3516484,26.6400266 C48.7512488,26.6400266 49.017649,26.1072261 48.2184482,26.2404262 Z M45.6876457,31.4352314 C45.4212454,31.7016317 45.6876457,31.8348318 45.954046,31.7016317 C46.2204462,31.5684316 45.954046,31.3020313 45.6876457,31.4352314 Z M35.1648352,0.133200133 C21.7116217,0.133200133 10.7892108,11.0556111 10.7892108,24.5088245 C10.7892108,37.962038 21.7116217,48.8844489 35.1648352,48.8844489 C48.6180486,48.8844489 59.5404595,37.962038 59.5404595,24.5088245 C59.4072594,11.0556111 48.6180486,0.133200133 35.1648352,0.133200133 Z M58.6080586,24.1092241 L54.7452547,24.1092241 C54.7452547,21.3120213 54.0792541,18.7812188 53.013653,16.3836164 C53.5464535,15.8508159 52.0812521,13.7196137 51.6816517,13.0536131 C51.4152514,12.3876124 50.8824509,11.7216117 50.6160506,11.4552115 C50.4828505,11.3220113 49.95005,10.9224109 49.6836497,10.6560107 L52.0812521,8.39160839 C56.2104562,12.5208125 58.6080586,17.982018 58.6080586,24.1092241 Z M47.952048,34.7652348 C47.5524476,34.7652348 47.4192474,35.2980353 47.4192474,35.8308358 L46.3536464,34.7652348 C48.7512488,32.1012321 50.2164502,28.6380286 50.3496503,24.9084249 L54.0792541,24.9084249 C53.9460539,29.7036297 52.0812521,34.0992341 49.017649,37.4292374 L48.8844489,37.2960373 C48.8844489,37.2960373 48.8844489,37.2960373 48.8844489,37.2960373 C48.8844489,36.6300366 48.8844489,34.7652348 47.952048,34.7652348 Z M45.954046,38.7612388 C45.954046,38.3616384 46.6200466,37.5624376 46.4868465,37.2960373 C46.4868465,36.8964369 45.4212454,36.3636364 45.2880453,35.8308358 C45.2880453,35.6976357 45.2880453,35.6976357 45.2880453,35.5644356 C45.4212454,35.4312354 45.5544456,35.2980353 45.6876457,35.1648352 L47.4192474,36.8964369 C47.4192474,37.1628372 47.4192474,37.2960373 47.5524476,37.4292374 C47.5524476,37.6956377 47.952048,37.6956377 48.2184482,37.6956377 L48.4848485,37.962038 C47.6856477,38.7612388 46.8864469,39.4272394 45.954046,40.0932401 C46.0872461,39.5604396 45.954046,39.027639 45.954046,38.7612388 Z M45.021645,30.5028305 C44.7552448,29.97003 44.7552448,29.7036297 44.3556444,29.8368298 C43.956044,29.8368298 43.956044,30.5028305 43.6896437,30.6360306 C43.4232434,30.7692308 42.6240426,31.1688312 42.4908425,30.9024309 C42.6240426,30.7692308 42.7572428,30.5028305 42.8904429,30.3696304 C43.2900433,30.1032301 43.8228438,29.8368298 44.0892441,29.4372294 C44.3556444,29.037629 44.7552448,28.1052281 45.021645,27.972028 C45.1548452,27.8388278 44.8884449,28.3716284 45.2880453,28.3716284 C45.5544456,28.3716284 45.5544456,28.1052281 46.6200466,27.972028 C47.1528472,27.8388278 47.952048,27.972028 47.952048,27.4392274 C47.952048,26.9064269 46.6200466,25.7076257 46.4868465,25.3080253 C46.4868465,25.1748252 46.4868465,25.041625 46.3536464,25.041625 L49.2840493,25.041625 C49.1508492,28.5048285 47.8188478,31.7016317 45.8208458,34.0992341 C45.6876457,33.966034 45.5544456,33.8328338 45.5544456,33.5664336 C45.4212454,33.033633 45.8208458,32.6340326 45.021645,32.6340326 C44.7552448,32.6340326 44.4888445,32.9004329 44.3556444,33.033633 L44.3556444,33.033633 C44.6220446,32.7672328 44.6220446,32.5008325 44.6220446,32.2344322 C44.8884449,30.7692308 45.2880453,31.035631 45.021645,30.5028305 Z M43.956044,33.5664336 C43.8228438,33.5664336 43.8228438,33.6996337 43.6896437,33.6996337 C43.1568432,33.6996337 40.8924409,33.1668332 40.8924409,33.033633 C40.8924409,32.9004329 40.8924409,32.7672328 41.1588412,32.6340326 C41.4252414,32.5008325 42.2244422,33.5664336 43.6896437,33.4332334 L43.956044,33.5664336 Z M48.3516484,18.7812188 C48.4848485,19.1808192 48.7512488,19.7136197 48.8844489,20.1132201 C48.8844489,20.9124209 48.0852481,22.1112221 47.8188478,21.978022 C47.5524476,21.978022 47.8188478,21.4452214 47.8188478,20.9124209 C47.8188478,20.3796204 47.4192474,20.2464202 47.1528472,20.2464202 C47.019647,20.2464202 46.2204462,21.045621 45.8208458,20.7792208 C45.4212454,20.5128205 46.3536464,20.3796204 45.954046,20.1132201 C45.5544456,19.8468198 44.7552448,19.5804196 44.2224442,19.047619 C43.6896437,18.6480186 43.023643,17.5824176 42.8904429,17.3160173 L45.6876457,14.6520147 C46.3536464,15.3180153 46.8864469,16.1172161 47.4192474,17.049617 C47.1528472,17.049617 46.8864469,17.049617 46.8864469,17.7156177 C47.019647,17.982018 47.8188478,18.1152181 48.3516484,18.7812188 Z M49.017649,22.7772228 C49.1508492,22.9104229 49.2840493,22.7772228 49.4172494,22.7772228 C49.4172494,23.1768232 49.5504496,23.7096237 49.5504496,24.1092241 L46.6200466,24.1092241 C46.8864469,23.7096237 46.8864469,23.1768232 47.1528472,22.9104229 C47.5524476,22.5108225 47.5524476,22.6440226 47.952048,22.5108225 C48.3516484,22.3776224 48.7512488,21.3120213 48.8844489,21.045621 C48.8844489,21.3120213 49.017649,21.4452214 49.017649,21.7116217 C49.017649,22.1112221 48.6180486,22.6440226 49.017649,22.7772228 Z M50.2164502,24.1092241 C50.2164502,23.1768232 50.0832501,22.2444222 49.95005,21.3120213 C50.2164502,20.5128205 50.3496503,19.4472194 50.2164502,19.4472194 C49.95005,19.4472194 49.8168498,19.7136197 49.6836497,19.98002 C49.5504496,19.5804196 49.4172494,19.1808192 49.2840493,18.9144189 C49.2840493,18.3816184 49.2840493,17.8488178 49.1508492,17.5824176 C49.017649,17.1828172 48.7512488,16.9164169 48.4848485,16.5168165 C48.0852481,16.1172161 48.4848485,15.8508159 48.2184482,15.4512155 C47.952048,15.1848152 48.0852481,15.5844156 47.6856477,15.3180153 C47.2860473,15.0516151 47.8188478,14.5188145 47.019647,13.986014 C46.8864469,13.8528139 46.7532468,13.8528139 46.7532468,13.7196137 L47.2860473,13.1868132 C47.5524476,13.4532135 48.0852481,13.3200133 48.3516484,13.5864136 C48.6180486,13.8528139 47.952048,14.2524143 50.4828505,15.1848152 C51.1488511,15.4512155 51.2820513,16.7832168 51.9480519,16.7832168 C52.2144522,16.7832168 52.4808525,16.7832168 52.6140526,16.6500167 C53.5464535,18.9144189 54.0792541,21.3120213 54.2124542,23.8428238 L50.2164502,23.8428238 L50.2164502,24.1092241 Z M35.5644356,0.932400932 C41.8248418,1.06560107 47.5524476,3.5964036 51.8148518,7.85880786 L49.95005,9.59040959 C49.95005,9.45720946 49.95005,9.45720946 49.8168498,9.32400932 C49.4172494,9.19080919 49.2840493,9.45720946 48.7512488,8.92440892 C48.2184482,8.39160839 49.017649,8.52480852 48.4848485,7.99200799 C47.4192474,6.79320679 47.1528472,7.32600733 47.1528472,6.92640693 C47.1528472,6.52680653 48.0852481,6.26040626 47.1528472,5.86080586 C45.6876457,5.19480519 46.6200466,6.12720613 46.4868465,6.39360639 C46.3536464,6.66000666 45.2880453,5.86080586 45.021645,6.26040626 C44.7552448,6.79320679 44.2224442,6.52680653 43.8228438,6.66000666 C41.2920413,5.46120546 38.4948385,4.66200466 35.5644356,4.66200466 L35.5644356,0.932400932 Z M35.5644356,5.46120546 C38.3616384,5.46120546 41.1588412,6.26040626 43.5564436,7.45920746 C43.6896437,7.85880786 44.3556444,7.85880786 44.3556444,8.12520813 C43.956044,9.45720946 44.8884449,9.59040959 44.8884449,9.59040959 C44.8884449,9.59040959 44.7552448,10.9224109 45.4212454,11.4552115 C45.8208458,11.7216117 45.6876457,10.7892108 46.2204462,11.0556111 C46.6200466,11.3220113 46.7532468,11.988012 46.8864469,12.5208125 L46.0872461,13.3200133 C45.954046,13.1868132 45.954046,13.1868132 45.8208458,13.1868132 C45.2880453,12.7872128 45.5544456,11.988012 45.1548452,11.5884116 C44.8884449,11.1888112 44.7552448,11.7216117 44.3556444,11.3220113 C43.956044,10.9224109 44.2224442,10.1232101 43.6896437,10.1232101 C43.5564436,10.3896104 43.956044,10.9224109 43.6896437,11.0556111 C43.4232434,11.3220113 43.5564436,11.5884116 43.956044,11.7216117 C44.0892441,11.7216117 44.3556444,12.1212121 44.7552448,12.5208125 C42.0912421,10.6560107 39.027639,9.32400932 35.5644356,9.32400932 L35.5644356,5.46120546 Z M35.5644356,10.1232101 C39.2940393,10.2564103 42.7572428,11.7216117 45.1548452,14.2524143 L41.8248418,17.3160173 C40.0932401,15.7176157 37.962038,14.6520147 35.4312354,14.6520147 L35.4312354,10.1232101 L35.5644356,10.1232101 Z M35.5644356,15.4512155 C37.5624376,15.5844156 39.2940393,16.2504163 40.7592408,17.4492174 C40.4928405,17.5824176 40.2264402,17.7156177 40.3596404,17.8488178 C40.6260406,18.2484182 40.7592408,17.8488178 41.1588412,17.8488178 L41.2920413,17.8488178 L41.4252414,17.982018 L41.2920413,17.982018 C40.7592408,18.1152181 40.8924409,18.2484182 40.8924409,18.3816184 L40.4928405,18.7812188 C40.4928405,18.7812188 40.3596404,18.7812188 40.2264402,18.7812188 C39.027639,18.9144189 39.2940393,20.2464202 38.6280386,20.2464202 C37.962038,20.2464202 38.0952381,19.8468198 37.6956377,19.7136197 C37.2960373,19.5804196 37.2960373,20.3796204 36.8964369,19.98002 C36.4968365,19.5804196 38.3616384,19.047619 37.6956377,18.5148185 C37.1628372,18.1152181 37.2960373,19.98002 36.0972361,19.047619 C35.964036,18.9144189 35.6976357,18.9144189 35.5644356,18.9144189 L35.5644356,15.4512155 Z M36.0972361,29.8368298 C35.964036,30.1032301 35.8308358,30.2364302 35.5644356,30.5028305 L35.5644356,29.037629 L35.5644356,29.037629 L35.5644356,29.1708292 C35.4312354,29.8368298 36.4968365,28.9044289 36.0972361,29.8368298 Z M35.6976357,32.7672328 C35.964036,32.6340326 35.8308358,31.7016317 37.2960373,32.1012321 C37.8288378,32.2344322 38.2284382,32.3676324 38.6280386,32.2344322 C39.027639,32.2344322 38.8944389,30.9024309 39.1608392,30.5028305 C39.4272394,30.1032301 40.0932401,29.8368298 40.2264402,30.1032301 C40.4928405,30.3696304 40.0932401,30.5028305 39.5604396,30.9024309 C39.027639,31.3020313 39.1608392,31.7016317 39.5604396,31.8348318 C39.96004,31.968032 40.2264402,31.3020313 40.4928405,31.5684316 C39.5604396,32.2344322 38.6280386,32.7672328 37.5624376,33.033633 C37.2960373,32.9004329 37.4292374,32.6340326 36.4968365,32.7672328 C36.0972361,32.7672328 35.964036,32.9004329 35.6976357,32.9004329 L35.6976357,32.7672328 L35.6976357,32.7672328 Z M37.2960373,38.0952381 C37.4292374,38.2284382 37.5624376,38.4948385 37.5624376,38.7612388 C36.8964369,38.8944389 36.2304362,38.8944389 35.4312354,39.027639 L35.4312354,38.2284382 C36.3636364,37.962038 37.029637,37.6956377 37.2960373,38.0952381 Z M38.2284382,39.2940393 C39.2940393,39.96004 38.4948385,40.4928405 38.8944389,41.025641 C39.2940393,41.5584416 39.96004,42.2244422 40.4928405,42.6240426 C38.8944389,43.023643 37.2960373,43.2900433 35.5644356,43.4232434 L35.5644356,39.6936397 C36.4968365,39.6936397 37.2960373,39.5604396 38.2284382,39.2940393 Z M34.7652348,0.932400932 L34.7652348,4.7952048 C29.4372294,4.7952048 24.7752248,6.92640693 21.3120213,10.3896104 L18.5148185,7.72560773 C22.6440226,3.5964036 28.3716284,0.932400932 34.7652348,0.932400932 Z M33.6996337,19.047619 C33.1668332,18.9144189 33.3000333,20.2464202 32.3676324,20.3796204 C31.968032,20.3796204 31.7016317,20.3796204 31.5684316,20.3796204 L28.9044289,17.8488178 C30.3696304,16.3836164 32.5008325,15.4512155 34.6320346,15.3180153 L34.6320346,18.9144189 C34.3656344,19.1808192 34.0992341,19.1808192 33.6996337,19.047619 Z M34.7652348,19.8468198 L34.7652348,19.8468198 C34.6320346,19.98002 34.4988345,19.98002 34.3656344,19.98002 C34.3656344,19.7136197 34.4988345,19.7136197 34.7652348,19.8468198 Z M25.1748252,32.3676324 C25.1748252,31.968032 24.7752248,31.968032 24.7752248,31.4352314 C24.7752248,30.9024309 24.6420246,30.3696304 24.5088245,30.1032301 C24.3756244,29.8368298 23.976024,28.5048285 23.8428238,27.972028 C23.7096237,27.5724276 23.4432234,27.3060273 23.3100233,27.1728272 C23.5764236,26.5068265 23.043623,26.3736264 23.043623,26.1072261 C23.043623,25.8408258 23.8428238,25.974026 23.8428238,25.7076257 C23.8428238,25.4412254 23.5764236,24.9084249 24.5088245,24.9084249 C24.7752248,24.9084249 24.9084249,24.7752248 24.9084249,24.6420246 L25.3080253,24.6420246 C25.3080253,24.6420246 25.3080253,24.6420246 25.4412254,24.6420246 C25.4412254,24.9084249 25.4412254,25.1748252 25.4412254,25.4412254 C25.4412254,25.4412254 25.3080253,25.4412254 25.3080253,25.4412254 C25.041625,25.4412254 24.7752248,25.1748252 24.6420246,25.1748252 C24.1092241,25.1748252 24.6420246,25.4412254 24.6420246,25.8408258 C24.6420246,26.5068265 24.3756244,26.2404262 24.2424242,26.5068265 C24.1092241,26.7732268 24.3756244,26.9064269 24.7752248,27.039627 C25.3080253,27.1728272 24.6420246,26.2404262 25.1748252,25.974026 C25.3080253,25.974026 25.4412254,25.974026 25.5744256,25.974026 C25.8408258,27.8388278 26.7732268,29.4372294 27.8388278,30.7692308 L24.9084249,33.5664336 L25.3080253,33.1668332 C25.3080253,33.4332334 25.1748252,32.7672328 25.1748252,32.3676324 Z M22.6440226,27.1728272 C22.5108225,27.1728272 22.5108225,27.3060273 22.2444222,27.3060273 C21.8448218,27.3060273 21.4452214,26.6400266 21.045621,26.6400266 C21.045621,26.6400266 21.045621,26.6400266 20.9124209,26.6400266 C20.7792208,26.1072261 20.7792208,25.4412254 20.7792208,24.9084249 L22.9104229,24.9084249 C22.6440226,25.1748252 22.3776224,25.5744256 22.3776224,26.1072261 C22.3776224,26.5068265 22.5108225,26.9064269 22.6440226,27.1728272 Z M21.8448218,36.8964369 L21.3120213,37.4292374 C21.1788212,37.2960373 21.1788212,37.1628372 21.045621,37.1628372 C21.3120213,37.029637 21.5784216,36.8964369 21.7116217,36.8964369 C21.7116217,36.7632368 21.7116217,36.7632368 21.8448218,36.8964369 Z M18.9144189,30.3696304 C18.3816184,30.5028305 18.2484182,30.3696304 17.5824176,30.3696304 C17.4492174,30.3696304 17.3160173,30.3696304 17.1828172,30.3696304 C16.6500167,28.6380286 16.2504163,26.7732268 16.2504163,24.7752248 L19.98002,24.7752248 C19.98002,25.4412254 20.1132201,26.1072261 20.1132201,26.7732268 C20.1132201,26.7732268 19.98002,26.9064269 19.98002,27.039627 C19.5804196,27.5724276 19.047619,27.972028 19.047619,28.5048285 C19.1808192,29.037629 19.4472194,30.2364302 18.9144189,30.3696304 Z M19.98002,24.1092241 L16.2504163,24.1092241 C16.3836164,19.3140193 18.2484182,14.9184149 21.3120213,11.5884116 L23.976024,14.2524143 C21.5784216,16.7832168 20.1132201,20.2464202 19.98002,24.1092241 Z M26.3736264,20.1132201 C26.1072261,20.2464202 25.8408258,20.2464202 25.7076257,20.3796204 C25.1748252,20.5128205 26.3736264,20.9124209 25.1748252,21.045621 C23.976024,21.1788212 23.7096237,22.2444222 23.7096237,23.043623 C23.7096237,23.4432234 23.5764236,23.7096237 23.4432234,24.1092241 L20.7792208,24.1092241 C20.9124209,20.5128205 22.2444222,17.3160173 24.5088245,14.7852148 L27.8388278,17.982018 C27.3060273,18.6480186 26.7732268,19.3140193 26.3736264,20.1132201 Z M28.3716284,18.5148185 L30.3696304,20.5128205 C29.97003,20.5128205 29.7036297,20.6460206 29.7036297,20.6460206 C29.7036297,20.6460206 29.7036297,19.5804196 28.3716284,19.5804196 C28.1052281,19.5804196 27.7056277,19.7136197 27.4392274,19.7136197 C27.7056277,19.3140193 28.1052281,18.9144189 28.3716284,18.5148185 Z M25.4412254,23.4432234 C25.4412254,23.7096237 25.4412254,23.8428238 25.4412254,24.1092241 L24.5088245,24.1092241 C24.5088245,23.976024 24.3756244,23.8428238 24.3756244,23.7096237 C24.2424242,23.3100233 25.041625,23.3100233 25.4412254,23.4432234 Z M26.3736264,26.5068265 C26.7732268,26.6400266 27.039627,26.6400266 27.3060273,26.7732268 C27.5724276,26.9064269 27.972028,27.039627 28.3716284,27.039627 C28.7712288,27.039627 28.6380286,27.4392274 28.6380286,27.5724276 C28.6380286,27.7056277 28.9044289,28.1052281 29.1708292,28.1052281 C29.4372294,28.1052281 29.037629,27.1728272 29.7036297,27.3060273 C29.97003,27.4392274 29.037629,28.7712288 29.97003,28.7712288 L28.2384282,30.3696304 C27.4392274,29.3040293 26.7732268,27.972028 26.3736264,26.5068265 Z M29.8368298,25.3080253 C29.97003,25.1748252 29.97003,25.041625 30.1032301,24.9084249 L30.6360306,24.9084249 C30.6360306,25.1748252 30.6360306,25.3080253 30.7692308,25.5744256 L30.7692308,25.5744256 C30.2364302,25.5744256 29.5704296,25.4412254 29.8368298,25.3080253 Z M31.1688312,27.039627 C31.3020313,27.039627 31.4352314,27.039627 31.4352314,27.1728272 C31.4352314,27.1728272 31.5684316,27.3060273 31.5684316,27.3060273 L30.2364302,28.6380286 C30.6360306,28.1052281 30.9024309,27.039627 31.1688312,27.039627 Z M28.3716284,17.3160173 L25.041625,14.1192141 C27.5724276,11.7216117 30.9024309,10.1232101 34.6320346,9.99000999 L34.6320346,14.6520147 C32.2344322,14.7852148 30.1032301,15.7176157 28.3716284,17.3160173 Z M24.5088245,13.5864136 L21.8448218,10.9224109 C25.1748252,7.59240759 29.7036297,5.59440559 34.7652348,5.46120546 L34.7652348,9.32400932 C30.7692308,9.32400932 27.1728272,11.0556111 24.5088245,13.5864136 Z M17.982018,8.39160839 L20.7792208,11.0556111 C17.5824176,14.5188145 15.5844156,19.047619 15.4512155,24.1092241 L11.5884116,24.1092241 C11.7216117,17.982018 14.1192141,12.5208125 17.982018,8.39160839 Z M11.5884116,24.9084249 L15.4512155,24.9084249 C15.4512155,26.7732268 15.8508159,28.6380286 16.2504163,30.3696304 C15.984016,30.3696304 15.8508159,30.3696304 15.8508159,30.3696304 L15.5844156,30.9024309 L15.0516151,30.6360306 C15.0516151,30.6360306 14.1192141,30.5028305 14.2524143,31.5684316 C14.2524143,32.2344322 14.3856144,33.1668332 15.1848152,33.1668332 C15.4512155,33.1668332 15.4512155,33.966034 15.8508159,33.966034 C16.2504163,34.0992341 16.2504163,33.6996337 16.5168165,33.8328338 C17.1828172,34.0992341 16.5168165,34.0992341 16.9164169,34.2324342 C17.1828172,34.4988345 17.3160173,34.4988345 17.7156177,34.6320346 C17.982018,34.8984349 17.7156177,35.1648352 18.1152181,35.2980353 C18.3816184,35.4312354 18.7812188,35.6976357 19.1808192,35.8308358 C19.7136197,36.6300366 20.2464202,37.2960373 20.9124209,37.962038 L18.1152181,40.6260406 C14.1192141,36.4968365 11.7216117,30.9024309 11.5884116,24.9084249 Z M34.7652348,48.0852481 C28.5048285,47.952048 22.6440226,45.4212454 18.5148185,41.1588412 L21.3120213,38.4948385 C24.7752248,41.958042 29.5704296,44.0892441 34.7652348,44.2224442 L34.7652348,48.0852481 Z M34.7652348,43.4232434 C29.7036297,43.2900433 25.1748252,41.2920413 21.8448218,37.962038 L22.6440226,37.2960373 C22.9104229,37.4292374 23.1768232,37.6956377 23.4432234,37.8288378 C23.976024,38.3616384 23.8428238,38.3616384 24.3756244,38.3616384 C24.9084249,38.2284382 25.1748252,37.8288378 25.974026,37.8288378 C26.7732268,37.6956377 26.9064269,37.8288378 27.1728272,37.4292374 L27.1728272,37.4292374 C29.4372294,38.8944389 32.1012321,39.6936397 34.8984349,39.8268398 L34.8984349,43.4232434 L34.7652348,43.4232434 Z M34.7652348,38.8944389 C32.1012321,38.7612388 29.4372294,37.962038 27.3060273,36.6300366 C27.3060273,36.4968365 27.3060273,36.2304362 27.1728272,36.0972361 C26.9064269,35.8308358 26.3736264,35.8308358 25.974026,35.2980353 C25.5744256,34.8984349 25.974026,34.6320346 25.4412254,34.3656344 L28.3716284,31.5684316 C29.5704296,32.7672328 31.1688312,33.6996337 33.033633,34.0992341 C32.7672328,34.3656344 32.5008325,34.6320346 32.5008325,34.7652348 C32.3676324,35.031635 32.3676324,35.2980353 32.2344322,35.5644356 C32.1012321,35.8308358 31.8348318,35.964036 31.8348318,36.2304362 C31.8348318,36.4968365 32.7672328,37.962038 33.5664336,38.2284382 C34.0992341,38.3616384 34.3656344,38.3616384 34.7652348,38.3616384 L34.7652348,38.8944389 Z M34.7652348,31.7016317 C33.966034,31.8348318 34.0992341,32.9004329 34.3656344,33.033633 C34.4988345,33.1668332 34.6320346,33.1668332 34.7652348,33.033633 L34.7652348,33.3000333 C32.5008325,33.1668332 30.5028305,32.2344322 29.037629,30.7692308 L32.2344322,27.5724276 C32.9004329,28.2384282 33.8328338,28.6380286 34.7652348,28.6380286 L34.7652348,31.7016317 Z M32.9004329,27.5724276 C32.9004329,27.5724276 32.9004329,27.5724276 32.9004329,27.5724276 C32.9004329,27.3060273 33.3000333,27.5724276 34.0992341,27.4392274 C34.4988345,27.4392274 35.1648352,25.974026 35.031635,25.4412254 C34.7652348,24.9084249 34.3656344,25.1748252 33.6996337,25.1748252 C32.9004329,25.3080253 33.3000333,26.1072261 33.033633,26.2404262 C32.7672328,26.3736264 32.7672328,27.039627 32.3676324,27.039627 C32.2344322,26.9064269 32.1012321,26.6400266 31.968032,26.5068265 C31.968032,26.5068265 31.968032,26.3736264 31.968032,26.3736264 C32.1012321,26.1072261 32.1012321,26.6400266 32.5008325,26.3736264 C32.9004329,26.1072261 33.033633,24.7752248 32.7672328,24.7752248 C32.5008325,24.7752248 32.6340326,25.5744256 32.1012321,25.5744256 C31.5684316,25.5744256 32.1012321,25.4412254 31.7016317,25.3080253 C31.7016317,25.3080253 31.5684316,25.3080253 31.5684316,25.3080253 C31.5684316,25.041625 31.4352314,24.7752248 31.4352314,24.5088245 C31.4352314,24.3756244 31.4352314,24.3756244 31.4352314,24.2424242 C31.8348318,24.3756244 31.5684316,25.041625 31.8348318,25.041625 C32.2344322,25.041625 32.1012321,24.2424242 32.2344322,23.976024 C32.3676324,23.7096237 32.7672328,24.1092241 32.9004329,23.976024 C33.033633,23.8428238 32.6340326,23.7096237 32.5008325,23.3100233 C32.5008325,23.043623 33.033633,22.9104229 33.3000333,22.6440226 C33.5664336,22.3776224 33.3000333,22.2444222 33.5664336,21.978022 C33.8328338,21.8448218 34.0992341,21.8448218 34.4988345,21.5784216 C34.7652348,21.4452214 34.7652348,21.045621 34.6320346,20.7792208 C34.7652348,20.7792208 34.8984349,20.7792208 35.031635,20.7792208 C35.031635,20.9124209 35.1648352,21.045621 35.4312354,21.1788212 C35.6976357,21.4452214 36.4968365,21.3120213 36.6300366,21.4452214 C36.7632368,22.5108225 37.6956377,22.2444222 37.5624376,22.6440226 C37.1628372,24.5088245 37.8288378,24.5088245 37.8288378,24.9084249 C37.962038,25.3080253 38.7612388,24.7752248 38.8944389,25.1748252 C39.027639,25.5744256 37.8288378,25.4412254 38.0952381,25.5744256 C38.3616384,25.8408258 38.0952381,26.7732268 37.8288378,27.039627 C37.4292374,27.4392274 36.4968365,26.6400266 36.3636364,27.5724276 C36.3636364,27.8388278 36.2304362,27.972028 35.964036,28.2384282 C35.6976357,28.2384282 35.4312354,28.3716284 35.1648352,28.3716284 C34.3656344,28.2384282 33.5664336,28.1052281 32.9004329,27.5724276 Z M35.5644356,48.0852481 L35.5644356,44.2224442 C37.5624376,44.2224442 39.5604396,43.8228438 41.2920413,43.2900433 C41.5584416,43.4232434 41.8248418,43.5564436 42.0912421,43.5564436 C42.4908425,43.5564436 43.8228438,42.6240426 44.7552448,41.6916417 C46.3536464,40.7592408 47.6856477,39.6936397 49.017649,38.4948385 L51.8148518,41.1588412 C47.5524476,45.2880453 41.8248418,47.952048 35.5644356,48.0852481 Z M52.3476523,40.6260406 L49.5504496,37.962038 C52.7472527,34.4988345 54.7452547,29.97003 54.8784549,24.9084249 L58.6080586,24.9084249 C58.6080586,30.9024309 56.2104562,36.4968365 52.3476523,40.6260406 Z M49.5504496,17.5824176 C49.2840493,17.7156177 49.5504496,19.3140193 49.95005,19.1808192 C50.3496503,19.047619 49.95005,17.4492174 49.5504496,17.5824176 Z M48.2184482,26.2404262 C47.5524476,26.3736264 47.952048,26.6400266 48.3516484,26.6400266 C48.7512488,26.6400266 49.017649,26.1072261 48.2184482,26.2404262 Z M45.954046,31.7016317 C46.2204462,31.5684316 45.954046,31.3020313 45.6876457,31.4352314 C45.2880453,31.7016317 45.5544456,31.8348318 45.954046,31.7016317 Z M39.8268398,18.5148185 C40.2264402,18.6480186 40.3596404,17.982018 40.0932401,17.8488178 C39.8268398,17.7156177 39.4272394,18.3816184 39.8268398,18.5148185 Z M39.4272394,18.6480186 C39.1608392,18.5148185 38.7612388,19.3140193 39.027639,19.4472194 C39.1608392,19.5804196 39.5604396,18.7812188 39.4272394,18.6480186 Z M37.5624376,26.1072261 C37.6956377,26.1072261 37.6956377,25.7076257 37.5624376,25.7076257 C37.4292374,25.7076257 37.4292374,26.1072261 37.5624376,26.1072261 Z M36.0972361,26.1072261 C36.0972361,25.974026 35.964036,25.974026 35.964036,25.974026 C35.8308358,25.974026 35.6976357,25.974026 35.6976357,26.1072261 C35.6976357,26.2404262 35.8308358,26.3736264 35.964036,26.3736264 C36.0972361,26.2404262 36.0972361,26.2404262 36.0972361,26.1072261 Z M34.3656344,27.7056277 C34.2324342,27.7056277 34.0992341,27.8388278 34.0992341,27.8388278 C34.0992341,27.972028 34.2324342,28.1052281 34.3656344,28.1052281 C34.4988345,28.1052281 34.6320346,27.972028 34.6320346,27.8388278 C34.6320346,27.7056277 34.4988345,27.7056277 34.3656344,27.7056277 Z M33.966034,24.3756244 C33.6996337,24.2424242 33.1668332,24.9084249 33.6996337,24.9084249 C34.3656344,25.041625 34.4988345,24.7752248 33.966034,24.3756244 Z M24.5088245,27.7056277 C24.2424242,27.972028 24.5088245,28.6380286 24.9084249,28.5048285 C25.4412254,28.2384282 24.9084249,27.4392274 24.5088245,27.7056277 Z M45.6876457,31.4352314 C45.4212454,31.7016317 45.6876457,31.8348318 45.954046,31.7016317 C46.2204462,31.5684316 45.954046,31.3020313 45.6876457,31.4352314 Z M48.2184482,26.2404262 C47.5524476,26.3736264 47.952048,26.6400266 48.3516484,26.6400266 C48.7512488,26.6400266 49.017649,26.1072261 48.2184482,26.2404262 Z M49.5504496,17.5824176 C49.2840493,17.7156177 49.5504496,19.3140193 49.95005,19.1808192 C50.3496503,19.047619 49.95005,17.4492174 49.5504496,17.5824176 Z M39.4272394,18.6480186 C39.1608392,18.5148185 38.7612388,19.3140193 39.027639,19.4472194 C39.1608392,19.5804196 39.5604396,18.7812188 39.4272394,18.6480186 Z M40.0932401,17.8488178 C39.8268398,17.7156177 39.4272394,18.5148185 39.8268398,18.5148185 C40.2264402,18.6480186 40.3596404,17.982018 40.0932401,17.8488178 Z M24.5088245,27.7056277 C24.2424242,27.972028 24.5088245,28.6380286 24.9084249,28.5048285 C25.4412254,28.2384282 24.9084249,27.4392274 24.5088245,27.7056277 Z M33.966034,24.3756244 C33.6996337,24.2424242 33.1668332,24.9084249 33.6996337,24.9084249 C34.3656344,25.041625 34.4988345,24.7752248 33.966034,24.3756244 Z M34.3656344,27.7056277 C34.2324342,27.7056277 34.0992341,27.8388278 34.0992341,27.8388278 C34.0992341,27.972028 34.2324342,28.1052281 34.3656344,28.1052281 C34.4988345,28.1052281 34.6320346,27.972028 34.6320346,27.8388278 C34.6320346,27.7056277 34.4988345,27.7056277 34.3656344,27.7056277 Z M35.964036,25.974026 C35.8308358,25.974026 35.6976357,25.974026 35.6976357,26.1072261 C35.6976357,26.2404262 35.8308358,26.3736264 35.964036,26.3736264 C36.0972361,26.3736264 36.0972361,26.2404262 36.0972361,26.2404262 C36.0972361,25.974026 36.0972361,25.974026 35.964036,25.974026 Z M37.5624376,25.7076257 C37.4292374,25.7076257 37.4292374,26.1072261 37.5624376,26.1072261 C37.5624376,26.1072261 37.6956377,25.7076257 37.5624376,25.7076257 Z M49.5504496,17.5824176 C49.2840493,17.7156177 49.5504496,19.3140193 49.95005,19.1808192 C50.3496503,19.047619 49.95005,17.4492174 49.5504496,17.5824176 Z M48.2184482,26.2404262 C47.5524476,26.3736264 47.952048,26.6400266 48.3516484,26.6400266 C48.7512488,26.6400266 49.017649,26.1072261 48.2184482,26.2404262 Z M45.6876457,31.4352314 C45.4212454,31.7016317 45.6876457,31.8348318 45.954046,31.7016317 C46.2204462,31.5684316 45.954046,31.3020313 45.6876457,31.4352314 Z M40.0932401,17.8488178 C39.8268398,17.7156177 39.4272394,18.5148185 39.8268398,18.5148185 C40.2264402,18.6480186 40.3596404,17.982018 40.0932401,17.8488178 Z M39.4272394,18.6480186 C39.1608392,18.5148185 38.7612388,19.3140193 39.027639,19.4472194 C39.1608392,19.5804196 39.5604396,18.7812188 39.4272394,18.6480186 Z M37.5624376,25.7076257 C37.4292374,25.7076257 37.4292374,26.1072261 37.5624376,26.1072261 C37.5624376,26.1072261 37.6956377,25.7076257 37.5624376,25.7076257 Z M35.964036,25.974026 C35.8308358,25.974026 35.6976357,25.974026 35.6976357,26.1072261 C35.6976357,26.2404262 35.8308358,26.3736264 35.964036,26.3736264 C36.0972361,26.3736264 36.0972361,26.2404262 36.0972361,26.2404262 C36.0972361,25.974026 36.0972361,25.974026 35.964036,25.974026 Z M34.3656344,27.7056277 C34.2324342,27.7056277 34.0992341,27.8388278 34.0992341,27.8388278 C34.0992341,27.972028 34.2324342,28.1052281 34.3656344,28.1052281 C34.4988345,28.1052281 34.6320346,27.972028 34.6320346,27.8388278 C34.6320346,27.7056277 34.4988345,27.7056277 34.3656344,27.7056277 Z M33.966034,24.3756244 C33.6996337,24.2424242 33.1668332,24.9084249 33.6996337,24.9084249 C34.3656344,25.041625 34.4988345,24.7752248 33.966034,24.3756244 Z M24.5088245,27.7056277 C24.2424242,27.972028 24.5088245,28.6380286 24.9084249,28.5048285 C25.4412254,28.2384282 24.9084249,27.4392274 24.5088245,27.7056277 Z M45.6876457,31.4352314 C45.4212454,31.7016317 45.6876457,31.8348318 45.954046,31.7016317 C46.2204462,31.5684316 45.954046,31.3020313 45.6876457,31.4352314 Z M48.2184482,26.2404262 C47.5524476,26.3736264 47.952048,26.6400266 48.3516484,26.6400266 C48.7512488,26.6400266 49.017649,26.1072261 48.2184482,26.2404262 Z M49.5504496,17.5824176 C49.2840493,17.7156177 49.5504496,19.3140193 49.95005,19.1808192 C50.3496503,19.047619 49.95005,17.4492174 49.5504496,17.5824176 Z M39.4272394,18.6480186 C39.1608392,18.5148185 38.7612388,19.3140193 39.027639,19.4472194 C39.1608392,19.5804196 39.5604396,18.7812188 39.4272394,18.6480186 Z M40.0932401,17.8488178 C39.8268398,17.7156177 39.4272394,18.5148185 39.8268398,18.5148185 C40.2264402,18.6480186 40.3596404,17.982018 40.0932401,17.8488178 Z M24.5088245,27.7056277 C24.2424242,27.972028 24.5088245,28.6380286 24.9084249,28.5048285 C25.4412254,28.2384282 24.9084249,27.4392274 24.5088245,27.7056277 Z M33.966034,24.3756244 C33.6996337,24.2424242 33.1668332,24.9084249 33.6996337,24.9084249 C34.3656344,25.041625 34.4988345,24.7752248 33.966034,24.3756244 Z M34.3656344,27.7056277 C34.2324342,27.7056277 34.0992341,27.8388278 34.0992341,27.8388278 C34.0992341,27.972028 34.2324342,28.1052281 34.3656344,28.1052281 C34.4988345,28.1052281 34.6320346,27.972028 34.6320346,27.8388278 C34.6320346,27.7056277 34.4988345,27.7056277 34.3656344,27.7056277 Z M35.964036,25.974026 C35.8308358,25.974026 35.6976357,25.974026 35.6976357,26.1072261 C35.6976357,26.2404262 35.8308358,26.3736264 35.964036,26.3736264 C36.0972361,26.3736264 36.0972361,26.2404262 36.0972361,26.2404262 C36.0972361,25.974026 36.0972361,25.974026 35.964036,25.974026 Z M37.5624376,25.7076257 C37.4292374,25.7076257 37.4292374,26.1072261 37.5624376,26.1072261 C37.5624376,26.1072261 37.6956377,25.7076257 37.5624376,25.7076257 Z M49.5504496,17.5824176 C49.2840493,17.7156177 49.5504496,19.3140193 49.95005,19.1808192 C50.3496503,19.047619 49.95005,17.4492174 49.5504496,17.5824176 Z M48.2184482,26.2404262 C47.5524476,26.3736264 47.952048,26.6400266 48.3516484,26.6400266 C48.7512488,26.6400266 49.017649,26.1072261 48.2184482,26.2404262 Z M45.6876457,31.4352314 C45.4212454,31.7016317 45.6876457,31.8348318 45.954046,31.7016317 C46.2204462,31.5684316 45.954046,31.3020313 45.6876457,31.4352314 Z M40.0932401,17.8488178 C39.8268398,17.7156177 39.4272394,18.5148185 39.8268398,18.5148185 C40.2264402,18.6480186 40.3596404,17.982018 40.0932401,17.8488178 Z M39.4272394,18.6480186 C39.1608392,18.5148185 38.7612388,19.3140193 39.027639,19.4472194 C39.1608392,19.5804196 39.5604396,18.7812188 39.4272394,18.6480186 Z M37.5624376,25.7076257 C37.4292374,25.7076257 37.4292374,26.1072261 37.5624376,26.1072261 C37.5624376,26.1072261 37.6956377,25.7076257 37.5624376,25.7076257 Z M35.964036,25.974026 C35.8308358,25.974026 35.6976357,25.974026 35.6976357,26.1072261 C35.6976357,26.2404262 35.8308358,26.3736264 35.964036,26.3736264 C36.0972361,26.3736264 36.0972361,26.2404262 36.0972361,26.2404262 C36.0972361,25.974026 36.0972361,25.974026 35.964036,25.974026 Z M34.3656344,27.7056277 C34.2324342,27.7056277 34.0992341,27.8388278 34.0992341,27.8388278 C34.0992341,27.972028 34.2324342,28.1052281 34.3656344,28.1052281 C34.4988345,28.1052281 34.6320346,27.972028 34.6320346,27.8388278 C34.6320346,27.7056277 34.4988345,27.7056277 34.3656344,27.7056277 Z M33.966034,24.3756244 C33.6996337,24.2424242 33.1668332,24.9084249 33.6996337,24.9084249 C34.3656344,25.041625 34.4988345,24.7752248 33.966034,24.3756244 Z M24.5088245,27.7056277 C24.2424242,27.972028 24.5088245,28.6380286 24.9084249,28.5048285 C25.4412254,28.2384282 24.9084249,27.4392274 24.5088245,27.7056277 Z" id="Shape"></path>
                        </g>
                        <polygon id="Path" fill="#458BCA" points="85.6476856 44.7552448 85.6476856 54.2124542 84.4488844 54.2124542 84.4488844 50.0832501 79.2540793 50.0832501 79.2540793 54.2124542 78.0552781 54.2124542 78.0552781 44.7552448 79.2540793 44.7552448 79.2540793 48.8844489 84.4488844 48.8844489 84.4488844 44.7552448"></polygon>
                        <path d="M99.5004995,44.7552448 L98.3016983,44.7552448 L94.039294,54.2124542 L95.3712954,54.2124542 L96.3036963,51.9480519 L101.232101,51.9480519 L102.164502,54.2124542 L103.496503,54.2124542 L99.5004995,44.7552448 Z M96.969697,50.7492507 L98.967699,46.3536464 L100.965701,50.7492507 L96.969697,50.7492507 Z" id="Shape" fill="#458BCA"></path>
                        <polygon id="Path" fill="#458BCA" points="119.480519 44.7552448 119.480519 54.2124542 118.814519 54.2124542 118.814519 54.0792541 113.220113 47.4192474 113.220113 54.2124542 112.021312 54.2124542 112.021312 44.7552448 112.687313 44.7552448 112.820513 44.7552448 118.281718 51.5484515 118.281718 44.7552448"></polygon>
                        <path d="M135.997336,45.954046 C135.198135,45.021645 133.999334,44.4888445 132.400932,44.4888445 C131.335331,44.4888445 130.536131,44.7552448 129.73693,45.1548452 C129.070929,45.5544456 128.404928,46.2204462 128.138528,47.019647 C127.738928,47.6856477 127.605728,48.4848485 127.605728,49.4172494 C127.605728,50.0832501 127.738928,50.6160506 127.872128,51.2820513 C128.138528,51.8148518 128.404928,52.3476523 128.804529,52.8804529 C129.204129,53.2800533 129.73693,53.6796537 130.26973,53.9460539 C130.935731,54.2124542 131.601732,54.3456543 132.400932,54.3456543 C133.200133,54.3456543 133.866134,54.2124542 134.532135,53.9460539 C135.198135,53.6796537 135.597736,53.2800533 135.997336,52.8804529 C136.396936,52.3476523 136.663337,51.8148518 136.929737,51.2820513 C137.196137,50.7492507 137.196137,50.0832501 137.196137,49.4172494 C137.196137,48.0852481 136.796537,47.019647 135.997336,45.954046 Z M135.597736,51.2820513 C135.331335,51.8148518 134.931735,52.2144522 134.398934,52.6140526 C133.866134,53.013653 133.200133,53.1468531 132.400932,53.1468531 C131.335331,53.1468531 130.40293,52.7472527 129.87013,52.0812521 C129.204129,51.4152514 128.937729,50.4828505 128.937729,49.4172494 C128.937729,48.3516484 129.204129,47.5524476 129.87013,46.7532468 C130.536131,46.0872461 131.335331,45.6876457 132.534133,45.6876457 C133.732934,45.6876457 134.532135,46.0872461 135.198135,46.7532468 C135.864136,47.4192474 136.130536,48.3516484 136.130536,49.4172494 C135.997336,50.0832501 135.864136,50.7492507 135.597736,51.2820513 Z" id="Shape" fill="#458BCA"></path>
                        <rect id="Rectangle" fill="#458BCA" x="145.454545" y="44.7552448" width="1.1988012" height="9.45720946"></rect>
                        <g id="Group" transform="translate(73.260073, 0.000000)" fill="#00528A">
                            <path d="M89.6436896,36.0972361 L89.6436896,38.7612388 L73.6596737,38.7612388 L73.6596737,36.0972361 L73.9260739,36.0972361 C75.2580753,36.0972361 76.1904762,35.964036 76.7232767,35.6976357 C77.2560773,35.4312354 77.6556777,35.1648352 77.7888778,34.7652348 C77.9220779,34.3656344 78.0552781,33.6996337 78.0552781,32.7672328 L78.0552781,13.8528139 C78.0552781,13.0536131 77.9220779,12.3876124 77.7888778,11.8548119 C77.6556777,11.4552115 77.2560773,11.1888112 76.7232767,10.9224109 C76.3236763,10.7892108 75.7908758,10.6560107 74.991675,10.5228105 L74.7252747,10.5228105 L74.7252747,7.85880786 L88.8444888,7.85880786 C88.4448884,8.79120879 88.1784882,9.59040959 87.9120879,10.5228105 C87.3792874,10.5228105 86.8464868,10.6560107 86.4468864,10.7892108 C85.9140859,11.0556111 85.5144855,11.3220113 85.3812854,11.7216117 C85.2480852,12.2544123 85.1148851,12.9204129 85.1148851,13.7196137 L85.1148851,32.7672328 C85.1148851,33.5664336 85.2480852,34.2324342 85.3812854,34.6320346 C85.5144855,35.031635 85.9140859,35.4312354 86.4468864,35.5644356 C86.979687,35.8308358 88.045288,35.964036 89.2440892,35.964036 L89.6436896,35.964036 L89.6436896,36.0972361 Z" id="Path"></path>
                            <path d="M32.3676324,7.85880786 L32.3676324,10.5228105 L31.968032,10.5228105 C31.8348318,10.5228105 31.7016317,10.5228105 31.5684316,10.5228105 C30.9024309,10.6560107 30.3696304,10.6560107 30.1032301,10.9224109 C29.5704296,11.1888112 29.3040293,11.5884116 29.1708292,12.1212121 C29.037629,12.6540127 29.037629,13.5864136 29.037629,14.7852148 L29.037629,25.974026 C29.037629,27.972028 28.9044289,29.5704296 28.7712288,30.6360306 L28.7712288,30.7692308 C28.6380286,31.8348318 28.2384282,32.9004329 27.5724276,33.966034 C26.3736264,36.0972361 24.7752248,37.5624376 22.6440226,38.3616384 C20.6460206,39.1608392 18.6480186,39.5604396 16.6500167,39.5604396 L16.5168165,39.5604396 C15.1848152,39.5604396 13.7196137,39.4272394 12.2544123,39.027639 C10.7892108,38.6280386 9.32400932,38.0952381 8.12520813,37.1628372 C6.79320679,36.2304362 5.72760573,35.1648352 5.06160506,33.8328338 C4.66200466,33.1668332 4.3956044,32.3676324 4.26240426,31.5684316 C4.12920413,30.7692308 3.996004,30.1032301 3.86280386,29.4372294 C3.86280386,28.7712288 3.86280386,27.8388278 3.86280386,26.7732268 L3.86280386,14.1192141 C3.86280386,13.3200133 3.72960373,12.6540127 3.5964036,12.1212121 C3.46320346,11.7216117 3.06360306,11.4552115 2.53080253,11.1888112 C2.26440226,11.0556111 1.06560107,10.9224109 0.3996004,10.7892108 L0.133200133,10.7892108 L0.133200133,8.12520813 L14.1192141,8.12520813 L14.1192141,10.7892108 L13.8528139,10.7892108 C13.1868132,10.7892108 12.6540127,10.9224109 12.1212121,11.1888112 C11.5884116,11.4552115 11.1888112,11.7216117 11.0556111,12.1212121 C10.9224109,12.6540127 10.7892108,13.3200133 10.7892108,14.1192141 L10.7892108,29.3040293 C10.7892108,29.4372294 10.7892108,29.7036297 10.7892108,29.8368298 C10.9224109,30.7692308 11.0556111,31.5684316 11.3220113,32.3676324 C11.8548119,33.4332334 12.6540127,34.3656344 13.7196137,35.1648352 C14.9184149,35.8308358 16.2504163,36.2304362 17.5824176,36.2304362 L17.8488178,36.2304362 C19.3140193,36.2304362 20.7792208,35.8308358 22.1112221,35.1648352 C23.4432234,34.4988345 24.2424242,33.4332334 24.7752248,32.3676324 C25.1748252,31.4352314 25.4412254,30.5028305 25.5744256,29.4372294 C25.7076257,28.3716284 25.7076257,27.1728272 25.7076257,25.8408258 L25.7076257,14.9184149 C25.7076257,13.986014 25.7076257,13.1868132 25.5744256,12.7872128 C25.5744256,12.3876124 25.3080253,11.988012 25.1748252,11.7216117 C24.9084249,11.4552115 24.5088245,11.1888112 23.976024,11.0556111 C23.5764236,10.9224109 22.9104229,10.9224109 22.1112221,10.7892108 L21.8448218,10.7892108 L21.8448218,8.12520813 L32.3676324,8.12520813 L32.3676324,7.85880786 Z" id="Path"></path>
                            <path d="M116.683317,39.8268398 C115.884116,45.1548452 111.488511,50.0832501 104.695305,53.2800533 C99.7668998,55.5444555 94.1724942,56.8764569 88.8444888,56.8764569 C87.7788878,56.8764569 86.7132867,56.8764569 85.6476856,56.7432567 L86.3136863,54.3456543 C97.7688978,52.3476523 105.228105,46.7532468 106.027306,41.8248418 C106.959707,36.3636364 104.695305,33.1668332 101.498501,28.5048285 C98.3016983,23.7096237 94.7052947,20.2464202 94.5720946,15.5844156 C94.5720946,12.2544123 95.9040959,9.05760906 98.967699,6.66000666 C102.031302,4.26240426 105.894106,2.7972028 108.558109,1.73160173 C109.62371,1.33200133 111.888112,0.666000666 113.886114,7.98562016e-15 L113.220113,2.3976024 C109.89011,4.12920413 103.896104,6.66000666 103.230103,10.1232101 C102.697303,12.9204129 103.230103,14.7852148 104.961705,17.1828172 C106.426906,19.3140193 108.025308,21.4452214 109.62371,23.4432234 C110.15651,24.1092241 110.689311,24.7752248 111.088911,25.4412254 C114.152514,29.4372294 117.615718,34.4988345 116.683317,39.8268398 Z" id="Path"></path>
                            <path d="M69.6636697,7.85880786 L69.6636697,10.5228105 L69.3972694,10.5228105 C68.7312687,10.5228105 68.1984682,10.6560107 67.6656677,10.7892108 C67.1328671,11.0556111 66.7332667,11.3220113 66.4668665,11.7216117 C66.3336663,12.1212121 66.2004662,12.7872128 66.2004662,13.7196137 L66.2004662,39.027639 L63.1368631,39.027639 L63.003663,38.8944389 L43.956044,15.984016 L43.956044,31.968032 C43.956044,33.1668332 44.0892441,34.0992341 44.2224442,34.6320346 C44.3556444,35.1648352 44.7552448,35.4312354 45.2880453,35.8308358 C45.8208458,36.0972361 46.8864469,36.2304362 48.2184482,36.2304362 L48.4848485,36.2304362 L48.4848485,38.8944389 L36.6300366,38.8944389 L36.6300366,36.2304362 L36.8964369,36.2304362 C38.2284382,36.2304362 39.1608392,36.0972361 39.6936397,35.8308358 C40.2264402,35.5644356 40.4928405,35.1648352 40.6260406,34.7652348 C40.7592408,34.2324342 40.7592408,33.3000333 40.7592408,32.1012321 L40.7592408,13.7196137 C40.7592408,12.9204129 40.6260406,12.2544123 40.4928405,11.7216117 C40.3596404,11.3220113 39.96004,11.0556111 39.4272394,10.7892108 C39.027639,10.6560107 38.3616384,10.5228105 37.6956377,10.5228105 L37.4292374,10.5228105 L37.4292374,7.85880786 L45.8208458,7.85880786 L62.6040626,27.5724276 L62.6040626,13.7196137 C62.6040626,12.9204129 62.4708625,12.2544123 62.3376623,11.7216117 C62.2044622,11.3220113 61.8048618,11.0556111 61.1388611,10.7892108 C61.1388611,10.7892108 61.005661,10.7892108 61.005661,10.7892108 C60.8724609,10.7892108 60.8724609,10.7892108 60.7392607,10.6560107 C60.6060606,10.6560107 60.4728605,10.6560107 60.4728605,10.6560107 C60.3396603,10.6560107 60.2064602,10.6560107 60.0732601,10.6560107 C59.9400599,10.6560107 59.8068598,10.6560107 59.6736597,10.6560107 L59.4072594,10.6560107 L59.4072594,7.99200799 L69.6636697,7.99200799 L69.6636697,7.85880786 Z" id="Path"></path>
                        </g>
                    </g>
                </g>
            </g>
        </g>
    </g>
</svg>