<svg xmlns="http://www.w3.org/2000/svg" xmlns:xlink="http://www.w3.org/1999/xlink" viewBox="0 0 29.46 17.19"><defs><style>.cls-1{fill:none;}.cls-2{clip-path:url(#clip-path);}.cls-3{fill:#bc0030;}</style><clipPath id="clip-path"><rect class="cls-1" width="29.46" height="17.19"/></clipPath></defs><g id="Layer_2" data-name="Layer 2"><g id="Layer_1-2" data-name="Layer 1"><g id="EUROPE"><g id="ALBANIA"><g class="cls-2"><rect class="cls-3" width="29.46" height="17.19"/><g class="cls-2"><path d="M19.47,10.92a.28.28,0,0,0-.16-.05.58.58,0,0,1-.18,0,.26.26,0,0,0-.29,0c-.06.05-.09.06-.32.08s-.42,0-.42,0l.18-.13c.14-.09.19-.11.24-.1a.39.39,0,0,0,.3-.12c.09-.09.11-.1.3-.09h.08a.29.29,0,0,0-.34-.19.21.21,0,0,1-.17,0,.31.31,0,0,0-.35.18.93.93,0,0,1-.38.31l-.16.11-.32-.13a3.43,3.43,0,0,1-.65-.29l.1-.13.1-.12-.14-.08a2,2,0,0,1-1-1c-.11-.28-.05-.34.08-.09a.94.94,0,0,0,.32.38c.15.09.23.11.29.06s.05-.14-.05-.25-.27-.62-.1-.62.08,0,.22.33a1.8,1.8,0,0,0,.54.82c.13.07.35,0,.38-.1s0-.14-.15-.24A1,1,0,0,1,17,8.76c0-.11,0-.13,0-.18s.09-.05.25.17a4.61,4.61,0,0,0,1,1.12.8.8,0,0,0,1,0,.21.21,0,0,0,.08-.16c0-.1-.08-.15-.25-.14-.39,0-.43,0-.58-.06a1.94,1.94,0,0,1-.8-.93c-.21-.43-.16-.45.2-.09s.87.67,1.22.56c.18,0,.34-.2.34-.32s-.06-.16-.25-.15h-.35a.47.47,0,0,1-.34-.07,1.65,1.65,0,0,1-.3-.21,3,3,0,0,1-.62-.84c0-.11.09-.07.33.14a4.14,4.14,0,0,0,.69.48,1.06,1.06,0,0,0,.32,0,.5.5,0,0,0,.31-.06.32.32,0,0,0,.21-.29c0-.22-.09-.27-.4-.19s-.67,0-1.08-.38c-.19-.2-.26-.31-.24-.37s.11,0,.49.15a1.42,1.42,0,0,0,.72.25.48.48,0,0,0,.38-.13c.16-.13.2-.29.1-.38a.36.36,0,0,0-.41,0,1,1,0,0,1-.26.08,1.3,1.3,0,0,1-.88-.33c-.14-.14-.2-.26-.17-.31s.1,0,.25,0a1.47,1.47,0,0,0,.67.17,1.06,1.06,0,0,0,.62-.17c.17-.09.28-.21.28-.29a.27.27,0,0,0-.05-.13c-.06-.1-.17-.1-.39,0a1,1,0,0,1-1,.11,1.26,1.26,0,0,1-.39-.37c0-.07,0-.08,0-.11s.06,0,.39.08a1.22,1.22,0,0,0,.43.09,1.12,1.12,0,0,0,.58-.1A.78.78,0,0,0,19.5,5a.26.26,0,0,0-.1-.21c-.1,0-.15,0-.3.14a1,1,0,0,1-.83.33c-.39,0-.54-.06-.54-.21s.07-.16.23-.19a2.72,2.72,0,0,0,1.34-.61c.18-.16.25-.28.25-.41a.3.3,0,0,0-.2-.31c-.11,0-.19,0-.3.2a1.67,1.67,0,0,1-.74.64,2.59,2.59,0,0,1-.62.21.21.21,0,0,1-.07-.1c-.05-.15-.06-.15-.28-.06l-.5.2c-.33.11-.44.19-.52.34a.68.68,0,0,0-.05.36c0,.25,0,.28-.05.35a.27.27,0,0,1-.26.12c-.21,0-.32-.12-.33-.35a1,1,0,0,1,.12-.55,1.07,1.07,0,0,1,.4-.45,1.43,1.43,0,0,1,.65-.21A.75.75,0,0,0,17.35,4a.58.58,0,0,1-.48,0h.52a.63.63,0,0,0,.36-.15c.12-.09.2-.16.17-.22s-.12,0-.18,0l-.13.14c-.07.08-.08.09-.29.12a.64.64,0,0,1-.28,0L17,3.75s.09-.08.17-.09a.79.79,0,0,1,.3.06l-.06-.14c-.06-.1-.15-.14-.38-.15s-.22,0-.26,0a.25.25,0,0,0-.08-.07.22.22,0,0,0-.12,0,1.55,1.55,0,0,0-.6.14.59.59,0,0,1-.31.07l-.24,0c-.18-.05-.21-.05-.21,0s.15.17.26.23.09,0,.07.08a.65.65,0,0,1-.28.19c-.11,0-.11.08,0,.13l.09.07c0,.07-.21.21-.31.21s-.08.09.05.12.08,0,0,.1-.13.11-.21.09-.09,0-.05.1,0,.07,0,.1,0,0-.07,0H14.7s0,0-.07,0,0,0,0-.1,0-.11-.05-.1a.2.2,0,0,1-.21-.09c-.07-.07-.07-.08,0-.1s.18-.12,0-.12-.31-.14-.31-.21l.09-.07c.12-.05.12-.09,0-.13a.63.63,0,0,1-.29-.19s0,0,.07-.08.26-.19.26-.23,0,0-.2,0l-.25,0a.53.53,0,0,1-.3-.07,1.63,1.63,0,0,0-.61-.14c-.05,0-.09,0-.11,0a.2.2,0,0,0-.09.07s-.09,0-.25,0-.33,0-.39.15L12,3.72a.79.79,0,0,1,.3-.06c.08,0,.17.06.17.09l-.06.06a.64.64,0,0,1-.28,0c-.21,0-.22,0-.29-.12l-.13-.14c-.06-.07-.15-.08-.18,0s.05.13.17.22a.63.63,0,0,0,.36.15h.52a.58.58,0,0,1-.48,0,.75.75,0,0,0,.55.23,1.43,1.43,0,0,1,.65.21,1,1,0,0,1,.4.45,1,1,0,0,1,.12.55c0,.23-.12.35-.33.35a.27.27,0,0,1-.26-.12c0-.07-.05-.1-.05-.35a.68.68,0,0,0,0-.36c-.08-.15-.19-.23-.52-.34l-.5-.2c-.22-.09-.23-.09-.28.06a.21.21,0,0,1-.07.1,2.42,2.42,0,0,1-.61-.21,1.65,1.65,0,0,1-.75-.64c-.11-.18-.19-.23-.3-.2a.3.3,0,0,0-.19.31c0,.13.06.25.24.41a2.77,2.77,0,0,0,1.34.61c.16,0,.24.09.24.19s-.16.21-.55.21a1,1,0,0,1-.83-.33c-.15-.15-.2-.18-.3-.14A.26.26,0,0,0,10,5a.78.78,0,0,0,.45.53,1.12,1.12,0,0,0,.58.1,1.22,1.22,0,0,0,.43-.09c.33-.12.36-.12.39-.08s0,0,0,.11a1.26,1.26,0,0,1-.39.37,1,1,0,0,1-1-.11c-.21-.12-.33-.12-.39,0a.27.27,0,0,0,0,.13c0,.08.11.2.28.29a1.06,1.06,0,0,0,.62.17,1.47,1.47,0,0,0,.67-.17c.15-.06.21-.07.25,0s0,.17-.16.31a1.35,1.35,0,0,1-.89.33,1,1,0,0,1-.26-.08.36.36,0,0,0-.41,0c-.1.09-.06.25.1.38a.52.52,0,0,0,.39.13A1.45,1.45,0,0,0,11.27,7c.37-.19.46-.21.48-.15s0,.17-.24.37c-.41.41-.64.49-1.08.38s-.41,0-.4.19a.32.32,0,0,0,.21.29.52.52,0,0,0,.31.06,1.06,1.06,0,0,0,.32,0,4.14,4.14,0,0,0,.69-.48c.24-.21.33-.25.33-.14a3,3,0,0,1-.62.84,1.17,1.17,0,0,1-.3.21.47.47,0,0,1-.34.07h-.35c-.19,0-.25,0-.25.15s.16.27.34.32c.35.11.74-.07,1.22-.56s.41-.34.2.09a1.89,1.89,0,0,1-.8.93c-.15.07-.19.08-.58.06-.17,0-.25,0-.25.14a.21.21,0,0,0,.08.16.8.8,0,0,0,1,0,4.82,4.82,0,0,0,1-1.12c.15-.22.19-.25.24-.17s0,.07,0,.18a1.1,1.1,0,0,1-.45.72c-.16.1-.19.15-.16.24s.25.17.38.1A1.8,1.8,0,0,0,12.8,9c.14-.31.15-.33.22-.33s.11.38-.1.62-.12.19-.05.25.14,0,.3-.06a.92.92,0,0,0,.31-.38c.13-.25.19-.19.08.09a1.94,1.94,0,0,1-1,1l-.13.08a.43.43,0,0,0,.09.12l.1.13a3.43,3.43,0,0,1-.65.29l-.32.13-.16-.11a.93.93,0,0,1-.38-.31.3.3,0,0,0-.34-.18.23.23,0,0,1-.18,0,.29.29,0,0,0-.34.19h.08c.2,0,.22,0,.3.09a.4.4,0,0,0,.31.12s.1,0,.23.1l.18.13s-.1,0-.42,0-.26,0-.32-.08a.26.26,0,0,0-.29,0,.53.53,0,0,1-.18,0,.28.28,0,0,0-.16.05.29.29,0,0,0-.13.17l.16,0c.15,0,.16,0,.21,0l.1.08a.42.42,0,0,0,.29,0,1.1,1.1,0,0,1,.39,0h.34s-.06.05-.15.11-.19.11-.33.1-.3.06-.33.18a1.54,1.54,0,0,0,0,.17c0,.12,0,.14,0,.34l.09-.2c.05-.07.07-.08.18-.08a.3.3,0,0,0,.28-.18c0-.09.07-.12.27-.25s.26-.17.57,0c.16.07.21.11.24.16a.2.2,0,0,0,.25.09c.11,0,.15,0,.22.09s0,0,.08.07a.57.57,0,0,0,0-.13c0-.09,0-.11-.13-.23s-.22-.17-.31-.13-.09,0-.21,0-.18-.11-.11-.11l.47-.17.44-.18.07.06a.94.94,0,0,0,.39.18c.08,0,.09,0,.11-.09a6.06,6.06,0,0,1,.43-.82c.23-.36.36-.45.46-.34s0,.08,0,.22a1.93,1.93,0,0,1-.53,1.22,1,1,0,0,1-.54.27c-.17,0-.27.06-.27.1a.37.37,0,0,0,.17.21.41.41,0,0,0,.24,0,.44.44,0,0,0,.32-.1c.15-.08.17-.09.2-.06s0,.05,0,.12-.17.25-.46.29-.39.12-.29.26a.36.36,0,0,0,.32.13.74.74,0,0,0,.52-.26c.08-.07.16-.13.17-.12a.49.49,0,0,1,0,.3.7.7,0,0,1-.26.3l-.18.05c-.24.07-.27.16-.11.27a.46.46,0,0,0,.43,0,1.38,1.38,0,0,0,.37-.35c0-.07.08,0,.07.09a.83.83,0,0,1-.18.36c-.09.13-.06.3.1.55a1,1,0,0,0,.26.29A1,1,0,0,0,15,13.6c.16-.25.2-.42.1-.55a.83.83,0,0,1-.18-.36c0-.11,0-.16.07-.09a1.38,1.38,0,0,0,.37.35.46.46,0,0,0,.43,0c.17-.11.13-.2-.11-.27l-.18-.05a.68.68,0,0,1-.25-.3.44.44,0,0,1,0-.3s.09.05.18.12a.7.7,0,0,0,.51.26.36.36,0,0,0,.32-.13c.1-.14,0-.22-.29-.26s-.41-.11-.45-.29,0-.09,0-.12.05,0,.2.06a.44.44,0,0,0,.32.1.41.41,0,0,0,.24,0,.4.4,0,0,0,.18-.21s-.11-.08-.27-.1a.93.93,0,0,1-.54-.27,2,2,0,0,1-.54-1.22c0-.14,0-.18,0-.22s.23,0,.46.34a5.09,5.09,0,0,1,.43.82c0,.08,0,.09.11.09a1,1,0,0,0,.4-.18l.06-.06.44.18.47.17c.07,0,0,0-.11.11s-.16.06-.2,0-.19,0-.32.13-.13.14-.13.23a.57.57,0,0,0,0,.13c.05,0,.05,0,.08-.07s.12-.12.22-.09a.2.2,0,0,0,.25-.09s.08-.09.24-.16c.31-.15.29-.15.57,0s.24.16.28.25.12.16.27.18.13,0,.18.08,0,0,.09.2c.08-.2.07-.22,0-.34l0-.17c0-.12-.14-.18-.34-.18s-.16,0-.32-.1l-.16-.11h.35a1.07,1.07,0,0,1,.38,0,.42.42,0,0,0,.29,0l.1-.08c.05,0,.06,0,.21,0l.16,0c0-.1-.07-.12-.13-.17M16.32,3.73c.05,0,0-.12.06-.11a.18.18,0,0,1,.09,0c.07,0,.11.09.07.13a.48.48,0,0,1-.33,0c-.09-.22.05,0,.11-.07m-3.06.07a.5.5,0,0,1-.34,0s0-.12.07-.13a.2.2,0,0,1,.1,0c.09,0,0,.08.05.11s.2-.15.12.07"/></g></g></g></g></g></g></svg>