<svg xmlns="http://www.w3.org/2000/svg" xmlns:xlink="http://www.w3.org/1999/xlink" viewBox="0 0 29.55 17.27"><defs><style>.cls-1{fill:none;}.cls-2{clip-path:url(#clip-path);}.cls-3{fill:#fff;}.cls-4{fill:#2f742e;}.cls-5{fill:#c0003b;}</style><clipPath id="clip-path" transform="translate(0.04 0.04)"><rect class="cls-1" width="29.46" height="17.19"/></clipPath></defs><g id="Layer_2" data-name="Layer 2"><g id="cá»"><g id="north_africa" data-name="north africa"><g class="cls-2"><rect class="cls-3" x="0.04" y="0.04" width="29.46" height="17.19"/><path d="M29.51,17.23H0V0H29.51V17.23ZM0,17.14H29.42V0H0v17.1Z" transform="translate(0.04 0.04)"/><rect class="cls-4" x="0.04" y="0.04" width="14.73" height="17.19"/><g class="cls-2"><path class="cls-5" d="M17.92,11.28a3.44,3.44,0,1,1,.53-4.84,4.3,4.3,0,1,0,0,4.3,3.87,3.87,0,0,1-.53.54Z" transform="translate(0.04 0.04)"/><polygon class="cls-5" points="16.26 9.42 17.18 10.68 17.18 9.12 18.66 8.64 17.18 8.15 17.18 6.59 16.26 7.86 14.78 7.38 15.69 8.64 14.78 9.9 16.26 9.42"/></g></g></g></g></g></svg>