<svg xmlns="http://www.w3.org/2000/svg" xmlns:xlink="http://www.w3.org/1999/xlink" viewBox="0 0 29.46 17.19"><defs><style>.cls-1{fill:none;}.cls-2{clip-path:url(#clip-path);}.cls-3{fill:#180087;}.cls-4{fill:#fff;}.cls-5{fill:#ea0020;}</style><clipPath id="clip-path"><rect class="cls-1" width="29.46" height="17.19"/></clipPath></defs><g id="Layer_2" data-name="Layer 2"><g id="cá»"><g id="ocenia"><g class="cls-2"><rect class="cls-3" width="29.46" height="17.19"/><polygon class="cls-4" points="7.75 10.53 8.2 11.93 9.57 11.41 8.76 12.63 10.02 13.37 8.56 13.5 8.76 14.95 7.75 13.89 6.74 14.95 6.94 13.5 5.48 13.37 6.74 12.63 5.93 11.41 7.3 11.93 7.75 10.53"/><polygon class="cls-4" points="23.25 13.04 23.47 13.7 24.12 13.46 23.73 14.04 24.33 14.39 23.64 14.45 23.73 15.14 23.25 14.64 22.77 15.14 22.87 14.45 22.17 14.39 22.77 14.04 22.39 13.46 23.04 13.7 23.25 13.04"/><polygon class="cls-4" points="19.38 6.9 19.59 7.57 20.24 7.32 19.86 7.9 20.46 8.26 19.76 8.32 19.86 9.01 19.38 8.5 18.9 9.01 18.99 8.32 18.3 8.26 18.9 7.9 18.51 7.32 19.16 7.57 19.38 6.9"/><polygon class="cls-4" points="23.25 2.71 23.47 3.37 24.12 3.12 23.73 3.7 24.33 4.06 23.64 4.12 23.73 4.81 23.25 4.3 22.77 4.81 22.87 4.12 22.17 4.06 22.77 3.7 22.39 3.12 23.04 3.37 23.25 2.71"/><polygon class="cls-4" points="26.7 5.87 26.91 6.53 27.56 6.29 27.18 6.87 27.78 7.22 27.08 7.29 27.18 7.98 26.7 7.47 26.22 7.98 26.31 7.29 25.62 7.22 26.22 6.87 25.83 6.29 26.48 6.53 26.7 5.87"/><polygon class="cls-4" points="24.8 8.98 24.97 9.39 25.42 9.43 25.08 9.71 25.18 10.15 24.8 9.91 24.42 10.15 24.53 9.71 24.19 9.43 24.64 9.39 24.8 8.98"/><polygon class="cls-4" points="6.46 0 6.46 2.58 0 2.58 0 5.17 6.46 5.17 6.46 7.75 9.04 7.75 9.04 5.17 15.5 5.17 15.5 2.58 9.04 2.58 9.04 0 6.46 0"/><polygon class="cls-4" points="0 0 0 0.87 13.77 7.75 15.5 7.75 15.5 6.88 1.73 0 0 0"/><polygon class="cls-4" points="13.77 0 0 6.88 0 7.75 1.73 7.75 15.5 0.87 15.5 0 13.77 0"/><polygon class="cls-5" points="6.98 0 6.98 3.1 0 3.1 0 4.65 6.98 4.65 6.98 7.75 8.53 7.75 8.53 4.65 15.5 4.65 15.5 3.1 8.53 3.1 8.53 0 6.98 0"/><path class="cls-5" d="M0,0V.58l4,2H5.17ZM14.35,0,9.18,2.58h1.15L15.5,0Z"/><path class="cls-5" d="M5.17,5.17,0,7.75H1.16L6.32,5.17Zm5.16,0L15.5,7.75V7.17l-4-2Z"/></g></g></g></g></svg>