<svg xmlns="http://www.w3.org/2000/svg" xmlns:xlink="http://www.w3.org/1999/xlink" viewBox="0 0 29.46 17.19"><defs><style>.cls-1{fill:none;}.cls-2{clip-path:url(#clip-path);}.cls-3,.cls-7{fill:#3c9242;}.cls-4{fill:#edc226;}.cls-5{fill:#2d146e;}.cls-6{fill:#fff;}.cls-7{fill-rule:evenodd;}</style><clipPath id="clip-path"><rect class="cls-1" width="29.46" height="17.19"/></clipPath></defs><g id="Layer_2" data-name="Layer 2"><g id="cá»"><g id="south_america" data-name="south america"><g class="cls-2"><rect class="cls-3" width="29.46" height="17.19"/><polygon class="cls-4" points="4.54 8.59 14.73 15.1 24.92 8.59 14.73 2.09 4.54 8.59"/><g class="cls-2"><path class="cls-5" d="M19,8.59a4.3,4.3,0,1,1-4.3-4.29A4.31,4.31,0,0,1,19,8.59"/><path class="cls-6" d="M12.28,6.75a10.31,10.31,0,0,0-1.48.11,5,5,0,0,0-.23.65,10.66,10.66,0,0,1,1.71-.14,9.77,9.77,0,0,1,6.55,2.51A5.17,5.17,0,0,0,19,9.2a10.39,10.39,0,0,0-6.71-2.45"/><path class="cls-7" d="M11.07,7.34a.2.2,0,0,0,.15-.23.19.19,0,0,0-.2-.18.21.21,0,0,0,.05.41m0-.08a.12.12,0,0,0,.09-.14c0-.07-.06-.12-.12-.11s-.1.07-.1.14a.12.12,0,0,0,.13.11"/><path class="cls-7" d="M11.4,7.3h.08V7.14h.16A.13.13,0,0,0,11.75,7a.12.12,0,0,0-.14-.11h-.23Zm.06-.23h.16a.06.06,0,1,0,0-.11h-.16Z"/><path class="cls-3" d="M11.75,7.28c0-.06,0-.19-.1-.18h-.11c.12,0,.13.12.14.18"/><path class="cls-7" d="M11.92,7.27h.19a.16.16,0,0,0,.17-.17V7a.18.18,0,0,0-.18-.18h-.19ZM12,7.19h.11a.1.1,0,0,0,.11-.11V7a.11.11,0,0,0-.11-.11H12Z"/><polygon class="cls-3" points="12.44 7.26 12.81 7.28 12.81 7.2 12.51 7.19 12.52 7.08 12.75 7.09 12.75 7.02 12.52 7.01 12.52 6.93 12.8 6.94 12.8 6.87 12.45 6.85 12.44 7.26"/><polygon class="cls-3" points="12.96 7.29 13.03 7.29 13.05 7.01 13.11 7.3 13.17 7.3 13.28 7.03 13.25 7.31 13.32 7.32 13.36 6.91 13.26 6.9 13.15 7.17 13.1 6.89 12.99 6.88 12.96 7.29"/><polygon class="cls-3" points="13.8 7.38 14.11 7.43 14.12 7.36 13.89 7.32 13.9 7.23 14.09 7.26 14.1 7.19 13.91 7.16 13.93 7.1 14.15 7.14 14.16 7.07 13.87 7.02 13.8 7.38"/><path class="cls-7" d="M14.58,7.53l.08,0,0-.14.16,0a.14.14,0,0,0,.16-.1.12.12,0,0,0-.09-.15l-.23-.06Zm.13-.2.16,0s.05,0,.06,0,0,0,0-.06l-.15,0Z"/><path class="cls-7" d="M15.08,7.67l.08,0,0-.15.16,0a.12.12,0,0,0,.16-.08.13.13,0,0,0-.08-.16l-.23-.07Zm.15-.2.15,0s0,0,.06,0a.05.05,0,0,0,0-.07l-.15,0Z"/><path class="cls-3" d="M15.42,7.77s.05-.18,0-.2l-.11,0c.13,0,.09.16.07.22"/><path class="cls-7" d="M15.75,7.89a.2.2,0,0,0,.14-.38.19.19,0,0,0-.24.12.2.2,0,0,0,.1.26m0-.07a.13.13,0,0,0,.09-.24.12.12,0,0,0-.15.08.12.12,0,0,0,.06.16"/><path class="cls-7" d="M16.23,8.09a.21.21,0,1,0-.08-.26.19.19,0,0,0,.08.26m0-.07a.12.12,0,0,0,.15-.08.12.12,0,0,0,0-.16.13.13,0,0,0-.16.08.14.14,0,0,0,.05.16"/><polygon class="cls-3" points="16.34 7.91 16.48 7.97 16.46 8.03 16.32 7.96 16.34 7.91"/><polygon class="cls-3" points="16.43 7.95 16.48 7.97 16.4 8.16 16.35 8.14 16.43 7.95"/><path class="cls-7" d="M16.54,8.22l.07,0,.06-.14.15.07a.12.12,0,0,0,.17,0,.14.14,0,0,0,0-.18l-.21-.1Zm.17-.17.14.07a0,0,0,0,0,.07,0,.06.06,0,0,0,0-.07L16.76,8Z"/><path class="cls-3" d="M16.85,8.38c0-.05.08-.17,0-.21l-.09-.05c.11.06,0,.17,0,.23"/><polygon class="cls-3" points="17 8.46 17.32 8.64 17.36 8.57 17.1 8.43 17.15 8.34 17.36 8.45 17.39 8.39 17.19 8.28 17.23 8.2 17.47 8.34 17.51 8.28 17.2 8.1 17 8.46"/><path class="cls-3" d="M17.6,8.66s0,.07,0,.1.08,0,.1,0-.22-.17-.14-.29.19,0,.23,0a.13.13,0,0,1,.06.19l-.07-.05s0-.07,0-.1-.07,0-.1,0,.22.17.14.29-.16,0-.22,0-.14-.12-.09-.21Z"/><path class="cls-3" d="M18,9s0,.07,0,.11.08,0,.1,0-.21-.18-.12-.3.19,0,.23,0,.11.11.05.19l-.07-.05s0-.07,0-.1-.07,0-.09,0,.21.17.12.29-.16,0-.22,0S17.9,9,18,8.9Z"/><path class="cls-7" d="M18.45,9.42a.2.2,0,0,0,.27,0,.2.2,0,0,0,0-.28.2.2,0,0,0-.27.05.19.19,0,0,0,0,.27m.05-.06a.13.13,0,0,0,.17,0,.12.12,0,0,0,0-.17.13.13,0,0,0-.16.2"/><polygon class="cls-6" points="11.22 7.64 11.17 7.81 11.25 7.84 11.22 7.64"/><polygon class="cls-6" points="11.22 7.64 11.28 7.81 11.19 7.84 11.22 7.64"/><polygon class="cls-6" points="11.4 7.76 11.21 7.76 11.21 7.86 11.4 7.76"/><polygon class="cls-6" points="11.4 7.76 11.25 7.87 11.2 7.8 11.4 7.76"/><polygon class="cls-6" points="11.05 7.76 11.2 7.87 11.25 7.8 11.05 7.76"/><polygon class="cls-6" points="11.05 7.76 11.23 7.76 11.23 7.86 11.05 7.76"/><polygon class="cls-6" points="11.33 7.97 11.28 7.79 11.19 7.82 11.33 7.97"/><polygon class="cls-6" points="11.33 7.97 11.18 7.86 11.24 7.79 11.33 7.97"/><polygon class="cls-6" points="11.12 7.97 11.27 7.86 11.21 7.79 11.12 7.97"/><polygon class="cls-6" points="11.12 7.97 11.17 7.79 11.26 7.82 11.12 7.97"/><polygon class="cls-6" points="11.6 9.44 11.55 9.62 11.63 9.65 11.6 9.44"/><polygon class="cls-6" points="11.6 9.44 11.66 9.62 11.57 9.65 11.6 9.44"/><polygon class="cls-6" points="11.78 9.57 11.6 9.57 11.6 9.66 11.78 9.57"/><polygon class="cls-6" points="11.78 9.57 11.63 9.68 11.58 9.61 11.78 9.57"/><polygon class="cls-6" points="11.43 9.57 11.58 9.68 11.63 9.61 11.43 9.57"/><polygon class="cls-6" points="11.43 9.57 11.61 9.57 11.61 9.66 11.43 9.57"/><polygon class="cls-6" points="11.71 9.78 11.65 9.6 11.57 9.63 11.71 9.78"/><polygon class="cls-6" points="11.71 9.78 11.56 9.67 11.62 9.6 11.71 9.78"/><polygon class="cls-6" points="11.5 9.78 11.64 9.67 11.59 9.6 11.5 9.78"/><polygon class="cls-6" points="11.5 9.78 11.55 9.6 11.64 9.63 11.5 9.78"/><polygon class="cls-6" points="11.08 9.89 11.04 10.01 11.1 10.03 11.08 9.89"/><polygon class="cls-6" points="11.08 9.89 11.12 10.01 11.06 10.03 11.08 9.89"/><polygon class="cls-6" points="11.19 9.98 11.07 9.98 11.07 10.04 11.19 9.98"/><polygon class="cls-6" points="11.19 9.98 11.1 10.05 11.06 10 11.19 9.98"/><polygon class="cls-6" points="10.96 9.98 11.06 10.05 11.1 10 10.96 9.98"/><polygon class="cls-6" points="10.96 9.98 11.08 9.98 11.08 10.04 10.96 9.98"/><polygon class="cls-6" points="11.15 10.11 11.11 10 11.05 10.02 11.15 10.11"/><polygon class="cls-6" points="11.15 10.11 11.05 10.04 11.09 9.99 11.15 10.11"/><polygon class="cls-6" points="11.01 10.11 11.11 10.04 11.07 9.99 11.01 10.11"/><polygon class="cls-6" points="11.01 10.11 11.04 10 11.1 10.02 11.01 10.11"/><polygon class="cls-6" points="12.02 9.28 12 9.36 12.04 9.37 12.02 9.28"/><polygon class="cls-6" points="12.02 9.28 12.05 9.36 12.01 9.37 12.02 9.28"/><polygon class="cls-6" points="12.11 9.34 12.02 9.34 12.02 9.38 12.11 9.34"/><polygon class="cls-6" points="12.11 9.34 12.04 9.39 12.01 9.35 12.11 9.34"/><polygon class="cls-6" points="11.94 9.34 12.01 9.39 12.04 9.35 11.94 9.34"/><polygon class="cls-6" points="11.94 9.34 12.03 9.34 12.03 9.38 11.94 9.34"/><polygon class="cls-6" points="12.08 9.44 12.05 9.35 12.01 9.37 12.08 9.44"/><polygon class="cls-6" points="12.08 9.44 12.01 9.38 12.03 9.35 12.08 9.44"/><polygon class="cls-6" points="11.97 9.44 12.04 9.38 12.02 9.35 11.97 9.44"/><polygon class="cls-6" points="11.97 9.44 12 9.35 12.04 9.37 11.97 9.44"/><polygon class="cls-6" points="12.5 9.9 12.45 10.05 12.52 10.07 12.5 9.9"/><polygon class="cls-6" points="12.5 9.9 12.54 10.05 12.47 10.07 12.5 9.9"/><polygon class="cls-6" points="12.64 10.01 12.49 10.01 12.49 10.08 12.64 10.01"/><polygon class="cls-6" points="12.64 10.01 12.52 10.1 12.47 10.04 12.64 10.01"/><polygon class="cls-6" points="12.35 10.01 12.48 10.1 12.52 10.04 12.35 10.01"/><polygon class="cls-6" points="12.35 10.01 12.51 10.01 12.51 10.08 12.35 10.01"/><polygon class="cls-6" points="12.59 10.18 12.54 10.03 12.47 10.06 12.59 10.18"/><polygon class="cls-6" points="12.59 10.18 12.46 10.09 12.51 10.03 12.59 10.18"/><polygon class="cls-6" points="12.41 10.18 12.53 10.09 12.49 10.03 12.41 10.18"/><polygon class="cls-6" points="12.41 10.18 12.46 10.03 12.53 10.06 12.41 10.18"/><polygon class="cls-6" points="12.37 10.33 12.32 10.47 12.39 10.5 12.37 10.33"/><polygon class="cls-6" points="12.37 10.33 12.42 10.47 12.34 10.5 12.37 10.33"/><polygon class="cls-6" points="12.52 10.43 12.36 10.43 12.36 10.51 12.52 10.43"/><polygon class="cls-6" points="12.52 10.43 12.39 10.52 12.35 10.46 12.52 10.43"/><polygon class="cls-6" points="12.22 10.43 12.35 10.52 12.39 10.46 12.22 10.43"/><polygon class="cls-6" points="12.22 10.43 12.38 10.43 12.38 10.51 12.22 10.43"/><polygon class="cls-6" points="12.46 10.61 12.41 10.46 12.34 10.48 12.46 10.61"/><polygon class="cls-6" points="12.46 10.61 12.34 10.52 12.38 10.45 12.46 10.61"/><polygon class="cls-6" points="12.28 10.61 12.4 10.52 12.36 10.45 12.28 10.61"/><polygon class="cls-6" points="12.28 10.61 12.33 10.46 12.4 10.48 12.28 10.61"/><polygon class="cls-6" points="16.06 7.08 16.01 7.25 16.09 7.28 16.06 7.08"/><polygon class="cls-6" points="16.06 7.08 16.12 7.25 16.03 7.28 16.06 7.08"/><polygon class="cls-6" points="16.24 7.2 16.05 7.2 16.05 7.3 16.24 7.2"/><polygon class="cls-6" points="16.24 7.2 16.09 7.31 16.04 7.24 16.24 7.2"/><polygon class="cls-6" points="15.89 7.2 16.04 7.31 16.09 7.24 15.89 7.2"/><polygon class="cls-6" points="15.89 7.2 16.07 7.2 16.07 7.3 15.89 7.2"/><polygon class="cls-6" points="16.17 7.41 16.11 7.23 16.03 7.26 16.17 7.41"/><polygon class="cls-6" points="16.17 7.41 16.02 7.3 16.08 7.23 16.17 7.41"/><polygon class="cls-6" points="15.96 7.41 16.1 7.3 16.05 7.23 15.96 7.41"/><polygon class="cls-6" points="15.96 7.41 16.01 7.23 16.1 7.26 15.96 7.41"/><polygon class="cls-6" points="17.74 9.92 17.68 10.09 17.77 10.12 17.74 9.92"/><polygon class="cls-6" points="17.74 9.92 17.8 10.09 17.71 10.12 17.74 9.92"/><polygon class="cls-6" points="17.92 10.04 17.73 10.04 17.73 10.14 17.92 10.04"/><polygon class="cls-6" points="17.92 10.04 17.77 10.15 17.71 10.08 17.92 10.04"/><polygon class="cls-6" points="17.57 10.04 17.71 10.15 17.77 10.08 17.57 10.04"/><polygon class="cls-6" points="17.57 10.04 17.75 10.04 17.75 10.14 17.57 10.04"/><polygon class="cls-6" points="17.85 10.25 17.79 10.07 17.71 10.1 17.85 10.25"/><polygon class="cls-6" points="17.85 10.25 17.7 10.14 17.75 10.07 17.85 10.25"/><polygon class="cls-6" points="17.63 10.25 17.78 10.14 17.73 10.07 17.63 10.25"/><polygon class="cls-6" points="17.63 10.25 17.69 10.07 17.78 10.1 17.63 10.25"/><polygon class="cls-6" points="18.34 10.02 18.3 10.14 18.36 10.15 18.34 10.02"/><polygon class="cls-6" points="18.34 10.02 18.38 10.14 18.32 10.15 18.34 10.02"/><polygon class="cls-6" points="18.45 10.11 18.33 10.11 18.33 10.16 18.45 10.11"/><polygon class="cls-6" points="18.45 10.11 18.36 10.18 18.32 10.13 18.45 10.11"/><polygon class="cls-6" points="18.22 10.11 18.32 10.18 18.36 10.13 18.22 10.11"/><polygon class="cls-6" points="18.22 10.11 18.34 10.11 18.34 10.16 18.22 10.11"/><polygon class="cls-6" points="18.41 10.24 18.37 10.12 18.31 10.14 18.41 10.24"/><polygon class="cls-6" points="18.41 10.24 18.31 10.17 18.35 10.12 18.41 10.24"/><polygon class="cls-6" points="18.27 10.24 18.36 10.17 18.33 10.12 18.27 10.24"/><polygon class="cls-6" points="18.27 10.24 18.3 10.12 18.36 10.14 18.27 10.24"/><polygon class="cls-6" points="17.92 10.33 17.87 10.47 17.94 10.5 17.92 10.33"/><polygon class="cls-6" points="17.92 10.33 17.96 10.47 17.89 10.5 17.92 10.33"/><polygon class="cls-6" points="18.06 10.43 17.91 10.43 17.91 10.51 18.06 10.43"/><polygon class="cls-6" points="18.06 10.43 17.94 10.52 17.89 10.46 18.06 10.43"/><polygon class="cls-6" points="17.77 10.43 17.89 10.52 17.94 10.46 17.77 10.43"/><polygon class="cls-6" points="17.77 10.43 17.93 10.43 17.93 10.51 17.77 10.43"/><polygon class="cls-6" points="18.01 10.61 17.96 10.46 17.89 10.48 18.01 10.61"/><polygon class="cls-6" points="18.01 10.61 17.88 10.52 17.93 10.45 18.01 10.61"/><polygon class="cls-6" points="17.83 10.61 17.95 10.52 17.91 10.45 17.83 10.61"/><polygon class="cls-6" points="17.83 10.61 17.87 10.46 17.95 10.48 17.83 10.61"/><polygon class="cls-6" points="16.88 11.23 16.84 11.37 16.91 11.4 16.88 11.23"/><polygon class="cls-6" points="16.88 11.23 16.93 11.37 16.86 11.4 16.88 11.23"/><polygon class="cls-6" points="17.03 11.33 16.88 11.33 16.88 11.41 17.03 11.33"/><polygon class="cls-6" points="17.03 11.33 16.91 11.42 16.86 11.36 17.03 11.33"/><polygon class="cls-6" points="16.74 11.33 16.86 11.42 16.91 11.36 16.74 11.33"/><polygon class="cls-6" points="16.74 11.33 16.89 11.33 16.89 11.41 16.74 11.33"/><polygon class="cls-6" points="16.97 11.51 16.93 11.36 16.85 11.38 16.97 11.51"/><polygon class="cls-6" points="16.97 11.51 16.85 11.41 16.89 11.35 16.97 11.51"/><polygon class="cls-6" points="16.79 11.51 16.92 11.41 16.87 11.35 16.79 11.51"/><polygon class="cls-6" points="16.79 11.51 16.84 11.36 16.91 11.38 16.79 11.51"/><polygon class="cls-6" points="16.88 11.69 16.84 11.81 16.9 11.83 16.88 11.69"/><polygon class="cls-6" points="16.88 11.69 16.91 11.81 16.86 11.83 16.88 11.69"/><polygon class="cls-6" points="16.99 11.78 16.87 11.78 16.87 11.84 16.99 11.78"/><polygon class="cls-6" points="16.99 11.78 16.89 11.85 16.86 11.8 16.99 11.78"/><polygon class="cls-6" points="16.76 11.78 16.86 11.85 16.89 11.8 16.76 11.78"/><polygon class="cls-6" points="16.76 11.78 16.88 11.78 16.88 11.84 16.76 11.78"/><polygon class="cls-6" points="16.95 11.91 16.91 11.8 16.85 11.81 16.95 11.91"/><polygon class="cls-6" points="16.95 11.91 16.85 11.84 16.89 11.79 16.95 11.91"/><polygon class="cls-6" points="16.8 11.91 16.9 11.84 16.87 11.79 16.8 11.91"/><polygon class="cls-6" points="16.8 11.91 16.84 11.8 16.9 11.81 16.8 11.91"/><polygon class="cls-6" points="17.31 10.92 17.27 11.04 17.33 11.06 17.31 10.92"/><polygon class="cls-6" points="17.31 10.92 17.35 11.04 17.29 11.06 17.31 10.92"/><polygon class="cls-6" points="17.43 11 17.3 11 17.3 11.06 17.43 11"/><polygon class="cls-6" points="17.43 11 17.33 11.08 17.29 11.03 17.43 11"/><polygon class="cls-6" points="17.19 11 17.29 11.08 17.33 11.03 17.19 11"/><polygon class="cls-6" points="17.19 11 17.32 11 17.32 11.06 17.19 11"/><polygon class="cls-6" points="17.38 11.14 17.34 11.03 17.29 11.04 17.38 11.14"/><polygon class="cls-6" points="17.38 11.14 17.28 11.07 17.32 11.02 17.38 11.14"/><polygon class="cls-6" points="17.24 11.14 17.34 11.07 17.3 11.02 17.24 11.14"/><polygon class="cls-6" points="17.24 11.14 17.27 11.03 17.33 11.04 17.24 11.14"/><polygon class="cls-6" points="17.65 10.67 17.61 10.82 17.68 10.84 17.65 10.67"/><polygon class="cls-6" points="17.65 10.67 17.7 10.82 17.63 10.84 17.65 10.67"/><polygon class="cls-6" points="17.8 10.78 17.65 10.78 17.65 10.86 17.8 10.78"/><polygon class="cls-6" points="17.8 10.78 17.68 10.87 17.63 10.81 17.8 10.78"/><polygon class="cls-6" points="17.51 10.78 17.63 10.87 17.68 10.81 17.51 10.78"/><polygon class="cls-6" points="17.51 10.78 17.66 10.78 17.66 10.86 17.51 10.78"/><polygon class="cls-6" points="17.74 10.95 17.7 10.8 17.62 10.83 17.74 10.95"/><polygon class="cls-6" points="17.74 10.95 17.62 10.86 17.66 10.8 17.74 10.95"/><polygon class="cls-6" points="17.56 10.95 17.69 10.86 17.64 10.8 17.56 10.95"/><polygon class="cls-6" points="17.56 10.95 17.61 10.8 17.68 10.83 17.56 10.95"/><polygon class="cls-6" points="16.86 10.84 16.83 10.95 16.89 10.97 16.86 10.84"/><polygon class="cls-6" points="16.86 10.84 16.9 10.95 16.84 10.97 16.86 10.84"/><polygon class="cls-6" points="16.98 10.92 16.86 10.92 16.86 10.98 16.98 10.92"/><polygon class="cls-6" points="16.98 10.92 16.88 10.99 16.85 10.94 16.98 10.92"/><polygon class="cls-6" points="16.75 10.92 16.85 10.99 16.88 10.94 16.75 10.92"/><polygon class="cls-6" points="16.75 10.92 16.87 10.92 16.87 10.98 16.75 10.92"/><polygon class="cls-6" points="16.94 11.06 16.9 10.94 16.84 10.96 16.94 11.06"/><polygon class="cls-6" points="16.94 11.06 16.84 10.99 16.87 10.94 16.94 11.06"/><polygon class="cls-6" points="16.79 11.06 16.89 10.99 16.86 10.94 16.79 11.06"/><polygon class="cls-6" points="16.79 11.06 16.83 10.94 16.89 10.96 16.79 11.06"/><polygon class="cls-6" points="13.09 8.62 13.05 8.76 13.12 8.78 13.09 8.62"/><polygon class="cls-6" points="13.09 8.62 13.14 8.76 13.07 8.78 13.09 8.62"/><polygon class="cls-6" points="13.24 8.72 13.09 8.72 13.09 8.8 13.24 8.72"/><polygon class="cls-6" points="13.24 8.72 13.12 8.81 13.07 8.75 13.24 8.72"/><polygon class="cls-6" points="12.95 8.72 13.07 8.81 13.12 8.75 12.95 8.72"/><polygon class="cls-6" points="12.95 8.72 13.1 8.72 13.1 8.8 12.95 8.72"/><polygon class="cls-6" points="13.18 8.89 13.14 8.75 13.06 8.77 13.18 8.89"/><polygon class="cls-6" points="13.18 8.89 13.06 8.8 13.11 8.74 13.18 8.89"/><polygon class="cls-6" points="13 8.89 13.13 8.8 13.08 8.74 13 8.89"/><polygon class="cls-6" points="13 8.89 13.05 8.75 13.13 8.77 13 8.89"/><polygon class="cls-6" points="15.9 8.25 15.86 8.37 15.92 8.39 15.9 8.25"/><polygon class="cls-6" points="15.9 8.25 15.94 8.37 15.88 8.39 15.9 8.25"/><polygon class="cls-6" points="16.02 8.34 15.89 8.34 15.89 8.4 16.02 8.34"/><polygon class="cls-6" points="16.02 8.34 15.92 8.41 15.88 8.36 16.02 8.34"/><polygon class="cls-6" points="15.78 8.34 15.88 8.41 15.92 8.36 15.78 8.34"/><polygon class="cls-6" points="15.78 8.34 15.91 8.34 15.91 8.4 15.78 8.34"/><polygon class="cls-6" points="15.97 8.48 15.94 8.36 15.88 8.38 15.97 8.48"/><polygon class="cls-6" points="15.97 8.48 15.87 8.4 15.91 8.35 15.97 8.48"/><polygon class="cls-6" points="15.83 8.48 15.93 8.4 15.89 8.35 15.83 8.48"/><polygon class="cls-6" points="15.83 8.48 15.87 8.36 15.92 8.38 15.83 8.48"/><polygon class="cls-6" points="14.73 10.34 14.67 10.51 14.76 10.54 14.73 10.34"/><polygon class="cls-6" points="14.73 10.34 14.79 10.51 14.7 10.54 14.73 10.34"/><polygon class="cls-6" points="14.91 10.46 14.72 10.46 14.72 10.56 14.91 10.46"/><polygon class="cls-6" points="14.91 10.46 14.76 10.57 14.7 10.5 14.91 10.46"/><polygon class="cls-6" points="14.56 10.46 14.71 10.57 14.76 10.5 14.56 10.46"/><polygon class="cls-6" points="14.56 10.46 14.74 10.46 14.74 10.56 14.56 10.46"/><polygon class="cls-6" points="14.84 10.67 14.78 10.5 14.7 10.52 14.84 10.67"/><polygon class="cls-6" points="14.84 10.67 14.69 10.56 14.74 10.49 14.84 10.67"/><polygon class="cls-6" points="14.62 10.67 14.77 10.56 14.72 10.49 14.62 10.67"/><polygon class="cls-6" points="14.62 10.67 14.68 10.5 14.77 10.52 14.62 10.67"/><polygon class="cls-6" points="15.23 9.52 15.18 9.66 15.25 9.69 15.23 9.52"/><polygon class="cls-6" points="15.23 9.52 15.28 9.66 15.2 9.69 15.23 9.52"/><polygon class="cls-6" points="15.37 9.62 15.22 9.62 15.22 9.7 15.37 9.62"/><polygon class="cls-6" points="15.37 9.62 15.25 9.71 15.21 9.65 15.37 9.62"/><polygon class="cls-6" points="15.08 9.62 15.21 9.71 15.25 9.65 15.08 9.62"/><polygon class="cls-6" points="15.08 9.62 15.23 9.62 15.23 9.7 15.08 9.62"/><polygon class="cls-6" points="15.32 9.79 15.27 9.65 15.2 9.67 15.32 9.79"/><polygon class="cls-6" points="15.32 9.79 15.19 9.7 15.24 9.64 15.32 9.79"/><polygon class="cls-6" points="15.14 9.79 15.26 9.7 15.22 9.64 15.14 9.79"/><polygon class="cls-6" points="15.14 9.79 15.19 9.65 15.26 9.67 15.14 9.79"/><polygon class="cls-6" points="14.73 9.13 14.68 9.28 14.76 9.3 14.73 9.13"/><polygon class="cls-6" points="14.73 9.13 14.78 9.28 14.71 9.3 14.73 9.13"/><polygon class="cls-6" points="14.88 9.23 14.72 9.23 14.72 9.31 14.88 9.23"/><polygon class="cls-6" points="14.88 9.23 14.75 9.32 14.71 9.26 14.88 9.23"/><polygon class="cls-6" points="14.59 9.23 14.71 9.32 14.75 9.26 14.59 9.23"/><polygon class="cls-6" points="14.59 9.23 14.74 9.23 14.74 9.31 14.59 9.23"/><polygon class="cls-6" points="14.82 9.41 14.77 9.26 14.7 9.28 14.82 9.41"/><polygon class="cls-6" points="14.82 9.41 14.7 9.32 14.74 9.26 14.82 9.41"/><polygon class="cls-6" points="14.64 9.41 14.77 9.32 14.72 9.26 14.64 9.41"/><polygon class="cls-6" points="14.64 9.41 14.69 9.26 14.76 9.28 14.64 9.41"/><polygon class="cls-6" points="14.3 9.55 14.26 9.66 14.32 9.68 14.3 9.55"/><polygon class="cls-6" points="14.3 9.55 14.34 9.66 14.28 9.68 14.3 9.55"/><polygon class="cls-6" points="14.42 9.63 14.29 9.63 14.29 9.69 14.42 9.63"/><polygon class="cls-6" points="14.42 9.63 14.32 9.7 14.28 9.65 14.42 9.63"/><polygon class="cls-6" points="14.18 9.63 14.28 9.7 14.32 9.65 14.18 9.63"/><polygon class="cls-6" points="14.18 9.63 14.3 9.63 14.3 9.69 14.18 9.63"/><polygon class="cls-6" points="14.37 9.77 14.33 9.65 14.27 9.67 14.37 9.77"/><polygon class="cls-6" points="14.37 9.77 14.27 9.7 14.31 9.65 14.37 9.77"/><polygon class="cls-6" points="14.23 9.77 14.33 9.7 14.29 9.65 14.23 9.77"/><polygon class="cls-6" points="14.23 9.77 14.27 9.65 14.32 9.67 14.23 9.77"/><polygon class="cls-6" points="14.52 9.88 14.49 9.96 14.53 9.98 14.52 9.88"/><polygon class="cls-6" points="14.52 9.88 14.54 9.96 14.5 9.98 14.52 9.88"/><polygon class="cls-6" points="14.6 9.94 14.51 9.94 14.51 9.98 14.6 9.94"/><polygon class="cls-6" points="14.6 9.94 14.53 9.99 14.5 9.96 14.6 9.94"/><polygon class="cls-6" points="14.43 9.94 14.5 9.99 14.53 9.96 14.43 9.94"/><polygon class="cls-6" points="14.43 9.94 14.52 9.94 14.52 9.98 14.43 9.94"/><polygon class="cls-6" points="14.57 10.04 14.54 9.95 14.5 9.97 14.57 10.04"/><polygon class="cls-6" points="14.57 10.04 14.49 9.99 14.52 9.95 14.57 10.04"/><polygon class="cls-6" points="14.46 10.04 14.54 9.99 14.51 9.95 14.46 10.04"/><polygon class="cls-6" points="14.46 10.04 14.49 9.95 14.53 9.97 14.46 10.04"/><polygon class="cls-6" points="16.02 11.33 15.97 11.48 16.04 11.5 16.02 11.33"/><polygon class="cls-6" points="16.02 11.33 16.07 11.48 15.99 11.5 16.02 11.33"/><polygon class="cls-6" points="16.16 11.44 16.01 11.44 16.01 11.52 16.16 11.44"/><polygon class="cls-6" points="16.16 11.44 16.04 11.53 15.99 11.47 16.16 11.44"/><polygon class="cls-6" points="15.87 11.44 16 11.53 16.04 11.47 15.87 11.44"/><polygon class="cls-6" points="15.87 11.44 16.02 11.44 16.02 11.52 15.87 11.44"/><polygon class="cls-6" points="16.11 11.61 16.06 11.46 15.99 11.49 16.11 11.61"/><polygon class="cls-6" points="16.11 11.61 15.98 11.52 16.03 11.46 16.11 11.61"/><polygon class="cls-6" points="15.93 11.61 16.05 11.52 16.01 11.46 15.93 11.61"/><polygon class="cls-6" points="15.93 11.61 15.97 11.46 16.05 11.49 15.93 11.61"/><polygon class="cls-6" points="16.39 10.98 16.35 11.1 16.41 11.12 16.39 10.98"/><polygon class="cls-6" points="16.39 10.98 16.42 11.1 16.36 11.12 16.39 10.98"/><polygon class="cls-6" points="16.5 11.07 16.38 11.07 16.38 11.13 16.5 11.07"/><polygon class="cls-6" points="16.5 11.07 16.4 11.14 16.37 11.09 16.5 11.07"/><polygon class="cls-6" points="16.27 11.07 16.37 11.14 16.4 11.09 16.27 11.07"/><polygon class="cls-6" points="16.27 11.07 16.39 11.07 16.39 11.13 16.27 11.07"/><polygon class="cls-6" points="16.46 11.21 16.42 11.09 16.36 11.11 16.46 11.21"/><polygon class="cls-6" points="16.46 11.21 16.36 11.13 16.39 11.08 16.46 11.21"/><polygon class="cls-6" points="16.31 11.21 16.41 11.13 16.38 11.08 16.31 11.21"/><polygon class="cls-6" points="16.31 11.21 16.35 11.09 16.41 11.11 16.31 11.21"/><polygon class="cls-6" points="15.68 10.88 15.64 10.99 15.7 11.02 15.68 10.88"/><polygon class="cls-6" points="15.68 10.88 15.72 10.99 15.66 11.02 15.68 10.88"/><polygon class="cls-6" points="15.79 10.96 15.67 10.96 15.67 11.03 15.79 10.96"/><polygon class="cls-6" points="15.79 10.96 15.7 11.04 15.66 10.98 15.79 10.96"/><polygon class="cls-6" points="15.56 10.96 15.66 11.04 15.7 10.98 15.56 10.96"/><polygon class="cls-6" points="15.56 10.96 15.68 10.96 15.68 11.03 15.56 10.96"/><polygon class="cls-6" points="15.75 11.1 15.71 10.98 15.65 11 15.75 11.1"/><polygon class="cls-6" points="15.75 11.1 15.65 11.03 15.69 10.98 15.75 11.1"/><polygon class="cls-6" points="15.61 11.1 15.71 11.03 15.67 10.98 15.61 11.1"/><polygon class="cls-6" points="15.61 11.1 15.64 10.98 15.7 11 15.61 11.1"/><polygon class="cls-6" points="13.01 10.69 12.95 10.86 13.04 10.89 13.01 10.69"/><polygon class="cls-6" points="13.01 10.69 13.06 10.86 12.98 10.89 13.01 10.69"/><polygon class="cls-6" points="13.18 10.82 13 10.82 13 10.91 13.18 10.82"/><polygon class="cls-6" points="13.18 10.82 13.03 10.92 12.98 10.85 13.18 10.82"/><polygon class="cls-6" points="12.83 10.82 12.98 10.92 13.04 10.85 12.83 10.82"/><polygon class="cls-6" points="12.83 10.82 13.02 10.82 13.02 10.91 12.83 10.82"/><polygon class="cls-6" points="13.12 11.02 13.06 10.85 12.97 10.88 13.12 11.02"/><polygon class="cls-6" points="13.12 11.02 12.97 10.91 13.02 10.84 13.12 11.02"/><polygon class="cls-6" points="12.9 11.02 13.05 10.91 12.99 10.84 12.9 11.02"/><polygon class="cls-6" points="12.9 11.02 12.96 10.85 13.04 10.88 12.9 11.02"/><polygon class="cls-6" points="14.73 11.89 14.71 11.95 14.74 11.96 14.73 11.89"/><polygon class="cls-6" points="14.73 11.89 14.75 11.95 14.72 11.96 14.73 11.89"/><polygon class="cls-6" points="14.79 11.94 14.73 11.94 14.73 11.97 14.79 11.94"/><polygon class="cls-6" points="14.79 11.94 14.74 11.97 14.72 11.95 14.79 11.94"/><polygon class="cls-6" points="14.67 11.94 14.72 11.97 14.74 11.95 14.67 11.94"/><polygon class="cls-6" points="14.67 11.94 14.73 11.94 14.73 11.97 14.67 11.94"/><polygon class="cls-6" points="14.77 12 14.75 11.95 14.72 11.96 14.77 12"/><polygon class="cls-6" points="14.77 12 14.72 11.97 14.73 11.94 14.77 12"/><polygon class="cls-6" points="14.7 12 14.74 11.97 14.73 11.94 14.7 12"/><polygon class="cls-6" points="14.7 12 14.71 11.95 14.74 11.96 14.7 12"/></g></g></g></g></g></svg>