<svg xmlns="http://www.w3.org/2000/svg" xmlns:xlink="http://www.w3.org/1999/xlink" viewBox="0 0 29.46 17.19"><defs><style>.cls-1{fill:none;}.cls-2{clip-path:url(#clip-path);}.cls-3{fill:#f0e030;}.cls-4{fill:#fff;}.cls-5{fill:#bd0030;}.cls-6{clip-path:url(#clip-path-4);}.cls-7{clip-path:url(#clip-path-5);}.cls-8{fill:#f4d02e;}.cls-9{fill:#bb4b4b;}</style><clipPath id="clip-path"><rect class="cls-1" width="29.46" height="17.19"/></clipPath><clipPath id="clip-path-4"><rect class="cls-1" x="10.69" y="11.64" width="8.08" height="2.06"/></clipPath><clipPath id="clip-path-5"><rect class="cls-1" x="11.63" y="12.46" width="6.17" height="1.52"/></clipPath></defs><g id="Layer_2" data-name="Layer 2"><g id="cá»"><g id="south_east_asia" data-name="south east asia"><g class="cls-2"><g class="cls-2"><rect class="cls-3" width="29.46" height="17.19"/><polygon class="cls-4" points="0 5.25 29.46 12.41 29.46 8.35 0 1.19 0 5.25"/><polygon points="0 8.83 29.46 15.99 29.46 12.41 0 5.25 0 8.83"/><rect class="cls-5" x="14.56" y="7.16" width="0.31" height="0.83"/><path d="M14.9,8h-.37V7.13h.37V8Zm-.31,0h.25V7.18h-.25V8Z"/><g class="cls-2"><path class="cls-5" d="M15.18,9.34a8.57,8.57,0,0,1,.06-1.27.42.42,0,0,1,.16-.26c-.17,0-.35.14-.44.36a.93.93,0,0,0-.25-.49.93.93,0,0,0-.24.49c-.09-.18-.25-.38-.43-.36a.58.58,0,0,1,.16.26,7.48,7.48,0,0,1,.05,1.26Z"/><path d="M15.12,9.34a9.42,9.42,0,0,1,.06-1.28.48.48,0,0,1,.07-.16.58.58,0,0,0-.24.29L15,8.35l0-.17a.92.92,0,0,0-.2-.42,1,1,0,0,0-.19.42l0,.16-.07-.15a.83.83,0,0,0-.22-.28.57.57,0,0,1,.06.15,6.92,6.92,0,0,1,0,1.27h-.11a6.77,6.77,0,0,0,0-1.25A.31.31,0,0,0,14,7.9l0-.05-.07-.08H14c.19,0,.33.13.42.26a.79.79,0,0,1,.23-.38l0,0,0,0A1,1,0,0,1,15,8a.49.49,0,0,1,.43-.27h.11l-.11.12a.36.36,0,0,0-.12.2,8,8,0,0,0-.06,1.26Z"/><path class="cls-5" d="M15.21,10.76a9.3,9.3,0,0,1,.06-1.45.41.41,0,0,1,.18-.3c-.19,0-.36,0-.47.35a.92.92,0,0,0-.27-.53.87.87,0,0,0-.26.54C14.33,9.05,14.17,9,14,9a.48.48,0,0,1,.19.3,9.18,9.18,0,0,1,0,1.44Z"/><path d="M15.16,10.76a11.33,11.33,0,0,1,.06-1.46.45.45,0,0,1,.11-.24c-.11,0-.23.09-.3.32L15,9.55l0-.18a.89.89,0,0,0-.23-.47,1,1,0,0,0-.22.47l0,.18-.06-.17c-.09-.24-.2-.32-.31-.33a.53.53,0,0,1,.12.25,10.74,10.74,0,0,1,0,1.45h-.09a11.7,11.7,0,0,0,0-1.43A.45.45,0,0,0,14,9.09L13.87,9H14a.41.41,0,0,1,.46.25,1,1,0,0,1,.25-.42l0,0,0,0a1,1,0,0,1,.24.42A.44.44,0,0,1,15.45,9l.11,0-.11.09a.35.35,0,0,0-.14.25,11.58,11.58,0,0,0-.05,1.44Z"/><path class="cls-5" d="M15.4,11.13a1.16,1.16,0,0,1,0-.45.92.92,0,0,1,.13-.21.44.44,0,0,0-.55.3.94.94,0,0,0-.32-.54.93.93,0,0,0-.3.54.44.44,0,0,0-.57-.3,1,1,0,0,1,.15.21,1.39,1.39,0,0,1,0,.45Z"/><path d="M14.08,11.13H14A1.53,1.53,0,0,0,14,10.7a.91.91,0,0,0-.11-.16l-.07-.1h.07a.48.48,0,0,1,.56.22,1,1,0,0,1,.29-.46l0,0,0,0a1,1,0,0,1,.3.46.46.46,0,0,1,.55-.22h.07l-.07.09a.48.48,0,0,0-.1.17,1,1,0,0,0-.05.43h-.09a1.63,1.63,0,0,1,.06-.47.83.83,0,0,1,.09-.16.38.38,0,0,0-.43.29l-.05.12,0-.13a1,1,0,0,0-.28-.5,1,1,0,0,0-.26.5l0,.13,0-.12a.39.39,0,0,0-.45-.29.54.54,0,0,1,.1.16,1.14,1.14,0,0,1,.06.47Z"/><rect class="cls-5" x="14.6" y="5.55" width="0.23" height="0.65"/><path d="M14.87,6.25h-.31V5.51h.31v.74Zm-.23-.09h.15V5.6h-.15v.56Z"/><g class="cls-6"><path class="cls-5" d="M16.2,13.61a1.42,1.42,0,0,0,.7,0c.72-.12.71-.83,1.83-.51a.74.74,0,0,0-.67-.42.64.64,0,0,0,0-.49.83.83,0,0,1-.31.33.51.51,0,0,1-.22-.36c0-.41-.23-.49-.25-.47a3.81,3.81,0,0,1-2.57,1.23,3.58,3.58,0,0,1-2.57-1.23s-.22.06-.24.47a.53.53,0,0,1-.22.36.71.71,0,0,1-.31-.33.69.69,0,0,0,0,.49.74.74,0,0,0-.66.42c1.12-.32,1.12.39,1.84.51a1.21,1.21,0,0,0,.68,0Z"/><path d="M13,13.7a2.83,2.83,0,0,1-.43,0,1.34,1.34,0,0,1-.62-.31,1.12,1.12,0,0,0-1.2-.19l-.05-.06a.77.77,0,0,1,.65-.45.67.67,0,0,1,0-.48h.08a.66.66,0,0,0,.26.3.46.46,0,0,0,.18-.31c0-.35.16-.46.22-.5s.07,0,.09,0,.05,0,.14.12a3.25,3.25,0,0,0,2.39,1.11h0a3.28,3.28,0,0,0,2.36-1.07c.12-.12.17-.17.21-.17h0s0,0,.07,0,.2.15.22.5a.5.5,0,0,0,.18.31.67.67,0,0,0,.27-.3h.07a.63.63,0,0,1,0,.48.77.77,0,0,1,.65.45l-.05.06a1.12,1.12,0,0,0-1.2.19,1.3,1.3,0,0,1-.62.31,1.2,1.2,0,0,1-.72,0l0-.07a1.29,1.29,0,0,0,.67,0,1.32,1.32,0,0,0,.58-.29A1.13,1.13,0,0,1,18.64,13a.69.69,0,0,0-.58-.32l0-.05a.71.71,0,0,0,0-.38.78.78,0,0,1-.28.27h0a.56.56,0,0,1-.24-.4c0-.34-.17-.43-.2-.43a.7.7,0,0,0-.16.14A3.37,3.37,0,0,1,14.71,13h0a3.3,3.3,0,0,1-2.45-1.13c-.05-.05-.09-.1-.11-.1s-.17.09-.19.43a.6.6,0,0,1-.24.4h0a1.11,1.11,0,0,1-.28-.27,1,1,0,0,0,0,.38l0,.05a.69.69,0,0,0-.57.32,1.13,1.13,0,0,1,1.17.24,1.49,1.49,0,0,0,1.24.3l.05.07a.57.57,0,0,1-.29,0Z"/></g><g class="cls-7"><path class="cls-5" d="M12.72,13.25c-.39,0-1.15-.61-1-.73s.2,0,.49.2a3.09,3.09,0,0,0,2.53,1.22,3.14,3.14,0,0,0,2.56-1.22c.29-.2.47-.23.49-.19s-.66.71-1.05.72Z"/><path d="M14.68,14a2.7,2.7,0,0,1-2-.69,1.87,1.87,0,0,1-1.06-.68.1.1,0,0,1,0-.12c.07-.07.27,0,.55.2a2,2,0,0,1,.3.29,2.64,2.64,0,0,0,2.18.91h0A2.65,2.65,0,0,0,16.93,13a2.5,2.5,0,0,1,.3-.28.94.94,0,0,1,.51-.22l.05,0s0,0,0,.1a1.85,1.85,0,0,1-1.07.68,2.76,2.76,0,0,1-2,.69Zm3-1.43a1,1,0,0,0-.43.21A1.75,1.75,0,0,0,17,13l-.15.15a2,2,0,0,0,.83-.55c0-.05,0-.08,0-.08Zm-6,0a.17.17,0,0,0,0,.07,2.07,2.07,0,0,0,.85.56c-.06,0-.1-.1-.15-.15a2.26,2.26,0,0,0-.29-.27c-.28-.2-.42-.22-.44-.21Z"/></g><path class="cls-5" d="M12.19,7.26a3.3,3.3,0,1,0,5,0Zm.31,0a2.55,2.55,0,1,0,4.44,0Z"/><path d="M14.73,12.71h-.05a3.17,3.17,0,0,1-3-2,3.31,3.31,0,0,1,.48-3.5l.06.06a3.25,3.25,0,0,0-.46,3.41,3.07,3.07,0,0,0,2.92,1.92,3.11,3.11,0,0,0,3-1.88,3.26,3.26,0,0,0-.46-3.46l.06-.06a3.34,3.34,0,0,1,.48,3.55,3.15,3.15,0,0,1-3,1.94Zm0-1.55a2.47,2.47,0,0,1-2.21-1.27,2.68,2.68,0,0,1-.06-2.6l.08,0a2.6,2.6,0,0,0,.05,2.52,2.39,2.39,0,0,0,2.14,1.22,2.33,2.33,0,0,0,2.11-1.21,2.59,2.59,0,0,0,.06-2.53l.07,0a2.71,2.71,0,0,1,0,2.63,2.44,2.44,0,0,1-2.19,1.25Z"/><path class="cls-8" d="M15.29,13.14a.22.22,0,0,1,.17.26.26.26,0,0,1-.28.17c-.07,0,0-.1.19-.12s0-.15-.1-.19,0-.13,0-.12Z"/><path class="cls-5" d="M15.21,13.58h0s0,0,0-.05.09-.06.22-.08.05,0,.05,0-.07-.1-.15-.13a.06.06,0,0,1,0-.08,0,0,0,0,1,0,0,.25.25,0,0,1,.17.12.16.16,0,0,1,0,.15.27.27,0,0,1-.25.17Zm.08-.43s0,0,0,0a.07.07,0,0,0,0,.08c.07,0,.15.08.15.13s0,0-.06.06-.21,0-.21.08,0,0,0,0h0a.27.27,0,0,0,.25-.17.18.18,0,0,0,0-.14.24.24,0,0,0-.15-.11Z"/><path class="cls-8" d="M14.94,13.11c.05-.06.09.12.11.25s0,.27,0,.28,0-.14,0-.28-.06-.23,0-.25Z"/><path class="cls-5" d="M15,13.64s0,0,0-.09a.68.68,0,0,0,0-.19c0-.15-.06-.23,0-.26h0s0,.11,0,.25a.68.68,0,0,1,0,.19s0,.08,0,.08h0c.05,0,.05-.14,0-.27a.6.6,0,0,0,0-.21.65.65,0,0,1,.05.21s0,.27,0,.28Z"/><path class="cls-8" d="M14.82,13.33c.13.13-.09.5-.57.34,0-.05.19,0,.34,0,.3-.05.17-.36.23-.31Z"/><path class="cls-9" d="M14.47,13.71a.66.66,0,0,1-.23,0h0a.6.6,0,0,0,.22,0,.39.39,0,0,0,.37-.2.17.17,0,0,0,0-.17s0,0,0,0a.23.23,0,0,1-.21.27h-.34s0,0,.05,0h.07a.81.81,0,0,0,.22,0,.23.23,0,0,0,.21-.26s0,0,0,0a.17.17,0,0,1,0,.18.38.38,0,0,1-.38.21Z"/><path class="cls-8" d="M14.58,13.08c.06-.06,0,.13,0,.25s0,.27-.06.25,0-.15,0-.27,0-.19,0-.23Z"/><path class="cls-5" d="M14.57,13.58h0s0,0,0-.08a.61.61,0,0,0,0-.19c0-.16,0-.19,0-.23h0c-.05.05-.07.08,0,.23a.41.41,0,0,1,0,.19s0,.07,0,.08h0a.35.35,0,0,0,0-.24V13.1a.25.25,0,0,1,0,.1v.13a.4.4,0,0,1,0,.24Z"/><path class="cls-8" d="M14.25,13c.09,0,.07,0,.06.27s-.24.31-.3.23,0-.07-.23,0c0,0,0-.08-.2-.06s0-.07-.11-.12-.17.06-.4-.08A.2.2,0,0,1,13,13c0-.15-.12,0-.27,0a.67.67,0,0,1-.2-.12c-.11-.09,0-.11.16,0s.23-.08.23-.21-.06-.19,0-.18.05.25-.06.36-.05.12,0,.11.29-.3.33-.28-.18.23-.13.41.18.15.3.17.14-.17.2-.14-.15.16.09.23c.06,0,.09-.12.12-.12s0,.16.09.19.07-.14.12-.13,0,.24.2.22,0-.45.05-.45Z"/><path class="cls-5" d="M14.1,13.57a.12.12,0,0,1-.09,0c0-.07,0-.08-.23-.06l0,0s-.05-.05-.16,0,0,0-.05,0a.19.19,0,0,0-.06-.07.18.18,0,0,0-.14,0,.37.37,0,0,1-.27-.06A.2.2,0,0,1,13,13s0,0,0,0h-.07a.25.25,0,0,1-.19,0,1.28,1.28,0,0,1-.2-.12s-.05-.06,0-.07.07,0,.2,0,.22-.08.23-.2,0-.1,0-.12,0,0,0,0,0,0,0,0,0,0,0,0a.39.39,0,0,1-.09.34l-.07.1s0-.05.07-.1a.41.41,0,0,0,.08-.34l0,0h-.06v0a.2.2,0,0,1,0,.12c0,.13-.14.27-.23.21a.34.34,0,0,0-.17-.06s0,0,0,.07a.79.79,0,0,0,.2.12.31.31,0,0,0,.19,0l0,0A.06.06,0,0,1,13,13a.2.2,0,0,0,.09.19c.16.09.21.07.26.06a.17.17,0,0,1,.14,0s0,0,.07.08l0,0h0a.16.16,0,0,1,.13,0l0,0c.18,0,.19,0,.22,0a.12.12,0,0,0,.1.06c.1,0,.2-.09.21-.27v-.12c0-.08,0-.12,0-.13s0,0-.05,0,0,.14,0,.23,0,.22,0,.22-.14-.08-.16-.15,0-.08,0-.07,0,0,0,.05,0,.08-.07.08-.09-.07-.08-.12,0-.06,0-.06h0l0,0s0,.07-.07.07-.11,0-.12-.07a.08.08,0,0,1,0-.08s0-.06,0-.07,0,0-.05,0-.06.09-.13.09a.4.4,0,0,1-.32-.17.39.39,0,0,1,.09-.29c0-.06.07-.1,0-.12h0s-.11.08-.18.16l-.14.13h0A.53.53,0,0,0,13,12.8c.07-.08.15-.15.18-.15s0,.06,0,.12a.39.39,0,0,0-.09.29c0,.08.17.15.29.16a.13.13,0,0,0,.14-.09s0,0,.05,0,0,.05,0,.08,0,.05,0,.08a.16.16,0,0,0,.11.06.09.09,0,0,0,.07-.06s0-.05,0-.05,0,0,0,.07,0,.1.06.11h0s.06,0,.08-.07,0-.06,0-.06,0,0,.05.08,0,.15.12.15.05-.11.05-.21,0-.2,0-.23h.08s0,.06,0,.14v.12c0,.19-.12.27-.22.27Z"/><path class="cls-8" d="M12.53,12.7c.05,0,.15-.06.15-.14s-.12-.12-.27-.1a.44.44,0,0,1-.29-.11c-.08-.09-.08-.2-.17-.16s.1.22.18.26.22,0,.22.1,0,.16.18.15Z"/><path class="cls-5" d="M12.5,12.71c-.15,0-.15-.07-.15-.13s-.06-.08-.11-.09l-.11,0c-.07,0-.2-.17-.2-.23l0,0c0,.08.11.21.18.24l.11,0c.06,0,.11,0,.12.07s0,.15.14.15h0s.14-.06.15-.14a.14.14,0,0,0,0-.06.34.34,0,0,0-.25,0,.43.43,0,0,1-.29-.1s0-.07-.06-.1S12,12.17,12,12.2l0,0s0,0,.08.08a.24.24,0,0,0,.06.09.46.46,0,0,0,.26.11h.11a.2.2,0,0,1,.16.05,0,0,0,0,1,0,.06c0,.08-.09.13-.15.15Z"/><path class="cls-8" d="M15.87,13.13s0,.29.12.29a.52.52,0,0,0,.38-.14c.09-.07.25-.2.17-.32s-.05.08-.1.15a.51.51,0,0,1-.41.21c-.19,0-.12-.2-.16-.19Z"/><path class="cls-5" d="M16,13.43h0a.16.16,0,0,1-.14-.14c0-.07,0-.16,0-.17s0,0,0,0,0,.15.14.16a.58.58,0,0,0,.41-.21.59.59,0,0,1,0-.08s0-.08.05-.08h0s0,0-.06.07l0,.08a.52.52,0,0,1-.39.21c-.16,0-.17-.1-.18-.15v0s0,.09,0,.16a.14.14,0,0,0,.13.13h0a.46.46,0,0,0,.33-.13c.15-.11.22-.2.22-.27,0,.08-.06.16-.19.26a.55.55,0,0,1-.36.15Z"/><path class="cls-8" d="M16.32,13c-.05,0,.09-.09.11-.14s-.06-.1,0-.16.05.14.1.15,0,.12,0,.1-.16.07-.18.05Z"/><path class="cls-5" d="M16.33,13h0v0l0,0,.05,0a.21.21,0,0,1,.1,0h0s.07,0,.07-.06,0,0-.08,0,0,0-.06-.1a.08.08,0,0,0,0-.05s0,0,0,.05,0,.09.05.1.09,0,.09.05-.05.06-.08.06h0l-.1,0-.05,0Zm0,0s0,0,.05-.06.06,0,.06-.06a.07.07,0,0,0,0-.06.08.08,0,0,1,0-.1h0a.06.06,0,0,0,0,.09.09.09,0,0,1,0,.07.23.23,0,0,1-.07.07l-.05.05Z"/><path class="cls-8" d="M16.19,12.68c0,.07,0,.08,0,0s0-.11,0,0Z"/><path class="cls-1" d="M16.19,12.68c0,.07,0,.08,0,0S16.21,12.61,16.19,12.68Z"/><path class="cls-8" d="M16.31,12.6s0,.09,0,.09,0,.07.05.07,0-.1,0-.11,0-.05-.05-.05Z"/><path class="cls-5" d="M16.36,12.76h0l0,0s0,0,0,0,0,0,0,0,0-.05,0-.05,0,.05.05.05,0,0,0,0,0,.06,0,.06Zm-.05-.14s0,0,0,0,0,0,0,0,0,0,0,0l0,0h0s0,0,0-.05,0,0,0,0,0,0,0,0Z"/><path class="cls-8" d="M16.59,12.58s-.08-.14.11-.17.17.16.16.31a.63.63,0,0,1,0,.23c0,.06-.12.24-.16.23s0-.1.08-.2a.6.6,0,0,0,.05-.38s-.05.11-.12.14-.1-.05-.11-.09,0-.07.06,0,.09,0,.09-.1-.06,0-.13.05Z"/><path class="cls-5" d="M16.68,13.18h0s.11-.16.14-.23a.71.71,0,0,0,0-.21c0-.17-.07-.32-.16-.33s-.14.08-.13.13a.12.12,0,0,0,0,.05c.07-.07.1-.1.12-.1s0,0,0,0a.1.1,0,0,1,0,.09s0,0,0,0l0,0s0,0,0,.05.05.09.09.09a.18.18,0,0,0,.09-.1s0-.05,0-.05h0s0,0,0,0a.26.26,0,0,1-.07.1.12.12,0,0,1-.12-.09s0,0,0,0,0,0,.06,0h0a.15.15,0,0,0,0-.09,0,0,0,0,0,0,0s-.06,0-.1.07l0,0s0,0,0-.05,0-.12.14-.13.17.16.17.31a.73.73,0,0,1,0,.23s-.1.23-.15.23Zm0,0a.56.56,0,0,1,.08-.15.74.74,0,0,0,.07-.37.64.64,0,0,1,0,.36.64.64,0,0,0-.1.16Z"/><path class="cls-8" d="M17,12.17s-.11.11-.12.15a.17.17,0,0,0,0,.14.39.39,0,0,1,.08.22c0,.08-.07.24,0,.22a.43.43,0,0,0,.09-.29c0-.12-.07-.19-.06-.23s.07-.12.09-.17a.38.38,0,0,0,0-.2s-.09,0-.06.06.06,0,.05.1Z"/><path class="cls-5" d="M16.93,12.91h0s0-.06,0-.13a.44.44,0,0,0,0-.1.38.38,0,0,0-.05-.19.22.22,0,0,1,0-.18l.07-.08a.33.33,0,0,0,.06-.06c0-.05,0-.05,0-.06l0,0v0A.07.07,0,0,1,17,12s0,.15,0,.2l-.05.1s0,0,0,.07a.15.15,0,0,0,0,.08,1.55,1.55,0,0,1,0,.15.38.38,0,0,1-.09.3ZM17,12,17,12c0,.05,0,.05,0,.06s0,0,0,.07l-.05.06-.07.09a.14.14,0,0,0,0,.14.4.4,0,0,1,.07.22.36.36,0,0,1,0,.1c0,.05,0,.11,0,.12h0a.38.38,0,0,0,.08-.29.33.33,0,0,0,0-.15.31.31,0,0,1,0-.08.59.59,0,0,0,0-.08.14.14,0,0,0,.05-.09A.36.36,0,0,0,17,12Z"/><path class="cls-8" d="M17.12,12.23s0,.18,0,.13,0-.15,0-.13Z"/><path class="cls-1" d="M17.12,12.23s0,.18,0,.13S17.15,12.21,17.12,12.23Z"/><path class="cls-8" d="M16.33,13.35c0,.07.05.09.07.05s0-.11-.07-.05Z"/><path class="cls-1" d="M16.33,13.35c0,.07.05.09.07.05S16.35,13.29,16.33,13.35Z"/><path class="cls-8" d="M16.43,13.29c0,.06.07.06.1,0s-.07-.07-.1,0Z"/><path class="cls-5" d="M16.47,13.35l0,0v0a0,0,0,0,0,.09,0c0-.08-.06-.05-.08,0a.05.05,0,0,1,.09,0,0,0,0,0,1,0,.05l-.06,0Z"/><path class="cls-5" d="M12.52,12.52c-.06,0,0,.07,0,.1s.16,0,0-.1Z"/><path class="cls-5" d="M12.51,12.63h0a.1.1,0,0,1,0-.09l0,0c.06,0,.06.06.06.07a.09.09,0,0,1-.07.05Zm0-.11a.07.07,0,0,0,0,.1h0s.06,0,.06,0,0,0-.06-.06Z"/><path class="cls-5" d="M14.74,7c-.51.1-.86.4-.69.5s.56-.12.66-.27a.89.89,0,0,0,.79.32Z"/><path d="M15.39,7.57a1,1,0,0,1-.68-.31,1.18,1.18,0,0,1-.5.25.36.36,0,0,1-.19,0A.16.16,0,0,1,14,7.37c0-.17.38-.37.77-.45a.05.05,0,0,1,0,0s0,0,0,0c-.39.08-.67.28-.69.39s0,0,0,0,0,0,.12,0a1,1,0,0,0,.49-.25l0-.06,0,.06a.86.86,0,0,0,.73.3s0,0,0,0,0,0,0,0a.23.23,0,0,1-.13,0Z"/><path class="cls-5" d="M12.11,6.8a1.5,1.5,0,0,0,.84.46,6.06,6.06,0,0,0,1.15.11c.14-.06.53-.33.63-.28a3.18,3.18,0,0,0,.89.36A9.26,9.26,0,0,0,17.26,7c0-.08-.27-.28-.48-.28l-4.67.1Z"/><path class="cls-5" d="M13.33,7.43c0,.08.06.13.21.13a1.23,1.23,0,0,0,.89-.38Z"/><path d="M13.55,7.61h0c-.22,0-.24-.13-.24-.18a0,0,0,0,1,0,0s0,0,0,0,.06.09.17.09a1.25,1.25,0,0,0,.86-.37,0,0,0,0,1,.06,0s0,0,0,.06a1.33,1.33,0,0,1-.91.4Z"/><path class="cls-5" d="M12.6,7.31c0,.07.1.15.31.16a2.24,2.24,0,0,0,1.19-.34Z"/><path d="M12.92,7.51h0a.43.43,0,0,1-.32-.11.16.16,0,0,1,0-.09,0,0,0,1,1,.09,0,0,0,0,0,0,0,0,.37.37,0,0,0,.25.07,2.16,2.16,0,0,0,1.15-.32s0,0,.06,0a0,0,0,0,1,0,.06,2.21,2.21,0,0,1-1.21.35Z"/><path class="cls-5" d="M12.11,7.12c-.12.14.24.19.46.19a2,2,0,0,0,1-.19Z"/><path d="M12.57,7.35c-.07,0-.45,0-.52-.14a.11.11,0,0,1,0-.12,0,0,0,0,1,.06,0s0,0,0,.06,0,0,0,0,.23.1.44.1a2,2,0,0,0,1-.19,0,0,0,0,1,.06,0s0,0,0,.06a2,2,0,0,1-1,.2Z"/><path class="cls-5" d="M11.71,6.87c-.11.14.26.27.7.26A3.16,3.16,0,0,0,13.23,7Z"/><path d="M12.36,7.17c-.3,0-.63-.06-.7-.2a.13.13,0,0,1,0-.13,0,0,0,0,1,.06,0s0,0,0,.06,0,0,0,0a1,1,0,0,0,.67.15,3.38,3.38,0,0,0,.81-.15,0,0,0,0,1,0,0,0,0,0,0,1,0,.06,2.94,2.94,0,0,1-.83.15Z"/><path class="cls-5" d="M16.09,7.43c0,.08-.06.13-.21.13A1.21,1.21,0,0,1,15,7.18Z"/><path d="M15.87,7.61a1.33,1.33,0,0,1-.91-.4,0,0,0,0,1,0-.06,0,0,0,0,1,.06,0,1.23,1.23,0,0,0,.86.37c.11,0,.16,0,.17-.09s0,0,0,0a0,0,0,0,1,0,0c0,.05,0,.18-.25.18Z"/><path class="cls-5" d="M16.81,7.31c0,.07-.09.15-.3.16a2.24,2.24,0,0,1-1.19-.34Z"/><path d="M16.5,7.51a2.21,2.21,0,0,1-1.21-.35.06.06,0,0,1,0-.06,0,0,0,0,1,.06,0,2.08,2.08,0,0,0,1.16.32.37.37,0,0,0,.25-.07.08.08,0,0,1,0-.07s.05,0,.06,0a.16.16,0,0,1,0,.09.43.43,0,0,1-.32.11Z"/><path class="cls-5" d="M17.31,7.12c.11.14-.25.19-.46.19a2,2,0,0,1-1-.19Z"/><path d="M16.86,7.35h0a2,2,0,0,1-1.05-.2s0,0,0-.06,0,0,.06,0a2,2,0,0,0,1,.19.71.71,0,0,0,.45-.09.06.06,0,0,1,0-.08s0,0,.05,0a.11.11,0,0,1,0,.13c-.06.13-.42.13-.5.13Z"/><path class="cls-5" d="M17.71,6.87c.11.14-.26.27-.7.26A3.16,3.16,0,0,1,16.19,7Z"/><path d="M17.06,7.17h0A3.15,3.15,0,0,1,16.17,7a0,0,0,0,1,0-.06s0,0,.05,0a3.38,3.38,0,0,0,.81.15,1,1,0,0,0,.67-.16s0,0,0,0a0,0,0,0,1,0-.06s.05,0,.06,0a.13.13,0,0,1,0,.13c-.07.14-.4.2-.7.2Z"/><path class="cls-5" d="M12.58,6.86a1.71,1.71,0,0,1-.93,0c-.14-.06-.38-.25,0-.25s.35,0,.62,0a14.81,14.81,0,0,0,2-.55c.28,0,.35.13.51.13s.21-.13.49-.13a14.38,14.38,0,0,0,2,.55c.26,0,.38,0,.62,0s.11.19,0,.25a1.71,1.71,0,0,1-.93,0Z"/><path d="M17.38,7a4.61,4.61,0,0,1-.55,0,0,0,0,0,1,0-.05,0,0,0,0,1,.05,0c.59.09.82,0,.9,0a.35.35,0,0,0,.19-.14h0s0,0-.14,0h-.62a4.29,4.29,0,0,1-1.36-.36,2.72,2.72,0,0,0-.61-.19.64.64,0,0,0-.3.08.53.53,0,0,1-.19,0,.59.59,0,0,1-.2,0,.58.58,0,0,0-.31-.08,2.72,2.72,0,0,0-.61.19,4.29,4.29,0,0,1-1.36.36h-.62c-.12,0-.14,0-.14,0a.36.36,0,0,0,.18.14,1.62,1.62,0,0,0,.91,0,0,0,0,0,1,0,0,0,0,0,0,1,0,.05,1.8,1.8,0,0,1-1,0c-.07,0-.26-.13-.23-.24s.13-.09.22-.1h.62a4.47,4.47,0,0,0,1.33-.36A2.29,2.29,0,0,1,14.21,6a.69.69,0,0,1,.35.08l.16,0,.15,0A.68.68,0,0,1,15.21,6a2.39,2.39,0,0,1,.64.19,4.47,4.47,0,0,0,1.33.36h.62c.09,0,.21,0,.22.1s-.16.21-.23.24a.85.85,0,0,1-.41.07Z"/><path class="cls-5" d="M14.71,4.84c-.27,0-.63,0-.75.26s-.13.72,0,.73.15-.38.21-.38.07.34.19.34.15-.35.18-.35.09.34.21.34.18-.33.21-.34.08.35.18.35.12-.34.19-.34.08.39.23.38.12-.39-.06-.73-.49-.25-.75-.26Z"/><path d="M13.92,5.87h0a.08.08,0,0,1-.07,0,1,1,0,0,1,.08-.74c.11-.27.42-.28.66-.28h.25c.25,0,.56,0,.67.29a1,1,0,0,1,.09.73.08.08,0,0,1-.07,0h0c-.12,0-.17-.15-.21-.28l0-.09s0,.06,0,.09-.07.24-.17.24-.14-.14-.18-.27h0c0,.11-.1.27-.21.27s-.17-.16-.21-.27h0c0,.13-.09.27-.18.27s-.14-.13-.17-.24a.19.19,0,0,0,0-.08.24.24,0,0,1,0,.08c0,.13-.07.28-.19.28Zm.79-1h-.12c-.25,0-.5,0-.59.24a.81.81,0,0,0-.08.67h0c.05,0,.09-.14.11-.22s.05-.17.1-.17.08.08.1.17,0,.18.09.18.08-.16.1-.22,0-.13.08-.13.05,0,.08.12.08.21.13.21.11-.15.13-.22,0-.1.07-.11.06,0,.09.13.07.21.1.22.07-.12.08-.18.05-.17.11-.17.07.07.1.17.07.21.12.21a.85.85,0,0,0-.09-.66c-.09-.23-.36-.23-.59-.24Z"/><path class="cls-5" d="M14.07,5c.07.12.63.12.66.12s.51,0,.63-.12Z"/><path d="M14.75,5.12h0c-.24,0-.62,0-.69-.14l.07,0a1.24,1.24,0,0,0,.61.09h0a1.29,1.29,0,0,0,.59-.09l.06.06a1.24,1.24,0,0,1-.64.12Z"/><path class="cls-5" d="M14.61,3.71V4.89s0,.07.1.07.11-.06.11-.06V3.71Z"/><path d="M14.72,5h0a.14.14,0,0,1-.15-.1V3.71h.09V4.89h0s0,0,.06,0,.07,0,.07,0V3.71h.08V4.9a.09.09,0,0,1,0,.06s-.05,0-.11,0Z"/><path class="cls-5" d="M14.72,3.85a1,1,0,0,1,.7.3.57.57,0,0,0,.35.06c.17,0-.29.29-.29.3l.17.31a1.2,1.2,0,0,1-.58-.21.64.64,0,0,0-.34,0Z"/><path d="M15.61,4.86a1.24,1.24,0,0,1-.56-.21.43.43,0,0,0-.25,0h-.08l0,0V3.81h.1a.73.73,0,0,1,.56.23.46.46,0,0,0,.1.07.58.58,0,0,0,.33.06h0c.06,0,.08,0,.08,0s0,.11-.28.29l0,0,.19.33Zm-.74-.34a.38.38,0,0,1,.22.06,1.32,1.32,0,0,0,.49.19l-.14-.24s0,0,.08-.1l.22-.17a.59.59,0,0,1-.34-.07l-.11-.09a.7.7,0,0,0-.51-.21h0v.63h.1Z"/><path class="cls-5" d="M15,3.49a.26.26,0,0,1-.26.25.25.25,0,1,1,0-.49.25.25,0,0,1,.26.24Z"/><path d="M14.71,3.77a.28.28,0,0,1-.28-.28.27.27,0,0,1,.28-.27.28.28,0,0,1,.29.27.29.29,0,0,1-.29.28Zm0-.49a.22.22,0,0,0-.23.21.23.23,0,0,0,.23.22.22.22,0,0,0,.23-.22.22.22,0,0,0-.23-.21Z"/><path class="cls-8" d="M12,9.34s-.06-.08-.18,0-.09.14-.09.32.09.25.14.24,0-.2.12-.23a.26.26,0,0,1,.33.14c0,.11-.06.23-.15.22s0-.1,0-.13,0-.15-.06-.18-.07.08-.07.12S12,10,11.91,10a.39.39,0,0,1-.26-.11.41.41,0,0,1-.06-.4c.05-.19.15-.21.2-.21s.2,0,.18.09Z"/><path class="cls-5" d="M12.15,10.05h0a.09.09,0,0,1,0-.1l0,0s0-.14-.06-.17-.06,0-.06.09S12,10,11.92,10a.36.36,0,0,1-.28-.11.43.43,0,0,1-.06-.4c.06-.19.15-.21.21-.22A.24.24,0,0,1,12,9.3h0v0h-.05a.11.11,0,0,0-.13,0c-.07.06-.09.14-.09.32s.08.23.12.23.05-.05.06-.1A.19.19,0,0,1,12,9.67a.26.26,0,0,1,.33.15.17.17,0,0,1,0,.17.14.14,0,0,1-.11.06Zm-.07-.33a.16.16,0,0,1,.1.19.09.09,0,0,1,0,.05l0,.06,0,0a.12.12,0,0,0,.1-.06.18.18,0,0,0,0-.16A.24.24,0,0,0,12,9.69s-.05.06-.06.12,0,.1-.07.11h0c-.06,0-.14-.1-.14-.25s0-.27.09-.33a.11.11,0,0,1,.14,0c0-.05-.08-.07-.13-.07s-.15,0-.21.2a.45.45,0,0,0,.06.39.33.33,0,0,0,.25.11h0A.15.15,0,0,0,12,9.84c0-.05,0-.12.05-.12Z"/><path class="cls-8" d="M11.84,10.12c-.06,0,0-.14-.13-.1s.09.19.15.19.05-.05,0-.09Z"/><path class="cls-5" d="M11.86,10.22h0a.33.33,0,0,1-.17-.18.11.11,0,0,1,.07,0c.05,0,.05,0,.06.06s0,0,0,0,.08.05.07.07,0,0-.05,0Zm-.1-.2h0a.27.27,0,0,0,.15.18l0,0s0,0-.07-.06,0,0,0-.06,0-.05,0-.05Z"/><path class="cls-8" d="M12,10.21c0,.14.06.13.06.2s-.14.05-.16.09-.05.14,0,.15.23,0,.26,0a.23.23,0,0,0,.32.13,3.66,3.66,0,0,0,.33-.23c.07,0-.06-.07-.14,0s-.19.2-.28.2-.16-.16-.16-.21.16,0,.18-.09,0-.13,0-.13-.27,0-.28,0,0-.14,0-.16-.16,0-.16,0Z"/><path class="cls-5" d="M12.41,10.85a.22.22,0,0,1-.21-.16s-.08,0-.17,0H12a.1.1,0,0,1-.09,0,.16.16,0,0,1,0-.12.08.08,0,0,1,.07,0c.05,0,.1,0,.1-.06a.19.19,0,0,0,0-.07.48.48,0,0,1,0-.13s0-.05.09-.05h.09a0,0,0,0,1,0,.05.12.12,0,0,0,0,.12h.26l0,0s0,.09,0,.12-.08.06-.12.07l-.06,0a.39.39,0,0,0,.08.16s.05,0,.07,0,.15-.07.27-.19.17,0,.18,0a.79.79,0,0,0-.15.12,2.51,2.51,0,0,1-.21.14l-.11,0Zm-.31-.21a.12.12,0,0,1,.11,0,.22.22,0,0,0,.31.13l.2-.14.13-.1s0-.07-.14,0a.73.73,0,0,1-.28.2h0s-.06,0-.08,0-.09-.13-.08-.17,0,0,.06,0,.1,0,.11-.07a.09.09,0,0,0,0-.1l0,0h-.07c-.1,0-.2,0-.2,0a.12.12,0,0,1,0-.12s0,0,0,0-.15,0-.15,0a.32.32,0,0,0,0,.13.14.14,0,0,1,0,.07c0,.06-.06.07-.11.07l-.06,0a.16.16,0,0,0,0,.12l.06,0h.16Z"/><path class="cls-8" d="M12.74,10.75c-.07.07-.26.19-.26.28a.18.18,0,0,0,.1.14.24.24,0,0,0,.24,0c.08-.07.12-.14.08-.15s-.13.14-.19.15-.15-.09,0-.21.28-.24.28-.27-.17,0-.22.1Z"/><path class="cls-5" d="M12.66,11.19h-.08a.2.2,0,0,1-.1-.15c0-.06.09-.14.17-.21l.09-.07a.43.43,0,0,1,.2-.12v0h0a.42.42,0,0,0-.2.1l-.09.08c-.08.06-.17.14-.17.2a.18.18,0,0,0,.09.13.24.24,0,0,0,.23,0c.07-.06.11-.11.1-.13l0,0s-.08,0-.1.09,0,.06-.06.06h0a.1.1,0,0,1-.09-.06.15.15,0,0,1,.05-.16l.15-.13a.76.76,0,0,0,.13-.13s0,.07-.12.14l-.15.13c-.06.07-.06.12,0,.15a.1.1,0,0,0,.08,0s0,0,0-.06.05-.09.11-.09h0s0,.11-.09.17a.28.28,0,0,1-.16,0Z"/><path class="cls-8" d="M12.43,11.25s.12,0,.15,0-.14-.05-.15,0Z"/><path class="cls-5" d="M12.5,11.29h0l-.06,0c0-.08.12-.07.14,0a.07.07,0,0,1-.08,0Zm0-.06s-.06,0-.06,0a.06.06,0,0,0,.06,0h0a.08.08,0,0,0,.07,0l-.07,0Z"/><path class="cls-8" d="M12.86,11.28c-.07.07,0,.16.06.23a.54.54,0,0,0,.15.09.31.31,0,0,0,.26,0c.09-.07.1-.19,0-.2s0,.18-.1.19a.34.34,0,0,1-.3-.21c-.05-.1.08-.12.06-.16s-.12.05-.17.1Z"/><path class="cls-5" d="M13.15,11.62l-.09,0a.34.34,0,0,1-.14-.09c-.07-.08-.13-.16-.06-.24s.11-.11.15-.11,0,.06,0,.07-.06.06,0,.11a.34.34,0,0,0,.29.2s0,0,0-.06a.15.15,0,0,1,0-.1s.08,0,.1,0,0,.12-.07.17a.31.31,0,0,1-.19.06ZM13,11.18s-.08,0-.15.1,0,.14.05.21a.41.41,0,0,0,.16.1.31.31,0,0,0,.26,0,.18.18,0,0,0,.07-.16c-.05,0-.07,0-.08,0a.13.13,0,0,0,0,.09s0,.07,0,.08h0a.37.37,0,0,1-.31-.21c0-.07,0-.1,0-.13s0,0,0,0Z"/><path class="cls-8" d="M13.21,11.27s.12,0,.11-.09-.14.05-.11.09Z"/><path class="cls-5" d="M13.23,11.29h0l0,0v0a.15.15,0,0,1,.11-.07.06.06,0,0,1,0,.07.12.12,0,0,1-.07,0Z"/><path class="cls-8" d="M13.4,11.63s0,.13-.06.13-.14-.09-.21-.08-.09.05-.08.08.12.06.31,0,.15.11.28.1.16-.06.15-.09-.13,0-.17,0a.23.23,0,0,1-.13-.14c0-.05,0-.15,0-.15s.05.08.06.11,0,.05.07,0a.15.15,0,0,0,0-.2c-.05,0-.22.06-.23.2Z"/><path class="cls-5" d="M13.63,11.9a.12.12,0,0,1-.1,0,.21.21,0,0,0-.14,0h-.11c-.13,0-.23,0-.24-.05s0,0,0,0a.07.07,0,0,1,.07,0h0a.21.21,0,0,1,.11,0,.26.26,0,0,0,.1,0c.05,0,.05,0,.05-.09a.25.25,0,0,1,.22-.24.1.1,0,0,1,.08.1.11.11,0,0,1,0,.11.05.05,0,0,1,0,0h0a0,0,0,0,1,0,0s0-.08,0-.09l0,0a.14.14,0,0,0,0,.15.2.2,0,0,0,.12.13h.1s.07,0,.07,0,0,0,0,0-.07.05-.15.05Zm-.27-.1a.22.22,0,0,1,.17,0,.15.15,0,0,0,.1,0h0a.33.33,0,0,0,.14,0s0,0-.06,0h-.1a.21.21,0,0,1-.13-.13.24.24,0,0,1,0-.15l0,0,.05,0a.17.17,0,0,1,0,.07c0,.07,0,.07.05,0a.08.08,0,0,0,0-.09.23.23,0,0,0,0-.1.25.25,0,0,0-.23.2c0,.08,0,.13-.06.14h0a.24.24,0,0,1-.1,0,.26.26,0,0,0-.1,0c-.05,0-.06,0-.07,0s0,0,0,0,.1.06.3.05Z"/><path class="cls-8" d="M13.87,11.64c0,.1-.08.1-.07.14a.81.81,0,0,1,0,.15c0,.06.07.08.15.07s.11-.09.15-.08,0,.13.15.13.14-.1.18-.1,0,.11.13.11.13-.1.17-.1,0,.11.18.1a.78.78,0,0,0,.27-.05s0-.12.09-.12.12.08.18.08.19-.16.23-.16.07.1.16.1.16-.19.22-.19.12-.06.13-.08a.71.71,0,0,0,0-.27S16.05,11,16,11s0,.09,0,.15.24.32.21.4-.17,0-.28,0-.26.32-.37.33-.1,0-.09-.08.07-.17,0-.15-.25.08-.23.14.09.14,0,.17a.72.72,0,0,1-.29,0c-.07,0,0-.18-.07-.18s-.05.18-.12.19a.13.13,0,0,1-.14-.08s0-.11,0-.12-.09.2-.15.2a.14.14,0,0,1-.11-.06s0-.19,0-.2-.14.21-.18.21-.12,0-.14-.05a1.59,1.59,0,0,1,0-.22s-.06,0-.06,0Z"/><path class="cls-5" d="M14.61,12.07c-.06,0-.08,0-.1-.08l0,0,0,0a.19.19,0,0,1-.14.07c-.09,0-.1-.06-.12-.1s0,0,0,0,0,0-.05,0a.19.19,0,0,1-.1,0c-.09,0-.15,0-.16-.07a.39.39,0,0,0,0-.12l0,0a.05.05,0,0,1,0,0,.14.14,0,0,0,0-.1s0,0,.05,0l0,0a.78.78,0,0,0,0,.22s.08,0,.12,0h0s0,0,.07-.08.07-.13.11-.13,0,.06,0,.11a.13.13,0,0,0,0,.09c0,.05.05.06.11.06h0s.06-.06.08-.11,0-.09.07-.09,0,0,0,.07,0,0,0,.06a.12.12,0,0,0,.12.07s.06,0,.08-.1,0-.09.05-.09,0,0,0,.07,0,.1,0,.11a.57.57,0,0,0,.29,0l0,0s0-.05,0-.08l0-.05a.07.07,0,0,1,0,0,.33.33,0,0,1,.23-.1s.07,0,.08,0,0,.1,0,.14,0,.06.07.06.1-.07.15-.14.13-.19.23-.19a.37.37,0,0,1,.14,0c.07,0,.12,0,.14,0s-.14-.28-.2-.36l0,0s-.05-.1,0-.13,0,0,0,0,.23.35.24.38a.71.71,0,0,1,0,.28s0,.06-.13.07a.14.14,0,0,0-.06.07.19.19,0,0,1-.16.12.16.16,0,0,1-.12-.06.05.05,0,0,0,0,0l-.09.06c-.05,0-.1.1-.14.1a.19.19,0,0,1-.1-.05s-.05,0-.07,0,0,0-.06.07l0,0a.64.64,0,0,1-.28.06h0a.18.18,0,0,1-.15-.08l0,0,0,0a.16.16,0,0,1-.12.07ZM14.48,12s0,0,0,0,0,.07.09.07.08,0,.11-.07,0,0,.06,0,0,0,0,0a.15.15,0,0,0,.13.07.57.57,0,0,0,.28-.06l0-.05s0-.07.06-.07a.12.12,0,0,1,.08,0,.26.26,0,0,0,.1,0s.09-.05.14-.09l.09-.07h0a.07.07,0,0,1,0,0,.15.15,0,0,0,.11.06c.08,0,.12-.06.15-.12s0-.07.07-.07.11-.05.12-.06a1,1,0,0,0,0-.28S16,11,16,11a.11.11,0,0,0,0,.14l0,0c.11.15.22.31.2.37s-.08,0-.15,0a.43.43,0,0,0-.14,0c-.09,0-.16.1-.22.19s-.1.14-.15.15a.11.11,0,0,1-.09,0,0,0,0,0,1,0,0s0-.09,0-.12,0,0-.05,0a.36.36,0,0,0-.24.09s0,0,0,0a.14.14,0,0,0,0,.06.09.09,0,0,1,0,.08s0,0,0,0a.48.48,0,0,1-.29,0c-.05,0-.05-.07-.05-.11s0-.05-.06,0,0,.11-.08.11h0c-.08,0-.13,0-.14-.08a.06.06,0,0,1,0-.06s0-.05,0-.05h0s0,0-.06.08-.05.12-.09.12-.08,0-.1,0,0-.08,0-.12,0-.09,0-.09h0s-.07.06-.1.11-.05.1-.07.1-.12,0-.14-.06a1.86,1.86,0,0,1,0-.22h0c0,.08,0,.11-.06.12l0,0,0,0a.55.55,0,0,1,0,.12s.05.07.12.07a.28.28,0,0,0,.11-.05s0,0,.06,0,0,0,0,.05,0,.08.1.08a.16.16,0,0,0,.13-.06s0,0,.05,0Z"/><path class="cls-8" d="M16.12,11c.13.18.24.43.3.45s-.14-.34-.2-.41-.2-.2-.1,0Z"/><path class="cls-5" d="M16.43,11.48h0s-.1-.11-.18-.24L16.12,11c0-.06,0-.07,0-.08s.11.06.15.11a1.82,1.82,0,0,1,.21.42ZM16.09,11l0,.07.12.2c.07.12.13.23.17.24a1.64,1.64,0,0,0-.2-.4.37.37,0,0,0-.13-.11Z"/><path class="cls-8" d="M13.86,11.48s0,.09,0,.08.07-.08.06-.09a0,0,0,0,0-.08,0Z"/><path class="cls-5" d="M13.87,11.57h0a.11.11,0,0,1,0-.08c0-.07.08,0,.09,0s0,.1-.06.11Z"/><path class="cls-8" d="M16.48,11.11a.2.2,0,0,0,.21.21A.35.35,0,0,0,17,11c0-.15-.17-.26-.22-.22s0,.14.14.15,0,.1-.06.18-.26.08-.29,0-.06-.08-.06,0Z"/><path class="cls-5" d="M16.67,11.32a.17.17,0,0,1-.13-.05.23.23,0,0,1-.06-.16v0s.05,0,.06.06.2,0,.28,0,.1-.12.09-.15a.23.23,0,0,1-.18-.12s0-.05,0-.06a.22.22,0,0,1,.17.07A.27.27,0,0,1,17,11a.35.35,0,0,1-.29.3Zm-.18-.24a.23.23,0,0,0,.06.18.17.17,0,0,0,.12.05h0A.34.34,0,0,0,17,11a.24.24,0,0,0-.06-.15.21.21,0,0,0-.14-.07s0,0,0,0a.15.15,0,0,0,.14.1h0l0,0s0,.1-.09.16-.26.09-.3,0,0-.07,0-.07Z"/><path class="cls-8" d="M16.56,10.81s0,.13.07.12-.05-.15-.07-.12Z"/><path class="cls-5" d="M16.57,10.81a.15.15,0,0,0,0,.09l0,0h0a.19.19,0,0,0-.06-.12Z"/><path class="cls-8" d="M17,10.74c0,.06.06.15.11.15s.1,0,.1.06-.14.2-.15.25.06.08.09,0a1.89,1.89,0,0,0,.13-.33,1.33,1.33,0,0,0,.08-.24c0-.11.09,0,.14,0s.09-.08.1-.14-.05-.06-.05-.12.06-.12.06-.18S17.45,10,17.4,10s0,.07,0,.09.08.08.06.12-.22.12-.23.21,0,.29-.05.29-.1-.14-.19-.14-.08.14-.06.19Z"/><path class="cls-5" d="M17.05,11.27h0a.06.06,0,0,1,0-.06.28.28,0,0,1,.07-.13.31.31,0,0,0,.07-.12s0-.06-.09-.06-.08-.07-.11-.13a.23.23,0,0,1,0-.18c0-.07.13,0,.18.05s.05,0,.07,0,0-.12,0-.2a.19.19,0,0,1,0-.08c0-.05.06-.09.11-.12s.1,0,.11-.09,0-.08,0-.11-.05-.06,0-.09a.11.11,0,0,1,.1,0,.4.4,0,0,1,.09.17s0,.08,0,.12a.39.39,0,0,0,0,.06.06.06,0,0,0,0,0s0,0,0,.07-.05.15-.1.15l-.05,0-.06,0s0,0,0,.05a.34.34,0,0,1,0,.17.25.25,0,0,0,0,.07,3.42,3.42,0,0,1-.13.34l-.06,0Zm0-.71a.05.05,0,0,0-.05,0,.14.14,0,0,0,0,.14c0,.08.06.15.1.15s.11,0,.11.07a.4.4,0,0,1-.08.12s-.07.1-.07.13,0,.05,0,.05h0l.05,0a3.24,3.24,0,0,0,.13-.33.31.31,0,0,1,0-.08.38.38,0,0,0,.05-.16s0,0,0-.05a.12.12,0,0,1,.09,0l.05,0h0s.09-.08.09-.14a.14.14,0,0,0,0-.06.08.08,0,0,1,0-.06.1.1,0,0,1,0-.06.7.7,0,0,0,0-.12s0-.11-.08-.16,0,0-.07,0,0,0,0,.08.09.08.07.13a.23.23,0,0,1-.12.09c-.06,0-.11.06-.11.11s0,0,0,.08,0,.21-.05.21-.05,0-.08,0-.06-.08-.11-.08Z"/><path class="cls-8" d="M17.09,9.91s.09.21.14.21,0-.08,0-.11.11-.07.07-.08-.18-.07-.18,0Z"/><path class="cls-5" d="M17.23,10.12c-.06,0-.14-.17-.14-.21l0,0,.11,0h0a0,0,0,0,1,0,.05l0,0,0,.05s0,0,0,0Zm-.11-.23c0,.06.06.22.11.22h0s0,0,0,0l0-.05s0,0,0,0l0,0h0l-.11,0Z"/><path class="cls-8" d="M17.09,9.69c0,.06.24.14.33.17s.21.14.26.1-.3-.17-.35-.19-.25-.13-.24-.08Z"/><path class="cls-5" d="M17.66,10a.33.33,0,0,1-.12-.06l-.12-.06c-.06,0-.32-.1-.34-.16h0c0,.06.22.13.32.16l.13.06a.21.21,0,0,0,.11.05h0s-.22-.14-.34-.18l-.06,0-.15-.06a.49.49,0,0,1,.16.05l.06,0s.34.13.35.18l0,0Z"/><path class="cls-8" d="M17.76,10.05c.09,0,0-.17,0-.21s-.05.08-.05.11,0,.09,0,.1Z"/><path class="cls-5" d="M17.76,10.05h0s0-.05,0-.08a.18.18,0,0,1,0-.13h0a.13.13,0,0,0,0,.1s0,.09,0,.09h0s0,0,0,0,0-.11,0-.16a.22.22,0,0,1,0,.17l0,0Z"/><path class="cls-8" d="M17.28,9.23s.23,0,.33,0,.21.1.24.08-.22-.14-.36-.14-.21,0-.21,0Z"/><path class="cls-5" d="M17.83,9.35l-.15,0-.07,0-.19,0c-.1,0-.15,0-.15,0s.11,0,.17,0h0a.58.58,0,0,1,.36.12l0,0Zm-.47-.14c-.07,0-.08,0-.08,0h.14l.2,0,.07,0a.6.6,0,0,0,.14.05h0c0-.06-.22-.13-.35-.13h-.13Z"/><path class="cls-8" d="M17.22,9.33c0,.05.13.1.3.1s.26.1.25.17-.23.05-.2.11.1,0,.11.09.06.06.06,0,.13-.14.12-.16a.31.31,0,0,0-.27-.25c-.19,0-.32-.11-.37-.05Z"/><path class="cls-5" d="M17.72,9.85s0,0,0,0,0,0-.05,0-.05,0-.06,0a.07.07,0,0,1,.07,0c.05,0,.12,0,.13-.07a.11.11,0,0,0,0-.07.3.3,0,0,0-.22-.09c-.14,0-.3,0-.31-.09s.09,0,.17,0l.21.05a.33.33,0,0,1,.28.25l-.05.06a.26.26,0,0,0-.07.1.2.2,0,0,1,0,.05Zm-.45-.53s0,0-.05,0,.16.08.3.09a.33.33,0,0,1,.23.09.1.1,0,0,1,0,.09c0,.07-.09.07-.14.08h-.06s0,0,.06.05a.06.06,0,0,1,.06.05,0,0,0,0,0,0,0h0s0,0,0,0,.05-.07.08-.11l.05,0a.32.32,0,0,0-.27-.24l-.21-.05-.11,0Z"/><path class="cls-5" d="M12.09,10.5s-.12.07-.09.09.13-.07.09-.09Z"/><path class="cls-5" d="M12,10.6h0a.09.09,0,0,0,.07-.05s0,0,0,0l-.06,0a.05.05,0,0,1,.05,0s0,0,0,0a.09.09,0,0,1-.07.06Z"/><path class="cls-5" d="M12.28,10.4s-.06.09,0,.1.12-.09,0-.1Z"/><path class="cls-5" d="M12.27,10.5h0s0,0,0,0,0-.06,0-.06.06,0,.06,0,0,.05-.07.05Z"/><path class="cls-5" d="M17.08,10.67s-.08,0-.06.07a.09.09,0,0,0,.12,0s0-.1-.06-.1Z"/><path class="cls-5" d="M17.09,10.78a.08.08,0,0,1-.07,0,0,0,0,0,1,0-.05s.05,0,.06,0,.06,0,.07,0a.07.07,0,0,1,0,.06Zm0-.11a.09.09,0,0,0-.06,0,0,0,0,0,0,0,0,.08.08,0,0,0,.12,0,0,0,0,0,0,0,0s0,0-.07,0Z"/><path class="cls-5" d="M17.34,10.47s.05,0,.08,0,0-.06,0-.07-.09,0-.09,0Z"/><path class="cls-5" d="M17.38,10.51s0,0,0,0v0c0,.08,0,.06.07.05l0,0a0,0,0,0,0,0,0s0,0,0,0,0,0,0,0Z"/><path class="cls-5" d="M15.84,11.65c-.05.1,0,.2.06.18s.15-.16.09-.2a.09.09,0,0,0-.15,0Z"/><path class="cls-5" d="M15.89,11.83a.07.07,0,0,1-.06,0,.16.16,0,0,1,0-.15.09.09,0,0,1,.15,0,.06.06,0,0,1,0,.07.18.18,0,0,1-.11.13Zm0-.23a.08.08,0,0,0-.08.05.14.14,0,0,0,0,.15.05.05,0,0,0,.05,0h0A.2.2,0,0,0,16,11.7s0-.06,0-.07a.11.11,0,0,0-.07,0Z"/><path class="cls-5" d="M9.79,7.53c-.17,0-.55-.09-.56,0a3.38,3.38,0,0,0,.32,1.08,1.75,1.75,0,0,0,.7.33,1.82,1.82,0,0,0-.17-.68,2.46,2.46,0,0,1-.23-.48s-.07-.23-.06-.23Z"/><path class="cls-5" d="M9.45,7.5c.05-.22.29,0,.27.32a.35.35,0,0,0,.09.25Z"/><path d="M9.78,8.1a.36.36,0,0,1-.1-.29.37.37,0,0,0-.16-.35s0,0,0,0l-.09,0c0-.12.1-.11.12-.11s.25.23.23.44A.33.33,0,0,0,9.84,8l-.06.06Z"/><path class="cls-5" d="M9.67,7.51h0c.12-.21.24.09.26.44Z"/><path d="M9.88,8a.75.75,0,0,0-.13-.47s0,0-.05,0h0v0l-.07,0c.05-.09.11-.1.15-.09s.19.36.2.55Z"/><path class="cls-5" d="M9.24,7.48c0-.18.27-.23.26.4a1,1,0,0,1,.27.49.49.49,0,0,1,.28.23Z"/><path d="M10,8.61a.45.45,0,0,0-.25-.2h0v0a.86.86,0,0,0-.26-.45l0,0v0c0-.38-.09-.46-.11-.47h0a.07.07,0,0,0,0,.06H9.2a.14.14,0,0,1,.06-.14.11.11,0,0,1,.13,0c.06,0,.16.15.15.52a1,1,0,0,1,.27.48.51.51,0,0,1,.28.24l-.08,0Z"/><path class="cls-5" d="M9.93,10.94a12.67,12.67,0,0,0,0-1.61c-.09-.2-.53-.44-.66-.76A3.35,3.35,0,0,1,9,7.36c.07-.14.31.17.25.5.28.34.22.54.28.58s.45.23.49.35,0-.31-.1-.41S9.75,8,9.84,8s.26.1.28.14a4.35,4.35,0,0,0,.31.35c.12.08.41.28.4.44s0,2,0,2Z"/><path d="M10,10.94H9.89a13.34,13.34,0,0,0,0-1.59,1.07,1.07,0,0,0-.26-.28,1.53,1.53,0,0,1-.4-.48A3.19,3.19,0,0,1,9,7.34a.1.1,0,0,1,.13,0,.55.55,0,0,1,.2.55,1,1,0,0,1,.25.51s0,.05,0,.06l.23.14.21.13a1.43,1.43,0,0,0-.1-.28S9.74,8.14,9.77,8s0-.06.05-.07a.14.14,0,0,1,.12,0,.45.45,0,0,1,.22.17,3.91,3.91,0,0,0,.3.33l0,0c.14.11.38.28.38.45s0,2,0,2h-.09s0-1.76,0-2-.23-.3-.34-.38l0,0a3.49,3.49,0,0,1-.33-.36A.37.37,0,0,0,9.92,8H9.86a.56.56,0,0,0,.14.34,1.31,1.31,0,0,1,.14.51v0h0s0,0-.07-.08a.64.64,0,0,0-.26-.19,1.14,1.14,0,0,1-.23-.15.16.16,0,0,1,0-.11.84.84,0,0,0-.24-.48h0v0a.5.5,0,0,0-.14-.48,2.84,2.84,0,0,0,.18,1.19A1.45,1.45,0,0,0,9.66,9a1,1,0,0,1,.28.31,11.87,11.87,0,0,1,0,1.62Z"/><path class="cls-5" d="M9.87,11.57v.19c.09.11.43.12.51.12s.4,0,.48-.12v-.21Z"/><path d="M10.39,11.92c-.1,0-.45,0-.55-.13v-.22h.09v.19a1.22,1.22,0,0,0,.46.07c.26,0,.4,0,.44-.1v-.18h.09a1.28,1.28,0,0,1,0,.22c-.08.13-.3.15-.49.15Z"/><path class="cls-5" d="M9.86,11.29a.13.13,0,0,0,0,.22.87.87,0,0,0,.54.16c.26,0,.61-.09.63-.23s-.14-.14-.12-.13Z"/><path d="M10.37,11.71h0a1,1,0,0,1-.58-.17.22.22,0,0,1,0-.19.17.17,0,0,1,.12-.11l0,.09a.05.05,0,0,0,0,0,.09.09,0,0,0,0,.11.79.79,0,0,0,.51.14c.27,0,.57-.09.58-.19a.08.08,0,0,0,0-.07s0,0,0,0v0l0-.06,0,0h0a.16.16,0,0,1,.14.18c0,.18-.38.27-.65.27Z"/><path class="cls-5" d="M9.86,11c-.1,0-.11.14,0,.23a.92.92,0,0,0,.55.17c.26,0,.59-.1.61-.25s-.09-.13-.1-.12Z"/><path d="M10.38,11.46h0a.92.92,0,0,1-.58-.18.21.21,0,0,1,0-.2.16.16,0,0,1,.11-.1l0,.08a.06.06,0,0,0,0,0,.12.12,0,0,0,0,.11.87.87,0,0,0,.51.16c.27,0,.56-.1.57-.21a.1.1,0,0,0,0-.07L10.85,11a.12.12,0,0,1,.1,0,.15.15,0,0,1,.06.16c0,.18-.37.28-.63.28Z"/><path class="cls-5" d="M10.4,11.17c.35,0,.58-.17.58-.26s-.12-.09-.19-.07a.79.79,0,0,1-.4.1c-.23,0-.43-.16-.5-.16a.13.13,0,0,0-.1.16.71.71,0,0,0,.61.23Z"/><path d="M10.37,11.21A.72.72,0,0,1,9.75,11a.16.16,0,0,1,0-.15.15.15,0,0,1,.12-.07l.14,0a.76.76,0,0,0,.35.11,1,1,0,0,0,.36-.08l0,0c.11,0,.24,0,.24.11s-.24.3-.6.3Zm-.48-.38s0,0-.05,0a.09.09,0,0,0,0,.07.66.66,0,0,0,.54.2v0l0,0h0c.35,0,.53-.16.53-.22s0,0-.06,0h-.06l0,0a.86.86,0,0,1-.38.08h0a.82.82,0,0,1-.39-.11l-.11,0Z"/><path class="cls-5" d="M19.67,7.53c.17,0,.55-.09.57,0a4,4,0,0,1-.32,1.08,1.88,1.88,0,0,1-.7.33c-.06,0,.1-.58.16-.68a2.46,2.46,0,0,0,.23-.48s.07-.23.06-.23Z"/><path class="cls-5" d="M20,7.5c0-.22-.29,0-.27.32a.35.35,0,0,1-.09.25Z"/><path d="M19.68,8.1,19.62,8a.28.28,0,0,0,.08-.21c0-.22.11-.44.23-.45s.1,0,.12.11l-.08,0s0,0,0,0a.38.38,0,0,0-.15.36.39.39,0,0,1-.11.28Z"/><path class="cls-5" d="M19.79,7.51h0c-.12-.21-.24.09-.26.44Z"/><path d="M19.58,8H19.5c0-.19.06-.52.2-.55s.09,0,.14.09l-.07,0h0s0,0-.05,0-.12.2-.14.47Z"/><path class="cls-5" d="M20.22,7.48c0-.18-.27-.23-.25.4a.91.91,0,0,0-.28.49.49.49,0,0,0-.28.23Z"/><path d="M19.45,8.61l-.08,0a.51.51,0,0,1,.28-.24,1,1,0,0,1,.27-.48c0-.37.09-.49.15-.52a.1.1,0,0,1,.13,0,.16.16,0,0,1,.07.14h-.09a.07.07,0,0,0,0-.06h0S20,7.5,20,7.88v0l0,0a.79.79,0,0,0-.25.45v0h0a.45.45,0,0,0-.25.2Z"/><path class="cls-5" d="M19.53,10.94a12.67,12.67,0,0,1,0-1.61c.09-.2.53-.44.67-.76a3.29,3.29,0,0,0,.19-1.21c-.07-.14-.31.17-.24.5-.29.34-.23.54-.29.58s-.44.23-.49.35,0-.31.1-.41.21-.35.12-.41-.26.1-.28.14a4.35,4.35,0,0,1-.31.35c-.12.08-.41.28-.4.44s0,2,0,2Z"/><path d="M19.49,10.94a11.87,11.87,0,0,1,0-1.62A1.1,1.1,0,0,1,19.8,9a1.32,1.32,0,0,0,.39-.46,3.42,3.42,0,0,0,.19-1.17c-.08,0-.21.23-.16.47v0h0a1,1,0,0,0-.24.48.16.16,0,0,1,0,.11,1.14,1.14,0,0,1-.23.15c-.11.06-.23.13-.25.19s0,.08-.07.08h0l0,0a1.31,1.31,0,0,1,.14-.51A.68.68,0,0,0,19.61,8s0,0-.07,0a.37.37,0,0,0-.16.12s-.26.3-.32.36l0,0c-.11.08-.34.25-.34.38s0,2,0,2h-.09s0-1.76,0-2,.23-.34.37-.45l0,0a2.8,2.8,0,0,0,.3-.33.45.45,0,0,1,.22-.17.14.14,0,0,1,.12,0,.08.08,0,0,1,.05.07c0,.13-.14.37-.16.39a1.43,1.43,0,0,0-.1.28,1.42,1.42,0,0,1,.22-.13l.22-.14s0,0,0-.06a1.12,1.12,0,0,1,.25-.51.53.53,0,0,1,.21-.55.09.09,0,0,1,.12,0,3.35,3.35,0,0,1-.19,1.25,1.57,1.57,0,0,1-.41.48,1.07,1.07,0,0,0-.26.28,12,12,0,0,0,0,1.59Z"/><path class="cls-5" d="M19.59,11.57v.19c-.08.11-.43.12-.51.12s-.4,0-.48-.12v-.21Z"/><path d="M19.09,11.92h0c-.21,0-.44,0-.51-.14a1.48,1.48,0,0,1,0-.23h.08a1.21,1.21,0,0,0,0,.2c0,.05.17.08.41.08a.93.93,0,0,0,.5-.09l0-.17h.09v.19c-.11.15-.48.16-.54.16Z"/><path class="cls-5" d="M19.6,11.29a.13.13,0,0,1,.06.22.94.94,0,0,1-.55.16c-.26,0-.61-.09-.62-.23s.13-.14.11-.13Z"/><path d="M19.09,11.71c-.27,0-.63-.09-.65-.27a.16.16,0,0,1,.14-.18h0l0,.07,0,0,0,0v0h0a.14.14,0,0,0,0,.07c0,.1.31.19.58.19a.79.79,0,0,0,.51-.14.11.11,0,0,0,0-.11s0,0-.06,0l0-.09a.17.17,0,0,1,.12.11.2.2,0,0,1,0,.19,1,1,0,0,1-.58.17Z"/><path class="cls-5" d="M19.6,11c.1,0,.12.14,0,.23a.92.92,0,0,1-.55.17c-.26,0-.59-.1-.61-.25s.1-.13.1-.12Z"/><path d="M19.08,11.46c-.25,0-.61-.1-.63-.28s0-.14.06-.16a.12.12,0,0,1,.1,0l0,.07s0,.05,0,.09.29.2.56.21a.91.91,0,0,0,.52-.16.15.15,0,0,0,0-.11.06.06,0,0,0-.05,0l0-.08a.13.13,0,0,1,.11.1.19.19,0,0,1,0,.2.87.87,0,0,1-.58.18Z"/><path class="cls-5" d="M19.06,11.17c-.35,0-.57-.17-.57-.26s.11-.09.18-.07a.79.79,0,0,0,.4.1c.23,0,.43-.16.5-.16a.12.12,0,0,1,.1.16.69.69,0,0,1-.61.23Z"/><path d="M19.09,11.21h0a.82.82,0,0,1-.44-.1c-.11-.06-.18-.13-.18-.2s.13-.15.24-.11l.05,0a.83.83,0,0,0,.34.08h0a.77.77,0,0,0,.36-.11.34.34,0,0,1,.14,0,.15.15,0,0,1,.12.07.16.16,0,0,1,0,.15.72.72,0,0,1-.62.25Zm-.5-.34c-.06,0-.06,0-.06,0s0,.07.13.13a.89.89,0,0,0,.38.09h.05a.64.64,0,0,0,.54-.2.09.09,0,0,0,0-.07.05.05,0,0,0-.05,0l-.1,0a.9.9,0,0,1-.39.11.87.87,0,0,1-.39-.08l0,0Z"/></g></g></g></g></g></g></svg>