<svg xmlns="http://www.w3.org/2000/svg" xmlns:xlink="http://www.w3.org/1999/xlink" viewBox="0 0 29.46 17.19"><defs><style>.cls-1{fill:none;}.cls-2{clip-path:url(#clip-path);}.cls-3{fill:#bc0030;}.cls-4{fill:#50b63f;}.cls-5{fill:#fff;}</style><clipPath id="clip-path"><rect class="cls-1" width="29.46" height="17.19"/></clipPath></defs><g id="Layer_2" data-name="Layer 2"><g id="cá»"><g id="east_africa" data-name="east africa"><g class="cls-2"><polygon class="cls-3" points="27.17 0 2.29 0 14.73 7.26 27.17 0"/><polygon class="cls-3" points="2.29 17.19 27.17 17.19 14.73 9.93 2.29 17.19"/><polygon class="cls-4" points="29.46 15.85 29.46 1.34 17.02 8.59 29.46 15.85"/><polygon class="cls-4" points="0 15.85 12.44 8.59 0 1.34 0 15.85"/><g class="cls-2"><path class="cls-5" d="M29.46,0H27.17L18.3,5.18a5.09,5.09,0,0,0-7.14,0L2.29,0H0V1.34l10,5.8a4.72,4.72,0,0,0,0,2.91L0,15.85v1.34H2.29L11.16,12a5.12,5.12,0,0,0,7.14,0l8.87,5.18h2.29V15.85l-9.95-5.8a4.72,4.72,0,0,0,0-2.91l10-5.8Z"/><polygon class="cls-4" points="15.06 5.5 14.73 4.93 14.4 5.5 13.74 5.5 14.07 6.07 13.74 6.65 14.4 6.65 14.73 7.22 15.06 6.65 15.72 6.65 15.39 6.07 15.72 5.5 15.06 5.5"/><polygon class="cls-4" points="17.57 9.85 17.91 9.28 17.25 9.28 16.91 8.71 16.58 9.28 15.92 9.28 16.25 9.85 15.92 10.43 16.58 10.43 16.91 11 17.25 10.43 17.91 10.43 17.57 9.85"/><polygon class="cls-4" points="12.88 9.28 12.55 8.71 12.22 9.28 11.56 9.28 11.89 9.85 11.56 10.43 12.22 10.43 12.55 11 12.88 10.43 13.54 10.43 13.21 9.85 13.54 9.28 12.88 9.28"/><polygon class="cls-3" points="15 5.6 14.73 5.13 14.46 5.6 13.92 5.6 14.19 6.07 13.92 6.54 14.46 6.54 14.73 7.01 15 6.54 15.54 6.54 15.27 6.07 15.54 5.6 15 5.6"/><polygon class="cls-3" points="17.46 9.85 17.73 9.38 17.18 9.38 16.91 8.91 16.64 9.38 16.1 9.38 16.37 9.85 16.1 10.32 16.64 10.32 16.91 10.79 17.18 10.32 17.73 10.32 17.46 9.85"/><polygon class="cls-3" points="12.82 9.38 12.55 8.91 12.28 9.38 11.73 9.38 12.01 9.85 11.73 10.32 12.28 10.32 12.55 10.79 12.82 10.32 13.36 10.32 13.09 9.85 13.36 9.38 12.82 9.38"/></g></g></g></g></g></svg>