<svg xmlns="http://www.w3.org/2000/svg" xmlns:xlink="http://www.w3.org/1999/xlink" viewBox="0 0 29.46 17.19"><defs><style>.cls-1{fill:none;}.cls-2{clip-path:url(#clip-path);}.cls-3{fill:#ea0020;}.cls-4{fill:#fff;}</style><clipPath id="clip-path"><rect class="cls-1" width="29.46" height="17.19"/></clipPath></defs><g id="Layer_2" data-name="Layer 2"><g id="cá»"><g id="north_america" data-name="north america"><g class="cls-2"><rect class="cls-3" width="6.93" height="17.19"/><rect class="cls-3" x="22.53" width="6.93" height="17.19"/><rect class="cls-4" x="6.93" width="15.6" height="17.19"/><g class="cls-2"><path class="cls-3" d="M14.73,2.23l-1,2c-.12.22-.33.2-.53.08l-.74-.4L13,6.94c.11.56-.26.56-.44.32L11.26,5.75l-.21.77a.26.26,0,0,1-.29.18L9.13,6.34,9.56,8c.09.36.16.51-.1.61l-.58.28,2.81,2.38a.4.4,0,0,1,.13.4l-.25.84,2.8-.33c.09,0,.23.07.23.17l-.13,3.09H15l-.08-3.08a.22.22,0,0,1,.22-.18l2.8.33-.25-.84a.4.4,0,0,1,.13-.4l2.81-2.38L20,8.57c-.26-.1-.19-.25-.09-.61l.42-1.62L18.7,6.7a.26.26,0,0,1-.29-.18l-.21-.77L16.91,7.26c-.18.24-.55.24-.44-.32L17,3.89l-.74.4c-.2.12-.41.14-.53-.08Z"/></g></g></g></g></g></svg>