<svg xmlns="http://www.w3.org/2000/svg" xmlns:xlink="http://www.w3.org/1999/xlink" viewBox="0 0 29.46 17.19"><defs><style>.cls-1{fill:none;}.cls-2{clip-path:url(#clip-path);}.cls-3{fill:#fff;}.cls-4{fill:#2530a9;}.cls-5{fill:#c22623;}</style><clipPath id="clip-path"><rect class="cls-1" width="29.46" height="17.19"/></clipPath></defs><g id="Layer_2" data-name="Layer 2"><g id="cá»"><g id="south_america" data-name="south america"><g class="cls-2"><rect class="cls-3" width="29.46" height="17.19"/><rect class="cls-4" width="8.59" height="17.19"/><rect class="cls-5" y="8.59" width="29.46" height="8.59"/><polygon class="cls-3" points="4.3 2.15 3.63 4.19 4.65 4.52 4.3 2.15"/><polygon class="cls-3" points="4.3 2.15 4.96 4.19 3.94 4.52 4.3 2.15"/><polygon class="cls-3" points="6.34 3.63 4.19 3.63 4.19 4.71 6.34 3.63"/><polygon class="cls-3" points="6.34 3.63 4.6 4.9 3.97 4.03 6.34 3.63"/><polygon class="cls-3" points="2.25 3.63 3.99 4.9 4.62 4.03 2.25 3.63"/><polygon class="cls-3" points="2.25 3.63 4.4 3.63 4.4 4.71 2.25 3.63"/><polygon class="cls-3" points="5.56 6.03 4.9 3.99 3.87 4.32 5.56 6.03"/><polygon class="cls-3" points="5.56 6.03 3.82 4.77 4.45 3.9 5.56 6.03"/><polygon class="cls-3" points="3.03 6.03 4.77 4.77 4.14 3.9 3.03 6.03"/><polygon class="cls-3" points="3.03 6.03 3.7 3.99 4.72 4.32 3.03 6.03"/></g></g></g></g></svg>