<svg xmlns="http://www.w3.org/2000/svg" xmlns:xlink="http://www.w3.org/1999/xlink" viewBox="0 0 29.46 17.19"><defs><style>.cls-1{fill:none;}.cls-2{clip-path:url(#clip-path);}.cls-3{fill:#2d6c41;}.cls-4{fill:#fff;}.cls-5{fill:#f3d02f;}.cls-6{fill:#c20038;}.cls-7{fill:#3d9546;}.cls-8{fill:#904a15;}.cls-9{fill:#8d5bc5;}</style><clipPath id="clip-path"><rect class="cls-1" width="29.46" height="17.19"/></clipPath></defs><g id="Layer_2" data-name="Layer 2"><g id="ther"><g id="thẻ_3_vùng_hiển_thị" data-name="thẻ 3 vùng hiển thị"><g id="DOMINICA"><g class="cls-2"><rect class="cls-3" width="29.46" height="17.19"/><rect class="cls-4" y="9.31" width="29.46" height="1.43"/><rect y="7.88" width="29.46" height="1.43"/><rect class="cls-5" y="6.44" width="29.46" height="1.43"/><rect class="cls-5" x="12.58" width="1.43" height="17.19"/><rect x="14.02" width="1.43" height="17.19"/><rect class="cls-4" x="15.45" width="1.43" height="17.19"/><g class="cls-2"><path class="cls-6" d="M19,8.59a4.3,4.3,0,1,1-4.3-4.29A4.3,4.3,0,0,1,19,8.59Z"/><path class="cls-3" d="M14.59,5.2l.14-.39.13.39h.42l-.34.26s.16.44.15.43a4.22,4.22,0,0,0-.36-.27l-.36.25s.14-.41.14-.41l-.32-.25Z"/><path d="M15.09,5.92v0l-.36-.26a3.12,3.12,0,0,1-.34.25,2.75,2.75,0,0,1,.12-.43l-.32-.23.41,0a2.5,2.5,0,0,1,.13-.39l.15.39s.26,0,.36,0h0l0,0-.3.25a3.48,3.48,0,0,1,.15.41h0l0,0Zm-.37-1.1a3.72,3.72,0,0,1-.11.38l-.42,0,.33.22a4.14,4.14,0,0,1-.13.43,2.82,2.82,0,0,1,.33-.26l.35.24-.14-.39a3.45,3.45,0,0,1,.3-.24h-.37l-.14-.39Z"/><path class="cls-3" d="M14.87,12l-.14.39L14.61,12h-.42l.33-.26s-.16-.44-.15-.43l.36.27.36-.26s-.14.42-.14.42l.33.25Z"/><path d="M14.73,12.43,14.59,12h-.4a0,0,0,0,1,0,0,3,3,0,0,1,.3-.25c-.11-.29-.14-.38-.15-.41h0s0,0,0,0l.38.26.34-.25h0v0h0a2.65,2.65,0,0,1-.12.42l.32.23-.4,0-.14.38v0Zm-.5-.45h.38l.12.35a2.94,2.94,0,0,0,.12-.35l.43,0-.34-.22a4,4,0,0,1,.13-.42c0,.05-.32.25-.33.26a4.13,4.13,0,0,0-.38-.26,2.79,2.79,0,0,1,.17.41,3.45,3.45,0,0,1-.3.24Z"/><path class="cls-3" d="M16.73,6.17l-.14.39-.13-.38h-.41l.33-.25-.15-.43.36.26L17,5.5s-.14.42-.14.42l.33.25Z"/><path d="M16.59,6.61l-.14-.43s-.26,0-.36,0,0,0,0,0h0s0,0,0,0a3,3,0,0,1,.3-.25c-.11-.29-.14-.38-.15-.41h0a4.24,4.24,0,0,1,.39.26l.34-.25h0a2.17,2.17,0,0,1-.12.42l.32.23-.41,0a3.51,3.51,0,0,1-.13.38v0Zm-.5-.45h.38l.12.36c0-.1.12-.34.12-.35l.43,0-.34-.22s.1-.36.13-.43a3.05,3.05,0,0,1-.33.27l-.38-.27a3.32,3.32,0,0,1,.17.41,3.26,3.26,0,0,1-.3.25Z"/><path class="cls-3" d="M17.93,9.7l-.13.39-.13-.39h-.42l.33-.26L17.43,9l.37.27L18.15,9,18,9.44l.32.25Z"/><path d="M17.8,10.13l-.14-.42h-.4v0c.06-.06.2-.17.3-.25-.11-.29-.14-.38-.15-.41h0V9l.38.27c.08-.07.31-.23.34-.25h0a3.34,3.34,0,0,1-.11.42l.32.23-.41,0a2.74,2.74,0,0,1-.13.38v0Zm-.5-.45h.37l.13.36c0-.1.12-.34.12-.36l.42,0L18,9.45A2.51,2.51,0,0,1,18.14,9a2.21,2.21,0,0,1-.34.26L17.43,9c0,.06.17.41.17.41l-.3.24Z"/><path class="cls-3" d="M11.8,9.8l-.13.39-.13-.39s-.42,0-.42,0l.33-.26-.15-.43.37.27L12,9.12l-.14.42.33.25Z"/><path d="M11.67,10.23l-.14-.42h-.4a0,0,0,0,1,0,0l.3-.25c-.11-.29-.14-.38-.15-.41h0v0l.38.27c.08-.07.31-.23.34-.25h0a3.34,3.34,0,0,1-.11.42l.32.23-.41,0a2.74,2.74,0,0,1-.13.38v0Zm-.5-.45h.37l.13.36c0-.1.12-.34.12-.36h.42l-.33-.23c0-.05.1-.35.12-.42a1.78,1.78,0,0,1-.33.26l-.37-.26c0,.06.17.41.17.41l-.3.24Z"/><path class="cls-3" d="M12.92,6.21l-.14.4-.13-.39h-.42L12.57,6s-.16-.44-.15-.43l.36.26.36-.25S13,6,13,6l.32.25Z"/><path d="M12.78,6.65l-.14-.43h-.4l0,0a3,3,0,0,1,.3-.25l-.16-.41h0v0l.39.26.33-.25h0A3.25,3.25,0,0,1,13,6l.32.24-.41,0a3.51,3.51,0,0,1-.13.38v0Zm-.5-.45h.37l.13.35c0-.09.12-.33.12-.35l.42,0L13,6a4,4,0,0,1,.13-.42s-.32.25-.33.26l-.38-.27a3.32,3.32,0,0,1,.17.41,3.26,3.26,0,0,1-.3.25Z"/><path class="cls-3" d="M11.5,7.5l.14-.39.13.39h.42l-.34.25s.16.45.15.44a4.22,4.22,0,0,0-.36-.27l-.36.25s.14-.42.14-.42l-.32-.24Z"/><path d="M12,8.21v0l-.36-.26a3.12,3.12,0,0,1-.34.25,2.75,2.75,0,0,1,.12-.43l-.32-.23.41,0a2.5,2.5,0,0,1,.13-.39l.15.39h.4l0,0-.3.25.16.41h0l0,0Zm-.37-1.09a3.72,3.72,0,0,1-.11.38l-.42,0,.33.22s-.1.36-.13.43a2.82,2.82,0,0,1,.33-.26l.35.23-.14-.38a3.45,3.45,0,0,1,.3-.24h-.37l-.14-.39Z"/><path class="cls-3" d="M12.7,11l.14-.39L13,11h.42l-.33.25.15.43-.36-.26-.36.25s.14-.42.14-.42L12.29,11Z"/><path d="M13.2,11.73v0l-.36-.26-.34.25a2.75,2.75,0,0,1,.12-.43L12.29,11l.4,0,.14-.38L13,11h.38a2.34,2.34,0,0,1-.3.25c.11.29.14.38.15.41h0s0,0,0,0v0Zm-.37-1.09c0,.06-.11.36-.11.38l-.43,0,.34.22c0,.05-.1.36-.13.43a2,2,0,0,1,.33-.26l.34.23c0-.11-.13-.38-.13-.38a2.22,2.22,0,0,1,.3-.24H13l-.13-.39Z"/><path class="cls-3" d="M17.64,7.41l.13-.4.13.39h.42L18,7.66l.15.43-.37-.26-.35.25.14-.42-.33-.25Z"/><path d="M18.14,8.12v0l-.36-.26c-.08.06-.33.23-.34.25a2,2,0,0,1,.11-.43l-.32-.24.41,0A3.51,3.51,0,0,1,17.76,7l.15.39h.38a2.26,2.26,0,0,1-.29.25c.11.29.14.38.15.41h0v0ZM17.76,7c0,.06-.11.36-.11.38l-.42,0,.33.22a3.86,3.86,0,0,1-.12.42,2.33,2.33,0,0,1,.33-.26l.34.24L18,7.67s.22-.18.3-.25H17.9L17.76,7Z"/><path class="cls-3" d="M16.52,11l.14-.4.12.39h.42l-.33.25s.16.44.15.43l-.36-.27-.36.26s.14-.42.14-.42L16.11,11Z"/><path d="M17,11.7v0l-.36-.26-.34.25a3,3,0,0,1,.11-.43L16.1,11l.41,0,.13-.38.16.38h.4v0h0c-.06.06-.2.17-.3.25.11.29.14.38.15.41h0s0,0,0,0v0Zm-.37-1.09a2.45,2.45,0,0,1-.12.38l-.42,0,.34.22s-.11.36-.13.42.32-.25.33-.26l.34.24-.13-.39.29-.24h-.37l-.13-.38Z"/><path class="cls-7" d="M11.84,7.66h0Z"/><path class="cls-7" d="M15.54,10.26h0Z"/><path class="cls-7" d="M14.46,14.39h0Z"/><path class="cls-7" d="M9.29,14.39h0Z"/><path class="cls-7" d="M8.35,10.15h0Z"/><path class="cls-7" d="M19.67,2.47h0Z"/><path class="cls-7" d="M21.16,6.5h0Z"/><path class="cls-7" d="M17.48,9.46h0Z"/><path class="cls-7" d="M14,6.5h0Z"/><path class="cls-7" d="M15.29,2.53h0Z"/><path class="cls-3" d="M15.23,8.47c.14,0,.3.54.35,1.23s0,1.28-.17,1.29-.3-.54-.35-1.23,0-1.28.17-1.29Z"/><path d="M15.4,11c-.17,0-.31-.65-.35-1.25s0-1.29.18-1.31h0c.18,0,.32.65.36,1.25s0,1.29-.18,1.31Zm-.17-2.53c-.12,0-.2.53-.15,1.28S15.29,11,15.4,11h0c.12,0,.2-.53.15-1.28s-.21-1.22-.33-1.22Z"/><path class="cls-3" d="M15.48,8.46c.15,0,.31.54.36,1.24s0,1.27-.18,1.29-.31-.54-.36-1.24,0-1.27.18-1.29Z"/><path d="M15.66,11c-.18,0-.33-.64-.37-1.24s0-1.29.19-1.31h0c.19,0,.33.64.38,1.25s0,1.29-.2,1.3Zm-.17-2.52c-.13,0-.23.53-.17,1.27s.21,1.23.34,1.23h0v0c.12,0,.22-.52.17-1.27s-.22-1.22-.34-1.22Z"/><path class="cls-3" d="M15.36,8.4c.12,0,.26.6.31,1.37s0,1.41-.12,1.42-.26-.6-.31-1.37,0-1.41.12-1.42Z"/><path d="M15.55,11.21c-.15,0-.28-.72-.33-1.39s0-1.42.13-1.44h0c.16,0,.29.72.33,1.39s0,1.42-.13,1.44Zm-.19-2.8c-.1,0-.17.59-.11,1.41s.2,1.36.3,1.36h0c.09,0,.16-.59.1-1.41s-.19-1.36-.29-1.36Z"/><path class="cls-8" d="M13.46,10.38c.22,0,.13-.12.24-.18a.26.26,0,0,1,.32.05c0,.08,0,.16.07.16a14.93,14.93,0,0,1,1.77,0,.18.18,0,0,1,0,.24,16.58,16.58,0,0,1-2.23,0,.88.88,0,0,1-.18-.29Z"/><path d="M14.43,10.72a4.4,4.4,0,0,1-.8,0,.82.82,0,0,1-.18-.3c.14,0,.15-.05.17-.1a.15.15,0,0,1,.07-.1.28.28,0,0,1,.34.07.38.38,0,0,1,0,.1s0,0,0,0h.16l1.17,0c.42,0,.44,0,.45,0a.18.18,0,0,1,.05.16.12.12,0,0,1,0,.1,12.14,12.14,0,0,1-1.45.06Zm-.61-.54a.2.2,0,0,0-.11,0,.12.12,0,0,0-.06.08c0,.05,0,.1-.18.11a1.55,1.55,0,0,0,.18.26,5.1,5.1,0,0,0,.78,0,14.14,14.14,0,0,0,1.43,0,.2.2,0,0,0,0-.08.2.2,0,0,0-.05-.14s-.07,0-.43,0l-1.17,0h-.16c-.05,0-.06,0-.06-.07a.16.16,0,0,0,0-.09.21.21,0,0,0-.18-.08Z"/><path class="cls-5" d="M14.63,10.55c0,.16.25.12.25.25s-.41,0-.42-.26.42-.4.42-.24-.24.08-.25.25Z"/><path d="M14.8,10.88a.38.38,0,0,1-.35-.34c0-.28.44-.4.44-.24s-.05.09-.11.12-.13.05-.13.13.06.1.12.13.12.05.12.12a.08.08,0,0,1-.09.08Zm0-.63a.3.3,0,1,0,0,.6s.06,0,.06,0,0-.07-.1-.1-.14-.06-.14-.15.08-.13.15-.16.1-.05.1-.09a.06.06,0,0,0-.07-.05Z"/><path class="cls-5" d="M14.78,10.55c0,.16.24.12.24.25s-.41,0-.41-.25.41-.4.41-.25-.24.08-.24.25Z"/><path d="M14.94,10.88a.39.39,0,0,1-.35-.33c0-.29.44-.41.45-.25s-.06.09-.12.12-.12.05-.13.13.06.1.12.13.13.05.13.12a.09.09,0,0,1-.1.08Zm0-.63a.35.35,0,0,0-.32.3.36.36,0,0,0,.32.3s.07,0,.07,0,0-.07-.11-.1-.14-.06-.14-.15.08-.13.15-.16.1,0,.1-.09,0-.05-.07-.05Z"/><path class="cls-5" d="M14.93,10.54c0,.17.24.12.25.26s-.41,0-.42-.26.41-.4.42-.25-.24.09-.25.25Z"/><path d="M15.1,10.87a.37.37,0,0,1-.35-.33c0-.29.44-.4.44-.25s0,.1-.11.12-.13.05-.13.13.06.11.12.13.12.05.12.13,0,.07-.09.07Zm0-.63a.36.36,0,0,0-.32.3.34.34,0,0,0,.32.3s.06,0,.06,0-.05-.08-.1-.1-.14-.06-.14-.16.08-.13.14-.15.11-.05.11-.1a.06.06,0,0,0-.07,0Z"/><path class="cls-5" d="M15.08,10.54c0,.17.24.12.24.26s-.41,0-.41-.26.41-.4.41-.25-.24.09-.24.25Z"/><path d="M15.24,10.88a.39.39,0,0,1-.35-.34c0-.29.44-.4.45-.25s-.06.1-.12.12-.13.06-.13.13.06.11.12.13.12.06.13.13a.09.09,0,0,1-.1.08Zm0-.63a.35.35,0,0,0-.32.29.36.36,0,0,0,.32.31s.07,0,.07,0-.05-.08-.11-.1-.14-.06-.14-.16a.19.19,0,0,1,.15-.15c.06,0,.1-.05.1-.09s0-.05-.07-.05Z"/><path class="cls-8" d="M15.77,10.38a.15.15,0,0,1,.14.15.16.16,0,0,1-.15.14.15.15,0,0,1-.13-.15.14.14,0,0,1,.14-.14Z"/><path d="M15.77,10.68h0a.12.12,0,0,1-.1,0,.16.16,0,0,1-.05-.11.16.16,0,0,1,.16-.15.15.15,0,0,1,.11,0,.16.16,0,0,1,0,.12.15.15,0,0,1-.15.15Zm0-.28a.12.12,0,0,0-.13.12.1.1,0,0,0,0,.09.09.09,0,0,0,.08,0v0a.13.13,0,0,0,.12-.12.17.17,0,0,0,0-.1l-.09,0Z"/><path class="cls-3" d="M14.9,9.78c.07,0,.13.1.15.25s0,.28-.09.29-.14-.1-.16-.25,0-.28.1-.29Z"/><path d="M15,10.34c-.08,0-.14-.12-.16-.27s0-.3.11-.31h0c.08,0,.15.12.17.27s0,.3-.11.31Zm0-.55c-.06,0-.11.12-.09.28s.08.24.13.24h0c.06,0,.1-.12.09-.28s-.08-.24-.13-.24Z"/><path class="cls-3" d="M14.69,9.76c.07,0,.13.1.15.25s0,.28-.09.3-.14-.11-.16-.26,0-.28.1-.29Z"/><path d="M14.74,10.32c-.08,0-.14-.11-.16-.27s0-.29.11-.31h0c.08,0,.15.12.16.27s0,.3-.1.31Zm0-.55c-.06,0-.11.12-.09.28s.08.24.13.24v0c.06,0,.1-.12.09-.28s-.08-.24-.13-.24Z"/><path class="cls-3" d="M14.54,9.49c.06,0,.13.1.15.25s0,.29-.09.3-.14-.11-.16-.26,0-.28.1-.29Z"/><path d="M14.59,10.05c-.08,0-.15-.11-.16-.27s0-.29.1-.3h0c.08,0,.15.11.16.26s0,.3-.1.31Zm0-.55c-.06,0-.11.12-.09.28s.08.24.13.24v0c.06,0,.1-.12.09-.27s-.08-.25-.13-.25Z"/><path class="cls-3" d="M14.75,9.45c.06,0,.13.12.15.28s0,.31-.09.32-.13-.11-.15-.28,0-.31.09-.32Z"/><path d="M14.8,10.07c-.07,0-.14-.13-.15-.3s0-.32.1-.33h0c.08,0,.14.12.16.29s0,.32-.1.34Zm0-.61c-.06,0-.1.14-.08.31s.08.27.12.27h0s.09-.13.07-.31-.08-.27-.12-.27Z"/><path class="cls-7" d="M15,9.47c.07,0,.14.11.15.26s0,.3-.09.31S15,9.93,15,9.77s0-.29.08-.3Z"/><path d="M15.1,10.05c-.08,0-.14-.12-.16-.28s0-.3.1-.31h0c.08,0,.15.12.17.27s0,.31-.1.32Zm0-.57c-.05,0-.1.13-.08.29s.08.25.13.25v0c.05,0,.1-.12.08-.28s-.08-.26-.13-.26Z"/><path class="cls-7" d="M14.88,9.37c.07,0,.13.11.15.27s0,.29-.09.3-.13-.11-.15-.27,0-.29.09-.3Z"/><path d="M14.94,10c-.08,0-.14-.12-.16-.27s0-.31.1-.32h0c.08,0,.15.12.17.28s0,.3-.11.31Zm0-.56c-.06,0-.1.12-.08.28s.08.25.13.25v0c.05,0,.09-.12.08-.28s-.08-.25-.13-.25Z"/><path class="cls-7" d="M14.68,9.23c.06,0,.13.11.15.27s0,.29-.09.3-.13-.11-.15-.27,0-.29.09-.3Z"/><path d="M14.73,9.81c-.07,0-.14-.12-.16-.27s0-.31.11-.32h0c.08,0,.14.12.16.28s0,.3-.1.31Zm0-.56c-.06,0-.1.12-.09.28s.08.25.13.25v0s.09-.12.07-.28-.08-.25-.12-.25Z"/><path class="cls-3" d="M14.49,9.15c.06,0,.13.1.15.26s0,.29-.09.3-.13-.11-.15-.26,0-.29.09-.3Z"/><path d="M14.54,9.73c-.07,0-.14-.12-.15-.28s0-.31.1-.32h0c.08,0,.15.12.16.28s0,.3-.1.32Zm0-.57c-.06,0-.1.13-.09.29s.08.25.13.25h0s.09-.13.07-.29-.08-.25-.12-.25Z"/><path class="cls-9" d="M14.31,7.08a1.69,1.69,0,0,0-.37,1.35,1.85,1.85,0,0,0,.92,1.46,1.7,1.7,0,0,0,.2-1.08,3.11,3.11,0,0,0-.47-1.68Z"/><path d="M14.87,9.91h0a2,2,0,0,1-.94-1.48,1.78,1.78,0,0,1,.38-1.36l.29,0a3.16,3.16,0,0,1,.49,1.69,1.88,1.88,0,0,1-.2,1.09ZM14.31,7.1A1.68,1.68,0,0,0,14,8.43a1.88,1.88,0,0,0,.91,1.44,1.85,1.85,0,0,0,.19-1.06,3,3,0,0,0-.48-1.67l-.26,0Z"/><path class="cls-3" d="M15.27,9.81c.07,0,.12.12.11.27s-.08.28-.15.27-.11-.12-.1-.27.08-.28.14-.27Z"/><path d="M15.24,10.37h0l-.06,0a.45.45,0,0,1-.06-.26c0-.16.09-.29.16-.29a.09.09,0,0,1,.07,0,.39.39,0,0,1,.05.26c0,.16-.08.29-.15.29Zm0-.55s-.12.1-.13.26a.48.48,0,0,0,0,.24l0,0h0s.11-.1.12-.26a.35.35,0,0,0,0-.24l0,0Z"/><path class="cls-3" d="M15.07,9.75c.07,0,.12.13.11.28s-.08.27-.15.27-.12-.13-.1-.28.07-.27.14-.27Z"/><path d="M15,10.32h0l-.06,0a.34.34,0,0,1-.06-.26c0-.16.08-.28.16-.28l.06,0a.34.34,0,0,1,.06.26c0,.16-.08.29-.16.29Zm0-.55c-.05,0-.12.1-.13.25a.36.36,0,0,0,.05.25l0,0h0c.05,0,.12-.11.13-.26a.33.33,0,0,0-.05-.24,0,0,0,0,0,0,0Z"/><path class="cls-3" d="M15,9.46c.07,0,.12.13.1.28S15,10,14.93,10s-.12-.13-.11-.28.08-.27.15-.27Z"/><path d="M14.93,10h0l-.06,0a.34.34,0,0,1-.06-.26c0-.16.08-.28.16-.28l.06,0a.39.39,0,0,1,.06.26c0,.16-.08.28-.16.28Zm0-.55c-.06,0-.12.11-.13.26a.33.33,0,0,0,.05.24,0,0,0,0,0,0,0v0c.05,0,.12-.1.13-.25A.32.32,0,0,0,15,9.5s0,0,0,0Z"/><path class="cls-3" d="M15.18,9.46c.07,0,.11.14.1.3s-.07.3-.14.3-.11-.14-.1-.3.08-.3.14-.3Z"/><path d="M15.14,10.08h0a.05.05,0,0,1-.05,0A.39.39,0,0,1,15,9.76c0-.23.13-.37.21-.29a.47.47,0,0,1,.06.29c0,.18-.08.32-.16.32Zm0-.61s-.11.12-.12.29a.39.39,0,0,0,0,.27l0,0h0s.12-.12.13-.29a.39.39,0,0,0,0-.27l0,0Z"/><path class="cls-3" d="M15.47,9.53c.07,0,.11.13.1.29s-.07.28-.14.28-.11-.13-.1-.29.08-.28.14-.28Z"/><path d="M15.43,10.11h0l-.06,0a.39.39,0,0,1,0-.27c0-.16.08-.29.15-.29a.09.09,0,0,1,.06,0,.45.45,0,0,1,.06.27c0,.17-.08.29-.16.29Zm0-.56c-.05,0-.11.1-.12.26a.39.39,0,0,0,.05.26h0v0c.05,0,.12-.1.13-.26a.41.41,0,0,0-.05-.25,0,0,0,0,0,0,0Z"/><path class="cls-3" d="M15.33,9.41c.07,0,.11.13.1.28s-.08.29-.14.28-.11-.13-.1-.28.07-.28.14-.28Z"/><path d="M15.29,10h0l-.06,0a.49.49,0,0,1-.06-.27c0-.17.08-.3.16-.3l.06,0a.44.44,0,0,1,0,.28c0,.16-.08.29-.15.29Zm0-.57c-.05,0-.11.11-.13.27a.49.49,0,0,0,.05.25l0,0h0c.05,0,.11-.11.13-.27a.4.4,0,0,0-.06-.25l0,0Z"/><path class="cls-3" d="M15.15,9.23c.07,0,.12.13.1.29s-.07.28-.14.28S15,9.67,15,9.51s.08-.28.14-.28Z"/><path d="M15.11,9.81h0l0,0A.38.38,0,0,1,15,9.51c0-.16.08-.29.15-.29l.06,0a.39.39,0,0,1,.06.27c0,.16-.08.29-.16.29Zm0-.56c-.05,0-.11.1-.12.26a.39.39,0,0,0,.05.26l0,0h0c.06,0,.12-.11.13-.27a.35.35,0,0,0-.05-.25s0,0,0,0Z"/><path class="cls-3" d="M15,9.12c.07,0,.11.13.1.28s-.07.28-.14.28-.11-.13-.1-.28.08-.29.14-.28Z"/><path d="M14.94,9.7h0a.05.05,0,0,1,0,0,.38.38,0,0,1-.06-.28c0-.16.08-.29.15-.29a.09.09,0,0,1,.06,0,.42.42,0,0,1,.06.27c0,.17-.08.3-.16.3Zm0-.57c-.05,0-.11.11-.12.27a.36.36,0,0,0,.05.25l0,0h0c.05,0,.12-.11.13-.27A.35.35,0,0,0,15,9.15l0,0Z"/><path class="cls-6" d="M14.77,7.78c.18-.07.52.32.76.87s.28,1.06.1,1.13-.52-.32-.76-.87-.28-1.06-.1-1.13Z"/><path d="M15.58,9.8c-.2,0-.5-.37-.72-.89a1.66,1.66,0,0,1-.18-1,.13.13,0,0,1,.09-.09c.18-.08.53.31.77.88a1.63,1.63,0,0,1,.18,1,.15.15,0,0,1-.09.1Zm-.76-2h0s-.06,0-.08.08a1.75,1.75,0,0,0,.18,1c.23.54.57.93.74.86a.15.15,0,0,0,.08-.08,1.73,1.73,0,0,0-.18-1c-.22-.5-.52-.87-.7-.87Z"/><path class="cls-7" d="M14.93,7.62a.15.15,0,0,1,.15.14.15.15,0,0,1-.16.13.15.15,0,0,1-.15-.14.15.15,0,0,1,.16-.13Z"/><path d="M14.93,7.91h0a.16.16,0,0,1-.16-.16.15.15,0,0,1,.17-.14.17.17,0,0,1,.17.15.17.17,0,0,1-.17.15Zm0-.28a.13.13,0,0,0-.14.12.13.13,0,0,0,.13.13h0a.13.13,0,0,0,.14-.12.14.14,0,0,0-.14-.13Z"/><path class="cls-7" d="M15.05,7.43a.14.14,0,1,1,0,.27.14.14,0,0,1-.14-.14.15.15,0,0,1,.15-.13Z"/><path d="M15,7.71h0a.14.14,0,0,1-.15-.15A.15.15,0,0,1,15,7.41a.14.14,0,0,1,.11,0,.16.16,0,0,1,0,.11.15.15,0,0,1-.16.14Zm0-.27a.13.13,0,0,0-.12.12.16.16,0,0,0,0,.09l.09,0h0a.13.13,0,0,0,.13-.12A.14.14,0,0,0,15,7.44Z"/><path class="cls-7" d="M14.86,7.42a.13.13,0,0,1,.13.14.14.14,0,0,1-.14.14.14.14,0,0,1-.13-.14.14.14,0,0,1,.14-.14Z"/><path d="M14.86,7.71h0a.15.15,0,0,1-.15-.15.16.16,0,0,1,.16-.15.16.16,0,0,1,.11,0,.15.15,0,0,1-.11.25Zm0-.27a.12.12,0,0,0-.13.12.13.13,0,0,0,.12.12v0A.12.12,0,0,0,15,7.56a.11.11,0,0,0,0-.08.12.12,0,0,0-.09,0Z"/><path class="cls-3" d="M14.9,7.29a.13.13,0,0,1,.14.13.14.14,0,0,1-.15.13.14.14,0,0,1-.14-.13.14.14,0,0,1,.15-.13Z"/><path d="M14.9,7.56h0a.16.16,0,0,1-.11,0,.11.11,0,0,1,0-.09.15.15,0,0,1,.16-.14.17.17,0,0,1,.12,0,.15.15,0,0,1,0,.09.15.15,0,0,1-.16.14Zm0-.25a.12.12,0,0,0-.13.11.11.11,0,0,0,0,.07.12.12,0,0,0,.1,0v0A.12.12,0,0,0,15,7.42a.09.09,0,0,0,0-.07.13.13,0,0,0-.1,0Z"/><path class="cls-3" d="M14.88,7.13a.14.14,0,0,1,.15.13.15.15,0,0,1-.15.13c-.08,0-.15-.06-.14-.14a.13.13,0,0,1,.14-.12Z"/><path d="M14.88,7.4h0a.16.16,0,0,1-.16-.15.16.16,0,1,1,.16.15Zm0-.26a.12.12,0,1,0,0,.23v0A.12.12,0,0,0,15,7.26a.13.13,0,0,0-.13-.12Z"/><path class="cls-3" d="M14.68,7.31a.14.14,0,0,1,0,.28.14.14,0,0,1-.14-.14.14.14,0,0,1,.14-.14Z"/><path d="M14.68,7.6h0a.18.18,0,0,1-.11,0,.12.12,0,0,1,0-.11.15.15,0,0,1,.15-.15.16.16,0,0,1,.11,0,.13.13,0,0,1,0,.1.15.15,0,0,1-.15.15Zm0-.27a.13.13,0,0,0-.13.12.18.18,0,0,0,0,.09.12.12,0,0,0,.09,0v0a.12.12,0,0,0,.12-.12.11.11,0,0,0,0-.08.12.12,0,0,0-.09,0Z"/><path class="cls-3" d="M14.72,7.14a.14.14,0,0,1,.14.14.14.14,0,0,1-.14.13.14.14,0,0,1-.14-.14.14.14,0,0,1,.14-.13Z"/><path d="M14.72,7.42h0a.14.14,0,0,1-.15-.15.15.15,0,0,1,.15-.14.15.15,0,0,1,.15.15.15.15,0,0,1-.15.14Zm0-.26a.11.11,0,0,0-.12.11.12.12,0,0,0,.12.13h0a.12.12,0,0,0,.12-.12.12.12,0,0,0-.12-.12Z"/><path class="cls-3" d="M14.49,7.14a.14.14,0,1,1,0,.28.14.14,0,1,1,0-.28Z"/><path d="M14.49,7.43h0a.19.19,0,0,1-.13,0,.18.18,0,0,1,0-.1.17.17,0,0,1,.17-.15.15.15,0,1,1,0,.3Zm0-.27a.13.13,0,0,0-.14.12.11.11,0,0,0,0,.08.15.15,0,0,0,.11,0v0a.13.13,0,0,0,.14-.12.13.13,0,0,0-.14-.12Z"/><path class="cls-3" d="M14.78,6.93a.13.13,0,0,1,.14.13.14.14,0,0,1-.15.12.13.13,0,0,1-.14-.13.14.14,0,0,1,.15-.12Z"/><path d="M14.78,7.2h0a.18.18,0,0,1-.12,0,.17.17,0,0,1,0-.1.16.16,0,0,1,.31,0,.15.15,0,0,1-.15.14Zm0-.26a.13.13,0,0,0-.14.11.09.09,0,0,0,0,.08.15.15,0,0,0,.09,0h0a.13.13,0,0,0,.13-.11.12.12,0,0,0-.13-.12Z"/><path class="cls-3" d="M14.58,7a.13.13,0,0,1,.14.13.13.13,0,0,1-.14.13.13.13,0,0,1-.14-.13A.13.13,0,0,1,14.58,7Z"/><path d="M14.58,7.23h0a.16.16,0,0,1-.11-.05.13.13,0,0,1,0-.1.15.15,0,0,1,.15-.15.14.14,0,0,1,.15.15.15.15,0,0,1-.15.15Zm0-.27a.12.12,0,0,0-.12.12.11.11,0,0,0,0,.08.18.18,0,0,0,.09,0h0a.12.12,0,1,0,0-.24Z"/><path class="cls-3" d="M14.29,7.15a.14.14,0,0,1,.14.14.13.13,0,0,1-.14.13.13.13,0,0,1-.14-.13.14.14,0,0,1,.14-.14Z"/><path d="M14.29,7.44h0a.14.14,0,0,1-.11-.05.1.1,0,0,1,0-.1.15.15,0,0,1,.15-.15.21.21,0,0,1,.11,0,.15.15,0,0,1,0,.11.15.15,0,0,1-.15.15Zm0-.27a.13.13,0,0,0-.13.12.12.12,0,0,0,0,.08.1.1,0,0,0,.09,0h0a.12.12,0,0,0,.12-.12.11.11,0,0,0-.12-.12Z"/><path class="cls-3" d="M14.34,7.05a.13.13,0,0,1,.13.14.14.14,0,1,1-.13-.14Z"/><path d="M14.34,7.33h0a.12.12,0,0,1-.1,0,.16.16,0,0,1-.05-.11A.15.15,0,0,1,14.34,7a.14.14,0,0,1,.15.15.15.15,0,0,1-.15.14Zm0-.26a.12.12,0,0,0-.13.11.1.1,0,0,0,0,.09.12.12,0,0,0,.08,0h0a.13.13,0,0,0,.12-.12.16.16,0,0,0,0-.09l-.09,0Z"/><path class="cls-3" d="M14.4,6.94a.14.14,0,1,1-.14.13.13.13,0,0,1,.14-.13Z"/><path d="M14.39,7.22h0a.12.12,0,0,1-.1,0,.16.16,0,0,1,0-.11.15.15,0,0,1,.15-.14.12.12,0,0,1,.11,0,.16.16,0,0,1,.05.11.15.15,0,0,1-.16.14Zm0-.26a.11.11,0,0,0-.09.2.11.11,0,0,0,.08,0v0a.12.12,0,0,0,.13-.11.1.1,0,0,0,0-.09.11.11,0,0,0-.08,0Z"/><path class="cls-3" d="M14.79,7.42c.23-.08.65.38.94,1s.32,1.26.08,1.34-.65-.38-.93-1-.32-1.26-.09-1.34Z"/><path d="M15.76,9.82c-.25,0-.64-.45-.89-1.06a1.89,1.89,0,0,1-.2-1.23.15.15,0,0,1,.12-.12c.24-.09.67.39,1,1a1.92,1.92,0,0,1,.2,1.24.23.23,0,0,1-.12.12Zm-.91-2.4h0a.2.2,0,0,0-.11.11,2,2,0,0,0,.2,1.21c.28.64.7,1.11.92,1a.22.22,0,0,0,.1-.11,1.87,1.87,0,0,0-.2-1.22c-.25-.59-.62-1-.86-1Z"/><path class="cls-3" d="M15.56,8.57s.13.07.19.21.08.26,0,.28-.13-.07-.19-.21-.07-.26,0-.28Z"/><path d="M15.77,9.08c-.06,0-.14-.11-.19-.22s-.08-.28,0-.3.17.11.21.21.09.28,0,.31Zm-.2-.5s0,.12,0,.27.12.2.16.2v0s0-.12,0-.26-.13-.21-.17-.21Z"/><path class="cls-3" d="M15.63,8.82a1,1,0,0,1,.28,1,2.63,2.63,0,0,0-.54-.9A.89.89,0,0,1,15.21,8a2,2,0,0,0,.42.86Z"/><path d="M15.92,9.84l0-.09a2.57,2.57,0,0,0-.52-.85.85.85,0,0,1-.19-.84l0-.1a.17.17,0,0,1,.06.11,1.79,1.79,0,0,0,.38.74,1.06,1.06,0,0,1,.29,1v.05ZM15.21,8a.09.09,0,0,1,0,.05.8.8,0,0,0,.18.82,2.75,2.75,0,0,1,.53.85,1,1,0,0,0-.29-.9,1.8,1.8,0,0,1-.39-.75l0-.07Z"/><path class="cls-3" d="M15.67,9.18a1,1,0,0,1,.28,1,2.89,2.89,0,0,0-.55-.9.91.91,0,0,1-.16-.93,2,2,0,0,0,.43.86Z"/><path d="M16,10.2l0-.09a2.84,2.84,0,0,0-.53-.85.82.82,0,0,1-.18-.84.44.44,0,0,0,0-.1.17.17,0,0,1,.06.11,1.72,1.72,0,0,0,.39.74,1,1,0,0,1,.28,1v0Zm-.7-1.82,0,0a.82.82,0,0,0,.18.82,2.75,2.75,0,0,1,.53.85,1,1,0,0,0-.29-.9,1.8,1.8,0,0,1-.39-.75V8.38Z"/><path class="cls-3" d="M15.68,9.47a1.06,1.06,0,0,1,.3,1,2.93,2.93,0,0,0-.56-.88.89.89,0,0,1-.18-.93,1.86,1.86,0,0,0,.44.85Z"/><path d="M16,10.48l0-.08a2.68,2.68,0,0,0-.55-.84.86.86,0,0,1-.2-.84.44.44,0,0,0,0-.1.26.26,0,0,1,.07.11,1.6,1.6,0,0,0,.4.73,1,1,0,0,1,.3,1v.05Zm-.75-1.81a.07.07,0,0,1,0,.05.82.82,0,0,0,.2.82,2.79,2.79,0,0,1,.54.84,1,1,0,0,0-.3-.9,1.73,1.73,0,0,1-.41-.74l0-.07Z"/><path class="cls-3" d="M15.22,8c.09,0,.24.16.35.41s.13.45,0,.48-.24-.16-.35-.41-.13-.45,0-.48Z"/><path d="M15.6,8.85c-.1,0-.25-.17-.35-.41A.66.66,0,0,1,15.17,8a.1.1,0,0,1,.05,0h0c.11,0,.26.18.36.41a.66.66,0,0,1,.08.46.07.07,0,0,1-.05,0ZM15.24,8a0,0,0,0,0-.05,0,.71.71,0,0,0,.08.43c.11.25.25.39.33.39v0s0,0,0,0a.72.72,0,0,0-.08-.43c-.11-.24-.25-.39-.32-.39Z"/><path class="cls-3" d="M15.12,8.28c.08,0,.21.14.29.34s.09.38,0,.39-.21-.14-.29-.34-.09-.38,0-.39Z"/><path d="M15.41,9c-.08,0-.21-.15-.29-.35a.48.48,0,0,1,0-.37.1.1,0,0,1,0,0h0c.09,0,.22.16.3.35a.5.5,0,0,1,.05.38.05.05,0,0,1-.05,0Zm-.28-.73a.05.05,0,0,0,0,0,.54.54,0,0,0,.05.35c.09.21.21.34.27.34h0V9s0,0,0,0a.54.54,0,0,0,0-.35c-.09-.2-.21-.33-.27-.33Z"/><path class="cls-3" d="M15,8.44c.08,0,.21.15.29.35s.08.38,0,.39S15,9,15,8.83s-.09-.37,0-.39Z"/><path d="M15.23,9.2c-.08,0-.21-.16-.29-.36a.54.54,0,0,1,0-.38.09.09,0,0,1,0,0h0c.1,0,.22.15.3.36a.51.51,0,0,1,0,.37.1.1,0,0,1,0,0ZM15,8.46s0,0,0,0a.46.46,0,0,0,0,.35c.08.21.2.34.26.34h0l0,0a.51.51,0,0,0,0-.34c-.08-.21-.2-.34-.26-.34Z"/><path class="cls-3" d="M15.11,7.93c.06,0,.17.1.24.25s.08.28,0,.29-.17-.1-.24-.25-.08-.28,0-.29Z"/><path d="M15.36,8.49c-.07,0-.17-.11-.25-.26a.47.47,0,0,1,0-.28.05.05,0,0,1,0,0h0c.08,0,.19.11.26.25a.4.4,0,0,1,0,.29l0,0Zm-.24-.55c0,.06,0,.15,0,.28s.17.24.22.24h0c0-.05,0-.15,0-.27s-.17-.25-.22-.25Z"/><path class="cls-3" d="M15,8c.06,0,.16.11.23.26s.06.29,0,.29S15,8.48,15,8.33,14.92,8,15,8Z"/><path d="M15.2,8.61c-.07,0-.17-.12-.24-.28a.42.42,0,0,1,0-.28A.05.05,0,0,1,15,8h0c.08,0,.18.12.24.27a.39.39,0,0,1,0,.29s0,0,0,0ZM15,8.05c-.05,0-.05.15,0,.27s.16.26.21.26h0a.26.26,0,0,0,0-.27c-.06-.16-.15-.26-.2-.26Z"/><path class="cls-3" d="M15,8.14c.11.27.15.51.1.53s-.19-.16-.3-.42Z"/><path d="M15.08,8.69h0a1,1,0,0,1-.28-.44c.13.24.23.39.29.41s0-.22-.1-.51h0c.1.24.16.51.09.55Z"/><path class="cls-3" d="M15,7.72c.06,0,.17.11.23.27s.06.28,0,.29S15,8.17,15,8s-.06-.29,0-.3Z"/><path d="M15.18,8.3C15.11,8.3,15,8.18,15,8a.37.37,0,0,1,0-.28s0,0,0,0h0c.08,0,.18.12.24.27a.39.39,0,0,1,0,.29l0,0ZM15,7.74A.28.28,0,0,0,15,8c.07.16.16.26.21.26h0s0-.15,0-.28S15,7.74,15,7.74Z"/><path class="cls-3" d="M14.79,7.81c.06,0,.16.11.22.27s.05.29,0,.29-.16-.11-.22-.27-.06-.28,0-.29Z"/><path d="M15,8.39c-.07,0-.16-.12-.22-.28a.37.37,0,0,1,0-.28s0,0,0,0h0c.07,0,.17.13.23.28a.39.39,0,0,1,0,.29l-.05,0Zm-.2-.57a.3.3,0,0,0,0,.28c.06.15.15.26.2.26h0a.28.28,0,0,0,0-.28c-.05-.15-.15-.26-.2-.26Z"/><path class="cls-3" d="M14.79,7.78c.1.18.16.35.13.37s-.15-.09-.26-.27Z"/><path d="M14.92,8.17c-.09,0-.19-.15-.27-.28.12.15.21.25.25.25s0-.14-.12-.35l0,0c.08.14.18.35.12.4Z"/><path class="cls-3" d="M14.86,7.66C15,7.84,15,8,15,8s-.15-.1-.26-.28Z"/><path d="M15,8.05c-.09,0-.2-.15-.28-.28A1.2,1.2,0,0,0,15,8s0-.15-.12-.36h0c.08.13.18.35.13.39Z"/><path class="cls-3" d="M15.19,7.69c.15.24.23.47.18.51s-.21-.13-.36-.38Z"/><path d="M15.34,8.22A1.06,1.06,0,0,1,15,7.83a1.28,1.28,0,0,0,.34.36c.05,0,0-.23-.16-.49l0,0c.14.23.24.48.17.53Z"/><path class="cls-3" d="M15,7.56c.11.2.17.38.13.41s-.15-.1-.26-.3Z"/><path d="M15.11,8c-.09,0-.2-.16-.28-.31a1,1,0,0,0,.26.29s0-.17-.13-.39l0,0c.07.15.17.39.12.43Z"/><path class="cls-9" d="M15,7.27c-.07.07,0,.21.07.26s.48.49.76.13c-.23,0-.66-.54-.83-.39Z"/><path d="M15.52,7.82h0A.86.86,0,0,1,15,7.55a.37.37,0,0,1-.11-.19.17.17,0,0,1,0-.1c.1-.09.29,0,.48.18a.83.83,0,0,0,.36.2.28.28,0,0,1-.27.18ZM15,7.26l-.07,0a.11.11,0,0,0,0,.08.21.21,0,0,0,.09.15.79.79,0,0,0,.48.28h0a.33.33,0,0,0,.26-.14c-.09,0-.23-.08-.37-.19a.8.8,0,0,0-.37-.2Z"/><path class="cls-9" d="M14.91,7.06c-.07.07,0,.2.07.25s.48.5.76.14c-.23,0-.66-.55-.83-.39Z"/><path d="M15.47,7.6h0A.85.85,0,0,1,15,7.34a.31.31,0,0,1-.11-.19.17.17,0,0,1,0-.1c.1-.09.29,0,.48.18a.83.83,0,0,0,.36.2.29.29,0,0,1-.27.17ZM15,7.05a.08.08,0,0,0-.07,0,.11.11,0,0,0,0,.08A.21.21,0,0,0,15,7.3a.79.79,0,0,0,.48.28.33.33,0,0,0,.26-.14c-.09,0-.23-.08-.37-.19a.8.8,0,0,0-.37-.2Z"/><path class="cls-9" d="M14.85,6.86c-.07.07,0,.2.06.25s.48.5.77.13c-.23,0-.66-.54-.83-.38Z"/><path d="M15.41,7.4h0a.85.85,0,0,1-.49-.26A.27.27,0,0,1,14.81,7a.09.09,0,0,1,0-.1c.1-.09.28,0,.47.18s.27.2.37.2a.3.3,0,0,1-.27.17Zm-.48-.56a.1.1,0,0,0-.1.1.28.28,0,0,0,.09.16.81.81,0,0,0,.49.27h0a.3.3,0,0,0,.26-.14c-.1,0-.23-.07-.37-.18a1,1,0,0,0-.37-.21Z"/><path class="cls-9" d="M14.71,6.63c-.07.07,0,.2.06.25s.48.49.77.13c-.23,0-.66-.54-.83-.38Z"/><path d="M15.27,7.17h0a.85.85,0,0,1-.49-.26.29.29,0,0,1-.11-.2.08.08,0,0,1,0-.09c.1-.1.28,0,.47.17s.27.21.37.21a.3.3,0,0,1-.27.17Zm-.48-.56a.1.1,0,0,0-.1.1.28.28,0,0,0,.09.16.87.87,0,0,0,.49.27A.33.33,0,0,0,15.53,7c-.09,0-.23-.08-.37-.18a.84.84,0,0,0-.37-.21Z"/><path class="cls-9" d="M14.21,6.4a.61.61,0,0,1,.62,0c.17.08.46.43.68.51a.5.5,0,0,1-.35,0,.8.8,0,0,1-.45.19c-.28,0-.5,0-.58-.18a.36.36,0,0,1,.08-.45Z"/><path d="M14.56,7.05a.51.51,0,0,1-.45-.19.4.4,0,0,1,.09-.47.68.68,0,0,1,.64,0,1.37,1.37,0,0,1,.28.22,1.57,1.57,0,0,0,.39.29.16.16,0,0,1-.12,0,.49.49,0,0,1-.23-.06.69.69,0,0,1-.45.19Zm0-.73a.49.49,0,0,0-.32.1.35.35,0,0,0-.08.43A.55.55,0,0,0,14.7,7a.72.72,0,0,0,.46-.18.6.6,0,0,0,.35,0,1,1,0,0,1-.41-.27,1.56,1.56,0,0,0-.28-.22.64.64,0,0,0-.28-.06Z"/><path class="cls-6" d="M14.52,6.55c.07,0,.12,0,.12.07s-.06.07-.12.07-.13,0-.13-.07.06-.07.13-.07Z"/><path d="M14.52,6.71h0c-.08,0-.14,0-.14-.09s.06-.09.13-.09.15,0,.15.09-.07.09-.14.09Zm0-.15c-.06,0-.11,0-.11.06s.05.06.11.06h0c.06,0,.11,0,.11-.06s-.05-.06-.11-.06Z"/><path class="cls-5" d="M14.1,6.81c.09,0,.18,0,.2,0s0,.13-.13.16S14,7,14,7s0-.12.13-.16Z"/><path d="M14.08,7C14,7,14,7,14,7s0-.14.13-.18.2,0,.22,0,0,.14-.13.18Zm.11-.23-.09,0C14,6.86,14,6.92,14,7s.11.06.19,0,.13-.1.11-.14,0-.05-.09-.05Z"/><path d="M14.51,6.58s.05,0,.05,0a.05.05,0,0,1-.05,0,0,0,0,0,1,0,0,.05.05,0,0,1,0,0Z"/><path class="cls-5" d="M14.24,6.72a.16.16,0,0,1-.12.16.35.35,0,0,0-.2.26c-.14-.32-.05-.46.1-.49s.2,0,.22.07Z"/><path d="M13.92,7.18v0a.48.48,0,0,1-.05-.39A.19.19,0,0,1,14,6.64c.16,0,.22,0,.24.07s0,.15-.13.18a.39.39,0,0,0-.19.25v0Zm.22-.54-.12,0a.19.19,0,0,0-.13.1.42.42,0,0,0,0,.34.38.38,0,0,1,.2-.24.13.13,0,0,0,.11-.14.09.09,0,0,0-.09-.08Z"/><path d="M14.1,6.71s0,0,0,0a0,0,0,0,1,0,0s0,0,0,0a0,0,0,0,1,0,0Z"/></g></g></g></g></g></g></svg>