<svg xmlns="http://www.w3.org/2000/svg" xmlns:xlink="http://www.w3.org/1999/xlink" viewBox="0 0 29.46 17.19"><defs><style>.cls-1{fill:none;}.cls-2{clip-path:url(#clip-path);}.cls-3{fill:#f3d02f;}.cls-4{fill:#22368f;}.cls-5{fill:#bc0030;}.cls-6{fill:#46454a;}.cls-7{fill:#303231;}.cls-8{fill:#fff;}.cls-9{fill:#741810;}.cls-10{fill:#f8e72a;}.cls-11{fill:#ee7a23;}.cls-12{fill:#dec9c8;}.cls-13{fill:#d5b0a5;}.cls-14{fill:#170085;}.cls-15{fill:#f2b226;}.cls-16{fill:#dcdcdc;}.cls-17{fill:#333;}.cls-18{fill:#3e500a;}.cls-19{clip-path:url(#clip-path-4);}.cls-20{fill:#d2001d;}.cls-21{fill:#265d09;}.cls-22{fill:#2200c0;}.cls-23{fill:#d4001d;}.cls-24{fill:#d7001d;}.cls-25{fill:#d7001e;}.cls-26{fill:#da1d1e;}.cls-27{fill:#da291e;}.cls-28{fill:#da311e;}.cls-29{fill:#dc3e1f;}.cls-30{fill:#dc451f;}.cls-31{fill:#dd4e1f;}.cls-32{fill:#e15920;}.cls-33{fill:#e16220;}.cls-34{fill:#e26921;}.cls-35{fill:#e47521;}.cls-36{fill:#e57b22;}.cls-37{fill:#e58222;}.cls-38{fill:#e98d23;}.cls-39{fill:#e99623;}.cls-40{fill:#ea9d24;}.cls-41{fill:#eca925;}.cls-42{fill:#edb125;}.cls-43{fill:#edb726;}.cls-44{fill:#f1c427;}.cls-45{fill:#f2cb27;}.cls-46{fill:#f3d328;}.cls-47{clip-path:url(#clip-path-5);}.cls-48{fill:#3d9712;}.cls-49{fill:#ea0020;}.cls-50{fill:#3d9612;}.cls-51{fill:#bfa57f;}.cls-52{fill:#4f637c;}.cls-53{fill:#4a76ba;}.cls-54{fill:#5c7f47;}.cls-55{fill:#409966;}.cls-56{fill:#f2b126;}.cls-57{fill:#f3bd28;}.cls-58{fill:#b0b27e;}.cls-59{fill:#8d4b23;}</style><clipPath id="clip-path"><rect class="cls-1" width="29.46" height="17.19"/></clipPath><clipPath id="clip-path-4"><rect class="cls-1" x="16.49" y="6.42" width="0.56" height="1.45"/></clipPath><clipPath id="clip-path-5"><rect class="cls-1" x="12.41" y="6.39" width="0.56" height="1.45"/></clipPath></defs><g id="Layer_2" data-name="Layer 2"><g id="cá»"><g id="south_america" data-name="south america"><g class="cls-2"><g class="cls-2"><rect class="cls-3" width="29.46" height="8.59"/><rect class="cls-4" y="8.59" width="29.46" height="4.3"/><rect class="cls-5" y="12.89" width="29.46" height="4.3"/><g class="cls-2"><path class="cls-6" d="M13.45,5.41a.82.82,0,0,0-.22.16s-.17,0-.07-.18-.18.11-.22.06a.12.12,0,0,1,0-.16s-.13.07-.16,0,0-.08,0-.14-.1.13-.17.1-.07-.09,0-.16-.15.2-.23.17,0-.09,0-.14-.18.17-.3.13-.13.12-.17.06,0-.08,0-.08-.08.09-.14.05,0-.08,0-.08-.09,0-.12,0,0-.1,0-.1a1.62,1.62,0,0,1,1-.37c.62,0,.68.11.7.14s.18.29.17.36a.53.53,0,0,1-.06.13Z"/><path d="M13.2,5.59a.1.1,0,0,1-.08,0,.13.13,0,0,1,0-.12c-.05,0-.16.07-.2,0a.16.16,0,0,1,0-.15.25.25,0,0,1-.11,0h0a.08.08,0,0,1,0-.08.12.12,0,0,1-.1,0c-.06,0-.08,0-.08-.07a0,0,0,0,1,0,0c-.05.06-.12.13-.17.13a.1.1,0,0,1-.08-.05.13.13,0,0,1,0-.06.29.29,0,0,1-.26.09s-.13.12-.18,0a.07.07,0,0,1,0-.06.09.09,0,0,1-.08,0h0l0,0s0,0,0,0h-.1a.08.08,0,0,1,0,0,.1.1,0,0,1,.05-.07,1.6,1.6,0,0,1,1-.37c.55,0,.68.06.71.15l0,0a.86.86,0,0,1,.15.33,1.33,1.33,0,0,1-.06.14.84.84,0,0,0-.23.16Zm0-.21c0,.07,0,.12,0,.15a.07.07,0,0,0,.06,0h0l0,0a.88.88,0,0,1,.23-.16.68.68,0,0,0,0-.13A1.15,1.15,0,0,0,13.35,5l0,0c0-.1-.19-.15-.44-.15h-.24a1.62,1.62,0,0,0-1,.37.09.09,0,0,0,0,.06v0h.11s0,0,0,.06l0,0s.06,0,.08-.05,0,0,0,.07a.22.22,0,0,0,.16-.06h0a.5.5,0,0,0,.25-.13h0v0c0,.06,0,.08,0,.09s0,0,0,0h0c.07,0,.18-.12.21-.17h0a.22.22,0,0,0,0,.11.07.07,0,0,0,.05,0s.12-.06.15-.1h0a.08.08,0,0,1,0,0s0,.08,0,.1a.25.25,0,0,0,.16-.05h0a.19.19,0,0,0,0,.15.38.38,0,0,0,.2-.06Z"/><path d="M13.19,5.57s0-.08.06-.11l0,0h0l0,0s-.08.06-.08.09Zm0,0c0-.06.17-.2.17-.2l0,0a1.12,1.12,0,0,0-.19.18ZM13,5.45h0l.2-.17v0L13,5.44Zm0,0c0-.07.21-.19.27-.23v0a1.14,1.14,0,0,0-.28.21Zm-1-.08s.13-.14.29-.26L12.3,5V5l-.1.08a2.87,2.87,0,0,0-.31.24Zm.88,0A2.2,2.2,0,0,1,13.19,5V5s-.38.27-.42.31Zm.07,0s.07-.1.18-.18l.09-.07v0l-.08.07a1.5,1.5,0,0,0-.2.16Zm-1.09,0s.08-.11.21-.21L12.1,5l0,0L12,5.14a2.26,2.26,0,0,0-.23.19Zm.37,0A1.21,1.21,0,0,1,12.45,5V5l-.33.25Zm.24,0a2.54,2.54,0,0,1,.43-.37l0,0a4.12,4.12,0,0,0-.45.35Zm.22,0c0-.07.4-.34.45-.36v0a2.61,2.61,0,0,0-.46.34Zm-.95,0s.18-.17.22-.2v0l-.23.18Z"/><path class="cls-7" d="M14.74,5.13a1,1,0,0,0-.2-.09l-.23,0a.29.29,0,0,1,0-.16.42.42,0,0,1,.05-.14s0-.37-.31-.41a3.12,3.12,0,0,0-1.34,0,2.69,2.69,0,0,0-1.4.82s.07,0,.13,0a.67.67,0,0,0,.17-.1c.08,0,.19-.08.19-.08s.1,0,.1,0S12,5,12,5c.15,0,.18-.07.18-.07s0,0,.1,0a.25.25,0,0,0,.13-.08c0,.09.15,0,.15,0s0-.07,0,0,.21,0,.21,0,.15,0,.15,0,.13,0,.13,0,.17,0,.17,0,0,0,0,.08.14,0,.14,0-.11.06-.12.09.16.08.16.08-.16,0-.16.06.19,0,.19,0,0,0,0,0-.18,0-.13.06a.54.54,0,0,0,.12,0c-.09,0-.08,0,0,.08s.09,0,.07,0,.14,0,.16.1.2,0,.2,0-.08.06,0,.07.12,0,.15,0,0,.08.11.11l0,0,.64-.54Z"/><path d="M14.05,5.7h0s0-.06-.07-.09a.1.1,0,0,0,0,0,.17.17,0,0,1-.17,0h0l0,0s0,0,0,0-.17,0-.18,0a.3.3,0,0,0-.15-.09.09.09,0,0,1-.08,0,.09.09,0,0,1,0-.06,0,0,0,0,1,0,0l-.08,0s0,0,.06-.07c-.08,0-.1,0-.1,0s.05-.07.17-.08c-.12,0-.18,0-.17-.06A.16.16,0,0,1,13.31,5c-.05,0-.08,0-.09,0a.13.13,0,0,1,0-.06h0c-.06,0-.12,0-.13,0a.15.15,0,0,1-.09,0s0,0,0-.06a.19.19,0,0,1-.12,0l0,0s-.17.07-.2,0v0s-.14.1-.17,0-.06.08-.12.09-.09,0-.11,0S12.15,5,12,5s-.13.1-.17,0a.09.09,0,0,1-.07.06h0l0,0s-.11.12-.18.08a.47.47,0,0,1-.16.1l-.08,0s-.07,0-.08,0a2.65,2.65,0,0,1,1.38-.84,3.07,3.07,0,0,1,.81-.11,3.83,3.83,0,0,1,.53,0h0a.41.41,0,0,1,.33.44.26.26,0,0,0-.06.13.22.22,0,0,0,0,.15l.22,0a1,1,0,0,1,.21.09l-.64.56-.06,0ZM14,5.57s0,0,0,0,0,.06.05.07h0l.63-.54-.19-.07-.23,0s-.06-.08,0-.17a.42.42,0,0,1,.05-.14.36.36,0,0,0-.3-.4h0a3.28,3.28,0,0,0-1.3.06h0a2.72,2.72,0,0,0-1.37.81.28.28,0,0,0,.13,0,.74.74,0,0,0,.16-.1h0c.06,0,.14-.08.14-.08h0l0,0s.05,0,.06-.06h.05A.23.23,0,0,0,12,5h.07a.12.12,0,0,0,.11-.06h.11a.26.26,0,0,0,.12-.08l.06,0a.19.19,0,0,0,.09,0l0,0h0v0h0a.74.74,0,0,0,.16,0,.2.2,0,0,0,.14,0c0,.05,0,.05,0,.05a.25.25,0,0,0,.09,0,.16.16,0,0,0,.17,0h0s0,0,0,0v0a0,0,0,0,0,0,0s0,0,.08,0h.05s0,0,0,0-.06.06-.06.08a.38.38,0,0,0,.15.06c-.1,0-.15,0-.15.08h.15c-.09,0-.13,0-.13,0a.3.3,0,0,0,.12,0l-.05,0s0,0,0,0,0,0,.06,0,.15,0,.17.11h.19a.67.67,0,0,1,0,.07h.07a.1.1,0,0,0,.08,0Z"/><path d="M13.84,5.56h0A.51.51,0,0,0,14,5.49v0a.31.31,0,0,1-.19,0Zm-.36-.1h0v0a.49.49,0,0,0,.16,0,.33.33,0,0,1-.14,0Zm.17-.08-.23,0v0a1.09,1.09,0,0,0,.24,0,1.44,1.44,0,0,0,.26-.08.61.61,0,0,1-.26.1Zm-2.2-.13a1.44,1.44,0,0,1,.31-.33v0a2.05,2.05,0,0,0-.32.31Zm2,0,0,0h0a2.75,2.75,0,0,0,.71-.11,1.69,1.69,0,0,1-.7.14Zm-.05-.08v0A2.58,2.58,0,0,0,14.07,5a2.23,2.23,0,0,1-.65.15Zm-1.83,0a1.51,1.51,0,0,1,.33-.32l0,0a2.56,2.56,0,0,0-.35.3Zm.19-.07a1.63,1.63,0,0,1,.27-.32l0,0a2.88,2.88,0,0,0-.29.3Zm.09,0a2,2,0,0,1,.3-.32l0,0a4.34,4.34,0,0,0-.32.3Zm1.51,0V5a2.63,2.63,0,0,0,.66-.1,2.14,2.14,0,0,1-.66.13ZM12,5a1,1,0,0,1,.39-.35v0A1.27,1.27,0,0,0,12,5Zm.19-.07c.06-.15.46-.33.47-.34v0a2,2,0,0,0-.48.32Zm1,0s0,0,0,0l0,0,.28-.16v0l-.28.16.63-.11a6,6,0,0,1-.64.13Zm-.44-.05c0-.06.33-.33.33-.34l0,0s-.29.28-.35.32Zm-.38,0c0-.1.31-.27.32-.28v0a3.21,3.21,0,0,0-.33.26Zm.66,0c.08-.08.4-.3.4-.31v0l-.41.28Zm-.14,0,.35-.31v0a3.42,3.42,0,0,1-.36.29Zm-.35,0,.29-.29,0,0a2.46,2.46,0,0,1-.31.27Z"/><path class="cls-8" d="M12.07,4.73a2.79,2.79,0,0,1,1.21-.33c.59,0,.55,0,.57,0a.54.54,0,0,1,.19.13s0,.1.06.09,0,0,0,0a.39.39,0,0,0-.28-.27,3.39,3.39,0,0,0-1.07.07,3.23,3.23,0,0,0-.72.27c-.06,0-.07.08,0,0Z"/><path class="cls-1" d="M14.1,5.49l-.08,0Zm0,0-.07,0Zm-.05,0L14,5.5Zm0,0-.07,0Zm-.06,0-.06,0Zm-.06,0,0,0Z"/><path class="cls-9" d="M16,5.41a.82.82,0,0,1,.22.16s.17,0,.07-.18.17.11.22.06a.15.15,0,0,0,0-.16s.13.07.16,0,0-.08,0-.14.11.13.18.1.07-.09,0-.16.15.2.23.17,0-.09,0-.14.18.17.3.13.13.12.17.06,0-.08,0-.08.08.09.14.05,0-.08,0-.08.09,0,.12,0,0-.1,0-.1a1.62,1.62,0,0,0-1-.37c-.62,0-.69.11-.7.14s-.18.29-.17.36a.53.53,0,0,0,.06.13Z"/><path class="cls-6" d="M16,5.41a.82.82,0,0,1,.22.16s.17,0,.07-.18.17.11.22.06a.12.12,0,0,0,0-.16s.13.07.16,0,0-.08,0-.14.11.13.18.1.06-.09,0-.16.15.2.23.17,0-.09,0-.14.18.17.3.13.13.12.17.06,0-.08,0-.08.08.09.14.05,0-.08,0-.08.09,0,.12,0,0-.1,0-.1a1.62,1.62,0,0,0-1-.37c-.62,0-.69.11-.7.14s-.18.29-.17.36a.53.53,0,0,0,.06.13Z"/><path d="M16.29,5.59h0A.9.9,0,0,0,16,5.42.22.22,0,0,1,16,5.28.86.86,0,0,1,16.12,5l0,0c0-.09.17-.2.71-.15a1.6,1.6,0,0,1,1,.37.1.1,0,0,1,.05.07.06.06,0,0,1,0,0h-.1s0,0,0,0h0l0,0s-.08,0-.11,0,0,0,0,0-.18,0-.19-.06l0,0a.37.37,0,0,1-.2-.09.09.09,0,0,1,0,0,.1.1,0,0,1-.06.05.31.31,0,0,1-.19-.12s0,0,0,0,0,0-.06.06a.17.17,0,0,1-.14,0,.06.06,0,0,1,0,.09h0l-.11,0a0,0,0,0,1,0,0,.2.2,0,0,1,0,.11s-.23,0-.24,0,.06.11.05.13a.1.1,0,0,1-.08,0Zm.32-.81c-.26,0-.41,0-.44.14l0,0a1.5,1.5,0,0,0-.15.32.59.59,0,0,0,.06.12,1.06,1.06,0,0,1,.22.16h0a.07.07,0,0,0,.06,0s0-.06,0-.13.13,0,.19,0a.1.1,0,0,0,0-.1.08.08,0,0,0,0,0s.1,0,.15,0a.09.09,0,0,0,0-.13h0s.1.08.16.08,0,0,.06,0,0-.06,0-.11.16.16.22.16l0,0s0,0,0-.09.16.11.26.11h.05a.29.29,0,0,0,.14.08c.05,0,.05-.06.05-.06l.1,0,0,0a.08.08,0,0,0,0,0s.06,0,.1,0l0,0a.09.09,0,0,0,0,0,1.66,1.66,0,0,0-1-.37Z"/><path d="M16.32,5.57a.43.43,0,0,0-.1-.09l0,0h0l0,0s.08.07.08.11Zm0,0-.21-.18v0s.19.14.2.2Zm.15-.13a2.36,2.36,0,0,1-.2-.13l0,0,.18.15Zm.06,0-.3-.2v0a1.3,1.3,0,0,1,.29.22Zm1.05-.08-.34-.24L17.18,5V5l.1.07c.16.13.3.23.32.26Zm-.95,0a1.05,1.05,0,0,1-.23-.15l-.07-.06v0l.08.06.21.17Zm.06,0s-.38-.27-.43-.29V5a4.13,4.13,0,0,1,.42.31Zm1,0a2,2,0,0,1-.28-.21L17.37,5V5l.1.08a2.26,2.26,0,0,1,.27.23Zm-.37,0c-.05,0-.31-.21-.35-.24V5a2.78,2.78,0,0,1,.34.26Zm-.46,0c-.05,0-.43-.3-.48-.32v0a3.12,3.12,0,0,1,.47.34Zm.22,0c-.05,0-.42-.3-.47-.33l0,0s.42.31.45.35Zm.71,0a1.06,1.06,0,0,1-.23-.16v0l.23.18Z"/><path class="cls-7" d="M14.74,5.13A1.09,1.09,0,0,1,15,5l.23,0a.29.29,0,0,0,0-.16.42.42,0,0,0-.05-.14.36.36,0,0,1,.31-.41,3.12,3.12,0,0,1,1.34,0,2.69,2.69,0,0,1,1.4.82s-.07,0-.13,0a.67.67,0,0,1-.17-.1c-.08,0-.19-.08-.19-.08s-.1,0-.1,0-.16,0-.16,0c-.15,0-.19-.07-.19-.07s0,0-.09,0A.31.31,0,0,1,17,4.84c0,.09-.14,0-.14,0s0-.07,0,0-.21,0-.21,0-.14,0-.14,0-.13,0-.13,0-.18,0-.18,0,.05,0,0,.08-.15,0-.15,0,.12.06.13.09-.16.08-.16.08.16,0,.16.06-.19,0-.19,0,0,0,0,0,.18,0,.13.06a.41.41,0,0,1-.12,0c.09,0,.08,0,0,.08s-.09,0-.07,0-.14,0-.16.1-.2,0-.2,0,.08.06,0,.07-.12,0-.15,0,0,.08-.11.11l0,0-.64-.54Z"/><path d="M15.44,5.7h0l-.65-.55A.47.47,0,0,1,15,5l.23,0a.36.36,0,0,0,0-.15.4.4,0,0,0-.06-.13.4.4,0,0,1,.33-.44h0a3.32,3.32,0,0,1,1.31.06,2.72,2.72,0,0,1,1.41.82c0,.06-.06.06-.07.06l-.08,0a1,1,0,0,1-.17-.1h0a.27.27,0,0,1-.16-.09c-.05,0-.09,0-.1,0s0,0,0,0A.29.29,0,0,1,17.45,5H17.4a.14.14,0,0,1-.13-.07s0,0-.09,0A.29.29,0,0,1,17,4.85s0,0,0,0a.25.25,0,0,1-.1,0s0,0-.07,0a.47.47,0,0,1-.17,0c-.05,0-.14,0-.14,0s0,0,0,0a.25.25,0,0,1-.1,0s-.05.05-.12,0a.15.15,0,0,1,0,.07s0,0-.1,0a.1.1,0,0,1,.07.08s0,.06-.17.09c.12,0,.17,0,.17,0s0,0-.12,0H16c.17,0,.17,0,.18,0a.27.27,0,0,1-.1.06,0,0,0,0,1,0,0s0,0,0,.06l-.08,0a.28.28,0,0,0-.15.08s-.11,0-.18,0,0,0,0,0h0l0,0c-.09,0-.12,0-.15,0s0,0,0,0,0,.08-.07.09ZM15,5.05a1,1,0,0,0-.2.09l.65.52h0s0,0,.05-.07,0,0,0,0a.2.2,0,0,0,.17,0s0,0,0,0,.09,0,.15,0h0c0-.06.16-.11.17-.11a0,0,0,0,0,.06,0s0,0,0,0,0,0-.05,0l.11-.06s0,0-.12,0,0,0,0,0h.21s0,0-.15,0l.14-.09s0-.06-.11-.08,0,0,.06,0,.08,0,.08,0a0,0,0,0,0,0,0h0v0s.13,0,.15,0,.08,0,.11,0,0,0,0,0l.14,0s.12,0,.18,0h0V4.8s0,0,.05,0h0s.06,0,.09,0a0,0,0,0,0,0,0s.09.06.16.07h0l.05,0s.06.09.16.07a.42.42,0,0,0,.14.06h0s.05.06.07.06.11.06.17.06h.05a.74.74,0,0,0,.16.1.19.19,0,0,0,.13,0,2.72,2.72,0,0,0-1.37-.81h0a3.28,3.28,0,0,0-1.3-.06h0a.36.36,0,0,0-.3.4h0a.69.69,0,0,1,.06.14.3.3,0,0,1,0,.17l-.24,0Z"/><path d="M15.59,5.54c-.09,0-.13,0-.13,0h0a.31.31,0,0,0,.21,0ZM16,5.46l-.12,0H16v0Zm-.15-.08h0l-.26-.08.26.06.25,0v0l-.24,0ZM16,5.24a2.3,2.3,0,0,1-.71-.12,5.07,5.07,0,0,0,.71.09v0Zm2,0a3.11,3.11,0,0,0-.35-.29l0,0a2.56,2.56,0,0,1,.33.31Zm-2-.07A3.32,3.32,0,0,1,15.41,5a4.07,4.07,0,0,0,.66.09v0Zm1.86,0c-.12-.11-.37-.29-.37-.29v0a2.76,2.76,0,0,1,.36.31Zm-.19-.08c-.08-.06-.31-.28-.31-.28v0a4.15,4.15,0,0,1,.3.3Zm-.1,0-.33-.29h0s.2.17.32.3ZM16.1,5a4.07,4.07,0,0,1-.66-.1c.09,0,.41.06.67.08V5Zm1.37,0a1.63,1.63,0,0,0-.42-.31v0a1.12,1.12,0,0,1,.41.33Zm-.19-.07a2.27,2.27,0,0,0-.5-.31v0a1.89,1.89,0,0,1,.49.33Zm-1.1,0a3.74,3.74,0,0,1-.6-.1l.64.08s0,0,0,0Zm0,0a2.49,2.49,0,0,1-.29-.15v0l.28.16Zm.45,0a2.37,2.37,0,0,1-.36-.3l0,0a2.72,2.72,0,0,0,.34.32Zm.38,0a2.46,2.46,0,0,0-.35-.24l0,0a1.92,1.92,0,0,1,.33.26Zm-.66,0A2.72,2.72,0,0,1,16,4.57v0l.41.27Zm.14,0a2.22,2.22,0,0,1-.38-.27l0,0a3.67,3.67,0,0,0,.36.29Zm.35,0a1.36,1.36,0,0,1-.32-.25l0,0a3.22,3.22,0,0,0,.3.27Z"/><path d="M15.83,5.49h-.08l-.35-.1.22,0h0l0,0,0,0,.13,0h.14l.08,0,0,0a.3.3,0,0,1-.09,0Zm-.46,0-.5-.22.1.12-.15-.14h0l0,0,.52.19v0Zm0-.08-.13,0h0L15,5.26h0v0h0l-.1,0h0l-.06,0v0l.06,0h0v0h0v0l.08,0h0v0l0,0,0,0h0v0l0,0,0,0h0v0h0l0,0,0,0h0l-.06,0V5h0l0,0h0l-.07,0,0,0,0,0h0l-.06,0,0,0a.22.22,0,0,0,.08,0h0l-.12,0,0,0,.14.06h0l-.11,0v0l.15,0h0l-.14,0v0l.17.05.07,0h0a1,1,0,0,0-.24,0h-.12v0h.12l.24,0h.06l-.28-.06a.46.46,0,0,1-.18,0v0a.35.35,0,0,0,.17,0l.31.07h.08l.15,0h-.19a1.6,1.6,0,0,0,.27,0,.54.54,0,0,1-.25,0l-.08,0a1.36,1.36,0,0,0,.29.06,1.13,1.13,0,0,1-.32,0h.05a1.22,1.22,0,0,0,.3.07,1.26,1.26,0,0,1-.34,0h0l.46.09A2.94,2.94,0,0,1,15.56,5l0,0c.12,0,.28.05.5.07A3.94,3.94,0,0,1,15.49,5l0,0h.09l0,0,.2,0-.22,0h0l.23.06a1,1,0,0,1-.26,0h0l.12,0-.15,0-.05,0,.07,0h0l.09,0,.08,0-.07,0h0l.33,0a1.16,1.16,0,0,1-.33,0h-.09l-.08,0,0,0h-.06l0,0h0l0,0h0l0,0,.12,0Zm0-.14h0l.09,0-.07,0h0l0,0h0l.07,0-.06,0Zm.59.12a.63.63,0,0,1-.29-.06.8.8,0,0,0,.48,0v0a.49.49,0,0,1-.2,0Zm.13-.23a1.61,1.61,0,0,1-.31,0,2.21,2.21,0,0,0,.34,0v0ZM16,5l-.3,0v0l.34.06Zm1.73,0-.38-.16a.38.38,0,0,1,.1.12.67.67,0,0,0-.15-.14l-.15-.05v0l-.05,0H17l.2.15,0,0-.19-.17h-.35l.12.09,0,0-.12-.11h-.28l.15.07v0l-.16-.1h-.19l.15.08,0,0-.15-.1-.23,0a2.92,2.92,0,0,1-.55-.06,1,1,0,0,1,.27,0,1.5,1.5,0,0,1-.21,0,2.72,2.72,0,0,1,.32,0h0l-.23,0v0l.22,0h0a1.06,1.06,0,0,1-.21,0v0a.63.63,0,0,0,.15,0l-.14,0v0l.18,0,.79,0H16a2.46,2.46,0,0,1-.48,0v0a2.52,2.52,0,0,0,.48,0,6.21,6.21,0,0,1,.73,0h.19l0,0H16.2l-.49,0a1.06,1.06,0,0,1-.21,0v0a1.22,1.22,0,0,0,.21,0,2.28,2.28,0,0,0,.35,0h-.34a.89.89,0,0,1-.17,0v0l.15,0-.1,0v0a.31.31,0,0,0,.12,0h0l-.11,0v0l.13,0h.09l-.18,0v0l.21,0h.34a3.53,3.53,0,0,1-.47,0v0h.05v0a4,4,0,0,1,.53,0h0l0,0h.08l0,0h.1v0h.07v0h0l0,0h0l0,0,0,0,0,0h0l0,0h0l0,0h0l0,0h0l0,0h.06l0,0,0,0s0,0,0,.05H17v0h0a.15.15,0,0,0,0,0h.06s0,0-.05,0h.06v0h0v0h0s0,0,0,0h.09s0,0,0,0v0l.08.08-.08,0h0l.25.08v0l-.25-.08,0,0a1.42,1.42,0,0,1,.29.1v0l.17.08V5ZM15.6,4.74a.94.94,0,0,0,.23,0H15.6Zm.42,0h0Zm.19,0h0Zm.33,0h0Zm.07-.07h-.1l-.76,0,.44,0h.36l.41,0,0,0Zm-.08-.08h.29l0,0Zm.09,0h.16l0,0-.13,0Zm-.13,0h0Zm-.09,0h0Zm-.53.37a3.08,3.08,0,0,1-.54-.1.39.39,0,0,1-.17,0v0a.28.28,0,0,0,.16,0l.54.12Zm-.58-.41h0l0,0h0a.4.4,0,0,1,.24,0h-.11c-.11,0-.13,0-.13,0Z"/><path class="cls-8" d="M17.42,4.73a2.79,2.79,0,0,0-1.21-.33c-.59,0-.55,0-.58,0a.62.62,0,0,0-.18.13s0,.1-.06.09,0,0,0,0a.39.39,0,0,1,.28-.27,3.39,3.39,0,0,1,1.07.07,3.23,3.23,0,0,1,.72.27c.06,0,.06.08,0,0Z"/><path class="cls-1" d="M15.39,5.49l.08,0Zm0,0,.07,0Zm.05,0,.06,0Zm0,0,.07,0Zm.06,0,.05,0Zm.06,0,0,0Z"/><path class="cls-7" d="M14.45,5.69a.51.51,0,0,0-.21,0,1.19,1.19,0,0,0-.53,1.15,1.68,1.68,0,0,1,.7-.48s0-.23.18-.23a.73.73,0,0,1-.19-.32s0-.09,0-.09Z"/><path class="cls-7" d="M14.45,5.69a.51.51,0,0,0-.21,0,1.19,1.19,0,0,0-.53,1.15,1.68,1.68,0,0,1,.7-.48s0-.23.18-.23a.73.73,0,0,1-.19-.32s0-.09,0-.09Z"/><path d="M13.7,6.84v0a1.18,1.18,0,0,1,.53-1.16.57.57,0,0,1,.22,0s0,.06,0,.1a.84.84,0,0,0,.18.31c-.05,0-.09,0-.11.06a.3.3,0,0,0-.06.18,1.74,1.74,0,0,0-.7.49l0,0Zm.58-1.17h0a1.14,1.14,0,0,0-.52,1.1,1.62,1.62,0,0,1,.69-.46.21.21,0,0,1,.05-.19.17.17,0,0,1,.12,0,.49.49,0,0,1-.2-.3.15.15,0,0,1,0-.09l-.15,0Z"/><path class="cls-7" d="M14.52,6a.27.27,0,0,0-.17.22Zm0,0a.68.68,0,0,0-.28.43Zm0,0s-.23.09-.36.52Zm0-.06a.84.84,0,0,0-.41.66Zm0,0a.86.86,0,0,0-.32.3,1.42,1.42,0,0,0-.17.48Zm0-.07a.8.8,0,0,0-.37.31,1,1,0,0,0-.2.5Zm0-.08a.69.69,0,0,0-.47.37Z"/><path d="M13.92,6.61V6.52a1,1,0,0,1,.15-.39.87.87,0,0,1,.33-.32v0a.76.76,0,0,0-.32.3,1.22,1.22,0,0,0-.15.39l0,.08Zm-.08,0A.94.94,0,0,1,14,6.06a.87.87,0,0,1,.37-.31v0a.79.79,0,0,0-.36.31,1,1,0,0,0-.2.49Zm.18,0a.75.75,0,0,1,.37-.65h0l0,0a.82.82,0,0,0-.38.63Zm.09-.07c.1-.41.26-.5.33-.54l0,0h0c-.06,0-.22.12-.34.51Zm.1,0A.58.58,0,0,1,14.47,6V6a.73.73,0,0,0-.27.42Zm.15-.15A.23.23,0,0,1,14.52,6v0c-.07,0-.15.12-.16.22ZM14,6.06a.65.65,0,0,1,.46-.39v0s-.24,0-.46.37Z"/><path class="cls-7" d="M15.39,5.63s0,.2,0,.24-.1.25-.32.22-.18,0-.18,0a.14.14,0,0,1-.17,0c-.11,0-.22,0-.26-.12s-.25-.24-.09-.36a.3.3,0,0,0,0,.13c0,.1.09.13.16,0s.19.16.22.07.15,0,.12-.06.18,0,.19-.07.13-.07.07-.12.12-.16,0-.21,0-.11-.09-.08,0-.18-.22-.08c0,0,0-.15-.09,0s-.08-.11-.14,0-.14,0-.11.11-.09,0-.09,0,0-.25.09-.27A.46.46,0,0,1,14.66,5s.26,0,.33,0,.15,0,.2.21c0,0,.15.14.13.26s.1,0,.07.14Z"/><path d="M14.74,6.19l-.07,0-.1,0c-.07,0-.13,0-.16-.1s-.16-.17-.15-.27a.15.15,0,0,1,.06-.1s0,.09,0,.13.09.12.13,0,.13.09.2.09,0,0,0,0h.12v0l0,0c.07,0,.16,0,.17-.06s.08-.06.08-.09h0v0s.07-.09.05-.15a.05.05,0,0,0,0,0s0-.08-.05-.08h0l0,0s0-.1-.09-.1a.24.24,0,0,0-.12,0,.41.41,0,0,0,0-.09.08.08,0,0,0-.06,0s-.09-.09-.14,0-.08,0-.1,0a.07.07,0,0,0,0,0c-.08,0-.11,0-.12,0a.38.38,0,0,1,0-.22s0-.06.06-.06A.69.69,0,0,1,14.66,5h.17A.54.54,0,0,1,15,5l.05,0s.11,0,.15.2a.41.41,0,0,1,.14.27.11.11,0,0,1,.06.14s0,.2,0,.25l0,0A.27.27,0,0,1,15,6.1c-.12,0-.15,0-.16,0a.14.14,0,0,1-.13.07Zm-.43-.51s0,.06,0,.09.09.2.13.24a.17.17,0,0,0,.15.1l.11,0a.18.18,0,0,0,.16,0c0-.06.08-.06.19,0a.27.27,0,0,0,.27-.17l0-.06s0-.14,0-.22a.13.13,0,0,0-.06-.13c0-.12-.14-.26-.14-.27s-.09-.17-.14-.18l0,0a.32.32,0,0,0-.16,0h-.17a.46.46,0,0,0-.16.06.13.13,0,0,0-.06,0,.33.33,0,0,0,0,.21h.08s0,0,0-.06a.15.15,0,0,1,.11,0,.06.06,0,0,1,.06,0,.14.14,0,0,1,.09,0s0,0,.06,0a.14.14,0,0,1,0,.11.13.13,0,0,1,.11,0,.12.12,0,0,1,.12.12c.06,0,.08.07.08.08s0,0,0,0-.06.16-.06.17,0,0,0,0-.08.08-.09.09-.11.08-.17.08l0,0s0,0-.09,0a.13.13,0,0,1-.08,0,.33.33,0,0,1-.19-.1c0,.08-.11.07-.17,0a.34.34,0,0,1,0-.14Z"/><path class="cls-10" d="M15,6.08s0,.09,0,.11,0,0,.15.08l0,.06L15,6.3s0,0,0,0l0,.08a.37.37,0,0,0,0-.08s0,0,0,0,0,0-.06,0,0,0,0,0,0-.08,0-.09.09,0,.07-.08a.25.25,0,0,0,0-.09s.06,0,.08,0Z"/><path d="M15,6.44h0a.51.51,0,0,0,0-.09l0,0,0,0,0,0h0s0,0,0-.05l.05,0,0,.07s0,0,0,0l0,0s0,0,0,0a.4.4,0,0,1,.13,0l0-.05c-.11,0-.15,0-.15-.08a.36.36,0,0,0,0-.1l-.06,0s0,0,0,.07a.08.08,0,0,1,0,.07.11.11,0,0,1-.08,0,.1.1,0,0,0,0,.08h0s0-.05,0-.08l0,0,.06,0s0,0,0,0a.15.15,0,0,0,0-.08.1.1,0,0,1,.08,0,.24.24,0,0,1,0,.12s0,0,.14.07l0,.07s-.08,0-.13,0h0l0,0,0,.09Z"/><path class="cls-10" d="M14.62,6.15v.06s.16,0,.14.06,0,0,0,0a.11.11,0,0,0-.1,0,.08.08,0,0,0-.06.1l0,0s0-.09,0-.09h-.15s0-.07,0-.09.07,0,.11,0,0,0,0,0V6.11l.1,0Z"/><path d="M14.54,6.42v0a.19.19,0,0,0,0-.08h-.1l-.06,0a.12.12,0,0,1,0-.1l.06,0h.06s0,0,0,0V6.11l.12,0s0,0,0,0,0,0,0,0,.08,0,.09,0,0,.07,0,.07-.05-.05-.09-.05-.08.05-.07.08h0l-.05.06Zm0-.15a.18.18,0,0,1,.05.08h0s0-.08.07-.1h0a.11.11,0,0,1,.1,0v0h0l-.08,0-.06,0v0l-.09-.06,0,0s0,.06,0,.07h-.11a.09.09,0,0,0,0,.07l0,0,.1,0Z"/><path class="cls-11" d="M14,5.48a.31.31,0,0,1,0,.13s-.1,0-.11,0,0,0,0,.06a.1.1,0,0,1-.06-.07A.14.14,0,0,1,14,5.48Z"/><path class="cls-12" d="M14,5.48a.31.31,0,0,1,0,.13s-.1,0-.11,0,0,0,0,.06a.1.1,0,0,1-.06-.07A.14.14,0,0,1,14,5.48Z"/><path d="M13.9,5.72s-.06,0-.07-.07a.16.16,0,0,1,0-.13.17.17,0,0,1,.12,0s.06.1,0,.15a.25.25,0,0,0-.11,0s0,0,0,0v0ZM14,5.49s-.06,0-.08,0a.14.14,0,0,0,0,.1l0,0a0,0,0,0,1,0,0s.07,0,.12-.05a.27.27,0,0,0,0-.11Z"/><path class="cls-8" d="M13.87,5.64a.08.08,0,0,1,.07-.12s0,0,0,0-.07,0-.07.09Z"/><path class="cls-8" d="M14.32,5.68a.24.24,0,0,0,0,.13c0,.1.09.13.15,0s.2.16.23.07.15,0,.12-.06.18,0,.19-.07.12-.07.07-.12.12-.16,0-.21,0-.11-.09-.08,0-.18-.23-.07c0,0,0-.16-.08-.06s-.08-.11-.14,0-.14,0-.11.11a1.82,1.82,0,0,1,.29.16c.05,0,0,.14,0,.15s-.09,0-.12,0-.07-.08-.11-.08-.15,0-.16,0h-.07Z"/><path d="M14.73,5.91s0,0,0,0h-.09v0h.09s0,.06,0,.06Zm.12,0,0,0s0,0,0-.1h0a.1.1,0,0,0,0,.07l.06,0s0,0,0,0Zm.14-.1v0l0,0v0h0v0a.09.09,0,0,1,.08,0,.18.18,0,0,0-.07.08v0Z"/><path class="cls-8" d="M14.32,5.68h.07s.12,0,.16,0,.11.08.11.08.08,0,.12,0,0-.12,0-.15a1.82,1.82,0,0,0-.29-.16l-.22-.06c-.1,0-.21,0-.22.08s0,0,0,0L14,5.48s.06.11,0,.13a1.18,1.18,0,0,0,.31.07Z"/><path class="cls-13" d="M14.32,5.68h.07s.12,0,.16,0,.11.08.11.08.08,0,.12,0,0-.12,0-.15a1.82,1.82,0,0,0-.29-.16l-.22-.06c-.1,0-.21,0-.22.08s0,0,0,0a.32.32,0,0,0-.06.08s0,.11,0,.13a1.18,1.18,0,0,0,.31.07Z"/><path d="M14.66,5.73h0a.2.2,0,0,0-.1-.07h-.08s-.07,0-.07,0l-.07,0h0A.82.82,0,0,1,14,5.62a.31.31,0,0,0,0-.13s.07-.09.07-.1a.22.22,0,0,1,.24-.1l.09,0,.13,0a1.5,1.5,0,0,1,.3.16.12.12,0,0,1,0,.12.07.07,0,0,1,0,0l-.06,0-.06,0Zm-.19-.1h0a.35.35,0,0,1,.15.07l0,0,.07,0c0-.06,0-.11,0-.12a2.3,2.3,0,0,0-.29-.16l-.13,0-.08,0c-.09,0-.2,0-.21.08l0,0s0,0,0,.06,0,.1,0,.13.2,0,.3,0h.06s0,0,.09,0Z"/><path d="M16.54,5.3l-.1-.08a1.47,1.47,0,0,0-.21-.14h0s.08,0,.22.12l.1.07v0Zm.87,0-.07-.06c-.07,0-.19-.16-.47-.36a4,4,0,0,1,.49.34l.06.06v0Zm.19,0-.06,0a4.1,4.1,0,0,0-.48-.35,2,2,0,0,1,.5.33l.05,0v0Zm.12,0A1.62,1.62,0,0,0,17.41,5a.86.86,0,0,1,.33.23l0,0Zm-1,0a2.69,2.69,0,0,0-.43-.29,1.4,1.4,0,0,1,.44.27v0Zm.42,0L17,5.11l-.32-.24a1.55,1.55,0,0,1,.34.22l.08.06,0,0Zm-.23,0L16.71,5l-.19-.15a.75.75,0,0,1,.21.13l.17.13,0,0Z"/><path class="cls-8" d="M14.17,5.49s0,0-.05,0,0,0,0,0a0,0,0,0,1,.06,0s0,0,0,0Z"/><path d="M14.15,5.51l0,0s0-.06,0-.06a.06.06,0,0,1,.08,0s0,0,0,.06v0a0,0,0,0,0,0,0s0,0,0,0v0Z"/><path class="cls-5" d="M14,12.78a.7.7,0,0,0,.7,0V10.89h-.47A1.78,1.78,0,0,1,14,12.78Z"/><path d="M14.35,12.89h0a.57.57,0,0,1-.34-.1,1.89,1.89,0,0,0,.22-1.89l.48,0v1.9a.68.68,0,0,1-.37.11Zm.34-2-.45,0A1.78,1.78,0,0,1,14,12.79a.88.88,0,0,0,.33.07h0a.79.79,0,0,0,.35-.09V10.89Z"/><path class="cls-14" d="M14.35,10.89A5.51,5.51,0,0,1,14,12.78c.14,0,.23-.12.34-.3a6.6,6.6,0,0,0,.13-1.59Z"/><path d="M14,12.79h0a.8.8,0,0,1,.08-.29,4.22,4.22,0,0,0,.25-1.6h.15a5.59,5.59,0,0,1-.12,1.61c-.1.16-.19.3-.35.3Zm.46-1.89h-.12a3.86,3.86,0,0,1-.25,1.59.85.85,0,0,0-.07.26c.12,0,.2-.11.3-.28a6.36,6.36,0,0,0,.14-1.58Z"/><path class="cls-4" d="M14.07,10.89c0,.78-.35,1.49-.29,1.65s.29-.32.57-.06a5.34,5.34,0,0,0,.13-1.59Z"/><path d="M13.82,12.59a.07.07,0,0,1-.05,0,1,1,0,0,1,.08-.47,4.74,4.74,0,0,0,.2-1.19h.43a5,5,0,0,1-.12,1.61.32.32,0,0,0-.42,0,.26.26,0,0,1-.12.07Zm.65-1.69h-.4a4.48,4.48,0,0,1-.19,1.18,1,1,0,0,0-.08.45l0,0a.28.28,0,0,0,.1-.06.33.33,0,0,1,.44,0,6.5,6.5,0,0,0,.11-1.57Z"/><path class="cls-15" d="M14.1,10.89c0,.89-.32.95-.32,1.18A.9.9,0,0,0,14.1,12a3,3,0,0,0,.14-1.06Z"/><path d="M13.78,12.09v0a.44.44,0,0,1,.09-.23,1.55,1.55,0,0,0,.23-.95h.15A2.58,2.58,0,0,1,14.11,12l0,0a.59.59,0,0,1-.29.11Zm.45-1.19H14.1a1.48,1.48,0,0,1-.22.95.42.42,0,0,0-.08.2.88.88,0,0,0,.26-.1l0,0a3.26,3.26,0,0,0,.13-1Z"/><path class="cls-3" d="M13.82,10.89c0,.52-.34,1-.27,1.06s.27-.17.55,0a3,3,0,0,0,.14-1.06Z"/><path d="M13.59,12l-.06,0c0-.05,0-.15.08-.3a2.28,2.28,0,0,0,.2-.77h.43A2.58,2.58,0,0,1,14.11,12a.48.48,0,0,0-.41,0l-.11,0Zm.64-1.09h-.41a1.74,1.74,0,0,1-.19.76c-.05.13-.1.24-.07.28s.06,0,.13,0a.48.48,0,0,1,.42,0,3.52,3.52,0,0,0,.12-1Z"/><path class="cls-5" d="M15.4,12.78a.68.68,0,0,1-.69,0V10.89h.46a1.82,1.82,0,0,0,.23,1.89Z"/><path d="M15.07,12.89a.74.74,0,0,1-.37-.1v-1.9h.48a1.88,1.88,0,0,0,.24,1.89.51.51,0,0,1-.34.12Zm.08-2-.44,0v1.87a.72.72,0,0,0,.67,0,1.82,1.82,0,0,1-.24-1.88Z"/><path class="cls-14" d="M15.07,10.89a5.66,5.66,0,0,0,.33,1.89c-.14,0-.23-.12-.33-.29a6.31,6.31,0,0,1-.14-1.6Z"/><path d="M15.41,12.79h0c-.15,0-.25-.14-.35-.3a7,7,0,0,1-.14-1.61h.16a4.1,4.1,0,0,0,.27,1.61,1,1,0,0,1,.07.29Zm-.36-1.9-.12,0a7.51,7.51,0,0,0,.15,1.57c.1.17.19.28.3.28a.85.85,0,0,0-.07-.26,4,4,0,0,1-.26-1.61Z"/><path class="cls-4" d="M15.34,10.89c0,.78.36,1.49.29,1.65s-.29-.32-.56,0a6.31,6.31,0,0,1-.14-1.6Z"/><path d="M15.59,12.59a.2.2,0,0,1-.11-.07c-.11-.08-.26-.16-.4,0a5.94,5.94,0,0,1-.17-1.62h.43a5.74,5.74,0,0,0,.22,1.2,1,1,0,0,1,.08.47.07.07,0,0,1-.05,0Zm-.34-.2a.41.41,0,0,1,.24.11.28.28,0,0,0,.1.06l0,0a1.24,1.24,0,0,0-.08-.45,4.45,4.45,0,0,1-.21-1.2l-.4,0a7.51,7.51,0,0,0,.15,1.57.2.2,0,0,1,.17-.09Z"/><path class="cls-15" d="M15.31,10.89c0,.89.32.95.32,1.18a.9.9,0,0,1-.32-.12,3,3,0,0,1-.14-1.06Z"/><path d="M15.65,12.09h0a.76.76,0,0,1-.29-.1l0,0a2.7,2.7,0,0,1-.15-1.09h.15a1.67,1.67,0,0,0,.25,1,.44.44,0,0,1,.09.23v0Zm-.33-.15,0,0a.71.71,0,0,0,.26.1.45.45,0,0,0-.09-.2,1.63,1.63,0,0,1-.23-1l-.13,0a3.33,3.33,0,0,0,.15,1Z"/><path class="cls-3" d="M15.59,10.89c0,.52.34,1,.28,1.06s-.28-.17-.56,0a3,3,0,0,1-.14-1.06Z"/><path d="M15.82,12l-.1,0a.44.44,0,0,0-.4,0,2.56,2.56,0,0,1-.16-1.09h.43a2.26,2.26,0,0,0,.22.78c.06.15.1.25.07.3a.07.07,0,0,1-.06,0Zm-.31-.11a.65.65,0,0,1,.22,0c.06,0,.1,0,.13,0s0-.15-.08-.28a2.06,2.06,0,0,1-.21-.78l-.4,0a3.33,3.33,0,0,0,.15,1,.26.26,0,0,1,.19-.07Z"/><polygon class="cls-16" points="17.74 12.12 18.15 12.47 18.61 12.76 18.26 12.35 17.85 12 17.74 12.12"/><path d="M18.61,12.77l-.47-.29-.41-.35.11-.14.43.35.35.41v0ZM17.84,12l-.09.12.41.33.39.25-.3-.35L17.84,12Z"/><path class="cls-17" d="M17.22,11.49l.44.38.11.09s.13.06.06.14-.12,0-.15,0-.28-.27-.53-.49l.07-.07Z"/><path d="M17.78,12.14c-.05,0-.09-.06-.11-.09s-.28-.27-.53-.49l.07-.08.46.39.1.08s.09.05.1.09a.13.13,0,0,1,0,.07.06.06,0,0,1-.06,0Zm-.57-.64-.05.06c.25.21.52.47.53.48s.09.11.14.06a.07.07,0,0,0,0-.06s0,0-.07-.06l-.12-.1-.44-.38Z"/><polygon class="cls-16" points="18.14 11.48 18.55 11.83 19.02 12.12 18.66 11.71 18.25 11.36 18.14 11.48"/><path d="M19,12.13l-.47-.29-.41-.35.11-.14.43.35.35.41v0Zm-.77-.76-.09.12.41.33.4.25-.31-.35-.41-.35Z"/><path class="cls-17" d="M17.69,10.92l.34.27.11.09s.14.05.07.13-.12,0-.15,0a3.55,3.55,0,0,0-.36-.31v-.14Z"/><path d="M18.16,11.46s-.08-.05-.11-.08-.15-.14-.36-.31v-.15l.36.26.11.09s.08,0,.09.08a.07.07,0,0,1,0,.07s0,0-.06,0Zm-.48-.53,0,.13c.2.16.31.26.34.29s.11.12.15.06,0,0,0-.06a.13.13,0,0,0-.07,0L18,11.2l-.34-.27Z"/><polygon class="cls-16" points="11.79 12.08 11.38 12.43 10.91 12.72 11.27 12.31 11.68 11.96 11.79 12.08"/><path d="M10.92,12.73l0,0,.36-.41.41-.35.12.13-.41.36-.46.29Zm.75-.76-.4.35-.3.35.4-.25.41-.35-.11-.1Z"/><path class="cls-17" d="M12.26,11.49l-.44.38-.11.09s-.13.06-.06.14.12,0,.15,0,.28-.27.53-.49l-.07-.07Z"/><path d="M11.7,12.14h0a.06.06,0,0,1-.06,0,.13.13,0,0,1,0-.07s.06-.07.08-.08l.12-.09.44-.39.09.07-.53.5s-.06.09-.11.09Zm.13-.26-.11.09s-.08,0-.08.07a.07.07,0,0,0,0,.06l0,0h0s.07,0,.09-.08.28-.27.53-.49l-.07-.05-.42.38Z"/><polygon class="cls-16" points="11.39 11.42 10.98 11.77 10.51 12.06 10.87 11.65 11.28 11.3 11.39 11.42"/><path d="M10.52,12.07l0,0,.36-.41.41-.35.12.13-.41.36-.46.29Zm.75-.76-.4.35-.3.35.4-.25.41-.35-.11-.1Z"/><path class="cls-17" d="M11.79,10.92l-.34.27-.11.09s-.14.05-.07.13.12,0,.15,0a3.55,3.55,0,0,1,.36-.31v-.14Z"/><path d="M11.32,11.46s0,0-.06,0a.07.07,0,0,1,0-.07.11.11,0,0,1,.08-.07l.12-.1.34-.27v.15l-.35.31s-.08.09-.12.09Zm.13-.26-.11.09s-.08,0-.08.06,0,0,0,.06.11,0,.13-.05.15-.14.37-.31v-.13l-.33.28Z"/><polygon class="cls-10" points="16.07 7.3 17.56 6.04 17.51 6.02 16.07 7.24 16.07 7.3 16.07 7.3"/><polygon class="cls-16" points="17.55 6 17.33 6.19 17.4 6.27 17.63 6.08 17.55 6"/><path class="cls-18" d="M17.4,6.29l-.08-.09L17.55,6l.09.08-.24.22ZM17.55,6l-.22.2.07.06.22-.19L17.55,6Z"/><path class="cls-3" d="M16.56,7.84c0-.25,0-.76,0-1l.82-.65a7.16,7.16,0,0,1,0,1l-.82.7Z"/><g class="cls-19"><path class="cls-4" d="M16.54,7.86c0-.17,0-.65-.05-1L17,6.42c0,.16,0,1,0,1.11Z"/></g><path class="cls-20" d="M16.34,8a2.28,2.28,0,0,0-.28-.79l.48-.43c0,.28,0,.78,0,1L16.34,8Z"/><polygon class="cls-3" points="16.07 7.24 16.54 6.81 16.54 6.8 17.36 6.15 16.07 7.24"/><polygon points="16.07 7.25 16.05 7.23 16.53 6.8 17.36 6.14 16.55 6.81 16.07 7.25 16.07 7.25"/><path class="cls-21" d="M16.18,7.37A7.85,7.85,0,0,1,17,8.56c.27.53.58,1.33.58,1.33a6.24,6.24,0,0,0-.51-1.42,3.91,3.91,0,0,0-.89-1.1Z"/><path d="M17.58,9.89s-.32-.81-.58-1.33a8.34,8.34,0,0,0-.79-1.15l0,0h0l0,0h0l.06,0a3.42,3.42,0,0,1,.8,1,6.34,6.34,0,0,1,.52,1.43ZM16.21,7.41A6.56,6.56,0,0,1,17,8.56c.22.42.47,1,.55,1.25a6.34,6.34,0,0,0-.49-1.34,3.84,3.84,0,0,0-.81-1l-.05,0Z"/><path class="cls-21" d="M16.08,6.86A10.88,10.88,0,0,1,17,8.27c.27.61.57,1.51.57,1.51A7.34,7.34,0,0,0,17,8.18a5.51,5.51,0,0,0-1-1.32Z"/><path d="M17.52,9.78s-.31-.91-.58-1.5a9.22,9.22,0,0,0-.83-1.36s0,0,0-.06h0s0,0,0,0h0l.06,0A4.34,4.34,0,0,1,17,8.18a6.75,6.75,0,0,1,.5,1.6ZM16.11,6.92A7.76,7.76,0,0,1,17,8.27c.22.49.47,1.19.55,1.43A7.19,7.19,0,0,0,17,8.18,4.24,4.24,0,0,0,16.16,7l-.05,0Z"/><path class="cls-21" d="M16.66,6.06a16,16,0,0,1,.57,2c.14.76.22,1.81.22,1.81a7.36,7.36,0,0,0-.1-1.82,9.35,9.35,0,0,0-.69-2Z"/><path d="M17.46,9.87h0s-.08-1.06-.21-1.81a15.8,15.8,0,0,0-.55-1.92c0-.06,0-.07,0-.08h0a.16.16,0,0,1,0,.06h0l.06.08a8.51,8.51,0,0,1,.62,1.83,8,8,0,0,1,.1,1.82Zm-.78-3.73a12.66,12.66,0,0,1,.56,1.92c.11.62.19,1.45.21,1.72a7.4,7.4,0,0,0-.11-1.72,7.79,7.79,0,0,0-.62-1.83l0-.09Z"/><path class="cls-21" d="M16.21,6A13.22,13.22,0,0,1,17,7.83c.23.75.43,1.83.43,1.83a7.63,7.63,0,0,0-.31-1.89A6.9,6.9,0,0,0,16.21,6Z"/><path d="M17.44,9.66S17.23,8.57,17,7.84a13.06,13.06,0,0,0-.77-1.79s0,0,0-.06h0l0,.06h0l.07.07a6.41,6.41,0,0,1,.83,1.65,8.07,8.07,0,0,1,.31,1.89Zm-1.2-3.6A10.14,10.14,0,0,1,17,7.83c.18.61.36,1.46.41,1.74a7.28,7.28,0,0,0-.31-1.8,5.86,5.86,0,0,0-.83-1.64l-.05-.07Z"/><path class="cls-21" d="M17,6.31a18,18,0,0,1,.39,1.9c.08.71.11,1.67.11,1.67a7.72,7.72,0,0,0,0-1.65A9.68,9.68,0,0,0,17,6.31Z"/><path d="M17.48,9.89h0s0-1-.11-1.67-.3-1.55-.36-1.83c0,0,0-.07,0-.07h0s0,0,0,.07h0l0,.09a9.78,9.78,0,0,1,.43,1.76,7.49,7.49,0,0,1,0,1.66ZM17,6.38a13.46,13.46,0,0,1,.37,1.83c.07.58.1,1.34.11,1.59a8.32,8.32,0,0,0,0-1.57A9,9,0,0,0,17,6.47l0-.09Z"/><path class="cls-21" d="M16.15,6.39A10.91,10.91,0,0,1,17,8c.24.66.48,1.63.48,1.63a7.24,7.24,0,0,0-.37-1.7,6.12,6.12,0,0,0-.92-1.54Z"/><path d="M17.43,9.64S17.19,8.66,17,8a10.9,10.9,0,0,0-.78-1.55s0-.06,0-.07h0s0,0,0,.05h0l.06,0a5.37,5.37,0,0,1,.83,1.43,7.23,7.23,0,0,1,.38,1.7ZM16.18,6.45A9,9,0,0,1,17,8a15.86,15.86,0,0,1,.45,1.55,6.43,6.43,0,0,0-.36-1.62,5.25,5.25,0,0,0-.83-1.42l-.05-.06Z"/><path class="cls-21" d="M16.06,7a8.4,8.4,0,0,1,.87,1.33c.27.58.56,1.46.56,1.46A6.55,6.55,0,0,0,17,8.25a4.29,4.29,0,0,0-1-1.23Z"/><path d="M17.49,9.81s-.3-.89-.57-1.46a7.7,7.7,0,0,0-.83-1.28s0,0,0-.05h0s0,0,0,0h0l.06,0A4,4,0,0,1,17,8.25a6.81,6.81,0,0,1,.48,1.56Zm-1.4-2.74a6.7,6.7,0,0,1,.84,1.28c.22.47.46,1.15.54,1.38A6.18,6.18,0,0,0,17,8.25a3.86,3.86,0,0,0-.86-1.14l-.05,0Z"/><path class="cls-21" d="M16.14,6.66a10.32,10.32,0,0,1,.8,1.48c.24.63.5,1.56.5,1.56A7.65,7.65,0,0,0,17,8.06a5.2,5.2,0,0,0-.89-1.4Z"/><path d="M17.43,9.7s-.26-.94-.5-1.56a9.7,9.7,0,0,0-.76-1.43s0,0,0,0h0l0,0h0l.06,0A4.74,4.74,0,0,1,17,8.05a6.94,6.94,0,0,1,.41,1.65Zm-1.26-3a8.32,8.32,0,0,1,.77,1.43c.2.51.41,1.23.48,1.47A7.44,7.44,0,0,0,17,8.06a4.58,4.58,0,0,0-.8-1.29l0-.06Z"/><path class="cls-21" d="M16.8,6.09A15.67,15.67,0,0,1,17.25,8c.09.73.11,1.74.11,1.74a6.85,6.85,0,0,0,0-1.74,9.32,9.32,0,0,0-.57-1.95Z"/><path d="M17.37,9.78h0s0-1-.12-1.74a13.89,13.89,0,0,0-.43-1.88.23.23,0,0,1,0-.07h0l0,.06h0l.05.09A7.55,7.55,0,0,1,17.37,8a6.68,6.68,0,0,1,0,1.74Zm-.56-3.62A12.27,12.27,0,0,1,17.26,8c.07.61.1,1.41.11,1.67a6.9,6.9,0,0,0,0-1.66,7.87,7.87,0,0,0-.51-1.79l0-.09Z"/><path class="cls-21" d="M16.32,5.79A14.43,14.43,0,0,1,17,7.71c.18.77.33,1.86.33,1.86a7.78,7.78,0,0,0-.21-1.91,7.52,7.52,0,0,0-.83-1.87Z"/><path d="M17.36,9.57S17.2,8.47,17,7.71a13.57,13.57,0,0,0-.67-1.84s0-.07,0-.08h0s0,0,0,.06h0l.06.07a6.79,6.79,0,0,1,.75,1.71,7.81,7.81,0,0,1,.21,1.92Zm-1-3.7A11.6,11.6,0,0,1,17,7.71c.15.62.28,1.48.32,1.77a7.64,7.64,0,0,0-.22-1.82A6.89,6.89,0,0,0,16.4,6l0-.08Z"/><path class="cls-21" d="M17.11,6.42a17.07,17.07,0,0,1,.27,1.8c0,.67,0,1.58,0,1.58a6.72,6.72,0,0,0,.08-1.56,10.33,10.33,0,0,0-.36-1.82Z"/><path d="M17.39,9.8h0s0-.91,0-1.58a15.62,15.62,0,0,0-.25-1.73l0-.07h0l0,.06h0l0,.08a8.16,8.16,0,0,1,.33,1.67,7.19,7.19,0,0,1-.09,1.56Zm-.27-3.31a13.26,13.26,0,0,1,.26,1.73c0,.55,0,1.27,0,1.5a7.58,7.58,0,0,0,.07-1.48,8.32,8.32,0,0,0-.33-1.67l0-.08Z"/><path class="cls-21" d="M16.21,6.18A10.5,10.5,0,0,1,17,7.86c.2.69.39,1.69.39,1.69a6.73,6.73,0,0,0-.28-1.75,5.7,5.7,0,0,0-.86-1.62Z"/><path d="M17.34,9.55s-.19-1-.39-1.68a10.54,10.54,0,0,0-.71-1.63s0-.06,0-.07h0l0,.05h0l.06.06a5.41,5.41,0,0,1,.78,1.5,6.87,6.87,0,0,1,.27,1.75Zm-1.1-3.31A10.52,10.52,0,0,1,17,7.86c.16.57.32,1.35.37,1.61a7.13,7.13,0,0,0-.27-1.67,5.46,5.46,0,0,0-.78-1.49l-.05-.07Z"/><path class="cls-22" d="M17.36,6.22s0,.31,0,.36a4,4,0,0,1,0,.59,1.68,1.68,0,0,0-.07.24c.06.07.08.08.15,0a1.5,1.5,0,0,0,0-.29s0-.42,0-.58,0-.39,0-.39,0-.07,0,0Z"/><path d="M17.36,7.48h0a.12.12,0,0,1-.09-.06s0-.06,0-.2l0,0a3.27,3.27,0,0,0,0-.59s0-.36,0-.36,0-.07,0-.07h0v0a3.46,3.46,0,0,1,0,.39V6.8c0,.16,0,.33,0,.36a.54.54,0,0,0,0,.11c0,.17,0,.18,0,.19l-.07,0Zm0-1.26s0,.31,0,.36a3.18,3.18,0,0,1,0,.59l0,0s0,.16,0,.18.07.08.14,0,0-.11,0-.17V7.16s0-.2,0-.36V6.58c0-.06,0-.31,0-.38v0Z"/><path class="cls-20" d="M17.38,6.12a4.08,4.08,0,0,1,0,.57c0,.26,0,.32,0,.47s0,.19,0,.27,0,0,0,0a.1.1,0,0,0,.13,0s-.07-.23-.07-.27a5.91,5.91,0,0,0-.09-1s0,.23,0,0Z"/><path d="M17.48,7.47h-.05a.15.15,0,0,0,.12,0s0-.06,0-.1a.68.68,0,0,1,0-.15h0a.57.57,0,0,0,0,.12v.13l0,0,0-.15V7.17s0,0-.06,0v0h0V7.1l0,0h0a1,1,0,0,0,0-.17l0,0v0h0V6.83h0v0h0V6.59l0,0v0h0c0-.16,0-.37,0-.44v0h0v.07a5.43,5.43,0,0,1,.09,1,.85.85,0,0,0,0,.15c0,.12,0,.12,0,.13a.11.11,0,0,1-.08,0Zm-.06-.31h0s0-.08,0-.12h0v0h0s0,0,0,0v0Zm0-.47h0v.06h0c0-.06,0-.12,0-.18h0c0-.05,0-.09,0-.13a.57.57,0,0,1,0,.13h0v.1h0s0,0,0,0Z"/><path class="cls-22" d="M17.42,6.11A.29.29,0,0,1,17.31,6s0-.09,0-.1-.13.06,0,.12a.41.41,0,0,1,.13.09l-.07,0S17.1,6,17.16,5.9s.09-.06.11-.06.05,0,.06.06a.22.22,0,0,0,.06.13.27.27,0,0,1,0,.08Z"/><path d="M17.44,6.13h0l0,0s0,0-.09,0-.15-.09-.16-.16,0,0,0,0,.09-.07.11-.07.07,0,.08.07A.32.32,0,0,0,17.4,6a.16.16,0,0,1,0,.08v0Zm-.18-.25a.08.08,0,0,1,0,.07s0,0,0,0a.23.23,0,0,0,.08.09.08.08,0,0,0,0,0,.32.32,0,0,1-.06-.13c0-.06,0-.06,0-.06s-.05,0-.11.06a.14.14,0,0,0,0,.07v0a.09.09,0,0,1,.07-.06Zm0,0a.05.05,0,0,0-.05,0s0,0,0,.06l.1,0A.13.13,0,0,1,17.3,6s0,0,0,0,0,0,0,0Z"/><path class="cls-20" d="M17.44,6.12a.42.42,0,0,1-.16,0S17.22,6,17.19,6s-.08.12,0,.11.16,0,.16,0l-.07,0s-.26,0-.23-.09A.17.17,0,0,1,17.16,6s.05,0,.09,0a.33.33,0,0,0,.11.08.21.21,0,0,1,.08,0Z"/><path d="M17.29,6.17c-.07,0-.16,0-.19,0a0,0,0,0,1,0,0c0-.08,0-.1.07-.12h0s0,0,.06,0a.29.29,0,0,0,.11.08l.08.05a.25.25,0,0,1-.18,0l0,0s-.06-.06-.06,0,0,0,.06,0h.17s0,0-.07,0ZM17.2,6c-.05,0-.06,0-.09.12s.17.08.22.07h-.09l-.07,0a.05.05,0,0,1,0,0c0-.06.07-.07.11,0s0,0,0,0l.12,0a.09.09,0,0,0-.05,0A.24.24,0,0,1,17.24,6l0,0Z"/><polygon class="cls-10" points="16.35 8.1 18.19 6.54 18.14 6.52 16.33 8.04 16.35 8.1 16.35 8.1"/><path class="cls-16" d="M19,5.93l-.15.26a.29.29,0,0,1-.23.2c-.22,0-.17.14-.07.15s.21-.08.27,0a.19.19,0,0,1,0,.22.8.8,0,0,1-.21.15c-.08,0-.14.07-.2,0s0-.09,0-.21a.07.07,0,0,0-.06-.1s-.07,0-.12,0a.7.7,0,0,0-.17.13L18,6.67a.76.76,0,0,0,.14-.11c.08-.06.13-.11.07-.18s-.07,0-.1,0,0-.06.11-.12.1-.13.15-.07,0,.14,0,.15.05,0,.11-.08.13-.16.27-.21l.31-.1Z"/><path d="M18.46,7a.16.16,0,0,1-.09,0c-.05,0,0-.07,0-.13a.46.46,0,0,0,0-.09.09.09,0,0,0,0-.07l0,0h0s-.06,0-.11,0l0,0a.83.83,0,0,0-.15.11l0,0L18,6.68,18,6.62l.08-.07c.06,0,.09-.07.09-.11s0,0,0-.05h0a.07.07,0,0,1-.07,0l0,0s0,0,.06,0l.07,0,.05,0c0-.05.08-.08.12,0a.29.29,0,0,1,0,.13l0,0a.45.45,0,0,0,.06-.1A.39.39,0,0,1,18.7,6L18.91,6l.1,0L19,6l-.11.19a.33.33,0,0,1-.24.2c-.11,0-.15.06-.15.08s0,0,.08,0l.12,0c.06,0,.12,0,.16,0a.18.18,0,0,1,0,.22.78.78,0,0,1-.21.16.2.2,0,0,1-.13,0Zm-.12-.37.07,0a.09.09,0,0,1,0,.09l0,.09c0,.06,0,.08,0,.1s.1,0,.19,0a1,1,0,0,0,.2-.15c.06-.07.08-.15,0-.2s-.08,0-.13,0a.45.45,0,0,1-.11,0c-.08,0-.12,0-.12-.08s0-.07.17-.1a.31.31,0,0,0,.22-.19L19,6l0-.07-.09,0-.2.07c-.15,0-.2.07-.27.2s-.06.11-.08.11h0l0,0v0a.14.14,0,0,0,0-.11s-.06,0-.08,0l-.05,0-.08,0,0,0s0,0,.06,0h0a.1.1,0,0,1,0,.08.21.21,0,0,1-.1.12L18,6.64l-.06,0s.05,0,.07.06l0,0a.69.69,0,0,1,.13-.11l0,0s.07-.06.11-.06Z"/><path class="cls-3" d="M17.07,10a6.37,6.37,0,0,0,.13-1.28c0-.25,0-1.16,0-1.44L18,6.65s0,.92,0,2.09A10.09,10.09,0,0,1,18,10.23a1.71,1.71,0,0,1-.43,1.08,1.22,1.22,0,0,1-1.05.35A2.22,2.22,0,0,1,15.37,11a.74.74,0,0,0,.61.11A1.42,1.42,0,0,0,17.07,10Z"/><path class="cls-4" d="M14.86,10.67h0a2.38,2.38,0,0,0,.4.17l.49,0c.63.05.91-1.28.9-2,0-.47,0-.89,0-1.09l.53-.47c0,.28,0,1.19,0,1.44A6.3,6.3,0,0,1,17.07,10,1.42,1.42,0,0,1,16,11.1a.76.76,0,0,1-.61-.1l-.51-.33Z"/><path class="cls-5" d="M14.85,10.65a2.38,2.38,0,0,0,.4.17l.49,0c.63.05.91-1.28.9-2,0-.47,0-.89,0-1.1l-.3.27h0a3.57,3.57,0,0,1,0,.47,2,2,0,0,1-1.52,2.17Z"/><path class="cls-20" d="M16.66,11.66h-.14A2.19,2.19,0,0,1,15.37,11v0a2.17,2.17,0,0,0,1.13.65,1.31,1.31,0,0,0,.73-.13.82.82,0,0,0,.29-.23A1.73,1.73,0,0,0,18,10.2,7.74,7.74,0,0,0,18,9.09V8.73c0-1.15,0-2.07,0-2.08A16.5,16.5,0,0,1,18,8.73v.36A7.74,7.74,0,0,1,18,10.2a1.79,1.79,0,0,1-.43,1.09,1,1,0,0,1-.3.23,1.25,1.25,0,0,1-.59.14Z"/><path class="cls-23" d="M16.65,11.63h-.11A2.22,2.22,0,0,1,15.37,11l0,0a2.08,2.08,0,0,0,1.12.62,1.39,1.39,0,0,0,.73-.13.88.88,0,0,0,.28-.22A1.75,1.75,0,0,0,18,10.18,7.81,7.81,0,0,0,18,9.07V8.72c0-1.15,0-2.06,0-2.06A20.19,20.19,0,0,1,18,8.72v.35A7.75,7.75,0,0,1,18,10.18a1.76,1.76,0,0,1-.43,1.08,1.09,1.09,0,0,1-.29.23,1.31,1.31,0,0,1-.6.14Z"/><path class="cls-23" d="M16.63,11.6h-.09A2.22,2.22,0,0,1,15.38,11l0,0a2,2,0,0,0,1.11.59,1.49,1.49,0,0,0,.72-.14.79.79,0,0,0,.28-.23,1.75,1.75,0,0,0,.43-1.05A7.89,7.89,0,0,0,18,9V8.71c0-1.14,0-2.05,0-2.06A20.51,20.51,0,0,1,18,8.71V9A6.65,6.65,0,0,1,18,10.16a1.82,1.82,0,0,1-.43,1.07,1.09,1.09,0,0,1-.29.23,1.34,1.34,0,0,1-.61.14Z"/><path class="cls-23" d="M16.51,11.58A1.93,1.93,0,0,1,15.39,11h0a2,2,0,0,0,1.1.56h0a1.37,1.37,0,0,0,.67-.15.85.85,0,0,0,.27-.23,1.84,1.84,0,0,0,.43-1A8.1,8.1,0,0,0,18,9v-.3c0-1.12,0-2,0-2a18.5,18.5,0,0,1,0,2V9A7,7,0,0,1,18,10.14a1.84,1.84,0,0,1-.43,1.06,1,1,0,0,1-.28.23,1.43,1.43,0,0,1-.68.15Z"/><path class="cls-24" d="M16.52,11.56A2,2,0,0,1,15.4,11v0a1.91,1.91,0,0,0,1.1.53h.06a1.38,1.38,0,0,0,.65-.15.93.93,0,0,0,.27-.22,1.78,1.78,0,0,0,.42-1.05A6.65,6.65,0,0,0,18,9v-.3c0-1.11,0-2,0-2a18.38,18.38,0,0,1,0,2V9a8.11,8.11,0,0,1-.07,1.14,2,2,0,0,1-.43,1.05,1,1,0,0,1-.28.23,1.42,1.42,0,0,1-.66.15Z"/><path class="cls-25" d="M16.52,11.53A1.94,1.94,0,0,1,15.4,11h0a1.93,1.93,0,0,0,1.1.5h.07a1.56,1.56,0,0,0,.62-.16.85.85,0,0,0,.27-.23,1.8,1.8,0,0,0,.42-1A6.92,6.92,0,0,0,18,8.94V8.67c0-1.1,0-2,0-2a20,20,0,0,1,0,2v.27a8.26,8.26,0,0,1-.07,1.15,2,2,0,0,1-.43,1.05,1,1,0,0,1-.28.23,1.47,1.47,0,0,1-.63.16Z"/><path class="cls-25" d="M16.53,11.51A1.85,1.85,0,0,1,15.41,11l0,0a1.73,1.73,0,0,0,1.09.48h.08a1.52,1.52,0,0,0,.61-.16,1.14,1.14,0,0,0,.27-.23,1.88,1.88,0,0,0,.41-1A7.8,7.8,0,0,0,18,8.93V8.66c0-1.09,0-2,0-2a15.39,15.39,0,0,1,0,2v.27a8.11,8.11,0,0,1-.07,1.14,2,2,0,0,1-.43,1,1,1,0,0,1-.27.23,1.56,1.56,0,0,1-.62.16Z"/><path class="cls-26" d="M16.53,11.49A1.76,1.76,0,0,1,15.42,11h0a1.87,1.87,0,0,0,1.09.45l.09,0a1.34,1.34,0,0,0,.59-.16,1,1,0,0,0,.27-.23,1.84,1.84,0,0,0,.41-1A7,7,0,0,0,18,8.87V8.65c0-1.09,0-2,0-2a16.43,16.43,0,0,1,0,2v.22a7.25,7.25,0,0,1-.09,1.18,1.84,1.84,0,0,1-.42,1,1.18,1.18,0,0,1-.27.23,1.63,1.63,0,0,1-.6.17Z"/><path class="cls-27" d="M16.53,11.47A1.84,1.84,0,0,1,15.42,11l0,0a1.67,1.67,0,0,0,1.08.43l.09,0a1.5,1.5,0,0,0,.58-.17.84.84,0,0,0,.26-.23,1.91,1.91,0,0,0,.42-1A7.72,7.72,0,0,0,18,8.79V8.63c0-1.07,0-2,0-2a16.18,16.18,0,0,1,0,2V8.8A7.68,7.68,0,0,1,17.89,10a2,2,0,0,1-.42,1,1.05,1.05,0,0,1-.27.23,1.38,1.38,0,0,1-.58.17l-.09,0Z"/><path class="cls-28" d="M16.53,11.44a1.7,1.7,0,0,1-1.1-.4h0a1.66,1.66,0,0,0,1.08.39l.09,0a1.66,1.66,0,0,0,.57-.17,1.09,1.09,0,0,0,.25-.23,1.87,1.87,0,0,0,.42-1A7.29,7.29,0,0,0,18,8.81V8.62c0-1.06,0-1.93,0-1.94a14.82,14.82,0,0,1,0,1.94v.19a8.53,8.53,0,0,1-.1,1.19,2,2,0,0,1-.42,1,1.13,1.13,0,0,1-.26.23,1.46,1.46,0,0,1-.57.17l-.1,0Z"/><path class="cls-29" d="M16.51,11.42a1.7,1.7,0,0,1-1.07-.37v0a1.68,1.68,0,0,0,1.08.37l.11,0a1.53,1.53,0,0,0,.54-.18,1,1,0,0,0,.26-.23,1.92,1.92,0,0,0,.41-1A8.38,8.38,0,0,0,18,8.79V8.61c0-1,0-1.92,0-1.93a13.67,13.67,0,0,1,0,1.93v.18a7.34,7.34,0,0,1-.1,1.19,1.87,1.87,0,0,1-.42,1,1,1,0,0,1-.26.24,1.57,1.57,0,0,1-.55.18l-.1,0Z"/><path class="cls-30" d="M16.46,11.4a1.62,1.62,0,0,1-1-.35h0a1.68,1.68,0,0,0,1.07.34l.12,0a1.4,1.4,0,0,0,.52-.18,1.13,1.13,0,0,0,.26-.23,1.92,1.92,0,0,0,.4-1,7.07,7.07,0,0,0,.11-1.18V8.6c0-1,0-1.91,0-1.92A12.72,12.72,0,0,1,18,8.6v.17a7.24,7.24,0,0,1-.1,1.19,2,2,0,0,1-.42,1,.94.94,0,0,1-.25.24,1.53,1.53,0,0,1-.54.18l-.11,0Z"/><path class="cls-31" d="M16.43,11.38a1.55,1.55,0,0,1-1-.32v0a1.58,1.58,0,0,0,1.08.32s.06,0,.11,0a1.53,1.53,0,0,0,.52-.18,1.09,1.09,0,0,0,.25-.23,2.06,2.06,0,0,0,.4-1,7.53,7.53,0,0,0,.12-1.22V8.58c0-1,0-1.88,0-1.89a13.34,13.34,0,0,1,0,1.9v.12a7.53,7.53,0,0,1-.12,1.22,2,2,0,0,1-.41,1,.78.78,0,0,1-.25.23,1.23,1.23,0,0,1-.52.19l-.12,0Z"/><path class="cls-32" d="M16.39,11.36a1.58,1.58,0,0,1-.93-.29v0a1.6,1.6,0,0,0,1.07.28l.13,0a1.66,1.66,0,0,0,.49-.18,1.37,1.37,0,0,0,.25-.23,2,2,0,0,0,.4-1,8.45,8.45,0,0,0,.12-1.29v0c0-1,0-1.87,0-1.88a13.23,13.23,0,0,1,0,1.89v0a7.31,7.31,0,0,1-.13,1.29,1.93,1.93,0,0,1-.41,1,.92.92,0,0,1-.25.23,1.48,1.48,0,0,1-.5.2l-.12,0Z"/><path class="cls-33" d="M16.35,11.34a1.6,1.6,0,0,1-.89-.27l0,0a1.44,1.44,0,0,0,1.06.26l.12,0a1.48,1.48,0,0,0,.5-.2,1,1,0,0,0,.24-.22,2.17,2.17,0,0,0,.4-1,9.57,9.57,0,0,0,.13-1.26V8.56c.05-1,0-1.86,0-1.86a13.88,13.88,0,0,1,0,1.87v.06a8.39,8.39,0,0,1-.13,1.26,2.17,2.17,0,0,1-.4,1,1.09,1.09,0,0,1-.25.23,1.57,1.57,0,0,1-.5.2l-.12,0Z"/><path class="cls-34" d="M16.31,11.33a1.53,1.53,0,0,1-.84-.25l0,0a1.41,1.41,0,0,0,1,.23.33.33,0,0,1,.13,0,1.71,1.71,0,0,0,.48-.21,1,1,0,0,0,.24-.22,2.23,2.23,0,0,0,.4-1,8.91,8.91,0,0,0,.14-1.31c.05-1,0-1.84,0-1.85a13.69,13.69,0,0,1,0,1.85,9.2,9.2,0,0,1-.14,1.32,2.23,2.23,0,0,1-.4,1,1.34,1.34,0,0,1-.25.23,1.71,1.71,0,0,1-.48.21.33.33,0,0,0-.13,0l-.24,0Z"/><path class="cls-35" d="M16.27,11.31a1.42,1.42,0,0,1-.79-.23h0a1.45,1.45,0,0,0,1.06.19l.13,0a1.51,1.51,0,0,0,.46-.21,1,1,0,0,0,.24-.22,2.25,2.25,0,0,0,.4-.95,10.56,10.56,0,0,0,.14-1.3c.06-1,0-1.83,0-1.84a11.83,11.83,0,0,1,0,1.84,7.5,7.5,0,0,1-.14,1.3,2.13,2.13,0,0,1-.41,1,.84.84,0,0,1-.23.23,2,2,0,0,1-.47.21l-.14,0-.28,0Z"/><path class="cls-36" d="M16.24,11.3a1.37,1.37,0,0,1-.75-.21v0a1.41,1.41,0,0,0,1.05.17l.13-.05a1.8,1.8,0,0,0,.46-.21,1.21,1.21,0,0,0,.23-.22,2.19,2.19,0,0,0,.4-.94,7.72,7.72,0,0,0,.14-1.29c.06-1,0-1.82,0-1.83a10.43,10.43,0,0,1,0,1.83,8.93,8.93,0,0,1-.15,1.29,2.24,2.24,0,0,1-.4.95,1.32,1.32,0,0,1-.24.23,2,2,0,0,1-.46.21l-.13,0a1.27,1.27,0,0,1-.32,0Z"/><path class="cls-37" d="M16.21,11.28a1.31,1.31,0,0,1-.72-.19h0a1.42,1.42,0,0,0,1,.14l.14-.06a1.72,1.72,0,0,0,.44-.21,1.19,1.19,0,0,0,.23-.22,2.21,2.21,0,0,0,.4-.94,9.16,9.16,0,0,0,.15-1.27c.06-1,0-1.81,0-1.81a10.8,10.8,0,0,1,0,1.81,8.11,8.11,0,0,1-.15,1.28,2.26,2.26,0,0,1-.4.94,1.25,1.25,0,0,1-.23.23,1.93,1.93,0,0,1-.45.21l-.14.06a1.56,1.56,0,0,1-.35,0Z"/><path class="cls-38" d="M16.16,11.27a1.3,1.3,0,0,1-.66-.17v0a1.37,1.37,0,0,0,1,.12l.13-.06a1.39,1.39,0,0,0,.44-.22,1,1,0,0,0,.23-.22,2.27,2.27,0,0,0,.39-.93A6.49,6.49,0,0,0,17.9,8.5c.07-1,0-1.78,0-1.79a12.05,12.05,0,0,1,0,1.79,7.59,7.59,0,0,1-.17,1.28,2.15,2.15,0,0,1-.39.93,1.25,1.25,0,0,1-.23.23,1.53,1.53,0,0,1-.45.22l-.13.06a2,2,0,0,1-.4,0Z"/><path class="cls-39" d="M16.13,11.26a1.26,1.26,0,0,1-.62-.15v0a1.38,1.38,0,0,0,1,.09l.12-.06a1.88,1.88,0,0,0,.44-.23,1.52,1.52,0,0,0,.22-.22,2.37,2.37,0,0,0,.39-.92,8.09,8.09,0,0,0,.17-1.26c.07-1,0-1.77,0-1.78a11.23,11.23,0,0,1,0,1.78,7.93,7.93,0,0,1-.17,1.26,2.35,2.35,0,0,1-.39.93,1.25,1.25,0,0,1-.23.23,2.36,2.36,0,0,1-.44.23l-.13.06a1.71,1.71,0,0,1-.43.06Z"/><path class="cls-40" d="M16.1,11.25a1.16,1.16,0,0,1-.58-.14v0a1.34,1.34,0,0,0,1,.06l.13-.06a1.8,1.8,0,0,0,.42-.23,1.15,1.15,0,0,0,.22-.22,2.37,2.37,0,0,0,.39-.92,7.69,7.69,0,0,0,.17-1.24,14.8,14.8,0,0,0,0-1.76,9.18,9.18,0,0,1,0,1.76,8,8,0,0,1-.18,1.25,2.37,2.37,0,0,1-.39.92,1.61,1.61,0,0,1-.22.23,2.06,2.06,0,0,1-.43.23l-.13.06a1.4,1.4,0,0,1-.47.08Z"/><path class="cls-41" d="M16.07,11.24a1.19,1.19,0,0,1-.55-.12v0a1.38,1.38,0,0,0,1,0l.12-.06a1.93,1.93,0,0,0,.43-.24,1.49,1.49,0,0,0,.21-.22,2.32,2.32,0,0,0,.39-.91,7.94,7.94,0,0,0,.18-1.23c.07-.94,0-1.74,0-1.75a8.66,8.66,0,0,1,0,1.75,8.05,8.05,0,0,1-.18,1.24,2.32,2.32,0,0,1-.39.91,1.21,1.21,0,0,1-.22.23,2.13,2.13,0,0,1-.43.24l-.12.06a1.71,1.71,0,0,1-.5.09Z"/><path class="cls-42" d="M16,11.23a1.09,1.09,0,0,1-.51-.11v0a1.32,1.32,0,0,0,1,0l.11-.06a2.19,2.19,0,0,0,.42-.25,1.1,1.1,0,0,0,.21-.22,2.4,2.4,0,0,0,.39-.9,7.6,7.6,0,0,0,.18-1.23,15.71,15.71,0,0,0,.05-1.73,10.13,10.13,0,0,1,0,1.74,7.77,7.77,0,0,1-.18,1.23,2.48,2.48,0,0,1-.39.9,1.61,1.61,0,0,1-.22.23,2.87,2.87,0,0,1-.42.25l-.12.06a1.63,1.63,0,0,1-.53.1Z"/><path class="cls-43" d="M16,11.22a1.19,1.19,0,0,1-.47-.09v0a1.3,1.3,0,0,0,1,0l.09,0a2.7,2.7,0,0,0,.43-.27,1.2,1.2,0,0,0,.21-.23,2.57,2.57,0,0,0,.39-.88,8.2,8.2,0,0,0,.18-1.22,14.14,14.14,0,0,0,.06-1.71,9.88,9.88,0,0,1,0,1.72,8.28,8.28,0,0,1-.19,1.22,2.52,2.52,0,0,1-.39.89,1.6,1.6,0,0,1-.21.23,2.17,2.17,0,0,1-.44.26l-.09,0a1.54,1.54,0,0,1-.58.12Z"/><path class="cls-44" d="M16,11.21a.92.92,0,0,1-.43-.08h0a1.3,1.3,0,0,0,1-.06l.05,0a2.75,2.75,0,0,0,.47-.3,1.14,1.14,0,0,0,.2-.23,2.25,2.25,0,0,0,.38-.88,6.48,6.48,0,0,0,.2-1.2,13.94,13.94,0,0,0,.06-1.7,9.17,9.17,0,0,1,0,1.7,6.7,6.7,0,0,1-.19,1.21,2.54,2.54,0,0,1-.39.89.88.88,0,0,1-.21.22,2.66,2.66,0,0,1-.47.31l-.05,0a1.56,1.56,0,0,1-.61.13Z"/><path class="cls-45" d="M15.93,11.21a.92.92,0,0,1-.38-.07v0a1.29,1.29,0,0,0,1-.08,3.11,3.11,0,0,0,.51-.33,1.33,1.33,0,0,0,.2-.22,2.65,2.65,0,0,0,.38-.88,7.6,7.6,0,0,0,.21-1.19,15,15,0,0,0,.05-1.69,9.58,9.58,0,0,1,0,1.69,7.86,7.86,0,0,1-.2,1.2,2.88,2.88,0,0,1-.39.88,1.42,1.42,0,0,1-.2.22,2.63,2.63,0,0,1-.49.33,1.68,1.68,0,0,1-.68.16Z"/><path class="cls-46" d="M15.91,11.2a1.25,1.25,0,0,1-.36,0v0a1.23,1.23,0,0,0,1-.1,3.39,3.39,0,0,0,.49-.34,1.37,1.37,0,0,0,.2-.22,2.81,2.81,0,0,0,.38-.87,7.67,7.67,0,0,0,.21-1.18,13.49,13.49,0,0,0,.06-1.67,8.83,8.83,0,0,1,0,1.67,6.93,6.93,0,0,1-.21,1.19,2.69,2.69,0,0,1-.38.87,1.42,1.42,0,0,1-.2.22,2.9,2.9,0,0,1-.5.35,1.53,1.53,0,0,1-.68.16Z"/><path d="M16.68,11.68H16.5A2.13,2.13,0,0,1,15.36,11l-.5-.31.52.3h0a2.3,2.3,0,0,0,1.12.66,1.21,1.21,0,0,0,1-.34A1.79,1.79,0,0,0,18,10.22a6.58,6.58,0,0,0,0-1.11V8.74c0-1.16,0-2.08,0-2.09l-.8.66L16.35,8a2.22,2.22,0,0,1,0,.45,2,2,0,0,1-1.53,2.18v0h0a2,2,0,0,0,1.49-2.15,2.45,2.45,0,0,0,0-.46l.84-.73L18,6.63s.06,1,.06,2.11v.37a6.74,6.74,0,0,1,0,1.12,1.82,1.82,0,0,1-.44,1.09,1.13,1.13,0,0,1-.88.36Z"/><path d="M17,8.27a4.66,4.66,0,0,0,.75-1.06h0a4.07,4.07,0,0,1-.77,1Z"/><path d="M16.82,8.77c.22-.07.76-.9.84-1.06h0c-.07.13-.61,1-.86,1Z"/><path d="M17.19,9.74a1.71,1.71,0,0,0,.5-.58l.1-.15V9l-.09.14a1.43,1.43,0,0,1-.52.57Z"/><path d="M16.18,10.83A2.68,2.68,0,0,0,17.61,10l0,0a2.58,2.58,0,0,1-1.45.85Z"/><path d="M16.63,11.09A1.59,1.59,0,0,1,16.1,11a1.09,1.09,0,0,0,1.46-.52l.05-.09h0l-.05.09a1,1,0,0,1-.95.6Z"/><path d="M16.6,11.47a1.2,1.2,0,0,1-.45-.09,1.18,1.18,0,0,0,.85,0,1.8,1.8,0,0,0,.79-.83h0a1.76,1.76,0,0,1-.8.85,1.15,1.15,0,0,1-.41.08Z"/><path class="cls-22" d="M18,6.72s0,.31,0,.36a3.69,3.69,0,0,1,0,.58s-.09.23-.07.24.08.09.15,0,0-.23,0-.28,0-.42,0-.59,0-.38,0-.38,0-.07,0,0Z"/><path d="M18,8h0s-.06,0-.1-.07,0,0,.06-.21v0a3.69,3.69,0,0,0,0-.58s0-.36,0-.36,0-.07,0-.07h0v0s0,.32,0,.38V7.3c0,.16,0,.33,0,.36s0,.06,0,.11,0,.17,0,.18L18,8Zm0-1.26s0,.31,0,.36a4,4,0,0,1,0,.59v0a.71.71,0,0,0-.06.2S18,8,18,8h0l.05,0a1.26,1.26,0,0,0,0-.16s0-.09,0-.11,0-.2,0-.36V7.07c0-.05,0-.31,0-.37v0Z"/><path class="cls-20" d="M18,6.62a5.5,5.5,0,0,1,.05.57c0,.25,0,.32,0,.47s0,.19,0,.27,0,0,0,0,.09,0,.13,0-.08-.23-.08-.27a6.62,6.62,0,0,0-.08-1s0,.22,0,0Z"/><path d="M18.1,8A.07.07,0,0,1,18,8c0-.06,0-.12,0-.18a.46.46,0,0,1,0-.1s0,0-.06,0v0H18a.07.07,0,0,1,0-.05l-.06,0H18V7.41l0,0v0h0V7.32l0,0v0h0a.62.62,0,0,1,0-.13v-.1l0,0v0h0a3.68,3.68,0,0,0,0-.46h0s0,.06,0,.07a5.71,5.71,0,0,1,.08,1,.82.82,0,0,0,0,.14c0,.12.05.13,0,.14a.11.11,0,0,1-.08,0ZM18,7.68s0,.05,0,.09,0,.12,0,.16.07,0,.11,0l0-.11,0-.14Zm0,0h.05V7.54h0v0h0s0,0,0,0v0Zm0-.48v.08h0V7.16h0V7.07h0s0-.08,0-.12,0,.08,0,.12h0v.1h0Z"/><path class="cls-22" d="M18.05,6.61a.63.63,0,0,1-.12-.11s0-.09,0-.1-.12.06,0,.12a.41.41,0,0,1,.13.09l-.08,0s-.21-.13-.14-.19.08-.06.11-.06.05,0,.06.06a.34.34,0,0,0,.05.13.54.54,0,0,1,0,.08Z"/><path d="M18.07,6.65l0,0s0,0,0,0,0,0-.09,0a.36.36,0,0,1-.17-.16.06.06,0,0,1,0-.05c.06,0,.08-.06.11-.06s.07,0,.08.07a.22.22,0,0,0,.05.12.31.31,0,0,1,0,.09v0Zm-.19-.27s0,0,.05.07,0,0,0,0a.26.26,0,0,0,.09.09l0,0A.34.34,0,0,1,18,6.4c0-.05,0-.05-.05-.05s0,0-.11.06a.21.21,0,0,0,0,.07s0,0,0,0a.07.07,0,0,1,.06-.06Zm0,0a0,0,0,0,0,0,0s0,0,0,.06l.09,0,0-.06v0s0,0,0,0Z"/><path class="cls-20" d="M18.06,6.62a.42.42,0,0,1-.15,0s-.07-.06-.1-.06-.07.11.06.11H18l-.08,0s-.25,0-.22-.09,0-.1.06-.11,0,0,.08,0l.12.08a.25.25,0,0,1,.07,0Z"/><path d="M17.91,6.67c-.06,0-.15,0-.18,0s0,0,0,0a.21.21,0,0,1,.06-.12h0a.07.07,0,0,1,.06,0,.39.39,0,0,0,.11.08.21.21,0,0,1,.08.05.23.23,0,0,1-.17,0l0,0s-.07-.06-.07,0,0,0,.07,0H18s0,0-.07,0Zm-.09-.21c-.05,0-.06,0-.08.12s.17.08.21.07h-.08a.15.15,0,0,1-.08,0,.08.08,0,0,1,0,0c0-.06.06-.07.1,0l0,0a.35.35,0,0,0,.13,0l-.05,0a.27.27,0,0,1-.13-.09l0,0Z"/><polygon class="cls-10" points="13.38 7.3 11.89 6.04 11.95 6.02 13.39 7.24 13.38 7.3 13.38 7.3"/><polygon class="cls-16" points="11.88 5.97 12.11 6.16 12.03 6.24 11.8 6.05 11.88 5.97"/><path class="cls-18" d="M12,6.26l-.23-.2.07-.1.25.19L12,6.26ZM11.87,6l-.06.09.22.17.07-.08L11.87,6Z"/><path class="cls-3" d="M12.9,7.84c0-.25,0-.76,0-1l-.82-.65a9.56,9.56,0,0,0,0,1l.83.7Z"/><g class="cls-47"><path class="cls-4" d="M12.92,7.84c0-.17,0-.65.05-1l-.53-.44c0,.16,0,1,0,1.12Z"/></g><path class="cls-5" d="M13.12,8a2.23,2.23,0,0,1,.27-.79l-.48-.43c0,.28,0,.78,0,1l.22.19Z"/><polygon points="13.38 7.25 12.9 6.82 12.09 6.16 12.92 6.79 13.4 7.23 13.38 7.25 13.38 7.25"/><path class="cls-22" d="M12.09,6.22s0,.31,0,.36a2.79,2.79,0,0,0,0,.59s.08.22.06.24-.08.08-.15,0,0-.24,0-.29,0-.42,0-.58,0-.39,0-.39,0-.07,0,0Z"/><path d="M12.09,7.48l-.07,0s0,0,0-.26v0s0-.12,0-.24,0-.26,0-.34,0-.38,0-.39v0s0,0,0,.07,0,.31,0,.36a2.86,2.86,0,0,0,.05.58.18.18,0,0,0,0,.06c0,.14.06.18,0,.2s-.06.06-.1.06Zm0-1.31s0,.34,0,.41,0,.22,0,.34v.29a1.06,1.06,0,0,0,0,.23c.06,0,.07,0,.13,0a.55.55,0,0,0-.05-.18.12.12,0,0,0,0,0,4.82,4.82,0,0,1,0-.59s0-.36,0-.36a.13.13,0,0,1,0,0Z"/><path class="cls-48" d="M13.14,6.71a1.41,1.41,0,0,1-.27.18,1.58,1.58,0,0,1,.23-.22,1.77,1.77,0,0,1,.29-.19,3.09,3.09,0,0,1-.25.23Z"/><path d="M12.88,6.9v0h0a1.26,1.26,0,0,1,.2-.2,1.77,1.77,0,0,1,.29-.19l0,.07a1.8,1.8,0,0,1-.2.18,1.78,1.78,0,0,1-.27.18Zm.5-.43c-.07.07-.17.13-.27.21a.88.88,0,0,0-.17.16l.2-.13.19-.19.05,0Z"/><path class="cls-49" d="M13.43,6.4a0,0,0,0,1,0,0s0,0-.05,0a0,0,0,0,1,0,0,0,0,0,0,1,.06,0Z"/><path d="M13.38,6.55h0l-.08-.07V6.42a.15.15,0,0,1,.06-.09l0,0h.06a.13.13,0,0,1,.1,0,.14.14,0,0,1,0,.19h-.09Z"/><path class="cls-48" d="M13,7.23a1.33,1.33,0,0,1-.23.35,1.18,1.18,0,0,1,.09-.37,1.57,1.57,0,0,1,.25-.38,3.63,3.63,0,0,1-.11.4Z"/><path d="M12.71,7.62v0h0v0a1.21,1.21,0,0,1,.09-.35,1.92,1.92,0,0,1,.25-.38.21.21,0,0,1,0,.11,2.54,2.54,0,0,1-.09.31,1.32,1.32,0,0,1-.23.35l0,0Zm.35-.8c-.05.11-.16.24-.23.39a1.32,1.32,0,0,0-.08.33,1.1,1.1,0,0,0,.19-.31A1.49,1.49,0,0,0,13,6.92l0-.1Z"/><path class="cls-49" d="M13.14,6.76a0,0,0,0,1,0,.06,0,0,0,0,1-.06,0s0,0,0-.06Z"/><path d="M13.09,6.92h0l-.05,0a.12.12,0,0,1,0-.17l0,0h.06a.12.12,0,0,1,.06.22l0,0Z"/><path d="M12.77,8.14h0A2.4,2.4,0,0,1,13,6.56a2.53,2.53,0,0,0-.24,1.54v0Z"/><path class="cls-49" d="M12.83,6.82s0,0,0,0h-.05s0,0,0,0,0,0,.05,0Z"/><path d="M12.78,7h0l-.05,0a.15.15,0,0,1,0-.2.17.17,0,0,1,.1,0h0l.05,0a.16.16,0,0,1,0,.2.19.19,0,0,1-.1,0Z"/><path class="cls-48" d="M12.54,6.83a1.13,1.13,0,0,1,.31.16,1.14,1.14,0,0,1-.37,0,1.29,1.29,0,0,1-.33-.18,3.77,3.77,0,0,1,.39.06Z"/><path d="M12.89,7h-.08a.93.93,0,0,1-.33,0,1.08,1.08,0,0,1-.34-.18h.11a1.77,1.77,0,0,1,.29.05.88.88,0,0,1,.31.16l0,0Zm-.74-.23a2.27,2.27,0,0,0,.34.15,1.13,1.13,0,0,0,.32.05.91.91,0,0,0-.28-.14l-.29,0Z"/><path class="cls-48" d="M12.64,6.73a.73.73,0,0,1,.2.27,1,1,0,0,1-.28-.17,1,1,0,0,1-.21-.3,1.52,1.52,0,0,1,.29.2Z"/><path d="M12.87,7,12.8,7a.73.73,0,0,1-.25-.15.91.91,0,0,1-.21-.3l.09,0a.72.72,0,0,1,.22.15.75.75,0,0,1,.2.27l0,0Zm-.53-.49c.07.07.13.19.23.28a.75.75,0,0,0,.24.15h0a.64.64,0,0,0-.17-.23,1,1,0,0,0-.23-.15l-.07,0Z"/><path class="cls-50" d="M13.49,6.64a1.28,1.28,0,0,1-.37.21,2.13,2.13,0,0,1,.29-.31,1.78,1.78,0,0,1,.4-.22c-.08.08-.19.21-.32.32Z"/><path d="M13.08,6.88l.06-.07a1.69,1.69,0,0,1,.26-.28,1.66,1.66,0,0,1,.41-.22l-.06.09-.25.25a1.23,1.23,0,0,1-.38.21l0,0Zm.72-.57c-.1.07-.25.14-.38.24a1.64,1.64,0,0,0-.26.27,1.26,1.26,0,0,0,.32-.19,2.94,2.94,0,0,0,.25-.24l.07-.08Z"/><path class="cls-48" d="M12.46,7.36a.66.66,0,0,1,.26.23,1,1,0,0,1-.35-.11,1.12,1.12,0,0,1-.27-.26,1.88,1.88,0,0,1,.36.14Z"/><path d="M12.75,7.61h-.07a1,1,0,0,1-.31-.11.89.89,0,0,1-.28-.26.16.16,0,0,1,.1,0,1.19,1.19,0,0,1,.28.1.78.78,0,0,1,.26.25l0,0Zm-.66-.38a2.64,2.64,0,0,0,.29.24,1.06,1.06,0,0,0,.3.1h0a.66.66,0,0,0-.23-.2,2,2,0,0,0-.28-.11l-.09,0Z"/><path class="cls-48" d="M13.12,7.34a1.35,1.35,0,0,1-.36.23A1.39,1.39,0,0,1,13,7.25,1.55,1.55,0,0,1,13.41,7c-.07.08-.17.22-.29.34Z"/><path d="M12.72,7.6l0-.07A1.74,1.74,0,0,1,13,7.24,1.88,1.88,0,0,1,13.41,7a.2.2,0,0,1-.06.11,1.74,1.74,0,0,1-.23.25,1,1,0,0,1-.36.24l0,0ZM13.4,7a3,3,0,0,0-.36.27,1.55,1.55,0,0,0-.24.28,1.89,1.89,0,0,0,.31-.21,1.69,1.69,0,0,0,.22-.26L13.4,7Z"/><path class="cls-48" d="M13.16,6.21a1.28,1.28,0,0,1-.13.35,1.26,1.26,0,0,1,0-.39,1.43,1.43,0,0,1,.14-.37,3.77,3.77,0,0,1-.05.41Z"/><path d="M13,6.56h0v0a1.31,1.31,0,0,1,.18-.72V5.9a1.22,1.22,0,0,1,0,.32,1.15,1.15,0,0,1-.13.34Zm.16-.76c0,.11-.09.23-.12.37a2,2,0,0,0,0,.33,1,1,0,0,0,.11-.29c0-.11,0-.22,0-.31V5.8Z"/><path class="cls-48" d="M13.05,6.23a1.37,1.37,0,0,1,0,.36A1.91,1.91,0,0,1,13,6.26a1.58,1.58,0,0,1,0-.39c0,.09,0,.22.05.36Z"/><path d="M13,6.59h0v0h0a1.45,1.45,0,0,1,0-.3,2.42,2.42,0,0,1,0-.39L13,6a2,2,0,0,1,.05.28,1.24,1.24,0,0,1,0,.36Zm0-.72c0,.12,0,.25,0,.38a1.16,1.16,0,0,0,0,.28,1.4,1.4,0,0,0,0-.3A2.09,2.09,0,0,0,13,6l0-.08Z"/><path class="cls-48" d="M13.19,6.4a.41.41,0,0,1-.18.17.92.92,0,0,1,.14-.28.53.53,0,0,1,.19-.18,2,2,0,0,1-.15.29Z"/><path d="M13,6.59v0h0a1.57,1.57,0,0,1,.12-.26.61.61,0,0,1,.2-.18v.09l-.11.22a.55.55,0,0,1-.19.17Zm.34-.49a1.81,1.81,0,0,0-.17.19,1.15,1.15,0,0,0-.12.25.52.52,0,0,0,.14-.15.94.94,0,0,0,.12-.22l0-.07Z"/><path d="M12.73,7.59v0h0A3.25,3.25,0,0,1,13.78,6.1a3.57,3.57,0,0,0-1,1.45l0,0Z"/><path class="cls-48" d="M13.85,6a.63.63,0,0,1-.14.17A1.89,1.89,0,0,1,13.8,6,1,1,0,0,1,14,5.8s-.06.14-.11.22Z"/><path d="M13.71,6.2h0v0L13.79,6A.83.83,0,0,1,14,5.79v.07a1.19,1.19,0,0,1-.08.16.57.57,0,0,1-.15.18Zm.23-.39a1.58,1.58,0,0,1-.13.18l-.07.15.1-.13a1.19,1.19,0,0,0,.08-.16l0,0Z"/><path class="cls-48" d="M13.78,6a.93.93,0,0,1-.08.2,1.25,1.25,0,0,1,0-.19,1,1,0,0,1,.09-.21.88.88,0,0,1,0,.2Z"/><path d="M13.71,6.22h0a1,1,0,0,1,0-.17,1.45,1.45,0,0,1,.09-.22l0,.06,0,.16a1.29,1.29,0,0,1-.09.2Zm.1-.4a1.59,1.59,0,0,1-.07.2.69.69,0,0,0,0,.13.58.58,0,0,0,0-.14.44.44,0,0,0,0-.15v0Z"/><path class="cls-48" d="M13.83,6.13a.31.31,0,0,1-.14.07.62.62,0,0,1,.14-.14A.41.41,0,0,1,14,6a.92.92,0,0,1-.14.15Z"/><path d="M13.66,6.22l0,0h0v0h0a.68.68,0,0,1,.12-.12A.32.32,0,0,1,14,6L14,6l-.11.11a.46.46,0,0,1-.14.07ZM14,6l-.12.08a.94.94,0,0,0-.1.1.2.2,0,0,0,.09,0L13.93,6l0,0Z"/><path class="cls-49" d="M13.66,6.21a.07.07,0,0,1,0,.06s-.05,0-.06,0,0,0,0,0Z"/><path d="M13.62,6.37h0l-.05,0a.13.13,0,0,1,0-.18l0,0h.06a.12.12,0,0,1,.1,0l0,0v.06a.12.12,0,0,1-.05.09l0,0Z"/><path class="cls-49" d="M12.9,6.78s0,0,0,0,0,0-.05,0,0,0,0,0a0,0,0,0,1,.05,0Z"/><path d="M12.85,6.94h0l-.08-.08V6.8a.12.12,0,0,1,.06-.1.17.17,0,0,1,.1,0h0l.05,0a.16.16,0,0,1,0,.2.19.19,0,0,1-.1,0Z"/><path class="cls-49" d="M12.87,6.85s0,0,0,.05h0s0,0,0,0,0,0,0,0Z"/><path d="M12.82,7h-.06l-.07-.08v0a.19.19,0,0,1,.07-.11l.09,0h.06l0,0a.13.13,0,0,1,0,.19l-.09,0Z"/><path class="cls-49" d="M13.18,6.7a0,0,0,0,1,0,.06s-.05,0-.06,0,0,0,0-.06.05,0,.06,0Z"/><path d="M13.14,6.85h0l-.06,0a.14.14,0,0,1,0-.18h.09a.11.11,0,0,1,.09,0,.13.13,0,0,1,0,.18h-.08Z"/><path class="cls-49" d="M13.2,6.73a0,0,0,0,1,0,.06s0,0-.06,0a0,0,0,0,1,0-.06s0,0,.06,0Z"/><path d="M13.16,6.88h-.05l0,0a.13.13,0,0,1,0-.17l0,0h.06a.15.15,0,0,1,.1,0,.14.14,0,0,1,0,.18l0,0Z"/><path class="cls-49" d="M12.75,7.47a0,0,0,0,1,0,0s-.05,0-.06,0,0,0,0,0,0,0,.05,0Z"/><path d="M12.71,7.62h-.05l-.07-.08V7.45l.08-.07h.1l.05,0a.13.13,0,0,1,0,.18l0,0Z"/><path class="cls-20" d="M12.08,6.12a5.5,5.5,0,0,0-.05.57c0,.26,0,.32,0,.47s0,.19,0,.27,0,0,0,0a.11.11,0,0,1-.13,0S12,7.2,12,7.16a6.81,6.81,0,0,1,.08-1s0,.23,0,0Z"/><path d="M12,7.47a.15.15,0,0,1-.07,0s0,0,0-.13A1.26,1.26,0,0,0,12,7.16a7.27,7.27,0,0,1,.08-1h0v0a.11.11,0,0,1,0,0h0a4,4,0,0,0,0,.48l0,0v0h0v.1h0v.13l0,0v0h0V7h0v0h0s0,0,0,0v.06h0l0,0v0l-.06,0a2.5,2.5,0,0,1,0,.25s0,0-.07,0Zm0-.29a.84.84,0,0,0,0,.14.51.51,0,0,0,0,.11.11.11,0,0,0,.11,0c0-.08,0-.22,0-.26Zm.06-.94c0,.08,0,.2,0,.35h0c0-.12,0-.25,0-.35Z"/><path class="cls-22" d="M12,6.11A.41.41,0,0,0,12.15,6s0-.09,0-.1.13.06,0,.12a.41.41,0,0,0-.14.09l.08,0s.21-.13.14-.19-.08-.06-.11-.06,0,0-.06.06a.23.23,0,0,1,0,.13l0,.08Z"/><path d="M12,6.13v0a.2.2,0,0,1,0-.08.39.39,0,0,0,0-.13c0-.06,0-.07.06-.07s.07,0,.13.07a.05.05,0,0,1,0,0,.36.36,0,0,1-.17.16l-.08,0a0,0,0,0,1,0,0l0,0Zm.17-.24a.08.08,0,0,1,.08.05.09.09,0,0,1-.06.09l-.1.06h0s.14-.09.15-.14-.09-.09-.11-.09,0,0-.06.06a.39.39,0,0,1-.05.13l0,0A.36.36,0,0,0,12.14,6s0,0,0,0,0,0,0-.06Zm0,0s0,0,0,0V6l-.05.07L12.2,6A.06.06,0,0,0,12.25,6a.06.06,0,0,0-.05,0Z"/><path class="cls-20" d="M12,6.12a.47.47,0,0,0,.16,0s.06-.06.09-.06.07.12-.06.11-.15,0-.15,0l.07,0s.25,0,.22-.09,0-.09-.06-.11,0,0-.08,0l-.12.08a.25.25,0,0,0-.07,0Z"/><path d="M12.17,6.17h-.05l-.07,0s0,0,0,0h0a.38.38,0,0,0,.14,0l0,0s.1,0,.1,0,0,.07-.09.07h-.09s.18,0,.21,0,0-.13-.05-.14a.06.06,0,0,0-.07,0,.27.27,0,0,1-.13.09l-.06,0s0,0,.06-.06A.39.39,0,0,0,12.2,6a.07.07,0,0,1,.06,0l0,0h0s0,0,.07.12a.07.07,0,0,1,0,0s-.12,0-.19,0Zm0,0h.06c.07,0,.08,0,.08,0s0,0-.07,0l0,0-.07,0Z"/><polygon class="cls-10" points="13.11 8.1 11.27 6.54 11.32 6.52 13.12 8.04 13.11 8.1 13.11 8.1"/><path class="cls-16" d="M10.45,5.94a2.83,2.83,0,0,1,.14.26.32.32,0,0,0,.24.2c.22,0,.17.14.07.15s-.21-.08-.27,0,0,.15,0,.22a.75.75,0,0,0,.2.15c.08,0,.14.07.21,0s0-.09,0-.21a.08.08,0,0,1,.07-.1s.06,0,.11,0a1,1,0,0,1,.18.13l.1-.12-.14-.11c-.07-.06-.12-.11-.07-.18s.08,0,.11,0-.05-.06-.11-.12-.11-.13-.15-.07,0,.14,0,.15,0,0-.11-.08A.34.34,0,0,0,10.75,6l-.3-.1Z"/><path d="M11,7a.2.2,0,0,1-.13,0,.65.65,0,0,1-.21-.16c-.07-.07-.09-.17,0-.22s.09,0,.15,0l.11,0c.06,0,.09,0,.09,0s0-.06-.15-.08a.35.35,0,0,1-.24-.2,1.11,1.11,0,0,0-.11-.2l0-.06h.11l.21.07a.36.36,0,0,1,.27.21c0,.08.06.1.07.1l0,0v0a.15.15,0,0,1,0-.13s.07,0,.12,0l0,0,.08,0s.05,0,.05,0h0v0a.07.07,0,0,1-.07,0h-.05s0,.09.08.15l.08.07.06,0-.07.1,0,0-.16-.11,0,0a.25.25,0,0,0-.11,0,.05.05,0,0,0,0,0,.1.1,0,0,0,0,.07.39.39,0,0,0,0,.09c0,.06,0,.1,0,.13A.13.13,0,0,1,11,7Zm-.31-.44s0,0,0,0,0,.13,0,.2a1,1,0,0,0,.2.15c.08.06.13.06.19,0s0,0,0-.1l0-.09a.1.1,0,0,1,0-.09.1.1,0,0,1,0,0h0a.19.19,0,0,1,.12.06l0,0a.83.83,0,0,1,.15.11v0l.07-.07-.05,0-.09-.07c-.07-.06-.13-.12-.07-.19h.06a.05.05,0,0,0,.05,0s0,0,0-.05l-.08,0s0,0,0,0,0,0-.06,0a.15.15,0,0,0,0,.12h0v0s-.05.07-.13-.08-.12-.15-.26-.2L10.55,6l-.11,0,.06,0a1.78,1.78,0,0,1,.1.2.34.34,0,0,0,.23.19c.15,0,.17.07.17.1a.1.1,0,0,1-.1.07.24.24,0,0,1-.13,0Z"/><path class="cls-3" d="M12.39,10a6.37,6.37,0,0,1-.13-1.28c0-.25,0-1.16,0-1.44l-.82-.65s0,.92,0,2.09a11.8,11.8,0,0,0,0,1.49,1.83,1.83,0,0,0,.43,1.08,1.24,1.24,0,0,0,1.06.35A2.27,2.27,0,0,0,14.09,11a.74.74,0,0,1-.61.11A1.42,1.42,0,0,1,12.39,10Z"/><path class="cls-4" d="M14.59,10.67h0a2.72,2.72,0,0,1-.41.17l-.49,0c-.63.05-.91-1.28-.9-2a10.2,10.2,0,0,0,0-1.09l-.53-.47c0,.28,0,1.19,0,1.44A6.3,6.3,0,0,0,12.39,10a1.42,1.42,0,0,0,1.09,1.07.76.76,0,0,0,.61-.1l.5-.33Z"/><path class="cls-22" d="M13.67,11.14h0a.69.69,0,0,1-.2,0A1.48,1.48,0,0,1,12.38,10a5.66,5.66,0,0,1-.13-1.28c0-.13,0-.47,0-.79s0-.52,0-.65l.55.46a9.13,9.13,0,0,1,0,.92v.18a3,3,0,0,0,.51,1.82.49.49,0,0,0,.34.16l.52,0a2.69,2.69,0,0,0,.37-.15h0l-.47.33a.64.64,0,0,1-.42.14ZM12.28,7.32a5.93,5.93,0,0,1,0,.64c0,.32,0,.66,0,.79A7.1,7.1,0,0,0,12.4,10a1.38,1.38,0,0,0,1,1.05.61.61,0,0,0,.22,0h0a.73.73,0,0,0,.41-.12l.42-.28a1.49,1.49,0,0,1-.29.13l-.5,0h0a.52.52,0,0,1-.39-.17,3.06,3.06,0,0,1-.52-1.83V8.69a8.9,8.9,0,0,0,0-.91l-.53-.46Z"/><path class="cls-5" d="M14.61,10.65a2.72,2.72,0,0,1-.41.17l-.49,0c-.63.05-.91-1.28-.9-2a10.39,10.39,0,0,0,0-1.1l.3.27h0a2.42,2.42,0,0,0,0,.47,2,2,0,0,0,1.51,2.17Z"/><path class="cls-20" d="M12.77,11.68a1.13,1.13,0,0,1-.87-.36,1.85,1.85,0,0,1-.44-1.09,6.62,6.62,0,0,1,0-1.11V8.74c0-1.16,0-2.08,0-2.09s0,.93,0,2.09v.38a7.68,7.68,0,0,0,0,1.1,1.92,1.92,0,0,0,.43,1.09,1.22,1.22,0,0,0,1,.34A2.26,2.26,0,0,0,14.08,11l0,0a2.4,2.4,0,0,1-1.14.68Zm.91-.82a.5.5,0,0,1-.34-.15,3,3,0,0,1-.54-1.85v-.2a8.73,8.73,0,0,0,0-.9l.32.27a2.32,2.32,0,0,0,0,.46,2,2,0,0,0,1.5,2.15h0v0a2.38,2.38,0,0,1-.4.17l-.5,0Zm-.87-3.09a4.66,4.66,0,0,1,0,.89v.2a3,3,0,0,0,.53,1.84.49.49,0,0,0,.35.14l.49,0a2.81,2.81,0,0,0,.36-.15,2.06,2.06,0,0,1-1.49-2.17,2.49,2.49,0,0,1,0-.47l-.3-.25Z"/><path class="cls-20" d="M12.8,11.66a1.27,1.27,0,0,1-.6-.14,1.09,1.09,0,0,1-.29-.23,1.85,1.85,0,0,1-.44-1.09,8,8,0,0,1-.05-1.13V8.73c0-1.15,0-2.07,0-2.08s0,.93,0,2.08v.34a5.84,5.84,0,0,0,.05,1.13,1.79,1.79,0,0,0,.42,1.07.92.92,0,0,0,.29.23,1.31,1.31,0,0,0,.73.13A2.12,2.12,0,0,0,14.07,11l0,0a2.3,2.3,0,0,1-1.13.65Z"/><path class="cls-23" d="M12.83,11.63a1.29,1.29,0,0,1-.62-.14,1,1,0,0,1-.29-.23,1.85,1.85,0,0,1-.44-1.08A8.18,8.18,0,0,1,11.43,9V8.72c0-1.15,0-2.06,0-2.07s0,.92,0,2.07V9a6.89,6.89,0,0,0,.06,1.14,1.82,1.82,0,0,0,.42,1.07,1.06,1.06,0,0,0,.29.22,1.29,1.29,0,0,0,.7.13h0a2,2,0,0,0,1.1-.63l0,0a2.11,2.11,0,0,1-1.13.62Z"/><path class="cls-23" d="M12.83,11.6a1.34,1.34,0,0,1-.61-.14,1,1,0,0,1-.29-.23,1.81,1.81,0,0,1-.44-1.07A8.18,8.18,0,0,1,11.44,9V8.71c0-1.14,0-2.05,0-2.06s0,.92,0,2.06V9a6.83,6.83,0,0,0,.06,1.14,1.75,1.75,0,0,0,.42,1.05.92.92,0,0,0,.29.23,1.4,1.4,0,0,0,.68.14h0A2.07,2.07,0,0,0,14.06,11v0A2.1,2.1,0,0,1,13,11.6h-.12Z"/><path class="cls-23" d="M13,11.58h0a1.41,1.41,0,0,1-.68-.15,1.09,1.09,0,0,1-.29-.23,1.89,1.89,0,0,1-.42-1.07A7.87,7.87,0,0,1,11.44,9V8.69c0-1.12,0-2,0-2s0,.91,0,2V9a6.71,6.71,0,0,0,.06,1.13,1.81,1.81,0,0,0,.42,1,.89.89,0,0,0,.28.23,1.5,1.5,0,0,0,.67.15h0a2,2,0,0,0,1.1-.56h0a2,2,0,0,1-1.12.57Z"/><path class="cls-24" d="M12.94,11.56h-.06a1.38,1.38,0,0,1-.65-.15,1.05,1.05,0,0,1-.29-.23,1.88,1.88,0,0,1-.42-1.05A6.65,6.65,0,0,1,11.45,9V8.68c0-1.11,0-2,0-2s0,.91,0,2V9a7.82,7.82,0,0,0,.07,1.12A1.92,1.92,0,0,0,12,11.16a.85.85,0,0,0,.28.22,1.35,1.35,0,0,0,.64.15H13A1.91,1.91,0,0,0,14,11l0,0a2,2,0,0,1-1.12.54Z"/><path class="cls-25" d="M12.94,11.54h-.07a1.47,1.47,0,0,1-.64-.16,1.23,1.23,0,0,1-.28-.23,1.88,1.88,0,0,1-.42-1.05,7,7,0,0,1-.07-1.16V8.67c0-1.1,0-2,0-2s0,.91,0,2v.26a7,7,0,0,0,.07,1.16,1.88,1.88,0,0,0,.42,1,1,1,0,0,0,.27.23,1.63,1.63,0,0,0,.63.16h.07A2,2,0,0,0,14,11h0a1.89,1.89,0,0,1-1.11.52Z"/><path class="cls-25" d="M12.94,11.51h-.09a1.52,1.52,0,0,1-.61-.16,1.18,1.18,0,0,1-.28-.23,2,2,0,0,1-.42-1,8.68,8.68,0,0,1-.08-1.19V8.66c0-1.09,0-2,0-2s0,.9,0,2v.22a7.27,7.27,0,0,0,.07,1.18,1.88,1.88,0,0,0,.42,1,.83.83,0,0,0,.27.23,1.48,1.48,0,0,0,.61.16h.08A1.77,1.77,0,0,0,14,11l0,0a1.93,1.93,0,0,1-1.11.48Z"/><path class="cls-26" d="M12.93,11.49h-.09a1.63,1.63,0,0,1-.6-.17,1.18,1.18,0,0,1-.27-.23,2,2,0,0,1-.42-1,8.68,8.68,0,0,1-.08-1.19V8.65c0-1.09,0-2,0-2s0,.89,0,2v.21A7.08,7.08,0,0,0,11.58,10a1.84,1.84,0,0,0,.41,1,1,1,0,0,0,.27.23,1.34,1.34,0,0,0,.58.16l.1,0A1.82,1.82,0,0,0,14,11h0a1.84,1.84,0,0,1-1.11.46Z"/><path class="cls-27" d="M12.93,11.47l-.09,0a1.42,1.42,0,0,1-.59-.17,1.49,1.49,0,0,1-.27-.23,2,2,0,0,1-.42-1,8.94,8.94,0,0,1-.09-1.22V8.63c0-1.07,0-2,0-2s0,.89,0,2V8.8A7.68,7.68,0,0,0,11.59,10,1.84,1.84,0,0,0,12,11a1.13,1.13,0,0,0,.26.23,1.55,1.55,0,0,0,.58.17l.1,0A1.71,1.71,0,0,0,14,11v0a1.75,1.75,0,0,1-1.1.43Z"/><path class="cls-28" d="M12.93,11.44l-.1,0a1.42,1.42,0,0,1-.57-.17A1.18,1.18,0,0,1,12,11a2,2,0,0,1-.41-1,7.5,7.5,0,0,1-.1-1.21V8.62c0-1.06,0-1.93,0-1.94s0,.88,0,1.94v.17A9,9,0,0,0,11.6,10,1.8,1.8,0,0,0,12,11a1,1,0,0,0,.26.23,1.56,1.56,0,0,0,.56.17l.1,0A1.73,1.73,0,0,0,14,11h0a1.63,1.63,0,0,1-1.09.4Z"/><path class="cls-29" d="M13,11.42h0l-.1,0a1.61,1.61,0,0,1-.56-.18A1.18,1.18,0,0,1,12,11a1.92,1.92,0,0,1-.41-1,6.58,6.58,0,0,1-.1-1.21V8.61c0-1,0-1.92,0-1.93s0,.88,0,1.93v.16a7.37,7.37,0,0,0,.1,1.2A1.92,1.92,0,0,0,12,11a1.09,1.09,0,0,0,.25.23,1.57,1.57,0,0,0,.55.18l.11,0A1.67,1.67,0,0,0,14,11l0,0a1.73,1.73,0,0,1-1.07.37Z"/><path class="cls-30" d="M13,11.4h-.08l-.11,0a1.47,1.47,0,0,1-.54-.18A1,1,0,0,1,12,11a1.87,1.87,0,0,1-.41-1,7.45,7.45,0,0,1-.11-1.21V8.6c0-1,0-1.91,0-1.92s0,.87,0,1.92v.15a8.61,8.61,0,0,0,.11,1.2,2,2,0,0,0,.41,1,1.34,1.34,0,0,0,.25.23,1.5,1.5,0,0,0,.53.18l.12,0A1.64,1.64,0,0,0,14,11h0a1.55,1.55,0,0,1-1,.35Z"/><path class="cls-31" d="M13,11.38h-.11l-.12,0a1.23,1.23,0,0,1-.52-.19.83.83,0,0,1-.26-.23,2,2,0,0,1-.41-1A6.7,6.7,0,0,1,11.5,8.7V8.59c-.05-1,0-1.89,0-1.9s0,.86,0,1.89V8.7a9.07,9.07,0,0,0,.11,1.23,2,2,0,0,0,.41,1,1.39,1.39,0,0,0,.25.23,1.49,1.49,0,0,0,.51.18c.06,0,.1,0,.12,0A1.54,1.54,0,0,0,14,11l0,0a1.59,1.59,0,0,1-1,.32Z"/><path class="cls-32" d="M13.07,11.36h-.15l-.13,0a1.6,1.6,0,0,1-.51-.2,1.09,1.09,0,0,1-.25-.23,2,2,0,0,1-.41-1,8.3,8.3,0,0,1-.12-1.27V8.58c-.05-1,0-1.88,0-1.89s0,.86,0,1.88v.07a8.3,8.3,0,0,0,.12,1.27,2,2,0,0,0,.41,1,1.31,1.31,0,0,0,.24.23,1.8,1.8,0,0,0,.5.18l.13,0A1.56,1.56,0,0,0,14,11.05l0,0a1.62,1.62,0,0,1-.93.29Z"/><path class="cls-33" d="M13.11,11.34h-.2l-.12,0a1.48,1.48,0,0,1-.5-.2.92.92,0,0,1-.25-.23,2.05,2.05,0,0,1-.41-1,9.94,9.94,0,0,1-.13-1.26V8.57c-.05-1,0-1.87,0-1.88s0,.86,0,1.87v.07a8.17,8.17,0,0,0,.12,1.26,2.06,2.06,0,0,0,.41,1,1,1,0,0,0,.24.22,1.53,1.53,0,0,0,.49.2l.13,0A1.51,1.51,0,0,0,14,11.05v0a1.51,1.51,0,0,1-.88.27Z"/><path class="cls-34" d="M13.15,11.33l-.24,0a.4.4,0,0,0-.13,0,1.88,1.88,0,0,1-.49-.21,1,1,0,0,1-.24-.23,2,2,0,0,1-.4-1,7.73,7.73,0,0,1-.14-1.31c-.06-1,0-1.85,0-1.86s0,.85,0,1.85a7.73,7.73,0,0,0,.14,1.31,2,2,0,0,0,.4,1,1,1,0,0,0,.24.22,1.67,1.67,0,0,0,.47.21.39.39,0,0,1,.14,0A1.43,1.43,0,0,0,14,11.06v0a1.44,1.44,0,0,1-.83.25Z"/><path class="cls-35" d="M13.18,11.31l-.28,0-.13,0A1.67,1.67,0,0,1,12.3,11a1,1,0,0,1-.24-.23,2.08,2.08,0,0,1-.4-1,8.47,8.47,0,0,1-.15-1.28c0-1,0-1.85,0-1.86s0,.84,0,1.84a8.59,8.59,0,0,0,.15,1.3,2.08,2.08,0,0,0,.4.95,1,1,0,0,0,.23.22,1.55,1.55,0,0,0,.47.21l.13,0a1.45,1.45,0,0,0,1.05-.2h0a1.48,1.48,0,0,1-.8.23Z"/><path class="cls-36" d="M13.21,11.3a1.2,1.2,0,0,1-.31,0l-.14,0a1.76,1.76,0,0,1-.45-.21,1.31,1.31,0,0,1-.24-.23,2.18,2.18,0,0,1-.4-.95,8,8,0,0,1-.15-1.29c-.06-1,0-1.82,0-1.83s0,.84,0,1.83a8.17,8.17,0,0,0,.15,1.29,2.19,2.19,0,0,0,.4.94,1,1,0,0,0,.23.22,1.76,1.76,0,0,0,.45.21l.14.06A1.48,1.48,0,0,0,14,11.07v0a1.38,1.38,0,0,1-.76.21Z"/><path class="cls-37" d="M13.25,11.28a1.45,1.45,0,0,1-.35,0l-.14-.06a1.76,1.76,0,0,1-.45-.21,1.25,1.25,0,0,1-.23-.23,2.14,2.14,0,0,1-.4-.94,7.63,7.63,0,0,1-.15-1.28c-.07-1,0-1.81,0-1.81s0,.83.06,1.81a7.38,7.38,0,0,0,.15,1.27,2.19,2.19,0,0,0,.4.94,1.15,1.15,0,0,0,.22.22,1.89,1.89,0,0,0,.44.21l.14.06a1.43,1.43,0,0,0,1-.14h0a1.22,1.22,0,0,1-.71.19Z"/><path class="cls-38" d="M13.29,11.27a1.89,1.89,0,0,1-.39,0l-.13-.06a1.42,1.42,0,0,1-.45-.22,1.25,1.25,0,0,1-.23-.23,2.28,2.28,0,0,1-.4-.93,8,8,0,0,1-.16-1.28,16.64,16.64,0,0,1,0-1.79s0,.83.05,1.79a7.71,7.71,0,0,0,.16,1.27,2.22,2.22,0,0,0,.4.93.92.92,0,0,0,.22.22,1.5,1.5,0,0,0,.44.22l.13.06a1.36,1.36,0,0,0,1-.12v0a1.25,1.25,0,0,1-.66.17Z"/><path class="cls-39" d="M13.32,11.26a1.77,1.77,0,0,1-.43-.06l-.13-.06a2.36,2.36,0,0,1-.44-.23,1.21,1.21,0,0,1-.22-.23,2.22,2.22,0,0,1-.4-.93,8.51,8.51,0,0,1-.16-1.26c-.07-1,0-1.77,0-1.78s0,.83.06,1.78a8.68,8.68,0,0,0,.16,1.26,2.37,2.37,0,0,0,.4.92,1.15,1.15,0,0,0,.22.22,1.66,1.66,0,0,0,.43.23l.13.06a1.4,1.4,0,0,0,1-.09v0a1.32,1.32,0,0,1-.63.15Z"/><path class="cls-40" d="M13.35,11.25a1.39,1.39,0,0,1-.46-.08l-.13-.06a2,2,0,0,1-.43-.23,1.2,1.2,0,0,1-.22-.23,2.37,2.37,0,0,1-.4-.92,8.36,8.36,0,0,1-.17-1.25c-.07-.94,0-1.76,0-1.77s0,.83.06,1.77a10,10,0,0,0,.17,1.24,2.53,2.53,0,0,0,.39.92,1.52,1.52,0,0,0,.22.22,2.27,2.27,0,0,0,.42.23l.14.06a1.35,1.35,0,0,0,1-.06v0a1.22,1.22,0,0,1-.59.14Z"/><path class="cls-41" d="M13.39,11.24a1.61,1.61,0,0,1-.5-.09l-.13-.06a2.4,2.4,0,0,1-.42-.24,1.21,1.21,0,0,1-.22-.23,2.45,2.45,0,0,1-.39-.91,7.41,7.41,0,0,1-.18-1.24,16.09,16.09,0,0,1-.05-1.75s0,.81.07,1.75a7.15,7.15,0,0,0,.18,1.23,2.63,2.63,0,0,0,.38.91,1.14,1.14,0,0,0,.22.22,2.72,2.72,0,0,0,.42.24l.12.06a1.32,1.32,0,0,0,1,0v0a1.17,1.17,0,0,1-.54.12Z"/><path class="cls-42" d="M13.42,11.23a1.68,1.68,0,0,1-.54-.1l-.12-.06a2.87,2.87,0,0,1-.42-.25,1.15,1.15,0,0,1-.21-.23,2.45,2.45,0,0,1-.39-.91,7.28,7.28,0,0,1-.19-1.22,15.9,15.9,0,0,1-.05-1.74s0,.81.08,1.73a7.17,7.17,0,0,0,.18,1.23,2.4,2.4,0,0,0,.39.9,1.1,1.1,0,0,0,.21.22,1.88,1.88,0,0,0,.41.25l.12.06a1.33,1.33,0,0,0,1,0v0a1.14,1.14,0,0,1-.51.11Z"/><path class="cls-43" d="M13.45,11.22a1.49,1.49,0,0,1-.57-.12l-.09,0a2.28,2.28,0,0,1-.44-.27,1.17,1.17,0,0,1-.21-.23,2.62,2.62,0,0,1-.39-.89,7.44,7.44,0,0,1-.19-1.22c-.08-.92-.06-1.72-.06-1.72s0,.8.08,1.71a7.28,7.28,0,0,0,.19,1.22,2.48,2.48,0,0,0,.39.88.92.92,0,0,0,.2.23,2.28,2.28,0,0,0,.44.27l.09,0a1.31,1.31,0,0,0,1,0v0a1.14,1.14,0,0,1-.47.09Z"/><path class="cls-44" d="M13.48,11.21a1.51,1.51,0,0,1-.6-.13l-.07,0a3.18,3.18,0,0,1-.46-.3,1,1,0,0,1-.2-.22,2.54,2.54,0,0,1-.39-.89,8.23,8.23,0,0,1-.2-1.21,15.16,15.16,0,0,1-.05-1.7s0,.8.08,1.7a6.91,6.91,0,0,0,.19,1.2,2.58,2.58,0,0,0,.38.88,1.15,1.15,0,0,0,.21.23,2.23,2.23,0,0,0,.45.29l.07,0a1.31,1.31,0,0,0,1,.06h0a1,1,0,0,1-.44.08Z"/><path class="cls-45" d="M13.51,11.21a1.62,1.62,0,0,1-.64-.15,2.65,2.65,0,0,1-.51-.34,1.07,1.07,0,0,1-.2-.22,2.66,2.66,0,0,1-.39-.88,7,7,0,0,1-.2-1.2,13.76,13.76,0,0,1-.06-1.69s0,.8.08,1.69a7.78,7.78,0,0,0,.2,1.19,3,3,0,0,0,.38.88l.2.22a3.09,3.09,0,0,0,.49.32,1.34,1.34,0,0,0,1,.09v0a1.09,1.09,0,0,1-.4.07Z"/><path class="cls-46" d="M13.54,11.21a1.5,1.5,0,0,1-.67-.17,2.56,2.56,0,0,1-.5-.35,1,1,0,0,1-.2-.22,2.69,2.69,0,0,1-.39-.87,7.17,7.17,0,0,1-.2-1.19,12.49,12.49,0,0,1-.07-1.67s0,.78.09,1.67a6,6,0,0,0,.21,1.18,2.68,2.68,0,0,0,.37.87,2.09,2.09,0,0,0,.2.22,3,3,0,0,0,.5.34,1.2,1.2,0,0,0,1,.1v0a1,1,0,0,1-.36.06Z"/><path d="M12.77,11.68a1.16,1.16,0,0,1-.88-.36,1.79,1.79,0,0,1-.43-1.09,7.81,7.81,0,0,1-.05-1.11V8.74c0-1.16,0-2.08,0-2.09l.85.64.83.73a3.71,3.71,0,0,0,0,.47,2,2,0,0,0,1.49,2.15l0,0h0l-.48.34h0a2.3,2.3,0,0,1-1.13.66Zm-1.31-5s0,.94,0,2.08v.38a7.6,7.6,0,0,0,.05,1.1,1.73,1.73,0,0,0,.43,1.08,1.19,1.19,0,0,0,1,.34A2.2,2.2,0,0,0,14.08,11l.48-.3a2.06,2.06,0,0,1-1.49-2.18,3.71,3.71,0,0,1,0-.47l-.82-.7-.82-.66Z"/><path d="M12.48,8.25a3.38,3.38,0,0,1-.78-1h0a3.82,3.82,0,0,0,.76,1Z"/><path d="M12.64,8.75c-.25,0-.8-.9-.87-1h0c.09.16.62,1,.85,1Z"/><path d="M12.28,9.72a1.28,1.28,0,0,1-.54-.55A.85.85,0,0,0,11.65,9l0,0a1,1,0,0,1,.09.15,1.41,1.41,0,0,0,.52.56Z"/><path d="M13.28,10.81A2.44,2.44,0,0,1,11.82,10l0,0a2.53,2.53,0,0,0,1.44.85Z"/><path d="M12.8,11.08a1,1,0,0,1-.92-.59l-.06-.09h0l.06.09a1.06,1.06,0,0,0,1.45.5,1.74,1.74,0,0,1-.55.1Z"/><path d="M12.84,11.47a1.1,1.1,0,0,1-.4-.08,1.73,1.73,0,0,1-.79-.85h0a1.71,1.71,0,0,0,.78.83,1.09,1.09,0,0,0,.85,0,1.11,1.11,0,0,1-.46.11Z"/><path class="cls-22" d="M11.46,6.72s0,.31,0,.36a3.69,3.69,0,0,0,0,.58s.08.23.07.24-.08.09-.16,0,0-.23,0-.28,0-.42,0-.59a3.26,3.26,0,0,1,0-.38s0-.07,0,0Z"/><path d="M11.47,8,11.4,8s0,0,0-.18a.54.54,0,0,0,0-.11s0-.2,0-.36V7.07a3.45,3.45,0,0,1,0-.38l0,0s0,0,0,.07,0,.31,0,.36a3.13,3.13,0,0,0,0,.58l0,.06c.05.14.06.18,0,.19S11.5,8,11.47,8Zm0-1.31s0,.34,0,.4V7.3c0,.16,0,.33,0,.36a.54.54,0,0,1,0,.11c0,.06,0,.16,0,.17s.08,0,.14,0,0-.13-.05-.17a.17.17,0,0,1,0-.07,3.13,3.13,0,0,1,0-.58s0-.36,0-.36,0,0,0,0Z"/><path class="cls-20" d="M11.45,6.62a4.08,4.08,0,0,0,0,.57c0,.25,0,.32,0,.47s0,.19,0,.27,0,0,0,0a.1.1,0,0,1-.13,0s.07-.23.07-.27a5.75,5.75,0,0,1,.09-1s0,.22,0,0Z"/><path d="M11.34,8a.15.15,0,0,1-.07,0s0,0,0-.13a.85.85,0,0,0,0-.15V7.54h0a6.22,6.22,0,0,1,.09-.9h0v0h0s0,.27,0,.48l0,0v0h0v.1h0v.13l0,0v0h0v.09l0,0v0h0a.28.28,0,0,0,0,.09h0v0s0,0,0,0,0,0,0,0v.06l.05,0v0l-.06,0v.11a.76.76,0,0,0,0,.14.12.12,0,0,1-.08,0Zm0-.29,0,.14,0,.11a.09.09,0,0,0,.11,0V7.78a.41.41,0,0,0,0-.1Zm.06-.94c0,.08,0,.2,0,.35h0c0-.12,0-.25,0-.35Z"/><path class="cls-22" d="M11.41,6.61a.38.38,0,0,0,.11-.11s0-.09,0-.1.13.06,0,.12a.41.41,0,0,0-.13.09l.07,0s.21-.13.15-.19-.09-.06-.11-.06-.05,0-.06.06a.22.22,0,0,1-.06.13.27.27,0,0,0,0,.08Z"/><path d="M11.38,6.65l0,0a.23.23,0,0,1,0-.09.17.17,0,0,0,.05-.12c0-.07,0-.07.08-.07s.06,0,.12.06,0,0,0,.05-.13.15-.16.16l-.08,0s0,0,0,0l-.05,0,0,0Zm.19-.26a.08.08,0,0,1,.07.05s0,.06-.05.09a.29.29,0,0,0-.1.06h0s.14-.09.15-.14-.09-.09-.1-.09-.05,0-.06.05a.3.3,0,0,1-.06.14.08.08,0,0,0,0,0,.23.23,0,0,0,.08-.09l0,0a.06.06,0,0,1,0-.06Zm0,0s0,0,0,0,0,0,0,0l0,.07.1-.06s.05,0,0-.06a.05.05,0,0,0,0,0Z"/><path class="cls-20" d="M11.39,6.62a.42.42,0,0,0,.16,0s.06-.06.09-.06.07.11-.05.11h-.16a.14.14,0,0,0,.07,0c.05,0,.25,0,.23-.09s0-.1-.06-.11-.05,0-.09,0a.33.33,0,0,1-.11.08.21.21,0,0,0-.08,0Z"/><path d="M11.55,6.67H11.5l-.08,0h0a.72.72,0,0,0,.14,0s0,0,0,0,.11,0,.11,0,0,.07-.1.07H11.5a.35.35,0,0,0,.21,0c0-.11,0-.13-.05-.14a.06.06,0,0,0-.07,0,.26.26,0,0,1-.12.09l-.07,0s0,0,.06-.06a.29.29,0,0,0,.11-.08s0,0,.06,0l0,0h0s.05,0,.07.12,0,0,0,0-.13,0-.18,0Zm0,0h.08c.05,0,.07,0,.07,0s0,0-.06,0l0,0-.07,0Z"/><path class="cls-1" d="M15.23,10.15h0Z"/><path class="cls-8" d="M14.73,6.32a2,2,0,0,0-1.65,2.17,2,2,0,0,0,1.65,2.17,2,2,0,0,0,1.64-2.17,2,2,0,0,0-1.64-2.17Z"/><path class="cls-51" d="M14.73,6.32a2,2,0,0,0-1.65,2.17,2,2,0,0,0,1.65,2.17,2,2,0,0,0,1.64-2.17,2,2,0,0,0-1.64-2.17Z"/><path d="M14.73,10.69a2,2,0,0,1-1.68-2.2,2,2,0,0,1,1.68-2.2c.92,0,1.66,1,1.66,2.2s-.74,2.2-1.66,2.2Zm0-4.35A2,2,0,0,0,13.1,8.49a2,2,0,0,0,1.63,2.15c.89,0,1.61-1,1.61-2.15s-.72-2.15-1.61-2.15Z"/><path class="cls-52" d="M15.16,8.92c-.09,0-.08,0-.16.07a.36.36,0,0,1,.23,0,1.17,1.17,0,0,0,.26,0s.06,0,.09,0,.14,0,.21,0l.18,0,.13,0h0a1.55,1.55,0,0,1-1.37,1.23A1.5,1.5,0,0,1,13.4,9.37h0c.09,0,.2,0,.29-.07l0,0c.16,0,.35.06.44-.09a.65.65,0,0,0,.28,0,.53.53,0,0,1,.25-.05s0,0,0,0-.07,0-.11,0-.1-.09-.17-.13,0,0,0,0a4.24,4.24,0,0,1,.71.05h0Z"/><path class="cls-53" d="M15.48,8.82s0,0,0-.05-.14,0-.19-.09-.19-.12-.29-.19-.06,0-.09,0-.12,0-.17,0l-.22-.13s-.06-.09-.1-.12a.58.58,0,0,0-.17-.06c-.07,0-.12-.11-.19-.17s-.06,0-.09,0-.11-.1-.16-.09-.13.13-.22.2-.1.13-.16.19-.08.09-.13.09h0a1.73,1.73,0,0,1,1.48-1.79,1.76,1.76,0,0,1,1.48,2c0,.09,0,.17,0,.26h0c-.11,0-.2-.1-.31-.06l-.22.08-.19.05Z"/><path class="cls-8" d="M13.42,9.36c.09,0,.2,0,.29-.06l0,0c.16,0,.35.06.44-.09a.65.65,0,0,0,.28,0,.53.53,0,0,1,.25-.05s0,0,0,0-.07,0-.11,0-.1-.09-.17-.13,0,0,0,0a4.24,4.24,0,0,1,.71.05s.09,0,.14,0a1.16,1.16,0,0,0,.22-.06l-.05,0c0-.06-.13,0-.18-.1A1.45,1.45,0,0,0,15,8.49s-.06,0-.09,0-.12,0-.17,0a1.27,1.27,0,0,1-.22-.13s-.06-.08-.1-.12a.58.58,0,0,0-.17-.06c-.07,0-.12-.11-.19-.16S14,8,13.93,8s-.11-.11-.16-.09-.13.13-.22.19-.1.13-.16.19-.08.09-.13.09a2.2,2.2,0,0,0,0,.52,3.08,3.08,0,0,0,.13.52Z"/><path d="M13.39,9.37a3.08,3.08,0,0,1-.13-.52,2.22,2.22,0,0,1,0-.52.25.25,0,0,0,.12-.08.58.58,0,0,0,.08-.1A.48.48,0,0,1,13.54,8,.38.38,0,0,0,13.63,8a.36.36,0,0,1,.14-.1c.05,0,.07,0,.1,0l.06.05h0L14,8,14.1,8a.44.44,0,0,0,.11.09l.06,0a.21.21,0,0,1,.11,0,.2.2,0,0,1,.06.07l.05.05.16.1.06,0h.16l.1,0,.12.07a.66.66,0,0,1,.17.12.16.16,0,0,0,.09.05.13.13,0,0,1,.09,0l.05.05a.25.25,0,0,1-.13,0l-.1,0-.13,0a1.39,1.39,0,0,0-.41,0h-.27l.08.06a.27.27,0,0,0,.08.07h.06l.05,0v.06a.47.47,0,0,0-.24.05.7.7,0,0,1-.29,0c-.06.1-.17.09-.28.09h-.16a.35.35,0,0,1-.17.06.32.32,0,0,0-.14,0Zm-.13-1a3.61,3.61,0,0,0,0,.5,2.9,2.9,0,0,0,.13.5h0a.32.32,0,0,1,.14,0,.57.57,0,0,0,.15,0l0,0h.17c.1,0,.2,0,.26-.08h.09a.64.64,0,0,0,.2,0,.47.47,0,0,1,.22-.05h0L14.6,9,14.51,9l-.07-.06h0s0,0,0,0h.32a1.26,1.26,0,0,1,.4,0,.33.33,0,0,0,.13,0l.11,0a.18.18,0,0,0,.11,0s0,0,0,0a.15.15,0,0,0-.1-.06.24.24,0,0,1-.1-.05.38.38,0,0,0-.16-.12L15,8.5l0,0h-.2l-.06,0-.16-.1a.34.34,0,0,1-.06-.06.15.15,0,0,0-.05-.06l-.1,0-.06,0a.29.29,0,0,1-.12-.1L14,8a.05.05,0,0,0,0,0h-.05l-.06,0s0,0-.08,0-.09,0-.13.1l-.09.09a.28.28,0,0,0-.09.1l-.07.09c-.05,0-.09.09-.14.1Z"/><path class="cls-54" d="M16.1,9.21l-.13,0-.18,0c-.07,0-.14,0-.21,0s-.05,0-.09,0a1.17,1.17,0,0,1-.26,0A.36.36,0,0,0,15,9a1.73,1.73,0,0,1,.24-.1c.15,0,.28-.08.42-.12l.23-.08c.1,0,.2,0,.3.06a2.53,2.53,0,0,1-.09.46Z"/><path d="M16.1,9.23l-.1,0h-.09l-.13,0c-.06,0-.13,0-.21,0l-.08,0h0a.85.85,0,0,1-.22,0A.34.34,0,0,0,15,9h0a.24.24,0,0,1,.08-.06.39.39,0,0,1,.15-.06l.27-.08.15,0,.13,0,.1,0a.31.31,0,0,1,.21,0l.09,0a1.69,1.69,0,0,1-.08.48h0Zm0-.05v0c0-.11.07-.45.07-.46s-.06,0-.09,0a.34.34,0,0,0-.2,0l-.1,0-.12,0-.16.05-.27.07A.35.35,0,0,0,15.1,9l0,0a.28.28,0,0,1,.18,0l.21,0h.05s0,0,.06,0,.16,0,.23.05l.13,0H16l.09,0h0v0Zm-1.66-.29a.14.14,0,0,1-.1-.08l-.06-.06a.41.41,0,0,1-.09-.12.08.08,0,0,1,0-.05s0-.05,0-.07a1,1,0,0,1-.22-.23h0c0,.05.14.16.2.21a.16.16,0,0,1,.06.1l0,0a.41.41,0,0,0,.09.12l0,.06.09.09Z"/><path class="cls-54" d="M13.28,8.35c.1-.08.17-.21.28-.29a.22.22,0,0,1,0,.08s0-.05.05-.05l.06,0s0,0,0,0a.67.67,0,0,1-.16.18s0,0,0,0,0,0,.06,0,0,0,0,0,0,0,0,.05-.07,0-.09.07a.41.41,0,0,1-.07.11.18.18,0,0,1,.08-.07s.07,0,.11-.06.08-.06.11-.1,0,.05,0,.09,0,0,0,0-.1.09-.12.15,0,0-.05,0,0,.05,0,.06-.08.12-.11.18l-.07.05s-.11.07-.12,0a1.68,1.68,0,0,1,0-.52Z"/><path class="cls-54" d="M13.9,8.43l-.05,0h0a.45.45,0,0,1-.12.06.12.12,0,0,0-.06.06.67.67,0,0,1-.09.14.37.37,0,0,1-.24.16s0,.08,0,.1a.88.88,0,0,0,.1.34c.09-.05.21,0,.29-.08a.12.12,0,0,1,.1,0c.07,0,.15,0,.2,0l.2-.07c.06,0,.12,0,.17,0a1,1,0,0,1,.16-.06.39.39,0,0,1,.15,0A.77.77,0,0,0,14.42,9a.18.18,0,0,1,.07,0s0,.05,0,0a.1.1,0,0,0-.05,0s-.08,0-.12,0,0,0,0,0h0s0,0,0-.07,0,.08-.08.07,0,0,0,0,.06,0,0,0-.07,0-.09,0,0,0,0,0a.16.16,0,0,0,0,.1h0s0-.06,0-.07-.05-.07-.08-.1.06,0,.1-.05,0,0,0-.06l.07,0a.07.07,0,0,0,0-.05s0-.07-.08-.06,0,0,0,0-.11,0-.15,0,0,.07,0,.08-.12.07-.1.1.1,0,.15,0,0,.08.1.08L13.86,9s0,0,0,0h0c0-.05,0-.1.05-.13l.23-.2s0,0,0-.05h0s0,0,0,.05a.2.2,0,0,1-.11,0,.17.17,0,0,1-.07.13s-.08,0-.11,0,0,0,0,.06l0,0c0,.05,0,.1,0,.14s0,0,0,0,0-.1,0-.15,0-.12,0-.15a.26.26,0,0,0,.14-.13s-.07,0-.1,0,0,0,0,0a.25.25,0,0,0,.08-.1Z"/><path class="cls-54" d="M14.43,8.85v0s0,0,0-.05.09.1.12,0,0,0,0-.05,0,0,0,0h0l0,0s0,0,0-.05.09,0,.13,0a.35.35,0,0,1,.08,0s.06,0,.05,0l-.05,0a.18.18,0,0,0-.07.05s0,0,0,0l.1-.05v0h0s0,0,.05-.06h0s0,0,0,.06l0,0s0,0,0,0h0s0,0,0,0a.09.09,0,0,1,0-.07h0a.08.08,0,0,1,.06,0s0,.05,0,.05,0,0,0-.05.08,0,.07.05,0,0,0,0,0,0,0,0h0a.07.07,0,0,0,0,.08s.06,0,.09,0,0,0,.05-.06,0,0,0,0,0,0,0,0,0,0,.05,0,0-.05,0-.07,0,0,0,0,0,0,0,0,0,0,0,0,0,0,0,.07,0,0,0,0,0,.05,0,.07a.06.06,0,0,0,.08,0c0-.06.07,0,.1,0s0,0,0,0,0,0,0,0v0s.11,0,.15.09-.11,0-.16,0a.43.43,0,0,1-.18.06l-.09,0-.57,0Z"/><path class="cls-8" d="M15.76,8.76a.45.45,0,0,0,.12-.06H16l.06,0,.06,0,.06,0H16s0,0,0,0-.07-.06-.1,0l0,0s0,0,0,0a.25.25,0,0,0-.12,0Z"/><path class="cls-55" d="M13.71,9.76c.06,0,.09,0,.11,0s0,0,.07,0,0,0,0,.05.05,0,.08.06a.23.23,0,0,0,.11.08.29.29,0,0,1,.14,0,1.22,1.22,0,0,1,.31.12,1,1,0,0,0,.23.14.6.6,0,0,1,.11.1.57.57,0,0,1-.18,0,.53.53,0,0,0-.16-.16c-.1-.06-.14-.12-.22-.15a.61.61,0,0,0-.21-.06c-.09,0-.11,0-.14-.08a.54.54,0,0,0-.2-.16c-.08,0-.09-.06-.12-.06s0,0,0,0Z"/><path class="cls-55" d="M13.68,9.86c.05,0,.12,0,.13.06a.06.06,0,0,0,.06,0s.06,0,.07,0,.05.13.11.13a.24.24,0,0,1,.12,0,.08.08,0,0,0,.08,0c.1,0,.13.05.26.15a.47.47,0,0,1,.1.09.89.89,0,0,1-.42-.12,1.9,1.9,0,0,1-.45-.35c-.06-.07-.06-.1-.06-.1Z"/><path class="cls-55" d="M14,9.86s.07.1.14.1a.32.32,0,0,1,.14,0,.24.24,0,0,0,.13,0,.68.68,0,0,1,.26.11,1,1,0,0,0,.27.13.18.18,0,0,1,.13.13l.16-.06s-.06-.06-.13-.08a1.07,1.07,0,0,1-.27-.09c-.06,0-.11-.1-.16-.12a.72.72,0,0,0-.22,0,.71.71,0,0,1-.21,0l-.12-.05L14,9.86Z"/><path class="cls-55" d="M14.63,10l.12,0c.06,0,.16,0,.2,0a.33.33,0,0,0,.16.05.2.2,0,0,1,.14,0,.3.3,0,0,0,.11.06.52.52,0,0,0,.11-.07.48.48,0,0,0-.15,0,.17.17,0,0,1-.1,0l-.06,0a.23.23,0,0,1-.11,0,.26.26,0,0,0-.15,0Z"/><path class="cls-55" d="M15,10h.15s0,0,.07,0,.08,0,.1,0a.14.14,0,0,0,.11,0,.25.25,0,0,1,.1,0s.08-.05.09-.08h-.12a.13.13,0,0,1-.1,0l-.1,0-.11,0L15,10Z"/><path class="cls-55" d="M15.32,9.94s.09,0,.09.05a.12.12,0,0,0,.07.07h.12l.08-.08a.06.06,0,0,0-.06,0s0,0-.08,0,0,0-.09,0l-.13,0Z"/><path class="cls-55" d="M15.45,9.93s0,0,.07,0,.07,0,.1,0l.08,0,.07-.08a.1.1,0,0,0-.07,0s-.06,0-.1,0a.17.17,0,0,1-.15,0Z"/><path class="cls-16" d="M14.74,7.28a2,2,0,0,1,1.36.48A1.24,1.24,0,0,0,16,7.57l-.09-.18A1.93,1.93,0,0,0,14.74,7a2,2,0,0,0-1.23.38l-.09.17a1.18,1.18,0,0,0-.07.21,2.14,2.14,0,0,1,1.39-.5Z"/><path d="M13.33,7.81v0s0-.13.07-.2.09-.18.09-.18A2,2,0,0,1,14.74,7a1.87,1.87,0,0,1,1.18.36l0,0s.07.12.1.19a.62.62,0,0,1,.06.19h0a2.2,2.2,0,0,0-1.35-.44,2.1,2.1,0,0,0-1.38.49l0,0Zm.19-.4-.09.17s0,.12-.06.16a2.12,2.12,0,0,1,1.37-.47,2,2,0,0,1,1.35.46s0-.1-.07-.15a1.68,1.68,0,0,0-.1-.18A1.85,1.85,0,0,0,14.74,7a2,2,0,0,0-1.22.38Z"/><polygon class="cls-56" points="14.59 6.98 14.55 6.75 14.68 6.94 14.74 6.71 14.79 6.94 14.93 6.75 14.89 6.98 15.09 6.86 14.96 7.06 15.2 7.02 15 7.15 15.24 7.2 15 7.25 15.2 7.39 14.96 7.35 15.09 7.54 14.89 7.42 14.93 7.65 14.79 7.46 14.74 7.69 14.68 7.46 14.55 7.65 14.59 7.42 14.38 7.54 14.51 7.35 14.27 7.39 14.47 7.25 14.23 7.2 14.47 7.15 14.27 7.02 14.51 7.06 14.38 6.86 14.59 6.98"/><polygon class="cls-57" points="14.59 6.98 14.55 6.75 14.68 6.94 14.74 6.71 14.79 6.94 14.93 6.75 14.89 6.98 15.09 6.86 14.96 7.06 15.2 7.02 15 7.15 15.24 7.2 15 7.25 15.2 7.39 14.96 7.35 15.09 7.54 14.89 7.42 14.93 7.65 14.79 7.46 14.74 7.69 14.68 7.46 14.55 7.65 14.59 7.42 14.38 7.54 14.51 7.35 14.27 7.39 14.47 7.25 14.23 7.2 14.47 7.15 14.27 7.02 14.51 7.06 14.38 6.86 14.59 6.98"/><path d="M14.73,7.69l-.06-.23-.12.2,0-.24-.19.13.11-.21-.23.06.19-.16-.23,0,.24-.07L14.27,7l.24,0-.14-.18.22.11-.06-.22.16.19,0-.23.07.23.12-.19,0,.23.19-.13L15,7.06,15.2,7,15,7.16l.23,0L15,7.26l.2.12-.25,0,.14.18-.22-.11.06.22-.16-.18,0,.22Zm-.15-.28,0,.24.11-.2.07.2,0-.19.16.18-.06-.22.22.12L15,7.36l.24,0L15,7.26l.24-.07-.24,0L15.2,7,15,7.07l.11-.22L14.89,7l0-.24L14.8,7l-.07-.23,0,.23-.15-.19L14.6,7l-.22-.11.14.18-.25,0,.21.11-.24.07.23,0-.19.16.23-.06-.12.21.19-.14Z"/><path d="M14.73,10.47a1.8,1.8,0,0,1-1.51-2,1.8,1.8,0,0,1,1.51-2,1.8,1.8,0,0,1,1.5,2,1.8,1.8,0,0,1-1.5,2Zm0-3.91c-.81,0-1.46.87-1.46,1.93s.65,1.93,1.46,1.93,1.45-.87,1.45-1.93-.65-1.93-1.45-1.93Z"/><path class="cls-51" d="M14.74,6.28a2,2,0,0,0-.54.06h0s.05,0,.12.06.09.25.09.25h0a2.16,2.16,0,0,1,.33,0,2.16,2.16,0,0,1,.33,0h0s0-.19.09-.25.1-.07.12-.06h0a2.06,2.06,0,0,0-.54-.06Z"/><path d="M15.08,6.68h0a2.16,2.16,0,0,0-.33,0,2.16,2.16,0,0,0-.33,0s0-.21-.11-.26l0,0-.06,0v0a2.27,2.27,0,0,1,.53-.07h0a2.5,2.5,0,0,1,.52.06v0l-.06,0,0,0c-.08,0-.09.24-.09.24v0Zm-.85-.33,0,0,.05,0c.09.06.1.24.1.26a.81.81,0,0,1,.32,0,1.69,1.69,0,0,1,.32,0c0-.05,0-.2.1-.25l.05,0s0,0,.07,0a3.71,3.71,0,0,0-.52,0h0a2.19,2.19,0,0,0-.49.06Z"/><path class="cls-58" d="M15.31,6.45s-.22,0-.23.21c0,0,0-.19.09-.25s.12-.08.14,0a.09.09,0,0,1,0,.08Z"/><path d="M15.09,6.66h0s0-.2.1-.26l.05,0s0,0,.07,0h0l0,0a.08.08,0,0,1,0,.09c-.06,0-.22.06-.23.2Zm.19-.29a.05.05,0,0,0,0,0l-.05,0a.16.16,0,0,0-.07.11.36.36,0,0,1,.19-.1.11.11,0,0,0,0-.06Z"/><path class="cls-58" d="M14.17,6.45s.22,0,.23.21c0,0,0-.19-.09-.25s-.11-.08-.14,0a.09.09,0,0,0,0,.08Z"/><path d="M14.39,6.66c0-.16-.22-.19-.22-.19a.07.07,0,0,1,0-.1h0l0,0s0,0,.07,0l.05,0c.09.06.1.25.1.26Zm-.19-.29s0,.07,0,.07a.37.37,0,0,1,.18.1.14.14,0,0,0-.07-.11l-.05,0-.05,0Z"/><rect class="cls-8" x="14.48" y="10.66" width="0.08" height="0.55"/><path d="M14.58,11.21h-.1v-.55h.1v.56Zm0-.55h-.08v.53h.07v-.53Z"/><path class="cls-8" d="M14.73,10.7a2.11,2.11,0,0,1-.51,0h0s.06,0,.12-.05.09-.21.09-.21h0a2.57,2.57,0,0,0,.31,0,2.58,2.58,0,0,0,.32,0h0s0,.16.09.21.09.06.12.05h0a2.15,2.15,0,0,1-.52,0Z"/><path class="cls-51" d="M14.73,10.7a2.11,2.11,0,0,1-.51,0h0s.06,0,.12-.05.09-.21.09-.21h0a2.57,2.57,0,0,0,.31,0,2.58,2.58,0,0,0,.32,0h0s0,.16.09.21.09.06.12.05h0a2.15,2.15,0,0,1-.52,0Z"/><path d="M14.78,10.72l0,0,0,0a4.55,4.55,0,0,1-.5-.05h0l.48,0h.09a2.48,2.48,0,0,0,.44,0h0l0,0c-.09,0-.1-.21-.1-.22a.75.75,0,0,1-.31,0c-.12,0-.29,0-.31,0a.23.23,0,0,1-.09.2l-.05,0-.07,0v0l.06,0,.05,0c.07,0,.08-.2.08-.2s.21,0,.33,0a2.58,2.58,0,0,0,.32,0s0,.17.1.21l0,0,.06,0v0a2.38,2.38,0,0,1-.48.06Z"/><path class="cls-58" d="M15.28,10.55s-.11,0-.22-.17c0,0,0,.16.09.21s.11.07.13,0a.07.07,0,0,0,0-.07Z"/><path d="M15.25,10.66s0,0-.07,0l0,0c-.09,0-.1-.21-.1-.22h0s0,0,0,0,.16.13.19.13h0a.07.07,0,0,1,0,.09h0l0,0Zm-.18-.22a.39.39,0,0,0,.08.14l0,0,.06,0h0l0,0a.06.06,0,0,0,0-.06c-.06,0-.13,0-.2-.12Z"/><path class="cls-58" d="M14.19,10.55s.07.09.22-.17c0,0,0,.16-.09.21s-.11.07-.13,0a.05.05,0,0,1,0-.07Z"/><path d="M14.21,10.66h0l0,0a.09.09,0,0,1,0-.09h0s.09,0,.18-.18c0,0,0,.18-.07.23l0,0-.08,0Zm0-.09a.08.08,0,0,0,0,0v0l.06,0,.05,0c.07,0,.08-.2.08-.2s-.12.2-.18.2Z"/><path class="cls-16" d="M12.86,11h3.83v-.11H12.86V10.8s-.19.12-.27.11.26.07.28.11v0Z"/><path d="M12.88,11.05l0,0a1.06,1.06,0,0,0-.28-.1,1.2,1.2,0,0,0,.26-.13l0,.07h3.82V11H12.86v0h0v0Zm-.27-.13a.73.73,0,0,1,.24.07v0h3.84v-.1H12.86l0-.07a.43.43,0,0,1-.23.12Z"/><path class="cls-16" d="M13.22,11c0,.16-.11.19-.12.25A.81.81,0,0,1,13,11c0-.1,0-.17,0-.18s0-.2-.07-.27a.54.54,0,0,0-.26-.11s.07-.24.45-.23.35.08.42.28a.24.24,0,0,0-.3.2,1.09,1.09,0,0,0,0,.12s.06,0,0,.18Z"/><path d="M13.1,11.31v0a.87.87,0,0,1-.13-.24.27.27,0,0,1,0-.16s0-.23-.06-.29a.54.54,0,0,0-.26-.11s.06-.25.42-.25.39.07.46.28c0,0,0,0-.07,0a.22.22,0,0,0-.23.2c0,.09,0,.11,0,.11h0s.06,0,0,.19a.85.85,0,0,1-.09.19s0,0,0,.06v0Zm0-1.05c-.37,0-.44.21-.44.22a.44.44,0,0,1,.26.1c.1.07.07.27.07.28h0v0A.21.21,0,0,0,13,11a1.47,1.47,0,0,0,.11.22l0-.06a.44.44,0,0,0,.08-.17c0-.15,0-.17,0-.17s0,0,0-.13a.25.25,0,0,1,.31-.21.38.38,0,0,0-.42-.26Z"/><rect class="cls-59" x="13.4" y="10.66" width="2.58" height="0.06"/><path d="M16,10.73H13.4v-.07H16v.08Zm0-.07H13.4v.05H16v-.05Z"/><rect class="cls-59" x="13.38" y="10.72" width="2.63" height="0.06"/><path d="M16,10.79H13.38v-.07H16l0,.08Zm0-.07H13.38v0l2.6,0v0Z"/><rect class="cls-59" x="13.35" y="10.78" width="2.68" height="0.06"/><path d="M16,10.85H13.35v-.07H16v.08Zm0-.07H13.35v.05H16v-.05Z"/><rect class="cls-59" x="13.32" y="10.84" width="2.73" height="0.06"/><path d="M16.07,10.91H13.32v-.07h2.75v.08Zm0-.07H13.32v.05l2.72,0v0Z"/><rect class="cls-59" x="13.31" y="10.9" width="2.76" height="0.06"/><path d="M16.08,11H13.31V10.9l2.77,0V11Zm0-.07H13.31v0h2.74v0Z"/><rect class="cls-59" x="13.4" y="11.13" width="2.58" height="0.06"/><path d="M16,11.21H13.4v-.08H16v.09Zm0-.08H13.4v0H16v0Z"/><rect class="cls-59" x="13.38" y="11.07" width="2.63" height="0.06"/><path d="M16,11.14H13.38v-.07H16l0,.08Zm0-.07H13.38v.05H16v0Z"/><rect class="cls-59" x="13.35" y="11.02" width="2.68" height="0.06"/><path d="M16,11.08H13.35V11L16,11v.08ZM16,11H13.35v0H16v0Z"/><rect class="cls-59" x="13.32" y="10.95" width="2.73" height="0.06"/><path d="M16.07,11H13.32V11h2.75V11Zm0-.08-2.73,0v0l2.72,0V11Z"/><path class="cls-16" d="M13.73,11.22l.56-.57s.07,0,.07,0l-.5.56a.18.18,0,0,1-.13,0Z"/><path d="M13.79,11.24h-.06a.25.25,0,0,0,.12,0l.45-.5-.43.52Zm0,0,0,0,.56-.57a.11.11,0,0,1,.08,0v0h-.06l-.55.57Z"/><path class="cls-16" d="M13.8,10.66s0,0,.07,0l.51.54s0,.05-.07,0l-.51-.54Z"/><path d="M14.36,11.24l-.06,0-.53-.56.06,0,0,0,.54.56-.05,0Zm-.53-.6,0,0,.51.54h0v0l-.54-.56Z"/><path class="cls-8" d="M13.65,11.2a.8.8,0,0,1,0-.54H13.6a.74.74,0,0,0,0,.54Z"/><path d="M13.66,11.21h-.07a.76.76,0,0,1,0-.56h.07a1,1,0,0,0,0,.55Zm0-.56-.05,0a.87.87,0,0,0,0,.53h0a.85.85,0,0,1,0-.54Z"/><path class="cls-8" d="M15.76,11.2a.8.8,0,0,0,0-.54h.06a.8.8,0,0,1,0,.54Z"/><path d="M15.83,11.21h-.07a1,1,0,0,0,0-.55h.07a.78.78,0,0,1,0,.56Zm0-.55h-.05a.7.7,0,0,1,0,.54h0a.88.88,0,0,0,0-.54Z"/><rect class="cls-16" x="14.81" y="10.66" width="0.09" height="0.55"/><path d="M14.91,11.21h-.1v-.55h.1v.56Zm0-.55h-.08l0,.53h.06v-.53Z"/><path class="cls-16" d="M15.65,11.22l-.55-.57s-.08,0-.08,0l.5.56a.18.18,0,0,0,.13,0Z"/><path d="M15.57,11.24h-.05L15,10.66a.1.1,0,0,1,.09,0l.56.58,0,0h0l-.06,0Zm0,0a.16.16,0,0,0,.1,0l-.54-.56H15l.49.56Z"/><path class="cls-8" d="M15.59,10.66s0,0-.08,0L15,11.2s0,.05.07,0l.52-.54Z"/><path d="M15,11.24h0l0,0,.52-.56a.07.07,0,0,1,.09,0l-.52.56-.06,0Zm.56-.59s-.05,0-.06,0l-.51.54h0l.05,0,.51-.54Z"/><path d="M14.8,7.09s0,0,0,0,0,0,0,0a.08.08,0,0,0,0,0v.05h0s0,0,0,0,0,0,0,0h0s0,0,0,0a0,0,0,0,0,0,0s0,0,0,0-.06,0,0,0h0s0,0,0,0h0s0,0,0,0h-.08v0h.09s0,0-.05,0Zm0,.07h0Z"/><path d="M14.61,7.08l0,0h.05l0,0,0,0h0s0,0,0,0l-.08,0Z"/><path d="M14.63,7.14h0s0,0,0,0h0l0,0h0Zm0,0h0Z"/><path d="M14.67,7.18h-.05a0,0,0,0,0,.05,0h0Z"/><path d="M14.69,7.26s0,0,0,0h.08s0,0,0,0h.05v0s0,0,0,0h0s-.07,0-.07,0Z"/><path d="M14.75,7.32h0s0,0,0,0Z"/><path d="M14.69,7.35l0,0,0,0h-.09Z"/><rect x="14.54" y="9.45" width="0.04" height="0.37"/><path class="cls-8" d="M14.72,9.37h0l0,0h0l0,0a0,0,0,0,1,0,0s0,.05,0,.06l0,0h0Z"/><path d="M14.74,9.4l0,0,0,0h0v0h0l0,0,.05,0a.09.09,0,0,1,0,0s0,0,0,0Z"/><polygon class="cls-8" points="14.73 9.81 14.73 9.17 14.72 9.16 14.72 9.81 14.73 9.81"/><polygon points="14.74 9.82 14.71 9.82 14.71 9.16 14.74 9.17 14.74 9.82 14.74 9.82"/><path class="cls-8" d="M14.66,9.29s0,0,0,0,0,0,0,0h0l0,0s0,0,.05,0a0,0,0,0,1,0,0l0,0V9.42s0,0,0,0l-.06,0s0,0,0-.06Z"/><path d="M14.73,9.48h0v0l0,0,0,0s0,0,0,0h0l0,0a.07.07,0,0,0,0,.05l0,0,0,0h.06l0,0v0h0s0,0,0,0a0,0,0,0,1,0,0l0,0Z"/><path class="cls-8" d="M14.72,9.73l-.05,0,.05,0v0Z"/><path class="cls-1" d="M14.72,9.73l-.05,0,.05,0v0Z"/><path class="cls-8" d="M14.72,9.62s0,0,0,.06a.11.11,0,0,0,.05.08l0,0-.06-.06a0,0,0,0,1,0-.07v0Z"/><path d="M14.77,9.79l0,0h0a.11.11,0,0,1-.05-.08s0,0,0-.07h0v.05s0,0,0,.06l0,0s0,0,0,0h0l0,0v0Z"/><path class="cls-8" d="M14.72,9.45a.15.15,0,0,0-.05.09c0,.06,0,.08.05.1s0,0,0,.08v0h0a.13.13,0,0,0,0-.06s0,0,0-.07,0,0,0-.06a.14.14,0,0,1,0-.07v0Z"/><path d="M14.74,9.75h0v0h0a.1.1,0,0,0,0-.08s-.06-.06-.06-.11a.19.19,0,0,1,0-.09h0v0a.14.14,0,0,0,0,.07.06.06,0,0,0,0,0s0,.05,0,.08a.15.15,0,0,1,0,.07Z"/><path class="cls-8" d="M14.72,9.4h0a0,0,0,0,0,0,0l0,.05s0,0,0,.06a.08.08,0,0,1,0,.06h0s0,0,0-.09a.19.19,0,0,0-.06-.08v0s0,0,0,0h0Z"/><path d="M14.73,9.63h0a.19.19,0,0,0,0-.07s0,0,0-.05l0,0a.1.1,0,0,1,0-.08h0v.07h0a.26.26,0,0,1,.06.09.15.15,0,0,1,0,.08Z"/><polygon class="cls-8" points="14.82 9.71 14.82 9.61 14.89 9.67 14.82 9.67 14.82 9.71 14.82 9.71"/><polygon class="cls-1" points="14.82 9.71 14.82 9.61 14.89 9.67 14.82 9.67 14.82 9.71 14.82 9.71"/><rect class="cls-8" x="14.8" y="9.71" width="0.08" height="0.03"/><rect class="cls-1" x="14.8" y="9.71" width="0.08" height="0.03"/><rect class="cls-8" x="14.78" y="9.74" width="0.12" height="0.07"/><polygon points="14.91 9.82 14.78 9.82 14.76 9.74 14.9 9.73 14.91 9.82 14.91 9.82"/><polygon class="cls-8" points="14.95 9.71 14.95 9.61 15.01 9.67 14.95 9.67 14.95 9.71 14.95 9.71"/><polygon class="cls-1" points="14.95 9.71 14.95 9.61 15.01 9.67 14.95 9.67 14.95 9.71 14.95 9.71"/><rect class="cls-8" x="14.92" y="9.71" width="0.09" height="0.03"/><rect class="cls-1" x="14.92" y="9.71" width="0.08" height="0.03"/><rect class="cls-8" x="14.9" y="9.74" width="0.13" height="0.07"/><path d="M14.9,9.82V9.77l-.07.05.07-.06v0h0a.7.7,0,0,0,.16-.25h0v0h.07v0H15.1l0,0,0,.2.2,0,0,.07h0v0h0v.06l0-.06h0v0l0,0h0v0l0,0h0v0h0V9.53a1.05,1.05,0,0,1-.15.21H15v.08Z"/><rect x="14.4" y="9.76" width="0.06" height="0.06"/><rect class="cls-1" x="14.4" y="9.76" width="0.06" height="0.06"/><path class="cls-3" d="M14.17,9.78s.16.12.18.15h.19a2.33,2.33,0,0,1,.28.05A.45.45,0,0,0,15,10l.15,0a.45.45,0,0,0,.18-.19s-.38.05-.53.05a3.87,3.87,0,0,1-.61,0Z"/><path d="M14.87,10h0a1.26,1.26,0,0,0-.28,0h-.19a.59.59,0,0,0-.11-.09l-.08-.07h0a2.61,2.61,0,0,0,.5,0h.1c.15,0,.52,0,.53,0a.39.39,0,0,1-.18.2A.26.26,0,0,0,15,10l-.14,0Zm-.4-.06h.07a1.35,1.35,0,0,1,.28,0A.22.22,0,0,0,15,10a.43.43,0,0,1,.15,0,.39.39,0,0,0,.17-.19,3.75,3.75,0,0,1-.52.05h-.1a3.63,3.63,0,0,1-.5,0l.06,0,.12.09Z"/><polygon class="cls-8" points="14.61 9.25 14.8 9.25 14.85 9.21 14.66 9.21 14.61 9.25"/><path d="M14.8,9.26h-.19l.05,0h.19l0,.06Zm0,0h-.18l0,0,.18,0,0,0Z"/><path class="cls-1" d="M15.33,9.59l0,.11Z"/><polygon class="cls-3" points="15.33 9.57 15.44 9.6 15.42 9.65 15.31 9.62 15.33 9.57"/><polygon class="cls-1" points="15.33 9.57 15.44 9.6 15.42 9.65 15.31 9.62 15.33 9.57"/><polygon class="cls-4" points="15.32 9.6 15.43 9.63 15.42 9.65 15.31 9.62 15.32 9.6"/><polygon class="cls-5" points="15.32 9.61 15.42 9.64 15.42 9.65 15.31 9.62 15.32 9.61"/><rect class="cls-16" x="14.56" y="10.65" width="0.08" height="0.55"/><path d="M14.65,11.21h-.09v-.56h.09v.57Zm0-.56h-.07v.54h.06v-.54Z"/><path class="cls-16" d="M11.29,5.67c.1.2.14.21.29.26s.23.11,0,.09-.1.06,0,.09a.23.23,0,0,0,.3-.1c.07-.12.07-.17,0-.26s-.1-.12-.07,0,0,.16-.1,0a.56.56,0,0,0-.35-.24l-.18,0a1.46,1.46,0,0,0,.1.2Z"/><path d="M11.7,6.15l-.1,0s-.13,0-.12-.08,0,0,.11,0h.13a.39.39,0,0,0-.14-.07c-.16-.05-.2-.06-.3-.26l0-.08c-.06-.12-.06-.13-.06-.14a.42.42,0,0,1,.19,0,.55.55,0,0,1,.36.25c.07.13.09.14.09.14s0,0,0-.12a.54.54,0,0,1,0-.11s0,0,.1.07.11.17,0,.29a.26.26,0,0,1-.22.13ZM11.55,6H11.5s0,0,.11.06A.22.22,0,0,0,11.9,6c.07-.12.07-.16,0-.26s-.08-.07-.08-.08l0,.08c0,.12,0,.15,0,.16s-.05,0-.13-.15a.5.5,0,0,0-.31-.23,1,1,0,0,0-.21,0s0,0,.07.11l0,.08c.1.19.13.2.27.25s.17.07.17.09,0,0-.15,0Z"/><path d="M11.66,6h0A.16.16,0,0,0,11.79,6a.14.14,0,0,0,0-.1.14.14,0,0,1,0,.1.16.16,0,0,1-.13.06Z"/><path class="cls-16" d="M18.16,5.68c-.1.2-.13.21-.28.26s-.24.11,0,.09.11.06,0,.09a.22.22,0,0,1-.3-.1.18.18,0,0,1,0-.27c.11-.11.11-.11.08,0s0,.17.1,0a.53.53,0,0,1,.35-.24.69.69,0,0,1,.17,0,.72.72,0,0,1-.1.2Z"/><path d="M17.75,6.16A.26.26,0,0,1,17.54,6c-.08-.12-.08-.18,0-.28s.09-.09.1-.09,0,0,0,.1,0,.14,0,.14,0,0,.09-.14a.5.5,0,0,1,.32-.24l.21-.06s0,0-.06.17l0,.06c-.1.19-.13.21-.28.26s-.15.06-.15.07h0a.36.36,0,0,0,.12,0C17.92,6,18,6,18,6s-.08.08-.13.1l-.1,0Zm-.11-.48-.06.07c-.09.11-.09.15,0,.27a.21.21,0,0,0,.28.09c.08,0,.12-.05.12-.06h-.1c-.1,0-.14,0-.14,0s0-.06.15-.09.19-.06.28-.25l0-.06a.43.43,0,0,0,.07-.14l-.16,0a.53.53,0,0,0-.34.24c-.08.16-.1.16-.12.16s0,0,0-.16a.44.44,0,0,0,0-.09Z"/><path class="cls-3" d="M13.78,7.46l-.09-.09h0l0,0a0,0,0,0,1,0,0l0,0a0,0,0,0,1,0,0l.08.09,0-.12,0,0a0,0,0,0,1,0,0h0l0,0h0v0h0v0l0,.12Z"/><path class="cls-1" d="M14.08,7.25s0,0,0,0,0,0,0,0,0,0,0,0S14.06,7.26,14.08,7.25Z"/><path class="cls-3" d="M14.06,7.26A.08.08,0,0,1,14,7.2a.07.07,0,0,0,.1,0,.07.07,0,0,0,0-.08h0a.08.08,0,0,1-.05.09Z"/><path class="cls-1" d="M15.5,7.19h-.07a.1.1,0,0,1,0,0Z"/><path class="cls-1" d="M15.45,7.33a.11.11,0,0,0,0,0h-.06Z"/><path class="cls-3" d="M15.43,7.32h0l0-.1s0,0,0,0v0h.06l0,.13Z"/><path class="cls-3" d="M15.73,7.47h0s-.05,0-.06-.06a.08.08,0,0,0,.07,0,.07.07,0,0,0,.08,0h0a.09.09,0,0,1-.09,0Zm.09-.11a.09.09,0,0,0-.08,0,.05.05,0,0,0-.06,0h0s0,0,.08,0h0a.08.08,0,0,1,.07.05Z"/><path class="cls-1" d="M15.78,7.37s0,0,0,0a0,0,0,0,1,0,0s0,0,0,0A0,0,0,0,1,15.78,7.37Z"/><path class="cls-1" d="M15.71,7.33a0,0,0,0,1,0,0s0,0,0,0a0,0,0,0,1,0,0S15.69,7.33,15.71,7.33Z"/></g></g></g></g></g></g></svg>