<svg xmlns="http://www.w3.org/2000/svg" xmlns:xlink="http://www.w3.org/1999/xlink" viewBox="0 0 29.52 17.25"><defs><style>.cls-1{fill:none;}.cls-2{clip-path:url(#clip-path);}.cls-3{fill:#fff;}.cls-4{fill:#bc0030;}.cls-5{fill:#f0c727;}.cls-6{fill:#f4d134;}</style><clipPath id="clip-path" transform="translate(0.03 0.03)"><rect class="cls-1" width="29.46" height="17.19"/></clipPath></defs><g id="Layer_2" data-name="Layer 2"><g id="cá»"><g id="north_africa" data-name="north africa"><g class="cls-2"><rect x="0.03" y="11.49" width="29.46" height="5.73"/><g class="cls-2"><path d="M29.49,17.22H0V11.43H29.49v5.79ZM0,17.16h29.4V11.49H0v5.67Z" transform="translate(0.03 0.03)"/></g><rect class="cls-3" x="0.03" y="5.76" width="29.46" height="5.73"/><g class="cls-2"><path class="cls-3" d="M29.49,11.49H0V5.7H29.49v5.79ZM0,11.43h29.4V5.76H0v5.67Z" transform="translate(0.03 0.03)"/></g><rect class="cls-4" x="0.03" y="0.03" width="29.46" height="5.73"/><g class="cls-2"><path class="cls-4" d="M29.49,5.76H0V0H29.49V5.76ZM0,5.7h29.4V0H0V5.7Z" transform="translate(0.03 0.03)"/><path class="cls-3" d="M14.57,11.31A6.59,6.59,0,0,0,16,11.18c.13,0,.13-.1.13-.19s.06-.2.16-.2c-.1,0-.12-.16-.23-.13,0-.16-.16-.18-.29-.14a4.45,4.45,0,0,1-1.19.11,5.47,5.47,0,0,1-1.19-.11c-.14,0-.3,0-.3.14-.11,0-.13.16-.22.13.09,0,0,.16.16.2s0,.16.13.19a6.53,6.53,0,0,0,1.42.13Z" transform="translate(0.03 0.03)"/><path class="cls-5" d="M14.57,11.37a5.63,5.63,0,0,1-1.43-.14c-.16,0-.18-.12-.18-.2a.2.2,0,0,1-.09-.15,0,0,0,0,1,0,0h0a.08.08,0,0,1,0-.07.07.07,0,0,1,.06,0h0l.05,0a.18.18,0,0,1,.11-.1c0-.13.19-.18.36-.13a4.49,4.49,0,0,0,.94.1h.24a4.25,4.25,0,0,0,1.17-.11c.17-.06.33,0,.36.14a.19.19,0,0,1,.12.09l0,0h0s0,0,0,0a.06.06,0,0,1,0,.07h0s0,0,0,0a.22.22,0,0,1-.1.15.18.18,0,0,1-.17.2,5.74,5.74,0,0,1-1.43.14ZM13,10.81a.08.08,0,0,1,0,0c0,.05,0,.08.06.09a.05.05,0,0,1,0,.05c0,.09,0,.12.09.13a5.65,5.65,0,0,0,1.41.13,5.56,5.56,0,0,0,1.4-.13c.09,0,.09,0,.09-.13a.07.07,0,0,1,0-.05s0,0,.06-.09,0,0,0,0l0-.05s0,0-.06,0H16l0,0s0-.1-.11-.1l-.1,0a4.66,4.66,0,0,1-1.21.11h-.25a4.16,4.16,0,0,1-1-.1l-.1,0c-.12,0-.12.07-.12.1a.08.08,0,0,1,0,0,0,0,0,0,1,0,0s0,0-.07,0a.1.1,0,0,1,0,.05Z" transform="translate(0.03 0.03)"/><path class="cls-6" d="M13.29,10.75s0,0,0,0,0,0,0,0Z" transform="translate(0.03 0.03)"/><path class="cls-5" d="M13.29,10.8c-.06,0-.07,0-.07,0s0,0,.07,0,0,0,0,0,0,0,0,0Z" transform="translate(0.03 0.03)"/><path class="cls-6" d="M13.29,10.66a0,0,0,1,0,0,0s0,0,0,0Z" transform="translate(0.03 0.03)"/><path class="cls-5" d="M13.29,10.73a0,0,0,0,1,0-.1s.06,0,.06,0,0,.05-.06.05Z" transform="translate(0.03 0.03)"/><path class="cls-6" d="M13.29,11a0,0,0,0,0,0,0s0,0,0,0Z" transform="translate(0.03 0.03)"/><path class="cls-5" d="M13.29,11.07s0,0,0-.05,0-.06,0-.06,0,0,0,.06,0,.05,0,.05Z" transform="translate(0.03 0.03)"/><path class="cls-6" d="M13.38,11c-.05,0-.05,0,0,0s0,0,0,0Z" transform="translate(0.03 0.03)"/><path class="cls-5" d="M13.38,11.09c-.05,0-.07,0-.07-.05s0,0,.07,0a.07.07,0,0,1,0,0s0,.05,0,.05Z" transform="translate(0.03 0.03)"/><path class="cls-6" d="M13.47,11s0,0,0,0,0,0,0,0Z" transform="translate(0.03 0.03)"/><path class="cls-5" d="M13.47,11.11a.05.05,0,1,1,0-.1s.06,0,.06.05,0,0-.06,0Z" transform="translate(0.03 0.03)"/><path class="cls-6" d="M14.86,10.82s0,0,0,0,0,0,0,0Z" transform="translate(0.03 0.03)"/><path class="cls-5" d="M14.86,10.89s0,0,0-.05a.05.05,0,1,1,.1,0s0,.05-.05.05Z" transform="translate(0.03 0.03)"/><path class="cls-6" d="M14.88,10.9s0,0,0,0,0,0,0,0Z" transform="translate(0.03 0.03)"/><path class="cls-1" d="M14.88,10.9s0,0,0,0S14.9,10.9,14.88,10.9Z" transform="translate(0.03 0.03)"/><path class="cls-6" d="M15,11.13s0,0,0,0,0,0,0,0Z" transform="translate(0.03 0.03)"/><path class="cls-5" d="M15,11.21s0,0,0-.06,0-.05,0-.05a.12.12,0,0,1,.05.05.1.1,0,0,1-.05.06Z" transform="translate(0.03 0.03)"/><path class="cls-6" d="M15,11.13s0,0,0,0,0,0,0,0Z" transform="translate(0.03 0.03)"/><path class="cls-5" d="M15,11.21a.07.07,0,0,1-.07-.06s0-.05.07-.05.05,0,.05.05a.06.06,0,0,1-.05.06Z" transform="translate(0.03 0.03)"/><path class="cls-6" d="M16,11s0,0,0,0,0,0,0,0Z" transform="translate(0.03 0.03)"/><path class="cls-5" d="M16,11c-.06,0-.06,0-.06,0s0,0,.06,0,.05,0,.05,0,0,0-.05,0Z" transform="translate(0.03 0.03)"/><path class="cls-5" d="M13.53,11h0a.11.11,0,0,1-.07,0h-.07s-.06,0-.06-.1,0-.11.05-.17l0-.06s0,0,0,0,0,0,0,0l0,.05a.8.8,0,0,1-.06.17l0,0h.05a.08.08,0,0,1,0,0s0-.06,0-.07,0,0,0,0h0v0h0a.35.35,0,0,1,0,.06h0s0,0,0,0,0,0,0-.07h0l0,0,0,0s0,0,0,.05a.17.17,0,0,1-.06.12Z" transform="translate(0.03 0.03)"/><path class="cls-5" d="M13.35,11h0c-.06,0-.11-.06-.11-.1s0-.06.1-.07,0,0,0,0a.05.05,0,0,1,0,0h-.05s0,0,.07,0,0,0,0,0,0,0,0,0Z" transform="translate(0.03 0.03)"/><path class="cls-5" d="M14,11.16h0s-.05,0-.05-.09,0,0-.05,0a.26.26,0,0,1-.17,0l0,0s0,0,0,0,0,0,0,0a.08.08,0,0,0,0,0,.07.07,0,0,1,0,0,0,0,0,0,1,0-.06.06.06,0,0,1,.08.05v0h.09a.1.1,0,0,1,0-.1.1.1,0,0,1,.11-.05.11.11,0,0,1,.06.09.12.12,0,0,1,0,.08l0,0c0,.06,0,.06,0,.06h0s0,0,0-.08v-.2a0,0,0,0,1,.06,0V11c0,.05,0,.13-.07.14Z" transform="translate(0.03 0.03)"/><path class="cls-5" d="M14.12,11.09a0,0,0,0,1,0,0,.66.66,0,0,1,0-.13.45.45,0,0,0,0-.11,0,0,0,0,1,.06,0,.57.57,0,0,1,0,.12.53.53,0,0,0,0,.12,0,0,0,0,1,0,0Z" transform="translate(0.03 0.03)"/><path class="cls-5" d="M14.19,11.23l0,0s0,0,0,0a.23.23,0,0,0,.07-.08l0,0s0-.06,0-.07l0,0s0,0,.06.06v0h0s0,0,0,0a.05.05,0,0,1,0,0s0-.05,0-.05,0,0,0,0h0a.18.18,0,0,0,.16,0c.06,0,.08,0,.08.09l0,0s0,.07-.06.07-.05,0-.07,0,0,0,0,0h-.19a.23.23,0,0,1-.08.11Zm.2-.18h.09c.08,0,.09,0,.09.08l0-.05V11a.27.27,0,0,1-.18,0h0v0Z" transform="translate(0.03 0.03)"/><path class="cls-5" d="M14.73,11.11h-.06s-.05,0-.05,0,0,0,0,0v0h0a.06.06,0,0,1,0-.06.06.06,0,0,1,.07,0,.07.07,0,0,1,0,.07c0,.05-.06.07-.09.07Z" transform="translate(0.03 0.03)"/><path class="cls-5" d="M14.91,11.11h0s0,0,0,0a.18.18,0,0,1,.08-.06.37.37,0,0,0,0-.18s0,0,0,0,0,0,0,0A.72.72,0,0,1,15,11h0s0,0,0,0a.11.11,0,0,1,0-.06l0,0s0,0,0,0v0h0c0,.09,0,.11-.1.11a.06.06,0,0,1-.07,0h0l-.05,0Z" transform="translate(0.03 0.03)"/><path class="cls-5" d="M15.18,11.18h0a0,0,0,0,1,0,0,.22.22,0,0,0,0-.08.08.08,0,0,1,0-.08s0-.05,0-.06a.07.07,0,0,1,.08,0,.21.21,0,0,1-.06.22Z" transform="translate(0.03 0.03)"/><path class="cls-5" d="M15.33,11.14a0,0,0,0,1,0,0s0,0,0,0l0,0s-.06,0-.07,0a.08.08,0,0,1,.05-.09h.05a.09.09,0,0,1,0,.08,1,1,0,0,0,.27-.09,0,0,0,0,1,0,0s0,0,0,0a.78.78,0,0,1-.3.09.14.14,0,0,1-.09.1Z" transform="translate(0.03 0.03)"/><path class="cls-5" d="M15.6,11.05h0a.36.36,0,0,1,0-.09,0,0,0,0,0,0,0,0,0,0,1,1-.06,0,.12.12,0,0,1,0-.1v0l0-.09a.05.05,0,0,1,0,0l0,0,0,.1h.06s.06.05.06.08a.09.09,0,0,1,0,.08l-.06,0Z" transform="translate(0.03 0.03)"/><path class="cls-5" d="M15.77,11a.08.08,0,0,1-.08-.06s0,0,0,0a.13.13,0,0,1,.18,0,.11.11,0,0,1,0,.08.12.12,0,0,1-.1.05Z" transform="translate(0.03 0.03)"/><path class="cls-1" d="M15.85,10.9l.07,0Z" transform="translate(0.03 0.03)"/><path class="cls-5" d="M16,10.91h0c-.05,0-.08-.09-.08-.2s0,0,0,0,0,0-.06,0h0a0,0,0,0,1,0,0,.11.11,0,0,1,.13,0,.09.09,0,0,1,.05.09c0,.09,0,.14,0,.15h0s0,0,.05,0,0,0,0,.06a.17.17,0,0,1-.1.05Z" transform="translate(0.03 0.03)"/><path class="cls-1" d="M13.78,10.92h0Z" transform="translate(0.03 0.03)"/><path class="cls-1" d="M13.94,11h0Z" transform="translate(0.03 0.03)"/><path class="cls-3" d="M14.59,8.73l1.93,1.79-.13-3.26c0-.49-.45-.38-.77-.2a1.17,1.17,0,0,1-1,.07,1.19,1.19,0,0,1-1.06-.07c-.31-.18-.74-.29-.76.2l-.14,3.26Z" transform="translate(0.03 0.03)"/><path class="cls-5" d="M12.61,10.55h0s0,0,0,0l.14-3.26c0-.31.19-.38.33-.38a1.09,1.09,0,0,1,.48.16,1.14,1.14,0,0,0,1,.06,1.18,1.18,0,0,0,1-.06,1,1,0,0,1,.47-.16c.15,0,.32.07.34.38l.13,3.26s0,0,0,0h0L14.59,8.77l-2,1.78Zm.44-3.61c-.17,0-.26.11-.27.32l-.14,3.19,1.93-1.74a0,0,0,0,1,0,0l1.88,1.74-.13-3.19c0-.36-.31-.41-.72-.17a1.22,1.22,0,0,1-1.08.07,1.21,1.21,0,0,1-1.07-.07.89.89,0,0,0-.44-.15Z" transform="translate(0.03 0.03)"/><path class="cls-3" d="M14.88,7.24a.54.54,0,0,0,.3.07,1,1,0,0,1-.28-.76c0-.36,0-.57-.26-.61-.05,0-.07,0-.16,0s-.12,0-.15.08-.12,0-.19-.06-.18,0-.18.16l0,0,.11,0a.31.31,0,0,1,.17.23,1,1,0,0,1-.32.95.51.51,0,0,0,.29-.07.53.53,0,0,1-.11.14.41.41,0,0,0,.31-.18l.12.15s.09-.11.11-.15a.45.45,0,0,0,.31.18l-.11-.14Z" transform="translate(0.03 0.03)"/><path class="cls-5" d="M14.06,7.42l.06-.06.05-.05a.61.61,0,0,1-.21,0h-.07l0,0a1,1,0,0,0,.31-.92.28.28,0,0,0-.13-.2l0,0-.09,0-.07,0v0c0-.18.13-.22.22-.19l.09,0,.08,0a.18.18,0,0,1,.13-.09l.14,0h.05c.24,0,.34.26.29.64a.91.91,0,0,0,.26.73l.07.06h-.08a.56.56,0,0,1-.21,0l0,.05.07.06L15,7.4a.46.46,0,0,1-.31-.15l0,0a.21.21,0,0,0-.06.08l0,0,0,0a.35.35,0,0,0,0-.08l0,0a.44.44,0,0,1-.3.15l-.09,0Zm.62-.28,0,0a.32.32,0,0,0,.2.15l-.05-.07,0,0a.56.56,0,0,0,.2.06,1.06,1.06,0,0,1-.22-.74c0-.34,0-.53-.25-.57h-.05l-.11,0a.13.13,0,0,0-.11.08l0,0h0l-.09,0a.21.21,0,0,1-.1,0,.11.11,0,0,0-.14.09h0a.25.25,0,0,1,.11,0l.05,0a.29.29,0,0,1,.15.23,1,1,0,0,1-.27.92.61.61,0,0,0,.21-.06l0,0,0,.07a.31.31,0,0,0,.21-.15l0,0,0,0a.35.35,0,0,0,0,.08l0,0,0,0,.06-.08,0,0Z" transform="translate(0.03 0.03)"/><path class="cls-5" d="M14.9,7.29h0a.93.93,0,0,1-.13-.47s.06,0,.06,0a1,1,0,0,0,.12.44,0,0,0,0,1,0,0Z" transform="translate(0.03 0.03)"/><path class="cls-5" d="M14.68,7.23l0,0a.75.75,0,0,1-.08-.4s.06,0,.06,0a.74.74,0,0,0,.07.37s0,0,0,0Z" transform="translate(0.03 0.03)"/><path class="cls-5" d="M14.24,7.29h0s0,0,0,0a1,1,0,0,0,.12-.44s.06,0,.06,0a.93.93,0,0,1-.13.47Z" transform="translate(0.03 0.03)"/><path class="cls-5" d="M14.45,7.23a0,0,0,0,1,0,0s0,0,0,0a.77.77,0,0,0,.06-.37s.06,0,.06,0a.77.77,0,0,1-.07.4l0,0Z" transform="translate(0.03 0.03)"/><path class="cls-5" d="M14,6.08s.07,0,.14,0a.32.32,0,0,1,.17.21c0-.06,0-.13.06-.11A.29.29,0,0,0,14,6.08Z" transform="translate(0.03 0.03)"/><path class="cls-5" d="M14.28,6.36h0v0h0a.29.29,0,0,0-.16-.18l0,0h0a.19.19,0,0,0-.1,0,.09.09,0,0,1,.09,0,.34.34,0,0,1,.3.18s0,0,0,0h0s0,0,0,.07h0v0s0,0,0,0ZM14,6.08l.06,0,0,0a.32.32,0,0,1,.15.14l0,0,0,0a.29.29,0,0,0-.3-.13Z" transform="translate(0.03 0.03)"/><polygon class="cls-5" points="14.69 9.12 14.96 10.35 14.87 10.44 14.78 10.37 14.62 9.27 14.69 10.37 14.6 10.48 14.51 10.37 14.57 9.27 14.42 10.37 14.33 10.44 14.24 10.35 14.51 9.12 14.69 9.12"/><path class="cls-5" d="M14.57,10.5l-.11-.14,0-.53-.08.52-.1.08-.12-.09.26-1.26.21,0L15,10.32l-.09.11-.13-.07-.08-.54,0,.52-.11.16Zm0-1.24-.07,1.08.07.08.07-.09-.07-1.07Zm.06-.17-.15,0-.25,1.22.08.06.06-.07.15-1.08h.1l.15,1.1.08.05.06-.09-.28-1.21Z" transform="translate(0.03 0.03)"/><path class="cls-5" d="M13,7.15l-.13,3.17-.23.2.14-3.26A.75.75,0,0,1,13,7.15Z" transform="translate(0.03 0.03)"/><path class="cls-5" d="M13.24,7.38,13.13,10l-.23.23L13,7.2s.18.15.2.18Z" transform="translate(0.03 0.03)"/><path class="cls-5" d="M13.49,7.58,13.4,9.79l-.18.18.11-2.52a1.26,1.26,0,0,1,.16.13Z" transform="translate(0.03 0.03)"/><path class="cls-5" d="M13.76,7.69l-.09,1.89-.18.14.09-2.1a.56.56,0,0,0,.18.07Z" transform="translate(0.03 0.03)"/><path class="cls-5" d="M14,7.69l-.06,1.57-.18.18.07-1.73a.44.44,0,0,0,.17,0Z" transform="translate(0.03 0.03)"/><path class="cls-5" d="M16.16,7.15l.14,3.17.22.2-.13-3.26a.79.79,0,0,0-.23-.11Z" transform="translate(0.03 0.03)"/><path class="cls-5" d="M15.89,7.38,16,10l.22.2-.14-3-.2.18Z" transform="translate(0.03 0.03)"/><path class="cls-5" d="M15.65,7.58l.09,2.21.18.15L15.8,7.45s-.13.1-.15.13Z" transform="translate(0.03 0.03)"/><path class="cls-5" d="M15.38,7.69l.09,1.85.18.15-.09-2.07a.83.83,0,0,1-.18.07Z" transform="translate(0.03 0.03)"/><path class="cls-5" d="M15.13,7.69l.07,1.57.18.18-.07-1.73a.47.47,0,0,1-.18,0Z" transform="translate(0.03 0.03)"/><polygon class="cls-3" points="13.99 8.57 13.45 10.48 14.19 10.6 14.51 9.16 13.99 8.57"/><path class="cls-5" d="M14.16,10.6h0l-.74-.12h0s0,0,0,0l.54-1.91,0,0h0l.52.59-.31,1.46a0,0,0,0,1,0,0Zm-.7-.17.68.11.31-1.42L14,8.6l-.51,1.83Z" transform="translate(0.03 0.03)"/><polygon class="cls-3" points="15.21 8.57 15.74 10.48 15 10.6 14.69 9.16 15.21 8.57"/><path class="cls-5" d="M15,10.6s0,0,0,0l-.32-1.43.52-.62h0l0,0,.54,1.91v0h0L15,10.6Zm.19-2-.48.55L15,10.54l.69-.11L15.16,8.6Z" transform="translate(0.03 0.03)"/><path class="cls-5" d="M13.85,9.38h0l0,0-.07-.15s0,0,0,0,0,0,0,0l0,.12L14,9.11h0a0,0,0,0,1,0,0l-.2.22Z" transform="translate(0.03 0.03)"/><path class="cls-5" d="M14.1,9.52h0l0,0L14,8.86a0,0,0,1,1,.06,0l.06.55.18-.23s0,0,0,0a0,0,0,0,1,0,0l-.22.3Z" transform="translate(0.03 0.03)"/><path class="cls-5" d="M14.36,9.67h0l-.14-.34s0,0,0,0,0,0,0,0l.13.33s0,0,0,0Z" transform="translate(0.03 0.03)"/><path class="cls-5" d="M14.16,10h0l0,0L14,9.63,14,9.77l0,0,0,0-.08-.18-.16.15a0,0,0,0,1,0,0s0,0,0,0l.2-.18h0l.07.17L14,9.54h0l0,0,.1.31.14-.15a0,0,0,0,1,0,0,0,0,0,0,1,0,0l-.19.18Z" transform="translate(0.03 0.03)"/><path class="cls-5" d="M14.23,10.35l0,0,0-.28-.14.18h0l0,0L13.88,10l-.12.16h0l0,0-.14-.34s0,0,0,0,0,0,0,0l.12.29.12-.16h0l0,0,.08.22.14-.19h0s0,0,0,0l.07.34s0,0,0,0Z" transform="translate(0.03 0.03)"/><path class="cls-5" d="M14.05,10.6h0l0,0L14,10.37l-.1.17a0,0,0,0,1,0,0s0,0,0,0l-.1-.24-.1.14h0s0,0,0,0l.14-.18s0,0,0,0a0,0,0,0,1,0,0l.09.24.1-.18h0l0,0,.07.23.11-.09a0,0,0,0,1,0,0,0,0,0,0,1,0,0l-.14.11Z" transform="translate(0.03 0.03)"/><path class="cls-5" d="M15.29,9.38s0,0,0,0l-.21-.22a0,0,0,0,1,0,0h0l.17.19.05-.12a0,0,0,0,1,0,0s0,0,0,0l-.06.15,0,0Z" transform="translate(0.03 0.03)"/><path class="cls-5" d="M15,9.52h0l-.23-.3a0,0,0,0,1,.05,0l.18.23.06-.55a0,0,0,0,1,0,0,0,0,0,0,1,0,0l-.07.63,0,0Z" transform="translate(0.03 0.03)"/><path class="cls-5" d="M14.77,9.67h0s0,0,0,0l.14-.33s0,0,0,0,0,0,0,0l-.13.34Z" transform="translate(0.03 0.03)"/><path class="cls-5" d="M15,10h0l-.18-.18a0,0,0,1,1,.05,0l.14.15L15,9.55s0,0,0,0,0,0,0,0l.1.15.07-.17h.05l.2.18a0,0,0,0,1,0,0,0,0,0,0,1,0,0l-.17-.15-.08.18a0,0,0,0,1,0,0l0,0-.1-.14L15,9.92l0,0Z" transform="translate(0.03 0.03)"/><path class="cls-5" d="M14.9,10.35h0a0,0,0,0,1,0,0l.07-.34,0,0h0l.14.19.07-.22,0,0h0l.13.16.12-.29s0,0,0,0a0,0,0,0,1,0,0l-.13.34,0,0h0L15.25,10l-.07.22,0,0h0L15,10.05l-.06.28s0,0,0,0Z" transform="translate(0.03 0.03)"/><path class="cls-5" d="M15.09,10.6h0l-.14-.11a0,0,0,0,1,0,0s0,0,0,0l.1.09.08-.23,0,0h0l.1.18.09-.24,0,0h0l.13.18s0,0,0,0h0l-.1-.14-.09.24s0,0,0,0,0,0,0,0l-.1-.17-.07.21,0,0Z" transform="translate(0.03 0.03)"/><path class="cls-3" d="M14.57,7.45a1.26,1.26,0,0,0,.85.24,1.9,1.9,0,0,1-.85,1.73,1.92,1.92,0,0,1-.86-1.73,1.29,1.29,0,0,0,.86-.24Z" transform="translate(0.03 0.03)"/><path class="cls-5" d="M14.57,9.44h0a2,2,0,0,1-.87-1.75.27.27,0,0,1,.12,0h0a1.17,1.17,0,0,0,.74-.24,1.32,1.32,0,0,0,.87.24,1.89,1.89,0,0,1-.84,1.77Zm-.86-1.73a2,2,0,0,0,.86,1.69,1.9,1.9,0,0,0,.83-1.71s0,0-.07,0a1.24,1.24,0,0,1-.78-.26,1.08,1.08,0,0,1-.74.26h-.1Z" transform="translate(0.03 0.03)"/><path class="cls-5" d="M14.57,9.33a1.84,1.84,0,0,0,.76-1.57,1.22,1.22,0,0,1-.76-.22,1.32,1.32,0,0,1-.79.22,1.94,1.94,0,0,0,.79,1.57Z" transform="translate(0.03 0.03)"/><path class="cls-5" d="M14.57,9.36h0a2,2,0,0,1-.8-1.6v0h0a1.2,1.2,0,0,0,.77-.22h0a1.11,1.11,0,0,0,.74.22h0s0,0,0,0a1.89,1.89,0,0,1-.78,1.6Zm-.76-1.57a1.91,1.91,0,0,0,.76,1.51,1.83,1.83,0,0,0,.73-1.51,1.26,1.26,0,0,1-.73-.22,1.32,1.32,0,0,1-.76.22Z" transform="translate(0.03 0.03)"/><path class="cls-3" d="M13.8,10.46a2.51,2.51,0,0,0,.54,0c.09,0,.16.15,0,.18a1.92,1.92,0,0,1-.54,0,4.93,4.93,0,0,1-.52-.11c-.16-.06,0-.2.05-.18a2.93,2.93,0,0,0,.49.12Z" transform="translate(0.03 0.03)"/><path class="cls-5" d="M14.17,10.7a2,2,0,0,1-.39,0c-.11,0-.36-.06-.53-.11s-.1-.11-.09-.14a.14.14,0,0,1,.13-.1,3,3,0,0,0,.52.11,2.29,2.29,0,0,0,.53,0h0a.12.12,0,0,1,.12.11s0,.11-.14.13Zm-.87-.33a.11.11,0,0,0-.09.05.1.1,0,0,0,.06.08l.52.1a1.81,1.81,0,0,0,.53,0s.09,0,.08-.06a.06.06,0,0,0-.06-.06,2.42,2.42,0,0,1-.54,0,2.25,2.25,0,0,1-.5-.11Z" transform="translate(0.03 0.03)"/><path class="cls-3" d="M15.33,10.46a2.49,2.49,0,0,1-.54,0c-.09,0-.15.15,0,.18a1.9,1.9,0,0,0,.54,0,4.45,4.45,0,0,0,.52-.11c.16-.06.05-.2,0-.18a3.06,3.06,0,0,1-.5.12Z" transform="translate(0.03 0.03)"/><path class="cls-5" d="M15,10.7h-.16c-.11,0-.14-.08-.14-.13a.13.13,0,0,1,.12-.11,2.31,2.31,0,0,0,.54,0,2.27,2.27,0,0,0,.49-.11.15.15,0,0,1,.16.1s0,.1-.1.14a4.93,4.93,0,0,1-.52.11,2,2,0,0,1-.39,0Zm-.18-.19a.06.06,0,0,0-.06.06s0,0,.09.06a1.81,1.81,0,0,0,.53,0c.11,0,.36-.06.51-.1s.07,0,.06-.08a.09.09,0,0,0-.07-.05,2.89,2.89,0,0,1-.51.11,2,2,0,0,1-.55,0Z" transform="translate(0.03 0.03)"/><path class="cls-3" d="M13.24,10.37c-.14,0-.2.13-.16.22s.12-.05.14-.09,0-.07,0-.13Z" transform="translate(0.03 0.03)"/><path class="cls-5" d="M13.08,10.62l0,0a.19.19,0,0,1,0-.18.16.16,0,0,1,.14-.09l0,0,0,0s0,0,0,0a.11.11,0,0,1,0,.08.13.13,0,0,1-.09.06l-.05,0s0,0,0,0Zm.11-.22a.1.1,0,0,0-.07,0,.19.19,0,0,0,0,.08h0l0,0a0,0,0,0,0,0-.05v0Z" transform="translate(0.03 0.03)"/><path class="cls-3" d="M13.78,10.78c0-.09.09-.08.09-.17s0-.11-.07-.11a.1.1,0,0,0-.09.09c0,.09.07.1.07.19Z" transform="translate(0.03 0.03)"/><path class="cls-5" d="M13.78,10.81a0,0,0,0,1,0,0,.09.09,0,0,0,0-.07.17.17,0,0,1,0-.13.13.13,0,0,1,.12-.11c.07,0,.1.08.1.14a.14.14,0,0,1-.05.11s0,0,0,.06a0,0,0,0,1,0,0Zm0-.28a.06.06,0,0,0-.06.06.08.08,0,0,0,0,.08v0l0,0a.06.06,0,0,0,0-.06s0-.08,0-.08Z" transform="translate(0.03 0.03)"/><path class="cls-3" d="M14.42,10.52c.14,0,.12.18.06.27s-.12-.09-.12-.13.11-.07.06-.14Z" transform="translate(0.03 0.03)"/><path class="cls-5" d="M14.48,10.82h0s0,0,0,0,0,0,0,0-.07-.05-.07-.08,0-.07.06-.09a0,0,0,0,1,0-.05l0,0a.13.13,0,0,1,.12.07.25.25,0,0,1,0,.25Zm0-.26a.07.07,0,0,1,0,.06s0,0,0,0l0,0,.05,0a.17.17,0,0,0,0-.14l0,0Z" transform="translate(0.03 0.03)"/><path class="cls-3" d="M15.89,10.37c.14,0,.2.13.16.22s-.11-.05-.13-.09,0-.07,0-.13Z" transform="translate(0.03 0.03)"/><path class="cls-5" d="M16.05,10.62l0,0,0,0s-.07,0-.08-.06a.28.28,0,0,1,0-.08.05.05,0,0,0,0,0s0,0,0,0h0a.15.15,0,0,1,.17.08.19.19,0,0,1,0,.18l0,0Zm-.11-.22v.09l.05,0h0a.08.08,0,0,0,0-.08.08.08,0,0,0-.07,0Z" transform="translate(0.03 0.03)"/><path class="cls-3" d="M15.35,10.78c0-.09-.09-.08-.09-.17s0-.11.07-.11a.09.09,0,0,1,.09.09c0,.09-.07.1-.07.19Z" transform="translate(0.03 0.03)"/><path class="cls-5" d="M15.35,10.81a0,0,0,0,1,0,0,.07.07,0,0,0,0-.06.15.15,0,0,1-.06-.11c0-.06,0-.14.1-.14a.13.13,0,0,1,.12.12.12.12,0,0,1,0,.12.1.1,0,0,0,0,.07,0,0,0,0,1,0,0Zm0-.28s0,0,0,.08a.07.07,0,0,0,0,.06l0,0,0,0a.06.06,0,0,0,0-.07.07.07,0,0,0-.06-.07Z" transform="translate(0.03 0.03)"/><path class="cls-3" d="M14.71,10.52c-.13,0-.12.18-.05.27s.11-.09.11-.13-.1-.07-.06-.14Z" transform="translate(0.03 0.03)"/><path class="cls-5" d="M14.66,10.82h0a.28.28,0,0,1,0-.25.12.12,0,0,1,.11-.07l0,0v0c0,.05.06.07.06.12s0,.06-.06.08-.05,0-.05,0,0,0,0,0Zm0-.26,0,0a.18.18,0,0,0,0,.14l0,0,0,0s0,0,0,0a.15.15,0,0,1,0-.06Z" transform="translate(0.03 0.03)"/><path class="cls-3" d="M13.29,10.41a.19.19,0,0,1,.13.05Z" transform="translate(0.03 0.03)"/><path class="cls-5" d="M13.42,10.48h0l-.13,0s0,0,0,0l0,0a.27.27,0,0,1,.15,0v0Z" transform="translate(0.03 0.03)"/><path class="cls-3" d="M13.51,10.48l.16,0Z" transform="translate(0.03 0.03)"/><path class="cls-5" d="M13.67,10.54h0l-.16,0s0,0,0,0,.12,0,.19,0a0,0,0,0,1,0,0Z" transform="translate(0.03 0.03)"/><path class="cls-3" d="M14.32,10.57a.41.41,0,0,0-.16,0Z" transform="translate(0.03 0.03)"/><path class="cls-5" d="M14.16,10.61h0a0,0,0,0,1,0,0s.08,0,.17,0l0,0,0,0-.15,0Z" transform="translate(0.03 0.03)"/><path class="cls-3" d="M14.07,10.57s-.11,0-.15,0Z" transform="translate(0.03 0.03)"/><path class="cls-5" d="M14.07,10.59h-.15l0,0v0a.18.18,0,0,1,.19,0s0,0,0,0Z" transform="translate(0.03 0.03)"/><path class="cls-3" d="M15.85,10.41a.22.22,0,0,0-.14.05Z" transform="translate(0.03 0.03)"/><path class="cls-5" d="M15.71,10.48h0a0,0,0,0,1,0,0,.25.25,0,0,1,.15,0l0,0,0,0-.13,0Z" transform="translate(0.03 0.03)"/><path class="cls-3" d="M15.62,10.48l-.15,0Z" transform="translate(0.03 0.03)"/><path class="cls-5" d="M15.47,10.54h0s0,0,0,0,.18-.06.19,0l0,0-.16,0Z" transform="translate(0.03 0.03)"/><path class="cls-3" d="M14.81,10.57a.37.37,0,0,1,.16,0Z" transform="translate(0.03 0.03)"/><path class="cls-5" d="M15,10.61h0l-.16,0,0,0,0,0a.39.39,0,0,1,.18,0s0,0,0,0Z" transform="translate(0.03 0.03)"/><path class="cls-3" d="M15.06,10.57a.15.15,0,0,1,.16,0Z" transform="translate(0.03 0.03)"/><path class="cls-5" d="M15.22,10.59H15a0,0,0,0,1,0,0c0-.05.14,0,.18,0s0,0,0,0l0,0Z" transform="translate(0.03 0.03)"/><path class="cls-5" d="M14.88,6.14a.32.32,0,0,0-.23-.22.55.55,0,0,0-.18,0c-.07,0-.13,0-.15.09s.08.1.12.12.1,0,.17-.07a.17.17,0,0,1,.27.09Z" transform="translate(0.03 0.03)"/><path class="cls-5" d="M14.49,6.14h-.05s0,0-.06,0L14.31,6a.16.16,0,0,1,.14-.12h.2a.33.33,0,0,1,.23.2c-.09-.06-.2-.1-.26,0s-.08.08-.13.08Zm0-.22a.18.18,0,0,0-.13.09.17.17,0,0,1,.08.06s0,0,0,0,.08,0,.15-.06a.19.19,0,0,1,.22,0,.38.38,0,0,0-.17-.1h-.19Z" transform="translate(0.03 0.03)"/><path class="cls-3" d="M14.45,6s0,.07,0,.07a0,0,0,1,0,0-.07Z" transform="translate(0.03 0.03)"/><path class="cls-3" d="M14.45,6.07A.07.07,0,0,1,14.39,6c0-.07.13-.07.13,0a.07.07,0,0,1-.07.07Z" transform="translate(0.03 0.03)"/><path class="cls-3" d="M14.84,7.68V9.1a1.49,1.49,0,0,1-.27.23,1.56,1.56,0,0,1-.28-.23V7.68a1.22,1.22,0,0,0,.28-.14.77.77,0,0,0,.27.14Z" transform="translate(0.03 0.03)"/></g></g></g></g></g></svg>