<svg xmlns="http://www.w3.org/2000/svg" xmlns:xlink="http://www.w3.org/1999/xlink" viewBox="0 0 29.46 17.19"><defs><style>.cls-1{fill:none;}.cls-2{clip-path:url(#clip-path);}.cls-3{fill:#549b14;}.cls-4{fill:#fff;}.cls-5{fill:#d00428;}.cls-6{fill:#cacaca;}.cls-7{fill:#612c0d;}.cls-8{fill:#3b9312;}.cls-9{fill:#2b6a0c;}.cls-10{fill:#f5d028;}.cls-11{fill:#3970ca;}</style><clipPath id="clip-path"><rect class="cls-1" width="29.46" height="17.19"/></clipPath></defs><g id="Layer_2" data-name="Layer 2"><g id="cá»"><g id="central_africa" data-name="central africa"><g class="cls-2"><rect class="cls-3" width="29.46" height="5.77"/><rect class="cls-4" y="5.77" width="29.46" height="5.65"/><rect class="cls-5" y="11.42" width="29.46" height="5.77"/><g class="cls-2"><path class="cls-6" d="M11.62,6.92V9.68a.42.42,0,0,0,.43.44h.56c.15,0,.29.22.29.22s.13-.22.28-.22h.57a.41.41,0,0,0,.42-.44V6.92Z"/><path d="M12.9,10.37v0s-.14-.21-.28-.21h-.56a.43.43,0,0,1-.44-.46V6.92h2.56l0,2.77a.43.43,0,0,1-.44.46h-.57c-.14,0-.27.21-.27.21v0Zm1.26-3.45-2.54,0,0,2.74a.4.4,0,0,0,.41.43h.56c.13,0,.25.15.29.21s.15-.21.28-.21h.57a.4.4,0,0,0,.41-.43V6.92Z"/><path class="cls-6" d="M11,9.9c-.15,0-.29-.11-.29-.22V9.13c.13.1.71.44.57.55a.23.23,0,0,1-.28,0V9.9Z"/><path d="M11,9.92h0a.3.3,0,0,1-.3-.24V9.13l.14.07c.24.17.47.33.48.44a.05.05,0,0,1,0,0,.28.28,0,0,1-.29,0,.93.93,0,0,1,0,.2v0Zm-.31-.78,0,.54c0,.1.12.2.25.21v-.2s.09,0,.16,0a.21.21,0,0,0,.13-.05l0,0c0-.1-.29-.3-.47-.41l-.12-.09Z"/><path class="cls-6" d="M11,9.68c.14-.11.14.11.28,0l-.14.66c-.14,0-.14,0-.22-.11A1.27,1.27,0,0,1,11,9.68Z"/><path class="cls-6" d="M14.75,9.9c.15,0,.29-.11.29-.22V9.13c-.13.1-.71.44-.57.55a.23.23,0,0,0,.28,0V9.9Z"/><path d="M14.75,9.92V9.7a.24.24,0,0,1-.28,0,.05.05,0,0,1,0,0c0-.11.24-.27.48-.44L15,9.12l0,.56a.3.3,0,0,1-.3.24Zm0-.25a.75.75,0,0,1,0,.22c.14,0,.26-.11.26-.21V9.13s0,.06-.1.1-.46.31-.46.41,0,0,0,0a.23.23,0,0,0,.26,0Z"/><path class="cls-6" d="M14.73,9.68c-.14-.11-.14.11-.28,0l.14.66c.14,0,.14,0,.22-.11a1.27,1.27,0,0,0-.08-.55Z"/><path class="cls-6" d="M13.45,10.68c0-.11-.29-.34-.29-.45s.29.11.86.11.85-.55.71-.66a1,1,0,0,1,.14.55c0,.23-.28.45-.85.45Z"/><path d="M14,10.69h-.57a.86.86,0,0,0-.15-.22.51.51,0,0,1-.15-.24s0-.05.19,0a2.31,2.31,0,0,0,.68.11.78.78,0,0,0,.62-.29.41.41,0,0,0,.11-.3l0-.05s0,0,.06,0h0a.8.8,0,0,1,.14.49c0,.22-.27.46-.87.46Zm-.82-.47c0,.07.05.15.12.23a.49.49,0,0,1,.14.23l.56,0c.58,0,.84-.22.84-.43a1,1,0,0,0-.1-.47c0,.07,0,.19-.1.3a.81.81,0,0,1-.64.3,2.33,2.33,0,0,1-.69-.11l-.13,0Z"/><path class="cls-6" d="M12.31,10.68c0-.11.28-.34.28-.45s-.28.11-.85.11-.86-.55-.71-.66a.92.92,0,0,0-.15.55c0,.23.29.45.86.45Z"/><path d="M12.32,10.69h-.58c-.6,0-.87-.24-.87-.46a1,1,0,0,1,.11-.5l0-.06a.1.1,0,0,1,0,.08h0a.67.67,0,0,0,.14.3.78.78,0,0,0,.62.29,2.31,2.31,0,0,0,.68-.11c.15,0,.19,0,.19,0a.45.45,0,0,1-.15.23.52.52,0,0,0-.14.22ZM11,9.73a1.35,1.35,0,0,0-.08.5c0,.21.26.43.84.43h.56a.54.54,0,0,1,.14-.21c.07-.08.14-.16.14-.22a.27.27,0,0,0-.15,0,2.33,2.33,0,0,1-.69.11.81.81,0,0,1-.64-.3A.45.45,0,0,1,11,9.73Z"/><path class="cls-6" d="M12.31,10.57c0-.11.28-.23.28-.34v.56h-.28Z"/><path class="cls-6" d="M13.45,10.57c0-.11-.29-.23-.29-.34v.56h.29Z"/><path class="cls-6" d="M12.31,10.57a2,2,0,0,0,1.14,0V11a2,2,0,0,1-1.14,0Z"/><path d="M12.88,11.1c-.14,0-.59,0-.59-.09v-.44a1.84,1.84,0,0,0,.59.06,1.35,1.35,0,0,0,.55-.06h0l0,.43c0,.09-.44.09-.58.09Zm-.59-.53,0,.44s.2.07.56.07.55,0,.55-.07v-.43c0,.08-.42.08-.55.08s-.57,0-.59-.09Z"/><path d="M12.88,10.66a2.42,2.42,0,0,1-.4,0c-.16,0-.19-.05-.19-.07s.08-.12.15-.18.14-.11.14-.16-.08,0-.15,0a2.33,2.33,0,0,1-.69.11A.82.82,0,0,1,11,9.88q0-.15,0-.21a.11.11,0,0,1,.16,0s.06.05.12,0l0,0c-.08.07-.12,0-.16,0a.09.09,0,0,0-.12,0,.16.16,0,0,0,0,.18.76.76,0,0,0,.72.46,2.31,2.31,0,0,0,.68-.11c.09,0,.15,0,.17,0h0v0c0,.07-.07.12-.15.18s-.14.11-.14.16a1.43,1.43,0,0,0,.56.06,1.35,1.35,0,0,0,.55-.06c0-.05-.07-.11-.13-.16s-.15-.11-.15-.18l0,0s.07,0,.17,0a2.31,2.31,0,0,0,.68.11.78.78,0,0,0,.72-.46c0-.08,0-.15,0-.18a.09.09,0,0,0-.12,0s-.08.07-.16,0a.11.11,0,0,0,.14,0,.11.11,0,0,1,.16,0s0,.11,0,.21a.79.79,0,0,1-.74.48,2.33,2.33,0,0,1-.69-.11.37.37,0,0,0-.15,0c0,.06.07.12.13.17s.15.11.15.18-.44.09-.58.09Z"/><polygon points="14.63 10.49 14.49 10.24 14.51 10.23 14.66 10.48 14.63 10.49"/><path d="M14.54,10.44h0a.08.08,0,0,1,0,.07s0,0,0,0h-.06a.1.1,0,0,1-.05,0l-.05-.06a.25.25,0,0,1,0-.07s0-.05,0-.06a.05.05,0,0,1,0,0h.06l.06,0,0,0,0,0h0s0,0,0,0a.09.09,0,0,0,0,.05s0,0,0,0a.1.1,0,0,0,0,.05s0,0,0,0h0l0,0a.11.11,0,0,0,0-.05Z"/><polygon points="14.36 10.61 14.27 10.35 14.3 10.34 14.39 10.6 14.36 10.61"/><polygon points="14.18 10.63 14.16 10.39 14.09 10.4 14.08 10.37 14.25 10.36 14.26 10.39 14.19 10.39 14.21 10.63 14.18 10.63"/><path d="M13.91,10.56h0a0,0,0,0,0,0,0l0,0H14l0,0v0h0l0,0h0l0,0a0,0,0,0,1,0,0s0,0,0,0l0,0H14l0,0,0,0h0a.05.05,0,0,0,0,0l0,0,0,0s0,0,0,0v0l.05,0,0,0s0,0,0,0a.06.06,0,0,1,0,0s0,0,0,0,0,0,0,0H14l0,0a.07.07,0,0,1,0,0Z"/><path d="M13.83,10.37h0v.15a.15.15,0,0,1,0,.07s0,0,0,0h-.05l0,0a.05.05,0,0,1,0,0s0,0,0-.06v-.16h0v.21l0,0h0l.05,0s0,0,0-.07Z"/><path d="M13.48,10.56h0s0,0,0,0l0,0h0v-.24h0v.19a.07.07,0,0,1,0,0l0,0h0l0,0a.13.13,0,0,1,0-.06Z"/><path d="M13,11v0l.11-.19a.05.05,0,0,1,0,0H13v0h.15v0L13,11v0h.14v0Z"/><polygon points="11.43 10.63 11.49 10.33 11.52 10.34 11.45 10.64 11.43 10.63"/><polygon points="11.12 10.52 11.3 10.24 11.32 10.26 11.28 10.51 11.42 10.3 11.45 10.31 11.27 10.58 11.24 10.57 11.28 10.31 11.14 10.53 11.12 10.52"/><path d="M11.27,10.21l0,0-.15.12-.07.05-.06,0,0,0a.05.05,0,0,1,0,0,.08.08,0,0,1,0,0,.17.17,0,0,1,.06-.06l.15-.13,0,0-.15.12,0,.05a0,0,0,0,0,0,0v0a.06.06,0,0,0,0,0,.25.25,0,0,0,.08-.05Z"/><path d="M11.58,10.66v-.31h.11l0,0a.08.08,0,0,1,0,0,.19.19,0,0,1,0,.08.13.13,0,0,1,0,.06s0,0,0,0l0,0h-.14Zm0,0h.08l0,0s0,0,0,0,0,0,0-.06a.15.15,0,0,0,0-.07.05.05,0,0,0,0,0h-.09Z"/><path d="M11.78,10.66l.08-.31h0l.09.31h0l0-.09h-.09l0,.09Zm.06-.13h.07l0-.08a.64.64,0,0,0,0-.07.13.13,0,0,1,0,.06Z"/><path d="M12,10.66v-.31h.11s0,0,0,0,0,0,0,0a.17.17,0,0,1,0,.07.15.15,0,0,1,0,.07v0l0,0H12Zm0,0h.08l0,0s0,0,0,0,0,0,0-.06a.15.15,0,0,0,0-.07l0,0H12Z"/><path d="M12.61,11V10.7h.14l0,0v0a.14.14,0,0,1,0,.07s0,0-.07,0h0V11Zm0-.16h.09a.08.08,0,0,0,0-.05v0l0,0h-.08Z"/><path d="M12.79,11l.08-.31h0L13,11h0l0-.09h-.09l0,.09Zm.06-.12h.07l0-.09a.18.18,0,0,1,0-.06s0,0,0,.06Z"/><path d="M14.7,10.47l-.14-.27h0l.27.19h0l-.08-.06-.06,0,0,.08Zm0-.12.05,0-.07-.05-.05,0,0,0Z"/><path class="cls-7" d="M12.86,8.4a3,3,0,0,1-.19,1.42s0,.08.08.09.07-.05.07-.06,0,.1.06.08.09-.08.09-.08,0,.11.09.11,0-.13,0-.13,0,.11.09.11.12,0,.08-.11A3.16,3.16,0,0,1,13,8.4a.32.32,0,0,1,.27-.27l0-.08a.27.27,0,0,0-.15.07.56.56,0,0,0-.11.13v-.4h-.11v.36a.78.78,0,0,0-.1-.1.29.29,0,0,0-.22,0v.08c.07,0,.17,0,.22.05s.11.11.11.19Z"/><path d="M13.06,10c-.06,0-.08-.06-.1-.1s0,.07-.08.08-.05,0-.06-.06a.07.07,0,0,1-.06,0h0a.17.17,0,0,1-.1-.06.06.06,0,0,1,0-.06,3,3,0,0,0,.19-1.31s0-.08,0-.1a.24.24,0,0,0-.09-.17c0-.05-.09-.05-.15-.06h-.07V8.08a.21.21,0,0,1,.25,0l.1.1,0-.35.13,0,0,.38a.48.48,0,0,1,.08-.1A.29.29,0,0,1,13.2,8l.08.08A.4.4,0,0,0,13,8.4a3,3,0,0,0,.28,1.42.07.07,0,0,1,0,.08.11.11,0,0,1-.09.06s-.07-.05-.08-.08,0,.09-.06.09ZM13,9.84s.06.1.1.1,0-.07,0-.11.07.1.1.1a.1.1,0,0,0,.07,0,.06.06,0,0,0,0-.06A3.06,3.06,0,0,1,13,8.41a.34.34,0,0,1,.29-.29l-.06-.07a.76.76,0,0,0-.13.08.66.66,0,0,0-.11.12h0v0l0-.37h-.1l0,.35s-.06,0-.12-.09a.27.27,0,0,0-.21,0v.07h0a.18.18,0,0,1,.16,0,.27.27,0,0,1,.11.2.41.41,0,0,0,0,.1,2.92,2.92,0,0,1-.2,1.32.1.1,0,0,0,.08.08.05.05,0,0,0,.05-.05c0,.07.06.07.06.07A.18.18,0,0,0,13,9.84Z"/><path class="cls-8" d="M12,7.94h0l0,0h.08s0,0,0,0,0,0,0,0,0,0,0,0h.08s0,0,0,0,0,0,0,0,0,0,.07,0,0,0,0,0a.06.06,0,0,1,0-.06l0,0s0,0,0-.06,0,0,0,0a.08.08,0,0,1,0,0s0,0,0,0l0,0,.05,0s0,0,0,0h.13l.05,0H13s0,0,.06,0,0,0,.05,0,0,0,0,0,0,0,.06,0,0,0,0,0,0,0,0,0l0,0s0,0,.05,0,0,0,0,0,0,0,0,0,0,0,0,0,0,0,0,0h0s0,0,0,0l0,0a0,0,0,0,0,0,0l.05,0,.07,0h.07l0,0,0,0s0,0,.05,0l0,0s0,0,0,0v.06s0,0,0,.06,0,0,0,0l0,0,0,.05v.06l-.05,0s0,0,0,.05h-.36s0,0-.06,0-.05,0-.07,0,0,0,0,0h-.18l0,0H13l-.06,0a.08.08,0,0,1,0,0s0,0,0,0,0,0-.07,0h-.06l-.06,0-.07,0s0,0-.05,0l-.06,0s0,0,0,0a.2.2,0,0,0,0,.05.09.09,0,0,1,0,.05l-.05,0H12.3l-.06,0,.06,0-.06,0a.11.11,0,0,0-.08,0s-.05,0-.06,0,0,0,0,0l-.06,0s0,0,0,0a.11.11,0,0,0-.06,0l0,0,0,0h0s0,0,0-.06,0,0,0-.05h.06s0,0,0,0,0,0,0,0Z"/><path d="M12.4,8.25h-.17s0,0-.07,0h0s0,.05-.08.05h0l0,0,0,0-.09-.07a.19.19,0,0,1,0-.07s0,0,0,0h.05l0,0H12a.08.08,0,0,1,0,0h0l.14,0,0,0h.09a.05.05,0,0,0,0,0s0,0,0,0v0h.08s0-.06,0-.08,0,0,0,0h0V7.56l0,0a.11.11,0,0,1,0,0l.05,0h0s0,0,0,0h0s0,0,0,0h.14l0,0a.19.19,0,0,1,.08,0l0,0a.11.11,0,0,1,.06,0h0s0,0,0,0l0,0v0l.06,0s0,0,0,.05.05,0,.07,0h0l.06,0,.06,0s.05,0,0,.06l0,0,0,0v0l.05,0,.06,0h.08l0,0h0l0,0h0l0,0,0,0,0,.06L14,8l0,0a.08.08,0,0,1,0,0h0v.06a.13.13,0,0,1-.06,0s0,0,0,0v0h-.37l-.06,0h0c-.06,0-.07,0-.08,0l0,0h-.08l-.05,0,0,0H13l0,0A.12.12,0,0,1,12.91,8h-.14l-.06,0-.07,0h0l0,0a.07.07,0,0,1-.06,0l0,0h0s0,0,0,.05,0,0,0,.06l0,0Zm-.1-.05.07,0,0,0,0,0h0a.06.06,0,0,0,0,0V8.11l0,0,.08,0,0,0,.08,0h.13s0,0,.06,0h0s0,0,0,.06l0,0,.05,0a.1.1,0,0,1,.06,0h.16l.05,0h.07s0,0,.07,0h.31l.06-.05.05,0V8.08l0-.05,0,0,0,0V7.78h0l0,0,0,0-.09-.06,0,0a.16.16,0,0,1-.1,0h0s0-.06,0-.07l0,0,0,0-.05,0s0,0,0,0,0,0,0,0,0,0,0,0-.05,0-.06,0l0,0h0l-.06,0s0,0-.05,0a0,0,0,0,1,0,0l0,0H13a.08.08,0,0,0-.07,0l-.05,0a.06.06,0,0,1-.06,0h-.06a.11.11,0,0,0-.05,0h0l-.08,0s0,0,0,0l0,0s0,0,0,0h0v0h0v0l0,0h0s0,0,0,0a.35.35,0,0,1,0,.06h-.15v0a.06.06,0,0,1-.05,0h-.08s-.05,0-.05,0h0L12,8s0,0,0,0l0,0h0l0,0a.11.11,0,0,0,0,.06l0,0h0l0,.05h0l0,0h0l0,0,.05,0s0,0,.07,0a.12.12,0,0,1,.07,0s0,0,.07,0Z"/><path class="cls-9" d="M12.66,7.63H12.6s0,0,0,0h-.06v0h.05s0,0,.06,0h0l.05,0h-.05Z"/><path class="cls-9" d="M12.42,7.86h-.07v0h.11s.07,0,.08,0l.07,0h-.12l-.05,0Z"/><path class="cls-9" d="M12.58,7.77l0,0,0,0,.05,0h.05l0,0h-.05l-.06,0Z"/><path class="cls-9" d="M13.09,7.91h0l-.07,0,0,0-.07-.06a.24.24,0,0,1,0-.08v0h0l0,.08a.08.08,0,0,0,0,0l.06,0a.09.09,0,0,0,.06,0h.06l0,0Z"/><path class="cls-9" d="M13,7.61l0-.06.05,0h0a.07.07,0,0,1,0-.06l0,0,0,0v0a.15.15,0,0,1,0,.07l-.05,0,0,.05a.12.12,0,0,1-.07,0Z"/><path class="cls-9" d="M13.39,7.69h0a.22.22,0,0,1,0-.08.1.1,0,0,1,0-.07l0,0h0a.13.13,0,0,0,0,.08v.06l0,0h0Z"/><path class="cls-9" d="M13.67,7.77H13.6l.05,0h.06l0,0,.05,0h0l0,0,0,0-.06,0Z"/><path class="cls-9" d="M13.81,8.11h0l-.06,0a.08.08,0,0,1,.07,0h.1l-.07,0Z"/><path class="cls-9" d="M13.67,8.24h0l-.06,0s0,0-.06-.08,0-.06,0-.07l0,0a.15.15,0,0,0,0,.07l.06,0,0,0Z"/><path class="cls-9" d="M13.26,8.16v0h.08l0,0s0,0,0-.06,0,0,0,.06l0,0,0,0Z"/><path class="cls-1" d="M12.91,8l0-.06s0,0,0-.07Z"/><path class="cls-9" d="M12.17,8.18h0v0h0a.08.08,0,0,1,.07,0h0s0,0,0,0l0,0v0l0,0-.05,0h-.1Z"/><path class="cls-1" d="M12.52,8.08h-.08l0,0s0,0,0,0Z"/><path class="cls-9" d="M12.59,7.94v0h.06l0,0h0l0,0h-.1Z"/><path class="cls-9" d="M11.93,8.15h0v0H12l.07,0a.06.06,0,0,1,0,.06.19.19,0,0,1-.09,0Z"/><path class="cls-9" d="M13.61,7.94h-.06l-.06,0h0l-.08,0,0,0h0l.08,0,.07,0,.07,0h0l.06,0a.06.06,0,0,1-.05,0Z"/><path d="M12.84,9.85s0-.06,0-.08a.25.25,0,0,0,0-.1,0,0,0,0,1,0-.05.66.66,0,0,1,0-.11.19.19,0,0,0,0-.07V9.37a.22.22,0,0,1,0-.08v-.1a.22.22,0,0,0,0-.09.3.3,0,0,0,0-.1V8.88h0V9a.43.43,0,0,1,0,.11.13.13,0,0,1,0,.09v.1a.17.17,0,0,0,0,.07v0a.51.51,0,0,0,0,.1.23.23,0,0,1-.06.09s0,.05,0,.06a.28.28,0,0,1,0,.09v.1Z"/><path d="M13,9.82s0,0,0,0v0a.05.05,0,0,1,0,0,.38.38,0,0,1,0-.12v-.1a.1.1,0,0,0,0-.09V9.13s0-.06,0-.08l0,0h0a.25.25,0,0,1,0,.09v.16s0,.07,0,.11a.15.15,0,0,1,0,.1l0,.1v.08a.22.22,0,0,0,0,.06l0,0s0,0,0,0Z"/><path d="M13.11,9.82v0s0,0,0,0l0,0,0,0,0,0a.13.13,0,0,1,0-.11s0,0,0-.07a.06.06,0,0,0,0,0V9.39a.25.25,0,0,1,0-.1h0c0,.07,0,.09,0,.1v.06a.43.43,0,0,1,0,.05s0,.06,0,.08a.15.15,0,0,0,0,.08s0,0,0,0l0,0,0,0s0,0,0,0v0Z"/><polygon class="cls-10" points="13.22 6.63 13.13 6.5 12.97 6.5 13.04 6.36 12.97 6.23 13.13 6.23 13.22 6.1 13.3 6.23 13.47 6.23 13.39 6.36 13.47 6.5 13.3 6.5 13.22 6.63"/><path d="M13.22,6.65l-.1-.14H13L13,6.36,13,6.24l.17,0,.08-.12.11.13h.15l-.07.15.08.12-.18,0-.08.13Zm-.09-.16.09.11.07-.11h.18l-.09-.11.07-.14H13.3l-.09-.13-.07.13H13l.09.11L13,6.5Z"/><polygon class="cls-10" points="12.55 6.63 12.46 6.5 12.3 6.5 12.38 6.36 12.3 6.23 12.46 6.23 12.55 6.1 12.64 6.23 12.8 6.23 12.72 6.36 12.8 6.5 12.64 6.5 12.55 6.63"/><path d="M12.55,6.65l-.1-.14H12.3l.06-.15-.07-.12.17,0,.08-.12.11.13h.15l-.06.15.07.12-.17,0-.09.13Zm-.09-.16.09.11.07-.11h.18l-.09-.11.08-.14h-.15l-.1-.13-.06.13H12.3l.09.11-.08.14Z"/><polygon class="cls-10" points="11.97 6.74 11.87 6.63 11.71 6.64 11.77 6.5 11.67 6.38 11.83 6.35 11.9 6.22 12 6.33 12.17 6.32 12.11 6.46 12.2 6.58 12.04 6.6 11.97 6.74"/><path d="M12,6.77l-.12-.14-.15,0,0-.15-.09-.11.17,0,.06-.13.12.11h.16l-.05.15.09.11-.17,0L12,6.77Zm-.11-.16.1.11L12,6.6l.17,0-.1-.1.05-.16-.15,0-.11-.12-.05.13-.17,0,.11.1-.06.15.15,0Z"/><polygon class="cls-10" points="13.85 6.72 13.95 6.61 14.11 6.62 14.06 6.48 14.15 6.36 13.99 6.34 13.92 6.2 13.82 6.32 13.66 6.3 13.71 6.44 13.62 6.56 13.78 6.59 13.85 6.72"/><path d="M13.84,6.75l-.07-.16h-.15l.08-.15-.06-.12h.18l.09-.11.09.14.15,0-.08.14.06.13H14l-.11.13Zm-.19-.43.08.12-.1.13h.15l.07.13.09-.1h.17L14,6.49l.1-.14H14l-.08-.14-.08.12Z"/><polygon class="cls-10" points="14.38 6.97 14.51 6.88 14.67 6.93 14.64 6.78 14.76 6.68 14.61 6.62 14.57 6.48 14.45 6.57 14.29 6.53 14.32 6.67 14.2 6.78 14.35 6.83 14.38 6.97"/><path d="M14.38,7l-.05-.17-.14,0,.12-.13,0-.13.17,0,.12-.09,0,.15.15,0-.12.13,0,.13-.17,0-.13.1Zm-.09-.46,0,.13-.12.12.14,0,0,.13.11-.08.17,0,0-.13.12-.11-.14,0,0-.16-.1.1-.17,0Z"/><polygon class="cls-10" points="11.42 6.94 11.29 6.85 11.14 6.89 11.16 6.75 11.04 6.64 11.19 6.59 11.23 6.45 11.36 6.54 11.51 6.49 11.49 6.64 11.61 6.74 11.46 6.8 11.42 6.94"/><path d="M11.43,7l-.15-.11-.14,0V6.74L11,6.66l.16-.08,0-.14.15.09.15,0v.16l.12.09-.16.08,0,.16Zm-.14-.14.12.09,0-.13.16-.06-.12-.08,0-.16-.14.06-.14-.09v.13L11,6.66l.13.07,0,.17.14-.07Z"/><polygon class="cls-11" points="0 0 0 17.19 8.59 8.59 0 0"/></g></g></g></g></g></svg>