<svg xmlns="http://www.w3.org/2000/svg" xmlns:xlink="http://www.w3.org/1999/xlink" viewBox="0 0 29.46 17.19"><defs><style>.cls-1{fill:none;}.cls-2{clip-path:url(#clip-path);}.cls-3{fill:#d03633;}.cls-4{fill:#f2dd30;}.cls-5{fill:#2d6c41;}.cls-6{fill:#4ba2d7;}</style><clipPath id="clip-path"><rect class="cls-1" width="29.46" height="17.19"/></clipPath></defs><g id="Layer_2" data-name="Layer 2"><g id="cá»"><g id="east_africa" data-name="east africa"><g class="cls-2"><rect class="cls-3" width="29.46" height="17.19"/><rect class="cls-4" width="29.46" height="11.46"/><rect class="cls-5" width="29.46" height="5.73"/><g class="cls-2"><path class="cls-6" d="M19,8.59a4.3,4.3,0,1,1-4.3-4.29A4.3,4.3,0,0,1,19,8.59Z"/><path class="cls-4" d="M11.46,7.52H14l.56-1.74.15.46-.82,2.53-.24-.18.26-.79h-2Zm1.25,3.84L13.48,9,12,7.91h.49l2.15,1.56-.24.18-.67-.49-.63,1.92-.39.28Zm4,0-2-1.47L13.25,11l.15-.47,2.15-1.56.09.29L15,9.72,16.6,10.9l.15.46ZM18,7.52,16,9l.56,1.73-.39-.28-.82-2.53h.3l.26.79,1.62-1.18ZM14.73,5.14l.77,2.38h1.83l-.39.28H14.28l.09-.28h.83l-.62-1.91Z"/><path d="M14.73,10.17v0Zm-1.5-1.09-1.77.58Zm.57-1.76L12.71,5.81Zm1.86,0,1.09-1.51Zm.57,1.76L18,9.66Z"/><path class="cls-4" d="M14.8,12h-.14V10.17h.14V12ZM18,9.72l-1.77-.57,0-.14L18,9.59l0,.13Zm-6.5,0,0-.13L13.21,9l0,.14-1.77.57Zm4.23-2.36-.11-.08,1.09-1.51.12.09-1.1,1.5Zm-2,0-1.1-1.5.12-.09,1.09,1.51-.11.08Z"/></g></g></g></g></g></svg>