<svg xmlns="http://www.w3.org/2000/svg" xmlns:xlink="http://www.w3.org/1999/xlink" viewBox="0 0 29.46 17.19"><defs><style>.cls-1{fill:none;}.cls-2{clip-path:url(#clip-path);}.cls-3{fill:#81afda;}.cls-4{fill:#fff;}</style><clipPath id="clip-path"><rect class="cls-1" width="29.46" height="17.19"/></clipPath></defs><g id="Layer_2" data-name="Layer 2"><g id="cá»"><g id="micronesia"><g class="cls-2"><rect class="cls-3" width="29.46" height="17.19"/><polygon class="cls-4" points="14.73 1.72 14.2 3.35 15.02 3.62 14.73 1.72"/><polygon class="cls-4" points="14.73 1.72 15.26 3.35 14.45 3.62 14.73 1.72"/><polygon class="cls-4" points="16.37 2.91 14.65 2.91 14.65 3.77 16.37 2.91"/><polygon class="cls-4" points="16.37 2.91 14.97 3.92 14.47 3.22 16.37 2.91"/><polygon class="cls-4" points="13.1 2.91 14.49 3.92 14.99 3.22 13.1 2.91"/><polygon class="cls-4" points="13.1 2.91 14.81 2.91 14.81 3.77 13.1 2.91"/><polygon class="cls-4" points="15.74 4.83 15.21 3.19 14.39 3.46 15.74 4.83"/><polygon class="cls-4" points="15.74 4.83 14.35 3.82 14.86 3.12 15.74 4.83"/><polygon class="cls-4" points="13.72 4.83 15.11 3.82 14.61 3.12 13.72 4.83"/><polygon class="cls-4" points="13.72 4.83 14.25 3.19 15.07 3.46 13.72 4.83"/><polygon class="cls-4" points="21.61 8.59 19.97 8.06 19.71 8.88 21.61 8.59"/><polygon class="cls-4" points="21.61 8.59 19.97 9.13 19.71 8.31 21.61 8.59"/><polygon class="cls-4" points="20.42 10.23 20.42 8.51 19.56 8.51 20.42 10.23"/><polygon class="cls-4" points="20.42 10.23 19.41 8.84 20.1 8.33 20.42 10.23"/><polygon class="cls-4" points="20.42 6.96 19.41 8.35 20.1 8.85 20.42 6.96"/><polygon class="cls-4" points="20.42 6.96 20.42 8.68 19.56 8.68 20.42 6.96"/><polygon class="cls-4" points="18.5 9.6 20.13 9.07 19.87 8.26 18.5 9.6"/><polygon class="cls-4" points="18.5 9.6 19.51 8.21 20.2 8.72 18.5 9.6"/><polygon class="cls-4" points="18.5 7.58 19.51 8.97 20.2 8.47 18.5 7.58"/><polygon class="cls-4" points="18.5 7.58 20.13 8.11 19.87 8.93 18.5 7.58"/><polygon class="cls-4" points="7.86 8.59 9.49 9.13 9.76 8.31 7.86 8.59"/><polygon class="cls-4" points="7.86 8.59 9.49 8.06 9.76 8.88 7.86 8.59"/><polygon class="cls-4" points="9.04 6.96 9.04 8.68 9.9 8.68 9.04 6.96"/><polygon class="cls-4" points="9.04 6.96 10.05 8.35 9.36 8.85 9.04 6.96"/><polygon class="cls-4" points="9.04 10.23 10.05 8.84 9.36 8.33 9.04 10.23"/><polygon class="cls-4" points="9.04 10.23 9.04 8.51 9.9 8.51 9.04 10.23"/><polygon class="cls-4" points="10.96 7.58 9.33 8.11 9.6 8.93 10.96 7.58"/><polygon class="cls-4" points="10.96 7.58 9.96 8.97 9.26 8.47 10.96 7.58"/><polygon class="cls-4" points="10.96 9.6 9.96 8.21 9.26 8.72 10.96 9.6"/><polygon class="cls-4" points="10.96 9.6 9.33 9.07 9.6 8.26 10.96 9.6"/><polygon class="cls-4" points="14.73 15.47 15.26 13.83 14.45 13.57 14.73 15.47"/><polygon class="cls-4" points="14.73 15.47 14.2 13.83 15.02 13.57 14.73 15.47"/><polygon class="cls-4" points="13.1 14.28 14.81 14.28 14.81 13.42 13.1 14.28"/><polygon class="cls-4" points="13.1 14.28 14.49 13.27 14.99 13.97 13.1 14.28"/><polygon class="cls-4" points="16.37 14.28 14.97 13.27 14.47 13.97 16.37 14.28"/><polygon class="cls-4" points="16.37 14.28 14.65 14.28 14.65 13.42 16.37 14.28"/><polygon class="cls-4" points="13.72 12.36 14.25 13.99 15.07 13.73 13.72 12.36"/><polygon class="cls-4" points="13.72 12.36 15.11 13.37 14.61 14.06 13.72 12.36"/><polygon class="cls-4" points="15.74 12.36 14.35 13.37 14.86 14.06 15.74 12.36"/><polygon class="cls-4" points="15.74 12.36 15.21 13.99 14.39 13.73 15.74 12.36"/></g></g></g></g></svg>