<svg xmlns="http://www.w3.org/2000/svg" xmlns:xlink="http://www.w3.org/1999/xlink" viewBox="0 0 29.46 17.19"><defs><style>.cls-1{fill:none;}.cls-2{clip-path:url(#clip-path);}.cls-3{fill:#6cb2dd;}.cls-4{fill:#fff;}.cls-5{fill:#c0003b;}.cls-6{fill:#192967;}.cls-7{fill:#bc0030;}.cls-8{fill:#f3edeb;}.cls-9{fill:#f5d028;}.cls-10{fill:#30770e;}.cls-11{fill:#28620a;}.cls-12{fill:#a87f36;}.cls-13{fill:#1d4805;}</style><clipPath id="clip-path"><rect class="cls-1" width="29.46" height="17.19"/></clipPath></defs><g id="Layer_2" data-name="Layer 2"><g id="cá»"><g id="melanisia"><g class="cls-2"><rect class="cls-3" width="29.46" height="17.19"/><g class="cls-2"><path class="cls-4" d="M19.38,5.46V9.12c.08,2.26,1.21,3.07,2.79,3.73,1.81-.8,2.73-1.78,2.73-3.73V5.46Z"/><path d="M22.17,12.88h0c-1.68-.71-2.73-1.58-2.81-3.76V5.43h5.58V9.12c0,1.83-.77,2.88-2.75,3.76ZM19.41,5.49V9.12c.07,2.15,1.07,3,2.76,3.7,1.95-.86,2.71-1.9,2.71-3.7V5.49Z"/><path class="cls-5" d="M19.38,9.06a6.62,6.62,0,0,0,.13,1.06h5.28a6,6,0,0,0,.13-1.06Z"/><path class="cls-5" d="M21.61,7.22v5.35l.6.28s.22-.14.47-.27V7.22Z"/><rect class="cls-6" width="14.76" height="7.38"/><polygon class="cls-4" points="0 0 0 0.82 13.11 7.38 14.76 7.38 14.76 6.56 1.65 0 0 0"/><polygon class="cls-4" points="14.76 0 14.76 0.82 1.65 7.38 0 7.38 0 6.56 13.11 0 14.76 0"/><rect class="cls-4" x="6.15" width="2.46" height="7.38"/><rect class="cls-4" y="2.46" width="14.76" height="2.46"/><rect class="cls-7" y="2.95" width="14.76" height="1.48"/><rect class="cls-7" x="6.64" width="1.48" height="7.38"/><polygon class="cls-5" points="0 7.38 4.92 4.92 6.02 4.92 1.1 7.38 0 7.38"/><polygon class="cls-5" points="0 0 4.92 2.46 3.82 2.46 0 0.55 0 0"/><polygon class="cls-5" points="8.74 2.46 13.66 0 14.76 0 9.84 2.46 8.74 2.46"/><polygon class="cls-5" points="14.76 7.38 9.84 4.92 10.94 4.92 14.76 6.83 14.76 7.38"/><rect class="cls-5" x="19.38" y="5.45" width="5.54" height="1.97"/><path class="cls-8" d="M19.68,6.37h0a.21.21,0,0,1,.18.23h0a.2.2,0,0,1-.18.22h0a.2.2,0,0,1-.18-.22h0a.21.21,0,0,1,.18-.23Z"/><path d="M19.68,6.84h0a.21.21,0,0,1-.18-.23c0-.14.08-.24.18-.24a.21.21,0,0,1,.18.23c0,.13-.08.24-.18.24Zm0-.46a.2.2,0,0,0-.18.22.21.21,0,0,0,.18.23h0a.2.2,0,0,0,.17-.22c0-.13-.08-.23-.17-.23Z"/><path class="cls-9" d="M23.73,6.25a.88.88,0,0,0,.43-.13c.11-.11-.08-.31,0-.33a.21.21,0,0,1,.17.07.36.36,0,0,0-.05-.09.24.24,0,0,0-.15,0c-.05,0-.05,0-.13-.08a.19.19,0,0,1,0-.18c-.09.06-.07.13-.06.15a1.28,1.28,0,0,1,0,.13.42.42,0,0,0-.3-.11c-.23,0-.8.13-1.06.13A3.34,3.34,0,0,1,22,5.69s.09-.06,0-.09-.37.1-.44,0,0,0,0-.09a.08.08,0,0,0,0,.11c0,.06.05,0,0,0s-.09,0-.1,0,0,0,0,.12,0-.08.08-.09a2.63,2.63,0,0,1,.34.06c.11,0,.11,0,.11,0a2.77,2.77,0,0,0,.66.06,9.2,9.2,0,0,1,1-.13.41.41,0,0,1,.39.31c0,.08-.11.12-.19.13l-.31,0Z"/><path d="M23.73,6.25h0l-.13-.07.32,0s.18,0,.19-.13a.41.41,0,0,0-.39-.31,2.31,2.31,0,0,0-.58.07,2.77,2.77,0,0,1-.46.06A2.35,2.35,0,0,1,22,5.77a4,4,0,0,0,.66.06l.46-.07a2.22,2.22,0,0,1,.58-.06c.25,0,.39.18.39.31s-.14.13-.19.14l-.31,0,.12.07a.94.94,0,0,0,.43-.13c.05-.06,0-.13,0-.2s0-.09,0-.11l0,0a.22.22,0,0,1,.17.07.09.09,0,0,0,0-.06.13.13,0,0,0-.13-.06h-.05s0,0-.09-.06a.18.18,0,0,1,0-.2.13.13,0,0,0-.05.15.31.31,0,0,1,0,.08s0,0,0,0a.45.45,0,0,0-.3-.11,4.22,4.22,0,0,0-.54.07,4.19,4.19,0,0,1-.52.07,2.55,2.55,0,0,1-.63-.1s0,0,0-.05,0,0,0,0a.86.86,0,0,0-.21,0,.33.33,0,0,1-.24,0s0-.06,0-.07,0,0,0,.09,0,0,0,0-.08,0-.09,0a.15.15,0,0,0,0,.11.07.07,0,0,0,0,0h0v.06c0-.07,0-.09,0-.11s.06,0,.09,0,0,0,0,0,0-.1,0-.11a.15.15,0,0,0,.05.08s.13,0,.23,0a.4.4,0,0,1,.21,0,.07.07,0,0,1,.06,0s0,.05,0,.05h0a3.86,3.86,0,0,0,.63.09,3,3,0,0,0,.52-.07,4.33,4.33,0,0,1,.51-.07c.22,0,.28.07.31.1s0,0,0,0a.34.34,0,0,1,0-.08A.13.13,0,0,1,24,5.48c0,.07,0,.15,0,.18s.07.08.1.08h.05a.17.17,0,0,1,.12,0s.05.06.05.09a.21.21,0,0,0-.15-.06h0a.22.22,0,0,0,0,.11c0,.06,0,.15,0,.2a.88.88,0,0,1-.43.13ZM22,5.81h0l-.12,0a.58.58,0,0,0-.19,0h0a1.06,1.06,0,0,1,.22,0l.12,0c.09,0,.1,0,.11,0h0s0,0-.07,0Z"/><path class="cls-9" d="M23.37,6.33s-.21,0-.27.12a1.15,1.15,0,0,0-.09.22l.14-.09a.48.48,0,0,0,0,.35c.05.16-.15.15-.26.16a1,1,0,0,0-.27-.15s-.11,0-.18.09.06-.06.17,0,0,0,0,.06-.11-.09-.18.08a.19.19,0,0,1,.11-.06c.05,0,0,0,0,0s0,0-.06,0-.05.08,0,.08l.06-.06s.05,0,.12,0c.37.11.57,0,.6,0a.52.52,0,0,1,.39-.72l-.26-.09Z"/><path d="M23,7.22h0a1.11,1.11,0,0,1-.34-.06c-.07,0-.09,0-.11,0l-.05,0h0l.05,0s.05,0,.12,0a.75.75,0,0,0,.6,0c-.1-.4,0-.63.39-.72l-.1,0-.16-.06s-.21,0-.27.12a.93.93,0,0,0-.09.22l.14-.1a.53.53,0,0,0,0,.36.11.11,0,0,1,0,.1.3.3,0,0,1-.22.06h0c.1,0,.18,0,.22-.06a.09.09,0,0,0,0-.1.57.57,0,0,1,0-.36l-.14.1a.93.93,0,0,1,.09-.22c.06-.12.27-.12.27-.12l.17.06.09,0a.51.51,0,0,0-.4.69v0a.33.33,0,0,1-.26.08Zm-.57-.1c0-.11.09-.11.14-.09h0s0,0,0,0a.07.07,0,0,1,0,0h0s-.07-.07-.14.09c.06-.06.07-.06.11-.06s0,0,0,0h0l0,0a.26.26,0,0,0-.12.06Zm0-.08V7a.34.34,0,0,1,.14,0h0a.3.3,0,0,0-.15.06Zm.35,0-.18-.08a.11.11,0,0,0-.12,0,.1.1,0,0,1,.12,0l.18.08Z"/><path class="cls-9" d="M20.77,6.94c.25.23,1.93-.24,2.14-.4s.34-.16.34.16a1.72,1.72,0,0,0,.05-.27.77.77,0,0,1,.16.35c0-.24,0-.37,0-.35a1.2,1.2,0,0,0,.16.31l0-.22a1.52,1.52,0,0,0,.42.32c.16,0,.38-.08.45,0s.18.19.18.29-.25,0-.28.09,0,.08,0,.08l0,.11s0-.11,0-.12,0,.07,0,.11,0-.12,0-.12,0,.06.07.11V7.27c.1,0,.19,0,.21-.11s-.16-.24-.2-.35,0-.15-.05-.21-.37.09-.51,0-.08-.48-.59-.57a8.94,8.94,0,0,0-2.14.52,1.47,1.47,0,0,1-.54-.09Z"/><path d="M24.41,7.4l0,0,0,0v0s0-.06,0-.07,0,0,0,.08,0-.09,0-.09h0s0,0,.05.05a.14.14,0,0,0,0,.06V7.27l.06,0c.08,0,.13,0,.14-.09s0-.12-.1-.19a1,1,0,0,1-.1-.16.49.49,0,0,1,0-.11.08.08,0,0,0,0-.1.36.36,0,0,0-.22,0,.76.76,0,0,1-.29,0,.29.29,0,0,1-.1-.16.6.6,0,0,0-.49-.42,5,5,0,0,0-1.63.36,3.15,3.15,0,0,1-.51.16,1.67,1.67,0,0,1-.55-.09v.45A.45.45,0,0,0,21,7a5.57,5.57,0,0,0,1.87-.46.31.31,0,0,1,.19-.08c.07,0,.15,0,.15.24,0-.19.05-.26.05-.27a.65.65,0,0,1,.16.35,1.28,1.28,0,0,0,0-.3s0-.05,0-.06,0,0,0,0a.76.76,0,0,0,.14.27,1,1,0,0,1,0-.21,1.52,1.52,0,0,0,.42.32.72.72,0,0,0,.25,0,.25.25,0,0,1,.2,0c.06.06.19.19.18.29s-.07,0-.14,0-.13,0-.14,0a.15.15,0,0,0,0,.06.13.13,0,0,1,0-.06s.07,0,.14,0,.13,0,.14,0-.12-.23-.18-.29-.11,0-.2,0a.71.71,0,0,1-.25,0,1.61,1.61,0,0,1-.42-.32,2.13,2.13,0,0,0,0,.22,1,1,0,0,1-.15-.28v0s0,0,0,.05a1.28,1.28,0,0,1,0,.3,1,1,0,0,0-.16-.35,1.14,1.14,0,0,1-.05.27c0-.24-.16-.29-.34-.16A5.51,5.51,0,0,1,21,7h0a.43.43,0,0,1-.27-.06V6.49h0a1.5,1.5,0,0,0,.55.08,4,4,0,0,0,.51-.15,4.74,4.74,0,0,1,1.63-.36.6.6,0,0,1,.5.42c0,.07.05.13.1.15a.47.47,0,0,0,.28,0c.1,0,.19,0,.22,0s0,.06,0,.1a.22.22,0,0,0,0,.11l.1.16c.05.07.11.14.1.19s-.07.07-.14.09l-.07,0v.11l0,0c0-.07-.06,0-.06,0s0,0,0,0,0-.1,0-.1,0,0,0,.06V7.4Z"/><path class="cls-9" d="M20.45,6.78s-.27.33-.44.32-.33-.23-.37-.21,0,0-.06-.08a.08.08,0,0,1,0-.09s0,.1,0,.11,0-.12,0-.12,0,.09,0,.14,0-.14,0-.14,0,.13.06.17A.48.48,0,0,0,20,7c.12,0,.38-.32.4-.31Z"/><path d="M20,7.11h0A.55.55,0,0,1,19.72,7l-.06-.06.07.05A.49.49,0,0,0,20,7.1h0c.18,0,.44-.32.44-.32l-.06-.06-.1.08c-.1.09-.22.21-.3.22a.46.46,0,0,1-.24-.13.36.36,0,0,1,0-.11l0-.07s0,.06,0,.1v0s0,0,0-.08v0a.43.43,0,0,1,0,0,.15.15,0,0,0,0,.07v0a.16.16,0,0,1,0-.1s0,0,0,.07a.23.23,0,0,0,0,.1A.35.35,0,0,0,20,7a1.09,1.09,0,0,0,.29-.22l.1-.09.06.07s-.26.33-.44.33Z"/><path class="cls-9" d="M20.46,6.59s-.22-.34-.4-.38-.35.13-.38.11-.05,0-.07.06a.06.06,0,0,0,0,.08s0-.09,0-.09,0,.1,0,.11,0-.08.05-.11,0,.11,0,.12.05-.11.09-.14A.37.37,0,0,1,20,6.28c.11,0,.33.36.35.36Z"/><path d="M20.39,6.64s0,0-.09-.1-.19-.23-.26-.25a.4.4,0,0,0-.25.06.19.19,0,0,0-.05.09s0,0,0,0,0-.06,0-.09,0,.08,0,.08h0s0,0,0,0a.33.33,0,0,1,0-.06c0,.06,0,.1,0,.11s0,0,0-.05,0-.07.06-.08A.34.34,0,0,1,20,6.28a1.06,1.06,0,0,1,.26.26l.09.1.07,0s-.22-.34-.4-.38a.52.52,0,0,0-.29.08l-.08,0c-.05,0-.06,0-.08,0a.07.07,0,0,0,0,.07l0,0,0,0s0,0,0,.06a.07.07,0,0,1,0,0c0,.06,0,.08,0,.08a.07.07,0,0,1,0-.08s0-.07.06-.07a.15.15,0,0,0,.11,0,.45.45,0,0,1,.29-.08c.18,0,.4.38.4.38l-.07,0Z"/><path class="cls-9" d="M20.35,6.49l-.24.12.18,0-.13.16.18-.07V7l.1-.14L20.5,7l.07-.14.09.16,0-.16L20.8,7l0-.21L21,7l0-.22.16,0L21,6.63h.16a1.07,1.07,0,0,0-.23-.14Z"/><path d="M20.8,7l-.11-.16,0,.16-.09-.16L20.5,7l-.07-.19-.1.14V6.75l-.18.07.12-.16-.17,0,.24-.14h.58a.48.48,0,0,1,.2.12l0,0a1.18,1.18,0,0,0-.23-.14h-.58l-.24.13.18,0-.13.16.18-.07V7l.1-.14L20.5,7l.07-.14.09.15,0-.15L20.8,7l0-.2L21,7l0-.21.16,0L21,6.63h0l.1.16-.16,0L21,7l-.13-.13,0,.21Z"/><path class="cls-9" d="M20.48,6.43l-.14.07.1,0-.07.09.1,0V6.7l.06-.08,0,.11,0-.08,0,.09,0-.08.06.08,0-.12.07.08V6.58l.08,0-.05-.1h.09a.32.32,0,0,0-.13-.08Z"/><path d="M20.72,6.75l-.06-.09v.08l0-.09,0,.08,0-.11-.06.08V6.58l-.1,0,.07-.09-.1,0,.13-.07h.32a.23.23,0,0,1,.11.06h0a.37.37,0,0,0-.12-.07h-.31l-.13.07.09,0-.07.09.1,0V6.7l.06-.08,0,.11,0-.08,0,.09V6.65l.06.09,0-.12.07.08V6.58l.09,0-.06-.09h0l.06.09-.09,0V6.7l-.07-.07,0,.12Z"/><path class="cls-9" d="M20.54,6.08s-.06,0-.09,0,.06,0,.06,0a.37.37,0,0,0-.06.16,2.07,2.07,0,0,0,0,.23.11.11,0,0,0,.09.09c.06,0,.08-.07.09-.07s.1,0,.14-.07a1,1,0,0,0,0-.24s.05,0,.05,0-.06,0-.06,0,0-.1-.13-.14-.15,0-.16,0Z"/><path d="M20.59,6.61h0a.11.11,0,0,1-.09-.09.18.18,0,0,0,0-.06,1,1,0,0,1,0-.17.3.3,0,0,1,0-.1.3.3,0,0,0,0,.1,1,1,0,0,0,0,.17l0,.06a.11.11,0,0,0,.08.09h0a.07.07,0,0,0,.07-.06l0,0a.09.09,0,0,0,.1-.06.74.74,0,0,0,0-.24c.05,0,.05,0,.05,0s0,0,0,0,0,0,0,0a.19.19,0,0,0-.14-.14.14.14,0,0,0-.15,0h0s.06-.06.15,0,.14.12.14.14.05-.07.05,0,0,.06,0,0,0,.15-.05.23a.11.11,0,0,1-.11.06l0,0s0,.06-.08.06Z"/><path class="cls-9" d="M20.53,6.07l-.08-.27.12.08-.07,0a.6.6,0,0,1,.06.11s.09,0,.15,0l0-.09h0l.11-.09,0,.11h0l0,.08a.37.37,0,0,1,.12.07A.18.18,0,0,0,21,6L20.9,6h.16a1.48,1.48,0,0,1-.24.21,1.49,1.49,0,0,1-.29-.12Z"/><path d="M20.82,6.2h0l-.13-.05a.62.62,0,0,1-.17-.07c0-.06-.07-.27-.07-.27l.12.08-.06,0,0,.07s0-.07-.05-.07l.07,0-.12-.08s.06.21.08.27l.17.07.12.05A1.81,1.81,0,0,0,21.05,6H20.9s0,0,.05,0a.24.24,0,0,1-.1.08A.28.28,0,0,0,20.73,6l.09-.19h0l0,.11L20.73,6a.19.19,0,0,1,.12.07A.2.2,0,0,0,21,6s-.06,0-.05,0h.16a1.11,1.11,0,0,1-.24.21ZM20.71,6l0,0-.1,0h0s.06,0,.1,0h0l0-.07,0,.08Z"/><path d="M20.6,6.23h0s0,0,0,0h0l-.07,0h0s0,0,0,0h0l.07,0Z"/><path d="M20.73,6.29h0l0,0h0l-.07,0h0l0,0h0a.11.11,0,0,1,.07,0Z"/><path d="M20.65,6.45h0c.05,0,.07,0,0,0h0l-.13,0h0s-.07,0,0,0h0l.14,0Z"/><path d="M20.64,6.37h0s0,0,0,0h0l-.06,0h0s0,0,0,0h0l.06,0Z"/><path d="M20.61,6.39h0s0,0,0,0h0a.11.11,0,0,1,0,0h0v0h0s0,0,0-.06Z"/><polygon class="cls-10" points="19.8 10.41 19.69 10.21 19.84 10.4 19.85 10.48 19.8 10.41"/><path d="M19.85,10.48l-.06-.07-.11-.19.16.18v.08Zm-.17-.26.17.25V10.4l-.16-.18Z"/><polygon class="cls-10" points="19.83 10.43 19.84 10.29 19.89 10.46 19.85 10.48 19.83 10.43"/><polygon points="19.85 10.48 19.82 10.43 19.84 10.29 19.89 10.46 19.85 10.48 19.85 10.48"/><polygon class="cls-10" points="19.79 10.47 19.6 10.38 19.75 10.43 19.85 10.48 19.79 10.47"/><path d="M19.85,10.48h-.06l-.19-.1.16,0,.1.06Zm-.25-.1.19.09h.05l-.09-.05-.15,0Z"/><polygon class="cls-10" points="19.84 10.53 19.56 10.45 19.78 10.46 19.85 10.47 19.84 10.53"/><path d="M19.84,10.54h0l-.28-.08h.29v.07Zm-.28-.08.28.07v-.06h-.29Z"/><polygon class="cls-10" points="19.86 10.44 20.03 10.41 19.97 10.52 19.84 10.48 19.86 10.44"/><polygon points="19.97 10.52 19.84 10.48 19.86 10.44 20.03 10.41 19.97 10.52 19.97 10.52"/><polygon class="cls-10" points="19.95 10.5 20.17 10.59 19.99 10.56 19.83 10.47 19.95 10.5"/><path d="M20.17,10.59l-.18,0-.16-.09.12,0,.22.09Zm-.34-.12.16.09.16,0L20,10.5l-.12,0Z"/><polygon class="cls-10" points="19.98 10.55 20.21 10.68 20.01 10.6 19.84 10.47 19.98 10.55"/><path d="M20.21,10.68,20,10.6l-.17-.13.38.2Zm-.37-.21.17.13.18.07-.35-.2Z"/><polygon class="cls-10" points="19.98 10.59 20.12 10.79 19.91 10.56 19.84 10.47 19.98 10.59"/><path d="M20.12,10.79l-.28-.32.15.12.13.2Zm-.28-.32.07.09.19.21L20,10.59l-.14-.12Z"/><polygon class="cls-10" points="19.95 10.6 19.95 10.72 19.85 10.54 19.84 10.47 19.95 10.6"/><path d="M20,10.72l-.1-.18v-.07l.11.12v.13Zm-.11-.25v.07l.1.17V10.6l-.11-.13Z"/><polygon class="cls-10" points="19.9 10.56 19.8 10.63 19.8 10.49 19.85 10.48 19.9 10.56"/><polygon points="19.8 10.64 19.8 10.49 19.85 10.48 19.9 10.56 19.8 10.64 19.8 10.64"/><polygon class="cls-10" points="19.77 10.4 19.7 10.29 19.8 10.4 19.85 10.48 19.77 10.4"/><polygon points="19.84 10.48 19.77 10.4 19.7 10.3 19.8 10.4 19.85 10.48 19.84 10.48 19.84 10.48"/><polygon class="cls-10" points="19.82 10.45 19.75 10.31 19.86 10.46 19.87 10.5 19.82 10.45"/><polygon points="19.87 10.5 19.82 10.45 19.75 10.31 19.87 10.5 19.87 10.5 19.87 10.5"/><polygon class="cls-10" points="19.83 10.49 19.64 10.41 19.8 10.46 19.87 10.49 19.83 10.49"/><polygon points="19.87 10.49 19.83 10.49 19.64 10.41 19.87 10.49 19.87 10.49 19.87 10.49"/><polygon class="cls-10" points="19.88 10.48 20.06 10.53 19.92 10.51 19.85 10.49 19.88 10.48"/><polygon points="20.06 10.53 19.85 10.49 20.04 10.53 20.02 10.52 20.06 10.53 20.06 10.53 20.06 10.53"/><polygon class="cls-10" points="19.89 10.52 19.84 10.56 19.86 10.51 19.86 10.48 19.89 10.52"/><polygon class="cls-1" points="19.89 10.52 19.84 10.56 19.86 10.51 19.86 10.48 19.89 10.52"/><polygon class="cls-10" points="19.96 10.56 20.08 10.7 19.98 10.6 19.86 10.49 19.96 10.56"/><path d="M20.08,10.7l-.22-.21.1.07.12.14Zm-.22-.21.19.17-.09-.1-.1-.07Z"/><polygon class="cls-10" points="19.93 10.51 19.97 10.47 19.98 10.54 19.87 10.5 19.93 10.51"/><polygon class="cls-1" points="19.93 10.51 19.97 10.47 19.98 10.54 19.87 10.5 19.93 10.51"/><polygon class="cls-10" points="19.81 10.43 19.76 10.29 19.84 10.43 19.85 10.48 19.81 10.43"/><polygon points="19.85 10.48 19.81 10.43 19.76 10.29 19.85 10.48 19.85 10.48 19.85 10.48"/><path class="cls-4" d="M20.35,10.75s.22-.46,1.15-.4a3.65,3.65,0,0,0-.93.71c-.06,0-.19-.24-.22-.31Z"/><path d="M20.56,11.06c-.07,0-.21-.31-.21-.31a1.16,1.16,0,0,1,1.15-.4,2.56,2.56,0,0,0-.79.59c-.07.07-.12.12-.14.12Zm.76-.71a1.09,1.09,0,0,0-.95.38c0,.12.14.32.19.32h0s.07-.05.13-.12a2.52,2.52,0,0,1,.79-.58Z"/><path class="cls-4" d="M21.59,10.53a1.93,1.93,0,0,1-.29.11,1.78,1.78,0,0,1,.22,0,2.29,2.29,0,0,0-.31.09c.05,0,.21,0,.24,0s-.22.09-.31.09.2,0,.29.05c-.1,0-.29.07-.39.05.08.06.22,0,.34.06a2.36,2.36,0,0,1-.4,0c.05,0,.23,0,.27.07s-.26,0-.33,0,.24,0,.27.06a1.25,1.25,0,0,1-.38,0,1,1,0,0,1,.15.11,2.15,2.15,0,0,0,.43.3l-.29,0,.21.31c-.09-.07-.25-.19-.35-.25s-.4-.13-.56-.25a2,2,0,0,1-.37-.74c0-.09,0-.25-.23-.17.2,0,.06-.25.27-.25s.11.12.16.2a1.05,1.05,0,0,0,.29.27.92.92,0,0,1,1.07-.18Z"/><path d="M21.31,11.9l-.08-.06L21,11.66a1.15,1.15,0,0,0-.31-.14.68.68,0,0,1-.26-.12,2,2,0,0,1-.36-.74c0-.09,0-.21-.17-.18h0a.17.17,0,0,0,.06-.11.12.12,0,0,1,.14-.12c.09,0,.11.06.13.12l0,.08a1.21,1.21,0,0,0,.29.27.9.9,0,0,1,1.07-.18,1,1,0,0,1-.28.11h.07a.36.36,0,0,1,.14,0l-.17.06-.13,0h.19l-.11.05a.53.53,0,0,1-.15.05h0a.71.71,0,0,0,.16,0l.08,0h0a.39.39,0,0,1-.17,0l.13,0a.83.83,0,0,1,.18-.05h-.14l-.08,0,.29-.11a1,1,0,0,0-1.07.19,1.27,1.27,0,0,1-.3-.27l0-.08c0-.07,0-.12-.12-.12s-.12.05-.13.11a.19.19,0,0,1-.05.1c.11,0,.14.11.15.19a1.88,1.88,0,0,0,.36.74.82.82,0,0,0,.25.12,1.48,1.48,0,0,1,.31.13l.28.19,0,0-.19-.27h.05l.25,0a2,2,0,0,1-.43-.3l-.06,0-.09-.06a.13.13,0,0,1,.12,0,.66.66,0,0,0,.26,0h-.1c-.07,0-.14,0-.17,0h0l.14,0h0a.46.46,0,0,1-.15,0h.08a2,2,0,0,0,.32,0l-.15,0h-.06A.16.16,0,0,1,21,11h0l.18,0,.16,0a.4.4,0,0,0-.15,0h0a.37.37,0,0,1,.17,0l-.18,0A.61.61,0,0,1,21,11h.18a.3.3,0,0,1,.16,0,1.06,1.06,0,0,1-.41,0l.15,0a.28.28,0,0,1,.13,0l-.15,0a.61.61,0,0,1-.18,0,.44.44,0,0,0,.17,0c.05,0,.09,0,.11,0a.47.47,0,0,1-.27,0h-.11l.09,0,.06,0a2.41,2.41,0,0,0,.42.31l-.25,0h0l.22.29Z"/><path class="cls-11" d="M22.82,12.16a.22.22,0,0,1,0-.14,1.09,1.09,0,0,1,.11-.13c.06,0,.08,0,.16-.08a1.29,1.29,0,0,0,.09-.16l.11-.2a1.5,1.5,0,0,0,.14-.19.66.66,0,0,1,.12-.17.39.39,0,0,1,.11-.17c0-.09.12-.18.15-.25a1.33,1.33,0,0,0,.14-.19c.05,0,.12-.1.18-.13s.13-.08.19,0,.1.11.06.16a.08.08,0,0,1-.11,0c-.05,0-.07-.13-.14-.05l-.13.17a.54.54,0,0,0-.08.17.63.63,0,0,0-.11.19.55.55,0,0,0-.1.17.74.74,0,0,0-.1.16c-.06.07-.08.13-.13.18a.63.63,0,0,1-.12.18,1.3,1.3,0,0,0-.08.17l-.14.17a.73.73,0,0,1-.14.2.14.14,0,0,1-.18-.05Z"/><path d="M22.93,12.23a.15.15,0,0,1-.12-.07.23.23,0,0,1,0-.14l0,0a.27.27,0,0,1,.09-.1h0s.06,0,.12-.08l0-.06a.41.41,0,0,0,.05-.09l.06-.11.05-.09.14-.19a.62.62,0,0,1,.11-.17.41.41,0,0,1,.12-.17,1,1,0,0,1,.08-.14.49.49,0,0,0,.07-.11l.14-.19,0,0,.14-.09,0,0c.07,0,.11-.05.15,0s.11.12.06.16-.07,0-.11,0a.1.1,0,0,1,0,0s-.06-.06-.09,0l0,.05a.53.53,0,0,1-.1.12.91.91,0,0,0-.08.17.67.67,0,0,0-.1.19.4.4,0,0,0-.1.17.55.55,0,0,0-.1.17.32.32,0,0,0-.08.09.24.24,0,0,1-.06.08.78.78,0,0,1-.12.19l-.08.17-.06.07-.07.1,0,.06-.11.13-.07,0Zm1.33-1.93-.09,0,0,0a.42.42,0,0,0-.14.09l-.05,0a2,2,0,0,1-.13.18.75.75,0,0,1-.07.12l-.08.13a.44.44,0,0,0-.12.17,1,1,0,0,0-.12.17l-.13.19a.41.41,0,0,0-.05.09l-.06.11a.41.41,0,0,0-.05.09.16.16,0,0,0,0,.07c-.06.06-.09.07-.13.07l0,0a.32.32,0,0,0-.08.09l0,0a.2.2,0,0,0,0,.13.16.16,0,0,0,.18.06.88.88,0,0,0,.1-.13l0-.07.08-.1.06-.07a1.3,1.3,0,0,1,.08-.17.61.61,0,0,0,.12-.19l.06-.07.07-.1a.69.69,0,0,1,.1-.17.69.69,0,0,1,.1-.17.85.85,0,0,1,.1-.19.91.91,0,0,1,.09-.17.44.44,0,0,0,.09-.11l0-.06s.07,0,.1,0l0,0a.09.09,0,0,0,.11,0s0-.11-.05-.15,0,0-.07,0Z"/><path class="cls-9" d="M23.63,11.42h0s0,.12-.14.23h0c-.1.1-.2.16-.23.14h0s0-.13.14-.23h0c.1-.1.2-.16.23-.14Z"/><path d="M23.28,11.81h0v0h0l0,0a.52.52,0,0,0,.21-.14,1.08,1.08,0,0,0,.14-.19.58.58,0,0,1-.13.19.49.49,0,0,1-.22.15Zm0,0a.45.45,0,0,1,.13-.21.53.53,0,0,1,.22-.14h0a.37.37,0,0,0-.22.14.52.52,0,0,0-.14.2Z"/><path class="cls-9" d="M23.08,11.05h0s0,.13,0,.27h0c-.05.13-.12.23-.16.22h0s0-.14,0-.27h0c0-.13.13-.23.16-.22Z"/><path d="M22.89,11.54h0s0-.15,0-.27.11-.22.15-.22,0,.15,0,.27-.11.22-.15.22Zm.19-.48s-.1.08-.16.21-.06.25,0,.26h0s.09-.08.15-.21.07-.25,0-.26Z"/><path class="cls-9" d="M23.17,11.12h0s0,.13-.05.26h0c-.06.13-.13.23-.16.21h0s0-.13.05-.26h0c.06-.13.13-.23.17-.21Z"/><path d="M23,11.6h0s0-.15.05-.27.12-.22.16-.22,0,.06,0,.09a1.67,1.67,0,0,1-.05.18c-.06.13-.13.22-.17.22Zm.21-.48s-.11.08-.16.21-.08.25-.05.26h0s.1-.08.16-.21a.94.94,0,0,0,.06-.18s0-.08,0-.08Z"/><path class="cls-9" d="M23.37,11.26h0s0,.13-.1.25h0c-.09.12-.18.2-.21.17h0s0-.13.1-.24h0c.09-.11.18-.19.21-.17Z"/><path d="M23.08,11.69h0v0h0s.11-.07.19-.17a.6.6,0,0,0,.11-.22.5.5,0,0,1-.11.22.41.41,0,0,1-.19.18Zm0,0a.48.48,0,0,1,.1-.23c.08-.1.16-.18.2-.18h0s-.12.08-.19.18a.44.44,0,0,0-.11.22Z"/><path class="cls-9" d="M23.79,11.53h0s-.05.12-.16.22h0c-.11.09-.22.14-.24.12h0s.05-.13.15-.22h0c.11-.1.21-.15.24-.12Z"/><path d="M23.41,11.88h0s.05-.14.15-.22a.46.46,0,0,1,.23-.13h0a.43.43,0,0,0-.23.12c-.12.1-.18.19-.16.21h0a.54.54,0,0,0,.22-.12.66.66,0,0,0,.15-.17.55.55,0,0,1-.15.17.48.48,0,0,1-.22.13Z"/><path class="cls-9" d="M23.71,11.48h0s0,.13-.13.23h0c-.1.1-.2.16-.23.14h0s0-.13.14-.23h0c.11-.1.21-.16.23-.14Z"/><path d="M23.36,11.86h0v0h0l0,0a.46.46,0,0,0,.21-.14.43.43,0,0,0,.15-.21c-.06,0-.15,0-.23.12a.63.63,0,0,0-.15.2.46.46,0,0,1,.14-.2.49.49,0,0,1,.22-.15l0,0a.46.46,0,0,1-.14.21.49.49,0,0,1-.22.15Z"/><path class="cls-9" d="M23.5,11.37h0s0,.14-.1.25h0c-.08.12-.18.2-.2.18h0s0-.13.09-.25h0c.08-.11.17-.19.2-.17Z"/><path d="M23.21,11.8h0s0-.15.1-.25.16-.18.2-.18v0c-.06,0-.13.06-.2.16s-.13.23-.1.24h0s.12-.08.19-.18a1.06,1.06,0,0,0,.1-.17,1,1,0,0,1-.09.17c-.08.11-.16.18-.2.18Z"/><path class="cls-9" d="M23.44,11.31h0s0,.13-.1.25h0c-.08.11-.18.19-.2.17h0s0-.13.1-.25h0c.08-.12.17-.19.2-.17Z"/><path d="M23.15,11.74h0v0h0l0,0s.11-.07.19-.17a.75.75,0,0,0,.09-.18.38.38,0,0,1-.09.18c-.07.1-.15.18-.19.18Zm0,0a.42.42,0,0,1,.1-.22c.08-.11.16-.18.2-.18v0c-.07,0-.13.07-.2.16a.48.48,0,0,0-.11.22Z"/><path class="cls-9" d="M23.56,10.4h0s0,.13-.1.25h0c-.08.12-.18.19-.21.17h0s0-.13.1-.25h0c.08-.11.17-.19.2-.17Z"/><path d="M23.27,10.83h0v0h0s.11-.07.19-.17a.62.62,0,0,0,.11-.23c0,.05-.05.15-.11.23s-.15.18-.19.18Zm0,0a.42.42,0,0,1,.1-.22c.08-.1.16-.18.2-.18v0h0s-.12.08-.19.17a.62.62,0,0,0-.11.22Z"/><path class="cls-9" d="M23.64,10.45h0s0,.13-.1.25h0c-.08.12-.17.2-.2.18h0s0-.14.1-.25h0c.08-.11.17-.19.2-.17Z"/><path d="M23.35,10.88h0s0-.15.1-.26.16-.18.2-.18v0c-.06,0-.13.06-.2.16s-.13.22-.1.24h0s.12-.08.19-.18a.56.56,0,0,0,.09-.17.51.51,0,0,1-.08.17c-.08.11-.16.18-.2.18Z"/><path class="cls-9" d="M23.72,10.51h0s0,.13-.1.25h0c-.08.12-.17.2-.2.18h0s0-.13.1-.24h0c.08-.11.17-.19.2-.17Z"/><path d="M23.43,10.94h0s0-.15.09-.26.16-.18.2-.18v0s-.13.06-.2.16-.13.22-.1.24h0s.12-.07.19-.17l.1-.17a1,1,0,0,1-.09.17c-.08.11-.16.18-.2.18Z"/><path class="cls-9" d="M23.81,10.57h0s0,.14-.1.25h0c-.08.11-.18.19-.2.17h0s0-.13.1-.25h0c.08-.12.17-.2.2-.18Z"/><path d="M23.52,11h0s0-.15.1-.25.16-.18.2-.18v0c-.06,0-.13.07-.2.16s-.13.23-.1.24h0s.12-.08.19-.18a.56.56,0,0,0,.09-.17.4.4,0,0,1-.09.17c-.07.11-.15.18-.19.18Z"/><path class="cls-9" d="M23.88,10.63h0s0,.13-.1.25h0c-.09.12-.18.2-.21.17h0s0-.13.1-.24h0c.09-.11.18-.19.21-.17Z"/><path d="M23.58,11.06h0s0-.15.1-.26.16-.18.2-.18,0,0,0,0h0s-.12.08-.19.17-.13.23-.11.25h0s.12-.07.19-.17.12-.19.11-.23a.4.4,0,0,1-.1.23c-.07.11-.16.18-.2.18Z"/><path class="cls-9" d="M24.32,10.88h0s0,.13-.1.25h0c-.09.12-.18.19-.21.17h0s0-.13.1-.25h0c.09-.12.18-.19.21-.17Z"/><path d="M24,11.31h0s0-.14.1-.25.16-.18.19-.18h0s-.12.08-.19.17-.13.23-.11.25h0s.12-.07.19-.17a.45.45,0,0,0,.11-.23.4.4,0,0,1-.1.23c-.08.1-.16.18-.2.18Z"/><path class="cls-9" d="M24.25,10.85h0s0,.14-.1.25h0c-.09.11-.18.19-.21.17h0s0-.13.1-.25h0c.09-.12.18-.2.21-.18Z"/><path d="M24,11.29h0s0-.15.1-.25.16-.18.2-.18v0s-.12.06-.19.16-.13.23-.1.24h0s.11-.08.19-.18a.56.56,0,0,0,.09-.17.4.4,0,0,1-.09.17c-.07.11-.16.19-.19.19Z"/><path class="cls-9" d="M24.19,10.82h0s0,.14-.1.25h0c-.09.11-.18.19-.21.17h0s0-.14.1-.25h0c.09-.12.18-.2.21-.18Z"/><path d="M23.9,11.25h0s0-.15.1-.25.16-.18.2-.18v0c-.06,0-.13.06-.19.16s-.13.23-.11.24h0s.11-.08.18-.18a.44.44,0,0,0,.1-.17.4.4,0,0,1-.09.17.41.41,0,0,1-.19.18Z"/><path class="cls-9" d="M24.11,10.77h0s0,.13-.1.25h0c-.08.12-.17.19-.2.17h0s0-.13.1-.25h0c.09-.12.18-.19.21-.17Z"/><path d="M23.81,11.2h0s0-.15.1-.26.15-.18.19-.18h0c-.05,0-.13.07-.2.17s-.12.23-.1.25h0s.12-.07.19-.17a.45.45,0,0,0,.11-.23A.4.4,0,0,1,24,11c-.08.11-.16.18-.2.18Z"/><path class="cls-9" d="M24,10.72h0s0,.14-.1.25h0c-.09.11-.18.19-.21.17h0s0-.13.1-.25h0c.09-.12.18-.2.21-.18Z"/><path d="M23.72,11.16h0s0-.15.1-.25.16-.18.2-.18h0s-.12.07-.19.17-.13.23-.11.24h0s.12-.08.19-.18.12-.18.11-.22a.38.38,0,0,1-.1.22c-.07.11-.16.19-.2.19Z"/><path class="cls-9" d="M24,10.68h0s0,.13-.1.24h0c-.09.11-.18.19-.21.17h0s0-.13.1-.25h0c.09-.12.18-.19.21-.17Z"/><path d="M23.66,11.11h0s0-.15.1-.25.16-.18.2-.18v0c-.05,0-.13.07-.19.16s-.13.23-.11.25h0s.11-.07.18-.17a.85.85,0,0,0,.1-.18.38.38,0,0,1-.09.18c-.07.1-.16.18-.19.18Z"/><path class="cls-9" d="M23.26,11.19h0s0,.13-.07.26h0c-.07.13-.15.21-.18.2h0s0-.14.06-.26h0c.06-.12.14-.21.18-.19Z"/><path d="M23,11.65h0a0,0,0,0,1,0,0h0s.1-.08.17-.19a1.14,1.14,0,0,0,.07-.19.45.45,0,0,1-.07.19c-.06.12-.13.2-.17.2Zm0,0a.4.4,0,0,1,.07-.23c.07-.13.14-.21.18-.21v0c-.05,0-.12.08-.18.19a.48.48,0,0,0-.08.23Z"/><path class="cls-9" d="M23.29,10.72h0s0,.13-.1.25h0c-.08.12-.17.2-.2.18h0s0-.14.1-.25h0c.08-.11.18-.19.2-.17Z"/><path d="M23,11.15h0s0-.15.09-.25.16-.19.2-.19v0h0c-.05,0-.13.07-.2.17s-.12.22-.1.24h0s.12-.08.19-.18a.53.53,0,0,0,.11-.22.38.38,0,0,1-.1.22c-.08.11-.16.18-.2.18Z"/><path class="cls-9" d="M23.38,10.78h0s0,.13-.1.24h0c-.09.11-.18.19-.21.17h0s0-.13.1-.25h0c.09-.12.18-.2.21-.17Z"/><path d="M23.08,11.21h0v0h0v0s.12-.08.19-.17a.48.48,0,0,0,.11-.23.43.43,0,0,1-.1.23c-.08.1-.16.18-.2.18Zm0,0a.42.42,0,0,1,.1-.22.41.41,0,0,1,.19-.18h0c-.05,0-.12.07-.2.17a.5.5,0,0,0-.1.22Z"/><path class="cls-9" d="M23.46,10.83h0s0,.14-.1.25h0c-.09.11-.18.19-.21.17h0s0-.13.1-.25h0c.09-.12.18-.2.21-.18Z"/><path d="M23.16,11.27h0s0-.15.1-.25.16-.18.2-.18h0s-.12.07-.19.17-.13.23-.11.24h0s.12-.08.19-.18a.43.43,0,0,0,.11-.22.38.38,0,0,1-.1.22c-.07.11-.16.19-.2.19Z"/><path class="cls-9" d="M23.55,10.9h0s0,.13-.1.25h0c-.09.11-.18.19-.21.17h0s0-.13.1-.25h0c.09-.12.18-.19.21-.17Z"/><path d="M23.25,11.33h0v0h0v0s.12-.07.19-.17a.48.48,0,0,0,.11-.23.43.43,0,0,1-.1.23c-.08.1-.16.18-.2.18Zm0,0a.42.42,0,0,1,.1-.22.41.41,0,0,1,.19-.18h0c-.05,0-.12.07-.2.17a.5.5,0,0,0-.1.22Z"/><path class="cls-9" d="M23.61,11h0s0,.14-.1.25h0c-.08.11-.17.19-.2.17h0s0-.13.1-.25h0c.08-.11.17-.19.2-.17Z"/><path d="M23.32,11.38h0s0-.15.1-.25.16-.18.2-.18v0c-.06,0-.13.06-.2.16s-.13.23-.1.24h0s.12-.08.19-.18a1.06,1.06,0,0,0,.1-.17,1,1,0,0,1-.09.17c-.08.11-.16.18-.2.18Z"/><path class="cls-9" d="M24.05,11.2h0s0,.13-.1.25h0c-.08.12-.17.2-.2.17h0s0-.13.1-.24h0c.08-.11.17-.19.2-.17Z"/><path d="M23.76,11.63h0v0h0a.43.43,0,0,0,.19-.17.55.55,0,0,0,.11-.23.4.4,0,0,1-.1.23c-.08.11-.16.18-.2.18Zm0,0a.42.42,0,0,1,.1-.22c.08-.1.16-.18.2-.18s0,0,0,0h0c-.05,0-.13.08-.2.18a.71.71,0,0,0-.11.21Z"/><path class="cls-9" d="M24,11.18h0s0,.13-.1.25h0c-.08.11-.17.19-.2.17h0s0-.13.1-.25h0c.08-.12.18-.19.2-.17Z"/><path d="M23.69,11.61h0s0-.14.09-.25.16-.18.2-.18h0c-.05,0-.13.07-.2.17s-.12.23-.1.25h0s.12-.07.19-.17A.55.55,0,0,0,24,11.2a.43.43,0,0,1-.1.23c-.08.1-.16.18-.2.18Z"/><path class="cls-9" d="M23.92,11.15h0s0,.13-.09.24h0c-.08.11-.17.19-.2.17h0s0-.13.1-.25h0c.08-.12.17-.2.2-.17Z"/><path d="M23.63,11.58h0s0,0,0,0h0l0,0s.12-.07.19-.17a.62.62,0,0,0,.11-.23.43.43,0,0,1-.1.23c-.08.1-.16.18-.2.18Zm0,0a.69.69,0,0,1,.1-.22c.08-.11.16-.18.2-.18h0c-.05,0-.13.07-.2.17a.73.73,0,0,0-.11.22Z"/><path class="cls-9" d="M23.84,11.09h0s0,.13-.1.25h0c-.08.12-.17.2-.2.17h0s0-.13.09-.24h0c.08-.11.17-.19.2-.17Z"/><path d="M23.55,11.52h0v0h0a.43.43,0,0,0,.19-.17.55.55,0,0,0,.11-.23.48.48,0,0,1-.1.23c-.08.11-.16.18-.2.18Zm0,0a.48.48,0,0,1,.1-.23c.08-.1.16-.18.2-.18v0h0c-.05,0-.13.08-.2.17a.58.58,0,0,0-.11.23Z"/><path class="cls-9" d="M23.75,11.05h0s0,.13-.1.24h0c-.08.12-.17.19-.2.17h0s0-.13.1-.25h0c.08-.12.17-.19.2-.17Z"/><path d="M23.46,11.48h0v0h0l0,0s.12-.07.19-.17a.53.53,0,0,0,.11-.23.43.43,0,0,1-.1.23c-.08.1-.16.18-.2.18Zm0,0a.69.69,0,0,1,.1-.22c.08-.11.16-.18.2-.18a0,0,0,0,1,0,0h0c-.05,0-.13.07-.2.17a.73.73,0,0,0-.11.22Z"/><path class="cls-9" d="M23.68,11h0s0,.13-.1.25h0c-.08.12-.17.19-.2.17h0s0-.13.1-.25h0c.08-.11.17-.19.2-.17Z"/><path d="M23.39,11.43h0a0,0,0,0,1,0,0h0s.12-.07.19-.17a.45.45,0,0,0,.11-.23.4.4,0,0,1-.1.23c-.08.11-.16.18-.2.18Zm0,0a.55.55,0,0,1,.1-.23c.08-.1.16-.18.2-.18h0c-.05,0-.13.08-.2.17a.76.76,0,0,0-.11.23Z"/><path class="cls-12" d="M23.74,7.94h0c.05,0,.09,0,.09,0V9s0,0-.09,0h0s-.09,0-.09,0V8s0,0,.09,0Z"/><path d="M23.74,9.05h0s-.09,0-.09,0V8s.18,0,.18,0V9s0,0-.09,0Zm0-1.11s-.09,0-.09,0V9s0,0,.09,0h0c.05,0,.09,0,.09,0V8s0,0-.09,0Z"/><polygon class="cls-10" points="23.55 8.36 23.04 8.7 23.37 8.29 23.7 8.21 23.55 8.36"/><path d="M23,8.71h0l.33-.42.33-.08-.14.16L23,8.71Zm.66-.5-.33.08-.3.39.48-.33.15-.14Z"/><polygon class="cls-10" points="23.54 8.29 22.83 8.38 23.45 8.16 23.72 8.21 23.54 8.29"/><path d="M22.83,8.39h0l.62-.23.27,0-.18.09-.71.1Zm.62-.23-.57.21.66-.08.18-.09-.27,0Z"/><polygon class="cls-10" points="23.9 8.32 24.1 8.7 23.78 8.41 23.7 8.2 23.9 8.32"/><path d="M24.09,8.71l-.31-.3-.09-.21.21.11.2.39Zm-.4-.51.1.21.29.27-.18-.36-.21-.12Z"/><polygon class="cls-10" points="23.98 8.18 24.59 8.71 23.86 8.34 23.66 8.2 23.98 8.18"/><path d="M24.59,8.71l-.73-.37-.2-.13.32,0,.61.53ZM24,8.18l-.32,0,.21.12.69.35L24,8.18Z"/><polygon class="cls-10" points="23.5 8.23 22.78 7.97 23.49 7.97 23.73 8.23 23.5 8.23"/><path d="M23.74,8.23H23.5L22.77,8h.72l.25.26Zm-1-.26.72.25h.22L23.49,8Z"/><polygon class="cls-10" points="23.43 8.02 23.08 7.58 23.6 7.91 23.72 8.24 23.43 8.02"/><path d="M23.73,8.25,23.42,8l-.34-.43.52.31.13.35Zm-.65-.66.35.43.28.2-.12-.31-.51-.32Z"/><polygon class="cls-10" points="23.55 7.93 23.34 7.43 23.72 7.84 23.7 8.23 23.55 7.93"/><path d="M23.7,8.25l-.16-.32-.2-.49.38.39,0,.42Zm-.36-.81.21.49.15.28V7.84l-.37-.4Z"/><polygon class="cls-10" points="23.75 7.89 24.2 7.5 23.89 8.03 23.69 8.22 23.75 7.89"/><path d="M23.68,8.24l.07-.35.45-.4L23.9,8l-.22.2Zm.52-.75-.45.4-.05.32L23.89,8l.31-.54Z"/><polygon class="cls-10" points="23.89 7.94 24.48 7.83 23.96 8.15 23.68 8.22 23.89 7.94"/><path d="M23.67,8.23l.22-.29.58-.12L24,8.16l-.29.07Zm.8-.41L23.89,8l-.19.26L24,8.15l.51-.33Z"/><polygon class="cls-10" points="23.89 8.06 24.6 8.16 23.94 8.27 23.72 8.21 23.89 8.06"/><path d="M23.94,8.28l-.22-.07.17-.15.71.09-.66.13Zm-.05-.22-.17.15.22.06.66-.12-.71-.09Z"/><polygon class="cls-10" points="23.63 8.4 23.38 8.62 23.53 8.36 23.7 8.21 23.63 8.4"/><path d="M23.38,8.62h0l.14-.26.18-.15-.07.19-.25.22Zm.32-.41-.17.15-.13.23.22-.19.08-.19Z"/><polygon class="cls-10" points="23.65 8.28 23.27 8.51 23.59 8.21 23.73 8.15 23.65 8.28"/><path d="M23.28,8.52h0l.32-.3.14-.06-.07.13-.38.24Zm.45-.37-.14.06-.29.28.35-.22.08-.12Z"/><polygon class="cls-10" points="23.83 8.23 24.11 8.62 23.77 8.31 23.7 8.16 23.83 8.23"/><path d="M24.11,8.62l-.34-.31-.08-.15.14.07.29.39Zm-.42-.46.09.15.31.29-.26-.37-.14-.07Z"/><polygon class="cls-10" points="23.6 8.15 23.23 7.82 23.59 8.06 23.72 8.19 23.6 8.15"/><path d="M23.73,8.2l-.13,0-.38-.34.37.23.14.15Zm-.51-.38.38.33.11,0-.12-.13-.37-.24Z"/><polygon class="cls-10" points="23.78 8.1 24.13 8.16 23.79 8.16 23.68 8.19 23.78 8.1"/><path d="M23.68,8.19h0l.1-.08.35.06h-.34l-.11,0Zm.1-.08-.08.07.09,0h.34l-.35-.05Z"/><polygon class="cls-10" points="23.68 7.95 23.94 7.64 23.8 7.89 23.69 8.18 23.68 7.95"/><path d="M23.69,8.18h0V8l.27-.31-.14.25-.11.29Zm.25-.54L23.68,8v.2l.1-.27.15-.24Z"/><polygon class="cls-10" points="23.55 8.04 23.26 8.02 23.56 7.94 23.71 8.16 23.55 8.04"/><path d="M23.71,8.17l-.17-.12-.28,0,.3-.09.16.22Zm-.16-.23L23.26,8h.29l.14.1-.14-.2Z"/><polygon class="cls-10" points="23.6 8.31 23.1 8.52 23.51 8.26 23.7 8.21 23.6 8.31"/><path d="M23.1,8.52h0l.41-.26.19,0-.1.11-.5.2Zm.6-.31-.19,0-.37.24.45-.19.11-.1Z"/><path class="cls-12" d="M21,8.2h0s0,0,0,0L20.81,9s0,0,0,0h0s0,0,0,0L21,8.21a0,0,0,0,1,.05,0Z"/><path d="M20.79,9h0s0,0,0,0L21,8.21H21s0,0,0,0L20.81,9ZM21,8.2h0L20.73,9s0,0,0,0h0l.24-.77s0,0,0,0Z"/><path class="cls-12" d="M20.53,8.13h0l0,0V9l0,0h0s-.05,0-.05,0V8.15s0,0,.05,0Z"/><path d="M20.53,9s-.05,0-.05,0V8.15s.1,0,.1,0V9s0,0,0,0Zm0-.86s-.05,0-.05,0V9s0,0,.05,0h0l0,0V8.15l0,0Z"/><path class="cls-13" d="M20.24,7.69c.12,0,.2,0,.24.19h0c0-.26.23-.47.4-.11,0,.06-.08,0-.14-.09s-.18,0-.18.26c0,0,0,.17,0,.17l-.09,0s-.06-.29-.19-.32-.07,0-.17.07-.1,0,0,0,.11-.11.15-.12Z"/><path d="M20.57,8.12h-.09a.86.86,0,0,0-.1-.25.62.62,0,0,1,.1.24l.09,0s0-.12,0-.17c0-.26.12-.35.19-.26l.09.08a.34.34,0,0,1-.09-.08c-.07-.08-.17,0-.18.26,0,0,0,.17,0,.17Zm-.06-.23,0,0a.45.45,0,0,1,.09-.21c.1-.1.24,0,.33.14h0c-.09-.21-.22-.25-.32-.14a.31.31,0,0,0-.07.24Zm-.44,0h.05l.08,0a.15.15,0,0,1,.07,0s0,0,0,0-.07,0-.08,0a.15.15,0,0,1-.09,0Zm0,0,0,0a.15.15,0,0,0,.1-.06l0,0a.16.16,0,0,1,.2.07.17.17,0,0,0-.19-.07l-.06,0s-.06.07-.1.07l0,0Z"/><path class="cls-13" d="M20.27,7.84c.11,0,.19,0,.22.2s0,0,0,0c0-.25.36-.26.5.11,0,.06,0,.06-.07,0s-.34-.27-.36,0c0,.05,0,.17,0,.17l-.09,0s-.05-.3-.17-.34-.12.06-.23.08-.1,0,0,0,.16-.12.21-.13Z"/><path d="M20.57,8.29h0l-.09,0a.88.88,0,0,0-.1-.28.57.57,0,0,1,.1.27l.09,0a1.49,1.49,0,0,1,0-.17c0-.1.06-.13.11-.13a.38.38,0,0,1,.25.15A.23.23,0,0,0,21,8.2s0,0,0,0c-.12-.31-.36-.33-.45-.24a.19.19,0,0,0-.05.13V8a.23.23,0,0,1,0-.1c.1-.1.34-.08.46.24,0,0,0,0,0,0s0,0-.07,0A.38.38,0,0,0,20.7,8c-.06,0-.1,0-.1.12l0,.17ZM20.08,8H20l.06,0,.06,0,.15-.09a.19.19,0,0,1,.19.09.17.17,0,0,0-.19-.08l-.14.09-.07,0,0,0h0a.27.27,0,0,0,.13,0,.18.18,0,0,1,.09,0h0a.21.21,0,0,0-.11,0,.33.33,0,0,1-.12,0Z"/><path class="cls-13" d="M20.3,8c.11,0,.19.07.21.23h0c0-.25.25-.11.34.24,0,0-.07,0-.12-.11s-.11-.29-.15-.06c0,.06,0,.17,0,.17l-.08,0s0-.3-.15-.35-.14.21-.25.22-.1,0,0-.05S20.25,8,20.3,8Z"/><path d="M20.87,8.5s-.08-.07-.12-.12a.2.2,0,0,1,0-.08c-.05-.09-.08-.13-.11,0l0,.17-.09,0a.59.59,0,0,0-.12-.34.52.52,0,0,1,.12.33l.08,0s0-.11,0-.17.07-.11.11,0,0,0,0,.08a.42.42,0,0,0,.12.12h0c-.1-.38-.32-.47-.34-.25v0q0-.09.09-.09c.08,0,.2.14.26.37Zm-.79-.17-.08,0,.06,0s0,0,.07-.08A.86.86,0,0,1,20.3,8h0c-.05,0-.13.11-.19.18s-.06.09-.07.09l-.06,0h.08c.05,0,.09-.06.13-.11s.07-.1.11-.1l0,0s0,0,0,0-.08.05-.11.1-.08.12-.14.12Z"/><path class="cls-12" d="M19.87,8.13h0a0,0,0,0,1,.05,0l.26.77s0,0,0,0h0a.06.06,0,0,1-.06,0l-.26-.77s0,0,0,0Z"/><path d="M20.12,9h0l-.26-.77s0,0,0,0h.06l.26.77s0,0,0,0Zm-.25-.82h0l0,0,.27.78h0a0,0,0,0,0,0,0l-.26-.77Z"/><path class="cls-13" d="M19.94,7.64c-.11,0-.17.11-.14.26s0,0,0,0c-.08-.24-.35-.23-.36.16,0,.06.06-.05.09-.13s.12-.16.22.06l.08.15.07,0s-.05-.3.05-.38a.4.4,0,0,1,.2-.07c.09,0,.09,0,0,0Z"/><path d="M19.81,8.16h0L19.72,8c0-.13-.1-.16-.13-.16s-.06,0-.07.1-.06.15-.09.15v0s.05-.06.08-.14.14-.12.22.07l.08.15.07-.05c0-.2,0-.33.05-.37a.3.3,0,0,1,.18-.06l.09,0H20a.23.23,0,0,0-.14.06.3.3,0,0,0,0,.2l0,0a.28.28,0,0,1,0-.18.11.11,0,0,1,.11-.06h.26s0,0-.07,0a.43.43,0,0,0-.19.06q-.09.07-.06.36s0,0-.07.06Zm-.35-.27c.06-.17.18-.16.25-.08-.08-.07-.19-.08-.25.08Z"/><path class="cls-13" d="M20,7.79c-.12,0-.16.12-.13.27l0,0c-.09-.24-.36-.21-.34.18,0,.06.05,0,.08-.14s.11-.16.22.05a1.2,1.2,0,0,1,.08.15L20,8.27s-.07-.3,0-.38a.27.27,0,0,1,.18-.08c.1,0,.09,0,0,0l-.19,0Z"/><path d="M19.87,8.32h0l-.09-.15c-.06-.12-.11-.15-.13-.15s-.06,0-.08.1-.05.16-.07.16h0s0-.07.07-.15.12-.13.22.05l.09.14.06,0c0-.12,0-.32,0-.39a.36.36,0,0,1,.18-.07c.08,0,.08,0,.08,0h0l-.21,0a.2.2,0,0,0-.11.06.28.28,0,0,0,0,.21l0,0a.32.32,0,0,1,0-.19A.14.14,0,0,1,20,7.78l.19,0h.06s0,0-.07,0a.43.43,0,0,0-.18.08c-.08.06-.05.26,0,.37l-.07.06Zm-.38-.16A.3.3,0,0,1,19.56,8a.13.13,0,0,1,.2,0,.13.13,0,0,0-.19,0,.33.33,0,0,0-.08.19Z"/><path class="cls-13" d="M20,8c-.11,0-.15.14-.11.29s0,0,0,0c-.12-.23-.37-.19-.33.21,0,.06.05-.06.07-.15s.09-.17.22,0l.1.14L20,8.45s-.09-.3,0-.39A.38.38,0,0,1,20.21,8c.09,0,.08-.06,0,0L20,8Z"/><path d="M20,8.51h0l-.1-.14c-.06-.11-.11-.13-.14-.13s-.06,0-.07.1,0,.17-.06.17v0s0-.07.06-.15.11-.14.22,0l.1.14L20,8.45c0-.12-.07-.32,0-.39A.35.35,0,0,1,20.19,8l.07,0s0,0-.05,0a.43.43,0,0,0-.18.09c-.06.06-.06.19,0,.38,0,0,0,0-.06.07Zm-.39-.13a.33.33,0,0,1,.06-.21c.05-.06.13-.05.2,0a.14.14,0,0,0-.2,0,.28.28,0,0,0-.06.2Zm.34-.13,0,0a.26.26,0,0,1,0-.19A.14.14,0,0,1,20,8l.18,0h0L20,8a.16.16,0,0,0-.1.08.29.29,0,0,0,0,.21Z"/><path class="cls-13" d="M20.92,7.58c.12,0,.18.11.17.27s0,0,0,0c.06-.25.37-.35.41,0,0,.06-.07-.06-.1-.14s-.17,0-.25.17a1.28,1.28,0,0,0-.07.16l-.08,0s0-.3-.08-.37-.08,0-.19,0-.09,0,0,0,.14-.06.18-.06Z"/><path d="M21.1,8.11h0l-.08,0c0-.09,0-.31-.08-.37l-.05,0a.39.39,0,0,1-.14,0c-.06,0-.07,0-.07,0s0,0,.06,0a.2.2,0,0,0,.12,0,.09.09,0,0,1,.06,0,.17.17,0,0,1,.16.13.16.16,0,0,0-.16-.12h0l-.06,0-.09,0h-.09l.07,0a.15.15,0,0,0,.1,0h0l.05,0c.09.06.09.26.08.38l.08,0A1.16,1.16,0,0,1,21.16,8c.09-.24.22-.28.26-.17l.06.12s-.05-.09-.07-.12-.16-.07-.24.17a1.28,1.28,0,0,0-.07.16Zm.41-.19h0c0-.17-.08-.27-.18-.27a.26.26,0,0,0-.22.22v0a.27.27,0,0,1,.22-.17c.1,0,.17.1.19.27Z"/><path class="cls-13" d="M20.9,7.73c.12,0,.17.12.15.28,0,0,0,0,0,0,.07-.24.42-.12.44.29,0,.06,0,0-.06,0s-.24-.38-.33-.16a1.2,1.2,0,0,0-.08.15l-.07,0s0-.3-.06-.39-.13,0-.24,0-.09,0,0,0,.19,0,.24,0Z"/><path d="M21.49,8.36s0,0,0-.08S21.31,8,21.22,8s-.07,0-.1.08l-.07.15-.08,0c0-.12,0-.32-.06-.38a.17.17,0,0,0-.12,0,.24.24,0,0,1-.12,0l-.07,0h0l.09,0,.15,0a.17.17,0,0,1,.16.14.21.21,0,0,0-.15-.14h0l-.16,0-.07,0H20.6l.07,0h.12a.17.17,0,0,1,.12,0c.08.07.08.27.06.38l.07.06a.76.76,0,0,1,.08-.15c0-.06.05-.09.1-.09s.2.16.23.25,0,.07,0,.07,0,0,0,0c0-.26-.15-.41-.28-.41a.15.15,0,0,0-.15.12V8a.22.22,0,0,1,.15-.08c.13,0,.28.16.29.42,0,0,0,0,0,0Z"/><path class="cls-13" d="M20.87,7.91c.12,0,.16.13.13.29s0,0,0,0c.09-.24.27,0,.25.35,0,0-.06-.06-.08-.15s0-.31-.13-.11a1.55,1.55,0,0,1-.08.15l-.07-.06s.06-.3,0-.39-.2.15-.31.11-.08,0,0,0,.26-.18.3-.17Z"/><path d="M21.26,8.58a.44.44,0,0,1-.08-.16s0-.06,0-.09,0-.15-.1,0L21,8.46l-.07-.06a1.52,1.52,0,0,0,0-.23,1.38,1.38,0,0,1,0,.22l.07.07a1.2,1.2,0,0,1,.08-.15c.08-.15.1-.08.11,0s0,.06,0,.09a.4.4,0,0,0,.07.16h0a.53.53,0,0,0-.09-.41c-.05-.06-.11,0-.15.06V8.17c.07-.07.11-.06.15,0a.59.59,0,0,1,.1.42Zm-.66-.45h0a.25.25,0,0,0,.15-.06A.24.24,0,0,1,20.84,8h0a.22.22,0,0,0-.12.05.37.37,0,0,1-.14.07Zm0,0-.06,0h.07L20.66,8a.85.85,0,0,1,.21-.11.17.17,0,0,1,.14.15.2.2,0,0,0-.14-.15h0a1.47,1.47,0,0,0-.21.11l-.09.06h0s0,0,0,0Z"/><path d="M22.17,12.88h0c-1.68-.71-2.73-1.58-2.81-3.76V5.43h5.58V9.12c0,1.83-.77,2.88-2.75,3.76ZM19.41,5.49V9.12c.07,2.15,1.07,3,2.76,3.7,1.95-.86,2.71-1.9,2.71-3.7V5.49Z"/></g></g></g></g></g></svg>