<svg xmlns="http://www.w3.org/2000/svg" xmlns:xlink="http://www.w3.org/1999/xlink" viewBox="0 0 29.46 17.19"><defs><style>.cls-1{fill:#fff;}.cls-2{fill:none;}.cls-3{clip-path:url(#clip-path);}.cls-4{clip-path:url(#clip-path-2);}.cls-5{fill:#d50037;}</style><clipPath id="clip-path"><rect class="cls-1" width="29.46" height="17.19"/></clipPath><clipPath id="clip-path-2"><rect class="cls-2" width="29.46" height="17.19"/></clipPath></defs><g id="Layer_2" data-name="Layer 2"><g id="cá»"><g id="west_asia" data-name="west asia"><rect class="cls-1" width="29.46" height="17.19"/><g class="cls-3"><g class="cls-4"><path class="cls-5" d="M7,3.88c0,.31,0,.62-.1.93,0,.1,0,.2,0,.3a3.81,3.81,0,0,1,.59,0,3.69,3.69,0,0,1,.58,0c0-.1,0-.2,0-.3,0-.31-.08-.62-.09-.93A9.84,9.84,0,0,1,9.1,4a3.77,3.77,0,0,1,0-.58,3.81,3.81,0,0,1,0-.59A8.27,8.27,0,0,1,7.87,3,9.84,9.84,0,0,1,8,1.77a5.49,5.49,0,0,1-.58,0,5.68,5.68,0,0,1-.59,0A8.27,8.27,0,0,1,7,3a8.27,8.27,0,0,1-1.23-.15,5.68,5.68,0,0,1,0,.59,5.63,5.63,0,0,1,0,.58A9.84,9.84,0,0,1,7,3.88"/><path class="cls-5" d="M21.59,3.88a7.32,7.32,0,0,1-.09.93c0,.1,0,.2-.05.3a3.81,3.81,0,0,1,.59,0,3.77,3.77,0,0,1,.58,0c0-.1,0-.2-.05-.3a7.32,7.32,0,0,1-.09-.93A9.9,9.9,0,0,1,23.7,4a5.72,5.72,0,0,1,0-1.17A8.3,8.3,0,0,1,22.48,3a9.84,9.84,0,0,1,.14-1.23,5.63,5.63,0,0,1-.58,0,5.68,5.68,0,0,1-.59,0A7.13,7.13,0,0,1,21.59,3a8.3,8.3,0,0,1-1.22-.15,5.72,5.72,0,0,1,0,1.17,9.9,9.9,0,0,1,1.22-.14"/><path class="cls-5" d="M7.87,13.31c0-.32,0-.63.09-.94,0-.09,0-.19,0-.29a5.46,5.46,0,0,1-.58,0,5.65,5.65,0,0,1-.59,0c0,.1,0,.2,0,.29.05.31.08.62.1.94a8.27,8.27,0,0,1-1.23-.15,5.68,5.68,0,0,1,0,.59,5.83,5.83,0,0,1,0,.59A8.27,8.27,0,0,1,7,14.19a8.27,8.27,0,0,1-.15,1.23,3.81,3.81,0,0,1,.59,0,3.69,3.69,0,0,1,.58,0,9.84,9.84,0,0,1-.14-1.23,8.27,8.27,0,0,1,1.23.15,3.9,3.9,0,0,1,0-.59,3.81,3.81,0,0,1,0-.59,8.27,8.27,0,0,1-1.23.15"/><path class="cls-5" d="M22.48,13.31a7.3,7.3,0,0,1,.09-.94c0-.09,0-.19.05-.29a4.3,4.3,0,0,1-1.17,0c0,.1,0,.2.05.29a7.3,7.3,0,0,1,.09.94,8.3,8.3,0,0,1-1.22-.15,5.68,5.68,0,0,1,0,.59,5.83,5.83,0,0,1,0,.59,8.3,8.3,0,0,1,1.22-.15,7.13,7.13,0,0,1-.14,1.23,3.81,3.81,0,0,1,.59,0,3.77,3.77,0,0,1,.58,0,9.84,9.84,0,0,1-.14-1.23,8.3,8.3,0,0,1,1.22.15,5.83,5.83,0,0,1,0-.59,5.68,5.68,0,0,1,0-.59,8.3,8.3,0,0,1-1.22.15"/><rect class="cls-5" x="13" width="3.46" height="17.19"/><rect class="cls-5" y="6.86" width="29.46" height="3.46"/></g></g></g></g></g></svg>