<svg xmlns="http://www.w3.org/2000/svg" xmlns:xlink="http://www.w3.org/1999/xlink" viewBox="0 0 29.46 17.19"><defs><style>.cls-1{fill:none;}.cls-2{clip-path:url(#clip-path);}.cls-3{fill:#92c5e0;}.cls-4{fill:#fff;}.cls-5{fill:#3e9a13;}.cls-6{fill:#ba0027;}.cls-7{fill:#f5cd28;}.cls-8{fill:#cacaca;}.cls-9{fill:#7dcbc9;}.cls-10{fill:#60350e;}.cls-11{fill:#1f1f1f;}.cls-12{fill:#c0003b;}.cls-13{fill:#f8e629;}.cls-14{fill:#f0f2be;}.cls-15{fill:#fdffcb;}</style><clipPath id="clip-path"><rect class="cls-1" width="29.46" height="17.19"/></clipPath></defs><g id="Layer_2" data-name="Layer 2"><g id="cá»"><g id="central_ameria" data-name="central ameria"><g class="cls-2"><rect class="cls-3" width="9.82" height="17.19"/><rect class="cls-4" x="9.82" width="9.82" height="17.19"/><rect class="cls-3" x="19.64" width="9.82" height="17.19"/><g class="cls-2"><path class="cls-5" d="M15,11.64a.28.28,0,0,0-.12-.1,2.76,2.76,0,0,0-.9-.27,1,1,0,0,1-.23-.12c-.18-.09-.39-.12-.57-.21l-.08-.06c-.07-.08-.2-.11-.28-.19a3.06,3.06,0,0,1-.81-.95,3.18,3.18,0,0,1-.43-1.5,5.61,5.61,0,0,1,.05-1,4.11,4.11,0,0,1,.58-1.36l-.05,0a4.11,4.11,0,0,0-.58,1.36,5.61,5.61,0,0,0,0,1A3.18,3.18,0,0,0,12,9.77a3.22,3.22,0,0,0,.81,1c.08.07.21.1.28.18s.07.05.08.06c.18.09.39.12.57.21a1,1,0,0,0,.23.12,2.84,2.84,0,0,1,.9.27.23.23,0,0,1,.12.1l0,0Z"/><path d="M15,11.68h0a.58.58,0,0,0-.12-.1,3.05,3.05,0,0,0-.9-.27.34.34,0,0,1-.15-.07l-.08-.05-.27-.1a1.54,1.54,0,0,1-.3-.11l-.08-.05a.53.53,0,0,0-.15-.11.57.57,0,0,1-.13-.08l-.14-.13A2.61,2.61,0,0,1,12,9.77l-.08-.18a2.92,2.92,0,0,1-.35-1.32c0-.12,0-.24,0-.36a2.35,2.35,0,0,1,0-.65A3.83,3.83,0,0,1,12.2,5.9l.05,0a4.08,4.08,0,0,0-.57,1.36,2.35,2.35,0,0,0,0,.65c0,.12,0,.24,0,.36A2.81,2.81,0,0,0,12,9.56l.07.18a2.6,2.6,0,0,0,.69.83l.13.12a.29.29,0,0,0,.13.08.53.53,0,0,1,.15.11l.07,0a2.12,2.12,0,0,0,.29.11,1.45,1.45,0,0,1,.29.11l.08,0a.33.33,0,0,0,.14.06,2.94,2.94,0,0,1,.9.27.45.45,0,0,1,.13.1l-.06,0ZM12.24,5.87l0,0a4,4,0,0,0-.57,1.35,2.35,2.35,0,0,0-.05.65c0,.12,0,.24,0,.36a2.92,2.92,0,0,0,.35,1.32l.08.18a2.53,2.53,0,0,0,.68.82l.13.13a.39.39,0,0,0,.14.08.53.53,0,0,1,.15.11l.07.05.3.12a1,1,0,0,1,.28.1l.08,0c.05,0,.09.07.14.07a3,3,0,0,1,.9.28.27.27,0,0,1,.12.09l0,0-.12-.09a3,3,0,0,0-.9-.27.25.25,0,0,1-.14-.06l-.09-.06-.28-.1a1.45,1.45,0,0,1-.29-.11.18.18,0,0,1-.08-.06.56.56,0,0,0-.15-.1l-.13-.08-.13-.12A2.8,2.8,0,0,1,12,9.74L12,9.57a2.85,2.85,0,0,1-.36-1.33c0-.12,0-.24,0-.36a2.35,2.35,0,0,1,.05-.65,4,4,0,0,1,.57-1.36Z"/><path class="cls-6" d="M15,11.66l-.14-.08a2.91,2.91,0,0,0-.89-.27.51.51,0,0,1-.15-.07l-.08-.05-.28-.1a1.45,1.45,0,0,1-.29-.11l-.09-.06a.5.5,0,0,0-.14-.1l-.14-.08-.14-.13A2.67,2.67,0,0,1,12,9.78l-.08-.18a2.85,2.85,0,0,1-.36-1.33c0-.12,0-.24,0-.36a2.81,2.81,0,0,1,0-.65,3.83,3.83,0,0,1,.58-1.36h0a4.06,4.06,0,0,0-.58,1.35,2.81,2.81,0,0,0-.05.65,2.16,2.16,0,0,1,0,.36,2.8,2.8,0,0,0,.35,1.32l.08.18a2.6,2.6,0,0,0,.67.82l.14.13.13.08a.78.78,0,0,1,.15.1l.08.06.29.11.28.1.08.05.14.07a2.76,2.76,0,0,1,.91.27.28.28,0,0,1,.12.1Z"/><path class="cls-5" d="M13.93,11.28a2.13,2.13,0,0,0-1,.51c.68,0,1.07-.33,1-.51Z"/><path class="cls-5" d="M13.58,11.11a2.18,2.18,0,0,0-1,.51c.67,0,1.07-.32,1-.51Z"/><path class="cls-5" d="M14.08,11.28a2.22,2.22,0,0,0-.49-1c0,.69.32,1.1.49,1Z"/><path class="cls-5" d="M13.82,11.16a2.29,2.29,0,0,0-.57-1c.05.7.41,1.07.57,1Z"/><path class="cls-5" d="M13.29,10.93A2,2,0,0,0,13,10c-.11.62.12,1,.29,1Z"/><path class="cls-5" d="M13.09,10.91a2,2,0,0,0-1.09,0c.61.3,1.11.17,1.09,0Z"/><path class="cls-5" d="M12.82,10.75a2.17,2.17,0,0,0-1.07-.26c.52.45,1,.46,1.07.26Z"/><path class="cls-5" d="M12.87,10.63a2,2,0,0,0-.11-1c-.21.59-.06,1,.11,1Z"/><path class="cls-5" d="M12.6,10.41a1.84,1.84,0,0,0-.11-.91c-.19.53-.05.93.11.91Z"/><path class="cls-5" d="M12.52,10.48a2.07,2.07,0,0,0-.85-.69c.28.63.74.86.85.69Z"/><path class="cls-5" d="M12.32,10.08a2,2,0,0,0,0-.91c-.28.48-.22.9,0,.91Z"/><path class="cls-5" d="M12.08,9.7a1.9,1.9,0,0,0,.06-1c-.31.54-.24,1-.06,1Z"/><path class="cls-5" d="M12,9.79a1.68,1.68,0,0,0-.84-.28c.38.4.79.44.84.28Z"/><path class="cls-5" d="M11.88,9.31a2,2,0,0,0,.14-1c-.35.51-.32,1-.14,1Z"/><path class="cls-5" d="M11.67,8.53a1.7,1.7,0,0,0,.42-.81c-.45.32-.56.74-.42.81Z"/><path class="cls-5" d="M11.63,8.75a1.7,1.7,0,0,0-.7-.57c.23.51.6.7.7.57Z"/><path class="cls-5" d="M11.59,8.29a1.8,1.8,0,0,0-.47-.78c0,.56.33.87.47.78Z"/><path class="cls-5" d="M11.63,7.55a1.49,1.49,0,0,0,.67-.43c-.49,0-.75.31-.67.43Z"/><path class="cls-5" d="M11.71,7a1.92,1.92,0,0,0-.25-.88c-.1.56.1.93.25.88Z"/><path class="cls-5" d="M11.7,7.27a2.06,2.06,0,0,0,.78-.6c-.6.1-.89.45-.78.6Z"/><path class="cls-5" d="M11.75,7a1.93,1.93,0,0,0,.67-.73c-.57.21-.8.61-.67.73Z"/><path class="cls-5" d="M11.85,6.43a1.83,1.83,0,0,0,.05-.91c-.28.48-.21.9-.05.91Z"/><path class="cls-5" d="M12.07,6.08a1.61,1.61,0,0,0,0-.74c-.22.4-.17.74,0,.74Z"/><path class="cls-5" d="M12.14,6.29a2,2,0,0,0,.73-.67c-.58.16-.85.54-.73.67Z"/><path class="cls-5" d="M12.25,5.91a1.57,1.57,0,0,0,.34-.65c-.37.26-.46.59-.34.65Z"/><path class="cls-5" d="M13.32,11a2.09,2.09,0,0,0-1,.51c.67,0,1.07-.33,1-.51Z"/><path class="cls-5" d="M11.6,8.18a1.65,1.65,0,0,0,.29-.72c-.42.36-.44.66-.29.72Z"/><path class="cls-5" d="M11.91,9.49a2.2,2.2,0,0,0-.86-.7c.28.63.74.86.86.7Z"/><path class="cls-5" d="M11.63,7.49a1.45,1.45,0,0,0-.47-.78c0,.56.33.87.47.78Z"/><path class="cls-5" d="M13.28,10.93c-.17.06-.39-.35-.28-1a3.79,3.79,0,0,0,.28,1Z"/><path d="M13.25,10.94a.21.21,0,0,1-.13-.07A1.24,1.24,0,0,1,13,10a3.1,3.1,0,0,0,.29,1h0ZM13,10a1.19,1.19,0,0,0,.13.9.15.15,0,0,0,.12.07h0A3.39,3.39,0,0,1,13,10Z"/><path class="cls-5" d="M13.92,11.28c.09.18-.3.51-1,.5a3.79,3.79,0,0,0,1-.5Z"/><path d="M13,11.79h0a4.22,4.22,0,0,0,.94-.5s0,.1,0,.16a1.16,1.16,0,0,1-.95.35Zm.95-.51a3.14,3.14,0,0,1-.94.5,1.13,1.13,0,0,0,.93-.35.14.14,0,0,0,0-.15Z"/><path class="cls-5" d="M13.58,11.11c.09.18-.3.51-1,.51a3.5,3.5,0,0,0,1-.51Z"/><path d="M12.62,11.62h0a3.66,3.66,0,0,0,.94-.5.14.14,0,0,1,0,.16,1.12,1.12,0,0,1-.94.35Zm1-.51a3,3,0,0,1-.94.5,1.12,1.12,0,0,0,.92-.34.16.16,0,0,0,0-.16Z"/><path class="cls-5" d="M14.08,11.28c-.17.1-.49-.31-.49-1a3.66,3.66,0,0,0,.49,1Z"/><path d="M14,11.3a.24.24,0,0,1-.16-.08,1.35,1.35,0,0,1-.28-.94,4.2,4.2,0,0,0,.49,1s0,0-.05,0Zm-.44-1a1.42,1.42,0,0,0,.29.93c.07.07.14.1.2.07a3.4,3.4,0,0,1-.49-1Z"/><path class="cls-5" d="M13.82,11.16c-.17.11-.52-.26-.57-1a4.1,4.1,0,0,0,.57,1Z"/><path d="M13.75,11.18c-.17,0-.46-.35-.51-1a4,4,0,0,0,.58,1,.09.09,0,0,1-.07,0Zm-.5-1c.06.67.41,1,.57.94a3.29,3.29,0,0,1-.57-.94Z"/><path class="cls-5" d="M13.1,10.9c0,.21-.48.34-1.09,0a3.52,3.52,0,0,0,1.09,0Z"/><path d="M12.69,11.12a1.51,1.51,0,0,1-.68-.18h.54a1.56,1.56,0,0,0,.54,0,.11.11,0,0,1,0,.11.53.53,0,0,1-.37.11ZM12,10.94a1.64,1.64,0,0,0,.68.17.48.48,0,0,0,.36-.11.13.13,0,0,0,0-.1,1.18,1.18,0,0,1-.54.06h0a5.25,5.25,0,0,1-.54,0Z"/><path class="cls-5" d="M12.81,10.74c0,.21-.55.2-1.06-.25a3.4,3.4,0,0,0,1.06.25Z"/><path d="M12.57,10.88a1.37,1.37,0,0,1-.82-.39,5.75,5.75,0,0,0,1,.26h0c0,.09-.1.14-.24.14Zm-.82-.39a1.44,1.44,0,0,0,.82.38c.13,0,.22,0,.24-.12h0a5,5,0,0,1-1-.27Z"/><path class="cls-5" d="M12.87,10.63c-.18,0-.32-.42-.11-1a3.54,3.54,0,0,0,.11,1Z"/><path d="M12.86,10.63a.13.13,0,0,1-.12-.07,1.18,1.18,0,0,1,0-.94,3.46,3.46,0,0,0,.13,1Zm-.11-1a1.15,1.15,0,0,0,0,.93.15.15,0,0,0,.11.07h0a3.33,3.33,0,0,1-.12-1Z"/><path class="cls-5" d="M12.59,10.41c-.15,0-.29-.38-.1-.91a3.15,3.15,0,0,0,.1.91Z"/><path d="M12.58,10.41s-.07,0-.1-.07a1,1,0,0,1,0-.84,3.06,3.06,0,0,0,.11.9Zm-.09-.91a1.07,1.07,0,0,0,0,.84.14.14,0,0,0,.1.06h0a3.12,3.12,0,0,1-.1-.9Z"/><path class="cls-5" d="M12.51,10.48c-.11.17-.57-.06-.85-.69a3.8,3.8,0,0,0,.85.69Z"/><path d="M12.4,10.54c-.2,0-.53-.26-.74-.75a4.16,4.16,0,0,0,.85.69.11.11,0,0,1-.11.06Zm-.74-.75c.27.6.73.85.85.69a3.1,3.1,0,0,1-.85-.69Z"/><path class="cls-5" d="M12.31,10.07c-.16,0-.22-.42,0-.9a3.58,3.58,0,0,0,0,.9Z"/><path d="M12.32,10.08h0s-.07,0-.1-.07a1,1,0,0,1,.15-.84,3.33,3.33,0,0,0,0,.9Zm0-.91a1,1,0,0,0-.14.83.13.13,0,0,0,.09.07,3.53,3.53,0,0,1,0-.9Z"/><path class="cls-5" d="M12.08,9.7c-.18,0-.25-.47.06-1a3.27,3.27,0,0,0-.06,1Z"/><path d="M12.09,9.71h0A.13.13,0,0,1,12,9.63a1.14,1.14,0,0,1,.16-.94,3.27,3.27,0,0,0,0,1Zm0-1a1.14,1.14,0,0,0-.15.93.13.13,0,0,0,.1.08,3.46,3.46,0,0,1,.05-1Z"/><path class="cls-5" d="M12,9.79c0,.16-.45.12-.83-.28a3.16,3.16,0,0,0,.83.28Z"/><path d="M11.85,9.88a1.09,1.09,0,0,1-.68-.37,4.16,4.16,0,0,0,.82.28h0a3.05,3.05,0,0,1-.82-.28c.38.38.72.42.81.32a.17.17,0,0,1-.14.05Z"/><path class="cls-5" d="M11.88,9.31c-.18,0-.21-.49.14-1a3.19,3.19,0,0,0-.14,1Z"/><path d="M11.88,9.32h0a.16.16,0,0,1-.11-.09A1.13,1.13,0,0,1,12,8.31a3.87,3.87,0,0,0-.13,1Zm.13-1a1.14,1.14,0,0,0-.23.91.13.13,0,0,0,.09.09,3.67,3.67,0,0,1,.14-1Z"/><path class="cls-5" d="M11.67,8.53c-.15-.07,0-.48.42-.8a3,3,0,0,0-.42.8Z"/><path d="M11.68,8.54h0a.11.11,0,0,1-.06-.11.92.92,0,0,1,.47-.69,3.49,3.49,0,0,0-.41.8Zm.4-.81a.93.93,0,0,0-.46.69.11.11,0,0,0,.05.1,3.22,3.22,0,0,1,.41-.79Z"/><path class="cls-5" d="M11.62,8.74c-.1.14-.46-.05-.69-.56a2.81,2.81,0,0,0,.69.56Z"/><path d="M11.53,8.79c-.16,0-.43-.21-.61-.61a3.61,3.61,0,0,0,.7.56.11.11,0,0,1-.09,0Zm-.6-.61c.22.48.59.69.69.56a3.06,3.06,0,0,1-.69-.56Z"/><path class="cls-5" d="M11.58,8.28c-.13.1-.42-.21-.46-.77a3,3,0,0,0,.46.77Z"/><path d="M11.53,8.3c-.15,0-.38-.3-.41-.79a3.34,3.34,0,0,0,.46.77s0,0-.05,0Zm-.41-.79c.05.55.33.86.46.77a2.55,2.55,0,0,1-.46-.77Z"/><path class="cls-5" d="M11.62,7.55c-.08-.12.19-.39.68-.43-.46.24-.65.33-.68.43Z"/><path d="M11.63,7.56h0a.13.13,0,0,1,0-.12.85.85,0,0,1,.68-.32l-.12.07c-.37.19-.52.27-.55.36Zm.67-.44a.91.91,0,0,0-.67.32.12.12,0,0,0,0,.1c0-.09.19-.17.56-.36l.12-.06Z"/><path class="cls-5" d="M11.71,7c-.16.06-.35-.31-.25-.87a2.88,2.88,0,0,0,.25.87Z"/><path d="M11.68,7A.15.15,0,0,1,11.56,7a1.08,1.08,0,0,1-.11-.81,3.19,3.19,0,0,0,.26.87Zm-.23-.88a1.08,1.08,0,0,0,.12.81.14.14,0,0,0,.11.06h0a2.68,2.68,0,0,1-.26-.87Z"/><path class="cls-5" d="M11.7,7.27c-.12-.15.18-.5.77-.6a3.29,3.29,0,0,0-.77.6Z"/><path d="M11.7,7.28h0a.14.14,0,0,1,0-.14,1,1,0,0,1,.79-.46,3.33,3.33,0,0,0-.77.6Zm.77-.61a1.07,1.07,0,0,0-.78.46.15.15,0,0,0,0,.13,3.87,3.87,0,0,1,.78-.59Z"/><path class="cls-5" d="M11.75,7c-.13-.12.1-.52.66-.72a3.31,3.31,0,0,0-.66.72Z"/><path d="M11.75,7h0a.14.14,0,0,1,0-.14,1.08,1.08,0,0,1,.7-.6,4.22,4.22,0,0,0-.66.73Zm.66-.74a1.11,1.11,0,0,0-.69.6.14.14,0,0,0,0,.13,3.57,3.57,0,0,1,.66-.73Z"/><path class="cls-5" d="M11.84,6.43c-.16,0-.22-.43.06-.91a3.39,3.39,0,0,0-.06.91Z"/><path d="M11.85,6.43h0a.12.12,0,0,1-.09-.07,1,1,0,0,1,.14-.84,3.33,3.33,0,0,0,0,.9Zm0-.91a1,1,0,0,0-.14.84s.05.06.09.06a3.54,3.54,0,0,1,.05-.9Z"/><path class="cls-5" d="M12.07,6.08c-.13,0-.19-.34,0-.73a2.21,2.21,0,0,0,0,.73Z"/><path d="M12.08,6.08h0A.09.09,0,0,1,12,6a.82.82,0,0,1,.11-.69,2.87,2.87,0,0,0,0,.74Zm0-.73A.85.85,0,0,0,12,6a.13.13,0,0,0,.07.06,2.53,2.53,0,0,1,0-.73Z"/><path class="cls-5" d="M12.14,6.29c-.12-.13.15-.51.73-.67a3.64,3.64,0,0,0-.73.67Z"/><path d="M12.15,6.3h0a.13.13,0,0,1,0-.14,1,1,0,0,1,.74-.53,3,3,0,0,0-.71.67Zm.71-.68a1.08,1.08,0,0,0-.73.53.14.14,0,0,0,0,.13,3.54,3.54,0,0,1,.72-.66Z"/><path class="cls-5" d="M12.25,5.91c-.12-.06,0-.39.33-.64a2.25,2.25,0,0,0-.33.64Z"/><path d="M12.25,5.92h0a.13.13,0,0,1-.05-.09.79.79,0,0,1,.39-.57,3,3,0,0,0-.33.65Zm.33-.66a.82.82,0,0,0-.38.57.12.12,0,0,0,0,.08,2.49,2.49,0,0,1,.34-.65Z"/><path class="cls-5" d="M13.31,11c.1.18-.29.51-1,.5a3.47,3.47,0,0,0,1-.5Z"/><path d="M12.36,11.53h0a3.66,3.66,0,0,0,.94-.5.14.14,0,0,1,0,.16,1.12,1.12,0,0,1-.94.35Zm1-.51a3.29,3.29,0,0,1-.94.5,1.15,1.15,0,0,0,.92-.35.14.14,0,0,0,0-.15Z"/><path class="cls-5" d="M11.59,8.18c-.15-.07-.12-.36.3-.72a2.32,2.32,0,0,0-.3.72Z"/><path d="M11.6,8.18h0a.15.15,0,0,1-.08-.11c0-.13.07-.35.38-.62a2.34,2.34,0,0,0-.29.72Zm.29-.73c-.3.27-.39.5-.37.62a.14.14,0,0,0,.07.1,2.51,2.51,0,0,1,.3-.72Z"/><path class="cls-5" d="M11.9,9.49c-.12.16-.58-.07-.86-.7a3.7,3.7,0,0,0,.86.7Z"/><path d="M11.78,9.54c-.2,0-.53-.26-.74-.75a4.06,4.06,0,0,0,.85.69s-.06.06-.11.06ZM11,8.8c.28.59.73.85.85.68A3.12,3.12,0,0,1,11,8.8Z"/><path class="cls-5" d="M11.64,7.56c-.17.12-.43-.28-.48-.83a4.07,4.07,0,0,0,.48.83Z"/><path d="M11.58,7.58c-.17,0-.38-.35-.42-.85a4.45,4.45,0,0,0,.48.82.06.06,0,0,1-.06,0Zm-.42-.85c.05.55.32.94.48.82a3,3,0,0,1-.48-.82Z"/><path d="M11.6,8.18h0a.14.14,0,0,1-.09-.11c0-.13.07-.36.38-.62a1.27,1.27,0,0,1-.29.73Zm.29-.72c-.3.26-.39.48-.37.6a.15.15,0,0,0,.08.11,1.42,1.42,0,0,0,.29-.71Z"/><path d="M13,11.79h0a2.11,2.11,0,0,1,1-.52.15.15,0,0,1,0,.17,1.15,1.15,0,0,1-.94.35Zm.95-.51a2.15,2.15,0,0,0-1,.51h0a1.14,1.14,0,0,0,.93-.35.14.14,0,0,0,0-.15Z"/><path d="M12.62,11.62h0a2.06,2.06,0,0,1,1-.51.16.16,0,0,1,0,.16,1.16,1.16,0,0,1-1,.35Zm1-.51a2.32,2.32,0,0,0-1,.51h0a1.14,1.14,0,0,0,.94-.35.14.14,0,0,0,0-.15Z"/><path d="M14,11.3h0a.27.27,0,0,1-.16-.08,1.42,1.42,0,0,1-.28-.94,2.14,2.14,0,0,1,.5,1,.07.07,0,0,1-.06,0Zm-.44-1a1.44,1.44,0,0,0,.29.93.25.25,0,0,0,.15.08h.05a2.41,2.41,0,0,0-.49-1Z"/><path d="M13.76,11.18h0c-.18,0-.47-.37-.52-1a2.14,2.14,0,0,1,.59,1,.08.08,0,0,1-.07,0Zm-.51-1c.05.59.33,1,.51,1h0l.06,0a2.38,2.38,0,0,0-.57-.94Z"/><path d="M13.25,10.94a.19.19,0,0,1-.12-.07A1.18,1.18,0,0,1,13,10a2,2,0,0,1,.29,1h0ZM13,10a1.2,1.2,0,0,0,.14.9.17.17,0,0,0,.11.07h0A2.32,2.32,0,0,0,13,10Z"/><path d="M12.68,11.12h0a1.54,1.54,0,0,1-.68-.18,2.22,2.22,0,0,1,.7-.1,1.09,1.09,0,0,1,.4.06.15.15,0,0,1,0,.11.54.54,0,0,1-.38.11Zm0-.27a2.64,2.64,0,0,0-.69.09,1.57,1.57,0,0,0,.67.17h0a.51.51,0,0,0,.37-.11.13.13,0,0,0,0-.1,1.27,1.27,0,0,0-.39-.05Z"/><path d="M12.58,10.88h0a1.42,1.42,0,0,1-.83-.39h.06a2.17,2.17,0,0,1,1,.26c0,.09-.11.14-.25.14Zm-.77-.39h-.05a1.42,1.42,0,0,0,.82.37h0c.13,0,.22,0,.24-.12a2.34,2.34,0,0,0-1-.25Z"/><path d="M12.86,10.64a.17.17,0,0,1-.12-.08,1.18,1.18,0,0,1,0-.94,1.91,1.91,0,0,1,.13,1Zm-.1-1a1.15,1.15,0,0,0,0,.93.13.13,0,0,0,.11.07h0a2.39,2.39,0,0,0-.12-1Z"/><path d="M12.59,10.41a.13.13,0,0,1-.11-.07,1,1,0,0,1,0-.84,1.76,1.76,0,0,1,.12.91Zm-.1-.91a1.06,1.06,0,0,0,0,.84.12.12,0,0,0,.1.06h0a2,2,0,0,0-.11-.9Z"/><path d="M12.41,10.54h0c-.2,0-.53-.26-.75-.75a2.1,2.1,0,0,1,.87.69.13.13,0,0,1-.12.06Zm-.74-.75c.22.48.54.74.74.74h0a.13.13,0,0,0,.11,0,2.42,2.42,0,0,0-.85-.69Z"/><path d="M12.32,10.08h0a.12.12,0,0,1-.1-.07,1,1,0,0,1,.14-.85,1.74,1.74,0,0,1,0,.92Zm0-.91a1,1,0,0,0-.13.83.13.13,0,0,0,.08.07,1.8,1.8,0,0,0,0-.9Z"/><path d="M12.09,9.71h0A.12.12,0,0,1,12,9.63a1.08,1.08,0,0,1,.16-1,1.92,1.92,0,0,1-.05,1Zm.05-1a1.1,1.1,0,0,0-.15.93.1.1,0,0,0,.09.07,2.25,2.25,0,0,0,.06-1Z"/><path d="M11.86,9.88h0a1,1,0,0,1-.68-.37,1.7,1.7,0,0,1,.85.27c0,.07-.08.1-.17.1Zm-.66-.37a1,1,0,0,0,.66.36A.16.16,0,0,0,12,9.79a1.9,1.9,0,0,0-.82-.28Z"/><path d="M11.88,9.32h0a.15.15,0,0,1-.1-.09A1.11,1.11,0,0,1,12,8.3a2.09,2.09,0,0,1-.13,1Zm.14-1a1.09,1.09,0,0,0-.23.91s.05.08.09.08a2.19,2.19,0,0,0,.14-1Z"/><path d="M11.68,8.54h0a.11.11,0,0,1-.06-.11,1,1,0,0,1,.48-.7,1.79,1.79,0,0,1-.41.81Zm.41-.81a1,1,0,0,0-.47.69c0,.05,0,.08.05.1a2,2,0,0,0,.42-.79Z"/><path d="M11.54,8.79h0c-.16,0-.43-.21-.61-.61h0a1.7,1.7,0,0,1,.71.56.1.1,0,0,1-.1,0Zm-.6-.6c.18.38.44.59.6.59h0a.13.13,0,0,0,.09,0,1.82,1.82,0,0,0-.69-.55Z"/><path d="M11.54,8.31h0c-.15,0-.38-.3-.42-.8a1.8,1.8,0,0,1,.48.78l-.06,0Zm-.42-.79c.05.48.27.78.42.78h0l.05,0a2,2,0,0,0-.47-.76Z"/><path d="M11.63,7.56h0a.11.11,0,0,1,0-.12.83.83,0,0,1,.68-.32,1.53,1.53,0,0,1-.68.44Zm.67-.44a.88.88,0,0,0-.66.32.14.14,0,0,0,0,.11,1.67,1.67,0,0,0,.67-.43Z"/><path d="M11.69,7A.15.15,0,0,1,11.57,7a1.1,1.1,0,0,1-.12-.82,1.69,1.69,0,0,1,.27.88h0Zm-.23-.88a1,1,0,0,0,.12.8s.07.07.11.07h0a1.91,1.91,0,0,0-.25-.86Z"/><path d="M11.7,7.28h0a.12.12,0,0,1,0-.14,1,1,0,0,1,.79-.47,1.87,1.87,0,0,1-.78.62Zm.77-.61a1,1,0,0,0-.77.46.15.15,0,0,0,0,.13,1.92,1.92,0,0,0,.77-.59Z"/><path d="M11.75,7h0a.16.16,0,0,1,0-.14,1,1,0,0,1,.7-.6,1.85,1.85,0,0,1-.66.74Zm.67-.74a1.11,1.11,0,0,0-.69.6.14.14,0,0,0,0,.13,2.27,2.27,0,0,0,.66-.73Z"/><path d="M11.86,6.44h0s-.07,0-.1-.07a1,1,0,0,1,.15-.85,1.81,1.81,0,0,1,0,.91Zm0-.92a1,1,0,0,0-.14.84s.05.06.09.06a2.07,2.07,0,0,0,.05-.9Z"/><path d="M12.08,6.09h0A.09.09,0,0,1,12,6a.79.79,0,0,1,.12-.69,1.5,1.5,0,0,1,0,.75Zm0-.74A.83.83,0,0,0,12,6s0,0,.07,0a1.58,1.58,0,0,0,0-.73Z"/><path d="M12.15,6.3h0a.13.13,0,0,1,0-.14,1,1,0,0,1,.75-.53,2,2,0,0,1-.72.68Zm.72-.68a1.1,1.1,0,0,0-.74.53c0,.06,0,.1,0,.13a2.14,2.14,0,0,0,.72-.66Z"/><path d="M12.25,5.93h0s-.05,0-.06-.09a.86.86,0,0,1,.39-.57,1.23,1.23,0,0,1-.33.66Zm.33-.66a.82.82,0,0,0-.37.56s0,.07,0,.08a1.61,1.61,0,0,0,.33-.64Z"/><path d="M12.36,11.53h0a2.26,2.26,0,0,1,1-.52.17.17,0,0,1,0,.17,1.13,1.13,0,0,1-1,.35Zm1-.51a2.32,2.32,0,0,0-1,.51h0a1.17,1.17,0,0,0,.94-.35.14.14,0,0,0,0-.15Z"/><path d="M11.79,9.54h0c-.2,0-.53-.26-.75-.75a2.1,2.1,0,0,1,.87.69s-.07.06-.12.06Zm-.74-.75c.22.48.54.74.74.74h0a.13.13,0,0,0,.11,0,2.33,2.33,0,0,0-.85-.69Z"/><path d="M11.57,7.58h0c-.14,0-.37-.27-.41-.86a1.32,1.32,0,0,1,.48.83.09.09,0,0,1-.07,0Zm-.41-.85c.05.57.28.83.41.83h.06a1.36,1.36,0,0,0-.47-.82Z"/><path class="cls-5" d="M14.42,11.64a.28.28,0,0,1,.12-.1,2.84,2.84,0,0,1,.9-.27c.08,0,.15-.08.23-.12s.39-.12.57-.21l.08-.06c.07-.08.2-.11.28-.19a3.06,3.06,0,0,0,.81-.95,3.31,3.31,0,0,0,.44-1.5,6.69,6.69,0,0,0-.06-1,3.74,3.74,0,0,0-.58-1.36l.05,0a3.74,3.74,0,0,1,.58,1.36,6.69,6.69,0,0,1,.06,1,3.33,3.33,0,0,1-1.25,2.46c-.08.07-.21.1-.28.18s-.07.05-.08.06c-.18.09-.38.12-.57.21s-.15.11-.23.12a2.84,2.84,0,0,0-.9.27.28.28,0,0,0-.12.1l-.05,0Z"/><path d="M14.47,11.68l-.05,0a.32.32,0,0,1,.12-.11,3,3,0,0,1,.9-.27.25.25,0,0,0,.14-.06l.09,0A1.36,1.36,0,0,1,16,11a1.45,1.45,0,0,0,.29-.11l.08,0a.49.49,0,0,1,.14-.11.39.39,0,0,0,.14-.08l.13-.12a2.85,2.85,0,0,0,.68-.83l.08-.18a2.77,2.77,0,0,0,.35-1.32,2.16,2.16,0,0,1,0-.36,2.81,2.81,0,0,0-.05-.65,3.89,3.89,0,0,0-.58-1.35l.06,0a4,4,0,0,1,.58,1.36,2.81,2.81,0,0,1,0,.65c0,.12,0,.24,0,.36a2.77,2.77,0,0,1-.35,1.32l-.08.18a2.61,2.61,0,0,1-.68.83l-.13.13-.14.08a.38.38,0,0,0-.14.11.28.28,0,0,1-.09.05,1.45,1.45,0,0,1-.29.11l-.28.1-.08.05a.37.37,0,0,1-.14.07,2.89,2.89,0,0,0-.9.27.32.32,0,0,0-.13.1Zm2.74-5.8a3.74,3.74,0,0,1,.59,1.35,2.81,2.81,0,0,1,.05.65,2.16,2.16,0,0,0,0,.36,2.84,2.84,0,0,1-.35,1.33l-.08.17a2.61,2.61,0,0,1-.68.83l-.13.13-.14.08a.78.78,0,0,0-.15.1.18.18,0,0,1-.08.06,1.45,1.45,0,0,1-.29.11l-.28.1-.08.06a.47.47,0,0,1-.15.06,2.88,2.88,0,0,0-.89.27c-.05,0-.1.05-.12.1l0,0a.58.58,0,0,1,.12-.1,3.05,3.05,0,0,1,.9-.27.34.34,0,0,0,.15-.07l.08,0a.94.94,0,0,1,.28-.1c.09,0,.2-.07.29-.12l.08-.05a.42.42,0,0,1,.15-.11.35.35,0,0,0,.13-.08l.14-.13a2.5,2.5,0,0,0,.67-.82l.08-.18a2.8,2.8,0,0,0,.35-1.32,2.16,2.16,0,0,1,0-.36,2.81,2.81,0,0,0-.05-.65,3.92,3.92,0,0,0-.58-1.35l-.05,0Z"/><path class="cls-6" d="M14.48,11.68a.15.15,0,0,1,.11-.12,2.78,2.78,0,0,1,.9-.27.46.46,0,0,0,.14-.07l.09-.05.27-.1.3-.11a.32.32,0,0,0,.07-.06.62.62,0,0,1,.16-.1l.12-.08.14-.13a2.6,2.6,0,0,0,.67-.82l.08-.18a2.69,2.69,0,0,0,.35-1.32V7.91a2.81,2.81,0,0,0-.05-.65,3.74,3.74,0,0,0-.58-1.35h0a3.71,3.71,0,0,1,.58,1.36,2,2,0,0,1,0,.65c0,.12,0,.24,0,.36a2.84,2.84,0,0,1-.35,1.33l-.08.18a2.85,2.85,0,0,1-.68.83l-.14.13-.13.08a.56.56,0,0,0-.15.1s-.07.05-.08.06a1.82,1.82,0,0,1-.3.11,2.15,2.15,0,0,0-.27.1l-.08.05a.51.51,0,0,1-.15.07,3,3,0,0,0-.9.27.28.28,0,0,0-.12.1Z"/><path class="cls-5" d="M15.54,11.28a2.09,2.09,0,0,1,1,.51c-.67,0-1.07-.33-1-.51Z"/><path class="cls-5" d="M15.88,11.11a2.23,2.23,0,0,1,1,.51c-.68,0-1.08-.32-1-.51Z"/><path class="cls-5" d="M15.38,11.28a2.22,2.22,0,0,1,.49-1c0,.69-.32,1.1-.49,1Z"/><path class="cls-5" d="M15.64,11.16a2.29,2.29,0,0,1,.57-1c-.05.7-.41,1.07-.57,1Z"/><path class="cls-5" d="M16.18,10.93a2,2,0,0,1,.28-1c.11.62-.11,1-.28,1Z"/><path class="cls-5" d="M16.37,10.91a2,2,0,0,1,1.09,0c-.61.3-1.1.17-1.09,0Z"/><path class="cls-5" d="M16.65,10.75a2.11,2.11,0,0,1,1.06-.26c-.51.45-1,.46-1.06.26Z"/><path class="cls-5" d="M16.59,10.63a2,2,0,0,1,.12-1c.21.59.06,1-.12,1Z"/><path class="cls-5" d="M16.87,10.41A1.85,1.85,0,0,1,17,9.5c.19.53.05.93-.1.91Z"/><path class="cls-5" d="M16.94,10.48a2.09,2.09,0,0,1,.86-.69c-.28.63-.74.86-.86.69Z"/><path class="cls-5" d="M17.15,10.08a1.83,1.83,0,0,1,0-.91c.27.48.21.9,0,.91Z"/><path class="cls-5" d="M17.38,9.7a2.13,2.13,0,0,1-.06-1c.31.54.24,1,.06,1Z"/><path class="cls-5" d="M17.44,9.79a1.68,1.68,0,0,1,.85-.28c-.39.4-.8.44-.85.28Z"/><path class="cls-5" d="M17.58,9.31a2.17,2.17,0,0,1-.14-1c.36.51.32,1,.14,1Z"/><path class="cls-5" d="M17.79,8.53a1.91,1.91,0,0,1-.42-.81c.45.32.57.74.42.81Z"/><path class="cls-5" d="M17.84,8.75a1.75,1.75,0,0,1,.69-.57c-.22.51-.6.7-.69.57Z"/><path class="cls-5" d="M17.88,8.29a1.8,1.8,0,0,1,.46-.78c0,.56-.33.87-.46.78Z"/><path class="cls-5" d="M17.84,7.55a1.53,1.53,0,0,1-.68-.43c.49,0,.76.31.68.43Z"/><path class="cls-5" d="M17.75,7A1.8,1.8,0,0,1,18,6.15c.1.56-.1.93-.26.88Z"/><path class="cls-5" d="M17.77,7.27a1.91,1.91,0,0,1-.78-.6c.59.1.89.45.78.6Z"/><path class="cls-5" d="M17.71,7a1.81,1.81,0,0,1-.66-.73c.56.21.79.61.66.73Z"/><path class="cls-5" d="M17.62,6.43a1.72,1.72,0,0,1-.05-.91c.27.48.21.9.05.91Z"/><path class="cls-5" d="M17.39,6.08a1.61,1.61,0,0,1,0-.74c.23.4.17.74,0,.74Z"/><path class="cls-5" d="M17.32,6.29a2,2,0,0,1-.73-.67c.59.16.85.54.73.67Z"/><path class="cls-5" d="M17.22,5.91a1.36,1.36,0,0,1-.34-.65c.36.26.45.59.34.65Z"/><path class="cls-5" d="M16.14,11a2.13,2.13,0,0,1,1,.51c-.68,0-1.07-.33-1-.51Z"/><path class="cls-5" d="M17.87,8.18a1.45,1.45,0,0,1-.3-.72c.42.36.45.66.3.72Z"/><path class="cls-5" d="M17.56,9.49a2.13,2.13,0,0,1,.86-.7c-.29.63-.74.86-.86.7Z"/><path class="cls-5" d="M17.84,7.49a1.44,1.44,0,0,1,.46-.78c0,.56-.33.87-.46.78Z"/><path class="cls-5" d="M16.18,10.93c.17.06.39-.35.28-1a3.39,3.39,0,0,1-.28,1Z"/><path d="M16.21,10.94h0a3.5,3.5,0,0,0,.28-1,1.19,1.19,0,0,1-.12.91.19.19,0,0,1-.13.07Zm.25-1a3,3,0,0,1-.28,1h0a.15.15,0,0,0,.12-.07,1.19,1.19,0,0,0,.13-.9Z"/><path class="cls-5" d="M15.54,11.28c-.09.18.3.51,1,.5a4,4,0,0,1-1-.5Z"/><path d="M16.5,11.79a1.12,1.12,0,0,1-.94-.35.16.16,0,0,1,0-.16,4.13,4.13,0,0,0,1,.5Zm-1-.51a.17.17,0,0,0,0,.15,1.1,1.1,0,0,0,.93.35h0a3.37,3.37,0,0,1-1-.5Z"/><path class="cls-5" d="M15.89,11.11c-.1.18.3.51,1,.51a3.37,3.37,0,0,1-1-.51Z"/><path d="M16.84,11.62a1.12,1.12,0,0,1-.94-.35.19.19,0,0,1,0-.16,4,4,0,0,0,1,.5Zm-1-.51a.24.24,0,0,0,0,.16,1.15,1.15,0,0,0,.93.34h0a3.53,3.53,0,0,1-1-.5Z"/><path class="cls-5" d="M15.38,11.28c.18.1.5-.31.49-1a3.37,3.37,0,0,1-.49,1Z"/><path d="M15.44,11.3h-.06a4.19,4.19,0,0,0,.49-1,1.36,1.36,0,0,1-.27.94.27.27,0,0,1-.16.08Zm0,0a.27.27,0,0,0,.2-.08,1.32,1.32,0,0,0,.27-.93,3.5,3.5,0,0,1-.48,1Z"/><path class="cls-5" d="M15.64,11.16c.17.11.52-.26.57-1a3.46,3.46,0,0,1-.57,1Z"/><path d="M15.71,11.18h0l-.07,0a4.24,4.24,0,0,0,.57-1c0,.63-.32,1-.5,1Zm.5-1a3.55,3.55,0,0,1-.57,1h.07c.18,0,.45-.37.5-1Z"/><path class="cls-5" d="M16.37,10.9c0,.21.47.34,1.08,0a3.44,3.44,0,0,1-1.08,0Z"/><path d="M16.77,11.12A.53.53,0,0,1,16.4,11a.15.15,0,0,1,0-.11,3.4,3.4,0,0,0,1.09,0,1.4,1.4,0,0,1-.68.19Zm-.41-.21a.2.2,0,0,0,.05.09.5.5,0,0,0,.36.11,1.51,1.51,0,0,0,.68-.18,2.7,2.7,0,0,1-1.09,0Z"/><path class="cls-5" d="M16.65,10.74c0,.21.55.2,1.06-.25a3.35,3.35,0,0,1-1.06.25Z"/><path d="M16.89,10.88c-.14,0-.23-.05-.24-.13h0a4.91,4.91,0,0,0,1-.27,1.34,1.34,0,0,1-.82.4Zm-.24-.13c0,.07.11.12.24.12a1.37,1.37,0,0,0,.82-.39,3.08,3.08,0,0,1-1.06.27Z"/><path class="cls-5" d="M16.59,10.63c.18,0,.33-.42.12-1a3.36,3.36,0,0,1-.12,1Z"/><path d="M16.61,10.63h0a3.28,3.28,0,0,0,.11-1,1.05,1.05,0,0,1,0,.93.13.13,0,0,1-.11.07Zm.09-1a2.92,2.92,0,0,1-.11,1h0s.07,0,.11-.07a1.13,1.13,0,0,0,0-.93Z"/><path class="cls-5" d="M16.87,10.41c.16,0,.29-.38.1-.91a3.15,3.15,0,0,1-.1.91Z"/><path d="M16.88,10.41h0A4,4,0,0,0,17,9.5a1,1,0,0,1,0,.84.13.13,0,0,1-.11.07ZM17,9.5a2.91,2.91,0,0,1-.1.91h0a.12.12,0,0,0,.1-.06,1,1,0,0,0,0-.84Z"/><path class="cls-5" d="M17,10.48c.12.17.57-.06.85-.69a3.37,3.37,0,0,1-.85.69Z"/><path d="M17.06,10.54a.13.13,0,0,1-.11,0,4.25,4.25,0,0,0,.85-.71c-.21.5-.54.76-.74.76Zm.74-.75a3.55,3.55,0,0,1-.85.7.21.21,0,0,0,.11,0c.2,0,.52-.26.74-.74Z"/><path class="cls-5" d="M17.15,10.07c.16,0,.23-.42,0-.9a3.12,3.12,0,0,1,0,.9Z"/><path d="M17.14,10.08h0a3.12,3.12,0,0,0,0-.9,1,1,0,0,1,.15.84s-.06.07-.1.07Zm0-.91a3.26,3.26,0,0,1,.06.9.13.13,0,0,0,.08-.07,1,1,0,0,0-.14-.83Z"/><path class="cls-5" d="M17.38,9.7c.18,0,.25-.47-.05-1a3.47,3.47,0,0,1,.05,1Z"/><path d="M17.37,9.71h0a3.68,3.68,0,0,0-.06-1,1.08,1.08,0,0,1,.17.94.12.12,0,0,1-.11.07Zm-.05-1a3.73,3.73,0,0,1,.07,1,.12.12,0,0,0,.09-.08,1.06,1.06,0,0,0-.16-.92Z"/><path class="cls-5" d="M17.45,9.79c.05.16.45.12.84-.28a3.29,3.29,0,0,1-.84.28Z"/><path d="M17.61,9.88c-.09,0-.15,0-.16-.09a3.5,3.5,0,0,0,.84-.29,1,1,0,0,1-.68.38Zm.67-.38a3.36,3.36,0,0,1-.81.3c0,.12.4.14.81-.3Z"/><path class="cls-5" d="M17.59,9.31c.18,0,.21-.49-.14-1a3.56,3.56,0,0,1,.14,1Z"/><path d="M17.58,9.32h0a3.6,3.6,0,0,0-.14-1,1.07,1.07,0,0,1,.25.92.15.15,0,0,1-.1.09Zm-.14-1a3.4,3.4,0,0,1,.15,1,.13.13,0,0,0,.09-.09,1.08,1.08,0,0,0-.24-.91Z"/><path class="cls-5" d="M17.79,8.53c.15-.07,0-.48-.41-.8a2.78,2.78,0,0,1,.41.8Z"/><path d="M17.79,8.54h0a3.3,3.3,0,0,0-.42-.8,1,1,0,0,1,.49.69.15.15,0,0,1-.06.11Zm-.42-.81a3.21,3.21,0,0,1,.43.79.11.11,0,0,0,.05-.1,1,1,0,0,0-.48-.69Z"/><path class="cls-5" d="M17.84,8.74c.1.14.47-.05.69-.56a2.47,2.47,0,0,1-.69.56Z"/><path d="M17.93,8.79a.11.11,0,0,1-.09,0,2.89,2.89,0,0,0,.69-.56c-.17.4-.43.61-.6.61Zm.6-.61a2.8,2.8,0,0,1-.69.57l.09,0c.16,0,.43-.21.6-.6Z"/><path class="cls-5" d="M17.88,8.28c.14.1.42-.21.46-.77a2.7,2.7,0,0,1-.46.77Z"/><path d="M17.94,8.3h-.06a3.39,3.39,0,0,0,.46-.78c0,.51-.26.79-.4.79Zm.4-.79a2.84,2.84,0,0,1-.46.78h.06c.14,0,.36-.3.4-.79Z"/><path class="cls-5" d="M17.84,7.55c.08-.12-.19-.39-.67-.43.45.24.64.33.67.43Z"/><path d="M17.84,7.56h0c0-.09-.18-.17-.55-.36l-.12-.06a.82.82,0,0,1,.68.31.13.13,0,0,1,0,.12Zm-.68-.43.13,0c.36.19.52.27.55.36a.12.12,0,0,0,0-.1.84.84,0,0,0-.67-.31Z"/><path class="cls-5" d="M17.76,7c.15.06.35-.31.25-.87a3.73,3.73,0,0,1-.25.87Z"/><path d="M17.79,7h0A3.11,3.11,0,0,0,18,6.15a1,1,0,0,1-.1.82.17.17,0,0,1-.11.06ZM18,6.15a3,3,0,0,1-.24.88h0a.14.14,0,0,0,.1-.06A1,1,0,0,0,18,6.15Z"/><path class="cls-5" d="M17.77,7.27c.11-.15-.19-.5-.78-.6a3.22,3.22,0,0,1,.78.6Z"/><path d="M17.77,7.28h0A3.14,3.14,0,0,0,17,6.68a1,1,0,0,1,.79.45.14.14,0,0,1,0,.14ZM17,6.68a3.34,3.34,0,0,1,.78.58.15.15,0,0,0,0-.13A1,1,0,0,0,17,6.68Z"/><path class="cls-5" d="M17.71,7c.14-.12-.1-.52-.66-.72a3.31,3.31,0,0,1,.66.72Z"/><path d="M17.71,7h0A3.45,3.45,0,0,0,17,6.23a1,1,0,0,1,.71.59.16.16,0,0,1,0,.14Zm-.66-.73a3.52,3.52,0,0,1,.67.72.18.18,0,0,0,0-.13,1,1,0,0,0-.69-.59Z"/><path class="cls-5" d="M17.62,6.43c.16,0,.22-.43-.05-.91a3.65,3.65,0,0,1,.05.91Z"/><path d="M17.61,6.43h0a2.75,2.75,0,0,0-.05-.9,1,1,0,0,1,.16.84s-.06.07-.1.07Zm-.05-.91a2.89,2.89,0,0,1,.06.9.11.11,0,0,0,.09-.07,1,1,0,0,0-.15-.83Z"/><path class="cls-5" d="M17.4,6.08c.13,0,.18-.34,0-.73a2.56,2.56,0,0,1,0,.73Z"/><path d="M17.39,6.08h0a2.2,2.2,0,0,0,0-.73.82.82,0,0,1,.13.68.1.1,0,0,1-.08,0Zm0-.73a2.32,2.32,0,0,1,0,.73A.13.13,0,0,0,17.47,6a.75.75,0,0,0-.12-.67Z"/><path class="cls-5" d="M17.32,6.29c.12-.13-.14-.51-.72-.67a3.44,3.44,0,0,1,.72.67Z"/><path d="M17.32,6.3h0a3.16,3.16,0,0,0-.73-.66,1,1,0,0,1,.76.52c0,.06,0,.11,0,.14Zm-.72-.67a3.62,3.62,0,0,1,.72.65s0-.07,0-.13a1,1,0,0,0-.74-.52Z"/><path class="cls-5" d="M17.22,5.91c.12-.06,0-.39-.34-.64a2.43,2.43,0,0,1,.34.64Z"/><path d="M17.21,5.92h0a2.39,2.39,0,0,0-.33-.64.76.76,0,0,1,.39.56.11.11,0,0,1-.05.09Zm-.33-.65a2.34,2.34,0,0,1,.34.64.09.09,0,0,0,0-.08.79.79,0,0,0-.38-.56Z"/><path class="cls-5" d="M16.15,11c-.1.18.3.51,1,.5a3.47,3.47,0,0,1-1-.5Z"/><path d="M17.1,11.53a1.12,1.12,0,0,1-.94-.35.16.16,0,0,1,0-.16,4,4,0,0,0,1,.5Zm-1-.51a.17.17,0,0,0,0,.15,1.14,1.14,0,0,0,.93.35h0a3.25,3.25,0,0,1-1-.5Z"/><path class="cls-5" d="M17.87,8.18c.15-.07.12-.36-.3-.72a2.06,2.06,0,0,1,.3.72Z"/><path d="M17.86,8.18h0a2.78,2.78,0,0,0-.3-.71c.31.26.4.48.38.61a.12.12,0,0,1-.08.11Zm-.29-.72a3,3,0,0,1,.31.71.18.18,0,0,0,.07-.1c0-.12-.07-.35-.38-.61Z"/><path class="cls-5" d="M17.57,9.49c.12.16.57-.07.85-.7a3.76,3.76,0,0,1-.85.7Z"/><path d="M17.68,9.54a.13.13,0,0,1-.12,0,4.32,4.32,0,0,0,.86-.7c-.21.49-.54.75-.74.75Zm.74-.75a3.48,3.48,0,0,1-.85.7.12.12,0,0,0,.11,0c.2,0,.52-.26.74-.74Z"/><path class="cls-5" d="M17.82,7.56c.18.12.44-.28.48-.83a4.07,4.07,0,0,1-.48.83Z"/><path d="M17.89,7.58h0a.08.08,0,0,1-.07,0,4.14,4.14,0,0,0,.47-.83c0,.5-.24.85-.4.85Zm.4-.85a3.14,3.14,0,0,1-.47.83h.07c.16,0,.37-.36.4-.84Z"/><path d="M17.86,8.18h0a1.39,1.39,0,0,1-.3-.72c.32.25.41.48.39.61a.15.15,0,0,1-.08.11Zm-.29-.72a1.45,1.45,0,0,0,.3.71.14.14,0,0,0,.07-.11c0-.12-.07-.34-.37-.6Z"/><path d="M16.5,11.79a1.19,1.19,0,0,1-.95-.35.18.18,0,0,1,0-.17,2.25,2.25,0,0,1,1,.51Zm-1-.51a.17.17,0,0,0,0,.15,1.17,1.17,0,0,0,.94.35h0a2.31,2.31,0,0,0-1-.5Z"/><path d="M16.84,11.62a1.16,1.16,0,0,1-.95-.35.16.16,0,0,1,0-.16,2.16,2.16,0,0,1,1,.51Zm-1-.5a.18.18,0,0,0,0,.14,1.14,1.14,0,0,0,.94.35h0a2.44,2.44,0,0,0-1-.49Z"/><path d="M15.43,11.3h-.06a2.46,2.46,0,0,1,.49-1,1.34,1.34,0,0,1-.27,1,.24.24,0,0,1-.16.08Zm.43-1a2.56,2.56,0,0,0-.48,1,.23.23,0,0,0,.2-.07,1.34,1.34,0,0,0,.28-.93Z"/><path d="M15.7,11.18a.1.1,0,0,1-.07,0,2.45,2.45,0,0,1,.58-1c0,.62-.32,1-.51,1Zm.51-1a2.49,2.49,0,0,0-.57,1h.06c.18,0,.46-.37.51-1Z"/><path d="M16.21,10.94h0a2.21,2.21,0,0,1,.28-1,1.17,1.17,0,0,1-.11.92.21.21,0,0,1-.13.07Zm.24-1a2.37,2.37,0,0,0-.27,1h0a.19.19,0,0,0,.12-.07,1.21,1.21,0,0,0,.12-.9Z"/><path d="M16.78,11.12a.51.51,0,0,1-.37-.11.16.16,0,0,1-.05-.11,1.11,1.11,0,0,1,.41-.06,2.64,2.64,0,0,1,.69.09,1.4,1.4,0,0,1-.68.19Zm0-.27a1.05,1.05,0,0,0-.4.06.18.18,0,0,0,0,.09.53.53,0,0,0,.37.11,1.51,1.51,0,0,0,.68-.18,3.6,3.6,0,0,0-.69-.08Z"/><path d="M16.88,10.88c-.14,0-.23-.05-.24-.13a2.18,2.18,0,0,1,1.07-.27,1.38,1.38,0,0,1-.83.4Zm.77-.39a2.19,2.19,0,0,0-1,.26c0,.07.1.11.23.11a1.37,1.37,0,0,0,.81-.37Z"/><path d="M16.6,10.64h0a1.93,1.93,0,0,1,.11-1,1.08,1.08,0,0,1,0,.94.15.15,0,0,1-.12.08Zm.1-1a2.29,2.29,0,0,0-.11,1h0a.13.13,0,0,0,.11-.07,1.15,1.15,0,0,0,0-.93Z"/><path d="M16.88,10.41h0A1.92,1.92,0,0,1,17,9.5a1,1,0,0,1,0,.85.12.12,0,0,1-.1.06ZM17,9.5a2.18,2.18,0,0,0-.09.9h0a.11.11,0,0,0,.09-.06,1,1,0,0,0,0-.84Z"/><path d="M17.05,10.54a.17.17,0,0,1-.12,0,2.24,2.24,0,0,1,.86-.71c-.21.5-.54.76-.74.76Zm.74-.76a2.63,2.63,0,0,0-.85.71.18.18,0,0,0,.11,0c.2,0,.53-.26.74-.75Z"/><path d="M17.14,10.08h0a1.88,1.88,0,0,1-.05-.92,1,1,0,0,1,.16.85s-.06.07-.1.07Zm-.05-.91a2.3,2.3,0,0,0,.06.9.13.13,0,0,0,.08-.07.94.94,0,0,0-.14-.83Z"/><path d="M17.37,9.71h0a2.16,2.16,0,0,1-.05-1,1.1,1.1,0,0,1,.17,1,.14.14,0,0,1-.11.08Zm-.05-1a2.25,2.25,0,0,0,.06,1s.07,0,.1-.07a1.12,1.12,0,0,0-.16-.93Z"/><path d="M17.6,9.88c-.09,0-.15,0-.17-.09a1.75,1.75,0,0,1,.84-.29h0a2,2,0,0,0-.82.29c0,.12.34.14.71-.18a.86.86,0,0,1-.56.27Z"/><path d="M17.58,9.32h0a2,2,0,0,1-.14-1,1.09,1.09,0,0,1,.25.93.16.16,0,0,1-.11.09Zm-.14-1a2.22,2.22,0,0,0,.15,1s.06,0,.09-.08a1.11,1.11,0,0,0-.24-.91Z"/><path d="M17.79,8.54h0a1.88,1.88,0,0,1-.43-.81c.35.24.51.53.49.7s0,.1-.06.11Zm-.42-.81a2,2,0,0,0,.42.79.11.11,0,0,0,.05-.1,1,1,0,0,0-.47-.69Z"/><path d="M17.92,8.79a.1.1,0,0,1-.09,0,1.7,1.7,0,0,1,.7-.58c-.17.41-.44.62-.61.62Zm.6-.61a1.91,1.91,0,0,0-.68.57.19.19,0,0,0,.08,0c.16,0,.43-.21.6-.6Z"/><path d="M17.93,8.31l-.06,0a1.85,1.85,0,0,1,.47-.79c0,.51-.26.81-.41.81Zm.4-.8a2.27,2.27,0,0,0-.45.78h.05c.14,0,.36-.3.4-.79Z"/><path d="M17.84,7.56h0a1.59,1.59,0,0,1-.68-.44.88.88,0,0,1,.69.32.13.13,0,0,1,0,.12Zm-.68-.43a1.88,1.88,0,0,0,.67.42.11.11,0,0,0,0-.11.87.87,0,0,0-.67-.31Z"/><path d="M17.78,7h0A1.91,1.91,0,0,1,18,6.15a1,1,0,0,1-.11.82.15.15,0,0,1-.11.07ZM18,6.15a2.22,2.22,0,0,0-.25.88h0a.15.15,0,0,0,.1-.07A1.07,1.07,0,0,0,18,6.15Z"/><path d="M17.77,7.28h0A2,2,0,0,1,17,6.67a1,1,0,0,1,.8.46.14.14,0,0,1,0,.14ZM17,6.67a2.23,2.23,0,0,0,.78.59.14.14,0,0,0,0-.13A1.08,1.08,0,0,0,17,6.67Z"/><path d="M17.71,7h0A2.11,2.11,0,0,1,17,6.22a1.05,1.05,0,0,1,.72.6.14.14,0,0,1,0,.14ZM17,6.23a2.44,2.44,0,0,0,.67.72.12.12,0,0,0,0-.13A1,1,0,0,0,17,6.23Z"/><path d="M17.61,6.44h0a1.83,1.83,0,0,1-.05-.91,1,1,0,0,1,.15.85.12.12,0,0,1-.1.07Zm-.05-.92a2,2,0,0,0,.06.9.09.09,0,0,0,.08-.06,1,1,0,0,0-.14-.84Z"/><path d="M17.39,6.09h0a1.66,1.66,0,0,1,0-.75.77.77,0,0,1,.13.69.09.09,0,0,1-.08.06Zm-.05-.74a2,2,0,0,0,.05.73s.05,0,.07,0a.77.77,0,0,0-.12-.68Z"/><path d="M17.32,6.3h0a2.11,2.11,0,0,1-.73-.68,1,1,0,0,1,.76.53.13.13,0,0,1,0,.14Zm-.73-.67a2.37,2.37,0,0,0,.72.65.12.12,0,0,0,0-.13,1,1,0,0,0-.74-.52Z"/><path d="M17.21,5.93h0a1.56,1.56,0,0,1-.34-.65.75.75,0,0,1,.4.56s0,.08-.05.09Zm-.34-.66a1.82,1.82,0,0,0,.34.64s0,0,.05-.08a.79.79,0,0,0-.39-.56Z"/><path d="M17.1,11.53a1.12,1.12,0,0,1-.94-.35.15.15,0,0,1,0-.17,2.31,2.31,0,0,1,1,.51Zm-1-.51a.17.17,0,0,0,0,.15,1.14,1.14,0,0,0,.93.35h0a2.51,2.51,0,0,0-1-.5Z"/><path d="M17.67,9.54a.13.13,0,0,1-.12,0,2.19,2.19,0,0,1,.87-.71c-.22.5-.55.76-.75.76Zm.74-.75a2.44,2.44,0,0,0-.85.7.16.16,0,0,0,.11,0c.2,0,.53-.26.74-.74Z"/><path d="M17.89,7.58l-.06,0a1.27,1.27,0,0,1,.47-.84c0,.59-.27.86-.41.86Zm.4-.86a1.53,1.53,0,0,0-.45.83h.05c.14,0,.36-.26.4-.84Z"/><path class="cls-7" d="M15.76,10.79a1.43,1.43,0,0,0,.85.66c.15,0,.43-.13.06-.35-.13.12-.61-.35-.7-.54l-.21.23Z"/><path d="M16.65,11.46h0a1.43,1.43,0,0,1-.86-.66l.22-.23c.1.2.58.64.69.54.19.1.21.18.2.23a.22.22,0,0,1-.21.13ZM16,10.57l-.21.22a1.42,1.42,0,0,0,.86.65h0c.08,0,.18,0,.2-.11s0-.12-.19-.22c0,0,0,0-.05,0s-.57-.4-.64-.56Z"/><path class="cls-8" d="M15.76,10.79a7.64,7.64,0,0,0-2.7-2.69c1.39.47,1.84,1.17,2.92,2.48l-.22.21Z"/><path d="M15.76,10.79h0l-.36-.5a6.48,6.48,0,0,0-2.34-2.18,5.06,5.06,0,0,1,2.62,2.07l.31.39-.22.22ZM13.05,8.11a6.36,6.36,0,0,1,2.35,2.18l.36.49.22-.21-.32-.38a5.11,5.11,0,0,0-2.61-2.08Z"/><path class="cls-9" d="M15.78,10.56h0l-.17-.21a7.29,7.29,0,0,0-1.92-1.92,6.71,6.71,0,0,1,1.94,1.9l.17.21v0Z"/><path class="cls-7" d="M16.71,11.41a1,1,0,0,1,0-.45.27.27,0,0,0-.12-.28l-.32-.1a.4.4,0,0,0-.35.09c-.13.08-.16.08-.21.05s-.12.16-.05.18a.32.32,0,0,0,.29-.07,2.61,2.61,0,0,1,.31-.2c.2,0,.32.07.35.15a1.45,1.45,0,0,1-.07.49c0,.08-.05.16,0,.17s.12,0,.14,0,0-.07,0-.06Z"/><path d="M16.65,11.48l-.11,0a.24.24,0,0,1,0-.18,1.79,1.79,0,0,0,.08-.49c0-.08-.17-.13-.35-.14a1.7,1.7,0,0,0-.31.2.36.36,0,0,1-.29.06.12.12,0,0,1-.08-.11s0-.07.13-.07.08,0,.21-.05a.38.38,0,0,1,.35-.1l.32.11a.3.3,0,0,1,.13.28,1,1,0,0,0,0,.45.06.06,0,0,1,0,.06Zm-.36-.85c.19,0,.32.06.36.14a1.82,1.82,0,0,1-.08.51.24.24,0,0,0,0,.15c.08.05.13,0,.15,0s0,0,0,0a1,1,0,0,1,0-.46.29.29,0,0,0-.13-.27l-.31-.1a.35.35,0,0,0-.35.09c-.13.07-.16.07-.22.05s-.1,0-.11.06a.11.11,0,0,0,.07.1.33.33,0,0,0,.28-.06,1.65,1.65,0,0,1,.32-.2Z"/><path d="M16.1,11.13a.2.2,0,0,1,0-.21.17.17,0,0,0,0-.11h0a.17.17,0,0,1,0,.11.3.3,0,0,0,0,.21Z"/><path d="M16.2,11.21a.22.22,0,0,1,0-.2s0-.07,0-.1h0a.14.14,0,0,1,0,.11.26.26,0,0,0,0,.2Z"/><path d="M16.31,11.27a.18.18,0,0,1,0-.19.13.13,0,0,0,0-.1h0a.13.13,0,0,1,0,.1.21.21,0,0,0,0,.19Z"/><path d="M16.43,11.35a.16.16,0,0,1,0-.18s0-.06,0-.09h0a.1.1,0,0,1,0,.09.19.19,0,0,0,0,.18Z"/><path d="M15.78,10.88l-.1,0a.42.42,0,0,0,.22,0l.07-.05a1,1,0,0,1,.28-.16h0a1.18,1.18,0,0,0-.29.16s-.06,0-.07,0l-.12,0Z"/><path class="cls-7" d="M16.57,10.73a0,0,0,1,1,0-.08,0,0,0,0,1,0,.08s0,0,0,0Z"/><path d="M16.57,10.73a0,0,0,0,1-.05,0s.1,0,.1,0,0,0-.05,0Z"/><path class="cls-7" d="M16.47,10.69a0,0,0,0,1,0,0s0,0,0,0,.06,0,.06,0,0,0-.06,0Z"/><path d="M16.47,10.7a.06.06,0,0,1-.06,0c0-.05.12,0,.12,0s0,0-.06,0Z"/><path class="cls-7" d="M16.38,10.68a0,0,0,0,1-.05,0,0,0,0,0,1,.05,0s.05,0,.05,0a.05.05,0,0,1-.05,0Z"/><path d="M16.38,10.68s-.06,0-.06,0,.11-.05.11,0a0,0,0,0,1-.05,0Z"/><path d="M16.79,11.42a.14.14,0,0,1,0-.14.08.08,0,0,0,0-.11h0a.09.09,0,0,1,0,.12.22.22,0,0,0,0,.14Z"/><path class="cls-10" d="M13.7,6.5l2.73,2.69c0,.1-.07.12-.07.15a1,1,0,0,1,.07.28.31.31,0,0,0,.27.15c.13,0,.16.16.2.17s0,.14.06.21.4.4.48.51.32.35.32.35-.53.44-.53.45c-.36-.43-.83-1.31-.88-1.31-.26-.3-.51-.71-.47-.83A.51.51,0,0,0,15.56,9a.35.35,0,0,0,0-.24L14.09,7.28c0-.1.07-.09.09-.09s-.54-.6-.55-.6a.08.08,0,0,1,.07-.09Z"/><path d="M17.24,11.5l0,0a10.93,10.93,0,0,1-.65-1,2.22,2.22,0,0,0-.22-.35c-.27-.29-.52-.71-.47-.83A.53.53,0,0,0,15.56,9a.37.37,0,0,0,0-.24L14.08,7.28c0-.1.06-.1.09-.1-.21-.22-.53-.57-.55-.58a.07.07,0,0,1,0-.08.05.05,0,0,1,0,0l2.74,2.7a.1.1,0,0,1,0,.13.91.91,0,0,1,0,.25.07.07,0,0,0,0,0,.31.31,0,0,0,.25.14h0a.16.16,0,0,1,.15.13s0,0,0,0a.14.14,0,0,1,0,.11.08.08,0,0,0,0,.1l.17.18.31.33a3.29,3.29,0,0,0,.32.36c0,.09-.25.25-.44.39l-.09.06v0Zm-.88-1.36a1.84,1.84,0,0,1,.23.34,9.57,9.57,0,0,0,.64,1l.08-.07a1.76,1.76,0,0,0,.44-.37,2.72,2.72,0,0,1-.32-.35,3.86,3.86,0,0,0-.31-.33L17,10.14s0-.06,0-.1a.11.11,0,0,0,0-.09s0,0,0-.06-.06-.11-.13-.11h0a.33.33,0,0,1-.27-.15s0,0,0-.06a.46.46,0,0,0-.06-.23h0l0,0s.06-.05,0-.1L13.69,6.51l0,0a.08.08,0,0,0,0,0h0a7.23,7.23,0,0,1,.56.6s-.09,0-.09.1L15.54,8.7a.33.33,0,0,1,0,.25c.09,0,.3.17.33.37s.18.5.47.82Z"/><path class="cls-11" d="M16.51,10.2A2.36,2.36,0,0,0,16.8,10l.82.94-.37.32-.74-1.1Z"/><path class="cls-8" d="M13,6.17c.05,0,.07,0,.08,0l0,0c0-.07.08-.09.11-.08l3.19,3.15c0,.1-.07.13-.07.16L14.18,7.19s-.74-.79-1-1l-.13.12s-.07,0-.11,0L11.89,5.08,13,6.15l0,0Z"/><path d="M16.35,9.36,14.18,7.2s-.75-.8-1-1l-.11.13s-.08,0-.13,0L11.88,5.08,13,6.14l.06.05,0,0h0l0,0c0-.06.07-.08.1-.08l3.21,3.16a.11.11,0,0,1,0,.14v0ZM13.21,6.17c.23.22,1,1,1,1l2.17,2.15,0,0a.1.1,0,0,0,0-.11L13.23,6.05a.1.1,0,0,0-.09.07l0,0s0,0,0,0l-.05,0-1.11-1.1L13,6.29s.08,0,.11,0l.12-.12Z"/><path d="M16.29,10.2a.17.17,0,0,1-.13-.07.22.22,0,0,1,0-.21h0a.18.18,0,0,0,0,.19.2.2,0,0,0,.21.06l-.09,0Z"/><path class="cls-1" d="M16.27,10.05a.08.08,0,0,1-.06.09Z"/><path d="M17.36,10.67l-.68-.76a1.08,1.08,0,0,1-.43-.4l0,0a2.61,2.61,0,0,0-.5-.47V9a2.57,2.57,0,0,1,.5.48l.05.05a1.23,1.23,0,0,0,.42.4l.67.77Z"/><path class="cls-8" d="M16.44,9.21c-.06.06-.4.2-.45.45a5,5,0,0,0,.4.53,3.11,3.11,0,0,0,.49-.29s-.08-.09-.08-.09a.08.08,0,0,0-.11,0,.29.29,0,0,1-.19-.31c0-.13,0-.1,0-.12a.45.45,0,0,0-.08-.14Z"/><path d="M16.38,10.2h0l-.08-.1A3.84,3.84,0,0,1,16,9.67c0-.2.23-.33.35-.41l.09-.06s.08.07.1.15,0,0,0,.12a.27.27,0,0,0,.18.3.08.08,0,0,1,.12,0h0a.32.32,0,0,1,.08.1,2.41,2.41,0,0,1-.5.29Zm.05-1s0,0-.08.07-.31.2-.35.38a5.15,5.15,0,0,0,.31.42l.08.09a2.15,2.15,0,0,0,.48-.28s-.07-.07-.07-.07-.1,0-.1,0a.31.31,0,0,1-.21-.33.42.42,0,0,0,0-.1.43.43,0,0,0-.08-.15Z"/><path class="cls-8" d="M16.35,9.45a.29.29,0,0,0,.07.32l-.07-.32Z"/><path d="M16.42,9.77a.27.27,0,0,1-.08-.33h0a.3.3,0,0,0,.06.32Z"/><path d="M16.39,10s-.06,0-.06-.07.12-.06.12,0a.07.07,0,0,1-.06.07Zm0-.12a.05.05,0,0,0-.05,0,.05.05,0,0,0,.1,0,.06.06,0,0,0-.05,0Z"/><path d="M16.23,9.77a.05.05,0,0,1-.06-.06c0-.07.12-.06.12,0a.06.06,0,0,1-.06.06Zm0-.11a.05.05,0,0,0-.05.05c0,.06.09,0,.09,0a0,0,0,0,0,0-.05Z"/><path class="cls-10" d="M15.83,6.46,13.11,9.15c0,.1.06.12.06.14a1,1,0,0,0-.07.29.3.3,0,0,1-.26.15c-.14,0-.19.17-.23.18s0,.17-.06.22-.43.44-.47.49a4,4,0,0,1-.31.35c.05.12.53.44.53.45.36-.43.83-1.31.88-1.32.26-.29.51-.7.47-.82s.26-.38.33-.37a.32.32,0,0,1,0-.24l1.95-2c0-.1,0-.07-.1-.08s.06-.08.07-.08a.08.08,0,0,0-.08-.09Z"/><path d="M12.29,11.45v0l-.08-.06a2,2,0,0,1-.45-.38c.08-.1.29-.32.31-.36l.47-.49s0-.07,0-.12a.2.2,0,0,1,0-.11s0,0,0-.05.09-.13.17-.13h0a.32.32,0,0,0,.25-.15V9.52a.53.53,0,0,1,.07-.23c-.05,0-.1-.07-.07-.14l2.73-2.69a.06.06,0,0,1,.07,0,.14.14,0,0,1,0,.07.29.29,0,0,0-.07.08h0c.06-.09.07-.09.08-.09l0,0,0,0L13.11,9.16c0,.05,0,.08.05.1l0,0a.44.44,0,0,0-.06.23.07.07,0,0,1,0,.05.32.32,0,0,1-.26.16h0c-.07,0-.12.07-.15.12s0,.06-.05.06a.22.22,0,0,0,0,.09c0,.05,0,.1,0,.13s-.46.47-.48.49a3.27,3.27,0,0,1-.3.35,2.29,2.29,0,0,0,.44.36l.08.06a8.29,8.29,0,0,0,.64-1,1.67,1.67,0,0,1,.24-.36c.25-.28.5-.69.46-.8A.52.52,0,0,1,14,8.9a.33.33,0,0,1,0-.23l2-2c0-.06,0-.06,0-.06h0s0,0,0,.09L14,8.67a.33.33,0,0,0,0,.23.56.56,0,0,0-.33.38c.05.12-.21.53-.47.83a2.51,2.51,0,0,0-.23.35,10.05,10.05,0,0,1-.65,1l0,0Z"/><path class="cls-11" d="M13,10.15a1.37,1.37,0,0,1-.3-.16l-.81.95.36.31.75-1.1Z"/><path class="cls-8" d="M16.52,6.13c-.05,0-.07,0-.08,0l0,0c0-.07-.08-.09-.1-.08L13.11,9.15c0,.1.06.13.06.16l2.18-2.16s.75-.8,1-1l.13.12s.07,0,.11,0L17.64,5l-1.1,1.08,0,0Z"/><path d="M13.16,9.33v0a0,0,0,0,0,0,0s-.07-.07,0-.14L16.29,6a.12.12,0,0,1,.12.08l.07.07,0,0L17.63,5,16.56,6.26s-.1,0-.13,0l-.12-.12-.95,1-2.2,2.18ZM16.31,6l-3.2,3.15a.09.09,0,0,0,.05.11v0l2.17-2.15s.75-.8,1-1l.14.12s.06,0,.1,0L17.63,5,16.55,6.12l-.07,0h0l0,0-.05-.06A.1.1,0,0,0,16.31,6Z"/><path d="M13.21,10.16h-.06a.27.27,0,0,0,.21-.07.18.18,0,0,0,0-.19h0a.19.19,0,0,1,0,.21.18.18,0,0,1-.16.07Z"/><path class="cls-1" d="M13.26,10a.08.08,0,0,0,.06.09Z"/><path d="M12.19,10.64l.65-.78a1.08,1.08,0,0,0,.42-.4l.06-.06a2.22,2.22,0,0,1,.49-.47h0a3,3,0,0,0-.5.47l-.05.06a1,1,0,0,1-.44.4l-.65.77Z"/><path class="cls-8" d="M13.1,9.17c.05.06.39.2.44.45a5.25,5.25,0,0,1-.39.52,3.24,3.24,0,0,1-.5-.28.24.24,0,0,1,.08-.09.08.08,0,0,1,.11,0A.29.29,0,0,0,13,9.42c0-.13,0-.09,0-.11a.31.31,0,0,1,.08-.14Z"/><path d="M13.15,10.16h0a2.56,2.56,0,0,1-.49-.28.22.22,0,0,1,.07-.11.08.08,0,0,1,.12,0,.27.27,0,0,0,.18-.3c0-.1,0-.11,0-.12a.3.3,0,0,1,.08-.15l.1.06c.12.08.32.21.36.4a4.35,4.35,0,0,1-.32.43s-.07.08-.07.1Zm-.35-.42a.06.06,0,0,0-.06,0s-.07.05-.08.09a3.41,3.41,0,0,0,.48.27l.08-.09a5.15,5.15,0,0,0,.31-.42c0-.18-.23-.31-.35-.38l-.09-.07s-.05.08-.07.14a.45.45,0,0,0,0,.11.3.3,0,0,1-.2.32Z"/><path class="cls-8" d="M13.18,9.41a.28.28,0,0,1-.07.32l.07-.32Z"/><path d="M13.12,9.74a.33.33,0,0,0,.05-.33h0a.3.3,0,0,1-.07.34Z"/><path d="M13.15,10s-.07,0-.07-.06.12-.07.12,0,0,.06,0,.06Zm0-.11a.05.05,0,0,0-.05.05,0,0,0,0,0,.09,0s0-.05,0-.05Z"/><path d="M13.31,9.73a.06.06,0,0,1-.06-.06.06.06,0,0,1,.11,0,.06.06,0,0,1,0,.06Zm0-.11a0,0,0,0,0-.05.05c0,.05.09.06.09,0a0,0,0,0,0,0-.05Z"/><path class="cls-8" d="M15.51,6.73a.1.1,0,0,1,.11-.09l.2.22a.08.08,0,0,1,0,.07.07.07,0,0,1-.08,0l-.21-.22Z"/><path d="M15.75,7h0l-.22-.22a.12.12,0,0,1,.12-.11l.21.22a.12.12,0,0,1,0,.09l-.06,0Zm-.14-.32a.1.1,0,0,0-.09.08l.23.22a.05.05,0,0,0,0,0,.08.08,0,0,0,0-.07l-.2-.21Z"/><path class="cls-12" d="M14.48,5.25a.45.45,0,0,1,.12-.12c0-.27.12-.23.12-.23.17,0,.32,0,.31.22a.24.24,0,0,0,.08.28,2.42,2.42,0,0,1,.84.74c-.53.15-1.06.19-1.35-.4a.72.72,0,0,1,.06-.44s0,0,0,0Z"/><path d="M15.38,6.24a.83.83,0,0,1-.79-.49.71.71,0,0,1,.07-.45v0a.64.64,0,0,1-.19,0,.3.3,0,0,1,.13-.14c0-.21.08-.23.11-.23s.22,0,.27,0a.25.25,0,0,1,.06.19.21.21,0,0,0,.07.27,2.58,2.58,0,0,1,.82.71l0,0a2,2,0,0,1-.57.1Zm-.71-1s0,0,0,.07a.66.66,0,0,0-.07.43.81.81,0,0,0,.78.49A2.28,2.28,0,0,0,16,6.14l0,0a2.48,2.48,0,0,0-.81-.71A.23.23,0,0,1,15,5.12a.21.21,0,0,0,0-.18.27.27,0,0,0-.25,0c-.05,0-.11,0-.11.23a.36.36,0,0,0-.13.12h.19Z"/><path class="cls-7" d="M13.94,10.67a1.39,1.39,0,0,1-.85.66c-.25.13-.48-.17-.05-.37.12.12.6-.32.69-.51l.21.22Z"/><path d="M13,11.37a.16.16,0,0,1-.17-.12c0-.1.06-.21.23-.3a.07.07,0,0,0,.06,0c.17,0,.56-.36.63-.52l.22.22a1.35,1.35,0,0,1-.85.67l-.12,0ZM13,11c-.16.08-.24.19-.22.29a.18.18,0,0,0,.27.08,1.41,1.41,0,0,0,.86-.66l-.22-.22c-.07.2-.57.63-.69.51Z"/><path class="cls-8" d="M13.94,10.67A7.7,7.7,0,0,1,16.64,8c-1.39.46-1.84,1.17-2.92,2.47l.22.21Z"/><path d="M13.94,10.68h0l-.22-.21.31-.4A5.17,5.17,0,0,1,16.64,8a6.64,6.64,0,0,0-2.33,2.2l-.36.5ZM16.64,8a5.22,5.22,0,0,0-2.6,2.1l-.32.39.22.19c.13-.16.24-.33.36-.49A6.5,6.5,0,0,1,16.64,8Z"/><path class="cls-9" d="M13.92,10.45h0l.17-.22A7.27,7.27,0,0,1,16,8.3a7.79,7.79,0,0,0-1.91,1.93l-.17.21Z"/><path class="cls-7" d="M13,11.3a1.1,1.1,0,0,0,0-.46.26.26,0,0,1,.12-.27l.32-.1a.38.38,0,0,1,.35.09c.13.08.16.07.21,0s.12.15,0,.17a.3.3,0,0,1-.29-.06,1.7,1.7,0,0,0-.31-.2c-.2,0-.32.07-.35.14a1.47,1.47,0,0,0,.07.5c0,.07,0,.16,0,.17s-.12,0-.14,0,0-.07,0,0Z"/><path d="M13.05,11.37h0a.06.06,0,0,1,0-.06,1,1,0,0,0,0-.45.29.29,0,0,1,.13-.29l.32-.1a.41.41,0,0,1,.35.09c.13.08.15.08.21.06s.12,0,.13.07a.12.12,0,0,1-.08.11.37.37,0,0,1-.29-.06,1.93,1.93,0,0,0-.32-.21c-.17,0-.3.07-.34.15a1.86,1.86,0,0,0,.08.49.26.26,0,0,1,0,.16.21.21,0,0,1-.12,0Zm.44-.91H13.4l-.31.11a.26.26,0,0,0-.13.26,1,1,0,0,1,0,.46.09.09,0,0,0,0,0,.17.17,0,0,0,.14,0,.19.19,0,0,0,0-.16,1.8,1.8,0,0,1-.08-.5c0-.08.17-.13.36-.15a1.93,1.93,0,0,1,.32.21.33.33,0,0,0,.28.06.11.11,0,0,0,.07-.1s-.05-.06-.12-.06-.08,0-.21-.06a.45.45,0,0,0-.26-.1Z"/><path d="M13.61,11a.36.36,0,0,0,0-.21.18.18,0,0,1,0-.12h0s0,.06,0,.1.06.14,0,.22Z"/><path d="M13.51,11.1a.3.3,0,0,0,0-.2s0-.07,0-.11h0a.12.12,0,0,0,0,.1.29.29,0,0,1,0,.21Z"/><path d="M13.41,11.16a.29.29,0,0,0,0-.19s0-.07,0-.11h0a.1.1,0,0,0,0,.09.27.27,0,0,1,0,.2Z"/><path d="M13.29,11.23a.22.22,0,0,0,0-.17.12.12,0,0,1,0-.1h0s0,0,0,.08a.21.21,0,0,1,0,.18Z"/><path d="M13.91,10.76a.23.23,0,0,1-.11,0l-.07-.05a1.38,1.38,0,0,0-.29-.17h0a1.22,1.22,0,0,1,.29.17l.06.05a.29.29,0,0,0,.21,0,.13.13,0,0,1-.1,0Z"/><path class="cls-7" d="M13.13,10.61a0,0,0,1,0,0-.08s0,0,0,.05,0,0,0,0Z"/><path d="M13.13,10.62s-.05,0-.05,0,.1-.06.1,0a0,0,0,0,1,0,0Z"/><path class="cls-7" d="M13.23,10.57s0,0,0,0a0,0,0,0,0,0,0s-.06,0-.06,0,0,0,.06,0Z"/><path d="M13.23,10.58s-.06,0-.06,0,.12,0,.12,0,0,0-.06,0Z"/><path class="cls-7" d="M13.33,10.56a0,0,0,0,0,0,0,0,0,0,0,0,0,0,.06.06,0,0,0-.06,0s0,0,.06,0Z"/><path d="M13.33,10.57a.06.06,0,0,1-.06-.05c0-.06.11-.06.11,0a0,0,0,0,1-.05.05Z"/><path d="M12.92,11.31a.19.19,0,0,0,0-.14.11.11,0,0,1,0-.12h0a.07.07,0,0,0,0,.1.19.19,0,0,1,0,.15Z"/><path class="cls-13" d="M15.74,6c.89,1.15,1.22,2.56-1.64,6.4,1.44-2.07,2.92-4.48,1.53-6.32L15.74,6Z"/><path d="M14.1,12.4h0c1.47-2.1,2.91-4.49,1.54-6.32L15.74,6c.81,1,1.35,2.39-1.64,6.4ZM15.74,6l-.1.08c1.33,1.78,0,4.09-1.42,6.14C17.06,8.35,16.53,7,15.74,6Z"/><path class="cls-13" d="M15.75,6.16a1.91,1.91,0,0,1,0,2.8,2.14,2.14,0,0,0-.14-2.76l.1,0Z"/><path d="M15.79,9h0a2.14,2.14,0,0,0-.14-2.76l.1,0a1.92,1.92,0,0,1,0,2.81Zm0-2.81-.1,0a2.13,2.13,0,0,1,.15,2.74,1.91,1.91,0,0,0-.05-2.78Z"/><path class="cls-13" d="M15.78,6.09c.83,1,1.44,2.32.25,3.47.66-1.12.89-1.74-.37-3.42l.12,0Z"/><path d="M16,9.57h0c.65-1.1.91-1.71-.38-3.41l.13-.06c.53.6,1.63,2.15.25,3.48Zm-.26-3.48-.11.06c1.28,1.69,1,2.3.38,3.39,1.35-1.31.27-2.85-.27-3.45Z"/><path class="cls-13" d="M15.84,5.92c1.05,1.08,1.63,2.88-.67,6.16.89-1.73,2.23-4.34.56-6.1l.11-.06Z"/><path d="M15.17,12.09h0l0,0c.87-1.72,2.2-4.32.53-6.07l.12-.07c1.42,1.47,1.21,3.49-.66,6.17Zm.67-6.17L15.73,6c1.66,1.75.35,4.34-.53,6.06,1.84-2.66,2.05-4.66.64-6.12Z"/><path class="cls-5" d="M15.84,6.09c.83,1,1.45,2.32.25,3.47.66-1.12.89-1.74-.37-3.42l.12,0Z"/><path d="M16.09,9.57h0a3.5,3.5,0,0,0,.52-1.2,3.23,3.23,0,0,1-.51,1.18c1.35-1.31.27-2.85-.26-3.45l-.12.06a5.32,5.32,0,0,1,.75,1.23,5.7,5.7,0,0,0-.75-1.23l.12-.06c.54.6,1.63,2.15.25,3.48Z"/><path class="cls-5" d="M15.8,6.16a2.19,2.19,0,0,1-.09,3c.53-.9,1-1.65,0-3l.1,0Z"/><path d="M15.71,9.19h0l0,0a2.18,2.18,0,0,0,0-2.95l.1,0a2.19,2.19,0,0,1-.09,3Zm.09-3-.1,0a2.17,2.17,0,0,1,0,3v0a2.2,2.2,0,0,0,.07-3Z"/><path class="cls-5" d="M15.86,5.88C16.92,7,17.51,8.75,15.21,12c.94-1.83,2.41-4.15.56-6.1l.09,0Z"/><path d="M15.21,12h0l.24-.46c.9-1.72,2-3.85.31-5.64l.1,0c1.43,1.47,1.22,3.48-.64,6.15Zm.65-6.14-.09,0c1.7,1.78.58,3.92-.32,5.64-.07.15-.14.28-.21.42,1.83-2.65,2-4.64.62-6.1Z"/><path class="cls-5" d="M15.89,6c.89,1.15,1.35,2.59-1.65,6.4,1.43-2,3-4.4,1.54-6.32L15.89,6Z"/><path d="M14.24,12.35h0c1.28-1.83,3-4.33,1.54-6.32L15.89,6c.85,1.1,1.43,2.5-1.65,6.4ZM15.89,6,15.78,6c1.47,2-.2,4.41-1.47,6.23C17.3,8.43,16.73,7,15.89,6Z"/><path class="cls-13" d="M14.6,5.13c0-.26.13-.23.13-.23.16,0,.31,0,.3.23a.22.22,0,0,0,.08.27c.72.47.72.65.76.7a1.54,1.54,0,0,1-.34.12H15.4s-.06,0-.09,0c.2,0-.45-.78-.7-.8,0-.11.05-.15.05-.15s0,0,0,0l-.07-.12Z"/><path class="cls-5" d="M15.77,6.29l-.42-.65v0c.42.35.47.34.43.66l0,0Z"/><path d="M15.77,6.29h0l-.42-.65,0,0c.06.12.27.45.39.62h0c0-.28,0-.3-.27-.53l0,0,0,0c.27.22.3.25.27.53h0Z"/><path class="cls-5" d="M15.19,5.46a1.65,1.65,0,0,1,.85.61c-.75-.32-.64-.32-.88-.57l0,0Z"/><path d="M16,6.08h0c-.6-.26-.65-.32-.77-.46l-.11-.12,0,0a1.55,1.55,0,0,1,.85.61Zm-.85-.62,0,0a.6.6,0,0,1,.11.12c.12.14.17.19.76.45a1.57,1.57,0,0,0-.84-.61Z"/><path class="cls-5" d="M15.63,6.29a2,2,0,0,1-.32-.7l0,0c.31.36.41.51.3.72Z"/><path d="M15.63,6.29h0a1.89,1.89,0,0,1-.32-.7l0,0a1.83,1.83,0,0,0,.3.67.34.34,0,0,0,0-.35.32.32,0,0,1,0,.35Z"/><path class="cls-5" d="M15.5,6.31a1.57,1.57,0,0,1-.21-.59l0,0c.14.2.29.42.19.61Z"/><path d="M15.5,6.31h0a1.52,1.52,0,0,1-.21-.59l0,0a1.37,1.37,0,0,0,.19.56.35.35,0,0,0,0-.35.37.37,0,0,1,0,.36Z"/><path class="cls-5" d="M15.38,6.29a1.26,1.26,0,0,1-.14-.52h0c.14.24.21.39.13.53Z"/><path d="M15.38,6.29h0a1.33,1.33,0,0,1-.13-.52v0a1.09,1.09,0,0,0,.13.5.35.35,0,0,0,0-.3.29.29,0,0,1,0,.3Z"/><path class="cls-5" d="M15.27,6.27a1.21,1.21,0,0,1-.08-.48v0c.11.24.14.38.07.5Z"/><path d="M15.27,6.27h0a1,1,0,0,1-.08-.48h0a1.2,1.2,0,0,0,.08.46.36.36,0,0,0,0-.29.34.34,0,0,1,0,.3Z"/><path class="cls-5" d="M15.17,6.25a1.09,1.09,0,0,1,0-.44h0a.4.4,0,0,1,0,.45Z"/><path d="M15.17,6.25h0a.88.88,0,0,1,0-.44h0a1.11,1.11,0,0,0,0,.42.33.33,0,0,0,0-.32.33.33,0,0,1,0,.33Z"/><path class="cls-5" d="M15.61,5.89a1.3,1.3,0,0,1-.34-.33h0c.24.13.35.23.33.34Z"/><path d="M15.61,5.89h0a1,1,0,0,1-.34-.33h0a1,1,0,0,0,.32.31c0-.07,0-.13-.13-.21.11.08.15.15.13.22Z"/><path class="cls-5" d="M15.5,5.89a.82.82,0,0,1-.26-.35h0c.21.15.29.25.25.36Z"/><path d="M15.5,5.89h0a.79.79,0,0,1-.25-.35h0a.87.87,0,0,0,.24.33c0-.06,0-.13-.08-.22.09.08.12.15.09.23Z"/><path class="cls-5" d="M15.39,5.9a.66.66,0,0,1-.17-.3h0c.15.14.21.22.16.31Z"/><path d="M15.39,5.9h0a.61.61,0,0,1-.17-.3h0a.55.55,0,0,0,.16.28s0-.11-.05-.19.09.13.05.2Z"/><path class="cls-5" d="M15.29,5.89a.51.51,0,0,1-.11-.26h0c.11.12.16.2.1.27Z"/><path d="M15.29,5.89h0a.51.51,0,0,1-.11-.26h0a.42.42,0,0,0,.1.24s0-.09,0-.17c.06.07.08.13,0,.18Z"/><path class="cls-5" d="M15.21,5.88a.37.37,0,0,1-.07-.24h0c.09.12.11.19.06.25Z"/><path d="M15.21,5.88h0a.4.4,0,0,1-.06-.24h0a.38.38,0,0,0,.07.23s0-.08,0-.16c.05.07.05.12,0,.17Z"/><path class="cls-5" d="M15.12,5.87a.32.32,0,0,1,0-.22h0c.06.11.08.18,0,.23Z"/><path d="M15.12,5.87h0a.32.32,0,0,1,0-.22h0a.39.39,0,0,0,0,.2s0-.07,0-.14a.11.11,0,0,1,0,.15Z"/><path class="cls-5" d="M15.42,5.77a.91.91,0,0,1-.35-.31v0c.24.13.35.22.34.33Z"/><path d="M15.42,5.78h0a1.15,1.15,0,0,1-.34-.32h0a.85.85,0,0,0,.32.3c0-.07,0-.13-.14-.21q.17.11.15.21Z"/><path class="cls-5" d="M15.29,5.78A.79.79,0,0,1,15,5.43h0c.21.16.29.26.24.36Z"/><path d="M15.29,5.79h0A.8.8,0,0,1,15,5.43v0a.77.77,0,0,0,.24.33c0-.07,0-.14-.08-.22.09.08.12.15.09.23Z"/><path class="cls-5" d="M15.18,5.79A.55.55,0,0,1,15,5.5h0c.15.13.21.22.15.3Z"/><path d="M15.18,5.8h0A.55.55,0,0,1,15,5.5h0a.52.52,0,0,0,.15.28.16.16,0,0,0,0-.18c.06.07.07.13,0,.18Z"/><path class="cls-5" d="M15.09,5.79A.5.5,0,0,1,15,5.52h0c.11.12.16.2.1.27Z"/><path d="M15.09,5.79h0A.48.48,0,0,1,15,5.52h0a.42.42,0,0,0,.1.25s0-.1,0-.16.07.12,0,.17Z"/><path class="cls-5" d="M15,5.77a.4.4,0,0,1-.06-.24h0c.08.11.11.18.05.24Z"/><path d="M15,5.77h0a.32.32,0,0,1-.06-.24h0a.46.46,0,0,0,.06.23s0-.09,0-.17c0,.07.05.13,0,.17Z"/><path class="cls-5" d="M14.92,5.76c-.06-.07,0-.22,0-.22h0c.06.11.08.17,0,.22Z"/><path d="M14.92,5.77h0a.34.34,0,0,1,0-.23h0a.41.41,0,0,0,0,.21s0-.08,0-.14a.11.11,0,0,1,0,.15Z"/><path class="cls-5" d="M15.37,5.63A1,1,0,0,1,15,5.31v0c.25.13.36.23.34.34Z"/><path d="M15.37,5.63h0A1,1,0,0,1,15,5.31h0a1,1,0,0,0,.33.3c0-.06,0-.12-.13-.2.11.08.14.14.13.21Z"/><path class="cls-5" d="M15.25,5.64A1.12,1.12,0,0,1,15,5.29v0c.21.16.3.26.25.37Z"/><path d="M15.25,5.64h0A.89.89,0,0,1,15,5.29h0a.69.69,0,0,0,.24.33c0-.07,0-.13-.08-.21.09.07.12.14.08.22Z"/><path class="cls-5" d="M15.15,5.64A.66.66,0,0,1,15,5.35h0c.15.13.21.21.16.3Z"/><path d="M15.15,5.64h0A.66.66,0,0,1,15,5.35h0a.63.63,0,0,0,.16.28Zm0,0c0-.06,0-.11-.05-.19s.09.13.05.19Z"/><path class="cls-5" d="M15,5.63a.48.48,0,0,1-.11-.26h0c.12.12.16.2.1.26Z"/><path d="M15,5.64h0a.5.5,0,0,1-.11-.27h0a.54.54,0,0,0,.1.25s0-.1,0-.18.08.13,0,.19Z"/><path class="cls-5" d="M15,5.62a.44.44,0,0,1-.07-.24h0c.09.11.12.18.06.24Z"/><path d="M15,5.62h0a.44.44,0,0,1-.07-.24h0a.38.38,0,0,0,.06.23.13.13,0,0,0,0-.16c0,.07,0,.12,0,.16Z"/><path class="cls-5" d="M14.87,5.62a.43.43,0,0,1,0-.23h0c.07.11.08.18,0,.23Z"/><path d="M14.87,5.62h0a.34.34,0,0,1,0-.23h0a.32.32,0,0,0,0,.21s.05-.07,0-.13a.1.1,0,0,1,0,.14Z"/><path class="cls-5" d="M14.85,5.72a.32.32,0,0,1,0-.22h0c.07.12.08.17,0,.23Z"/><path d="M14.85,5.72h0a.27.27,0,0,1,0-.22h0a.39.39,0,0,0,0,.2s.05-.07,0-.13a.09.09,0,0,1,0,.14Z"/><path class="cls-5" d="M14.81,5.56a.32.32,0,0,1,0-.22h0c.06.11.08.17,0,.22Z"/><path d="M14.81,5.56h0a.27.27,0,0,1,0-.22h0a.41.41,0,0,0,0,.21Zm0,0s0-.08,0-.14,0,.1,0,.14Z"/><path class="cls-5" d="M14.79,5.69a.32.32,0,0,1,0-.22h0c.06.11.08.18,0,.23Z"/><path d="M14.79,5.69h0a.35.35,0,0,1,0-.22h0a.39.39,0,0,0,0,.2.1.1,0,0,0,0-.13c0,.06,0,.1,0,.14Z"/><path class="cls-5" d="M14.74,5.65a.43.43,0,0,1,0-.23h0c.07.11.08.18,0,.23Z"/><path d="M14.75,5.65h0a.42.42,0,0,1,0-.23h0a.27.27,0,0,0,0,.21.12.12,0,0,0,0-.14.12.12,0,0,1,0,.15Z"/><path class="cls-5" d="M14.63,5.61a.37.37,0,0,1,0-.22h0c0,.12,0,.19,0,.22Z"/><path d="M14.63,5.62h0a.33.33,0,0,1,0-.22h0a.29.29,0,0,0,0,.21s.06-.06,0-.13a.12.12,0,0,1,0,.14Z"/><path class="cls-5" d="M14.68,5.63a.32.32,0,0,1,0-.22h0c0,.12,0,.19,0,.22Z"/><path d="M14.68,5.63h0a.32.32,0,0,1,0-.22h0a.25.25,0,0,0,0,.2c.05,0,.06-.06.05-.13s0,.12-.05.14Z"/><path class="cls-5" d="M14.6,5.59a.32.32,0,0,1,0-.22h0c0,.12,0,.18,0,.22Z"/><path d="M14.6,5.59h0a.32.32,0,0,1,0-.22h0a.25.25,0,0,0,0,.2c.05,0,.06-.06.05-.13a.11.11,0,0,1-.05.14Z"/><path class="cls-5" d="M14.81,5.56a.32.32,0,0,1,0-.22h0c.06.11.08.17,0,.22Z"/><path d="M14.81,5.56h0a.27.27,0,0,1,0-.22h0a.41.41,0,0,0,0,.21Zm0,0s0-.08,0-.14,0,.1,0,.14Z"/><path class="cls-5" d="M14.77,5.52a.35.35,0,0,1,0-.22h0c.07.12.09.18,0,.23Z"/><path d="M14.77,5.52h0a.39.39,0,0,1,0-.22h0a.27.27,0,0,0,0,.21Zm0,0s0-.08,0-.14,0,.1,0,.14Z"/><path class="cls-5" d="M14.65,5.49a.37.37,0,0,1,0-.22h0c0,.12,0,.18,0,.22Z"/><path d="M14.65,5.49h0a.3.3,0,0,1,0-.22h0a.34.34,0,0,0,0,.21Z"/><path class="cls-5" d="M14.7,5.5a.39.39,0,0,1,0-.22h0c0,.13,0,.19,0,.22Z"/><path d="M14.7,5.51h0a.37.37,0,0,1,0-.23h0a.29.29,0,0,0,0,.21Z"/><path class="cls-5" d="M15.36,5.61c.42.35.58.29.54.61v0a7.07,7.07,0,0,0-.54-.6v0Z"/><path d="M15.9,6.22h0c0-.21,0-.25-.2-.36a2,2,0,0,1-.33-.24h0c.13.11.24.18.32.24s.24.15.21.37Zm-.26-.28-.29-.3h0s.14.14.29.3Z"/><path class="cls-14" d="M14.3,8.48c-.38-.18-.67-.22-.74.21s.1.54.47.42a1.43,1.43,0,0,0,.27-.63Z"/><path d="M13.83,9.15h0c-.19,0-.28-.14-.28-.46s.26-.44.75-.22a1.37,1.37,0,0,1-.27.64.58.58,0,0,1-.2,0Zm0-.8c-.17,0-.27.11-.31.34s.08.45.27.45h0a.58.58,0,0,0,.2,0,1.49,1.49,0,0,0,.27-.62,1,1,0,0,0-.43-.13Z"/><path class="cls-15" d="M13.78,9.14a10.26,10.26,0,0,0,2.13-.08A1.31,1.31,0,0,0,16,7.84a5.93,5.93,0,0,0-.58-1.12c.12,0,.22-.34.13-.49a9.28,9.28,0,0,1-1.73-.06h0c-.21,0-.27.08-.27.08-.18.23-.25.52,0,1a5.71,5.71,0,0,1,.57,1.15c.11.63-.11.65-.32.73Z"/><path d="M14.73,9.16h-.94l0,0c.2-.07.38-.13.28-.71a.84.84,0,0,1-.06-.14,6,6,0,0,0-.52-1c-.28-.55-.16-.84,0-1,0,0,.07-.11.28-.08A11.79,11.79,0,0,0,15,6.25a4.33,4.33,0,0,0,.53,0,.41.41,0,0,1,0,.36.27.27,0,0,1-.12.15h0A6,6,0,0,1,16,7.84a1.29,1.29,0,0,1-.09,1.22c0,.07-.42.1-1.18.1Zm-.89,0h.89c.95,0,1.16-.06,1.18-.1A1.35,1.35,0,0,0,16,7.84a5.1,5.1,0,0,0-.59-1.11.28.28,0,0,0,.13-.15.43.43,0,0,0,0-.35,4.18,4.18,0,0,1-.52,0,11.61,11.61,0,0,1-1.2-.07h-.11a.22.22,0,0,0-.19.08c-.15.2-.26.47,0,1a4.81,4.81,0,0,1,.51,1l.06.14c.11.59-.08.65-.28.71l0,0Z"/><path d="M13.73,6.73s0,0,.06-.06a.82.82,0,0,0,.06-.16.31.31,0,0,0,0-.17.19.19,0,0,0-.12-.14l-.05,0h0l.06,0a.27.27,0,0,1,.12.15.38.38,0,0,1,0,.15.45.45,0,0,1-.07.18s0,.06-.06.06Z"/><path d="M14,9h0A.35.35,0,0,0,14,8.77a.28.28,0,0,0,0-.21l0-.05a.25.25,0,0,0,0-.07.15.15,0,0,0-.13-.08h0a.15.15,0,0,1,.14.07l0,.08v0a.3.3,0,0,1,0,.21.38.38,0,0,1-.1.26h0Z"/><path d="M13.89,9l-.08,0a.2.2,0,0,1-.1-.12.33.33,0,0,1,0-.2s0,0,0-.07,0,0,.05,0H14a.69.69,0,0,0-.21,0l-.05,0,0,.06a.25.25,0,0,0,0,.21c0,.06,0,.1.09.11a.21.21,0,0,0,.13,0Z"/><path d="M14,8.8h-.14s0-.14,0-.17h0c.06,0,0,.12,0,.17H14Z"/><path class="cls-1" d="M13.76,8.4h0Z"/><path class="cls-1" d="M13.78,8.43h0Z"/><path class="cls-1" d="M13.81,8.45h0Z"/><path class="cls-1" d="M13.82,8.49h0Z"/><path class="cls-1" d="M13.84,8.51h0Z"/><path class="cls-1" d="M13.85,8.54h0Z"/><path class="cls-1" d="M13.86,8.57h0Z"/><path d="M13.71,6.73c-.07,0-.13,0-.15-.09a.19.19,0,0,1,0-.08.36.36,0,0,1,.05-.22c.07-.07.17,0,.26,0-.09,0-.19-.06-.26,0a.44.44,0,0,0-.05.22.19.19,0,0,0,0,.08c0,.06.09.07.15.08Z"/><path d="M13.78,6.56a.13.13,0,0,1-.09,0,.23.23,0,0,0,0-.17s0,0,0,0,0,0,0,0h0a0,0,0,0,1,0,0s0,0,0,0a.17.17,0,0,1,0,.17.32.32,0,0,0,.14,0Z"/><path d="M13.74,6.73h0a10,10,0,0,1,1.66,0s-.37,0-.85,0l-.81,0Z"/><path class="cls-12" d="M14.31,7.37h-.14s0,0,0,0l0-.14s0,0,0,0h.08s0,0,0,0l.05.14h0s0,0,0-.06h0l0,.07Z"/><path class="cls-12" d="M14.42,7.36h-.09a0,0,0,0,0,0,0l-.06-.15h.05s0,0,0,0l.05.14s0,0,0,0Z"/><path class="cls-12" d="M14.43,7.35s0,0,0,0l-.06-.14s0,0,0,0h.07a.08.08,0,0,1,.08,0s0,0,0,0h0a.07.07,0,0,1,.07,0s0,0-.05,0h-.07Z"/><path class="cls-12" d="M14.51,7.15h.14l0,.06h0a.06.06,0,0,0-.07,0s0,0,0,0l0,.07s0,0,0,0h0l0,.1h0a.07.07,0,0,0-.06,0l0,.07s0,0,0,0,.05,0,.05,0h0l0,.06h-.14s0,0,0,0l-.06-.14s0,0,0,0Z"/><path class="cls-12" d="M14.92,7.33h-.05l-.09-.09h0l0,.06s0,0,0,0h-.08s0,0,0,0l0-.12s0,0,0,0h.07a.07.07,0,0,1,.09,0,0,0,0,0,1,0,.06l.08.08h0Z"/><path class="cls-12" d="M15,7.32H15s0,0,0,0l-.06-.15s0,0,0,.05h0l0-.06H15l0,.06h0s0,0-.06,0l.06.16s0,0,0,0Z"/><path class="cls-12" d="M15.25,7.31h-.07l0,0H15.1v0h0s0,0,0,0V7.12h0l.11.15s0,0,0,0Z"/><path class="cls-12" d="M15.26,7.3h0l0-.15s0,0,0,0h.07a.12.12,0,0,1,.12.1s0,.1-.05.1h-.07Z"/><path class="cls-12" d="M14.68,7.71h-.09s0,0,0,0l0-.11a0,0,0,0,0,0,0h0l.05,0h0l.07.17s0,0,0,0Z"/><path class="cls-12" d="M14.67,7.57h.06a.16.16,0,0,1,0,.06s0,.07,0,.07l-.05,0s0,0,0,0l.05,0s0,0,0,0,0,0,0,0h-.06l0-.1h.08v0h-.06v0Z"/><path class="cls-12" d="M14.88,7.69s0,0,0,0l-.05-.14s0,0,0,0h.07a.1.1,0,0,1,.12.09s0,.1,0,.1h-.08Z"/><path class="cls-12" d="M15,7.49h.14l0,0h0a.07.07,0,0,0-.08,0h0l0,.07s0,0,0,0h0l0,.1h0a.07.07,0,0,0-.06,0l0,.07s0,0,0,0,0,0,0,0h0l0,.06h-.14s0,0,0,0L15,7.52s0,0,0,0Z"/><path class="cls-12" d="M14.28,8s0,0-.07,0,0,0,0,0,0,0,0,0l0,0a.11.11,0,0,1,0,.05s0,.07,0,.07h0l0-.07h0s0,.06.08.06,0,0,0,0,0,0,0,0h0c-.05,0-.06,0-.06-.06s0,0,0-.06h0l0,.06Z"/><path class="cls-12" d="M14.29,7.94h.13l0,.06h0s0,0-.08,0h0l0,.07s0,0,0,0h0l0,.1h0s0,0-.06,0l0,.07h0s0,0,0,0h0l0,.06h-.14s0,0,0,0l0-.14s0,0,0,0Z"/><path class="cls-12" d="M14.81,8.1h-.08s0,0,0,0l-.06-.15s0,0,0,0h0l0-.06h.14l0,.06h0s0,0-.06,0l.06.15s0,0,0,0Z"/><path class="cls-12" d="M14.94,8.09h-.08s0,0,0,0l-.06-.14h.06s0,0,0,0l.06.14s0,0,0,0Z"/><path class="cls-12" d="M14.88,7.89H15l0,.06h0a.06.06,0,0,0-.07,0h0L15,8s0,0,0-.05h0L15,8h0s0,0,0,0l0,.07s0,0,0,0,0,0,0-.05h0v.06H15s0,0,0,0l-.05-.14s0,0,0,0Z"/><path class="cls-12" d="M15.33,8.07h-.08s0,0,0,0l-.06-.15v.18h0l-.13-.16.05.13s0,0,0,0h-.06s0,0,0,0l0-.14s0,0,0,0h.06l.1.13V7.87h.06s0,0,0,0l0,.13s0,0,0,0Z"/><path class="cls-12" d="M15.34,7.87h0l0,.15h.11a0,0,0,0,0,0-.05s0,0-.06,0h0v0a.06.06,0,0,0-.08,0Zm0,0h0l0,0v0h0l0-.06h0Zm0,.09h0l0,0V8h0Z"/><path class="cls-12" d="M15.51,7.86h0l0,.13V8h0V8l0-.06h0l.08.09h0L15.57,8h0v0s-.07,0-.08,0Zm0,0h0v0h0l0-.06h0Z"/><path class="cls-12" d="M15.62,7.85h.14l0,.06h0s0,0-.07,0,0,0,0,0V8s0,0,0,0h0l0,.1h0s0,0,0,0l0,.07,0,0A0,0,0,0,0,15.8,8h0v.06h-.14s0,0,0,0l0-.14s0,0,0,0Z"/><path class="cls-12" d="M14.72,8.5l0,0,0-.15,0,0h.07a.11.11,0,0,1,.11.09c0,.06,0,.1-.06.11Z"/><path class="cls-12" d="M14.85,8.3H15v.05h0s0,0-.07,0,0,0,0,0v.06s0,0,0,0h0l0,.09h0s0,0-.05,0v.07l0,0s0,0,.06-.06h0v.06H14.9s0,0,0,0l0-.14s0,0,0,0Z"/><path class="cls-12" d="M15.23,8.47h-.09s0,0,0,0l0-.11s0,0,0,0h0l.05,0h0l0,.17s0,0,0,0Z"/><path class="cls-12" d="M15.32,8.31s0,0,0,0a.06.06,0,0,1,.05.06s0,.06,0,.06a.06.06,0,0,1-.06,0s0,0,0-.06a.08.08,0,0,1,0,0s0-.05,0-.05.06,0,.06,0Z"/><path class="cls-12" d="M15.47,8.46h-.1c0-.06.05-.1,0-.13s0,0,0,0,0,0,0,0h0s0-.06,0-.06a.06.06,0,0,1,.06.05.1.1,0,0,1,0,.07l0,0h0s0,0,0,0h0v.06Z"/><path class="cls-12" d="M15.6,8.45h-.1s0,0,0,0l0-.11s0,0,0,0h0l0,0h0l0,.17s0,0,0,0Z"/><path class="cls-5" d="M14.88,5.46a.22.22,0,0,1,0-.16h0c.05.08.06.12,0,.15Z"/><path class="cls-1" d="M14.88,5.46a.22.22,0,0,1,0-.16h0c.05.08.06.12,0,.15Z"/><path class="cls-5" d="M14.84,5.43a.25.25,0,0,1,0-.16h0c0,.08.06.12,0,.15Z"/><path class="cls-1" d="M14.84,5.43a.25.25,0,0,1,0-.16h0c0,.08.06.12,0,.15Z"/><path class="cls-5" d="M14.77,5.41a.23.23,0,0,1,0-.16h0c0,.08,0,.13,0,.15Z"/><path class="cls-1" d="M14.77,5.41a.23.23,0,0,1,0-.16h0c0,.08,0,.13,0,.15Z"/><path class="cls-5" d="M14.8,5.42a.23.23,0,0,1,0-.16h0c0,.09,0,.13,0,.15Z"/><path class="cls-1" d="M14.8,5.42a.23.23,0,0,1,0-.16h0c0,.09,0,.13,0,.15Z"/><path class="cls-5" d="M14.91,5.43a.25.25,0,0,0,0-.16h0c0,.08-.06.12,0,.15Z"/><path d="M14.9,5.42s0-.07,0-.15h0c0,.07-.05.11,0,.14Z"/><path class="cls-5" d="M15,5.41a.23.23,0,0,0,0-.16h0c0,.08,0,.13,0,.15Z"/><path d="M15,5.4c-.05,0-.05-.06,0-.15h0c0,.09,0,.13,0,.15Z"/><path class="cls-5" d="M15,5.42a.21.21,0,0,0,0-.16h0c0,.09,0,.13,0,.15Z"/><path d="M15,5.41s0-.06,0-.15h0c0,.08,0,.12,0,.14Z"/><path class="cls-5" d="M15,5.35a.13.13,0,0,0,0-.09h0c0,.06,0,.08,0,.09Z"/><path class="cls-1" d="M15,5.35a.13.13,0,0,0,0-.09h0C15,5.32,15,5.34,15,5.35Z"/><path class="cls-5" d="M15.06,5.3A.14.14,0,0,0,15,5.21h0c0,.06,0,.09.06.09Z"/><path d="M15.06,5.3h0s-.05,0-.06-.08h0c0,.06,0,.08.05.08s0-.07-.05-.08a.16.16,0,0,1,.06.09Z"/><path class="cls-5" d="M15.05,5.31A.26.26,0,0,0,15,5.22h0c0,.07,0,.1,0,.1Z"/><path d="M15.05,5.32h0s0,0-.06-.09h0c0,.07,0,.09,0,.09s0-.07,0-.08a.1.1,0,0,1,.06.08Z"/><path class="cls-5" d="M15.09,5.27S15,5.21,15,5.21h0c.06,0,.09,0,.09.06Z"/><path class="cls-1" d="M15.09,5.27S15,5.21,15,5.21h0c.06,0,.09,0,.09.06Z"/><path class="cls-5" d="M15.09,5.24A.14.14,0,0,0,15,5.16h0c0,.06,0,.09.07.08Z"/><path d="M15.09,5.24h0s-.06,0-.08-.08h0c0,.06,0,.08.07.08A.3.3,0,0,0,15,5.16a.14.14,0,0,1,.07.08Z"/><path class="cls-5" d="M15.11,5.19A.16.16,0,0,0,15,5.13h0s.06.08.09.06Z"/><path class="cls-1" d="M15.11,5.19A.16.16,0,0,0,15,5.13h0s.06.08.09.06Z"/><path class="cls-5" d="M15.11,5.21A.21.21,0,0,0,15,5.15h0c0,.06.06.08.09.06Z"/><path class="cls-1" d="M15.11,5.21A.21.21,0,0,0,15,5.15h0c0,.06.06.08.09.06Z"/><path class="cls-5" d="M15.11,5.14a.15.15,0,0,1-.11,0h0c.06,0,.09,0,.11,0Z"/><path class="cls-1" d="M15.11,5.14a.15.15,0,0,1-.11,0h0c.06,0,.09,0,.11,0Z"/><path class="cls-5" d="M15.13,5.12a.14.14,0,0,0-.1,0h0s.07.07.1,0Z"/><path class="cls-1" d="M15.13,5.12a.14.14,0,0,0-.1,0h0s.07.07.1,0Z"/><path class="cls-5" d="M15.11,5.08A.22.22,0,0,0,15,5h0s.07.07.1,0Z"/><path d="M15.08,5.1s0,0-.07,0h0s.07.06.1,0A.19.19,0,0,0,15,5a.14.14,0,0,1,.1,0h0l0,0Z"/><path class="cls-5" d="M15.12,5A.17.17,0,0,0,15,5h0c.05,0,.08.05.11,0Z"/><path d="M15.08,5.06,15,5a.1.1,0,0,1,.11,0h0A.17.17,0,0,0,15,5c.06,0,.08,0,.1,0l0,0Z"/><path class="cls-5" d="M15.09,5A.19.19,0,0,0,15,5h0c.06,0,.09,0,.1,0Z"/><path d="M15,5h0c.06,0,.09,0,.1,0A.13.13,0,0,0,15,5a.12.12,0,0,1,.1,0h0s0,0-.05,0Z"/><path class="cls-5" d="M15.07,5S15,5,15,5h0c.06,0,.1,0,.11,0Z"/><path class="cls-1" d="M15.07,5S15,5,15,5h0c.06,0,.1,0,.11,0Z"/><path class="cls-5" d="M15,4.92a.14.14,0,0,0-.09,0h0C15,5,15,5,15,4.92Z"/><path class="cls-1" d="M15,4.92a.14.14,0,0,0-.09,0h0C15,5,15,5,15,4.92Z"/><path class="cls-5" d="M15.05,4.93A.14.14,0,0,0,15,5h0c.06,0,.09,0,.09-.05Z"/><path d="M15,5h0c.06,0,.08,0,.09-.05A.15.15,0,0,0,15,5a.08.08,0,0,1,.09-.05h0C15.05,5,15,5,15,5Z"/><path class="cls-5" d="M15,4.86a.18.18,0,0,1-.06.09h0c0-.06,0-.09.07-.09Z"/><path class="cls-1" d="M15,4.86a.18.18,0,0,1-.06.09h0c0-.06,0-.09.07-.09Z"/><path class="cls-5" d="M15,4.89a.18.18,0,0,1-.06.09h0c0-.06,0-.09.07-.09Z"/><path class="cls-1" d="M15,4.89a.18.18,0,0,1-.06.09h0c0-.06,0-.09.07-.09Z"/><path class="cls-5" d="M15,4.86a.14.14,0,0,0-.08.06h0s.08,0,.08-.07Z"/><path class="cls-1" d="M15,4.86a.14.14,0,0,0-.08.06h0s.08,0,.08-.07Z"/><path class="cls-5" d="M14.91,4.83s-.06.09-.06.09h0c.05,0,.08,0,.06-.09Z"/><path class="cls-1" d="M14.91,4.83s-.06.09-.06.09h0c.05,0,.08,0,.06-.09Z"/><path class="cls-5" d="M14.93,4.84a.21.21,0,0,0-.07.09V5s.09,0,.07-.11Z"/><path class="cls-1" d="M14.93,4.84a.21.21,0,0,0-.07.09V5s.09,0,.07-.11Z"/><path class="cls-5" d="M14.65,4.84a.17.17,0,0,0,0,.1h0c0-.06,0-.09,0-.1Z"/><path d="M14.71,4.94h0c0-.06,0-.09,0-.1s0,.08,0,.1a.16.16,0,0,1,0-.1h0s0,0,.05.1Z"/><path class="cls-5" d="M14.6,4.89a.18.18,0,0,0,.07.09h0q0-.09-.06-.09Z"/><path class="cls-1" d="M14.6,4.89a.18.18,0,0,0,.07.09h0q0-.09-.06-.09Z"/><path class="cls-5" d="M14.62,4.88a.19.19,0,0,0,.06.08h0c0-.06,0-.09-.07-.09Z"/><path class="cls-1" d="M14.62,4.88a.19.19,0,0,0,.06.08h0c0-.06,0-.09-.07-.09Z"/><path class="cls-5" d="M14.74,4.81a.24.24,0,0,1,0,.11h0s-.06-.07,0-.1Z"/><path class="cls-1" d="M14.74,4.81a.24.24,0,0,1,0,.11h0s-.06-.07,0-.1Z"/><path class="cls-5" d="M14.71,4.82a.14.14,0,0,1,0,.1h0s-.06-.07,0-.1Z"/><path class="cls-1" d="M14.71,4.82a.14.14,0,0,1,0,.1h0s-.06-.07,0-.1Z"/><path class="cls-5" d="M14.77,4.79a.15.15,0,0,0,0,.11h0c0-.06,0-.09,0-.11Z"/><path d="M14.77,4.9h0c0-.06,0-.08,0-.1a.15.15,0,0,0,0,.09.11.11,0,0,1,0-.1h0s0,0,0,.1Z"/><path class="cls-5" d="M14.69,4.83a.2.2,0,0,0,0,.11h0c0-.06,0-.09,0-.11Z"/><path d="M14.72,4.94h0c0-.06,0-.09,0-.1a.14.14,0,0,0,0,.1.13.13,0,0,1,0-.11h0s0,0,0,.1Z"/><path class="cls-5" d="M14.79,4.81s0,.11,0,.11h0s-.05-.08,0-.11Z"/><path class="cls-1" d="M14.79,4.81s0,.11,0,.11h0s-.05-.08,0-.11Z"/><path class="cls-5" d="M14.85,4.81a.19.19,0,0,1,0,.11h0c0-.06,0-.09,0-.11Z"/><path class="cls-1" d="M14.85,4.81a.19.19,0,0,1,0,.11h0c0-.06,0-.09,0-.11Z"/><path class="cls-5" d="M14.83,4.8a.17.17,0,0,1,0,.11h0s0-.09,0-.11Z"/><path class="cls-1" d="M14.83,4.8a.17.17,0,0,1,0,.11h0s0-.09,0-.11Z"/><path class="cls-5" d="M14.55,5.06s.1,0,.1,0h0c-.05,0-.07,0-.1,0Z"/><path class="cls-1" d="M14.55,5.06s.1,0,.1,0h0c-.05,0-.07,0-.1,0Z"/><path class="cls-5" d="M14.59,5.14a.16.16,0,0,0,.1,0h0c-.06,0-.09,0-.1,0Z"/><path class="cls-1" d="M14.59,5.14a.16.16,0,0,0,.1,0h0c-.06,0-.09,0-.1,0Z"/><path class="cls-5" d="M14.57,5.11a.13.13,0,0,0,.1,0h0c-.05,0-.09,0-.1,0Z"/><path class="cls-1" d="M14.57,5.11a.13.13,0,0,0,.1,0h0c-.05,0-.09,0-.1,0Z"/><path class="cls-5" d="M14.57,5a.17.17,0,0,1,.1,0h0c-.06,0-.09,0-.1,0Z"/><path class="cls-1" d="M14.57,5a.17.17,0,0,1,.1,0h0c-.06,0-.09,0-.1,0Z"/><path class="cls-5" d="M14.57,4.94a.15.15,0,0,0,.09.07h0c0-.06-.05-.08-.08-.07Z"/><path class="cls-1" d="M14.57,4.94a.15.15,0,0,0,.09.07h0c0-.06-.05-.08-.08-.07Z"/><path class="cls-5" d="M14.58,5a.14.14,0,0,0,.08.07h0c0-.06-.05-.08-.09-.07Z"/><path d="M14.67,5h0s0-.08-.07-.07.06.06.07.07-.07,0-.08-.07h0s.05,0,.08.07Z"/><path class="cls-5" d="M14.57,5a.14.14,0,0,0,.1,0h0S14.6,5,14.57,5Z"/><path d="M14.65,5.07a.09.09,0,0,1-.08,0h0a.15.15,0,0,0,.09,0S14.6,5,14.58,5s.05,0,.1,0Z"/><path class="cls-5" d="M14.62,4.94a.24.24,0,0,1,.1.06h0c-.05,0-.08,0-.09,0Z"/><path class="cls-1" d="M14.62,4.94a.24.24,0,0,1,.1.06h0c-.05,0-.08,0-.09,0Z"/><path class="cls-5" d="M14.66,5.3s.09-.06.09-.06h0c-.06,0-.08,0-.08.06Z"/><path class="cls-1" d="M14.66,5.3s.09-.06.09-.06h0c-.06,0-.08,0-.08.06Z"/><path class="cls-5" d="M14.68,5.31s.09,0,.09,0h0c-.06,0-.09,0-.09.06Z"/><path d="M14.68,5.31h0s0,0,.08-.06h0s-.08,0-.08.06a.11.11,0,0,0,.08-.06.1.1,0,0,1-.08.06Z"/><path class="cls-5" d="M14.71,5.35s.07-.07.07-.07h0c-.06,0-.08.05-.07.08Z"/><path class="cls-1" d="M14.71,5.35s.07-.07.07-.07h0c-.06,0-.08.05-.07.08Z"/><path class="cls-5" d="M14.69,5.34s.07-.08.07-.08h0c-.06,0-.08,0-.08.08Z"/><path d="M14.69,5.34h0s.06-.08.07-.08-.08,0-.07.08,0-.06.06-.08,0,.07-.06.08Z"/><path class="cls-5" d="M14.63,5.28a.17.17,0,0,0,.1,0h0c-.06,0-.09,0-.1,0Z"/><path class="cls-1" d="M14.63,5.28a.17.17,0,0,0,.1,0h0c-.06,0-.09,0-.1,0Z"/><path class="cls-5" d="M14.64,5.21s.1,0,.1,0h0c-.06,0-.09,0-.1,0Z"/><path class="cls-1" d="M14.64,5.21s.1,0,.1,0h0c-.06,0-.09,0-.1,0Z"/><path class="cls-5" d="M14.64,5.24a.17.17,0,0,0,.1,0h0c-.06,0-.09,0-.1,0Z"/><path d="M14.65,5.24h0s0,0,.09,0h0c-.06,0-.09,0-.09,0s.08,0,.09,0a.11.11,0,0,1-.09,0Z"/><path class="cls-5" d="M14.6,5.19a.14.14,0,0,1,.1,0h0s-.06.07-.1,0Z"/><path class="cls-1" d="M14.6,5.19a.14.14,0,0,1,.1,0h0s-.06.07-.1,0Z"/><path class="cls-5" d="M15.1,5s-.07.07-.07.07h0c0-.06.05-.08.08-.07Z"/><path class="cls-1" d="M15.1,5s-.07.07-.07.07h0c0-.06.05-.08.08-.07Z"/><path class="cls-5" d="M14.6,5.17a.19.19,0,0,0,.1,0h0c-.06,0-.09,0-.1,0Z"/><path d="M14.62,5.17h0s.05,0,.1,0h0c-.06,0-.09,0-.1,0a.14.14,0,0,0,.1,0l-.08,0Z"/><path class="cls-5" d="M15,5.29S15,5.2,15,5.2h0c.05,0,.07,0,.06.09Z"/><path class="cls-1" d="M15,5.29S15,5.2,15,5.2h0c.05,0,.07,0,.06.09Z"/><path class="cls-5" d="M15,5.32a.22.22,0,0,1,0-.11h0s.06.08,0,.11Z"/><path class="cls-1" d="M15,5.32a.22.22,0,0,1,0-.11h0s.06.08,0,.11Z"/><path class="cls-5" d="M15,5.24S15,5.16,15,5.16h0c0,.06,0,.08.07.08Z"/><path class="cls-1" d="M15,5.24S15,5.16,15,5.16h0c0,.06,0,.08.07.08Z"/><path class="cls-5" d="M15,5.21s-.1,0-.1,0h0c.06,0,.1,0,.1,0Z"/><path class="cls-1" d="M15,5.21s-.1,0-.1,0h0c.06,0,.1,0,.1,0Z"/><path class="cls-5" d="M15,4.91c-.05,0-.09.06-.09.06h0c.06,0,.09,0,.09-.06Z"/><path d="M14.87,5h0c.06,0,.09,0,.08-.06s-.07.06-.08.06A.17.17,0,0,1,15,4.9h0s0,0-.08.07Z"/><path class="cls-5" d="M14.88,4.88s0,.1,0,.1h0c0-.06,0-.09.05-.09Z"/><path class="cls-1" d="M14.88,4.88s0,.1,0,.1h0c0-.06,0-.09.05-.09Z"/><path class="cls-5" d="M14.88,4.81a.23.23,0,0,1,0,.11h0c0-.06,0-.1,0-.11Z"/><path class="cls-1" d="M14.88,4.81a.23.23,0,0,1,0,.11h0c0-.06,0-.1,0-.11Z"/><path class="cls-5" d="M14.7,4.87s.06.09.06.09h0c-.06,0-.08,0-.07-.08Z"/><path class="cls-1" d="M14.7,4.87s.06.09.06.09h0c-.06,0-.08,0-.07-.08Z"/><path class="cls-5" d="M14.66,5.2a.14.14,0,0,1,.07-.08h0c0,.06,0,.09-.07.08Z"/><path class="cls-1" d="M14.66,5.2a.14.14,0,0,1,.07-.08h0c0,.06,0,.09-.07.08Z"/><path class="cls-5" d="M14.73,5.32a.18.18,0,0,1,.07-.09h0s0,.08-.08.08Z"/><path class="cls-1" d="M14.73,5.32a.18.18,0,0,1,.07-.09h0s0,.08-.08.08Z"/><path class="cls-5" d="M14.88,5.4a.25.25,0,0,0,0-.16h0c0,.08-.06.12,0,.15Z"/><path d="M14.88,5.39c-.05,0,0-.08,0-.15h0c0,.07-.05.11,0,.14Z"/><path class="cls-5" d="M15.08,5.12a.23.23,0,0,1-.11,0h0c.06,0,.09,0,.11,0Z"/><path class="cls-1" d="M15.08,5.12a.23.23,0,0,1-.11,0h0c.06,0,.09,0,.11,0Z"/><path class="cls-5" d="M15.06,5s-.09.06-.09.06h0S15,5,15.06,5Z"/><path class="cls-1" d="M15.06,5s-.09.06-.09.06h0S15,5,15.06,5Z"/><path class="cls-5" d="M14.67,4.94s.1,0,.1,0h0c0-.05-.07-.06-.1,0Z"/><path d="M14.74,5s-.06,0-.07,0h0s.1,0,.1,0-.07-.06-.1,0,.06,0,.1,0Z"/><path class="cls-5" d="M14.73,4.92s.09.06.09.06h0c0-.06-.05-.08-.09-.06Z"/><path d="M14.81,5s-.08,0-.08-.06h0s0,0,.09,0h0c0-.06-.06-.07-.08-.06s.07.06.08.06Z"/><path class="cls-5" d="M14.64,5s.11,0,.11,0h0c-.05,0-.08,0-.1,0Z"/><path class="cls-1" d="M14.64,5s.11,0,.11,0h0c-.05,0-.08,0-.1,0Z"/><path class="cls-5" d="M14.65,5.08s.1,0,.1,0h0c-.05,0-.09,0-.1,0Z"/><path d="M14.68,5.09h0s.1,0,.1,0-.08,0-.1,0,0,0,.11,0a.15.15,0,0,1-.08,0Z"/><path class="cls-5" d="M14.67,5.13s.09,0,.09,0h0c-.06,0-.09,0-.09,0Z"/><path d="M14.69,5.13h0s.09,0,.09,0-.08,0-.09,0,0,0,.09,0a.09.09,0,0,1-.07.06Z"/><path class="cls-5" d="M14.72,5.24s0-.09,0-.09h0s-.06.07,0,.1Z"/><path d="M14.72,5.24h0s0-.09,0-.09-.06.06,0,.09,0-.06,0-.1,0,.09,0,.1Z"/><path class="cls-5" d="M14.74,5.27s0-.1,0-.1h0s-.07.06,0,.1Z"/><path class="cls-1" d="M14.74,5.27s0-.1,0-.1h0s-.07.06,0,.1Z"/><path class="cls-5" d="M14.77,5.27c.05,0,.06-.09.06-.09h0c-.05,0-.08.05-.06.09Z"/><path d="M14.77,5.27h0s.06-.09.06-.09-.07.06-.06.08,0-.06.06-.09,0,.1-.06.1Z"/><path class="cls-5" d="M14.79,5.29c.05,0,.07-.09.07-.09h0s-.07,0-.06.09Z"/><path d="M14.79,5.29h0s0-.07,0-.1h0s-.07,0,0,.09,0-.08,0-.09,0,.09-.06.09Z"/><path class="cls-5" d="M14.83,5.32c.05,0,0-.11,0-.11h0s0,.08,0,.1Z"/><path class="cls-1" d="M14.83,5.32c.05,0,0-.11,0-.11h0s0,.08,0,.1Z"/><path class="cls-5" d="M14.86,5.31c.05,0,0-.1,0-.1h0s-.05.08,0,.11Z"/><path class="cls-1" d="M14.86,5.31c.05,0,0-.1,0-.1h0s-.05.08,0,.11Z"/><path class="cls-5" d="M14.91,5.29s0-.1,0-.1h0c0,.06,0,.09,0,.11Z"/><path class="cls-1" d="M14.91,5.29s0-.1,0-.1h0c0,.06,0,.09,0,.11Z"/><path class="cls-5" d="M15,5.23s0-.1,0-.1h0c0,.06,0,.09,0,.1Z"/><path class="cls-1" d="M15,5.23s0-.1,0-.1h0c0,.06,0,.09,0,.1Z"/><path class="cls-5" d="M15,5.16s-.1,0-.1,0h0c.05,0,.08.06.11,0Z"/><path class="cls-1" d="M15,5.16s-.1,0-.1,0h0c.05,0,.08.06.11,0Z"/><path class="cls-5" d="M15,5.07s-.11,0-.11,0h0c.06,0,.09,0,.11,0Z"/><path class="cls-1" d="M15,5.07s-.11,0-.11,0h0c.06,0,.09,0,.11,0Z"/><path class="cls-5" d="M15,5s-.11,0-.11,0h0C15,5,15,5,15,5Z"/><path d="M15,5l-.06,0S15,5,15,5h0s-.1,0-.1,0S15,5,15,5s0,0,0,0Z"/><path class="cls-5" d="M15,5s-.1,0-.1,0h0S15,5,15,5Z"/><path class="cls-1" d="M15,5s-.1,0-.1,0h0S15,5,15,5Z"/><path class="cls-5" d="M14.91,5s-.07.08-.07.08h0c.06,0,.08,0,.08-.08Z"/><path class="cls-1" d="M14.91,5s-.07.08-.07.08h0c.06,0,.08,0,.08-.08Z"/><path class="cls-5" d="M14.79,4.88s0,.1,0,.1h0c0-.06,0-.09-.05-.1Z"/><path d="M14.84,5s-.08-.05-.06-.1h0s0,.09,0,.09,0-.09,0-.09.05,0,.05.09Z"/><path class="cls-5" d="M14.7,5s.09,0,.09,0h0s-.07-.06-.1,0Z"/><path d="M14.77,5s-.07,0-.08,0h0s.09,0,.09,0S14.73,5,14.7,5s.06,0,.1,0Z"/><path class="cls-5" d="M14.71,5s.11,0,.11,0h0c-.05,0-.09,0-.11,0Z"/><path class="cls-1" d="M14.71,5s.11,0,.11,0h0c-.05,0-.09,0-.11,0Z"/><path class="cls-5" d="M14.72,5.07s.11,0,.11,0h0c-.06,0-.09,0-.11,0Z"/><path class="cls-1" d="M14.72,5.07s.11,0,.11,0h0c-.06,0-.09,0-.11,0Z"/><path class="cls-5" d="M14.75,5.16s.09-.06.09-.06h0c-.06,0-.09,0-.09.06Z"/><path class="cls-1" d="M14.75,5.16s.09-.06.09-.06h0c-.06,0-.09,0-.09.06Z"/><path class="cls-5" d="M14.78,5.2s.06-.08.06-.08h0c-.05,0-.08,0-.06.09Z"/><path class="cls-1" d="M14.78,5.2s.06-.08.06-.08h0c-.05,0-.08,0-.06.09Z"/><path class="cls-5" d="M14.82,5.22s0-.1,0-.1h0s-.06.07,0,.1Z"/><path class="cls-1" d="M14.82,5.22s0-.1,0-.1h0s-.06.07,0,.1Z"/><path class="cls-5" d="M14.91,5.2s0-.11,0-.11h0c0,.06,0,.1,0,.11Z"/><path class="cls-1" d="M14.91,5.2s0-.11,0-.11h0c0,.06,0,.1,0,.11Z"/><path class="cls-5" d="M15,5.14s-.09,0-.09,0h0s.07.07.1,0Z"/><path d="M15,5.15s0,0-.07-.05a.09.09,0,0,1,.11,0h0s-.09,0-.09,0,.06.06.09,0Z"/><path class="cls-5" d="M15,5.09s-.11,0-.11,0h0c.05,0,.08,0,.11,0Z"/><path d="M14.92,5.11l-.07,0h0c.05,0,.08,0,.1,0h0s-.08,0-.09,0,.08,0,.1,0h0s0,0,0,0Z"/><path class="cls-5" d="M15,5s-.11,0-.11,0h0c.06,0,.09,0,.11,0Z"/><path d="M15,5.07h-.07S15,5,15,5h0s-.1,0-.1,0,.08,0,.1,0,0,0,0,0Z"/><path class="cls-5" d="M14.76,5s.07.08.07.08h0c0-.06,0-.09-.06-.08Z"/><path class="cls-1" d="M14.76,5s.07.08.07.08h0c0-.06,0-.09-.06-.08Z"/><path class="cls-5" d="M14.85,5s0,.11,0,.11h0s0-.08,0-.11Z"/><path d="M14.84,5.06s0-.09,0-.11h0s0,.11,0,.11,0-.08,0-.11,0,.06,0,.11Z"/><path class="cls-5" d="M14.94,5s-.1,0-.1,0h0c.06,0,.09,0,.1-.05Z"/><path d="M14.84,5.07h0c.05,0,.08,0,.08-.05s-.07,0-.08,0a.09.09,0,0,1,.09,0h0s0,.05-.1.05Z"/><path class="cls-5" d="M14.87,5.15s0-.1,0-.1h0c0,.06,0,.09,0,.1Z"/><path d="M14.87,5.16h0s0,0,0-.1h0c0,.06,0,.09,0,.1s0-.09,0-.1.06.07,0,.1Z"/><path class="cls-5" d="M14.71,5.18s.06-.09.06-.09h0s-.08,0-.06.09Z"/><path class="cls-1" d="M14.71,5.18s.06-.09.06-.09h0s-.08,0-.06.09Z"/><path class="cls-5" d="M14.88,5.22s0-.11,0-.11h0s0,.09,0,.1Z"/><path class="cls-1" d="M14.88,5.22s0-.11,0-.11h0s0,.09,0,.1Z"/><path class="cls-13" d="M14.8,5.14a0,0,0,0,0,0,0,.05.05,0,1,0-.1,0,0,0,0,0,0,.05,0Z"/><path d="M14.8,5.15a.06.06,0,0,1-.06-.06c0-.07.12-.07.12,0a.06.06,0,0,1-.06.06Zm0-.11a0,0,0,0,0,0,0s.09,0,.09,0a0,0,0,0,0,0,0Z"/><path d="M14.8,5.1h0Z"/><path class="cls-15" d="M14.78,8.46h0s0,0,0-.07,0-.08-.05-.07h0l0,.12Z"/><path class="cls-15" d="M14.48,7.32l0,0s0,0,0,0,0,0,0,0h0l0,.06Z"/><path class="cls-15" d="M14.45,7.24s0,0,0,0a0,0,0,0,0,0,0s0,0,0,0l0,0Z"/><polygon class="cls-15" points="15.14 7.24 15.1 7.18 15.1 7.25 15.14 7.24"/><path class="cls-15" d="M14.78,7.23s0,0,0,0,0,0,0,0h0l0,.07Z"/><path class="cls-15" d="M15.3,8.45s0,0,0,0,0,0,0,0,0,0,0,0,0,0,0,0Z"/><path class="cls-15" d="M15.29,8.34v0a0,0,0,0,0,0,0s0,0,0,0,0,0,0,0Z"/><path class="cls-15" d="M15.31,7.27s0,0,0,0,0,0,0-.08,0-.07-.07-.07,0,0,0,0l.05.12Z"/><path class="cls-15" d="M14.93,7.65l0,0s0,0,0-.08,0-.07-.07-.06,0,0,0,0l0,.11Z"/><path class="cls-12" d="M14.56,8l0,.05v0h0v0L14.5,8v0h.09l0,0V8l0,0Zm0-.1,0,.09h0V8l0,0h0Z"/></g></g></g></g></g></svg>