<svg xmlns="http://www.w3.org/2000/svg" xmlns:xlink="http://www.w3.org/1999/xlink" viewBox="0 0 29.46 17.19"><defs><style>.cls-1{fill:none;}.cls-2{clip-path:url(#clip-path);}.cls-3{fill:#1f189b;}.cls-4{fill:#c0003b;}.cls-5,.cls-9{fill:#fff;}.cls-6,.cls-7{fill:#2c6c1e;}.cls-10,.cls-11,.cls-14,.cls-6,.cls-8,.cls-9{fill-rule:evenodd;}.cls-15,.cls-8{fill:#e6b32d;}.cls-10,.cls-12{fill:#233189;}.cls-11,.cls-13{fill:#c00024;}.cls-14{fill:#4d3509;}</style><clipPath id="clip-path"><rect class="cls-1" width="29.46" height="17.19"/></clipPath></defs><g id="Layer_2" data-name="Layer 2"><g id="ther"><g id="thẻ_3_vùng_hiển_thị" data-name="thẻ 3 vùng hiển thị"><g id="HAITI"><g class="cls-2"><rect class="cls-3" width="29.46" height="17.19"/><rect class="cls-4" y="8.59" width="29.46" height="8.59"/><rect class="cls-5" x="11.94" y="6.37" width="5.58" height="4.44"/><g class="cls-2"><path class="cls-6" d="M15.85,9.58l-1.14,0-1.13,0s-.58.21-.82.26-.2.13-.39.17l-.25,0a.38.38,0,0,0-.18.09v.61h5.58v-.58a.71.71,0,0,0-.18-.08,1.54,1.54,0,0,0-.28-.09c-.19,0-.15-.12-.39-.17a6.44,6.44,0,0,1-.82-.31Z"/><path class="cls-7" d="M17.52,10.82H11.94V10.2a.47.47,0,0,1,.18-.1l.15,0,.1,0a.4.4,0,0,0,.16-.07.51.51,0,0,1,.23-.09c.24-.05.81-.27.82-.27h1.13l1.14,0a7.12,7.12,0,0,0,.82.31.51.51,0,0,1,.23.09.4.4,0,0,0,.16.07l.22.07.06,0,.18.08v.6ZM15.85,9.59l-1.14,0H13.58a8.61,8.61,0,0,1-.82.27.51.51,0,0,0-.22.09.39.39,0,0,1-.17.07l-.1,0-.15,0a.56.56,0,0,0-.17.09v.61h5.56v-.58l-.17-.08-.07,0-.21-.07a.39.39,0,0,1-.17-.07.51.51,0,0,0-.22-.09,7.12,7.12,0,0,1-.82-.31Z"/><polygon class="cls-6" points="14.66 7.16 14.63 7.69 14.8 7.69 14.78 7.16 14.95 7.14 14.94 6.92 14.49 6.94 14.49 7.13 14.66 7.16"/><path class="cls-7" d="M14.81,7.7h-.18l0-.54-.16,0v-.2l.44,0,0,.21-.18,0,0,.53Zm.12-.78-.44,0v.18l.16,0,0,.54h.16l0-.53.18,0,0-.21Z"/><polygon class="cls-8" points="14.25 8.63 14.11 8.31 14.17 8.29 14.44 8.82 14.25 8.63"/><path d="M14.46,8.85l-.21-.22-.15-.32.07,0,.29.56Zm-.3-.56-.05,0,.15.31.16.17-.26-.5Z"/><polygon class="cls-9" points="13.91 7.93 14.07 8.38 14.16 8.38 13.91 7.93"/><path d="M14.17,8.39h-.09l-.17-.46.26.46Zm-.26-.46.17.45h.07l-.24-.45Z"/><polygon class="cls-8" points="14.41 8.21 14.49 8.21 14.64 8.84 14.61 9.04 14.41 8.21"/><path d="M14.61,9.07l-.21-.86h.09l.16.64,0,.23Zm-.13-.86h-.07l.2.8,0-.18-.16-.63Z"/><polygon class="cls-8" points="14.48 8.86 14.22 8.18 14.32 8.18 14.62 9.01 14.48 8.86"/><path d="M14.63,9l-.16-.16-.25-.68.1,0,.31.86Zm-.31-.85h-.09l.25.67L14.6,9l-.28-.81Z"/><polygon class="cls-9" points="14.11 7.8 14.21 8.27 14.3 8.27 14.11 7.8"/><path d="M14.3,8.27h-.09L14.1,7.8l.2.47Zm-.2-.47.12.47h.07L14.1,7.8Z"/><polygon class="cls-9" points="14.32 7.79 14.38 8.28 14.44 8.27 14.32 7.79"/><path d="M14.37,8.28h0l0-.49.12.48Zm0-.49.06.48h.06l-.12-.48Z"/><path class="cls-10" d="M14.27,8.67l-.67-.73a.56.56,0,0,0-.17.47l.76.6Z"/><path d="M14.2,9l-.77-.6a.55.55,0,0,1,.17-.49l.68.74L14.2,9Zm-.6-1.08a.6.6,0,0,0-.17.47l.76.59.08-.33-.67-.73Z"/><path class="cls-11" d="M14.66,9.08l-.5-.51c-.21,0,0,.33,0,.37l.53.45Z"/><path d="M14.67,9.4l-.56-.5c0-.07-.09-.21,0-.29a.1.1,0,0,1,.09,0l.51.51V9.4Zm-.51-.82s-.07,0-.08,0,0,.21,0,.28l0,0,.52.45v-.3l-.5-.5Z"/><polygon class="cls-8" points="14.62 8.99 13.59 7.88 13.55 7.91 14.64 9.13 14.62 8.99"/><path d="M14.65,9.15v0l-1.1-1.21,0,0,1,1.11,0,.16ZM13.58,7.89l0,0,1.08,1.19V9l-1-1.1Z"/><polygon class="cls-8" points="13.53 7.81 13.51 7.79 13.51 7.74 13.29 7.6 13.39 7.81 13.46 7.83 13.48 7.85 13.53 7.81"/><polygon points="13.48 7.86 13.46 7.83 13.39 7.82 13.29 7.6 13.51 7.73 13.51 7.76 13.5 7.74 13.29 7.61 13.39 7.81 13.46 7.82 13.48 7.85 13.52 7.81 13.52 7.81 13.53 7.82 13.48 7.86 13.48 7.86"/><path class="cls-8" d="M13.42,7.89a.8.8,0,0,1,.16-.13l.05.09L13.51,8Z"/><path d="M13.51,8l-.09-.06a.34.34,0,0,1,.15-.14l.07.09L13.51,8Zm.06-.19a.49.49,0,0,0-.15.13l.09,0,.12-.1-.06-.08Z"/><path class="cls-10" d="M14,8.87l-.85-.67c-.14.14,0,.6,0,.6l.83.45Z"/><path d="M13.94,9.26l-.83-.46s-.13-.46,0-.61l.85.67,0,.4ZM13.13,8.2c-.13.14,0,.59,0,.6l.82.44,0-.37-.84-.67Z"/><path class="cls-11" d="M14.68,9.41,14,8.86c-.24,0-.06.38,0,.42l.73.4Z"/><path d="M14.69,9.69,14,9.28c0-.09-.13-.26-.07-.36a.13.13,0,0,1,.1-.07l.7.56v.28ZM14,8.86a.15.15,0,0,0-.09.06c-.05.1,0,.28,0,.34l.74.41V9.41L14,8.86Z"/><polygon class="cls-8" points="14.65 9.3 13.15 8.17 13.11 8.21 14.7 9.44 14.65 9.3"/><path d="M14.7,9.46v0L13.11,8.21l0,0L14.66,9.3l0,.16ZM13.15,8.17l0,0,1.57,1.22,0-.13-1.5-1.13Z"/><polygon class="cls-8" points="13.08 8.11 13.05 8.09 13.04 8.04 12.81 7.94 12.94 8.13 13.01 8.13 13.04 8.16 13.08 8.11"/><polygon points="13.04 8.16 13.01 8.14 12.94 8.14 12.8 7.94 13.04 8.03 13.05 8.06 13.04 8.04 12.81 7.94 12.94 8.13 13.02 8.13 13.04 8.15 13.07 8.11 13.07 8.1 13.08 8.11 13.04 8.16 13.04 8.16"/><path class="cls-8" d="M13,8.21a.83.83,0,0,1,.13-.16l.08.08-.11.12Z"/><path d="M13.08,8.26l-.1,0a.57.57,0,0,1,.13-.16l.08.07-.11.14Zm0-.2a.4.4,0,0,0-.12.15l.09,0,.1-.13-.07-.06Z"/><path class="cls-10" d="M13.92,9.28l-1.09-.61a.36.36,0,0,0,0,.35.61.61,0,0,0,.05.32.47.47,0,0,0,.16.3.33.33,0,0,0,.63.09Z"/><path d="M13.39,10h0a.36.36,0,0,1-.34-.31.51.51,0,0,1-.16-.3.39.39,0,0,1,0-.26V9a.37.37,0,0,1,0-.36l1.1.62-.23.46a.34.34,0,0,1-.3.21Zm-.56-1.28a.36.36,0,0,0,0,.35v.06a.39.39,0,0,0,0,.26.51.51,0,0,0,.16.29.36.36,0,0,0,.33.31h0a.33.33,0,0,0,.29-.21l.23-.45h0l-1.08-.61Z"/><path class="cls-11" d="M14.63,9.68l-.74-.43c-.23,0,0,.48,0,.51l.72.26Z"/><path d="M14.63,10l-.72-.26v0c-.05-.09-.16-.32-.1-.44a.11.11,0,0,1,.09-.05l.75.43V10Zm-.74-.77a.09.09,0,0,0-.08.05c-.06.11,0,.34.09.42l.72.28V9.68l-.74-.42Z"/><polygon class="cls-8" points="14.51 9.53 12.84 8.64 12.81 8.68 14.57 9.66 14.51 9.53"/><path d="M14.58,9.67l-1.77-1,0,0,1.68.89.07.15Zm-1.74-1,0,0,1.75,1-.06-.12-1.66-.89Z"/><polygon class="cls-8" points="12.76 8.59 12.73 8.57 12.71 8.52 12.46 8.46 12.63 8.63 12.7 8.62 12.73 8.64 12.76 8.59"/><polygon points="12.73 8.65 12.7 8.63 12.63 8.64 12.46 8.46 12.71 8.52 12.72 8.55 12.71 8.52 12.46 8.47 12.63 8.63 12.7 8.62 12.73 8.63 12.75 8.59 12.75 8.58 12.76 8.59 12.73 8.65 12.73 8.65"/><path class="cls-8" d="M12.68,8.7a.48.48,0,0,1,.11-.17l.08.06-.08.14Z"/><path d="M12.79,8.74l-.11,0a.55.55,0,0,1,.1-.18l.09.06-.08.16Zm0-.21a.71.71,0,0,0-.09.17l.09,0,.09-.13-.09-.06Z"/><path class="cls-10" d="M13.31,8.08l0,.06.24-.2h.15l0,0a.14.14,0,0,0-.22,0Z"/><path class="cls-12" d="M13.34,8.15l0-.07.25-.18a.16.16,0,0,1,.23,0l0,0h-.16l-.24.21Zm.34-.31a.18.18,0,0,0-.12.06l-.25.18,0,.05a1.49,1.49,0,0,0,.23-.2h.16l0,0a.12.12,0,0,0-.09,0Z"/><path class="cls-11" d="M13.43,8.18A.62.62,0,0,1,13.55,8c.08,0,.15.06.23-.11-.07.08-.2,0-.2,0l-.06,0V8l-.18.17Z"/><path class="cls-13" d="M13.43,8.19l-.09-.07.06-.07-.06.07.09.05A.48.48,0,0,1,13.55,8l.1,0s.07,0,.12-.11c0,.07-.19,0-.2,0l0,0,0,0s.15.07.21,0c0,.14-.13.14-.21.12s-.13.13-.14.18Z"/><path class="cls-10" d="M12.9,8.4v.06s.21-.22.21-.22l.15,0,0-.05c-.1-.12-.22,0-.22,0Z"/><path class="cls-12" d="M12.9,8.47V8.4l.19-.2s.14-.15.23,0l0,.05-.16,0s-.19.21-.21.22Zm.32-.35c-.07,0-.13.09-.13.09l-.19.19v0l.2-.21.16,0,0-.05s-.05,0-.08,0Z"/><path class="cls-11" d="M13,8.51a.48.48,0,0,1,.09-.24c.09,0,.17.07.2-.12-.05.1-.2,0-.2,0l0,.06v0l-.15.2Z"/><path class="cls-13" d="M13,8.52l-.12,0,0-.06,0,.05.1,0a.73.73,0,0,1,.09-.23l.11,0s.07,0,.09-.14c0,.08-.19,0-.2,0v0a.39.39,0,0,0,.12,0,.11.11,0,0,0,.09,0c0,.15-.09.16-.19.13a.37.37,0,0,0-.09.23Z"/><path class="cls-10" d="M12.61,8.9l0,.07.18-.27.14,0,0-.06c-.12-.11-.2.08-.2.08Z"/><path class="cls-12" d="M12.65,9l0-.08.18-.23s.11-.18.21-.08l0,.06-.15,0a1.81,1.81,0,0,1-.18.27Zm.28-.42c-.08,0-.13.11-.13.11l-.18.23,0,.06.17-.26L13,8.64l0-.05-.07,0Z"/><path class="cls-11" d="M12.77,9a.83.83,0,0,1,0-.26c.1,0,.17,0,.19-.15-.05.09-.19.05-.19.05l0,.07v0L12.65,9Z"/><path class="cls-13" d="M12.78,9l-.13,0,0-.1,0,.09.11,0a.57.57,0,0,1,0-.25c.08,0,.16.07.19-.15,0,.09-.19.06-.19.06l0,0v0h.07A.15.15,0,0,0,13,8.58c0,.17-.09.19-.19.17a1.2,1.2,0,0,0,0,.25Z"/><polygon class="cls-8" points="14.5 9.94 14.08 9.81 13.9 9.5 13.26 9.47 13.28 9.7 13.83 9.8 13.88 9.9 14.51 10.07 14.5 9.94"/><path d="M14.51,10.08l-.63-.18-.06-.09-.54-.11,0-.23.65,0,.19.31.41.13v.15Zm-1.25-.61,0,.23.54.1.05.09.62.17V9.94l-.41-.13L13.9,9.5l-.64,0Z"/><polygon class="cls-14" points="14.06 10.02 13.41 9.06 13.37 9.08 14.03 10.05 14.06 10.02"/><path d="M14,10.06l-.65-1,0,0,.67,1-.05,0Zm-.62-1,0,0L14,10l0,0-.66-1Z"/><path class="cls-9" d="M13.47,9.09,13.4,9a0,0,0,1,0-.08,0l.06.11Z"/><path d="M13.38,9.15,13.32,9a0,0,0,0,1,0-.07c.05,0,.06,0,.07,0l.07.12-.09.06Zm0-.19h0a0,0,0,0,0,0,.06l.07.1.07,0L13.36,9Z"/><polygon class="cls-8" points="14.14 9.43 12.81 9.29 12.78 9.48 14.1 9.62 14.14 9.43"/><path d="M14.11,9.62l-1.33-.13,0-.2,1.33.13,0,.2Zm-1.3-.32,0,.19,1.31.12,0-.19L12.81,9.3Z"/><polygon class="cls-8" points="12.79 9.24 12.76 9.51 12.81 9.51 12.85 9.27 12.79 9.24"/><path d="M12.82,9.51h-.06l0-.27.06,0,0,.25Zm0-.26,0,.26h.05l0-.24Z"/><polygon class="cls-8" points="13.01 9.29 13 9.53 13.03 9.53 13.06 9.32 13.01 9.29"/><path d="M13,9.54h0V9.29l.05,0,0,.23Zm0-.25v.24h0l0-.21,0,0Z"/><polygon class="cls-8" points="13.91 9.39 13.88 9.61 13.94 9.61 13.97 9.39 13.91 9.39"/><polygon points="13.87 9.62 13.9 9.39 13.97 9.38 13.95 9.61 13.87 9.62 13.87 9.62"/><path class="cls-8" d="M14.11,9.4l0,.26h.08l0-.14a.06.06,0,0,0,.06.05.06.06,0,0,0,.06-.06.06.06,0,0,0-.06-.06.05.05,0,0,0-.06,0l0-.1Z"/><path d="M14.14,9.67h-.08l0-.27h.08v.1c0-.06.12,0,.12,0s-.13.08-.14,0v.14Zm0-.27h-.06l0,.26h.06l0-.13c0,.05.13,0,.13,0a.06.06,0,0,0-.11,0V9.4Z"/><polygon class="cls-8" points="13.63 9.44 13.45 9.64 13.47 9.67 13.7 9.51 13.63 9.44"/><path d="M13.47,9.67l0,0,.19-.22.08.07-.24.17Zm.16-.23-.18.21,0,0h0l.23-.16-.07-.06Z"/><polygon class="cls-8" points="13.21 9.95 13.39 9.74 13.37 9.72 13.13 9.88 13.21 9.95"/><path d="M13.21,10l-.08-.08.24-.17,0,0-.18.22Zm.17-.22-.24.14.07.06.17-.2Z"/><polygon class="cls-8" points="13.68 9.9 13.46 9.73 13.44 9.74 13.61 9.96 13.68 9.9"/><path d="M13.61,10l-.18-.22,0,0,.23.17-.08.08Zm-.15-.24.15.23.07-.07-.22-.16Z"/><polygon class="cls-8" points="13.14 9.5 13.36 9.67 13.39 9.65 13.21 9.43 13.14 9.5"/><path d="M13.36,9.67l-.23-.16.08-.09.19.23,0,0Zm-.15-.24-.07.08.22.15,0,0-.18-.21Z"/><polygon class="cls-8" points="13.38 9.37 13.4 9.63 13.43 9.63 13.5 9.37 13.38 9.37"/><path d="M13.4,9.64l0-.27h.12l-.06.27Zm.1-.27h-.12l0,.26h0l.07-.26Z"/><polygon class="cls-8" points="13.45 10.02 13.43 9.75 13.4 9.75 13.36 10.02 13.45 10.02"/><path d="M13.46,10h-.1l0-.28h0l0,.28Zm0-.27-.07.27h.09l0-.26Z"/><polygon class="cls-8" points="13.75 9.66 13.47 9.69 13.47 9.71 13.75 9.75 13.75 9.66"/><path d="M13.76,9.76l-.3,0v0l.28,0v.11Zm0-.1-.28,0,.28.05V9.66Z"/><polygon class="cls-8" points="13.08 9.75 13.36 9.71 13.36 9.69 13.08 9.65 13.08 9.75"/><polygon points="13.07 9.76 13.07 9.65 13.36 9.68 13.31 9.69 13.08 9.66 13.09 9.74 13.18 9.73 13.07 9.76 13.07 9.76"/><path class="cls-8" d="M13.49,9.69a.07.07,0,0,1-.07.07.08.08,0,0,1-.08-.07.09.09,0,0,1,.08-.08.08.08,0,0,1,.07.08Z"/><path d="M13.42,9.76a.07.07,0,0,1-.08-.07c0-.09.16-.09.16,0a.08.08,0,0,1-.08.07Zm0-.14a.07.07,0,0,0-.07.07c0,.07.14.07.14,0a.08.08,0,0,0-.07-.07Z"/><path class="cls-8" d="M13.81,9.69a.38.38,0,0,1-.39.38.39.39,0,1,1,0-.77.38.38,0,0,1,.39.39Zm-.08,0a.32.32,0,0,1-.63,0,.32.32,0,0,1,.63,0Z"/><path d="M13.42,10.08A.4.4,0,0,1,13,9.69a.41.41,0,0,1,.81,0,.4.4,0,0,1-.4.39Zm0-.77a.39.39,0,0,0-.4.38.4.4,0,0,0,.79,0,.39.39,0,0,0-.39-.38Zm0,.69a.32.32,0,1,1,.32-.31.32.32,0,0,1-.32.31Zm0-.62a.31.31,0,1,0,0,.61.31.31,0,1,0,0-.61Z"/><path class="cls-1" d="M13.17,9.49l-.06,0Zm.44,0,.06-.06Zm.12.48-.07,0Zm-.56.06.05-.06Z"/><polygon class="cls-8" points="14.51 9.31 14.57 9.65 14.52 9.69 14.46 9.31 14.51 9.31"/><path d="M14.52,9.69l-.07-.38h.06l.07.35-.06,0Zm0-.38h0l.06.36.05,0-.07-.34Z"/><path class="cls-9" d="M14.47,9.26a.17.17,0,0,1-.14-.07c-.11.1,0,.11,0,.21s.05-.07.14-.08h.13l0-.05Z"/><path d="M14.35,9.41h0a.29.29,0,0,0,0-.08s-.05-.08,0-.15.09.07.11.07h.14l0,0-.14,0a.19.19,0,0,0-.1.06l0,0Zm0-.22c-.06.06-.05.09,0,.13a.59.59,0,0,1,0,.08h0l0,0a.15.15,0,0,1,.1-.07h.13l0,0h-.14s-.06,0-.11-.07Z"/><path class="cls-9" d="M14.52,9.33l0-.1s-.06,0-.06,0l0,.1Z"/><path d="M14.45,9.35V9.24a0,0,0,0,1,0,0v0s0,0,0,0v.09h.06v0l-.07,0Z"/><path class="cls-8" d="M13.75,10.19a0,0,0,0,1,0,0h0s0,0,0,0a.05.05,0,0,1,0,0h0s0,0,0,0Z"/><path class="cls-1" d="M13.75,10.19a0,0,0,0,1,0,0h0s0,0,0,0a.05.05,0,0,1,0,0h0S13.75,10.17,13.75,10.19Z"/><path class="cls-8" d="M13.63,10.11l0,0h0a0,0,0,0,1,0,0s0,0,0,0h0a.05.05,0,0,1,0,0Z"/><path class="cls-1" d="M13.63,10.11l0,0h0a0,0,0,0,1,0,0s0,0,0,0h0A.05.05,0,0,1,13.63,10.11Z"/><path class="cls-8" d="M13.48,10.16a.05.05,0,0,1,0,0h0s0,0,0,0a0,0,0,0,1,0,0h0l0,0Z"/><path class="cls-1" d="M13.48,10.16a.05.05,0,0,1,0,0h0s0,0,0,0a0,0,0,0,1,0,0h0Z"/><path class="cls-8" d="M13.25,10.21a.05.05,0,0,1,0,0h0s0,0,0,0a.05.05,0,0,1,0,0h0a.08.08,0,0,1,0,0Z"/><path class="cls-1" d="M13.25,10.21a.05.05,0,0,1,0,0h0s0,0,0,0a.05.05,0,0,1,0,0h0A.08.08,0,0,1,13.25,10.21Z"/><path class="cls-8" d="M13.15,10.22a.05.05,0,0,1,0,0h0s0,0,0,0,0,0,0,0h0s0,0,0,0Z"/><path class="cls-1" d="M13.15,10.22a.05.05,0,0,1,0,0h0s0,0,0,0,0,0,0,0h0S13.15,10.21,13.15,10.22Z"/><path class="cls-8" d="M13.06,10.22s0,0,0,0h0a.05.05,0,0,1,0,0s0,0,0,0h0a0,0,0,0,1,0,0Z"/><path class="cls-1" d="M13.06,10.22s0,0,0,0h0a.05.05,0,0,1,0,0s0,0,0,0h0A0,0,0,0,1,13.06,10.22Z"/><path class="cls-8" d="M13,10.22l0,0h0l0,0a.05.05,0,0,1,0,0h0a.05.05,0,0,1,0,0Z"/><path class="cls-1" d="M13,10.22l0,0h0l0,0a.05.05,0,0,1,0,0h0A.05.05,0,0,1,13,10.22Z"/><path class="cls-8" d="M13,10.15l0,0h0l0,0a.05.05,0,0,1,0,0h0s0,0,0,0Z"/><path class="cls-1" d="M13,10.15l0,0h0l0,0a.05.05,0,0,1,0,0h0S13,10.13,13,10.15Z"/><path class="cls-8" d="M13.1,10.15l0,0h0a.05.05,0,0,1,0,0s0,0,0,0h0a.05.05,0,0,1,0,0Z"/><path class="cls-1" d="M13.1,10.15l0,0h0a.05.05,0,0,1,0,0s0,0,0,0h0A.05.05,0,0,1,13.1,10.15Z"/><path class="cls-8" d="M13.19,10.14s0,0,0,0h0a0,0,0,0,1,0,0s0,0,0,0h0a.05.05,0,0,1,0,0Z"/><path class="cls-1" d="M13.19,10.14s0,0,0,0h0a0,0,0,0,1,0,0s0,0,0,0h0A.05.05,0,0,1,13.19,10.14Z"/><path class="cls-8" d="M13.15,10.06s0,0,0,0h0a.05.05,0,0,1,0,0l0,0h0s0,0,0,0Z"/><path class="cls-1" d="M13.15,10.06s0,0,0,0h0a.05.05,0,0,1,0,0l0,0h0S13.15,10.05,13.15,10.06Z"/><path class="cls-8" d="M13.06,10.06s0,0,0,0h0a.05.05,0,0,1,0,0s0,0,0,0h0a0,0,0,0,1,0,0Z"/><path class="cls-1" d="M13.06,10.06s0,0,0,0h0a.05.05,0,0,1,0,0s0,0,0,0h0A0,0,0,0,1,13.06,10.06Z"/><path class="cls-9" d="M13.8,9.91s0,.07,0,.07h.06a.07.07,0,0,1,0,.07s-.13,0-.14,0a.16.16,0,0,0,.23.11c.05-.05.06-.18-.11-.21Z"/><path d="M13.88,10.18h-.05a.16.16,0,0,1-.11-.12s0,0,.07,0,.06,0,.06,0a.06.06,0,0,0,0-.06h-.05s0-.06,0-.07h0l0,0c.08,0,.13.05.14.1a.11.11,0,0,1,0,.12l-.07,0ZM13.74,10s0,0,0,0a.13.13,0,0,0,.1.11c.05,0,.09,0,.11,0A.09.09,0,0,0,14,10s-.06-.08-.13-.09v0s0,0,0,0,0,0-.08,0ZM12.66,10l-.06-.24h0l.37.15h0l-.37-.16.07.24Zm.07,0-.09-.19.1.19Zm.15,0-.19-.1.2.09Z"/><path class="cls-11" d="M12.39,9.54h-.16s0,.05,0,.07-.25.06-.27,0,.21,0,.21-.06,0-.07,0-.1.1-.05.1-.05Z"/><path class="cls-13" d="M12.07,9.67H12s0,0,.13-.05l.09,0a.22.22,0,0,1,0-.1s.1-.05.11-.06l.13.1h0l-.1-.09s-.09,0-.09.05a.07.07,0,0,0,0,.06s0,0,0,0,0,0-.09,0l-.12,0s.24,0,.27,0l0,0h0a.06.06,0,0,1,0,0c0,.05-.15.06-.19.06Z"/><path class="cls-14" d="M12.56,9.66l-.3-.25s0,0,0,0a0,0,0,0,0,0,0l.31.26Z"/><path d="M12.56,9.7l-.32-.26h0v0l.32.26v0Zm-.3-.29.29.27v0l-.3-.25Z"/><path class="cls-8" d="M12.85,9.9l-.24-.21,0-.06-.05,0,0,.05h.06l.22.19Z"/><path d="M12.78,9.92l-.21-.2h-.06s0,0,0-.06l.05,0,0,.07h0l.25.21-.08,0Zm-.2-.21.21.2h.06l-.25-.21V9.63l0,0a.14.14,0,0,0,0,.05Z"/><path class="cls-8" d="M14.19,9.62v.09s0,0,0,.07v.28s0,0-.06,0,0,0,.06.06h.06c.09,0,.1-.05.06-.06l-.07,0V10h0s.05,0,.05-.07V9.78a.08.08,0,0,0-.08-.09V9.62Zm.09.16a.05.05,0,0,0,0,0,.06.06,0,0,0-.05,0v.06s0,.1.06.1,0,0,0,0Z"/><path d="M14.22,10.17h-.06c-.05,0-.07,0-.07-.05l0,0,0,0V9.78s0-.06,0-.07V9.62h.06v.08a.08.08,0,0,1,.08.09v.15s0,.07-.05.07h0v.06l.06,0,0,0s0,0-.09.05Zm0-.55h0v.09s0,0,0,.06v.29s0,0,0,0l0,0s0,0,.06,0h.06c.06,0,.08,0,.08,0l-.09,0V10h.06a.07.07,0,0,0,0-.06V9.78c0-.08-.06-.08-.07-.08V9.62Zm0,.33h0c-.05,0-.06-.09-.06-.11V9.78a.06.06,0,0,1,.05,0h0s0,0,0,0V9.9s0,0,0,0Zm0-.22h0s0,0,0,0v.06s0,.09.05.1h0s0,0,0,0V9.78s0,0,0,0Z"/><path class="cls-6" d="M14.72,6.94c-.46-.46-.82-.24-.9-.17s.1,0,.13,0l0,.07s.14-.07.16-.06L14,6.81s.09-.07.11-.07a.29.29,0,0,0,0,.09l.07,0s0,0,0,0a.42.42,0,0,1,.29.14Z"/><path d="M14.47,7a.6.6,0,0,0-.3-.13h0a.47.47,0,0,1,.3.14Zm.25,0c-.45-.44-.8-.24-.9-.17a.29.29,0,0,0,.1,0h0a.13.13,0,0,1-.11,0c.09-.08.45-.29.9.16Zm-.63-.1s0-.06,0-.09l0,0-.06,0a.11.11,0,0,1,0-.06l-.15.07a.2.2,0,0,1,0-.08h0l0,.07a.4.4,0,0,1,.16-.06s0,0,0,0l0,0,.06,0a.29.29,0,0,0,0,.09l.06,0v0l-.07,0Z"/><path class="cls-6" d="M14.61,7c0-.11-.92-.29-1.1,0A.2.2,0,0,0,13.65,7v.07L13.76,7l0,.09L13.81,7v.07l.12-.12,0,.07L14,7V7Z"/><path d="M13.72,7.05l0-.09-.11.09V7a.11.11,0,0,1-.13.06c.09-.17.38-.19.54-.18s.53.09.56.16h0a1.06,1.06,0,0,0-.55-.15c-.16,0-.44,0-.53.17A.14.14,0,0,0,13.64,7v.08l.1-.1,0,.1L13.8,7v.08l.1-.13V7L14,7V7l-.09,0V6.93l-.1.12V7l-.08.07Z"/><path class="cls-6" d="M14.57,7A.79.79,0,0,0,14,7c-.22.12-.34.1-.37.33l.08-.08,0,.09V7.2l0,.1,0-.16v.11L14,7.14l0,0,0-.08,0,0s.06,0,.09,0l.07-.07v.05l0-.07,0,0,0,0v0h.18Z"/><path d="M13.76,7.33l0-.09a.22.22,0,0,1-.08.09.27.27,0,0,1,.22-.27L14,7a.77.77,0,0,1,.57,0h0A.74.74,0,0,0,14,7l-.15.07c-.12,0-.19.08-.21.25l.07-.08,0,.09V7.2l0,.1,0-.16,0,.11L14,7.14l.05,0,0-.09,0,.06a.08.08,0,0,1,.09,0l.05-.07,0,.06,0-.07,0,0L14.37,7v0h0V7l0,0,0,0,0,.06,0-.05-.05.07s-.09,0-.09,0l0-.06,0,.08-.05,0-.07.11,0-.11,0,.16,0-.09v.12Z"/><path class="cls-6" d="M14.52,7.06a1.2,1.2,0,0,0-.72.35l.07,0,0,.07,0-.07v0s0,0,.07,0V7.36l0,.06,0-.07s0,.07,0,.07.05-.13.07-.13v.08l0-.08,0,.06V7.26l0,.07s0-.07,0-.08l0,0,.2-.14Z"/><path d="M13.9,7.44l0-.07-.07,0a1.14,1.14,0,0,1,.71-.35h0a1.27,1.27,0,0,0-.71.34l.07,0,0,.07,0-.07,0,0s0,0,0,0,0,0,0,0V7.35l0,.07,0-.07,0,.07s0-.13.07-.14v.09l0-.09,0,.06V7.26l0,.06a.16.16,0,0,1,0-.08l.06,0,.19-.15-.2.15-.05,0a.69.69,0,0,0,0,.08l0-.07v.09l0-.06,0,.08,0-.08-.06.13s0,0,0-.07l0,.07,0-.06v.06l0,0s0,0,0,0V7.37l0,.07Z"/><path class="cls-6" d="M14.55,7.1a.65.65,0,0,0-.38.49c.09-.12.07-.1.11,0a.79.79,0,0,1,0-.13l0,.09V7.46h0V7.4l0,0s0-.06,0-.09-.06,0,0-.09l0,0s0,0,0-.06l.15-.05Z"/><path d="M14.29,7.62l0,0s0-.05,0-.06h0s0,0-.05.06h0c0-.05.05-.07.06-.07s0,0,0,.06l0,.05s0-.11,0-.12l0,.08V7.46l0-.06h0v.06l0,.12,0-.09a1.23,1.23,0,0,0,0,.13Zm-.11-.11a.7.7,0,0,1,.37-.41h0a.72.72,0,0,0-.37.4Zm.24-.19s0,0,0-.07l0,0s0,0,0,0l.15-.06-.15.06s0,0,0,.06l-.05,0s0,.06,0,.07Z"/><path class="cls-6" d="M14.57,7.12l-.08.15h0l-.09.07h.08a.25.25,0,0,0-.14.16l.12,0a.47.47,0,0,0-.11.16l.07-.06a.24.24,0,0,0-.06.18l0-.05a.28.28,0,0,0,.05.24,1,1,0,0,1,0-.17l.14.13-.08-.19s.09.12.14.11l-.11-.16.1.09-.11-.18.11,0a.32.32,0,0,1-.08-.16l.08.08a.33.33,0,0,1,0-.12h0l-.08-.08h0V7.24h0V7.17Z"/><path d="M14.51,7.92a.23.23,0,0,1-.06-.24l0,.06a.26.26,0,0,1,0-.19h0s0,.08,0,.18l0-.06a.3.3,0,0,0,.06.25.28.28,0,0,1,0-.18l.14.14-.08-.19s.09.12.13.11l-.1-.15.11.07-.13-.17.11,0s-.08-.1-.07-.16l.08.08a.42.42,0,0,1,0-.12h.05l-.08-.08,0,0v0l0,0v0l0,0v0h-.06l.08.08h0s0,.09,0,.11l-.08-.07c0,.05.08.15.08.15l-.11,0,.12.16-.11-.07.11.15c-.06,0-.14-.1-.14-.11l.08.19-.14-.13a1.31,1.31,0,0,0,0,.17Zm0-.17a1.37,1.37,0,0,0,0-.23.74.74,0,0,1,.09-.36h0a.7.7,0,0,0-.09.35.52.52,0,0,1-.05.23Zm-.12-.13a.35.35,0,0,1,.11-.17l-.11.06a.2.2,0,0,1,.12-.17h0s-.11,0-.12.16l.11-.06s-.09.11-.11.17l.06-.06-.06.07Zm0-.26.09-.08h0l.07-.16h0l-.08.15h0l-.09.08.07,0-.07,0Z"/><path class="cls-8" d="M13.93,10.24s0,0,0,0,.07,0,.08,0,0,0,.08,0a.07.07,0,0,1,.11,0,.09.09,0,0,1,.11,0,.06.06,0,0,1,.1,0,0,0,0,0,1,0,0s.07,0,.09,0,0,0,.07,0,0,0,0,0l0,0s0,0,0,0,0,0,0,0-.07,0-.07,0-.05,0-.07,0h-.05a.07.07,0,0,1-.1,0h0a.06.06,0,0,1-.09,0,.09.09,0,0,1-.11,0s-.08,0-.09,0-.07,0-.07,0,0,0,0,0Zm.1,0,0,0s0,0,0,0h0Zm.11,0,0,0s0,0,0,0,0,0,0,0l0,0Zm.21,0s0,0,0,0l0,0,0,0s0,0,0,0Zm-.11,0,0,0s0,0,0,0a0,0,0,0,1,0,0,0,0,0,0,1,0,0Zm.24,0,0,0,0,0,0,0,0,0Zm-.08,0h0Zm.15,0,0,0,0,0,0,0,0,0Z"/><path d="M14.32,10.3l-.05,0a.08.08,0,0,0,.1,0h.05s0,0,0,0h0a.05.05,0,0,0,0,0,.06.06,0,0,1,0,0s-.05,0-.07,0h0s0,0,0,0Zm-.32,0s0,0,0,0l0,0v0h0a.06.06,0,0,0,.09,0,.09.09,0,0,0,.11,0s.05.05.09,0h0c-.06.06-.09,0-.1,0a.08.08,0,0,1-.11,0,.05.05,0,0,1-.05,0Zm-.09,0h0s0,0,0,0a.08.08,0,0,1,.09,0l0,0,.05,0h0c0-.05.08-.05.13,0s.08,0,.1,0a.07.07,0,0,1,.1,0c.08,0,.1,0,.13,0s-.07,0-.09,0h-.05a.06.06,0,0,0-.09,0,.08.08,0,0,0-.1,0c-.06,0-.09,0-.12,0l-.05,0,0,0-.06,0,0,0,0,0Z"/><polygon class="cls-8" points="15.2 8.63 15.35 8.31 15.28 8.29 15.01 8.82 15.2 8.63"/><path d="M15,8.85l.29-.56h.07l-.15.33L15,8.85Zm.29-.55L15,8.79l.17-.17.14-.32Z"/><polygon class="cls-9" points="15.54 7.93 15.38 8.38 15.29 8.38 15.54 7.93"/><path d="M15.38,8.39h-.09l.25-.46-.16.46Zm.16-.46-.24.45h.07l.17-.45Z"/><polygon class="cls-8" points="15.04 8.21 14.96 8.21 14.81 8.84 14.84 9.04 15.04 8.21"/><path d="M14.84,9.07l0-.23L15,8.21H15l-.2.86Zm.2-.86H15l-.14.63,0,.18.2-.81Z"/><polygon class="cls-8" points="14.97 8.86 15.23 8.18 15.13 8.18 14.84 9.01 14.97 8.86"/><path d="M14.82,9l.31-.85h.1L15,8.87,14.82,9Zm.4-.85h-.09L14.85,9,15,8.86l.25-.68Z"/><polygon class="cls-9" points="15.35 7.8 15.24 8.27 15.16 8.27 15.35 7.8"/><path d="M15.25,8.27h-.09l.18-.48-.09.48Zm.09-.47-.18.47h.08l.1-.46Z"/><polygon class="cls-9" points="15.13 7.79 15.07 8.28 15.02 8.27 15.13 7.79"/><path d="M15.08,8.28H15l.12-.49-.05.49Zm.05-.49L15,8.27h.05l.06-.48Z"/><path class="cls-10" d="M15.18,8.67l.67-.73a.56.56,0,0,1,.17.47l-.76.6Z"/><path d="M15.26,9l-.09-.35.68-.74a.56.56,0,0,1,.18.48L15.26,9Zm.59-1.08-.67.74.08.32L16,8.41h0a.56.56,0,0,0-.17-.47Z"/><path class="cls-11" d="M14.79,9.08l.5-.51c.21,0,0,.33,0,.37l-.53.45Z"/><path d="M14.78,9.4V9.08l.51-.51h0s.08,0,.09,0,0,.22,0,.29v0l-.55.46Zm.51-.82-.5.5v.3l.53-.45v0c0-.07.09-.21,0-.28s0,0-.08,0Z"/><polygon class="cls-8" points="14.83 8.99 15.87 7.88 15.91 7.91 14.81 9.13 14.83 8.99"/><path d="M14.8,9.15l0-.16,1-1.11.05,0L14.8,9.15Zm1.06-1.26L14.84,9l0,.11,1.08-1.2,0,0Z"/><polygon class="cls-8" points="15.93 7.81 15.95 7.79 15.95 7.74 16.16 7.6 16.06 7.81 15.99 7.83 15.97 7.85 15.93 7.81"/><path d="M16,7.86l-.05-.05,0,0v0l.22-.14-.09.22-.1,0Zm.18-.26-.2.14v0l0,0,0,0,0,0h.07l.09-.21Z"/><path class="cls-8" d="M16,7.89a.69.69,0,0,0-.15-.13l-.06.09L16,8Z"/><path d="M16,8l-.14-.11.06-.09a.5.5,0,0,1,.17.13L16,8Zm-.07-.19-.06.08L16,8,16,7.89a.65.65,0,0,0-.15-.12Z"/><path class="cls-10" d="M15.47,8.87l.85-.67c.15.14,0,.6,0,.6l-.82.45Z"/><path d="M15.51,9.26l0-.39.85-.68c.15.15,0,.59,0,.61l-.84.46Zm.81-1.06-.84.67,0,.37.82-.45s.12-.45,0-.59Z"/><path class="cls-11" d="M14.77,9.41l.7-.55c.24,0,0,.38,0,.42l-.73.4Z"/><path d="M14.76,9.69V9.41l.69-.56a.13.13,0,0,1,.11.07c.06.1,0,.27-.05.34h0c0-.08.12-.26.07-.35a.17.17,0,0,0-.1-.06l-.7.56v.25l.56-.3-.57.32Z"/><polygon class="cls-8" points="14.8 9.3 16.3 8.17 16.34 8.21 14.76 9.44 14.8 9.3"/><path d="M14.75,9.46l0-.16L16.3,8.17l0,0L14.75,9.46ZM16.3,8.17,14.8,9.31l0,.12L16.34,8.2l0,0Z"/><polygon class="cls-8" points="16.38 8.11 16.4 8.09 16.41 8.04 16.64 7.94 16.51 8.13 16.44 8.13 16.41 8.16 16.38 8.11"/><path d="M16.41,8.16l0-.05,0,0V8l.23-.11-.12.21-.11,0Zm.23-.22-.23.1v.05l0,0,0,0,0,0h.07l.13-.19Z"/><path class="cls-8" d="M16.47,8.21a.57.57,0,0,0-.13-.16l-.07.08.1.12Z"/><path d="M16.37,8.26l-.11-.13.07-.08a.45.45,0,0,1,.14.15l-.1.06Zm0-.2-.07.07.1.12.1-.05a.54.54,0,0,0-.13-.14Z"/><path class="cls-10" d="M15.53,9.28s1.09-.61,1.09-.61a.36.36,0,0,1,0,.35.58.58,0,0,1,0,.32.58.58,0,0,1-.16.3.33.33,0,0,1-.64.09Z"/><path d="M16.07,10a.35.35,0,0,1-.31-.21l-.23-.46,1.09-.62a.35.35,0,0,1,0,.36v.06a.51.51,0,0,1-.05.26.46.46,0,0,1-.16.3.36.36,0,0,1-.33.31Zm.55-1.28-1.08.62.23.44a.33.33,0,0,0,.3.21c.12,0,.26-.08.32-.31a.46.46,0,0,0,.16-.29.51.51,0,0,0,.05-.26.13.13,0,0,1,0-.06.34.34,0,0,0,0-.35Z"/><path class="cls-11" d="M14.82,9.68l.74-.43c.24,0,0,.48,0,.51l-.71.26Z"/><path d="M14.82,10V9.68l.75-.43a.11.11,0,0,1,.09.05c.06.12-.05.35-.09.44l0,0-.72.26Zm.74-.77-.74.43V10l.71-.25c.05-.11.16-.34.1-.45a.08.08,0,0,0-.08-.05Z"/><polygon class="cls-8" points="14.94 9.53 16.61 8.64 16.64 8.68 14.88 9.66 14.94 9.53"/><path d="M14.87,9.67l.07-.14,1.67-.9,0,0-1.78,1Zm1.74-1L15,9.53l-.06.12,1.75-1,0,0Z"/><polygon class="cls-8" points="16.7 8.59 16.73 8.57 16.74 8.52 16.99 8.46 16.83 8.63 16.75 8.62 16.72 8.64 16.7 8.59"/><path d="M16.72,8.64l0-.05,0,0,0-.05L17,8.46l-.16.18h-.11ZM17,8.46l-.24.07v.05h0l0,0h.11L17,8.46Z"/><path class="cls-8" d="M16.77,8.7a.44.44,0,0,0-.1-.17l-.09.06.09.14Z"/><path d="M16.66,8.74l-.08-.15.08-.07a.51.51,0,0,1,.12.18l-.12,0Zm0-.21-.07.06.08.13.1,0a.76.76,0,0,0-.11-.16Z"/><path class="cls-10" d="M16.15,8.08l0,.06-.23-.2h-.16l0,0c.11-.12.22,0,.22,0Z"/><path class="cls-12" d="M16.12,8.15h0l-.24-.21h-.15l-.05-.05c.1-.13.23,0,.23,0l.25.18,0,.07Zm-.34-.31a.11.11,0,0,0-.1,0l0,0h.16a1.49,1.49,0,0,0,.23.2l0-.05-.25-.18a.17.17,0,0,0-.11-.06Z"/><path class="cls-11" d="M16,8.18A.48.48,0,0,0,15.9,8c-.08,0-.15.06-.23-.11.07.08.21,0,.21,0l.06,0V8l.18.17Z"/><path class="cls-13" d="M16,8.19h0A.62.62,0,0,0,15.91,8a.36.36,0,0,1,.12.16l.08-.06-.24-.23s-.15.07-.2,0c.1.18.15.13.21.11h0c-.13,0-.16,0-.22-.11.07,0,.2,0,.2,0l.07,0,.18.19-.1.08Z"/><path class="cls-10" d="M16.55,8.4v.06s-.21-.22-.21-.22l-.15,0,0-.05c.11-.12.22,0,.22,0Z"/><path class="cls-12" d="M16.55,8.47h0s-.19-.2-.21-.22l-.15,0,0-.05c.09-.13.22,0,.22,0l.19.19v.08Zm-.31-.35a.14.14,0,0,0-.09.05l0,0,.15,0,.2.22V8.39l-.18-.18s-.06-.09-.13-.09Z"/><path class="cls-11" d="M16.43,8.51a.61.61,0,0,0-.08-.24c-.09,0-.17.07-.21-.12.06.1.21,0,.21,0l0,.06v0l.15.2Z"/><path class="cls-13" d="M16.43,8.52h0a.58.58,0,0,0-.07-.21.42.42,0,0,1,.08.2l.1,0-.16-.2v0l-.05-.05s-.16.05-.2,0c.05.2.11.15.18.12h0c-.14.05-.18,0-.2-.13.06.06.2,0,.2,0l.06.06v0l.15.2-.12.06Z"/><path class="cls-10" d="M16.84,8.9l0,.07s-.17-.27-.17-.27l-.15,0,0-.06c.12-.11.21.08.21.08Z"/><path class="cls-12" d="M16.8,9h0a3.16,3.16,0,0,1-.18-.27l-.14,0,0-.06c.11-.12.21.07.21.08l.18.23,0,.08Zm-.27-.42a.09.09,0,0,0-.07,0l0,.06.15,0L16.8,9l0-.06-.18-.23s0-.11-.12-.11Z"/><path class="cls-11" d="M16.68,9a.83.83,0,0,0,0-.26c-.09,0-.17,0-.19-.15.05.09.2.05.2.05l0,.07v0L16.8,9Z"/><path class="cls-13" d="M16.67,9h0a.72.72,0,0,0,0-.25h-.08c-.07,0-.1,0-.12-.17a.22.22,0,0,0,.2.05l.05.06L16.8,9l-.13,0Zm0-.26a.68.68,0,0,1,.05.25l.11,0-.16-.31s-.14,0-.2-.06c0,.22.13.16.2.15Z"/><polygon class="cls-8" points="14.96 9.94 15.37 9.81 15.55 9.5 16.2 9.47 16.17 9.7 15.63 9.8 15.57 9.9 14.95 10.07 14.96 9.94"/><path d="M14.94,10.08V9.94l.42-.14.18-.3.64,0V9.7l-.55.11-.05.09-.64.18Zm1.25-.61-.64,0-.17.31L15,9.94v.12l.62-.17,0-.09.55-.11,0-.22Z"/><polygon class="cls-14" points="15.39 10.02 16.05 9.06 16.08 9.08 15.43 10.05 15.39 10.02"/><path d="M15.43,10.06l0,0,.65-1,0,0-.65,1Zm.61-1-.65,1h0l.64-1,0,0Z"/><path class="cls-9" d="M16,9.09,16.06,9a0,0,0,0,1,.06,0s0,0,0,.07l-.06.11Z"/><path d="M16.07,9.15,16,9.1,16.05,9a.05.05,0,0,1,0,0s.05,0,.05,0a0,0,0,0,1,0,0l-.07.12Zm0-.19L16,9.1l.08,0,.06-.1s0,0,0,0l0,0Z"/><polygon class="cls-8" points="15.31 9.43 16.64 9.29 16.67 9.48 15.35 9.62 15.31 9.43"/><path d="M15.35,9.62l0-.19,1.33-.14,0,.19-1.33.14Zm1.28-.33-1.32.14,0,.18,1.32-.13,0-.19Z"/><polygon class="cls-8" points="16.66 9.24 16.7 9.51 16.64 9.51 16.6 9.27 16.66 9.24"/><polygon points="16.7 9.52 16.64 9.52 16.6 9.27 16.66 9.24 16.7 9.52 16.7 9.52"/><polygon class="cls-8" points="16.44 9.29 16.46 9.53 16.42 9.53 16.39 9.32 16.44 9.29"/><polygon points="16.42 9.54 16.39 9.32 16.44 9.28 16.46 9.53 16.42 9.54 16.42 9.54"/><polygon class="cls-8" points="15.54 9.39 15.57 9.61 15.51 9.61 15.48 9.39 15.54 9.39"/><polygon points="15.58 9.62 15.51 9.62 15.48 9.39 15.54 9.38 15.58 9.62 15.58 9.62"/><path class="cls-8" d="M15.34,9.4l.05.26h-.07l0-.14a.06.06,0,0,1-.06.05.07.07,0,0,1-.07-.06s0-.06.07-.06a.05.05,0,0,1,0,0V9.4Z"/><path d="M15.31,9.67l0-.14c0,.07-.12.05-.12,0a.07.07,0,0,1,.13,0l0-.1h.07l.06.27Zm0-.14,0,.13h.07l-.05-.25h-.06l0,.1c-.05-.05-.12,0-.12,0s.1.06.11,0Z"/><polygon class="cls-8" points="15.82 9.44 16 9.64 15.98 9.67 15.75 9.51 15.82 9.44"/><path d="M16,9.67l-.24-.16.07-.08.19.21,0,0Zm-.17-.23-.07.07.23.15,0,0-.18-.2Z"/><polygon class="cls-8" points="16.25 9.95 16.07 9.74 16.09 9.72 16.32 9.88 16.25 9.95"/><path d="M16.25,10l-.19-.22,0,0,.24.15-.07.09Zm-.17-.24.17.22.07-.06-.24-.16Z"/><polygon class="cls-8" points="15.77 9.9 15.99 9.73 16.02 9.74 15.84 9.96 15.77 9.9"/><path d="M15.84,10l-.07-.07L16,9.72l0,0-.18.22ZM16,9.74l-.24.16.07.06L16,9.74Z"/><polygon class="cls-8" points="16.32 9.5 16.09 9.67 16.07 9.65 16.24 9.43 16.32 9.5"/><path d="M16.09,9.67l0,0,.18-.23.08.08-.23.17Zm.15-.24-.17.22,0,0h0l.22-.16-.07-.07Z"/><polygon class="cls-8" points="16.07 9.37 16.05 9.63 16.02 9.63 15.95 9.37 16.07 9.37"/><path d="M16.06,9.64h0l-.08-.27h.13v.28Zm0-.27H16l.08.25h0l0-.26Z"/><polygon class="cls-8" points="16 10.02 16.02 9.75 16.05 9.75 16.09 10.02 16 10.02"/><path d="M16.1,10H16l0-.28h0l.05.28Zm-.05-.27L16,10h.09l0-.26Z"/><polygon class="cls-8" points="15.7 9.66 15.98 9.69 15.99 9.71 15.7 9.75 15.7 9.66"/><path d="M15.7,9.76v-.1l.29,0v0l-.29,0Zm0-.1v.08l.28,0-.29-.05Z"/><polygon class="cls-8" points="16.37 9.75 16.1 9.71 16.09 9.69 16.38 9.65 16.37 9.75"/><polygon points="16.38 9.76 16.1 9.71 16.14 9.7 16.37 9.74 16.37 9.65 16.33 9.66 16.38 9.65 16.38 9.76 16.38 9.76"/><path class="cls-8" d="M16,9.69a.08.08,0,0,0,.08.07.07.07,0,0,0,.07-.07A.08.08,0,0,0,16,9.61a.09.09,0,0,0-.08.08Z"/><path d="M16,9.76A.07.07,0,0,1,16,9.69c0-.09.16-.09.16,0a.08.08,0,0,1-.08.07Zm0-.14a.07.07,0,0,0-.07.07c0,.07.14.07.14,0A.07.07,0,0,0,16,9.62Z"/><path class="cls-8" d="M15.64,9.69a.39.39,0,0,0,.4.38.39.39,0,1,0,0-.77.39.39,0,0,0-.4.39Zm.08,0a.32.32,0,0,0,.63,0,.32.32,0,0,0-.63,0Z"/><path d="M16,10.08a.4.4,0,0,1-.41-.39.41.41,0,0,1,.81,0,.4.4,0,0,1-.4.39Zm0-.77a.39.39,0,0,0-.4.38.4.4,0,0,0,.79,0A.39.39,0,0,0,16,9.31ZM16,10a.32.32,0,1,1,0-.63A.32.32,0,1,1,16,10Zm0-.62A.31.31,0,1,0,16,10a.31.31,0,1,0,0-.61Z"/><path class="cls-1" d="M16.28,9.49l.07,0Zm-.44,0-.05-.06Zm-.11.48.06,0Zm.55.06-.05-.06Z"/><polygon class="cls-8" points="14.95 9.31 14.88 9.65 14.93 9.69 14.99 9.31 14.95 9.31"/><path d="M14.94,9.69l-.06,0,.06-.35H15l-.05.38ZM15,9.31h0l-.07.35,0,0L15,9.31Z"/><path class="cls-9" d="M15,9.26a.17.17,0,0,0,.14-.07c.11.1,0,.11,0,.21s0-.07-.13-.08h-.14l0-.05Z"/><path d="M15.11,9.41s0,0,0,0A.2.2,0,0,0,15,9.32h-.14l0-.05H15s.06,0,.11-.07.06.11,0,.15a.15.15,0,0,0,0,.08Zm-.24-.14,0,0H15a.15.15,0,0,1,.1.07l0,0h0a.19.19,0,0,1,0-.08s0-.07,0-.13-.08.07-.11.07h-.14Z"/><path class="cls-9" d="M14.94,9.33v-.1s.06,0,.06,0v.1Z"/><path d="M15,9.35h-.06V9.23h0l0,.11H15V9.24l0,0h0s0,0,0,0v.11Z"/><path class="cls-8" d="M15.71,10.19s0,0,0,0h0s0,0,0,0,0,0,0,0h0a.05.05,0,0,0,0,0Z"/><path class="cls-1" d="M15.71,10.19s0,0,0,0h0s0,0,0,0,0,0,0,0h0A.05.05,0,0,0,15.71,10.19Z"/><path class="cls-8" d="M15.82,10.11a.08.08,0,0,0,0,0h0a.05.05,0,0,0,0,0s0,0,0,0h0a.05.05,0,0,0,0,0Z"/><path class="cls-1" d="M15.82,10.11a.08.08,0,0,0,0,0h0a.05.05,0,0,0,0,0s0,0,0,0h0A.05.05,0,0,0,15.82,10.11Z"/><path class="cls-8" d="M16,10.16a.05.05,0,0,0,0,0h0a.05.05,0,0,0,0,0,.08.08,0,0,0,0,0h0l0,0Z"/><path class="cls-1" d="M16,10.16a.05.05,0,0,0,0,0h0a.05.05,0,0,0,0,0,.08.08,0,0,0,0,0h0Z"/><path class="cls-8" d="M16.2,10.21a.05.05,0,0,0,0,0h.05a.05.05,0,0,0,0,0,.08.08,0,0,0,0,0h-.05a.08.08,0,0,0,0,0Z"/><path class="cls-1" d="M16.2,10.21a.05.05,0,0,0,0,0h.05a.05.05,0,0,0,0,0,.08.08,0,0,0,0,0h-.05A.08.08,0,0,0,16.2,10.21Z"/><path class="cls-8" d="M16.3,10.22a.05.05,0,0,0,0,0h0s0,0,0,0a0,0,0,0,0,0,0h0s0,0,0,0Z"/><path class="cls-1" d="M16.3,10.22a.05.05,0,0,0,0,0h0s0,0,0,0a0,0,0,0,0,0,0h0S16.3,10.21,16.3,10.22Z"/><path class="cls-8" d="M16.4,10.22a.05.05,0,0,0,0,0h0s0,0,0,0,0,0,0,0h0s0,0,0,0Z"/><path class="cls-1" d="M16.4,10.22a.05.05,0,0,0,0,0h0s0,0,0,0,0,0,0,0h0S16.4,10.21,16.4,10.22Z"/><path class="cls-8" d="M16.5,10.22a0,0,0,0,0,0,0h0a.08.08,0,0,0,0,0,.05.05,0,0,0,0,0h0s0,0,0,0Z"/><path class="cls-1" d="M16.5,10.22a0,0,0,0,0,0,0h0a.08.08,0,0,0,0,0,.05.05,0,0,0,0,0h0S16.5,10.2,16.5,10.22Z"/><path class="cls-8" d="M16.45,10.15l0,0h0s0,0,0,0,0,0,0,0h0a.05.05,0,0,0,0,0Z"/><path class="cls-1" d="M16.45,10.15l0,0h0s0,0,0,0,0,0,0,0h0A.05.05,0,0,0,16.45,10.15Z"/><path class="cls-8" d="M16.35,10.15a.08.08,0,0,0,0,0h.05l0,0a.05.05,0,0,0,0,0h-.05a.05.05,0,0,0,0,0Z"/><path class="cls-1" d="M16.35,10.15a.08.08,0,0,0,0,0h.05l0,0a.05.05,0,0,0,0,0h-.05A.05.05,0,0,0,16.35,10.15Z"/><path class="cls-8" d="M16.26,10.14s0,0,0,0h0s0,0,0,0a.05.05,0,0,0,0,0h0a.05.05,0,0,0,0,0Z"/><path class="cls-1" d="M16.26,10.14s0,0,0,0h0s0,0,0,0a.05.05,0,0,0,0,0h0A.05.05,0,0,0,16.26,10.14Z"/><path class="cls-8" d="M16.31,10.06a.05.05,0,0,0,0,0h0s0,0,0,0,0,0,0,0h0l0,0Z"/><path class="cls-1" d="M16.31,10.06a.05.05,0,0,0,0,0h0s0,0,0,0,0,0,0,0h0Z"/><path class="cls-8" d="M16.4,10.06a.05.05,0,0,0,0,0h0s0,0,0,0,0,0,0,0h0s0,0,0,0Z"/><path class="cls-1" d="M16.4,10.06a.05.05,0,0,0,0,0h0s0,0,0,0,0,0,0,0h0S16.4,10.05,16.4,10.06Z"/><path class="cls-9" d="M15.65,9.91s0,.07,0,.07h-.06s-.05,0,0,.07.13,0,.13,0-.17.16-.22.11-.07-.18.1-.21Z"/><path d="M15.57,10.18l-.07,0a.16.16,0,0,1,0-.12s.06-.09.14-.11l0,0h0s0,.06,0,.07h-.06a.05.05,0,0,0,0,0s0,0,.06,0h.08a.16.16,0,0,1-.12.13Zm0-.23a.15.15,0,0,0-.13.09.12.12,0,0,0,0,.11.13.13,0,0,0,.11,0,.15.15,0,0,0,.11-.12h-.14a.1.1,0,0,1,0-.08h0l0,0Zm.88-.08h0l.37-.15-.36.16Z"/><path class="cls-11" d="M17.07,9.54h.15s0,.05,0,.07.26.06.28,0-.21,0-.22-.06,0-.07,0-.1-.1-.05-.1-.05Z"/><path class="cls-13" d="M17.39,9.67s-.17,0-.2-.06l0,0s-.05,0-.11,0h.12l0,.07c0,.06.26.05.27,0l-.11,0c-.08,0-.1,0-.1,0a.08.08,0,0,1,0,0,.14.14,0,0,0,0-.06s-.08,0-.1,0l0,0,0,0s.11,0,.12.05a.19.19,0,0,1,0,.07,0,0,0,0,0,0,0l.09,0q.12,0,.12,0s-.06,0-.09,0Z"/><path class="cls-14" d="M16.89,9.66l.3-.25s0,0,0,0a0,0,0,0,1,0,0l-.31.26Z"/><path d="M16.9,9.7l0,0,.31-.26,0,0-.32.28Zm.31-.27-.32.23v0l.31-.25Z"/><path class="cls-8" d="M16.6,9.9l.24-.21,0-.06a.14.14,0,0,1,.05,0l0,.05h-.07l-.21.19Z"/><path d="M16.67,9.92H16.6a2.4,2.4,0,0,1,.24-.22V9.63s0,0,.06,0l0,.05h-.07l-.21.2Zm.19-.29v.06l-.25.22h.06l.22-.2h.06s0,0,0,0l-.05,0Z"/><path class="cls-8" d="M15.27,9.62v.09s0,0,0,.07v.28s.05,0,.06,0,0,0-.06.06h-.06c-.08,0-.1-.05-.06-.06s.06,0,.07,0V10h-.06s0,0,0-.07V9.78a.09.09,0,0,1,.09-.09V9.62Zm-.1.16a.05.05,0,0,1,.05,0,.07.07,0,0,1,0,0v.06s0,.1,0,.1,0,0,0,0Z"/><path d="M15.23,10.17h0c-.05,0-.08,0-.09-.05h0l0,0,.06,0V10h-.05s0,0,0-.07V9.78a.08.08,0,0,1,.08-.09V9.62h.06v.1s0,0,0,.06v.29l0,0,0,0s0,0-.07.05Zm0-.18v.07a.09.09,0,0,1-.06,0s0,0,.05.06h.06c.05,0,.06,0,.06,0l0,0,0,0V9.78s0,0,0-.06v-.1h0v.07s-.08,0-.08.09v.15a.07.07,0,0,0,0,.06Zm0,0a.06.06,0,0,1-.05,0V9.78s0,0,.05,0h0a.06.06,0,0,1,0,0v.06s0,.1-.06.11Zm0-.21s0,0,0,0V9.9a0,0,0,0,0,0,0s0-.07,0-.1V9.78l0,0Z"/><path class="cls-6" d="M14.73,6.94c.46-.46.82-.24.91-.17-.06,0-.11,0-.14,0l.05.07a.67.67,0,0,0-.15-.06l0,.06s-.09-.07-.11-.07a.2.2,0,0,1,0,.09l-.07,0s0,0,0,0A.42.42,0,0,0,15,7Z"/><path d="M15,7a.45.45,0,0,1,.3-.15h0A.47.47,0,0,0,15,7Zm-.25,0h0c.45-.45.81-.24.91-.17a.14.14,0,0,1-.11,0s0,.06,0,.06h0c-.07,0-.13-.06-.15,0s0,0,0,0,0,0-.06,0l-.05,0a.14.14,0,0,1,0,.08l-.07,0v0l.06,0a.16.16,0,0,0,0-.08s0,0,.06,0l0,0,0,0s.11,0,.16,0a.15.15,0,0,1-.05-.06h0a.15.15,0,0,0,.1,0,.68.68,0,0,0-.9.18Z"/><path class="cls-6" d="M14.85,7c0-.11.91-.29,1.09,0A.17.17,0,0,1,15.81,7v.07L15.7,7l0,.09L15.65,7v.07l-.12-.12,0,.07-.1,0V7Z"/><path d="M15.65,7.05l-.12-.12,0,.07-.1,0,0,0,0,0,.11,0,0-.06.12.12V7l.1.07L15.69,7l.12.08V7a.22.22,0,0,0,.12,0h0c-.1-.15-.38-.16-.54-.16a1.1,1.1,0,0,0-.55.15h0c0-.07.31-.14.56-.16s.45,0,.54.17a.12.12,0,0,1-.14,0l0,.07L15.69,7l.05.09L15.64,7v.07Z"/><path class="cls-6" d="M14.89,7a.76.76,0,0,1,.56,0c.22.12.34.1.37.33l-.08-.08,0,.09,0-.13,0,.1-.06-.16v.11l-.08-.11,0,0,0-.08,0,0s-.06,0-.09,0l-.06-.07,0,.05L15.17,7l0,0-.06,0v0h-.19Z"/><path d="M15.7,7.33l0-.13,0,.1-.06-.16v.11l-.09-.11,0,0,0-.09,0,0H15.3l-.07-.07v.05l-.07-.06v0h0V7l.07.06v0l.07.07s.09,0,.09,0l0-.06,0,.09,0,0,.09.12V7.14l.06.16,0-.1,0,.13,0-.09.08.08c0-.17-.09-.2-.22-.25L15.45,7a.74.74,0,0,0-.56,0h0a.8.8,0,0,1,.58,0l.14.07a.29.29,0,0,1,.23.26s-.09-.07-.09-.08l0,.09Z"/><path class="cls-6" d="M14.94,7.06a1.2,1.2,0,0,1,.71.35l-.07,0,0,.07,0-.07v0s0,0-.07,0V7.36l0,.06,0-.07s0,.07,0,.07,0-.13-.07-.13v.08l0-.08,0,.06V7.26l0,.07s0-.07,0-.08l-.05,0-.2-.14Z"/><path d="M15.56,7.44l0-.07v0l0,0a0,0,0,0,0,0,0l0-.06v.06l0-.07s0,.07,0,.07a.49.49,0,0,0-.08-.13v.08l0-.08v.06l0-.09,0,.07s0-.07,0-.08l0,0-.2-.14.2.13,0,0s0,.07,0,.08l0-.07,0,.09V7.28l0,.09V7.29s.07.11.08.13l0-.07,0,.07V7.35l0,.07s0,0,0,0l0,0v0l0,.07V7.37s0,0,.09,0a1.32,1.32,0,0,0-.72-.33h0a1.21,1.21,0,0,1,.72.34l-.08,0,0,.06Z"/><path class="cls-6" d="M14.91,7.1a.66.66,0,0,1,.37.49c-.09-.12-.07-.1-.11,0s0-.12,0-.13l0,.09V7.46h0V7.4l0,0s0-.06,0-.09.05,0,0-.09l0,0s0,0,0-.06l-.14-.05Z"/><path d="M15.18,7.62s0-.12,0-.13l0,.09h0V7.49s0,.11,0,.13V7.56a.1.1,0,0,1,0-.06s0,0,.07.07a.67.67,0,0,0-.38-.46h0a.67.67,0,0,1,.38.49l-.08-.08h0l0,.06v0ZM15,7.43s0-.06,0-.09,0,0,0-.09l0,0s0,0,0-.06l-.15-.05.15,0a.11.11,0,0,1,0,.07l0,0s0,.07,0,.08a.1.1,0,0,1,0,.09l0,0h0l0,0Z"/><path class="cls-6" d="M14.89,7.12l.07.15h0l.09.07h-.07a.24.24,0,0,1,.13.16l-.12,0a.47.47,0,0,1,.11.16L15,7.55a.26.26,0,0,1,.05.18L15,7.68a.28.28,0,0,1-.05.24s0-.15,0-.17l-.13.13.07-.19s-.08.12-.13.11l.1-.16-.1.09.12-.18-.11,0s.08-.09.07-.16l-.08.08a.68.68,0,0,0,0-.12h0l.07-.08h-.05V7.24h0V7.17Z"/><path d="M15,7.92c0-.06,0-.16,0-.17l-.12.14.06-.19s-.08.12-.12.11l.1-.17-.1.09.11-.18-.1,0s.07-.11.06-.17l-.06.09s0-.1,0-.12h0l.07-.1h-.05V7.24h0v0h0V7.3h0l-.07.1,0,0s0,.12,0,.13l.07-.09c0,.07-.07.16-.07.17l.1,0-.11.18.1-.09-.1.16h0s.1-.08.12-.11h0l-.06.19.12-.15s0,.16,0,.18A.32.32,0,0,0,15,7.68l.06.05A.26.26,0,0,0,15,7.56h0l.06,0A.64.64,0,0,0,15,7.45h0l.12,0a.21.21,0,0,0-.13-.15H15l-.09-.06,0,0-.08-.14h0l.08.15,0,0,.09.06H15a.18.18,0,0,1,.12.15l-.12,0a.31.31,0,0,1,.12.15l-.06,0a.3.3,0,0,1,.05.16L15,7.68a.23.23,0,0,1-.05.24Zm0-.17a.52.52,0,0,1-.06-.23.54.54,0,0,0-.09-.35h0a.57.57,0,0,1,.09.36.78.78,0,0,0,0,.23Z"/><path class="cls-8" d="M15.52,10.24s0,0,0,0-.06,0-.07,0-.06,0-.08,0a.08.08,0,0,0-.12,0,.08.08,0,0,0-.1,0,.07.07,0,0,0-.11,0s0,0,0,0-.08,0-.1,0,0,0-.06,0-.05,0-.05,0l0,0s0,0,0,0,0,0,.05,0,.06,0,.06,0a.05.05,0,0,0,.08,0h0s.09,0,.1,0h0a.06.06,0,0,0,.09,0,.09.09,0,0,0,.11,0s.08,0,.09,0,.07,0,.07,0,0,0,0,0Zm-.1,0s0,0,0,0a0,0,0,0,0,0,0h-.05Zm-.11,0,0,0,0,0,0,0,0,0Zm-.21,0,0,0s0,0,0,0,0,0,0,0l0,0Zm.12,0,0,0s0,0,0,0a0,0,0,0,0,0,0s0,0,0,0Zm-.24,0,0,0,0,0,0,0,0,0Zm.07,0h0Zm-.14,0,0,0s0,0,0,0,0,0,0,0l0,0Z"/><path d="M14.87,10.31h0l0,0,0,0,0,0h0l0,0,0,0h0l0,0,0,0,0,0h0s0,0,0,0h.06a.06.06,0,0,0,.09,0h0s-.09.05-.12,0h0a0,0,0,0,1-.08,0s0,0,0,0h0l0,0s0,0,0,0Zm.58,0-.06,0s-.05,0-.1,0,0,.06-.09,0,.08,0,.09,0,.07,0,.11,0,.08,0,.09,0h0l0,0,0,0h0l0,0s-.06,0-.07,0,0,0,0,0Zm-.36-.05h0l0,0h0c0-.05-.07,0-.08,0h-.07l0,0c.06,0,.1,0,.12,0s.1,0,.14,0a.07.07,0,0,1,.1,0,.07.07,0,0,1,.12,0l0,0,0,0s0,0,.06,0v0l0,0,0,0,0,0c0-.05-.07-.05-.11,0a.08.08,0,0,0-.1,0s-.07,0-.1,0h0l0,0Z"/><path class="cls-8" d="M14.79,9.57s.07-.59.07-.84,0-.64,0-.64h-.2s0,.44,0,.64.07.84.07.84Z"/><path d="M14.79,9.57h-.14s-.07-.59-.07-.84,0-.63,0-.64h.21s0,.44,0,.64-.07.83-.07.84ZM14.61,8.1s0,.43,0,.63.07.83.07.84h.12c0-.05.07-.59.07-.83s0-.63,0-.64Z"/><polygon class="cls-8" points="14.59 8.12 14.83 8.12 14.8 7.96 14.63 7.96 14.59 8.12"/><path d="M14.83,8.12h-.24l0-.16h.17l0,.16Zm0-.16h-.16l0,.15h.22l0-.15Z"/><polygon class="cls-8" points="14.61 7.99 14.82 7.99 14.78 7.84 14.65 7.84 14.61 7.99"/><path d="M14.82,8h-.21l0-.17h.14l0,.17Zm-.05-.16h-.12l0,.16h.2l0-.15Z"/><polygon class="cls-8" points="14.62 7.87 14.8 7.87 14.77 7.71 14.66 7.71 14.62 7.87"/><path d="M14.8,7.87h-.18l0-.16h.12l0,.17Zm0-.16h-.1l0,.16h.16l0-.15Z"/><polygon class="cls-8" points="14.77 7.69 14.65 7.69 14.64 7.75 14.78 7.75 14.77 7.69"/><path d="M14.83,9.21h0Zm0-.12h0Zm0-.13h0Zm0-.12h0Zm0-.1h0Zm0-.13h0Zm0-.12h0Zm0-.13h0Zm0-.12h0Z"/><path class="cls-10" d="M14.72,9.52c-.15,0-.27.06-.27.12s0,0,0,0a.49.49,0,0,0,.26.06A.36.36,0,0,0,15,9.68a.05.05,0,0,0,0,0c0-.06-.12-.12-.27-.12Z"/><path class="cls-12" d="M14.72,9.75a.38.38,0,0,1-.26-.07v0c0-.07.12-.13.27-.13s.28.06.28.13,0,0,0,0a.41.41,0,0,1-.26.06Zm0-.22c-.14,0-.26.05-.26.11s.43.11.51,0,0,0,0,0-.12-.11-.26-.11Z"/><path class="cls-8" d="M15,9.65v.42s-.12.09-.27.09-.27,0-.27-.09V9.65s.12.09.27.09.27,0,.27-.09Z"/><path d="M14.72,10.16c-.15,0-.27,0-.27-.09V9.65s.11.09.27.09.27-.05.27-.09h0v.41s-.12.09-.28.09Zm-.27-.51v.42s.1.08.26.08.27,0,.27-.08v-.4s-.13.08-.27.08-.27,0-.27-.1Z"/><path class="cls-11" d="M14.45,9.65v.07l.13.4.11-.31.11.32.09-.3.1.2V9.92l-.1-.2h0L14.8,10l-.09-.21h0l-.08.21-.1-.25s0,0,0,0Z"/><path class="cls-13" d="M14.8,10.15l-.12-.34-.09.31-.14-.4V9.65h0l0,0,.1.26.08-.21h0l.09.21,0-.22h0l.11.2V10l-.12-.2-.08.32Zm-.35-.48v.05l.13.4.09-.31.12.31.08-.29L15,10V9.92l-.1-.2h0L14.8,10l-.09-.22h0l-.08.21-.11-.26,0,0Z"/><path class="cls-10" d="M15,10v.08s-.12.09-.27.09-.27,0-.27-.09V10s.12.09.27.09S15,10,15,10Z"/><path class="cls-12" d="M14.72,10.16c-.15,0-.27,0-.27-.09V10s.11.08.27.08S15,10,15,10h0v.07s-.12.09-.28.09ZM14.45,10v.07s.1.08.26.08.27,0,.27-.08V10c0,.05-.13.08-.27.08s-.26,0-.27-.08Z"/><path class="cls-8" d="M14.83,10.07h-.07v.08h.07Z"/><path class="cls-1" d="M14.83,10.07h-.07v.08h.07Z"/><path class="cls-8" d="M14.55,10.06v.08h.07v-.08Z"/><path class="cls-1" d="M14.55,10.06v.08h.07v-.08Z"/><path class="cls-8" d="M14.45,10v.08a.05.05,0,0,0,0,0V10s0,0,0,0Z"/><path class="cls-1" d="M14.45,10v.08a.05.05,0,0,0,0,0V10S14.45,10,14.45,10Z"/><path class="cls-8" d="M15,10h0s0,0-.05,0v.08s.05,0,.05,0Z"/><path d="M14.72,10.16c-.15,0-.27,0-.27-.09v0s.1.08.26.08a.41.41,0,0,0,.22,0V10A.11.11,0,0,0,15,10h0V9.66h0v.41h0l0,0a.54.54,0,0,1-.26.05Z"/><path class="cls-9" d="M14.93,9.63s-.09,0-.21,0-.21,0-.21,0,.1-.06.21-.06.21,0,.21.06Z"/><path class="cls-5" d="M14.72,9.68c-.1,0-.21,0-.21,0s.42-.08.42,0-.1,0-.21,0Zm0-.1c-.12,0-.2,0-.2.05s.08,0,.2,0,.21,0,.21,0-.09-.05-.21-.05Z"/><path class="cls-8" d="M14.65,9.67v.07h.06V9.67Z"/><path class="cls-1" d="M14.65,9.67v.07h.06V9.67Z"/><path class="cls-8" d="M14.9,9.65h-.06v.07h.05Z"/><path class="cls-1" d="M14.9,9.65h-.06v.07h.05Z"/><path class="cls-8" d="M14.58,9.54h-.05v.06h0Z"/><path class="cls-1" d="M14.58,9.54h-.05v.06h0Z"/><path class="cls-8" d="M14.72,9.51h0v.07h0V9.51Z"/><path class="cls-1" d="M14.72,9.51h0v.07h0V9.51Z"/><path class="cls-8" d="M14.88,9.54V9.6h0V9.55Z"/><path class="cls-1" d="M14.88,9.54V9.6h0V9.55Z"/><polygon class="cls-8" points="14.49 9.7 14.51 9.63 14.45 9.6 14.45 9.68 14.49 9.7"/><polygon class="cls-1" points="14.49 9.7 14.51 9.63 14.45 9.6 14.45 9.68 14.49 9.7"/><polygon class="cls-8" points="14.99 9.69 14.99 9.61 14.94 9.63 14.99 9.69"/><polygon class="cls-1" points="14.99 9.69 14.99 9.61 14.94 9.63 14.99 9.69"/><path class="cls-6" d="M14.06,9.2a.15.15,0,0,0-.12,0c-.06,0-.11,0-.12,0v0s.06-.07.13-.07.12,0,.12.07v0Z"/><path class="cls-5" d="M14.05,9.2s-.2,0-.22,0a0,0,0,0,1,0,0s.19,0,.23,0h0c0-.07-.2-.08-.23,0,0-.09.25-.06.25,0h0Z"/><path class="cls-6" d="M14,9.29c0,.07,0,.13-.1.13a.12.12,0,0,1-.11-.13V9.21H14Z"/><path class="cls-5" d="M13.94,9.43a.13.13,0,0,1-.12-.14V9.21H14v.09a.13.13,0,0,1-.11.14Zm.1-.22h-.21v.07c0,.07,0,.13.1.13a.12.12,0,0,0,.1-.13V9.21Z"/><path class="cls-9" d="M14,9.19s0,.05-.1.05-.11,0-.11-.05.05-.06.11-.06.1,0,.1.06Z"/><polygon class="cls-6" points="13.91 9.25 13.89 9.05 13.98 9.05 13.96 9.25 13.91 9.25"/><polygon class="cls-15" points="13.97 9.25 13.91 9.25 13.89 9.05 13.98 9.05 13.97 9.25 13.97 9.25"/><path class="cls-6" d="M14.06,9.19a.15.15,0,0,1-.12.05.14.14,0,0,1-.12-.05s0,0,0,0,.06.07.13.07.12,0,.12-.07v0Z"/><path class="cls-5" d="M13.94,9.29c-.08,0-.13,0-.13-.08h0c0,.08.21.07.23,0s-.05.07-.11.07Zm0,0a.35.35,0,0,1-.11,0c.07,0,.19,0,.22,0v0a.14.14,0,0,1-.11,0Z"/><polygon class="cls-8" points="13.85 9.59 14.07 9.61 14.1 9.42 13.85 9.4 13.85 9.59"/><polygon points="14.07 9.61 13.85 9.6 13.86 9.59 14.07 9.61 14.1 9.42 13.85 9.4 14.1 9.42 14.07 9.61 14.07 9.61"/><polygon class="cls-8" points="13.91 9.39 13.88 9.61 13.94 9.61 13.97 9.39 13.91 9.39"/><polygon points="13.87 9.62 13.9 9.39 13.97 9.38 13.95 9.61 13.87 9.62 13.87 9.62"/><path class="cls-8" d="M15.54,9.18a.15.15,0,0,1,.12.15c0,.06-.1.06-.1.06s-.06,0-.11,0,0-.08,0-.08a.23.23,0,0,1,0-.16Z"/><path d="M15.46,9.45h0a.13.13,0,0,0,.11,0,.15.15,0,0,0,.09,0,.19.19,0,0,0-.05-.15l-.06,0h-.06a.28.28,0,0,0,0,.15h0a.21.21,0,0,0,0,.07.31.31,0,0,1,0-.07.23.23,0,0,1,0-.16l.07,0,.07,0a.17.17,0,0,1,.06.12l0,0a.13.13,0,0,1-.09,0s-.06,0-.1,0Z"/><path class="cls-11" d="M15.56,9.23a0,0,0,0,0,0-.08h-.06s-.09,0-.08.06,0,0,0,0l.05,0s.05,0,.06,0Z"/><path class="cls-15" d="M15.44,9.25a0,0,0,0,1,0,0c0-.05,0-.07.08-.07h.06a0,0,0,0,1,0,0,.07.07,0,0,1,0,.06h-.05l-.08,0Zm.1-.1h-.06a.13.13,0,0,0-.07,0s0,.05,0,.05h0l.06,0,.06,0s0,0,0-.05a0,0,0,0,0,0,0Z"/><path class="cls-10" d="M14.73,6.77c-.05,0-.14-.08-.11-.11l0-.07c.06-.14,0-.09,0-.13s.23,0,.24.08a.41.41,0,0,0,0,.16l0,.08a.16.16,0,0,1-.1,0Z"/><path class="cls-12" d="M14.8,6.79l-.08,0s-.1,0-.11-.09l.05-.1c0-.08,0-.09,0-.09l0,0s.24,0,.24.09a.58.58,0,0,0,0,.16l-.05.09Zm-.1-.34h0s.05,0,0,.13l-.05.07s.08.09.11.1l.07,0h0l0-.08c0-.1,0-.13,0-.14s-.12-.11-.18-.11Z"/><polygon class="cls-8" points="14.75 7.12 14.7 7.07 14.71 6.65 14.77 6.67 14.75 7.12"/><path d="M14.76,7.13l-.07-.06,0-.42h.06v.47Zm0-.48v.42l.05,0V6.67l0,0Z"/><path class="cls-11" d="M14.83,6.78a.1.1,0,0,0,0-.12c-.06-.08-.1,0-.2-.08s-.06.06-.05.09.08,0,.12,0,0,0,.09.09Z"/><path class="cls-13" d="M14.83,6.79l0,0s0,0,0,0h0l-.09,0s0-.07.05-.1h.1a.14.14,0,0,1,.11.07s0,0,0,.06a.18.18,0,0,1-.05.07Zm-.09-.11.06.06,0,0a.1.1,0,0,0,0,0,.13.13,0,0,0,0-.06s-.06,0-.11-.06a.13.13,0,0,1-.08,0s-.06.07-.05.09l.08,0,0,0Z"/><path class="cls-8" d="M12.62,10.06s0,0,0,.08l-.44.15s.07-.11.07-.11a.14.14,0,0,1,0,.05.21.21,0,0,1,.1-.15.43.43,0,0,0-.24.08h.07s-.13.14-.13.18.23.07.23.07l-.06.06a.35.35,0,0,0,.26-.08.4.4,0,0,1-.18-.07.11.11,0,0,1,0,.06s-.12,0-.13-.06l.43-.12a.06.06,0,0,0,.07.06s0,0,0-.08h0a0,0,0,0,0,0,0,0,0,0,0,0,0-.05s0,0,0,0,0-.08-.05-.07Zm.12.09s0,0,0,0l0,0,0,0s0,0,0,0Z"/><path d="M12.27,10.48h0l.06-.06s-.22,0-.24-.07a1.51,1.51,0,0,1,.09-.14,1.15,1.15,0,0,0-.08.14.68.68,0,0,0,.24.07s-.05.05-.07.06h0a.4.4,0,0,0,.21-.08.37.37,0,0,1-.17-.06.07.07,0,0,1,0,.05.47.47,0,0,1-.15-.06l.13,0,.31-.08s0,.06.06.06,0,0,0-.08.07,0,.07,0a0,0,0,0,0-.07,0c0-.05,0-.08,0-.08s0,.06,0,.08l-.24.08-.2.07s.05-.11.06-.12a.07.07,0,0,1,0,.06.17.17,0,0,1,.09-.15s-.08.07-.09.15,0,0,0-.05l-.06.1.2-.07.23-.07a.09.09,0,0,1,0-.07l0,0h0s.05,0,.06.08.08,0,.08,0a0,0,0,0,1,0,0l0,0s0,.08,0,.09h0a.09.09,0,0,1-.08-.07l-.29.09-.13,0,.13,0s0,0,0,0h0a.33.33,0,0,0,.18.06.32.32,0,0,1-.22.1Zm-.15-.32a.41.41,0,0,1,.23-.09h0a.93.93,0,0,0-.22.08h0Z"/><path class="cls-8" d="M17.27,10.24a.45.45,0,0,0,0-.13s-.05,0-.05,0a.4.4,0,0,0-.05-.24.83.83,0,0,1,.24.21l-.09,0c0,.09.07.13.09.18s-.1,0-.09.1h-.06s0-.07,0-.07l-.46-.19s-.1,0-.09-.08.12,0,.15,0Z"/><path d="M17.24,10.39h0s0-.08,0-.08l-.45-.19s-.1,0-.09-.08h0s0,.06.06.08l.46.19s0,0,0,.08h.06c0-.09.09-.11.09-.11l0,0a.23.23,0,0,1-.07-.13l.1,0a1.25,1.25,0,0,0-.24-.21.45.45,0,0,1,.06.22,0,0,0,0,1,0,0,.33.33,0,0,1,0,.14l-.41-.17-.12,0,.1,0,.43.18a1,1,0,0,0,0-.12s0,0,0,0h0a.55.55,0,0,0-.06-.23.75.75,0,0,1,.25.21l-.09,0a.27.27,0,0,0,.07.13l0,0s-.1,0-.09.11Z"/><path class="cls-8" d="M16.83,10.16l.05-.1s0-.06,0,0l-.06.09s0,.06,0,0Z"/><path d="M16.8,10.18h0s0,0,0,0l.06-.1h0l0,0-.06.1,0,0Z"/><polygon class="cls-9" points="13.63 10.38 13.63 10.28 13.5 10.28 13.49 10.4 13.63 10.38"/><path d="M13.49,10.41v-.13h.14v.11l-.15,0Zm.13-.13H13.5v.1h.13v-.1Z"/><path class="cls-9" d="M12.68,10.53l-.17-.09a1.94,1.94,0,0,0,1-.2c.1,0,.12.12-.09.06l0,.13a1.61,1.61,0,0,1-1,.17Z"/><path d="M12.76,10.63a1.09,1.09,0,0,1-.26,0l.18-.07-.17-.09h.23a1.18,1.18,0,0,0,.64-.15l.16-.06h0s.08,0,.08,0-.06.05-.17,0l.06.13a1.83,1.83,0,0,1-.76.2Zm-.25-.19.17.09-.17.07.25,0a1.56,1.56,0,0,0,.75-.2l0-.12c.11,0,.16,0,.16,0s0,0-.06,0a.58.58,0,0,0-.17.06,1.39,1.39,0,0,1-.88.14Z"/><polygon class="cls-9" points="15.81 10.38 15.81 10.28 15.97 10.28 15.98 10.4 15.81 10.38"/><path d="M16,10.4h-.17v-.11H16v.13Zm0-.12h-.15v.1H16v-.11Z"/><path class="cls-9" d="M16.79,10.51l.16-.09c-.82,0-.63-.14-1-.18-.11,0-.19.12.08.06l-.05.13h.13a1.23,1.23,0,0,0,.9.14Z"/><path d="M16.7,10.61h0a1.2,1.2,0,0,1-.64-.18h-.12l.05-.14-.12,0s-.07,0-.07,0,0-.06.09-.06a.77.77,0,0,1,.32.09,1.36,1.36,0,0,0,.74.09l-.16.1.19.06a.9.9,0,0,1-.28,0Zm-.63-.19a1.27,1.27,0,0,0,.9.15l-.18-.06.16-.1-.16,0a1.12,1.12,0,0,1-.59-.1.7.7,0,0,0-.29-.09c-.06,0-.1,0-.1,0s0,0,.06,0l.12,0-.05.14Z"/><path class="cls-9" d="M13.46,10.3v.18a3.92,3.92,0,0,0,1.27.17A3.89,3.89,0,0,0,16,10.48V10.3a3.33,3.33,0,0,1-1.26.16,3.43,3.43,0,0,1-1.27-.16Z"/><path d="M14.73,10.66a4,4,0,0,1-1.27-.17V10.3a3.82,3.82,0,0,0,1.28.15A3.4,3.4,0,0,0,16,10.29v.19a3.63,3.63,0,0,1-1.27.18Zm-1.27-.18a4.15,4.15,0,0,0,1.27.17A4,4,0,0,0,16,10.48V10.3a3.19,3.19,0,0,1-1.26.16,3.5,3.5,0,0,1-1.27-.16v.18Z"/><path d="M13.53,10.48l0-.13h0l0,.12.07,0v0Zm.13-.06v0h0v0Zm.19,0h0v.08l0,0,0,0h-.06l0,0v0l0-.08h0l0,.08v0h.06l0,0Zm0,.14,0-.14h0l.06.12,0-.11h0l0,.14h0l-.06-.12,0,.11Zm.15,0,0-.14h0l0,.14Zm.05-.07a.05.05,0,0,1,0,0,0,0,0,0,1,.05,0h0l0,0v0s0,0,0,0l0,0h-.07l0,0s0,0,0,0Zm0,0a.06.06,0,0,0,0,0l0,0h0a.08.08,0,0,0,0,0v0l0,0h-.06a.06.06,0,0,0,0,0Zm.14.08v-.14h0l.07.12v-.11h0v.14h0l-.07-.12v.11Zm.2,0v-.14h0v0h0v.06Zm.11,0,.06-.14h0l.06.14h0l0,0h-.06l0,0Zm0-.06h.05v0a0,0,0,0,1,0,0v0Zm.12.06v-.14h0v.14Zm.09,0v-.12h-.05v0h.07v.12Zm.14,0v-.14h0v.13h0Zm.1,0,.05-.14h0l.07.13h0l0,0h-.06v0Zm0-.06h.05l0,0a0,0,0,0,1,0,0v.07Zm.17,0,0-.14h0v0h0v.06Zm.11-.08a.06.06,0,0,1,0-.06.05.05,0,0,1,.05,0h0s0,0,0,0l0,0s0,0,0,0,0,0,0,0l0,0h0l0,0a0,0,0,0,1,0,0Zm0,0a.05.05,0,0,0,0,0h0l0,0s0,0,0,0a0,0,0,0,1,0,0l0,0h0l0,0s0,0,0,0Zm.15.05,0-.14h.11v0a0,0,0,0,1,0,0h0l0,0,0,0h0l0,0,0,0h-.05v.06Zm0-.08h.07v0h-.08Zm.23,0h0a.05.05,0,0,1,0,0l0,0h0l0,0a0,0,0,0,1,0,0s0,0,0,0,0,0,0,0l0,0h0l0,0h0l0,0h-.05v.05l0,0,0,0h0l0,0s0,0,0,0Zm.05,0,0-.13.1,0v0l-.08,0v0l.08,0h0l-.08,0,0,0,.08,0h0Z"/></g></g></g></g></g></g></svg>