<svg xmlns="http://www.w3.org/2000/svg" xmlns:xlink="http://www.w3.org/1999/xlink" viewBox="0 0 29.46 17.19"><defs><style>.cls-1{fill:none;}.cls-2{clip-path:url(#clip-path);}.cls-3{fill:#fff;}.cls-4{fill:#49a044;}.cls-5{fill:#c7001b;}</style><clipPath id="clip-path"><rect class="cls-1" width="29.46" height="17.19"/></clipPath></defs><g id="Layer_2" data-name="Layer 2"><g id="cá»"><g id="south_asia" data-name="south asia"><g class="cls-2"><rect class="cls-3" width="29.46" height="17.19"/><rect class="cls-4" width="29.46" height="5.74"/><rect class="cls-5" y="11.45" width="29.46" height="5.74"/><polygon class="cls-5" points="14.73 6.52 14.42 6.78 14.48 10.84 14.73 11.13 14.98 10.84 15.04 6.78 14.73 6.52"/><g class="cls-2"><path class="cls-5" d="M15.36,6.09a.43.43,0,0,1-.6.14l0,0a.43.43,0,0,1-.6-.08.05.05,0,0,1,0,0,.37.37,0,0,0,.26.46.39.39,0,0,0,.36-.1.39.39,0,0,0,.53,0,.39.39,0,0,0,.1-.36"/><path class="cls-5" d="M15.51,6.66a2.53,2.53,0,0,1-2.34,4,2.35,2.35,0,0,0,2.34-4"/><path class="cls-5" d="M14,6.66a2.53,2.53,0,0,0,.55,3.55,2.49,2.49,0,0,0,1.79.47,2.35,2.35,0,0,1-2.34-4"/><path class="cls-5" d="M15.8,6.58a2.53,2.53,0,0,1,.56,3.55,1,1,0,0,1-.13.16,2,2,0,0,0-.43-3.71"/><path class="cls-5" d="M13.66,6.58a2.53,2.53,0,0,0-.56,3.55,1,1,0,0,0,.13.16,2,2,0,0,1-.82-2.72,2.06,2.06,0,0,1,1.25-1"/><path class="cls-3" d="M.07,5.47H.2V5.2H.6v.27h.67V5.06H.87V5.2h.27v.13H.74V5.06H.07Zm.26,0H.47V5.33H.33ZM.07,4.92H1.81V4.79H.07Zm1.74.55h-.4V5.06h.53V4.79h.14v.54h.13V4.79h.13v.54h.14V4.79h.13v.68H1.94V5.2h-.4v.13h.27Z"/><path class="cls-3" d="M2.74,5.47h.14V5.2h.4v.27H4V5.06h-.4V5.2h.27v.13H3.41V5.06H2.74Zm.27,0h.14V5.33H3Zm-.27-.55H4.49V4.79H2.74Zm1.75.55H4.08V5.06h.54V4.79h.13v.54h.14V4.79H5v.54h.14V4.79h.13v.68H4.62V5.2h-.4v.13h.27Z"/><path class="cls-3" d="M5.42,5.47h.14V5.2H6v.27h.67V5.06h-.4V5.2H6.5v.13H6.09V5.06H5.42Zm.27,0h.14V5.33H5.69Zm-.27-.55H7.16V4.79H5.42Zm1.74.55h-.4V5.06H7.3V4.79h.13v.54h.14V4.79H7.7v.54h.13V4.79H8v.68H7.3V5.2H6.9v.13h.26Z"/><path class="cls-3" d="M8.1,5.47h.14V5.2h.4v.27h.67V5.06H8.9V5.2h.27v.13h-.4V5.06H8.1Zm.27,0H8.5V5.33H8.37ZM8.1,4.92H9.84V4.79H8.1Zm1.74.55h-.4V5.06H10V4.79h.13v.54h.13V4.79h.14v.54h.13V4.79h.14v.68H10V5.2H9.57v.13h.27Z"/><path class="cls-3" d="M10.78,5.47h.13V5.2h.41v.27H12V5.06h-.41V5.2h.27v.13h-.4V5.06h-.67Zm.27,0h.13V5.33h-.13Zm-.27-.55h1.74V4.79H10.78Zm1.74.55h-.4V5.06h.54V4.79h.13v.54h.13V4.79h.14v.54h.13V4.79h.13v.68h-.66V5.2h-.41v.13h.27Z"/><path class="cls-3" d="M13.46,5.47h.13V5.2H14v.27h.67V5.06h-.4V5.2h.27v.13h-.4V5.06h-.67Zm.27,0h.13V5.33h-.13Zm-.27-.55H15.2V4.79H13.46Zm1.74.55h-.4V5.06h.53V4.79h.14v.54h.13V4.79h.13v.54h.14V4.79H16v.68h-.67V5.2h-.4v.13h.27Z"/><path class="cls-3" d="M16.14,5.47h.13V5.2h.4v.27h.67V5.06h-.4V5.2h.27v.13h-.4V5.06h-.67Zm.26,0h.14V5.33H16.4Zm-.26-.55h1.74V4.79H16.14Zm1.74.55h-.4V5.06H18V4.79h.14v.54h.13V4.79h.13v.54h.14V4.79h.13v.68H18V5.2h-.4v.13h.27Z"/><path class="cls-3" d="M18.82,5.47H19V5.2h.4v.27H20V5.06h-.4V5.2h.27v.13h-.41V5.06h-.66Zm.26,0h.14V5.33h-.14Zm-.26-.55h1.74V4.79H18.82Zm1.74.55h-.41V5.06h.54V4.79h.13v.54H21V4.79h.13v.54h.14V4.79h.13v.68h-.67V5.2h-.4v.13h.27Z"/><path class="cls-3" d="M21.49,5.47h.14V5.2H22v.27h.67V5.06h-.4V5.2h.27v.13h-.41V5.06h-.67Zm.27,0h.14V5.33h-.14Zm-.27-.55h1.74V4.79H21.49Zm1.74.55h-.4V5.06h.54V4.79h.13v.54h.14V4.79h.13v.54h.13V4.79H24v.68h-.67V5.2H23v.13h.26Z"/><path class="cls-3" d="M24.17,5.47h.14V5.2h.4v.27h.67V5.06H25V5.2h.26v.13h-.4V5.06h-.67Zm.27,0h.13V5.33h-.13Zm-.27-.55h1.74V4.79H24.17Zm1.74.55h-.4V5.06h.54V4.79h.13v.54h.13V4.79h.14v.54h.13V4.79h.14v.68h-.67V5.2h-.4v.13h.26Z"/><path class="cls-3" d="M26.85,5.47H27V5.2h.41v.27h.67V5.06h-.41V5.2h.27v.13h-.4V5.06h-.67Zm.27,0h.13V5.33h-.13Zm-.27-.55h1.74V4.79H26.85Zm1.74.55h-.4V5.06h.54V4.79h.13v.54H29V4.79h.14v.54h.13V4.79h.14v.68h-.67V5.2h-.41v.13h.27Z"/><path class="cls-3" d="M.07,5.88h1.2V5.61H.07Zm1.34,0h1.2V5.61H1.41Z"/><path class="cls-3" d="M2.74,5.88H4V5.61H2.74Zm1.34,0H5.29V5.61H4.08Z"/><path class="cls-3" d="M5.42,5.88H6.63V5.61H5.42Zm1.34,0H8V5.61H6.76Z"/><path class="cls-3" d="M8.1,5.88H9.31V5.61H8.1Zm1.34,0h1.21V5.61H9.44Z"/><path class="cls-3" d="M10.78,5.88H12V5.61H10.78Zm1.34,0h1.2V5.61h-1.2Z"/><path class="cls-3" d="M13.46,5.88h1.2V5.61h-1.2Zm1.34,0H16V5.61H14.8Z"/><path class="cls-3" d="M16.14,5.88h1.2V5.61h-1.2Zm1.34,0h1.2V5.61h-1.2Z"/><path class="cls-3" d="M18.82,5.88H20V5.61h-1.2Zm1.33,0h1.21V5.61H20.15Z"/><path class="cls-3" d="M21.49,5.88H22.7V5.61H21.49Zm1.34,0H24V5.61H22.83Z"/><path class="cls-3" d="M24.17,5.88h1.21V5.61H24.17Zm1.34,0h1.21V5.61H25.51Z"/><path class="cls-3" d="M26.85,5.88h1.21V5.61H26.85Zm1.34,0H29.4V5.61H28.19Z"/><path class="cls-3" d="M.07,12.4H.2v-.27H.6v.27h.67V12H.87v.14h.27v.14H.74V12H.07Zm.26,0H.47v-.13H.33Zm-.26-.54H1.81v-.14H.07Zm1.74.54h-.4V12h.53v-.27h.14v.55h.13v-.55h.13v.55h.14v-.55h.13v.68H1.94v-.27h-.4v.14h.27Z"/><path class="cls-3" d="M2.74,12.4h.14v-.27h.4v.27H4V12h-.4v.14h.27v.14H3.41V12H2.74Zm.27,0h.14v-.13H3Zm-.27-.54H4.49v-.14H2.74Zm1.75.54H4.08V12h.54v-.27h.13v.55h.14v-.55H5v.55h.14v-.55h.13v.68H4.62v-.27h-.4v.14h.27Z"/><path class="cls-3" d="M5.42,12.4h.14v-.27H6v.27h.67V12h-.4v.14H6.5v.14H6.09V12H5.42Zm.27,0h.14v-.13H5.69Zm-.27-.54H7.16v-.14H5.42Zm1.74.54h-.4V12H7.3v-.27h.13v.55h.14v-.55H7.7v.55h.13v-.55H8v.68H7.3v-.27H6.9v.14h.26Z"/><path class="cls-3" d="M8.1,12.4h.14v-.27h.4v.27h.67V12H8.9v.14h.27v.14h-.4V12H8.1Zm.27,0H8.5v-.13H8.37Zm-.27-.54H9.84v-.14H8.1Zm1.74.54h-.4V12H10v-.27h.13v.55h.13v-.55h.14v.55h.13v-.55h.14v.68H10v-.27H9.57v.14h.27Z"/><path class="cls-3" d="M10.78,12.4h.13v-.27h.41v.27H12V12h-.41v.14h.27v.14h-.4V12h-.67Zm.27,0h.13v-.13h-.13Zm-.27-.54h1.74v-.14H10.78Zm1.74.54h-.4V12h.54v-.27h.13v.55h.13v-.55h.14v.55h.13v-.55h.13v.68h-.66v-.27h-.41v.14h.27Z"/><path class="cls-3" d="M13.46,12.4h.13v-.27H14v.27h.67V12h-.4v.14h.27v.14h-.4V12h-.67Zm.27,0h.13v-.13h-.13Zm-.27-.54H15.2v-.14H13.46Zm1.74.54h-.4V12h.53v-.27h.14v.55h.13v-.55h.13v.55h.14v-.55H16v.68h-.67v-.27h-.4v.14h.27Z"/><path class="cls-3" d="M16.14,12.4h.13v-.27h.4v.27h.67V12h-.4v.14h.27v.14h-.4V12h-.67Zm.26,0h.14v-.13H16.4Zm-.26-.54h1.74v-.14H16.14Zm1.74.54h-.4V12H18v-.27h.14v.55h.13v-.55h.13v.55h.14v-.55h.13v.68H18v-.27h-.4v.14h.27Z"/><path class="cls-3" d="M18.82,12.4H19v-.27h.4v.27H20V12h-.4v.14h.27v.14h-.41V12h-.66Zm.26,0h.14v-.13h-.14Zm-.26-.54h1.74v-.14H18.82Zm1.74.54h-.41V12h.54v-.27h.13v.55H21v-.55h.13v.55h.14v-.55h.13v.68h-.67v-.27h-.4v.14h.27Z"/><path class="cls-3" d="M21.49,12.4h.14v-.27H22v.27h.67V12h-.4v.14h.27v.14h-.41V12h-.67Zm.27,0h.14v-.13h-.14Zm-.27-.54h1.74v-.14H21.49Zm1.74.54h-.4V12h.54v-.27h.13v.55h.14v-.55h.13v.55h.13v-.55H24v.68h-.67v-.27H23v.14h.26Z"/><path class="cls-3" d="M24.17,12.4h.14v-.27h.4v.27h.67V12H25v.14h.26v.14h-.4V12h-.67Zm.27,0h.13v-.13h-.13Zm-.27-.54h1.74v-.14H24.17Zm1.74.54h-.4V12h.54v-.27h.13v.55h.13v-.55h.14v.55h.13v-.55h.14v.68h-.67v-.27h-.4v.14h.26Z"/><path class="cls-3" d="M26.85,12.4H27v-.27h.41v.27h.67V12h-.41v.14h.27v.14h-.4V12h-.67Zm.27,0h.13v-.13h-.13Zm-.27-.54h1.74v-.14H26.85Zm1.74.54h-.4V12h.54v-.27h.13v.55H29v-.55h.14v.55h.13v-.55h.14v.68h-.67v-.27h-.41v.14h.27Z"/><path class="cls-3" d="M.07,11.58h1.2v-.27H.07Zm1.34,0h1.2v-.27H1.41Z"/><path class="cls-3" d="M2.74,11.58H4v-.27H2.74Zm1.34,0H5.29v-.27H4.08Z"/><path class="cls-3" d="M5.42,11.58H6.63v-.27H5.42Zm1.34,0H8v-.27H6.76Z"/><path class="cls-3" d="M8.1,11.58H9.31v-.27H8.1Zm1.34,0h1.21v-.27H9.44Z"/><path class="cls-3" d="M10.78,11.58H12v-.27H10.78Zm1.34,0h1.2v-.27h-1.2Z"/><path class="cls-3" d="M13.46,11.58h1.2v-.27h-1.2Zm1.34,0H16v-.27H14.8Z"/><path class="cls-3" d="M16.14,11.58h1.2v-.27h-1.2Zm1.34,0h1.2v-.27h-1.2Z"/><path class="cls-3" d="M18.82,11.58H20v-.27h-1.2Zm1.33,0h1.21v-.27H20.15Z"/><path class="cls-3" d="M21.49,11.58H22.7v-.27H21.49Zm1.34,0H24v-.27H22.83Z"/><path class="cls-3" d="M24.17,11.58h1.21v-.27H24.17Zm1.34,0h1.21v-.27H25.51Z"/><path class="cls-3" d="M26.85,11.58h1.21v-.27H26.85Zm1.34,0H29.4v-.27H28.19Z"/></g></g></g></g></g></svg>