<svg xmlns="http://www.w3.org/2000/svg" xmlns:xlink="http://www.w3.org/1999/xlink" viewBox="0 0 29.46 17.19"><defs><style>.cls-1{fill:none;}.cls-2{clip-path:url(#clip-path);}.cls-3{fill:#4eaec4;}.cls-4{fill:#f5c832;}</style><clipPath id="clip-path"><rect class="cls-1" width="29.46" height="17.19"/></clipPath></defs><g id="Layer_2" data-name="Layer 2"><g id="cá»"><g id="central_asia" data-name="central asia"><g class="cls-2"><rect class="cls-3" width="29.46" height="17.19"/><g class="cls-2"><path class="cls-4" d="M1.94,12.12a.54.54,0,0,1,.55-.52.44.44,0,0,1,.5.45.78.78,0,0,1-.09.37L2.15,14a.37.37,0,0,0,0,.2.28.28,0,0,0,.55,0c0-.17-.09-.25-.18-.25s-.16.05-.16.13a.07.07,0,0,0,.07.08c.09,0,.07-.13.07-.13a.09.09,0,0,1,.06.12.06.06,0,1,1,0,.1c0,.08,0,.11-.07.13a.25.25,0,0,0,0-.08.2.2,0,0,1-.26-.2.27.27,0,0,1,.35-.28.17.17,0,0,1-.09-.14.23.23,0,0,0,.09,0,.24.24,0,0,1-.06-.18s.08.05.13,0a.33.33,0,0,1,.29-.45.53.53,0,0,0-.15.36c0,.4.11.46.11.74a.43.43,0,0,1-.17.33h0a.25.25,0,0,1,.15.11,1.14,1.14,0,0,1-.58,0A.4.4,0,0,1,2,14.4a.61.61,0,0,1,0-.49c.11-.22.61-1.28.76-1.61a.46.46,0,0,0,.06-.23.28.28,0,0,0-.3-.27.24.24,0,0,0-.25.21c0,.08,0,.13.1.13s.13-.12.1-.2.15.11.13.19a.19.19,0,0,1,.14.08.2.2,0,0,1-.14.08c0,.11,0,.16-.13.19s0-.19-.1-.19-.19,0-.24-.08c0,.09,0,.46,0,.46s.18.13.3.09c0,.16-.14.24-.35.22a.17.17,0,0,1,.1.17.43.43,0,0,1-.17.31Z"/><path class="cls-4" d="M2,12.12a.53.53,0,0,0-.55-.52.44.44,0,0,0-.5.45.78.78,0,0,0,.09.37L1.79,14a.37.37,0,0,1,0,.2.28.28,0,0,1-.55,0c0-.17.09-.25.18-.25s.16.05.16.13a.07.07,0,0,1-.07.08c-.09,0-.07-.13-.07-.13a.09.09,0,0,0-.06.12.06.06,0,1,0,0,.1c0,.08,0,.11.07.13a.25.25,0,0,1,0-.08.2.2,0,0,0,.26-.2.27.27,0,0,0-.35-.28.17.17,0,0,0,.09-.14.23.23,0,0,1-.09,0,.24.24,0,0,0,.06-.18s-.08.05-.13,0A.33.33,0,0,0,1,13.08a.53.53,0,0,1,.15.36c0,.4-.11.46-.11.74a.43.43,0,0,0,.17.33h0a.25.25,0,0,0-.15.11,1.14,1.14,0,0,0,.58,0A.4.4,0,0,0,2,14.4a.61.61,0,0,0,0-.49c-.11-.22-.61-1.28-.76-1.61a.46.46,0,0,1-.06-.23.28.28,0,0,1,.3-.27A.24.24,0,0,1,1.7,12c0,.08,0,.13-.1.13s-.13-.12-.1-.2-.15.11-.13.19a.19.19,0,0,0-.14.08.2.2,0,0,0,.14.08c0,.11,0,.16.13.19s0-.19.1-.19.19,0,.24-.08c0,.09,0,.46,0,.46s-.18.13-.3.09A.28.28,0,0,0,1.9,13a.17.17,0,0,0-.1.17.43.43,0,0,0,.17.31Z"/><path class="cls-4" d="M2,15.84s.16.13.22.07-.28-.67-.28-.86.22-.4.48-.45a1.91,1.91,0,0,1,.46,0,.17.17,0,0,1-.18.1.4.4,0,0,1,.21.35c0,.27-.12.38-.12.69a.89.89,0,0,0,.15.39.34.34,0,0,1-.31-.44.17.17,0,0,0-.1,0c0-.05,0-.1,0-.16a.22.22,0,0,0-.11,0,.24.24,0,0,1,.12-.16.27.27,0,0,1-.36-.26A.19.19,0,0,1,2.37,15l.09,0a.21.21,0,0,0,0-.11c.06,0,.1.05.07.13a.13.13,0,0,1,.11,0,.13.13,0,0,1-.11.05c0,.07,0,.11-.06.15s0-.15,0-.15-.08,0-.08.08,0,.12.15.12.19-.08.19-.25-.13-.23-.29-.24a.23.23,0,0,0-.26.24c0,.2.29.67.29.85a.23.23,0,0,1-.24.22A.44.44,0,0,1,1.88,16Z"/><path class="cls-4" d="M2,15.84s-.16.13-.22.07.28-.67.28-.86-.22-.4-.48-.45a1.91,1.91,0,0,0-.46,0,.17.17,0,0,0,.18.1.4.4,0,0,0-.21.35c0,.27.12.38.12.69a.89.89,0,0,1-.15.39.34.34,0,0,0,.31-.44.17.17,0,0,1,.1,0c0-.05,0-.1-.05-.16a.22.22,0,0,1,.11,0,.24.24,0,0,0-.12-.16.27.27,0,0,0,.36-.26A.19.19,0,0,0,1.57,15l-.09,0a.21.21,0,0,1,0-.11c-.06,0-.1.05-.07.13a.13.13,0,0,0-.11,0,.13.13,0,0,0,.11.05c0,.07,0,.11.06.15s0-.15.05-.15.08,0,.08.08,0,.12-.15.12-.19-.08-.19-.25.13-.23.29-.24a.23.23,0,0,1,.26.24c0,.2-.29.67-.29.85a.23.23,0,0,0,.24.22A.44.44,0,0,0,2.06,16Z"/><path class="cls-4" d="M1.94,6.1a.54.54,0,0,1,.55-.52A.45.45,0,0,1,3,6a.85.85,0,0,1-.09.38L2.15,8a.41.41,0,0,0,0,.21.28.28,0,0,0,.28.25.27.27,0,0,0,.27-.26c0-.17-.09-.25-.18-.25S2.32,8,2.32,8a.07.07,0,0,0,.07.08c.09,0,.07-.13.07-.13a.09.09,0,0,1,.06.12.13.13,0,0,1,.09.05.11.11,0,0,1-.09.05c0,.08,0,.12-.07.13a.22.22,0,0,0,0-.08.19.19,0,0,1-.26-.19.28.28,0,0,1,.35-.29.17.17,0,0,1-.09-.14.23.23,0,0,0,.09,0,.24.24,0,0,1-.06-.18s.08,0,.13,0a.33.33,0,0,1,.29-.45.54.54,0,0,0-.15.36c0,.4.11.46.11.74a.43.43,0,0,1-.17.33h0a.25.25,0,0,1,.15.11,1.14,1.14,0,0,1-.58,0,.42.42,0,0,1-.3-.2A.62.62,0,0,1,2,7.9c.11-.23.61-1.29.76-1.62a.44.44,0,0,0,.06-.23.28.28,0,0,0-.3-.27A.25.25,0,0,0,2.24,6c0,.07,0,.12.1.12s.13-.12.1-.2.15.11.13.19a.19.19,0,0,1,.14.08.17.17,0,0,1-.14.08c0,.11,0,.16-.13.19s0-.18-.1-.18a.27.27,0,0,1-.24-.09c0,.09,0,.46,0,.46s.18.13.3.09C2.35,6.9,2.25,7,2,7a.17.17,0,0,1,.1.17A.41.41,0,0,1,2,7.44Z"/><path class="cls-4" d="M2,6.1a.53.53,0,0,0-.55-.52A.45.45,0,0,0,1,6,.85.85,0,0,0,1,6.41L1.79,8a.41.41,0,0,1,0,.21.28.28,0,0,1-.28.25.27.27,0,0,1-.27-.26c0-.17.09-.25.18-.25s.16,0,.16.13a.07.07,0,0,1-.07.08c-.09,0-.07-.13-.07-.13a.09.09,0,0,0-.06.12.13.13,0,0,0-.09.05.11.11,0,0,0,.09.05c0,.08,0,.12.07.13a.22.22,0,0,1,0-.08.19.19,0,0,0,.26-.19.28.28,0,0,0-.35-.29.17.17,0,0,0,.09-.14.23.23,0,0,1-.09,0,.24.24,0,0,0,.06-.18s-.08,0-.13,0A.33.33,0,0,0,1,7.06a.54.54,0,0,1,.15.36c0,.4-.11.46-.11.74a.43.43,0,0,0,.17.33h0a.25.25,0,0,0-.15.11,1.14,1.14,0,0,0,.58,0,.42.42,0,0,0,.3-.2A.62.62,0,0,0,2,7.9c-.11-.23-.61-1.29-.76-1.62a.44.44,0,0,1-.06-.23.28.28,0,0,1,.3-.27A.25.25,0,0,1,1.7,6c0,.07,0,.12-.1.12s-.13-.12-.1-.2-.15.11-.13.19a.19.19,0,0,0-.14.08.17.17,0,0,0,.14.08c0,.11,0,.16.13.19s0-.18.1-.18a.27.27,0,0,0,.24-.09c0,.09,0,.46,0,.46s-.18.13-.3.09A.28.28,0,0,0,1.9,7a.17.17,0,0,0-.1.17A.41.41,0,0,0,2,7.44Z"/><path class="cls-4" d="M2,5.07a.53.53,0,0,1-.55.52A.45.45,0,0,1,1,5.14.85.85,0,0,1,1,4.76l.75-1.55a.41.41,0,0,0,0-.21.28.28,0,0,0-.55,0c0,.17.09.25.18.25s.16,0,.16-.13a.07.07,0,0,0-.07-.08c-.09,0-.07.13-.07.13a.09.09,0,0,1-.06-.12A.13.13,0,0,1,1.33,3a.11.11,0,0,1,.09,0c0-.08,0-.12.07-.13a.22.22,0,0,0,0,.08.19.19,0,0,1,.26.19.28.28,0,0,1-.35.29.17.17,0,0,1,.09.14.23.23,0,0,0-.09,0,.24.24,0,0,1,.06.18s-.08,0-.13,0A.33.33,0,0,1,1,4.11a.54.54,0,0,0,.15-.36c0-.4-.11-.46-.11-.74a.43.43,0,0,1,.17-.33h0a.25.25,0,0,1-.15-.11,1.14,1.14,0,0,1,.58,0,.42.42,0,0,1,.3.2.62.62,0,0,1,0,.49c-.11.23-.61,1.29-.76,1.62a.44.44,0,0,0-.06.23.28.28,0,0,0,.3.27.25.25,0,0,0,.25-.22c0-.07,0-.12-.1-.12s-.13.12-.1.2-.15-.11-.13-.19A.19.19,0,0,1,1.23,5a.17.17,0,0,1,.14-.08c0-.11,0-.16.13-.19s0,.18.1.18A.27.27,0,0,1,1.84,5c0-.09,0-.46,0-.46s-.18-.13-.3-.09a.28.28,0,0,1,.35-.22A.17.17,0,0,1,1.8,4,.41.41,0,0,1,2,3.73Z"/><path class="cls-4" d="M1.94,5.07a.54.54,0,0,0,.55.52A.45.45,0,0,0,3,5.14a.85.85,0,0,0-.09-.38L2.15,3.21a.41.41,0,0,1,0-.21.28.28,0,0,1,.55,0c0,.17-.09.25-.18.25s-.16,0-.16-.13a.07.07,0,0,1,.07-.08c.09,0,.07.13.07.13a.09.09,0,0,0,.06-.12A.13.13,0,0,0,2.61,3a.11.11,0,0,0-.09,0c0-.08,0-.12-.07-.13a.22.22,0,0,1,0,.08.19.19,0,0,0-.26.19.28.28,0,0,0,.35.29.17.17,0,0,0-.09.14.23.23,0,0,1,.09,0,.24.24,0,0,0-.06.18s.08,0,.13,0a.33.33,0,0,0,.29.45.54.54,0,0,1-.15-.36c0-.4.11-.46.11-.74a.43.43,0,0,0-.17-.33h0a.25.25,0,0,0,.15-.11,1.14,1.14,0,0,0-.58,0,.42.42,0,0,0-.3.2.62.62,0,0,0,0,.49c.11.23.61,1.29.76,1.62a.44.44,0,0,1,.06.23.28.28,0,0,1-.3.27.25.25,0,0,1-.25-.22c0-.07,0-.12.1-.12s.13.12.1.2.15-.11.13-.19A.19.19,0,0,0,2.71,5a.17.17,0,0,0-.14-.08c0-.11,0-.16-.13-.19s0,.18-.1.18A.27.27,0,0,0,2.1,5c0-.09,0-.46,0-.46s.18-.13.3-.09c0-.16-.14-.24-.35-.22A.17.17,0,0,0,2.14,4,.41.41,0,0,0,2,3.73Z"/><path class="cls-4" d="M2,11.09a.53.53,0,0,1-.55.52.45.45,0,0,1-.5-.45A.85.85,0,0,1,1,10.78l.75-1.55a.44.44,0,0,0,0-.21.28.28,0,0,0-.55,0c0,.17.09.25.18.25s.16,0,.16-.13,0-.08-.07-.08-.07.13-.07.13a.09.09,0,0,1-.06-.12A.19.19,0,0,1,1.33,9,.15.15,0,0,1,1.42,9c0-.07,0-.11.07-.12a.22.22,0,0,0,0,.08.19.19,0,0,1,.26.19.28.28,0,0,1-.35.29.17.17,0,0,1,.09.14.23.23,0,0,0-.09,0,.24.24,0,0,1,.06.18s-.08-.06-.13,0a.33.33,0,0,1-.29.45.54.54,0,0,0,.15-.36c0-.4-.11-.47-.11-.74a.43.43,0,0,1,.17-.33h0a.26.26,0,0,1-.15-.12,1,1,0,0,1,.58,0,.42.42,0,0,1,.3.2.62.62,0,0,1,0,.49c-.11.23-.61,1.29-.76,1.62a.43.43,0,0,0-.06.22.29.29,0,0,0,.3.28.25.25,0,0,0,.25-.22c0-.07,0-.12-.1-.12s-.13.12-.1.2-.15-.11-.13-.19A.23.23,0,0,1,1.23,11a.17.17,0,0,1,.14-.08c0-.12,0-.17.13-.19s0,.18.1.18a.27.27,0,0,1,.24.09c0-.09,0-.46,0-.46s-.18-.13-.3-.09a.28.28,0,0,1,.35-.22.17.17,0,0,1-.1-.17A.41.41,0,0,1,2,9.75Z"/><path class="cls-4" d="M1.94,11.09a.54.54,0,0,0,.55.52.45.45,0,0,0,.5-.45.85.85,0,0,0-.09-.38L2.15,9.23a.44.44,0,0,1,0-.21.28.28,0,0,1,.55,0c0,.17-.09.25-.18.25s-.16,0-.16-.13,0-.08.07-.08.07.13.07.13a.09.09,0,0,0,.06-.12A.19.19,0,0,0,2.61,9,.15.15,0,0,0,2.52,9c0-.07,0-.11-.07-.12a.22.22,0,0,1,0,.08.19.19,0,0,0-.26.19.28.28,0,0,0,.35.29.17.17,0,0,0-.09.14.23.23,0,0,1,.09,0,.24.24,0,0,0-.06.18s.08-.06.13,0a.33.33,0,0,0,.29.45.54.54,0,0,1-.15-.36c0-.4.11-.47.11-.74A.43.43,0,0,0,2.7,8.7h0a.26.26,0,0,0,.15-.12,1,1,0,0,0-.58,0,.42.42,0,0,0-.3.2.62.62,0,0,0,0,.49c.11.23.61,1.29.76,1.62a.43.43,0,0,1,.06.22.29.29,0,0,1-.3.28.25.25,0,0,1-.25-.22c0-.07,0-.12.1-.12s.13.12.1.2.15-.11.13-.19A.23.23,0,0,0,2.71,11a.17.17,0,0,0-.14-.08c0-.12,0-.17-.13-.19s0,.18-.1.18A.27.27,0,0,0,2.1,11c0-.09,0-.46,0-.46s.18-.13.3-.09c0-.16-.14-.24-.35-.22a.17.17,0,0,0,.1-.17A.41.41,0,0,0,2,9.75Z"/><path class="cls-4" d="M2,1.35s.16-.14.22-.07-.28.66-.28.86.22.4.48.45a1.91,1.91,0,0,0,.46,0,.17.17,0,0,0-.18-.1.4.4,0,0,0,.21-.35c0-.27-.12-.38-.12-.69a.89.89,0,0,1,.15-.39.34.34,0,0,0-.31.44.13.13,0,0,1-.1,0,.17.17,0,0,0,0,.16s-.06,0-.11,0a.24.24,0,0,0,.12.16A.27.27,0,0,0,2.2,2a.19.19,0,0,0,.17.21l.09,0a.25.25,0,0,1,0,.12c.06,0,.1-.05.07-.13a.16.16,0,0,0,.11-.05.09.09,0,0,0-.11,0c0-.07,0-.11-.06-.15s0,.15,0,.15-.08,0-.08-.08,0-.12.15-.12a.21.21,0,0,1,.19.24c0,.16-.13.24-.29.24a.22.22,0,0,1-.26-.23c0-.2.29-.67.29-.85a.23.23,0,0,0-.24-.22.44.44,0,0,0-.29.16Z"/><path class="cls-4" d="M2,1.35s-.16-.14-.22-.07.28.66.28.86-.22.4-.48.45a1.91,1.91,0,0,1-.46,0,.17.17,0,0,1,.18-.1.4.4,0,0,1-.21-.35c0-.27.12-.38.12-.69A.89.89,0,0,0,1,1.05a.34.34,0,0,1,.31.44.13.13,0,0,0,.1,0,.17.17,0,0,1-.05.16s.06,0,.11,0a.24.24,0,0,1-.12.16A.27.27,0,0,1,1.74,2a.19.19,0,0,1-.17.21l-.09,0a.25.25,0,0,0,0,.12c-.06,0-.1-.05-.07-.13a.16.16,0,0,1-.11-.05.09.09,0,0,1,.11,0c0-.07,0-.11.06-.15s0,.15.05.15.08,0,.08-.08,0-.12-.15-.12-.19.08-.19.24.13.24.29.24a.22.22,0,0,0,.26-.23c0-.2-.29-.67-.29-.85a.23.23,0,0,1,.24-.22.44.44,0,0,1,.29.16Z"/><path class="cls-3" d="M1.65,11.06s-.06,0-.11,0-.07,0-.07.06.06,0,.11,0,.07,0,.07-.06Z"/><path class="cls-3" d="M1.5,11.15h0l0,0s0-.07.09-.08h.1l0,0s0,.07-.09.08Z"/><path class="cls-4" d="M15.38,11.68A4.08,4.08,0,0,1,11.31,8s-.09,0-.11,0,.06.8,0,.76-.48-1.2-.56-1.08.47,1.45.44,1.48S10.34,7.94,10.28,8c-.2.39.82,1.66.81,1.71s-.77-.68-.83-.59.8.95.85,1-.52-.3-.54-.14.33.4.53.52.27.08.33.18-.39-.05-.37,0,.46.15.53.23-.3,0-.29.09.4.14.41.19-.24,0-.22.12.38.06.47.12-.33,0,0,.17a4.21,4.21,0,0,0,1.21.45c.51.1.77,0,.79-.05s-.24,0-.61,0a3.94,3.94,0,0,1-1-.42c-.06,0,.19-.1.14-.18s-.26,0-.34-.09.1-.06.09-.1-.28-.11-.33-.18S12,11,12,11s-.17-.1-.19-.14.21,0,.11-.09-.4-.14-.46-.24.22,0,.15-.09-.32-.18-.37-.33.19,0,.19-.08-.13,0-.18-.35c0-.1.18,0,.18,0l0-.05a2.21,2.21,0,0,1,.52.46c.29.34.37.67.65.9.13.11.13,0,.43.14a6,6,0,0,1,.74.58s.25,0,.85.09c.33.07.39.24.39.24a.87.87,0,0,0,.27-.24s.07,0,.08,0,0-.07,0-.07Z"/><path class="cls-4" d="M13.56,12.2a2.72,2.72,0,0,1-.39,0A4.86,4.86,0,0,1,12,11.71c-.1-.05-.14-.08-.14-.12s.06,0,.1-.05H12a1.07,1.07,0,0,0-.23,0c-.13,0-.25,0-.26-.09h0v0a.29.29,0,0,1,.14,0l.07,0-.12,0c-.12,0-.27-.06-.28-.15s.08-.05.16-.05l.13,0a.38.38,0,0,0-.19-.06c-.16,0-.33-.06-.35-.18s.13-.06.24,0h.1c0-.05,0-.07-.09-.09a.78.78,0,0,1-.2-.09c-.19-.1-.55-.38-.53-.53s0,0,.06,0a1.19,1.19,0,0,1,.36.14l.15.07L11,10.1c-.43-.38-.87-.79-.76-.95s.22.1.42.29a1.63,1.63,0,0,0,.41.31.84.84,0,0,0-.13-.2c-.27-.39-.83-1.21-.67-1.51.07,0,.14.11.34.45s.41.7.48.7A1.62,1.62,0,0,0,11,8.81c-.2-.55-.37-1-.3-1.11s.22.25.45.79a2.77,2.77,0,0,0,.12.27s0-.12,0-.2a3.24,3.24,0,0,1,0-.53A.07.07,0,0,1,11.27,8h0a4.08,4.08,0,0,0,4.06,3.69.06.06,0,0,1,.05.06h0l0,0h-.05A1,1,0,0,1,15,12a.53.53,0,0,0-.39-.24A3.15,3.15,0,0,0,14,11.7h-.19l-.18-.16a3.59,3.59,0,0,0-.56-.43.48.48,0,0,0-.26-.09h0a.17.17,0,0,1-.12,0,1.79,1.79,0,0,1-.36-.46,2.6,2.6,0,0,0-.3-.43,2.09,2.09,0,0,0-.51-.47v.05a.62.62,0,0,1-.13,0h-.05c0,.2.08.24.13.28a.11.11,0,0,1,0,.09s-.06,0-.08,0h-.12c0,.12.17.2.26.26a.65.65,0,0,1,.11.09h0v0s0,0-.05,0H11.5c0,.08.16.14.27.19l.15.06a.07.07,0,0,1,0,0s0,0-.07,0l-.06,0,.1.06c.05,0,.09.05.09.08s0,0-.08,0l-.06,0s.12.08.2.11.14.06.14.09,0,0-.06.05l0,0c0,.06.12.06.19.06s.12,0,.15.05v0s-.05.07-.1.1,0,0,0,0a4.23,4.23,0,0,0,1,.41,2.22,2.22,0,0,0,.37,0H14c0,.06-.16.12-.41.12Zm-2.42-1.45c-.05,0-.06,0-.07,0s.19.13.32.15a.5.5,0,0,1,.21.07h0v0s-.07,0-.16,0l-.13,0c0,.06.15.09.26.12s.14,0,.15.07-.05.05-.11.05a.28.28,0,0,0-.11,0c0,.06.13.08.23.09a.56.56,0,0,1,.23,0l0,0s0,0-.07,0l-.07,0s0,0,.11.08a4.71,4.71,0,0,0,1.21.44,1.84,1.84,0,0,0,.39,0,.76.76,0,0,0,.38-.07h-.21a2.33,2.33,0,0,1-.38,0,4.33,4.33,0,0,1-1-.41c0-.05,0-.07,0-.1a.23.23,0,0,0,.09-.07s-.08,0-.13,0-.16,0-.21-.07l0,0s0,0,.07-.05l0,0-.12,0c-.09,0-.18-.07-.21-.12v0s0,0,.08-.05L12,11l-.08-.05c-.06,0-.1-.06-.11-.09s0,0,.08-.06h0l-.17-.07a.68.68,0,0,1-.31-.18h0v0s.07,0,.11,0h0s-.05-.07-.1-.1-.23-.15-.27-.26a0,0,0,0,1,0,0,.11.11,0,0,1,.08,0h.11s0,0,0-.07-.12-.08-.15-.27a.08.08,0,0,1,0,0c0-.05.18,0,.19,0V9.58h0A1.54,1.54,0,0,1,12,10a3.14,3.14,0,0,1,.3.44,1.56,1.56,0,0,0,.35.45.12.12,0,0,0,.1,0h0a.53.53,0,0,1,.28.11,2.68,2.68,0,0,1,.56.43l.18.15H14a3.29,3.29,0,0,1,.68.08c.32.06.4.24.4.25a3.21,3.21,0,0,0,.24-.25.05.05,0,0,1,0,0h0v0A4.08,4.08,0,0,1,11.29,8h0s0,0,0,0a3.31,3.31,0,0,0,0,.52c0,.2,0,.23,0,.24s-.09-.12-.16-.3a3.62,3.62,0,0,0-.39-.78c-.07.1.17.71.31,1.08s.14.39.12.41h0c-.09,0-.26-.28-.51-.71a2.13,2.13,0,0,0-.29-.45c-.14.28.41,1.08.68,1.47.12.17.14.2.14.22v0l0,0c-.07,0-.21-.12-.43-.33a1.71,1.71,0,0,0-.37-.29c-.11.16.54.72.76.9l.1.09s0,0,0,.05-.09,0-.19-.06a1.11,1.11,0,0,0-.34-.14s0,0,0,0,.3.38.52.5a1,1,0,0,0,.19.09.23.23,0,0,1,.14.1c0,.1-.09,0-.17,0Z"/><path class="cls-4" d="M16.93,12.37c-.08,0-.07.05-.07.05a.19.19,0,0,1-.12.19c-.06,0,0,.05,0,.09l-.22,0a2.2,2.2,0,0,1-1.34.21l-.21.17c-.1.09-.17.11-.19.18s0,.11.14.11a.49.49,0,0,0,.22-.08.1.1,0,0,0,.1.08,1,1,0,0,0,.24-.06.55.55,0,0,0,.23.05.4.4,0,0,0,.18-.07s0,.11.13.11.25-.12.25-.12a.18.18,0,0,0,.16.07.47.47,0,0,0,.2-.11.41.41,0,0,0,.22,0,.54.54,0,0,0,.21-.14.21.21,0,0,0,.18.05c.08,0,.14-.14.14-.14a.58.58,0,0,0,.38,0c.1-.06.07-.22.07-.22s.63.09.6-.32c0,0-1,0-1.45-.11Z"/><path class="cls-4" d="M16,13.4h0c-.09,0-.12-.09-.13-.12a.29.29,0,0,1-.17.08,1.41,1.41,0,0,1-.24,0,.69.69,0,0,1-.22,0,.13.13,0,0,1-.13-.08.3.3,0,0,1-.19.09.22.22,0,0,1-.16-.06.11.11,0,0,1,0-.08c0-.05.06-.07.11-.11l.09-.07.21-.18.37,0a2,2,0,0,0,1-.22h.23s0-.08,0-.09a.16.16,0,0,0,.11-.17.08.08,0,0,1,0-.05s0,0,.05,0a7.75,7.75,0,0,0,1,.07c.45,0,.48,0,.48.06a.28.28,0,0,1-.07.22.59.59,0,0,1-.41.12h-.13a.18.18,0,0,1-.08.22.6.6,0,0,1-.39,0s-.05.12-.13.15a.23.23,0,0,1-.19-.05.39.39,0,0,1-.2.14.33.33,0,0,1-.22,0,.38.38,0,0,1-.2.12h0a.2.2,0,0,1-.17-.08.38.38,0,0,1-.24.13Zm-.14-.15s.05.11.14.12h0c.09,0,.23-.12.24-.12s.08.07.15.07a.38.38,0,0,0,.21-.12.75.75,0,0,0,.15,0h.07a.56.56,0,0,0,.2-.14.37.37,0,0,0,.16.05.27.27,0,0,0,.16-.14s.14,0,.25,0a.29.29,0,0,0,.14,0c.09,0,.07-.2.07-.2s.07,0,.15,0h0a.5.5,0,0,0,.38-.12.25.25,0,0,0,.07-.19l-.45,0a7.09,7.09,0,0,1-1-.08h-.05a.23.23,0,0,1-.14.23s0,0,0,0a.06.06,0,0,1,0,0h-.24a2.26,2.26,0,0,1-1.34.2l-.2.17-.09.08c-.05,0-.08,0-.09.09a0,0,0,0,0,0,0,.15.15,0,0,0,.12,0h0a.49.49,0,0,0,.2-.08.17.17,0,0,0,.11.08h0a.79.79,0,0,0,.23-.05.91.91,0,0,0,.21.05.5.5,0,0,0,.2-.08Z"/><path class="cls-4" d="M15.6,11.93a3.06,3.06,0,0,1,.51-.13c.6-.13.81-.09.85-.13A2.35,2.35,0,0,1,18.14,11c.28-.23.37-.56.66-.9s.47-.37.47-.37l0,.08s.15-.12.14,0-.13.3-.13.4.22,0,.2,0-.22.26-.27.32.19,0,.14.07-.32.21-.43.28.07.05.06.09-.29.15-.29.19.08,0,.05.08-.29.08-.29.12,0,.08,0,.14-.14,0-.17.08.13.14,0,.16a1.07,1.07,0,0,0-.36.16,2.64,2.64,0,0,1-.37.1c-.08,0-.51.07-.49.11A2.26,2.26,0,0,0,18,12a5.91,5.91,0,0,0,.77-.2c.44-.14-.11-.15,0-.21s.47,0,.49-.11-.21-.07-.21-.12.47,0,.49-.18-.26,0-.19-.1.43-.1.44-.26-.3,0-.26-.06.14-.06.27-.15.49-.36.48-.49-.64.37-.58.17,1-.85.84-1-.81.7-.84.54,1.1-1.3.89-1.69c-.05-.1-.88,1.48-1,1.35s.7-1.57.59-1.72-.18.18-.3.46l-.29.63s0-.6,0-.8-.1,0-.1,0a4.32,4.32,0,0,1-3.57,3.68c-.4.06-.52.25-1,.49-.15.08-.37.12-.57.23a1.09,1.09,0,0,0-.39.38A.23.23,0,0,0,14,13s0-.11.08-.13.05,0,.1,0a.21.21,0,0,0,.12-.06h1.53a.45.45,0,0,0,.28-.1c0-.05-.14,0-.22,0-.32,0-.75,0-1.05,0a0,0,0,0,1,0,0,2.36,2.36,0,0,1,.2-.23h-.16l-.13.06c-.05,0-.07,0-.05,0a6.84,6.84,0,0,1,.92-.49Z"/><path class="cls-4" d="M14,13h0s0-.07-.06-.09a.22.22,0,0,1,0-.14,1.13,1.13,0,0,1,.4-.38,1.66,1.66,0,0,1,.32-.13l.25-.1c.14-.08.24-.15.34-.22a1.4,1.4,0,0,1,.62-.27A4.3,4.3,0,0,0,19.44,8a.08.08,0,0,1,.14,0,5,5,0,0,1,0,.53,2.07,2.07,0,0,0,0,.26,5.41,5.41,0,0,1,.22-.54l0-.09c.15-.33.23-.48.29-.48h0l0,0c.08.1-.14.64-.41,1.29-.09.21-.18.41-.18.43s.38-.47.59-.81.34-.55.39-.55c.18.32-.43,1.12-.73,1.51a1.06,1.06,0,0,0-.14.2A1.38,1.38,0,0,0,20,9.55c.18-.16.36-.32.45-.32h0l0,0c.11.13-.25.49-.64.85-.09.09-.19.18-.2.2s.14,0,.24-.09.33-.18.34-.09-.15.28-.48.52l-.18.1-.08,0h.09a.2.2,0,0,1,.16,0v0c0,.11-.15.16-.28.2a.34.34,0,0,0-.17.07s.05,0,.08,0,.1,0,.11,0-.18.14-.33.16l-.15,0s0,0,.07,0,.15,0,.13.1-.13.07-.27.09a.43.43,0,0,0-.22,0l.07,0c.07,0,.13,0,.13.08s0,.06-.18.11A4.73,4.73,0,0,1,18,12a4.35,4.35,0,0,1-.74.09c-.1,0-.13,0-.13,0s.08-.06.35-.1l.15,0,.12,0a1.15,1.15,0,0,0,.24-.06.9.9,0,0,1,.36-.16s0,0,0-.06,0-.07,0-.09,0-.05.06-.05l0,0v0a.08.08,0,0,0,.08,0,.08.08,0,0,0,0-.09.07.07,0,0,1,0,0s.05,0,.12-.05.15,0,.17-.07,0,0,0-.07,0-.05.14-.1S19,11,19,10.94s0,0,0,0,0,0,0,0h0l0,0,.13-.07a.61.61,0,0,0,.29-.2h-.11l0,0,0,0,.07-.07a.57.57,0,0,0,.19-.24h-.06c-.08,0-.13,0-.13,0a.32.32,0,0,1,.06-.19.86.86,0,0,0,.07-.21.12.12,0,0,0-.12,0l-.07-.08a1.45,1.45,0,0,0-.44.37,2.65,2.65,0,0,0-.3.44,1.64,1.64,0,0,1-.36.47l-.19.07a2,2,0,0,0-1,.64s-.07,0-.16,0a6.17,6.17,0,0,0-.71.1,3.7,3.7,0,0,0-.5.14,7.05,7.05,0,0,0-.92.48.28.28,0,0,0,.16,0H15a2.11,2.11,0,0,1-.18.25l0,0h0c.3,0,.73,0,1.05,0H16c.06,0,.16,0,.18,0a.49.49,0,0,1-.3.12H14.33a.3.3,0,0,1-.12.06h0a.07.07,0,0,1-.06,0s-.05,0-.06.06,0,.06-.05.06ZM19.5,8h0a4.3,4.3,0,0,1-3.57,3.69,1.32,1.32,0,0,0-.6.27l-.35.22a1.33,1.33,0,0,1-.24.1,1.27,1.27,0,0,0-.32.13,1.15,1.15,0,0,0-.39.36.17.17,0,0,0,0,.12S14,13,14,13h0l0,0s0-.08,0-.09.05,0,.06,0l0,0a.22.22,0,0,0,.11,0s1.08,0,1.54,0a.44.44,0,0,0,.27-.09h-.21c-.33,0-.75,0-1.05,0a.06.06,0,0,1,0,0s0,0,0,0a1.77,1.77,0,0,1,.2-.24l-.14,0h0a.39.39,0,0,1-.13.06.07.07,0,0,1-.07,0h0l0,0a6.24,6.24,0,0,1,.93-.49,3.7,3.7,0,0,1,.5-.14,4.54,4.54,0,0,1,.72-.1.27.27,0,0,0,.13,0A2.12,2.12,0,0,1,18,11l.18-.06a1.75,1.75,0,0,0,.35-.46,3.58,3.58,0,0,1,.31-.44c.29-.34.47-.37.47-.37l.06.08s.06-.07.11-.07l0,0s0,0,0,0a.62.62,0,0,1-.07.23.44.44,0,0,0-.06.17h.15l0,0a.57.57,0,0,1-.19.29l-.07.06s0,0,0,0h.07l0,0s0,0,0,.05a.84.84,0,0,1-.31.21l-.13.07s.08.05.07.09-.06.05-.17.11l-.12.07,0,0,0,0a.33.33,0,0,1-.2.11l-.1,0c0,.06,0,.1,0,.15a.14.14,0,0,1-.11.06h0s0,0,0,0l0,0s0,.06,0,.09l-.05,0a1.17,1.17,0,0,0-.36.16,1.54,1.54,0,0,1-.24.07l-.13,0-.15,0c-.09,0-.26,0-.31.06A2.27,2.27,0,0,0,18,12a4.91,4.91,0,0,0,.77-.19c.16-.05.16-.08.16-.08s-.08,0-.11-.05-.09,0-.1-.05h0l0,0a.62.62,0,0,1,.24-.05c.1,0,.24,0,.24-.06s0-.05-.11-.06-.1,0-.1-.06.06,0,.18-.06.3-.05.32-.11l-.09,0c-.06,0-.11,0-.12,0h0v0a.34.34,0,0,1,.19-.08c.12,0,.25-.08.26-.17s-.07,0-.14,0-.1,0-.12,0,0-.07.09-.09l.18-.1c.42-.3.48-.43.47-.48s-.19,0-.29.11a.66.66,0,0,1-.25.12h0a.06.06,0,0,1,0-.06s.06-.07.21-.22.74-.68.63-.8-.29.17-.45.31-.29.26-.34.26h0l0,0s0-.05.15-.22c.29-.38.89-1.17.74-1.46a4.19,4.19,0,0,0-.35.54c-.31.5-.52.82-.61.82s0-.07.13-.47a4.12,4.12,0,0,0,.42-1.26c-.05,0-.18.26-.27.45l0,.09a5,5,0,0,1-.25.55s0-.05,0-.28a3,3,0,0,0,0-.52,0,0,0,0,0,0,0Z"/><path class="cls-3" d="M14.54,12.58s-.06,0-.09,0-.06,0-.06.05,0,0,.09,0,.06,0,.06-.06Z"/><path class="cls-3" d="M14.41,12.67h0l0,0s0-.05.07-.06l.07,0h0l0,0s0,.06-.07.07l-.07,0Z"/><path class="cls-4" d="M15.91,4.78a.18.18,0,0,0,.22-.15c0-.13,0-.78,0-.78a7.3,7.3,0,0,0-.33.71.17.17,0,0,0,.14.22Z"/><path class="cls-4" d="M16.39,4.92a.17.17,0,0,0,.24-.1,6.46,6.46,0,0,0,.12-.77,6.58,6.58,0,0,0-.46.63.17.17,0,0,0,.1.24Z"/><path class="cls-4" d="M16.82,5.16a.17.17,0,0,0,.26-.06,6.44,6.44,0,0,0,.27-.73,6.06,6.06,0,0,0-.57.53.17.17,0,0,0,0,.26Z"/><path class="cls-4" d="M17.21,5.47a.17.17,0,0,0,.26,0,6.81,6.81,0,0,0,.41-.67,6.81,6.81,0,0,0-.67.41.16.16,0,0,0,0,.26Z"/><path class="cls-4" d="M17.52,5.85a.16.16,0,0,0,.25.05,6.39,6.39,0,0,0,.54-.57,7.27,7.27,0,0,0-.74.27.17.17,0,0,0-.05.25Z"/><path class="cls-4" d="M17.75,6.29a.18.18,0,0,0,.24.1,5.78,5.78,0,0,0,.64-.46,6.89,6.89,0,0,0-.78.12.17.17,0,0,0-.1.24Z"/><path class="cls-4" d="M17.9,6.76a.17.17,0,0,0,.21.15,7.66,7.66,0,0,0,.72-.33,5.89,5.89,0,0,0-.79,0,.16.16,0,0,0-.14.21Z"/><path class="cls-4" d="M18,7.26a.16.16,0,0,0,.18.18,6.69,6.69,0,0,0,.76-.18,6.4,6.4,0,0,0-.76-.19.17.17,0,0,0-.18.19Z"/><path class="cls-4" d="M17.9,7.75A.16.16,0,0,0,18,8a5.89,5.89,0,0,0,.79,0,5.91,5.91,0,0,0-.72-.32.16.16,0,0,0-.21.14Z"/><path class="cls-4" d="M17.75,8.22a.17.17,0,0,0,.1.24,6.89,6.89,0,0,0,.78.12A7.5,7.5,0,0,0,18,8.12a.18.18,0,0,0-.24.1Z"/><path class="cls-4" d="M17.52,8.66a.17.17,0,0,0,.05.25,5.44,5.44,0,0,0,.74.27,6.39,6.39,0,0,0-.54-.57.17.17,0,0,0-.25.05Z"/><path class="cls-4" d="M17.21,9a.16.16,0,0,0,0,.26,6.81,6.81,0,0,0,.67.41s-.32-.57-.41-.67a.17.17,0,0,0-.26,0Z"/><path class="cls-4" d="M16.82,9.36a.16.16,0,0,0,0,.25,6.06,6.06,0,0,0,.57.53,7.24,7.24,0,0,0-.27-.73.17.17,0,0,0-.26-.05Z"/><path class="cls-4" d="M16.39,9.59a.17.17,0,0,0-.1.24,6.58,6.58,0,0,0,.46.63,6.46,6.46,0,0,0-.12-.77.17.17,0,0,0-.24-.1Z"/><path class="cls-4" d="M14,9.36a.18.18,0,0,0-.26.05,7.24,7.24,0,0,0-.27.73,7.44,7.44,0,0,0,.58-.53A.17.17,0,0,0,14,9.36Z"/><path class="cls-4" d="M13.64,9a.17.17,0,0,0-.26,0,6.11,6.11,0,0,0-.41.67,6.86,6.86,0,0,0,.66-.41.17.17,0,0,0,0-.26Z"/><path class="cls-4" d="M13.32,8.66a.17.17,0,0,0-.25-.05,6.06,6.06,0,0,0-.53.57,5.4,5.4,0,0,0,.73-.27.17.17,0,0,0,.05-.25Z"/><path class="cls-4" d="M13.09,8.22a.17.17,0,0,0-.24-.1c-.12.06-.64.46-.64.46A6.57,6.57,0,0,0,13,8.46a.17.17,0,0,0,.1-.24Z"/><path class="cls-4" d="M12.94,7.75a.16.16,0,0,0-.21-.14,5.67,5.67,0,0,0-.71.32,5.73,5.73,0,0,0,.78,0,.16.16,0,0,0,.14-.21Z"/><path class="cls-4" d="M12.9,7.26a.18.18,0,0,0-.19-.19,6.4,6.4,0,0,0-.76.19,6.69,6.69,0,0,0,.76.18.17.17,0,0,0,.19-.18Z"/><path class="cls-4" d="M12.94,6.76a.16.16,0,0,0-.14-.21,5.73,5.73,0,0,0-.78,0,7.3,7.3,0,0,0,.71.33.16.16,0,0,0,.21-.15Z"/><path class="cls-4" d="M13.09,6.29a.17.17,0,0,0-.1-.24,6.57,6.57,0,0,0-.78-.12,6.94,6.94,0,0,0,.64.46.17.17,0,0,0,.24-.1Z"/><path class="cls-4" d="M13.32,5.85a.17.17,0,0,0-.05-.25,7.24,7.24,0,0,0-.73-.27,6.06,6.06,0,0,0,.53.57.16.16,0,0,0,.25-.05Z"/><path class="cls-4" d="M13.64,5.47a.17.17,0,0,0,0-.26A6.86,6.86,0,0,0,13,4.8a5.29,5.29,0,0,0,.41.67.17.17,0,0,0,.26,0Z"/><path class="cls-4" d="M15.42,5a2.22,2.22,0,1,1-2.23,2.22A2.21,2.21,0,0,1,15.42,5Z"/><path class="cls-4" d="M15.42,4.73a.16.16,0,0,0,.18-.18,6.69,6.69,0,0,0-.18-.76,6.69,6.69,0,0,0-.18.76.16.16,0,0,0,.18.18Z"/><path class="cls-4" d="M15.91,9.73a.17.17,0,0,0-.14.22,7.3,7.3,0,0,0,.33.71s0-.65,0-.78a.18.18,0,0,0-.22-.15Z"/><path class="cls-4" d="M15.42,9.78a.17.17,0,0,0-.18.19,6.69,6.69,0,0,0,.18.76A6.69,6.69,0,0,0,15.6,10a.17.17,0,0,0-.18-.19Z"/><path class="cls-4" d="M14.93,9.73a.18.18,0,0,0-.22.15c0,.13,0,.78,0,.78a7.3,7.3,0,0,0,.33-.71.17.17,0,0,0-.14-.22Z"/><path class="cls-4" d="M14.45,9.59a.16.16,0,0,0-.23.1,6.83,6.83,0,0,0-.13.77,6.58,6.58,0,0,0,.46-.63.16.16,0,0,0-.1-.24Z"/><path class="cls-4" d="M14,5.16a.18.18,0,0,0,.05-.26,7.44,7.44,0,0,0-.58-.53,6.44,6.44,0,0,0,.27.73.17.17,0,0,0,.26.06Z"/><path class="cls-4" d="M14.45,4.92a.16.16,0,0,0,.1-.24,6.58,6.58,0,0,0-.46-.63,6.83,6.83,0,0,0,.13.77.16.16,0,0,0,.23.1Z"/><path class="cls-4" d="M14.93,4.78a.17.17,0,0,0,.14-.22,7.3,7.3,0,0,0-.33-.71s-.05.65,0,.78a.18.18,0,0,0,.22.15Z"/></g></g></g></g></g></svg>