<svg xmlns="http://www.w3.org/2000/svg" xmlns:xlink="http://www.w3.org/1999/xlink" viewBox="0 0 29.46 17.19"><defs><style>.cls-1{fill:none;}.cls-2{clip-path:url(#clip-path);}.cls-3{fill:#fff;}.cls-4{fill:#e53633;}.cls-5{fill:#419f43;}</style><clipPath id="clip-path"><rect class="cls-1" width="29.46" height="17.19"/></clipPath></defs><g id="Layer_2" data-name="Layer 2"><g id="cá»"><g id="west_asia" data-name="west asia"><g class="cls-2"><rect class="cls-3" width="29.46" height="17.19"/><rect class="cls-4" y="12.89" width="29.46" height="4.3"/><rect class="cls-4" width="29.46" height="4.3"/><g class="cls-2"><path class="cls-5" d="M14.61,4.3l-.14.23a1.65,1.65,0,0,1-.41.43,2.22,2.22,0,0,0-.41.36l-.13.16.14,0,.22-.07s.09,0,.09,0h0c0,.09-.26.27-.45.35a1.37,1.37,0,0,0-.49.36h0a.25.25,0,0,0,.15,0c.12,0,.17,0,.21.07s0,.18-.11.18a.52.52,0,0,0-.44.32c0,.09-.12.17-.31.26a2.53,2.53,0,0,0-.77.51h0c0,.12.27.12.66,0,.09,0,.13,0,.2.15s.08.19-.11.44a.77.77,0,0,1-.38.29c-.26.05-.34.11-.67.44a2,2,0,0,1-.35.29h0a.5.5,0,0,0,.3.15.9.9,0,0,0,.39-.19c.25-.17.26-.17.36-.07a.35.35,0,0,1,.1.24c0,.12-.06.17-.39.34a3.09,3.09,0,0,0-.74.55c-.3.3-.38.36-.51.34s-.13,0-.14,0h0s0,.05.08.1a.37.37,0,0,0,.23.1,3.34,3.34,0,0,0,1.18-.44.48.48,0,0,1,.57-.09c.26.15-.17.46-1,.7a5.64,5.64,0,0,0-.59.2h0s0,.07,0,.12.51.12.88,0a7.74,7.74,0,0,0,.8-.33c.54-.24.54-.24.73-.14.44.23.4.63-.13,1.29a1.3,1.3,0,0,1-.8.5c-.14,0-.42.3-.42.4s0,0,0,0h.09s0,0,.06-.06a.75.75,0,0,1,.59-.26,1.33,1.33,0,0,0,.81-.37c.21-.19.42-.25.58-.16a.29.29,0,0,0,.27,0c.19-.07.29,0,.29.1a.26.26,0,0,0,.15.2,2.37,2.37,0,0,1,.35.27.27.27,0,0,0,.16.11h0s0-.1-.08-.19a.39.39,0,0,1-.05-.14h0a2.12,2.12,0,0,1,.39,0,.65.65,0,0,1,.58.29,1,1,0,0,0,.24.21h.14s.05,0,.05-.05h0a2.67,2.67,0,0,0-.45-.43,1.25,1.25,0,0,1-.62-1.24c0-.38,0-.48.1-.57s.21-.15.55,0,.33.14.91.13.63,0,.94.17.39.24.48.3.39.16.43,0-.31-.46-1-.83-.75-.46-.44-.63.2-.09.48.07a.65.65,0,0,0,.48.12l.18,0-.41-.34a5.56,5.56,0,0,1-.48-.43.72.72,0,0,0-.58-.27A.43.43,0,0,1,17,8.85h0c-.07-.12.13-.17.67-.19.72,0,.82-.12.32-.28-.2-.06-.5-.15-.67-.18S17,8.11,17,8.05V8h0A.09.09,0,0,1,17,8s.2,0,.47,0S18,8,18,8s-.11-.15-.42-.32a4.47,4.47,0,0,1-.82-.58,2.4,2.4,0,0,0-.54-.41C16,6.6,16,6.55,16,6.48s.31-.11.49,0a1,1,0,0,0,.42.08h.3L17,6.48A3.23,3.23,0,0,1,16.27,6h0a1,1,0,0,1,.28,0l.3,0-.42-.33a1.74,1.74,0,0,0-.72-.38l-.41-.09a1.28,1.28,0,0,1-.58-.61Zm-.95,1.63h0a.16.16,0,0,1,.11,0h0a.88.88,0,0,1-.14.15l-.09,0h0a.2.2,0,0,1,0-.11c0-.12,0-.15.12-.15m1.41.14h0a.13.13,0,0,1,.14.1c0,.08,0,.11-.14.11s-.12,0-.14,0,0,0,0-.08a.13.13,0,0,1,.14-.1m-.41,0c.07,0,.1,0,.1.12s0,.15-.24.2a.74.74,0,0,1-.26,0h0c-.07-.08,0-.17.16-.26a.55.55,0,0,1,.24-.09m.95,0c.11,0,.12,0,.07.19a.18.18,0,0,1-.16.09c-.11,0-.13,0-.12-.13s.06-.13.16-.15h0M14,6.39h0c.12,0,0,.24-.12.35s-.3.14-.34.1h0A.76.76,0,0,1,14,6.39M15.2,7c.06,0,.1.06.08.18s-.07.11-.16.13-.12,0-.13,0h0s0-.09.1-.19A.18.18,0,0,1,15.2,7m-.48,0h0c.12,0,.14.1,0,.17l-.11,0h0l-.14,0-.14,0L14.51,7A.87.87,0,0,1,14.72,7m1,.13.18,0c.11.05.13.09.11.21s-.12.18-.42.08c-.15,0-.17-.07-.12-.17a.29.29,0,0,1,.25-.15m-2.27,0h0c.22,0,.25,0,.15.18l-.16.16c-.07.06-.1.06-.14,0s-.08-.19-.05-.24.09-.06.19-.06m-.59.1c.1,0,.16,0,.23.17l.11.18-.16.07c-.14,0-.17,0-.29-.13s-.1-.18-.08-.22h0a.28.28,0,0,1,.17,0h0m3.51.55a.17.17,0,0,1,.2.18c0,.15-.19.2-.32.09s-.09-.09,0-.19a.21.21,0,0,1,.15-.08m-2,.28h.06s0,.06,0,.11-.13.2-.17.07,0-.19.09-.2m-.66.12a.39.39,0,0,1,.19.09A.16.16,0,0,1,14,8.4h0a.15.15,0,0,1-.17,0,.44.44,0,0,1-.12-.14h0s0,0,.05-.05m1.05,0s0,0,.08.06A.59.59,0,0,1,15,8.5c0,.16,0,.22-.17.15a.21.21,0,0,1-.1-.34c0-.06,0-.08.07-.09m.37.22s.09.06.11.16,0,.1,0,.12h0c-.08,0-.12-.07-.12-.19a.1.1,0,0,1,0-.09m-2.32.24H13a.37.37,0,0,1,.15.06v0h0v0s-.08.1-.2.16a1.34,1.34,0,0,1-.38.14c-.17,0-.2,0-.27-.14a.7.7,0,0,1-.08-.2h0a1.7,1.7,0,0,1,.57-.07m3.6.52c.21,0,.32.13.09.31a.42.42,0,0,1-.49,0c-.09-.08-.09-.09.08-.21a.68.68,0,0,1,.32-.11m.76.16h0a.38.38,0,0,1,.16.09c.1.08.1.08,0,.23a.41.41,0,0,1-.15.14h0l-.2,0c-.1,0-.17-.06-.17-.11h0a.77.77,0,0,1,.39-.31m-3.82.24h0c.14,0,.22.11.22.33s-.18.26-.26,0-.07-.3,0-.3m1.09.08a.73.73,0,0,1,.33.08h0a.68.68,0,0,1-.13.21l-.12.16-.06-.21a.54.54,0,0,1-.05-.23h0M14,9.77H14a.17.17,0,0,1,.14.13.33.33,0,0,1,0,.15h-.05S14,10,14,10a.85.85,0,0,1-.06-.17h0"/></g></g></g></g></g></svg>