<svg xmlns="http://www.w3.org/2000/svg" xmlns:xlink="http://www.w3.org/1999/xlink" viewBox="0 0 29.46 17.19"><defs><style>.cls-1{fill:none;}.cls-2{clip-path:url(#clip-path);}.cls-3{fill:#fff;}.cls-4{fill:#3d9546;}.cls-5{fill:#1f189b;}</style><clipPath id="clip-path"><rect class="cls-1" width="29.46" height="17.19"/></clipPath></defs><g id="Layer_2" data-name="Layer 2"><g id="cá»"><g id="south_africa" data-name="south africa"><g class="cls-2"><rect class="cls-3" width="29.46" height="17.19"/><rect class="cls-4" y="12.03" width="29.46" height="5.16"/><rect class="cls-5" width="29.46" height="5.16"/><g class="cls-2"><path d="M14.72,5.48a.34.34,0,0,0-.2.11V6.75l-.36.38h.29v.66l-1.75,2.36-.26-.09L12,11a5.47,5.47,0,0,0,2.74.68A5.08,5.08,0,0,0,17.49,11L17,10l-.23.1L15,7.8V7.11h.3l-.41-.38V5.58s-.1-.11-.2-.1Z"/><path d="M14.67,11.72A5.49,5.49,0,0,1,12,11l.45-1,.27.08,1.74-2.35V7.13h-.28l.35-.4V5.59a.29.29,0,0,1,.21-.13.29.29,0,0,1,.2.11V6.73l.39.37-.3,0V7.8l1.78,2.34L17,10l.49,1a5.05,5.05,0,0,1-2.77.73ZM12,11a5.7,5.7,0,0,0,2.66.67h.07A5.25,5.25,0,0,0,17.49,11L17,10.05l-.21.1L15,7.8V7.11h.31l-.42-.36V5.58h0a.31.31,0,0,0-.18-.09.35.35,0,0,0-.19.1V6.75l-.37.39.29,0v.67l-1.75,2.37-.28-.08L12,11Z"/><path d="M15.37,8.31H14.08l0,0a3.63,3.63,0,0,1-.37-1.61,1,1,0,0,1,1-1h0c.63,0,1,.32,1.06,1a3.58,3.58,0,0,1-.38,1.64v0Zm-1.21-.12h1.13a3.39,3.39,0,0,0,.34-1.53c-.09-.62-.37-.9-.91-.9s-.84.33-.91.92a3.59,3.59,0,0,0,.35,1.51Z"/><path class="cls-3" d="M12.6,10.46l-.17.32.25-.06Z"/><polygon class="cls-3" points="12.74 10.84 12.48 10.92 12.8 11.05 12.74 10.84"/><polygon class="cls-3" points="12.86 10.47 12.99 10.86 13.32 10.76 13.23 10.58 12.86 10.47"/><polygon class="cls-3" points="13.07 10.99 13.11 11.15 13.54 11.26 13.37 10.9 13.07 10.99"/><polygon class="cls-3" points="13.54 10.66 13.69 11.03 14.02 10.9 13.91 10.74 13.54 10.66"/><polygon class="cls-3" points="13.75 11.16 13.81 11.3 14.31 11.37 14.1 11.04 13.75 11.16"/><polygon class="cls-3" points="14.24 10.77 14.42 11.09 14.89 10.92 14.84 10.8 14.24 10.77"/><polygon class="cls-3" points="14.51 11.21 14.61 11.38 15.19 11.36 14.97 11.04 14.51 11.21"/><polygon class="cls-3" points="15.12 10.78 15.28 11.05 15.65 10.88 15.55 10.73 15.12 10.78"/><polygon class="cls-3" points="15.73 10.99 15.36 11.17 15.46 11.33 15.95 11.25 15.73 10.99"/><polygon class="cls-3" points="15.85 10.7 16.04 10.94 16.35 10.7 16.24 10.59 15.85 10.7"/><polygon class="cls-3" points="16.42 10.83 16.12 11.05 16.2 11.19 16.61 11.09 16.42 10.83"/><polygon class="cls-3" points="16.82 10.36 16.9 10.47 16.69 10.77 16.48 10.5 16.82 10.36"/><polygon class="cls-3" points="16.96 10.62 17.09 10.88 16.84 10.96 16.82 10.84 16.96 10.62"/></g></g></g></g></g></svg>