<svg xmlns="http://www.w3.org/2000/svg" xmlns:xlink="http://www.w3.org/1999/xlink" viewBox="0 0 29.46 17.19"><defs><style>.cls-1{fill:none;}.cls-2{clip-path:url(#clip-path);}.cls-3{fill:#ae0037;}.cls-4{fill:#fff;}.cls-5{fill:#192967;}</style><clipPath id="clip-path"><rect class="cls-1" width="29.46" height="17.19"/></clipPath></defs><g id="Layer_2" data-name="Layer 2"><g id="cá»"><g id="west_africa" data-name="west africa"><g class="cls-2"><polygon class="cls-3" points="7.81 0 0 9.38 0 10.94 0.78 11.72 0 12.5 0 14.06 0.78 14.84 0 15.62 0 17.19 29.46 17.19 29.46 15.62 28.68 14.84 29.46 14.06 29.46 12.5 28.68 11.72 29.46 10.94 29.46 9.38 28.68 8.59 29.46 7.81 29.46 6.25 28.68 5.47 29.46 4.69 29.46 3.13 28.68 2.34 29.46 1.56 29.46 0 7.81 0"/><path class="cls-4" d="M0,15.62H29.46V14.06H0ZM0,12.5H29.46V10.94H0ZM7.81,1.56,0,7.81V9.38H29.46V7.81H7.81L6.25,6.25H29.46V4.69H6.25V3.12H29.46V1.56Z"/><rect class="cls-5" width="7.81" height="7.81"/><polygon class="cls-4" points="3.91 1.56 3.18 3.79 4.52 4.23 3.91 1.56"/><polygon class="cls-4" points="3.91 1.56 4.63 3.79 3.29 4.23 3.91 1.56"/><polygon class="cls-4" points="6.13 3.18 3.79 3.18 3.79 4.59 6.13 3.18"/><polygon class="cls-4" points="6.13 3.18 4.24 4.56 3.41 3.42 6.13 3.18"/><polygon class="cls-4" points="5.28 5.8 4.56 3.57 3.22 4.01 5.28 5.8"/><polygon class="cls-4" points="5.28 5.8 3.39 4.42 4.21 3.29 5.28 5.8"/><polygon class="cls-4" points="2.53 5.8 4.42 4.42 3.6 3.29 2.53 5.8"/><polygon class="cls-4" points="2.53 5.8 3.25 3.57 4.59 4.01 2.53 5.8"/><polygon class="cls-4" points="1.68 3.18 3.57 4.56 4.4 3.42 1.68 3.18"/><polygon class="cls-4" points="1.68 3.18 4.02 3.18 4.02 4.59 1.68 3.18"/></g></g></g></g></svg>