<svg xmlns="http://www.w3.org/2000/svg" viewBox="0 0 29.5 17.25"><defs><style>.cls-1{fill:#ff2424;}.cls-2{fill:#55b563;}.cls-3{fill:#fff;}</style></defs><g id="Layer_2" data-name="Layer 2"><g id="cá»"><g id="north_africa" data-name="north africa"><rect y="4.25" width="29.5" height="8.5"/><rect class="cls-1" width="29.5" height="4.5"/><rect class="cls-2" y="12.25" width="29.5" height="5"/><polygon class="cls-3" points="17.13 7.01 17.71 8.01 18.7 7.68 18.06 8.62 18.64 9.61 17.67 9.2 17.03 10.14 17.07 8.95 16.1 8.54 17.09 8.21 17.13 7.01"/><path class="cls-3" d="M15.4,10.42a1.77,1.77,0,0,1-1.71-1.83A1.77,1.77,0,0,1,15.4,6.75a1.6,1.6,0,0,1,1,.33,1.82,1.82,0,0,0-1.44-.74A2.11,2.11,0,0,0,13,8.59a2.12,2.12,0,0,0,1.94,2.26,1.82,1.82,0,0,0,1.45-.77A1.58,1.58,0,0,1,15.4,10.42Z"/></g></g></g></svg>