<svg xmlns="http://www.w3.org/2000/svg" xmlns:xlink="http://www.w3.org/1999/xlink" viewBox="0 0 29.46 17.19"><defs><style>.cls-1{fill:none;}.cls-2{clip-path:url(#clip-path);}.cls-3{fill:#c0001a;}.cls-4{fill:#f8e72a;}</style><clipPath id="clip-path"><rect class="cls-1" width="29.46" height="17.19"/></clipPath></defs><g id="Layer_2" data-name="Layer 2"><g id="Layer_1-2" data-name="Layer 1"><g id="EUROPE"><g id="MACEDONIA"><g class="cls-2"><rect class="cls-3" width="29.46" height="17.19"/><path class="cls-4" d="M25,17.19h4.42L14.73,8.59ZM0,0,14.73,8.59,4.42,0Z"/><path class="cls-4" d="M13.26,17.19H16.2l-1.47-8.6ZM13.26,0l1.47,8.59L16.2,0Z"/><path class="cls-4" d="M0,17.19H4.42l10.31-8.6ZM25,0,14.73,8.59,29.46,0Z"/><path class="cls-4" d="M0,10.31,14.73,8.59,0,6.88ZM14.73,8.59l14.73,1.72V6.88Z"/><g class="cls-2"><path class="cls-3" d="M14.73,5.52a3.07,3.07,0,1,1-3.07,3.07,3.07,3.07,0,0,1,3.07-3.07"/><path class="cls-4" d="M14.73,6.14a2.46,2.46,0,1,1-2.45,2.45,2.46,2.46,0,0,1,2.45-2.45"/></g></g></g></g></g></g></svg>