<svg xmlns="http://www.w3.org/2000/svg" xmlns:xlink="http://www.w3.org/1999/xlink" viewBox="0 0 29.46 17.19"><defs><style>.cls-1{fill:none;}.cls-2{clip-path:url(#clip-path);}.cls-3{fill:#bd0034;}.cls-4{fill:#fff;}.cls-5{fill:#efecec;}.cls-6{fill:#d30038;}.cls-7{fill:#91857c;}.cls-8{fill:#cacaca;}.cls-9{fill:#cecece;}</style><clipPath id="clip-path"><rect class="cls-1" width="29.46" height="17.19"/></clipPath></defs><g id="Layer_2" data-name="Layer 2"><g id="Layer_1-2" data-name="Layer 1"><g id="EUROPE"><g id="MALTA"><g class="cls-2"><rect class="cls-3" x="14.73" width="14.73" height="17.19"/><rect class="cls-4" width="14.73" height="17.19"/><g class="cls-2"><path class="cls-5" d="M3.41,2.62a.07.07,0,0,1-.14,0s0-.05.07-.05.07,0,.07.05Z"/><path class="cls-6" d="M1.23,2.38V3.64H2.49a.45.45,0,0,0,.43.42V5.33H4.18V4.06a.45.45,0,0,0,.42-.42H5.87V2.38H4.6A.45.45,0,0,0,4.18,2V.69H2.92V2a.45.45,0,0,0-.43.43Z"/><path class="cls-3" d="M1.27,2.42V3.6H2.54A.45.45,0,0,0,3,4V5.29H4.14V4a.45.45,0,0,0,.42-.42H5.83V2.42H4.56A.45.45,0,0,0,4.14,2V.73H3V2a.45.45,0,0,0-.42.42Z"/><path class="cls-7" d="M1.31,2.46v1.1H2.58A.45.45,0,0,0,3,4V5.24H4.1V4a.45.45,0,0,0,.42-.42H5.78V2.46H4.52A.45.45,0,0,0,4.1,2V.77H3V2a.45.45,0,0,0-.42.42Z"/><path class="cls-8" d="M1.35,2.5v1H2.62A.45.45,0,0,0,3,3.94V5.2h1V3.94a.45.45,0,0,0,.43-.43H5.74v-1H4.48a.45.45,0,0,0-.43-.42V.81H3V2.08a.45.45,0,0,0-.42.42Z"/><path class="cls-9" d="M3.05,2c.08.08,0,.26-.13.41s-.33.21-.4.13,0-.25.13-.4S3,1.9,3.05,2Z"/><path class="cls-7" d="M3,2.07c.08.07.06.21,0,.31a.23.23,0,0,1-.32,0,.23.23,0,0,1,0-.31c.1-.1.24-.12.31,0Z"/><polygon class="cls-9" points="2.59 2.29 2.62 2.26 2.74 2.32 2.68 2.2 2.71 2.17 2.83 2.41 2.59 2.29"/><rect class="cls-9" x="2.85" y="2.06" width="0.04" height="0.25" transform="translate(-0.69 2.73) rotate(-45.94)"/><path class="cls-9" d="M4.58,2.51c-.07.08-.25,0-.4-.13S4,2.05,4,2s.26,0,.41.14.2.33.13.4Z"/><path class="cls-7" d="M4.49,2.42c-.07.08-.21.06-.31,0a.23.23,0,0,1,0-.31.23.23,0,0,1,.32,0,.23.23,0,0,1,0,.31Z"/><polygon class="cls-9" points="4.27 2.05 4.3 2.08 4.24 2.2 4.36 2.14 4.39 2.17 4.15 2.29 4.27 2.05"/><rect class="cls-9" x="4.25" y="2.31" width="0.25" height="0.04" transform="translate(-0.38 3.74) rotate(-44.55)"/><path class="cls-9" d="M4,4C4,4,4,3.79,4.18,3.64s.33-.21.4-.14,0,.26-.13.41S4.12,4.11,4,4Z"/><path class="cls-7" d="M4.13,4a.23.23,0,0,1,0-.31.23.23,0,0,1,.31-.05.25.25,0,0,1,0,.32.23.23,0,0,1-.32,0Z"/><polygon class="cls-9" points="4.51 3.73 4.48 3.76 4.36 3.7 4.42 3.82 4.39 3.85 4.27 3.61 4.51 3.73"/><polygon class="cls-9" points="4.33 3.91 4.3 3.94 4.12 3.76 4.15 3.73 4.33 3.91"/><path class="cls-9" d="M2.52,3.5c.07-.07.25,0,.4.14s.21.33.13.4-.25,0-.4-.13-.21-.33-.13-.41Z"/><path class="cls-7" d="M2.6,3.59a.24.24,0,0,1,.32.05c.1.1.12.24,0,.31s-.21.06-.31,0a.24.24,0,0,1,0-.32Z"/><polygon class="cls-9" points="2.83 3.97 2.8 3.94 2.86 3.82 2.74 3.88 2.71 3.85 2.95 3.73 2.83 3.97"/><rect class="cls-9" x="2.6" y="3.66" width="0.25" height="0.04" transform="translate(-1.8 2.97) rotate(-44.55)"/><path class="cls-7" d="M3.55,3.9a.89.89,0,1,1,0-1.78.88.88,0,0,1,.63.26A.86.86,0,0,1,4.44,3a.89.89,0,0,1-.89.89Zm0-1.77A.88.88,0,1,0,4.43,3a.84.84,0,0,0-.26-.62.87.87,0,0,0-.62-.26Z"/><path class="cls-7" d="M3.55,3.69A.68.68,0,1,1,4.23,3a.68.68,0,0,1-.68.68Zm0-1.35A.67.67,0,1,0,4.22,3a.67.67,0,0,0-.67-.67Z"/><path d="M3.25,3.73s0,0,0,0a0,0,0,0,1,0,0s0,0,0,0a.05.05,0,0,1,0,0h0a.05.05,0,0,1,0,0Z"/><path d="M3.93,3.73s0,0,0,0a0,0,0,0,1-.05,0s0,0,0,0a.05.05,0,0,1,0,0h.05a.05.05,0,0,1,0,0Z"/><path d="M3.52,3.73v0H3.46s0,0,0,0h.06v0s0,.05,0,0v0h0c.06,0,.06,0,0,0h0v0s-.06,0-.06,0Z"/><path class="cls-7" d="M4,3.14s0,0,0,0h0l0,0h0a.08.08,0,0,1,0,0s0,0,0,0Z"/><path class="cls-1" d="M4,3.14s0,0,0,0h0l0,0h0a.08.08,0,0,1,0,0s0,0,0,0Z"/><path class="cls-7" d="M4,3.12s-.07,0-.07,0a.15.15,0,0,0,.07,0Z"/><path class="cls-1" d="M4,3.12s-.07,0-.07,0a.15.15,0,0,0,.07,0Z"/><polygon class="cls-7" points="3.2 3.51 3.92 3.51 3.98 3.47 3.89 3.42 3.74 3.37 3.69 3.34 3.58 3.34 3.49 3.39 3.37 3.4 3.34 3.44 3.25 3.44 3.11 3.44 3.35 3.48 3.15 3.47 3.2 3.51"/><path d="M3.92,3.52H3.2l-.05,0h.2l-.24,0,.23,0,0,0h.12l.09-.05h.11l.06,0L4,3.46l-.06.06Zm-.77,0,.06,0h.71l.06,0-.29-.12H3.58l-.09,0-.12,0,0,0H3.11l.24,0Z"/><path class="cls-7" d="M3.59,3.31c-.09-.05-.11.07-.15.1s.09,0,.13-.07.09,0,.09,0,.06.09.13,0a0,0,0,0,0,0,0s0,0,0,0l0,0h0s.11-.1.11-.1l0,0h0a0,0,0,0,0,0,0h0a0,0,0,0,0,0,0s0,.07,0,.07L4,3.32s-.07-.09,0-.11,0,0,.08,0a.1.1,0,0,0,.06-.1l0-.06H4L4,3s0,0,0,.05,0,0,0,0,0,0,0,0,0,0,0,0a0,0,0,0,0,0,0s0,0,0,0-.06-.07-.1,0,0,.09,0,.09a.14.14,0,0,0-.06.07c-.09-.08-.14,0-.24,0Z"/><path d="M3.75,3.43a.14.14,0,0,1-.09-.05s-.07,0-.09,0l0,0a.18.18,0,0,1-.09,0h0l.08-.05,0,0c0,.07.09,0,.09,0s.07.08.13,0h.08s.06,0,.06,0S4,3.29,4,3.29l0,0h0v0s0,0,0,.06L4,3.33l0-.06s0,0,0-.06H4A.09.09,0,0,0,4,3.14s0,0,0-.06a.21.21,0,0,1,0,.06.1.1,0,0,1-.06.1l-.05,0s0,0,0,0,0,0,0,.06l0,0s0-.07,0-.07l0,0,0,.06s0,.1-.1.1,0,0,0,0l0,0h-.1Zm-.3,0a.08.08,0,0,1,0,0s.06-.09.12-.06h.05a.19.19,0,0,1,.19,0,.23.23,0,0,1,.06-.07h0a.07.07,0,0,1,0-.06l0,0,0,0,0,0s0,0,0,0l0,0,0,0,0,0s0,0,0,0l0,0a.1.1,0,0,0,0,.06s0,0-.06.08a.19.19,0,0,0-.19,0H3.59c-.06,0-.09,0-.12.06l0,0ZM4,3.14H4s0,0,0,0S4,3,4,3H4s0,0,0,.05,0,0,0,0H4Z"/><path class="cls-7" d="M3.46,3.18s0,.09,0,.1,0,0,0,0a.28.28,0,0,0,.11,0s0,0,0,0a.07.07,0,0,0,.07,0,.32.32,0,0,0-.08-.06H3.55s0,0,0,0,0-.09,0-.11a.05.05,0,0,0-.07.08Z"/><path d="M3.73,3.3a.06.06,0,0,1-.06,0l-.12,0h0l0,0a.1.1,0,0,0,0-.07.07.07,0,0,1,0-.06.08.08,0,0,1,.1,0s0,.09,0,.11a.11.11,0,0,0,.11,0l.08.07Zm-.06,0a.05.05,0,0,0,.06,0h0s-.05,0-.08-.06l-.09,0,0,0s0-.09,0-.11a.06.06,0,0,0-.08,0s0,0,0,.05a.07.07,0,0,1,0,.07v0l0,0h.15Z"/><path class="cls-7" d="M3.22,3.07c-.05,0-.13-.06-.17,0s0,.1,0,.13,0,.05,0,.07,0,0,0,0H3v0s0,0,0,0,0,0,0,0a.35.35,0,0,1,0-.06h0s0-.05,0-.05h0s0,0,0,0a.05.05,0,0,0,0,0s-.07-.07-.05-.09.09.05.13,0,0,0,0,0,0,0,0,0Z"/><path d="M3.07,3.38h0l0-.06H3l0,.06V3.32h0a.23.23,0,0,0,0,0v0s0,0,0,0,0,0,0,0l0,0h0s0,0,0,0,0,0,0,.05,0,0,0,.06,0,.06,0,.07l0,0a.23.23,0,0,0,0,0ZM3,3.28H3s0,0,0,0l.06-.05A.36.36,0,0,1,3,3.1a.07.07,0,0,1,0-.06.13.13,0,0,1,.09,0l.06,0h0v0h0l-.07,0L3.07,3s0,0,0,.06a.09.09,0,0,0,0,.07s0,0,0,.05,0,.06,0,.06Z"/><path class="cls-7" d="M3.46,2.57a1.47,1.47,0,0,1-.27-.06,0,0,0,0,0,0,0s-.06.05,0,.06S3,2.68,3,2.7s0,.06,0,.08,0,.05,0,0,0,0,0,0,.14-.06.22-.06a.29.29,0,0,0,.13-.08h0Z"/><path d="M3.06,2.89a.07.07,0,0,1-.06,0l0,0s0,0,0,0,0-.08,0-.09,0,0,0,0a.07.07,0,0,1,.05,0l0,0a0,0,0,0,1,0,0,0,0,0,0,1,0,0,.37.37,0,0,0,.15,0l.12,0-.07.15h0a.35.35,0,0,1-.13.07s-.06,0-.08,0-.05.05-.08.05ZM3,2.81H3l0,0s.09,0,.13,0,.05,0,.08,0a.29.29,0,0,0,.14-.08h0l.06-.14-.11,0-.15,0,0,0s0,0,0,0h0l0,0s-.06,0-.07,0v0s0,.05,0,.08v0Z"/><path class="cls-7" d="M3.63,2.5a.09.09,0,0,1-.09.09.09.09,0,1,1,0-.18.09.09,0,0,1,.09.09Z"/><path d="M3.54,2.6a.1.1,0,0,1-.1-.1c0-.1.19-.1.19,0a.1.1,0,0,1-.09.1Zm0-.19a.09.09,0,0,0-.09.09c0,.1.17.1.17,0a.08.08,0,0,0-.08-.09Z"/><path class="cls-7" d="M3.37,3.23c-.05,0-.15-.07-.16-.15s.33-.1.35-.26a.59.59,0,0,1,.07-.29.17.17,0,0,1,.07,0,.1.1,0,0,1,0,0,.36.36,0,0,1,.15,0,.09.09,0,0,1,0,.05h0a0,0,0,0,1-.05,0l-.07,0s.1.1.08.13a.22.22,0,0,1,0,.06.36.36,0,0,0,.09-.07.78.78,0,0,1,.14,0l.08.06s-.05,0-.07,0-.08-.06-.15,0a.17.17,0,0,1-.08.11A.17.17,0,0,1,4,3L4.05,3l0,.09A.07.07,0,0,1,4,3.07S4,3,4,3H3.9a.43.43,0,0,1-.17,0l-.14.08s-.06,0-.06,0h0s0,.06,0,.06a.09.09,0,0,1,0,.09s0,.06.08.08,0,0,.05,0a.27.27,0,0,1,0,.07H3.55l0,0c-.1-.08-.15,0-.16-.07s0-.07,0-.1Z"/><path d="M3.58,3.43h0a.43.43,0,0,0-.17-.08h0a.25.25,0,0,1,.15.07l.06,0h0s0,0,0,0a.11.11,0,0,1,0,0Zm0-.08H3.51s-.07,0-.08-.08a.11.11,0,0,0,0-.06h0s0,.06,0,.07a.13.13,0,0,0,.07.05h.06Zm-.2,0v0s0,0,0-.06a.2.2,0,0,1-.16-.15.23.23,0,0,1,.2-.16c.08,0,.14,0,.15-.1a.47.47,0,0,1,.07-.29s.06,0,.06,0a0,0,0,0,1,0,0v0h0a.11.11,0,0,0-.06,0,.41.41,0,0,0-.07.29c0,.08-.08.1-.15.11s-.18,0-.2.15a.19.19,0,0,0,.16.14.17.17,0,0,1,0,.07v0Zm.18-.2h0l.06,0,.08,0,.14,0H4a.1.1,0,0,1,.06,0L4,3H3.87a.24.24,0,0,1-.12,0,.15.15,0,0,0-.09,0l-.06,0Zm.55,0s0,0,0,0a.06.06,0,0,0,0,0l0-.08h0L4,3l-.06,0H4L4.05,3l0,.08Zm-.21-.19a.23.23,0,0,0,0-.1.25.25,0,0,1,.12,0l0,0h0l0,0-.05-.07,0,0-.08,0a.24.24,0,0,1-.09.07.23.23,0,0,0,0,0s-.06-.11-.09-.14,0,0,.07,0h.06s0,0,0-.06h0s0,0,0,.06l-.06,0-.08,0s.1.1.08.14,0,0,0,0,.07,0,.09-.07l.08,0,.06,0,.08.07s-.06,0-.08,0H4a.19.19,0,0,0-.08,0,.44.44,0,0,1-.08.1Z"/><path class="cls-7" d="M3.14,2.84h0l.07,0L3.38,3l0,.06L3.34,3l-.11-.1-.07,0a.15.15,0,0,1,0,0Z"/><path d="M3.43,3.05,3.34,3l-.18-.14s0,0,0,0h0l.2.12.05.08Zm-.28-.21h0L3.34,3l.08,0,0-.06-.23-.14Z"/><path class="cls-7" d="M3.92,3.06s-.16.12-.16.12l.09.09a.33.33,0,0,1,.07-.21Z"/><path d="M3.85,3.28l-.09-.1s.1-.13.15-.13h0c-.05,0-.14.12-.15.12l.08.09a.41.41,0,0,1,.05-.19.5.5,0,0,0,0,.19Z"/><path class="cls-7" d="M3.37,2.68a.09.09,0,0,0,0,.12.23.23,0,0,0,.06.13,1,1,0,0,0,.19,0c0,.07,0,.13.1.17v0h.11l-.1-.09a.49.49,0,0,1-.06-.16.17.17,0,0,0-.12-.05V2.64l-.05,0h0s0,0,0,0h0a.06.06,0,0,1,0,0s0-.08-.06-.08,0,0,0,.06v0H3.4s-.07,0-.07.05a.07.07,0,0,0-.05,0s0,0,0,0,0,.13,0,.13,0,0,0,0v0h.05s0,0,0,0h0s0,0,0,0v0s.06,0,.06-.08.06,0,.08,0Z"/><path d="M3.82,3.17l-.06,0h.07l-.06-.05,0,0a1.66,1.66,0,0,1-.05-.16.17.17,0,0,0-.12,0V2.64l0,0h0l.07-.07s0,0,0,0a.07.07,0,0,0-.06,0h0l0,0a0,0,0,0,0,0,0h0l0,.05H3.4s-.07,0-.07,0,0,0,0,0,0,0-.06,0,0,.13,0,.13v0h0s0-.11.06-.13,0,0,0,0a.07.07,0,0,1,.05,0s0,0,.07-.05h.05l0,0,0,0a.05.05,0,0,1,0,0,.09.09,0,0,1,.07,0,.09.09,0,0,1,0,.05l0,0,0,0,0,0v.22a.16.16,0,0,1,.12.05.78.78,0,0,0,.06.16l0,0c.06,0,.07.05.07.06ZM3.59,3l-.16,0s-.06-.09-.06-.13a.09.09,0,0,1,0-.1.05.05,0,0,1-.05,0s-.06.07-.06.08v0l0,.05,0,0,0,0h0l0,0a.24.24,0,0,1,0-.07.19.19,0,0,0,.06-.08.07.07,0,0,0,.07,0h0v0s0,.08,0,.1,0,.12.06.12L3.6,3h0Z"/><path class="cls-7" d="M3.27,2.53a.08.08,0,0,1,.06,0s0,0,.07,0,.09,0,.09,0a0,0,0,0,1,0,0,.06.06,0,0,1,.06.06s-.08,0-.12,0l-.08,0a.86.86,0,0,0-.13,0Z"/><path d="M3.4,2.56h0l-.07,0h.07l0,0h0a.1.1,0,0,1,.05,0h.14s0-.06,0-.06,0,0,0,0l-.06,0H3.37a0,0,0,0,0,0,0s0,0-.05,0a0,0,0,0,1,.05,0h0s0,0,.08,0h.08s0,0,0,0,.05,0,.06,0v0s0,0-.06,0H3.46l0,0Z"/><path class="cls-7" d="M3.38,2.58a.09.09,0,0,1,.07,0l.06.05,0,0h0v.19a.9.9,0,0,1-.1-.09s0-.07,0-.1-.05,0-.05-.07Z"/><path d="M3.56,2.85h0l-.05,0a.08.08,0,0,1,0,0s0,0,0,0,0,0,0-.06-.05-.06-.05-.07l.05,0,0,0a.11.11,0,0,0-.06,0s0,0,0,0,0,.07,0,.09a0,0,0,0,1,0,0l.06.06,0,0v0Z"/><path class="cls-7" d="M3.48,2.63h0s0,0,0,0h0l0,0Z"/><path class="cls-1" d="M3.48,2.63h0s0,0,0,0h0l0,0Z"/><path class="cls-7" d="M3.66,2.51h0l-.06.1,0,0V2.7l0,.08v.05l0,0a.35.35,0,0,0,0-.06.11.11,0,0,1,0-.09c0-.05.07-.09.08-.13Z"/><path d="M3.55,2.84V2.78l0-.07V2.62l0,0,.06-.09h0l0,.06,0,.08a.13.13,0,0,0,0,.08s0,0,0,.06,0,0,0,0Zm.11-.33-.08.1,0,.09,0,.07v0l0,0s0,0,0-.06a.11.11,0,0,1,0-.09.35.35,0,0,1,0-.08l0-.05Z"/><path class="cls-7" d="M3.8,2.6a.48.48,0,0,1-.23.17s0-.09,0-.09h0s0,.1,0,.1a.5.5,0,0,0,.26-.18Z"/><path d="M3.56,2.79l0,0s0-.09,0-.09h0a.11.11,0,0,0,0,.08h0a.56.56,0,0,0,.23-.14.46.46,0,0,1-.23.15Zm0,0s0,0,0,0A.49.49,0,0,0,3.8,2.6s0,0,0,0a.54.54,0,0,1-.23.15Z"/><path class="cls-7" d="M3.86,3.33h0a0,0,0,0,0,0,0s0-.05,0,0a0,0,0,0,0,0,0s0,0,0,0,0,0,0,0,0-.05-.08,0c.17-.08.31.12.31.12Z"/><path d="M3.83,3.33a0,0,0,0,0,0,0s0,0,0,0h0l0,0h0l0,0a0,0,0,0,0,0,0,.1.1,0,0,0-.08,0c.17-.08.31.12.31.12a.35.35,0,0,0-.23-.13H3.57a.08.08,0,0,1,.07,0s0,0,0,0l.06,0s0,0,0,.05,0,0,0,0h0Z"/><path class="cls-7" d="M4,3.35s0,0,.06,0,0,0,0,0,0,0,0,0,0,0,0,0,0,.08-.14,0Z"/><path d="M4,3.42l-.08,0a.13.13,0,0,0,.1,0,0,0,0,0,0,0,0l0,0s0,0,0,0H4s-.06,0-.07,0H4l.06,0s0,0,0,0H4l0,0a.07.07,0,0,1,0,0Z"/><path class="cls-7" d="M3.63,3.37v0l0,0s0,0,0,0l.06,0a0,0,0,0,0,0,0h0s0,0,0,0,0,0,0,0-.05,0-.06,0,0,0,0-.05Z"/><path d="M3.6,3.45l0-.09h0l0,0a.08.08,0,0,0,.07,0l0,0v0l0,0h0s0,0,0,0,0,0,0,0Z"/><path d="M2.72,3.23l.06,0v0a0,0,0,0,1,0,0h0v0h.06s0,0,0,0h0v.06h0l-.09,0h0l0-.11h0Zm0-.27,0,0h.06l0,0s0,0,0,.06,0,0,0,0a.07.07,0,0,1-.06,0L2.7,3a.13.13,0,0,1,0-.06Zm0,0,0,0,0,0h.06s0,0,0,0a.05.05,0,0,0,0,0l0,0H2.71a.05.05,0,0,0,0,0Zm.22-.28v0l-.09,0h0s0,0,0,0h0l0,.06h0l-.09,0h0a0,0,0,0,1,0,0h0l0,0s0,0,0,0h0s0,0,0,0v0l.05,0h0s0,0,0,0Zm-.11.07h0v0l0,0h0s0,0,0,0v0Zm.33-.5,0,0h0s0,0,0,0a.05.05,0,0,0,0,0,.08.08,0,0,0,0,0l0,0h.08l0,0h0l.05,0h0v0h0l0,0s0,0,0,0,0,0,0,0a.06.06,0,0,1-.07,0s0,0,0,0,0,0,0,0,0,0,0,0l0,0h0Zm.24,0H3.32v0h0v0l0-.14h0l.08.11,0,0h0l-.06,0h0Zm0,0,0,0v.06Zm.27,0h0l0,0H3.53V2.18h0v.11h.07l0,0Zm.2,0h0l0,0-.12,0h0v0l0-.09s0,0,0,0h0l.07,0h0l0,.09h.07s0,0,0,0ZM4,2.41l0,0h0s0,0,0,0h0l0,0h0L4,2.31H4l0,.14v0H4l0,0H4v0Zm0,0,0-.06L4,2.37Zm.18,0,0,0,0,.14.07,0v0h0l0,0h0l-.11.07h0l0-.15-.07,0h0s0,0,0,0h0l0,0h0l.08-.06h0Zm.19.36h0v0l-.11,0h0l0-.06h0l.11,0v0h0Zm-.12.27V3L4.32,3H4.25V2.91h.14v0h0V3h0l0,0,0,0s0,0,0,0v0Zm.08-.12h0s0,0,0,0,0,0,0,0,0,0,0,0,0,0,0,0v0Zm0,.32,0,.05h0l0,0H4.22l0-.06h0l.07,0h0l0,.07h0s0,0,0,0l0,0,0,0h0Z"/></g></g></g></g></g></g></svg>