<svg xmlns="http://www.w3.org/2000/svg" xmlns:xlink="http://www.w3.org/1999/xlink" viewBox="0 0 29.46 17.19"><defs><style>.cls-1{fill:none;}.cls-2{clip-path:url(#clip-path);}.cls-3{fill:#22368f;}.cls-4{fill:#fff;}.cls-5{fill:#ce731e;}</style><clipPath id="clip-path"><rect class="cls-1" width="29.46" height="17.19"/></clipPath></defs><g id="Layer_2" data-name="Layer 2"><g id="cá»"><g id="micronesia"><g class="cls-2"><rect class="cls-3" width="29.46" height="17.19"/><polygon class="cls-4" points="6.27 11.6 6.05 7.94 5.29 9.96 5.63 7.83 4.37 9.58 5.25 7.61 3.58 8.97 4.94 7.3 2.97 8.18 4.72 6.92 2.59 7.26 4.6 6.5 0.95 6.28 4.6 6.05 2.59 5.29 4.72 5.63 2.97 4.37 4.94 5.25 3.58 3.58 5.25 4.94 4.37 2.97 5.63 4.72 5.29 2.59 6.05 4.61 6.27 0.95 6.49 4.61 7.26 2.59 6.92 4.72 8.18 2.97 7.3 4.94 8.97 3.58 7.61 5.25 9.58 4.37 7.83 5.63 9.96 5.29 7.94 6.05 11.6 6.28 7.94 6.5 9.96 7.26 7.83 6.92 9.58 8.18 7.61 7.3 8.97 8.97 7.3 7.61 8.18 9.58 6.92 7.83 7.26 9.96 6.49 7.94 6.27 11.6"/><polygon class="cls-4" points="0 16.36 0 16.91 29.46 7.01 29.46 0.28 0 16.36"/><polygon class="cls-5" points="0 16.36 0 16.64 29.46 3.64 29.46 0.28 0 16.36"/></g></g></g></g></svg>