<svg xmlns="http://www.w3.org/2000/svg" xmlns:xlink="http://www.w3.org/1999/xlink" viewBox="0 0 29.46 17.19"><defs><style>.cls-1{fill:none;}.cls-2{clip-path:url(#clip-path);}.cls-3{fill:#3d9635;}.cls-4{fill:#f4c327;}</style><clipPath id="clip-path"><rect class="cls-1" width="29.46" height="17.19"/></clipPath></defs><g id="Layer_2" data-name="Layer 2"><g id="cá»"><g id="west_africa" data-name="west africa"><g class="cls-2"><rect class="cls-3" width="29.46" height="17.19"/><g class="cls-2"><path class="cls-4" d="M14.73.9A5.55,5.55,0,1,1,9.18,6.45,5.54,5.54,0,0,1,14.73.9"/><path class="cls-3" d="M9.36,5A5.37,5.37,0,0,0,20.1,5V.72H9.36"/><polygon class="cls-4" points="14.73 2.86 14.07 4.91 15.09 5.24 14.73 2.86"/><polygon class="cls-4" points="14.73 2.86 15.39 4.91 14.37 5.24 14.73 2.86"/><polygon class="cls-4" points="16.77 4.35 14.63 4.35 14.63 5.42 16.77 4.35"/><polygon class="cls-4" points="16.77 4.35 15.04 5.61 14.4 4.74 16.77 4.35"/><polygon class="cls-4" points="12.69 4.35 14.43 5.61 15.06 4.74 12.69 4.35"/><polygon class="cls-4" points="12.69 4.35 14.84 4.35 14.84 5.42 12.69 4.35"/><polygon class="cls-4" points="15.99 6.75 15.33 4.71 14.31 5.04 15.99 6.75"/><polygon class="cls-4" points="15.99 6.75 14.26 5.49 14.89 4.62 15.99 6.75"/><polygon class="cls-4" points="13.47 6.75 15.21 5.49 14.57 4.62 13.47 6.75"/><polygon class="cls-4" points="13.47 6.75 14.13 4.71 15.15 5.04 13.47 6.75"/></g></g></g></g></g></svg>