<svg xmlns="http://www.w3.org/2000/svg" xmlns:xlink="http://www.w3.org/1999/xlink" viewBox="0 0 29.46 17.19"><defs><style>.cls-1{fill:none;}.cls-2{clip-path:url(#clip-path);}.cls-3{fill:#efd928;}.cls-4{fill:#1f00af;}.cls-5{fill:#d00524;}.cls-6{fill:#f9f92b;}.cls-7{fill:#7f6332;}.cls-8{fill:#c11b2c;}.cls-9{fill:#285f37;}.cls-10{fill:#2e59a0;}</style><clipPath id="clip-path"><rect class="cls-1" width="29.46" height="17.19"/></clipPath></defs><g id="Layer_2" data-name="Layer 2"><g id="cá»"><g id="east_euro" data-name="east euro"><g class="cls-2"><rect class="cls-3" width="29.46" height="17.19"/><rect class="cls-4" width="9.82" height="17.19"/><rect class="cls-5" x="19.64" width="9.82" height="17.19"/><g class="cls-2"><path d="M13.75,3.85a.22.22,0,0,0-.15,0,.12.12,0,0,1,.09.11v.14h-.14a.12.12,0,0,1-.12-.08.26.26,0,0,0,0,.14.3.3,0,0,0,0,.15.13.13,0,0,1,.12-.09h.14v.67a.14.14,0,0,1-.08.12c.06,0,.12.1.14.14a.22.22,0,0,1,.14-.14.12.12,0,0,1-.08-.12V4.26H14a.12.12,0,0,1,.11.09.3.3,0,0,0,0-.15.2.2,0,0,0,0-.14.11.11,0,0,1-.11.08h-.14V4a.11.11,0,0,1,.08-.11.2.2,0,0,0-.14,0"/><path class="cls-6" d="M13.75,3.88h-.09a.16.16,0,0,1,.05.11v.14h0v0h-.16a.13.13,0,0,1-.11,0,.19.19,0,0,0,0,.08s0,.06,0,.09a.14.14,0,0,1,.12-.06h.16v0h0v.67a.14.14,0,0,1-.05.11l.06,0,0,0s0,0,0,0l.05,0a.14.14,0,0,1-.05-.11V4.32h0V4.23H14a.16.16,0,0,1,.11,0,.33.33,0,0,0,0-.16.16.16,0,0,1-.11,0h-.17v0h0V4a.16.16,0,0,1,.05-.11h-.08"/><polygon class="cls-7" points="13.85 6.32 13.62 6.27 13.13 6.01 12.83 5.99 12.81 5.4 12.22 4.93 11.62 5.57 11.54 5.76 11.56 11.65 11.95 11.18 12.03 11.2 12.43 10.77 12.77 9.91 12.87 9.55 13.33 10.1 13.16 10.41 13.32 10.4 13.33 10.54 13.47 10.48 13.51 10.66 13.83 10.34 14.28 10.56 13.44 12.06 13.13 12.28 13.68 12.48 14.23 11.84 14.15 12.26 13.98 12.67 14.66 13.06 15.39 12.63 15.03 11.87 15.15 11.82 15.63 12.51 16.14 12.25 15.47 11.46 15.03 10.52 15.5 10.36 15.81 10.67 15.86 10.47 16.03 10.55 16.01 10.38 16.18 10.42 15.97 10.09 16.5 9.65 16.83 10.69 17.31 11.25 17.42 11.23 17.77 11.67 17.77 5.61 17.11 4.92 16.48 5.44 16.5 5.99 16.22 6 15.79 6.22 15.56 6.3 15.44 6.32 15.3 6.16 15.1 5.77 15.09 5.39 15.21 5.14 15.19 4.9 15.3 4.9 15.23 4.74 15.32 4.7 15.18 4.58 15.23 4.52 14.69 4.29 14.28 4.26 14.17 4.31 14.11 4.41 14.22 4.71 14.11 4.83 14.22 5.06 14.23 5.55 14.13 5.97 13.95 6.28 13.85 6.32"/><polygon class="cls-8" points="13.23 10.43 12.82 11.05 12.63 11.04 12.42 11.14 12.36 11.36 12.39 11.46 12.61 11.7 12.79 11.6 12.93 11.44 12.97 11.3 13.48 10.63 13.46 10.47 13.34 10.54 13.3 10.4 13.23 10.43"/><polygon class="cls-8" points="15.83 10.61 16.37 11.35 16.43 11.49 16.67 11.71 16.74 11.69 17 11.38 16.94 11.17 16.7 11.02 16.51 11.04 16.1 10.43 16.03 10.4 16 10.52 15.88 10.48 15.83 10.61"/><path d="M14.41,4.23a.45.45,0,0,0-.23,0s0,.08-.07.09a.23.23,0,0,1-.15,0,.25.25,0,0,0-.25.25.24.24,0,0,1,.17-.09.36.36,0,0,1,.31.13,0,0,0,0,1,0,0c-.11,0-.29-.07-.38-.07v0h0c.21.07.42.17.42.62A1.49,1.49,0,0,1,14,6.1a.7.7,0,0,1-.21.21,2.45,2.45,0,0,1-.34-.14,1.19,1.19,0,0,0-.6-.25v-.2c0-.11,0-.21,0-.31s-.42-.4-.7-.57a1.64,1.64,0,0,0-.74.92s0,4.38,0,5.9a.68.68,0,0,1-.05.21,1.57,1.57,0,0,0,.49-.59v.07a1.15,1.15,0,0,0,.47-.52.56.56,0,0,0,0,.07,4.61,4.61,0,0,0,.46-1.24V9.43a3.06,3.06,0,0,1-.39,1.05V6.74l.17.15.24-.23V6.49l-.22.2V6.16L12.73,6a1.27,1.27,0,0,0,.28.37c0-.09.17-.17.17-.17s.05.14.13.17a1.05,1.05,0,0,1,.2-.16.63.63,0,0,0-.21.08c-.05,0-.06-.21-.06-.21s-.21.1-.25.18-.1-.17-.12-.24H13a.52.52,0,0,1,.22.06c.09,0,.18.1.27.13a.83.83,0,0,0,.31.06.78.78,0,0,1-.18.11,1.1,1.1,0,0,0,.43-.09l.19-.13a.63.63,0,0,1-.12.21.54.54,0,0,0,.42-.22.66.66,0,0,0,.1.18.66.66,0,0,0,.1-.18.54.54,0,0,0,.42.22.63.63,0,0,1-.12-.21l.19.13a1.13,1.13,0,0,0,.43.09.78.78,0,0,1-.18-.11.83.83,0,0,0,.31-.06c.09,0,.18-.09.27-.13a.52.52,0,0,1,.22-.06h.15c0,.07-.08.23-.12.24s-.25-.18-.25-.18,0,.2-.06.21a.63.63,0,0,0-.21-.08,1.05,1.05,0,0,1,.2.16c.08,0,.13-.17.13-.17s.15.08.17.17A1.11,1.11,0,0,0,16.59,6a.62.62,0,0,0,.08.12v.53l-.22-.2v.17l.24.23.17-.15v3.74a3.06,3.06,0,0,1-.39-1.05v.23a4.61,4.61,0,0,0,.46,1.24v-.07a1.15,1.15,0,0,0,.47.52v-.07a1.57,1.57,0,0,0,.49.59.68.68,0,0,1-.05-.21c0-1.52,0-5.9,0-5.9a1.6,1.6,0,0,0-.74-.92c-.28.17-.59.54-.7.57s0,.2,0,.31v.2a1.19,1.19,0,0,0-.6.25,2.45,2.45,0,0,1-.34.14.7.7,0,0,1-.21-.21,1.26,1.26,0,0,1-.17-.67c0-.1.11-.21.11-.3a1.49,1.49,0,0,0,0-.19s.11.07.11.07,0-.2-.06-.24,0,0,.12,0a.5.5,0,0,0-.16-.15l0,0,.12,0-.13,0a3.47,3.47,0,0,1-.36-.15,1,1,0,0,0-.48-.11m0,.06h.06a1.42,1.42,0,0,1,.57.19l.14.06,0,.06a.21.21,0,0,1,.13.1s-.08,0-.1.06a.12.12,0,0,1,.1.12l-.12,0a1.57,1.57,0,0,1,0,.29c0,.08-.12.17-.12.3a1.14,1.14,0,0,0,.18.69.49.49,0,0,0,.1.15C15.12,6.16,15,6,15,5.89V5.4h-.05v.49a.35.35,0,0,0,0,.14,1.72,1.72,0,0,0,.14.33.56.56,0,0,1-.29-.28V5.4h-.06v.69l0,0a.38.38,0,0,1-.08.09.23.23,0,0,1-.07-.09V5.4h-.06v.68a.56.56,0,0,1-.29.28A1.72,1.72,0,0,0,14.39,6a.35.35,0,0,0,0-.14V5.4h-.05v.49c0,.13-.16.27-.37.38a.49.49,0,0,0,.1-.15,1.35,1.35,0,0,0,.18-.81.8.8,0,0,0-.08-.4s0-.11.08-.11a.54.54,0,0,1,.19.1.17.17,0,0,0-.07-.13.09.09,0,0,1,0,0,.12.12,0,0,1,.05-.07s-.23-.05-.23-.16,0,0,.07,0,.17.08.27.08l.17,0c.09,0,.28.17.34.16s-.18-.21-.36-.21H14.5c-.07,0-.14-.06-.22-.06h-.12s0,0,0-.06a.23.23,0,0,1,.18,0h.06M12.22,5h0a3,3,0,0,0,.52.4V5.9c-.09,0-.21-.19-.27-.27v0a.13.13,0,0,1,0-.09l-.06,0a.16.16,0,0,0,0,.11v0l0,0h0l-.14.16-.17-.26V5.47a.2.2,0,0,1,.06-.12l-.06,0a.35.35,0,0,0-.05.13v0l-.2.2-.09-.21A2.15,2.15,0,0,1,12.22,5M17.1,5a2.15,2.15,0,0,1,.48.47l-.09.21s-.16-.15-.2-.2v0a.24.24,0,0,0-.05-.13l-.06,0a.2.2,0,0,1,.06.12v.06l-.17.26-.14-.16h0l0,0v0a.16.16,0,0,0,0-.11l-.06,0a.13.13,0,0,1,.05.09v0c-.06.08-.18.24-.27.27V5.43A3,3,0,0,0,17.1,5Zm-5.43.58.09.16v.29l-.14.13V5.76a.37.37,0,0,1,.05-.15m6,0a.37.37,0,0,1,.05.15v.43l-.14-.13V5.77ZM12,5.65l.16.23v.18L12,6.21Zm5.28,0v.56l-.16-.15V5.88ZM12,5.69v.52l-.16-.15V5.85Zm5.38,0,.16.16v.21l-.16.15Zm-4.91,0a.93.93,0,0,0,.24.26.76.76,0,0,1-.24.23Zm4.44,0v.49A.76.76,0,0,1,16.64,6a.8.8,0,0,0,.24-.26m-4.49,0v.46l-.16-.15V5.9Zm4.54,0,.16.15v.16l-.16.15Zm-5.17.49v.45l-.14-.12V6.36Zm5.8,0,.14.12v.21l-.14.12Zm-5.75,0,.09.08.07.06v.17l-.07.06-.09.08Zm.37,0v.45l-.09-.08L12,6.54V6.38l.07-.06Zm.05,0,.16.14v.16l-.07.07-.09.08Zm.37,0v.45l-.09-.08-.07-.06V6.4a.81.81,0,0,0,.16-.16m4.12,0a.81.81,0,0,0,.16.16v.15l-.07.06-.09.08V6.24Zm.37,0v.45L17,6.61l-.07-.07V6.38Zm.05,0,.09.08.07.06v.16l-.07.07-.09.08Zm.37,0v.45l-.09-.08-.07-.06V6.38l.07-.06ZM12,6.74l.17.15.16-.15v3.74s0,.19,0,.31l-.35.35Zm5.24,0v4.4l-.35-.35c0-.12,0-.31,0-.31V6.74l.16.15ZM12,6.74V11a.88.88,0,0,1-.33.46V6.74l.17.15Zm5.42,0,.17.15.16-.15v4.72a.88.88,0,0,1-.33-.46ZM13.3,10.09a2.34,2.34,0,0,1-.22.37h.09s-.25.35-.32.47-.11.06-.21.06a.53.53,0,0,0-.29.19.3.3,0,0,0-.06.18.31.31,0,0,0,.06.14l0,0,.2.24a.14.14,0,0,0,.14,0,1.11,1.11,0,0,0,.21-.22c0-.05,0-.11.08-.17l.47-.62s0,0,0,.06a2.22,2.22,0,0,1,.4-.41l-.09-.06a2.18,2.18,0,0,1-.27.28,1.17,1.17,0,0,0,0-.16.33.33,0,0,1-.12.06s0-.08,0-.13a.23.23,0,0,1-.14,0c.07,0,.17-.26.17-.26l-.07,0Zm2.72,0-.06,0s.09.22.17.26a.26.26,0,0,1-.15,0c0,.05,0,.13,0,.13a.33.33,0,0,1-.12-.06l0,.16a2.18,2.18,0,0,1-.27-.28l-.09.06a2.22,2.22,0,0,1,.4.41v-.06c.07.08.33.44.47.62s0,.12.08.17a.92.92,0,0,0,.22.22s.11,0,.13,0l.2-.24a.11.11,0,0,1,0,0,.31.31,0,0,0,.06-.14.3.3,0,0,0-.06-.18.53.53,0,0,0-.29-.19c-.1,0-.15.05-.21-.06s-.29-.43-.32-.47h.09a2.34,2.34,0,0,1-.22-.37m-2.74.36a.31.31,0,0,0,0,.14l.12-.08,0,.09-.49.67a.59.59,0,0,0-.07.17.08.08,0,0,1-.05-.07v-.09a.15.15,0,0,1-.1,0c0-.05.1-.11.11-.19s-.16,0-.25.06-.13.07-.16.07,0,0,0,0a.42.42,0,0,1,.23-.15s.18,0,.22,0l.38-.59h0m2.76,0h0l.38.59s.2,0,.22,0a.42.42,0,0,1,.23.15,0,0,0,0,1,0,0s-.06,0-.16-.07-.16,0-.24-.06.1.14.1.19a.15.15,0,0,1-.1,0v.09a.08.08,0,0,1-.05.07.59.59,0,0,0-.07-.17l-.49-.67,0-.09.12.08a.31.31,0,0,0,0-.14m-1.81.08S13.58,12,13,12.26c0,0,.25.11.56.27l.14.07.12-.15c.19-.25.37-.54.37-.54a1.61,1.61,0,0,1-.25.59c0,.06-.07.12-.11.17l.13.08a2,2,0,0,1,.7.59,1.94,1.94,0,0,1,.7-.59l.13-.08c0-.05-.07-.11-.11-.17a1.61,1.61,0,0,1-.25-.59s.18.29.37.54l.12.15.14-.07c.31-.16.56-.27.56-.27-.58-.23-1.23-1.73-1.23-1.73l-.1,0a5.37,5.37,0,0,0,1,1.69l-.39.15a5.24,5.24,0,0,1-.49-.71,4,4,0,0,1-.28-.71,3.15,3.15,0,0,0,.39,1.6,2.21,2.21,0,0,0-.59.39,2.21,2.21,0,0,0-.59-.39,3.15,3.15,0,0,0,.39-1.6,4,4,0,0,1-.28.71,5.24,5.24,0,0,1-.49.71l-.39-.15a5.37,5.37,0,0,0,1-1.69Zm-1.7.72h0s0,0,0,0l-.06.05h0s0,0,0,0l0-.05h0m4.26,0h0l.05.05s0,0,0,0h0l-.06-.05v0h0m-4.21,0a.05.05,0,0,1,0,0s0,0,0,.06l-.13.11s-.05,0-.06,0,0-.05,0-.06l.13-.12h0m4.15,0h0l.13.12s0,0,0,.06,0,0-.06,0l-.13-.11s0,0,0-.06l0,0m-4.07.09,0,0a0,0,0,0,1,0,.06l-.13.11s0,0-.06,0a.06.06,0,0,1,0-.06l.14-.12h0m4,0h0l.13.12a.06.06,0,0,1,0,.06s0,0-.06,0l-.13-.11a0,0,0,0,1,0-.06l0,0m-3.91.09h0a.06.06,0,0,1,0,.06l-.13.12s-.05,0-.06,0a0,0,0,0,1,0-.06l.13-.11h0m3.83,0h0l.13.11a0,0,0,0,1,0,.06s0,0-.06,0l-.13-.12a.06.06,0,0,1,0-.06h0"/><polygon points="12.87 11.54 13.18 11.71 13.1 12.04 12.8 11.88 12.87 11.54"/><path d="M11.45,8.28l-.11.05,1.24,2.72h.14Zm1.47,3.21-.09.09.05.13.11-.05Z"/><polygon class="cls-6" points="12.92 11.64 13.11 11.74 13.06 11.95 12.87 11.85 12.92 11.64"/><path d="M11.84,10.43s.1.21.18.24a.53.53,0,0,0-.17,0,.89.89,0,0,0,.43.22.29.29,0,0,0,.25-.07l0-.18a.67.67,0,0,0-.27-.18,1.61,1.61,0,0,0-.39-.07"/><path d="M12.63,10a.62.62,0,0,0-.19.27.51.51,0,0,0,0,.3l.12.23a.66.66,0,0,0,.24-.22.66.66,0,0,0,.05-.32,1,1,0,0,0-.16.07.53.53,0,0,0-.09-.33"/><path d="M12.16,10a.89.89,0,0,1-.32,0,.51.51,0,0,1-.28-.14s.13-.08.19-.07-.17-.2-.17-.2a.48.48,0,0,1,.27,0,.62.62,0,0,1,.23.18Z"/><path d="M12.22,9.18s.08.17.06.23a.67.67,0,0,1,.12-.1,1.11,1.11,0,0,1,0,.44.45.45,0,0,1-.23.24L12,9.62a.48.48,0,0,1,0-.24.86.86,0,0,1,.2-.2Z"/><path d="M11.15,8.73a.75.75,0,0,1,.34,0,.3.3,0,0,1,.18.16l.06.18a.55.55,0,0,1-.34,0,.65.65,0,0,1-.27-.24s.11,0,.15,0a.41.41,0,0,1-.12-.14"/><path d="M11.71,8.4a.39.39,0,0,1,.08.21c0-.06.12-.13.12-.13A1,1,0,0,1,12,8.9a.42.42,0,0,1-.16.27l-.18-.34a.53.53,0,0,1,0-.25.33.33,0,0,1,.11-.18"/><path d="M11.09,7.75a.54.54,0,0,0,0,.29.34.34,0,0,0,.08.11A.54.54,0,0,0,11,8.09a.6.6,0,0,0,.17.29.51.51,0,0,0,.31.07.58.58,0,0,0,.11-.33.83.83,0,0,0-.15-.37,1,1,0,0,0-.06.2C11.31,7.86,11.09,7.75,11.09,7.75Z"/><path class="cls-9" d="M11.15,7.86a.41.41,0,0,0,0,.21.25.25,0,0,0,.14.11.4.4,0,0,0,0-.21.25.25,0,0,0-.14-.11"/><path class="cls-9" d="M11.05,8.17a.39.39,0,0,1,.19.05.32.32,0,0,1,.09.16.21.21,0,0,1-.14,0,.67.67,0,0,1-.14-.17"/><path class="cls-9" d="M11.42,7.89a.42.42,0,0,0,0,.19.51.51,0,0,0,.06.2.6.6,0,0,0,.05-.21.33.33,0,0,0-.08-.18"/><path class="cls-9" d="M11.23,8.76a.42.42,0,0,0,.14.13.65.65,0,0,0,.22,0,.54.54,0,0,0-.15-.13.61.61,0,0,0-.21,0"/><path class="cls-9" d="M11.25,9a.29.29,0,0,0,.13.12.56.56,0,0,0,.23,0A.51.51,0,0,0,11.47,9a.92.92,0,0,0-.22,0"/><path class="cls-9" d="M11.7,8.51a.36.36,0,0,0,0,.16.38.38,0,0,0,.06.18.7.7,0,0,0,0-.19.31.31,0,0,0-.06-.15"/><path class="cls-9" d="M11.88,8.62a.49.49,0,0,0-.1.22.44.44,0,0,0,.05.22.41.41,0,0,0,.11-.21.46.46,0,0,0-.06-.23"/><path class="cls-9" d="M11.65,9.64a.19.19,0,0,0,0,.08.34.34,0,0,0,.09.09.2.2,0,0,1,.12,0,.5.5,0,0,1,.16.07.86.86,0,0,0-.2-.2.36.36,0,0,0-.22,0"/><path class="cls-9" d="M11.64,9.9a.48.48,0,0,1,.24,0,.46.46,0,0,1,.2.09.77.77,0,0,1-.25,0,.44.44,0,0,1-.19-.09"/><path class="cls-9" d="M12.18,9.3a.5.5,0,0,0-.12.22.31.31,0,0,0,.09.21.31.31,0,0,1,0-.11.28.28,0,0,1,.05-.1.17.17,0,0,0,0-.09.48.48,0,0,0-.05-.13"/><path class="cls-9" d="M12.35,9.44a.61.61,0,0,0-.14.22.43.43,0,0,0,0,.24.36.36,0,0,0,.13-.19.64.64,0,0,0,0-.27"/><path class="cls-9" d="M12.61,10.14a.69.69,0,0,1,.06.18c0,.09,0,.11,0,.11l-.07.08a.22.22,0,0,0,0,.11.52.52,0,0,1-.09-.26.52.52,0,0,1,.13-.22"/><path class="cls-9" d="M12.82,10.37a.62.62,0,0,0-.17.17.22.22,0,0,0,0,.18.2.2,0,0,0,.14-.1.69.69,0,0,0,.06-.25"/><path class="cls-9" d="M12,10.73a1.23,1.23,0,0,1,.3,0,.27.27,0,0,1,.15.09.39.39,0,0,1-.24,0,.54.54,0,0,1-.21-.14"/><path class="cls-9" d="M12,10.51a.46.46,0,0,0,.19.17.6.6,0,0,0,.32,0,.57.57,0,0,0-.22-.17.8.8,0,0,0-.29,0"/><path d="M12.54,10.85v.07c.11,0,.13,0,.15,0a.1.1,0,0,0,.11,0,.09.09,0,0,0,0-.12.09.09,0,0,0-.11,0l-.06,0a.42.42,0,0,1-.15,0"/><path class="cls-6" d="M12.82,10.87h0a0,0,0,0,1,0,.06.06.06,0,0,1-.07,0h0a.05.05,0,0,1,0-.07,0,0,0,0,1,.06,0Z"/><path d="M12.53,10.8l.06,0c-.06.1-.08.11-.06.15a.09.09,0,0,1,0,.1.09.09,0,0,1-.13,0,.09.09,0,0,1,0-.11l.06,0s.09-.12.09-.12"/><path class="cls-6" d="M12.4,11h0s0,0,.07,0a.06.06,0,0,0,0-.07h0a0,0,0,0,0-.07,0,0,0,0,0,0,0,.06Z"/><path d="M12.16,10v.07c.12,0,.13,0,.16,0a.09.09,0,0,0,.11,0,.1.1,0,0,0,0-.12.08.08,0,0,0-.1,0s0,0-.06,0a.42.42,0,0,1-.15,0"/><path class="cls-6" d="M12.44,10h0a.05.05,0,0,1,0,.07,0,0,0,0,1-.06,0h0a0,0,0,0,1,0-.06.06.06,0,0,1,.07,0Z"/><path d="M12.18,10l.05,0c-.07.09-.09.09-.08.14a.09.09,0,0,1-.06.09.1.1,0,0,1-.12,0,.09.09,0,0,1,0-.11l.07,0a.58.58,0,0,0,.11-.1"/><path class="cls-6" d="M12,10.25h0a0,0,0,0,0,.06,0,.05.05,0,0,0,0-.07h0a.06.06,0,0,0-.07,0,0,0,0,0,0,0,.06Z"/><path d="M11.79,9.22v.07c.11,0,.13,0,.16,0a.1.1,0,0,0,.11,0,.1.1,0,0,0,0-.12.08.08,0,0,0-.1-.05l-.06,0a.42.42,0,0,1-.15,0"/><path class="cls-6" d="M12.06,9.24h0s0,0,0,.06a.07.07,0,0,1-.07,0h0a.05.05,0,0,1,0-.07,0,0,0,0,1,.06,0Z"/><path d="M11.82,9.21l0,0c-.07.08-.09.09-.08.13a.09.09,0,0,1,0,.1.09.09,0,0,1-.12-.05.09.09,0,0,1,0-.11l.07,0a.58.58,0,0,0,.11-.1"/><path class="cls-6" d="M11.65,9.43h0a0,0,0,0,0,.06,0s0,0,0-.06h0a0,0,0,0,0-.06,0,0,0,0,0,0,0,.07Z"/><path d="M11.39,8.39v.07c.11,0,.12,0,.15,0a.09.09,0,0,0,.11,0,.08.08,0,0,0,0-.12.08.08,0,0,0-.1-.05s0,0-.06,0a.42.42,0,0,1-.15,0"/><path class="cls-6" d="M11.67,8.4h0a.05.05,0,0,1,0,.07,0,0,0,0,1-.06,0h0a0,0,0,0,1,0-.06.06.06,0,0,1,.07,0Z"/><path d="M11.42,8.38l.05,0c-.07.08-.09.08-.09.13a.08.08,0,0,1-.05.1.09.09,0,0,1-.12-.05.09.09,0,0,1,0-.11l.07,0a.58.58,0,0,0,.11-.1"/><path class="cls-6" d="M11.25,8.59h0a0,0,0,0,0,.06,0,.05.05,0,0,0,0-.07h0a.06.06,0,0,0-.07,0,0,0,0,0,0,0,.06h0"/><path class="cls-6" d="M12.09,9.81S12,9.66,12,9.56s-.14-.24-.11-.25.06.06.11.16.18.33.14.34"/><path class="cls-6" d="M11.68,8.91s-.08-.1-.12-.2-.09-.16-.07-.17.07.07.11.15.12.2.08.22"/><path class="cls-6" d="M12.62,11a2.32,2.32,0,0,1-.27-.52,1.5,1.5,0,0,1-.17-.45,1.89,1.89,0,0,1,.23.46,2.11,2.11,0,0,1,.21.51"/><polygon class="cls-10" points="12.86 8.24 12.87 9.71 12.98 9.88 13.66 10.26 14.53 10.66 14.65 10.78 15.4 10.37 16.29 9.95 16.45 9.69 16.45 8.25 12.86 8.24"/><path class="cls-8" d="M12.82,6.48l0,.13V8.29l.06.07.52.06L14,8.34l.55.09v0h.22v0l.55-.09.56.08.52-.06.06-.07V6.61l.05-.13h-.62l-1.22,0-1.22,0Z"/><polygon class="cls-6" points="13 8.35 13.28 8.24 13.48 8.09 13.61 8.23 13.88 8.35 13.66 8.47 13.47 8.64 13.3 8.52 13 8.35"/><polygon class="cls-6" points="15.84 8.1 15.72 8.23 15.45 8.35 15.7 8.51 15.86 8.65 16.04 8.51 16.32 8.36 16.03 8.24 15.84 8.1"/><polygon class="cls-6" points="14.66 6.71 14.57 6.97 14.33 6.85 14.44 7.09 14.2 7.19 14.44 7.27 14.34 7.52 14.57 7.4 14.66 7.65 14.75 7.4 14.98 7.5 14.88 7.27 15.12 7.19 14.89 7.09 14.99 6.84 14.75 6.96 14.66 6.71"/><polygon class="cls-6" points="15.31 6.67 15.39 6.94 15.51 7.29 15.52 7.62 15.39 7.86 15.14 7.96 15.01 8 14.85 7.91 14.67 8.02 14.47 7.91 14.31 8.02 14.21 7.95 14.03 7.92 13.83 7.71 13.79 7.33 14.03 6.65 13.73 6.9 13.47 7.25 13.47 7.72 13.65 8.03 13.99 8.25 14.08 8.28 13.92 8.57 14.2 8.66 14.35 8.8 14.42 9.09 14.41 9.71 14.32 9.85 14.13 9.98 14.13 10.1 14.33 10.22 14.51 10.37 14.77 10.38 15 10.21 15.19 10.11 15.14 9.94 14.94 9.77 14.9 9.28 14.96 8.79 15.25 8.61 15.4 8.56 15.24 8.25 15.49 8.17 15.76 7.93 15.89 7.46 15.81 7.17 15.62 6.93 15.31 6.67"/><polygon class="cls-6" points="14.15 8.79 14.27 8.91 14.16 9.02 14.05 8.9 14.15 8.79"/><polygon class="cls-6" points="15.17 8.78 15.05 8.9 15.16 9.01 15.29 8.9 15.17 8.78"/><polygon class="cls-6" points="15.26 9.09 15.04 9.14 14.99 9.26 14.98 9.6 15.07 9.79 15.19 9.84 15.18 9.4 15.26 9.09"/><polygon class="cls-6" points="14.07 9.09 14.14 9.47 14.14 9.83 14.25 9.76 14.32 9.59 14.33 9.31 14.28 9.13 14.07 9.09"/><polygon class="cls-6" points="16.01 9.39 15.76 9.28 15.53 9.33 15.4 9.47 15.39 9.7 15.56 9.91 15.61 9.92 15.6 9.7 15.79 9.44 16.01 9.39"/><polygon class="cls-6" points="13.67 9.31 13.65 9.21 13.52 9.14 13.41 9.18 13.35 9.29 13.38 9.39 13.27 9.38 13.18 9.47 13.16 9.59 13.23 9.66 13.31 9.69 13.37 9.69 13.32 9.8 13.36 9.9 13.46 9.96 13.58 9.93 13.64 9.81 13.75 9.88 13.87 9.86 13.95 9.73 13.89 9.62 13.84 9.57 13.92 9.53 13.95 9.39 13.84 9.26 13.73 9.27 13.67 9.31"/><path d="M14,6.57c0,.13-.64.39-.64.9A.86.86,0,0,0,14,8.3l0,0-.15.28a.75.75,0,0,1,.39.13c.16.14.15.43.15.65a.61.61,0,0,1-.11.43c-.12.09-.2.1-.2.22s.08.12.2.18.15.19.38.19.23-.11.38-.19.2-.08.2-.18-.08-.13-.2-.22a.61.61,0,0,1-.11-.43c0-.22,0-.51.15-.65a.75.75,0,0,1,.39-.13l-.15-.28,0,0a.86.86,0,0,0,.62-.83c0-.51-.62-.77-.64-.9-.06.22.21.51.21.86s-.34.48-.34.48S15,8,15,8s-.1-.09-.16-.09-.11.09-.19.09-.13-.09-.19-.09-.09.08-.16.09-.06-.06-.14-.06-.34,0-.34-.48.27-.64.21-.86m1.28,1.77a1.91,1.91,0,0,1,.53.34,3.4,3.4,0,0,1,.55-.32,1.36,1.36,0,0,1-.55-.3,1.11,1.11,0,0,1-.53.28M14,8.34a1.11,1.11,0,0,1-.53-.28,1.36,1.36,0,0,1-.55.3,3.4,3.4,0,0,1,.55.32A1.91,1.91,0,0,1,14,8.34m.66-1.72-.11.31-.29-.14.14.29-.31.11.31.11-.14.29.29-.14.11.31.11-.31.29.14-.14-.29.31-.11-.31-.11.14-.29-.29.14ZM14,6.76c0,.06-.21.4-.21.67s.19.55.43.55c.05,0,.1.06.14.06s.12-.08.16-.08.09.09.19.09.13-.09.19-.09S14.94,8,15,8s.1-.06.14-.06c.24,0,.43-.2.43-.55s-.24-.61-.21-.67.45.33.45.71a.84.84,0,0,1-.62.78l.14.32a.84.84,0,0,0-.32.12c-.16.13-.16.48-.16.71s0,.39.11.47.19.09.19.17-.09.1-.19.15-.14.15-.31.15-.19-.1-.31-.15-.18-.07-.18-.15.07-.09.18-.17.11-.19.11-.47,0-.58-.16-.71A.84.84,0,0,0,14,8.57l.15-.32a.84.84,0,0,1-.63-.78c0-.38.45-.71.45-.71m.71.07.07.19.19-.09-.09.19.19.07-.19.07.09.19-.19-.09-.07.19-.07-.19-.19.09.09-.19-.19-.07.19-.07-.09-.19.19.09Zm-1.2,1.32a.72.72,0,0,0,.33.2,1.28,1.28,0,0,0-.32.24h0v0a2.42,2.42,0,0,0-.36-.22,1,1,0,0,0,.36-.22m2.4,0a1,1,0,0,0,.36.22,2.42,2.42,0,0,0-.36.22v0h0a1.28,1.28,0,0,0-.32-.24.72.72,0,0,0,.33-.2m-1.7.6L14,8.9l.16.15.14-.15Zm1,0L15,8.9l.15.15.15-.15Zm-1,.07.07.08L14.16,9l-.08-.08Zm1,0,.08.08L15.17,9l-.08-.08ZM14,9.05a1.8,1.8,0,0,1,.08.86.37.37,0,0,0,.25-.27c0-.1,0-.47-.06-.54Zm1.28,0L15,9.1c-.1.07-.08.44-.06.54a.37.37,0,0,0,.25.27,1.8,1.8,0,0,1,.08-.86m-1.8.06h0a.18.18,0,0,0-.13.21l0,0H13.3a.19.19,0,0,0-.18.17.18.18,0,0,0,.17.18h0l0,0a.17.17,0,0,0,.1.23.18.18,0,0,0,.23-.1.06.06,0,0,0,0,0l0,0a.17.17,0,0,0,.25,0,.19.19,0,0,0,0-.25l0,0,0,0A.18.18,0,0,0,14,9.32a.19.19,0,0,0-.16-.09l-.09,0,0,0a.09.09,0,0,0,0,0,.17.17,0,0,0-.18-.13m.61,0,.15,0c.06.08.05.2.05.37a.28.28,0,0,1-.13.24,2.07,2.07,0,0,0-.07-.64m1.1,0a2.47,2.47,0,0,0-.07.64A.28.28,0,0,1,15,9.53a.75.75,0,0,1,.05-.37Zm-1.69,0a.13.13,0,0,1,.13.11.06.06,0,0,1,0,0s0,0,0,0h-.07a.2.2,0,0,0-.15.06l0,0s0,0,0-.05a.13.13,0,0,1,.1-.16h0m2.2.06a.36.36,0,0,0-.37.39.45.45,0,0,0,.35.37.44.44,0,0,1-.06-.16A.35.35,0,0,1,16,9.45h.1a.47.47,0,0,0-.39-.22m-1.93,0a.11.11,0,0,1,.11.06.14.14,0,0,1,0,.19l0,0h0a.22.22,0,0,0-.12-.19l0,0,0,0,.08,0m1.93,0a.36.36,0,0,1,.2.06.44.44,0,0,0-.36.46.32.32,0,0,1-.13-.22.27.27,0,0,1,.29-.3m-2.37.08,0,0h0a.28.28,0,0,0,0,.13.19.19,0,0,0,0,.1h-.08a.14.14,0,0,1-.13-.15.14.14,0,0,1,.15-.13m.23,0a.13.13,0,0,1,.13.14.13.13,0,0,1-.26,0,.13.13,0,0,1,.13-.14m.2.16h0l0,0a.14.14,0,0,1,0,.19.13.13,0,0,1-.19,0l0,0a0,0,0,0,1,0,0,.21.21,0,0,0,.14-.17m-.37.09a.22.22,0,0,0,.17.09h0a.08.08,0,0,1,0,0s0,0,0,0a.13.13,0,0,1-.18.08.14.14,0,0,1-.08-.18.05.05,0,0,0,0,0l0,0m1,.33c-.12,0-.2,0-.2.06s.08.06.2.06.07,0,.07-.06,0-.06-.07-.06m.48,0a.07.07,0,0,0-.07.06s0,.06.07.06.2,0,.2-.06S15,10,14.9,10"/><path class="cls-6" d="M12.66,6.43s.17.12.17.25v3a.26.26,0,0,0,.06.18.92.92,0,0,0,.2.19,9.18,9.18,0,0,0,1,.5,1.2,1.2,0,0,1,.53.35,1.2,1.2,0,0,1,.53-.35,9.18,9.18,0,0,0,1-.5.92.92,0,0,0,.2-.19.26.26,0,0,0,.06-.18v-3c0-.13.17-.25.17-.25h-4Zm.21.1h3.58a.22.22,0,0,0-.05.15v3c0,.07-.07.22-.46.42a6.62,6.62,0,0,0-1.28.65,6.62,6.62,0,0,0-1.28-.65c-.39-.2-.46-.35-.46-.42v-3a.22.22,0,0,0-.05-.15"/><path d="M14.57,4.61a.14.14,0,0,1-.28,0c0-.05.06-.1.14-.1s.14,0,.14.1Z"/><path class="cls-8" d="M13.77,4.55a.17.17,0,0,1,.16-.08h.2c0,.06.12.15.12.25a.42.42,0,0,0-.37-.18.27.27,0,0,0-.11,0"/><path d="M14.12,4.58s-.07,0-.07,0,0,0,0,0,0,0,0,0"/><path class="cls-8" d="M14.21,4.74a.4.4,0,0,0-.07.09A.64.64,0,0,1,14,4.71a.39.39,0,0,0,.23,0"/><path d="M18.5,7.81,18.29,8l0,0a.1.1,0,0,0-.06.05.15.15,0,0,0,0,.08.88.88,0,0,0-.23,0s0,.16,0,.28-.09.15-.09.19a.29.29,0,0,0,0,.08l0,0s0,.08,0,.11l-.31.6-.06.06a.15.15,0,0,0,0,.07.12.12,0,0,0-.08,0,.12.12,0,0,0,0,.09.11.11,0,0,0-.06,0s0,.06,0,.08c-.12.22-.26.49-.34.66s-.14.07-.2.19a.19.19,0,0,0,0,.21s-.09,0-.11,0a.14.14,0,0,0,.06.16A.12.12,0,0,0,17,11s0-.12,0-.12a.18.18,0,0,0,.18-.1c.06-.12,0-.22,0-.28l.34-.66s0,0,.06,0a.06.06,0,0,0,0-.06.21.21,0,0,0,.07-.07.11.11,0,0,0,0-.09.11.11,0,0,0,.06,0s0-.06,0-.09l.31-.6s.07,0,.08-.06a.11.11,0,0,0,0-.06.17.17,0,0,0,.08,0s0-.07.09-.19.22-.13.22-.17-.14-.19-.14-.19.06,0,.08,0a.1.1,0,0,0,0-.08h.06Zm-2,3.82s0,0,0,0a.06.06,0,0,0,0,.06s-.07,0-.09,0a1.82,1.82,0,0,0,0,.33s.27-.17.26-.2-.06-.06-.06-.06a.1.1,0,0,0,.05,0,.08.08,0,0,0-.05-.1h-.06"/><path class="cls-6" d="M18.46,7.89,18.34,8l.06,0,.06,0ZM18.34,8a.05.05,0,0,0-.05,0,.07.07,0,0,0,0,.09.08.08,0,0,0,.1,0,.08.08,0,0,0,0-.1h0m-.24.14h0s0,.12,0,.22a.28.28,0,0,1-.05.15.27.27,0,0,1-.07.06l.05,0,.07-.13a2.78,2.78,0,0,0,.07-.31l.12,0H18.1m.2,0a.51.51,0,0,0-.14,0,1.19,1.19,0,0,1-.07.29L18,8.68l0,0,0,0a.55.55,0,0,1,.07-.15c.06-.12.19-.21.19-.23s0-.13,0-.13m0,0a1,1,0,0,1,0,.13s-.15.13-.21.23l-.06.14h.06a.16.16,0,0,1,0-.09.33.33,0,0,1,.09-.13c.08-.06.18-.11.18-.13s-.11-.16-.11-.16M18,8.73a.05.05,0,0,0,0,0,1,1,0,0,1-.09.24l-.1.19c-.05.09-.11.22-.11.22s0,0,0,.06.06,0,.06,0l.11-.21c.05-.09.06-.12.11-.2a.87.87,0,0,1,.13-.22.06.06,0,0,0,0-.08h0m-.4.76,0,0s0,.06.05.07.07,0,.08,0,0-.06,0-.08h-.05m-.06.11a.07.07,0,0,0-.06,0s0,.07.06.09.09,0,.1,0,0-.07-.05-.09l0,0m-.07.14,0,0s0,.05,0,.07.07,0,.09,0,0-.06,0-.08h-.05m0,.12a0,0,0,0,0,0,0l-.31.63c0,.05-.14.08-.19.17a.14.14,0,0,0,.05.19.13.13,0,0,0,.18-.07c.05-.09,0-.2,0-.25l.31-.63a0,0,0,0,0,0-.06h0m-.57,1.06a.05.05,0,0,0-.06,0s0,.08.05.1A.08.08,0,0,0,17,11a.09.09,0,0,0-.05-.1h-.05m-.37.74h0s0,.05,0,.07.07,0,.07,0,0,0,0-.06h0m-.11.09V12l.18-.13a.18.18,0,0,0-.08-.07.15.15,0,0,0-.1,0"/><path class="cls-6" d="M14.53,4.61a.1.1,0,0,1-.2,0,.1.1,0,0,1,.2,0Z"/><path d="M14.48,4.61a0,0,0,0,1-.05,0,0,0,0,0,1,0,0,0,0,0,0,1,0,0,0,0,0,0,1,.05,0"/></g></g></g></g></g></svg>