<svg xmlns="http://www.w3.org/2000/svg" xmlns:xlink="http://www.w3.org/1999/xlink" viewBox="0 0 29.46 17.19"><defs><style>.cls-1{fill:none;}.cls-2{clip-path:url(#clip-path);}.cls-3{fill:#c9002a;}.cls-4{fill:#63accc;}.cls-5{fill:#f5eb2e;}.cls-6{clip-path:url(#clip-path-3);}.cls-7{clip-path:url(#clip-path-4);}</style><clipPath id="clip-path"><rect class="cls-1" width="29.46" height="17.19"/></clipPath><clipPath id="clip-path-3"><path class="cls-1" d="M3.68,10.8A1.23,1.23,0,0,0,4.91,12V9.58A1.23,1.23,0,0,0,3.68,10.8"/></clipPath><clipPath id="clip-path-4"><rect class="cls-1" x="4.91" y="1.23" width="4.91" height="14.73"/></clipPath></defs><g id="Layer_2" data-name="Layer 2"><g id="cá»"><g id="east_asia" data-name="east asia"><g class="cls-2"><rect class="cls-3" width="29.46" height="17.19"/><rect class="cls-4" x="9.82" width="9.82" height="17.19"/><g class="cls-2"><path class="cls-5" d="M4.91,4.91A1.35,1.35,0,1,1,3.56,6.26,1.35,1.35,0,0,1,4.91,4.91"/><path class="cls-3" d="M4.91,4.17A1.48,1.48,0,1,1,3.44,5.65,1.47,1.47,0,0,1,4.91,4.17"/><path class="cls-5" d="M4.91,4.91a1,1,0,1,1-1,1,1,1,0,0,1,1-1"/><path class="cls-5" d="M4.89,2.71c-.19.14,0,.36-.06.47s-.08.15-.11.26a.44.44,0,0,0,0,.31l0,.13h0v0a.12.12,0,0,1-.13.12.12.12,0,0,1-.12-.12h0c0-.06.08-.12.08-.2a.31.31,0,0,0-.1-.2.21.21,0,0,1,0-.16c0,.06-.11.11-.11.18s0,.11,0,.18-.15.15-.15.37a.61.61,0,1,0,1.22,0c0-.22-.14-.28-.15-.37s0-.13,0-.18-.06-.12-.11-.18a.21.21,0,0,1,0,.16.36.36,0,0,0-.1.2c0,.08.06.14.08.2h0a.12.12,0,0,1-.12.12A.12.12,0,0,1,5,4H5s0,0,0,0a0,0,0,0,1,0,0H5a1.17,1.17,0,0,1,0-.11.7.7,0,0,0,.06-.25A.83.83,0,0,0,5,3.09a.9.9,0,0,1-.17-.24.19.19,0,0,1,0-.14"/><rect class="cls-5" x="2.21" y="7.86" width="1.23" height="5.89"/><rect class="cls-5" x="6.38" y="7.86" width="1.23" height="5.89"/><polyline class="cls-5" points="3.68 7.86 6.14 7.86 4.91 8.59"/><rect class="cls-5" x="3.68" y="8.84" width="2.46" height="0.49"/><rect class="cls-5" x="3.68" y="12.28" width="2.46" height="0.49"/><polyline class="cls-5" points="3.68 13.01 6.14 13.01 4.91 13.75"/><path class="cls-5" d="M4.91,9.58A1.23,1.23,0,1,1,3.68,10.8,1.23,1.23,0,0,1,4.91,9.58"/></g><g class="cls-6"><g class="cls-7"><path class="cls-3" d="M4.91,9.45a.7.7,0,1,1-.7.7.7.7,0,0,1,.7-.7"/><path class="cls-5" d="M4.91,9.55a.6.6,0,1,1-.6.6.6.6,0,0,1,.6-.6"/><path class="cls-3" d="M4.91,9.91a.25.25,0,1,1,0,.49.24.24,0,0,1-.24-.25.24.24,0,0,1,.24-.24"/><path class="cls-3" d="M4.91,10.75a.7.7,0,1,1-.7.7.7.7,0,0,1,.7-.7"/><path class="cls-5" d="M4.91,10.85a.61.61,0,1,1-.6.6.6.6,0,0,1,.6-.6"/><path class="cls-3" d="M4.91,11.21a.25.25,0,1,1,0,.49.24.24,0,0,1-.24-.25.24.24,0,0,1,.24-.24"/></g></g></g></g></g></g></svg>