<svg xmlns="http://www.w3.org/2000/svg" xmlns:xlink="http://www.w3.org/1999/xlink" viewBox="0 0 13.66 17.19"><defs><style>.cls-1{fill:none;}.cls-2{clip-path:url(#clip-path);}.cls-3{fill:#22368f;}.cls-4{fill:#bc0030;}.cls-5{fill:#fff;}</style><clipPath id="clip-path"><rect class="cls-1" width="13.81" height="17.19"/></clipPath></defs><g id="Layer_2" data-name="Layer 2"><g id="cá»"><g id="south_asia" data-name="south asia"><g class="cls-2"><path class="cls-3" d="M.65,1.18,11.4,7.91H3.11l8.63,8.63H.65ZM0,0V17.19H13.32L4.69,8.56h9Z"/><polygon class="cls-4" points="0.33 0.59 0.33 16.86 12.53 16.86 3.9 8.23 12.53 8.23 0.33 0.59"/><g class="cls-2"><path class="cls-5" d="M3.38,7.8A2.43,2.43,0,0,0,5.81,5.37,2.63,2.63,0,0,1,4.72,6.65L4.51,6.5l.41-.31-.5-.13h0l.26-.44-.5.08.07-.51-.44.26h0L3.68,5l-.3.41L3.07,5l-.13.49h0L2.5,5.19l.08.51-.51-.08.26.44h0l-.49.13.41.31L2,6.65A2.53,2.53,0,0,1,1,5.37,2.43,2.43,0,0,0,3.38,7.8"/><polygon class="cls-5" points="4.98 12.97 4.98 12.97 5.99 12.55 4.98 12.12 4.98 12.12 5.64 11.24 4.55 11.38 4.68 10.28 3.81 10.95 3.81 10.95 3.38 9.93 2.95 10.95 2.95 10.95 2.07 10.28 2.21 11.38 1.11 11.24 1.78 12.12 1.78 12.12 0.76 12.55 1.78 12.97 1.78 12.97 1.11 13.85 2.21 13.72 2.21 13.72 2.21 13.72 2.07 14.81 2.95 14.15 2.95 14.15 3.38 15.16 3.81 14.15 3.81 14.15 4.68 14.81 4.55 13.72 5.64 13.85 4.98 12.97"/></g></g></g></g></g></svg>