<svg xmlns="http://www.w3.org/2000/svg" xmlns:xlink="http://www.w3.org/1999/xlink" viewBox="0 0 29.46 17.19"><defs><style>.cls-1{fill:none;}.cls-2{clip-path:url(#clip-path);}.cls-3{fill:#1a237b;}.cls-4{fill:#fff;}.cls-5{fill:#bd0034;}</style><clipPath id="clip-path"><rect class="cls-1" width="29.46" height="17.19"/></clipPath></defs><g id="Layer_2" data-name="Layer 2"><g id="cá»"><g id="ocenia"><g class="cls-2"><polygon class="cls-3" points="14.74 0 14.74 0.55 14.74 0.73 14.74 0.82 11.47 2.46 14.74 2.46 14.74 2.95 14.74 3.68 14.74 4.42 14.74 4.91 11.47 4.91 14.74 6.55 14.74 6.82 14.74 7.37 14.74 7.42 13.73 7.42 13.36 7.42 13.18 7.42 8.59 5.12 8.59 7.42 8.1 7.42 7.37 7.42 6.63 7.42 6.14 7.42 6.14 5.12 1.55 7.42 1 7.42 0 7.42 0 17.19 29.46 17.19 29.46 0 14.74 0"/><polygon class="cls-3" points="0 4.91 0 6.54 3.26 4.91 0 4.91"/><polygon class="cls-3" points="8.59 0 8.59 2.25 13.08 0 8.59 0"/><polygon class="cls-3" points="6.14 0 1.65 0 6.14 2.25 6.14 0"/><polygon class="cls-3" points="0 2.46 3.26 2.46 0 0.82 0 2.46"/><polygon class="cls-4" points="14.73 0 9.82 2.46 8.72 2.46 13.63 0 13.08 0 8.59 2.25 8.59 0 8.1 0 8.1 2.49 8.1 2.77 8.1 2.95 8.84 2.95 9.94 2.95 10.31 2.95 10.48 2.95 14.74 2.95 14.74 2.46 11.47 2.46 14.74 0.82 14.74 0.73 14.74 0.55 14.74 0 14.73 0"/><polygon class="cls-4" points="6.14 0 6.14 2.25 1.65 0 0 0 4.91 2.46 3.81 2.46 0 0.55 0 0.82 3.26 2.46 0 2.46 0 2.95 4.25 2.95 4.79 2.95 5.89 2.95 6.63 2.95 6.63 2.77 6.63 2.58 6.63 2.49 6.63 0 6.14 0"/><polygon class="cls-4" points="9.94 4.42 8.84 4.42 8.1 4.42 8.1 4.6 8.1 4.79 8.1 4.88 8.1 7.42 8.59 7.42 8.59 5.12 13.18 7.42 13.36 7.42 13.73 7.42 14.74 7.42 14.74 7.37 9.82 4.91 10.92 4.91 14.74 6.82 14.74 6.55 11.47 4.91 14.74 4.91 14.74 4.42 10.48 4.42 9.94 4.42"/><polygon class="cls-4" points="5.89 4.42 4.79 4.42 4.42 4.42 4.25 4.42 0 4.42 0 4.91 3.26 4.91 0 6.54 0 7.37 4.91 4.91 6.01 4.91 1 7.42 1.55 7.42 6.14 5.12 6.14 7.42 6.63 7.42 6.63 4.88 6.63 4.6 6.63 4.42 5.89 4.42"/><polygon class="cls-5" points="4.91 4.91 0 7.37 0 7.42 1 7.42 6.01 4.91 4.91 4.91"/><polygon class="cls-5" points="0 0.55 3.81 2.46 4.91 2.46 0 0 0 0.55"/><polygon class="cls-5" points="14.73 0 13.63 0 8.72 2.46 9.82 2.46 14.73 0"/><polygon class="cls-5" points="9.82 4.91 14.74 7.37 14.74 6.82 10.92 4.91 9.82 4.91"/><polygon class="cls-5" points="6.63 0 6.63 2.49 6.63 2.58 6.63 2.77 6.63 2.95 5.89 2.95 4.79 2.95 4.25 2.95 0 2.95 0 4.42 4.25 4.42 4.42 4.42 4.79 4.42 5.89 4.42 6.63 4.42 6.63 4.6 6.63 4.88 6.63 7.42 7.37 7.42 8.1 7.42 8.1 4.88 8.1 4.79 8.1 4.6 8.1 4.42 8.84 4.42 9.94 4.42 10.48 4.42 14.74 4.42 14.74 3.68 14.74 2.95 10.48 2.95 10.31 2.95 9.94 2.95 8.84 2.95 8.1 2.95 8.1 2.77 8.1 2.49 8.1 0 6.63 0"/><polygon class="cls-4" points="20.45 5.02 21.25 5.02 21.5 4.25 21.75 5.02 22.55 5.02 21.9 5.49 22.15 6.25 21.5 5.78 20.85 6.25 21.1 5.49 20.45 5.02"/><polygon class="cls-5" points="20.8 5.13 21.33 5.13 21.5 4.63 21.66 5.13 22.19 5.13 21.76 5.44 21.93 5.95 21.5 5.64 21.07 5.95 21.23 5.44 20.8 5.13"/><polygon class="cls-4" points="17.25 8.24 18.05 8.24 18.3 7.48 18.54 8.24 19.34 8.24 18.7 8.71 18.94 9.47 18.3 9 17.65 9.47 17.9 8.71 17.25 8.24"/><polygon class="cls-5" points="17.6 8.35 18.13 8.35 18.3 7.85 18.46 8.35 18.99 8.35 18.56 8.66 18.73 9.17 18.3 8.86 17.87 9.17 18.03 8.66 17.6 8.35"/><polygon class="cls-4" points="23.31 7.44 24.02 7.44 24.24 6.76 24.46 7.44 25.18 7.44 24.6 7.86 24.82 8.53 24.24 8.12 23.67 8.53 23.89 7.86 23.31 7.44"/><polygon class="cls-5" points="23.63 7.54 24.1 7.54 24.24 7.09 24.39 7.54 24.86 7.54 24.48 7.82 24.63 8.27 24.24 7.99 23.86 8.27 24.01 7.82 23.63 7.54"/><polygon class="cls-4" points="20.34 13.29 21.22 13.29 21.5 12.45 21.77 13.29 22.66 13.29 21.94 13.82 22.22 14.66 21.5 14.14 20.78 14.66 21.05 13.82 20.34 13.29"/><polygon class="cls-5" points="20.73 13.42 21.32 13.42 21.5 12.86 21.68 13.42 22.27 13.42 21.79 13.77 21.98 14.33 21.5 13.98 21.02 14.33 21.21 13.77 20.73 13.42"/></g></g></g></g></svg>