<svg xmlns="http://www.w3.org/2000/svg" xmlns:xlink="http://www.w3.org/1999/xlink" viewBox="0 0 29.46 17.19"><defs><style>.cls-1{fill:none;}.cls-2{clip-path:url(#clip-path);}.cls-3{fill:#bc0030;}.cls-4{fill:#f3d02f;}.cls-5{fill:#fff;}</style><clipPath id="clip-path"><rect class="cls-1" width="29.46" height="17.19"/></clipPath></defs><g id="Layer_2" data-name="Layer 2"><g id="cá»"><g id="melanisia"><g class="cls-2"><rect width="29.46" height="17.19"/><polygon class="cls-3" points="0 0 29.46 17.19 29.46 0 0 0"/><g class="cls-2"><path class="cls-4" d="M19.11,5c-.17.22-.57-.22-1.05-.23s-.82.46-1,.62a5.09,5.09,0,0,0-.58,1.09c0,.09.28-.25.38-.31,0,.12-.11.26-.08.3s.35-.24.46-.25-.06.16,0,.28.22-.2.34-.25-.11.26,0,.37.35-.34.45-.38-.05.33,0,.36.37-.38.46-.42,0,.41,0,.41a3,3,0,0,0,.42-.52c0-.06,0,.58.28.92a4.5,4.5,0,0,0,.83.73c.06-.11,0-.34,0-.33a1.69,1.69,0,0,0,.47.37c.06,0-.05-.24,0-.24a3.38,3.38,0,0,0,1.51,1c-.06-.17-.18-.32-.2-.4a2.74,2.74,0,0,0,.31.1s-.44-.6-.41-.68.16.06.2,0-.47-.55-.47-.66.13,0,.17,0-.16-.44-.12-.49.48.27.59.27,0-.39.08-.41.42.21.5.21.07-.17.1-.15a2.09,2.09,0,0,1,.6,1.91,1.29,1.29,0,0,1-1.78.8,1.12,1.12,0,0,0,1,.33,1.37,1.37,0,0,0,1.06-1.54,2,2,0,0,0-.45-1.29c-.05-.15.08,0,.19.08s0-.21-.05-.32.33.23.42.26-.21-.82-.3-.88.09,0,.15,0-.55-.93-.68-.93.11,0,.18,0a3,3,0,0,0-.83-.62c-.13,0,.28-.16.32-.17a1.83,1.83,0,0,0-1.75,0s.41-.35.42-.49-.15-.11-.15-.15.23-.16.25-.25S21.26,3,21.2,3s.22-.26.19-.34-.18-.06-.22,0,.11-.2.08-.28-.1,0-.17,0,.25-.43.19-.49a2.38,2.38,0,0,0-1.21,1,2,2,0,0,0-.1,1.2c0,.19-.09.38-.22.38a1.23,1.23,0,0,1-.53-.3c-.1-.1-.12-.17-.26-.21a2.2,2.2,0,0,0-.58.09c-.12,0-.59-.09-.62-.06a3.94,3.94,0,0,0,.57.27c.11.06.12.14.2.19s.83.27.59.58"/><path class="cls-4" d="M22,6.4c.24.24,1.86,1.32,1.86,2.64a1.22,1.22,0,0,1-1.52,1.24A1.24,1.24,0,0,0,24.19,9c0-1.32-1.86-2.64-2.1-2.76s-.3-.12-.06.12"/><polygon class="cls-5" points="7.58 5.33 7.84 6.19 8.7 6.19 8.02 6.71 8.27 7.55 7.58 7.02 6.9 7.53 7.15 6.71 6.47 6.19 7.31 6.19 7.58 5.33"/><polygon class="cls-5" points="4.96 8.68 5.21 9.54 6.08 9.54 5.39 10.07 5.64 10.91 4.96 10.38 4.28 10.88 4.53 10.07 3.84 9.54 4.69 9.54 4.96 8.68"/><polygon class="cls-5" points="10.2 8.44 10.45 9.3 11.31 9.3 10.63 9.83 10.88 10.67 10.2 10.14 9.52 10.64 9.77 9.83 9.08 9.3 9.93 9.3 10.2 8.44"/><polygon class="cls-5" points="7.58 13.22 7.84 14.08 8.7 14.08 8.02 14.6 8.27 15.44 7.58 14.91 6.9 15.42 7.15 14.6 6.47 14.08 7.31 14.08 7.58 13.22"/><polygon class="cls-5" points="8.76 11.39 8.88 11.82 9.32 11.82 8.97 12.08 9.1 12.5 8.76 12.24 8.42 12.49 8.54 12.08 8.2 11.82 8.62 11.82 8.76 11.39"/></g></g></g></g></g></svg>