<svg xmlns="http://www.w3.org/2000/svg" xmlns:xlink="http://www.w3.org/1999/xlink" viewBox="0 0 29.46 17.19"><defs><style>.cls-1{fill:none;}.cls-2{clip-path:url(#clip-path);}.cls-16,.cls-3{fill:#3e7fcd;}.cls-22,.cls-4{fill:#fff;}.cls-5{fill:#376fb8;}.cls-6,.cls-9{fill:#e1c025;}.cls-7{fill:#c1b020;}.cls-8{fill:#e1e2e3;}.cls-12,.cls-14,.cls-16,.cls-17,.cls-18,.cls-20,.cls-22,.cls-24,.cls-26,.cls-27,.cls-28,.cls-9{fill-rule:evenodd;}.cls-10{clip-path:url(#clip-path-3);}.cls-11{fill:#d90031;}.cls-12{fill:#3b8f4e;}.cls-13,.cls-27{fill:#796d14;}.cls-14{fill:#6fd66c;}.cls-15{fill:#539d51;}.cls-17{fill:#348110;}.cls-18{fill:#a2871a;}.cls-19{fill:#7b6714;}.cls-20{fill:#914822;}.cls-21{fill:#613219;}.cls-23{fill:#a6a6a6;}.cls-25{fill:#a5a5a5;}.cls-26{fill:#ad761b;}.cls-28{fill:#2b6a0c;}.cls-29{fill:#1c4404;}.cls-30{fill:#43a514;}</style><clipPath id="clip-path"><rect class="cls-1" width="29.46" height="17.19"/></clipPath><clipPath id="clip-path-3"><path class="cls-1" d="M13.58,6.61a5.15,5.15,0,0,0,2.3,0,5.15,5.15,0,0,0-2.3,0"/></clipPath></defs><g id="Layer_2" data-name="Layer 2"><g id="Layer_1-2" data-name="Layer 1"><g id="EUROPE"><g id="SAN_MARINO" data-name="SAN MARINO"><g class="cls-2"><rect class="cls-3" y="8.59" width="29.46" height="8.59"/><rect class="cls-4" width="29.46" height="8.59"/><g class="cls-2"><path class="cls-5" d="M14.88,4.54h-.3a.15.15,0,0,0,.3,0Z"/><path d="M14.73,4.67a.17.17,0,0,1-.16-.13h0a.17.17,0,0,0,.28,0,.13.13,0,0,1-.13.08Z"/><path class="cls-5" d="M14.73,4.36a.15.15,0,0,0-.15.13h.3a.15.15,0,0,0-.15-.13Z"/><path d="M14.89,4.49h-.25a.6.6,0,0,1,.19,0h.05a.16.16,0,0,0-.3,0c0-.16.28-.15.31,0Z"/><polygon class="cls-6" points="14.75 4.27 14.75 4.36 14.76 4.37 14.7 4.37 14.71 4.36 14.71 4.27 14.63 4.27 14.62 4.28 14.62 4.22 14.63 4.23 14.71 4.23 14.71 4.15 14.7 4.14 14.76 4.14 14.75 4.15 14.75 4.23 14.83 4.23 14.84 4.22 14.84 4.28 14.83 4.27 14.75 4.27"/><polygon points="14.76 4.37 14.7 4.37 14.71 4.27 14.68 4.27 14.71 4.27 14.72 4.36 14.75 4.36 14.75 4.36 14.74 4.27 14.83 4.27 14.84 4.24 14.85 4.28 14.75 4.28 14.76 4.36 14.76 4.37 14.76 4.37"/><rect class="cls-7" x="14.63" y="4.63" width="0.2" height="0.11"/><path d="M14.84,4.74h-.21V4.63h.21v.12Zm0-.11h-.2v.1h.2v-.1Z"/><path class="cls-6" d="M14.71,4.37v.11h.06V4.37h0Z"/><path class="cls-1" d="M14.71,4.37v.11h.06V4.37h0Z"/><path class="cls-6" d="M14.88,4.49l-.15,0-.15,0v0h.3a0,0,0,0,0,0,0v0Z"/><path d="M14.73,4.55h.13l0,0v0h-.15Zm-.15,0v0a1.61,1.61,0,0,1,.31,0v0h-.3v0Z"/><path class="cls-6" d="M16.52,5.6l0,.06-.19-.21a.17.17,0,0,0,0-.1c0-.16-.27-.32-.58-.34s-.86-.32-1-.22c0-.07.18-.07.34,0l.13,0,.32.11.15,0,.06,0h.06l.12,0L16,5l.1,0,.08,0,.07.06.06,0,0,.06v.06a.11.11,0,0,1,0,0l0,0Z"/><path d="M16.49,5.67l-.2-.22a.12.12,0,0,0,0-.1c0-.14-.25-.31-.57-.34a2.79,2.79,0,0,1-.48-.12c-.23-.08-.44-.15-.52-.1s.17-.07.34,0l.22.07.23.08.15,0h.24L16,5l.1,0,.08,0,.08,0,.05.06a.21.21,0,0,1,0,.06l0,.06v0a.43.43,0,0,1,0,0l.15.17,0,.08Zm-1.68-.91a1.79,1.79,0,0,1,.45.12,2.5,2.5,0,0,0,.47.12c.29,0,.56.18.58.35a.12.12,0,0,1,0,.1l.18.2a.06.06,0,0,0,0-.06l-.15-.17a.09.09,0,0,0,0,0v0l0-.05s0,0,0-.06l0-.06-.07-.05-.09,0L16,5l-.1,0h-.24l-.15,0-.23-.08-.22-.08c-.15,0-.27,0-.32,0l.06,0Z"/><path class="cls-6" d="M16.52,5.6l-.16-.18,0,0a.11.11,0,0,0,0,0V5.26l0-.06-.06,0-.07-.06-.08,0L16,5l-.1,0-.12,0h-.06l-.06,0-.15,0-.32-.11-.13,0c.24,0,.56.14.76.16a.74.74,0,0,1,.69.53.43.43,0,0,1,0,.16Z"/><path d="M16.52,5.61l-.16-.19a.09.09,0,0,0,0,0v0l0-.05s0,0,0-.06l0-.06-.07-.05-.09,0L16,5l-.1,0h-.24l-.15,0-.23-.08-.22-.08a2.53,2.53,0,0,1,.36.07,2.72,2.72,0,0,0,.4.09c.31,0,.66.24.69.53a.29.29,0,0,1,0,.16Zm-1.45-.86.22.07.23.08.15,0h.24L16,5l.1,0,.08,0,.08,0,.05.06a.21.21,0,0,1,0,.06l0,.06v0a.43.43,0,0,1,0,0l.14.17a.38.38,0,0,0,0-.15c0-.28-.38-.49-.68-.52a2.72,2.72,0,0,1-.4-.09l-.36-.08Z"/><path class="cls-6" d="M13,5.6a.09.09,0,0,0,0,.06l.18-.21a.34.34,0,0,1,0-.1c0-.16.28-.32.58-.34s.86-.32,1-.22c-.05-.07-.18-.07-.34,0l-.12,0L14,4.9l-.15,0-.07,0h-.06l-.11,0-.11,0-.09,0-.09,0-.07.06-.06,0,0,.06,0,0v0a0,0,0,0,0,0,0,.09.09,0,0,0,0,0Z"/><path d="M13,5.67h0l0-.07.16-.18a.08.08,0,0,1,0,0v0l0-.06a.21.21,0,0,1,0-.06l.06-.06.07,0,.08,0,.1,0,.11,0h.24l.14,0,.23-.08.22-.07c.17,0,.3,0,.35,0a1.32,1.32,0,0,0-.53.11,2.59,2.59,0,0,1-.48.12c-.32,0-.55.2-.57.34a.17.17,0,0,0,0,.1L13,5.67Zm1.58-.93h-.17l-.22.08L14,4.91,13.8,5h-.24l-.11,0-.09,0-.09,0-.07.05,0,.06s0,0,0,.06l0,.05h0v0s0,0,0,0L13,5.6l0,.05.18-.2a.17.17,0,0,1,0-.1c0-.17.29-.33.58-.35a2.79,2.79,0,0,0,.48-.12c.23-.08.45-.15.53-.1a.28.28,0,0,0-.18,0Z"/><path class="cls-6" d="M13,5.6l.15-.18a.09.09,0,0,1,0,0,0,0,0,0,1,0,0v0l0,0,0-.06.06,0,.07-.06.09,0,.09,0,.11,0,.11,0h.06l.07,0,.15,0,.32-.11.12,0c-.24,0-.56.14-.76.16a.75.75,0,0,0-.69.53.42.42,0,0,0,0,.16Z"/><path d="M12.94,5.61h0a.43.43,0,0,1,0-.16c0-.29.38-.5.69-.53a2.72,2.72,0,0,0,.4-.09,2.53,2.53,0,0,1,.36-.07l-.22.08L14,4.91,13.8,5h-.24l-.11,0-.09,0-.09,0-.07.05,0,.06s0,0,0,.06l0,.05h0v0s0,0,0,0l-.16.19Zm1.45-.86L14,4.83a2.72,2.72,0,0,1-.4.09c-.3,0-.65.24-.68.52a.38.38,0,0,0,0,.15l.15-.17a.08.08,0,0,1,0,0v0l0-.06a.21.21,0,0,1,0-.06l.06-.06.07,0,.08,0,.1,0,.11,0h.24l.14,0,.23-.08.22-.07Z"/><path class="cls-6" d="M14.73,6.4a4.34,4.34,0,0,0-1.26.16s0-.13-.05-.21-.09-.12-.09-.12a5.85,5.85,0,0,1,2.8,0s-.06,0-.1.13-.06.18,0,.2a4.39,4.39,0,0,0-1.26-.16Z"/><path d="M16,6.56a5.37,5.37,0,0,0-2.52,0s0,0-.05-.21-.09-.11-.09-.11h0a4.84,4.84,0,0,1,1.4-.19,5.25,5.25,0,0,1,1.41.18.24.24,0,0,0-.11.13c0,.1-.05.18,0,.19Zm-2.66-.32s.07,0,.1.11.06.2,0,.21a4.17,4.17,0,0,1,1.26-.17A4.52,4.52,0,0,1,16,6.55a.54.54,0,0,1,0-.2.19.19,0,0,1,.11-.12,6.3,6.3,0,0,0-2.8,0Z"/><path class="cls-6" d="M14.73,6.08a5.16,5.16,0,0,0-1.37.17s0,0,0,0a0,0,0,0,1,0-.06,5.85,5.85,0,0,1,2.8,0s0,0,0,.06a0,0,0,0,1-.06,0,5.16,5.16,0,0,0-1.37-.17Z"/><path d="M16.12,6.26h0a5.95,5.95,0,0,0-2.74,0,0,0,0,0,1-.06,0h0v0l0,0a5.53,5.53,0,0,1,2.8,0l0,0a0,0,0,0,1,0,0s0,0,0,0Zm-1.39-.18a4.92,4.92,0,0,1,1.37.17h0l0,0,0-.05A5.07,5.07,0,0,0,14.73,6a4.72,4.72,0,0,0-1.4.18l0,.05h0l0,0a5.05,5.05,0,0,1,1.38-.17Z"/><path class="cls-6" d="M14.73,5.67h0a.13.13,0,0,0,0,.06.18.18,0,0,0,.19.18.17.17,0,0,0,.17-.12s0-.07,0-.07,0,.07,0,.07a.17.17,0,0,0,.18.15.18.18,0,0,0,.19-.18v0l.06-.06,0,.08a.19.19,0,0,0,0,.08.18.18,0,0,0,.33.09l0-.05V6c0,.06,0,.12.08.13A.28.28,0,0,0,16.21,6a1,1,0,0,0,.14-.13V6a.56.56,0,0,1-.16.16.22.22,0,0,1-.16,0,.17.17,0,0,1-.11-.11.23.23,0,0,1-.14,0,.27.27,0,0,1-.24-.15.26.26,0,0,1-.19.09.29.29,0,0,1-.22-.1A.29.29,0,0,1,15,6a.28.28,0,0,1-.23-.12A.28.28,0,0,1,14.5,6a.29.29,0,0,1-.18-.07.28.28,0,0,1-.21.1.29.29,0,0,1-.2-.09.26.26,0,0,1-.24.15.23.23,0,0,1-.14,0,.17.17,0,0,1-.11.11.24.24,0,0,1-.16,0A.48.48,0,0,1,13.11,6V5.88a1,1,0,0,0,.14.13.28.28,0,0,0,.15.07A.12.12,0,0,0,13.49,6V5.89l0,.05a.18.18,0,0,0,.33-.09.19.19,0,0,0,0-.08l0-.08.06.06v0a.18.18,0,0,0,.19.18.17.17,0,0,0,.18-.15s0-.07,0-.07,0,.07,0,.07a.17.17,0,0,0,.17.12.18.18,0,0,0,.19-.18.13.13,0,0,0,0-.06Z"/><path d="M16.06,6.16h0a.16.16,0,0,1-.12-.11.26.26,0,0,1-.37-.11.28.28,0,0,1-.41,0,.27.27,0,0,1-.41,0,.27.27,0,0,1-.41,0,.28.28,0,0,1-.41,0,.27.27,0,0,1-.38.12.16.16,0,0,1-.11.1.37.37,0,0,1-.17,0A1.56,1.56,0,0,1,13.1,6V5.88l.14.13a.25.25,0,0,0,.15.06s.08-.05.08-.12V5.89l0,.05a.15.15,0,0,0,.14.07.16.16,0,0,0,.17-.16.19.19,0,0,0,0-.08l0-.08.07.06a.18.18,0,0,0,.18.2.17.17,0,0,0,.18-.15c0-.06,0-.07,0-.07h0s0,0,0,0a.19.19,0,0,0,.37,0,.13.13,0,0,0,0-.06l.05,0h0s0,0,0,.07a.19.19,0,0,0,.19.18.17.17,0,0,0,.17-.12c0-.06,0-.07,0-.07s0,0,0,0a.18.18,0,0,0,.18.17.18.18,0,0,0,.19-.18h0a.19.19,0,0,1-.19.2.18.18,0,0,1-.18-.16.21.21,0,0,1,0-.06.1.1,0,0,0,0,0,.2.2,0,0,1-.38,0V5.68h-.09a.07.07,0,0,1,0,.06.2.2,0,0,1-.2.19.19.19,0,0,1-.18-.13l0-.06v0a.19.19,0,0,1-.19.18.18.18,0,0,1-.19-.19l-.06-.08,0,.08a.17.17,0,0,1,0,.08.18.18,0,0,1-.18.17A.2.2,0,0,1,13.52,6l0,0V6c0,.07,0,.12-.09.13A.25.25,0,0,1,13.25,6a.71.71,0,0,1-.14-.12V6h0a.48.48,0,0,0,.15.16.32.32,0,0,0,.14,0,.15.15,0,0,0,.13-.11.29.29,0,0,0,.38-.11.29.29,0,0,0,.41,0,.28.28,0,0,0,.41,0,.28.28,0,0,0,.41,0,.29.29,0,0,0,.41,0,.29.29,0,0,0,.38.11c0,.06.07.1.11.1h0a.32.32,0,0,0,.14,0A.6.6,0,0,0,16.35,6V5.89a.59.59,0,0,1-.12.12.25.25,0,0,1-.16.07C16,6.07,16,6,16,6V5.89l0,.06a.2.2,0,0,1-.15.07.18.18,0,0,1-.18-.17.11.11,0,0,1,0-.08l0-.08v0l0,0,0,.08a.19.19,0,0,0,0,.08.17.17,0,0,0,.17.16.18.18,0,0,0,.15-.07l0-.05V6c0,.07,0,.11.08.12A.25.25,0,0,0,16.21,6a.63.63,0,0,0,.13-.13l0,.07a.48.48,0,0,1-.15.17.39.39,0,0,1-.15,0Z"/><path class="cls-8" d="M13.41,5.89a.08.08,0,0,1,.08-.08.07.07,0,0,1,.08.08.08.08,0,0,1-.08.08.09.09,0,0,1-.08-.08Z"/><path d="M13.49,6a.08.08,0,0,1-.08-.08c0-.1.17-.1.17,0a.08.08,0,0,1-.09.08Zm0-.16a.08.08,0,0,0-.07.08c0,.08.15.08.15,0a.08.08,0,0,0-.08-.08Z"/><path class="cls-8" d="M15.89,5.89A.08.08,0,0,1,16,5.81a.07.07,0,0,1,.08.08A.08.08,0,0,1,16,6a.09.09,0,0,1-.08-.08Z"/><path d="M16,6a.08.08,0,0,1-.08-.08c0-.1.17-.1.17,0A.08.08,0,0,1,16,6Zm0-.16a.08.08,0,0,0-.07.08c0,.08.15.08.15,0A.08.08,0,0,0,16,5.81Z"/><path class="cls-8" d="M14.23,5.75a.09.09,0,0,1,.08-.09.08.08,0,0,1,.08.09.08.08,0,0,1-.08.08.09.09,0,0,1-.08-.08Z"/><path d="M14.31,5.83a.08.08,0,0,1-.08-.08c0-.1.17-.1.17,0a.09.09,0,0,1-.09.08Zm0-.16a.07.07,0,0,0-.07.08c0,.08.15.08.15,0a.08.08,0,0,0-.08-.08Z"/><path class="cls-8" d="M15.08,5.75a.09.09,0,0,1,.08-.09.08.08,0,0,1,.08.09.08.08,0,0,1-.08.08.09.09,0,0,1-.08-.08Z"/><path d="M15.16,5.83a.09.09,0,0,1-.08-.08c0-.1.17-.1.17,0a.09.09,0,0,1-.09.08Zm0-.16a.07.07,0,0,0-.07.08c0,.08.15.08.15,0a.07.07,0,0,0-.08-.08Z"/><path class="cls-9" d="M13.16,6h.07a.29.29,0,0,0,.12,0l0,0a.13.13,0,0,0,0,0l0,0,0,0h0a.07.07,0,0,0,.05,0s.08,0,.08,0,0,0-.06-.06h0l0,0h.08s0,0,0-.06l0-.06h-.06s0,0-.07,0,0,0,0,0,0,0,0,0v0a0,0,0,0,0,0,0,.07.07,0,0,0,0,0,.1.1,0,0,0-.06,0l0,0h0v0l0,0a.14.14,0,0,0,0,0H13.1s0,0,0,0a.14.14,0,0,0,0,0l-.06,0-.05,0a.13.13,0,0,0-.12,0,.28.28,0,0,1,.13.16s0,0,0,0l0,0a.16.16,0,0,1,0,.07l0,.06,0,0,0,0,.05,0Z"/><path d="M13.24,6h0s-.05,0-.07,0l-.05,0,0,0v0l0-.07a.25.25,0,0,1,0-.07l0,0,0,0a.33.33,0,0,0-.13-.16.13.13,0,0,1,.12,0l0,0s.07,0,.09,0a.14.14,0,0,1,0,0v0h0l0,0s0,0-.06,0l-.05,0h-.11A.31.31,0,0,1,13,5.7l0,0,0,0,0,.08a.21.21,0,0,1,0,.06.19.19,0,0,0,0,.06l0,0h0a.08.08,0,0,0,.07,0h0l.11,0a0,0,0,0,1,0,0l0,0a.08.08,0,0,0,0,0l0,0h0s0,0,0,0,0,0,0,0a.11.11,0,0,0,0,0l-.12,0Zm.07-.12a.14.14,0,0,1-.06,0l.05,0,.08,0s0,0-.06,0h-.05v0h0s0,0,0,0,0-.07,0-.08,0,0,0,0l-.05,0s0,0,0,0a.12.12,0,0,1,0,0v0h0a0,0,0,0,1,0,0,0,0,0,0,1,.05,0l.08,0s0,0,0,.06,0,0,0,.06h-.06l0,0h0s.06.06.06.06,0,0-.07,0Zm-.12-.21,0,0a.08.08,0,0,0,0,0s0,0-.05,0l0,0h0a.09.09,0,0,1,.07-.05.06.06,0,0,1,0,.06s0,0,0,0Z"/><path class="cls-1" d="M13.12,5.92l0,0,0,0Zm0-.07h0Zm0,0,.11,0Zm0,0,0,0a0,0,0,0,0,0,0Zm-.08,0v0l0,0Z"/><path class="cls-6" d="M13.09,6c.05,0,.06-.08,0-.15S13,5.7,13,5.72h0v0s0,0,0,.06l0,.05,0,0s0,0,0,0l0,0Z"/><path d="M13.09,6h0a0,0,0,0,0,0,0,.09.09,0,0,0,0-.1A.15.15,0,0,0,13,5.72s0,.07,0,.09,0,0,0,0l0,0,0,0,0,0h0L13,5.9l0,0a.08.08,0,0,1,0-.05s0,0,0-.06l0,0a.17.17,0,0,1,.13.09.11.11,0,0,1,0,.11,0,0,0,0,1,0,0Z"/><path class="cls-8" d="M13,5.85s0-.09,0-.1.08,0,.11.06,0,.1,0,.11S13,5.9,13,5.85Z"/><path d="M13.06,5.93s-.05,0-.07-.08a.13.13,0,0,1,0-.09l0,0a.12.12,0,0,1,.09.07.1.1,0,0,1,0,.09l0,0ZM13,5.75s0,.07,0,.1,0,.07.07.07h0s0-.08,0-.1S13,5.75,13,5.75Z"/><path class="cls-9" d="M16.3,6h-.07a.29.29,0,0,1-.12,0l0,0a.13.13,0,0,1,0,0l.06,0v0h0a.07.07,0,0,1,0,0s-.09,0-.09,0,0,0,.06-.06h0l0,0h-.07s0,0,0-.06a.13.13,0,0,0,0-.06h.06s0,0,.07,0,0,0,0,0,0,0,0,0v0a.08.08,0,0,1,0-.09.1.1,0,0,1,.06,0s0,0,0,0h0s0,0,0,0l0,0,0,0h.07s0,0,0,0l0,0,.06,0,.05,0a.13.13,0,0,1,.12,0,.24.24,0,0,0-.13.16l0,0,0,0a.43.43,0,0,0,0,.07l0,.06,0,0,0,0L16.3,6Z"/><path d="M16.23,6a.22.22,0,0,1-.12,0l0,0a.11.11,0,0,1,0,0,.08.08,0,0,1,0,0l0,0,0,0s0,0,0,0l.12,0h0s.05,0,.07,0l.05,0h0l0,0,.05-.09a.3.3,0,0,1,0-.08l0,0,0,0a.34.34,0,0,1,.12-.16h-.1l0,0c-.05,0-.06,0-.08,0l0,0,0,0h0a.22.22,0,0,1,0-.08l.07,0,0,0h.12a.32.32,0,0,0-.12.17l0,0h0l0,0,0,.07a.11.11,0,0,0,0,.07h0l0,0,0,0L16.3,6s0,0-.07,0Zm-.07-.12-.08,0s0-.07.06-.07h0s0,0,0,0,0,0,0,0,0-.07,0-.08h.06l.05,0s0,0,0,0l0,0s0,0,0,0,0,0,0,0h-.05l-.07,0,0,0s0,0,0,0h.06v0h-.05s0,0-.05.06h.06c.05,0,.06,0,.06,0h0s0,0,0,0,0,0-.06,0Zm.12-.2a.11.11,0,0,1,0,0,.35.35,0,0,1,0-.06.08.08,0,0,1,.06,0l0,0h0a.11.11,0,0,0-.07,0v0s0,0,0,0v0Z"/><path class="cls-1" d="M16.35,5.92l0,0,0,0Zm0-.07h0Zm0,0-.11,0Zm0,0,0,0a0,0,0,0,1,0,0Zm.08,0v0l0,0Z"/><path class="cls-6" d="M16.37,6c-.05,0-.06-.08,0-.15s.1-.1.14-.08h0v0s0,0,0,.06,0,0,0,.05l0,0a.08.08,0,0,1,0,0l0,0Z"/><path d="M16.37,6s0,0,0,0a.14.14,0,0,1,0-.11.17.17,0,0,1,.13-.09l0,0s0,.06,0,.08a.17.17,0,0,0,0,.05l0,0,0,0,0,0Zm.08-.21a.12.12,0,0,0-.1.07.12.12,0,0,0,0,.1,0,0,0,0,0,0,0h0l.06-.05,0,0,0,0s0,0,0-.06Z"/><path class="cls-8" d="M16.47,5.85s0-.09,0-.1-.08,0-.11.06,0,.1,0,.11.06,0,.08-.07Z"/><path d="M16.4,5.93h0s0,0,0,0a.1.1,0,0,1,0-.09.12.12,0,0,1,.09-.07l0,0s0,0,0,.09-.05.08-.08.08Zm.06-.17a.09.09,0,0,0-.08.06.06.06,0,0,0,0,.07l0,0h0s.05,0,.07-.07,0-.06,0-.08Z"/><path class="cls-6" d="M14.73,6.8a4.66,4.66,0,0,1-1.24-.15.05.05,0,0,1,0-.1,4.66,4.66,0,0,1,1.24-.15A4.8,4.8,0,0,1,16,6.55a.06.06,0,0,1,0,.1,4.8,4.8,0,0,1-1.25.15Z"/><path d="M14.73,6.81h0a4.47,4.47,0,0,1-1.25-.16.05.05,0,0,1,0-.05s0,0,0,0a5,5,0,0,1,2.5,0,0,0,0,0,1,0,0,.07.07,0,0,1,0,.05,4.47,4.47,0,0,1-1.25.16Zm0-.41a4.34,4.34,0,0,0-1.24.16s0,0,0,0,0,0,0,0a4.34,4.34,0,0,0,1.24.16A4.47,4.47,0,0,0,16,6.64s0,0,0,0,0,0,0,0a4.47,4.47,0,0,0-1.25-.16Z"/></g><g class="cls-2"><path d="M14.73,6.74h0a4.92,4.92,0,0,1-1.15-.13,4.31,4.31,0,0,1,1.15-.14,4.8,4.8,0,0,1,1.15.13,4.42,4.42,0,0,1-1.15.14Zm0-.26a4.86,4.86,0,0,0-1.15.13,5.57,5.57,0,0,0,2.3,0,5.42,5.42,0,0,0-1.15-.12Z"/><path class="cls-6" d="M14.73,6.34c-.11,0-.21,0-.21-.1s.1-.1.21-.1.21.05.21.1-.09.1-.21.1Z"/><path d="M14.73,6.34c-.12,0-.21,0-.21-.1s.09-.1.21-.1.21,0,.21.1-.09.1-.21.1Zm0-.19c-.11,0-.2,0-.2.09s.09.09.2.09.2,0,.2-.09-.09-.09-.2-.09Z"/><path class="cls-11" d="M14.73,6.31c-.08,0-.15,0-.15-.07s.07-.07.15-.07.16,0,.16.07-.07.07-.16.07Z"/><path d="M14.73,6.31c-.09,0-.16,0-.16-.07s.32-.08.32,0-.07.07-.16.07Zm0-.13c-.08,0-.15,0-.15.06s.3.07.3,0-.07-.06-.15-.06Z"/><path class="cls-6" d="M16.06,6.31h0c-.12,0-.22,0-.23,0s.06.11.17.15l0,0,0,0v0a0,0,0,0,0,0,0s0,0,0,0v0Z"/><path d="M16,6.49c-.12,0-.19-.1-.18-.16s.13-.07.24,0v.1s0,0,0,0l0,0,0,0Zm-.05-.2c-.07,0-.11,0-.12,0s.06.11.17.14h0s0,0,0-.05l0,0V6.33a.14.14,0,0,0-.11,0Z"/><path class="cls-11" d="M16.06,6.34h0c-.08,0-.16,0-.17,0s.05.08.13.11h0l0,0V6.34Z"/><path d="M16,6.46a.21.21,0,0,1-.14-.08v0a.17.17,0,0,0,.13.1Zm-.13-.12s.09,0,.16,0h0c-.1,0-.15,0-.17,0Z"/><path class="cls-6" d="M13.4,6.31h0c.11,0,.21,0,.23,0s-.06.11-.17.15l0,0s0,0,0,0l0,0v0s0,0,0,0v0Z"/><path d="M13.46,6.49h0c.11,0,.19-.09.17-.14s-.11-.06-.22,0v0h0v0c.13,0,.23,0,.24,0s-.06.13-.17.16Z"/><path class="cls-11" d="M13.4,6.34h0c.08,0,.16,0,.17,0s-.05.08-.13.11h0s0,0,0,0V6.34Z"/><path d="M13.44,6.46h0c.08,0,.14-.08.13-.11s-.08,0-.16,0l0,0h0l0,.08h0v0h0l0,0,0,0v0c.15-.06.19,0,.2,0s-.05.09-.13.11Z"/><path class="cls-8" d="M14.35,6.25a0,0,0,0,1,0,0s0,0,0,0a0,0,0,0,1,0,0,0,0,0,0,1,0,0Z"/><path d="M14.39,6.29s-.05,0-.05,0,.1,0,.1,0a0,0,0,0,1,0,0Z"/><path class="cls-8" d="M13.69,6.32a0,0,0,0,1,0,0,0,0,0,0,1,0,0,0,0,0,0,1,0,0,0,0,0,0,1,0,0Z"/><path d="M13.73,6.37a.05.05,0,0,1-.05,0c0-.05.1-.05.1,0a0,0,0,0,1,0,0Z"/><path class="cls-8" d="M15,6.25s0,0,.05,0a0,0,0,0,1,0,0,0,0,0,0,1,0,0,0,0,0,0,1-.05,0Z"/><path d="M15.08,6.29a0,0,0,0,1-.05,0s.09,0,.09,0a0,0,0,0,1,0,0Z"/><path class="cls-8" d="M15.69,6.32a0,0,0,1,1,.08,0,0,0,0,1,1-.08,0Z"/><path d="M15.73,6.37a0,0,0,0,1-.05,0c0-.05.1-.05.1,0a0,0,0,0,1,0,0Z"/><polygon class="cls-9" points="14.04 6.16 14.28 6.25 14.07 6.4 13.83 6.3 14.04 6.16"/><path d="M14.07,6.4l-.24-.09L14,6.15l.24.09-.21.16Zm0-.24-.21.15.24.08.2-.15L14,6.16Z"/><polygon class="cls-12" points="14.04 6.2 14.2 6.26 14.06 6.36 13.9 6.29 14.04 6.2"/><path d="M14.06,6.36,13.9,6.3,14,6.19l.16.06-.14.11Zm0-.16-.13.1.15,0,.14-.1L14,6.2Z"/><polygon class="cls-9" points="15.43 6.16 15.19 6.25 15.4 6.4 15.63 6.3 15.43 6.16"/><path d="M15.39,6.4l-.21-.15.24-.1.22.15-.25.1Zm0-.24-.23.09.21.14.23-.09-.21-.14Z"/><polygon class="cls-12" points="15.42 6.2 15.26 6.26 15.4 6.36 15.56 6.29 15.42 6.2"/><path d="M15.4,6.36l-.14-.1.16-.07.14.1-.16.07Zm0-.16-.16.06.14.09.15-.06-.13-.09Z"/><path class="cls-8" d="M14.54,4.68a.06.06,0,0,1-.12,0h0a.06.06,0,1,1,.12,0Z"/><path d="M14.48,4.74a.07.07,0,0,1-.07-.06.07.07,0,0,1,.07-.07.07.07,0,0,1,.06.07.06.06,0,0,1-.06.06Zm0-.12a.06.06,0,0,0-.06.06.06.06,0,0,0,.06.05h0a0,0,0,0,0,0-.05.06.06,0,0,0,0-.06Z"/><path class="cls-8" d="M14.36,4.7a.07.07,0,0,1-.06.07.07.07,0,0,1-.07-.07h0a.07.07,0,0,1,.07-.07.07.07,0,0,1,.06.07Z"/><path d="M14.3,4.77h0a.07.07,0,1,1,.07-.07.07.07,0,0,1-.07.07Zm0-.13a.06.06,0,0,0-.06.06c0,.07.12.07.12,0a.06.06,0,0,0-.06-.06Z"/><path class="cls-8" d="M14.17,4.75a.08.08,0,0,1-.08.07A.07.07,0,0,1,14,4.75h0a.07.07,0,0,1,.07-.08.08.08,0,0,1,.08.08Z"/><path d="M14.09,4.83h0A.09.09,0,0,1,14,4.75c0-.09.16-.09.16,0a.08.08,0,0,1,0,0,.09.09,0,0,1-.06,0Zm0-.16a.08.08,0,0,0-.07.08.08.08,0,0,0,.12,0l0,0a.08.08,0,0,0-.07-.08Z"/><path class="cls-8" d="M13.94,4.8a.09.09,0,1,1-.17,0h0a.09.09,0,0,1,.09-.08.09.09,0,0,1,.08.08Z"/><path d="M13.86,4.89h0a.09.09,0,0,1-.09-.08.09.09,0,0,1,.09-.09A.09.09,0,0,1,14,4.8a.09.09,0,0,1-.09.09Zm0-.16a.07.07,0,0,0-.08.07c0,.09.16.09.16,0a.08.08,0,0,0-.08-.07Z"/><path class="cls-8" d="M13.67,4.85a.1.1,0,0,1-.09.1.1.1,0,0,1-.1-.1h0a.09.09,0,0,1,.1-.09.09.09,0,0,1,.09.09Z"/><path d="M13.58,5h0a.09.09,0,0,1-.1-.1.1.1,0,0,1,.1-.1.1.1,0,0,1,.09.1.09.09,0,0,1-.09.1Zm0-.19a.09.09,0,0,0-.09.09c0,.1.17.1.17,0a.09.09,0,0,0-.08-.09Z"/><path class="cls-8" d="M13.38,4.93a.1.1,0,0,1-.1.11.11.11,0,0,1-.1-.1h0a.11.11,0,0,1,.1-.1.1.1,0,0,1,.1.1Z"/><path d="M13.28,5a.11.11,0,0,1-.1-.1.1.1,0,0,1,.1-.11.11.11,0,0,1,.11.1.11.11,0,0,1-.11.11Zm0-.2a.09.09,0,0,0-.09.09c0,.11.19.11.19,0a.09.09,0,0,0-.1-.09Z"/><path class="cls-8" d="M13.16,5.09a.1.1,0,1,1-.2,0h0a.1.1,0,0,1,.1-.1.11.11,0,0,1,.1.1Z"/><path d="M13.06,5.2h0A.11.11,0,1,1,13.13,5a.13.13,0,0,1,0,.07.12.12,0,0,1,0,.08.09.09,0,0,1-.07,0Zm0-.2a.1.1,0,0,0-.1.09.1.1,0,0,0,.17.07.09.09,0,0,0,0-.07.1.1,0,0,0-.1-.09Z"/><path class="cls-8" d="M13,5.38a.11.11,0,0,1-.22,0h0a.11.11,0,1,1,.22,0Z"/><path d="M12.93,5.5h0a.11.11,0,0,1-.11-.12A.12.12,0,0,1,13,5.3a.12.12,0,0,1,0,.08.12.12,0,0,1-.12.12Zm0-.22a.1.1,0,0,0-.1.1.1.1,0,0,0,.1.11A.11.11,0,0,0,13,5.38a.11.11,0,0,0-.11-.1Z"/><path class="cls-8" d="M14.58,4.65a.06.06,0,0,0,.06.06.06.06,0,0,0,0-.06h0a0,0,0,0,0,0-.05.06.06,0,0,0-.06.05Z"/><path d="M14.64,4.71h0a.06.06,0,0,1-.06-.06c0-.06.12-.06.12,0a.06.06,0,0,1-.06.06Zm0-.11a.05.05,0,0,0,0,.1h0a0,0,0,0,0,0-.1Z"/><path class="cls-8" d="M14.92,4.68a.06.06,0,0,0,.06.06A.06.06,0,0,0,15,4.68h0A.05.05,0,0,0,15,4.62a.06.06,0,0,0-.06.06Z"/><path d="M15,4.74h0a.06.06,0,0,1-.06-.06A.07.07,0,0,1,15,4.61a.07.07,0,0,1,.07.07.07.07,0,0,1-.07.06Zm0-.12a.06.06,0,0,0-.05.06,0,0,0,0,0,.05.05h0A.06.06,0,0,0,15,4.68.06.06,0,0,0,15,4.62Z"/><path class="cls-8" d="M15.1,4.7a.07.07,0,0,0,.06.07.07.07,0,0,0,.07-.07h0a.07.07,0,0,0-.06-.07.07.07,0,0,0-.07.07Z"/><path d="M15.17,4.77h0a.07.07,0,0,1-.08-.07.08.08,0,0,1,.08-.07.08.08,0,0,1,.07.07.08.08,0,0,1-.07.07Zm0-.13a.07.07,0,0,0-.07.06.06.06,0,0,0,.06.06h0a.06.06,0,1,0,0-.12Z"/><path class="cls-8" d="M15.3,4.75a.07.07,0,0,0,.07.07.08.08,0,0,0,.08-.07h0a.08.08,0,0,0-.08-.08.07.07,0,0,0-.07.08Z"/><path d="M15.37,4.83h0a.09.09,0,0,1-.08-.08c0-.09.16-.09.16,0a.08.08,0,0,1-.08.08Zm0-.16a.08.08,0,0,0-.07.08c0,.07.14.07.14,0a.08.08,0,0,0-.07-.08Z"/><path class="cls-8" d="M15.52,4.8a.09.09,0,1,0,.17,0h0a.09.09,0,0,0-.09-.08.09.09,0,0,0-.08.08Z"/><path d="M15.6,4.89h0a.09.09,0,0,1-.08-.09.09.09,0,0,1,.08-.08.09.09,0,0,1,.09.08.09.09,0,0,1-.09.09Zm0-.16a.07.07,0,0,0-.07.07c0,.09.15.09.15,0a.07.07,0,0,0-.08-.08Z"/><path class="cls-8" d="M15.79,4.85a.1.1,0,0,0,.1.1.1.1,0,0,0,.09-.1h0a.09.09,0,0,0-.09-.09.09.09,0,0,0-.1.09Z"/><path d="M15.89,5a.09.09,0,0,1-.1-.1.1.1,0,0,1,.1-.1.1.1,0,0,1,.09.1.09.09,0,0,1-.09.1Zm0-.19a.09.09,0,0,0,0,.18h0a.09.09,0,0,0,0-.18Z"/><path class="cls-8" d="M16.08,4.93a.1.1,0,0,0,.1.11.11.11,0,0,0,.1-.1h0a.1.1,0,0,0-.2,0Z"/><path d="M16.18,5a.11.11,0,0,1-.11-.11.11.11,0,0,1,.22,0c0,.07-.05.11-.11.11Zm0-.2a.1.1,0,0,0-.1.09c0,.11.19.11.2,0a.1.1,0,0,0-.1-.1Z"/><path class="cls-8" d="M16.3,5.09a.11.11,0,0,0,.1.11.1.1,0,0,0,.1-.11h0a.1.1,0,0,0-.1-.1.11.11,0,0,0-.1.1Z"/><path d="M16.4,5.2h0a.09.09,0,0,1-.07,0,.11.11,0,0,1,0-.08.1.1,0,0,1,.1-.1.11.11,0,0,1,.11.1.1.1,0,0,1-.11.11Zm0-.2a.09.09,0,0,0-.09.09.14.14,0,0,0,0,.07.11.11,0,0,0,.07,0h0a.1.1,0,0,0,.1-.1A.09.09,0,0,0,16.4,5Z"/><path class="cls-8" d="M16.42,5.38a.11.11,0,0,0,.22,0h0a.11.11,0,1,0-.22,0Z"/><path d="M16.53,5.5h0a.11.11,0,0,1-.11-.12.11.11,0,1,1,.22,0,.11.11,0,0,1-.11.12Zm0-.22a.1.1,0,0,0-.1.1.1.1,0,1,0,.2,0,.1.1,0,0,0-.1-.1Z"/><path class="cls-8" d="M14.88,4.65a.06.06,0,0,1-.06.06.06.06,0,0,1-.05-.06h0a0,0,0,0,1,.05-.05.06.06,0,0,1,.06.05Z"/><path d="M14.82,4.71a.06.06,0,0,1-.05-.06c0-.06.11-.06.11,0a.06.06,0,0,1-.06.06Zm0-.11a.05.05,0,0,0,0,.1h0a0,0,0,0,0,0-.1Z"/><path class="cls-6" d="M14.66,4.72s-.06,0-.06.07a.51.51,0,0,0,0,.13V5a.58.58,0,0,1-.05.25l.2.15.2-.15a.58.58,0,0,1,0-.25v0s0-.09,0-.13a.16.16,0,0,0-.07-.07.13.13,0,0,1,0,.06h0V5a.28.28,0,0,0,0,.09s0,0,0,.07l-.1.1-.1-.1s0,0,0-.07a.28.28,0,0,0,0-.09V4.79h0s0,0,0-.06Z"/><path d="M14.73,5.36l-.2-.15A.85.85,0,0,0,14.58,5a.76.76,0,0,1,0-.17.12.12,0,0,1,.07-.07V5s0,.06,0,.09a.14.14,0,0,1,0,.07l.11.09.09-.09a.64.64,0,0,1,0-.07V4.74h0v.37a.64.64,0,0,0,0,.07l-.1.1-.12-.1a.14.14,0,0,0,0-.07s0-.06,0-.09V4.74s0,0-.05,0a.57.57,0,0,0,0,.13.89.89,0,0,1-.05.29l.19.14.2-.15a.54.54,0,0,1,0-.24,1.59,1.59,0,0,0,0-.17.07.07,0,0,0,0,0s0,0,0,0,0,.08,0,.13a.83.83,0,0,0,0,.28l-.2.16Z"/><path class="cls-6" d="M14.66,4.72s0,0,0,.06h0V5a.28.28,0,0,1,0,.09s0,0,0,.07l.1.1.1-.1s0,0,0-.07a.28.28,0,0,1,0-.09V4.79h0a.13.13,0,0,0,0-.06h-.14Z"/><path d="M14.73,5.28l-.11-.1a.14.14,0,0,0,0-.07s0-.06,0-.09V4.74a.12.12,0,0,1,.16,0v.39a.64.64,0,0,0,0,.07l-.11.1Zm0-.57-.07,0V5s0,.06,0,.09a.14.14,0,0,1,0,.07l.1.09.1-.09a.64.64,0,0,1,0-.07V4.74a.09.09,0,0,0-.07,0Z"/><path class="cls-8" d="M14.68,4.66a.05.05,0,1,0,.1,0h0a0,0,0,0,0-.1,0Z"/><path d="M14.73,4.72a.06.06,0,0,1-.06-.06.06.06,0,0,1,.06-.06s.06,0,.06.06a.06.06,0,0,1-.06.06Zm0-.11a.06.06,0,0,0-.05,0,.05.05,0,0,0,.1,0,.05.05,0,0,0,0,0Z"/><path class="cls-8" d="M14.79,4.75a.06.06,0,1,1-.12,0h0a.06.06,0,0,1,.12,0Z"/><path d="M14.73,4.82a.07.07,0,0,1-.06-.07c0-.07.13-.07.13,0a.07.07,0,0,1-.07.07Zm0-.12a0,0,0,0,0-.05,0,.06.06,0,0,0,.11,0,.06.06,0,0,0-.06,0Z"/><path class="cls-8" d="M14.8,4.84a.07.07,0,0,1-.14,0h0a.07.07,0,0,1,.14,0Z"/><path d="M14.73,4.92h0a.09.09,0,0,1-.08-.08s0-.07.08-.08a.08.08,0,0,1,0,.16Zm0-.15a.07.07,0,0,0-.07.07c0,.08.14.08.14,0a.07.07,0,0,0-.07-.07Z"/><path class="cls-8" d="M14.82,5a.09.09,0,0,1-.18,0h0a.09.09,0,0,1,.18,0Z"/><path d="M14.73,5h0A.09.09,0,0,1,14.64,5c0-.1.18-.1.18,0a.09.09,0,0,1-.09.09Zm0-.17a.09.09,0,0,0-.08.08c0,.09.16.09.16,0a.08.08,0,0,0-.08-.08Z"/><path class="cls-8" d="M14.83,5.08a.1.1,0,0,1-.1.1.11.11,0,0,1-.1-.1h0a.1.1,0,0,1,.1-.1.09.09,0,0,1,.1.1Z"/><path d="M14.73,5.18h0a.09.09,0,0,1-.1-.1.1.1,0,0,1,.1-.11.11.11,0,0,1,.11.11.11.11,0,0,1-.11.1Zm0-.2a.1.1,0,0,0-.09.1c0,.1.19.1.19,0a.11.11,0,0,0-.1-.1Z"/><path class="cls-9" d="M14.73,5.16l-.06,0a.18.18,0,0,0-.05.07h-.1a.1.1,0,0,0,0,0s0,0,0,0h0a0,0,0,0,0,0,0l.06,0h0a0,0,0,0,1,0,0h0s0,0,0,0h-.1a.15.15,0,0,0,0,0l.06,0v0h0s0,0-.06,0,0,0,0,0l-.05,0,.05,0s0,0,0,0a.1.1,0,0,0,.06,0h0v0l0,0s0,.08,0,.08a.24.24,0,0,0,.1,0,.08.08,0,0,0,0,0h0v0l0,0s0,0,0,0a.12.12,0,0,1,0,.05.58.58,0,0,0,.13,0c.1-.07,0-.06.12,0l.13,0a.12.12,0,0,1,0-.05s0,0,0,0l0,0v0h0a.06.06,0,0,0,0,0s.09,0,.09,0,0-.06,0-.08l0,0v0h0s0,0,0,0,0,0,.06,0l0,0a.08.08,0,0,1,0,0s0,0-.06,0,0,0-.06,0h0v0a.08.08,0,0,0,.05,0,.15.15,0,0,0,0,0h-.09s0,0-.05,0h0l0,0h0l.06,0a0,0,0,0,0,0,0h0l0,0a0,0,0,0,0,0,0h-.1a.18.18,0,0,0-.05-.07l-.06,0Z"/><path d="M14.93,5.82h0l-.13,0-.06,0-.05,0-.14,0a.43.43,0,0,0,0-.05.09.09,0,0,1,0,0s0,0,0,0l0,0a.08.08,0,0,0,0,0,.35.35,0,0,1,0,.06l.12,0,.05,0s0,0,.07,0l.12,0s0,0,0,0v0l0,0v0s0,0,0,0,0,0,0,.06v0a.12.12,0,0,0,0,0Zm-.46-.09h0l.08,0a.06.06,0,0,0,0,0h0v0s0,0,0,0a.11.11,0,0,1-.08,0Zm.51,0-.07,0a.06.06,0,0,1,0,0s0,0,0,0H15s0,0,0-.07l0,0v0c.05,0,.08,0,.12,0l.06,0h0l0,0s0,0-.05,0h0a.05.05,0,0,0,0,0l0,0h0l0,0H15l0,0h-.08l-.06,0h0l0,0h0l.06,0h0l-.05,0H15a.06.06,0,0,1,0,0,.06.06,0,0,1-.05,0h0l0,0s0,0,.05,0l.06,0-.05,0s0,0-.06,0-.06,0-.06,0,0,0,0,0,0,.08,0,.09Zm-.52,0a.08.08,0,0,1,0-.08l0,0s0,0-.07,0,0,0,0,0l-.06-.05,0,0s0,0,.06,0a.06.06,0,0,1,.05,0l0,0s0,0,0,0a.15.15,0,0,1,0,0h.1l0,0h0l0,0h0a.16.16,0,0,1-.08,0h0a.11.11,0,0,0,.06,0h0s0,0,0,0h0l-.09,0h-.08l0,0h0l0,0H14.5s0,0-.06,0,0,0,0,0a.12.12,0,0,1-.06,0l.05,0,0,0s.05,0,.05,0h0l0,0s0,0,0,0,0,0,0,.07Zm0-.35,0,0v0h0a0,0,0,0,1,0,0h.1a.18.18,0,0,1,.05-.06.11.11,0,0,1,.06,0l0,0s.06.07.07.07h.09a0,0,0,0,1,0,0l0,0h0l0,0a.1.1,0,0,0,0,0h-.1a.18.18,0,0,0-.05-.06l-.06,0-.06,0a.18.18,0,0,0-.05.06h-.1a.1.1,0,0,0,0,0h0v0l0,0Z"/><path class="cls-1" d="M14.69,5.66a.14.14,0,0,1,0,0l0,0Zm-.06-.06a.16.16,0,0,0-.09,0Zm.1-.17a.48.48,0,0,1,0-.12Zm-.1.12h0Zm0,0,0,0a0,0,0,0,1,0,0Zm0-.06s0,0,0,0a.07.07,0,0,0,0,0Zm.08.22a.14.14,0,0,0,0,0l0,0Zm.05-.06a.17.17,0,0,1,.1,0Zm0,0h0Zm0,0,0,0a0,0,0,0,0,0,0Zm-.05-.06s0,0,0,0a.07.07,0,0,1,0,0Z"/><path class="cls-6" d="M14.63,5.55a.12.12,0,0,1,.1-.12.11.11,0,0,1,.1.12c0,.07,0,.13-.1.13a.12.12,0,0,1-.1-.13Z"/><path d="M14.73,5.68c-.06,0-.1,0-.1-.13s0-.12.1-.12.1.05.1.12,0,.13-.1.13Zm0-.25c-.05,0-.09.06-.09.12s0,.12.09.12.09,0,.09-.12,0-.12-.09-.12Z"/><path class="cls-8" d="M14.66,5.55a.07.07,0,1,1,.14,0c0,.06,0,.1-.07.1s-.07,0-.07-.1Z"/><path d="M14.73,5.65s-.07,0-.07-.1a.07.07,0,1,1,.14,0c0,.06,0,.1-.07.1Zm0-.18s-.06,0-.06.08.12.1.12,0,0-.08-.06-.08Z"/><path class="cls-8" d="M13.8,5.76a.07.07,0,0,1,.08-.08.08.08,0,0,1,.08.08.09.09,0,0,1-.08.08.08.08,0,0,1-.08-.08Z"/><path d="M13.88,5.84a.08.08,0,0,1-.09-.08c0-.09.18-.09.18,0a.08.08,0,0,1-.09.08Zm0-.16a.09.09,0,0,0-.08.08c0,.08.16.08.16,0a.09.09,0,0,0-.08-.08Z"/><path class="cls-8" d="M15.67,5.77a.08.08,0,0,0-.08-.08.09.09,0,0,0-.08.08.08.08,0,0,0,.08.08.07.07,0,0,0,.08-.08Z"/><path d="M15.59,5.86a.09.09,0,0,1-.09-.09c0-.09.18-.09.18,0a.09.09,0,0,1-.09.09Zm0-.16a.08.08,0,0,0-.08.07c0,.09.16.09.16,0a.08.08,0,0,0-.08-.07Z"/><path class="cls-9" d="M14.73,12.18c1.7-1.33,3.54-4.06,1.39-5.5a1.42,1.42,0,0,0-1.07.12c-.11-.06-.2-.06-.32.07a.24.24,0,0,0-.32-.1,1.26,1.26,0,0,0-1-.1c-1.87,1.17-.72,4,1.35,5.51Z"/><path class="cls-13" d="M14.73,12.23l0,0A5.18,5.18,0,0,1,12.4,8.3a2,2,0,0,1,1-1.67,1.29,1.29,0,0,1,1.06.11.2.2,0,0,1,.11,0,.27.27,0,0,1,.21.11.23.23,0,0,1,.31-.06,1.46,1.46,0,0,1,1.07-.11,2,2,0,0,1,1,1.66c.06,1.36-1.15,2.94-2.37,3.9l0,0Zm-.94-5.59a1.55,1.55,0,0,0-.4.06,1.93,1.93,0,0,0-.92,1.6,5.19,5.19,0,0,0,2.25,3.84c1.21-1,2.39-2.5,2.34-3.83a2,2,0,0,0-1-1.6,2.85,2.85,0,0,0-.42,0,1,1,0,0,0-.61.16h0c-.11-.06-.17,0-.27.06l0,0,0,0a.23.23,0,0,0-.29-.09,1.47,1.47,0,0,0-.63-.16Z"/><path class="cls-14" d="M17.88,9.15s.19-.27.2-.27a.43.43,0,0,0,.21-.28c.19-.06.13-.22.15-.25a.21.21,0,0,0,0-.24s.07-.28,0-.32c0-.27-.16-.25-.29-.07s-.17.16-.12.29c-.18,0-.18.28-.13.43-.24,0-.11.27-.11.28s.06.44.07.43Z"/><path class="cls-15" d="M17.88,9.18s-.05,0-.11-.23,0-.21,0-.24-.05-.18,0-.25a.17.17,0,0,1,.1-.06.47.47,0,0,1,0-.35A.13.13,0,0,1,18,8a.25.25,0,0,1,0-.19.2.2,0,0,1,.14-.11c.07-.12.21-.17.28-.1a.26.26,0,0,1,0,.18c.08.06.05.22,0,.31a.31.31,0,0,1-.06.3.21.21,0,0,1-.14.25.47.47,0,0,1-.22.28s-.19.26-.19.26Zm0-.71q-.08,0-.09,0c0,.05,0,.14,0,.18s0,.05,0,.06,0,.24,0,.34c.17-.24.18-.24.2-.24a.36.36,0,0,0,.17-.24l0,0a.15.15,0,0,0,.12-.18s0-.05,0-.05a.21.21,0,0,0,0-.22v0c0-.2,0-.24,0-.24a.05.05,0,0,1,0,0c0-.1,0-.14,0-.15s-.13,0-.18.1a.18.18,0,0,0-.12.26,0,0,0,0,1,0,0h0a.08.08,0,0,0-.08,0,.44.44,0,0,0,0,.34,0,0,0,0,1,0,0s0,0,0,0Z"/><path class="cls-14" d="M16.38,11.47l.12.08a.17.17,0,0,0,.17.14c0,.14.18.12.29,0a.27.27,0,0,0,.34.09.32.32,0,0,0,.42-.05c.12.1.2,0,.27-.08a.15.15,0,0,0,.2-.1c.19,0,.09-.19-.06-.27.12-.11.26-.34.07-.38a.3.3,0,0,0-.26,0c0-.1-.16-.13-.31,0-.05-.12-.22-.06-.31,0-.1-.1-.23-.1-.41,0l-.53.5Z"/><path class="cls-15" d="M17.47,11.91a.28.28,0,0,1-.19-.07.17.17,0,0,1-.12,0,.25.25,0,0,1-.21-.1c-.13.08-.27.05-.31-.06a.21.21,0,0,1-.18-.17l-.1-.05,0,0v0l.53-.5c.2-.11.33-.12.44,0,.11-.08.26-.1.32,0,.13-.09.27-.08.32,0a.29.29,0,0,1,.26,0,.11.11,0,0,1,.1.08.36.36,0,0,1-.13.31.29.29,0,0,1,.14.23.13.13,0,0,1-.11.09.19.19,0,0,1-.22.1c-.08.13-.17.16-.28.08a.35.35,0,0,1-.25.1Zm-.18-.13a.3.3,0,0,0,.41,0h0c.09.07.15,0,.21-.07s0,0,.05,0,.13,0,.16-.07,0,0,0,0a.07.07,0,0,0,.07,0s-.05-.12-.14-.17,0,0,0,0,0,0,0,0,.16-.21.14-.27,0,0-.06,0A.21.21,0,0,0,18,11h0s0,0,0,0a.09.09,0,0,0-.09-.06.27.27,0,0,0-.16.06h0l0,0s0,0-.08,0a.28.28,0,0,0-.17.07s0,0-.05,0-.21-.08-.38,0l-.48.46.08.06c0,.09.09.13.13.13h0a0,0,0,0,1,0,0c0,.1.14.09.24,0h0s0,0,0,0,.14.12.3.07Z"/><path class="cls-14" d="M16.38,11.17c0-.13-.06-.36.06-.38,0-.21,0-.45.25-.43,0-.2,0-.39.25-.42,0,0,.18-.65.36-.2.08.13.06.35-.08.31,0,.16,0,.3-.19.3a.27.27,0,0,1,0,.34l-.61.48Z"/><path class="cls-15" d="M16.38,11.21h0l0,0a.74.74,0,0,0,0-.15c0-.1,0-.22.07-.26a.45.45,0,0,1,.07-.36.25.25,0,0,1,.18-.08v-.05c0-.16,0-.32.24-.36,0-.09.12-.36.26-.36s.12.06.17.18a.36.36,0,0,1,0,.3.12.12,0,0,1-.1.06.3.3,0,0,1-.05.22.24.24,0,0,1-.13.07.3.3,0,0,1-.06.33l-.62.49Zm.3-.82a.17.17,0,0,0-.14,0,.44.44,0,0,0-.06.35.05.05,0,0,1,0,0c-.05,0-.05.08,0,.19s0,.05,0,.08l.55-.44a.24.24,0,0,0,0-.29s0,0,0,0l0,0h0a.15.15,0,0,0,.12-.05.23.23,0,0,0,0-.21s0,0,0,0h0s.05,0,.06,0a.27.27,0,0,0,0-.23c-.05-.13-.09-.14-.1-.14s-.16.2-.2.33a0,0,0,0,1,0,0c-.15,0-.17.12-.2.3l0,.09a0,0,0,0,1,0,0Z"/><path class="cls-14" d="M17.46,10.36l.19,0c.2-.14.28-.2.38,0,.16,0,.32,0,.31.11.2,0,.2.15.18.25s-.05.43-.17.14c-.38-.25-.6-.22-1.21-.07.1-.12.21-.23.32-.35Z"/><path class="cls-15" d="M18.45,11s-.09,0-.13-.16c-.36-.21-.61-.18-1.17,0,0,0,0,0,0,0a0,0,0,0,1,0,0l.32-.34.21-.06c.19-.13.3-.19.4,0a.34.34,0,0,1,.3,0,.2.2,0,0,1,0,.08.22.22,0,0,1,.14.08.26.26,0,0,1,0,.21.36.36,0,0,1,0,.27l-.06,0Zm-.65-.39a1,1,0,0,1,.57.19.56.56,0,0,0,.08.13.33.33,0,0,0,0-.23.22.22,0,0,0,0-.17.16.16,0,0,0-.13-.05s0,0,0,0a.14.14,0,0,0,0-.06s-.14,0-.26,0a0,0,0,0,1,0,0c-.05-.07-.08-.08-.1-.08a.5.5,0,0,0-.23.13l-.21,0-.22.26a2.28,2.28,0,0,1,.56-.09Z"/><path class="cls-14" d="M17.56,10.16s.56-.16.5-.34a.28.28,0,0,0,.2-.2c.33-.11.32-.31.32-.31s.26-.21.22-.4,0-.35-.25-.21c-.2,0-.27.11-.33.29-.1-.12-.26.07-.27.25l-.26.26-.21.41c0,.08.05.17.08.25Z"/><path class="cls-15" d="M17.56,10.19h0l0,0-.07-.25s.2-.4.21-.43l.26-.28c0-.12.11-.29.23-.29h.05c.05-.15.13-.29.36-.26s.2-.08.24,0,0,.13,0,.25a.43.43,0,0,1-.18.38l-.06.06h0s0,.21-.33.33a.24.24,0,0,1-.17.19.07.07,0,0,1,0,.06c-.06.12-.31.21-.49.27Zm.17-.67-.22.4.07.19c.32-.1.42-.19.45-.24s0,0,0,0v0l0,0a.21.21,0,0,0,.16-.16l0,0c.29-.1.28-.27.28-.27l.07-.1c.09-.08.18-.17.15-.3a.47.47,0,0,0,0-.23.31.31,0,0,0-.18,0h-.06c-.14,0-.21.1-.26.27a0,0,0,0,1,0,0s0,0,0,0-.19.07-.21.23l-.26.28Z"/><path class="cls-14" d="M17.57,9.7a.39.39,0,0,1-.19-.36c-.09-.13-.15-.2-.06-.31l-.07-.26c-.17-.07-.1-.22-.05-.28a.29.29,0,0,1,0-.35c0-.22.15-.14.27,0s.21.15.06.29c.15.06.19.19.11.25a.17.17,0,0,1,.08.27c.13.11.08.26.12.38s-.17.25-.26.37Z"/><path class="cls-15" d="M17.57,9.74h0a.4.4,0,0,1-.2-.4c-.09-.1-.16-.2-.06-.32a2.2,2.2,0,0,0-.07-.21.23.23,0,0,1-.11-.12.25.25,0,0,1,.05-.19.32.32,0,0,1,0-.37.18.18,0,0,1,0-.13c.07-.07.22,0,.29.13h0a.31.31,0,0,1,.12.19.17.17,0,0,1,0,.11.23.23,0,0,1,.14.17.19.19,0,0,1,0,.08.22.22,0,0,1,.09.14.19.19,0,0,1,0,.14.38.38,0,0,1,.1.25.25.25,0,0,0,0,.12l-.27.4,0,0ZM17.26,8s0,0,0,.1a.26.26,0,0,0,0,.33,0,0,0,0,1,0,0,.15.15,0,0,0-.05.14.15.15,0,0,0,.08.08,0,0,0,0,1,0,0s.06.25.06.25,0,.16,0,.28a.11.11,0,0,1,0,0,.33.33,0,0,0,.14.3l.24-.34s0-.06,0-.1A.32.32,0,0,0,17.69,9s0,0,0,0,0,0,0,0a.11.11,0,0,0,0-.11.17.17,0,0,0-.1-.11s0,0,0,0l0,0a0,0,0,0,0,0-.06s0-.09-.13-.13a0,0,0,0,1,0,0,.06.06,0,0,1,0,0,.11.11,0,0,0,.05-.09.29.29,0,0,0-.1-.14A.34.34,0,0,0,17.26,8Z"/><path class="cls-14" d="M17.81,8.67s-.23-.3-.17-.32-.08-.19,0-.28a.24.24,0,0,1,0-.35.26.26,0,0,1,.05-.34c0-.17.09-.21.19-.24.08-.27.2-.2.26,0a.31.31,0,0,1,.06.34.15.15,0,0,1,0,.25l-.32.93Z"/><path class="cls-15" d="M17.81,8.7h0s-.2-.26-.18-.34h0a.14.14,0,0,0,0-.07.31.31,0,0,1,0-.19.29.29,0,0,1,0-.37.29.29,0,0,1,.08-.35c-.05-.17.1-.22.2-.25,0-.23.22-.24.31,0a.32.32,0,0,1,.06.34.15.15,0,0,1,.06.12.22.22,0,0,1-.09.16l-.31.92s0,0,0,0ZM17.94,7s-.05,0-.09.15-.2.09-.18.23a.28.28,0,0,0-.07.32,0,0,0,0,1,0,0,.22.22,0,0,0,0,.3s0,0,0,0a.26.26,0,0,0,0,.17l0,.09s0,0,0,0a1.83,1.83,0,0,0,.15.21l.3-.86a.21.21,0,0,0,.07-.13s0,0-.05-.08a.05.05,0,0,1,0,0,.28.28,0,0,0,0-.31C18,7.05,18,7,17.94,7Z"/><path class="cls-14" d="M17.77,7.2,17.59,7c.05-.1.08-.29-.05-.37s-.47-.44-.53,0c-.05-.14-.18-.28-.27-.12-.2-.18-.31-.12-.2.1,0,0-.1.16.15.27,0,0-.08.28.21.29a.15.15,0,0,0,.15.2c-.08.11.06.22.15.18,0,.12,0,.18.12.2L17.5,8l.15.21.12-1Z"/><path class="cls-15" d="M17.65,8.24h0L17.47,8l-.17-.21a.16.16,0,0,1-.14-.06.14.14,0,0,1,0-.11.17.17,0,0,1-.14-.1.12.12,0,0,1,0-.1.21.21,0,0,1-.13-.09.15.15,0,0,1,0-.11.26.26,0,0,1-.15-.07A.29.29,0,0,1,16.65,7a.34.34,0,0,1-.16-.18.15.15,0,0,1,0-.14.18.18,0,0,1,0-.19c0-.07.17,0,.25,0,.08-.1.2,0,.27.06.05-.17.15-.2.22-.2a.44.44,0,0,1,.35.27c.13.07.12.24.06.37l.17.18-.12,1s0,0,0,0Zm-.47-.68h0s0,0,0,0a.23.23,0,0,0,0,.11s.05,0,.11,0l.29.36.12-.91,0,0L17.56,7s0,0,0,0,.1-.23,0-.32a.42.42,0,0,0-.3-.24c-.12,0-.16.13-.17.24a0,0,0,0,1,0,0s0,0,0,0-.1-.17-.15-.17,0,0-.06.06h-.05a.33.33,0,0,0-.17-.1s0,0,0,.16,0,.07,0,.12a.23.23,0,0,0,.14.13.09.09,0,0,1,0,.08.17.17,0,0,0,0,.15s.07,0,.14,0l0,0a0,0,0,0,1,0,0,.11.11,0,0,0,0,.08.14.14,0,0,0,.11.07,0,0,0,0,1,0,0s0,0,0,0a.08.08,0,0,0,0,.08.1.1,0,0,0,.09.06s0,0,0,0Z"/><path class="cls-15" d="M17.62,11.57h0a5.51,5.51,0,0,1-1.27-.13s0,0,0,0h.05a5.26,5.26,0,0,0,1.21.11,0,0,0,0,1,0,0,0,0,0,0,1,0,0Zm-1.18-.22h0a0,0,0,0,1,0,0A5.46,5.46,0,0,1,17,10l0-.07s.07,0,.07,0L17,10a4.57,4.57,0,0,0-.57,1.28,0,0,0,0,1,0,0Zm.14,0a0,0,0,0,1,0,0s0,0,0,0c.41,0,1.34-.14,1.35-.14s0,0,0,0,0,0,0,0-.94.14-1.35.15Zm1-1.17h0s0,0,0,0a7.61,7.61,0,0,1,1.06-1.18h.05s0,0,0,0a7,7,0,0,0-1.05,1.17l0,0Zm.34-1.07h0a0,0,0,0,1,0-.05,8.81,8.81,0,0,0,.39-1.08,0,0,0,0,1,.05,0,0,0,0,0,1,0,0,7.88,7.88,0,0,1-.41,1.12Zm-.07-.31h0s0,0,0,0a3.84,3.84,0,0,0,.1-1.17,0,0,0,0,1,0,0s0,0,0,0a3.75,3.75,0,0,1-.11,1.19s0,0,0,0ZM17.6,8a.05.05,0,0,1,0,0c0-.12-.07-.24-.1-.35a5.66,5.66,0,0,0-.63-.73,0,0,0,0,1,0,0h.05a6.86,6.86,0,0,1,.54.61,5.15,5.15,0,0,1-.1-.66s0,0,0,0,0,0,0,0a5.17,5.17,0,0,0,.14.81,1,1,0,0,1,.14.28s0,0,0,0h0v0a0,0,0,0,1,0,.05Z"/><path class="cls-16" d="M14.72,12c-1.23-1.22-2.49-3.5-1.23-4.65.22.13.48,0,.84-.13a.28.28,0,0,0,.39.06.29.29,0,0,0,.35-.07c.35.21.81.32.91.11,1.24,1.23,0,3.51-1.26,4.68Z"/><path class="cls-13" d="M14.72,12l0,0a5.47,5.47,0,0,1-1.77-3.46,1.63,1.63,0,0,1,.53-1.23l0,0h0c.19.11.43,0,.77-.12l.07,0,0,0a.24.24,0,0,0,.34.06l.16,0A.24.24,0,0,0,15,7.17l0,0,0,0c.36.22.78.29.86.12l0,0,0,0a1.76,1.76,0,0,1,.51,1.34A5.4,5.4,0,0,1,14.74,12l0,0ZM13.49,7.38A1.61,1.61,0,0,0,13,8.55a5.43,5.43,0,0,0,1.72,3.39,5.36,5.36,0,0,0,1.74-3.31A1.73,1.73,0,0,0,16,7.37a.33.33,0,0,1-.25.09,1.42,1.42,0,0,1-.67-.22.3.3,0,0,1-.36.06c-.07.09-.27.07-.39,0h0c-.35.14-.6.23-.81.12Z"/><path class="cls-17" d="M13.79,9.58l-.19.08-.12.19a.73.73,0,0,0-.16.16,6.87,6.87,0,0,0,1,1.57,1.27,1.27,0,0,0,.13-.19,1.91,1.91,0,0,0,.26-.58,1.39,1.39,0,0,1-.16-.43,3.06,3.06,0,0,0-.16-.32l-.14-.21-.15-.12-.21-.15Z"/><path d="M14.35,11.6h0a6.85,6.85,0,0,1-1-1.58.91.91,0,0,1,.16-.17l.11-.19.19-.07h.14l.22.14.15.12.13.21a2.15,2.15,0,0,1,.17.32,1.6,1.6,0,0,0,.15.44,1.84,1.84,0,0,1-.25.59,1.33,1.33,0,0,1-.14.19Zm-.44-2h-.12l-.19.07-.11.19a2.25,2.25,0,0,0-.16.16,6.43,6.43,0,0,0,1,1.56l.13-.18a1.89,1.89,0,0,0,.25-.58,1.19,1.19,0,0,1-.15-.43c0-.09-.17-.31-.17-.32l-.13-.21-.15-.12-.22-.14Z"/><path d="M14,11.15l0,0,.1-.25.1-.12h0l-.1.13,0,.1-.07.14,0,0ZM14.6,11l-.12-.15-.2-.07s0,0-.06-.13l-.05-.16-.09-.05s-.14-.23-.21-.33h0c.07.1.2.33.2.33l.1.05.05.16a.34.34,0,0,0,0,.12l.2.07.12.16Zm-.89-.22.08-.17h0l-.09-.12h0l.08.13h0l-.08.17Zm.82-.29,0-.1-.05,0-.07-.1-.12-.05L14.17,10l-.06,0L14,10h0l.13,0,.07,0,.07.16.11.05.07.11h.05l0,.11Zm-.94,0,.07,0s.08-.21.14-.33,0-.06.06-.06l0,0h0s0,0,.08-.1h0a2,2,0,0,1,0-.33h0A2.6,2.6,0,0,0,14,10a.32.32,0,0,1-.08.11l0,0h0l0,.05c-.06.12-.15.33-.15.33l-.07,0Zm-.15-.26.1-.1,0-.24h0l0,.24s0,0-.1.1Z"/><path class="cls-18" d="M14.2,13.1a37.48,37.48,0,0,0,3.33-2.87,24,24,0,0,1-3.74,2.86Z"/><path class="cls-19" d="M14.22,13.13h-.53l.08-.06c.4-.3.78-.55,1.14-.79A13.73,13.73,0,0,0,17.5,10.2l.05.05A14.65,14.65,0,0,1,15,12.49a3,3,0,0,0-.75.63Zm-.33-.07h.29a4,4,0,0,1,.76-.63,14.76,14.76,0,0,0,1.41-1.1,15.69,15.69,0,0,1-1.4,1c-.34.22-.69.45-1.06.73Z"/><path class="cls-17" d="M15.77,9.6l-.18.07-.12.19s-.18.14-.18.23a.52.52,0,0,1-.12.23.51.51,0,0,0-.12.24c0,.11-.15.21-.15.21a2,2,0,0,0,.35.65,6,6,0,0,0,1-1.6l-.1-.08-.21-.14Z"/><path d="M15.25,11.43h0a2,2,0,0,1-.36-.64s.15-.12.15-.22.12-.24.12-.25.12-.14.12-.22.18-.23.18-.24l.12-.19.19-.07h.14l.32.23a6.12,6.12,0,0,1-1,1.6ZM15.9,9.6h-.13l-.18.06-.11.2s-.19.14-.19.22a.43.43,0,0,1-.12.23.53.53,0,0,0-.11.24c0,.11-.15.22-.16.22a2.19,2.19,0,0,0,.35.63,6.41,6.41,0,0,0,1-1.59L15.9,9.6Z"/><path d="M15.06,11.34l.08-.13.1-.09a2.42,2.42,0,0,1,0-.26c0-.11.07-.11.07-.11l.1-.15,0-.12v-.09a.33.33,0,0,1,.06-.2l.1-.08,0-.25h0l0,.25a.49.49,0,0,1-.1.09.34.34,0,0,0-.07.19v.09l0,.12-.1.16s-.07,0-.07.1,0,.27,0,.27l-.11.09-.08.12ZM15,11.13l.1-.16L15,10.88l0-.18.11-.17a.58.58,0,0,1,.13-.11c.06,0,0-.22,0-.22h0s.08.2,0,.24a.64.64,0,0,0-.13.1l-.1.18,0,.17.06.09-.1.16Zm.63-.14.07-.23.09-.16h0l-.09-.13h0l.08.12,0,0-.08.16-.08.23Zm-.22-.37,0-.09.22-.11s.09-.21.15-.33,0-.06.06-.06l0,0s0,0,.07-.09h0a2.86,2.86,0,0,1,0-.34h0A3.13,3.13,0,0,0,16,10c0,.09-.07.1-.08.1l0,0h0l0,.05a2.72,2.72,0,0,0-.15.34l-.22.1,0,.09Zm.6-.3c-.05-.07-.1-.17-.14-.23h0l.13.23Zm.17-.28-.07,0L16,10h0l.14,0,.07.06Z"/><path class="cls-20" d="M16.39,11.3a.12.12,0,0,1-.11.12.12.12,0,0,1-.12-.12.12.12,0,1,1,.23,0Z"/><path class="cls-21" d="M16.28,11.44a.15.15,0,0,1-.14-.14.14.14,0,0,1,.14-.14.13.13,0,0,1,.13.14.14.14,0,0,1-.13.14Zm0-.25a.1.1,0,0,0-.1.11.1.1,0,0,0,.1.1.11.11,0,0,0,.1-.1.11.11,0,0,0-.1-.11Z"/><path class="cls-17" d="M14.71,9.65l-.18.07-.12.19s-.19.14-.19.23a.53.53,0,0,1-.11.23.51.51,0,0,0-.12.24c0,.11-.15.21-.15.21s.09.24.21.38a6.28,6.28,0,0,0,.65.77,4.93,4.93,0,0,0,1-1.09,1.6,1.6,0,0,1-.15-.44,2.68,2.68,0,0,0-.17-.32l-.13-.21-.15-.12-.21-.14Z"/><path d="M14.7,12h0a6.55,6.55,0,0,1-.66-.76L14,11.12c-.08-.1-.16-.19-.16-.26l0,0s.15-.11.15-.21.12-.24.12-.25.12-.14.12-.22.18-.23.18-.23l.12-.2.19-.07h.14l.21.14.15.13.14.21s.13.23.17.31a1.25,1.25,0,0,0,.15.44,3.71,3.71,0,0,1-.79.93l-.17.17Zm.14-2.33h-.13a.55.55,0,0,0-.18.07l-.11.19s-.19.14-.19.22a.43.43,0,0,1-.12.23.53.53,0,0,0-.11.24c0,.11-.15.22-.16.22a.05.05,0,0,0,0,0c0,.05.08.15.16.24l.07.09a9,9,0,0,0,.65.76c.06-.06.12-.11.17-.17a4.08,4.08,0,0,0,.79-.92,1.39,1.39,0,0,1-.16-.43,2.67,2.67,0,0,0-.16-.31l-.14-.21-.15-.13-.21-.14Z"/><path d="M14.3,11.56v-.05a1.43,1.43,0,0,1,.19-.16c.05,0,.05,0,0-.07a.43.43,0,0,1,0,0,.08.08,0,0,1,0-.06V11l.08-.23.08-.16h0l-.09-.13h0l.08.12.05,0-.08.16-.09.23v.12a.15.15,0,0,0,0,.07.07.07,0,0,0,0,0s0,0-.05.08a1.3,1.3,0,0,0-.18.15l0,.05Zm.44,0,.13-.13.08-.21,0,0,.1-.24.1-.13h0l-.1.12,0,.1L15,11.2h0l-.09.21-.13.13Zm-.66-.28.1-.1a2.42,2.42,0,0,1,0-.26c0-.11.07-.11.07-.11l.1-.15,0-.12v-.09a.36.36,0,0,1,.07-.2l.1-.08,0-.25h0l0,.25a.49.49,0,0,1-.1.09c-.07.05-.07.19-.07.19v.09l0,.12-.1.16s-.07,0-.07.1,0,.27,0,.27l-.11.09ZM14,11.1,14,11,14,10.93l0-.18.1-.17a1.71,1.71,0,0,1,.14-.11c.06,0,0-.22,0-.22h0s.08.2,0,.24a.64.64,0,0,0-.13.1l-.1.18,0,.17L14,11l0,.08ZM15.53,11l-.13-.15-.2-.07a.34.34,0,0,1,0-.12l-.05-.16-.1,0-.2-.34h0l.21.33.1,0,.05.16c0,.11.05.12.05.12l.2.07.12.16Zm-1.19-.36,0-.09.22-.11a2.86,2.86,0,0,1,.15-.33c0-.05,0-.06.06-.06l0,0h0s0,0,.07-.09h0a2.86,2.86,0,0,1,0-.34h0a3.13,3.13,0,0,0,0,.34c-.05.09-.07.1-.08.1l0,0h0l0,.05a2.72,2.72,0,0,0-.15.34l-.22.1,0,.09Zm1.12-.15-.06-.1h-.05l-.06-.11-.12-.05-.07-.16L15,10l-.13,0h0L15,10l.07.05.06.16.12,0,.07.11.05,0,.05.1Z"/><path class="cls-20" d="M17.51,10.11a.13.13,0,1,1-.26,0,.13.13,0,1,1,.26,0Z"/><path class="cls-21" d="M17.38,10.26a.15.15,0,0,1-.15-.15.15.15,0,1,1,.3,0,.15.15,0,0,1-.15.15Zm0-.27a.11.11,0,0,0-.11.12.12.12,0,0,0,.11.12.13.13,0,0,0,.12-.12.12.12,0,0,0-.12-.12Z"/><path class="cls-20" d="M17.89,9.1A.12.12,0,1,1,17.77,9a.12.12,0,0,1,.12.12Z"/><path class="cls-21" d="M17.77,9.24a.14.14,0,0,1,0-.28.14.14,0,0,1,0,.28Zm0-.25a.1.1,0,0,0-.1.11.09.09,0,0,0,.1.1.1.1,0,0,0,.1-.1.11.11,0,0,0-.1-.11Z"/><path class="cls-20" d="M17.52,7.79a.12.12,0,0,1-.12.12.12.12,0,0,1,0-.24.12.12,0,0,1,.12.12Z"/><path class="cls-21" d="M17.4,7.93a.14.14,0,0,1,0-.28.14.14,0,0,1,0,.28Zm0-.25a.1.1,0,0,0-.09.11.1.1,0,0,0,.09.1.1.1,0,0,0,.1-.1.1.1,0,0,0-.1-.11Z"/><path class="cls-22" d="M13.49,9.81V9.29l-.05,0V9.13h.09l0-.58-.06,0v-.1s.07,0,.07,0,0-.12,0-.12,0,0,0,0,.05-.06.05-.06l0-.05a.37.37,0,0,1,0-.09l0-.1V7.93l0-.08.06-.06s0-.08,0-.1a.19.19,0,0,1,.05-.09l.07-.11.14,0,.17,0,.09.06,0,.16s0,.1,0,.1l-.07,0h-.09s0,.11,0,.11v.23s0,.06,0,.07l0,0v.13l.13,0v.07h-.1l0,.54.13,0v.15l0,0,0,.53Z"/><path class="cls-23" d="M14,9.83h-.49l0-.54,0,0V9.13l.11,0V8.54l0,0V8.41h.07s0-.09,0-.11,0,0,0,0a.1.1,0,0,1,.05-.07l0,0a.54.54,0,0,1,0-.1l0-.1-.06-.12.06-.08h0s0-.07,0-.09a1.17,1.17,0,0,1,.05-.11l.08-.1.15,0,.17,0,.1.07,0,.17c0,.11,0,.11-.05.11s0,0-.06,0h-.1s0,.05,0,.08v.24c0,.07,0,.08,0,.08l0,0v.12l.12,0v.1l-.1,0,0,.52H14v.16l-.06,0v.54Zm-.5-1.4,0,.07.05,0v.59l-.11,0,0,.11,0,0v.53l.43,0,0-.51.07,0V9.09H13.9l0-.55.1,0V8.44h-.12V8.28l0,0a.22.22,0,0,0,0-.06V7.94c0-.11,0-.11,0-.12H14l.07,0a.32.32,0,0,1,0-.08l0-.16L14,7.5l-.16,0-.13,0-.07.1a.35.35,0,0,0-.05.08.51.51,0,0,0,0,.09l-.06.08,0,.06,0,.06,0,.1a.46.46,0,0,0,0,.09l0,0s-.05.06-.05.07h0l0,0s0,.09,0,.11v0h-.09Z"/><path class="cls-22" d="M15.52,9.82V9.3l0,0V9.14h.09l0-.58-.06,0V8.42s.07,0,.07,0,0-.12,0-.12,0,0,0,0,0-.06,0-.06l0-.05a.37.37,0,0,1,0-.09l0-.1,0,0,0-.08.06-.06a.87.87,0,0,1,0-.1s0-.09,0-.1a.7.7,0,0,0,.08-.1l.14,0,.17,0,.09.06,0,.16s0,.1,0,.1l-.07,0h-.1l0,.11v.23s0,.06,0,.07l0,0v.13l.13,0v.08h-.09l0,.54.13,0v.15l-.06,0v.53Z"/><path class="cls-23" d="M16,9.84h-.48l0-.54,0,0V9.14l.11,0V8.55l-.05,0V8.42h.07s0-.09,0-.11,0,0,0,0a.13.13,0,0,1,0-.07l0,0a.54.54,0,0,1,0-.1l0-.1-.05-.12.06-.08h0s0-.07,0-.09a.37.37,0,0,1,.05-.11l.08-.1.15,0,.17,0,.1.07,0,.17c0,.11,0,.11,0,.11l-.07,0h-.09s0,0,0,.08v.24c0,.07,0,.08,0,.08l0,0v.12l.12,0v.09l-.11,0,0,.51h.12v.17L16,9.3v.54Zm-.49-1.41,0,.08.05,0v.59l-.11,0,0,.11,0,0v.53l.43,0,0-.52.06,0V9.1h-.12l0-.55.1,0V8.45h-.13V8.29l0,0V8c0-.11,0-.11,0-.12H16l.07,0s0,0,0-.08l0-.16-.08,0-.16,0-.14,0s-.06.09-.06.1l0,.08a.51.51,0,0,0,0,.09l-.07.08.05.06,0,.05,0,.11a.69.69,0,0,0,0,.08,0,0,0,0,0,0,0l0,.08h0l0,0s0,.09,0,.11h0l-.06,0Z"/><path class="cls-22" d="M14.49,9.84V9.32l-.05,0V9.15h.1V8.57l-.06,0V8.44s.06,0,.06,0,0-.12,0-.12,0,0,0,0,.05-.06.05-.06l0,0a.87.87,0,0,0,0-.1l0-.09V8l0-.07,0-.07s0-.07,0-.09a.31.31,0,0,1,.05-.1l.07-.1.14,0,.17,0,.09.06,0,.16s0,.09,0,.09l-.07,0h-.09s0,.1,0,.1v.31l0,0v.14l.14,0v.08h-.09v.53l.14,0v.15L15,9.3l0,.54Z"/><path class="cls-23" d="M15,9.85h-.49V9.32l-.05,0V9.15l.1,0V8.57l0,0,0-.11a.1.1,0,0,1,.07,0v-.1s0,0,0,0a.12.12,0,0,1,.05-.06l0,0a.54.54,0,0,1,0-.1l0-.11-.06-.12.06-.08h0s0-.06,0-.08a.29.29,0,0,1,.06-.11.86.86,0,0,1,.07-.1l.15,0,.17,0,.1.07,0,.17c0,.11,0,.11-.05.11l-.06,0h-.1s0,0,0,.08V8.2c0,.07,0,.08,0,.08l0,0v.13H15v.1l-.11,0,0,.51H15v.17L15,9.32v.53Zm-.5-1.4,0,.08.05,0v.6l-.1,0v.11l0,0v.53l.43,0,0-.52L15,9.25V9.12H14.9l0-.55.11,0V8.47l-.12,0V8.3l0,0a.35.35,0,0,0,0-.06V8c0-.1,0-.1,0-.11h0l0,0H15l.07,0a.78.78,0,0,0,0-.09V7.57L15,7.52l-.16,0-.13,0a.36.36,0,0,1-.07.1l-.05.09a.51.51,0,0,0,0,.09l-.06.08,0,.06,0,0,0,.11a.19.19,0,0,0,0,.08l0,0a.21.21,0,0,1-.05.08h0l0,0s0,.1,0,.12h0l-.06,0Z"/><polygon class="cls-24" points="13.62 9.81 13.62 9.4 13.83 9.4 13.83 9.82 13.62 9.81"/><polygon class="cls-24" points="14.64 9.84 14.65 9.42 14.84 9.42 14.84 9.83 14.64 9.84"/><polygon class="cls-24" points="15.65 9.83 15.63 9.44 15.85 9.43 15.85 9.84 15.65 9.83"/><rect x="13.67" y="8.6" width="0.12" height="0.21"/><rect x="14.66" y="8.61" width="0.17" height="0.2"/><rect x="15.67" y="8.63" width="0.15" height="0.2"/><path class="cls-25" d="M14.83,7.84c-.05,0-.08-.07-.11-.13l0,0,0,0s.05.13.09.13Zm-1,0s0,0-.15-.14l0,0,.13.16Zm2,0c-.07,0-.11-.11-.11-.12h0s.06.11.09.12Z"/><path class="cls-26" d="M13.59,7.23c.39-.13-.09-.39-.17,0-.13,0-.14.12-.42.08-.66,1.13-.17,3,1.77,4.83-3.47-3.08-2.06-5.37-1.1-5.28.52,0,.26.72-.08.37Z"/><path class="cls-13" d="M15.28,7.34A.42.42,0,0,1,15.15,7h.06a.43.43,0,0,0,.1.32l0,.06Zm-.57-.08,0-.37h.07l0,.37Zm-.39,0a.43.43,0,0,1,0-.11.58.58,0,0,1-.06.11l-.05-.05A.4.4,0,0,0,14.25,7h.05a1,1,0,0,1,0-.19l.07,0a.89.89,0,0,0,0,.43l-.06,0Zm.69,0v0c0-.07.07-.23,0-.31l.05,0c.1.11,0,.3,0,.38l-.08,0Zm-.18-.09-.05,0A.46.46,0,0,1,15,7L15,7a.47.47,0,0,0-.18.1Zm-.24,0c0-.06-.13,0-.15,0l0,0,0,0a.2.2,0,0,1,.22.07l-.06,0Zm-.54-.21H14c0-.1-.21-.18-.29-.2l0-.07s.34.1.34.27Zm1.1,0s0-.06.15-.21l0,0a.79.79,0,0,0-.14.15Zm-.89,0A.76.76,0,0,0,14,6.66l0-.06a.7.7,0,0,1,.29.21l-.06,0Zm1.18,0-.06,0c.07-.1.34-.14.37-.15V6.7c-.1,0-.28.06-.32.12Z"/><path class="cls-27" d="M15.06,7.15l0,0a.34.34,0,0,1-.12.09.33.33,0,0,1-.19,0h0a.31.31,0,0,1-.18,0,.28.28,0,0,1-.16-.11l0,0h0a4.3,4.3,0,0,1-.47.18.46.46,0,0,1-.35,0h0l0,0a1.61,1.61,0,0,0-.52,1.06,2.89,2.89,0,0,0,.2,1.27A6.71,6.71,0,0,0,14.7,12l0,0,0,0a6.16,6.16,0,0,0,1.57-2.33A2.17,2.17,0,0,0,16,7.29l0,0,0,0a.17.17,0,0,1-.11.09h-.22a1.77,1.77,0,0,1-.53-.21Zm0,.09a1.82,1.82,0,0,0,.54.21h.24A.25.25,0,0,0,16,7.36a2.13,2.13,0,0,1,.27,2.3,6.36,6.36,0,0,1-1.53,2.28,6.71,6.71,0,0,1-1.51-2.31A2.8,2.8,0,0,1,13,8.39a1.58,1.58,0,0,1,.48-1,.52.52,0,0,0,.37,0,3.28,3.28,0,0,0,.47-.16.32.32,0,0,0,.18.1.24.24,0,0,0,.21,0,.32.32,0,0,0,.21,0,.22.22,0,0,0,.14-.08Z"/><path class="cls-26" d="M15.9,7.21c-.39-.14.09-.4.17,0,.13,0,.14.12.42.07.66,1.13.17,3-1.77,4.84,3.47-3.09,2.06-5.38,1.1-5.29-.52,0-.26.72.08.38Z"/><path class="cls-28" d="M13.08,11.44a1.86,1.86,0,0,0-2-.35c.24.11.51.14.73.27l1.31.08Z"/><path class="cls-29" d="M13.08,11.47h0l-1.31-.08a2.48,2.48,0,0,0-.4-.15L11,11.12a.05.05,0,0,1,0,0l0,0a1.9,1.9,0,0,1,2.07.36s0,0,0,0l0,0Zm-1.95-.38.26.08a2.23,2.23,0,0,1,.4.16L13,11.4a1.82,1.82,0,0,0-1.85-.31Z"/><path class="cls-30" d="M12.86,11.39h0a2.3,2.3,0,0,0-1.16-.23,0,0,0,0,1,0,0s0,0,0,0a2.75,2.75,0,0,1,1.19.23h0a0,0,0,0,1,0,.05Z"/><path class="cls-28" d="M13.1,11.49c-.29.06-.68.35-.79.33a4.49,4.49,0,0,1-.91-.27,1.15,1.15,0,0,0-.37,0c1.06-.53,1.43-.45,2.07-.06Z"/><path class="cls-29" d="M12.31,11.86h0a3.28,3.28,0,0,1-.68-.19l-.23-.08a.44.44,0,0,0-.23,0H11s0,0,0,0a.05.05,0,0,1,0,0c1.09-.54,1.47-.45,2.11-.06,0,0,0,0,0,0s0,0,0,0a2.36,2.36,0,0,0-.47.21,1,1,0,0,1-.32.13Zm-1-.36.14,0,.23.08a3.1,3.1,0,0,0,.66.19h0a.92.92,0,0,0,.29-.13,3.65,3.65,0,0,1,.41-.18c-.56-.33-.9-.4-1.8,0Z"/><path class="cls-28" d="M12.39,10.71l-.51.06a1.15,1.15,0,0,1-.64-.44.67.67,0,0,0-.44-.14,1.43,1.43,0,0,1,1.59.52Z"/><path class="cls-29" d="M11.88,10.81h0a1.17,1.17,0,0,1-.67-.46.58.58,0,0,0-.38-.12h0s0,0,0,0,0,0,0,0a1.45,1.45,0,0,1,1.63.53s0,0,0,0l0,0-.52.06Zm-.83-.62a.35.35,0,0,1,.21.12,1.21,1.21,0,0,0,.62.43l.45-.05a1.3,1.3,0,0,0-1.28-.5Z"/><path class="cls-28" d="M11.91,10a1.51,1.51,0,0,1-1.23-1s.18.12.15.14c.8.22.85.38,1.08.89Z"/><path class="cls-29" d="M11.91,10h0a1.53,1.53,0,0,1-1.26-1s0,0,0,0,0,0,0,0,.14.1.15.13c.76.2.85.38,1.06.84l0,.05a0,0,0,0,1,0,0Zm-1.16-1a1.52,1.52,0,0,0,1.1.9c-.21-.46-.28-.61-1-.81l0,0s0,0,0,0l-.06,0Z"/><path class="cls-28" d="M12.72,10.86a1.26,1.26,0,0,0-.12-1,2,2,0,0,1-.33-.62c0,.6-.17,1.1.45,1.66Z"/><path class="cls-29" d="M12.72,10.89h0a1.47,1.47,0,0,1-.48-1.48c0-.07,0-.14,0-.2s0,0,0,0l0,0,0,.08a1.88,1.88,0,0,0,.3.54,1.29,1.29,0,0,1,.12,1.06s0,0,0,0Zm-.43-1.54V9.4a1.44,1.44,0,0,0,.41,1.39,1.19,1.19,0,0,0-.13-.95,1.6,1.6,0,0,1-.28-.49Z"/><path class="cls-28" d="M12,9.58A2.25,2.25,0,0,0,12.33,8s-.13.38-.14.38c-.54.35-.3.9-.23,1.24Z"/><path class="cls-29" d="M12,9.62h0l0,0a.8.8,0,0,0,0-.15c-.09-.35-.2-.82.28-1.13,0,0,.11-.31.12-.35s0,0,0,0a0,0,0,0,1,0,0A2.29,2.29,0,0,1,12,9.6l0,0Zm.34-1.48c0,.11-.08.23-.11.23-.42.29-.32.71-.23,1.05,0,0,0,.05,0,.07a2,2,0,0,0,.33-1.35Z"/><path class="cls-28" d="M11.64,6.92a2.44,2.44,0,0,1,.25,1.73,3.14,3.14,0,0,0-.14-.38c-.53-.35-.18-1-.11-1.35Z"/><path class="cls-29" d="M11.89,8.68a0,0,0,0,1,0,0,3,3,0,0,0-.14-.36c-.44-.29-.29-.78-.18-1.15,0-.08.05-.16.07-.22s0,0,0,0,0,0,0,0a2.4,2.4,0,0,1,.26,1.69v.05a0,0,0,0,1,0,0Zm-.12-.43s.06.11.1.22A2.27,2.27,0,0,0,11.66,7s0,.1-.05.15c-.11.36-.25.81.16,1.09Z"/><path class="cls-28" d="M11.94,7.78c.87-.46.53-1,.69-1.5a1.71,1.71,0,0,0-.69,1.5Z"/><path class="cls-29" d="M11.94,7.81h0l0,0a1.77,1.77,0,0,1,.71-1.53h0a0,0,0,0,1,0,0,1.4,1.4,0,0,0-.06.41A1.09,1.09,0,0,1,12,7.81Zm.63-1.43A1.62,1.62,0,0,0,12,7.72a1,1,0,0,0,.56-1,3.16,3.16,0,0,1,0-.32Z"/><path class="cls-30" d="M11.8,8.37a0,0,0,0,1,0,0c0-.19-.1-.63-.13-.82V7.44s0,0,0,0,0,0,0,0v.08c0,.19.11.63.12.82,0,0,0,0,0,0Zm.26-.67h0s0,0,0,0a5.39,5.39,0,0,1,.38-.9,0,0,0,0,1,0,0s0,0,0,0-.2.54-.31.85a0,0,0,0,1,0,0Z"/><path class="cls-28" d="M11.84,9.36c-.49,0-1-.72-1.15-1.26,0,0,.18.11.15.14a1.69,1.69,0,0,1,1,1.12Z"/><path class="cls-29" d="M11.84,9.4h0c-.49,0-1-.72-1.18-1.29,0,0,0,0,0,0s0,0,0,0,.15.11.16.14a1.61,1.61,0,0,1,.93,1l.06.14a0,0,0,0,1,0,0l0,0ZM10.75,8.19a1.75,1.75,0,0,0,1,1.13l0-.08a1.57,1.57,0,0,0-.92-1s0,0,0,0,0,0,0,0l-.07,0Z"/><path class="cls-28" d="M11.7,8.89a2.21,2.21,0,0,1-.37-1.62,2.93,2.93,0,0,0,.14.37c.53.35.29.9.23,1.25Z"/><path class="cls-29" d="M11.7,8.92h0a2.32,2.32,0,0,1-.38-1.65s0,0,0,0a0,0,0,0,1,0,0,3,3,0,0,0,.14.36c.47.31.35.78.27,1.12a1.13,1.13,0,0,0,0,.15,0,0,0,0,1,0,0Zm-.35-1.47a2.1,2.1,0,0,0,.33,1.35l0-.08c.08-.34.19-.76-.25-1.05h0s-.06-.11-.1-.22Z"/><path class="cls-28" d="M12,7.92c.9-.42.62-.86.89-1.32-.6.47-.88.8-.89,1.32Z"/><path class="cls-29" d="M12,8h0l0,0c0-.55.32-.88.91-1.34h0s0,0,0,0A1.39,1.39,0,0,0,12.8,7,1.11,1.11,0,0,1,12,8Zm.79-1.24a1.62,1.62,0,0,0-.76,1.15A1,1,0,0,0,12.73,7a1.92,1.92,0,0,1,.08-.3Z"/><path class="cls-30" d="M12.06,7.86h0a0,0,0,0,1,0,0,2.42,2.42,0,0,0,.49-.69,0,0,0,0,1,.05,0s0,0,0,0a2.14,2.14,0,0,1-.5.72s0,0,0,0Z"/><path class="cls-18" d="M15.26,13.11h.44c-1.46-1.43-4.25-2-3.86-4.69-.4,2.86,2.28,3.12,3.42,4.68Z"/><path class="cls-19" d="M15.79,13.16l-.53,0a6.1,6.1,0,0,0-1.5-1.27c-1-.71-2.12-1.44-2-3.17h0a1.24,1.24,0,0,1,0-.27h.07l0,.26C11.73,10.36,13,11.18,14.22,12a10.19,10.19,0,0,1,1.51,1.12l.06.07Zm-3.66-2.91a4.92,4.92,0,0,0,1.67,1.56,5.74,5.74,0,0,1,1.49,1.28h.32A10.34,10.34,0,0,0,14.18,12a6.25,6.25,0,0,1-2-1.78Z"/><path class="cls-20" d="M12.07,7.87a.14.14,0,1,1-.14-.15.15.15,0,0,1,.14.15Z"/><path class="cls-21" d="M11.93,8a.16.16,0,1,1,.16-.16.16.16,0,0,1-.16.16Zm0-.29a.13.13,0,1,0,.12.13.12.12,0,0,0-.12-.13Z"/><path class="cls-20" d="M12,8.67a.14.14,0,0,1-.14.14.13.13,0,0,1-.13-.14.13.13,0,0,1,.13-.13.13.13,0,0,1,.14.13Z"/><path class="cls-21" d="M11.85,8.83a.16.16,0,0,1-.15-.16.15.15,0,0,1,.15-.15.15.15,0,0,1,.15.15.15.15,0,0,1-.15.16Zm0-.28a.12.12,0,0,0-.11.12.12.12,0,1,0,.23,0,.12.12,0,0,0-.12-.12Z"/><path class="cls-20" d="M12.11,9.82a.12.12,0,0,1-.12.12.12.12,0,0,1,0-.24.12.12,0,0,1,.12.12Z"/><path class="cls-21" d="M12,10a.13.13,0,0,1-.13-.14A.14.14,0,0,1,12,9.68a.14.14,0,0,1,.14.14A.14.14,0,0,1,12,10Zm0-.24a.1.1,0,0,0-.1.1.11.11,0,0,0,.1.11.1.1,0,0,0,.1-.11.09.09,0,0,0-.1-.1Z"/><path class="cls-20" d="M13.13,11.09A.12.12,0,1,1,13,11a.12.12,0,0,1,.12.12Z"/><path class="cls-21" d="M13,11.23a.13.13,0,0,1-.13-.14.13.13,0,1,1,.26,0,.13.13,0,0,1-.13.14ZM13,11a.11.11,0,0,0-.1.1.1.1,0,1,0,.2,0A.11.11,0,0,0,13,11Z"/><path class="cls-20" d="M13.27,11.46a.12.12,0,0,1-.11.12.12.12,0,0,1-.12-.12.12.12,0,1,1,.23,0Z"/><path class="cls-21" d="M13.16,11.6a.14.14,0,0,1-.14-.14.14.14,0,0,1,.14-.14.13.13,0,0,1,.13.14.14.14,0,0,1-.13.14Zm0-.25a.1.1,0,0,0-.1.11.1.1,0,0,0,.1.1.11.11,0,0,0,.1-.1.11.11,0,0,0-.1-.11Z"/><path class="cls-22" d="M13.79,12.52a.56.56,0,0,1-.16-.2l-.45-.05a2.44,2.44,0,0,0,0,.27l.62,0Z"/><path d="M13.15,12.56v-.29h.25l.22,0a.65.65,0,0,0,.17.2l-.65.06Zm0-.28,0,.24.6,0a.29.29,0,0,1-.17-.17l-.45-.05Z"/><path class="cls-22" d="M10.44,12.2c.27.05.67,0,.8.15s-.49.47-.4.63.41.13.63,0c0-.12.09-.33.12-.4s-.3-.29-.24-.59a2.55,2.55,0,0,1,1.15-.08c.06.13,0,.19,0,.28s-.22.34-.22.45c.39.14.49,0,.84,0s.66.12.75-.05c-.06-.15-.44,0-.58-.13a.41.41,0,0,1-.18-.15c-.06-.06-.23-.07-.26-.23.07-.35.55-.29.63-.35l1.25.09a.29.29,0,0,1,.05.55c-.31.13-1.21-.19-1.6,0,0-.09-.3-.23-.32-.23a1.37,1.37,0,0,1-.36,0c0,.11-.12.19-.18.3-.26-.12-.5.09-.78,0l-.44.05-.29,0-.42.13.3-.28-.27-.2Z"/><path d="M11.11,13.14a.37.37,0,0,1-.28-.14c-.06-.1.06-.2.19-.31l.1-.09h0l-.29,0-.42.13h0v0l.31-.28-.27-.18a1.61,1.61,0,0,1,.31,0c.21,0,.42,0,.51.14s0,.15,0,.21l.32,0-.06-.08a.47.47,0,0,1-.14-.43,2.45,2.45,0,0,1,.82-.13,1,1,0,0,1,.36,0,.26.26,0,0,1,0,.2v.07h.08a1,1,0,0,0,.25,0h0l0-.08c.06-.27.35-.31.52-.34l.12,0,1.26.08h0c.12,0,.21.1.24.24a.31.31,0,0,1-.18.35,1.67,1.67,0,0,1-.67,0,2.06,2.06,0,0,0-.91,0l.09,0a.43.43,0,0,0,.24,0h.06c.14,0,.25,0,.29.09a.21.21,0,0,1-.22.12l-.2,0-.35,0h0a1.17,1.17,0,0,0-.31,0,.88.88,0,0,1-.53,0,.36.36,0,0,1,0-.17.77.77,0,0,0-.4,0,1,1,0,0,1-.34,0l0,0a1.23,1.23,0,0,0,0,.16c0,.08-.05.18-.08.25a.89.89,0,0,1-.38.14Zm.43-.6-.37.05a1.36,1.36,0,0,1-.12.12c-.12.1-.23.2-.2.26s.4.12.61,0a2.19,2.19,0,0,0,.07-.23.5.5,0,0,1,.05-.15l0-.05Zm1-.3-.06.11a1,1,0,0,0-.14.3,1.21,1.21,0,0,0,.5,0,1.12,1.12,0,0,1,.29,0,1.87,1.87,0,0,1,.38,0c.21,0,.34,0,.38-.07s-.13-.06-.25-.06h-.06a.51.51,0,0,1-.26,0l-.1-.07,0,0,0,0-.1-.07-.13-.07-.05,0a1,1,0,0,1-.34,0v0Zm-2.08,0,.28.17-.25.26.36-.1h0l.29,0h.05c.07-.09.1-.15.05-.2s-.28-.12-.48-.12a2.53,2.53,0,0,1-.3,0Zm1.14.31a1.42,1.42,0,0,0,.34,0,.7.7,0,0,1,.43,0v0a.34.34,0,0,1,.06-.12l.09-.15a.27.27,0,0,1,0-.09.27.27,0,0,0,0-.17,1.35,1.35,0,0,0-.34,0,2.39,2.39,0,0,0-.8.12.51.51,0,0,0,.14.39l.09.11Zm2-.22a5,5,0,0,1,.53,0,1.71,1.71,0,0,0,.65,0A.26.26,0,0,0,15,12a.23.23,0,0,0-.2-.2l-1.26-.09-.13,0c-.17,0-.43.06-.48.3a.17.17,0,0,0,.06.1l.12.07.08.05,0,.06a1.37,1.37,0,0,1,.41-.06Z"/><path class="cls-22" d="M10.42,12.14a.11.11,0,0,1-.11.12.12.12,0,0,1,0-.24.11.11,0,0,1,.11.12Z"/><path d="M10.31,12.28a.14.14,0,1,1,0-.28.14.14,0,0,1,0,.28Zm0-.25a.11.11,0,0,0,0,.22.11.11,0,0,0,0-.22Z"/><path class="cls-22" d="M10.39,12.75a.12.12,0,1,1-.23,0,.11.11,0,0,1,.11-.12.12.12,0,0,1,.12.12Z"/><path d="M10.27,12.89a.14.14,0,0,1,0-.28.14.14,0,0,1,0,.28Zm0-.24a.1.1,0,0,0-.1.1.11.11,0,0,0,.1.11.1.1,0,0,0,.1-.11.09.09,0,0,0-.1-.1Z"/><path class="cls-22" d="M15.67,12.52a.49.49,0,0,0,.16-.2l.46-.05v.27l-.62,0Z"/><path d="M16.31,12.56l-.64,0c.07-.11.12-.15.14-.23l.48-.06,0,.31Zm0-.29-.44.07c0,.07-.06.12-.14.19l.29,0h.3v-.25Z"/><path class="cls-22" d="M19,12.2c-.27.05-.66,0-.8.15s.49.47.4.64-.4.13-.63,0c0-.12-.09-.33-.12-.4s.3-.29.24-.59A2.38,2.38,0,0,0,17,11.93c-.06.12,0,.18,0,.28s.22.33.22.44c-.39.14-.49,0-.84,0s-.66.12-.75-.05c.06-.15.44,0,.58-.12a.63.63,0,0,0,.18-.15c.06-.07.23-.07.26-.24-.07-.34-.55-.29-.63-.34-.42,0-.83,0-1.25.09-.22,0-.35.42-.05.54s1.21-.19,1.6,0c0-.09.31-.22.33-.23a1.3,1.3,0,0,0,.35,0c.06.11.12.19.18.3.26-.12.5.09.79,0l.44.05.28,0,.43.12-.31-.28.27-.2Z"/><path d="M18.35,13.14A.91.91,0,0,1,18,13a2.58,2.58,0,0,1-.08-.26.64.64,0,0,0,0-.15l0,0a.78.78,0,0,1-.34,0,.69.69,0,0,0-.4,0,.34.34,0,0,1,.05.14.7.7,0,0,1-.54,0,2.36,2.36,0,0,0-.29,0l-.38,0-.2,0a.2.2,0,0,1-.21-.1c0-.1.15-.11.28-.11h.06a.43.43,0,0,0,.24,0l.09,0a2.25,2.25,0,0,0-.91,0,1.62,1.62,0,0,1-.66,0,.31.31,0,0,1-.19-.35.26.26,0,0,1,.24-.23L16,11.72l.13,0c.17,0,.46.06.52.33a.26.26,0,0,1,0,.08,1.46,1.46,0,0,0,.34,0v-.07a.27.27,0,0,1,0-.19.86.86,0,0,1,.37-.05,2.57,2.57,0,0,1,.81.12.47.47,0,0,1-.12.44.36.36,0,0,0-.07.1l.32,0c-.06-.06-.1-.14,0-.21s.31-.13.52-.14a1.37,1.37,0,0,0,.29,0l-.26.24.31.25s0,0,0,0,0,0,0,0l-.43-.13-.27,0h0l.1.09c.13.11.25.22.2.3a.38.38,0,0,1-.29.15Zm-.45-.59s0,0,0,0,0,.07,0,.14A1.83,1.83,0,0,0,18,13c.2.1.43.18.6,0s-.08-.16-.19-.25l-.14-.13-.38,0Zm-1.58.07a1.19,1.19,0,0,1,.32,0,.83.83,0,0,0,.51,0,1.32,1.32,0,0,0-.15-.28l-.08-.14a1.07,1.07,0,0,1-.34,0l0,0-.11.06-.11.07,0,0v0h0a.17.17,0,0,1-.09.06.5.5,0,0,1-.26,0h-.06c-.12,0-.22,0-.25.07s.17.07.38.05a3.27,3.27,0,0,1,.35,0Zm2.31-.08.36.11-.25-.23.27-.24a.64.64,0,0,1-.28.06c-.2,0-.41,0-.49.12s0,.11.06.2h.05l.28,0Zm-1.34-.09a1.9,1.9,0,0,1,.25,0,.75.75,0,0,0,.36,0,.46.46,0,0,1,.07-.1.48.48,0,0,0,.13-.4,2.9,2.9,0,0,0-.79-.1,1,1,0,0,0-.34,0,.36.36,0,0,0,0,.17.22.22,0,0,1,0,.09,1,1,0,0,0,.08.14.6.6,0,0,1,.09.15.27.27,0,0,1,.16,0Zm-2.58-.61a.22.22,0,0,0-.2.2.27.27,0,0,0,.16.32,1.77,1.77,0,0,0,.65,0,2,2,0,0,1,.93,0l0,0,0,0a.16.16,0,0,1,.09-.06l.13-.08a.12.12,0,0,0,.05-.1c-.05-.24-.31-.27-.48-.3s-.12,0-.14,0l-1.24.09Z"/><path class="cls-22" d="M19,12.14a.12.12,0,0,0,.12.13.13.13,0,0,0,.12-.13.12.12,0,0,0-.12-.12.12.12,0,0,0-.12.12Z"/><path d="M19.16,12.28a.14.14,0,1,1,0-.28.14.14,0,0,1,0,.28Zm0-.24a.09.09,0,0,0-.1.1.1.1,0,0,0,.1.11.11.11,0,0,0,.1-.11.1.1,0,0,0-.1-.1Z"/><path class="cls-22" d="M19.07,12.75a.12.12,0,0,0,.12.13.13.13,0,0,0,.12-.13.13.13,0,0,0-.12-.12.12.12,0,0,0-.12.12Z"/><path d="M19.19,12.9a.15.15,0,0,1-.14-.15.14.14,0,0,1,.14-.14.14.14,0,0,1,.13.14.14.14,0,0,1-.13.15Zm0-.25a.1.1,0,0,0-.1.1.1.1,0,0,0,.1.11.11.11,0,0,0,.1-.11.11.11,0,0,0-.1-.1Z"/><path class="cls-22" d="M14.72,11.85l-.21,0-.17.54a4.93,4.93,0,0,0,.5,0c-.16,0-.12-.54-.12-.54Z"/><polygon points="13.63 12.22 13.63 11.85 13.69 11.85 13.69 12.16 13.85 12.16 13.85 12.22 13.63 12.22"/><rect x="13.91" y="11.87" width="0.06" height="0.37"/><path d="M14.18,12.26h-.11v-.37h.1a.11.11,0,0,1,.08,0,.08.08,0,0,1,0,.07.06.06,0,0,1,0,.06.1.1,0,0,1,.06.1.11.11,0,0,1,0,.08.14.14,0,0,1-.09,0Zm0-.31V12h0s.06,0,.06,0,0,0-.05,0Zm0,.13v.13h0l.06,0a.06.06,0,0,0,0,0,.05.05,0,0,0,0,0l-.06,0Z"/><polygon points="14.45 11.98 14.45 12.06 14.57 12.06 14.57 12.12 14.45 12.12 14.45 12.23 14.61 12.23 14.61 12.28 14.39 12.28 14.39 11.92 14.61 11.92 14.61 11.98 14.45 11.98"/><path d="M14.9,12.29l-.1-.15h0v.15H14.7v-.37h.1c.08,0,.13,0,.13.11a.14.14,0,0,1,0,.06.05.05,0,0,1-.05,0l.11.17ZM14.76,12v.1h.09a.05.05,0,0,0,0-.08h-.09Z"/><polygon points="15.15 11.97 15.15 12.28 15.09 12.28 15.09 11.97 14.97 11.97 14.97 11.91 15.26 11.91 15.26 11.97 15.15 11.97"/><path d="M15.5,12.23l0-.07h-.12l0,.07h-.07l.14-.37h0l.14.37ZM15.41,12l0,.14h.08Z"/><path d="M15.61,12.2l0-.06a.1.1,0,0,0,.07,0s0,0,0,0a0,0,0,0,0,0,0l-.05,0-.06,0,0,0s0,0,0,0a.09.09,0,0,1,0-.07.11.11,0,0,1,.08,0,.12.12,0,0,1,.09,0l0,.05-.07,0h0a0,0,0,0,0,0,0s0,0,.06.07l0,0,0,0s0,0,0,0a.1.1,0,0,1,0,.07.12.12,0,0,1-.09,0l-.09,0Z"/><path class="cls-30" d="M12.34,11.54a2.73,2.73,0,0,1-.41,0s0,0,0,0,0,0,0,0a7,7,0,0,0,.92,0h.06a0,0,0,1,1,0,.06h-.06l-.52,0Zm.32-.77a0,0,0,0,1,0,0,2.94,2.94,0,0,0-.17-.59,2.11,2.11,0,0,1-.1-.3s0,0,0,0,0,0,0,0,.06.2.09.29a3.09,3.09,0,0,1,.18.61s0,0,0,0Zm-.36-.07a2.23,2.23,0,0,1-.88-.37,0,0,0,0,1,0,0s0,0,.05,0a2.27,2.27,0,0,0,.83.35s0,0,0,0h0v0Zm-.49-.78h0l-.24-.19A2,2,0,0,0,11,9.33s0,0,0,0,0,0,0,0a2.12,2.12,0,0,1,.61.4,2.31,2.31,0,0,0,.23.18s0,0,0,.05l0,0ZM12,9.44h0a0,0,0,0,1,0,0c0-.58.12-.76.27-.9a0,0,0,0,1,0,0,0,0,0,0,1,0,.05c-.12.11-.21.24-.25.86a0,0,0,0,1,0,0Zm-.3-.16s-.56-.61-.73-.81c0,0,0,0,0-.05s0,0,0,0l.72.81-.05,0Zm0-.62a0,0,0,0,1,0,0s0-.55-.2-.69a0,0,0,0,1,0-.05s0,0,0,0c.22.17.23.72.23.75s0,0,0,0Z"/></g></g></g></g></g></g></svg>