<svg xmlns="http://www.w3.org/2000/svg" xmlns:xlink="http://www.w3.org/1999/xlink" viewBox="0 0 29.46 17.19"><defs><style>.cls-1{fill:none;}.cls-2{clip-path:url(#clip-path);}.cls-3{fill:#da1841;}.cls-4{fill:#fff;}</style><clipPath id="clip-path"><rect class="cls-1" width="29.46" height="17.19"/></clipPath></defs><g id="Layer_2" data-name="Layer 2"><g id="cá»"><g id="south_east_asia" data-name="south east asia"><g class="cls-2"><rect class="cls-3" width="29.46" height="8.59"/><rect class="cls-4" y="8.59" width="29.46" height="8.59"/><g class="cls-2"><path class="cls-4" d="M8.84,4.3A3.23,3.23,0,1,1,5.61,1.07,3.23,3.23,0,0,1,8.84,4.3"/><path class="cls-3" d="M9.86,4.3A3.06,3.06,0,1,1,6.8,1.24,3.06,3.06,0,0,1,9.86,4.3"/><polygon class="cls-4" points="6.01 4.38 5.57 4.04 5.13 4.38 5.3 3.83 4.86 3.5 5.4 3.5 5.57 2.96 5.74 3.5 6.28 3.5 5.84 3.83 6.01 4.38"/><polygon class="cls-4" points="9.46 4.38 9.02 4.04 8.58 4.38 8.74 3.83 8.3 3.5 8.85 3.5 9.02 2.96 9.18 3.5 9.73 3.5 9.29 3.83 9.46 4.38"/><polygon class="cls-4" points="7.73 3.1 7.29 2.76 6.86 3.1 7.03 2.55 6.58 2.22 7.13 2.22 7.29 1.68 7.46 2.22 8.01 2.22 7.57 2.55 7.73 3.1"/><polygon class="cls-4" points="6.66 6.42 6.21 6.08 5.78 6.42 5.95 5.88 5.5 5.54 6.05 5.54 6.21 5 6.38 5.54 6.93 5.54 6.49 5.88 6.66 6.42"/><polygon class="cls-4" points="8.81 6.42 8.37 6.08 7.93 6.42 8.1 5.88 7.66 5.54 8.2 5.54 8.37 5 8.54 5.54 9.08 5.54 8.64 5.88 8.81 6.42"/></g></g></g></g></g></svg>