<svg xmlns="http://www.w3.org/2000/svg" xmlns:xlink="http://www.w3.org/1999/xlink" viewBox="0 0 29.46 17.19"><defs><style>.cls-1{fill:none;}.cls-2{clip-path:url(#clip-path);}.cls-3{fill:#fff;}.cls-4{fill:#2534a4;}.cls-5{fill:#bc0030;}</style><clipPath id="clip-path"><rect class="cls-1" width="29.46" height="17.19"/></clipPath></defs><g id="Layer_2" data-name="Layer 2"><g id="cá»"><g id="east_euro" data-name="east euro"><g class="cls-2"><rect class="cls-3" width="29.46" height="17.19"/><rect class="cls-4" y="5.73" width="29.46" height="11.46"/><rect class="cls-5" y="11.46" width="29.46" height="5.73"/><g class="cls-2"><path class="cls-3" d="M4.46,4c-.35,0-.25.45-.29.68a12.82,12.82,0,0,0,.21,4.94,5.49,5.49,0,0,0,2.49,3.05,4.11,4.11,0,0,0,.86.44,3.93,3.93,0,0,0,.91-.47,5.47,5.47,0,0,0,2.45-3,13.44,13.44,0,0,0,.21-5c0-.23,0-.63-.33-.6Z"/><path class="cls-5" d="M7.73,4.3v8.59C3.76,11,4.19,7.78,4.46,4.3Zm0,0v8.59C11.71,11,11.27,7.78,11,4.3Z"/><path class="cls-3" d="M8.2,6.65a6.58,6.58,0,0,1,1.25.16,1.55,1.55,0,0,1,0-1,6.58,6.58,0,0,1-1.25.16H7.27A6.48,6.48,0,0,1,6,5.77a1.55,1.55,0,0,1,0,1,6.48,6.48,0,0,1,1.25-.16Z"/><path class="cls-3" d="M8.56,8.22a5.86,5.86,0,0,1,1.25.16,1.55,1.55,0,0,1,0-1,6.57,6.57,0,0,1-1.25.15H6.91a6.67,6.67,0,0,1-1.26-.15,1.44,1.44,0,0,1,0,1,6,6,0,0,1,1.26-.16Z"/><path class="cls-3" d="M7.21,4.63a6.48,6.48,0,0,1,.16,1.24V11.2H8.1V5.87a5.77,5.77,0,0,1,.16-1.24,1.58,1.58,0,0,1-1,0"/><path class="cls-4" d="M6.08,9.9a.85.85,0,0,0-.85.85s0,.07,0,.11a6.14,6.14,0,0,0,.58.7,1.09,1.09,0,0,0,.26,0,.85.85,0,1,0,0-1.7"/><path class="cls-4" d="M7.73,9.4a1.08,1.08,0,1,0,1.09,1.08A1.08,1.08,0,0,0,7.73,9.4"/><path class="cls-4" d="M9.38,9.9a.85.85,0,1,0,0,1.7,1.17,1.17,0,0,0,.27,0,6.14,6.14,0,0,0,.58-.7s0-.07,0-.11a.86.86,0,0,0-.86-.85"/><path class="cls-4" d="M5.38,11a6.26,6.26,0,0,0,2.35,1.85A6.22,6.22,0,0,0,10.09,11Z"/></g></g></g></g></g></svg>