<svg xmlns="http://www.w3.org/2000/svg" xmlns:xlink="http://www.w3.org/1999/xlink" viewBox="0 0 29.46 17.19"><defs><style>.cls-1{fill:none;}.cls-2{clip-path:url(#clip-path);}.cls-3{fill:#b5002a;}.cls-4{fill:#f4c327;}.cls-5{fill:#9d0025;}.cls-6{fill:#c1b020;}.cls-7{fill:#fff;}.cls-8{fill:#3d8e6d;}.cls-9{fill:#3057bb;}.cls-10{fill:#cacaca;}.cls-11{fill:#c0b420;}.cls-12{fill:#ca3e4b;}.cls-13{fill:#de6ba8;}.cls-14{fill:#f7d591;}.cls-15{fill:#2f2aec;}.cls-16{clip-path:url(#clip-path-4);}</style><clipPath id="clip-path"><rect class="cls-1" width="29.46" height="17.19"/></clipPath><clipPath id="clip-path-4"><rect class="cls-1" x="8.15" y="9.16" width="0.78" height="0.92"/></clipPath></defs><g id="Layer_2" data-name="Layer 2"><g id="Layer_1-2" data-name="Layer 1"><g id="EUROPE"><g id="SPAIN"><g class="cls-2"><g class="cls-2"><rect class="cls-3" width="29.46" height="17.19"/><rect class="cls-4" y="4.3" width="29.46" height="8.59"/><g class="cls-2"><path class="cls-5" d="M5.72,7.61h0l0,0h0l0,0a.11.11,0,0,1,0-.07s0,0,.05,0l0,0h.45l.07,0,.08,0a.08.08,0,0,1,0,0l0,0v0l0,0,0,0,0,0,0,0s-.18,0-.28,0a1.83,1.83,0,0,0-.26,0Z"/><path d="M6.26,7.62h0a1.33,1.33,0,0,0-.28,0,1.62,1.62,0,0,0-.25,0l-.07,0,0,0a.09.09,0,0,1,0-.13l0,0h0l0,0H6.1l.05,0,.07,0,.08,0,0,0v0h0a0,0,0,0,1,0,0l0,.07,0,0a0,0,0,0,1,0,0ZM6,7.58l.25,0h0l0,0,0,0v-.1a.08.08,0,0,0,0,0h0l-.1,0-.05,0H5.74l0,0-.06,0a.12.12,0,0,0-.05,0s0,.06,0,.06l0,0,.06,0s.18,0,.28,0Z"/><path class="cls-6" d="M5.94,7.39S6,7.3,6,7.3s0,0,0,.09,0,.08,0,.08,0,0,0-.08Z"/><path d="M6,7.48s-.06,0-.06-.09.11-.1.11,0,0,.09,0,.09Zm0-.17s0,0,0,.08.09.08.09,0,0-.08,0-.08Z"/><path class="cls-6" d="M6,7.39s0-.08,0-.08,0,0,0,.08,0,.07,0,.07,0,0,0-.07Z"/><path d="M6,7.47s0,0,0-.08S6,7.3,6,7.3s0,0,0,.09,0,.08,0,.08Z"/><path class="cls-6" d="M6,7.3a0,0,0,0,1,0,0,0,0,0,0,1,0,0l0,0a0,0,0,0,1,0,0Z"/><polygon class="cls-6" points="6.01 7.29 6.01 7.31 5.96 7.31 5.96 7.29 5.98 7.29 5.98 7.24 5.96 7.24 5.96 7.22 5.98 7.22 5.98 7.2 6 7.2 6 7.22 6.02 7.22 6.02 7.24 6 7.24 6 7.29 6.01 7.29"/><polygon class="cls-1" points="6.01 7.29 6.01 7.31 5.96 7.31 5.96 7.29 5.98 7.29 5.98 7.24 5.96 7.24 5.96 7.22 5.98 7.22 5.98 7.2 6 7.2 6 7.22 6.02 7.22 6.02 7.24 6 7.24 6 7.29 6.01 7.29 6.01 7.29"/><polygon class="cls-6" points="6.03 7.29 6.03 7.31 5.94 7.31 5.94 7.29 5.98 7.29 5.98 7.24 5.96 7.24 5.96 7.22 5.98 7.22 5.98 7.2 6 7.2 6 7.22 6.02 7.22 6.02 7.24 6 7.24 6 7.29 6.03 7.29"/><polygon class="cls-1" points="6.03 7.29 6.03 7.31 5.94 7.31 5.94 7.29 5.98 7.29 5.98 7.24 5.96 7.24 5.96 7.22 5.98 7.22 5.98 7.2 6 7.2 6 7.22 6.02 7.22 6.02 7.24 6 7.24 6 7.29 6.03 7.29 6.03 7.29"/><path d="M6,7.33s0,0,0,0,0,0,0,0l0,0a0,0,0,0,0,0,0v0a.05.05,0,0,1,0,0,0,0,0,0,1,0,0Z"/><path class="cls-6" d="M6,7.61H5.82V7.47c0-.06-.08-.1-.1-.09l0,0s.12,0,.18.12l0,0h.14v0c.06-.09.15-.15.19-.12v0s0,0-.1.09v.14Z"/><path d="M6.16,7.61H5.82l0-.14-.09-.09h0s.08.07.1.09l0,.14h.32l0-.13a.26.26,0,0,1,.09-.09h0s0,0-.1.09v.14Zm-.24-.1c-.07-.1-.14-.15-.18-.15h0l0,0s.11.05.17.13l.1,0Zm.15,0c.06-.09.12-.14.16-.14h0a.22.22,0,0,0-.15.13Z"/><path d="M6.11,7.51c0-.1.12-.15.16-.13h0s-.1,0-.15.13Zm-.24,0c-.06-.08-.13-.13-.16-.12h0s.1,0,.16.12Z"/><path class="cls-6" d="M5.74,7.68a.07.07,0,0,0,0,0,1,1,0,0,1,.27,0,1,1,0,0,1,.26,0l0,0v0a.75.75,0,0,0-.23,0,.74.74,0,0,0-.24,0v0Z"/><path d="M5.75,7.71h0v0l0,0a.73.73,0,0,1,.27,0,1,1,0,0,1,.26,0v0h0l0,0L6,7.62a1,1,0,0,0-.26,0l0,0v0a.74.74,0,0,1,.24,0H6a.74.74,0,0,0-.24,0Z"/><path class="cls-6" d="M6,7.76l.2,0s0,0,0,0h0a.9.9,0,0,0-.46,0h0s0,0,0,0l.21,0Z"/><path d="M6,7.77l-.21,0s0,0,0,0a.79.79,0,0,1,.48,0s0,0,0,0L6,7.77Zm0-.09a.71.71,0,0,0-.23,0s0,0,0,0a1.41,1.41,0,0,0,.41,0s0,0,0,0a.8.8,0,0,0-.23,0Z"/><path class="cls-6" d="M6.25,7.61l0,0h0a.08.08,0,0,1,0,0l0,0a.07.07,0,0,1,0,0l0,0s0,0,0,0,0,0,0,0a.07.07,0,0,1,0,0,0,0,0,0,1,0,0,0,0,0,0,1,0,0l0,0h0a0,0,0,0,1,0,0h0a1.14,1.14,0,0,1,.52,0Z"/><path d="M6.25,7.63a1.14,1.14,0,0,0-.52,0v0h0a.07.07,0,0,0,0,0l.05,0s0,0,0,0h0l0,0,0,0h0s0,0,0,0h0l0,0s0,0,0,0h0s0,0,0,0l0,0,0,0H6a.09.09,0,0,1,0,0,0,0,0,0,1,0,0h0a0,0,0,0,1,0,0l0,0,0,0H6a1,1,0,0,1,.25,0h0Z"/><path class="cls-6" d="M6,7.52H6s0,0,0,0,0,0,0,0h0a0,0,0,0,0,0,0s0,0,0,0h0v0h0s0,0,0,0l0,0h0s0,0,0,0l0,0,0,0h0l0,0h0a0,0,0,0,1,0,0h0a.09.09,0,0,1,0,0H6l0,0,0,0H5.82a.09.09,0,0,1-.05,0h0l0,0h0a.08.08,0,0,1,0,0h0l0,0a0,0,0,0,0,0,0s0,0,0,0h0l0,0a0,0,0,0,0,0,0h0v0h0s0,0,0,0,0,0,0,0h0s0,0,0,0a0,0,0,0,0,0,0H6Z"/><path d="M6.25,7.62h0a.08.08,0,0,0,0,0l0,0h0v0a0,0,0,0,1-.08,0l0,0h0v0l0,0,0,0s0,.05,0,.06Zm-.53,0h0a.14.14,0,0,1,0,0h0l0,0h0v0l0,0v0h0v0h0a.1.1,0,0,0,.07,0,.08.08,0,0,0,.08,0s.07,0,.08,0a.06.06,0,0,0,.09,0,.06.06,0,0,0,.08,0,.05.05,0,0,0,0,0h0s0,0-.06,0-.06,0-.08,0S6,7.6,6,7.57s-.05,0-.08,0a.05.05,0,0,1-.08,0s0,0-.05,0Zm0,0h0a0,0,0,0,0,0,0v0c0,.07.08.06.08,0h0s-.08,0-.08,0,0,0-.05,0Z"/><path class="cls-6" d="M6,7.61a.88.88,0,0,0-.26,0h0a1,1,0,0,1,.27,0,.89.89,0,0,1,.26,0h0a1,1,0,0,0-.26,0Z"/><path d="M6.25,7.65h0a1.14,1.14,0,0,0-.52,0l0,0a1.29,1.29,0,0,1,.48,0h0Zm0,0A1,1,0,0,0,6,7.6h-.2a.62.62,0,0,1,.2,0,.93.93,0,0,1,.26,0Z"/><path class="cls-7" d="M5.89,7.65s0,0,0,0a0,0,0,0,1,0,0h0Z"/><path class="cls-1" d="M5.89,7.65s0,0,0,0a0,0,0,0,1,0,0h0Z"/><path class="cls-5" d="M6,7.65H6a0,0,0,0,1,0,0H6s0,0,0,0Z"/><path class="cls-1" d="M6,7.65H6a0,0,0,0,1,0,0H6s0,0,0,0Z"/><path class="cls-8" d="M5.82,7.67h0Z"/><path class="cls-1" d="M5.82,7.67h0Z"/><polygon class="cls-5" points="5.73 7.68 5.74 7.66 5.76 7.67 5.75 7.69 5.73 7.68"/><polygon class="cls-1" points="5.73 7.68 5.74 7.66 5.76 7.67 5.75 7.69 5.73 7.68 5.73 7.68"/><path class="cls-7" d="M6.06,7.65s0,0,0,0a0,0,0,0,1,0,0h0Z"/><path class="cls-1" d="M6.06,7.65s0,0,0,0a0,0,0,0,1,0,0h0Z"/><path class="cls-8" d="M6.15,7.67h0s0,0,0,0h0Z"/><path class="cls-1" d="M6.15,7.67h0s0,0,0,0h0Z"/><polygon class="cls-5" points="6.25 7.68 6.24 7.66 6.21 7.67 6.22 7.69 6.25 7.68"/><polygon class="cls-1" points="6.25 7.68 6.24 7.66 6.21 7.67 6.22 7.69 6.25 7.68 6.25 7.68"/><path class="cls-5" d="M6,7.75a1.17,1.17,0,0,1-.22,0L6,7.7l.21,0a1.18,1.18,0,0,1-.21,0Z"/><path d="M6,7.75H6l-.22,0a.79.79,0,0,1,.43,0,.58.58,0,0,1-.21,0Zm0,0a.73.73,0,0,0-.22,0H6l.21,0L6,7.7Z"/><path class="cls-6" d="M6.25,7.56h0s0,0,0,0,0,0,0,0Z"/><path class="cls-1" d="M6.25,7.56h0s0,0,0,0S6.25,7.57,6.25,7.56Z"/><path class="cls-6" d="M6.08,7.53h0s0,0,0,0,0,0,0,0Z"/><path class="cls-1" d="M6.08,7.53h0s0,0,0,0,0,0,0,0Z"/><path class="cls-6" d="M5.89,7.53a0,0,0,0,1,0,0,0,0,0,0,1,0,0h0Z"/><path class="cls-1" d="M5.89,7.53a0,0,0,0,1,0,0,0,0,0,0,1,0,0h0Z"/><path class="cls-6" d="M5.73,7.56s0,0,0,0h0s0,0,0,0Z"/><path class="cls-1" d="M5.73,7.56s0,0,0,0h0S5.73,7.57,5.73,7.56Z"/><polygon class="cls-6" points="5.99 7.44 5.96 7.46 5.98 7.5 5.99 7.51 5.99 7.5 6.02 7.46 5.99 7.44"/><polygon class="cls-1" points="5.99 7.44 5.96 7.46 5.98 7.5 5.99 7.51 5.99 7.5 6.02 7.46 5.99 7.44 5.99 7.44"/><polygon class="cls-6" points="5.92 7.51 5.94 7.53 5.98 7.51 5.99 7.51 5.98 7.5 5.94 7.49 5.92 7.51"/><polygon class="cls-1" points="5.92 7.51 5.94 7.53 5.98 7.51 5.99 7.51 5.98 7.5 5.94 7.49 5.92 7.51 5.92 7.51"/><polygon class="cls-6" points="6.05 7.51 6.04 7.53 5.99 7.51 5.99 7.51 5.99 7.5 6.04 7.49 6.05 7.51"/><polygon class="cls-1" points="6.05 7.51 6.04 7.53 5.99 7.51 5.99 7.51 5.99 7.5 6.04 7.49 6.05 7.51 6.05 7.51"/><polygon class="cls-6" points="5.8 7.46 5.77 7.48 5.8 7.52 5.81 7.52 5.82 7.52 5.83 7.47 5.8 7.46"/><polygon class="cls-1" points="5.8 7.46 5.77 7.48 5.8 7.52 5.81 7.52 5.82 7.52 5.83 7.47 5.8 7.46 5.8 7.46"/><polygon class="cls-6" points="5.75 7.54 5.76 7.55 5.81 7.53 5.81 7.52 5.8 7.52 5.76 7.51 5.75 7.54"/><polygon class="cls-1" points="5.75 7.54 5.76 7.55 5.81 7.53 5.81 7.52 5.8 7.52 5.76 7.51 5.75 7.54 5.75 7.54"/><polygon class="cls-6" points="5.87 7.51 5.87 7.53 5.82 7.53 5.81 7.52 5.81 7.51 5.86 7.49 5.87 7.51"/><polygon class="cls-1" points="5.87 7.51 5.87 7.53 5.82 7.53 5.81 7.52 5.81 7.51 5.86 7.49 5.87 7.51 5.87 7.51"/><polygon class="cls-6" points="5.7 7.54 5.7 7.56 5.65 7.57 5.64 7.57 5.64 7.56 5.68 7.53 5.7 7.54"/><polygon class="cls-1" points="5.7 7.54 5.7 7.56 5.65 7.57 5.64 7.57 5.64 7.56 5.68 7.53 5.7 7.54 5.7 7.54"/><path class="cls-6" d="M5.79,7.52h0a0,0,0,0,1,0,0,0,0,0,0,1,0,0Z"/><path class="cls-1" d="M5.79,7.52h0a0,0,0,0,1,0,0A0,0,0,0,1,5.83,7.52Z"/><polygon class="cls-6" points="6.18 7.46 6.2 7.48 6.17 7.52 6.16 7.52 6.16 7.52 6.15 7.47 6.18 7.46"/><polygon class="cls-1" points="6.18 7.46 6.2 7.48 6.17 7.52 6.16 7.52 6.16 7.52 6.15 7.47 6.18 7.46 6.18 7.46"/><polygon class="cls-6" points="6.23 7.54 6.21 7.55 6.17 7.53 6.16 7.52 6.17 7.52 6.22 7.51 6.23 7.54"/><polygon class="cls-1" points="6.23 7.54 6.21 7.55 6.17 7.53 6.16 7.52 6.17 7.52 6.22 7.51 6.23 7.54 6.23 7.54"/><polygon class="cls-6" points="6.1 7.51 6.11 7.53 6.16 7.53 6.16 7.52 6.16 7.51 6.12 7.49 6.1 7.51"/><polygon class="cls-1" points="6.1 7.51 6.11 7.53 6.16 7.53 6.16 7.52 6.16 7.51 6.12 7.49 6.1 7.51 6.1 7.51"/><polygon class="cls-6" points="6.27 7.54 6.27 7.56 6.32 7.57 6.32 7.57 6.32 7.56 6.29 7.53 6.27 7.54"/><polygon class="cls-1" points="6.27 7.54 6.27 7.56 6.32 7.57 6.32 7.57 6.32 7.56 6.29 7.53 6.27 7.54 6.27 7.54"/><path class="cls-6" d="M6,7.51l0,0s0,0,0,0H6Z"/><path class="cls-1" d="M6,7.51l0,0s0,0,0,0H6Z"/><path class="cls-6" d="M6.15,7.52h0a0,0,0,0,1,0,0s0,0,0,0Z"/><path class="cls-1" d="M6.15,7.52h0a0,0,0,0,1,0,0S6.15,7.53,6.15,7.52Z"/><path class="cls-6" d="M5.64,7.57l0,0h0a0,0,0,0,1,0,0v0Z"/><path class="cls-1" d="M5.64,7.57l0,0h0a0,0,0,0,1,0,0v0Z"/><path class="cls-6" d="M5.64,7.56h0v0h0s0,0,0,0Z"/><path class="cls-1" d="M5.64,7.56h0v0h0S5.63,7.56,5.64,7.56Z"/><path class="cls-6" d="M6.33,7.57l0,0h0a0,0,0,0,0,0,0s0,0,0,0Z"/><path class="cls-1" d="M6.33,7.57l0,0h0a0,0,0,0,0,0,0s0,0,0,0Z"/><path class="cls-6" d="M6.33,7.56h0s0,0,0,0h0v0Z"/><path class="cls-1" d="M6.33,7.56h0s0,0,0,0h0Z"/><rect class="cls-6" x="5.61" y="7.76" width="0.76" height="0.2"/><path d="M6.38,8H5.61v-.2h.77V8Zm0-.2H5.61V8h.75V7.76Z"/><path class="cls-6" d="M5.69,8.09h.6s0,0,0-.05,0,0,0,0h-.6a.05.05,0,0,1,0,0,.05.05,0,0,1,0,.05Z"/><path d="M6.29,8.1h0s0,0,0,0l0,0V8s0,0,0,0h0Zm-.59,0a.09.09,0,0,0,0-.05s0,0,0,0h0s0,0,0,0a.05.05,0,0,1,0,.05Z"/><path class="cls-6" d="M5.7,8.09h.57l0,0s0,0,0,0H5.7a0,0,0,0,1,0,0s0,0,0,0Z"/><path d="M6.27,8.15H5.7a0,0,0,0,1,0,0,0,0,0,0,1,0,0h.57a0,0,0,0,1,0,0,0,0,0,0,1,0,0ZM5.7,8.09v0h.57s0,0,0,0l-.6,0Z"/><path class="cls-6" d="M5.7,8h.57s0,0,0,0l0,0H5.7s0,0,0,0,0,0,0,0Z"/><path d="M6.27,8H5.7s0,0,0,0,0,0,0,0h.57s0,0,0,0,0,0,0,0ZM5.7,8l.57,0s0,0,0,0L5.7,8Z"/><path class="cls-9" d="M6.52,11.31a.25.25,0,0,1-.13,0,.58.58,0,0,0-.14,0,.42.42,0,0,0-.13,0,.25.25,0,0,1-.13,0,.29.29,0,0,1-.14,0,.42.42,0,0,0-.13,0,.25.25,0,0,0-.13,0,.25.25,0,0,1-.13,0v.08l.13,0a.25.25,0,0,1,.13,0l.13,0a.29.29,0,0,0,.14,0l.13,0a.25.25,0,0,1,.13,0,.32.32,0,0,1,.14,0l.13,0v-.08Z"/><path d="M6.53,11.4h0a.32.32,0,0,1-.14,0,.34.34,0,0,0-.26,0,.32.32,0,0,1-.27,0,.34.34,0,0,0-.26,0,.25.25,0,0,1-.13,0v-.09a.32.32,0,0,0,.14,0,.32.32,0,0,1,.27,0,.34.34,0,0,0,.26,0,.32.32,0,0,1,.27,0,.25.25,0,0,0,.13,0v.08Zm-.81-.14a.28.28,0,0,0-.13,0,.25.25,0,0,1-.13,0v.07a.31.31,0,0,0,.13,0,.32.32,0,0,1,.27,0,.3.3,0,0,0,.26,0,.32.32,0,0,1,.27,0,.21.21,0,0,0,.12,0v-.08a.2.2,0,0,1-.13,0,.3.3,0,0,0-.26,0,.32.32,0,0,1-.27,0,.28.28,0,0,0-.13,0Z"/><path class="cls-10" d="M6.52,11.39l-.13,0a.32.32,0,0,0-.14,0,.25.25,0,0,0-.13,0l-.13,0a.29.29,0,0,1-.14,0l-.13,0a.25.25,0,0,0-.13,0l-.13,0v.09a.25.25,0,0,0,.13,0,.3.3,0,0,1,.26,0,.49.49,0,0,0,.14,0,.25.25,0,0,0,.13,0,.25.25,0,0,1,.13,0,.32.32,0,0,1,.14,0,.25.25,0,0,0,.13,0v-.09Z"/><path d="M6.53,11.48h0a.32.32,0,0,1-.14,0,.39.39,0,0,0-.26,0,.32.32,0,0,1-.27,0,.39.39,0,0,0-.26,0,.25.25,0,0,1-.13,0v-.09a.32.32,0,0,0,.14,0,.32.32,0,0,1,.27,0,.3.3,0,0,0,.26,0,.32.32,0,0,1,.27,0,.25.25,0,0,0,.13,0v.09Zm-.81-.14a.28.28,0,0,0-.13,0,.25.25,0,0,1-.13,0v.08l.13,0a.36.36,0,0,1,.27,0,.3.3,0,0,0,.26,0,.32.32,0,0,1,.27,0,.21.21,0,0,0,.12,0v-.08a.2.2,0,0,1-.13,0,.34.34,0,0,0-.26,0,.32.32,0,0,1-.27,0,.28.28,0,0,0-.13,0Z"/><path class="cls-9" d="M6.52,11.48a.25.25,0,0,1-.13,0,.32.32,0,0,0-.14,0,.25.25,0,0,0-.13,0,.25.25,0,0,1-.13,0,.49.49,0,0,1-.14,0,.3.3,0,0,0-.26,0,.25.25,0,0,1-.13,0v.08a.25.25,0,0,0,.13,0,.3.3,0,0,1,.26,0,.29.29,0,0,0,.14,0,.25.25,0,0,0,.13,0,.25.25,0,0,1,.13,0,.32.32,0,0,1,.14,0,.25.25,0,0,0,.13,0v-.08Z"/><path d="M6.53,11.57h0a.32.32,0,0,1-.14,0,.3.3,0,0,0-.26,0,.32.32,0,0,1-.27,0,.34.34,0,0,0-.26,0,.42.42,0,0,1-.13,0v-.09l.14,0a.36.36,0,0,1,.27,0,.3.3,0,0,0,.26,0,.32.32,0,0,1,.27,0,.25.25,0,0,0,.13,0v.09Zm-.81-.14-.13,0a.25.25,0,0,1-.13,0v.08l.13,0a.42.42,0,0,1,.27,0,.3.3,0,0,0,.26,0,.42.42,0,0,1,.27,0,.21.21,0,0,0,.12,0v-.07a.31.31,0,0,1-.13,0,.39.39,0,0,0-.26,0,.32.32,0,0,1-.27,0l-.13,0Z"/><path class="cls-10" d="M6.52,11.64a.25.25,0,0,1-.13,0,.32.32,0,0,0-.14,0,.25.25,0,0,0-.13,0,.25.25,0,0,1-.13,0,.29.29,0,0,1-.14,0,.3.3,0,0,0-.26,0,.25.25,0,0,1-.13,0v-.08a.25.25,0,0,0,.13,0,.3.3,0,0,1,.26,0,.29.29,0,0,0,.14,0,.25.25,0,0,0,.13,0,.25.25,0,0,1,.13,0,.32.32,0,0,1,.14,0,.25.25,0,0,0,.13,0v.08Z"/><path d="M6.53,11.65h0a.32.32,0,0,1-.14,0,.3.3,0,0,0-.26,0,.32.32,0,0,1-.27,0,.3.3,0,0,0-.26,0,.25.25,0,0,1-.13,0v-.09l.14,0a.42.42,0,0,1,.27,0,.3.3,0,0,0,.26,0,.42.42,0,0,1,.27,0,.25.25,0,0,0,.13,0v.09Zm-.81-.14a.28.28,0,0,0-.13,0,.25.25,0,0,1-.13,0v.07a.5.5,0,0,0,.13,0,.36.36,0,0,1,.27,0,.34.34,0,0,0,.26,0,.32.32,0,0,1,.27,0l.12,0v-.08a.2.2,0,0,1-.13,0,.3.3,0,0,0-.26,0,.32.32,0,0,1-.27,0l-.13,0Z"/><path class="cls-9" d="M6.52,11.72a.25.25,0,0,1-.13,0l-.14,0-.13,0a.25.25,0,0,1-.13,0,.29.29,0,0,1-.14,0l-.13,0-.13,0a.25.25,0,0,1-.13,0v-.08a.25.25,0,0,0,.13,0,.3.3,0,0,1,.26,0,.29.29,0,0,0,.14,0,.25.25,0,0,0,.13,0,.25.25,0,0,1,.13,0,.32.32,0,0,1,.14,0,.25.25,0,0,0,.13,0v.08Z"/><path d="M6.53,11.73h0a.32.32,0,0,1-.14,0,.34.34,0,0,0-.26,0,.32.32,0,0,1-.27,0,.39.39,0,0,0-.26,0,.25.25,0,0,1-.13,0v-.09a.58.58,0,0,0,.14,0,.36.36,0,0,1,.27,0,.34.34,0,0,0,.26,0,.32.32,0,0,1,.27,0,.42.42,0,0,0,.13,0v.08Zm-.81-.14a.28.28,0,0,0-.13,0,.25.25,0,0,1-.13,0v.07a.28.28,0,0,0,.13,0,.32.32,0,0,1,.27,0,.3.3,0,0,0,.26,0,.32.32,0,0,1,.27,0,.21.21,0,0,0,.12,0v-.08a.2.2,0,0,1-.13,0,.3.3,0,0,0-.26,0,.32.32,0,0,1-.27,0,.25.25,0,0,0-.13,0Z"/><path class="cls-6" d="M5.69,11v0a.09.09,0,0,1-.09.09h.78a.1.1,0,0,1-.1-.09v0h-.6Z"/><path d="M6.38,11.09H5.6A.11.11,0,0,0,5.69,11h0a.11.11,0,0,1-.1.09h.73a.1.1,0,0,1,0-.08h-.4l.39,0c0,.07.06.11.11.11h0Z"/><path class="cls-6" d="M5.7,10.92h.57a0,0,0,1,1,0,.06H5.7a0,0,0,0,1,0-.06Z"/><path d="M6.27,11H5.7s0,0,0,0,0,0,0,0h.57s0,0,0,0,0,0,0,0Zm-.57-.05v0h.57s0,0,0,0l-.6,0Z"/><rect class="cls-6" x="5.6" y="11.09" width="0.78" height="0.2"/><path d="M6.38,11.29H5.6v-.2h.79v.21Zm0-.2H5.6v.2h.77v-.19Z"/><path class="cls-5" d="M5.54,10.22c-.08,0-.13.09-.12.11s0,0,.06.06.09.11.06.14a.19.19,0,0,0,.08-.15.18.18,0,0,0-.08-.16Z"/><path d="M5.55,10.54h0v0a.13.13,0,0,0-.06-.09s-.07,0-.07-.07.08-.09.12-.12a.2.2,0,0,1,.09.17.24.24,0,0,1-.07.16Zm0-.32c-.07,0-.11.09-.11.11s0,0,.06.05a.26.26,0,0,1,.08.11v0a.24.24,0,0,0,.05-.13.21.21,0,0,0-.08-.16Z"/><rect class="cls-10" x="5.71" y="8.17" width="0.55" height="2.72"/><path d="M6.17,10.89V8.18h0v2.71Zm-.06,0V8.18h0v2.71Z"/><path d="M6.27,10.9H5.71V8.17h.56V10.9Zm0-2.73H5.71v2.71h.54V8.17Z"/><path class="cls-5" d="M6.83,9.19a1.82,1.82,0,0,0-.56-.1L6,9.12c-.33.05-.58.19-.56.29h0l-.13-.29c0-.12.26-.26.63-.33a1.88,1.88,0,0,1,.33,0,2,2,0,0,1,.56.07v.34Z"/><path d="M5.43,9.43h0l-.12-.3a.07.07,0,0,1,0-.07,1,1,0,0,1,.61-.26,1.88,1.88,0,0,1,.89,0v.34a2.13,2.13,0,0,0-.57-.09L6,9.12a1,1,0,0,0-.54.23.14.14,0,0,0,0,.06h0Zm.83-.65a1.58,1.58,0,0,0-.32,0,1.06,1.06,0,0,0-.6.25.11.11,0,0,0,0,.07l.11.26s0,0,0-.05A1.05,1.05,0,0,1,6,9.11l.27,0a1.86,1.86,0,0,1,.56.09V8.85a1.94,1.94,0,0,0-.55-.07Z"/><path class="cls-5" d="M5.71,9.53c-.16,0-.26,0-.27-.12s0-.1.13-.16h.14v.27Z"/><path d="M5.71,9.54h0c-.17,0-.27-.06-.28-.12s0-.12.14-.17h.14v.27ZM5.6,9.26c-.12.05-.16.11-.16.15s.11.1.26.11V9.26Z"/><path class="cls-5" d="M6.27,9.32a.57.57,0,0,1,.2.07h0s-.06.11-.21.19V9.32Z"/><path d="M6.26,9.6V9.32a.4.4,0,0,1,.21.06c0,.07-.11.16-.2.22Zm0-.27v.25c.16-.1.21-.16.2-.18a.43.43,0,0,0-.21-.07Z"/><path class="cls-5" d="M5.36,10.05s.14-.13.35-.2L6,9.73c.29-.13.51-.28.48-.33h0a1.45,1.45,0,0,1,0,.28c0,.05-.17.2-.44.33l-.36.14c-.16,0-.31.15-.29.19l-.06-.28Z"/><path d="M5.41,10.34h0l0-.27c0-.06.16-.15.35-.22L6,9.73c.32-.14.5-.27.5-.32h0a1.05,1.05,0,0,1,0,.26c0,.09-.21.22-.45.34l-.36.13c-.15.06-.29.15-.29.19h0Zm1.06-.93c0,.07-.24.22-.48.33l-.28.11c-.23.09-.35.17-.34.2l0,.25a.69.69,0,0,1,.29-.17A2.55,2.55,0,0,0,6.06,10a1.15,1.15,0,0,0,.44-.3s0-.22,0-.28Z"/><path class="cls-6" d="M5.67,9.06C5.74,9,5.78,9,5.76,9s0,0-.1,0L5.57,9l.08.21h.06l0-.09Zm0-.1h0a0,0,0,0,1,.06,0s0,0,0,0h0l0-.08Z"/><path class="cls-6" d="M5.89,8.87H5.83l0,.22.15,0H6V9l-.09,0,0-.2Z"/><path class="cls-6" d="M6.19,9.06l.09-.23h0A1.22,1.22,0,0,1,6.18,9c0-.06-.06-.11-.08-.16H6l.12.21h0Z"/><path class="cls-6" d="M6.5,8.89l0,0-.06,0c-.07,0-.1,0-.11.06s.12.07.11.12,0,0,0,0a0,0,0,0,1,0,0h0s0,0,0,0l.06,0c.06,0,.11,0,.11-.06s-.11-.08-.11-.12a0,0,0,0,1,0,0,0,0,0,0,1,0,0Z"/><path class="cls-5" d="M11.08,7.55l0,0,0,0a0,0,0,0,1,0,0s-.05,0-.05,0a.14.14,0,0,1,0,0h0l0,0h0l0,0,0,0h0V7.5s0,0,.08,0h.07a.16.16,0,0,1,.11,0l.1,0,.1,0a.16.16,0,0,1,.11,0h.07c.05,0,.09,0,.08,0v.06h0l0,0,0,0h0l0,0h0l0,0s0,0-.05,0l0,0a.07.07,0,0,1,0,0s0,0,0,0Z"/><path d="M11.35,7.61h0l0,0h0l0,0,0,0-.05,0h0a.07.07,0,0,1-.05,0l0,0h0l0,0h0a.08.08,0,0,1-.05,0l0,0h0a.07.07,0,0,0,0,0l0,0a0,0,0,0,0,0,0h0l0,0,.05,0,0,0h0l0,0,.05,0,0,0h0l0,0,.08-.09s0-.06-.07-.07h0c.05,0,.09,0,.09.07l0,0-.08.05Zm-.6,0h0v0s0-.08.07-.09h0a.3.3,0,0,1,.25,0,.26.26,0,0,1,.21,0,.29.29,0,0,0-.21,0,.26.26,0,0,0-.21,0H10.8a.11.11,0,0,0-.08,0l0,.07Z"/><path class="cls-6" d="M11,7.41s0-.07.05-.07,0,0,0,.07,0,.06,0,.06A.06.06,0,0,1,11,7.41Z"/><path d="M11.08,7.48s-.05,0-.05-.07.1-.08.1,0,0,.07-.05.07Zm0-.14s0,0,0,.07a0,0,0,1,0,.08,0s0-.07,0-.07Z"/><path class="cls-6" d="M11.06,7.41s0-.07,0-.07,0,0,0,.07,0,.06,0,.06,0,0,0-.06Z"/><path class="cls-1" d="M11.06,7.41s0-.07,0-.07,0,0,0,.07,0,.06,0,.06S11.06,7.44,11.06,7.41Z"/><path class="cls-6" d="M10.84,7.68l0,0a1.14,1.14,0,0,1,.52,0l0,0v0a.75.75,0,0,0-.23,0,.74.74,0,0,0-.24,0v0Z"/><path d="M10.84,7.71h0v0a0,0,0,0,0,0,0,.77.77,0,0,1,.27,0,1,1,0,0,1,.26,0v0h0l0,0-.26,0a1,1,0,0,0-.26,0s0,0,0,0v0a.74.74,0,0,1,.24,0h0a.63.63,0,0,0-.23,0Z"/><path class="cls-6" d="M11.08,7.76l.21,0a0,0,0,0,0,0,0h0a.9.9,0,0,0-.46,0h0s0,0,0,0l.21,0Z"/><path d="M11.08,7.77l-.21,0s0,0,0,0a.79.79,0,0,1,.48,0s0,0,0,0l-.21,0Zm0-.09a.71.71,0,0,0-.23,0s0,0,0,0a1.48,1.48,0,0,0,.42,0s0,0,0,0a.83.83,0,0,0-.24,0Z"/><path class="cls-7" d="M11.28,7.43h0a0,0,0,0,1,0,0,0,0,0,0,1,0,0Z"/><path class="cls-1" d="M11.28,7.43h0a0,0,0,0,1,0,0A0,0,0,0,1,11.28,7.43Z"/><path class="cls-1" d="M11.27,7.38h0s0,0,0,0Zm0,0h0s0,0,0,0A0,0,0,0,1,11.23,7.35Zm-.05,0,0,0a0,0,0,0,1,0,0h0Zm0,0s0,0,0,0l0,0h0Z"/><path d="M11.43,7.54h0s0,0,0,0a.09.09,0,0,0-.14-.08.05.05,0,0,1,0,0,.1.1,0,0,1,.1.11v0Z"/><path d="M11.26,7.45h0c0-.06-.08-.09-.13-.06s.14,0,.14.06Z"/><path class="cls-1" d="M11.45,7.49s0,0,0,0a0,0,0,0,1,0,0h0Zm0,0a0,0,0,0,1,0,0,0,0,0,0,1,0,0h0Zm0-.05h0a0,0,0,0,1,0,0S11.41,7.4,11.41,7.39Zm-.05,0h0v0A0,0,0,0,1,11.36,7.37Zm0,0h0v0Z"/><path class="cls-6" d="M11.35,7.61l0,0h-.05a.08.08,0,0,1,0,0l-.05,0,0,0a.07.07,0,0,1,0,0s0,0,0,0a.07.07,0,0,1-.05,0,0,0,0,0,1,0,0,0,0,0,0,1,0,0,0,0,0,0,1-.05,0l0,0h-.06a1.14,1.14,0,0,1,.52,0Z"/><path d="M11.34,7.63a1.14,1.14,0,0,0-.52,0v0h0l0,0,0,0a0,0,0,0,0,0,0s0,0,0,0a.07.07,0,0,0,0,0l0,0h0l0,0h0l.05,0s0,0,0,0h0a0,0,0,0,1,0,0l-.05,0,0,0h0a.09.09,0,0,1,0,0s0,0,0,0h0l0,0-.05,0,0,0h.19a.85.85,0,0,1,.25,0h0Z"/><path class="cls-7" d="M10.84,7.43h0a0,0,0,0,1,0,0,0,0,0,0,1,0,0Z"/><path class="cls-1" d="M10.84,7.43h0a0,0,0,0,1,0,0A0,0,0,0,1,10.88,7.43Z"/><path class="cls-1" d="M10.85,7.38h0s0,0,0,0Zm0,0h0s0,0,0,0A0,0,0,0,1,10.89,7.35Zm0,0a0,0,0,0,1,0,0v0h0Zm.05,0v0l0,0h0Z"/><path d="M10.72,7.54h0a.08.08,0,0,1,0,0,.1.1,0,0,1,.15-.09c-.08,0-.14,0-.14.09a0,0,0,0,0,0,0Z"/><path d="M10.89,7.47v0c0-.06.09-.1.15-.06s-.14,0-.14.06v0Z"/><path class="cls-1" d="M10.68,7.49v0l0,0h0Zm0,0a0,0,0,0,1,0,0,0,0,0,0,1,0,0h0Zm0-.05h0a0,0,0,0,1,0,0A0,0,0,0,1,10.72,7.39Zm0,0h0l0,0S10.77,7.38,10.77,7.37Zm0,0h0l0,0Z"/><path class="cls-6" d="M11.08,7.52h0s0,0,0,0,0,0,0,0h0s0,0,0,0a0,0,0,0,0,0,0h0v0h0s0,0,0,0l0,0h0s0,0,0,0l0,0,0,0h0l0,0h0a0,0,0,0,1,0,0h0a.09.09,0,0,1,0,0h-.12l0,0-.05,0h-.12a0,0,0,0,1,0,0h0s0,0,0,0h0l0,0h0l0,0,0,0s0,0,0,0h0l0,0a0,0,0,0,0,0,0h0v0h0s0,0,0,0,0,0,0,0h0a0,0,0,0,0,0,0,0,0,0,0,0,0,0h0Z"/><path d="M11.35,7.62h0a.08.08,0,0,0,0,0s-.05,0-.05,0h0v0a0,0,0,0,1-.08,0l0,0h.05v0l0,0,0,0s0,.05,0,.06Zm-.53,0h0s0,0,0,0h0l0,0h0l0,0,.05,0v0h0v0h0a.1.1,0,0,0,.07,0,.08.08,0,0,0,.08,0s.07,0,.09,0a.05.05,0,0,0,.08,0s.06,0,.08,0a.05.05,0,0,0,0,0h0s-.05,0-.06,0-.06,0-.08,0-.07,0-.08,0-.06,0-.09,0a.05.05,0,0,1-.08,0s0,0,0,0Zm0,0h0s0,0,0,0v0c0,.07.07.05.08,0h0s-.08,0-.08,0,0,0-.05,0Z"/><path class="cls-6" d="M11.08,7.61a.93.93,0,0,0-.26,0h0s0,0,0,0a1,1,0,0,1,.27,0,1,1,0,0,1,.27,0h0a1,1,0,0,0-.26,0Z"/><path d="M11.34,7.65h0a1.14,1.14,0,0,0-.52,0l0,0a1.29,1.29,0,0,1,.48,0h0Zm0,0a1.12,1.12,0,0,0-.27,0h-.2a.65.65,0,0,1,.2,0,1.06,1.06,0,0,1,.27,0Z"/><path class="cls-7" d="M11,7.65a0,0,0,0,1,0,0,0,0,0,0,1,0,0h0Z"/><path class="cls-1" d="M11,7.65a0,0,0,0,1,0,0,0,0,0,0,1,0,0h0Z"/><path class="cls-5" d="M11.08,7.65h0s0,0,0,0h.08s0,0,0,0Z"/><path class="cls-1" d="M11.08,7.65h0s0,0,0,0h.08s0,0,0,0Z"/><path class="cls-8" d="M10.91,7.67h0a0,0,0,0,1,0,0h0Z"/><path class="cls-1" d="M10.91,7.67h0a0,0,0,0,1,0,0h0Z"/><polygon class="cls-5" points="10.82 7.68 10.83 7.66 10.85 7.67 10.84 7.69 10.82 7.68"/><polygon class="cls-1" points="10.82 7.68 10.83 7.66 10.85 7.67 10.84 7.69 10.82 7.68 10.82 7.68"/><path class="cls-7" d="M11.15,7.65a0,0,0,0,1,0,0,0,0,0,0,1,0,0h0Z"/><path class="cls-1" d="M11.15,7.65a0,0,0,0,1,0,0,0,0,0,0,1,0,0h0Z"/><path class="cls-8" d="M11.24,7.67h0a0,0,0,0,0,0,0h0Z"/><path class="cls-1" d="M11.24,7.67h0a0,0,0,0,0,0,0h0Z"/><polygon class="cls-5" points="11.34 7.68 11.33 7.66 11.31 7.67 11.32 7.69 11.34 7.68"/><polygon class="cls-1" points="11.34 7.68 11.33 7.66 11.31 7.67 11.32 7.69 11.34 7.68 11.34 7.68"/><path class="cls-5" d="M11.08,7.75a1.3,1.3,0,0,1-.22,0l.22,0,.21,0a1.05,1.05,0,0,1-.21,0Z"/><path d="M11.08,7.75h0l-.22,0a.82.82,0,0,1,.44,0,.69.69,0,0,1-.22,0Zm0,0a.73.73,0,0,0-.22,0h.22l.21,0-.21,0Z"/><path class="cls-6" d="M11.34,7.56h0s0,0,0,0,0,0,0,0Z"/><path class="cls-1" d="M11.34,7.56h0s0,0,0,0S11.34,7.57,11.34,7.56Z"/><path class="cls-6" d="M11.17,7.53s0,0,0,0,0,0,0,0h0Z"/><path class="cls-1" d="M11.17,7.53s0,0,0,0,0,0,0,0h0Z"/><path class="cls-6" d="M11,7.53h0s0,0,0,0h0Z"/><path class="cls-1" d="M11,7.53h0s0,0,0,0h0Z"/><path class="cls-6" d="M10.82,7.56h0s0,0,0,0,0,0,0,0Z"/><path class="cls-1" d="M10.82,7.56h0s0,0,0,0S10.82,7.57,10.82,7.56Z"/><polygon class="cls-6" points="11.08 7.44 11.05 7.46 11.07 7.5 11.08 7.51 11.09 7.5 11.11 7.46 11.08 7.44"/><polygon class="cls-1" points="11.08 7.44 11.05 7.46 11.07 7.5 11.08 7.51 11.09 7.5 11.11 7.46 11.08 7.44 11.08 7.44"/><polygon class="cls-6" points="11.01 7.51 11.03 7.53 11.07 7.51 11.08 7.51 11.07 7.5 11.03 7.49 11.01 7.51"/><polygon class="cls-1" points="11.01 7.51 11.03 7.53 11.07 7.51 11.08 7.51 11.07 7.5 11.03 7.49 11.01 7.51 11.01 7.51"/><polygon class="cls-6" points="11.14 7.51 11.13 7.53 11.08 7.51 11.08 7.51 11.08 7.5 11.13 7.49 11.14 7.51"/><polygon class="cls-1" points="11.14 7.51 11.13 7.53 11.08 7.51 11.08 7.51 11.08 7.5 11.13 7.49 11.14 7.51 11.14 7.51"/><polygon class="cls-6" points="10.89 7.46 10.87 7.48 10.89 7.52 10.9 7.52 10.91 7.52 10.92 7.47 10.89 7.46"/><polygon class="cls-1" points="10.89 7.46 10.87 7.48 10.89 7.52 10.9 7.52 10.91 7.52 10.92 7.47 10.89 7.46 10.89 7.46"/><polygon class="cls-6" points="10.84 7.54 10.86 7.55 10.9 7.53 10.9 7.52 10.9 7.52 10.85 7.51 10.84 7.54"/><polygon class="cls-1" points="10.84 7.54 10.86 7.55 10.9 7.53 10.9 7.52 10.9 7.52 10.85 7.51 10.84 7.54 10.84 7.54"/><polygon class="cls-6" points="10.97 7.51 10.96 7.53 10.91 7.53 10.9 7.52 10.91 7.51 10.95 7.49 10.97 7.51"/><polygon class="cls-1" points="10.97 7.51 10.96 7.53 10.91 7.53 10.9 7.52 10.91 7.51 10.95 7.49 10.97 7.51 10.97 7.51"/><polygon class="cls-6" points="10.79 7.54 10.79 7.56 10.74 7.57 10.73 7.57 10.74 7.56 10.77 7.53 10.79 7.54"/><polygon class="cls-1" points="10.79 7.54 10.79 7.56 10.74 7.57 10.73 7.57 10.74 7.56 10.77 7.53 10.79 7.54 10.79 7.54"/><path class="cls-6" d="M10.89,7.52h0a0,0,0,0,1,0,0s0,0,0,0Z"/><path class="cls-1" d="M10.89,7.52h0a0,0,0,0,1,0,0S10.89,7.53,10.89,7.52Z"/><polygon class="cls-6" points="11.27 7.46 11.29 7.48 11.26 7.52 11.26 7.52 11.25 7.52 11.24 7.47 11.27 7.46"/><polygon class="cls-1" points="11.27 7.46 11.29 7.48 11.26 7.52 11.26 7.52 11.25 7.52 11.24 7.47 11.27 7.46 11.27 7.46"/><polygon class="cls-6" points="11.32 7.54 11.3 7.55 11.26 7.53 11.26 7.52 11.26 7.52 11.31 7.51 11.32 7.54"/><polygon class="cls-1" points="11.32 7.54 11.3 7.55 11.26 7.53 11.26 7.52 11.26 7.52 11.31 7.51 11.32 7.54 11.32 7.54"/><polygon class="cls-6" points="11.19 7.51 11.2 7.53 11.25 7.53 11.26 7.52 11.25 7.51 11.21 7.49 11.19 7.51"/><polygon class="cls-1" points="11.19 7.51 11.2 7.53 11.25 7.53 11.26 7.52 11.25 7.51 11.21 7.49 11.19 7.51 11.19 7.51"/><polygon class="cls-6" points="11.36 7.54 11.36 7.56 11.41 7.57 11.42 7.57 11.41 7.56 11.38 7.53 11.36 7.54"/><polygon class="cls-1" points="11.36 7.54 11.36 7.56 11.41 7.57 11.42 7.57 11.41 7.56 11.38 7.53 11.36 7.54 11.36 7.54"/><path class="cls-6" d="M11.06,7.51l0,0,0,0h0Z"/><path class="cls-1" d="M11.06,7.51l0,0,0,0h0Z"/><path class="cls-6" d="M11.24,7.52h0a0,0,0,0,1,0,0,0,0,0,0,1,0,0Z"/><path class="cls-1" d="M11.24,7.52h0a0,0,0,0,1,0,0A0,0,0,0,1,11.24,7.52Z"/><path class="cls-6" d="M11.05,7.33a0,0,0,1,1,.06,0,0,0,0,0,1-.06,0Z"/><polygon class="cls-6" points="11.1 7.32 11.1 7.34 11.05 7.34 11.05 7.32 11.07 7.32 11.07 7.27 11.05 7.27 11.05 7.25 11.07 7.25 11.07 7.23 11.09 7.23 11.09 7.25 11.11 7.25 11.11 7.27 11.09 7.27 11.09 7.32 11.1 7.32 11.1 7.32"/><polygon class="cls-1" points="11.1 7.32 11.1 7.34 11.05 7.34 11.05 7.32 11.07 7.32 11.07 7.27 11.05 7.27 11.05 7.25 11.07 7.25 11.07 7.23 11.09 7.23 11.09 7.25 11.11 7.25 11.11 7.27 11.09 7.27 11.09 7.32 11.1 7.32 11.1 7.32"/><polygon class="cls-6" points="11.12 7.32 11.12 7.34 11.04 7.34 11.04 7.32 11.07 7.32 11.07 7.27 11.05 7.27 11.05 7.25 11.07 7.25 11.07 7.23 11.09 7.23 11.09 7.25 11.11 7.25 11.11 7.27 11.09 7.27 11.09 7.32 11.12 7.32"/><path d="M11.08,7.36s0,0,0,0,0,0,0,0l0,0s.06,0,.06,0l0,0s0,0,0,0,0,0,0,0Z"/><path class="cls-6" d="M10.73,7.57l0,0h0a0,0,0,0,1,0,0s0,0,0,0Z"/><path class="cls-1" d="M10.73,7.57l0,0h0a0,0,0,0,1,0,0s0,0,0,0Z"/><path class="cls-6" d="M10.73,7.56h0s0,0,0,0h0v0Z"/><path class="cls-1" d="M10.73,7.56h0s0,0,0,0h0Z"/><path class="cls-6" d="M11.42,7.57l0,0h0a0,0,0,0,0,0,0v0Z"/><path class="cls-1" d="M11.42,7.57l0,0h0a0,0,0,0,0,0,0v0Z"/><path class="cls-6" d="M11.42,7.56h0v0h0s0,0,0,0Z"/><path class="cls-1" d="M11.42,7.56h0v0h0S11.43,7.56,11.42,7.56Z"/><rect class="cls-6" x="10.7" y="7.76" width="0.76" height="0.2"/><path d="M11.47,8H10.7v-.2h.77V8Zm0-.2H10.7V8h.74V7.76Z"/><path class="cls-6" d="M11.38,8.09h-.6a0,0,0,0,0,0-.05s0,0,0,0h.6a.05.05,0,0,0,0,0,.05.05,0,0,0,0,.05Z"/><path d="M10.78,8.1h0s0,0,0,0l0,0h0s0,0,0,0,0,0,0,0h.55s0,0,0,0a.05.05,0,0,1,0,0l0,0s0,0,0,0h-.6Z"/><path class="cls-6" d="M10.8,8.09h.57l0,0a0,0,0,0,1,0,0H10.8s0,0,0,0l0,0Z"/><path d="M11.37,8.15H10.8a0,0,0,0,1-.05,0s0,0,.05,0h.57a0,0,0,0,1,0,0,0,0,0,0,1,0,0Zm-.57-.06v0h.57a0,0,0,0,0,0,0l-.59,0Z"/><path class="cls-6" d="M10.8,8h.57s0,0,0,0l0,0H10.8l0,0s0,0,0,0Z"/><path d="M11.37,8H10.8s-.05,0-.05,0,0,0,.05,0h.57s0,0,0,0,0,0,0,0ZM10.8,8l.57,0a0,0,0,0,0,0,0L10.8,8Z"/><path class="cls-9" d="M10.55,11.31a.25.25,0,0,0,.13,0,.5.5,0,0,1,.13,0,.49.49,0,0,1,.14,0,.25.25,0,0,0,.13,0,.32.32,0,0,0,.14,0,.35.35,0,0,1,.13,0,.28.28,0,0,1,.13,0,.25.25,0,0,0,.13,0v.08l-.13,0a.28.28,0,0,0-.13,0l-.13,0a.32.32,0,0,1-.14,0l-.13,0a.29.29,0,0,0-.14,0,.28.28,0,0,0-.13,0l-.13,0v-.08Z"/><path d="M11.62,11.4h0a.32.32,0,0,1-.14,0,.36.36,0,0,0-.25,0,.34.34,0,0,1-.28,0,.31.31,0,0,0-.25,0,.32.32,0,0,1-.14,0v-.09a.29.29,0,0,0,.14,0,.32.32,0,0,1,.27,0,.39.39,0,0,0,.26,0,.32.32,0,0,1,.27,0,.5.5,0,0,0,.13,0v.09Zm-.81-.14a.24.24,0,0,0-.12,0,.32.32,0,0,1-.14,0v.07a.27.27,0,0,0,.12,0,.32.32,0,0,1,.27,0,.3.3,0,0,0,.26,0,.32.32,0,0,1,.27,0,.25.25,0,0,0,.13,0v-.08a.22.22,0,0,1-.14,0,.28.28,0,0,0-.25,0,.34.34,0,0,1-.28,0,.25.25,0,0,0-.13,0Z"/><path class="cls-10" d="M10.55,11.39l.13,0a.28.28,0,0,1,.13,0,.29.29,0,0,1,.14,0l.13,0a.32.32,0,0,0,.14,0l.13,0a.28.28,0,0,1,.13,0l.13,0v.09a.25.25,0,0,1-.13,0,.28.28,0,0,0-.13,0,.23.23,0,0,0-.13,0,.58.58,0,0,1-.14,0,.25.25,0,0,1-.13,0,.29.29,0,0,0-.14,0,.28.28,0,0,0-.13,0,.25.25,0,0,1-.13,0v-.09Z"/><path d="M11.62,11.48h0a.32.32,0,0,1-.14,0,.36.36,0,0,0-.25,0,.34.34,0,0,1-.28,0,.36.36,0,0,0-.25,0,.32.32,0,0,1-.14,0v-.09a.29.29,0,0,0,.14,0,.32.32,0,0,1,.27,0,.3.3,0,0,0,.26,0,.32.32,0,0,1,.27,0,.28.28,0,0,0,.13,0v.09Zm-.81-.14a.24.24,0,0,0-.12,0,.32.32,0,0,1-.14,0v.08l.12,0a.32.32,0,0,1,.27,0,.3.3,0,0,0,.26,0,.32.32,0,0,1,.27,0,.25.25,0,0,0,.13,0v-.08a.22.22,0,0,1-.14,0,.36.36,0,0,0-.25,0,.34.34,0,0,1-.28,0,.25.25,0,0,0-.13,0Z"/><path class="cls-9" d="M10.55,11.48a.25.25,0,0,0,.13,0,.28.28,0,0,1,.13,0,.29.29,0,0,1,.14,0,.25.25,0,0,0,.13,0,.58.58,0,0,0,.14,0,.23.23,0,0,1,.13,0,.28.28,0,0,1,.13,0,.25.25,0,0,0,.13,0v.08a.25.25,0,0,1-.13,0,.28.28,0,0,0-.13,0,.23.23,0,0,0-.13,0,.32.32,0,0,1-.14,0,.25.25,0,0,1-.13,0,.29.29,0,0,0-.14,0,.28.28,0,0,0-.13,0,.25.25,0,0,1-.13,0v-.08Z"/><path d="M11.62,11.57h0a.58.58,0,0,1-.14,0,.31.31,0,0,0-.25,0,.34.34,0,0,1-.28,0,.28.28,0,0,0-.25,0,.32.32,0,0,1-.14,0v-.09l.14,0a.32.32,0,0,1,.27,0,.3.3,0,0,0,.26,0,.32.32,0,0,1,.27,0,.28.28,0,0,0,.13,0v.1Zm-.81-.14-.12,0a.32.32,0,0,1-.14,0v.08l.12,0a.42.42,0,0,1,.27,0,.3.3,0,0,0,.26,0,.42.42,0,0,1,.27,0,.25.25,0,0,0,.13,0v-.07a.32.32,0,0,1-.14,0,.36.36,0,0,0-.25,0,.34.34,0,0,1-.28,0l-.13,0Z"/><path class="cls-10" d="M10.55,11.64a.25.25,0,0,0,.13,0,.28.28,0,0,1,.13,0,.29.29,0,0,1,.14,0,.25.25,0,0,0,.13,0,.32.32,0,0,0,.14,0,.25.25,0,0,1,.13,0,.28.28,0,0,1,.13,0,.25.25,0,0,0,.13,0v-.08a.25.25,0,0,1-.13,0,.28.28,0,0,0-.13,0,.25.25,0,0,0-.13,0,.32.32,0,0,1-.14,0,.25.25,0,0,1-.13,0,.29.29,0,0,0-.14,0,.28.28,0,0,0-.13,0,.25.25,0,0,1-.13,0v.08Z"/><path d="M11.62,11.65h0a.32.32,0,0,1-.14,0,.28.28,0,0,0-.25,0,.34.34,0,0,1-.28,0,.28.28,0,0,0-.25,0,.32.32,0,0,1-.14,0v-.09l.14,0a.42.42,0,0,1,.27,0,.3.3,0,0,0,.26,0,.42.42,0,0,1,.27,0,.28.28,0,0,0,.13,0v.1Zm-.81-.14a.24.24,0,0,0-.12,0,.32.32,0,0,1-.14,0v.07l.12,0a.32.32,0,0,1,.27,0,.34.34,0,0,0,.26,0,.36.36,0,0,1,.27,0l.13,0v-.08a.22.22,0,0,1-.14,0,.31.31,0,0,0-.25,0,.34.34,0,0,1-.28,0,.25.25,0,0,0-.13,0Z"/><path class="cls-9" d="M10.55,11.72a.25.25,0,0,0,.13,0l.13,0,.14,0a.25.25,0,0,0,.13,0,.32.32,0,0,0,.14,0l.13,0,.13,0a.25.25,0,0,0,.13,0v-.08a.25.25,0,0,1-.13,0,.28.28,0,0,0-.13,0,.25.25,0,0,0-.13,0,.32.32,0,0,1-.14,0,.25.25,0,0,1-.13,0,.29.29,0,0,0-.14,0,.28.28,0,0,0-.13,0,.25.25,0,0,1-.13,0v.08Z"/><path d="M11.62,11.73h0a.32.32,0,0,1-.14,0,.36.36,0,0,0-.25,0,.34.34,0,0,1-.28,0,.31.31,0,0,0-.25,0,.32.32,0,0,1-.14,0v-.09a.49.49,0,0,0,.14,0,.32.32,0,0,1,.27,0,.34.34,0,0,0,.26,0,.36.36,0,0,1,.27,0,.5.5,0,0,0,.13,0v.09Zm-.81-.14a.24.24,0,0,0-.12,0,.32.32,0,0,1-.14,0v.07a.27.27,0,0,0,.12,0,.32.32,0,0,1,.27,0,.3.3,0,0,0,.26,0,.32.32,0,0,1,.27,0,.25.25,0,0,0,.13,0v-.08a.22.22,0,0,1-.14,0,.28.28,0,0,0-.25,0,.34.34,0,0,1-.28,0,.25.25,0,0,0-.13,0Z"/><path class="cls-6" d="M11.38,11v0a.09.09,0,0,0,.09.09h-.78a.09.09,0,0,0,.09-.09v0h.6Z"/><path d="M11.47,11.09h-.78a.11.11,0,0,0,.09-.09h0a.1.1,0,0,1-.1.09h.73a.1.1,0,0,1-.05-.08H11l.4,0c0,.07.05.11.1.11h0Z"/><path class="cls-6" d="M10.8,10.92h.57a0,0,0,0,1,0,.06H10.8a0,0,0,1,1,0-.06Z"/><path d="M11.37,11H10.8s-.05,0-.05,0,0,0,.05,0h.57s0,0,0,0,0,0,0,0Zm-.57-.05v0h.57a0,0,0,0,0,0,0l-.59,0Z"/><rect class="cls-6" x="10.69" y="11.09" width="0.78" height="0.2"/><path d="M11.48,11.29h-.79v-.2h.79v.21Zm0-.2h-.77v.2h.76v-.19Z"/><path class="cls-5" d="M11.53,10.22c.08,0,.13.09.12.11s0,0-.06.06-.09.11-.06.14a.19.19,0,0,1-.08-.15.18.18,0,0,1,.08-.16Z"/><path d="M11.52,10.54a.2.2,0,0,1-.07-.16.21.21,0,0,1,.08-.17c.05,0,.14.09.13.12s0,0-.06.06a.24.24,0,0,0-.08.1v0h0Zm0-.32a.21.21,0,0,0,0,.29v0a.23.23,0,0,1,.07-.1s.06,0,.07-.06,0-.06-.12-.11Z"/><rect class="cls-10" x="10.8" y="8.17" width="0.55" height="2.72"/><path d="M11.28,10.88l0-2.71h0v2.71Zm-.07,0V8.17h0v2.71Z"/><path d="M11.37,10.9H10.8V8.17h.56V10.9Zm0-2.73H10.8v2.71h.54V8.17Z"/><path class="cls-5" d="M10.24,9.19a1.76,1.76,0,0,1,.56-.1l.27,0c.33.05.58.19.56.29h0l.12-.29c0-.12-.25-.26-.62-.33a1.94,1.94,0,0,0-.33,0,2,2,0,0,0-.56.07v.34Z"/><path d="M11.63,9.43h0a.07.07,0,0,0,0-.06,1.05,1.05,0,0,0-.55-.23l-.26,0a1.56,1.56,0,0,0-.56.1V8.85a1.84,1.84,0,0,1,.58-.08,1.66,1.66,0,0,1,.32,0,1,1,0,0,1,.61.26.07.07,0,0,1,0,.07,3,3,0,0,1-.13.3Zm-.83-.34.27,0a1.05,1.05,0,0,1,.55.23l0,.05c0-.11.11-.25.11-.26a.11.11,0,0,0,0-.07,1.06,1.06,0,0,0-.6-.25,1.88,1.88,0,0,0-.89,0v.33a1.56,1.56,0,0,1,.56-.1Z"/><path class="cls-5" d="M11.36,9.53c.15,0,.26,0,.27-.12s0-.1-.13-.16h-.14v.27Z"/><path d="M11.35,9.54V9.26h.12c.13.05.18.11.17.17s-.12.11-.28.12Zm.14-.28h-.13v.25c.15,0,.24,0,.25-.11s0-.1-.13-.15Z"/><path class="cls-5" d="M10.8,9.32a.5.5,0,0,0-.2.07h0s.07.11.21.19V9.32Z"/><path d="M10.81,9.6h0c-.09-.06-.24-.15-.21-.21a.37.37,0,0,1,.21-.07V9.6Zm0-.28a.55.55,0,0,0-.2.08s0,.08.2.18V9.32Z"/><path class="cls-5" d="M11.7,10.05s-.13-.13-.34-.2l-.28-.12c-.29-.13-.51-.28-.48-.33h0a1.45,1.45,0,0,0,0,.28c0,.05.17.2.44.33l.36.14c.15,0,.31.15.29.19l0-.28Z"/><path d="M11.65,10.33h0s-.14-.13-.29-.19L11,10a1.22,1.22,0,0,1-.45-.31,2.4,2.4,0,0,1,0-.31,1.11,1.11,0,0,0,.49.33l.28.12c.19.07.37.16.35.22l-.05.27Zm-1.06-.91a2.14,2.14,0,0,1,0,.25c0,.08.21.21.44.32a2.67,2.67,0,0,0,.36.14.69.69,0,0,1,.29.17l0-.25s-.11-.11-.35-.2l-.26-.11a1.25,1.25,0,0,1-.5-.32Z"/><path class="cls-6" d="M10.58,9.07a2.25,2.25,0,0,1,.08-.24h0a1.09,1.09,0,0,1,0,.17,1.19,1.19,0,0,1-.09-.15h-.07l.14.21h0Z"/><path class="cls-6" d="M10.79,8.84h-.06v.21h.15V9h-.09V8.84Z"/><path class="cls-6" d="M11,8.87h.08l-.21,0h0v0H11v.2H11v-.2Z"/><path class="cls-6" d="M11.12,9.09h.06l0-.1h0V9l0,.08h.07v0L11.26,9s.07,0,.08,0,0,0,0-.05l-.07,0-.08,0-.05.22Zm.11-.19s0,0,0,0V9s0,0-.07,0l0-.09Z"/><path class="cls-6" d="M11.51,9.15a.22.22,0,0,1,0,.08h0l0,0,0-.25h0l-.22.14h0l.06,0,.08,0Zm-.06-.05.07,0v.08l-.07,0Z"/><path d="M7.75,6.94a.07.07,0,0,1-.07-.07c0-.08.15-.08.15,0a.08.08,0,0,1-.08.07Zm0-.14a.07.07,0,0,0-.07.07c0,.07.14.07.14,0a.07.07,0,0,0-.07-.07Z"/><path class="cls-5" d="M8.51,6.26a1.42,1.42,0,0,1,.56.09,1.12,1.12,0,0,0,.29.07h.23a1.18,1.18,0,0,1,.37.08.9.9,0,0,1,.26.17l-.05.05,0,.14L10,7l-.08.07-.17.13H9.67l0,.08L8.52,7.19l-1.13.13,0-.08H7.28L7.1,7.1,7,7l-.15-.16V6.73l-.06-.05a1.14,1.14,0,0,1,.27-.17,1.13,1.13,0,0,1,.36-.08h.24A1,1,0,0,0,8,6.35a1.4,1.4,0,0,1,.55-.09Z"/><path d="M9.65,7.32h0L8.52,7.19l-1.13.13,0-.08H7.28L7,7l-.15-.17,0-.14-.05,0a.91.91,0,0,1,.27-.18,1,1,0,0,1,.36-.09h.24A.93.93,0,0,0,8,6.34a2,2,0,0,1,1.11,0,1.11,1.11,0,0,0,.29.08h.23a1.05,1.05,0,0,1,.37.09,1.06,1.06,0,0,1,.26.17l-.05.05v.14l-.22.23-.18.14H9.67l0,.07ZM7.44,6.43a1,1,0,0,0-.36.09.84.84,0,0,0-.26.17l0,0,0,.14.22.22.17.14h.09l0,.08,1.12-.14,1.12.13,0-.07h.09L10,7l.15-.17V6.73l.06-.05A1.13,1.13,0,0,0,10,6.52a1,1,0,0,0-.35-.09,1,1,0,0,1-.24,0,1.3,1.3,0,0,1-.29-.08A1.91,1.91,0,0,0,8,6.35a1.36,1.36,0,0,1-.28.08,1,1,0,0,1-.24,0Z"/><path class="cls-6" d="M8.53,7.75a3.83,3.83,0,0,1-1.06-.14s0,0,0,0,0,0,0,0A3.87,3.87,0,0,1,8.53,7.4a3.87,3.87,0,0,1,1.06.13s0,0,0,0,0,0,0,0a3.83,3.83,0,0,1-1.06.14Z"/><path d="M8.53,7.75h0a3.57,3.57,0,0,1-1.06-.13s0,0,0,0a0,0,0,0,1,0,0,4.08,4.08,0,0,1,2.12,0,0,0,0,0,1,0,0s0,0,0,0a3.61,3.61,0,0,1-1.06.13Zm0-.34a4,4,0,0,0-1.06.13s0,0,0,0,0,0,0,0a4,4,0,0,0,1.06.13,4,4,0,0,0,1.06-.13s0,0,0,0,0,0,0,0a4,4,0,0,0-1.06-.13Z"/><path class="cls-5" d="M8.53,7.69a3.9,3.9,0,0,1-1-.11,3.9,3.9,0,0,1,1-.11,3.9,3.9,0,0,1,1,.11,3.9,3.9,0,0,1-1,.11Z"/><path class="cls-1" d="M8.56,7.69v0Z"/><path class="cls-1" d="M8.5,7.69v0Z"/><path class="cls-1" d="M8.44,7.69v0Z"/><path class="cls-1" d="M8.38,7.69v0Z"/><path class="cls-1" d="M8.33,7.69v0Z"/><polygon points="8.23 7.68 8.23 7.48 8.24 7.68 8.23 7.68 8.23 7.68"/><polygon points="8.18 7.68 8.18 7.48 8.2 7.68 8.18 7.68 8.18 7.68"/><path class="cls-1" d="M8,7.66v0Zm0,0v0Zm0,0v0Z"/><path class="cls-1" d="M8,7.66v0Z"/><path class="cls-1" d="M7.94,7.65v0Z"/><path class="cls-1" d="M7.9,7.65v0Z"/><path class="cls-1" d="M7.81,7.63v0Zm.05,0v0Z"/><path class="cls-1" d="M7.77,7.63v0Z"/><path class="cls-1" d="M7.73,7.62v0Z"/><path class="cls-1" d="M7.69,7.61v0Z"/><path class="cls-1" d="M7.64,7.6v0Z"/><path class="cls-1" d="M7.59,7.59v0Z"/><path class="cls-1" d="M8.8,7.68v0Zm-.1,0v0Zm-.08,0v0Z"/><path class="cls-6" d="M8.53,7.4a3.8,3.8,0,0,0-1.07.14s0,0,0-.11-.09-.08-.09-.08A4.21,4.21,0,0,1,8.53,7.2a4.21,4.21,0,0,1,1.17.15s0,0-.09.08,0,.1,0,.11A4,4,0,0,0,8.53,7.4Z"/><path d="M9.6,7.54a4.06,4.06,0,0,0-1.07-.13,4.06,4.06,0,0,0-1.07.13s0,0,0-.11-.07-.08-.08-.08h0A3.87,3.87,0,0,1,8.53,7.2a4.41,4.41,0,0,1,1.17.14.14.14,0,0,0-.08.09c0,.08,0,.09,0,.1ZM7.38,7.35s0,0,.07.08,0,.1,0,.11a3.58,3.58,0,0,1,1.07-.15,4.42,4.42,0,0,1,1.05.13.23.23,0,0,1,0-.09c0-.09.08-.09.09-.09a4.91,4.91,0,0,0-1.17-.13,4.25,4.25,0,0,0-1.15.14Z"/><path class="cls-6" d="M8.53,7.2a4.21,4.21,0,0,0-1.17.15l-.05,0a.05.05,0,0,1,0,0,4.32,4.32,0,0,1,1.19-.15,4.32,4.32,0,0,1,1.19.15,0,0,0,0,1,0,0l0,0A4.21,4.21,0,0,0,8.53,7.2Z"/><path d="M9.71,7.35h0a4.28,4.28,0,0,0-1.16-.14,4.36,4.36,0,0,0-1.17.14s-.05,0-.05,0l0,0h0a4.43,4.43,0,0,1,1.19-.15,4.48,4.48,0,0,1,1.19.15l0,.06,0,0ZM8.53,7.14a4.06,4.06,0,0,0-1.19.15l0,0,0,0h0A4.36,4.36,0,0,1,8.53,7.2a4.41,4.41,0,0,1,1.17.14h0l0,0,0,0a4.1,4.1,0,0,0-1.19-.15Z"/><path d="M8.53,7.7h0a4.07,4.07,0,0,1-1-.11,3.23,3.23,0,0,1,1-.13,4.07,4.07,0,0,1,1,.11,3.28,3.28,0,0,1-1,.13Zm0-.22a4.07,4.07,0,0,0-1,.11,5.65,5.65,0,0,0,1,.09,4.2,4.2,0,0,0,1-.11,5.55,5.55,0,0,0-1-.09Z"/><path class="cls-7" d="M8.2,7.31a0,0,0,1,1,.08,0s0,0,0,0,0,0,0,0Z"/><path class="cls-1" d="M8.2,7.31a0,0,0,1,1,.08,0s0,0,0,0,0,0,0,0Z"/><path class="cls-5" d="M8.53,7.33H8.42s0,0,0,0a0,0,0,0,1,0,0h.22a0,0,0,0,1,0,0s0,0,0,0Z"/><path d="M8.64,7.34H8.42a0,0,0,1,1,0-.08h.22a0,0,0,1,1,0,.08Zm-.22-.07a0,0,0,0,0,0,.06h.22a0,0,0,1,0,0-.06Z"/><path class="cls-8" d="M8,7.37H7.88s0,0,0,0,0,0,0,0H8s0,0,0,0,0,0,0,0Z"/><path d="M7.88,7.38s0,0,0,0l0,0h0l.17,0s0,0,.05,0l0,0h0l-.17,0Zm0,0a0,0,0,0,0,0,0h0l.17,0,0,0h0a0,0,0,0,0,0,0l-.16,0,0,0Z"/><path class="cls-7" d="M7.64,7.37a0,0,0,0,1,0,0s0,0,0,0a0,0,0,0,1,0,0s0,0,0,0Z"/><path class="cls-1" d="M7.64,7.37a0,0,0,0,1,0,0s0,0,0,0a0,0,0,0,1,0,0s0,0,0,0Z"/><polygon class="cls-5" points="7.39 7.44 7.43 7.38 7.54 7.4 7.45 7.46 7.39 7.44"/><polygon points="7.45 7.47 7.39 7.44 7.42 7.38 7.55 7.39 7.45 7.47 7.45 7.47"/><path class="cls-8" d="M9.09,7.37h.08a.07.07,0,0,0,.05,0,0,0,0,0,0,0,0H9s0,0,0,0,0,0,0,0Z"/><path d="M9.18,7.38,9,7.36l0,0a0,0,0,0,1,0,0l.17,0,0,0s0,0,0,0ZM9,7.29s0,0,0,0l0,0,.17,0a0,0,0,0,0,0,0l0,0L9,7.29Z"/><path class="cls-7" d="M8.78,7.31a0,0,0,1,1,.08,0s0,0,0,0,0,0,0,0Z"/><path class="cls-1" d="M8.78,7.31a0,0,0,1,1,.08,0s0,0,0,0,0,0,0,0Z"/><path class="cls-7" d="M9.35,7.37a0,0,0,0,1,0,0s0,0,0,0a0,0,0,0,1,0,0s0,0,0,0Z"/><path class="cls-1" d="M9.35,7.37a0,0,0,0,1,0,0s0,0,0,0a0,0,0,0,1,0,0s0,0,0,0Z"/><polygon class="cls-5" points="9.67 7.44 9.63 7.38 9.51 7.4 9.61 7.46 9.67 7.44"/><polygon points="9.6 7.47 9.51 7.4 9.63 7.38 9.68 7.43 9.6 7.47 9.6 7.47"/><path d="M7.51,7.6v0a4.35,4.35,0,0,1,1-.12,4.42,4.42,0,0,1,1,.12,5.13,5.13,0,0,0-1-.1,3.76,3.76,0,0,0-1,.12Z"/><path class="cls-6" d="M7.68,6.56l.05,0,.07-.12a.26.26,0,0,1-.13-.22v0c0-.15.19-.27.42-.27a.53.53,0,0,1,.3.08A.13.13,0,0,1,8.4,6a.62.62,0,0,0-.31-.08c-.26,0-.47.15-.48.33v0a.32.32,0,0,0,.11.24l0,.06Z"/><path d="M7.73,6.61l-.05-.05,0-.07a.28.28,0,0,1-.11-.23.44.44,0,0,1,.49-.37A.65.65,0,0,1,8.4,6V6A.65.65,0,0,0,8.09,6c-.22,0-.4.12-.41.27a.24.24,0,0,0,.12.24l-.07.14Zm.36-.7c-.25,0-.46.14-.47.32a.31.31,0,0,0,.1.26l0,.07,0,0,.06-.11a.25.25,0,0,1-.13-.22c0-.19.2-.31.43-.31a.49.49,0,0,1,.3.09V6a.58.58,0,0,0-.3-.07Z"/><path class="cls-6" d="M7.69,6.56a.34.34,0,0,1-.15-.26A.37.37,0,0,1,7.73,6a.35.35,0,0,0-.12.22v0a.32.32,0,0,0,.11.24l0,.06Z"/><path d="M7.69,6.57h0a.38.38,0,0,1-.15-.27A.34.34,0,0,1,7.73,6a.31.31,0,0,0-.11.22.35.35,0,0,0,.1.26l0,.08Zm0-.56a.35.35,0,0,0-.18.29.31.31,0,0,0,.13.25l0-.06a.28.28,0,0,1-.11-.23A.31.31,0,0,1,7.73,6Z"/><path class="cls-6" d="M6.89,6.68a.32.32,0,0,1-.08-.21.32.32,0,0,1,0-.14.63.63,0,0,1,.57-.25.68.68,0,0,1,.21,0l0,.05-.18,0a.57.57,0,0,0-.51.23.2.2,0,0,0,0,.11.26.26,0,0,0,.1.2l-.09.14,0,0,.06-.1Z"/><path d="M6.88,6.82l0,0,.06-.11a.25.25,0,0,1-.09-.2.33.33,0,0,1,0-.14.61.61,0,0,1,.57-.26l.22,0a.33.33,0,0,1,0,.06H7.41a.58.58,0,0,0-.51.22.36.36,0,0,0,0,.11A.25.25,0,0,0,7,6.66l-.09.16Zm.53-.74a.62.62,0,0,0-.56.26.28.28,0,0,0,0,.13.3.3,0,0,0,.08.2l-.06.11,0,0L7,6.66a.22.22,0,0,1-.09-.19.36.36,0,0,1,0-.11.58.58,0,0,1,.52-.24l.18,0s0,0,0,0Z"/><path class="cls-6" d="M7,6.19a.47.47,0,0,0-.14.14.35.35,0,0,0,0,.14.32.32,0,0,0,.08.21l0,.09a.4.4,0,0,1-.08-.23A.41.41,0,0,1,7,6.19Z"/><path d="M6.84,6.78h0a.4.4,0,0,1-.08-.23A.42.42,0,0,1,7,6.18a.48.48,0,0,0-.13.16.28.28,0,0,0,0,.13.3.3,0,0,0,.08.2l-.06.11Zm0-.49a.39.39,0,0,0-.1.25.34.34,0,0,0,.08.21l0-.08a.25.25,0,0,1-.09-.2.33.33,0,0,1,0-.14.08.08,0,0,1,0,0Z"/><path class="cls-6" d="M8.53,5.87A.12.12,0,0,1,8.65,6a.81.81,0,0,1,0,.16v0a.75.75,0,0,0,0,.29l-.18.18-.19-.18a1,1,0,0,0,0-.29v0s0,0,0,0A.81.81,0,0,1,8.4,6a.12.12,0,0,1,.13-.09Z"/><path d="M8.53,6.64l-.19-.18a1.28,1.28,0,0,0,0-.3v0h0a.81.81,0,0,1,0-.16.15.15,0,0,1,.27,0s0,.1,0,.16v0a1.12,1.12,0,0,0,0,.29l-.18.19Zm0-.76A.12.12,0,0,0,8.41,6a.68.68,0,0,0,0,.15v0a1.06,1.06,0,0,1,0,.29l.18.17.17-.17a1,1,0,0,1,0-.29v0h0a.88.88,0,0,0,0-.16.11.11,0,0,0-.11-.08Z"/><path class="cls-6" d="M8.53,5.93A.06.06,0,0,1,8.59,6a.61.61,0,0,1,0,.14v0a.88.88,0,0,0,.05.28l-.13.11L8.4,6.44a.69.69,0,0,0,0-.28v0a.61.61,0,0,1,0-.14.07.07,0,0,1,.07-.05Z"/><path d="M8.52,6.56,8.4,6.44a1,1,0,0,0,0-.28v0h0s0-.1,0-.15A.08.08,0,0,1,8.6,6s0,.1,0,.15v0a.91.91,0,0,0,0,.27l-.13.13Zm0-.63A.06.06,0,0,0,8.47,6a.59.59,0,0,0,0,.14v0a1,1,0,0,1,0,.28l.11.1.12-.11a.67.67,0,0,1,0-.27v0h0s0-.1,0-.14a.05.05,0,0,0-.05-.05Z"/><path class="cls-6" d="M9.37,6.56l0,0-.07-.12a.26.26,0,0,0,.13-.22v0C9.37,6.08,9.19,6,9,6a.53.53,0,0,0-.3.08s0,0,0-.06A.59.59,0,0,1,9,5.9c.26,0,.47.15.48.33v0a.32.32,0,0,1-.11.24l0,.06Z"/><path d="M9.32,6.61l-.08-.13a.26.26,0,0,0,.13-.22c0-.18-.19-.3-.41-.3a.51.51,0,0,0-.3.09.64.64,0,0,0,0-.07A.62.62,0,0,1,9,5.89c.26,0,.48.15.49.34a.32.32,0,0,1-.12.27l0,.06,0,.05ZM9,6c.23,0,.42.12.42.28a.26.26,0,0,1-.13.26l.07.1,0,0,0,0a.34.34,0,0,0,.11-.24A.42.42,0,0,0,9,5.91.64.64,0,0,0,8.65,6l0,.06A.42.42,0,0,1,9,6Z"/><path class="cls-6" d="M9.36,6.56a.34.34,0,0,0,.15-.26A.37.37,0,0,0,9.32,6a.35.35,0,0,1,.12.22v0a.32.32,0,0,1-.11.24l0,.06Z"/><path d="M9.36,6.57l0-.07a.34.34,0,0,0,.11-.24A.29.29,0,0,0,9.32,6a.32.32,0,0,1,.2.28.38.38,0,0,1-.15.27Zm0-.55a.28.28,0,0,1,.13.21.32.32,0,0,1-.12.27l0,0A.34.34,0,0,0,9.5,6.3.34.34,0,0,0,9.32,6Z"/><path class="cls-6" d="M10.16,6.68a.32.32,0,0,0,.08-.21.32.32,0,0,0,0-.14.64.64,0,0,0-.58-.25.75.75,0,0,0-.21,0,.1.1,0,0,1,0,.05l.17,0a.57.57,0,0,1,.52.23.2.2,0,0,1,0,.11.26.26,0,0,1-.1.2l.09.14.05,0-.06-.1Z"/><path d="M10.17,6.82l-.1-.15a.3.3,0,0,0,.1-.2.2.2,0,0,0,0-.11.56.56,0,0,0-.51-.22.52.52,0,0,0-.17,0l0-.06.21,0a.62.62,0,0,1,.58.26.33.33,0,0,1,0,.14.29.29,0,0,1-.09.21l.06.09-.05.05Zm-.54-.7a.59.59,0,0,1,.53.24.36.36,0,0,1,0,.11.23.23,0,0,1-.1.2l.09.13,0,0-.06-.09a.34.34,0,0,0,.08-.21.28.28,0,0,0,0-.13.64.64,0,0,0-.57-.26l-.2,0,0,0,.16,0Z"/><path class="cls-6" d="M10.06,6.19a.41.41,0,0,1,.15.14.35.35,0,0,1,0,.14.32.32,0,0,1-.08.21l.05.09a.4.4,0,0,0,.08-.23.4.4,0,0,0-.23-.35Z"/><path d="M10.21,6.78l-.06-.1a.34.34,0,0,0,.08-.21.28.28,0,0,0,0-.13.33.33,0,0,0-.14-.15h0l.09.06a.35.35,0,0,1,.15.29.4.4,0,0,1-.08.23Zm0-.47v0a.37.37,0,0,1,0,.14.29.29,0,0,1-.09.21l.05.07a.34.34,0,0,0,.08-.21.35.35,0,0,0-.09-.23Z"/><path class="cls-7" d="M8.46,6.47a.07.07,0,0,1,.07-.06.06.06,0,0,1,.06.06.07.07,0,0,1-.06.07.07.07,0,0,1-.07-.07Z"/><path d="M8.53,6.54a.08.08,0,0,1-.08-.07c0-.07.15-.07.15,0a.07.07,0,0,1-.07.07Zm0-.12s-.06,0-.06,0a.06.06,0,0,0,.11,0,0,0,0,0,0-.05,0Z"/><path class="cls-7" d="M8.46,6.35a.07.07,0,0,1,.07-.06.06.06,0,0,1,.06.06.07.07,0,0,1-.06.07.07.07,0,0,1-.07-.07Z"/><path d="M8.53,6.42a.08.08,0,0,1-.08-.07c0-.07.15-.07.15,0a.08.08,0,0,1-.07.07Zm0-.12s-.06,0-.06,0,.11.06.11,0a0,0,0,0,0-.05,0Z"/><path class="cls-7" d="M8.47,6.22a.06.06,0,0,1,.11,0,.05.05,0,0,1-.05,0,.06.06,0,0,1-.06,0Z"/><path d="M8.53,6.28a.06.06,0,0,1-.06-.06c0-.06.11-.06.11,0a.06.06,0,0,1-.05.06Z"/><path class="cls-7" d="M8.49,6.11a0,0,0,0,1,0,0s0,0,0,0a0,0,0,0,1,0,0s0,0,0,0Z"/><path class="cls-1" d="M8.49,6.11a0,0,0,0,1,0,0s0,0,0,0a0,0,0,0,1,0,0s0,0,0,0Z"/><path class="cls-7" d="M8.5,6s0,0,0,0l0,0a0,0,0,0,1,0,0,0,0,0,0,1,0,0Z"/><path class="cls-1" d="M8.5,6s0,0,0,0l0,0a0,0,0,0,1,0,0,0,0,0,0,1,0,0Z"/><path class="cls-6" d="M8.53,6.84h0s0,0,0,.06a.17.17,0,0,0,.33,0s0-.06,0-.06V7a.16.16,0,0,0,.17.13.17.17,0,0,0,.17-.15v0l.05-.06,0,.07a.19.19,0,0,0,0,.07.16.16,0,0,0,.29.08l0,0v0c0,.06,0,.1.07.11a.19.19,0,0,0,.14-.06A.71.71,0,0,0,10,7v.06a.75.75,0,0,1-.14.15.24.24,0,0,1-.14,0,.13.13,0,0,1-.11-.09.21.21,0,0,1-.12,0,.22.22,0,0,1-.21-.13.25.25,0,0,1-.18.08.25.25,0,0,1-.19-.09.24.24,0,0,1-.17.06.25.25,0,0,1-.2-.1.25.25,0,0,1-.2.1.24.24,0,0,1-.17-.06A.25.25,0,0,1,8,7.16a.25.25,0,0,1-.18-.08.22.22,0,0,1-.21.13.21.21,0,0,1-.12,0,.13.13,0,0,1-.11.09.24.24,0,0,1-.14,0,.75.75,0,0,1-.14-.15V7a.71.71,0,0,0,.12.11.19.19,0,0,0,.14.06s.07,0,.07-.11V7l0,0a.14.14,0,0,0,.13.07A.16.16,0,0,0,7.74,7a.19.19,0,0,0,0-.07l0-.07,0,.06v0A.17.17,0,0,0,8,7.09.16.16,0,0,0,8.14,7s0-.06,0-.06l0,.06a.17.17,0,0,0,.33,0s0,0,0-.06Z"/><path d="M9.73,7.28h0a.14.14,0,0,1-.11-.1.24.24,0,0,1-.34-.1.26.26,0,0,1-.37,0,.26.26,0,0,1-.37,0,.25.25,0,0,1-.36,0,.27.27,0,0,1-.37,0,.25.25,0,0,1-.34.1.12.12,0,0,1-.1.09.29.29,0,0,1-.14,0,.42.42,0,0,1-.14-.14V7s.06,0,.14.11a.25.25,0,0,0,.13.06.1.1,0,0,0,.07-.11V7l0,0A.16.16,0,0,0,7.73,7a.15.15,0,0,0,0-.07l0-.07.06,0a.16.16,0,0,0,.32,0c0-.06,0-.07,0-.07h0s0,0,0,.05a.17.17,0,0,0,.32,0,.13.13,0,0,0,0-.06h.09v.06a.16.16,0,0,0,.16.15A.17.17,0,0,0,8.89,7s0-.06,0-.06,0,0,0,.05a.16.16,0,0,0,.16.15.16.16,0,0,0,.16-.15v0a.17.17,0,0,1-.34,0v0a.18.18,0,0,1-.35,0,.13.13,0,0,1,0-.06H8.49a.07.07,0,0,1,0,0,.18.18,0,0,1-.34,0v0A.18.18,0,0,1,8,7.1a.17.17,0,0,1-.17-.16l0-.07,0,.06a.14.14,0,0,1,0,.07.18.18,0,0,1-.31.09l0,0v0c0,.07,0,.11-.08.12a.19.19,0,0,1-.14-.06A.71.71,0,0,1,7.08,7v0a.46.46,0,0,0,.13.14.34.34,0,0,0,.12,0,.14.14,0,0,0,.12-.09.25.25,0,0,0,.34-.1.27.27,0,0,0,.37,0,.25.25,0,0,0,.36,0,.27.27,0,0,0,.37,0,.27.27,0,0,0,.37,0,.26.26,0,0,0,.34.09.17.17,0,0,0,.11.1h0a.34.34,0,0,0,.12,0A.46.46,0,0,0,10,7.09V7s0,.06-.11.11a.22.22,0,0,1-.14.06c-.05,0-.08,0-.08-.12V7l0,0a.17.17,0,0,1-.14.07A.17.17,0,0,1,9.31,7a.14.14,0,0,1,0-.07l0-.06,0,0,0-.06,0,.07a.15.15,0,0,0,0,.07.16.16,0,0,0,.28.08l0,0v0a.1.1,0,0,0,.07.11.25.25,0,0,0,.13-.06A.71.71,0,0,0,10,7l0,.06a.35.35,0,0,1-.14.15.28.28,0,0,1-.12,0Z"/><path class="cls-7" d="M9.68,7.05a0,0,0,0,0,0-.06s0,0-.05,0,0,.06,0,.06,0,0,0,0Z"/><path d="M9.64,7.1h0A.08.08,0,0,1,9.6,7s0,0,.05,0l0,0a.06.06,0,0,1,0,.06.07.07,0,0,1,0,0Z"/><path class="cls-7" d="M9,6.91a0,0,0,0,0,0-.06,0,0,0,0,0,0,.05s0,.06,0,.06a0,0,0,0,0,0,0Z"/><path d="M8.91,7h0s0,0,0-.07a0,0,0,0,1,.05-.05s0,0,0,.06A.06.06,0,0,1,8.91,7Z"/><path class="cls-7" d="M8.11,6.91a0,0,0,0,1,0-.06,0,0,0,0,1,0,.05s0,.06,0,.06a0,0,0,0,1,0,0Z"/><path d="M8.15,7a.06.06,0,0,1-.05-.06s0-.06,0-.06h0a0,0,0,0,1,0,.05s0,.06,0,.07Z"/><path class="cls-7" d="M7.38,7.05A0,0,0,0,1,7.4,7s0,0,0,0,0,.06,0,.06,0,0,0,0Z"/><path class="cls-1" d="M7.38,7.05A0,0,0,0,1,7.4,7s0,0,0,0,0,.06,0,.06,0,0,0,0Z"/><path class="cls-6" d="M7.69,6.57a.16.16,0,0,1,.08.1l0,0h0v0s0,.05,0,.08a.09.09,0,0,1,0,.06,0,0,0,0,0,0,0,.05.05,0,0,0,0,0l0,0,0-.07,0,0h.07a.17.17,0,0,1,0-.12Z"/><path d="M7.7,6.85h0l0,0,0,0,0-.06h.08a.15.15,0,0,1,0-.12.19.19,0,0,1,.09.11s0,0,0,0,0,0,0,.06a.15.15,0,0,1,0,.07l0,.06h0l0,0Zm-.09-.17h0l0,0,0,.07,0,0a.05.05,0,0,1,0,0h0l0,0a.07.07,0,0,1,0,0V6.64l0,0h0a.19.19,0,0,0-.08-.1.16.16,0,0,0,0,.12h0l-.06,0Z"/><path class="cls-6" d="M7.71,6.92l0,0s0,0,0,0l-.06,0H7.51v0l0,0a.21.21,0,0,0-.11.07.19.19,0,0,0,.13,0,.1.1,0,0,0,0,0V7h0l.08,0,0,0Z"/><path d="M7.54,7h0V7l-.11-.05a.15.15,0,0,1,.1-.09v0a.13.13,0,0,0-.1.06.19.19,0,0,0,.1,0h0V7l0,0a.13.13,0,0,0,.07,0l0,0s0,0,0,0,0,0,0,0l-.06,0h0a.14.14,0,0,1,.07,0,.09.09,0,0,0,0,0l0,0s0,0,0,0L7.59,7Z"/><path class="cls-6" d="M7.81,6.9s0,0,0,0a.05.05,0,0,0,0,0l0,0a.13.13,0,0,1,.08,0l0,0v0a0,0,0,0,1,0,0,.2.2,0,0,1,.13,0A.21.21,0,0,1,8,6.89l0,0v0H7.87l-.06,0Z"/><path d="M8,6.94H7.87l-.07,0a.13.13,0,0,0,0,0s0,0,0,0,0,0,0-.06l.07,0,0,0v0h0l-.07,0,0,0s0,0,0,0a.06.06,0,0,1,0,0l.06,0H8Zm0,0,0,0a.14.14,0,0,0,.1-.07l-.1,0H8a.21.21,0,0,1,.12,0A.15.15,0,0,1,8,6.89l0,0Z"/><path class="cls-5" d="M7.68,6.87a.07.07,0,0,1,.07-.07.07.07,0,1,1,0,.14.07.07,0,0,1-.07-.07Z"/><path d="M7.75,6.94a.08.08,0,0,1-.08-.07c0-.09.16-.09.16,0a.07.07,0,0,1-.08.07Zm0-.14a.07.07,0,0,0-.07.07c0,.07.14.07.14,0a.07.07,0,0,0-.07-.07Z"/><path class="cls-6" d="M8.53,6.45a.25.25,0,0,1,.06.13h.08a.17.17,0,0,1,0,.05s0,0,0,.09a.3.3,0,0,1,0,.06.09.09,0,0,0-.06,0l-.06,0a.57.57,0,0,1-.06-.15.17.17,0,0,1,0-.05h.07a.28.28,0,0,1,.07-.13Z"/><path d="M8.59,6.77h0a.07.07,0,0,0-.1,0s0,0-.05-.06a.21.21,0,0,1,0-.06l0-.08h0v.05s0,.06,0,.08l0,.06s.07,0,.1,0a.15.15,0,0,0,0-.06.14.14,0,0,1,0-.06.41.41,0,0,0,0-.07h0a.26.26,0,0,0,0,.05.92.92,0,0,0,0,.09l0,.06Zm0-.18h0a.21.21,0,0,0-.07-.12.26.26,0,0,0,0,.12l-.07,0h0l0,0a.17.17,0,0,1,0-.13.18.18,0,0,1,.08.12h.05l0,0Z"/><path class="cls-6" d="M8.47,6.85a.13.13,0,0,1,0-.1l-.06,0-.09,0h0v0l0,0a.2.2,0,0,0-.13.06.2.2,0,0,0,.13.06l0,0v0h0s.06,0,.09,0l.06,0Z"/><path d="M8.27,6.92v0l-.12-.08a.2.2,0,0,1,.13-.08v0a.16.16,0,0,0-.13.06.25.25,0,0,0,.13,0h0l0,0h0l.08,0,.07,0s0,0,0,0a.06.06,0,0,1,0,0h0l-.07,0-.08,0,0,0h0l.09,0,.07,0,0,0a.05.05,0,0,0,0,0s0,0-.07,0l-.08,0Z"/><path class="cls-6" d="M8.58,6.85a.07.07,0,0,0,0-.1l.07,0,.09,0h0v0a0,0,0,0,1,0,0,.2.2,0,0,1,.13.06.2.2,0,0,1-.13.06,0,0,0,0,1,0,0v0h0a.47.47,0,0,1-.09,0l-.07,0Z"/><path d="M8.78,6.92h0l-.09,0a.17.17,0,0,1-.07,0s0,0,0,0l0,0,.07,0,.08,0h0v.06a.19.19,0,0,1,.13.06.27.27,0,0,1-.14.07v0a.21.21,0,0,0,.13,0,.21.21,0,0,0-.13,0h0l0,0h0l-.09,0-.06,0s0,0,0,0,0,0,0,0h0l.06,0,.08,0,0,0Z"/><path class="cls-6" d="M9.37,6.57a.16.16,0,0,0-.08.1l0,0h0v0s0,.05,0,.08a.09.09,0,0,0,0,.06,0,0,0,0,1,.05,0,.05.05,0,0,1,0,0l0,0,0-.07,0,0H9.4a.17.17,0,0,0,0-.12Z"/><path d="M9.37,6.85h0l0,0-.05,0a.15.15,0,0,1,0-.07s0,0,0,0V6.64h0l0,0a.15.15,0,0,1,.07-.11.18.18,0,0,1,.05.13h0a.26.26,0,0,0-.05-.12.23.23,0,0,0-.07.1h0l0,0s0,0,0,0a.28.28,0,0,1,0,.08l0,.06s0,0,0,0a.06.06,0,0,1,.06,0l0,0,0,0,0,0v0l0,.07,0,0Z"/><path class="cls-6" d="M9.35,6.92l0,0s0,0,0,0l.06,0h.12v0l0,0a.21.21,0,0,1,.11.07A.19.19,0,0,1,9.5,7a.1.1,0,0,1,0,0V7h0L9.4,7l-.05,0Z"/><path d="M9.51,7h0L9.4,7l-.05,0a.05.05,0,0,1,0,0s0,0,0,0,0,0,.07,0h.12l0,0a.19.19,0,0,1,.1.08.15.15,0,0,1-.11,0V7h0Zm-.15-.09.05,0a.13.13,0,0,0,.07,0l0,0V7a.21.21,0,0,0,.12,0,.13.13,0,0,0-.1-.06h0l0,0h-.1l-.06,0s0,0,0,0l0,0Z"/><path class="cls-6" d="M9.25,6.9s0,0,0,0a.05.05,0,0,1,0,0l0,0a.13.13,0,0,0-.08,0l0,0v0a0,0,0,0,0,0,0,.2.2,0,0,0-.13,0,.21.21,0,0,0,.11.07l0,0v0h.12l.06,0Z"/><path d="M9.06,6.94v0L9,6.82a.16.16,0,0,1,.11-.05v0a.21.21,0,0,0-.12,0,.17.17,0,0,0,.1.06h0l0,0h.11l.06,0s0,0,0,0a.05.05,0,0,1,0,0l0,0-.07,0h0v0l0,0,.07,0s0,0,0,.05a.06.06,0,0,0,0,.08l-.07,0H9.06Z"/><path class="cls-5" d="M9.23,6.87a.08.08,0,0,1,.08-.07.07.07,0,0,1,0,.14.08.08,0,0,1-.08-.07Z"/><path d="M9.31,6.94a.07.07,0,0,1-.08-.07c0-.09.16-.09.16,0a.08.08,0,0,1-.08.07Zm0-.14a.07.07,0,0,0-.07.07c0,.07.14.07.14,0a.07.07,0,0,0-.07-.07Z"/><path class="cls-5" d="M10.06,7S10,7,10,7a.07.07,0,0,0,0,.08.08.08,0,0,0,.08,0s0-.06,0-.08Z"/><path d="M10,7.12h0C10,7.06,10,7,10,7a.05.05,0,0,1,0,0l0,0c0,.05,0,.07,0,.08a.07.07,0,0,1-.06,0Z"/><path class="cls-6" d="M10,7.07a.05.05,0,0,1,0,0s.06,0,.08,0h0a.28.28,0,0,1,.08-.09.2.2,0,0,1,.12,0,.1.1,0,0,0-.1-.1.1.1,0,0,0-.09,0v0a.1.1,0,0,0-.06.06A.25.25,0,0,0,10,7a.15.15,0,0,0,0,0L9.9,6.9l-.05,0v0a.25.25,0,0,0-.13,0A.15.15,0,0,0,9.81,7l0,0,0,0H10Z"/><path d="M9.89,7.08H9.76L9.8,7a.11.11,0,0,1-.09-.07.2.2,0,0,1,.11,0h0l0,0a.11.11,0,0,1,.06,0L10,7V7a.14.14,0,0,1,0-.09s.07-.06.07-.07l0,.05a.08.08,0,0,1,.08-.05.11.11,0,0,1,.11.11l-.13,0a.28.28,0,0,0-.08.09h0a0,0,0,0,0,0,0l0,0H9.89Zm-.06-.15L9.72,7A.2.2,0,0,0,9.81,7l0,0H10s0,0,0,0l0,0,0,0-.09,0-.05,0v0ZM10,7l0,0h0a.19.19,0,0,1,.08-.09l.1,0c0-.07-.12-.11-.16,0l0,0s0,0-.06.07A.47.47,0,0,0,10,7Z"/><path class="cls-6" d="M7.1,7.07a.05.05,0,0,0,0,0S7,7,7,7H7a.28.28,0,0,0-.08-.09.2.2,0,0,0-.12,0,.09.09,0,0,1,.1-.1.1.1,0,0,1,.09,0v0a.1.1,0,0,1,.06.06.25.25,0,0,1,0,.13.15.15,0,0,1,0,0l.08-.06,0,0v0a.3.3,0,0,1,.13,0A.15.15,0,0,1,7.25,7l0,0,0,0H7.1Z"/><path d="M7.17,7.08H7.1l0,0A0,0,0,0,0,7,7H7a.28.28,0,0,0-.08-.09l-.1,0h0a.16.16,0,0,1,.1,0A.32.32,0,0,1,7,7s0,0,0,0h0a.41.41,0,0,0,0-.11A.09.09,0,0,0,7,6.83v0c-.06,0-.15,0-.18,0s.14-.08.18,0v0s.06,0,.08.06a.25.25,0,0,1,0,.08h0l.09,0,0,0v0h0l0,0L7.08,7l0,0a0,0,0,0,1,0,0s0,0,0,0,0,0,0,0Zm.11,0,0,0a.24.24,0,0,0,.09-.08H7.21v0h.14a.18.18,0,0,1-.09.1h0Z"/><path class="cls-5" d="M7,7s0,0,.08,0a.07.07,0,0,1,0,.08A.08.08,0,0,1,7,7.1S7,7,7,7Z"/><path d="M7.07,7.12A.07.07,0,0,1,7,7.1a.05.05,0,0,1,0,0c0-.09.07,0,.1,0a.05.05,0,0,1,0,0s0,0,0,0Z"/><path class="cls-5" d="M8.46,6.8a.07.07,0,1,1,.07.07.07.07,0,0,1-.07-.07Z"/><path d="M8.53,6.88a.08.08,0,0,1-.08-.08c0-.08.16-.08.16,0a.09.09,0,0,1-.08.08Zm0-.14a.07.07,0,0,0-.07.06c0,.07.14.07.14,0a.07.07,0,0,0-.07-.06Z"/><path class="cls-9" d="M8.38,5.74a.15.15,0,0,1,.15-.15.15.15,0,1,1,0,.29.15.15,0,0,1-.15-.14Z"/><path d="M8.53,5.88a.15.15,0,0,1-.16-.14.15.15,0,0,1,.16-.15.15.15,0,0,1,.15.15.15.15,0,0,1-.15.14Zm0-.28a.14.14,0,1,0,0,.27.13.13,0,0,0,.14-.13.14.14,0,0,0-.14-.14Z"/><path class="cls-6" d="M8.49,5.33v.08H8.4v.08h.09v.23H8.38v0s0,0,0,0h.28s0,0,0,0v0h-.1V5.49h.08V5.41H8.57V5.33Z"/><path d="M8.66,5.8H8.39a.07.07,0,0,1,0-.06h0s0,0,0,.06h.27a.11.11,0,0,0,0,0l-.1,0V5.49h.09V5.41H8.57V5.33H8.49v.07H8.4v.07h.08v.24h0V5.49H8.4V5.41h.09V5.33h.09v.08h.08v.08H8.57v.23h.1s0,.07,0,.08Z"/><path class="cls-10" d="M8.54,11.78a2.92,2.92,0,0,1-1.26-.29.81.81,0,0,1-.46-.73V9.63h3.43v1.13a.82.82,0,0,1-.45.73,3,3,0,0,1-1.26.29Z"/><path d="M8.54,11.79a3,3,0,0,1-1.26-.29.84.84,0,0,1-.47-.74V9.63h3.44v1.14a.85.85,0,0,1-.46.74,2.91,2.91,0,0,1-1.26.29Zm1.7-2.16H6.82v1.12a.81.81,0,0,0,.45.72,2.91,2.91,0,0,0,2.51,0,.8.8,0,0,0,.45-.72V9.63Z"/><rect class="cls-10" x="8.53" y="7.72" width="1.72" height="1.9"/><path d="M10.26,9.63H8.53V7.72h1.73V9.63Zm0-1.91H8.53V9.62h1.7V7.72Z"/><path class="cls-5" d="M8.54,10.76a.86.86,0,0,1-1.72,0V9.62H8.54v1.14Z"/><path class="cls-6" d="M7.2,11.43a.75.75,0,0,0,.2.1V9.58H7.2Z"/><path d="M7.41,11.54h0a.67.67,0,0,1-.17-.08l0,0V9.58H7.4v2Zm0-2H7.2v1.84l0,0,.16.07V9.58Z"/><path class="cls-6" d="M6.82,10.75a.83.83,0,0,0,.19.53V9.59H6.82Z"/><path d="M7,11.29H7a.9.9,0,0,1-.2-.54V9.59H7v1.7H7Zm0-1.7H6.82v1.15a.79.79,0,0,0,.18.51V9.59Z"/><path class="cls-11" d="M7.58,11.57h.2v-2h-.2Z"/><path d="M7.68,11.59h-.1v-2h.21v2l-.11,0Zm.09-2H7.58v2h.19v-2Z"/><path class="cls-6" d="M8,11.53a1.29,1.29,0,0,0,.2-.09V9.58H8Z"/><path d="M8,11.54v-2h.21v1.86a.69.69,0,0,1-.21.1Zm.2-2H8v1.93a1,1,0,0,0,.2-.09V9.58Z"/><rect class="cls-5" x="6.82" y="7.72" width="1.71" height="1.9"/><path d="M8.54,9.63H6.82V7.72H8.53V9.63Zm0-1.91H6.82V9.62h1.7V7.72Z"/><path class="cls-6" d="M8.35,11.26a.78.78,0,0,0,.19-.43V9.58h-.2Z"/><path d="M8.34,11.28V9.58h.21v1.25a.79.79,0,0,1-.2.44Zm.19-1.7H8.34l0,1.65a.82.82,0,0,0,.17-.41V9.58Z"/><path d="M7.68,11.58a.84.84,0,0,1-.87-.82V9.62H8.54v1.14a.83.83,0,0,1-.86.82Zm.85-2H6.82v1.13a.85.85,0,0,0,1.7,0V9.62Z"/><path class="cls-5" d="M10.25,9.62v1.14a.86.86,0,0,1-1.71,0V9.62Z"/><path d="M9.39,11.58a.84.84,0,0,1-.86-.82V9.62h1.72v1.14a.84.84,0,0,1-.87.82Zm.85-2H8.54v1.13a.85.85,0,0,0,1.7,0V9.62Z"/><path class="cls-6" d="M8.85,10.48v0a0,0,0,0,1-.08,0v0H8.72v0a.11.11,0,0,0,.06.09v.13h.06v-.14a.06.06,0,0,0,.06-.05h.16v0Zm.77,0v0H9.48v0l.16.18,0,0-.17-.19h0v.3H9.36v-.31h0l-.17.19,0,0,.17-.18v0H9.15v0Zm.09,0v0h.16a.06.06,0,0,0,.06.05v.14H10v-.13a.11.11,0,0,0,.06-.09v0H10v0a0,0,0,1,1-.08,0v0Zm-.24.79.13,0,0,0-.15.05a.09.09,0,0,1-.09.06.08.08,0,0,1-.09-.06l-.16-.05,0,0,.13,0a.1.1,0,0,1,.06,0V11h.06v.24l.05,0Zm-.39-.08,0,.05a.69.69,0,0,1-.13-.11.08.08,0,0,1-.08,0,.08.08,0,0,1,0-.12h0a.47.47,0,0,1,0-.17h.05a.83.83,0,0,0,0,.15h0l.15-.16,0,0L9,11a.09.09,0,0,1,0,.1l.11.09ZM8.87,11a0,0,0,0,1,.05,0s0,0,0,.05,0,0-.06,0,0,0,0-.05Zm-.08-.16H8.73V10.7l.06,0v.08s0,.07,0,.1Zm.05-.19.06,0s0,.09,0,.07,0,.08,0,.08l-.06,0a.34.34,0,0,1,0-.1v-.09Zm.2.49a.56.56,0,0,0,.17.09v-.06a.37.37,0,0,1-.14-.07l0,0Zm0,.05a.56.56,0,0,0,.17.09l0,0A.61.61,0,0,1,9,11.27v-.06Zm.08-.34.06,0,.1-.12,0,0-.13.14Zm-.05,0,0-.05.1-.12.06,0L9,10.84Zm.65.35,0,.05.13-.11a.08.08,0,0,0,.08,0,.08.08,0,0,0,0-.12h0a.47.47,0,0,0,0-.17H9.93a.83.83,0,0,1,0,.15H9.84l-.15-.16,0,0,.14.16a.08.08,0,0,0,0,.1l-.11.09ZM9.9,11a0,0,0,0,0-.05,0s0,0,0,.05,0,0,.06,0,0,0,0-.05Zm.08-.16H10V10.7l-.06,0v.08s0,.07,0,.1Zm-.05-.19-.06,0s0,.09,0,.07,0,.08,0,.08l.06,0a.34.34,0,0,0,0-.1v-.09Zm-.2.49a.56.56,0,0,1-.17.09l0-.06a.41.41,0,0,0,.15-.07l0,0Zm0,.05a.56.56,0,0,1-.17.09l0,0a.61.61,0,0,0,.14-.07v-.06Zm-.08-.34-.06,0-.1-.12,0,0,.13.14Zm.05,0,0-.05-.1-.12-.06,0,.13.14ZM9,10.53l0,.06h.16l0-.06Zm.75,0,0,.06H9.58v-.06Zm-.41.78a0,0,0,1,1,.08,0s0,0,0,0,0,0,0,0ZM9.42,11l.06,0v-.15H9.42V11Zm-.06,0L9.3,11v-.15h.06V11Z"/><path class="cls-6" d="M8.72,10.48a.09.09,0,0,1,.06-.06v-.19h.06v.19a.09.09,0,0,1,.06.06H8.85l0,0a0,0,0,0,0,0,0Zm.43,0H9.3v0l-.18-.2,0,0,.18.19h0v-.26h.06v.26h0l.18-.2,0,0-.17.2v0H9.15Zm.77,0,0,0a0,0,0,0,1,0,0h.06a.09.09,0,0,0-.06-.06v-.19H9.93v.19a.09.09,0,0,0-.06.06h.05ZM8.85,10l.22.24,0,0-.22-.24v0h.16V9.84H8.9a.09.09,0,0,0-.09-.06.09.09,0,0,0-.09.09.11.11,0,0,0,.06.09v.18h.06V10ZM10,10v.18H9.93V10h0l-.22.24,0,0,.22-.25H9.71V9.84h.16A.1.1,0,0,1,10,9.78a.09.09,0,0,1,.09.09A.11.11,0,0,1,10,10Zm-.57,0v.11H9.36V10A.09.09,0,0,1,9.3,9.9H9.16V9.84H9.3a.09.09,0,0,1,.08-.06.09.09,0,0,1,.09.06h.15V9.9H9.47a.15.15,0,0,1-.05.06Zm-.64.13-.06,0v.15l.06,0v-.19Zm.06,0,.06,0v.15l-.06,0v-.19Zm1.09,0-.06,0v.15l.06,0v-.19Zm.06,0,.06,0v.15l-.06,0v-.19Zm-.91,0,.05,0,.11.12,0,0-.12-.14Zm-.05,0,0,.05.1.12.06,0L9,10.16Zm.66,0-.06,0-.1.12,0,0,.13-.14Zm0,0,0,0-.1.12-.06,0,.12-.15ZM9,10.48l0-.06h.16l0,.06Zm-.24-.61a0,0,0,0,1,0,0,0,0,0,0,1,0,.08,0,0,0,0,1,0,0Zm.44,0,0,.06H9L9,9.9Zm0-.06,0-.05H9l0,.05Zm.55.64,0-.06H9.58v.06Zm.16-.61a0,0,0,0,1,.08,0,0,0,0,0,1-.08,0,0,0,0,0,1,0,0Zm-.58,0a0,0,0,0,1,0,0,0,0,0,0,1,0,.08,0,0,0,0,1,0,0Zm.23,0,0,.06h.16V9.9Zm0-.06,0-.05h.16v.05ZM9.36,10,9.3,10v.15l.06,0V10Zm.06,0,.06,0v.15l-.06,0V10Z"/><path class="cls-6" d="M9.39,11.4a.1.1,0,0,1-.1-.07l-.11,0h0l0,0h0A.41.41,0,0,1,9,11.27l0-.06-.07-.06.07.06,0,0,0,0,0,0H9L9,11.1A.09.09,0,0,0,9,11l.15-.17,0,0L8.93,11h0s0,0,0,0l.14-.16,0,0L9,11a.09.09,0,0,1,0,.1l.06.06,0,0,.15.07v.06l.08,0s0,0,.06,0V11h.07v.24s.05,0,.06,0l.12,0,0,0a.43.43,0,0,1-.16.05.09.09,0,0,1-.09.07Zm-.22-.11h0a.27.27,0,0,0,.12,0,.1.1,0,0,0,.18,0l.15,0,0,0-.12,0s0,0-.06,0V11H9.36v.23l0,0-.1,0H9.16l0,0ZM9,11.21v.06l.14.07,0,0h0l-.07,0h0l0,0Zm.07,0,.09,0h0v-.05a.27.27,0,0,1-.14-.07l0,0,0,0Zm-.19-.06H8.83a.09.09,0,0,1,0-.07.19.19,0,0,1,0-.07l0-.12H8.73V10.7l.06,0v-.08a.09.09,0,0,1,0-.18v-.18h.06v.2s.05,0,.06.05h.15v.06H8.9a.09.09,0,0,1-.06.06v.08H8.9v.16l-.06,0,0,.08a.11.11,0,0,1,0-.08h0a.09.09,0,0,1,0,0H8.79v0a.53.53,0,0,0,0,.12.11.11,0,0,0,0,.07.09.09,0,0,0,0,.06l.06,0h0Zm-.11-.45,0,0v.15h0a.09.09,0,0,1,0,0v-.12Zm.07.05v.12l.06,0v-.14H8.85v.05Zm0-.5H8.78v.19a.08.08,0,0,0,0,.16v.11l.05,0v-.14a.1.1,0,0,0,.06-.05h.16v-.06H8.9a.09.09,0,0,0-.06-.06v-.19Zm.58.67H9.36v0h.05v-.3h0v.3Zm.17-.13-.07-.07.07.07,0,0-.17-.18h0l.14.18,0,0Zm-.4,0-.06,0,0-.05,0,.05,0,0,.17-.19h0l-.16.18Zm.1-.23H9.15v-.06h0v0h.13Zm.29,0h0v-.06H9.48v0h.13v.06Zm-.29-.07-.17-.19.05,0,.07.08-.07-.07,0,0,.18.19Zm.14,0h0l.16-.19.05,0,0,0,0,0-.05,0-.16.19Zm-.07,0h0v-.25h.07v0H9.36v.26Zm-.29-.22-.13-.14.13.13,0,0-.22-.24h0l.19.24,0,0Zm-.29-.06V10a.09.09,0,0,1-.06-.09c0-.09.16-.11.19,0h.15V9.9h0V9.84H8.9a.09.09,0,0,0-.17,0,.08.08,0,0,0,.06.08v.19h.05V10h0v.17Z"/><path class="cls-6" d="M9.63,11.35l-.05,0,.13-.06,0-.05a.34.34,0,0,1-.12.06h0v-.07a.46.46,0,0,0,.14-.07l.05,0,.06-.06a.07.07,0,0,1,0-.09l-.14-.16,0,0,.15.16h0a.14.14,0,0,0,0-.09l-.05,0v-.15l.06,0v-.09s0,0-.05-.05H9.71v-.06h.16s0-.05.06-.06v-.13H9.87v-.16l.07,0v.14H10v.2a.08.08,0,0,1,.07.08.1.1,0,0,1-.07.09v.09h.06v.16H10a.42.42,0,0,1,0,.12.11.11,0,0,1,0,.07.09.09,0,0,1,0,.07l-.07,0a.52.52,0,0,0-.11.07h0l0,.06a.51.51,0,0,1-.15.07Zm.11-.12h0a.38.38,0,0,1-.13.06l0,0,.14-.08v0Zm-.06-.11a.29.29,0,0,1-.13.08v0l.17-.08-.05,0Zm0-.32,0,0L9.8,11a.07.07,0,0,0,0,.09.26.26,0,0,1-.11.1l0,0,0,0,.08-.08a.14.14,0,0,0,.09,0,.09.09,0,0,0,0-.06.07.07,0,0,0,0-.06.79.79,0,0,0,0-.13.09.09,0,0,0,0,0H9.93v0a.19.19,0,0,1,0,.1H9.84l-.15-.17Zm.3-.08v.09a.09.09,0,0,1,0,0l.06,0v-.15h0v0Zm-.12-.19a.1.1,0,0,0,.06.05v.14H10v-.13a.11.11,0,0,0,.07-.09.08.08,0,0,0-.07-.08v-.19H9.93v0h0v.14a.09.09,0,0,0-.06.06H9.71v0Zm-.72.37-.06,0,.12-.15,0,0-.1.12Zm.06-.17-.12.15h.05l.11-.11,0,0ZM9,10.84l0-.05.1-.12.06,0L9,10.84Zm.07-.16-.1.11,0,0,.13-.14Zm-.27-.4v-.19l.06,0v.15l-.07,0Zm0-.18v.17H8.9v-.15Zm-.05.18H8.72v-.16l.06,0v.19Zm.91-.08,0,0,.08-.08-.07.08,0,0L9.91,10v0l-.21.23Zm.23-.06v0H10V10a.11.11,0,0,0,.07-.09c0-.08-.15-.1-.18,0H9.71V9.9h.15v0H9.71V9.84h.16c0-.08.19-.06.19,0A.1.1,0,0,1,10,10v.18Zm-.51-.07H9.36V10a.12.12,0,0,1-.06-.06H9.16V9.84H9.3c0-.07.15-.07.18,0h.14V9.9H9.47a.06.06,0,0,1-.05.06v.11ZM9.3,9.89a.09.09,0,0,0,.06.06v.12h.05V10l.06-.06h.15V9.84H9.47a.1.1,0,0,0-.17,0H9.16V9.9Z"/><path class="cls-6" d="M9.41,11v-.19h.07V11l-.07,0Zm0-.19V11l.06,0v-.15ZM9.36,11,9.3,11v-.16l.07,0V11Zm.26-.14-.1-.11,0-.06.13.14-.06,0Zm.11-.06-.14-.14.06,0,.11.12,0,.05Zm0-.25H9.58l0-.06h.2v.06Zm0-.06H9.57l0,.05h.15l0-.05Zm-.57.06H9l0-.06h.2l0,.06Zm0-.06H9l0,.05h.16v-.05Zm.57,0h-.2v-.06h.16l0,.07Zm0-.06H9.58v.06h.19l0-.05Zm-.53.06H9v-.06h.17l0,.07Zm0-.06H9l0,.06H9.2l0-.05Zm-.08-.09L9,10.21l0-.05.13.14-.06,0Zm.57,0-.06,0,.12-.15,0,0-.1.13Zm.06-.17-.12.14h.05l.1-.11,0,0Zm.25.12v-.19l.07,0v.15l-.07,0Zm0-.18v.17h0v-.15Zm-.77.17-.14-.14.06,0,.11.12,0,.06Zm.35,0,0-.06.11-.12.06,0-.13.16Zm.07-.17-.1.11,0,0,.13-.13-.06,0ZM9.75,10H9.59l0-.06h.2V10Zm0-.06H9.57l0,0h.15l0,0ZM9.19,10H9L9,9.9h.21l0,.07Zm0-.06H9l0,0h.15l0,0Zm.57-.05h-.2V9.79h.17l0,.07Zm0-.06H9.59l0,.05h.19l0-.05Zm-.53.06H9V9.79h.17l0,.07Zm0-.06H9l0,.05H9.2l0-.05Z"/><path class="cls-6" d="M9.41,10.21V10h.07v.16l-.07,0Zm0-.18v.17h.05V10Zm-.05.18H9.3V10l.07,0v.19Z"/><path class="cls-8" d="M9.29,10.5a.1.1,0,0,1,.1-.09.09.09,0,0,1,0,.18.1.1,0,0,1-.1-.09Z"/><path class="cls-12" d="M9.41,8.19v0H9.33a.18.18,0,0,1-.08-.05l-.06,0a.09.09,0,0,0-.08,0,.17.17,0,0,1,.06,0s.05,0,.07,0h.17Z"/><path d="M9.41,8.2H9.23a.16.16,0,0,1-.06-.06.17.17,0,0,0-.06,0s0,0,.06,0l.07,0a.2.2,0,0,0,.09.06h.09v0Zm-.07,0h0l-.09,0-.05,0H9.12a.09.09,0,0,1,.06,0,.22.22,0,0,0,.06,0h.1Z"/><path class="cls-13" d="M9.67,8.11v.05s0,.05,0,.06a0,0,0,0,0,0,0v0l0,0h0v0l0,.05,0,0a.13.13,0,0,1,0,.05l0,0,0,0a.12.12,0,0,1,0,.05.22.22,0,0,1,0,.06.08.08,0,0,0,0,0l0,0a.35.35,0,0,1,0,.06v.09l0,0,0,0s0,0,0,0a.42.42,0,0,0,.07.16.16.16,0,0,0,.19.1c.1,0,.06-.17,0-.24a.69.69,0,0,1,0-.16s0-.1,0-.12a.2.2,0,0,1,0-.11c0-.05,0-.06,0-.08s0,0,0-.05V8l0,0V8.1A.11.11,0,0,1,10,8L10,8a0,0,0,0,0,0,0s0,.07,0,.09L10,8.13H10l0,.06s0,0,0,.08,0,0-.06.05,0,.15,0,.17a.84.84,0,0,1,.07.19.2.2,0,0,1,0,.17s-.11,0-.12,0a.11.11,0,0,0,0,.1.08.08,0,0,0,0,.08s0,0,.05,0v0s0,0,0,0l0,.06,0,.08s0,0,0,.05,0,0,0,0,0,0,0,0h0s0,0,0,0,0,0,0,0,0,0,0,0,0,0,0,0l0,0,0,0a0,0,0,0,1,0,0,0,0,0,0,0,0,0h0a0,0,0,0,1,0,0v0s0,0,0,0,0,0,.05,0,0,0,0,0a0,0,0,0,0,0-.05l0,0,0,0s0,0,0,.05v0l0,0a.17.17,0,0,1,0-.05v.05s0,0,0,0l0,0s0,0,0,0a.11.11,0,0,1,0,0s0,0,0-.05V9h0s0,0-.05,0a.12.12,0,0,0,0,.1s0,.07,0,.08l0,0H9.26s0,0,0,0,0,0,0,0h0s0,0,0,0v0s0,0,0,0h0s0,0,0,0,0,0,0,0,0,0,0,0h.05s0,0,0,0,0,0,0,0l0,0s0,0,0,0,0,0,0,.05a.09.09,0,0,0,.07,0l.05,0V9l0,0,0,0V9s0,0,0,0a.08.08,0,0,1,0-.05s0-.06,0-.07a.07.07,0,0,1,.07-.06h.16l-.12-.06a.25.25,0,0,1-.07-.08l0-.05h0l0,0,0,0V8.62a.17.17,0,0,1,0,.07l-.05,0V8.66s0,0,0,0-.07,0-.07,0,0,0,0,0l0,0,0,0h0s0,0,0,0,0,0,0,0h0v0a0,0,0,0,1,0,0h0l0,0s0,0,0,0l0,0s0,0,0,0,0,0,0,0,.06,0,.07,0l.05,0,.06,0,0,0,0,0s-.05,0-.06,0l-.06,0H9l0,0H9l-.05,0h0l0,0H9l0,0a.08.08,0,0,1,0,0l0,0,0,0s0,0,0,0h0s0,0,0,0h0s0,0,0,0l0,0,0,0s0,0,0,0l0,0s0,0,0,0,0,0,0,0,0,0,0,0H9s0,0,0,0a0,0,0,0,0,0,0,.07.07,0,0,0,0,.05l.06,0,.07.05H9.3s0,0,0,0-.05,0-.05,0,0,0,.05,0,.06,0,.07,0,0-.06,0-.07-.06,0-.07,0v0l0,0h.07l0,0h.05l.1.06.08.08Z"/><path d="M9.7,9.39l0,0h0l0,0s0,0,0,0l0,0v0h0v0l.05,0-.05.05h0l0,0,0,0,0,.05h0l0,0V9.29a.32.32,0,0,1,0-.09.08.08,0,0,1,0,0V9.11h0l-.07,0s0,0,0-.08a.12.12,0,0,1,0-.11.23.23,0,0,0,.11,0,.17.17,0,0,0,.06-.15.82.82,0,0,0-.06-.16.1.1,0,0,0,0,0s0-.14,0-.17l.06-.06s0-.05,0-.07l0-.06h0l0,0s0,0,0,.05l0,0,0,0c-.05,0,0,.15,0,.17l0,0c0,.07,0,.13,0,.15a.2.2,0,0,1-.06.17s-.06,0-.09,0a.09.09,0,0,0-.07.1.08.08,0,0,0,0,.07h0l.06,0,0,.06,0,0,0,0,0,.08v.05a0,0,0,0,1,0,0l-.08,0Zm0-.15h0s0,0,0,0,0,0,0-.05l0,0v0h0a.13.13,0,0,1,0-.06l0,.05a0,0,0,0,1,0,.06s0,0,0,0Zm-.45,0h0l0,0H9.12a.05.05,0,0,1,0,0v0h0v0L9.19,9l0,0s0,0,.06,0h0V9c0,.05,0,.05-.05.05s0,0-.07,0l0,0h0v.05h0v.06h0l0,0v0l0,0h0l.06,0,0,0Zm.22,0h0a.06.06,0,0,0,0,0,.12.12,0,0,1,0-.05c0-.07,0-.1,0-.12s0,0,.05,0h.06v.09s0,0,0,0l0,0,0,0h0l0,0,0,0s0,0,0,0,0-.05,0-.06l0,0H9.43a.17.17,0,0,0,0,.1.2.2,0,0,1,0,.08l0,0ZM9.3,9s0,0,0,0V9h0a.06.06,0,0,1,0-.06V8.88a.09.09,0,0,1,.08-.06h.15l-.12-.06-.07-.08a.17.17,0,0,1,0-.05l-.07.05,0,0s0,0,0,0l0,0-.05,0h0V8.68l0,0S9,8.7,9,8.71v0H9l0,0s0,0,0,0,.06,0,.06,0v0s0,0,0,0,0-.06,0-.06a.13.13,0,0,1,0,.06v0a.1.1,0,0,1,.05,0h0l0,.06.07.07.13.07-.08,0H9.33s-.05,0-.06.05V9s0,0,0,0,0,0,0,0l0,0h0V9a.07.07,0,0,0,0,0h0Zm.46-.23a.19.19,0,0,1-.15-.1.34.34,0,0,1-.07-.17l0,0h0l0,0s0,0,0-.07a.2.2,0,0,0,0-.06s0,0,0,0l0,0s0,0,0,0a.09.09,0,0,0,0-.05s0,0,.05,0l0,0v0l0,0s0,0,0-.06h0v0h0l0,0V8.11h0a.11.11,0,0,0,0,.05v.12h0l0,0v0a.06.06,0,0,0,0,0l0,0s0,.05,0,.05l0,0h0v0a.22.22,0,0,1,0,.06s0,0,0,0l0,0a.43.43,0,0,0,0,.05.78.78,0,0,1,0,.09l0,0h0v0a.34.34,0,0,0,.07.15c0,.06.08.13.18.1a.07.07,0,0,0,0,0c0-.05,0-.15,0-.18a.54.54,0,0,1,0-.17s0,0,0-.06a.15.15,0,0,0,0-.06.24.24,0,0,1,0-.11.14.14,0,0,1,0-.07l0-.06s0,0,0,0,0,0,0,0v0l0,0L10,8h0a.08.08,0,0,1,0,0c-.06,0-.05.07-.05.07h0s0,0,0,0V8a.08.08,0,0,0,0,0l0,.09a.24.24,0,0,0,0,.11v.06a.15.15,0,0,0,0,.06.69.69,0,0,0,0,.16.28.28,0,0,1,0,.2.1.1,0,0,1-.06.05ZM9,8.77l-.07,0V8.68h0l0,0,0,0,0,0h0l0,0,0,0H9l.05,0,.05,0,0,0,0,0L9,8.44H8.94l0,0H9L9,8.42H9l.07,0,0,0,0,0-.06.05L9,8.6a.1.1,0,0,1-.08,0l0,0,0,0,0,0h0l0,0v0h0l0,0,0,0Zm0-.41H9l0,0v0H8.85a0,0,0,0,1,0,0v0h0l0,0,.06-.06,0,0h0V8.08l0,0H9s0,0,0,.05a.06.06,0,0,0,0,0l0,.05.06,0,.08.05H9.3s0,0,0,0h0l0-.06s0,0,.05,0,.06,0,.06,0,0,0,0-.06-.07,0-.08,0V8h.12l0,0,.05,0,.1.06.08.08s-.05,0-.09-.07L9.49,8H9.44l0,0H9.31s0,.06,0,.06.06.05.06.08-.05,0-.07,0h0l0,0a.07.07,0,0,1,0,.05H9.18a.15.15,0,0,1-.09-.05L9,8.26A.23.23,0,0,1,9,8.2a.06.06,0,0,1,0-.06l0,0H8.93s0,.06,0,.07h0l0,0-.05,0s0,0,0,.06h0v0h.06l0,0,.05,0s0,0,0,0Zm1-.22s0-.06.05-.08A.1.1,0,0,0,10,8s0,0,0,.08l0,0h0l-.06,0Z"/><path d="M9.31,8.09v0h0Z"/><path class="cls-1" d="M9.31,8.09v0h0Z"/><path d="M9.45,8h0l0,0H9.45Z"/><path class="cls-1" d="M9.45,8h0l0,0H9.45Z"/><path class="cls-1" d="M9.64,8.25l0,0v0Z"/><path class="cls-12" d="M8.93,8.08l0,0H9v0A.07.07,0,0,0,9,8s0,0,0,0l0,0Z"/><path class="cls-1" d="M8.93,8.08l0,0H9v0A.07.07,0,0,0,9,8s0,0,0,0Z"/><path class="cls-12" d="M8.85,8.12a0,0,0,0,0,0,0l-.06,0H8.8a0,0,0,0,1,0,0l0,0v0Z"/><path class="cls-1" d="M8.85,8.12a0,0,0,0,0,0,0l-.06,0H8.8a0,0,0,0,1,0,0l0,0Z"/><path class="cls-12" d="M8.81,8.23l0,0s0,0,0,0h.07v0l0,0Z"/><path d="M8.75,8.29a.08.08,0,0,1,0,0s0,0,0,0h0v0h0l0,0h0l0,0a0,0,0,0,0,0,0h0Z"/><polygon points="9.31 8.22 9.32 8.2 9.34 8.22 9.31 8.22"/><polygon class="cls-1" points="9.31 8.22 9.32 8.2 9.34 8.22 9.31 8.22 9.31 8.22"/><polygon points="9.34 8.22 9.35 8.2 9.37 8.22 9.34 8.22"/><polygon class="cls-1" points="9.34 8.22 9.35 8.2 9.37 8.22 9.34 8.22 9.34 8.22"/><polygon points="9.33 8.11 9.36 8.12 9.33 8.13 9.33 8.11"/><polygon class="cls-1" points="9.33 8.11 9.36 8.12 9.33 8.13 9.33 8.11 9.33 8.11"/><polygon points="9.36 8.12 9.39 8.12 9.37 8.14 9.36 8.12"/><polygon class="cls-1" points="9.36 8.12 9.39 8.12 9.37 8.14 9.36 8.12 9.36 8.12"/><path d="M9.28,8.62h0l.05,0s0,0,0,0,0,0,0-.05v0l0,0-.06,0h0s0,0,0-.06v0l-.07,0,0,0h0l0,0,.05,0h0v0s0,0,0,0h0l0,0h0s0,0,0,0a0,0,0,0,1,0-.05s0,0,0,0h0l0,0s0,0,0,0h0l0,0h0s0,0,0,.06v0l0,0h0l.06,0,0,0a.07.07,0,0,1,0,.05.06.06,0,0,1,0,0h0l0,0h0v0h0s0,0,0,0a.11.11,0,0,1,0,.05l0,0,0,0s0,0,0,0l0,0s0-.05,0-.06v0h0l0,0h0a.09.09,0,0,1,0,0l-.05,0Z"/><path class="cls-12" d="M8.9,8.57h0l0,0h0a0,0,0,0,1,0,0v0Z"/><path class="cls-1" d="M8.9,8.57h0l0,0h0a0,0,0,0,1,0,0v0Z"/><path class="cls-12" d="M8.87,8.67h0a.08.08,0,0,0,0,.05l0,0h0V8.67Z"/><path class="cls-1" d="M8.87,8.67h0a.08.08,0,0,0,0,.05l0,0h0V8.67Z"/><path class="cls-12" d="M8.92,8.77a.1.1,0,0,0,0,0l0,0v0a0,0,0,0,1,0,0l0,0Z"/><path class="cls-1" d="M8.92,8.77a.1.1,0,0,0,0,0l0,0v0a0,0,0,0,1,0,0l0,0Z"/><path d="M9.53,9s0-.06,0-.09,0-.06-.06-.07h0s.07,0,.07.08,0,.08,0,.09Z"/><path class="cls-12" d="M9.17,9a0,0,0,0,0,0,0L9.08,9h0V9h0l0,0Z"/><path class="cls-1" d="M9.17,9a0,0,0,0,0,0,0L9.08,9h0V9h0Z"/><path class="cls-12" d="M9.1,9.1h0a.13.13,0,0,0,0,.05l0,0h0V9.1Z"/><path class="cls-1" d="M9.1,9.1h0a.13.13,0,0,0,0,.05l0,0h0V9.1Z"/><path class="cls-12" d="M9.17,9.2s0,0,0,0a.08.08,0,0,0,0,0,0,0,0,0,1,0,0l0,0Z"/><path class="cls-1" d="M9.17,9.2s0,0,0,0a.08.08,0,0,0,0,0,0,0,0,0,1,0,0l0,0Z"/><path class="cls-12" d="M9.59,9.25h0s0,.05,0,.05,0,0,0,0h0v0Z"/><path d="M9.51,9.32v0l0,0H9.6v0h0a0,0,0,0,0,0,0h.05a.11.11,0,0,0-.07,0v0Z"/><path class="cls-12" d="M9.6,9.35s0,0,0,0l0,0a0,0,0,0,1,0,0h0l0,0Z"/><path class="cls-1" d="M9.6,9.35s0,0,0,0l0,0a0,0,0,0,1,0,0h0l0,0Z"/><path class="cls-12" d="M9.71,9.38s0,0,0,0l0,0s0,0,0,0l0,0H9.71Z"/><path class="cls-1" d="M9.71,9.38s0,0,0,0l0,0s0,0,0,0l0,0H9.71Z"/><path class="cls-14" d="M8.62,11.27a.16.16,0,0,1,.11.14.19.19,0,0,1-.36,0c0-.06,0-.13.1-.13v0l0,0h.07l0,0,0,0,0,0v0h.06v0Z"/><path d="M8.55,11.56c-.11,0-.19-.06-.19-.15s0-.14.11-.14v0c-.07,0-.1.06-.1.12a.16.16,0,0,0,.18.14.15.15,0,0,0,.17-.14.13.13,0,0,0-.1-.13h0v0h0l0,0h0l-.05,0,0,0v0l0,0h.05l.07,0,0,.05h0l0,0v0a.19.19,0,0,1,.1.16c0,.09-.08.15-.19.15Z"/><path class="cls-8" d="M8.54,11.64a.9.9,0,0,0-.2-.1,1.56,1.56,0,0,0-.2,0l.07.05.11.07a.41.41,0,0,0,.22,0Z"/><path d="M8.41,11.67H8.32l-.12-.07-.06-.05,0,0h.15a1.21,1.21,0,0,1,.2.1s-.06,0-.13,0Zm-.24-.13,0,0a.67.67,0,0,0,.12.06.42.42,0,0,0,.2,0s-.14-.07-.19-.08H8.17Z"/><path class="cls-8" d="M8.57,11.65a.37.37,0,0,1,.18-.1.43.43,0,0,1,.22,0l-.05,0a.27.27,0,0,1-.14.05H8.57Z"/><path d="M8.77,11.66h0a.2.2,0,0,0,.13-.05l.05,0s0,0,0,0a.23.23,0,0,1-.14.06Zm-.19,0h0a.37.37,0,0,1,.18-.1.44.44,0,0,1,.21,0H8.75a.36.36,0,0,0-.17.09Z"/><path class="cls-5" d="M8.55,11.54a.16.16,0,0,1-.06-.13.18.18,0,0,1,.06-.13.21.21,0,0,1,0,.13.19.19,0,0,1,0,.13Z"/><path d="M8.55,11.55h0a.17.17,0,0,1,0-.26.15.15,0,0,1,.07.13.16.16,0,0,1-.06.13Zm0-.26a.25.25,0,0,0,0,.12.18.18,0,0,0,.05.12.19.19,0,0,0,0-.12.15.15,0,0,0-.05-.12Z"/><path class="cls-8" d="M8.51,11.72l0-.09a.38.38,0,0,0,0-.08h0a.38.38,0,0,1,0,.08v.08H8.51Z"/><path d="M8.52,11.73h0a.22.22,0,0,0,0-.09.38.38,0,0,0,0-.08h0a.17.17,0,0,1,0,.09.54.54,0,0,1,0,.08H8.52Zm0-.18s0,0,0,.08,0,.07,0,.08h0a.15.15,0,0,0,0-.08.24.24,0,0,0,0-.07Z"/><path class="cls-7" d="M10.23,6.81a0,0,0,0,1,.08,0s0,0,0,0,0,0,0,0Z"/><path class="cls-1" d="M10.23,6.81a0,0,0,0,1,.08,0s0,0,0,0S10.23,6.83,10.23,6.81Z"/><path class="cls-7" d="M10.28,6.72a0,0,0,1,1,.08,0s0,0,0,0,0,0,0,0Z"/><path class="cls-1" d="M10.28,6.72a0,0,0,1,1,.08,0s0,0,0,0S10.28,6.74,10.28,6.72Z"/><path class="cls-7" d="M10.32,6.61a0,0,0,0,1,0,0s0,0,0,0a0,0,0,0,1,0,0s0,0,0,0Z"/><path class="cls-1" d="M10.32,6.61a0,0,0,0,1,0,0s0,0,0,0a0,0,0,0,1,0,0S10.32,6.63,10.32,6.61Z"/><path class="cls-7" d="M10.32,6.5a0,0,0,0,1,.08,0s0,0,0,0,0,0,0,0Z"/><path class="cls-1" d="M10.32,6.5a0,0,0,0,1,.08,0s0,0,0,0S10.32,6.52,10.32,6.5Z"/><path class="cls-7" d="M10.29,6.39a0,0,0,1,1,.08,0s0,0,0,0,0,0,0,0Z"/><path class="cls-1" d="M10.29,6.39a0,0,0,1,1,.08,0s0,0,0,0S10.29,6.41,10.29,6.39Z"/><path class="cls-7" d="M10.24,6.29s0,0,0,0a0,0,0,0,1,0,0s0,0,0,0a0,0,0,0,1,0,0Z"/><path class="cls-1" d="M10.24,6.29s0,0,0,0a0,0,0,0,1,0,0s0,0,0,0A0,0,0,0,1,10.24,6.29Z"/><path class="cls-7" d="M10.16,6.2s0,0,0,0a0,0,0,0,1,0,0s0,0,0,0a0,0,0,0,1,0,0Z"/><path class="cls-1" d="M10.16,6.2s0,0,0,0a0,0,0,0,1,0,0s0,0,0,0A0,0,0,0,1,10.16,6.2Z"/><path class="cls-7" d="M10.07,6.14a0,0,0,0,1,0,0s0,0,0,0a0,0,0,0,1,0,0s0,0,0,0Z"/><path class="cls-1" d="M10.07,6.14a0,0,0,0,1,0,0s0,0,0,0a0,0,0,0,1,0,0S10.07,6.16,10.07,6.14Z"/><path class="cls-7" d="M10,6.08a0,0,0,1,1,.08,0s0,0,0,0,0,0,0,0Z"/><path class="cls-1" d="M10,6.08a0,0,0,1,1,.08,0s0,0,0,0S10,6.1,10,6.08Z"/><path class="cls-7" d="M9.85,6a0,0,0,1,1,.08,0s0,0,0,0,0,0,0,0Z"/><path class="cls-1" d="M9.85,6a0,0,0,1,1,.08,0s0,0,0,0S9.85,6.06,9.85,6Z"/><path class="cls-7" d="M9.73,6a0,0,0,0,1,0,0s0,0,0,0a0,0,0,0,1,0,0s0,0,0,0Z"/><path class="cls-1" d="M9.73,6a0,0,0,0,1,0,0s0,0,0,0a0,0,0,0,1,0,0S9.73,6,9.73,6Z"/><path class="cls-7" d="M9.61,6s0,0,0,0,0,0,0,0a0,0,0,0,1-.08,0Z"/><path class="cls-1" d="M9.61,6s0,0,0,0,0,0,0,0a0,0,0,0,1-.08,0Z"/><path class="cls-7" d="M9.5,6a0,0,0,0,1,0,0,0,0,0,0,1,0,0,0,0,0,0,1,0,0s0,0,0,0Z"/><path class="cls-1" d="M9.5,6a0,0,0,0,1,0,0,0,0,0,0,1,0,0,0,0,0,0,1,0,0S9.5,6,9.5,6Z"/><path class="cls-7" d="M9.38,6a0,0,0,0,1,.08,0,0,0,0,0,1-.08,0Z"/><path class="cls-1" d="M9.38,6a0,0,0,0,1,.08,0,0,0,0,0,1-.08,0Z"/><path class="cls-7" d="M9.44,6.11s0,0,0,0a0,0,0,0,1,0,0s0,0,0,0a0,0,0,0,1,0,0Z"/><path class="cls-1" d="M9.44,6.11s0,0,0,0a0,0,0,0,1,0,0s0,0,0,0a0,0,0,0,1,0,0Z"/><path class="cls-7" d="M9.46,6.22s0,0,0,0,0,0,0,0a0,0,0,0,1-.08,0Z"/><path class="cls-1" d="M9.46,6.22s0,0,0,0,0,0,0,0a0,0,0,0,1-.08,0Z"/><path class="cls-7" d="M9.47,6.33a0,0,0,0,1,0,0s0,0,0,0a0,0,0,0,1,0,0s0,0,0,0Z"/><path class="cls-1" d="M9.47,6.33a0,0,0,0,1,0,0s0,0,0,0a0,0,0,0,1,0,0s0,0,0,0Z"/><path class="cls-7" d="M9.43,6.43a0,0,0,1,1,.08,0,0,0,0,0,1-.08,0,0,0,0,0,1,0,0Z"/><path class="cls-1" d="M9.43,6.43a0,0,0,1,1,.08,0,0,0,0,0,1-.08,0,0,0,0,0,1,0,0Z"/><path class="cls-7" d="M9.37,6.52s0,0,0,0a0,0,0,0,1,0,0s0,0,0,0a0,0,0,0,1,0,0Z"/><path class="cls-1" d="M9.37,6.52s0,0,0,0a0,0,0,0,1,0,0s0,0,0,0a0,0,0,0,1,0,0Z"/><path class="cls-7" d="M9.29,6a0,0,0,1,1,.08,0s0,0,0,0,0,0,0,0Z"/><path class="cls-1" d="M9.29,6a0,0,0,1,1,.08,0s0,0,0,0S9.29,6,9.29,6Z"/><path class="cls-7" d="M9.19,5.89a0,0,0,0,1,.08,0s0,0,0,0,0,0,0,0Z"/><path class="cls-1" d="M9.19,5.89a0,0,0,0,1,.08,0s0,0,0,0S9.19,5.91,9.19,5.89Z"/><path class="cls-7" d="M9.08,5.86a0,0,0,0,1,0,0s0,0,0,0a0,0,0,0,1,0,0s0,0,0,0Z"/><path class="cls-1" d="M9.08,5.86a0,0,0,0,1,0,0s0,0,0,0a0,0,0,0,1,0,0S9.08,5.88,9.08,5.86Z"/><path class="cls-7" d="M9,5.83a0,0,0,0,1,.08,0,0,0,0,1,1-.08,0Z"/><path class="cls-1" d="M9,5.83a0,0,0,0,1,.08,0,0,0,0,1,1-.08,0Z"/><path class="cls-7" d="M8.85,5.84s0,0,0,0a0,0,0,0,1,0,0s0,0,0,0a0,0,0,0,1,0,0Z"/><path class="cls-1" d="M8.85,5.84s0,0,0,0a0,0,0,0,1,0,0s0,0,0,0A0,0,0,0,1,8.85,5.84Z"/><path class="cls-7" d="M8.73,5.86s0,0,0,0a0,0,0,0,1,0,0s0,0,0,0a0,0,0,0,1,0,0Z"/><path class="cls-1" d="M8.73,5.86s0,0,0,0a0,0,0,0,1,0,0s0,0,0,0A0,0,0,0,1,8.73,5.86Z"/><path class="cls-7" d="M8.62,5.9s0,0,0,0a0,0,0,0,1,0,0s0,0,0,0a0,0,0,0,1,0,0Z"/><path class="cls-1" d="M8.62,5.9s0,0,0,0a0,0,0,0,1,0,0s0,0,0,0A0,0,0,0,1,8.62,5.9Z"/><path class="cls-7" d="M6.74,6.81a0,0,0,0,1,.08,0s0,0,0,0,0,0,0,0Z"/><path class="cls-1" d="M6.74,6.81a0,0,0,0,1,.08,0s0,0,0,0S6.74,6.83,6.74,6.81Z"/><path class="cls-7" d="M6.69,6.72a0,0,0,1,1,.08,0s0,0,0,0,0,0,0,0Z"/><path class="cls-1" d="M6.69,6.72a0,0,0,1,1,.08,0s0,0,0,0S6.69,6.74,6.69,6.72Z"/><path class="cls-7" d="M6.66,6.61s0,0,0,0a0,0,0,0,1,0,0s0,0,0,0a0,0,0,0,1,0,0Z"/><path class="cls-1" d="M6.66,6.61s0,0,0,0a0,0,0,0,1,0,0s0,0,0,0A0,0,0,0,1,6.66,6.61Z"/><path class="cls-7" d="M6.65,6.5a0,0,0,0,1,.08,0s0,0,0,0,0,0,0,0Z"/><path class="cls-1" d="M6.65,6.5a0,0,0,0,1,.08,0s0,0,0,0S6.65,6.52,6.65,6.5Z"/><path class="cls-7" d="M6.68,6.39a0,0,0,0,1,.08,0s0,0,0,0,0,0,0,0Z"/><path class="cls-1" d="M6.68,6.39a0,0,0,0,1,.08,0s0,0,0,0S6.68,6.41,6.68,6.39Z"/><path class="cls-7" d="M6.74,6.29a0,0,0,0,1,0,0s0,0,0,0a0,0,0,0,1,0,0s0,0,0,0Z"/><path class="cls-1" d="M6.74,6.29a0,0,0,0,1,0,0s0,0,0,0a0,0,0,0,1,0,0S6.74,6.31,6.74,6.29Z"/><path class="cls-7" d="M6.82,6.2a0,0,0,0,1,0,0s0,0,0,0a0,0,0,0,1,0,0s0,0,0,0Z"/><path class="cls-1" d="M6.82,6.2a0,0,0,0,1,0,0s0,0,0,0a0,0,0,0,1,0,0S6.82,6.22,6.82,6.2Z"/><path class="cls-7" d="M6.91,6.14s0,0,0,0a0,0,0,0,1,0,0s0,0,0,0a0,0,0,0,1,0,0Z"/><path class="cls-1" d="M6.91,6.14s0,0,0,0a0,0,0,0,1,0,0s0,0,0,0A0,0,0,0,1,6.91,6.14Z"/><path class="cls-7" d="M7,6.08a0,0,0,0,1,.08,0s0,0,0,0,0,0,0,0Z"/><path class="cls-1" d="M7,6.08a0,0,0,0,1,.08,0s0,0,0,0S7,6.1,7,6.08Z"/><path class="cls-7" d="M7.12,6A0,0,0,1,1,7.2,6s0,0,0,0,0,0,0,0Z"/><path class="cls-1" d="M7.12,6A0,0,0,1,1,7.2,6s0,0,0,0S7.12,6.06,7.12,6Z"/><path class="cls-7" d="M7.25,6s0,0,0,0a0,0,0,0,1,0,0s0,0,0,0a0,0,0,0,1,0,0Z"/><path class="cls-1" d="M7.25,6s0,0,0,0a0,0,0,0,1,0,0s0,0,0,0A0,0,0,0,1,7.25,6Z"/><path class="cls-7" d="M7.36,6s0,0,0,0,0,0,0,0a0,0,0,0,1-.08,0Z"/><circle class="cls-1" cx="7.4" cy="6.01" r="0.04"/><path class="cls-7" d="M7.48,6a0,0,0,0,1,0,0,0,0,0,0,1,0,0s0,0,0,0a0,0,0,0,1,0,0Z"/><path class="cls-1" d="M7.48,6a0,0,0,0,1,0,0,0,0,0,0,1,0,0s0,0,0,0A0,0,0,0,1,7.48,6Z"/><path class="cls-7" d="M7.59,6a0,0,0,0,1,.08,0,0,0,0,0,1-.08,0Z"/><path class="cls-1" d="M7.59,6a0,0,0,0,1,.08,0,0,0,0,0,1-.08,0Z"/><path class="cls-7" d="M7.54,6.11a0,0,0,0,1,0,0s0,0,0,0a0,0,0,0,1,0,0s0,0,0,0Z"/><path class="cls-1" d="M7.54,6.11a0,0,0,0,1,0,0s0,0,0,0a0,0,0,0,1,0,0s0,0,0,0Z"/><path class="cls-7" d="M7.51,6.22s0,0,0,0,0,0,0,0a0,0,0,0,1-.08,0Z"/><path class="cls-1" d="M7.51,6.22s0,0,0,0,0,0,0,0a0,0,0,0,1-.08,0Z"/><path class="cls-7" d="M7.51,6.33s0,0,0,0a0,0,0,0,1,0,0s0,0,0,0a0,0,0,0,1,0,0Z"/><path class="cls-1" d="M7.51,6.33s0,0,0,0a0,0,0,0,1,0,0s0,0,0,0a0,0,0,0,1,0,0Z"/><path class="cls-7" d="M7.54,6.43a0,0,0,0,1,.08,0,0,0,0,0,1-.08,0,0,0,0,0,1,0,0Z"/><path class="cls-1" d="M7.54,6.43a0,0,0,0,1,.08,0,0,0,0,0,1-.08,0,0,0,0,0,1,0,0Z"/><path class="cls-7" d="M7.61,6.52a0,0,0,0,1,0,0s0,0,0,0a0,0,0,0,1,0,0s0,0,0,0Z"/><path class="cls-1" d="M7.61,6.52a0,0,0,0,1,0,0s0,0,0,0a0,0,0,0,1,0,0s0,0,0,0Z"/><path class="cls-7" d="M7.68,6a0,0,0,0,1,.08,0s0,0,0,0,0,0,0,0Z"/><path class="cls-1" d="M7.68,6a0,0,0,0,1,.08,0s0,0,0,0S7.68,6,7.68,6Z"/><path class="cls-7" d="M7.78,5.89a0,0,0,1,1,.08,0s0,0,0,0,0,0,0,0Z"/><path class="cls-1" d="M7.78,5.89a0,0,0,1,1,.08,0s0,0,0,0S7.78,5.91,7.78,5.89Z"/><path class="cls-7" d="M7.9,5.86s0,0,0,0a0,0,0,0,1,0,0s0,0,0,0a0,0,0,0,1,0,0Z"/><path class="cls-1" d="M7.9,5.86s0,0,0,0a0,0,0,0,1,0,0s0,0,0,0A0,0,0,0,1,7.9,5.86Z"/><path class="cls-7" d="M8,5.83a0,0,0,0,1,.08,0,0,0,0,0,1-.08,0Z"/><path class="cls-1" d="M8,5.83a0,0,0,0,1,.08,0,0,0,0,0,1-.08,0Z"/><path class="cls-7" d="M8.13,5.84a0,0,0,0,1,0,0s0,0,0,0a0,0,0,0,1,0,0s0,0,0,0Z"/><path class="cls-1" d="M8.13,5.84a0,0,0,0,1,0,0s0,0,0,0a0,0,0,0,1,0,0S8.13,5.86,8.13,5.84Z"/><path class="cls-7" d="M8.25,5.86a0,0,0,0,1,0,0s0,0,0,0a0,0,0,0,1,0,0s0,0,0,0Z"/><path class="cls-1" d="M8.25,5.86a0,0,0,0,1,0,0s0,0,0,0a0,0,0,0,1,0,0S8.25,5.88,8.25,5.86Z"/><path class="cls-7" d="M8.36,5.9a0,0,0,0,1,0,0s0,0,0,0a0,0,0,0,1,0,0s0,0,0,0Z"/><path class="cls-1" d="M8.36,5.9a0,0,0,0,1,0,0s0,0,0,0a0,0,0,0,1,0,0S8.36,5.92,8.36,5.9Z"/><path class="cls-6" d="M7.42,8.17h0v0h0v.12h0v.09H7.28v.24h.06v.5H7.22v.25h1V9.09H8v-.5h.07V8.35H8V8.26H8V8.14H8v0H8v0H7.9v0h0v0H7.81v.12h.06v.09H7.75V8.08h.06V8H7.75V8h0V8h0V8h0V8H7.57v.13h.06v.27H7.52V8.26h.05V8.14H7.52v0h0v0H7.42Zm-.2,1.17h0Zm0-.06h0Zm0-.06h0Zm0-.06h0Zm0-.07h0ZM7.34,9h0Zm0-.07h0Zm0-.07h0Zm0-.06h0Zm0-.06h0Zm0-.06h0Zm0-.06h0Zm-.06-.07h0Zm0-.06h0Zm0-.06h0Zm0-.06h0Zm.11-.06h0Zm.24-.06h0Zm0-.07h0Zm0-.06h0Zm0-.06h0ZM7.57,8h0Zm-.18.27h0Zm0-.08h0Zm0,1.13v0Zm0-.12v0Zm-.06,0v0Zm.11.06v0Zm.07.06v0Zm0-.12v0Zm0-.13v0Zm0-.12V9Zm-.07.19v0Zm-.11,0v0Zm.24-.07v0Zm.05,0v0ZM7.39,9V9Zm.13,0V9Zm.11,0V9ZM7.57,9V9Zm.06-.13v0Zm0-.12v0Zm-.06-.06v0Zm.06-.07v0Zm-.11,0v0Zm-.13,0v0Zm0-.06v0Zm.12,0v0Zm.11,0v0Zm.06-.06v0Zm-.11,0v0Zm-.13,0v0Zm0-.06v0Zm.23,0v0Zm-.11-.12v0Zm.53,0H8Zm0-.08H8ZM8,9.34v0Zm0-.12v0Zm.07,0v0ZM8,9.28v0Zm-.06.06v0Zm0-.12v0Zm0-.13v0Zm0-.12V9ZM8,9.16v0Zm.12,0v0Zm-.24-.07v0Zm-.06,0v0ZM8,9V9ZM7.87,9V9ZM7.75,9V9Zm.06,0V9Zm-.06-.13v0Zm0-.12v0Zm.06-.06v0Zm-.06-.07v0Zm.12,0v0Zm.12,0v0Zm0-.06v0Zm-.11,0v0Zm-.12,0v0Zm-.06-.06v0Zm.12,0v0Zm.12,0v0Zm0-.06v0Zm-.23,0v0Zm.12-.12v0ZM7.69,9V9Zm0-.25v0Zm0,.12v0Zm0-.25v0Zm0-.12v0Zm0-.18v0Zm0-.13v0Zm-.3.1h0Zm.24-.18h0Zm.24.18h0Z"/><path d="M7.22,9.35V9.09h.13V8.6h0V8.35h.12V8.26h0V8.14H7.4v0h0v0h0v0h.23V8.14H7.5l0,0h.05v.13H7.52v.07h.11V8.08H7.57V8h.08V8L7.57,8V8h.23V8L7.73,8l0,0h.06v.14H7.75v.26h.11V8.26H7.81V8.14h.07v0h0v0H7.81v.06H8V8.14H8l0,0H8v.13H8v.08h.11v.25H8v.48h.12v.26Zm.83,0h.12V9.27H7.45v.05h.46v0H8v0Zm.06-.07h.06V9.21H7.39v0H8v0l0,0h.11v0h0v0Zm-.06-.06h.11V9.15H7.45v.05h.46v0H8v0ZM8,9.15h.1V9.09H8v0H7.53v.06h.34V9.09h0v.06H8V9.09l0,.06Zm-.07-.07H8V9H7.56l0,0H7.8V9l0,0h.1v0ZM8,9H8V9h-.4V9h.12l0-.06h0V9h.11V9h0V9H8L8,9H8V9ZM7.93,9H8V8.9H7.68V9H7.8V8.9l0,.06h.1V9ZM7.76,8.9H8V8.83h-.4V8.9h.12l0-.06h0V8.9Zm-.42,0h.3V8.84H7.34V8.9Zm.35-.07H8V8.77H7.68v.05Zm-.35,0h.34V8.78H7.34v0Zm.42-.06H8V8.71h-.4v0h.12l0,0h0v0Zm-.42,0h.3v0H7.34v0Zm.48-.06H8V8.65H7.68v.05h.13l0-.05h0v.05Zm-.48,0h.24l0-.05H7.34v.05ZM8,8.65H8V8.59h-.4v.06h.12l0-.06h0v.06h.11V8.59h0v.06H8l0-.06H8v.06Zm.05-.06h.06V8.52H7.68v.06h.13l0-.06h0v.06h.11V8.53h0v.06h.11V8.53h0v.06ZM8,8.52h.1V8.46H7.64v0h.11v0h0v0h.11v0h0v0H8l0,0H8v0Zm.05-.06h0V8.4H7.68v.05h.13l0-.05h0v.05h.23V8.41h0v.05Zm-.7,0h.23l0-.05H7.35v0ZM7.28,8.4H8.1V8.35H8v0H7.28v0Zm.59-.13v0H8v0H8v0H7.82v0H8l-.12,0Zm-.47,0h.11v0h.06V8.2H7.34v0h.17l-.13,0Zm.23-.19h.18V8L7.58,8v.05h0Z"/><path class="cls-6" d="M7.85,9.34V9.18s0-.12-.16-.12-.16.09-.16.12v.16Z"/><path d="M7.86,9.35H7.53V9.18s0-.13.16-.13.17.11.17.13v.17Zm-.17-.28c-.14,0-.15.09-.15.11v.16h.3V9.18s0-.11-.15-.11Z"/><path class="cls-6" d="M7.59,9.19H7.51s0-.08,0-.09l.07.05a.08.08,0,0,0,0,0Z"/><path d="M7.6,9.2H7.51a.11.11,0,0,1,0-.11l.08.06,0,0Z"/><path class="cls-6" d="M7.8,9.19h.07s0-.08,0-.09l-.07.05a.09.09,0,0,1,0,0Z"/><path d="M7.79,9.2h0a.08.08,0,0,0,0,0l.07-.07a.13.13,0,0,1,0,.1l-.09,0Z"/><path class="cls-6" d="M7.72,9.11l0-.07H7.63l0,.07Z"/><path d="M7.72,9.12h0l0-.07a.11.11,0,0,1,.14,0l0,.08Z"/><path class="cls-6" d="M7.57,8.92V8.75a.07.07,0,0,0-.08-.08c-.06,0-.09,0-.09.08v.17Z"/><path d="M7.58,8.93H7.4V8.75a.09.09,0,0,1,.18,0v.18Zm-.09-.26a.08.08,0,0,0-.08.08v.17h.16V8.75a.08.08,0,0,0-.08-.08Z"/><path class="cls-6" d="M7.81,8.92V8.75c0-.05,0-.08.09-.08A.07.07,0,0,1,8,8.75v.17Z"/><path d="M8,8.93H7.81V8.75a.09.09,0,0,1,.18,0v.18ZM7.9,8.67a.08.08,0,0,0-.08.08v.17H8V8.75a.08.08,0,0,0-.08-.08Z"/><polygon class="cls-6" points="7.98 8.5 8 8.35 7.85 8.35 7.86 8.5 7.98 8.5"/><path d="M8,8.51H7.86l0-.16H8v.17Zm0-.16H7.85l0,.14H8V8.35Z"/><polygon class="cls-6" points="7.63 8.5 7.62 8.35 7.77 8.35 7.75 8.5 7.63 8.5"/><path d="M7.76,8.51H7.63l0-.16h.16v.17Zm0-.16H7.62l0,.14h.11V8.35Z"/><polygon class="cls-6" points="7.52 8.5 7.53 8.35 7.38 8.35 7.4 8.5 7.52 8.5"/><path d="M7.53,8.51H7.4l0-.16h.16v.17Zm0-.16H7.38l0,.14h.1V8.35Z"/><path class="cls-15" d="M7.8,9.34V9.21a.1.1,0,0,0-.11-.1.09.09,0,0,0-.1.1v.13Z"/><path class="cls-15" d="M7.56,8.9V8.76a.07.07,0,1,0-.14,0V8.9Z"/><path class="cls-15" d="M7.83,8.9V8.76a.07.07,0,1,1,.14,0V8.9Z"/><path class="cls-5" d="M8,9.62A.6.6,0,0,1,8.54,9,.63.63,0,1,1,8,9.62Z"/><path d="M8.54,10.25A.6.6,0,0,1,8,9.62.61.61,0,0,1,8.54,9a.61.61,0,0,1,.56.64.6.6,0,0,1-.56.63ZM8.54,9A.59.59,0,0,0,8,9.62a.58.58,0,0,0,.55.61.58.58,0,0,0,.54-.61A.58.58,0,0,0,8.54,9Z"/><g class="cls-16"><path class="cls-9" d="M8.15,9.62a.42.42,0,0,1,.39-.46.46.46,0,0,1,0,.91.42.42,0,0,1-.39-.45Z"/></g><path d="M8.54,10.08a.47.47,0,1,1,.4-.46.44.44,0,0,1-.4.46Zm0-.91a.45.45,0,1,0,.38.45.42.42,0,0,0-.38-.45Z"/><path class="cls-6" d="M8.35,9.3a.19.19,0,0,0,0,.1.22.22,0,0,0,0,.09.07.07,0,0,0-.05,0,0,0,0,0,0,0,.05,0,0,0,0,0,0,0v0a.05.05,0,0,1,0,0s0,0,0,0h0v0h0l0,.05h0l0,0,0,0h0l0-.05h0v0h0s0,0,0,0l0,0v0a0,0,0,0,0,0,0,0,0,0,0,0-.05-.05.07.07,0,0,0,0,0,.22.22,0,0,0,0-.09.17.17,0,0,0-.05-.1Z"/><path d="M8.35,9.7h0l0,0h0l0-.06h0V9.58h0l0,0,0,.07,0,0,0,0,0,0h0l0-.05h0l0,0a0,0,0,0,1,.07,0v0c0-.08-.06-.08-.08,0s0-.05,0-.08a.13.13,0,0,0-.05-.09.19.19,0,0,0,0,.09s0,.06,0,.08-.1,0-.1,0l0,.06s.07,0,.07,0h0a0,0,0,0,0,0,0h0l0,0c0-.08,0-.1.08-.07s0,0,0-.06a.17.17,0,0,1,0-.1.13.13,0,0,1,.06.1s0,0,0,.06.09,0,.09,0l0,.06h0a0,0,0,0,0,0,0h0v0h0l0,0h0l0,0Z"/><rect class="cls-6" x="8.28" y="9.58" width="0.15" height="0.04"/><polygon points="8.44 9.63 8.28 9.63 8.28 9.59 8.44 9.58 8.44 9.63 8.44 9.63"/><path class="cls-6" d="M8.72,9.3a.17.17,0,0,0-.05.1.22.22,0,0,0,0,.09.07.07,0,0,0,0,0,0,0,0,0,0-.05.05v0l0,0s0,0,0,0a0,0,0,0,1,0,0h0v0h0l0,.05h0l0,0,0,0h0l0-.05h0v0h0a0,0,0,0,1,0,0l0,0,0,0v0a0,0,0,0,0-.05-.05,0,0,0,0,0,0,0,.41.41,0,0,0,0-.09.19.19,0,0,0,0-.1Z"/><path d="M8.72,9.7h0l0,0h0l0-.06h0V9.58h0l0,0,0,.07,0,0,0,0,0,0h0l0-.05h0l0,0a0,0,0,0,1,.07,0v0c0-.08-.06-.08-.08,0s0-.05,0-.08a.13.13,0,0,0,0-.09.22.22,0,0,0,0,.09s0,.06,0,.08-.09,0-.09,0l0,.06s.07,0,.07,0h0s0,0,0,0h0l0,0c0-.08.05-.1.09-.07a.13.13,0,0,1,0-.06.19.19,0,0,1,0-.1.13.13,0,0,1,.06.1.13.13,0,0,1,0,.06.06.06,0,0,1,.09,0l0,.06h0s0,0,0,0h0v0H8.75l0,0h0l0,0Z"/><rect class="cls-6" x="8.64" y="9.58" width="0.15" height="0.04"/><polygon points="8.8 9.63 8.64 9.63 8.64 9.59 8.8 9.58 8.8 9.63 8.8 9.63"/><path class="cls-6" d="M8.54,9.61a.17.17,0,0,0,0,.1.22.22,0,0,0,0,.09.05.05,0,0,0,0,0,0,0,0,0,0-.05,0,0,0,0,0,0,0,0v0l0,0s0,0,0,0h0v0h0l0,.06,0,0,0,0,0,0,0,0,0-.06h0v0h0s0,0,0,0l0,0v0a0,0,0,0,0,0,0,0,0,0,0,0-.05,0,.05.05,0,0,0,0,0,.22.22,0,0,0,0-.09.19.19,0,0,0,0-.1Z"/><path d="M8.54,10h0l0,0h0l0-.06h0v0h0v0h0l0,.06,0,0,0,0,0,0h0l0,0h0v0h0a0,0,0,0,1,.07,0v0c0-.08-.06-.08-.08-.05a.54.54,0,0,0,0-.08.13.13,0,0,0-.05-.09.22.22,0,0,0,0,.09.54.54,0,0,0,0,.08s-.09,0-.09,0l0,.06s.07,0,.07,0h0a0,0,0,0,0,0,0l0,0h0l0,0c0-.08.05-.09.09-.07a.11.11,0,0,1,0-.06.17.17,0,0,1,0-.1.13.13,0,0,1,.06.1s0,0,0,.06a.06.06,0,0,1,.09,0l0,.07,0,0a0,0,0,0,0,0,0h0v0h0l0,.05h0l0,0Z"/><rect class="cls-6" x="8.46" y="9.9" width="0.15" height="0.04"/><polygon points="8.62 9.94 8.46 9.94 8.46 9.9 8.61 9.89 8.62 9.94 8.62 9.94"/><path class="cls-6" d="M9.65,8H9.6a0,0,0,0,1,0,0h0s0,0,0,0h0v0H9.52s0,0,0,0h0a.1.1,0,0,1,0,0,.1.1,0,0,0,0,0l.1.06.08.08,0,0h0a0,0,0,0,1,0,0H9.64a0,0,0,0,1,0,0h0Z"/><path d="M9.67,8.13h0L9.58,8a.16.16,0,0,0-.1,0,.43.43,0,0,0,0,0v0h0s0,0,0,0h0a0,0,0,0,1,0,0v0a.1.1,0,0,1,0,0l.1.06a.15.15,0,0,1,.08.08l0,0h0v0l.05,0h0l0,0h0Zm0-.07V8h0l0,0,0,0,0,0,0,0h.08V8l0,0h.05v0Z"/><polygon points="9.57 7.99 9.58 7.99 9.58 8 9.57 8 9.57 7.99 9.57 7.99"/><polygon class="cls-1" points="9.57 7.99 9.58 7.99 9.58 8 9.57 8 9.57 7.99"/><polygon points="9.6 8.02 9.59 8.01 9.59 8.01 9.6 8.01 9.61 8.01 9.62 8.02 9.62 8.03 9.61 8.03 9.6 8.02 9.6 8.02"/><polygon class="cls-1" points="9.6 8.02 9.59 8.01 9.59 8.01 9.6 8.01 9.61 8.01 9.62 8.02 9.62 8.03 9.61 8.03 9.6 8.02 9.6 8.02"/><polygon points="9.54 7.98 9.53 7.97 9.53 7.97 9.54 7.97 9.55 7.97 9.55 7.98 9.56 7.98 9.55 7.98 9.54 7.98 9.54 7.98"/><polygon class="cls-1" points="9.54 7.98 9.53 7.97 9.53 7.97 9.54 7.97 9.55 7.97 9.55 7.98 9.56 7.98 9.55 7.98 9.54 7.98 9.54 7.98"/><polygon points="9.51 7.95 9.52 7.95 9.52 7.96 9.51 7.96 9.51 7.95 9.51 7.95"/><polygon class="cls-1" points="9.51 7.95 9.52 7.95 9.52 7.96 9.51 7.96 9.51 7.95"/><polygon points="9.64 8.04 9.64 8.04 9.63 8.04 9.63 8.04 9.64 8.04 9.64 8.04"/><polygon class="cls-1" points="9.64 8.04 9.64 8.04 9.63 8.04 9.63 8.04 9.64 8.04"/><polygon points="9.66 8.07 9.66 8.07 9.67 8.07 9.67 8.07 9.66 8.06 9.66 8.05 9.65 8.05 9.65 8.06 9.66 8.07 9.66 8.07"/><polygon class="cls-1" points="9.66 8.07 9.66 8.07 9.67 8.07 9.67 8.07 9.66 8.06 9.66 8.05 9.65 8.05 9.65 8.06 9.66 8.07 9.66 8.07"/><polygon points="9.69 8.09 9.69 8.09 9.68 8.09 9.68 8.09 9.69 8.09 9.69 8.09"/><polygon class="cls-1" points="9.69 8.09 9.69 8.09 9.68 8.09 9.68 8.09 9.69 8.09"/><polygon class="cls-6" points="9.6 7.89 9.58 7.89 9.57 7.92 9.57 7.92 9.58 7.92 9.61 7.91 9.6 7.89"/><polygon class="cls-1" points="9.6 7.89 9.58 7.89 9.57 7.92 9.57 7.92 9.58 7.92 9.61 7.91 9.6 7.89 9.6 7.89"/><polygon class="cls-6" points="9.54 7.9 9.54 7.92 9.57 7.93 9.58 7.92 9.58 7.92 9.56 7.9 9.54 7.9"/><polygon class="cls-1" points="9.54 7.9 9.54 7.92 9.57 7.93 9.58 7.92 9.58 7.92 9.56 7.9 9.54 7.9 9.54 7.9"/><polygon class="cls-6" points="9.61 7.94 9.59 7.95 9.57 7.93 9.57 7.92 9.58 7.92 9.61 7.92 9.61 7.94"/><polygon class="cls-1" points="9.61 7.94 9.59 7.95 9.57 7.93 9.57 7.92 9.58 7.92 9.61 7.92 9.61 7.94 9.61 7.94"/><path class="cls-6" d="M9.57,7.92h0s0,0,0,0Z"/><path class="cls-1" d="M9.57,7.92h0S9.56,7.92,9.57,7.92Z"/><path class="cls-6" d="M9.49,7.89a0,0,0,0,0,0,0h0s0,0,0,0Z"/><path class="cls-1" d="M9.49,7.89a0,0,0,0,0,0,0h0s0,0,0,0Z"/><polygon class="cls-6" points="9.53 7.9 9.51 7.91 9.49 7.89 9.49 7.89 9.49 7.88 9.52 7.88 9.53 7.9"/><polygon class="cls-1" points="9.53 7.9 9.51 7.91 9.49 7.89 9.49 7.89 9.49 7.88 9.52 7.88 9.53 7.9 9.53 7.9"/><path class="cls-6" d="M9.49,7.89h0s0,0,0,0Z"/><path class="cls-1" d="M9.49,7.89h0s0,0,0,0Z"/><polygon class="cls-6" points="9.67 7.94 9.65 7.93 9.64 7.96 9.65 7.97 9.65 7.97 9.68 7.96 9.67 7.94"/><polygon class="cls-1" points="9.67 7.94 9.65 7.93 9.64 7.96 9.65 7.97 9.65 7.97 9.68 7.96 9.67 7.94 9.67 7.94"/><polygon class="cls-6" points="9.62 7.95 9.61 7.96 9.64 7.97 9.65 7.97 9.65 7.96 9.63 7.94 9.62 7.95"/><polygon class="cls-1" points="9.62 7.95 9.61 7.96 9.64 7.97 9.65 7.97 9.65 7.96 9.63 7.94 9.62 7.95 9.62 7.95"/><polygon class="cls-6" points="9.68 7.99 9.66 8 9.64 7.97 9.64 7.97 9.65 7.96 9.68 7.97 9.68 7.99"/><polygon class="cls-1" points="9.68 7.99 9.66 8 9.64 7.97 9.64 7.97 9.65 7.96 9.68 7.97 9.68 7.99 9.68 7.99"/><path class="cls-6" d="M9.64,8h0s0,0,0,0a0,0,0,0,1,0,0V8Z"/><path class="cls-1" d="M9.64,8h0s0,0,0,0a0,0,0,0,1,0,0Z"/><polygon class="cls-6" points="9.74 8 9.74 8.02 9.71 8.03 9.71 8.03 9.71 8.02 9.72 7.99 9.74 8"/><polygon class="cls-1" points="9.74 8 9.74 8.02 9.71 8.03 9.71 8.03 9.71 8.02 9.72 7.99 9.74 8 9.74 8"/><polygon class="cls-6" points="9.73 8.05 9.72 8.06 9.71 8.03 9.71 8.02 9.71 8.02 9.74 8.04 9.73 8.05"/><polygon class="cls-1" points="9.73 8.05 9.72 8.06 9.71 8.03 9.71 8.02 9.71 8.02 9.74 8.04 9.73 8.05 9.73 8.05"/><polygon class="cls-6" points="9.68 8 9.68 8.02 9.71 8.03 9.71 8.03 9.71 8.02 9.7 8 9.68 8"/><polygon class="cls-1" points="9.68 8 9.68 8.02 9.71 8.03 9.71 8.03 9.71 8.02 9.7 8 9.68 8 9.68 8"/><path class="cls-6" d="M9.72,8h0Z"/><path class="cls-1" d="M9.72,8h0Z"/><path class="cls-6" d="M9.76,8.1h.05a0,0,0,0,0,0,0,0,0,0,0,0,0,0Z"/><path class="cls-1" d="M9.76,8.1h.05a0,0,0,0,0,0,0,0,0,0,0,0,0,0Z"/><polygon class="cls-6" points="9.74 8.06 9.73 8.08 9.76 8.1 9.76 8.1 9.77 8.09 9.76 8.06 9.74 8.06"/><polygon class="cls-1" points="9.74 8.06 9.73 8.08 9.76 8.1 9.76 8.1 9.77 8.09 9.76 8.06 9.74 8.06 9.74 8.06"/><path class="cls-6" d="M9.77,8.1h0Z"/><path class="cls-1" d="M9.77,8.1h0Z"/><polygon class="cls-1" points="11.12 7.32 11.12 7.34 11.04 7.34 11.04 7.32 11.07 7.32 11.07 7.27 11.05 7.27 11.05 7.25 11.07 7.25 11.07 7.23 11.09 7.23 11.09 7.25 11.11 7.25 11.11 7.27 11.09 7.27 11.09 7.32 11.12 7.32 11.12 7.32"/></g></g></g></g></g></g></g></svg>