<svg xmlns="http://www.w3.org/2000/svg" xmlns:xlink="http://www.w3.org/1999/xlink" viewBox="0 0 29.46 17.19"><defs><style>.cls-1{fill:none;}.cls-2{clip-path:url(#clip-path);}.cls-3{fill:#58b44d;}.cls-4{fill:#fff;}.cls-5{fill:#ea0042;}.cls-6{fill:#cfb428;}</style><clipPath id="clip-path"><rect class="cls-1" width="29.46" height="17.19"/></clipPath></defs><g id="Layer_2" data-name="Layer 2"><g id="cá»"><g id="central_asia" data-name="central asia"><g class="cls-2"><rect class="cls-3" y="12.28" width="29.46" height="4.91"/><rect class="cls-4" y="4.91" width="29.46" height="7.37"/><rect class="cls-5" width="29.46" height="4.91"/><g class="cls-2"><path class="cls-6" d="M14.71,10.34a1,1,0,0,0,1.11.13.78.78,0,0,0,1.12.18A1.49,1.49,0,0,1,15.8,10a.78.78,0,0,1-.89-.09V8.51l.71-.7a1,1,0,0,0-1.83,0l.71.7v1.4a.8.8,0,0,1-.9.09,1.47,1.47,0,0,1-1.13.65.78.78,0,0,0,1.12-.18,1,1,0,0,0,1.11-.13Zm0-2.07a1.11,1.11,0,0,0-.54-.42.64.64,0,0,1,1.08,0,1.11,1.11,0,0,0-.54.42"/><path class="cls-6" d="M14.71,11.06a1.69,1.69,0,0,0-1.29.47l-.18-.2c.16-.2.39-.27.44-.53a.33.33,0,0,0-.07-.31.82.82,0,0,0,.65.25.6.6,0,0,0,.45-.31m0,0a.6.6,0,0,0,.45.31.78.78,0,0,0,.64-.25.36.36,0,0,0-.07.31c.06.26.28.33.45.53l-.19.2a1.67,1.67,0,0,0-1.28-.47"/><polygon class="cls-6" points="17.86 8.78 17.99 9.17 18.39 9.17 18.06 9.4 18.19 9.78 17.86 9.55 17.54 9.78 17.66 9.4 17.34 9.17 17.74 9.17 17.86 8.78"/><polygon class="cls-6" points="17.44 7.22 17.57 7.6 17.97 7.6 17.64 7.84 17.77 8.22 17.44 7.98 17.12 8.22 17.24 7.84 16.92 7.6 17.32 7.6 17.44 7.22"/><polygon class="cls-6" points="16.3 6.07 16.42 6.45 16.82 6.45 16.5 6.69 16.62 7.07 16.3 6.83 15.97 7.07 16.1 6.69 15.77 6.45 16.17 6.45 16.3 6.07"/><polygon class="cls-6" points="14.73 5.65 14.86 6.03 15.26 6.03 14.93 6.27 15.06 6.65 14.73 6.42 14.41 6.65 14.53 6.27 14.21 6.03 14.61 6.03 14.73 5.65"/><polygon class="cls-6" points="13.16 6.07 13.29 6.45 13.69 6.45 13.37 6.69 13.49 7.07 13.16 6.83 12.84 7.07 12.96 6.69 12.64 6.45 13.04 6.45 13.16 6.07"/><polygon class="cls-6" points="12.02 7.22 12.14 7.6 12.54 7.6 12.22 7.84 12.34 8.22 12.02 7.98 11.69 8.22 11.82 7.84 11.49 7.6 11.89 7.6 12.02 7.22"/><polygon class="cls-6" points="11.6 8.78 11.72 9.17 12.12 9.17 11.8 9.4 11.92 9.78 11.6 9.55 11.27 9.78 11.4 9.4 11.07 9.17 11.47 9.17 11.6 8.78"/></g></g></g></g></g></svg>