<svg xmlns="http://www.w3.org/2000/svg" xmlns:xlink="http://www.w3.org/1999/xlink" viewBox="0 0 29.46 17.19"><defs><style>.cls-1,.cls-7{fill:none;}.cls-2{clip-path:url(#clip-path);}.cls-3,.cls-8{fill:#307359;}.cls-4{fill:#bf0236;}.cls-5,.cls-9{fill:#e0852a;}.cls-12,.cls-13,.cls-15,.cls-16,.cls-5,.cls-6,.cls-8{fill-rule:evenodd;}.cls-14,.cls-6{fill:#c03f2a;}.cls-7{stroke:#292c2f;stroke-linecap:square;stroke-miterlimit:10;stroke-width:0;}.cls-10,.cls-15{fill:#cf3b1d;}.cls-11{fill:#ad3b2b;}.cls-12{fill:#fff;}.cls-13{fill:#ab3b2c;}.cls-16{fill:#fbfcfc;}</style><clipPath id="clip-path"><rect class="cls-1" width="29.46" height="17.19"/></clipPath></defs><g id="Layer_2" data-name="Layer 2"><g id="cá»"><g id="central_asia" data-name="central asia"><g class="cls-2"><rect class="cls-3" width="29.46" height="17.19"/><rect class="cls-4" x="3.09" width="4.64" height="17.19"/><polygon class="cls-5" points="3.09 4.8 3.09 4.67 3.29 4.33 3.24 4.27 3.36 4.08 3.33 4.02 3.24 4.15 3.21 4.08 3.48 3.62 3.53 3.69 3.48 3.75 3.56 3.89 3.76 3.55 3.56 3.24 3.48 3.35 3.53 3.42 3.48 3.49 3.21 3.02 3.24 2.96 3.33 3.09 3.36 3.02 3.24 2.84 3.29 2.77 3.09 2.44 3.09 2.31 3.36 2.77 3.33 2.84 3.44 3.02 3.36 3.15 3.44 3.29 3.56 3.09 3.83 3.55 3.56 4.02 3.44 3.82 3.36 3.95 3.44 4.08 3.33 4.27 3.36 4.33 3.09 4.8"/><polygon class="cls-5" points="3.09 3.15 3.14 3.29 3.14 3.49 3.26 3.49 3.33 3.55 3.26 3.62 3.14 3.62 3.14 3.82 3.09 3.95 3.09 3.15"/><polygon class="cls-5" points="3.09 7.95 3.09 7.82 3.29 7.49 3.24 7.42 3.36 7.22 3.33 7.16 3.24 7.29 3.21 7.22 3.48 6.78 3.53 6.84 3.48 6.91 3.56 7.04 3.76 6.71 3.56 6.39 3.48 6.51 3.53 6.58 3.48 6.64 3.21 6.18 3.24 6.11 3.33 6.24 3.36 6.18 3.24 5.98 3.29 5.91 3.09 5.6 3.09 5.46 3.36 5.91 3.33 5.98 3.44 6.18 3.36 6.31 3.44 6.44 3.56 6.24 3.83 6.71 3.56 7.16 3.44 6.97 3.36 7.11 3.44 7.22 3.33 7.42 3.36 7.49 3.09 7.95"/><polygon class="cls-5" points="3.09 6.31 3.14 6.44 3.14 6.64 3.26 6.64 3.33 6.71 3.26 6.78 3.14 6.78 3.14 6.97 3.09 7.11 3.09 6.31"/><polygon class="cls-5" points="3.09 11.11 3.09 10.98 3.29 10.64 3.24 10.58 3.36 10.38 3.33 10.31 3.24 10.45 3.21 10.38 3.48 9.93 3.53 9.98 3.48 10.05 3.56 10.18 3.76 9.86 3.56 9.53 3.48 9.66 3.53 9.73 3.48 9.8 3.21 9.33 3.24 9.27 3.33 9.4 3.36 9.33 3.24 9.13 3.29 9.07 3.09 8.73 3.09 8.6 3.36 9.07 3.33 9.13 3.44 9.33 3.36 9.46 3.44 9.6 3.56 9.4 3.83 9.86 3.56 10.31 3.44 10.11 3.36 10.24 3.44 10.38 3.33 10.58 3.36 10.64 3.09 11.11"/><polygon class="cls-5" points="3.09 9.46 3.14 9.6 3.14 9.8 3.26 9.8 3.33 9.86 3.26 9.93 3.14 9.93 3.14 10.11 3.09 10.24 3.09 9.46"/><polygon class="cls-5" points="3.09 14.06 3.09 13.93 3.29 13.6 3.24 13.53 3.36 13.33 3.33 13.27 3.24 13.4 3.21 13.33 3.48 12.87 3.53 12.94 3.48 13 3.56 13.13 3.76 12.8 3.56 12.49 3.48 12.62 3.53 12.69 3.48 12.75 3.21 12.29 3.24 12.22 3.33 12.35 3.36 12.29 3.24 12.09 3.29 12.02 3.09 11.69 3.09 11.56 3.36 12.02 3.33 12.09 3.44 12.29 3.36 12.42 3.44 12.55 3.56 12.35 3.83 12.82 3.56 13.27 3.44 13.07 3.36 13.2 3.44 13.33 3.33 13.53 3.36 13.6 3.09 14.06"/><polygon class="cls-5" points="3.09 12.42 3.14 12.55 3.14 12.75 3.26 12.75 3.33 12.8 3.26 12.87 3.14 12.87 3.14 13.07 3.09 13.2 3.09 12.42"/><polygon class="cls-5" points="7.73 4.8 7.73 4.67 7.53 4.33 7.58 4.27 7.47 4.08 7.5 4.02 7.58 4.15 7.62 4.08 7.35 3.62 7.3 3.69 7.35 3.75 7.27 3.89 7.08 3.55 7.27 3.24 7.35 3.35 7.3 3.42 7.35 3.49 7.62 3.02 7.58 2.96 7.5 3.09 7.47 3.02 7.58 2.84 7.53 2.77 7.73 2.44 7.73 2.31 7.47 2.77 7.5 2.84 7.38 3.02 7.47 3.15 7.38 3.29 7.27 3.09 7 3.55 7.27 4.02 7.38 3.82 7.47 3.95 7.38 4.08 7.5 4.27 7.47 4.33 7.73 4.8"/><polygon class="cls-5" points="7.73 3.15 7.7 3.29 7.7 3.49 7.58 3.49 7.5 3.55 7.58 3.62 7.7 3.62 7.7 3.82 7.73 3.95 7.73 3.15"/><polygon class="cls-5" points="7.73 7.95 7.73 7.82 7.53 7.49 7.58 7.42 7.47 7.22 7.5 7.16 7.58 7.29 7.62 7.22 7.35 6.78 7.3 6.84 7.35 6.91 7.27 7.04 7.08 6.71 7.27 6.39 7.35 6.51 7.3 6.58 7.35 6.64 7.62 6.18 7.58 6.11 7.5 6.24 7.47 6.18 7.58 5.98 7.53 5.91 7.73 5.6 7.73 5.46 7.47 5.91 7.5 5.98 7.38 6.18 7.47 6.31 7.38 6.44 7.27 6.24 7 6.71 7.27 7.16 7.38 6.97 7.47 7.11 7.38 7.22 7.5 7.42 7.47 7.49 7.73 7.95"/><polygon class="cls-5" points="7.73 6.31 7.7 6.44 7.7 6.64 7.58 6.64 7.5 6.71 7.58 6.78 7.7 6.78 7.7 6.97 7.73 7.11 7.73 6.31"/><polygon class="cls-5" points="7.73 11.11 7.73 10.98 7.53 10.64 7.58 10.58 7.47 10.38 7.5 10.31 7.58 10.45 7.62 10.38 7.35 9.93 7.3 9.98 7.35 10.05 7.27 10.18 7.08 9.86 7.27 9.53 7.35 9.66 7.3 9.73 7.35 9.8 7.62 9.33 7.58 9.27 7.5 9.4 7.47 9.33 7.58 9.13 7.53 9.07 7.73 8.73 7.73 8.6 7.47 9.07 7.5 9.13 7.38 9.33 7.47 9.46 7.38 9.6 7.27 9.4 7 9.86 7.27 10.31 7.38 10.11 7.47 10.24 7.38 10.38 7.5 10.58 7.47 10.64 7.73 11.11"/><polygon class="cls-5" points="7.73 9.46 7.7 9.6 7.7 9.8 7.58 9.8 7.5 9.86 7.58 9.93 7.7 9.93 7.7 10.11 7.73 10.24 7.73 9.46"/><polygon class="cls-5" points="7.73 14.06 7.73 13.93 7.53 13.6 7.58 13.53 7.47 13.33 7.5 13.27 7.58 13.4 7.62 13.33 7.35 12.87 7.3 12.94 7.35 13 7.27 13.13 7.08 12.8 7.27 12.49 7.35 12.62 7.3 12.69 7.35 12.75 7.62 12.29 7.58 12.22 7.5 12.35 7.47 12.29 7.58 12.09 7.53 12.02 7.73 11.69 7.73 11.56 7.47 12.02 7.5 12.09 7.38 12.29 7.47 12.42 7.38 12.55 7.27 12.35 7 12.82 7.27 13.27 7.38 13.07 7.47 13.2 7.38 13.33 7.5 13.53 7.47 13.6 7.73 14.06"/><polygon class="cls-5" points="7.73 12.42 7.7 12.55 7.7 12.75 7.58 12.75 7.5 12.8 7.58 12.87 7.7 12.87 7.7 13.07 7.73 13.2 7.73 12.42"/><polygon class="cls-5" points="3.09 1.26 3.09 1.13 3.29 0.8 3.24 0.73 3.36 0.53 3.33 0.47 3.24 0.6 3.21 0.53 3.48 0.07 3.53 0.13 3.48 0.2 3.56 0.33 3.76 0 3.83 0 3.56 0.47 3.44 0.27 3.36 0.4 3.44 0.53 3.33 0.73 3.36 0.8 3.09 1.26"/><polygon class="cls-5" points="3.09 0 3.33 0 3.26 0.07 3.14 0.07 3.14 0.27 3.09 0.4 3.09 0"/><polygon class="cls-5" points="7.73 1.26 7.73 1.13 7.53 0.8 7.58 0.73 7.47 0.53 7.5 0.47 7.58 0.6 7.62 0.53 7.35 0.07 7.3 0.13 7.35 0.2 7.27 0.33 7.08 0 7 0 7.27 0.47 7.38 0.27 7.47 0.4 7.38 0.53 7.5 0.73 7.47 0.8 7.73 1.26"/><polygon class="cls-5" points="7.73 0 7.5 0 7.58 0.07 7.7 0.07 7.7 0.27 7.73 0.4 7.73 0"/><g class="cls-2"><path class="cls-5" d="M5,17a.94.94,0,0,1,.6-.33c.42-.07.48.18.73.18A1.94,1.94,0,0,0,7,16.71a1.24,1.24,0,0,1-.68.31c-.29,0-.39-.17-.68-.13A2,2,0,0,0,5,17Z"/><path class="cls-5" d="M5.84,17a.93.93,0,0,0-.58-.33c-.42-.07-.5.18-.74.18a1.77,1.77,0,0,1-.61-.18,1.16,1.16,0,0,0,.66.31c.3,0,.4-.17.7-.13a1.76,1.76,0,0,1,.57.15Z"/><path class="cls-5" d="M4.47,16.62c0-.06-.13-.36-.08-.4s.27.29.25.55c-.13.05-.56,0-.56-.1s.28-.08.39-.05Z"/><path class="cls-5" d="M4.21,16.37c0-.08-.07-.4,0-.41s.22.33.15.6c-.13,0-.55-.17-.51-.25s.28,0,.38.06Z"/><path class="cls-5" d="M4,16.07c0-.06,0-.38,0-.39s.19.36.09.59c-.13,0-.53-.23-.5-.3s.28,0,.38.1Z"/><path class="cls-5" d="M3.83,15.78c0-.09,0-.4.08-.4s.13.4,0,.61c-.13,0-.48-.31-.45-.38s.28.08.37.17Z"/><path class="cls-5" d="M3.71,15.46c0-.08.07-.38.13-.38s.09.4-.06.61c-.15,0-.45-.41-.42-.46s.27.13.35.23Z"/><path class="cls-5" d="M3.74,15.09c0,.32-.08.32-.2.09s-.06-.47,0-.47.21.25.21.38Z"/><path class="cls-5" d="M6.39,16.66c0-.07.11-.37.06-.4s-.26.28-.25.54c.14.05.57,0,.57-.09s-.28-.09-.38-.05Z"/><path class="cls-5" d="M6.64,16.41c0-.09.06-.4,0-.42s-.21.33-.15.6c.14,0,.55-.17.54-.25s-.29,0-.4.07Z"/><path class="cls-5" d="M6.85,16.11c0-.07,0-.38,0-.4s-.18.36-.08.6c.13,0,.53-.24.49-.3s-.28,0-.38.1Z"/><path class="cls-5" d="M7,15.81c0-.08,0-.4-.08-.4s-.14.4,0,.61c.13,0,.48-.31.44-.38s-.26.09-.36.17Z"/><path class="cls-5" d="M7.13,15.49c0-.08-.06-.38-.13-.38a.67.67,0,0,0,.08.62c.14,0,.44-.42.4-.47s-.26.13-.35.23Z"/><path class="cls-5" d="M7.12,15.13c0,.31.07.31.18.08s.07-.46,0-.46-.2.25-.2.38Z"/><polygon class="cls-6" points="7.02 11.82 6.79 11.82 6.79 12.02 6.57 12.02 6.57 12.22 5.67 12.22 5.52 12.42 5.61 12.52 5.97 12.52 6.05 12.42 5.67 12.42 5.75 12.32 6.27 12.32 6.05 12.62 5.52 12.62 5.37 12.52 5.22 12.62 4.71 12.62 4.49 12.32 5.01 12.32 5.07 12.42 4.71 12.42 4.79 12.52 5.16 12.52 5.22 12.42 5.07 12.22 4.26 12.22 4.26 12.02 4.04 12.02 4.04 11.82 3.83 11.82 3.83 10.91 4.04 10.91 4.04 10.71 4.26 10.71 4.26 10.51 5.07 10.51 5.22 10.31 5.16 10.21 4.79 10.21 4.71 10.31 5.07 10.31 5.01 10.41 4.49 10.41 4.71 10.11 5.22 10.11 5.37 10.21 5.52 10.11 6.05 10.11 6.27 10.41 5.75 10.41 5.67 10.31 6.05 10.31 5.97 10.21 5.61 10.21 5.52 10.31 5.67 10.51 6.57 10.51 6.57 10.71 6.79 10.71 6.79 10.91 7.02 10.91 7.02 11.82"/><polygon class="cls-7" points="7.02 11.82 6.79 11.82 6.79 12.02 6.57 12.02 6.57 12.22 5.67 12.22 5.52 12.42 5.61 12.52 5.97 12.52 6.05 12.42 5.67 12.42 5.75 12.32 6.27 12.32 6.05 12.62 5.52 12.62 5.37 12.52 5.22 12.62 4.71 12.62 4.49 12.32 5.01 12.32 5.07 12.42 4.71 12.42 4.79 12.52 5.16 12.52 5.22 12.42 5.07 12.22 4.26 12.22 4.26 12.02 4.04 12.02 4.04 11.82 3.83 11.82 3.83 10.91 4.04 10.91 4.04 10.71 4.26 10.71 4.26 10.51 5.07 10.51 5.22 10.31 5.16 10.21 4.79 10.21 4.71 10.31 5.07 10.31 5.01 10.41 4.49 10.41 4.71 10.11 5.22 10.11 5.37 10.21 5.52 10.11 6.05 10.11 6.27 10.41 5.75 10.41 5.67 10.31 6.05 10.31 5.97 10.21 5.61 10.21 5.52 10.31 5.67 10.51 6.57 10.51 6.57 10.71 6.79 10.71 6.79 10.91 7.02 10.91 7.02 11.82"/><polygon class="cls-8" points="3.89 11.03 3.89 11.72 4.11 11.72 4.11 11.92 4.34 11.92 4.34 12.12 5.07 12.12 5.37 12.42 5.67 12.12 6.49 12.12 6.49 11.92 6.72 11.92 6.72 11.72 6.94 11.72 6.94 11.01 6.72 11.01 6.72 10.81 6.49 10.83 6.49 10.61 5.67 10.61 5.37 10.31 5.07 10.61 4.34 10.61 4.34 10.83 4.11 10.83 4.11 11.03 3.89 11.03"/><path class="cls-9" d="M3.94,11.72h-.1V11h.1Zm0,0H3.84v0h.05Zm0-.1h.22v.1H3.89Zm.22,0h0v.05h0Zm0,.25h-.1v-.2h.1Zm0,.05H4.06v-.05h.05Zm0-.1h.23V12H4.11Zm.23,0h0v.05h0Zm0,.25h-.1v-.2h.1Zm0,.05h0v-.05h0Zm0-.1h.73v.1H4.34Zm.73,0h0l0,0Zm0,0,.29.3-.07.08L5,12.16Zm.29.38,0,0,0,0,0,0Zm-.07-.08.3-.3.07.09-.3.29Zm.3-.3h0v0Zm0,0h.82v.1H5.67Zm.87.1h0v-.05h0Zm-.1-.25h.1v.2h-.1Zm0-.05h0v.05h0Zm0,0h.23V12H6.49Zm.28.1h0v-.05h0Zm-.1-.25h.1v.2h-.1Zm0-.05h0v.05h0Zm0,0h.22v.1H6.72Zm.27.1h0v0H7ZM6.89,11H7v.71h-.1Zm.05,0H7v0h0Zm0,.1H6.72V11h.22Zm-.22,0h0V11h0Zm0-.25h.1V11h-.1Zm0-.05h0v.05h0Zm0,.1-.23,0v-.1l.23,0Zm-.23,0h0v-.05h0Zm0-.27h.1v.22h-.1Zm0,0h0v0h0Zm0,.1H5.67v-.1h.82Zm-.82,0h0l0-.05Zm0,0-.3-.3.07-.08.3.3Zm-.3-.38,0,0,0,0,0,0Zm.07.08-.29.3L5,10.58l.3-.3Zm-.29.3h0v-.05Zm0,0H4.34v-.1h.73Zm-.78-.1h0v0h0Zm.1.27h-.1v-.22h.1Zm0,.05h0v-.05h0Zm0,0H4.11v-.1h.23Zm-.28-.1h.05v.05H4.06Zm.1.25h-.1v-.2h.1Zm0,.05h0V11h0Zm0,0H3.89V11h.22ZM3.84,11h.05v0H3.84Z"/><polygon class="cls-6" points="4.94 10.71 4.49 11.21 4.49 10.71 4.94 10.71"/><polygon class="cls-6" points="5.82 10.71 6.27 11.21 6.27 10.71 5.82 10.71"/><polygon class="cls-6" points="4.94 12.02 4.49 11.52 4.49 12.02 4.94 12.02"/><polygon class="cls-6" points="5.82 12.02 6.27 11.52 6.27 12.02 5.82 12.02"/><polygon class="cls-6" points="5.97 11.01 5.82 11.21 6.12 11.21 5.97 11.01"/><polygon class="cls-6" points="4.79 11.01 4.64 11.21 4.94 11.21 4.79 11.01"/><polygon class="cls-6" points="4.79 11.72 4.64 11.52 4.94 11.52 4.79 11.72"/><polygon class="cls-6" points="5.97 11.72 5.82 11.52 6.12 11.52 5.97 11.72"/><polygon class="cls-5" points="5.37 12.22 5.22 12.02 5.52 12.02 5.37 12.22"/><polygon class="cls-5" points="5.37 11.21 5.22 11.01 5.52 11.01 5.37 11.21"/><polygon class="cls-5" points="5.37 10.51 5.22 10.71 5.52 10.71 5.37 10.51"/><polygon class="cls-5" points="5.37 11.52 5.22 11.72 5.52 11.72 5.37 11.52"/><rect class="cls-9" x="5.82" y="11.21" width="0.3" height="0.1"/><rect class="cls-7" x="5.82" y="11.21" width="0.3" height="0.1"/><rect class="cls-10" x="4.71" y="11.31" width="0.15" height="0.12"/><rect class="cls-7" x="4.71" y="11.31" width="0.15" height="0.12"/><rect class="cls-10" x="5.9" y="11.31" width="0.15" height="0.12"/><rect class="cls-7" x="5.9" y="11.31" width="0.15" height="0.12"/><rect class="cls-11" x="5.22" y="10.71" width="0.3" height="0.1"/><rect class="cls-7" x="5.22" y="10.71" width="0.3" height="0.1"/><rect class="cls-11" x="5.22" y="10.91" width="0.3" height="0.1"/><rect class="cls-7" x="5.22" y="10.91" width="0.3" height="0.1"/><rect class="cls-11" x="5.16" y="10.81" width="0.45" height="0.1"/><rect class="cls-7" x="5.16" y="10.81" width="0.45" height="0.1"/><rect class="cls-11" x="5.22" y="11.72" width="0.3" height="0.1"/><rect class="cls-7" x="5.22" y="11.72" width="0.3" height="0.1"/><rect class="cls-11" x="5.22" y="11.92" width="0.3" height="0.1"/><rect class="cls-7" x="5.22" y="11.92" width="0.3" height="0.1"/><rect class="cls-11" x="5.16" y="11.82" width="0.45" height="0.1"/><rect class="cls-7" x="5.16" y="11.82" width="0.45" height="0.1"/><rect class="cls-9" x="5.82" y="11.42" width="0.3" height="0.1"/><rect class="cls-7" x="5.82" y="11.42" width="0.3" height="0.1"/><rect class="cls-9" x="4.64" y="11.21" width="0.3" height="0.1"/><rect class="cls-7" x="4.64" y="11.21" width="0.3" height="0.1"/><rect class="cls-9" x="4.64" y="11.42" width="0.3" height="0.1"/><rect class="cls-7" x="4.64" y="11.42" width="0.3" height="0.1"/><rect class="cls-9" x="4.56" y="11.31" width="0.15" height="0.12"/><rect class="cls-7" x="4.56" y="11.31" width="0.15" height="0.12"/><rect class="cls-9" x="4.86" y="11.31" width="0.15" height="0.12"/><rect class="cls-7" x="4.86" y="11.31" width="0.15" height="0.12"/><rect class="cls-9" x="5.75" y="11.31" width="0.15" height="0.12"/><rect class="cls-7" x="5.75" y="11.31" width="0.15" height="0.12"/><rect class="cls-9" x="6.05" y="11.31" width="0.13" height="0.12"/><rect class="cls-7" x="6.05" y="11.31" width="0.13" height="0.12"/><path class="cls-12" d="M5.21,11.87a0,0,0,0,1,0,0l0,0,0,0s0,0,0,0Z"/><path class="cls-12" d="M5.41,11.87l0,0v-.05a0,0,0,0,1,0,0Z"/><path class="cls-12" d="M5.59,11.86l0,0a0,0,0,0,1,0,0,0,0,0,0,1,0,0Z"/><path class="cls-12" d="M5.29,11.77l0,0s0,0,0,0,0,0,0,0l0,0Z"/><path class="cls-12" d="M5.5,11.76s0,0,0,0,0,0,0,0a0,0,0,0,1,0,0s0,0,0,0Z"/><path class="cls-12" d="M5.29,12l0,0s0,0,0,0,0,0,0,0Z"/><path class="cls-12" d="M5.5,12s0,0,0,0,0,0,0,0,0,0,0,0,0,0,0,0Z"/><path class="cls-12" d="M5.8,11.36a0,0,0,0,1,0,0s0,0,0,0,0,0,0,0,0,0,0,0Z"/><path class="cls-12" d="M6,11.36s0,0,0,0,0,0,0,0,0,0,0,0,0,0,0,0Z"/><path class="cls-12" d="M6.17,11.36s0,0,0,0,0,0,0,0,0,0,0,0,0,0,0,0Z"/><path class="cls-12" d="M5.87,11.26s0,0,0,0a0,0,0,0,1,0,0s0,0,0,0,0,0,0,0Z"/><path class="cls-12" d="M6.1,11.26a0,0,0,0,1,0,0s0,0,0,0,0,0,0,0,0,0,0,0Z"/><path class="cls-12" d="M5.87,11.46s0,0,0,0v0s0,0,0,0,0,0,0,0Z"/><path class="cls-12" d="M6.1,11.46v0a0,0,0,0,1,0,0l0,0Z"/><path class="cls-12" d="M5.21,10.86s0,0,0,0a0,0,0,0,1,0,0l0,0a0,0,0,0,1,0,0Z"/><path class="cls-12" d="M5.39,10.86s0,0,0,0a0,0,0,0,1,0,0v0a0,0,0,0,1,0,0Z"/><path class="cls-12" d="M5.59,10.86s0,0,0,0a0,0,0,0,1,0,0s0,0,0,0,0,0,0,0Z"/><path class="cls-12" d="M5.29,10.76a0,0,0,0,1,0,0s0,0,0,0,0,0,0,0Z"/><path class="cls-12" d="M5.5,10.76s0,0,0,0,0,0,0,0,0,0,0,0,0,0,0,0Z"/><path class="cls-12" d="M5.29,11a0,0,0,0,1,0,0,0,0,0,0,1,0,0s0,0,0,0a0,0,0,0,1,0,0Z"/><path class="cls-12" d="M5.5,11h0s0,0,0,0,0,0,0,0Z"/><path class="cls-12" d="M4.62,11.38h0a0,0,0,0,1,0,0,.1.1,0,0,1,0,0Z"/><path class="cls-12" d="M4.81,11.38h0s0,0,0,0a.07.07,0,0,1,0,0Z"/><path class="cls-12" d="M5,11.38H5s0,0,0,0a.07.07,0,0,1,0,0Z"/><path class="cls-12" d="M4.69,11.28h0s0,0,0,0,0,0,0,0Z"/><path class="cls-12" d="M4.91,11.28h0a.07.07,0,0,1,0,0s0,0,0,0Z"/><path class="cls-12" d="M4.69,11.47a0,0,0,0,1,0,0s0,0,0,0,0,0,0,0,0,0,0,0Z"/><path class="cls-12" d="M4.91,11.47s0,0,0,0a0,0,0,0,1,0,0l0,0s0,0,0,0Z"/><polygon class="cls-12" points="5.67 9.18 5.8 9.12 5.92 9.18 5.67 9.18"/><polygon class="cls-12" points="5.29 9.18 5.42 9.12 5.54 9.18 5.29 9.18"/><polygon class="cls-12" points="4.91 9.18 5.04 9.12 5.16 9.18 4.91 9.18"/><polygon class="cls-12" points="5.67 7.44 5.8 7.51 5.92 7.44 5.67 7.44"/><polygon class="cls-12" points="5.29 7.44 5.42 7.51 5.54 7.44 5.29 7.44"/><polygon class="cls-12" points="4.91 7.44 5.04 7.51 5.16 7.44 4.91 7.44"/><polygon class="cls-8" points="5.57 9.15 5.42 9.28 5.27 9.15 5.12 9.28 4.97 9.15 4.97 9.22 5.07 9.28 5.02 9.33 5.02 9.4 5.07 9.4 5.12 9.33 5.17 9.4 5.22 9.4 5.22 9.33 5.17 9.28 5.27 9.22 5.37 9.28 5.32 9.33 5.32 9.4 5.37 9.4 5.42 9.33 5.47 9.4 5.52 9.4 5.52 9.33 5.47 9.28 5.57 9.22 5.67 9.28 5.62 9.33 5.62 9.4 5.67 9.4 5.71 9.33 5.75 9.4 5.8 9.4 5.8 9.33 5.75 9.28 5.86 9.22 5.86 9.15 5.71 9.28 5.57 9.15"/><polygon class="cls-8" points="5.57 7.42 5.42 7.31 5.27 7.42 5.12 7.31 4.97 7.42 4.97 7.37 5.07 7.31 5.02 7.26 5.02 7.19 5.07 7.19 5.12 7.26 5.17 7.19 5.22 7.19 5.22 7.26 5.17 7.31 5.27 7.37 5.37 7.31 5.32 7.26 5.32 7.19 5.37 7.19 5.42 7.26 5.47 7.19 5.52 7.19 5.52 7.26 5.47 7.31 5.57 7.37 5.67 7.31 5.62 7.26 5.62 7.19 5.67 7.19 5.71 7.26 5.75 7.19 5.8 7.19 5.8 7.26 5.75 7.31 5.86 7.37 5.86 7.42 5.71 7.31 5.57 7.42"/><polygon class="cls-8" points="6.69 8.42 6.85 8.29 6.69 8.17 6.85 8.04 6.69 7.9 6.77 7.9 6.85 7.99 6.94 7.95 7.02 7.95 7.02 7.99 6.94 8.04 7.02 8.07 7.02 8.12 6.94 8.12 6.85 8.07 6.77 8.17 6.85 8.25 6.94 8.2 7.02 8.2 7.02 8.25 6.94 8.29 7.02 8.34 7.02 8.39 6.94 8.39 6.85 8.34 6.77 8.42 6.85 8.5 6.94 8.47 7.02 8.47 7.02 8.5 6.94 8.55 7.02 8.6 7.02 8.63 6.94 8.63 6.85 8.6 6.77 8.69 6.69 8.69 6.85 8.55 6.69 8.42"/><polygon class="cls-8" points="4.14 8.42 3.98 8.29 4.14 8.17 3.98 8.04 4.14 7.9 4.06 7.9 3.98 7.99 3.89 7.95 3.83 7.95 3.83 7.99 3.89 8.04 3.83 8.07 3.83 8.12 3.89 8.12 3.98 8.07 4.06 8.17 3.98 8.25 3.89 8.2 3.83 8.2 3.83 8.25 3.89 8.29 3.83 8.34 3.83 8.39 3.89 8.39 3.98 8.34 4.06 8.42 3.98 8.5 3.89 8.47 3.83 8.47 3.83 8.5 3.89 8.55 3.83 8.6 3.83 8.63 3.89 8.63 3.98 8.6 4.06 8.69 4.14 8.69 3.98 8.55 4.14 8.42"/><rect class="cls-3" x="6.75" y="8.85" width="0.07" height="0.07"/><rect class="cls-7" x="6.75" y="8.85" width="0.07" height="0.07"/><rect class="cls-3" x="6.69" y="8.92" width="0.07" height="0.07"/><rect class="cls-7" x="6.69" y="8.92" width="0.07" height="0.07"/><rect class="cls-3" x="6.37" y="9.22" width="0.07" height="0.07"/><rect class="cls-7" x="6.37" y="9.22" width="0.07" height="0.07"/><rect class="cls-3" x="6.44" y="9.15" width="0.07" height="0.07"/><rect class="cls-7" x="6.44" y="9.15" width="0.07" height="0.07"/><rect class="cls-3" x="4.32" y="9.15" width="0.07" height="0.07"/><rect class="cls-7" x="4.32" y="9.15" width="0.07" height="0.07"/><rect class="cls-3" x="4.01" y="8.85" width="0.07" height="0.07"/><rect class="cls-7" x="4.01" y="8.85" width="0.07" height="0.07"/><rect class="cls-3" x="4.08" y="8.92" width="0.07" height="0.07"/><rect class="cls-7" x="4.08" y="8.92" width="0.07" height="0.07"/><rect class="cls-3" x="4.08" y="7.61" width="0.07" height="0.07"/><rect class="cls-7" x="4.08" y="7.61" width="0.07" height="0.07"/><rect class="cls-3" x="4.01" y="7.67" width="0.07" height="0.05"/><rect class="cls-7" x="4.01" y="7.67" width="0.07" height="0.05"/><rect class="cls-3" x="4.39" y="7.31" width="0.07" height="0.07"/><rect class="cls-7" x="4.39" y="7.31" width="0.07" height="0.07"/><rect class="cls-3" x="4.32" y="7.37" width="0.07" height="0.05"/><rect class="cls-7" x="4.32" y="7.37" width="0.07" height="0.05"/><rect class="cls-3" x="6.37" y="7.31" width="0.07" height="0.07"/><rect class="cls-7" x="6.37" y="7.31" width="0.07" height="0.07"/><rect class="cls-3" x="6.44" y="7.37" width="0.07" height="0.05"/><rect class="cls-7" x="6.44" y="7.37" width="0.07" height="0.05"/><rect class="cls-3" x="6.69" y="7.61" width="0.07" height="0.07"/><rect class="cls-7" x="6.69" y="7.61" width="0.07" height="0.07"/><rect class="cls-3" x="6.75" y="7.67" width="0.07" height="0.05"/><rect class="cls-7" x="6.75" y="7.67" width="0.07" height="0.05"/><rect class="cls-3" x="4.39" y="9.22" width="0.07" height="0.07"/><rect class="cls-7" x="4.39" y="9.22" width="0.07" height="0.07"/><path class="cls-12" d="M5.22,8.29H5V8.17h.12v-.1h.13V8h.12v.12a.19.19,0,0,0-.19.2Z"/><path class="cls-5" d="M5.59,8.29h.2V8.17H5.66v-.1H5.54V8H5.41v.12a.19.19,0,0,1,.18.2Z"/><path class="cls-12" d="M5.59,8.29h.2V8.4H5.66v.12H5.54v.1H5.41V8.5a.21.21,0,0,0,.18-.21Z"/><path class="cls-5" d="M5.22,8.29H5V8.4h.12v.12h.13v.1h.12V8.5a.21.21,0,0,1-.19-.21Z"/><path class="cls-8" d="M5.59,8.29H5.41v-.2a.21.21,0,0,1,.18.2Z"/><path class="cls-6" d="M5.59,8.29H5.41V8.5a.21.21,0,0,0,.18-.21Z"/><path class="cls-8" d="M5.22,8.29h.19V8.5a.21.21,0,0,1-.19-.21Z"/><path class="cls-6" d="M5.22,8.29h.19v-.2a.21.21,0,0,0-.19.2Z"/><polygon class="cls-8" points="5.61 9.03 5.42 8.92 5.22 9.03 5.04 8.92 4.84 9.03 4.84 8.98 4.97 8.92 4.91 8.85 4.91 8.8 4.97 8.8 5.04 8.85 5.09 8.8 5.16 8.8 5.16 8.85 5.09 8.92 5.22 8.98 5.36 8.92 5.29 8.85 5.29 8.8 5.36 8.8 5.42 8.85 5.47 8.8 5.54 8.8 5.54 8.85 5.47 8.92 5.61 8.98 5.74 8.92 5.67 8.85 5.67 8.8 5.74 8.8 5.8 8.85 5.86 8.8 5.92 8.8 5.92 8.85 5.86 8.92 5.99 8.98 5.99 9.03 5.8 8.92 5.61 9.03"/><polygon class="cls-8" points="5.61 7.56 5.42 7.67 5.22 7.56 5.04 7.67 4.84 7.56 4.84 7.61 4.97 7.67 4.91 7.72 4.91 7.79 4.97 7.79 5.04 7.72 5.09 7.79 5.16 7.79 5.16 7.72 5.09 7.67 5.22 7.61 5.36 7.67 5.29 7.72 5.29 7.79 5.36 7.79 5.42 7.72 5.47 7.79 5.54 7.79 5.54 7.72 5.47 7.67 5.61 7.61 5.74 7.67 5.67 7.72 5.67 7.79 5.74 7.79 5.8 7.72 5.86 7.79 5.92 7.79 5.92 7.72 5.86 7.67 5.99 7.61 5.99 7.56 5.8 7.67 5.61 7.56"/><polygon class="cls-8" points="6.3 8.44 6.22 8.29 6.3 8.14 6.22 7.99 6.3 7.85 6.25 7.85 6.22 7.95 6.17 7.9 6.12 7.9 6.12 7.95 6.17 7.99 6.12 8.04 6.12 8.09 6.17 8.09 6.22 8.04 6.25 8.14 6.22 8.24 6.17 8.19 6.12 8.19 6.12 8.24 6.17 8.29 6.12 8.34 6.12 8.39 6.17 8.39 6.22 8.34 6.25 8.44 6.22 8.54 6.17 8.48 6.12 8.48 6.12 8.54 6.17 8.59 6.12 8.63 6.12 8.69 6.17 8.69 6.22 8.63 6.25 8.73 6.3 8.73 6.22 8.59 6.3 8.44"/><path class="cls-8" d="M4.84,7.61l-.25.24v.88L4.84,9H6l.25-.25V7.85L6,7.61Zm-.07-.19L4.14,8v.55l.63.58H6.05l.64-.58V8l-.64-.6Z"/><path class="cls-7" d="M4.84,7.61l-.25.24v.88L4.84,9H6l.25-.25V7.85L6,7.61Zm-.07-.19L4.14,8v.55l.63.58H6.05l.64-.58V8l-.64-.6Z"/><polygon class="cls-5" points="5.11 9.03 5.21 9.15 5.31 9.03 5.11 9.03"/><polygon class="cls-7" points="5.11 9.03 5.21 9.15 5.31 9.03 5.11 9.03"/><polygon class="cls-5" points="5.11 7.56 5.21 7.42 5.31 7.56 5.11 7.56"/><polygon class="cls-7" points="5.11 7.56 5.21 7.42 5.31 7.56 5.11 7.56"/><polygon class="cls-5" points="5.52 7.56 5.62 7.42 5.72 7.56 5.52 7.56"/><polygon class="cls-7" points="5.52 7.56 5.62 7.42 5.72 7.56 5.52 7.56"/><polygon class="cls-5" points="5.52 9.03 5.62 9.15 5.72 9.03 5.52 9.03"/><polygon class="cls-7" points="5.52 9.03 5.62 9.15 5.72 9.03 5.52 9.03"/><polygon class="cls-6" points="4.91 7.56 5.01 7.42 5.11 7.56 4.91 7.56"/><polygon class="cls-7" points="4.91 7.56 5.01 7.42 5.11 7.56 4.91 7.56"/><polygon class="cls-6" points="5.31 7.56 5.42 7.42 5.52 7.56 5.31 7.56"/><polygon class="cls-7" points="5.31 7.56 5.42 7.42 5.52 7.56 5.31 7.56"/><polygon class="cls-6" points="5.72 7.56 5.82 7.42 5.92 7.56 5.72 7.56"/><polygon class="cls-7" points="5.72 7.56 5.82 7.42 5.92 7.56 5.72 7.56"/><polygon class="cls-6" points="4.66 8.85 4.84 9.03 4.66 9.03 4.66 8.85"/><polygon class="cls-7" points="4.66 8.85 4.84 9.03 4.66 9.03 4.66 8.85"/><polygon class="cls-8" points="4.52 8.44 4.62 8.29 4.52 8.14 4.62 7.99 4.52 7.85 4.57 7.85 4.62 7.95 4.66 7.9 4.71 7.9 4.71 7.95 4.66 7.99 4.71 8.04 4.71 8.09 4.66 8.09 4.62 8.04 4.57 8.14 4.62 8.24 4.66 8.19 4.71 8.19 4.71 8.24 4.66 8.29 4.71 8.34 4.71 8.39 4.66 8.39 4.62 8.34 4.57 8.44 4.62 8.54 4.66 8.48 4.71 8.48 4.71 8.54 4.66 8.59 4.71 8.63 4.71 8.69 4.66 8.69 4.62 8.63 4.57 8.73 4.52 8.73 4.62 8.59 4.52 8.44"/><polygon class="cls-6" points="6.37 8.14 6.64 8.14 6.69 8.19 6.64 8.24 6.37 8.24 6.37 8.14"/><polygon class="cls-7" points="6.37 8.14 6.64 8.14 6.69 8.19 6.64 8.24 6.37 8.24 6.37 8.14"/><polygon class="cls-6" points="4.66 7.72 4.52 7.85 4.52 8.73 4.66 8.85 4.46 8.85 4.46 7.72 4.66 7.72"/><polygon class="cls-7" points="4.66 7.72 4.52 7.85 4.52 8.73 4.66 8.85 4.46 8.85 4.46 7.72 4.66 7.72"/><polygon class="cls-6" points="4.91 9.03 5.01 9.15 5.11 9.03 4.91 9.03"/><polygon class="cls-7" points="4.91 9.03 5.01 9.15 5.11 9.03 4.91 9.03"/><polygon class="cls-6" points="5.31 9.03 5.42 9.15 5.52 9.03 5.31 9.03"/><polygon class="cls-7" points="5.31 9.03 5.42 9.15 5.52 9.03 5.31 9.03"/><polygon class="cls-6" points="5.72 9.03 5.82 9.15 5.92 9.03 5.72 9.03"/><polygon class="cls-7" points="5.72 9.03 5.82 9.15 5.92 9.03 5.72 9.03"/><polygon class="cls-6" points="6.19 7.72 6.3 7.85 6.3 8.73 6.19 8.85 6.37 8.85 6.37 7.72 6.19 7.72"/><polygon class="cls-7" points="6.19 7.72 6.3 7.85 6.3 8.73 6.19 8.85 6.37 8.85 6.37 7.72 6.19 7.72"/><polygon class="cls-6" points="6.19 8.85 5.99 9.03 6.19 9.03 6.19 8.85"/><polygon class="cls-7" points="6.19 8.85 5.99 9.03 6.19 9.03 6.19 8.85"/><polygon class="cls-6" points="6.19 7.72 5.99 7.56 6.19 7.56 6.19 7.72"/><polygon class="cls-7" points="6.19 7.72 5.99 7.56 6.19 7.56 6.19 7.72"/><polygon class="cls-6" points="4.66 7.72 4.84 7.56 4.66 7.56 4.66 7.72"/><polygon class="cls-7" points="4.66 7.72 4.84 7.56 4.66 7.56 4.66 7.72"/><path class="cls-8" d="M4.84,7.61l-.25.24v.88L4.84,9H6l.25-.25V7.85L6,7.61Zm0-.05-.32.29v.88l.32.3H6l.31-.3V7.85L6,7.56Z"/><path class="cls-7" d="M4.84,7.61l-.25.24v.88L4.84,9H6l.25-.25V7.85L6,7.61Zm0-.05-.32.29v.88l.32.3H6l.31-.3V7.85L6,7.56Z"/><polygon class="cls-5" points="6.37 8.24 6.64 8.24 6.69 8.29 6.64 8.35 6.37 8.35 6.37 8.24"/><polygon class="cls-7" points="6.37 8.24 6.64 8.24 6.69 8.29 6.64 8.35 6.37 8.35 6.37 8.24"/><polygon class="cls-6" points="6.37 8.35 6.64 8.35 6.69 8.4 6.64 8.45 6.37 8.45 6.37 8.35"/><polygon class="cls-7" points="6.37 8.35 6.64 8.35 6.69 8.4 6.64 8.45 6.37 8.45 6.37 8.35"/><polygon class="cls-5" points="6.37 8.45 6.64 8.45 6.69 8.5 6.64 8.57 6.37 8.57 6.37 8.45"/><polygon class="cls-7" points="6.37 8.45 6.64 8.45 6.69 8.5 6.64 8.57 6.37 8.57 6.37 8.45"/><polygon class="cls-5" points="6.37 8.02 6.64 8.02 6.69 8.09 6.64 8.14 6.37 8.14 6.37 8.02"/><polygon class="cls-7" points="6.37 8.02 6.64 8.02 6.69 8.09 6.64 8.14 6.37 8.14 6.37 8.02"/><polygon class="cls-6" points="4.46 8.14 4.21 8.14 4.14 8.19 4.21 8.24 4.46 8.24 4.46 8.14"/><polygon class="cls-7" points="4.46 8.14 4.21 8.14 4.14 8.19 4.21 8.24 4.46 8.24 4.46 8.14"/><polygon class="cls-5" points="4.46 8.24 4.21 8.24 4.14 8.29 4.21 8.35 4.46 8.35 4.46 8.24"/><polygon class="cls-7" points="4.46 8.24 4.21 8.24 4.14 8.29 4.21 8.35 4.46 8.35 4.46 8.24"/><polygon class="cls-6" points="4.46 8.35 4.21 8.35 4.14 8.4 4.21 8.45 4.46 8.45 4.46 8.35"/><polygon class="cls-7" points="4.46 8.35 4.21 8.35 4.14 8.4 4.21 8.45 4.46 8.45 4.46 8.35"/><polygon class="cls-5" points="4.46 8.45 4.21 8.45 4.14 8.5 4.21 8.57 4.46 8.57 4.46 8.45"/><polygon class="cls-7" points="4.46 8.45 4.21 8.45 4.14 8.5 4.21 8.57 4.46 8.57 4.46 8.45"/><polygon class="cls-5" points="4.46 8.02 4.21 8.02 4.14 8.09 4.21 8.14 4.46 8.14 4.46 8.02"/><polygon class="cls-7" points="4.46 8.02 4.21 8.02 4.14 8.09 4.21 8.14 4.46 8.14 4.46 8.02"/><path class="cls-13" d="M4.08,7.67V8.92h.31v.3H6.44v-.3h.31V7.67H6.44v-.3H4.39v.3Zm.06,0V8.85h.32v.3H6.37v-.3h.32V7.72H6.37v-.3H4.46v.3Z"/><path class="cls-7" d="M4.08,7.67V8.92h.31v.3H6.44v-.3h.31V7.67H6.44v-.3H4.39v.3Zm.06,0V8.85h.32v.3H6.37v-.3h.32V7.72H6.37v-.3H4.46v.3Z"/><polygon class="cls-6" points="7.02 1.56 6.82 1.26 6.82 1.05 6.64 0.81 6.24 0.81 5.92 0.6 4.91 0.6 4.59 0.81 4.21 0.81 4.01 1.05 4.01 1.26 3.83 1.56 3.83 2.14 4.01 2.44 4.01 2.66 4.21 2.87 4.59 2.87 4.91 3.09 5.92 3.09 6.24 2.87 6.64 2.87 6.82 2.66 6.82 2.44 7.02 2.14 7.02 1.56"/><polygon class="cls-7" points="7.02 1.56 6.82 1.26 6.82 1.05 6.64 0.81 6.24 0.81 5.92 0.6 4.91 0.6 4.59 0.81 4.21 0.81 4.01 1.05 4.01 1.26 3.83 1.56 3.83 2.14 4.01 2.44 4.01 2.66 4.21 2.87 4.59 2.87 4.91 3.09 5.92 3.09 6.24 2.87 6.64 2.87 6.82 2.66 6.82 2.44 7.02 2.14 7.02 1.56"/><polygon class="cls-5" points="3.88 1.84 3.88 2.06 4.08 2.36 4.08 2.57 4.26 2.81 4.66 2.81 4.97 3.02 5.42 3.02 5.42 1.84 3.88 1.84"/><polygon class="cls-6" points="4.87 2.36 4.64 2.54 4.51 2.54 4.56 2.61 4.46 2.74 4.51 2.81 4.64 2.74 4.69 2.81 4.71 2.64 4.97 2.44 4.87 2.36"/><polygon class="cls-6" points="4.62 2.21 4.39 2.41 4.24 2.41 4.29 2.46 4.21 2.59 4.24 2.66 4.39 2.59 4.44 2.66 4.46 2.49 4.71 2.29 4.62 2.21"/><polygon class="cls-6" points="4.49 1.93 4.26 2.11 4.13 2.11 4.17 2.18 4.08 2.29 4.13 2.36 4.26 2.29 4.31 2.36 4.32 2.19 4.59 1.99 4.49 1.93"/><polygon class="cls-5" points="6.95 1.84 6.95 1.63 6.75 1.33 6.75 1.11 6.57 0.9 6.19 0.9 5.86 0.66 5.42 0.66 5.42 1.84 6.95 1.84"/><polygon class="cls-6" points="5.42 3.02 5.29 3.02 5.16 2.87 4.94 2.87 4.82 2.81 4.89 2.72 5.01 2.81 5.12 2.81 5.24 2.57 5.42 2.66 5.42 2.81 5.24 2.81 5.42 3.02"/><polygon class="cls-12" points="3.88 1.84 3.88 1.63 4.08 1.33 4.08 1.11 4.26 0.9 4.66 0.9 4.97 0.66 5.42 0.66 5.42 1.84 3.88 1.84"/><polygon class="cls-6" points="5.42 0.66 5.29 0.66 5.16 0.81 4.94 0.81 4.82 0.9 4.89 0.96 5.01 0.9 5.12 0.9 5.24 1.11 5.42 1.05 5.42 0.9 5.24 0.9 5.42 0.66"/><polygon class="cls-6" points="5.42 0.66 5.54 0.66 5.67 0.81 5.89 0.81 6 0.9 5.95 0.96 5.82 0.9 5.71 0.9 5.59 1.11 5.42 1.05 5.42 0.9 5.59 0.9 5.42 0.66"/><polygon class="cls-12" points="6.95 1.84 6.95 2.06 6.75 2.36 6.75 2.57 6.57 2.81 6.19 2.81 5.86 3.02 5.42 3.02 5.42 1.84 6.95 1.84"/><polygon class="cls-6" points="5.42 3.02 5.54 3.02 5.67 2.87 5.89 2.87 6 2.81 5.95 2.72 5.82 2.81 5.71 2.81 5.59 2.57 5.42 2.66 5.42 2.81 5.59 2.81 5.42 3.02"/><polygon class="cls-6" points="4.62 1.48 4.39 1.29 4.24 1.29 4.29 1.23 4.21 1.1 4.24 1.05 4.39 1.1 4.44 1.05 4.46 1.21 4.71 1.41 4.62 1.48"/><polygon class="cls-6" points="5.95 1.33 6.19 1.15 6.32 1.15 6.29 1.08 6.37 0.96 6.32 0.9 6.19 0.96 6.14 0.9 6.12 1.06 5.86 1.26 5.95 1.33"/><polygon class="cls-6" points="4.87 1.33 4.64 1.15 4.51 1.15 4.56 1.08 4.46 0.96 4.51 0.9 4.64 0.96 4.69 0.9 4.71 1.06 4.97 1.26 4.87 1.33"/><polygon class="cls-6" points="4.49 1.78 4.26 1.58 4.13 1.58 4.17 1.53 4.08 1.4 4.13 1.33 4.26 1.4 4.31 1.33 4.32 1.49 4.59 1.69 4.49 1.78"/><polygon class="cls-12" points="3.99 1.84 4.06 1.84 4.11 1.93 4.17 1.84 5.42 1.84 5.42 2.87 5.36 2.87 5.42 2.94 5.42 3.02 5.24 2.81 5.24 2.72 5.29 2.72 5.29 2.81 5.36 2.81 5.36 2.72 4.87 2.41 4.47 2.41 4.47 2.09 4.29 1.93 4.17 1.93 4.11 1.99 4.17 2.06 4.11 2.06 3.99 1.84"/><polygon class="cls-5" points="3.99 1.84 4.06 1.84 4.11 1.78 4.17 1.84 5.42 1.84 5.42 0.81 5.36 0.81 5.42 0.75 5.42 0.66 5.24 0.9 5.24 0.96 5.29 0.96 5.29 0.9 5.36 0.9 5.36 0.96 4.87 1.29 4.47 1.29 4.47 1.61 4.29 1.78 4.17 1.78 4.11 1.69 4.17 1.63 4.11 1.63 3.99 1.84"/><polygon class="cls-8" points="4.26 1.84 5.42 1.84 5.42 2.72 4.91 2.36 4.52 2.36 4.52 2.06 4.26 1.84"/><polygon class="cls-6" points="6.2 1.48 6.44 1.29 6.59 1.29 6.54 1.23 6.64 1.1 6.59 1.05 6.44 1.1 6.4 1.05 6.37 1.21 6.12 1.41 6.2 1.48"/><polygon class="cls-6" points="6.34 1.78 6.57 1.58 6.7 1.58 6.67 1.53 6.75 1.4 6.7 1.33 6.57 1.4 6.52 1.33 6.5 1.49 6.24 1.69 6.34 1.78"/><polygon class="cls-12" points="6.84 1.84 6.77 1.84 6.72 1.78 6.65 1.84 5.42 1.84 5.42 0.81 5.47 0.81 5.42 0.75 5.42 0.66 5.59 0.9 5.59 0.96 5.54 0.96 5.54 0.9 5.47 0.9 5.47 0.96 5.95 1.29 6.35 1.29 6.35 1.61 6.54 1.78 6.65 1.78 6.72 1.69 6.65 1.63 6.72 1.63 6.84 1.84"/><polygon class="cls-8" points="6.57 1.84 5.42 1.84 5.42 0.96 5.92 1.33 6.3 1.33 6.3 1.63 6.57 1.84"/><polygon class="cls-6" points="5.95 2.36 6.19 2.54 6.32 2.54 6.29 2.61 6.37 2.74 6.32 2.81 6.19 2.74 6.14 2.81 6.12 2.64 5.86 2.44 5.95 2.36"/><polygon class="cls-6" points="6.2 2.21 6.44 2.41 6.59 2.41 6.54 2.46 6.64 2.59 6.59 2.66 6.44 2.59 6.4 2.66 6.37 2.49 6.12 2.29 6.2 2.21"/><polygon class="cls-6" points="6.34 1.93 6.57 2.11 6.7 2.11 6.67 2.18 6.75 2.29 6.7 2.36 6.57 2.29 6.52 2.36 6.5 2.19 6.24 1.99 6.34 1.93"/><polygon class="cls-5" points="6.84 1.84 6.77 1.84 6.72 1.93 6.65 1.84 5.42 1.84 5.42 2.87 5.47 2.87 5.42 2.94 5.42 3.02 5.59 2.81 5.59 2.72 5.54 2.72 5.54 2.81 5.47 2.81 5.47 2.72 5.95 2.41 6.35 2.41 6.35 2.09 6.54 1.93 6.65 1.93 6.72 1.99 6.65 2.06 6.72 2.06 6.84 1.84"/><polygon class="cls-6" points="6.57 1.84 5.42 1.84 5.42 2.72 5.92 2.36 6.3 2.36 6.3 2.06 6.57 1.84"/><polygon class="cls-6" points="4.26 1.84 5.42 1.84 5.42 0.96 4.91 1.33 4.52 1.33 4.52 1.63 4.26 1.84"/><polygon class="cls-6" points="5.54 1.84 5.86 1.63 6.05 1.63 5.99 1.56 6.12 1.41 6.05 1.33 5.86 1.41 5.8 1.33 5.77 1.53 5.42 1.76 5.54 1.84"/><polygon class="cls-6" points="5.29 1.84 4.97 2.06 4.77 2.06 4.84 2.14 4.71 2.29 4.77 2.36 4.97 2.29 5.04 2.36 5.06 2.16 5.42 1.93 5.29 1.84"/><polygon class="cls-8" points="5.29 1.84 4.97 1.63 4.77 1.63 4.84 1.56 4.71 1.41 4.77 1.33 4.97 1.41 5.04 1.33 5.06 1.53 5.42 1.76 5.29 1.84"/><polygon class="cls-8" points="5.54 1.84 5.86 2.06 6.05 2.06 5.99 2.14 6.12 2.29 6.05 2.36 5.86 2.29 5.8 2.36 5.77 2.16 5.42 1.93 5.54 1.84"/><polygon class="cls-12" points="5.04 1.84 5.42 1.48 5.8 1.84 5.42 2.21 5.04 1.84"/><polygon class="cls-6" points="4.17 1.99 4.22 2.06 4.17 2.14 4.11 2.14 3.94 1.84 3.99 1.84 4.11 2.06 4.17 2.06 4.11 1.99 4.17 1.93 4.29 1.93 4.29 1.99 4.17 1.99"/><polygon class="cls-6" points="4.17 1.69 4.22 1.63 4.17 1.56 4.11 1.56 3.94 1.84 3.99 1.84 4.11 1.63 4.17 1.63 4.11 1.69 4.17 1.78 4.29 1.78 4.29 1.69 4.17 1.69"/><polygon class="cls-6" points="6.65 1.99 6.6 2.06 6.65 2.14 6.72 2.14 6.89 1.84 6.84 1.84 6.72 2.06 6.65 2.06 6.72 1.99 6.65 1.93 6.54 1.93 6.54 1.99 6.65 1.99"/><polygon class="cls-6" points="6.65 1.69 6.6 1.63 6.65 1.56 6.72 1.56 6.89 1.84 6.84 1.84 6.72 1.63 6.65 1.63 6.72 1.69 6.65 1.78 6.54 1.78 6.54 1.69 6.65 1.69"/><rect class="cls-14" x="5.36" y="1.56" width="0.12" height="0.58"/><rect class="cls-14" x="5.17" y="1.69" width="0.48" height="0.3"/><polygon class="cls-8" points="4.89 13.33 3.83 13.95 3.83 14.99 4.89 15.61 5.95 15.61 7.02 14.99 7.02 13.95 5.95 13.33 4.89 13.33"/><polygon class="cls-7" points="4.89 13.33 3.83 13.95 3.83 14.99 4.89 15.61 5.95 15.61 7.02 14.99 7.02 13.95 5.95 13.33 4.89 13.33"/><polygon class="cls-15" points="4.21 14.23 4.27 14.23 4.27 14.08 4.41 14.08 4.41 14.23 4.47 14.23 4.47 13.88 4.41 13.88 4.41 14.03 4.27 14.03 4.27 13.88 4.21 13.88 4.21 14.23"/><polygon class="cls-15" points="5.84 15.41 5.9 15.41 5.9 15.26 6.04 15.26 6.04 15.41 6.1 15.41 6.1 15.06 6.04 15.06 6.04 15.21 5.9 15.21 5.9 15.06 5.84 15.06 5.84 15.41"/><polygon class="cls-15" points="6.35 14.23 6.42 14.23 6.42 14.08 6.55 14.08 6.55 14.23 6.62 14.23 6.62 13.88 6.55 13.88 6.55 14.03 6.42 14.03 6.42 13.88 6.35 13.88 6.35 14.23"/><polygon class="cls-15" points="6.35 14.83 6.42 14.83 6.42 14.68 6.55 14.68 6.55 14.83 6.62 14.83 6.62 14.46 6.55 14.46 6.55 14.63 6.42 14.63 6.42 14.46 6.35 14.46 6.35 14.83"/><polygon class="cls-5" points="5.42 15.56 5.42 14.46 6.95 14.46 6.95 14.96 5.94 15.56 5.42 15.56"/><polygon class="cls-5" points="5.42 13.38 5.42 14.46 3.88 14.46 3.88 13.98 4.91 13.38 5.42 13.38"/><polygon class="cls-12" points="5.42 13.38 5.42 14.46 6.95 14.46 6.95 13.98 5.94 13.38 5.42 13.38"/><polygon class="cls-12" points="5.42 15.56 5.42 14.46 3.88 14.46 3.88 14.96 4.91 15.56 5.42 15.56"/><path class="cls-5" d="M6.24,14h.61l-.61-.3ZM7,14v.48H6v-.38H5.77l-.25-.15v-.35l.15-.15h-.2v.5h0v-.55h.52Z"/><path class="cls-7" d="M6.24,14h.61l-.61-.3ZM7,14v.48H6v-.38H5.77l-.25-.15v-.35l.15-.15h-.2v.5h0v-.55h.52Z"/><polygon class="cls-6" points="4.91 14.13 4.91 14.81 5.06 14.81 5.42 15.01 5.77 14.81 5.94 14.81 5.94 14.13 5.77 14.13 5.42 13.93 5.06 14.13 4.91 14.13"/><path class="cls-5" d="M4.59,14.91H4l.61.3ZM3.88,15v-.5h1v.4h.2l.25.15v.35l-.15.15h.2V15h.06v.55H4.91Z"/><path class="cls-7" d="M4.59,14.91H4l.61.3ZM3.88,15v-.5h1v.4h.2l.25.15v.35l-.15.15h.2V15h.06v.55H4.91Z"/><path class="cls-12" d="M4.59,14H4l.61-.3Zm-.71,0v.48h1v-.38h.2l.25-.15v-.35l-.15-.15h.2v.5h.06v-.55H4.91Z"/><path class="cls-7" d="M4.59,14H4l.61-.3Zm-.71,0v.48h1v-.38h.2l.25-.15v-.35l-.15-.15h.2v.5h.06v-.55H4.91Z"/><path class="cls-12" d="M6.24,14.91h.61l-.61.3ZM7,15v-.5H6v.4H5.77L5.52,15v.35l.15.15h-.2V15h0v.55h.52Z"/><path class="cls-7" d="M6.24,14.91h.61l-.61.3ZM7,15v-.5H6v.4H5.77L5.52,15v.35l.15.15h-.2V15h0v.55h.52Z"/><polygon class="cls-6" points="4.17 14.86 4.24 14.86 4.24 14.71 4.37 14.71 4.37 14.86 4.44 14.86 4.44 14.51 4.37 14.51 4.37 14.66 4.24 14.66 4.24 14.51 4.17 14.51 4.17 14.86"/><polygon class="cls-6" points="4.79 15.36 4.86 15.36 4.86 15.21 4.99 15.21 4.99 15.36 5.06 15.36 5.06 15.01 4.99 15.01 4.99 15.16 4.86 15.16 4.86 15.01 4.79 15.01 4.79 15.36"/><polygon class="cls-6" points="4.17 14.08 4.24 14.08 4.24 14.23 4.37 14.23 4.37 14.08 4.44 14.08 4.44 14.43 4.37 14.43 4.37 14.28 4.24 14.28 4.24 14.43 4.17 14.43 4.17 14.08"/><polygon class="cls-6" points="4.79 13.58 4.86 13.58 4.86 13.73 4.99 13.73 4.99 13.58 5.06 13.58 5.06 13.93 4.99 13.93 4.99 13.78 4.86 13.78 4.86 13.93 4.79 13.93 4.79 13.58"/><polygon class="cls-6" points="6.39 14.43 6.45 14.43 6.45 14.28 6.59 14.28 6.59 14.43 6.65 14.43 6.65 14.08 6.59 14.08 6.59 14.23 6.45 14.23 6.45 14.08 6.39 14.08 6.39 14.43"/><polygon class="cls-6" points="5.77 15.36 5.84 15.36 5.84 15.21 5.97 15.21 5.97 15.36 6.04 15.36 6.04 15.01 5.97 15.01 5.97 15.16 5.84 15.16 5.84 15.01 5.77 15.01 5.77 15.36"/><polygon class="cls-6" points="6.39 14.86 6.45 14.86 6.45 14.71 6.59 14.71 6.59 14.86 6.65 14.86 6.65 14.51 6.59 14.51 6.59 14.66 6.45 14.66 6.45 14.51 6.39 14.51 6.39 14.86"/><polygon class="cls-6" points="5.77 13.93 5.84 13.93 5.84 13.78 5.97 13.78 5.97 13.93 6.04 13.93 6.04 13.58 5.97 13.58 5.97 13.73 5.84 13.73 5.84 13.58 5.77 13.58 5.77 13.93"/><polygon class="cls-8" points="5.47 14.46 5.67 14.3 5.77 14.3 5.77 14.38 5.67 14.38 5.67 14.43 5.82 14.43 5.82 14.25 5.67 14.25 5.67 14.11 5.47 14.11 5.47 14.25 5.52 14.25 5.52 14.15 5.62 14.15 5.62 14.25 5.42 14.43 5.21 14.25 5.21 14.15 5.31 14.15 5.31 14.25 5.36 14.25 5.36 14.11 5.16 14.11 5.16 14.25 5.01 14.25 5.01 14.43 5.16 14.43 5.16 14.38 5.06 14.38 5.06 14.3 5.16 14.3 5.36 14.46 5.16 14.65 5.06 14.65 5.06 14.56 5.16 14.56 5.16 14.51 5.01 14.51 5.01 14.7 5.16 14.7 5.16 14.83 5.36 14.83 5.36 14.7 5.31 14.7 5.31 14.8 5.21 14.8 5.21 14.7 5.42 14.51 5.62 14.7 5.62 14.8 5.52 14.8 5.52 14.7 5.47 14.7 5.47 14.83 5.67 14.83 5.67 14.7 5.82 14.7 5.82 14.51 5.67 14.51 5.67 14.56 5.77 14.56 5.77 14.65 5.67 14.65 5.47 14.46"/><polygon class="cls-6" points="3.98 5.28 4.08 5.15 4.67 5.15 5.12 4.58 5.72 4.58 6.17 5.15 6.75 5.15 6.85 5.28 6.75 5.41 6.17 5.41 5.72 5.99 5.12 5.99 4.67 5.41 4.08 5.41 3.98 5.28"/><polygon class="cls-6" points="4.03 5.13 4.08 5.08 4.69 5.08 5.16 4.53 5.67 4.53 6.14 5.08 6.75 5.08 6.8 5.13 6.75 5.18 6.14 5.18 5.72 5.66 5.11 5.66 4.69 5.18 4.08 5.18 4.03 5.13"/><polygon class="cls-7" points="4.03 5.13 4.08 5.08 4.69 5.08 5.16 4.53 5.67 4.53 6.14 5.08 6.75 5.08 6.8 5.13 6.75 5.18 6.14 5.18 5.72 5.66 5.11 5.66 4.69 5.18 4.08 5.18 4.03 5.13"/><path class="cls-5" d="M5.67,5.18l.2.22-.1.11,0,0h0v0l0,.07h.1l.1-.12V5.35l-.2-.24.2-.23v-.1l-.1-.11h-.1l0,0v.06h0l0-.06.1.11-.2.23-.2-.23.2-.23v0h0l-.2.23-.2-.23h0v0l.2.23-.2.23L5,4.83l.1-.11,0,.06h0V4.72l0,0H5l-.1.11v.1l.2.23-.2.24v.11l.1.12h.1l0-.07v0h0l0,0L5,5.4l.2-.22.2.22-.2.23V5.7h0l.2-.24.2.24h0V5.63l-.2-.23Zm-.25-.3-.2.23.2.24.2-.24Z"/><path class="cls-7" d="M5.67,5.18l.2.22-.1.11,0,0h0v0l0,.07h.1l.1-.12V5.35l-.2-.24.2-.23v-.1l-.1-.11h-.1l0,0v.06h0l0-.06.1.11-.2.23-.2-.23.2-.23v0h0l-.2.23-.2-.23h0v0l.2.23-.2.23L5,4.83l.1-.11,0,.06h0V4.72l0,0H5l-.1.11v.1l.2.23-.2.24v.11l.1.12h.1l0-.07v0h0l0,0L5,5.4l.2-.22.2.22-.2.23V5.7h0l.2-.24.2.24h0V5.63l-.2-.23Zm-.25-.3-.2.23.2.24.2-.24Z"/><polygon class="cls-5" points="5.12 5.75 5.12 6.19 5.17 6.14 5.22 6.19 5.27 6.14 5.32 6.19 5.37 6.14 5.42 6.19 5.47 6.14 5.52 6.19 5.57 6.14 5.62 6.19 5.67 6.14 5.72 6.19 5.72 5.75 5.12 5.75"/><polygon class="cls-5" points="5.72 4.48 5.72 4.04 5.67 4.08 5.62 4.04 5.57 4.08 5.52 4.04 5.47 4.08 5.42 4.04 5.37 4.08 5.32 4.04 5.27 4.08 5.22 4.04 5.17 4.08 5.12 4.04 5.12 4.48 5.72 4.48"/><polygon class="cls-5" points="6.55 5 6.55 4.55 6.5 4.6 6.45 4.55 6.4 4.6 6.35 4.55 6.32 4.6 6.27 4.55 6.22 4.6 6.17 4.55 6.17 5 6.55 5"/><polygon class="cls-5" points="4.67 5 4.67 4.55 4.62 4.6 4.57 4.55 4.52 4.6 4.47 4.55 4.42 4.6 4.37 4.55 4.32 4.6 4.27 4.55 4.27 5 4.67 5"/><polygon class="cls-5" points="6.55 5.23 6.55 5.7 6.5 5.63 6.45 5.7 6.4 5.63 6.35 5.7 6.32 5.63 6.27 5.7 6.22 5.63 6.17 5.7 6.17 5.23 6.55 5.23"/><polygon class="cls-5" points="4.67 5.23 4.67 5.7 4.62 5.63 4.57 5.7 4.52 5.63 4.47 5.7 4.42 5.63 4.37 5.7 4.32 5.63 4.27 5.7 4.27 5.23 4.67 5.23"/><polygon class="cls-8" points="5.72 5.75 5.72 6.03 5.77 5.98 5.82 6.03 5.87 5.98 5.92 6.03 5.97 5.98 6.02 6.03 6.07 5.98 6.12 6.03 6.17 5.98 6.17 5.23 5.72 5.75"/><polygon class="cls-8" points="5.12 5.75 5.12 6.03 5.07 5.98 5.02 6.03 4.97 5.98 4.92 6.03 4.87 5.98 4.82 6.03 4.77 5.98 4.72 6.03 4.67 5.98 4.67 5.23 5.12 5.75"/><polygon class="cls-8" points="5.12 4.48 5.12 4.2 5.07 4.27 5.02 4.2 4.97 4.27 4.92 4.2 4.87 4.27 4.82 4.2 4.77 4.27 4.72 4.2 4.67 4.27 4.67 5 5.12 4.48"/><polygon class="cls-8" points="5.72 4.48 5.72 4.2 5.77 4.27 5.82 4.2 5.87 4.27 5.92 4.2 5.97 4.27 6.02 4.2 6.07 4.27 6.12 4.2 6.17 4.27 6.17 5 5.72 4.48"/><polygon class="cls-8" points="4.27 5.58 4.22 5.51 4.17 5.58 4.13 5.51 4.08 5.58 4.03 5.51 3.98 5.58 3.92 5.51 3.88 5.58 3.88 4.67 3.92 4.72 3.98 4.67 4.03 4.72 4.08 4.67 4.13 4.72 4.17 4.67 4.22 4.72 4.27 4.67 4.27 5 4.08 5 3.98 5.11 4.08 5.23 4.27 5.23 4.27 5.58"/><polygon class="cls-8" points="6.55 5.58 6.6 5.51 6.65 5.58 6.7 5.51 6.75 5.58 6.8 5.51 6.85 5.58 6.9 5.51 6.95 5.58 6.95 4.67 6.9 4.72 6.85 4.67 6.8 4.72 6.75 4.67 6.7 4.72 6.65 4.67 6.6 4.72 6.55 4.67 6.55 5 6.75 5 6.85 5.11 6.75 5.23 6.55 5.23 6.55 5.58"/><path class="cls-12" d="M4.87,5.78l0,.06a.12.12,0,0,0,.07.07A.08.08,0,0,0,5,5.84l0-.06V5.7s.1.14.1.08-.1-.13-.1-.13h0s-.1.1-.1.13.1-.08.1-.08Z"/><path class="cls-6" d="M5.39,6s0,0,0,.08,0,.1.08.1.07-.06.07-.1,0-.08,0-.08V5.83s.08.2.08.11a.51.51,0,0,0-.08-.18H5.39s-.1.15-.08.18.08-.11.08-.11Z"/><path class="cls-8" d="M5,5.11s0,.07-.1.07-.1,0-.1-.07,0-.05.1-.05.1,0,.1.05Z"/><path class="cls-8" d="M5.52,5.11s0,.07-.1.07-.1,0-.1-.07,0-.05.1-.05.1,0,.1.05Z"/><path class="cls-8" d="M6.07,5.11S6,5.18,6,5.18s-.1,0-.1-.07,0-.05.1-.05.1,0,.1.05Z"/><path class="cls-12" d="M4.86,4.47a.19.19,0,0,1,0-.09.15.15,0,0,1,0-.06.09.09,0,0,1,.07.06.22.22,0,0,1,0,.09v.08S5,4.4,5,4.47s-.08.13-.08.13h0s-.09-.1-.09-.13.09.08.09.08Z"/><path class="cls-6" d="M5.37,4.28a.22.22,0,0,1,0-.1s.07-.08.09-.08.06.05.06.08a.22.22,0,0,1,0,.1v.14s.1-.22.1-.12-.1.17-.1.17h0s-.1-.14-.08-.17.08.12.08.12Z"/><path class="cls-12" d="M5.94,5.78l-.05.06s.05.07.06.07S6,5.88,6,5.84l0-.06V5.7s.1.14.1.08S6,5.65,6,5.65h0s-.1.1-.1.13.1-.08.1-.08Z"/><path class="cls-12" d="M5.92,4.47a.22.22,0,0,1,0-.09s0-.06.05-.06.06,0,.06.06a.22.22,0,0,1,0,.09v.08s.08-.15.08-.08S6,4.6,6,4.6h0s-.08-.1-.08-.13.08.08.08.08Z"/><path class="cls-6" d="M4.44,5.46s-.07,0-.07.07.07.07.09.07a.11.11,0,0,0,.08-.07s0-.07,0-.07V5.38s.1.13.1.07-.1-.12-.1-.12h0s-.12.1-.1.12.1-.07.1-.07Z"/><path class="cls-6" d="M4.42,4.82s0,0,0-.07a.09.09,0,0,1,.17,0s-.07.07-.07.07V4.9s.1-.13.1-.07-.1.12-.1.12h0s-.11-.1-.1-.12.1.07.1.07Z"/><path class="cls-6" d="M6.35,5.45l0,.06s0,.07.09.07.08,0,.08-.07L6.4,5.45V5.36s.1.14.1.09-.1-.12-.1-.12H6.35s-.11.08-.1.12.1-.09.1-.09Z"/><path class="cls-6" d="M6.34,4.8s0,0,0-.07a.09.09,0,0,1,.16,0s-.06.07-.06.07v.08s.1-.13.1-.06-.1.11-.1.11h0s-.12-.1-.1-.11.1.06.1.06Z"/><path class="cls-12" d="M4,5.46a.2.2,0,0,1,0-.08s.06-.07.07-.07,0,.05,0,.07v.08l0-.06c0,.1,0,.1-.05,0Z"/><path class="cls-12" d="M4,4.8a.21.21,0,0,0,0,.08s.06.07.07.07,0,0,0-.08V4.8l0,.07c0-.1,0-.1-.05,0Z"/><path class="cls-12" d="M6.72,5.45a.15.15,0,0,1,0-.09.13.13,0,0,1,.07-.05.08.08,0,0,1,.07.07.17.17,0,0,1,0,.08l0-.06c0,.08,0,.08,0,0Z"/><path class="cls-12" d="M6.72,4.8a.11.11,0,0,0,0,.07s0,.06.07.06.07,0,.07-.06V4.78l0,.07c0-.1,0-.1,0,0Z"/><path class="cls-6" d="M5.11,6.21V6H4.64V5.73H4.22V5.61H3.88v-1h.34v-.1h.42V4.2h.47V4.05h.61V4.2h.47v.33H6.6v.1H7v1H6.6v.12H6.19V6H5.72v.17Zm-.05,0V6.11H4.59V5.78H4.17V5.66H3.83V4.58h.34v-.1h.42V4.15h.47V4h.71v.16h.47v.33h.41v.1H7V5.66H6.65v.12H6.24v.33H5.77v.15Z"/><path class="cls-7" d="M5.11,6.21V6H4.64V5.73H4.22V5.61H3.88v-1h.34v-.1h.42V4.2h.47V4.05h.61V4.2h.47v.33H6.6v.1H7v1H6.6v.12H6.19V6H5.72v.17Zm-.05,0V6.11H4.59V5.78H4.17V5.66H3.83V4.58h.34v-.1h.42V4.15h.47V4h.71v.16h.47v.33h.41v.1H7V5.66H6.65v.12H6.24v.33H5.77v.15Z"/><path class="cls-12" d="M14.1,3.85A2.14,2.14,0,1,0,12,6,2.14,2.14,0,0,0,14.1,3.85Z"/><path class="cls-8" d="M13.52,3.52a2.11,2.11,0,1,0-2.11,2.13,2.12,2.12,0,0,0,2.11-2.13Z"/><polygon class="cls-16" points="12.24 2.66 11.94 2.66 11.86 2.96 11.76 2.66 11.46 2.66 11.69 2.48 11.59 2.19 11.84 2.36 12.09 2.19 12.01 2.48 12.24 2.66"/><polygon class="cls-16" points="11.16 2.11 10.86 2.13 10.78 2.41 10.68 2.13 10.38 2.11 10.61 1.93 10.51 1.64 10.76 1.81 10.99 1.64 10.93 1.93 11.16 2.11"/><polygon class="cls-16" points="11.16 3.21 10.86 3.21 10.78 3.49 10.68 3.21 10.38 3.21 10.61 3.02 10.51 2.72 10.76 2.91 10.99 2.72 10.93 3.02 11.16 3.21"/><polygon class="cls-16" points="11.16 4.3 10.86 4.3 10.78 4.58 10.68 4.3 10.38 4.3 10.61 4.12 10.51 3.82 10.76 4 10.99 3.82 10.93 4.12 11.16 4.3"/><polygon class="cls-16" points="10.08 3.74 9.78 3.74 9.7 4.04 9.6 3.74 9.3 3.74 9.53 3.55 9.43 3.27 9.68 3.44 9.93 3.27 9.85 3.55 10.08 3.74"/><polygon class="cls-6" points="5.77 15.36 5.84 15.36 5.84 15.21 5.97 15.21 5.97 15.36 6.04 15.36 6.04 15.01 5.97 15.01 5.97 15.16 5.84 15.16 5.84 15.01 5.77 15.01 5.77 15.36"/></g></g></g></g></g></svg>