<svg xmlns="http://www.w3.org/2000/svg" xmlns:xlink="http://www.w3.org/1999/xlink" viewBox="0 0 29.46 17.19"><defs><style>.cls-1{fill:none;}.cls-2{clip-path:url(#clip-path);}.cls-3{fill:#fff;}.cls-4{fill:#3e73b7;}.cls-5{fill:#eac126;}.cls-5,.cls-7{fill-rule:evenodd;}.cls-6,.cls-7{fill:#292c2f;}</style><clipPath id="clip-path"><rect class="cls-1" width="29.46" height="17.19"/></clipPath></defs><g id="Layer_2" data-name="Layer 2"><g id="cá»"><g id="south_america" data-name="south america"><g class="cls-2"><rect class="cls-3" width="29.46" height="17.19"/><path class="cls-4" d="M0,15.28H29.46V13.37H0Zm0-3.82H29.46V9.55H0ZM9.55,7.64H29.46V5.73H9.55Zm0-3.82H29.46V1.91H9.55Z"/><g class="cls-2"><path class="cls-5" d="M4.79,4.79,4.87,6.2c-1.3.94-.5,1.49-1.44,1.8.64-.64-.19-.64.53-2.08"/><path class="cls-6" d="M4.82,4.79,4.9,6.2H4.84L4.73,4.79ZM4.9,6.2h0v0l0,0Zm0,0A1.86,1.86,0,0,0,4,7.39H4a1.92,1.92,0,0,1,.88-1.22ZM4,7.39A.73.73,0,0,1,3.46,8l0-.06A.66.66,0,0,0,4,7.39ZM3.46,8l-.14.05L3.4,8h0ZM3.4,8c.28-.31.28-.47.23-.69h.08A.7.7,0,0,1,3.46,8Zm.23-.69a2.05,2.05,0,0,1,.3-1.39L4,6a1.92,1.92,0,0,0-.28,1.36Z"/><path class="cls-6" d="M4.35,5.87A3.07,3.07,0,0,0,3.9,7.25l-.08,0a4,4,0,0,1,.47-1.38ZM3.9,7.25c0,.36-.11.64-.44.78l0-.06c.31-.14.34-.39.39-.75Z"/><path class="cls-5" d="M4.79,4.79,4.68,3.35c1.3-.94.5-1.5,1.44-1.8-.61.66.19.66-.53,2.08"/><path class="cls-6" d="M4.73,4.79,4.65,3.38l.06,0,.11,1.44ZM4.65,3.38v0h0Zm0,0a1.78,1.78,0,0,0,.86-1.19l.08,0a1.91,1.91,0,0,1-.88,1.19Zm.86-1.19a.75.75,0,0,1,.58-.64l0,.06a.66.66,0,0,0-.53.61Zm.58-.64.14,0-.08.09,0,0Zm.06.06c-.28.3-.28.44-.23.66l-.08,0a.76.76,0,0,1,.25-.75Zm-.23.66a2.12,2.12,0,0,1-.3,1.41l-.06,0a1.94,1.94,0,0,0,.28-1.36Z"/><path class="cls-6" d="M5.2,3.68a3.72,3.72,0,0,0,.48-1.35h.05a3.66,3.66,0,0,1-.47,1.38Zm.48-1.35c.05-.39.08-.64.41-.81l0,.06c-.31.14-.33.39-.39.75Z"/><path class="cls-5" d="M4.79,4.79l-1.44.08c-.94-1.3-1.5-.5-1.8-1.44.66.64.64-.16,2.08.53"/><path class="cls-6" d="M4.79,4.82l-1.44.11V4.84l1.41-.08Zm-1.44.11h0l0,0,0,0Zm0,0A1.75,1.75,0,0,0,2.16,4V4a1.77,1.77,0,0,1,1.22.88ZM2.16,4a.75.75,0,0,1-.64-.58l.06,0A.74.74,0,0,0,2.16,4Zm-.64-.58-.05-.11.11.08h0Zm.06,0a.63.63,0,0,0,.66.22l0,.06a.76.76,0,0,1-.75-.25Zm.66.22a2,2,0,0,1,1.41.28L3.6,4a2.06,2.06,0,0,0-1.33-.28Z"/><path class="cls-6" d="M3.68,4.37A3.32,3.32,0,0,0,2.33,3.9V3.82a3.42,3.42,0,0,1,1.38.5ZM2.33,3.9c-.39,0-.64-.11-.81-.44l.06,0c.14.31.39.36.75.39Z"/><path class="cls-5" d="M4.79,4.79,6.2,4.68C7.14,6,7.7,5.2,8,6.12c-.66-.61-.64.19-2.08-.53"/><path class="cls-6" d="M4.76,4.76,6.2,4.65v.06l-1.41.11ZM6.2,4.65h0l0,0Zm0,0a1.87,1.87,0,0,0,1.16.89v0a1.88,1.88,0,0,1-1.22-.88Zm1.16.89A.68.68,0,0,1,8,6.12H8a.66.66,0,0,0-.58-.53ZM8,6.12l.05.11L8,6.14l0,0ZM8,6.14a.64.64,0,0,0-.66-.22l0,0A.66.66,0,0,1,8,6.09Zm-.66-.22a2.12,2.12,0,0,1-1.39-.3l0-.06a2,2,0,0,0,1.33.31Z"/><path class="cls-6" d="M5.87,5.2a3.44,3.44,0,0,0,1.38.47l0,.06a3.41,3.41,0,0,1-1.39-.47Zm1.38.47c.36.06.61.09.78.45L8,6.14c-.14-.33-.38-.36-.74-.41Z"/><path class="cls-5" d="M4.79,4.79,3.85,5.87c-1.61-.28-1.44.69-2.3.25.91,0,.33-.58,1.83-1.11"/><path class="cls-6" d="M4.79,4.79,3.88,5.87l-.06,0,.94-1.08ZM3.88,5.87l0,0v0Zm0,0a1.78,1.78,0,0,0-1.44.23l-.06-.06a1.88,1.88,0,0,1,1.5-.25Zm-1.44.23a.78.78,0,0,1-.89,0l0,0a.68.68,0,0,0,.8,0Zm-.89,0-.11,0h.14v0Zm0,0a.67.67,0,0,0,.64-.33l.05,0a.69.69,0,0,1-.69.33Zm.64-.33A2.07,2.07,0,0,1,3.38,5L3.4,5a1.88,1.88,0,0,0-1.16.77Z"/><path class="cls-6" d="M3.71,5.26a3.54,3.54,0,0,0-1.3.63l0,0a3.69,3.69,0,0,1,1.3-.64Zm-1.3.63c-.31.23-.5.39-.86.25v0c.33.11.53,0,.83-.25Z"/><path class="cls-5" d="M4.79,4.79,5.7,3.71C7.31,4,7.14,3,8,3.43c-.91,0-.33.61-1.83,1.11"/><path class="cls-6" d="M4.76,4.76l.92-1.08.05.06-.94,1Zm.92-1.08h0v0Zm0,0a1.87,1.87,0,0,0,1.44-.22l.06,0a1.9,1.9,0,0,1-1.5.23Zm1.44-.22A.78.78,0,0,1,8,3.4l0,.06a.7.7,0,0,0-.8,0ZM8,3.4l.11.06L8,3.49V3.43Zm0,.09a.67.67,0,0,0-.64.3l-.05,0A.78.78,0,0,1,8,3.4Zm-.64.3a2.07,2.07,0,0,1-1.19.78l0-.06a1.88,1.88,0,0,0,1.16-.75Z"/><path class="cls-6" d="M5.84,4.29a2.7,2.7,0,0,0,1.3-.64l0,.06a3.11,3.11,0,0,1-1.3.66Zm1.3-.64c.31-.22.53-.36.86-.25v.06c-.33-.11-.53,0-.83.25Z"/><path class="cls-5" d="M4.79,4.79,3.71,3.85C4,2.24,3,2.41,3.43,1.55c0,.91.61.33,1.11,1.83"/><path class="cls-6" d="M4.76,4.82,3.68,3.88l.06-.06,1,.94ZM3.68,3.88h0v0h0Zm0,0a2,2,0,0,0-.22-1.44l.06,0a2,2,0,0,1,.22,1.47ZM3.46,2.41a.69.69,0,0,1-.06-.86l.06,0a.69.69,0,0,0,.06.8ZM3.4,1.55l.06-.11v.11H3.4Zm.06,0a.67.67,0,0,0,.33.64l0,.05a.74.74,0,0,1-.37-.69Zm.33.64a2.07,2.07,0,0,1,.78,1.19l-.06,0a2.16,2.16,0,0,0-.74-1.16Z"/><path class="cls-6" d="M4.29,3.71a2.7,2.7,0,0,0-.64-1.3l.06,0a3.07,3.07,0,0,1,.66,1.33Zm-.64-1.3c-.22-.31-.36-.5-.25-.86h.06c-.11.33,0,.53.25.83Z"/><path class="cls-5" d="M4.79,4.79l1,.91c-.25,1.61.72,1.44.28,2.3,0-.89-.61-.31-1.11-1.83"/><path class="cls-6" d="M4.79,4.76l1.08.91,0,.06L4.76,4.82Zm1.08.91,0,0,0,0,0,0Zm0,.06a2.07,2.07,0,0,0,.22,1.44L6,7.2a2.16,2.16,0,0,1-.22-1.5Zm.22,1.44A.69.69,0,0,1,6.15,8L6.09,8A.68.68,0,0,0,6,7.2ZM6.15,8l-.06.11V8h0ZM6.09,8a.71.71,0,0,0-.33-.64l0,0A.71.71,0,0,1,6.15,8Zm-.33-.64A1.92,1.92,0,0,1,5,6.17H5a2.14,2.14,0,0,0,.75,1.16Z"/><path class="cls-6" d="M5.26,5.84a3.24,3.24,0,0,0,.64,1.3l-.06.06A3.22,3.22,0,0,1,5.2,5.87Zm.64,1.3A.92.92,0,0,1,6.15,8L6.09,8c.11-.33,0-.53-.25-.8Z"/><polyline class="cls-5" points="4.79 4.79 5.4 4.79 4.79 8.28 4.15 4.79 4.79 4.79 4.79 8.28"/><path class="cls-6" d="M4.79,4.76H5.4v.06H4.79Zm.61,0h0v0h0Zm0,0L4.82,8.28H4.73l.64-3.49ZM4.82,8.28l0,.16-.06-.16h.09Zm-.09,0L4.1,4.79h.08l.64,3.49ZM4.1,4.76h.05v0H4.1Zm.05,0h.64v.06H4.15Zm.64,0h0v0h0Zm0,3.52H4.73V4.79h.09Z"/><polyline class="cls-5" points="4.79 4.79 4.15 4.79 4.79 1.27 5.4 4.79 4.79 4.79 4.79 1.27"/><path class="cls-6" d="M4.79,4.82H4.15V4.76h.64Zm-.64,0H4.1v0h.05Zm-.05,0,.63-3.52.09,0L4.18,4.79Zm.63-3.52.06-.16,0,.16H4.73Zm.09,0,.63,3.52H5.37L4.73,1.3Zm.63,3.55h0v0h0Zm0,0H4.79V4.76H5.4Zm-.61,0H4.73v0h.06ZM4.73,1.27h.09V4.79H4.73Z"/><polyline class="cls-5" points="4.79 4.79 4.79 5.42 1.27 4.79 4.79 4.15 4.79 4.79 1.27 4.79"/><path class="cls-6" d="M4.82,5.42H4.73V4.79h.09Zm0,0v0H4.76l0,0Zm-.06,0L1.27,4.82l0-.06,3.49.64ZM1.27,4.82l-.16,0,.16,0v.06Zm0-.06,3.49-.64,0,.06L1.3,4.82Zm3.49-.64.06,0v.05h0Zm.06.67H4.73V4.15h.09Zm0,0h0v0h0Zm0,0H1.27V4.76H4.79Z"/><polyline class="cls-5" points="4.79 4.79 4.79 4.15 8.28 4.79 4.79 5.42 4.79 4.79 8.28 4.79"/><path class="cls-6" d="M4.73,4.15h.09v.64H4.73Zm0,0V4.1l.06,0v0Zm.06,0,3.49.64,0,.06L4.76,4.18Zm3.49.64.16,0-.16,0V4.76Zm0,.06-3.49.63,0,0,3.49-.64Zm-3.49.63H4.73v0h.06Zm-.06-.66h.09v.63H4.73Zm0,0h.06v0H4.73Zm.06,0H8.28v.06H4.79Z"/><polyline class="cls-5" points="4.79 4.79 5.23 5.23 2.3 7.25 4.32 4.32 4.79 4.79 2.3 7.25"/><path class="cls-6" d="M4.79,4.76l.47.44-.06.06-.44-.44Zm.47.44,0,0-.06,0v0Zm0,.06-2.9,2,0-.06,2.9-2Zm-2.9,2-.14.11.08-.17,0,0Zm-.06-.06,2-2.9.06,0-2,2.94Zm2-2.9,0,0,0,0H4.29Zm.06,0,.44.44,0,.06-.47-.48Zm.44.44,0,0,0,0V4.76Zm0,.06L2.33,7.28l0-.06L4.76,4.76Z"/><polyline class="cls-5" points="4.79 4.79 4.32 4.32 7.25 2.3 5.23 5.23 4.79 4.79 7.25 2.3"/><path class="cls-6" d="M4.76,4.82l-.47-.48.06,0,.44.44Zm-.47-.48v0h0Zm0,0L7.23,2.27l0,.06-2.9,2ZM7.23,2.27l.13-.08-.08.14,0,0Zm0,.06-2,2.93L5.2,5.2l2-2.9Zm-2,2.93,0,0,0,0,0,0Zm-.06,0-.44-.44,0-.06.47.44Zm-.44-.44,0,0,0,0,0,0Zm0-.06L7.23,2.3l0,0L4.79,4.82Z"/><polyline class="cls-5" points="4.79 4.79 4.32 5.23 2.3 2.3 5.23 4.32 4.79 4.79 2.3 2.3"/><path class="cls-6" d="M4.79,4.82l-.44.44L4.29,5.2l.47-.44Zm-.44.44,0,0,0,0,0,0Zm-.06,0-2-2.93.06,0,2,2.9Zm-2-2.93-.08-.14.14.08,0,0Zm.06-.06,2.9,2.05,0,0-2.9-2Zm2.9,2.05h.06l0,0Zm0,0-.47.48,0-.06.44-.44Zm-.47.48h0l0,0Zm0,0L2.3,2.33l0,0L4.79,4.76Z"/><polyline class="cls-5" points="4.79 4.79 5.23 4.32 7.25 7.25 4.32 5.23 4.79 4.79 7.25 7.25"/><path class="cls-6" d="M4.76,4.76l.44-.44.06,0-.47.48Zm.44-.44,0,0,0,0H5.2Zm.06,0,2,2.9,0,.06-2-2.94Zm2,2.9.08.17-.13-.11,0,0Zm0,.06-2.91-2,0-.06,2.9,2Zm-2.91-2,0,0v0l0,0Zm0-.06.47-.44,0,.06-.44.44Zm.47-.44,0,0v.06Zm0,0L7.28,7.22l0,.06L4.76,4.82Z"/><path class="cls-5" d="M6,4.79A1.14,1.14,0,0,0,4.79,3.63,1.15,1.15,0,0,0,3.6,4.79,1.18,1.18,0,0,0,6,4.79"/><path class="cls-6" d="M5.9,4.79A1,1,0,0,0,5.56,4l.06-.06A1.23,1.23,0,0,1,6,4.79ZM5.56,4a1,1,0,0,0-.77-.34V3.57a1.21,1.21,0,0,1,.83.36Zm-.77-.34A1,1,0,0,0,4,4l-.06-.06a1.23,1.23,0,0,1,.86-.36ZM4,4a1,1,0,0,0-.34.8H3.57a1.23,1.23,0,0,1,.36-.86Zm-.34.8a1.12,1.12,0,0,0,.34.8l-.06,0a1.16,1.16,0,0,1-.36-.83Zm.34.8a1.13,1.13,0,0,0,.8.33V6a1.23,1.23,0,0,1-.86-.36Zm.8.33a1.11,1.11,0,0,0,.77-.33l.06,0A1.21,1.21,0,0,1,4.79,6Zm.77-.33a1.08,1.08,0,0,0,.34-.8H6a1.16,1.16,0,0,1-.36.83Z"/><path class="cls-7" d="M5.62,4.32c-.06.08-.11-.06-.36-.06s-.3.14-.36.11.22-.22.3-.22a.54.54,0,0,1,.42.17"/><path class="cls-7" d="M5.31,4.4c.09.08,0,.22,0,.22S5,4.48,5.12,4.4"/><path class="cls-7" d="M5,4.51c0-.14.11-.17.28-.17s.25.14.3.17-.13-.11-.3-.11-.17,0-.28.11"/><path class="cls-7" d="M5,4.54c0-.06.08,0,.22,0a.36.36,0,0,0,.25-.08c.06,0-.11.14-.22.14S5,4.57,5,4.54"/><path class="cls-7" d="M5.37,4.59c.14,0,.06-.16,0-.19s.11.14,0,.19"/><path class="cls-7" d="M4.79,5.23A1.39,1.39,0,0,1,5,5.2c.08,0,.27.14.38.09-.25.11-.14,0-.55,0H4.73"/><path class="cls-7" d="M5.4,5.4a1.55,1.55,0,0,0-.14-.2.31.31,0,0,1,.14.2"/><path class="cls-7" d="M4.79,5.48c.25,0,.22-.06.55-.19-.25,0-.3.11-.55.11H4.73"/><path class="cls-7" d="M4.79,5.09S4.87,5,5,5a.33.33,0,0,1,.24.08S5.18,5,5.09,5s0-.17-.13-.2S5,4.9,5,5,4.9,5,4.87,5s0,.09-.08.09"/><path class="cls-7" d="M3.93,4.32c.06.08.11-.06.36-.06s.31.14.36.11-.22-.22-.3-.22a.54.54,0,0,0-.42.17"/><path class="cls-7" d="M4.24,4.4c-.09.08,0,.22,0,.22s.22-.14.14-.22"/><path class="cls-7" d="M4.57,4.51c0-.14-.11-.17-.28-.17S4,4.48,4,4.51s.13-.11.3-.11.17,0,.28.11"/><path class="cls-7" d="M4.54,4.54c0-.06-.08,0-.22,0a.36.36,0,0,1-.25-.08c-.06,0,.11.14.22.14s.28-.08.25-.11"/><path class="cls-7" d="M4.18,4.59c-.14,0-.06-.16,0-.19s-.11.14,0,.19"/><path class="cls-7" d="M4.79,5.23c-.08,0-.11,0-.19,0s-.28.14-.39.09c.25.11.14,0,.58,0h0"/><path class="cls-7" d="M4.15,5.4a1.58,1.58,0,0,0,.14-.2.49.49,0,0,0-.14.2"/><path class="cls-7" d="M4.79,5.48c-.28,0-.22-.06-.58-.19.25,0,.3.11.58.11h0"/><path class="cls-7" d="M4.79,5.09c-.08,0-.11,0-.19,0a.34.34,0,0,0-.25.08s0-.08.11-.08,0-.17.14-.2,0,.06,0,.11.08.06.11,0,.05.09.11.09"/><path class="cls-7" d="M4.79,5.59c-.06,0-.19,0,0,0s0,0,0,0"/></g></g></g></g></g></svg>