<svg xmlns="http://www.w3.org/2000/svg" xmlns:xlink="http://www.w3.org/1999/xlink" viewBox="0 0 29.46 17.19"><defs><style>.cls-1{fill:none;}.cls-2{clip-path:url(#clip-path);}.cls-3{fill:#3e8b11;}.cls-4{fill:#df7a21;}.cls-5{fill:#cb0423;}.cls-6{fill:#fff;}</style><clipPath id="clip-path"><rect class="cls-1" width="29.46" height="17.19"/></clipPath></defs><g id="Layer_2" data-name="Layer 2"><g id="cá»"><g id="east_africa" data-name="east africa"><g class="cls-2"><rect class="cls-3" width="29.46" height="17.19"/><rect class="cls-4" x="26" y="7.06" width="3.46" height="10.13"/><rect x="22.55" y="7.05" width="3.45" height="10.13"/><rect class="cls-5" x="19.03" y="7.06" width="3.53" height="10.13"/><g class="cls-2"><path class="cls-4" d="M27.15,2.52s1.3-.56,1.42-.67a2.36,2.36,0,0,1-1.64,1A14.3,14.3,0,0,0,29,1.9c.05,0,0,.74-2.3,1.37a11.48,11.48,0,0,0,2.54-1.12s-.16.61-1.57,1.08c.39-.1,1.46-.75,1.45-.62a2.75,2.75,0,0,1-3,1A3.51,3.51,0,0,0,28.84,3s-.28.85-2.23.9c.93-.1.66,0,.66,0a1.25,1.25,0,0,1-1.21.14c.52.14.58.15.59.19a1,1,0,0,1-.88-.08c.33.14.63.16.64.22a.49.49,0,0,1-.41,0c-.19-.09-1.93-1.16-1.93-1.16l3-.81Z"/><path d="M26.15,4.5a.41.41,0,0,1-.16,0c-.19-.09-1.86-1.11-1.94-1.16v0a0,0,0,0,1,0,0l3-.82.12,0c.43-.19,1.31-.57,1.41-.66a0,0,0,0,1,0,0s0,0,0,0,0,0,0,0a1,1,0,0,1-.35.4l.28-.16A1.3,1.3,0,0,1,29,1.87a.07.07,0,0,1,0,0c0,.08-.05.28-.34.51l.34-.2c.14-.09.18-.11.21-.11l0,0a1,1,0,0,1-.38.49.67.67,0,0,1,.21-.07h0v0a1.54,1.54,0,0,1-.36.41l.05,0a0,0,0,0,1,0,0c0,.1-.31.67-1.54.86h0s0,0,0,.06a1.41,1.41,0,0,1-.69.23c.06,0,.07,0,.08.07a.34.34,0,0,1-.27.09.05.05,0,0,1,0,0c0,.05-.15.11-.28.11Zm-2-1.2c.28.17,1.71,1,1.88,1.13a.5.5,0,0,0,.38,0,.53.53,0,0,1-.18,0,1.39,1.39,0,0,1-.45-.14s0,0,0,0h0a4.1,4.1,0,0,0,.43.14.82.82,0,0,0,.42,0h0l-.23-.06a1.08,1.08,0,0,1-.35-.1s0,0,0,0,0,0,0,0l.35.09h.12a1.28,1.28,0,0,0,.72-.23h0a5.66,5.66,0,0,1-.6,0s0,0,0,0,0,0,0,0c.29,0,.49,0,.6,0,1.29-.17,1.61-.75,1.62-.83a.74.74,0,0,1-.18.12l-.37.21a2.57,2.57,0,0,1-.6.23,2.84,2.84,0,0,1-1.53,0s0,0,0,0l0,0a3.21,3.21,0,0,0,1.51,0,3.59,3.59,0,0,0,.59-.23,2.26,2.26,0,0,0,.85-.72,3.54,3.54,0,0,0-.45.2,3.55,3.55,0,0,1-.73.35.76.76,0,0,1-.25.09s0,0,0,0l0,0a1.35,1.35,0,0,0,.24-.08l.61-.29.12-.06c.47-.3.58-.56.59-.61a.77.77,0,0,1-.16.11c-.17.1-.45.27-.81.45a6.55,6.55,0,0,1-1.19.47l-.35.1h0s0,0,0,0,0,0,0,0l.35-.1a7.44,7.44,0,0,0,1.18-.47C29,2.28,29,2,29,1.92a1.66,1.66,0,0,0-.43.23,8.84,8.84,0,0,1-.8.45,3.64,3.64,0,0,1-.82.3l0,0s0,0,0,0h0a3.85,3.85,0,0,0,.81-.3,2.26,2.26,0,0,0,.81-.65c-.28.17-1.34.62-1.38.64L27,2.5l-2.9.8Z"/><path class="cls-4" d="M23.66,5.42a.24.24,0,0,0-.27.23s0,0,0,.13a.45.45,0,0,1,.06-.1.4.4,0,0,0,.34-.11c-.17.18-.07.25-.07.25s0,.14.09.17a.11.11,0,0,1,0-.11s.18,0,.17-.25c0,.21.12.26.12.26A.12.12,0,0,0,24.2,6a.16.16,0,0,1-.05-.15.21.21,0,0,0,0-.3.5.5,0,0,0,.14-.17l-.15-.09a1.19,1.19,0,0,1,0-.32l-.06-.36-.19.56a.24.24,0,0,1-.24.24Z"/><path d="M24.2,6h0a.13.13,0,0,1-.14-.14s-.06,0-.09-.12a.2.2,0,0,1-.16.13.12.12,0,0,0,0,.07,0,0,0,0,1,0,0h0A.14.14,0,0,1,23.7,6a.15.15,0,0,1,0-.13s0,0,0-.06a.13.13,0,0,1,0-.1.36.36,0,0,1-.23,0l-.05.09h0s0,0,0,0,0-.14,0-.15,0-.24.29-.24a.23.23,0,0,0,.22-.21h0l.17-.55h0s0,0,0,0l.07.35a1.09,1.09,0,0,0,0,.32.86.86,0,0,0,.14.07l0,0v0a.92.92,0,0,1-.14.17.22.22,0,0,1,0,.31s0,.07.05.11a0,0,0,0,1,0,0ZM24,5.61l0,0c0,.19.1.23.11.24s0,.06,0,.09a.2.2,0,0,1,0-.1.2.2,0,0,0,0-.29v0h0a.39.39,0,0,0,.12-.14l-.14-.08a1,1,0,0,1,0-.34l-.05-.26-.15.46h0a.28.28,0,0,1-.27.26.22.22,0,0,0-.25.21.2.2,0,0,0,0,0s0,0,0,0h.08a.47.47,0,0,0,.26-.11h0a0,0,0,0,1,0,0c-.08.08-.1.14-.09.17a0,0,0,0,0,0,0s0,.09,0,.13v0a.14.14,0,0,1,0-.07.23.23,0,0,0,.18-.23s0,0,0,0Z"/><path class="cls-4" d="M24.94,4.61s.2.22.38.21-.14-.18-.14-.21.39.34.59.24-.14-.1-.39-.41c.17.12.6.37.8.27s-.44-.38-.62-.6l-.46-.23-.63.5Z"/><path d="M25.67,4.9a.67.67,0,0,1-.31-.12h0l0,0h0a.58.58,0,0,1-.4-.21l-.47-.22s0,0,0,0,0,0,0,0l.62-.51.49.23a1.77,1.77,0,0,0,.35.3c.18.14.29.23.3.29a.11.11,0,0,1,0,.05c-.19.1-.48-.06-.68-.17l.19.14a.22.22,0,0,1,.1.09.08.08,0,0,1,0,.07.19.19,0,0,1-.12,0Zm-.49-.32h0c.05,0,.38.32.56.24,0,0,0-.07-.08-.09a1.21,1.21,0,0,1-.32-.28s0,0,0,0,0,0,0,0,.59.36.78.27c0-.05-.15-.16-.28-.26a2.2,2.2,0,0,1-.35-.31l-.45-.22-.57.48.44.21a.57.57,0,0,0,.35.21s-.06-.09-.1-.12-.06,0-.06-.07a0,0,0,0,1,0,0Z"/><path class="cls-4" d="M24.24,2.87a2.28,2.28,0,0,1,1.06-.06A4.81,4.81,0,0,0,26,2.59a5,5,0,0,0,1.25-.38c.15,0,0,.28-.23.35a3.86,3.86,0,0,1-1.19.31c.31,0,.14.25-.38.13.25.14.16.16.16.16s-.44,0-.55-.07c.29.11.17.15.17.15a1.08,1.08,0,0,1-.44,0c.22.07.11.11.11.11a.67.67,0,0,1-.32,0c-.14,0-.36-.41-.37-.41Z"/><path d="M24.81,3.34a.66.66,0,0,1-.21,0c-.11,0-.26-.26-.34-.37l0,0s0,0,0,0,0,0,0,0a2.21,2.21,0,0,1,1.07-.07h0a3.06,3.06,0,0,0,.62-.18l.11,0a4.45,4.45,0,0,0,1.23-.38c.06,0,.09,0,.09.05s-.14.28-.29.34a5,5,0,0,1-1,.31.06.06,0,0,1,0,0c0,.07-.18.14-.43.11.06.05.07.08.07.1a.08.08,0,0,1,0,0,2.21,2.21,0,0,1-.34,0,0,0,0,0,1,0,0s0,0,0,0a1.31,1.31,0,0,1-.29,0v0s0,0,0,.05Zm-.53-.46,0,0a1.21,1.21,0,0,0,.32.35.54.54,0,0,0,.19,0h.11l-.05,0-.06,0a0,0,0,0,1,0,0s0,0,0,0l.06,0,.21,0h.16s0,0-.07,0a.33.33,0,0,1-.12-.05,0,0,0,0,1,0,0s0,0,0,0a.28.28,0,0,1,.11.05,2.35,2.35,0,0,0,.42,0s0,0-.16-.11a0,0,0,0,1,0,0s0,0,0,0l.25,0c.17,0,.25,0,.25-.08s0,0-.08,0h-.05s0,0,0,0l0,0h.05A4.21,4.21,0,0,0,27,2.53c.14,0,.28-.23.27-.29A5.79,5.79,0,0,1,26,2.62l-.1,0a3.67,3.67,0,0,1-.63.18h-.45a2,2,0,0,0-.58.06Z"/><path class="cls-4" d="M24.58,4.73l0,.56,0,0s-.4-.06-.35.23a.22.22,0,0,0,.09.22.59.59,0,0,1,0-.13s.11.06.22-.12c-.07.18,0,.24,0,.24s0,.18.12.18a.12.12,0,0,1,0-.13s.15,0,.1-.3c.05-.06.07,0,.07,0s0,.16.15.13,0,.12,0,.12A.14.14,0,0,0,25,5.7a.2.2,0,0,0-.1-.29c0-.06.06-.06.06-.06a.28.28,0,0,1,.13.08c0,.05,0-.13-.1-.15s-.17,0-.17,0,0-.41,0-.52Z"/><path d="M24.62,6c-.12,0-.13-.1-.13-.15l0-.06a.2.2,0,0,1,0-.12.15.15,0,0,1-.13,0,.34.34,0,0,0,0,.09s0,0,0,0a0,0,0,0,1,0,0c-.09-.07-.09-.11-.09-.24a.19.19,0,0,1,0-.17.33.33,0,0,1,.25-.08h.06l0,0,0-.55.26,0a4.06,4.06,0,0,1,.07.55l.14,0c.11,0,.14.13.14.17s-.05,0-.06,0A.34.34,0,0,0,25,5.37l0,0c.08,0,.17.11.1.32a.15.15,0,0,1-.15.09h0v0s0,0,0-.07a.17.17,0,0,1-.17-.16.59.59,0,0,1-.06.26.26.26,0,0,1-.08.06s0,.05,0,.09V6a0,0,0,0,1,0,0Zm-.1-.46h0a0,0,0,0,1,0,0c-.06.15,0,.2,0,.21a.08.08,0,0,1,0,.06s0,.09,0,.1,0-.1,0-.1.05,0,.07-.06a.28.28,0,0,0,0-.23c.07-.11.12,0,.13,0s0,.11.09.11h0a.07.07,0,0,1,0,0,.13.13,0,0,1,0,.06.08.08,0,0,0,.05,0c0-.14,0-.22-.08-.26a.1.1,0,0,1,0-.07.18.18,0,0,1,.08,0,.48.48,0,0,1,.11,0l0,0a.08.08,0,0,0-.07,0s-.18,0-.18-.07,0-.41,0-.52l-.22,0,.06.53,0,.07h-.1a.34.34,0,0,0-.22.06.2.2,0,0,0,0,.14c0,.08,0,.11,0,.14V5.65s0,0,0,0h0s.09,0,.18-.1,0,0,0,0Z"/><path class="cls-4" d="M25.11,5.21s-.26-.38-.19-.43.17.18.26.13-.1,0-.19-.19A1.83,1.83,0,0,0,24.57,4c.2.32.67.51.69.41s-.41-.44-.39-.52a1.1,1.1,0,0,0,.83.52c0-.07-.26-.22-.33-.36a3,3,0,0,1-.75-.71,1.25,1.25,0,0,0-.38-.4.13.13,0,0,1,0-.07c-.13-.29,0-.38.13-.4s.1,0,.16,0l-.2-.08c.09.07.31,0,.26.19.09,0,.3-.28-.24-.33-.17-.2-.89-.32-1.07.56l.07,0a5.93,5.93,0,0,0-1.06-.23C21.67,2.4,21.05,2,21,2s.36.44.33.45A9.23,9.23,0,0,0,20.27,2c-.23-.09-.45-.29-.48-.25s.37.61.45.66.74.36.73.36a7.41,7.41,0,0,1-1.2-.58c-.09,0-.31-.31-.36-.29a.74.74,0,0,0,.5.69c.08.06,1,.39,1,.42L19.8,2.52c-.2-.08-.46-.36-.51-.33s.12.33.33.43.53.26.9.39l-1-.41c-.15-.09-.23-.19-.25-.17s.06.48,1.14.73c0,0,.38-.08.37-.07l-.39.08a.69.69,0,0,0-.22,0s.07.19.63.16c.07,0,.46-.14.42-.11s-.52.18-.56.18-.22,0-.22,0,.13.15.43.16a2.92,2.92,0,0,0,.76-.15s-.49.18-.5.19l-.2,0s.26.28,1,0c-.08.11-.46.18-.46.2a.42.42,0,0,0,.22.12A.49.49,0,0,0,22,4a1,1,0,0,0,.51-.27c0,.06-.5.32-.48.35s.5,0,.52,0a5,5,0,0,0,.73-.46c0,.06-.91.56-.9.58s.37,0,.39,0L23.14,4s-.45.28-.41.32.72-.13.78-.16-.36.17-.36.26.53.14.59.09,0,.16,0,.14a.49.49,0,0,0,.12-.16c0,.06-.05.15-.08.26a3.08,3.08,0,0,1-.07.35c0,.06.25-.11.21-.5,0,.2-.08.59,0,.61s.2-.2.21-.35a.88.88,0,0,0,.22.28.62.62,0,0,0,0-.23,3.71,3.71,0,0,0,0-.62c.22.41.3.59.24.9.07,0,.17-.22.16-.34a.51.51,0,0,0,.44.39Z"/><path d="M25.11,5.23a.55.55,0,0,1-.43-.32.72.72,0,0,1-.1.25l-.06,0,0,0a1.05,1.05,0,0,0-.2-.82,4.06,4.06,0,0,1,0,.54.34.34,0,0,1,0,.16v.07c-.1,0-.18-.14-.23-.22,0,.13-.14.31-.21.31s0,0,0-.21V5a.26.26,0,0,1-.15.14l0,0c0-.08,0-.15,0-.21l0-.15,0-.12s0,0-.05,0,0,0,0-.08a.25.25,0,0,0,0-.07s-.12.06-.24.06a.39.39,0,0,1-.35-.15c0-.05,0-.1.1-.14-.21.07-.46.14-.52.08a.07.07,0,0,1,0,0s0-.06.08-.1l-.05,0s-.36.1-.42,0,0,0,.08-.07c-.14,0-.35,0-.42,0s0,0,.08-.09l-.09,0a.52.52,0,0,1-.25,0,.33.33,0,0,1-.24-.14s0,0,.11-.06l.26-.08a2.2,2.2,0,0,1-.52.08.56.56,0,0,1-.42-.13s0,0,0,0,0,0,.13,0h.08l.11,0a1.39,1.39,0,0,1-.33.05.73.73,0,0,1-.48-.16s0-.06.21-.08l.13,0c-.45,0-.57-.09-.6-.13a.07.07,0,0,1,0-.06s.1,0,.17,0c-.79-.2-1-.52-1.07-.68s0-.05,0-.05.06,0,.1,0a1,1,0,0,0,.17.12h0a.66.66,0,0,1-.26-.38v0c.06,0,.11,0,.21.11l.12.11A.86.86,0,0,1,19.39,2s0-.09,0-.11.12,0,.21.13a.53.53,0,0,0,.17.15,2,2,0,0,0,.4.21c-.15-.13-.48-.47-.4-.64.06,0,.11,0,.19.07a1.38,1.38,0,0,0,.32.17c.3.13.62.28,1,.47a.08.08,0,0,1,0,0C21,2.19,21,2.09,21,2l0,0a1.4,1.4,0,0,1,.35.15,4.89,4.89,0,0,0,.92.39l.08,0a5.52,5.52,0,0,1,.9.18c.12-.66.52-.72.69-.72a.56.56,0,0,1,.4.14c.22,0,.35.08.36.18a.21.21,0,0,1-.14.19.41.41,0,0,0,0-.1l0,0h0a.22.22,0,0,1-.11,0h-.06a.21.21,0,0,0-.13.09.31.31,0,0,0,0,.28.14.14,0,0,0,0,.06,1.28,1.28,0,0,1,.38.41,3.25,3.25,0,0,0,.75.71,1.17,1.17,0,0,0,.19.2c.09.07.16.13.15.18a.1.1,0,0,1-.06,0,.86.86,0,0,1-.5-.22c.08.1.12.16.11.2s0,0-.06,0a.93.93,0,0,1-.4-.18,1.29,1.29,0,0,1,.13.31l.06.16a.31.31,0,0,0,.14.13s.05,0,.06.06,0,0-.05,0S25,4.89,25,4.86l-.08-.06a2.36,2.36,0,0,0,.16.3c.05.08.06.1.06.11l0,0Zm-.44-.43h0a.5.5,0,0,0,.4.38L25,5.12c-.11-.17-.19-.31-.13-.35s.07,0,.11.06a.28.28,0,0,0,.13.07h0s0,0,0,0A.34.34,0,0,1,25,4.73a.85.85,0,0,1-.06-.17,1.39,1.39,0,0,0-.19-.39A1.45,1.45,0,0,1,24.55,4a0,0,0,0,1,0,0s0,0,0,0a1.45,1.45,0,0,1,.17.19,1,1,0,0,0,.46.24s-.08-.17-.17-.26-.2-.23-.19-.27a0,0,0,0,1,0,0h0a1.08,1.08,0,0,0,.81.51l-.15-.12a1,1,0,0,1-.2-.21c-.17-.11-.74-.59-.75-.72a1.56,1.56,0,0,0-.37-.39s0-.05,0-.07a.37.37,0,0,1,0-.32.22.22,0,0,1,.17-.1h.1l0,0a.23.23,0,0,1-.11,0,0,0,0,0,1,0,0h0l.11,0a.2.2,0,0,1,.15.07.13.13,0,0,1,0,.11s.09-.11.08-.17-.13-.13-.34-.15a.51.51,0,0,0-.38-.14c-.16,0-.54.06-.67.68,0,0,0,0,.06,0s0,0,0,0,0,0,0,0a4.51,4.51,0,0,0-1-.21l-.09,0a5,5,0,0,1-.92-.39A1.71,1.71,0,0,0,21,2.05s.16.23.24.3.11.13.1.14c-.4-.2-.75-.36-1.08-.5a2.43,2.43,0,0,1-.32-.18l-.14-.07c-.07.14.36.57.45.63l.41.2.31.15h0a0,0,0,0,1,0,0h0v0l-.31-.16-.2-.09a3.33,3.33,0,0,1-.7-.34s-.11-.07-.18-.15-.13-.13-.16-.13,0,.07,0,.17a.85.85,0,0,0,.47.48l.11,0,0,0,.35.14c.51.2.51.21.5.23s0,0,0,0h0c-.07,0-.26-.09-.83-.33l0,0h0l-.22-.09a1.72,1.72,0,0,1-.33-.22.37.37,0,0,0-.16-.11.69.69,0,0,0,.33.39l.1,0,.38.17.3.12.11,0h0s0,0,0,0h0V3L20.39,3l-.06,0-.23-.09-.6-.24-.18-.13-.05,0a.23.23,0,0,0,0,.09c.07.12.3.41,1.11.6l.11,0,.13,0,.11,0,0,0-.25.05-.11,0h0l-.21,0c.06.06.19.15.62.12L21,3.28l.19-.06,0,0s-.55.19-.58.19l-.21,0a.75.75,0,0,0,.42.13h0a2.69,2.69,0,0,0,.69-.14c.12,0,.08,0,.09,0v0l-.3.11-.21.08H21l-.11,0a.67.67,0,0,0,.4.1A2,2,0,0,0,22,3.7h0v0a.91.91,0,0,1-.37.17l-.09,0a.52.52,0,0,0,.21.09A.44.44,0,0,0,22,4a.92.92,0,0,0,.5-.27c.05,0,0,.11-.27.25L22,4.12l.14,0a1.06,1.06,0,0,0,.35-.07,8,8,0,0,0,.72-.44l0,0,0,0s-.08.1-.61.41l-.29.18h.1a.82.82,0,0,0,.26-.05l.09,0L23.13,4h0s0,0,0,0h0a1.88,1.88,0,0,0-.41.29s0,0,.07,0a2.48,2.48,0,0,0,.63-.19l.07,0h0s0,0,0,0l-.07,0c-.16.08-.28.17-.28.21a.41.41,0,0,0,.32.12.57.57,0,0,0,.24,0s0,0,0,.1h0a.83.83,0,0,1,.07-.13h0v0l0,.11a.88.88,0,0,0,0,.15l0,.15c0,.06,0,.13,0,.21a.58.58,0,0,0,.17-.35.57.57,0,0,0,0-.13h0l0,0h0a.94.94,0,0,1,0,.17,2,2,0,0,1,0,.26c0,.07,0,.15,0,.17A.56.56,0,0,0,24,4.83l0,0s0,0,0,0,.13.24.21.27l0,0a.56.56,0,0,0,0-.16c0-.15,0-.34,0-.56V4.26l0,0h0c.21.4.31.59.24.92l0,0a.55.55,0,0,0,.1-.31,0,0,0,0,1,0,0Z"/><path class="cls-4" d="M21.53,2.6a.52.52,0,0,1-.32.1c0,.18.42,0,.42,0a.88.88,0,0,1-.31.24.8.8,0,0,0,.46,0,1,1,0,0,0,.15-.16,2.87,2.87,0,0,1-.39.39s.36,0,.43,0A1.92,1.92,0,0,1,22.24,3s-.5.34-.52.34a1.29,1.29,0,0,0,.79-.2A3.67,3.67,0,0,1,22,3.5c.16,0,.24.14.78-.09A1.31,1.31,0,0,0,23.21,3a3.39,3.39,0,0,1-.82.69s.35.19.83-.31Z"/><path d="M22.55,3.76a.26.26,0,0,1-.16,0s0,0,0,0l.35-.24c-.44.19-.57.14-.7.1l-.07,0,0,0s0,0,0,0a1.45,1.45,0,0,0,.31-.18h0a1.07,1.07,0,0,1-.56.08v0a0,0,0,0,1,0,0l.14-.09a.7.7,0,0,1-.32,0s0,0,0,0A.76.76,0,0,0,21.73,3a.68.68,0,0,1-.43,0,1.06,1.06,0,0,0,.26-.2.47.47,0,0,1-.31,0,.12.12,0,0,1-.06-.08.71.71,0,0,0,.33-.13h0s0,0,0,0a.49.49,0,0,1-.34.11s0,0,.06,0a.67.67,0,0,0,.35,0h0a0,0,0,0,1,0,0,.85.85,0,0,1-.32.24,1.31,1.31,0,0,0,.45,0l0,0,.12-.12h0a0,0,0,0,1,0,0s-.06.08-.12.13-.24.26-.28.26A1,1,0,0,0,22,3.16,1.47,1.47,0,0,1,22.23,3s0,0,0,0,0,0,0,0l-.47.32a1.33,1.33,0,0,0,.72-.21s0,0,0,0,0,0,0,0l-.24.17L22,3.5h0c.12,0,.25.08.69-.11A.91.91,0,0,0,23,3.21,1.45,1.45,0,0,0,23.2,3s0,0,0,0,0,0,0,0a1,1,0,0,1-.22.24,4.57,4.57,0,0,1-.61.45l.11,0a.87.87,0,0,0,.7-.35,0,0,0,0,1,0,0,0,0,0,0,1,0,0,1,1,0,0,1-.69.36Z"/><path class="cls-4" d="M24.15,3.68a.52.52,0,0,0,.16.27.4.4,0,0,1,.14.23Z"/><path d="M24.45,4.2h0A.35.35,0,0,0,24.3,4a.54.54,0,0,1-.17-.28,0,0,0,0,1,0,0l0,0a.53.53,0,0,0,.15.26.39.39,0,0,1,.15.24,0,0,0,0,1,0,0Z"/><path class="cls-4" d="M24.08,2.69a.47.47,0,0,0,.18.22,1.55,1.55,0,0,1,.36.42s.09.48.09.53Z"/><path d="M24.71,3.88h0s0,0,0,0-.07-.46-.09-.52a1.64,1.64,0,0,0-.35-.4.6.6,0,0,1-.19-.23s0,0,0,0,0,0,0,0a.56.56,0,0,0,.17.22,1.62,1.62,0,0,1,.37.42c0,.05.09.49.09.54l0,0Z"/><path class="cls-4" d="M23.25,2.9a.55.55,0,0,0,.09.62c-.25.31-.25.35-.25.35s.14.08.39-.14c.41.51.27.74.27.74Z"/><path d="M23.75,4.49h0a0,0,0,0,1,0,0s.12-.23-.28-.72c-.23.23-.38.15-.38.15s.08-.18.24-.38a.48.48,0,0,1-.1-.56s0,0,0-.05a0,0,0,0,1,0,0,0,0,0,0,1,0,0s0,0,0,.07a.47.47,0,0,0,.09.54,2.27,2.27,0,0,0-.24.36h0a.51.51,0,0,0,.33-.15c.44.51.31.75.3.76Z"/><path class="cls-4" d="M23.72,4.11s0-.05,0-.25c.06.07.13.08.16.11s.34.08.36.29Z"/><path d="M24.27,4.28l0,0c0-.15-.19-.21-.29-.24l-.07,0s0,0,0,0a.61.61,0,0,1-.12-.09.43.43,0,0,0,0,.23,0,0,0,0,1,0,0h0s0-.06,0-.27l.14.08.05,0L24,4c.1,0,.29.1.31.28a0,0,0,0,1,0,0Z"/><path class="cls-4" d="M24.09,2.21s-.07-.16-.3,0c.13,0,.25.08.3,0Z"/><path d="M24,2.28h0l-.1,0-.11,0h-.06l.05,0A.37.37,0,0,1,24,2.12a.11.11,0,0,1,.12.09.14.14,0,0,1-.11.07Zm-.16-.07h.06l.1,0h0a.1.1,0,0,0,.07,0h0a.21.21,0,0,0-.23,0Z"/><path class="cls-4" d="M26.32,2.82a2.88,2.88,0,0,0,.93.08c-.29.39-.88.13-.88.13.29.08.3.08.39.16s-.53,0-.71-.07c.51.16.52.15.54.22a1.64,1.64,0,0,1-.91-.14,3,3,0,0,0,.48.29c-.16.07-.44.14-1-.23a3.59,3.59,0,0,0,1.42.7c-.24.36-1.18-.21-1.61-.5a6.42,6.42,0,0,0,1.07.68c-.07.1-.52,0-.55,0Z"/><path d="M25.9,4.2h0c-.15,0-.37,0-.39-.09l0,0a.88.88,0,0,0,.41.07H26a7.77,7.77,0,0,1-1.1-.72h0s0,0,.11,0c.4.26,1.35.84,1.58.5l-.21-.06a2.47,2.47,0,0,1-1.2-.62,0,0,0,0,1,0,0,0,0,0,0,1,0,0c.51.36.79.3.95.23a.22.22,0,0,1-.13,0c-.08,0-.18-.1-.31-.19l-.05,0v0h0l0,0a1.7,1.7,0,0,0,.5.11c.22,0,.32,0,.33,0s0,0-.27-.11h0A.63.63,0,0,1,26,3.14s0,0,0,0,0,0,0,0l.23.07a1.35,1.35,0,0,0,.45,0,.42.42,0,0,0-.15-.08A.66.66,0,0,1,26.36,3s0,0,0,0,0,0,0,0l.1,0,.12,0a.62.62,0,0,0,.6-.14,3.37,3.37,0,0,1-.89-.09l0,0a2.84,2.84,0,0,0,.91.08h0s0,0,0,0a.59.59,0,0,1-.54.22l.05,0a0,0,0,0,1,0,0,0,0,0,0,0,0,0,.49.49,0,0,1-.27,0c.09,0,.1,0,.11.09s0,0,0,0a1.84,1.84,0,0,1-.72-.07l.18.1.13.07a.66.66,0,0,1-.73,0,2.64,2.64,0,0,0,.95.43c.12,0,.2.05.23.09-.17.27-.68.08-1.14-.17a2.83,2.83,0,0,0,.58.34h0s0,0,0,0-.08,0-.18,0Z"/><path class="cls-4" d="M26.5,3.48h0Z"/><path d="M26.26,3.51h-.12a0,0,0,0,1,0,0,0,0,0,0,1,0,0h.35s0,0,0,0a0,0,0,0,1,0,0Z"/><path class="cls-4" d="M21.33,2.49a2.24,2.24,0,0,0,.75.26.35.35,0,0,1-.15.08.7.7,0,0,0,.44,0L22.24,3a.61.61,0,0,0,.43,0l-.11.14h.15Z"/><path d="M22.71,3.13h-.15s0-.06,0-.12a.54.54,0,0,1-.36,0s0-.07.07-.11a.58.58,0,0,1-.37-.06,0,0,0,0,1,0,0s0,0,0,0l.09,0a2.52,2.52,0,0,1-.7-.26s0,0,0,0h0a2.15,2.15,0,0,0,.74.25h0s0,0,0,0a.2.2,0,0,1-.1.07.63.63,0,0,0,.38,0h0s0,0,0,0a1.11,1.11,0,0,1-.11.11h.1a.58.58,0,0,0,.29-.06h0a0,0,0,0,1,0,0c-.07.08-.1.14-.11.14l.15,0s0,0,0,0a0,0,0,0,1,0,0Z"/><path class="cls-6" d="M14.44,11.17s.06,0,0,0-.06,0,0,0Z"/></g></g></g></g></g></svg>