<svg xmlns="http://www.w3.org/2000/svg" xmlns:xlink="http://www.w3.org/1999/xlink" viewBox="0 0 29.46 17.19"><defs><style>.cls-1{fill:none;}.cls-2{clip-path:url(#clip-path);}.cls-3{fill:#4a9318;}.cls-4{fill:#f6d128;}.cls-5{fill:#cb0423;}.cls-6{fill:#fff;}.cls-7{fill:#fcff2c;}</style><clipPath id="clip-path"><rect class="cls-1" width="29.46" height="17.19"/></clipPath></defs><g id="Layer_2" data-name="Layer 2"><g id="cá»"><g id="east_africa" data-name="east africa"><g class="cls-2"><rect class="cls-3" width="29.46" height="17.19"/><rect class="cls-4" y="2.46" width="29.46" height="12.28"/><rect class="cls-5" y="4.91" width="29.46" height="7.37"/><rect y="7.37" width="29.46" height="2.46"/><polygon points="0 0 0 17.19 0.62 17.19 12.07 8.59 0.62 0 0 0"/><polygon class="cls-6" points="0 0 0 17.19 11.45 8.59 0 0"/><polygon class="cls-5" points="4.63 4.23 2.7 8.14 5.64 9.59 4.63 4.23"/><polygon class="cls-5" points="4.63 4.23 6.56 8.14 3.63 9.59 4.63 4.23"/><polygon class="cls-5" points="4.63 4.23 3.17 8.34 6.25 9.44 4.63 4.23"/><polygon class="cls-5" points="4.63 4.23 6.1 8.34 3.01 9.44 4.63 4.23"/><polygon class="cls-5" points="8.78 7.24 4.47 6.62 4 9.86 8.78 7.24"/><polygon class="cls-5" points="0.49 7.24 4.8 6.62 5.27 9.86 0.49 7.24"/><polygon class="cls-5" points="8.78 7.24 4.42 7.12 4.33 10.4 8.78 7.24"/><polygon class="cls-5" points="0.49 7.24 4.85 7.12 4.94 10.4 0.49 7.24"/><polygon class="cls-5" points="6.84 11.63 6.07 7.96 4.24 8.34 6.84 11.63"/><polygon class="cls-5" points="6.84 11.63 3.58 9.77 4.51 8.14 6.84 11.63"/><polygon class="cls-5" points="2.43 11.63 5.68 9.77 4.75 8.14 2.43 11.63"/><polygon class="cls-5" points="2.43 11.63 3.2 7.96 5.03 8.34 2.43 11.63"/><g class="cls-2"><path d="M6.13,11.32a4.79,4.79,0,0,1,.3-1.64,5.45,5.45,0,0,1,.39-.85l.22,0c.24.07.31.06.31,0S7.1,8.53,5.9,7.53c-.81-.68-1.48-1.22-1.51-1.22a.08.08,0,0,1-.07,0S4.27,6,4.23,5.69A4.22,4.22,0,0,0,4.11,5a.51.51,0,0,0-.49-.29.43.43,0,0,0-.36.07A.59.59,0,0,1,3,4.89a.25.25,0,0,0-.26.25v.09H3c.11,0,.17,0,.13,0s-.09.24.09.3.18,0,.18.92a3.38,3.38,0,0,1-.06,1,1.54,1.54,0,0,0,0,.85l.06.2a1.45,1.45,0,0,1-.2.27,1.19,1.19,0,0,0-.32.67.35.35,0,0,1-.06.16.3.3,0,0,0,0,.35,7.37,7.37,0,0,1,.38,1.57c0,.09,0,.09.48,0a6.47,6.47,0,0,1,1.71,0l.54.09c.28.08.26.1.26-.26"/><path class="cls-7" d="M5.75,11.5a5.06,5.06,0,0,0-1.39-.11l-.61,0-.13,0,0-.22a.83.83,0,0,1,0-.24L3.84,11A9,9,0,0,1,6,11l.09,0v.27c0,.2,0,.27,0,.27l-.29-.07"/><path class="cls-7" d="M3.2,11.52c0-.06-.16-.84-.23-1.11s-.09-.35-.09-.37l.1,0a.33.33,0,0,0,.15.07c.15,0,.23.23.36,1,0,.11,0,.23,0,.27s0,.07-.14.1-.2,0-.2,0"/><path class="cls-7" d="M6,10.93a.06.06,0,0,1,0-.07s0,0,0,0,0,.1-.07.06"/><path class="cls-7" d="M3.7,10.81c.08-.09.08-.09.14,0s.06.06,0,.08a.29.29,0,0,1-.14,0H3.62Z"/><path class="cls-7" d="M5.62,10.85s0,0,.06-.07.07,0,.11,0l0,.08H5.72c-.07,0-.11,0-.1,0"/><path class="cls-7" d="M5.87,10.81c0-.05-.06-.09,0-.1a.32.32,0,0,1,.13,0l.13,0L6,10.82l-.07.08Z"/><path class="cls-7" d="M3.5,10.81c0-.06,0-.11.12-.11s.06,0,0,.09-.07.07-.09,0"/><path class="cls-7" d="M4.18,10.75l.08-.08.07.07.08.08H4.1Z"/><path class="cls-7" d="M5.21,10.83l-.1,0,.07-.07.07-.07.08.09c.09.11.09.11-.12.07"/><path class="cls-7" d="M3.93,10.75l-.07-.08H4a.35.35,0,0,0,.16,0s0,0,0,.09a.49.49,0,0,1-.09.1l-.08-.08"/><path class="cls-7" d="M4.67,10.73l.08-.1.08.09a.34.34,0,0,1,.08.1H4.58Z"/><path class="cls-7" d="M5.43,10.75l-.06-.08H5.5c.15,0,.17,0,.08.1s-.06.07-.15,0"/><path class="cls-7" d="M4.42,10.71l-.07-.08h.31l-.07.08c-.08.1-.09.1-.17,0"/><path class="cls-7" d="M4.94,10.71l-.07-.08h.31l-.06.08c-.09.1-.09.1-.18,0"/><path class="cls-7" d="M5.87,10.63l-.64-.06a8.19,8.19,0,0,0-1.63,0c-.11,0-.14,0-.14,0a3.75,3.75,0,0,1,1.48-.13l1,0c.18,0,.19,0,.19.11s0,.09-.26,0"/><path class="cls-7" d="M3.62,10.36a.34.34,0,0,1,.13-.11l.09.07.06.08-.14,0-.2,0s0,0,.06-.1"/><path class="cls-7" d="M3.41,10.37c0-.06,0-.08,0-.1l.12,0s0,0,0,.11l-.08.09Z"/><path class="cls-7" d="M6.1,10.41l0,0s0,0,0,0-.07.07-.07,0"/><path class="cls-7" d="M4.15,10.3l.08-.11.09.09.1.09H4.07Z"/><path class="cls-7" d="M5.7,10.38H5.58l.09-.08.09-.08.07.07c.08.08.09.13,0,.12l-.16,0"/><path class="cls-7" d="M3.91,10.29l-.08-.07.13,0a.26.26,0,0,1,.15,0s0,.05-.05.09L4,10.37Z"/><path class="cls-7" d="M5.18,10.35l-.07,0,.08-.08c.06-.07.08-.07.12,0a.43.43,0,0,1,.07.1s0,.06,0,0l-.15,0"/><path class="cls-7" d="M5.91,10.27l-.08-.1.07,0,.19,0H6.2l-.08.08L6,10.38a.6.6,0,0,1-.1-.11"/><path class="cls-7" d="M4.42,10.27a.41.41,0,0,1-.06-.1.41.41,0,0,1,.17,0h.16l-.06.07c-.09.12-.14.13-.21,0"/><path class="cls-7" d="M4.69,10.26c.09-.09.13-.09.19,0s0,.07-.12.07H4.61Z"/><path class="cls-7" d="M5.41,10.25l-.07-.1h.07l.16,0,.09,0-.08.08-.09.07s0,0-.08-.09"/><path class="cls-7" d="M4.94,10.23l-.07-.08h.31l-.06.08c-.09.1-.09.1-.18,0"/><path class="cls-7" d="M3.39,10.12s0-.12.06-.21l0-.16.32-.18a3.22,3.22,0,0,0,.43-.28l.15-.12a9,9,0,0,1,1.26.09l.8.16a2.51,2.51,0,0,1-.09.33c-.06.18-.12.34-.12.36s-.05,0-.14,0a11.86,11.86,0,0,0-2.38,0c-.3,0-.34,0-.32,0"/><path d="M5.81,9.93a.32.32,0,0,0-.2-.55.29.29,0,0,0-.29.32.29.29,0,0,0,.49.23"/><path class="cls-7" d="M5.5,9.92a.27.27,0,0,1,0-.45.23.23,0,0,1,.32.23.24.24,0,0,1-.34.22"/><path d="M4.65,9.91a.34.34,0,0,0-.07-.55.27.27,0,0,0-.37.12.31.31,0,0,0,0,.4.24.24,0,0,0,.39,0"/><path class="cls-7" d="M4.37,9.89c-.21-.09-.14-.48.09-.48a.25.25,0,0,1,.1.47c-.09,0-.1,0-.19,0"/><path class="cls-7" d="M3.26,10c0-.12,0-.28,0-.28s0,0,0,.12a.28.28,0,0,1,0,.15s0,0,0-.15,0-.18,0-.18a.67.67,0,0,0-.09.29c0,.08,0,.08,0,0a.28.28,0,0,1,0-.21.55.55,0,0,0,.07-.22c0-.08,0-.15.32-.44l.46-.53A.44.44,0,0,0,4,8.2.53.53,0,0,0,4,8s-.07.16-.06.26,0,.13-.18.37-.31.36-.43.48-.3.34-.3.45A.87.87,0,0,1,3,9.77a.35.35,0,0,0,0,.17s0,0,0,0,0-.08,0-.18a.55.55,0,0,0,0-.17c0-.05-.07,0-.08.17s0,.16,0,.15,0-.19,0-.27a2.19,2.19,0,0,0,.07-.23,1.38,1.38,0,0,1,.33-.65l.19-.23-.06-.21a1.56,1.56,0,0,1,0-.83,2,2,0,0,1,.46-.72c.25-.25.48-.41.6-.39s2.9,2.37,2.9,2.43a0,0,0,0,1,0,0L5.65,8.38C4.3,8,4.11,7.89,4.05,7.81a.33.33,0,0,1,0-.38.22.22,0,0,0,.06-.12c0-.07-.14.11-.17.21a.45.45,0,0,0,.12.4,3.68,3.68,0,0,0,.57.21c.47.16.51.17.53.26s-.14.44-.43.5A.73.73,0,0,0,4.43,9a4.31,4.31,0,0,1-.75.51l-.24.13a.48.48,0,0,0-.06.21c0,.2,0,.23-.11.23s0,0,0-.08"/><path class="cls-7" d="M6.2,9.29A9.26,9.26,0,0,0,5,9.11l-.46,0L4.67,9,5,8.85a.42.42,0,0,1,.34-.06c.25,0,.43,0,.49-.15a.79.79,0,0,0,.06-.1l.46.13.45.13L6.68,9l-.14.27c0,.12-.07.12-.34,0"/><path class="cls-7" d="M5.18,8.7s0,0,0-.08,0,0,.06,0,0,.13-.07.1"/><path class="cls-7" d="M5.29,8.7s0,0,0,0,0,0,0,0a0,0,0,0,1,0,0"/><path class="cls-7" d="M5.43,8.68s0,0,0,0,0,.08,0,.08,0,0,0-.05"/><path class="cls-7" d="M5.57,8.68a.14.14,0,0,1,0-.07s0,0,0,0a.08.08,0,0,1,0,.08s0,0,0,0"/><path class="cls-7" d="M5.34,8.61a.12.12,0,0,1,0-.07s0,0,0,0a.07.07,0,0,1,0,.07s0,0,0,0"/><path class="cls-7" d="M5.68,8.6c0-.06,0-.07,0,0s0,.05,0,.05a.05.05,0,0,1-.05,0"/><path class="cls-7" d="M5.45,8.54a0,0,0,0,1,0,0s0,0,0,0,0,.06,0,0"/><path class="cls-7" d="M5.58,8.49s0,0,0,0,0,.08,0,.08,0,0,0,0"/><path class="cls-7" d="M5.23,8.46c0-.06,0-.07,0,0s0,0,0,.05,0,0,0,0"/><path class="cls-7" d="M5.35,8.42s0,0,0,0,0,.08,0,.08,0,0,0-.05"/><path class="cls-7" d="M3.4,6.87c0-.14,0-.46,0-.72,0-.54,0-.59-.16-.65s-.18-.08-.18-.15,0,0,.17,0,.18,0,.17,0S3.18,5.14,3,5.16s-.19,0-.18,0,.12-.16.26-.18a.57.57,0,0,0,.25-.08.49.49,0,0,1,.32,0c.38,0,.46.13.55.86,0,.28.07.54.08.57s-.06.11-.19.21A2.41,2.41,0,0,0,3.49,7l-.08.1Z"/><path d="M3.68,5.18A.11.11,0,0,0,3.7,5c0-.11-.09-.08-.07,0s0,.08,0,.08-.06,0-.06-.1,0-.1,0-.06-.06.12,0,.2a.12.12,0,0,0,.2,0"/></g></g></g></g></g></svg>